G04 MADE WITH FRITZING*
G04 WWW.FRITZING.ORG*
G04 DOUBLE SIDED*
G04 HOLES PLATED*
G04 CONTOUR ON CENTER OF CONTOUR VECTOR*
%ASAXBY*%
%FSLAX23Y23*%
%MOIN*%
%OFA0B0*%
%SFA1.0B1.0*%
%ADD10C,0.075000*%
%ADD11C,0.074000*%
%ADD12R,0.075000X0.075000*%
%ADD13R,0.074000X0.074000*%
%ADD14C,0.016000*%
%LNCOPPER1*%
G90*
G70*
G54D10*
X119Y1592D03*
X773Y1571D03*
X982Y1553D03*
X123Y1326D03*
X1389Y1259D03*
X870Y753D03*
X123Y741D03*
X2465Y646D03*
X2468Y446D03*
X90Y853D03*
X90Y1453D03*
X190Y853D03*
X190Y1453D03*
X290Y853D03*
X290Y1453D03*
X390Y853D03*
X390Y1453D03*
X490Y853D03*
X490Y1453D03*
X590Y853D03*
X590Y1453D03*
X690Y853D03*
X690Y1453D03*
X790Y853D03*
X790Y1453D03*
X890Y853D03*
X890Y1453D03*
X990Y853D03*
X990Y1453D03*
X1090Y853D03*
X1090Y1453D03*
X1190Y853D03*
X1190Y1453D03*
X1290Y853D03*
X1290Y1453D03*
X1390Y853D03*
X1390Y1453D03*
X1490Y853D03*
X1490Y1453D03*
X1590Y853D03*
X1590Y1453D03*
X1690Y853D03*
X1690Y1453D03*
X1790Y853D03*
X1790Y1453D03*
X1890Y853D03*
X1890Y1453D03*
X1990Y853D03*
X1990Y1453D03*
G54D11*
X2365Y1428D03*
X2365Y1328D03*
X2365Y1228D03*
X2365Y1128D03*
X2365Y1028D03*
X2365Y928D03*
X2365Y828D03*
X2365Y728D03*
X2365Y628D03*
X2365Y528D03*
X2365Y428D03*
X2365Y328D03*
X2365Y228D03*
X2265Y1428D03*
X2265Y1328D03*
X2265Y1228D03*
X2265Y1128D03*
X2265Y1028D03*
X2265Y928D03*
X2265Y828D03*
X2265Y728D03*
X2265Y628D03*
X2265Y528D03*
X2265Y428D03*
X2265Y328D03*
X2265Y228D03*
G54D12*
X90Y853D03*
G54D13*
X2265Y1428D03*
G54D14*
X2566Y1654D02*
X690Y1653D01*
D02*
X690Y1653D02*
X690Y1476D01*
D02*
X2566Y329D02*
X2566Y1654D01*
D02*
X2390Y328D02*
X2566Y329D01*
D02*
X2539Y1628D02*
X890Y1628D01*
D02*
X890Y1628D02*
X890Y1476D01*
D02*
X2539Y529D02*
X2539Y1628D01*
D02*
X2390Y528D02*
X2539Y529D01*
D02*
X1290Y1476D02*
X1290Y1603D01*
D02*
X1290Y1603D02*
X2515Y1603D01*
D02*
X2515Y1603D02*
X2515Y729D01*
D02*
X2515Y729D02*
X2390Y728D01*
D02*
X1990Y1503D02*
X2365Y1503D01*
D02*
X2365Y1503D02*
X2365Y1454D01*
D02*
X1990Y1476D02*
X1990Y1503D01*
D02*
X2440Y1528D02*
X2440Y1328D01*
D02*
X2440Y1328D02*
X2390Y1328D01*
D02*
X1890Y1528D02*
X2440Y1528D01*
D02*
X1890Y1476D02*
X1890Y1528D01*
D02*
X2465Y1129D02*
X2390Y1128D01*
D02*
X2465Y1553D02*
X2465Y1129D01*
D02*
X1690Y1553D02*
X2465Y1553D01*
D02*
X1690Y1476D02*
X1690Y1553D01*
D02*
X2489Y929D02*
X2390Y928D01*
D02*
X2491Y1579D02*
X2489Y929D01*
D02*
X1490Y1476D02*
X1490Y1578D01*
D02*
X1490Y1578D02*
X2491Y1579D01*
D02*
X190Y228D02*
X190Y830D01*
D02*
X2239Y228D02*
X190Y228D01*
D02*
X290Y328D02*
X290Y830D01*
D02*
X2239Y328D02*
X290Y328D01*
D02*
X390Y428D02*
X390Y830D01*
D02*
X2239Y428D02*
X390Y428D01*
D02*
X2239Y528D02*
X490Y528D01*
D02*
X490Y528D02*
X490Y830D01*
D02*
X590Y628D02*
X590Y830D01*
D02*
X2239Y628D02*
X590Y628D01*
D02*
X2165Y928D02*
X2165Y678D01*
D02*
X790Y678D02*
X790Y830D01*
D02*
X2165Y678D02*
X790Y678D01*
D02*
X2239Y928D02*
X2165Y928D01*
D02*
X2165Y1328D02*
X1290Y1328D01*
D02*
X1290Y1328D02*
X1290Y876D01*
D02*
X2247Y1410D02*
X2165Y1328D01*
D02*
X2065Y1228D02*
X2065Y778D01*
D02*
X2065Y778D02*
X1190Y778D01*
D02*
X1190Y778D02*
X1190Y830D01*
D02*
X2239Y1228D02*
X2065Y1228D01*
D02*
X2090Y1128D02*
X2090Y753D01*
D02*
X2090Y753D02*
X1090Y753D01*
D02*
X2239Y1128D02*
X2090Y1128D01*
D02*
X1090Y753D02*
X1090Y830D01*
D02*
X2140Y728D02*
X990Y728D01*
D02*
X2140Y1028D02*
X2140Y728D01*
D02*
X990Y728D02*
X990Y830D01*
D02*
X2239Y1028D02*
X2140Y1028D01*
D02*
X2190Y653D02*
X2190Y728D01*
D02*
X690Y653D02*
X2190Y653D01*
D02*
X690Y830D02*
X690Y653D01*
D02*
X2190Y728D02*
X2239Y728D01*
G36*
X40Y1656D02*
X40Y1500D01*
X600Y1500D01*
X600Y1498D01*
X606Y1498D01*
X606Y1496D01*
X610Y1496D01*
X610Y1494D01*
X612Y1494D01*
X612Y1492D01*
X616Y1492D01*
X616Y1490D01*
X618Y1490D01*
X618Y1488D01*
X620Y1488D01*
X620Y1486D01*
X622Y1486D01*
X622Y1484D01*
X624Y1484D01*
X624Y1482D01*
X626Y1482D01*
X626Y1480D01*
X628Y1480D01*
X628Y1478D01*
X630Y1478D01*
X630Y1474D01*
X650Y1474D01*
X650Y1478D01*
X652Y1478D01*
X652Y1480D01*
X654Y1480D01*
X654Y1484D01*
X656Y1484D01*
X656Y1486D01*
X658Y1486D01*
X658Y1488D01*
X662Y1488D01*
X662Y1490D01*
X664Y1490D01*
X664Y1492D01*
X666Y1492D01*
X666Y1494D01*
X670Y1494D01*
X670Y1496D01*
X672Y1496D01*
X672Y1656D01*
X40Y1656D01*
G37*
D02*
G36*
X40Y1500D02*
X40Y1488D01*
X62Y1488D01*
X62Y1490D01*
X64Y1490D01*
X64Y1492D01*
X66Y1492D01*
X66Y1494D01*
X70Y1494D01*
X70Y1496D01*
X74Y1496D01*
X74Y1498D01*
X80Y1498D01*
X80Y1500D01*
X40Y1500D01*
G37*
D02*
G36*
X100Y1500D02*
X100Y1498D01*
X106Y1498D01*
X106Y1496D01*
X110Y1496D01*
X110Y1494D01*
X112Y1494D01*
X112Y1492D01*
X116Y1492D01*
X116Y1490D01*
X118Y1490D01*
X118Y1488D01*
X120Y1488D01*
X120Y1486D01*
X122Y1486D01*
X122Y1484D01*
X124Y1484D01*
X124Y1482D01*
X126Y1482D01*
X126Y1480D01*
X128Y1480D01*
X128Y1478D01*
X130Y1478D01*
X130Y1474D01*
X150Y1474D01*
X150Y1478D01*
X152Y1478D01*
X152Y1480D01*
X154Y1480D01*
X154Y1482D01*
X156Y1482D01*
X156Y1486D01*
X158Y1486D01*
X158Y1488D01*
X162Y1488D01*
X162Y1490D01*
X164Y1490D01*
X164Y1492D01*
X166Y1492D01*
X166Y1494D01*
X170Y1494D01*
X170Y1496D01*
X174Y1496D01*
X174Y1498D01*
X180Y1498D01*
X180Y1500D01*
X100Y1500D01*
G37*
D02*
G36*
X200Y1500D02*
X200Y1498D01*
X206Y1498D01*
X206Y1496D01*
X210Y1496D01*
X210Y1494D01*
X212Y1494D01*
X212Y1492D01*
X216Y1492D01*
X216Y1490D01*
X218Y1490D01*
X218Y1488D01*
X220Y1488D01*
X220Y1486D01*
X222Y1486D01*
X222Y1484D01*
X224Y1484D01*
X224Y1482D01*
X226Y1482D01*
X226Y1480D01*
X228Y1480D01*
X228Y1478D01*
X230Y1478D01*
X230Y1474D01*
X250Y1474D01*
X250Y1478D01*
X252Y1478D01*
X252Y1480D01*
X254Y1480D01*
X254Y1482D01*
X256Y1482D01*
X256Y1486D01*
X258Y1486D01*
X258Y1488D01*
X262Y1488D01*
X262Y1490D01*
X264Y1490D01*
X264Y1492D01*
X266Y1492D01*
X266Y1494D01*
X270Y1494D01*
X270Y1496D01*
X274Y1496D01*
X274Y1498D01*
X280Y1498D01*
X280Y1500D01*
X200Y1500D01*
G37*
D02*
G36*
X300Y1500D02*
X300Y1498D01*
X306Y1498D01*
X306Y1496D01*
X310Y1496D01*
X310Y1494D01*
X312Y1494D01*
X312Y1492D01*
X316Y1492D01*
X316Y1490D01*
X318Y1490D01*
X318Y1488D01*
X320Y1488D01*
X320Y1486D01*
X322Y1486D01*
X322Y1484D01*
X324Y1484D01*
X324Y1482D01*
X326Y1482D01*
X326Y1480D01*
X328Y1480D01*
X328Y1478D01*
X330Y1478D01*
X330Y1474D01*
X350Y1474D01*
X350Y1478D01*
X352Y1478D01*
X352Y1480D01*
X354Y1480D01*
X354Y1484D01*
X356Y1484D01*
X356Y1486D01*
X358Y1486D01*
X358Y1488D01*
X362Y1488D01*
X362Y1490D01*
X364Y1490D01*
X364Y1492D01*
X366Y1492D01*
X366Y1494D01*
X370Y1494D01*
X370Y1496D01*
X374Y1496D01*
X374Y1498D01*
X380Y1498D01*
X380Y1500D01*
X300Y1500D01*
G37*
D02*
G36*
X400Y1500D02*
X400Y1498D01*
X406Y1498D01*
X406Y1496D01*
X410Y1496D01*
X410Y1494D01*
X412Y1494D01*
X412Y1492D01*
X416Y1492D01*
X416Y1490D01*
X418Y1490D01*
X418Y1488D01*
X420Y1488D01*
X420Y1486D01*
X422Y1486D01*
X422Y1484D01*
X424Y1484D01*
X424Y1482D01*
X426Y1482D01*
X426Y1480D01*
X428Y1480D01*
X428Y1478D01*
X430Y1478D01*
X430Y1474D01*
X450Y1474D01*
X450Y1478D01*
X452Y1478D01*
X452Y1480D01*
X454Y1480D01*
X454Y1484D01*
X456Y1484D01*
X456Y1486D01*
X458Y1486D01*
X458Y1488D01*
X462Y1488D01*
X462Y1490D01*
X464Y1490D01*
X464Y1492D01*
X466Y1492D01*
X466Y1494D01*
X470Y1494D01*
X470Y1496D01*
X474Y1496D01*
X474Y1498D01*
X480Y1498D01*
X480Y1500D01*
X400Y1500D01*
G37*
D02*
G36*
X500Y1500D02*
X500Y1498D01*
X506Y1498D01*
X506Y1496D01*
X510Y1496D01*
X510Y1494D01*
X512Y1494D01*
X512Y1492D01*
X516Y1492D01*
X516Y1490D01*
X518Y1490D01*
X518Y1488D01*
X520Y1488D01*
X520Y1486D01*
X522Y1486D01*
X522Y1484D01*
X524Y1484D01*
X524Y1482D01*
X526Y1482D01*
X526Y1480D01*
X528Y1480D01*
X528Y1478D01*
X530Y1478D01*
X530Y1474D01*
X550Y1474D01*
X550Y1478D01*
X552Y1478D01*
X552Y1480D01*
X554Y1480D01*
X554Y1484D01*
X556Y1484D01*
X556Y1486D01*
X558Y1486D01*
X558Y1488D01*
X562Y1488D01*
X562Y1490D01*
X564Y1490D01*
X564Y1492D01*
X566Y1492D01*
X566Y1494D01*
X570Y1494D01*
X570Y1496D01*
X574Y1496D01*
X574Y1498D01*
X580Y1498D01*
X580Y1500D01*
X500Y1500D01*
G37*
D02*
G36*
X708Y1634D02*
X708Y1500D01*
X800Y1500D01*
X800Y1498D01*
X806Y1498D01*
X806Y1496D01*
X810Y1496D01*
X810Y1494D01*
X812Y1494D01*
X812Y1492D01*
X816Y1492D01*
X816Y1490D01*
X818Y1490D01*
X818Y1488D01*
X820Y1488D01*
X820Y1486D01*
X822Y1486D01*
X822Y1484D01*
X824Y1484D01*
X824Y1482D01*
X826Y1482D01*
X826Y1480D01*
X828Y1480D01*
X828Y1478D01*
X830Y1478D01*
X830Y1474D01*
X850Y1474D01*
X850Y1478D01*
X852Y1478D01*
X852Y1480D01*
X854Y1480D01*
X854Y1484D01*
X856Y1484D01*
X856Y1486D01*
X858Y1486D01*
X858Y1488D01*
X862Y1488D01*
X862Y1490D01*
X864Y1490D01*
X864Y1492D01*
X866Y1492D01*
X866Y1494D01*
X870Y1494D01*
X870Y1496D01*
X872Y1496D01*
X872Y1634D01*
X708Y1634D01*
G37*
D02*
G36*
X708Y1500D02*
X708Y1496D01*
X710Y1496D01*
X710Y1494D01*
X712Y1494D01*
X712Y1492D01*
X716Y1492D01*
X716Y1490D01*
X718Y1490D01*
X718Y1488D01*
X720Y1488D01*
X720Y1486D01*
X722Y1486D01*
X722Y1484D01*
X724Y1484D01*
X724Y1482D01*
X726Y1482D01*
X726Y1480D01*
X728Y1480D01*
X728Y1478D01*
X730Y1478D01*
X730Y1474D01*
X750Y1474D01*
X750Y1478D01*
X752Y1478D01*
X752Y1480D01*
X754Y1480D01*
X754Y1484D01*
X756Y1484D01*
X756Y1486D01*
X758Y1486D01*
X758Y1488D01*
X762Y1488D01*
X762Y1490D01*
X764Y1490D01*
X764Y1492D01*
X766Y1492D01*
X766Y1494D01*
X770Y1494D01*
X770Y1496D01*
X774Y1496D01*
X774Y1498D01*
X780Y1498D01*
X780Y1500D01*
X708Y1500D01*
G37*
D02*
G36*
X908Y1610D02*
X908Y1500D01*
X1200Y1500D01*
X1200Y1498D01*
X1206Y1498D01*
X1206Y1496D01*
X1210Y1496D01*
X1210Y1494D01*
X1212Y1494D01*
X1212Y1492D01*
X1216Y1492D01*
X1216Y1490D01*
X1218Y1490D01*
X1218Y1488D01*
X1220Y1488D01*
X1220Y1486D01*
X1222Y1486D01*
X1222Y1484D01*
X1224Y1484D01*
X1224Y1482D01*
X1226Y1482D01*
X1226Y1480D01*
X1228Y1480D01*
X1228Y1478D01*
X1230Y1478D01*
X1230Y1474D01*
X1250Y1474D01*
X1250Y1478D01*
X1252Y1478D01*
X1252Y1480D01*
X1254Y1480D01*
X1254Y1484D01*
X1256Y1484D01*
X1256Y1486D01*
X1258Y1486D01*
X1258Y1488D01*
X1262Y1488D01*
X1262Y1490D01*
X1264Y1490D01*
X1264Y1492D01*
X1266Y1492D01*
X1266Y1494D01*
X1270Y1494D01*
X1270Y1496D01*
X1272Y1496D01*
X1272Y1610D01*
X908Y1610D01*
G37*
D02*
G36*
X908Y1500D02*
X908Y1496D01*
X910Y1496D01*
X910Y1494D01*
X912Y1494D01*
X912Y1492D01*
X916Y1492D01*
X916Y1490D01*
X918Y1490D01*
X918Y1488D01*
X920Y1488D01*
X920Y1486D01*
X922Y1486D01*
X922Y1484D01*
X924Y1484D01*
X924Y1482D01*
X926Y1482D01*
X926Y1480D01*
X928Y1480D01*
X928Y1478D01*
X930Y1478D01*
X930Y1474D01*
X950Y1474D01*
X950Y1478D01*
X952Y1478D01*
X952Y1480D01*
X954Y1480D01*
X954Y1484D01*
X956Y1484D01*
X956Y1486D01*
X958Y1486D01*
X958Y1488D01*
X962Y1488D01*
X962Y1490D01*
X964Y1490D01*
X964Y1492D01*
X966Y1492D01*
X966Y1494D01*
X970Y1494D01*
X970Y1496D01*
X974Y1496D01*
X974Y1498D01*
X980Y1498D01*
X980Y1500D01*
X908Y1500D01*
G37*
D02*
G36*
X1000Y1500D02*
X1000Y1498D01*
X1006Y1498D01*
X1006Y1496D01*
X1010Y1496D01*
X1010Y1494D01*
X1012Y1494D01*
X1012Y1492D01*
X1016Y1492D01*
X1016Y1490D01*
X1018Y1490D01*
X1018Y1488D01*
X1020Y1488D01*
X1020Y1486D01*
X1022Y1486D01*
X1022Y1484D01*
X1024Y1484D01*
X1024Y1482D01*
X1026Y1482D01*
X1026Y1480D01*
X1028Y1480D01*
X1028Y1478D01*
X1030Y1478D01*
X1030Y1474D01*
X1050Y1474D01*
X1050Y1478D01*
X1052Y1478D01*
X1052Y1480D01*
X1054Y1480D01*
X1054Y1484D01*
X1056Y1484D01*
X1056Y1486D01*
X1058Y1486D01*
X1058Y1488D01*
X1062Y1488D01*
X1062Y1490D01*
X1064Y1490D01*
X1064Y1492D01*
X1066Y1492D01*
X1066Y1494D01*
X1070Y1494D01*
X1070Y1496D01*
X1074Y1496D01*
X1074Y1498D01*
X1080Y1498D01*
X1080Y1500D01*
X1000Y1500D01*
G37*
D02*
G36*
X1100Y1500D02*
X1100Y1498D01*
X1106Y1498D01*
X1106Y1496D01*
X1110Y1496D01*
X1110Y1494D01*
X1112Y1494D01*
X1112Y1492D01*
X1116Y1492D01*
X1116Y1490D01*
X1118Y1490D01*
X1118Y1488D01*
X1120Y1488D01*
X1120Y1486D01*
X1122Y1486D01*
X1122Y1484D01*
X1124Y1484D01*
X1124Y1482D01*
X1126Y1482D01*
X1126Y1480D01*
X1128Y1480D01*
X1128Y1478D01*
X1130Y1478D01*
X1130Y1474D01*
X1150Y1474D01*
X1150Y1478D01*
X1152Y1478D01*
X1152Y1480D01*
X1154Y1480D01*
X1154Y1484D01*
X1156Y1484D01*
X1156Y1486D01*
X1158Y1486D01*
X1158Y1488D01*
X1162Y1488D01*
X1162Y1490D01*
X1164Y1490D01*
X1164Y1492D01*
X1166Y1492D01*
X1166Y1494D01*
X1170Y1494D01*
X1170Y1496D01*
X1174Y1496D01*
X1174Y1498D01*
X1180Y1498D01*
X1180Y1500D01*
X1100Y1500D01*
G37*
D02*
G36*
X1308Y1584D02*
X1308Y1500D01*
X1400Y1500D01*
X1400Y1498D01*
X1406Y1498D01*
X1406Y1496D01*
X1410Y1496D01*
X1410Y1494D01*
X1412Y1494D01*
X1412Y1492D01*
X1416Y1492D01*
X1416Y1490D01*
X1418Y1490D01*
X1418Y1488D01*
X1420Y1488D01*
X1420Y1486D01*
X1422Y1486D01*
X1422Y1484D01*
X1424Y1484D01*
X1424Y1482D01*
X1426Y1482D01*
X1426Y1480D01*
X1428Y1480D01*
X1428Y1478D01*
X1430Y1478D01*
X1430Y1474D01*
X1450Y1474D01*
X1450Y1478D01*
X1452Y1478D01*
X1452Y1480D01*
X1454Y1480D01*
X1454Y1484D01*
X1456Y1484D01*
X1456Y1486D01*
X1458Y1486D01*
X1458Y1488D01*
X1462Y1488D01*
X1462Y1490D01*
X1464Y1490D01*
X1464Y1492D01*
X1466Y1492D01*
X1466Y1494D01*
X1470Y1494D01*
X1470Y1496D01*
X1472Y1496D01*
X1472Y1584D01*
X1308Y1584D01*
G37*
D02*
G36*
X1308Y1500D02*
X1308Y1496D01*
X1310Y1496D01*
X1310Y1494D01*
X1312Y1494D01*
X1312Y1492D01*
X1316Y1492D01*
X1316Y1490D01*
X1318Y1490D01*
X1318Y1488D01*
X1320Y1488D01*
X1320Y1486D01*
X1322Y1486D01*
X1322Y1484D01*
X1324Y1484D01*
X1324Y1482D01*
X1326Y1482D01*
X1326Y1480D01*
X1328Y1480D01*
X1328Y1478D01*
X1330Y1478D01*
X1330Y1474D01*
X1350Y1474D01*
X1350Y1478D01*
X1352Y1478D01*
X1352Y1480D01*
X1354Y1480D01*
X1354Y1484D01*
X1356Y1484D01*
X1356Y1486D01*
X1358Y1486D01*
X1358Y1488D01*
X1362Y1488D01*
X1362Y1490D01*
X1364Y1490D01*
X1364Y1492D01*
X1366Y1492D01*
X1366Y1494D01*
X1370Y1494D01*
X1370Y1496D01*
X1374Y1496D01*
X1374Y1498D01*
X1380Y1498D01*
X1380Y1500D01*
X1308Y1500D01*
G37*
D02*
G36*
X1508Y1560D02*
X1508Y1500D01*
X1600Y1500D01*
X1600Y1498D01*
X1606Y1498D01*
X1606Y1496D01*
X1610Y1496D01*
X1610Y1494D01*
X1612Y1494D01*
X1612Y1492D01*
X1616Y1492D01*
X1616Y1490D01*
X1618Y1490D01*
X1618Y1488D01*
X1620Y1488D01*
X1620Y1486D01*
X1622Y1486D01*
X1622Y1484D01*
X1624Y1484D01*
X1624Y1482D01*
X1626Y1482D01*
X1626Y1480D01*
X1628Y1480D01*
X1628Y1478D01*
X1630Y1478D01*
X1630Y1474D01*
X1650Y1474D01*
X1650Y1478D01*
X1652Y1478D01*
X1652Y1480D01*
X1654Y1480D01*
X1654Y1484D01*
X1656Y1484D01*
X1656Y1486D01*
X1658Y1486D01*
X1658Y1488D01*
X1662Y1488D01*
X1662Y1490D01*
X1664Y1490D01*
X1664Y1492D01*
X1666Y1492D01*
X1666Y1494D01*
X1670Y1494D01*
X1670Y1496D01*
X1672Y1496D01*
X1672Y1560D01*
X1508Y1560D01*
G37*
D02*
G36*
X1508Y1500D02*
X1508Y1496D01*
X1510Y1496D01*
X1510Y1494D01*
X1512Y1494D01*
X1512Y1492D01*
X1516Y1492D01*
X1516Y1490D01*
X1518Y1490D01*
X1518Y1488D01*
X1520Y1488D01*
X1520Y1486D01*
X1522Y1486D01*
X1522Y1484D01*
X1524Y1484D01*
X1524Y1482D01*
X1526Y1482D01*
X1526Y1480D01*
X1528Y1480D01*
X1528Y1478D01*
X1530Y1478D01*
X1530Y1474D01*
X1550Y1474D01*
X1550Y1478D01*
X1552Y1478D01*
X1552Y1480D01*
X1554Y1480D01*
X1554Y1484D01*
X1556Y1484D01*
X1556Y1486D01*
X1558Y1486D01*
X1558Y1488D01*
X1562Y1488D01*
X1562Y1490D01*
X1564Y1490D01*
X1564Y1492D01*
X1566Y1492D01*
X1566Y1494D01*
X1570Y1494D01*
X1570Y1496D01*
X1574Y1496D01*
X1574Y1498D01*
X1580Y1498D01*
X1580Y1500D01*
X1508Y1500D01*
G37*
D02*
G36*
X1708Y1534D02*
X1708Y1500D01*
X1800Y1500D01*
X1800Y1498D01*
X1806Y1498D01*
X1806Y1496D01*
X1810Y1496D01*
X1810Y1494D01*
X1812Y1494D01*
X1812Y1492D01*
X1816Y1492D01*
X1816Y1490D01*
X1818Y1490D01*
X1818Y1488D01*
X1820Y1488D01*
X1820Y1486D01*
X1822Y1486D01*
X1822Y1484D01*
X1824Y1484D01*
X1824Y1482D01*
X1826Y1482D01*
X1826Y1480D01*
X1828Y1480D01*
X1828Y1478D01*
X1830Y1478D01*
X1830Y1474D01*
X1850Y1474D01*
X1850Y1478D01*
X1852Y1478D01*
X1852Y1480D01*
X1854Y1480D01*
X1854Y1484D01*
X1856Y1484D01*
X1856Y1486D01*
X1858Y1486D01*
X1858Y1488D01*
X1862Y1488D01*
X1862Y1490D01*
X1864Y1490D01*
X1864Y1492D01*
X1866Y1492D01*
X1866Y1494D01*
X1870Y1494D01*
X1870Y1496D01*
X1872Y1496D01*
X1872Y1534D01*
X1708Y1534D01*
G37*
D02*
G36*
X1708Y1500D02*
X1708Y1496D01*
X1710Y1496D01*
X1710Y1494D01*
X1712Y1494D01*
X1712Y1492D01*
X1716Y1492D01*
X1716Y1490D01*
X1718Y1490D01*
X1718Y1488D01*
X1720Y1488D01*
X1720Y1486D01*
X1722Y1486D01*
X1722Y1484D01*
X1724Y1484D01*
X1724Y1482D01*
X1726Y1482D01*
X1726Y1480D01*
X1728Y1480D01*
X1728Y1478D01*
X1730Y1478D01*
X1730Y1474D01*
X1750Y1474D01*
X1750Y1478D01*
X1752Y1478D01*
X1752Y1480D01*
X1754Y1480D01*
X1754Y1484D01*
X1756Y1484D01*
X1756Y1486D01*
X1758Y1486D01*
X1758Y1488D01*
X1762Y1488D01*
X1762Y1490D01*
X1764Y1490D01*
X1764Y1492D01*
X1766Y1492D01*
X1766Y1494D01*
X1770Y1494D01*
X1770Y1496D01*
X1774Y1496D01*
X1774Y1498D01*
X1780Y1498D01*
X1780Y1500D01*
X1708Y1500D01*
G37*
D02*
G36*
X2382Y1510D02*
X2382Y1470D01*
X2386Y1470D01*
X2386Y1468D01*
X2388Y1468D01*
X2388Y1466D01*
X2392Y1466D01*
X2392Y1464D01*
X2394Y1464D01*
X2394Y1462D01*
X2396Y1462D01*
X2396Y1460D01*
X2398Y1460D01*
X2398Y1458D01*
X2400Y1458D01*
X2400Y1456D01*
X2402Y1456D01*
X2402Y1454D01*
X2422Y1454D01*
X2422Y1510D01*
X2382Y1510D01*
G37*
D02*
G36*
X2036Y1484D02*
X2036Y1458D01*
X2038Y1458D01*
X2038Y1448D01*
X2036Y1448D01*
X2036Y1440D01*
X2034Y1440D01*
X2034Y1436D01*
X2032Y1436D01*
X2032Y1432D01*
X2030Y1432D01*
X2030Y1428D01*
X2028Y1428D01*
X2028Y1426D01*
X2026Y1426D01*
X2026Y1424D01*
X2024Y1424D01*
X2024Y1420D01*
X2020Y1420D01*
X2020Y1418D01*
X2018Y1418D01*
X2018Y1416D01*
X2016Y1416D01*
X2016Y1414D01*
X2014Y1414D01*
X2014Y1412D01*
X2010Y1412D01*
X2010Y1410D01*
X2006Y1410D01*
X2006Y1408D01*
X2000Y1408D01*
X2000Y1406D01*
X2218Y1406D01*
X2218Y1484D01*
X2036Y1484D01*
G37*
D02*
G36*
X130Y1430D02*
X130Y1428D01*
X128Y1428D01*
X128Y1426D01*
X126Y1426D01*
X126Y1424D01*
X124Y1424D01*
X124Y1420D01*
X120Y1420D01*
X120Y1418D01*
X118Y1418D01*
X118Y1416D01*
X116Y1416D01*
X116Y1414D01*
X114Y1414D01*
X114Y1412D01*
X110Y1412D01*
X110Y1410D01*
X106Y1410D01*
X106Y1408D01*
X100Y1408D01*
X100Y1406D01*
X178Y1406D01*
X178Y1408D01*
X174Y1408D01*
X174Y1410D01*
X170Y1410D01*
X170Y1412D01*
X166Y1412D01*
X166Y1414D01*
X164Y1414D01*
X164Y1416D01*
X160Y1416D01*
X160Y1418D01*
X158Y1418D01*
X158Y1420D01*
X156Y1420D01*
X156Y1422D01*
X154Y1422D01*
X154Y1426D01*
X152Y1426D01*
X152Y1428D01*
X150Y1428D01*
X150Y1430D01*
X130Y1430D01*
G37*
D02*
G36*
X230Y1430D02*
X230Y1428D01*
X228Y1428D01*
X228Y1426D01*
X226Y1426D01*
X226Y1424D01*
X224Y1424D01*
X224Y1420D01*
X220Y1420D01*
X220Y1418D01*
X218Y1418D01*
X218Y1416D01*
X216Y1416D01*
X216Y1414D01*
X214Y1414D01*
X214Y1412D01*
X210Y1412D01*
X210Y1410D01*
X206Y1410D01*
X206Y1408D01*
X200Y1408D01*
X200Y1406D01*
X278Y1406D01*
X278Y1408D01*
X274Y1408D01*
X274Y1410D01*
X270Y1410D01*
X270Y1412D01*
X266Y1412D01*
X266Y1414D01*
X264Y1414D01*
X264Y1416D01*
X260Y1416D01*
X260Y1418D01*
X258Y1418D01*
X258Y1420D01*
X256Y1420D01*
X256Y1422D01*
X254Y1422D01*
X254Y1426D01*
X252Y1426D01*
X252Y1428D01*
X250Y1428D01*
X250Y1430D01*
X230Y1430D01*
G37*
D02*
G36*
X330Y1430D02*
X330Y1428D01*
X328Y1428D01*
X328Y1426D01*
X326Y1426D01*
X326Y1424D01*
X324Y1424D01*
X324Y1420D01*
X320Y1420D01*
X320Y1418D01*
X318Y1418D01*
X318Y1416D01*
X316Y1416D01*
X316Y1414D01*
X314Y1414D01*
X314Y1412D01*
X310Y1412D01*
X310Y1410D01*
X306Y1410D01*
X306Y1408D01*
X300Y1408D01*
X300Y1406D01*
X378Y1406D01*
X378Y1408D01*
X374Y1408D01*
X374Y1410D01*
X370Y1410D01*
X370Y1412D01*
X366Y1412D01*
X366Y1414D01*
X364Y1414D01*
X364Y1416D01*
X360Y1416D01*
X360Y1418D01*
X358Y1418D01*
X358Y1420D01*
X356Y1420D01*
X356Y1422D01*
X354Y1422D01*
X354Y1426D01*
X352Y1426D01*
X352Y1428D01*
X350Y1428D01*
X350Y1430D01*
X330Y1430D01*
G37*
D02*
G36*
X430Y1430D02*
X430Y1428D01*
X428Y1428D01*
X428Y1426D01*
X426Y1426D01*
X426Y1424D01*
X424Y1424D01*
X424Y1420D01*
X420Y1420D01*
X420Y1418D01*
X418Y1418D01*
X418Y1416D01*
X416Y1416D01*
X416Y1414D01*
X414Y1414D01*
X414Y1412D01*
X410Y1412D01*
X410Y1410D01*
X406Y1410D01*
X406Y1408D01*
X400Y1408D01*
X400Y1406D01*
X478Y1406D01*
X478Y1408D01*
X474Y1408D01*
X474Y1410D01*
X470Y1410D01*
X470Y1412D01*
X466Y1412D01*
X466Y1414D01*
X464Y1414D01*
X464Y1416D01*
X460Y1416D01*
X460Y1418D01*
X458Y1418D01*
X458Y1420D01*
X456Y1420D01*
X456Y1422D01*
X454Y1422D01*
X454Y1426D01*
X452Y1426D01*
X452Y1428D01*
X450Y1428D01*
X450Y1430D01*
X430Y1430D01*
G37*
D02*
G36*
X530Y1430D02*
X530Y1428D01*
X528Y1428D01*
X528Y1426D01*
X526Y1426D01*
X526Y1424D01*
X524Y1424D01*
X524Y1420D01*
X520Y1420D01*
X520Y1418D01*
X518Y1418D01*
X518Y1416D01*
X516Y1416D01*
X516Y1414D01*
X514Y1414D01*
X514Y1412D01*
X510Y1412D01*
X510Y1410D01*
X506Y1410D01*
X506Y1408D01*
X500Y1408D01*
X500Y1406D01*
X578Y1406D01*
X578Y1408D01*
X574Y1408D01*
X574Y1410D01*
X570Y1410D01*
X570Y1412D01*
X566Y1412D01*
X566Y1414D01*
X564Y1414D01*
X564Y1416D01*
X560Y1416D01*
X560Y1418D01*
X558Y1418D01*
X558Y1420D01*
X556Y1420D01*
X556Y1422D01*
X554Y1422D01*
X554Y1426D01*
X552Y1426D01*
X552Y1428D01*
X550Y1428D01*
X550Y1430D01*
X530Y1430D01*
G37*
D02*
G36*
X630Y1430D02*
X630Y1428D01*
X628Y1428D01*
X628Y1426D01*
X626Y1426D01*
X626Y1424D01*
X624Y1424D01*
X624Y1420D01*
X620Y1420D01*
X620Y1418D01*
X618Y1418D01*
X618Y1416D01*
X616Y1416D01*
X616Y1414D01*
X614Y1414D01*
X614Y1412D01*
X610Y1412D01*
X610Y1410D01*
X606Y1410D01*
X606Y1408D01*
X600Y1408D01*
X600Y1406D01*
X678Y1406D01*
X678Y1408D01*
X674Y1408D01*
X674Y1410D01*
X670Y1410D01*
X670Y1412D01*
X666Y1412D01*
X666Y1414D01*
X664Y1414D01*
X664Y1416D01*
X660Y1416D01*
X660Y1418D01*
X658Y1418D01*
X658Y1420D01*
X656Y1420D01*
X656Y1422D01*
X654Y1422D01*
X654Y1426D01*
X652Y1426D01*
X652Y1428D01*
X650Y1428D01*
X650Y1430D01*
X630Y1430D01*
G37*
D02*
G36*
X730Y1430D02*
X730Y1428D01*
X728Y1428D01*
X728Y1426D01*
X726Y1426D01*
X726Y1424D01*
X724Y1424D01*
X724Y1420D01*
X720Y1420D01*
X720Y1418D01*
X718Y1418D01*
X718Y1416D01*
X716Y1416D01*
X716Y1414D01*
X714Y1414D01*
X714Y1412D01*
X710Y1412D01*
X710Y1410D01*
X706Y1410D01*
X706Y1408D01*
X700Y1408D01*
X700Y1406D01*
X778Y1406D01*
X778Y1408D01*
X774Y1408D01*
X774Y1410D01*
X770Y1410D01*
X770Y1412D01*
X766Y1412D01*
X766Y1414D01*
X764Y1414D01*
X764Y1416D01*
X760Y1416D01*
X760Y1418D01*
X758Y1418D01*
X758Y1420D01*
X756Y1420D01*
X756Y1422D01*
X754Y1422D01*
X754Y1426D01*
X752Y1426D01*
X752Y1428D01*
X750Y1428D01*
X750Y1430D01*
X730Y1430D01*
G37*
D02*
G36*
X830Y1430D02*
X830Y1428D01*
X828Y1428D01*
X828Y1426D01*
X826Y1426D01*
X826Y1424D01*
X824Y1424D01*
X824Y1420D01*
X820Y1420D01*
X820Y1418D01*
X818Y1418D01*
X818Y1416D01*
X816Y1416D01*
X816Y1414D01*
X814Y1414D01*
X814Y1412D01*
X810Y1412D01*
X810Y1410D01*
X806Y1410D01*
X806Y1408D01*
X800Y1408D01*
X800Y1406D01*
X878Y1406D01*
X878Y1408D01*
X874Y1408D01*
X874Y1410D01*
X870Y1410D01*
X870Y1412D01*
X866Y1412D01*
X866Y1414D01*
X864Y1414D01*
X864Y1416D01*
X860Y1416D01*
X860Y1418D01*
X858Y1418D01*
X858Y1420D01*
X856Y1420D01*
X856Y1422D01*
X854Y1422D01*
X854Y1426D01*
X852Y1426D01*
X852Y1428D01*
X850Y1428D01*
X850Y1430D01*
X830Y1430D01*
G37*
D02*
G36*
X930Y1430D02*
X930Y1428D01*
X928Y1428D01*
X928Y1426D01*
X926Y1426D01*
X926Y1424D01*
X924Y1424D01*
X924Y1420D01*
X920Y1420D01*
X920Y1418D01*
X918Y1418D01*
X918Y1416D01*
X916Y1416D01*
X916Y1414D01*
X914Y1414D01*
X914Y1412D01*
X910Y1412D01*
X910Y1410D01*
X906Y1410D01*
X906Y1408D01*
X900Y1408D01*
X900Y1406D01*
X978Y1406D01*
X978Y1408D01*
X974Y1408D01*
X974Y1410D01*
X970Y1410D01*
X970Y1412D01*
X966Y1412D01*
X966Y1414D01*
X964Y1414D01*
X964Y1416D01*
X960Y1416D01*
X960Y1418D01*
X958Y1418D01*
X958Y1420D01*
X956Y1420D01*
X956Y1422D01*
X954Y1422D01*
X954Y1426D01*
X952Y1426D01*
X952Y1428D01*
X950Y1428D01*
X950Y1430D01*
X930Y1430D01*
G37*
D02*
G36*
X1030Y1430D02*
X1030Y1428D01*
X1028Y1428D01*
X1028Y1426D01*
X1026Y1426D01*
X1026Y1424D01*
X1024Y1424D01*
X1024Y1420D01*
X1020Y1420D01*
X1020Y1418D01*
X1018Y1418D01*
X1018Y1416D01*
X1016Y1416D01*
X1016Y1414D01*
X1014Y1414D01*
X1014Y1412D01*
X1010Y1412D01*
X1010Y1410D01*
X1006Y1410D01*
X1006Y1408D01*
X1000Y1408D01*
X1000Y1406D01*
X1078Y1406D01*
X1078Y1408D01*
X1074Y1408D01*
X1074Y1410D01*
X1070Y1410D01*
X1070Y1412D01*
X1066Y1412D01*
X1066Y1414D01*
X1064Y1414D01*
X1064Y1416D01*
X1060Y1416D01*
X1060Y1418D01*
X1058Y1418D01*
X1058Y1420D01*
X1056Y1420D01*
X1056Y1422D01*
X1054Y1422D01*
X1054Y1426D01*
X1052Y1426D01*
X1052Y1428D01*
X1050Y1428D01*
X1050Y1430D01*
X1030Y1430D01*
G37*
D02*
G36*
X1130Y1430D02*
X1130Y1428D01*
X1128Y1428D01*
X1128Y1426D01*
X1126Y1426D01*
X1126Y1424D01*
X1124Y1424D01*
X1124Y1420D01*
X1120Y1420D01*
X1120Y1418D01*
X1118Y1418D01*
X1118Y1416D01*
X1116Y1416D01*
X1116Y1414D01*
X1114Y1414D01*
X1114Y1412D01*
X1110Y1412D01*
X1110Y1410D01*
X1106Y1410D01*
X1106Y1408D01*
X1100Y1408D01*
X1100Y1406D01*
X1178Y1406D01*
X1178Y1408D01*
X1174Y1408D01*
X1174Y1410D01*
X1170Y1410D01*
X1170Y1412D01*
X1166Y1412D01*
X1166Y1414D01*
X1164Y1414D01*
X1164Y1416D01*
X1160Y1416D01*
X1160Y1418D01*
X1158Y1418D01*
X1158Y1420D01*
X1156Y1420D01*
X1156Y1422D01*
X1154Y1422D01*
X1154Y1426D01*
X1152Y1426D01*
X1152Y1428D01*
X1150Y1428D01*
X1150Y1430D01*
X1130Y1430D01*
G37*
D02*
G36*
X1230Y1430D02*
X1230Y1428D01*
X1228Y1428D01*
X1228Y1426D01*
X1226Y1426D01*
X1226Y1424D01*
X1224Y1424D01*
X1224Y1420D01*
X1220Y1420D01*
X1220Y1418D01*
X1218Y1418D01*
X1218Y1416D01*
X1216Y1416D01*
X1216Y1414D01*
X1214Y1414D01*
X1214Y1412D01*
X1210Y1412D01*
X1210Y1410D01*
X1206Y1410D01*
X1206Y1408D01*
X1200Y1408D01*
X1200Y1406D01*
X1278Y1406D01*
X1278Y1408D01*
X1274Y1408D01*
X1274Y1410D01*
X1270Y1410D01*
X1270Y1412D01*
X1266Y1412D01*
X1266Y1414D01*
X1264Y1414D01*
X1264Y1416D01*
X1260Y1416D01*
X1260Y1418D01*
X1258Y1418D01*
X1258Y1420D01*
X1256Y1420D01*
X1256Y1422D01*
X1254Y1422D01*
X1254Y1426D01*
X1252Y1426D01*
X1252Y1428D01*
X1250Y1428D01*
X1250Y1430D01*
X1230Y1430D01*
G37*
D02*
G36*
X1330Y1430D02*
X1330Y1428D01*
X1328Y1428D01*
X1328Y1426D01*
X1326Y1426D01*
X1326Y1424D01*
X1324Y1424D01*
X1324Y1420D01*
X1320Y1420D01*
X1320Y1418D01*
X1318Y1418D01*
X1318Y1416D01*
X1316Y1416D01*
X1316Y1414D01*
X1314Y1414D01*
X1314Y1412D01*
X1310Y1412D01*
X1310Y1410D01*
X1306Y1410D01*
X1306Y1408D01*
X1300Y1408D01*
X1300Y1406D01*
X1378Y1406D01*
X1378Y1408D01*
X1374Y1408D01*
X1374Y1410D01*
X1370Y1410D01*
X1370Y1412D01*
X1366Y1412D01*
X1366Y1414D01*
X1364Y1414D01*
X1364Y1416D01*
X1360Y1416D01*
X1360Y1418D01*
X1358Y1418D01*
X1358Y1420D01*
X1356Y1420D01*
X1356Y1422D01*
X1354Y1422D01*
X1354Y1426D01*
X1352Y1426D01*
X1352Y1428D01*
X1350Y1428D01*
X1350Y1430D01*
X1330Y1430D01*
G37*
D02*
G36*
X1430Y1430D02*
X1430Y1428D01*
X1428Y1428D01*
X1428Y1426D01*
X1426Y1426D01*
X1426Y1424D01*
X1424Y1424D01*
X1424Y1420D01*
X1420Y1420D01*
X1420Y1418D01*
X1418Y1418D01*
X1418Y1416D01*
X1416Y1416D01*
X1416Y1414D01*
X1414Y1414D01*
X1414Y1412D01*
X1410Y1412D01*
X1410Y1410D01*
X1406Y1410D01*
X1406Y1408D01*
X1400Y1408D01*
X1400Y1406D01*
X1478Y1406D01*
X1478Y1408D01*
X1474Y1408D01*
X1474Y1410D01*
X1470Y1410D01*
X1470Y1412D01*
X1466Y1412D01*
X1466Y1414D01*
X1464Y1414D01*
X1464Y1416D01*
X1460Y1416D01*
X1460Y1418D01*
X1458Y1418D01*
X1458Y1420D01*
X1456Y1420D01*
X1456Y1422D01*
X1454Y1422D01*
X1454Y1426D01*
X1452Y1426D01*
X1452Y1428D01*
X1450Y1428D01*
X1450Y1430D01*
X1430Y1430D01*
G37*
D02*
G36*
X1530Y1430D02*
X1530Y1428D01*
X1528Y1428D01*
X1528Y1426D01*
X1526Y1426D01*
X1526Y1424D01*
X1524Y1424D01*
X1524Y1420D01*
X1520Y1420D01*
X1520Y1418D01*
X1518Y1418D01*
X1518Y1416D01*
X1516Y1416D01*
X1516Y1414D01*
X1514Y1414D01*
X1514Y1412D01*
X1510Y1412D01*
X1510Y1410D01*
X1506Y1410D01*
X1506Y1408D01*
X1500Y1408D01*
X1500Y1406D01*
X1578Y1406D01*
X1578Y1408D01*
X1574Y1408D01*
X1574Y1410D01*
X1570Y1410D01*
X1570Y1412D01*
X1566Y1412D01*
X1566Y1414D01*
X1564Y1414D01*
X1564Y1416D01*
X1560Y1416D01*
X1560Y1418D01*
X1558Y1418D01*
X1558Y1420D01*
X1556Y1420D01*
X1556Y1422D01*
X1554Y1422D01*
X1554Y1426D01*
X1552Y1426D01*
X1552Y1428D01*
X1550Y1428D01*
X1550Y1430D01*
X1530Y1430D01*
G37*
D02*
G36*
X1630Y1430D02*
X1630Y1428D01*
X1628Y1428D01*
X1628Y1426D01*
X1626Y1426D01*
X1626Y1424D01*
X1624Y1424D01*
X1624Y1420D01*
X1620Y1420D01*
X1620Y1418D01*
X1618Y1418D01*
X1618Y1416D01*
X1616Y1416D01*
X1616Y1414D01*
X1614Y1414D01*
X1614Y1412D01*
X1610Y1412D01*
X1610Y1410D01*
X1606Y1410D01*
X1606Y1408D01*
X1600Y1408D01*
X1600Y1406D01*
X1678Y1406D01*
X1678Y1408D01*
X1674Y1408D01*
X1674Y1410D01*
X1670Y1410D01*
X1670Y1412D01*
X1666Y1412D01*
X1666Y1414D01*
X1664Y1414D01*
X1664Y1416D01*
X1660Y1416D01*
X1660Y1418D01*
X1658Y1418D01*
X1658Y1420D01*
X1656Y1420D01*
X1656Y1422D01*
X1654Y1422D01*
X1654Y1426D01*
X1652Y1426D01*
X1652Y1428D01*
X1650Y1428D01*
X1650Y1430D01*
X1630Y1430D01*
G37*
D02*
G36*
X1730Y1430D02*
X1730Y1428D01*
X1728Y1428D01*
X1728Y1426D01*
X1726Y1426D01*
X1726Y1424D01*
X1724Y1424D01*
X1724Y1420D01*
X1720Y1420D01*
X1720Y1418D01*
X1718Y1418D01*
X1718Y1416D01*
X1716Y1416D01*
X1716Y1414D01*
X1714Y1414D01*
X1714Y1412D01*
X1710Y1412D01*
X1710Y1410D01*
X1706Y1410D01*
X1706Y1408D01*
X1700Y1408D01*
X1700Y1406D01*
X1778Y1406D01*
X1778Y1408D01*
X1774Y1408D01*
X1774Y1410D01*
X1770Y1410D01*
X1770Y1412D01*
X1766Y1412D01*
X1766Y1414D01*
X1764Y1414D01*
X1764Y1416D01*
X1760Y1416D01*
X1760Y1418D01*
X1758Y1418D01*
X1758Y1420D01*
X1756Y1420D01*
X1756Y1422D01*
X1754Y1422D01*
X1754Y1426D01*
X1752Y1426D01*
X1752Y1428D01*
X1750Y1428D01*
X1750Y1430D01*
X1730Y1430D01*
G37*
D02*
G36*
X1830Y1430D02*
X1830Y1428D01*
X1828Y1428D01*
X1828Y1426D01*
X1826Y1426D01*
X1826Y1424D01*
X1824Y1424D01*
X1824Y1420D01*
X1820Y1420D01*
X1820Y1418D01*
X1818Y1418D01*
X1818Y1416D01*
X1816Y1416D01*
X1816Y1414D01*
X1814Y1414D01*
X1814Y1412D01*
X1810Y1412D01*
X1810Y1410D01*
X1806Y1410D01*
X1806Y1408D01*
X1800Y1408D01*
X1800Y1406D01*
X1878Y1406D01*
X1878Y1408D01*
X1874Y1408D01*
X1874Y1410D01*
X1870Y1410D01*
X1870Y1412D01*
X1866Y1412D01*
X1866Y1414D01*
X1864Y1414D01*
X1864Y1416D01*
X1860Y1416D01*
X1860Y1418D01*
X1858Y1418D01*
X1858Y1420D01*
X1856Y1420D01*
X1856Y1422D01*
X1854Y1422D01*
X1854Y1426D01*
X1852Y1426D01*
X1852Y1428D01*
X1850Y1428D01*
X1850Y1430D01*
X1830Y1430D01*
G37*
D02*
G36*
X1930Y1430D02*
X1930Y1428D01*
X1928Y1428D01*
X1928Y1426D01*
X1926Y1426D01*
X1926Y1424D01*
X1924Y1424D01*
X1924Y1420D01*
X1920Y1420D01*
X1920Y1418D01*
X1918Y1418D01*
X1918Y1416D01*
X1916Y1416D01*
X1916Y1414D01*
X1914Y1414D01*
X1914Y1412D01*
X1910Y1412D01*
X1910Y1410D01*
X1906Y1410D01*
X1906Y1408D01*
X1900Y1408D01*
X1900Y1406D01*
X1978Y1406D01*
X1978Y1408D01*
X1974Y1408D01*
X1974Y1410D01*
X1970Y1410D01*
X1970Y1412D01*
X1966Y1412D01*
X1966Y1414D01*
X1964Y1414D01*
X1964Y1416D01*
X1960Y1416D01*
X1960Y1418D01*
X1958Y1418D01*
X1958Y1420D01*
X1956Y1420D01*
X1956Y1422D01*
X1954Y1422D01*
X1954Y1426D01*
X1952Y1426D01*
X1952Y1428D01*
X1950Y1428D01*
X1950Y1430D01*
X1930Y1430D01*
G37*
D02*
G36*
X40Y1418D02*
X40Y1406D01*
X78Y1406D01*
X78Y1408D01*
X74Y1408D01*
X74Y1410D01*
X70Y1410D01*
X70Y1412D01*
X66Y1412D01*
X66Y1414D01*
X64Y1414D01*
X64Y1416D01*
X60Y1416D01*
X60Y1418D01*
X40Y1418D01*
G37*
D02*
G36*
X40Y1406D02*
X40Y1404D01*
X2216Y1404D01*
X2216Y1406D01*
X40Y1406D01*
G37*
D02*
G36*
X40Y1406D02*
X40Y1404D01*
X2216Y1404D01*
X2216Y1406D01*
X40Y1406D01*
G37*
D02*
G36*
X40Y1406D02*
X40Y1404D01*
X2216Y1404D01*
X2216Y1406D01*
X40Y1406D01*
G37*
D02*
G36*
X40Y1406D02*
X40Y1404D01*
X2216Y1404D01*
X2216Y1406D01*
X40Y1406D01*
G37*
D02*
G36*
X40Y1406D02*
X40Y1404D01*
X2216Y1404D01*
X2216Y1406D01*
X40Y1406D01*
G37*
D02*
G36*
X40Y1406D02*
X40Y1404D01*
X2216Y1404D01*
X2216Y1406D01*
X40Y1406D01*
G37*
D02*
G36*
X40Y1406D02*
X40Y1404D01*
X2216Y1404D01*
X2216Y1406D01*
X40Y1406D01*
G37*
D02*
G36*
X40Y1406D02*
X40Y1404D01*
X2216Y1404D01*
X2216Y1406D01*
X40Y1406D01*
G37*
D02*
G36*
X40Y1406D02*
X40Y1404D01*
X2216Y1404D01*
X2216Y1406D01*
X40Y1406D01*
G37*
D02*
G36*
X40Y1406D02*
X40Y1404D01*
X2216Y1404D01*
X2216Y1406D01*
X40Y1406D01*
G37*
D02*
G36*
X40Y1406D02*
X40Y1404D01*
X2216Y1404D01*
X2216Y1406D01*
X40Y1406D01*
G37*
D02*
G36*
X40Y1406D02*
X40Y1404D01*
X2216Y1404D01*
X2216Y1406D01*
X40Y1406D01*
G37*
D02*
G36*
X40Y1406D02*
X40Y1404D01*
X2216Y1404D01*
X2216Y1406D01*
X40Y1406D01*
G37*
D02*
G36*
X40Y1406D02*
X40Y1404D01*
X2216Y1404D01*
X2216Y1406D01*
X40Y1406D01*
G37*
D02*
G36*
X40Y1406D02*
X40Y1404D01*
X2216Y1404D01*
X2216Y1406D01*
X40Y1406D01*
G37*
D02*
G36*
X40Y1406D02*
X40Y1404D01*
X2216Y1404D01*
X2216Y1406D01*
X40Y1406D01*
G37*
D02*
G36*
X40Y1406D02*
X40Y1404D01*
X2216Y1404D01*
X2216Y1406D01*
X40Y1406D01*
G37*
D02*
G36*
X40Y1406D02*
X40Y1404D01*
X2216Y1404D01*
X2216Y1406D01*
X40Y1406D01*
G37*
D02*
G36*
X40Y1406D02*
X40Y1404D01*
X2216Y1404D01*
X2216Y1406D01*
X40Y1406D01*
G37*
D02*
G36*
X40Y1406D02*
X40Y1404D01*
X2216Y1404D01*
X2216Y1406D01*
X40Y1406D01*
G37*
D02*
G36*
X40Y1406D02*
X40Y1404D01*
X2216Y1404D01*
X2216Y1406D01*
X40Y1406D01*
G37*
D02*
G36*
X40Y1404D02*
X40Y900D01*
X1200Y900D01*
X1200Y898D01*
X1206Y898D01*
X1206Y896D01*
X1210Y896D01*
X1210Y894D01*
X1212Y894D01*
X1212Y892D01*
X1216Y892D01*
X1216Y890D01*
X1218Y890D01*
X1218Y888D01*
X1220Y888D01*
X1220Y886D01*
X1222Y886D01*
X1222Y884D01*
X1224Y884D01*
X1224Y882D01*
X1226Y882D01*
X1226Y880D01*
X1228Y880D01*
X1228Y878D01*
X1230Y878D01*
X1230Y876D01*
X1250Y876D01*
X1250Y878D01*
X1252Y878D01*
X1252Y880D01*
X1254Y880D01*
X1254Y884D01*
X1256Y884D01*
X1256Y886D01*
X1258Y886D01*
X1258Y888D01*
X1262Y888D01*
X1262Y890D01*
X1264Y890D01*
X1264Y892D01*
X1266Y892D01*
X1266Y894D01*
X1270Y894D01*
X1270Y896D01*
X1272Y896D01*
X1272Y1334D01*
X1274Y1334D01*
X1274Y1338D01*
X1276Y1338D01*
X1276Y1340D01*
X1278Y1340D01*
X1278Y1342D01*
X1280Y1342D01*
X1280Y1344D01*
X1284Y1344D01*
X1284Y1346D01*
X2158Y1346D01*
X2158Y1348D01*
X2160Y1348D01*
X2160Y1350D01*
X2162Y1350D01*
X2162Y1352D01*
X2164Y1352D01*
X2164Y1354D01*
X2166Y1354D01*
X2166Y1356D01*
X2168Y1356D01*
X2168Y1358D01*
X2170Y1358D01*
X2170Y1360D01*
X2172Y1360D01*
X2172Y1362D01*
X2174Y1362D01*
X2174Y1364D01*
X2176Y1364D01*
X2176Y1366D01*
X2178Y1366D01*
X2178Y1368D01*
X2180Y1368D01*
X2180Y1370D01*
X2182Y1370D01*
X2182Y1372D01*
X2184Y1372D01*
X2184Y1374D01*
X2186Y1374D01*
X2186Y1376D01*
X2188Y1376D01*
X2188Y1378D01*
X2190Y1378D01*
X2190Y1380D01*
X2192Y1380D01*
X2192Y1382D01*
X2194Y1382D01*
X2194Y1384D01*
X2196Y1384D01*
X2196Y1386D01*
X2198Y1386D01*
X2198Y1388D01*
X2200Y1388D01*
X2200Y1390D01*
X2202Y1390D01*
X2202Y1392D01*
X2204Y1392D01*
X2204Y1394D01*
X2206Y1394D01*
X2206Y1396D01*
X2208Y1396D01*
X2208Y1398D01*
X2210Y1398D01*
X2210Y1400D01*
X2212Y1400D01*
X2212Y1402D01*
X2214Y1402D01*
X2214Y1404D01*
X40Y1404D01*
G37*
D02*
G36*
X138Y900D02*
X138Y886D01*
X158Y886D01*
X158Y888D01*
X162Y888D01*
X162Y890D01*
X164Y890D01*
X164Y892D01*
X166Y892D01*
X166Y894D01*
X170Y894D01*
X170Y896D01*
X174Y896D01*
X174Y898D01*
X180Y898D01*
X180Y900D01*
X138Y900D01*
G37*
D02*
G36*
X200Y900D02*
X200Y898D01*
X206Y898D01*
X206Y896D01*
X210Y896D01*
X210Y894D01*
X212Y894D01*
X212Y892D01*
X216Y892D01*
X216Y890D01*
X218Y890D01*
X218Y888D01*
X220Y888D01*
X220Y886D01*
X222Y886D01*
X222Y884D01*
X224Y884D01*
X224Y882D01*
X226Y882D01*
X226Y880D01*
X228Y880D01*
X228Y878D01*
X230Y878D01*
X230Y876D01*
X250Y876D01*
X250Y878D01*
X252Y878D01*
X252Y880D01*
X254Y880D01*
X254Y884D01*
X256Y884D01*
X256Y886D01*
X258Y886D01*
X258Y888D01*
X262Y888D01*
X262Y890D01*
X264Y890D01*
X264Y892D01*
X266Y892D01*
X266Y894D01*
X270Y894D01*
X270Y896D01*
X274Y896D01*
X274Y898D01*
X280Y898D01*
X280Y900D01*
X200Y900D01*
G37*
D02*
G36*
X300Y900D02*
X300Y898D01*
X306Y898D01*
X306Y896D01*
X310Y896D01*
X310Y894D01*
X312Y894D01*
X312Y892D01*
X316Y892D01*
X316Y890D01*
X318Y890D01*
X318Y888D01*
X320Y888D01*
X320Y886D01*
X322Y886D01*
X322Y884D01*
X324Y884D01*
X324Y882D01*
X326Y882D01*
X326Y880D01*
X328Y880D01*
X328Y878D01*
X330Y878D01*
X330Y876D01*
X350Y876D01*
X350Y878D01*
X352Y878D01*
X352Y880D01*
X354Y880D01*
X354Y884D01*
X356Y884D01*
X356Y886D01*
X358Y886D01*
X358Y888D01*
X362Y888D01*
X362Y890D01*
X364Y890D01*
X364Y892D01*
X366Y892D01*
X366Y894D01*
X370Y894D01*
X370Y896D01*
X374Y896D01*
X374Y898D01*
X380Y898D01*
X380Y900D01*
X300Y900D01*
G37*
D02*
G36*
X400Y900D02*
X400Y898D01*
X406Y898D01*
X406Y896D01*
X410Y896D01*
X410Y894D01*
X412Y894D01*
X412Y892D01*
X416Y892D01*
X416Y890D01*
X418Y890D01*
X418Y888D01*
X420Y888D01*
X420Y886D01*
X422Y886D01*
X422Y884D01*
X424Y884D01*
X424Y882D01*
X426Y882D01*
X426Y880D01*
X428Y880D01*
X428Y878D01*
X430Y878D01*
X430Y876D01*
X450Y876D01*
X450Y878D01*
X452Y878D01*
X452Y880D01*
X454Y880D01*
X454Y884D01*
X456Y884D01*
X456Y886D01*
X458Y886D01*
X458Y888D01*
X462Y888D01*
X462Y890D01*
X464Y890D01*
X464Y892D01*
X466Y892D01*
X466Y894D01*
X470Y894D01*
X470Y896D01*
X474Y896D01*
X474Y898D01*
X480Y898D01*
X480Y900D01*
X400Y900D01*
G37*
D02*
G36*
X500Y900D02*
X500Y898D01*
X506Y898D01*
X506Y896D01*
X510Y896D01*
X510Y894D01*
X512Y894D01*
X512Y892D01*
X516Y892D01*
X516Y890D01*
X518Y890D01*
X518Y888D01*
X520Y888D01*
X520Y886D01*
X522Y886D01*
X522Y884D01*
X524Y884D01*
X524Y882D01*
X526Y882D01*
X526Y880D01*
X528Y880D01*
X528Y878D01*
X530Y878D01*
X530Y876D01*
X550Y876D01*
X550Y878D01*
X552Y878D01*
X552Y880D01*
X554Y880D01*
X554Y884D01*
X556Y884D01*
X556Y886D01*
X558Y886D01*
X558Y888D01*
X562Y888D01*
X562Y890D01*
X564Y890D01*
X564Y892D01*
X566Y892D01*
X566Y894D01*
X570Y894D01*
X570Y896D01*
X574Y896D01*
X574Y898D01*
X580Y898D01*
X580Y900D01*
X500Y900D01*
G37*
D02*
G36*
X600Y900D02*
X600Y898D01*
X606Y898D01*
X606Y896D01*
X610Y896D01*
X610Y894D01*
X612Y894D01*
X612Y892D01*
X616Y892D01*
X616Y890D01*
X618Y890D01*
X618Y888D01*
X620Y888D01*
X620Y886D01*
X622Y886D01*
X622Y884D01*
X624Y884D01*
X624Y882D01*
X626Y882D01*
X626Y880D01*
X628Y880D01*
X628Y878D01*
X630Y878D01*
X630Y876D01*
X650Y876D01*
X650Y878D01*
X652Y878D01*
X652Y880D01*
X654Y880D01*
X654Y884D01*
X656Y884D01*
X656Y886D01*
X658Y886D01*
X658Y888D01*
X662Y888D01*
X662Y890D01*
X664Y890D01*
X664Y892D01*
X666Y892D01*
X666Y894D01*
X670Y894D01*
X670Y896D01*
X674Y896D01*
X674Y898D01*
X680Y898D01*
X680Y900D01*
X600Y900D01*
G37*
D02*
G36*
X700Y900D02*
X700Y898D01*
X706Y898D01*
X706Y896D01*
X710Y896D01*
X710Y894D01*
X712Y894D01*
X712Y892D01*
X716Y892D01*
X716Y890D01*
X718Y890D01*
X718Y888D01*
X720Y888D01*
X720Y886D01*
X722Y886D01*
X722Y884D01*
X724Y884D01*
X724Y882D01*
X726Y882D01*
X726Y880D01*
X728Y880D01*
X728Y878D01*
X730Y878D01*
X730Y876D01*
X750Y876D01*
X750Y878D01*
X752Y878D01*
X752Y880D01*
X754Y880D01*
X754Y884D01*
X756Y884D01*
X756Y886D01*
X758Y886D01*
X758Y888D01*
X762Y888D01*
X762Y890D01*
X764Y890D01*
X764Y892D01*
X766Y892D01*
X766Y894D01*
X770Y894D01*
X770Y896D01*
X774Y896D01*
X774Y898D01*
X780Y898D01*
X780Y900D01*
X700Y900D01*
G37*
D02*
G36*
X800Y900D02*
X800Y898D01*
X806Y898D01*
X806Y896D01*
X810Y896D01*
X810Y894D01*
X812Y894D01*
X812Y892D01*
X816Y892D01*
X816Y890D01*
X818Y890D01*
X818Y888D01*
X820Y888D01*
X820Y886D01*
X822Y886D01*
X822Y884D01*
X824Y884D01*
X824Y882D01*
X826Y882D01*
X826Y880D01*
X828Y880D01*
X828Y878D01*
X830Y878D01*
X830Y876D01*
X850Y876D01*
X850Y878D01*
X852Y878D01*
X852Y880D01*
X854Y880D01*
X854Y884D01*
X856Y884D01*
X856Y886D01*
X858Y886D01*
X858Y888D01*
X862Y888D01*
X862Y890D01*
X864Y890D01*
X864Y892D01*
X866Y892D01*
X866Y894D01*
X870Y894D01*
X870Y896D01*
X874Y896D01*
X874Y898D01*
X880Y898D01*
X880Y900D01*
X800Y900D01*
G37*
D02*
G36*
X900Y900D02*
X900Y898D01*
X906Y898D01*
X906Y896D01*
X910Y896D01*
X910Y894D01*
X912Y894D01*
X912Y892D01*
X916Y892D01*
X916Y890D01*
X918Y890D01*
X918Y888D01*
X920Y888D01*
X920Y886D01*
X922Y886D01*
X922Y884D01*
X924Y884D01*
X924Y882D01*
X926Y882D01*
X926Y880D01*
X928Y880D01*
X928Y878D01*
X930Y878D01*
X930Y876D01*
X950Y876D01*
X950Y878D01*
X952Y878D01*
X952Y880D01*
X954Y880D01*
X954Y884D01*
X956Y884D01*
X956Y886D01*
X958Y886D01*
X958Y888D01*
X962Y888D01*
X962Y890D01*
X964Y890D01*
X964Y892D01*
X966Y892D01*
X966Y894D01*
X970Y894D01*
X970Y896D01*
X974Y896D01*
X974Y898D01*
X980Y898D01*
X980Y900D01*
X900Y900D01*
G37*
D02*
G36*
X1000Y900D02*
X1000Y898D01*
X1006Y898D01*
X1006Y896D01*
X1010Y896D01*
X1010Y894D01*
X1012Y894D01*
X1012Y892D01*
X1016Y892D01*
X1016Y890D01*
X1018Y890D01*
X1018Y888D01*
X1020Y888D01*
X1020Y886D01*
X1022Y886D01*
X1022Y884D01*
X1024Y884D01*
X1024Y882D01*
X1026Y882D01*
X1026Y880D01*
X1028Y880D01*
X1028Y878D01*
X1030Y878D01*
X1030Y876D01*
X1050Y876D01*
X1050Y878D01*
X1052Y878D01*
X1052Y880D01*
X1054Y880D01*
X1054Y884D01*
X1056Y884D01*
X1056Y886D01*
X1058Y886D01*
X1058Y888D01*
X1062Y888D01*
X1062Y890D01*
X1064Y890D01*
X1064Y892D01*
X1066Y892D01*
X1066Y894D01*
X1070Y894D01*
X1070Y896D01*
X1074Y896D01*
X1074Y898D01*
X1080Y898D01*
X1080Y900D01*
X1000Y900D01*
G37*
D02*
G36*
X1100Y900D02*
X1100Y898D01*
X1106Y898D01*
X1106Y896D01*
X1110Y896D01*
X1110Y894D01*
X1112Y894D01*
X1112Y892D01*
X1116Y892D01*
X1116Y890D01*
X1118Y890D01*
X1118Y888D01*
X1120Y888D01*
X1120Y886D01*
X1122Y886D01*
X1122Y884D01*
X1124Y884D01*
X1124Y882D01*
X1126Y882D01*
X1126Y880D01*
X1128Y880D01*
X1128Y878D01*
X1130Y878D01*
X1130Y876D01*
X1150Y876D01*
X1150Y878D01*
X1152Y878D01*
X1152Y880D01*
X1154Y880D01*
X1154Y884D01*
X1156Y884D01*
X1156Y886D01*
X1158Y886D01*
X1158Y888D01*
X1162Y888D01*
X1162Y890D01*
X1164Y890D01*
X1164Y892D01*
X1166Y892D01*
X1166Y894D01*
X1170Y894D01*
X1170Y896D01*
X1174Y896D01*
X1174Y898D01*
X1180Y898D01*
X1180Y900D01*
X1100Y900D01*
G37*
D02*
G36*
X2198Y1336D02*
X2198Y1334D01*
X2196Y1334D01*
X2196Y1332D01*
X2194Y1332D01*
X2194Y1330D01*
X2192Y1330D01*
X2192Y1328D01*
X2190Y1328D01*
X2190Y1326D01*
X2188Y1326D01*
X2188Y1324D01*
X2186Y1324D01*
X2186Y1322D01*
X2184Y1322D01*
X2184Y1320D01*
X2182Y1320D01*
X2182Y1318D01*
X2180Y1318D01*
X2180Y1316D01*
X2178Y1316D01*
X2178Y1314D01*
X2174Y1314D01*
X2174Y1312D01*
X2172Y1312D01*
X2172Y1310D01*
X1308Y1310D01*
X1308Y900D01*
X2000Y900D01*
X2000Y898D01*
X2006Y898D01*
X2006Y896D01*
X2010Y896D01*
X2010Y894D01*
X2012Y894D01*
X2012Y892D01*
X2016Y892D01*
X2016Y890D01*
X2018Y890D01*
X2018Y888D01*
X2020Y888D01*
X2020Y886D01*
X2022Y886D01*
X2022Y884D01*
X2024Y884D01*
X2024Y882D01*
X2026Y882D01*
X2026Y880D01*
X2046Y880D01*
X2046Y1230D01*
X2048Y1230D01*
X2048Y1236D01*
X2050Y1236D01*
X2050Y1240D01*
X2052Y1240D01*
X2052Y1242D01*
X2056Y1242D01*
X2056Y1244D01*
X2060Y1244D01*
X2060Y1246D01*
X2222Y1246D01*
X2222Y1248D01*
X2224Y1248D01*
X2224Y1250D01*
X2226Y1250D01*
X2226Y1254D01*
X2228Y1254D01*
X2228Y1256D01*
X2230Y1256D01*
X2230Y1258D01*
X2232Y1258D01*
X2232Y1260D01*
X2234Y1260D01*
X2234Y1262D01*
X2236Y1262D01*
X2236Y1264D01*
X2238Y1264D01*
X2238Y1266D01*
X2240Y1266D01*
X2240Y1268D01*
X2244Y1268D01*
X2244Y1288D01*
X2240Y1288D01*
X2240Y1290D01*
X2238Y1290D01*
X2238Y1292D01*
X2236Y1292D01*
X2236Y1294D01*
X2234Y1294D01*
X2234Y1296D01*
X2232Y1296D01*
X2232Y1298D01*
X2230Y1298D01*
X2230Y1300D01*
X2228Y1300D01*
X2228Y1302D01*
X2226Y1302D01*
X2226Y1304D01*
X2224Y1304D01*
X2224Y1308D01*
X2222Y1308D01*
X2222Y1312D01*
X2220Y1312D01*
X2220Y1318D01*
X2218Y1318D01*
X2218Y1336D01*
X2198Y1336D01*
G37*
D02*
G36*
X1308Y900D02*
X1308Y896D01*
X1310Y896D01*
X1310Y894D01*
X1312Y894D01*
X1312Y892D01*
X1316Y892D01*
X1316Y890D01*
X1318Y890D01*
X1318Y888D01*
X1320Y888D01*
X1320Y886D01*
X1322Y886D01*
X1322Y884D01*
X1324Y884D01*
X1324Y882D01*
X1326Y882D01*
X1326Y880D01*
X1328Y880D01*
X1328Y878D01*
X1330Y878D01*
X1330Y876D01*
X1350Y876D01*
X1350Y878D01*
X1352Y878D01*
X1352Y880D01*
X1354Y880D01*
X1354Y884D01*
X1356Y884D01*
X1356Y886D01*
X1358Y886D01*
X1358Y888D01*
X1362Y888D01*
X1362Y890D01*
X1364Y890D01*
X1364Y892D01*
X1366Y892D01*
X1366Y894D01*
X1370Y894D01*
X1370Y896D01*
X1374Y896D01*
X1374Y898D01*
X1380Y898D01*
X1380Y900D01*
X1308Y900D01*
G37*
D02*
G36*
X1400Y900D02*
X1400Y898D01*
X1406Y898D01*
X1406Y896D01*
X1410Y896D01*
X1410Y894D01*
X1412Y894D01*
X1412Y892D01*
X1416Y892D01*
X1416Y890D01*
X1418Y890D01*
X1418Y888D01*
X1420Y888D01*
X1420Y886D01*
X1422Y886D01*
X1422Y884D01*
X1424Y884D01*
X1424Y882D01*
X1426Y882D01*
X1426Y880D01*
X1428Y880D01*
X1428Y878D01*
X1430Y878D01*
X1430Y876D01*
X1450Y876D01*
X1450Y878D01*
X1452Y878D01*
X1452Y880D01*
X1454Y880D01*
X1454Y884D01*
X1456Y884D01*
X1456Y886D01*
X1458Y886D01*
X1458Y888D01*
X1462Y888D01*
X1462Y890D01*
X1464Y890D01*
X1464Y892D01*
X1466Y892D01*
X1466Y894D01*
X1470Y894D01*
X1470Y896D01*
X1474Y896D01*
X1474Y898D01*
X1480Y898D01*
X1480Y900D01*
X1400Y900D01*
G37*
D02*
G36*
X1500Y900D02*
X1500Y898D01*
X1506Y898D01*
X1506Y896D01*
X1510Y896D01*
X1510Y894D01*
X1512Y894D01*
X1512Y892D01*
X1516Y892D01*
X1516Y890D01*
X1518Y890D01*
X1518Y888D01*
X1520Y888D01*
X1520Y886D01*
X1522Y886D01*
X1522Y884D01*
X1524Y884D01*
X1524Y882D01*
X1526Y882D01*
X1526Y880D01*
X1528Y880D01*
X1528Y878D01*
X1530Y878D01*
X1530Y876D01*
X1550Y876D01*
X1550Y878D01*
X1552Y878D01*
X1552Y880D01*
X1554Y880D01*
X1554Y884D01*
X1556Y884D01*
X1556Y886D01*
X1558Y886D01*
X1558Y888D01*
X1562Y888D01*
X1562Y890D01*
X1564Y890D01*
X1564Y892D01*
X1566Y892D01*
X1566Y894D01*
X1570Y894D01*
X1570Y896D01*
X1574Y896D01*
X1574Y898D01*
X1580Y898D01*
X1580Y900D01*
X1500Y900D01*
G37*
D02*
G36*
X1600Y900D02*
X1600Y898D01*
X1606Y898D01*
X1606Y896D01*
X1610Y896D01*
X1610Y894D01*
X1612Y894D01*
X1612Y892D01*
X1616Y892D01*
X1616Y890D01*
X1618Y890D01*
X1618Y888D01*
X1620Y888D01*
X1620Y886D01*
X1622Y886D01*
X1622Y884D01*
X1624Y884D01*
X1624Y882D01*
X1626Y882D01*
X1626Y880D01*
X1628Y880D01*
X1628Y878D01*
X1630Y878D01*
X1630Y876D01*
X1650Y876D01*
X1650Y878D01*
X1652Y878D01*
X1652Y880D01*
X1654Y880D01*
X1654Y884D01*
X1656Y884D01*
X1656Y886D01*
X1658Y886D01*
X1658Y888D01*
X1662Y888D01*
X1662Y890D01*
X1664Y890D01*
X1664Y892D01*
X1666Y892D01*
X1666Y894D01*
X1670Y894D01*
X1670Y896D01*
X1674Y896D01*
X1674Y898D01*
X1680Y898D01*
X1680Y900D01*
X1600Y900D01*
G37*
D02*
G36*
X1700Y900D02*
X1700Y898D01*
X1706Y898D01*
X1706Y896D01*
X1710Y896D01*
X1710Y894D01*
X1712Y894D01*
X1712Y892D01*
X1716Y892D01*
X1716Y890D01*
X1718Y890D01*
X1718Y888D01*
X1720Y888D01*
X1720Y886D01*
X1722Y886D01*
X1722Y884D01*
X1724Y884D01*
X1724Y882D01*
X1726Y882D01*
X1726Y880D01*
X1728Y880D01*
X1728Y878D01*
X1730Y878D01*
X1730Y876D01*
X1750Y876D01*
X1750Y878D01*
X1752Y878D01*
X1752Y880D01*
X1754Y880D01*
X1754Y884D01*
X1756Y884D01*
X1756Y886D01*
X1758Y886D01*
X1758Y888D01*
X1762Y888D01*
X1762Y890D01*
X1764Y890D01*
X1764Y892D01*
X1766Y892D01*
X1766Y894D01*
X1770Y894D01*
X1770Y896D01*
X1774Y896D01*
X1774Y898D01*
X1780Y898D01*
X1780Y900D01*
X1700Y900D01*
G37*
D02*
G36*
X1800Y900D02*
X1800Y898D01*
X1806Y898D01*
X1806Y896D01*
X1810Y896D01*
X1810Y894D01*
X1812Y894D01*
X1812Y892D01*
X1816Y892D01*
X1816Y890D01*
X1818Y890D01*
X1818Y888D01*
X1820Y888D01*
X1820Y886D01*
X1822Y886D01*
X1822Y884D01*
X1824Y884D01*
X1824Y882D01*
X1826Y882D01*
X1826Y880D01*
X1828Y880D01*
X1828Y878D01*
X1830Y878D01*
X1830Y876D01*
X1850Y876D01*
X1850Y878D01*
X1852Y878D01*
X1852Y880D01*
X1854Y880D01*
X1854Y884D01*
X1856Y884D01*
X1856Y886D01*
X1858Y886D01*
X1858Y888D01*
X1862Y888D01*
X1862Y890D01*
X1864Y890D01*
X1864Y892D01*
X1866Y892D01*
X1866Y894D01*
X1870Y894D01*
X1870Y896D01*
X1874Y896D01*
X1874Y898D01*
X1880Y898D01*
X1880Y900D01*
X1800Y900D01*
G37*
D02*
G36*
X1900Y900D02*
X1900Y898D01*
X1906Y898D01*
X1906Y896D01*
X1910Y896D01*
X1910Y894D01*
X1912Y894D01*
X1912Y892D01*
X1916Y892D01*
X1916Y890D01*
X1918Y890D01*
X1918Y888D01*
X1920Y888D01*
X1920Y886D01*
X1922Y886D01*
X1922Y884D01*
X1924Y884D01*
X1924Y882D01*
X1926Y882D01*
X1926Y880D01*
X1928Y880D01*
X1928Y878D01*
X1930Y878D01*
X1930Y876D01*
X1950Y876D01*
X1950Y878D01*
X1952Y878D01*
X1952Y880D01*
X1954Y880D01*
X1954Y884D01*
X1956Y884D01*
X1956Y886D01*
X1958Y886D01*
X1958Y888D01*
X1962Y888D01*
X1962Y890D01*
X1964Y890D01*
X1964Y892D01*
X1966Y892D01*
X1966Y894D01*
X1970Y894D01*
X1970Y896D01*
X1974Y896D01*
X1974Y898D01*
X1980Y898D01*
X1980Y900D01*
X1900Y900D01*
G37*
D02*
G36*
X2406Y1310D02*
X2406Y1306D01*
X2404Y1306D01*
X2404Y1302D01*
X2402Y1302D01*
X2402Y1300D01*
X2400Y1300D01*
X2400Y1298D01*
X2398Y1298D01*
X2398Y1296D01*
X2396Y1296D01*
X2396Y1294D01*
X2394Y1294D01*
X2394Y1292D01*
X2392Y1292D01*
X2392Y1290D01*
X2390Y1290D01*
X2390Y1288D01*
X2386Y1288D01*
X2386Y1268D01*
X2388Y1268D01*
X2388Y1266D01*
X2392Y1266D01*
X2392Y1264D01*
X2394Y1264D01*
X2394Y1262D01*
X2396Y1262D01*
X2396Y1260D01*
X2398Y1260D01*
X2398Y1258D01*
X2400Y1258D01*
X2400Y1256D01*
X2402Y1256D01*
X2402Y1254D01*
X2404Y1254D01*
X2404Y1250D01*
X2406Y1250D01*
X2406Y1246D01*
X2408Y1246D01*
X2408Y1242D01*
X2410Y1242D01*
X2410Y1236D01*
X2412Y1236D01*
X2412Y1220D01*
X2410Y1220D01*
X2410Y1214D01*
X2408Y1214D01*
X2408Y1210D01*
X2406Y1210D01*
X2406Y1206D01*
X2404Y1206D01*
X2404Y1202D01*
X2402Y1202D01*
X2402Y1200D01*
X2400Y1200D01*
X2400Y1198D01*
X2398Y1198D01*
X2398Y1196D01*
X2396Y1196D01*
X2396Y1194D01*
X2394Y1194D01*
X2394Y1192D01*
X2392Y1192D01*
X2392Y1190D01*
X2390Y1190D01*
X2390Y1188D01*
X2386Y1188D01*
X2386Y1168D01*
X2388Y1168D01*
X2388Y1166D01*
X2392Y1166D01*
X2392Y1164D01*
X2394Y1164D01*
X2394Y1162D01*
X2396Y1162D01*
X2396Y1160D01*
X2398Y1160D01*
X2398Y1158D01*
X2400Y1158D01*
X2400Y1156D01*
X2402Y1156D01*
X2402Y1154D01*
X2404Y1154D01*
X2404Y1150D01*
X2406Y1150D01*
X2406Y1146D01*
X2446Y1146D01*
X2446Y1310D01*
X2406Y1310D01*
G37*
D02*
G36*
X2304Y1306D02*
X2304Y1302D01*
X2302Y1302D01*
X2302Y1300D01*
X2300Y1300D01*
X2300Y1298D01*
X2298Y1298D01*
X2298Y1296D01*
X2296Y1296D01*
X2296Y1294D01*
X2294Y1294D01*
X2294Y1292D01*
X2292Y1292D01*
X2292Y1290D01*
X2290Y1290D01*
X2290Y1288D01*
X2286Y1288D01*
X2286Y1268D01*
X2288Y1268D01*
X2288Y1266D01*
X2292Y1266D01*
X2292Y1264D01*
X2294Y1264D01*
X2294Y1262D01*
X2296Y1262D01*
X2296Y1260D01*
X2298Y1260D01*
X2298Y1258D01*
X2300Y1258D01*
X2300Y1256D01*
X2302Y1256D01*
X2302Y1254D01*
X2304Y1254D01*
X2304Y1250D01*
X2326Y1250D01*
X2326Y1254D01*
X2328Y1254D01*
X2328Y1256D01*
X2330Y1256D01*
X2330Y1258D01*
X2332Y1258D01*
X2332Y1260D01*
X2334Y1260D01*
X2334Y1262D01*
X2336Y1262D01*
X2336Y1264D01*
X2338Y1264D01*
X2338Y1266D01*
X2340Y1266D01*
X2340Y1268D01*
X2344Y1268D01*
X2344Y1288D01*
X2340Y1288D01*
X2340Y1290D01*
X2338Y1290D01*
X2338Y1292D01*
X2336Y1292D01*
X2336Y1294D01*
X2334Y1294D01*
X2334Y1296D01*
X2332Y1296D01*
X2332Y1298D01*
X2330Y1298D01*
X2330Y1300D01*
X2328Y1300D01*
X2328Y1302D01*
X2326Y1302D01*
X2326Y1304D01*
X2324Y1304D01*
X2324Y1306D01*
X2304Y1306D01*
G37*
D02*
G36*
X2082Y1210D02*
X2082Y1146D01*
X2222Y1146D01*
X2222Y1148D01*
X2224Y1148D01*
X2224Y1150D01*
X2226Y1150D01*
X2226Y1154D01*
X2228Y1154D01*
X2228Y1156D01*
X2230Y1156D01*
X2230Y1158D01*
X2232Y1158D01*
X2232Y1160D01*
X2234Y1160D01*
X2234Y1162D01*
X2236Y1162D01*
X2236Y1164D01*
X2238Y1164D01*
X2238Y1166D01*
X2240Y1166D01*
X2240Y1168D01*
X2244Y1168D01*
X2244Y1188D01*
X2240Y1188D01*
X2240Y1190D01*
X2238Y1190D01*
X2238Y1192D01*
X2236Y1192D01*
X2236Y1194D01*
X2234Y1194D01*
X2234Y1196D01*
X2232Y1196D01*
X2232Y1198D01*
X2230Y1198D01*
X2230Y1200D01*
X2228Y1200D01*
X2228Y1202D01*
X2226Y1202D01*
X2226Y1204D01*
X2224Y1204D01*
X2224Y1208D01*
X2222Y1208D01*
X2222Y1210D01*
X2082Y1210D01*
G37*
D02*
G36*
X2304Y1206D02*
X2304Y1202D01*
X2302Y1202D01*
X2302Y1200D01*
X2300Y1200D01*
X2300Y1198D01*
X2298Y1198D01*
X2298Y1196D01*
X2296Y1196D01*
X2296Y1194D01*
X2294Y1194D01*
X2294Y1192D01*
X2292Y1192D01*
X2292Y1190D01*
X2290Y1190D01*
X2290Y1188D01*
X2286Y1188D01*
X2286Y1168D01*
X2288Y1168D01*
X2288Y1166D01*
X2292Y1166D01*
X2292Y1164D01*
X2294Y1164D01*
X2294Y1162D01*
X2296Y1162D01*
X2296Y1160D01*
X2298Y1160D01*
X2298Y1158D01*
X2300Y1158D01*
X2300Y1156D01*
X2302Y1156D01*
X2302Y1154D01*
X2304Y1154D01*
X2304Y1150D01*
X2326Y1150D01*
X2326Y1154D01*
X2328Y1154D01*
X2328Y1156D01*
X2330Y1156D01*
X2330Y1158D01*
X2332Y1158D01*
X2332Y1160D01*
X2334Y1160D01*
X2334Y1162D01*
X2336Y1162D01*
X2336Y1164D01*
X2338Y1164D01*
X2338Y1166D01*
X2340Y1166D01*
X2340Y1168D01*
X2344Y1168D01*
X2344Y1188D01*
X2340Y1188D01*
X2340Y1190D01*
X2338Y1190D01*
X2338Y1192D01*
X2336Y1192D01*
X2336Y1194D01*
X2334Y1194D01*
X2334Y1196D01*
X2332Y1196D01*
X2332Y1198D01*
X2330Y1198D01*
X2330Y1200D01*
X2328Y1200D01*
X2328Y1202D01*
X2326Y1202D01*
X2326Y1204D01*
X2324Y1204D01*
X2324Y1206D01*
X2304Y1206D01*
G37*
D02*
G36*
X2108Y1110D02*
X2108Y1040D01*
X2128Y1040D01*
X2128Y1042D01*
X2130Y1042D01*
X2130Y1044D01*
X2134Y1044D01*
X2134Y1046D01*
X2222Y1046D01*
X2222Y1048D01*
X2224Y1048D01*
X2224Y1050D01*
X2226Y1050D01*
X2226Y1054D01*
X2228Y1054D01*
X2228Y1056D01*
X2230Y1056D01*
X2230Y1058D01*
X2232Y1058D01*
X2232Y1060D01*
X2234Y1060D01*
X2234Y1062D01*
X2236Y1062D01*
X2236Y1064D01*
X2238Y1064D01*
X2238Y1066D01*
X2240Y1066D01*
X2240Y1068D01*
X2244Y1068D01*
X2244Y1088D01*
X2240Y1088D01*
X2240Y1090D01*
X2238Y1090D01*
X2238Y1092D01*
X2236Y1092D01*
X2236Y1094D01*
X2234Y1094D01*
X2234Y1096D01*
X2232Y1096D01*
X2232Y1098D01*
X2230Y1098D01*
X2230Y1100D01*
X2228Y1100D01*
X2228Y1102D01*
X2226Y1102D01*
X2226Y1104D01*
X2224Y1104D01*
X2224Y1108D01*
X2222Y1108D01*
X2222Y1110D01*
X2108Y1110D01*
G37*
D02*
G36*
X2406Y1110D02*
X2406Y1106D01*
X2404Y1106D01*
X2404Y1102D01*
X2402Y1102D01*
X2402Y1100D01*
X2400Y1100D01*
X2400Y1098D01*
X2398Y1098D01*
X2398Y1096D01*
X2396Y1096D01*
X2396Y1094D01*
X2394Y1094D01*
X2394Y1092D01*
X2392Y1092D01*
X2392Y1090D01*
X2390Y1090D01*
X2390Y1088D01*
X2386Y1088D01*
X2386Y1068D01*
X2388Y1068D01*
X2388Y1066D01*
X2392Y1066D01*
X2392Y1064D01*
X2394Y1064D01*
X2394Y1062D01*
X2396Y1062D01*
X2396Y1060D01*
X2398Y1060D01*
X2398Y1058D01*
X2400Y1058D01*
X2400Y1056D01*
X2402Y1056D01*
X2402Y1054D01*
X2404Y1054D01*
X2404Y1050D01*
X2406Y1050D01*
X2406Y1046D01*
X2408Y1046D01*
X2408Y1042D01*
X2410Y1042D01*
X2410Y1036D01*
X2412Y1036D01*
X2412Y1020D01*
X2410Y1020D01*
X2410Y1014D01*
X2408Y1014D01*
X2408Y1010D01*
X2406Y1010D01*
X2406Y1006D01*
X2404Y1006D01*
X2404Y1002D01*
X2402Y1002D01*
X2402Y1000D01*
X2400Y1000D01*
X2400Y998D01*
X2398Y998D01*
X2398Y996D01*
X2396Y996D01*
X2396Y994D01*
X2394Y994D01*
X2394Y992D01*
X2392Y992D01*
X2392Y990D01*
X2390Y990D01*
X2390Y988D01*
X2386Y988D01*
X2386Y968D01*
X2388Y968D01*
X2388Y966D01*
X2392Y966D01*
X2392Y964D01*
X2394Y964D01*
X2394Y962D01*
X2396Y962D01*
X2396Y960D01*
X2398Y960D01*
X2398Y958D01*
X2400Y958D01*
X2400Y956D01*
X2402Y956D01*
X2402Y954D01*
X2404Y954D01*
X2404Y950D01*
X2406Y950D01*
X2406Y946D01*
X2470Y946D01*
X2470Y1002D01*
X2472Y1002D01*
X2472Y1110D01*
X2406Y1110D01*
G37*
D02*
G36*
X2304Y1106D02*
X2304Y1102D01*
X2302Y1102D01*
X2302Y1100D01*
X2300Y1100D01*
X2300Y1098D01*
X2298Y1098D01*
X2298Y1096D01*
X2296Y1096D01*
X2296Y1094D01*
X2294Y1094D01*
X2294Y1092D01*
X2292Y1092D01*
X2292Y1090D01*
X2290Y1090D01*
X2290Y1088D01*
X2286Y1088D01*
X2286Y1068D01*
X2288Y1068D01*
X2288Y1066D01*
X2292Y1066D01*
X2292Y1064D01*
X2294Y1064D01*
X2294Y1062D01*
X2296Y1062D01*
X2296Y1060D01*
X2298Y1060D01*
X2298Y1058D01*
X2300Y1058D01*
X2300Y1056D01*
X2302Y1056D01*
X2302Y1054D01*
X2304Y1054D01*
X2304Y1050D01*
X2326Y1050D01*
X2326Y1054D01*
X2328Y1054D01*
X2328Y1056D01*
X2330Y1056D01*
X2330Y1058D01*
X2332Y1058D01*
X2332Y1060D01*
X2334Y1060D01*
X2334Y1062D01*
X2336Y1062D01*
X2336Y1064D01*
X2338Y1064D01*
X2338Y1066D01*
X2340Y1066D01*
X2340Y1068D01*
X2344Y1068D01*
X2344Y1088D01*
X2340Y1088D01*
X2340Y1090D01*
X2338Y1090D01*
X2338Y1092D01*
X2336Y1092D01*
X2336Y1094D01*
X2334Y1094D01*
X2334Y1096D01*
X2332Y1096D01*
X2332Y1098D01*
X2330Y1098D01*
X2330Y1100D01*
X2328Y1100D01*
X2328Y1102D01*
X2326Y1102D01*
X2326Y1104D01*
X2324Y1104D01*
X2324Y1106D01*
X2304Y1106D01*
G37*
D02*
G36*
X2158Y1010D02*
X2158Y946D01*
X2222Y946D01*
X2222Y948D01*
X2224Y948D01*
X2224Y950D01*
X2226Y950D01*
X2226Y954D01*
X2228Y954D01*
X2228Y956D01*
X2230Y956D01*
X2230Y958D01*
X2232Y958D01*
X2232Y960D01*
X2234Y960D01*
X2234Y962D01*
X2236Y962D01*
X2236Y964D01*
X2238Y964D01*
X2238Y966D01*
X2240Y966D01*
X2240Y968D01*
X2244Y968D01*
X2244Y988D01*
X2240Y988D01*
X2240Y990D01*
X2238Y990D01*
X2238Y992D01*
X2236Y992D01*
X2236Y994D01*
X2234Y994D01*
X2234Y996D01*
X2232Y996D01*
X2232Y998D01*
X2230Y998D01*
X2230Y1000D01*
X2228Y1000D01*
X2228Y1002D01*
X2226Y1002D01*
X2226Y1004D01*
X2224Y1004D01*
X2224Y1008D01*
X2222Y1008D01*
X2222Y1010D01*
X2158Y1010D01*
G37*
D02*
G36*
X2304Y1006D02*
X2304Y1002D01*
X2302Y1002D01*
X2302Y1000D01*
X2300Y1000D01*
X2300Y998D01*
X2298Y998D01*
X2298Y996D01*
X2296Y996D01*
X2296Y994D01*
X2294Y994D01*
X2294Y992D01*
X2292Y992D01*
X2292Y990D01*
X2290Y990D01*
X2290Y988D01*
X2286Y988D01*
X2286Y968D01*
X2288Y968D01*
X2288Y966D01*
X2292Y966D01*
X2292Y964D01*
X2294Y964D01*
X2294Y962D01*
X2296Y962D01*
X2296Y960D01*
X2298Y960D01*
X2298Y958D01*
X2300Y958D01*
X2300Y956D01*
X2302Y956D01*
X2302Y954D01*
X2304Y954D01*
X2304Y950D01*
X2326Y950D01*
X2326Y954D01*
X2328Y954D01*
X2328Y956D01*
X2330Y956D01*
X2330Y958D01*
X2332Y958D01*
X2332Y960D01*
X2334Y960D01*
X2334Y962D01*
X2336Y962D01*
X2336Y964D01*
X2338Y964D01*
X2338Y966D01*
X2340Y966D01*
X2340Y968D01*
X2344Y968D01*
X2344Y988D01*
X2340Y988D01*
X2340Y990D01*
X2338Y990D01*
X2338Y992D01*
X2336Y992D01*
X2336Y994D01*
X2334Y994D01*
X2334Y996D01*
X2332Y996D01*
X2332Y998D01*
X2330Y998D01*
X2330Y1000D01*
X2328Y1000D01*
X2328Y1002D01*
X2326Y1002D01*
X2326Y1004D01*
X2324Y1004D01*
X2324Y1006D01*
X2304Y1006D01*
G37*
D02*
G36*
X2182Y910D02*
X2182Y746D01*
X2222Y746D01*
X2222Y748D01*
X2224Y748D01*
X2224Y750D01*
X2226Y750D01*
X2226Y754D01*
X2228Y754D01*
X2228Y756D01*
X2230Y756D01*
X2230Y758D01*
X2232Y758D01*
X2232Y760D01*
X2234Y760D01*
X2234Y762D01*
X2236Y762D01*
X2236Y764D01*
X2238Y764D01*
X2238Y766D01*
X2240Y766D01*
X2240Y768D01*
X2244Y768D01*
X2244Y788D01*
X2240Y788D01*
X2240Y790D01*
X2238Y790D01*
X2238Y792D01*
X2236Y792D01*
X2236Y794D01*
X2234Y794D01*
X2234Y796D01*
X2232Y796D01*
X2232Y798D01*
X2230Y798D01*
X2230Y800D01*
X2228Y800D01*
X2228Y802D01*
X2226Y802D01*
X2226Y804D01*
X2224Y804D01*
X2224Y808D01*
X2222Y808D01*
X2222Y812D01*
X2220Y812D01*
X2220Y818D01*
X2218Y818D01*
X2218Y838D01*
X2220Y838D01*
X2220Y844D01*
X2222Y844D01*
X2222Y848D01*
X2224Y848D01*
X2224Y850D01*
X2226Y850D01*
X2226Y854D01*
X2228Y854D01*
X2228Y856D01*
X2230Y856D01*
X2230Y858D01*
X2232Y858D01*
X2232Y860D01*
X2234Y860D01*
X2234Y862D01*
X2236Y862D01*
X2236Y864D01*
X2238Y864D01*
X2238Y866D01*
X2240Y866D01*
X2240Y868D01*
X2244Y868D01*
X2244Y888D01*
X2240Y888D01*
X2240Y890D01*
X2238Y890D01*
X2238Y892D01*
X2236Y892D01*
X2236Y894D01*
X2234Y894D01*
X2234Y896D01*
X2232Y896D01*
X2232Y898D01*
X2230Y898D01*
X2230Y900D01*
X2228Y900D01*
X2228Y902D01*
X2226Y902D01*
X2226Y904D01*
X2224Y904D01*
X2224Y908D01*
X2222Y908D01*
X2222Y910D01*
X2182Y910D01*
G37*
D02*
G36*
X2406Y910D02*
X2406Y906D01*
X2404Y906D01*
X2404Y902D01*
X2402Y902D01*
X2402Y900D01*
X2400Y900D01*
X2400Y898D01*
X2398Y898D01*
X2398Y896D01*
X2396Y896D01*
X2396Y894D01*
X2394Y894D01*
X2394Y892D01*
X2392Y892D01*
X2392Y890D01*
X2390Y890D01*
X2390Y888D01*
X2386Y888D01*
X2386Y868D01*
X2388Y868D01*
X2388Y866D01*
X2392Y866D01*
X2392Y864D01*
X2394Y864D01*
X2394Y862D01*
X2396Y862D01*
X2396Y860D01*
X2398Y860D01*
X2398Y858D01*
X2400Y858D01*
X2400Y856D01*
X2402Y856D01*
X2402Y854D01*
X2404Y854D01*
X2404Y850D01*
X2406Y850D01*
X2406Y846D01*
X2408Y846D01*
X2408Y842D01*
X2410Y842D01*
X2410Y836D01*
X2412Y836D01*
X2412Y820D01*
X2410Y820D01*
X2410Y814D01*
X2408Y814D01*
X2408Y810D01*
X2406Y810D01*
X2406Y806D01*
X2404Y806D01*
X2404Y802D01*
X2402Y802D01*
X2402Y800D01*
X2400Y800D01*
X2400Y798D01*
X2398Y798D01*
X2398Y796D01*
X2396Y796D01*
X2396Y794D01*
X2394Y794D01*
X2394Y792D01*
X2392Y792D01*
X2392Y790D01*
X2390Y790D01*
X2390Y788D01*
X2386Y788D01*
X2386Y768D01*
X2388Y768D01*
X2388Y766D01*
X2392Y766D01*
X2392Y764D01*
X2394Y764D01*
X2394Y762D01*
X2396Y762D01*
X2396Y760D01*
X2398Y760D01*
X2398Y758D01*
X2400Y758D01*
X2400Y756D01*
X2402Y756D01*
X2402Y754D01*
X2404Y754D01*
X2404Y750D01*
X2406Y750D01*
X2406Y746D01*
X2498Y746D01*
X2498Y910D01*
X2406Y910D01*
G37*
D02*
G36*
X2304Y906D02*
X2304Y902D01*
X2302Y902D01*
X2302Y900D01*
X2300Y900D01*
X2300Y898D01*
X2298Y898D01*
X2298Y896D01*
X2296Y896D01*
X2296Y894D01*
X2294Y894D01*
X2294Y892D01*
X2292Y892D01*
X2292Y890D01*
X2290Y890D01*
X2290Y888D01*
X2286Y888D01*
X2286Y868D01*
X2288Y868D01*
X2288Y866D01*
X2292Y866D01*
X2292Y864D01*
X2294Y864D01*
X2294Y862D01*
X2296Y862D01*
X2296Y860D01*
X2298Y860D01*
X2298Y858D01*
X2300Y858D01*
X2300Y856D01*
X2302Y856D01*
X2302Y854D01*
X2304Y854D01*
X2304Y850D01*
X2326Y850D01*
X2326Y854D01*
X2328Y854D01*
X2328Y856D01*
X2330Y856D01*
X2330Y858D01*
X2332Y858D01*
X2332Y860D01*
X2334Y860D01*
X2334Y862D01*
X2336Y862D01*
X2336Y864D01*
X2338Y864D01*
X2338Y866D01*
X2340Y866D01*
X2340Y868D01*
X2344Y868D01*
X2344Y888D01*
X2340Y888D01*
X2340Y890D01*
X2338Y890D01*
X2338Y892D01*
X2336Y892D01*
X2336Y894D01*
X2334Y894D01*
X2334Y896D01*
X2332Y896D01*
X2332Y898D01*
X2330Y898D01*
X2330Y900D01*
X2328Y900D01*
X2328Y902D01*
X2326Y902D01*
X2326Y904D01*
X2324Y904D01*
X2324Y906D01*
X2304Y906D01*
G37*
D02*
G36*
X230Y830D02*
X230Y828D01*
X228Y828D01*
X228Y826D01*
X226Y826D01*
X226Y824D01*
X224Y824D01*
X224Y820D01*
X220Y820D01*
X220Y818D01*
X218Y818D01*
X218Y816D01*
X216Y816D01*
X216Y814D01*
X214Y814D01*
X214Y812D01*
X210Y812D01*
X210Y810D01*
X208Y810D01*
X208Y246D01*
X2222Y246D01*
X2222Y248D01*
X2224Y248D01*
X2224Y250D01*
X2226Y250D01*
X2226Y254D01*
X2228Y254D01*
X2228Y256D01*
X2230Y256D01*
X2230Y258D01*
X2232Y258D01*
X2232Y260D01*
X2234Y260D01*
X2234Y262D01*
X2236Y262D01*
X2236Y264D01*
X2238Y264D01*
X2238Y266D01*
X2240Y266D01*
X2240Y268D01*
X2244Y268D01*
X2244Y288D01*
X2240Y288D01*
X2240Y290D01*
X2238Y290D01*
X2238Y292D01*
X2236Y292D01*
X2236Y294D01*
X2234Y294D01*
X2234Y296D01*
X2232Y296D01*
X2232Y298D01*
X2230Y298D01*
X2230Y300D01*
X2228Y300D01*
X2228Y302D01*
X2226Y302D01*
X2226Y304D01*
X2224Y304D01*
X2224Y308D01*
X2222Y308D01*
X2222Y310D01*
X284Y310D01*
X284Y312D01*
X280Y312D01*
X280Y314D01*
X278Y314D01*
X278Y316D01*
X276Y316D01*
X276Y318D01*
X274Y318D01*
X274Y322D01*
X272Y322D01*
X272Y810D01*
X270Y810D01*
X270Y812D01*
X266Y812D01*
X266Y814D01*
X264Y814D01*
X264Y816D01*
X260Y816D01*
X260Y818D01*
X258Y818D01*
X258Y820D01*
X256Y820D01*
X256Y822D01*
X254Y822D01*
X254Y826D01*
X252Y826D01*
X252Y828D01*
X250Y828D01*
X250Y830D01*
X230Y830D01*
G37*
D02*
G36*
X330Y830D02*
X330Y828D01*
X328Y828D01*
X328Y826D01*
X326Y826D01*
X326Y824D01*
X324Y824D01*
X324Y820D01*
X320Y820D01*
X320Y818D01*
X318Y818D01*
X318Y816D01*
X316Y816D01*
X316Y814D01*
X314Y814D01*
X314Y812D01*
X310Y812D01*
X310Y810D01*
X308Y810D01*
X308Y346D01*
X2222Y346D01*
X2222Y348D01*
X2224Y348D01*
X2224Y350D01*
X2226Y350D01*
X2226Y354D01*
X2228Y354D01*
X2228Y356D01*
X2230Y356D01*
X2230Y358D01*
X2232Y358D01*
X2232Y360D01*
X2234Y360D01*
X2234Y362D01*
X2236Y362D01*
X2236Y364D01*
X2238Y364D01*
X2238Y366D01*
X2240Y366D01*
X2240Y368D01*
X2244Y368D01*
X2244Y388D01*
X2240Y388D01*
X2240Y390D01*
X2238Y390D01*
X2238Y392D01*
X2236Y392D01*
X2236Y394D01*
X2234Y394D01*
X2234Y396D01*
X2232Y396D01*
X2232Y398D01*
X2230Y398D01*
X2230Y400D01*
X2228Y400D01*
X2228Y402D01*
X2226Y402D01*
X2226Y404D01*
X2224Y404D01*
X2224Y408D01*
X2222Y408D01*
X2222Y410D01*
X384Y410D01*
X384Y412D01*
X380Y412D01*
X380Y414D01*
X378Y414D01*
X378Y416D01*
X376Y416D01*
X376Y418D01*
X374Y418D01*
X374Y422D01*
X372Y422D01*
X372Y810D01*
X370Y810D01*
X370Y812D01*
X366Y812D01*
X366Y814D01*
X364Y814D01*
X364Y816D01*
X360Y816D01*
X360Y818D01*
X358Y818D01*
X358Y820D01*
X356Y820D01*
X356Y822D01*
X354Y822D01*
X354Y826D01*
X352Y826D01*
X352Y828D01*
X350Y828D01*
X350Y830D01*
X330Y830D01*
G37*
D02*
G36*
X430Y830D02*
X430Y828D01*
X428Y828D01*
X428Y826D01*
X426Y826D01*
X426Y824D01*
X424Y824D01*
X424Y820D01*
X420Y820D01*
X420Y818D01*
X418Y818D01*
X418Y816D01*
X416Y816D01*
X416Y814D01*
X414Y814D01*
X414Y812D01*
X410Y812D01*
X410Y810D01*
X408Y810D01*
X408Y446D01*
X2222Y446D01*
X2222Y448D01*
X2224Y448D01*
X2224Y450D01*
X2226Y450D01*
X2226Y454D01*
X2228Y454D01*
X2228Y456D01*
X2230Y456D01*
X2230Y458D01*
X2232Y458D01*
X2232Y460D01*
X2234Y460D01*
X2234Y462D01*
X2236Y462D01*
X2236Y464D01*
X2238Y464D01*
X2238Y466D01*
X2240Y466D01*
X2240Y468D01*
X2244Y468D01*
X2244Y488D01*
X2240Y488D01*
X2240Y490D01*
X2238Y490D01*
X2238Y492D01*
X2236Y492D01*
X2236Y494D01*
X2234Y494D01*
X2234Y496D01*
X2232Y496D01*
X2232Y498D01*
X2230Y498D01*
X2230Y500D01*
X2228Y500D01*
X2228Y502D01*
X2226Y502D01*
X2226Y504D01*
X2224Y504D01*
X2224Y508D01*
X2222Y508D01*
X2222Y510D01*
X484Y510D01*
X484Y512D01*
X480Y512D01*
X480Y514D01*
X478Y514D01*
X478Y516D01*
X476Y516D01*
X476Y518D01*
X474Y518D01*
X474Y522D01*
X472Y522D01*
X472Y810D01*
X470Y810D01*
X470Y812D01*
X466Y812D01*
X466Y814D01*
X464Y814D01*
X464Y816D01*
X460Y816D01*
X460Y818D01*
X458Y818D01*
X458Y820D01*
X456Y820D01*
X456Y822D01*
X454Y822D01*
X454Y826D01*
X452Y826D01*
X452Y828D01*
X450Y828D01*
X450Y830D01*
X430Y830D01*
G37*
D02*
G36*
X530Y830D02*
X530Y828D01*
X528Y828D01*
X528Y826D01*
X526Y826D01*
X526Y824D01*
X524Y824D01*
X524Y820D01*
X520Y820D01*
X520Y818D01*
X518Y818D01*
X518Y816D01*
X516Y816D01*
X516Y814D01*
X514Y814D01*
X514Y812D01*
X510Y812D01*
X510Y810D01*
X508Y810D01*
X508Y546D01*
X2222Y546D01*
X2222Y548D01*
X2224Y548D01*
X2224Y550D01*
X2226Y550D01*
X2226Y554D01*
X2228Y554D01*
X2228Y556D01*
X2230Y556D01*
X2230Y558D01*
X2232Y558D01*
X2232Y560D01*
X2234Y560D01*
X2234Y562D01*
X2236Y562D01*
X2236Y564D01*
X2238Y564D01*
X2238Y566D01*
X2240Y566D01*
X2240Y568D01*
X2244Y568D01*
X2244Y588D01*
X2240Y588D01*
X2240Y590D01*
X2238Y590D01*
X2238Y592D01*
X2236Y592D01*
X2236Y594D01*
X2234Y594D01*
X2234Y596D01*
X2232Y596D01*
X2232Y598D01*
X2230Y598D01*
X2230Y600D01*
X2228Y600D01*
X2228Y602D01*
X2226Y602D01*
X2226Y604D01*
X2224Y604D01*
X2224Y608D01*
X2222Y608D01*
X2222Y610D01*
X584Y610D01*
X584Y612D01*
X580Y612D01*
X580Y614D01*
X578Y614D01*
X578Y616D01*
X576Y616D01*
X576Y618D01*
X574Y618D01*
X574Y622D01*
X572Y622D01*
X572Y810D01*
X570Y810D01*
X570Y812D01*
X566Y812D01*
X566Y814D01*
X564Y814D01*
X564Y816D01*
X560Y816D01*
X560Y818D01*
X558Y818D01*
X558Y820D01*
X556Y820D01*
X556Y822D01*
X554Y822D01*
X554Y826D01*
X552Y826D01*
X552Y828D01*
X550Y828D01*
X550Y830D01*
X530Y830D01*
G37*
D02*
G36*
X630Y830D02*
X630Y828D01*
X628Y828D01*
X628Y826D01*
X626Y826D01*
X626Y824D01*
X624Y824D01*
X624Y820D01*
X620Y820D01*
X620Y818D01*
X618Y818D01*
X618Y816D01*
X616Y816D01*
X616Y814D01*
X614Y814D01*
X614Y812D01*
X610Y812D01*
X610Y810D01*
X608Y810D01*
X608Y646D01*
X672Y646D01*
X672Y810D01*
X670Y810D01*
X670Y812D01*
X666Y812D01*
X666Y814D01*
X664Y814D01*
X664Y816D01*
X660Y816D01*
X660Y818D01*
X658Y818D01*
X658Y820D01*
X656Y820D01*
X656Y822D01*
X654Y822D01*
X654Y826D01*
X652Y826D01*
X652Y828D01*
X650Y828D01*
X650Y830D01*
X630Y830D01*
G37*
D02*
G36*
X730Y830D02*
X730Y828D01*
X728Y828D01*
X728Y826D01*
X726Y826D01*
X726Y824D01*
X724Y824D01*
X724Y820D01*
X720Y820D01*
X720Y818D01*
X718Y818D01*
X718Y816D01*
X716Y816D01*
X716Y814D01*
X714Y814D01*
X714Y812D01*
X710Y812D01*
X710Y810D01*
X708Y810D01*
X708Y670D01*
X772Y670D01*
X772Y810D01*
X770Y810D01*
X770Y812D01*
X766Y812D01*
X766Y814D01*
X764Y814D01*
X764Y816D01*
X760Y816D01*
X760Y818D01*
X758Y818D01*
X758Y820D01*
X756Y820D01*
X756Y822D01*
X754Y822D01*
X754Y826D01*
X752Y826D01*
X752Y828D01*
X750Y828D01*
X750Y830D01*
X730Y830D01*
G37*
D02*
G36*
X830Y830D02*
X830Y828D01*
X828Y828D01*
X828Y826D01*
X826Y826D01*
X826Y824D01*
X824Y824D01*
X824Y820D01*
X820Y820D01*
X820Y818D01*
X818Y818D01*
X818Y816D01*
X816Y816D01*
X816Y814D01*
X814Y814D01*
X814Y812D01*
X810Y812D01*
X810Y810D01*
X808Y810D01*
X808Y806D01*
X878Y806D01*
X878Y808D01*
X874Y808D01*
X874Y810D01*
X870Y810D01*
X870Y812D01*
X866Y812D01*
X866Y814D01*
X864Y814D01*
X864Y816D01*
X860Y816D01*
X860Y818D01*
X858Y818D01*
X858Y820D01*
X856Y820D01*
X856Y822D01*
X854Y822D01*
X854Y826D01*
X852Y826D01*
X852Y828D01*
X850Y828D01*
X850Y830D01*
X830Y830D01*
G37*
D02*
G36*
X930Y830D02*
X930Y828D01*
X928Y828D01*
X928Y826D01*
X926Y826D01*
X926Y824D01*
X924Y824D01*
X924Y820D01*
X920Y820D01*
X920Y818D01*
X918Y818D01*
X918Y816D01*
X916Y816D01*
X916Y814D01*
X914Y814D01*
X914Y812D01*
X910Y812D01*
X910Y810D01*
X906Y810D01*
X906Y808D01*
X900Y808D01*
X900Y806D01*
X972Y806D01*
X972Y810D01*
X970Y810D01*
X970Y812D01*
X966Y812D01*
X966Y814D01*
X964Y814D01*
X964Y816D01*
X960Y816D01*
X960Y818D01*
X958Y818D01*
X958Y820D01*
X956Y820D01*
X956Y822D01*
X954Y822D01*
X954Y826D01*
X952Y826D01*
X952Y828D01*
X950Y828D01*
X950Y830D01*
X930Y830D01*
G37*
D02*
G36*
X808Y806D02*
X808Y804D01*
X972Y804D01*
X972Y806D01*
X808Y806D01*
G37*
D02*
G36*
X808Y806D02*
X808Y804D01*
X972Y804D01*
X972Y806D01*
X808Y806D01*
G37*
D02*
G36*
X808Y804D02*
X808Y696D01*
X978Y696D01*
X978Y716D01*
X976Y716D01*
X976Y718D01*
X974Y718D01*
X974Y722D01*
X972Y722D01*
X972Y804D01*
X808Y804D01*
G37*
D02*
G36*
X1030Y830D02*
X1030Y828D01*
X1028Y828D01*
X1028Y826D01*
X1026Y826D01*
X1026Y824D01*
X1024Y824D01*
X1024Y820D01*
X1020Y820D01*
X1020Y818D01*
X1018Y818D01*
X1018Y816D01*
X1016Y816D01*
X1016Y814D01*
X1014Y814D01*
X1014Y812D01*
X1010Y812D01*
X1010Y810D01*
X1008Y810D01*
X1008Y746D01*
X1072Y746D01*
X1072Y810D01*
X1070Y810D01*
X1070Y812D01*
X1066Y812D01*
X1066Y814D01*
X1064Y814D01*
X1064Y816D01*
X1060Y816D01*
X1060Y818D01*
X1058Y818D01*
X1058Y820D01*
X1056Y820D01*
X1056Y822D01*
X1054Y822D01*
X1054Y826D01*
X1052Y826D01*
X1052Y828D01*
X1050Y828D01*
X1050Y830D01*
X1030Y830D01*
G37*
D02*
G36*
X1130Y830D02*
X1130Y828D01*
X1128Y828D01*
X1128Y826D01*
X1126Y826D01*
X1126Y824D01*
X1124Y824D01*
X1124Y820D01*
X1120Y820D01*
X1120Y818D01*
X1118Y818D01*
X1118Y816D01*
X1116Y816D01*
X1116Y814D01*
X1114Y814D01*
X1114Y812D01*
X1110Y812D01*
X1110Y810D01*
X1108Y810D01*
X1108Y770D01*
X1172Y770D01*
X1172Y810D01*
X1170Y810D01*
X1170Y812D01*
X1166Y812D01*
X1166Y814D01*
X1164Y814D01*
X1164Y816D01*
X1160Y816D01*
X1160Y818D01*
X1158Y818D01*
X1158Y820D01*
X1156Y820D01*
X1156Y822D01*
X1154Y822D01*
X1154Y826D01*
X1152Y826D01*
X1152Y828D01*
X1150Y828D01*
X1150Y830D01*
X1130Y830D01*
G37*
D02*
G36*
X138Y820D02*
X138Y806D01*
X40Y806D01*
X40Y180D01*
X2262Y180D01*
X2262Y182D01*
X2252Y182D01*
X2252Y184D01*
X2248Y184D01*
X2248Y186D01*
X2244Y186D01*
X2244Y188D01*
X2240Y188D01*
X2240Y190D01*
X2238Y190D01*
X2238Y192D01*
X2236Y192D01*
X2236Y194D01*
X2234Y194D01*
X2234Y196D01*
X2232Y196D01*
X2232Y198D01*
X2230Y198D01*
X2230Y200D01*
X2228Y200D01*
X2228Y202D01*
X2226Y202D01*
X2226Y204D01*
X2224Y204D01*
X2224Y208D01*
X2222Y208D01*
X2222Y210D01*
X184Y210D01*
X184Y212D01*
X180Y212D01*
X180Y214D01*
X178Y214D01*
X178Y216D01*
X176Y216D01*
X176Y218D01*
X174Y218D01*
X174Y222D01*
X172Y222D01*
X172Y810D01*
X170Y810D01*
X170Y812D01*
X166Y812D01*
X166Y814D01*
X164Y814D01*
X164Y816D01*
X160Y816D01*
X160Y818D01*
X158Y818D01*
X158Y820D01*
X138Y820D01*
G37*
D02*
G36*
X2406Y310D02*
X2406Y306D01*
X2404Y306D01*
X2404Y302D01*
X2402Y302D01*
X2402Y300D01*
X2400Y300D01*
X2400Y298D01*
X2398Y298D01*
X2398Y296D01*
X2396Y296D01*
X2396Y294D01*
X2394Y294D01*
X2394Y292D01*
X2392Y292D01*
X2392Y290D01*
X2390Y290D01*
X2390Y288D01*
X2386Y288D01*
X2386Y268D01*
X2388Y268D01*
X2388Y266D01*
X2392Y266D01*
X2392Y264D01*
X2394Y264D01*
X2394Y262D01*
X2396Y262D01*
X2396Y260D01*
X2398Y260D01*
X2398Y258D01*
X2400Y258D01*
X2400Y256D01*
X2402Y256D01*
X2402Y254D01*
X2404Y254D01*
X2404Y250D01*
X2406Y250D01*
X2406Y246D01*
X2408Y246D01*
X2408Y242D01*
X2410Y242D01*
X2410Y236D01*
X2412Y236D01*
X2412Y220D01*
X2410Y220D01*
X2410Y214D01*
X2408Y214D01*
X2408Y210D01*
X2406Y210D01*
X2406Y206D01*
X2404Y206D01*
X2404Y202D01*
X2402Y202D01*
X2402Y200D01*
X2400Y200D01*
X2400Y198D01*
X2398Y198D01*
X2398Y196D01*
X2396Y196D01*
X2396Y194D01*
X2394Y194D01*
X2394Y192D01*
X2392Y192D01*
X2392Y190D01*
X2390Y190D01*
X2390Y188D01*
X2386Y188D01*
X2386Y186D01*
X2382Y186D01*
X2382Y184D01*
X2378Y184D01*
X2378Y182D01*
X2368Y182D01*
X2368Y180D01*
X2564Y180D01*
X2564Y310D01*
X2406Y310D01*
G37*
D02*
G36*
X2304Y206D02*
X2304Y202D01*
X2302Y202D01*
X2302Y200D01*
X2300Y200D01*
X2300Y198D01*
X2298Y198D01*
X2298Y196D01*
X2296Y196D01*
X2296Y194D01*
X2294Y194D01*
X2294Y192D01*
X2292Y192D01*
X2292Y190D01*
X2290Y190D01*
X2290Y188D01*
X2286Y188D01*
X2286Y186D01*
X2282Y186D01*
X2282Y184D01*
X2278Y184D01*
X2278Y182D01*
X2268Y182D01*
X2268Y180D01*
X2362Y180D01*
X2362Y182D01*
X2352Y182D01*
X2352Y184D01*
X2348Y184D01*
X2348Y186D01*
X2344Y186D01*
X2344Y188D01*
X2340Y188D01*
X2340Y190D01*
X2338Y190D01*
X2338Y192D01*
X2336Y192D01*
X2336Y194D01*
X2334Y194D01*
X2334Y196D01*
X2332Y196D01*
X2332Y198D01*
X2330Y198D01*
X2330Y200D01*
X2328Y200D01*
X2328Y202D01*
X2326Y202D01*
X2326Y204D01*
X2324Y204D01*
X2324Y206D01*
X2304Y206D01*
G37*
D02*
G36*
X40Y180D02*
X40Y178D01*
X2564Y178D01*
X2564Y180D01*
X40Y180D01*
G37*
D02*
G36*
X40Y180D02*
X40Y178D01*
X2564Y178D01*
X2564Y180D01*
X40Y180D01*
G37*
D02*
G36*
X40Y180D02*
X40Y178D01*
X2564Y178D01*
X2564Y180D01*
X40Y180D01*
G37*
D02*
G36*
X40Y178D02*
X40Y40D01*
X2564Y40D01*
X2564Y178D01*
X40Y178D01*
G37*
D02*
G36*
X2304Y806D02*
X2304Y802D01*
X2302Y802D01*
X2302Y800D01*
X2300Y800D01*
X2300Y798D01*
X2298Y798D01*
X2298Y796D01*
X2296Y796D01*
X2296Y794D01*
X2294Y794D01*
X2294Y792D01*
X2292Y792D01*
X2292Y790D01*
X2290Y790D01*
X2290Y788D01*
X2286Y788D01*
X2286Y768D01*
X2288Y768D01*
X2288Y766D01*
X2292Y766D01*
X2292Y764D01*
X2294Y764D01*
X2294Y762D01*
X2296Y762D01*
X2296Y760D01*
X2298Y760D01*
X2298Y758D01*
X2300Y758D01*
X2300Y756D01*
X2302Y756D01*
X2302Y754D01*
X2304Y754D01*
X2304Y750D01*
X2326Y750D01*
X2326Y754D01*
X2328Y754D01*
X2328Y756D01*
X2330Y756D01*
X2330Y758D01*
X2332Y758D01*
X2332Y760D01*
X2334Y760D01*
X2334Y762D01*
X2336Y762D01*
X2336Y764D01*
X2338Y764D01*
X2338Y766D01*
X2340Y766D01*
X2340Y768D01*
X2344Y768D01*
X2344Y788D01*
X2340Y788D01*
X2340Y790D01*
X2338Y790D01*
X2338Y792D01*
X2336Y792D01*
X2336Y794D01*
X2334Y794D01*
X2334Y796D01*
X2332Y796D01*
X2332Y798D01*
X2330Y798D01*
X2330Y800D01*
X2328Y800D01*
X2328Y802D01*
X2326Y802D01*
X2326Y804D01*
X2324Y804D01*
X2324Y806D01*
X2304Y806D01*
G37*
D02*
G36*
X2406Y710D02*
X2406Y706D01*
X2404Y706D01*
X2404Y702D01*
X2402Y702D01*
X2402Y700D01*
X2400Y700D01*
X2400Y698D01*
X2398Y698D01*
X2398Y696D01*
X2396Y696D01*
X2396Y694D01*
X2394Y694D01*
X2394Y692D01*
X2392Y692D01*
X2392Y690D01*
X2390Y690D01*
X2390Y688D01*
X2386Y688D01*
X2386Y668D01*
X2388Y668D01*
X2388Y666D01*
X2392Y666D01*
X2392Y664D01*
X2394Y664D01*
X2394Y662D01*
X2396Y662D01*
X2396Y660D01*
X2398Y660D01*
X2398Y658D01*
X2400Y658D01*
X2400Y656D01*
X2402Y656D01*
X2402Y654D01*
X2404Y654D01*
X2404Y650D01*
X2406Y650D01*
X2406Y646D01*
X2408Y646D01*
X2408Y642D01*
X2410Y642D01*
X2410Y636D01*
X2412Y636D01*
X2412Y620D01*
X2410Y620D01*
X2410Y614D01*
X2408Y614D01*
X2408Y610D01*
X2406Y610D01*
X2406Y606D01*
X2404Y606D01*
X2404Y602D01*
X2402Y602D01*
X2402Y600D01*
X2400Y600D01*
X2400Y598D01*
X2398Y598D01*
X2398Y596D01*
X2396Y596D01*
X2396Y594D01*
X2394Y594D01*
X2394Y592D01*
X2392Y592D01*
X2392Y590D01*
X2390Y590D01*
X2390Y588D01*
X2386Y588D01*
X2386Y568D01*
X2388Y568D01*
X2388Y566D01*
X2392Y566D01*
X2392Y564D01*
X2394Y564D01*
X2394Y562D01*
X2396Y562D01*
X2396Y560D01*
X2398Y560D01*
X2398Y558D01*
X2400Y558D01*
X2400Y556D01*
X2402Y556D01*
X2402Y554D01*
X2404Y554D01*
X2404Y550D01*
X2406Y550D01*
X2406Y546D01*
X2522Y546D01*
X2522Y710D01*
X2406Y710D01*
G37*
D02*
G36*
X2304Y706D02*
X2304Y702D01*
X2302Y702D01*
X2302Y700D01*
X2300Y700D01*
X2300Y698D01*
X2298Y698D01*
X2298Y696D01*
X2296Y696D01*
X2296Y694D01*
X2294Y694D01*
X2294Y692D01*
X2292Y692D01*
X2292Y690D01*
X2290Y690D01*
X2290Y688D01*
X2286Y688D01*
X2286Y668D01*
X2288Y668D01*
X2288Y666D01*
X2292Y666D01*
X2292Y664D01*
X2294Y664D01*
X2294Y662D01*
X2296Y662D01*
X2296Y660D01*
X2298Y660D01*
X2298Y658D01*
X2300Y658D01*
X2300Y656D01*
X2302Y656D01*
X2302Y654D01*
X2304Y654D01*
X2304Y650D01*
X2326Y650D01*
X2326Y654D01*
X2328Y654D01*
X2328Y656D01*
X2330Y656D01*
X2330Y658D01*
X2332Y658D01*
X2332Y660D01*
X2334Y660D01*
X2334Y662D01*
X2336Y662D01*
X2336Y664D01*
X2338Y664D01*
X2338Y666D01*
X2340Y666D01*
X2340Y668D01*
X2344Y668D01*
X2344Y688D01*
X2340Y688D01*
X2340Y690D01*
X2338Y690D01*
X2338Y692D01*
X2336Y692D01*
X2336Y694D01*
X2334Y694D01*
X2334Y696D01*
X2332Y696D01*
X2332Y698D01*
X2330Y698D01*
X2330Y700D01*
X2328Y700D01*
X2328Y702D01*
X2326Y702D01*
X2326Y704D01*
X2324Y704D01*
X2324Y706D01*
X2304Y706D01*
G37*
D02*
G36*
X2304Y606D02*
X2304Y602D01*
X2302Y602D01*
X2302Y600D01*
X2300Y600D01*
X2300Y598D01*
X2298Y598D01*
X2298Y596D01*
X2296Y596D01*
X2296Y594D01*
X2294Y594D01*
X2294Y592D01*
X2292Y592D01*
X2292Y590D01*
X2290Y590D01*
X2290Y588D01*
X2286Y588D01*
X2286Y568D01*
X2288Y568D01*
X2288Y566D01*
X2292Y566D01*
X2292Y564D01*
X2294Y564D01*
X2294Y562D01*
X2296Y562D01*
X2296Y560D01*
X2298Y560D01*
X2298Y558D01*
X2300Y558D01*
X2300Y556D01*
X2302Y556D01*
X2302Y554D01*
X2304Y554D01*
X2304Y550D01*
X2326Y550D01*
X2326Y554D01*
X2328Y554D01*
X2328Y556D01*
X2330Y556D01*
X2330Y558D01*
X2332Y558D01*
X2332Y560D01*
X2334Y560D01*
X2334Y562D01*
X2336Y562D01*
X2336Y564D01*
X2338Y564D01*
X2338Y566D01*
X2340Y566D01*
X2340Y568D01*
X2344Y568D01*
X2344Y588D01*
X2340Y588D01*
X2340Y590D01*
X2338Y590D01*
X2338Y592D01*
X2336Y592D01*
X2336Y594D01*
X2334Y594D01*
X2334Y596D01*
X2332Y596D01*
X2332Y598D01*
X2330Y598D01*
X2330Y600D01*
X2328Y600D01*
X2328Y602D01*
X2326Y602D01*
X2326Y604D01*
X2324Y604D01*
X2324Y606D01*
X2304Y606D01*
G37*
D02*
G36*
X2406Y510D02*
X2406Y506D01*
X2404Y506D01*
X2404Y502D01*
X2402Y502D01*
X2402Y500D01*
X2400Y500D01*
X2400Y498D01*
X2398Y498D01*
X2398Y496D01*
X2396Y496D01*
X2396Y494D01*
X2394Y494D01*
X2394Y492D01*
X2392Y492D01*
X2392Y490D01*
X2390Y490D01*
X2390Y488D01*
X2386Y488D01*
X2386Y468D01*
X2388Y468D01*
X2388Y466D01*
X2392Y466D01*
X2392Y464D01*
X2394Y464D01*
X2394Y462D01*
X2396Y462D01*
X2396Y460D01*
X2398Y460D01*
X2398Y458D01*
X2400Y458D01*
X2400Y456D01*
X2402Y456D01*
X2402Y454D01*
X2404Y454D01*
X2404Y450D01*
X2406Y450D01*
X2406Y446D01*
X2408Y446D01*
X2408Y442D01*
X2410Y442D01*
X2410Y436D01*
X2412Y436D01*
X2412Y420D01*
X2410Y420D01*
X2410Y414D01*
X2408Y414D01*
X2408Y410D01*
X2406Y410D01*
X2406Y406D01*
X2404Y406D01*
X2404Y402D01*
X2402Y402D01*
X2402Y400D01*
X2400Y400D01*
X2400Y398D01*
X2398Y398D01*
X2398Y396D01*
X2396Y396D01*
X2396Y394D01*
X2394Y394D01*
X2394Y392D01*
X2392Y392D01*
X2392Y390D01*
X2390Y390D01*
X2390Y388D01*
X2386Y388D01*
X2386Y368D01*
X2388Y368D01*
X2388Y366D01*
X2392Y366D01*
X2392Y364D01*
X2394Y364D01*
X2394Y362D01*
X2396Y362D01*
X2396Y360D01*
X2398Y360D01*
X2398Y358D01*
X2400Y358D01*
X2400Y356D01*
X2402Y356D01*
X2402Y354D01*
X2404Y354D01*
X2404Y350D01*
X2406Y350D01*
X2406Y346D01*
X2548Y346D01*
X2548Y510D01*
X2406Y510D01*
G37*
D02*
G36*
X2304Y506D02*
X2304Y502D01*
X2302Y502D01*
X2302Y500D01*
X2300Y500D01*
X2300Y498D01*
X2298Y498D01*
X2298Y496D01*
X2296Y496D01*
X2296Y494D01*
X2294Y494D01*
X2294Y492D01*
X2292Y492D01*
X2292Y490D01*
X2290Y490D01*
X2290Y488D01*
X2286Y488D01*
X2286Y468D01*
X2288Y468D01*
X2288Y466D01*
X2292Y466D01*
X2292Y464D01*
X2294Y464D01*
X2294Y462D01*
X2296Y462D01*
X2296Y460D01*
X2298Y460D01*
X2298Y458D01*
X2300Y458D01*
X2300Y456D01*
X2302Y456D01*
X2302Y454D01*
X2304Y454D01*
X2304Y450D01*
X2326Y450D01*
X2326Y454D01*
X2328Y454D01*
X2328Y456D01*
X2330Y456D01*
X2330Y458D01*
X2332Y458D01*
X2332Y460D01*
X2334Y460D01*
X2334Y462D01*
X2336Y462D01*
X2336Y464D01*
X2338Y464D01*
X2338Y466D01*
X2340Y466D01*
X2340Y468D01*
X2344Y468D01*
X2344Y488D01*
X2340Y488D01*
X2340Y490D01*
X2338Y490D01*
X2338Y492D01*
X2336Y492D01*
X2336Y494D01*
X2334Y494D01*
X2334Y496D01*
X2332Y496D01*
X2332Y498D01*
X2330Y498D01*
X2330Y500D01*
X2328Y500D01*
X2328Y502D01*
X2326Y502D01*
X2326Y504D01*
X2324Y504D01*
X2324Y506D01*
X2304Y506D01*
G37*
D02*
G36*
X2304Y406D02*
X2304Y402D01*
X2302Y402D01*
X2302Y400D01*
X2300Y400D01*
X2300Y398D01*
X2298Y398D01*
X2298Y396D01*
X2296Y396D01*
X2296Y394D01*
X2294Y394D01*
X2294Y392D01*
X2292Y392D01*
X2292Y390D01*
X2290Y390D01*
X2290Y388D01*
X2286Y388D01*
X2286Y368D01*
X2288Y368D01*
X2288Y366D01*
X2292Y366D01*
X2292Y364D01*
X2294Y364D01*
X2294Y362D01*
X2296Y362D01*
X2296Y360D01*
X2298Y360D01*
X2298Y358D01*
X2300Y358D01*
X2300Y356D01*
X2302Y356D01*
X2302Y354D01*
X2304Y354D01*
X2304Y350D01*
X2326Y350D01*
X2326Y354D01*
X2328Y354D01*
X2328Y356D01*
X2330Y356D01*
X2330Y358D01*
X2332Y358D01*
X2332Y360D01*
X2334Y360D01*
X2334Y362D01*
X2336Y362D01*
X2336Y364D01*
X2338Y364D01*
X2338Y366D01*
X2340Y366D01*
X2340Y368D01*
X2344Y368D01*
X2344Y388D01*
X2340Y388D01*
X2340Y390D01*
X2338Y390D01*
X2338Y392D01*
X2336Y392D01*
X2336Y394D01*
X2334Y394D01*
X2334Y396D01*
X2332Y396D01*
X2332Y398D01*
X2330Y398D01*
X2330Y400D01*
X2328Y400D01*
X2328Y402D01*
X2326Y402D01*
X2326Y404D01*
X2324Y404D01*
X2324Y406D01*
X2304Y406D01*
G37*
D02*
G36*
X2304Y306D02*
X2304Y302D01*
X2302Y302D01*
X2302Y300D01*
X2300Y300D01*
X2300Y298D01*
X2298Y298D01*
X2298Y296D01*
X2296Y296D01*
X2296Y294D01*
X2294Y294D01*
X2294Y292D01*
X2292Y292D01*
X2292Y290D01*
X2290Y290D01*
X2290Y288D01*
X2286Y288D01*
X2286Y268D01*
X2288Y268D01*
X2288Y266D01*
X2292Y266D01*
X2292Y264D01*
X2294Y264D01*
X2294Y262D01*
X2296Y262D01*
X2296Y260D01*
X2298Y260D01*
X2298Y258D01*
X2300Y258D01*
X2300Y256D01*
X2302Y256D01*
X2302Y254D01*
X2304Y254D01*
X2304Y250D01*
X2326Y250D01*
X2326Y254D01*
X2328Y254D01*
X2328Y256D01*
X2330Y256D01*
X2330Y258D01*
X2332Y258D01*
X2332Y260D01*
X2334Y260D01*
X2334Y262D01*
X2336Y262D01*
X2336Y264D01*
X2338Y264D01*
X2338Y266D01*
X2340Y266D01*
X2340Y268D01*
X2344Y268D01*
X2344Y288D01*
X2340Y288D01*
X2340Y290D01*
X2338Y290D01*
X2338Y292D01*
X2336Y292D01*
X2336Y294D01*
X2334Y294D01*
X2334Y296D01*
X2332Y296D01*
X2332Y298D01*
X2330Y298D01*
X2330Y300D01*
X2328Y300D01*
X2328Y302D01*
X2326Y302D01*
X2326Y304D01*
X2324Y304D01*
X2324Y306D01*
X2304Y306D01*
G37*
D02*
G04 End of Copper1*
M02*