M48
INCH
T10C0.040000
T11C0.035000
%
T10
X022648Y002282
X022648Y003282
X022648Y004282
X022648Y005282
X022648Y006282
X022648Y007282
X022648Y008282
X022648Y009282
X022648Y010282
X022648Y011282
X022648Y012282
X022648Y013282
X022648Y014282
X023648Y002282
X023648Y003282
X023648Y004282
X023648Y005282
X023648Y006282
X023648Y007282
X023648Y008282
X023648Y009282
X023648Y010282
X023648Y011282
X023648Y012282
X023648Y013282
X023648Y014282
T11
X019898Y014532
X019898Y008532
X018898Y014532
X018898Y008532
X017898Y014532
X017898Y008532
X016898Y014532
X016898Y008532
X015898Y014532
X015898Y008532
X014898Y014532
X014898Y008532
X013898Y014532
X013898Y008532
X012898Y014532
X012898Y008532
X011898Y014532
X011898Y008532
X010898Y014532
X010898Y008532
X009898Y014532
X009898Y008532
X008898Y014532
X008898Y008532
X007898Y014532
X007898Y008532
X006898Y014532
X006898Y008532
X005898Y014532
X005898Y008532
X004898Y014532
X004898Y008532
X003898Y014532
X003898Y008532
X002898Y014532
X002898Y008532
X001898Y014532
X001898Y008532
X000898Y014532
X000898Y008532
T00
M30
