G04 MADE WITH FRITZING*
G04 WWW.FRITZING.ORG*
G04 DOUBLE SIDED*
G04 HOLES PLATED*
G04 CONTOUR ON CENTER OF CONTOUR VECTOR*
%ASAXBY*%
%FSLAX23Y23*%
%MOIN*%
%OFA0B0*%
%SFA1.0B1.0*%
%ADD10C,0.075000*%
%ADD11C,0.074000*%
%ADD12C,0.200000*%
%ADD13R,0.075000X0.075000*%
%ADD14C,0.024000*%
%ADD15C,0.012000*%
%ADD16R,0.001000X0.001000*%
%LNCOPPER0*%
G90*
G70*
G54D10*
X112Y1433D03*
X415Y1383D03*
X1019Y1433D03*
G54D11*
X843Y186D03*
X734Y186D03*
X625Y186D03*
X516Y186D03*
X407Y186D03*
X788Y74D03*
X679Y74D03*
X570Y74D03*
X461Y74D03*
G54D12*
X1117Y130D03*
X133Y130D03*
G54D10*
X314Y1486D03*
X914Y1486D03*
X314Y1386D03*
X914Y1386D03*
X314Y1286D03*
X914Y1286D03*
X314Y1186D03*
X914Y1186D03*
X314Y1086D03*
X914Y1086D03*
X314Y986D03*
X914Y986D03*
X314Y886D03*
X914Y886D03*
X314Y786D03*
X914Y786D03*
X314Y686D03*
X914Y686D03*
X314Y586D03*
X914Y586D03*
X314Y486D03*
X914Y486D03*
X314Y386D03*
X914Y386D03*
G54D13*
X314Y1486D03*
G54D14*
X841Y1487D02*
X843Y217D01*
D02*
X343Y1486D02*
X841Y1487D01*
D02*
X614Y284D02*
X841Y284D01*
D02*
X841Y284D02*
X842Y217D01*
D02*
X621Y217D02*
X614Y284D01*
G54D15*
D02*
X514Y284D02*
X515Y212D01*
D02*
X516Y887D02*
X514Y284D01*
D02*
X337Y886D02*
X516Y887D01*
D02*
X413Y284D02*
X408Y212D01*
D02*
X414Y786D02*
X413Y284D01*
D02*
X337Y786D02*
X414Y786D01*
G36*
X40Y1515D02*
X40Y339D01*
X306Y339D01*
X306Y341D01*
X300Y341D01*
X300Y343D01*
X296Y343D01*
X296Y345D01*
X292Y345D01*
X292Y347D01*
X288Y347D01*
X288Y349D01*
X286Y349D01*
X286Y351D01*
X284Y351D01*
X284Y353D01*
X282Y353D01*
X282Y355D01*
X280Y355D01*
X280Y357D01*
X278Y357D01*
X278Y359D01*
X276Y359D01*
X276Y363D01*
X274Y363D01*
X274Y365D01*
X272Y365D01*
X272Y369D01*
X270Y369D01*
X270Y375D01*
X268Y375D01*
X268Y385D01*
X266Y385D01*
X266Y389D01*
X268Y389D01*
X268Y397D01*
X270Y397D01*
X270Y403D01*
X272Y403D01*
X272Y407D01*
X274Y407D01*
X274Y411D01*
X276Y411D01*
X276Y413D01*
X278Y413D01*
X278Y415D01*
X280Y415D01*
X280Y417D01*
X282Y417D01*
X282Y419D01*
X284Y419D01*
X284Y421D01*
X286Y421D01*
X286Y423D01*
X288Y423D01*
X288Y425D01*
X290Y425D01*
X290Y427D01*
X292Y427D01*
X292Y447D01*
X288Y447D01*
X288Y449D01*
X286Y449D01*
X286Y451D01*
X284Y451D01*
X284Y453D01*
X282Y453D01*
X282Y455D01*
X280Y455D01*
X280Y457D01*
X278Y457D01*
X278Y459D01*
X276Y459D01*
X276Y463D01*
X274Y463D01*
X274Y465D01*
X272Y465D01*
X272Y469D01*
X270Y469D01*
X270Y475D01*
X268Y475D01*
X268Y485D01*
X266Y485D01*
X266Y489D01*
X268Y489D01*
X268Y497D01*
X270Y497D01*
X270Y503D01*
X272Y503D01*
X272Y507D01*
X274Y507D01*
X274Y511D01*
X276Y511D01*
X276Y513D01*
X278Y513D01*
X278Y515D01*
X280Y515D01*
X280Y517D01*
X282Y517D01*
X282Y519D01*
X284Y519D01*
X284Y521D01*
X286Y521D01*
X286Y523D01*
X288Y523D01*
X288Y525D01*
X290Y525D01*
X290Y527D01*
X292Y527D01*
X292Y547D01*
X288Y547D01*
X288Y549D01*
X286Y549D01*
X286Y551D01*
X284Y551D01*
X284Y553D01*
X282Y553D01*
X282Y555D01*
X280Y555D01*
X280Y557D01*
X278Y557D01*
X278Y559D01*
X276Y559D01*
X276Y563D01*
X274Y563D01*
X274Y565D01*
X272Y565D01*
X272Y569D01*
X270Y569D01*
X270Y575D01*
X268Y575D01*
X268Y585D01*
X266Y585D01*
X266Y589D01*
X268Y589D01*
X268Y597D01*
X270Y597D01*
X270Y603D01*
X272Y603D01*
X272Y607D01*
X274Y607D01*
X274Y611D01*
X276Y611D01*
X276Y613D01*
X278Y613D01*
X278Y615D01*
X280Y615D01*
X280Y617D01*
X282Y617D01*
X282Y619D01*
X284Y619D01*
X284Y621D01*
X286Y621D01*
X286Y623D01*
X288Y623D01*
X288Y625D01*
X290Y625D01*
X290Y627D01*
X292Y627D01*
X292Y647D01*
X288Y647D01*
X288Y649D01*
X286Y649D01*
X286Y651D01*
X284Y651D01*
X284Y653D01*
X282Y653D01*
X282Y655D01*
X280Y655D01*
X280Y657D01*
X278Y657D01*
X278Y659D01*
X276Y659D01*
X276Y663D01*
X274Y663D01*
X274Y665D01*
X272Y665D01*
X272Y669D01*
X270Y669D01*
X270Y675D01*
X268Y675D01*
X268Y685D01*
X266Y685D01*
X266Y689D01*
X268Y689D01*
X268Y697D01*
X270Y697D01*
X270Y703D01*
X272Y703D01*
X272Y707D01*
X274Y707D01*
X274Y711D01*
X276Y711D01*
X276Y713D01*
X278Y713D01*
X278Y715D01*
X280Y715D01*
X280Y717D01*
X282Y717D01*
X282Y719D01*
X284Y719D01*
X284Y721D01*
X286Y721D01*
X286Y723D01*
X288Y723D01*
X288Y725D01*
X290Y725D01*
X290Y727D01*
X292Y727D01*
X292Y747D01*
X288Y747D01*
X288Y749D01*
X286Y749D01*
X286Y751D01*
X284Y751D01*
X284Y753D01*
X282Y753D01*
X282Y755D01*
X280Y755D01*
X280Y757D01*
X278Y757D01*
X278Y759D01*
X276Y759D01*
X276Y763D01*
X274Y763D01*
X274Y765D01*
X272Y765D01*
X272Y769D01*
X270Y769D01*
X270Y775D01*
X268Y775D01*
X268Y785D01*
X266Y785D01*
X266Y789D01*
X268Y789D01*
X268Y797D01*
X270Y797D01*
X270Y803D01*
X272Y803D01*
X272Y807D01*
X274Y807D01*
X274Y811D01*
X276Y811D01*
X276Y813D01*
X278Y813D01*
X278Y815D01*
X280Y815D01*
X280Y817D01*
X282Y817D01*
X282Y819D01*
X284Y819D01*
X284Y821D01*
X286Y821D01*
X286Y823D01*
X288Y823D01*
X288Y825D01*
X290Y825D01*
X290Y827D01*
X292Y827D01*
X292Y847D01*
X288Y847D01*
X288Y849D01*
X286Y849D01*
X286Y851D01*
X284Y851D01*
X284Y853D01*
X282Y853D01*
X282Y855D01*
X280Y855D01*
X280Y857D01*
X278Y857D01*
X278Y859D01*
X276Y859D01*
X276Y863D01*
X274Y863D01*
X274Y865D01*
X272Y865D01*
X272Y869D01*
X270Y869D01*
X270Y875D01*
X268Y875D01*
X268Y885D01*
X266Y885D01*
X266Y889D01*
X268Y889D01*
X268Y897D01*
X270Y897D01*
X270Y903D01*
X272Y903D01*
X272Y907D01*
X274Y907D01*
X274Y911D01*
X276Y911D01*
X276Y913D01*
X278Y913D01*
X278Y915D01*
X280Y915D01*
X280Y917D01*
X282Y917D01*
X282Y919D01*
X284Y919D01*
X284Y921D01*
X286Y921D01*
X286Y923D01*
X288Y923D01*
X288Y925D01*
X290Y925D01*
X290Y927D01*
X292Y927D01*
X292Y947D01*
X288Y947D01*
X288Y949D01*
X286Y949D01*
X286Y951D01*
X284Y951D01*
X284Y953D01*
X282Y953D01*
X282Y955D01*
X280Y955D01*
X280Y957D01*
X278Y957D01*
X278Y959D01*
X276Y959D01*
X276Y963D01*
X274Y963D01*
X274Y965D01*
X272Y965D01*
X272Y969D01*
X270Y969D01*
X270Y975D01*
X268Y975D01*
X268Y985D01*
X266Y985D01*
X266Y989D01*
X268Y989D01*
X268Y997D01*
X270Y997D01*
X270Y1003D01*
X272Y1003D01*
X272Y1007D01*
X274Y1007D01*
X274Y1011D01*
X276Y1011D01*
X276Y1013D01*
X278Y1013D01*
X278Y1015D01*
X280Y1015D01*
X280Y1017D01*
X282Y1017D01*
X282Y1019D01*
X284Y1019D01*
X284Y1021D01*
X286Y1021D01*
X286Y1023D01*
X288Y1023D01*
X288Y1025D01*
X290Y1025D01*
X290Y1027D01*
X292Y1027D01*
X292Y1047D01*
X288Y1047D01*
X288Y1049D01*
X286Y1049D01*
X286Y1051D01*
X284Y1051D01*
X284Y1053D01*
X282Y1053D01*
X282Y1055D01*
X280Y1055D01*
X280Y1057D01*
X278Y1057D01*
X278Y1059D01*
X276Y1059D01*
X276Y1063D01*
X274Y1063D01*
X274Y1065D01*
X272Y1065D01*
X272Y1069D01*
X270Y1069D01*
X270Y1075D01*
X268Y1075D01*
X268Y1085D01*
X266Y1085D01*
X266Y1089D01*
X268Y1089D01*
X268Y1097D01*
X270Y1097D01*
X270Y1103D01*
X272Y1103D01*
X272Y1107D01*
X274Y1107D01*
X274Y1111D01*
X276Y1111D01*
X276Y1113D01*
X278Y1113D01*
X278Y1115D01*
X280Y1115D01*
X280Y1117D01*
X282Y1117D01*
X282Y1119D01*
X284Y1119D01*
X284Y1121D01*
X286Y1121D01*
X286Y1123D01*
X288Y1123D01*
X288Y1125D01*
X290Y1125D01*
X290Y1127D01*
X292Y1127D01*
X292Y1147D01*
X288Y1147D01*
X288Y1149D01*
X286Y1149D01*
X286Y1151D01*
X284Y1151D01*
X284Y1153D01*
X282Y1153D01*
X282Y1155D01*
X280Y1155D01*
X280Y1157D01*
X278Y1157D01*
X278Y1159D01*
X276Y1159D01*
X276Y1163D01*
X274Y1163D01*
X274Y1165D01*
X272Y1165D01*
X272Y1169D01*
X270Y1169D01*
X270Y1175D01*
X268Y1175D01*
X268Y1185D01*
X266Y1185D01*
X266Y1189D01*
X268Y1189D01*
X268Y1197D01*
X270Y1197D01*
X270Y1203D01*
X272Y1203D01*
X272Y1207D01*
X274Y1207D01*
X274Y1211D01*
X276Y1211D01*
X276Y1213D01*
X278Y1213D01*
X278Y1215D01*
X280Y1215D01*
X280Y1217D01*
X282Y1217D01*
X282Y1219D01*
X284Y1219D01*
X284Y1221D01*
X286Y1221D01*
X286Y1223D01*
X288Y1223D01*
X288Y1225D01*
X290Y1225D01*
X290Y1227D01*
X292Y1227D01*
X292Y1247D01*
X288Y1247D01*
X288Y1249D01*
X286Y1249D01*
X286Y1251D01*
X284Y1251D01*
X284Y1253D01*
X282Y1253D01*
X282Y1255D01*
X280Y1255D01*
X280Y1257D01*
X278Y1257D01*
X278Y1259D01*
X276Y1259D01*
X276Y1263D01*
X274Y1263D01*
X274Y1265D01*
X272Y1265D01*
X272Y1269D01*
X270Y1269D01*
X270Y1275D01*
X268Y1275D01*
X268Y1285D01*
X266Y1285D01*
X266Y1289D01*
X268Y1289D01*
X268Y1297D01*
X270Y1297D01*
X270Y1303D01*
X272Y1303D01*
X272Y1307D01*
X274Y1307D01*
X274Y1311D01*
X276Y1311D01*
X276Y1313D01*
X278Y1313D01*
X278Y1315D01*
X280Y1315D01*
X280Y1317D01*
X282Y1317D01*
X282Y1319D01*
X284Y1319D01*
X284Y1321D01*
X286Y1321D01*
X286Y1323D01*
X288Y1323D01*
X288Y1325D01*
X290Y1325D01*
X290Y1327D01*
X292Y1327D01*
X292Y1347D01*
X288Y1347D01*
X288Y1349D01*
X286Y1349D01*
X286Y1351D01*
X284Y1351D01*
X284Y1353D01*
X282Y1353D01*
X282Y1355D01*
X280Y1355D01*
X280Y1357D01*
X278Y1357D01*
X278Y1359D01*
X276Y1359D01*
X276Y1363D01*
X274Y1363D01*
X274Y1365D01*
X272Y1365D01*
X272Y1369D01*
X270Y1369D01*
X270Y1375D01*
X268Y1375D01*
X268Y1385D01*
X266Y1385D01*
X266Y1389D01*
X268Y1389D01*
X268Y1397D01*
X270Y1397D01*
X270Y1403D01*
X272Y1403D01*
X272Y1407D01*
X274Y1407D01*
X274Y1411D01*
X276Y1411D01*
X276Y1413D01*
X278Y1413D01*
X278Y1415D01*
X280Y1415D01*
X280Y1417D01*
X282Y1417D01*
X282Y1419D01*
X284Y1419D01*
X284Y1439D01*
X266Y1439D01*
X266Y1515D01*
X40Y1515D01*
G37*
D02*
G36*
X358Y771D02*
X358Y767D01*
X356Y767D01*
X356Y765D01*
X354Y765D01*
X354Y761D01*
X352Y761D01*
X352Y759D01*
X350Y759D01*
X350Y757D01*
X348Y757D01*
X348Y753D01*
X344Y753D01*
X344Y751D01*
X342Y751D01*
X342Y749D01*
X340Y749D01*
X340Y747D01*
X338Y747D01*
X338Y725D01*
X340Y725D01*
X340Y723D01*
X344Y723D01*
X344Y721D01*
X346Y721D01*
X346Y719D01*
X348Y719D01*
X348Y717D01*
X350Y717D01*
X350Y715D01*
X352Y715D01*
X352Y711D01*
X354Y711D01*
X354Y709D01*
X356Y709D01*
X356Y705D01*
X358Y705D01*
X358Y701D01*
X360Y701D01*
X360Y695D01*
X362Y695D01*
X362Y679D01*
X360Y679D01*
X360Y673D01*
X358Y673D01*
X358Y667D01*
X356Y667D01*
X356Y665D01*
X354Y665D01*
X354Y661D01*
X352Y661D01*
X352Y659D01*
X350Y659D01*
X350Y657D01*
X348Y657D01*
X348Y653D01*
X344Y653D01*
X344Y651D01*
X342Y651D01*
X342Y649D01*
X340Y649D01*
X340Y647D01*
X336Y647D01*
X336Y627D01*
X338Y627D01*
X338Y625D01*
X340Y625D01*
X340Y623D01*
X344Y623D01*
X344Y621D01*
X346Y621D01*
X346Y619D01*
X348Y619D01*
X348Y617D01*
X350Y617D01*
X350Y615D01*
X352Y615D01*
X352Y611D01*
X354Y611D01*
X354Y609D01*
X356Y609D01*
X356Y605D01*
X358Y605D01*
X358Y601D01*
X360Y601D01*
X360Y595D01*
X362Y595D01*
X362Y579D01*
X360Y579D01*
X360Y573D01*
X358Y573D01*
X358Y567D01*
X356Y567D01*
X356Y565D01*
X354Y565D01*
X354Y561D01*
X352Y561D01*
X352Y559D01*
X350Y559D01*
X350Y557D01*
X348Y557D01*
X348Y553D01*
X344Y553D01*
X344Y551D01*
X342Y551D01*
X342Y549D01*
X340Y549D01*
X340Y547D01*
X336Y547D01*
X336Y527D01*
X338Y527D01*
X338Y525D01*
X340Y525D01*
X340Y523D01*
X344Y523D01*
X344Y521D01*
X346Y521D01*
X346Y519D01*
X348Y519D01*
X348Y517D01*
X350Y517D01*
X350Y515D01*
X352Y515D01*
X352Y511D01*
X354Y511D01*
X354Y509D01*
X356Y509D01*
X356Y505D01*
X358Y505D01*
X358Y501D01*
X360Y501D01*
X360Y495D01*
X362Y495D01*
X362Y479D01*
X360Y479D01*
X360Y473D01*
X358Y473D01*
X358Y467D01*
X356Y467D01*
X356Y465D01*
X354Y465D01*
X354Y461D01*
X352Y461D01*
X352Y459D01*
X350Y459D01*
X350Y457D01*
X348Y457D01*
X348Y453D01*
X344Y453D01*
X344Y451D01*
X342Y451D01*
X342Y449D01*
X340Y449D01*
X340Y447D01*
X336Y447D01*
X336Y427D01*
X338Y427D01*
X338Y425D01*
X340Y425D01*
X340Y423D01*
X344Y423D01*
X344Y421D01*
X346Y421D01*
X346Y419D01*
X348Y419D01*
X348Y417D01*
X350Y417D01*
X350Y415D01*
X352Y415D01*
X352Y411D01*
X354Y411D01*
X354Y409D01*
X356Y409D01*
X356Y405D01*
X358Y405D01*
X358Y401D01*
X360Y401D01*
X360Y395D01*
X362Y395D01*
X362Y379D01*
X360Y379D01*
X360Y373D01*
X358Y373D01*
X358Y367D01*
X356Y367D01*
X356Y365D01*
X354Y365D01*
X354Y361D01*
X352Y361D01*
X352Y359D01*
X350Y359D01*
X350Y357D01*
X348Y357D01*
X348Y353D01*
X344Y353D01*
X344Y351D01*
X342Y351D01*
X342Y349D01*
X340Y349D01*
X340Y347D01*
X336Y347D01*
X336Y345D01*
X334Y345D01*
X334Y343D01*
X330Y343D01*
X330Y341D01*
X324Y341D01*
X324Y339D01*
X398Y339D01*
X398Y771D01*
X358Y771D01*
G37*
D02*
G36*
X40Y339D02*
X40Y337D01*
X398Y337D01*
X398Y339D01*
X40Y339D01*
G37*
D02*
G36*
X40Y339D02*
X40Y337D01*
X398Y337D01*
X398Y339D01*
X40Y339D01*
G37*
D02*
G36*
X40Y337D02*
X40Y241D01*
X144Y241D01*
X144Y239D01*
X154Y239D01*
X154Y237D01*
X162Y237D01*
X162Y235D01*
X168Y235D01*
X168Y233D01*
X172Y233D01*
X172Y231D01*
X176Y231D01*
X176Y229D01*
X180Y229D01*
X180Y227D01*
X184Y227D01*
X184Y225D01*
X188Y225D01*
X188Y223D01*
X190Y223D01*
X190Y221D01*
X194Y221D01*
X194Y219D01*
X196Y219D01*
X196Y217D01*
X198Y217D01*
X198Y215D01*
X202Y215D01*
X202Y213D01*
X204Y213D01*
X204Y211D01*
X206Y211D01*
X206Y209D01*
X208Y209D01*
X208Y207D01*
X210Y207D01*
X210Y205D01*
X212Y205D01*
X212Y203D01*
X214Y203D01*
X214Y201D01*
X216Y201D01*
X216Y199D01*
X218Y199D01*
X218Y195D01*
X220Y195D01*
X220Y193D01*
X222Y193D01*
X222Y191D01*
X224Y191D01*
X224Y187D01*
X226Y187D01*
X226Y183D01*
X228Y183D01*
X228Y181D01*
X230Y181D01*
X230Y177D01*
X232Y177D01*
X232Y173D01*
X234Y173D01*
X234Y169D01*
X236Y169D01*
X236Y163D01*
X238Y163D01*
X238Y157D01*
X240Y157D01*
X240Y147D01*
X242Y147D01*
X242Y139D01*
X402Y139D01*
X402Y141D01*
X394Y141D01*
X394Y143D01*
X388Y143D01*
X388Y145D01*
X386Y145D01*
X386Y147D01*
X382Y147D01*
X382Y149D01*
X380Y149D01*
X380Y151D01*
X378Y151D01*
X378Y153D01*
X374Y153D01*
X374Y155D01*
X372Y155D01*
X372Y159D01*
X370Y159D01*
X370Y161D01*
X368Y161D01*
X368Y163D01*
X366Y163D01*
X366Y167D01*
X364Y167D01*
X364Y171D01*
X362Y171D01*
X362Y177D01*
X360Y177D01*
X360Y197D01*
X362Y197D01*
X362Y201D01*
X364Y201D01*
X364Y207D01*
X366Y207D01*
X366Y209D01*
X368Y209D01*
X368Y213D01*
X370Y213D01*
X370Y215D01*
X372Y215D01*
X372Y217D01*
X374Y217D01*
X374Y219D01*
X376Y219D01*
X376Y221D01*
X378Y221D01*
X378Y223D01*
X380Y223D01*
X380Y225D01*
X384Y225D01*
X384Y227D01*
X386Y227D01*
X386Y229D01*
X390Y229D01*
X390Y231D01*
X394Y231D01*
X394Y251D01*
X396Y251D01*
X396Y281D01*
X398Y281D01*
X398Y337D01*
X40Y337D01*
G37*
D02*
G36*
X40Y241D02*
X40Y209D01*
X60Y209D01*
X60Y211D01*
X62Y211D01*
X62Y213D01*
X64Y213D01*
X64Y215D01*
X66Y215D01*
X66Y217D01*
X68Y217D01*
X68Y219D01*
X72Y219D01*
X72Y221D01*
X74Y221D01*
X74Y223D01*
X78Y223D01*
X78Y225D01*
X80Y225D01*
X80Y227D01*
X84Y227D01*
X84Y229D01*
X88Y229D01*
X88Y231D01*
X92Y231D01*
X92Y233D01*
X98Y233D01*
X98Y235D01*
X104Y235D01*
X104Y237D01*
X110Y237D01*
X110Y239D01*
X122Y239D01*
X122Y241D01*
X40Y241D01*
G37*
D02*
G36*
X560Y177D02*
X560Y171D01*
X558Y171D01*
X558Y167D01*
X556Y167D01*
X556Y163D01*
X554Y163D01*
X554Y161D01*
X552Y161D01*
X552Y157D01*
X550Y157D01*
X550Y155D01*
X548Y155D01*
X548Y153D01*
X546Y153D01*
X546Y151D01*
X542Y151D01*
X542Y149D01*
X540Y149D01*
X540Y147D01*
X536Y147D01*
X536Y145D01*
X534Y145D01*
X534Y143D01*
X528Y143D01*
X528Y141D01*
X520Y141D01*
X520Y139D01*
X620Y139D01*
X620Y141D01*
X612Y141D01*
X612Y143D01*
X608Y143D01*
X608Y145D01*
X604Y145D01*
X604Y147D01*
X600Y147D01*
X600Y149D01*
X598Y149D01*
X598Y151D01*
X596Y151D01*
X596Y153D01*
X592Y153D01*
X592Y157D01*
X590Y157D01*
X590Y159D01*
X588Y159D01*
X588Y161D01*
X586Y161D01*
X586Y163D01*
X584Y163D01*
X584Y167D01*
X582Y167D01*
X582Y171D01*
X580Y171D01*
X580Y177D01*
X560Y177D01*
G37*
D02*
G36*
X452Y175D02*
X452Y173D01*
X450Y173D01*
X450Y169D01*
X448Y169D01*
X448Y165D01*
X446Y165D01*
X446Y161D01*
X444Y161D01*
X444Y159D01*
X442Y159D01*
X442Y157D01*
X440Y157D01*
X440Y155D01*
X438Y155D01*
X438Y153D01*
X436Y153D01*
X436Y151D01*
X434Y151D01*
X434Y149D01*
X432Y149D01*
X432Y147D01*
X428Y147D01*
X428Y145D01*
X424Y145D01*
X424Y143D01*
X420Y143D01*
X420Y141D01*
X412Y141D01*
X412Y139D01*
X510Y139D01*
X510Y141D01*
X504Y141D01*
X504Y143D01*
X498Y143D01*
X498Y145D01*
X494Y145D01*
X494Y147D01*
X492Y147D01*
X492Y149D01*
X488Y149D01*
X488Y151D01*
X486Y151D01*
X486Y153D01*
X484Y153D01*
X484Y155D01*
X482Y155D01*
X482Y157D01*
X480Y157D01*
X480Y159D01*
X478Y159D01*
X478Y163D01*
X476Y163D01*
X476Y165D01*
X474Y165D01*
X474Y169D01*
X472Y169D01*
X472Y175D01*
X452Y175D01*
G37*
D02*
G36*
X670Y175D02*
X670Y173D01*
X668Y173D01*
X668Y169D01*
X666Y169D01*
X666Y165D01*
X664Y165D01*
X664Y161D01*
X662Y161D01*
X662Y159D01*
X660Y159D01*
X660Y157D01*
X658Y157D01*
X658Y155D01*
X656Y155D01*
X656Y153D01*
X654Y153D01*
X654Y151D01*
X652Y151D01*
X652Y149D01*
X650Y149D01*
X650Y147D01*
X646Y147D01*
X646Y145D01*
X642Y145D01*
X642Y143D01*
X638Y143D01*
X638Y141D01*
X630Y141D01*
X630Y139D01*
X728Y139D01*
X728Y141D01*
X722Y141D01*
X722Y143D01*
X716Y143D01*
X716Y145D01*
X712Y145D01*
X712Y147D01*
X710Y147D01*
X710Y149D01*
X706Y149D01*
X706Y151D01*
X704Y151D01*
X704Y153D01*
X702Y153D01*
X702Y155D01*
X700Y155D01*
X700Y157D01*
X698Y157D01*
X698Y159D01*
X696Y159D01*
X696Y163D01*
X694Y163D01*
X694Y165D01*
X692Y165D01*
X692Y169D01*
X690Y169D01*
X690Y175D01*
X670Y175D01*
G37*
D02*
G36*
X776Y171D02*
X776Y167D01*
X774Y167D01*
X774Y163D01*
X772Y163D01*
X772Y161D01*
X770Y161D01*
X770Y157D01*
X768Y157D01*
X768Y155D01*
X766Y155D01*
X766Y153D01*
X764Y153D01*
X764Y151D01*
X760Y151D01*
X760Y149D01*
X758Y149D01*
X758Y147D01*
X756Y147D01*
X756Y145D01*
X752Y145D01*
X752Y143D01*
X746Y143D01*
X746Y141D01*
X738Y141D01*
X738Y139D01*
X796Y139D01*
X796Y171D01*
X776Y171D01*
G37*
D02*
G36*
X242Y139D02*
X242Y137D01*
X796Y137D01*
X796Y139D01*
X242Y139D01*
G37*
D02*
G36*
X242Y139D02*
X242Y137D01*
X796Y137D01*
X796Y139D01*
X242Y139D01*
G37*
D02*
G36*
X242Y139D02*
X242Y137D01*
X796Y137D01*
X796Y139D01*
X242Y139D01*
G37*
D02*
G36*
X242Y139D02*
X242Y137D01*
X796Y137D01*
X796Y139D01*
X242Y139D01*
G37*
D02*
G36*
X242Y139D02*
X242Y137D01*
X796Y137D01*
X796Y139D01*
X242Y139D01*
G37*
D02*
G36*
X242Y137D02*
X242Y121D01*
X690Y121D01*
X690Y119D01*
X696Y119D01*
X696Y117D01*
X700Y117D01*
X700Y115D01*
X702Y115D01*
X702Y113D01*
X706Y113D01*
X706Y111D01*
X708Y111D01*
X708Y109D01*
X710Y109D01*
X710Y107D01*
X712Y107D01*
X712Y105D01*
X714Y105D01*
X714Y103D01*
X716Y103D01*
X716Y101D01*
X718Y101D01*
X718Y97D01*
X720Y97D01*
X720Y93D01*
X722Y93D01*
X722Y89D01*
X724Y89D01*
X724Y85D01*
X744Y85D01*
X744Y91D01*
X746Y91D01*
X746Y95D01*
X748Y95D01*
X748Y99D01*
X750Y99D01*
X750Y101D01*
X752Y101D01*
X752Y103D01*
X754Y103D01*
X754Y107D01*
X756Y107D01*
X756Y109D01*
X760Y109D01*
X760Y111D01*
X762Y111D01*
X762Y113D01*
X764Y113D01*
X764Y115D01*
X768Y115D01*
X768Y117D01*
X772Y117D01*
X772Y119D01*
X778Y119D01*
X778Y121D01*
X796Y121D01*
X796Y137D01*
X242Y137D01*
G37*
D02*
G36*
X242Y121D02*
X242Y115D01*
X240Y115D01*
X240Y105D01*
X238Y105D01*
X238Y99D01*
X236Y99D01*
X236Y93D01*
X234Y93D01*
X234Y89D01*
X232Y89D01*
X232Y85D01*
X230Y85D01*
X230Y81D01*
X228Y81D01*
X228Y77D01*
X226Y77D01*
X226Y75D01*
X224Y75D01*
X224Y71D01*
X222Y71D01*
X222Y69D01*
X220Y69D01*
X220Y65D01*
X218Y65D01*
X218Y63D01*
X216Y63D01*
X216Y61D01*
X214Y61D01*
X214Y41D01*
X418Y41D01*
X418Y61D01*
X416Y61D01*
X416Y69D01*
X414Y69D01*
X414Y81D01*
X416Y81D01*
X416Y89D01*
X418Y89D01*
X418Y93D01*
X420Y93D01*
X420Y97D01*
X422Y97D01*
X422Y99D01*
X424Y99D01*
X424Y103D01*
X426Y103D01*
X426Y105D01*
X428Y105D01*
X428Y107D01*
X430Y107D01*
X430Y109D01*
X432Y109D01*
X432Y111D01*
X434Y111D01*
X434Y113D01*
X438Y113D01*
X438Y115D01*
X442Y115D01*
X442Y117D01*
X444Y117D01*
X444Y119D01*
X450Y119D01*
X450Y121D01*
X242Y121D01*
G37*
D02*
G36*
X472Y121D02*
X472Y119D01*
X478Y119D01*
X478Y117D01*
X482Y117D01*
X482Y115D01*
X486Y115D01*
X486Y113D01*
X488Y113D01*
X488Y111D01*
X490Y111D01*
X490Y109D01*
X492Y109D01*
X492Y107D01*
X494Y107D01*
X494Y105D01*
X496Y105D01*
X496Y103D01*
X498Y103D01*
X498Y101D01*
X500Y101D01*
X500Y97D01*
X502Y97D01*
X502Y95D01*
X504Y95D01*
X504Y91D01*
X506Y91D01*
X506Y85D01*
X526Y85D01*
X526Y91D01*
X528Y91D01*
X528Y95D01*
X530Y95D01*
X530Y99D01*
X532Y99D01*
X532Y101D01*
X534Y101D01*
X534Y103D01*
X536Y103D01*
X536Y105D01*
X538Y105D01*
X538Y107D01*
X540Y107D01*
X540Y109D01*
X542Y109D01*
X542Y111D01*
X544Y111D01*
X544Y113D01*
X546Y113D01*
X546Y115D01*
X550Y115D01*
X550Y117D01*
X554Y117D01*
X554Y119D01*
X560Y119D01*
X560Y121D01*
X472Y121D01*
G37*
D02*
G36*
X582Y121D02*
X582Y119D01*
X586Y119D01*
X586Y117D01*
X590Y117D01*
X590Y115D01*
X594Y115D01*
X594Y113D01*
X596Y113D01*
X596Y111D01*
X600Y111D01*
X600Y109D01*
X602Y109D01*
X602Y107D01*
X604Y107D01*
X604Y105D01*
X606Y105D01*
X606Y103D01*
X608Y103D01*
X608Y99D01*
X610Y99D01*
X610Y97D01*
X612Y97D01*
X612Y93D01*
X614Y93D01*
X614Y87D01*
X634Y87D01*
X634Y89D01*
X636Y89D01*
X636Y93D01*
X638Y93D01*
X638Y97D01*
X640Y97D01*
X640Y101D01*
X642Y101D01*
X642Y103D01*
X644Y103D01*
X644Y105D01*
X646Y105D01*
X646Y107D01*
X648Y107D01*
X648Y109D01*
X650Y109D01*
X650Y111D01*
X652Y111D01*
X652Y113D01*
X656Y113D01*
X656Y115D01*
X658Y115D01*
X658Y117D01*
X662Y117D01*
X662Y119D01*
X668Y119D01*
X668Y121D01*
X582Y121D01*
G37*
D02*
G36*
X362Y1465D02*
X362Y1439D01*
X346Y1439D01*
X346Y1419D01*
X348Y1419D01*
X348Y1417D01*
X350Y1417D01*
X350Y1415D01*
X352Y1415D01*
X352Y1411D01*
X354Y1411D01*
X354Y1409D01*
X356Y1409D01*
X356Y1405D01*
X358Y1405D01*
X358Y1401D01*
X360Y1401D01*
X360Y1395D01*
X362Y1395D01*
X362Y1379D01*
X360Y1379D01*
X360Y1373D01*
X358Y1373D01*
X358Y1367D01*
X356Y1367D01*
X356Y1365D01*
X354Y1365D01*
X354Y1361D01*
X352Y1361D01*
X352Y1359D01*
X350Y1359D01*
X350Y1357D01*
X348Y1357D01*
X348Y1353D01*
X344Y1353D01*
X344Y1351D01*
X342Y1351D01*
X342Y1349D01*
X340Y1349D01*
X340Y1347D01*
X338Y1347D01*
X338Y1325D01*
X340Y1325D01*
X340Y1323D01*
X344Y1323D01*
X344Y1321D01*
X346Y1321D01*
X346Y1319D01*
X348Y1319D01*
X348Y1317D01*
X350Y1317D01*
X350Y1315D01*
X352Y1315D01*
X352Y1311D01*
X354Y1311D01*
X354Y1309D01*
X356Y1309D01*
X356Y1305D01*
X358Y1305D01*
X358Y1301D01*
X360Y1301D01*
X360Y1295D01*
X362Y1295D01*
X362Y1279D01*
X360Y1279D01*
X360Y1273D01*
X358Y1273D01*
X358Y1267D01*
X356Y1267D01*
X356Y1265D01*
X354Y1265D01*
X354Y1261D01*
X352Y1261D01*
X352Y1259D01*
X350Y1259D01*
X350Y1257D01*
X348Y1257D01*
X348Y1253D01*
X344Y1253D01*
X344Y1251D01*
X342Y1251D01*
X342Y1249D01*
X340Y1249D01*
X340Y1247D01*
X338Y1247D01*
X338Y1225D01*
X340Y1225D01*
X340Y1223D01*
X344Y1223D01*
X344Y1221D01*
X346Y1221D01*
X346Y1219D01*
X348Y1219D01*
X348Y1217D01*
X350Y1217D01*
X350Y1215D01*
X352Y1215D01*
X352Y1211D01*
X354Y1211D01*
X354Y1209D01*
X356Y1209D01*
X356Y1205D01*
X358Y1205D01*
X358Y1201D01*
X360Y1201D01*
X360Y1195D01*
X362Y1195D01*
X362Y1179D01*
X360Y1179D01*
X360Y1173D01*
X358Y1173D01*
X358Y1167D01*
X356Y1167D01*
X356Y1165D01*
X354Y1165D01*
X354Y1161D01*
X352Y1161D01*
X352Y1159D01*
X350Y1159D01*
X350Y1157D01*
X348Y1157D01*
X348Y1153D01*
X344Y1153D01*
X344Y1151D01*
X342Y1151D01*
X342Y1149D01*
X340Y1149D01*
X340Y1147D01*
X338Y1147D01*
X338Y1125D01*
X340Y1125D01*
X340Y1123D01*
X344Y1123D01*
X344Y1121D01*
X346Y1121D01*
X346Y1119D01*
X348Y1119D01*
X348Y1117D01*
X350Y1117D01*
X350Y1115D01*
X352Y1115D01*
X352Y1111D01*
X354Y1111D01*
X354Y1109D01*
X356Y1109D01*
X356Y1105D01*
X358Y1105D01*
X358Y1101D01*
X360Y1101D01*
X360Y1095D01*
X362Y1095D01*
X362Y1079D01*
X360Y1079D01*
X360Y1073D01*
X358Y1073D01*
X358Y1067D01*
X356Y1067D01*
X356Y1065D01*
X354Y1065D01*
X354Y1061D01*
X352Y1061D01*
X352Y1059D01*
X350Y1059D01*
X350Y1057D01*
X348Y1057D01*
X348Y1053D01*
X344Y1053D01*
X344Y1051D01*
X342Y1051D01*
X342Y1049D01*
X340Y1049D01*
X340Y1047D01*
X338Y1047D01*
X338Y1025D01*
X340Y1025D01*
X340Y1023D01*
X344Y1023D01*
X344Y1021D01*
X346Y1021D01*
X346Y1019D01*
X348Y1019D01*
X348Y1017D01*
X350Y1017D01*
X350Y1015D01*
X352Y1015D01*
X352Y1011D01*
X354Y1011D01*
X354Y1009D01*
X356Y1009D01*
X356Y1005D01*
X358Y1005D01*
X358Y1001D01*
X360Y1001D01*
X360Y995D01*
X362Y995D01*
X362Y979D01*
X360Y979D01*
X360Y973D01*
X358Y973D01*
X358Y967D01*
X356Y967D01*
X356Y965D01*
X354Y965D01*
X354Y961D01*
X352Y961D01*
X352Y959D01*
X350Y959D01*
X350Y957D01*
X348Y957D01*
X348Y953D01*
X344Y953D01*
X344Y951D01*
X342Y951D01*
X342Y949D01*
X340Y949D01*
X340Y947D01*
X338Y947D01*
X338Y925D01*
X340Y925D01*
X340Y923D01*
X344Y923D01*
X344Y921D01*
X346Y921D01*
X346Y919D01*
X348Y919D01*
X348Y917D01*
X350Y917D01*
X350Y915D01*
X352Y915D01*
X352Y911D01*
X354Y911D01*
X354Y909D01*
X356Y909D01*
X356Y905D01*
X358Y905D01*
X358Y903D01*
X522Y903D01*
X522Y901D01*
X526Y901D01*
X526Y899D01*
X528Y899D01*
X528Y897D01*
X530Y897D01*
X530Y891D01*
X532Y891D01*
X532Y715D01*
X530Y715D01*
X530Y231D01*
X532Y231D01*
X532Y229D01*
X536Y229D01*
X536Y227D01*
X540Y227D01*
X540Y225D01*
X542Y225D01*
X542Y223D01*
X544Y223D01*
X544Y221D01*
X546Y221D01*
X546Y219D01*
X548Y219D01*
X548Y217D01*
X550Y217D01*
X550Y215D01*
X552Y215D01*
X552Y213D01*
X554Y213D01*
X554Y211D01*
X556Y211D01*
X556Y207D01*
X558Y207D01*
X558Y203D01*
X560Y203D01*
X560Y197D01*
X580Y197D01*
X580Y201D01*
X582Y201D01*
X582Y205D01*
X584Y205D01*
X584Y209D01*
X586Y209D01*
X586Y213D01*
X588Y213D01*
X588Y215D01*
X590Y215D01*
X590Y217D01*
X592Y217D01*
X592Y219D01*
X594Y219D01*
X594Y221D01*
X596Y221D01*
X596Y255D01*
X594Y255D01*
X594Y273D01*
X592Y273D01*
X592Y291D01*
X594Y291D01*
X594Y297D01*
X596Y297D01*
X596Y299D01*
X598Y299D01*
X598Y301D01*
X600Y301D01*
X600Y303D01*
X604Y303D01*
X604Y305D01*
X608Y305D01*
X608Y307D01*
X820Y307D01*
X820Y1465D01*
X362Y1465D01*
G37*
D02*
G36*
X358Y871D02*
X358Y867D01*
X356Y867D01*
X356Y865D01*
X354Y865D01*
X354Y861D01*
X352Y861D01*
X352Y859D01*
X350Y859D01*
X350Y857D01*
X348Y857D01*
X348Y853D01*
X344Y853D01*
X344Y851D01*
X342Y851D01*
X342Y849D01*
X340Y849D01*
X340Y847D01*
X338Y847D01*
X338Y825D01*
X340Y825D01*
X340Y823D01*
X344Y823D01*
X344Y821D01*
X346Y821D01*
X346Y819D01*
X348Y819D01*
X348Y817D01*
X350Y817D01*
X350Y815D01*
X352Y815D01*
X352Y811D01*
X354Y811D01*
X354Y809D01*
X356Y809D01*
X356Y805D01*
X358Y805D01*
X358Y803D01*
X420Y803D01*
X420Y801D01*
X424Y801D01*
X424Y799D01*
X426Y799D01*
X426Y795D01*
X428Y795D01*
X428Y791D01*
X430Y791D01*
X430Y279D01*
X428Y279D01*
X428Y249D01*
X426Y249D01*
X426Y227D01*
X430Y227D01*
X430Y225D01*
X432Y225D01*
X432Y223D01*
X436Y223D01*
X436Y221D01*
X438Y221D01*
X438Y219D01*
X440Y219D01*
X440Y217D01*
X442Y217D01*
X442Y215D01*
X444Y215D01*
X444Y211D01*
X446Y211D01*
X446Y209D01*
X448Y209D01*
X448Y205D01*
X450Y205D01*
X450Y199D01*
X472Y199D01*
X472Y205D01*
X474Y205D01*
X474Y207D01*
X476Y207D01*
X476Y211D01*
X478Y211D01*
X478Y213D01*
X480Y213D01*
X480Y217D01*
X482Y217D01*
X482Y219D01*
X484Y219D01*
X484Y221D01*
X488Y221D01*
X488Y223D01*
X490Y223D01*
X490Y225D01*
X492Y225D01*
X492Y227D01*
X496Y227D01*
X496Y229D01*
X498Y229D01*
X498Y719D01*
X500Y719D01*
X500Y871D01*
X358Y871D01*
G37*
D02*
G36*
X960Y1515D02*
X960Y1495D01*
X962Y1495D01*
X962Y1479D01*
X960Y1479D01*
X960Y1473D01*
X958Y1473D01*
X958Y1467D01*
X956Y1467D01*
X956Y1465D01*
X954Y1465D01*
X954Y1461D01*
X952Y1461D01*
X952Y1459D01*
X950Y1459D01*
X950Y1457D01*
X948Y1457D01*
X948Y1453D01*
X944Y1453D01*
X944Y1451D01*
X942Y1451D01*
X942Y1449D01*
X940Y1449D01*
X940Y1447D01*
X938Y1447D01*
X938Y1425D01*
X940Y1425D01*
X940Y1423D01*
X944Y1423D01*
X944Y1421D01*
X946Y1421D01*
X946Y1419D01*
X948Y1419D01*
X948Y1417D01*
X950Y1417D01*
X950Y1415D01*
X952Y1415D01*
X952Y1411D01*
X954Y1411D01*
X954Y1409D01*
X956Y1409D01*
X956Y1405D01*
X958Y1405D01*
X958Y1401D01*
X960Y1401D01*
X960Y1395D01*
X962Y1395D01*
X962Y1379D01*
X960Y1379D01*
X960Y1373D01*
X958Y1373D01*
X958Y1367D01*
X956Y1367D01*
X956Y1365D01*
X954Y1365D01*
X954Y1361D01*
X952Y1361D01*
X952Y1359D01*
X950Y1359D01*
X950Y1357D01*
X948Y1357D01*
X948Y1353D01*
X944Y1353D01*
X944Y1351D01*
X942Y1351D01*
X942Y1349D01*
X940Y1349D01*
X940Y1347D01*
X938Y1347D01*
X938Y1325D01*
X940Y1325D01*
X940Y1323D01*
X944Y1323D01*
X944Y1321D01*
X946Y1321D01*
X946Y1319D01*
X948Y1319D01*
X948Y1317D01*
X950Y1317D01*
X950Y1315D01*
X952Y1315D01*
X952Y1311D01*
X954Y1311D01*
X954Y1309D01*
X956Y1309D01*
X956Y1305D01*
X958Y1305D01*
X958Y1301D01*
X960Y1301D01*
X960Y1295D01*
X962Y1295D01*
X962Y1279D01*
X960Y1279D01*
X960Y1273D01*
X958Y1273D01*
X958Y1267D01*
X956Y1267D01*
X956Y1265D01*
X954Y1265D01*
X954Y1261D01*
X952Y1261D01*
X952Y1259D01*
X950Y1259D01*
X950Y1257D01*
X948Y1257D01*
X948Y1253D01*
X944Y1253D01*
X944Y1251D01*
X942Y1251D01*
X942Y1249D01*
X940Y1249D01*
X940Y1247D01*
X938Y1247D01*
X938Y1225D01*
X940Y1225D01*
X940Y1223D01*
X944Y1223D01*
X944Y1221D01*
X946Y1221D01*
X946Y1219D01*
X948Y1219D01*
X948Y1217D01*
X950Y1217D01*
X950Y1215D01*
X952Y1215D01*
X952Y1211D01*
X954Y1211D01*
X954Y1209D01*
X956Y1209D01*
X956Y1205D01*
X958Y1205D01*
X958Y1201D01*
X960Y1201D01*
X960Y1195D01*
X962Y1195D01*
X962Y1179D01*
X960Y1179D01*
X960Y1173D01*
X958Y1173D01*
X958Y1167D01*
X956Y1167D01*
X956Y1165D01*
X954Y1165D01*
X954Y1161D01*
X952Y1161D01*
X952Y1159D01*
X950Y1159D01*
X950Y1157D01*
X948Y1157D01*
X948Y1153D01*
X944Y1153D01*
X944Y1151D01*
X942Y1151D01*
X942Y1149D01*
X940Y1149D01*
X940Y1147D01*
X938Y1147D01*
X938Y1125D01*
X940Y1125D01*
X940Y1123D01*
X944Y1123D01*
X944Y1121D01*
X946Y1121D01*
X946Y1119D01*
X948Y1119D01*
X948Y1117D01*
X950Y1117D01*
X950Y1115D01*
X952Y1115D01*
X952Y1111D01*
X954Y1111D01*
X954Y1109D01*
X956Y1109D01*
X956Y1105D01*
X958Y1105D01*
X958Y1101D01*
X960Y1101D01*
X960Y1095D01*
X962Y1095D01*
X962Y1079D01*
X960Y1079D01*
X960Y1073D01*
X958Y1073D01*
X958Y1067D01*
X956Y1067D01*
X956Y1065D01*
X954Y1065D01*
X954Y1061D01*
X952Y1061D01*
X952Y1059D01*
X950Y1059D01*
X950Y1057D01*
X948Y1057D01*
X948Y1053D01*
X944Y1053D01*
X944Y1051D01*
X942Y1051D01*
X942Y1049D01*
X940Y1049D01*
X940Y1047D01*
X938Y1047D01*
X938Y1025D01*
X940Y1025D01*
X940Y1023D01*
X944Y1023D01*
X944Y1021D01*
X946Y1021D01*
X946Y1019D01*
X948Y1019D01*
X948Y1017D01*
X950Y1017D01*
X950Y1015D01*
X952Y1015D01*
X952Y1011D01*
X954Y1011D01*
X954Y1009D01*
X956Y1009D01*
X956Y1005D01*
X958Y1005D01*
X958Y1001D01*
X960Y1001D01*
X960Y995D01*
X962Y995D01*
X962Y979D01*
X960Y979D01*
X960Y973D01*
X958Y973D01*
X958Y967D01*
X956Y967D01*
X956Y965D01*
X954Y965D01*
X954Y961D01*
X952Y961D01*
X952Y959D01*
X950Y959D01*
X950Y957D01*
X948Y957D01*
X948Y953D01*
X944Y953D01*
X944Y951D01*
X942Y951D01*
X942Y949D01*
X940Y949D01*
X940Y947D01*
X938Y947D01*
X938Y925D01*
X940Y925D01*
X940Y923D01*
X944Y923D01*
X944Y921D01*
X946Y921D01*
X946Y919D01*
X948Y919D01*
X948Y917D01*
X950Y917D01*
X950Y915D01*
X952Y915D01*
X952Y911D01*
X954Y911D01*
X954Y909D01*
X956Y909D01*
X956Y905D01*
X958Y905D01*
X958Y901D01*
X960Y901D01*
X960Y895D01*
X962Y895D01*
X962Y879D01*
X960Y879D01*
X960Y873D01*
X958Y873D01*
X958Y867D01*
X956Y867D01*
X956Y865D01*
X954Y865D01*
X954Y861D01*
X952Y861D01*
X952Y859D01*
X950Y859D01*
X950Y857D01*
X948Y857D01*
X948Y853D01*
X944Y853D01*
X944Y851D01*
X942Y851D01*
X942Y849D01*
X940Y849D01*
X940Y847D01*
X938Y847D01*
X938Y825D01*
X940Y825D01*
X940Y823D01*
X944Y823D01*
X944Y821D01*
X946Y821D01*
X946Y819D01*
X948Y819D01*
X948Y817D01*
X950Y817D01*
X950Y815D01*
X952Y815D01*
X952Y811D01*
X954Y811D01*
X954Y809D01*
X956Y809D01*
X956Y805D01*
X958Y805D01*
X958Y801D01*
X960Y801D01*
X960Y795D01*
X962Y795D01*
X962Y779D01*
X960Y779D01*
X960Y773D01*
X958Y773D01*
X958Y767D01*
X956Y767D01*
X956Y765D01*
X954Y765D01*
X954Y761D01*
X952Y761D01*
X952Y759D01*
X950Y759D01*
X950Y757D01*
X948Y757D01*
X948Y753D01*
X944Y753D01*
X944Y751D01*
X942Y751D01*
X942Y749D01*
X940Y749D01*
X940Y747D01*
X938Y747D01*
X938Y725D01*
X940Y725D01*
X940Y723D01*
X944Y723D01*
X944Y721D01*
X946Y721D01*
X946Y719D01*
X948Y719D01*
X948Y717D01*
X950Y717D01*
X950Y715D01*
X952Y715D01*
X952Y711D01*
X954Y711D01*
X954Y709D01*
X956Y709D01*
X956Y705D01*
X958Y705D01*
X958Y701D01*
X960Y701D01*
X960Y695D01*
X962Y695D01*
X962Y679D01*
X960Y679D01*
X960Y673D01*
X958Y673D01*
X958Y667D01*
X956Y667D01*
X956Y665D01*
X954Y665D01*
X954Y661D01*
X952Y661D01*
X952Y659D01*
X950Y659D01*
X950Y657D01*
X948Y657D01*
X948Y653D01*
X944Y653D01*
X944Y651D01*
X942Y651D01*
X942Y649D01*
X940Y649D01*
X940Y647D01*
X936Y647D01*
X936Y627D01*
X938Y627D01*
X938Y625D01*
X940Y625D01*
X940Y623D01*
X944Y623D01*
X944Y621D01*
X946Y621D01*
X946Y619D01*
X948Y619D01*
X948Y617D01*
X950Y617D01*
X950Y615D01*
X952Y615D01*
X952Y611D01*
X954Y611D01*
X954Y609D01*
X956Y609D01*
X956Y605D01*
X958Y605D01*
X958Y601D01*
X960Y601D01*
X960Y595D01*
X962Y595D01*
X962Y579D01*
X960Y579D01*
X960Y573D01*
X958Y573D01*
X958Y567D01*
X956Y567D01*
X956Y565D01*
X954Y565D01*
X954Y561D01*
X952Y561D01*
X952Y559D01*
X950Y559D01*
X950Y557D01*
X948Y557D01*
X948Y553D01*
X944Y553D01*
X944Y551D01*
X942Y551D01*
X942Y549D01*
X940Y549D01*
X940Y547D01*
X936Y547D01*
X936Y527D01*
X938Y527D01*
X938Y525D01*
X940Y525D01*
X940Y523D01*
X944Y523D01*
X944Y521D01*
X946Y521D01*
X946Y519D01*
X948Y519D01*
X948Y517D01*
X950Y517D01*
X950Y515D01*
X952Y515D01*
X952Y511D01*
X954Y511D01*
X954Y509D01*
X956Y509D01*
X956Y505D01*
X958Y505D01*
X958Y501D01*
X960Y501D01*
X960Y495D01*
X962Y495D01*
X962Y479D01*
X960Y479D01*
X960Y473D01*
X958Y473D01*
X958Y467D01*
X956Y467D01*
X956Y465D01*
X954Y465D01*
X954Y461D01*
X952Y461D01*
X952Y459D01*
X950Y459D01*
X950Y457D01*
X948Y457D01*
X948Y453D01*
X944Y453D01*
X944Y451D01*
X942Y451D01*
X942Y449D01*
X940Y449D01*
X940Y447D01*
X936Y447D01*
X936Y427D01*
X938Y427D01*
X938Y425D01*
X940Y425D01*
X940Y423D01*
X944Y423D01*
X944Y421D01*
X946Y421D01*
X946Y419D01*
X948Y419D01*
X948Y417D01*
X950Y417D01*
X950Y415D01*
X952Y415D01*
X952Y411D01*
X954Y411D01*
X954Y409D01*
X956Y409D01*
X956Y405D01*
X958Y405D01*
X958Y401D01*
X960Y401D01*
X960Y395D01*
X962Y395D01*
X962Y379D01*
X960Y379D01*
X960Y373D01*
X958Y373D01*
X958Y367D01*
X956Y367D01*
X956Y365D01*
X954Y365D01*
X954Y361D01*
X952Y361D01*
X952Y359D01*
X950Y359D01*
X950Y357D01*
X948Y357D01*
X948Y353D01*
X944Y353D01*
X944Y351D01*
X942Y351D01*
X942Y349D01*
X940Y349D01*
X940Y347D01*
X936Y347D01*
X936Y345D01*
X934Y345D01*
X934Y343D01*
X930Y343D01*
X930Y341D01*
X924Y341D01*
X924Y339D01*
X1208Y339D01*
X1208Y1515D01*
X960Y1515D01*
G37*
D02*
G36*
X864Y353D02*
X864Y339D01*
X906Y339D01*
X906Y341D01*
X900Y341D01*
X900Y343D01*
X896Y343D01*
X896Y345D01*
X892Y345D01*
X892Y347D01*
X888Y347D01*
X888Y349D01*
X886Y349D01*
X886Y351D01*
X884Y351D01*
X884Y353D01*
X864Y353D01*
G37*
D02*
G36*
X864Y339D02*
X864Y337D01*
X1208Y337D01*
X1208Y339D01*
X864Y339D01*
G37*
D02*
G36*
X864Y339D02*
X864Y337D01*
X1208Y337D01*
X1208Y339D01*
X864Y339D01*
G37*
D02*
G36*
X864Y337D02*
X864Y241D01*
X1128Y241D01*
X1128Y239D01*
X1140Y239D01*
X1140Y237D01*
X1146Y237D01*
X1146Y235D01*
X1152Y235D01*
X1152Y233D01*
X1156Y233D01*
X1156Y231D01*
X1162Y231D01*
X1162Y229D01*
X1166Y229D01*
X1166Y227D01*
X1168Y227D01*
X1168Y225D01*
X1172Y225D01*
X1172Y223D01*
X1176Y223D01*
X1176Y221D01*
X1178Y221D01*
X1178Y219D01*
X1180Y219D01*
X1180Y217D01*
X1184Y217D01*
X1184Y215D01*
X1186Y215D01*
X1186Y213D01*
X1188Y213D01*
X1188Y211D01*
X1208Y211D01*
X1208Y337D01*
X864Y337D01*
G37*
D02*
G36*
X864Y241D02*
X864Y233D01*
X890Y233D01*
X890Y139D01*
X800Y139D01*
X800Y119D01*
X804Y119D01*
X804Y117D01*
X808Y117D01*
X808Y115D01*
X812Y115D01*
X812Y113D01*
X814Y113D01*
X814Y111D01*
X818Y111D01*
X818Y109D01*
X820Y109D01*
X820Y107D01*
X822Y107D01*
X822Y105D01*
X824Y105D01*
X824Y101D01*
X826Y101D01*
X826Y99D01*
X828Y99D01*
X828Y95D01*
X830Y95D01*
X830Y93D01*
X832Y93D01*
X832Y87D01*
X834Y87D01*
X834Y77D01*
X836Y77D01*
X836Y73D01*
X834Y73D01*
X834Y63D01*
X832Y63D01*
X832Y41D01*
X1036Y41D01*
X1036Y61D01*
X1034Y61D01*
X1034Y63D01*
X1032Y63D01*
X1032Y65D01*
X1030Y65D01*
X1030Y67D01*
X1028Y67D01*
X1028Y71D01*
X1026Y71D01*
X1026Y73D01*
X1024Y73D01*
X1024Y77D01*
X1022Y77D01*
X1022Y79D01*
X1020Y79D01*
X1020Y83D01*
X1018Y83D01*
X1018Y87D01*
X1016Y87D01*
X1016Y93D01*
X1014Y93D01*
X1014Y97D01*
X1012Y97D01*
X1012Y103D01*
X1010Y103D01*
X1010Y111D01*
X1008Y111D01*
X1008Y129D01*
X1006Y129D01*
X1006Y133D01*
X1008Y133D01*
X1008Y151D01*
X1010Y151D01*
X1010Y157D01*
X1012Y157D01*
X1012Y165D01*
X1014Y165D01*
X1014Y169D01*
X1016Y169D01*
X1016Y173D01*
X1018Y173D01*
X1018Y177D01*
X1020Y177D01*
X1020Y181D01*
X1022Y181D01*
X1022Y185D01*
X1024Y185D01*
X1024Y187D01*
X1026Y187D01*
X1026Y191D01*
X1028Y191D01*
X1028Y193D01*
X1030Y193D01*
X1030Y197D01*
X1032Y197D01*
X1032Y199D01*
X1034Y199D01*
X1034Y201D01*
X1036Y201D01*
X1036Y203D01*
X1038Y203D01*
X1038Y205D01*
X1040Y205D01*
X1040Y207D01*
X1042Y207D01*
X1042Y209D01*
X1044Y209D01*
X1044Y211D01*
X1046Y211D01*
X1046Y213D01*
X1048Y213D01*
X1048Y215D01*
X1050Y215D01*
X1050Y217D01*
X1054Y217D01*
X1054Y219D01*
X1056Y219D01*
X1056Y221D01*
X1058Y221D01*
X1058Y223D01*
X1062Y223D01*
X1062Y225D01*
X1066Y225D01*
X1066Y227D01*
X1068Y227D01*
X1068Y229D01*
X1072Y229D01*
X1072Y231D01*
X1076Y231D01*
X1076Y233D01*
X1082Y233D01*
X1082Y235D01*
X1088Y235D01*
X1088Y237D01*
X1094Y237D01*
X1094Y239D01*
X1106Y239D01*
X1106Y241D01*
X864Y241D01*
G37*
D02*
G36*
X640Y263D02*
X640Y239D01*
X642Y239D01*
X642Y233D01*
X744Y233D01*
X744Y231D01*
X750Y231D01*
X750Y229D01*
X754Y229D01*
X754Y227D01*
X758Y227D01*
X758Y225D01*
X760Y225D01*
X760Y223D01*
X762Y223D01*
X762Y221D01*
X764Y221D01*
X764Y219D01*
X766Y219D01*
X766Y217D01*
X768Y217D01*
X768Y215D01*
X770Y215D01*
X770Y213D01*
X772Y213D01*
X772Y211D01*
X774Y211D01*
X774Y207D01*
X776Y207D01*
X776Y203D01*
X796Y203D01*
X796Y233D01*
X820Y233D01*
X820Y263D01*
X640Y263D01*
G37*
D02*
G36*
X642Y233D02*
X642Y229D01*
X644Y229D01*
X644Y227D01*
X648Y227D01*
X648Y225D01*
X652Y225D01*
X652Y223D01*
X654Y223D01*
X654Y221D01*
X656Y221D01*
X656Y219D01*
X658Y219D01*
X658Y217D01*
X660Y217D01*
X660Y215D01*
X662Y215D01*
X662Y211D01*
X664Y211D01*
X664Y209D01*
X666Y209D01*
X666Y205D01*
X668Y205D01*
X668Y201D01*
X670Y201D01*
X670Y199D01*
X690Y199D01*
X690Y205D01*
X692Y205D01*
X692Y207D01*
X694Y207D01*
X694Y211D01*
X696Y211D01*
X696Y213D01*
X698Y213D01*
X698Y215D01*
X700Y215D01*
X700Y219D01*
X702Y219D01*
X702Y221D01*
X706Y221D01*
X706Y223D01*
X708Y223D01*
X708Y225D01*
X710Y225D01*
X710Y227D01*
X714Y227D01*
X714Y229D01*
X718Y229D01*
X718Y231D01*
X724Y231D01*
X724Y233D01*
X642Y233D01*
G37*
D02*
G54D16*
X806Y224D02*
X879Y224D01*
X806Y223D02*
X879Y223D01*
X806Y222D02*
X879Y222D01*
X806Y221D02*
X879Y221D01*
X806Y220D02*
X879Y220D01*
X806Y219D02*
X879Y219D01*
X806Y218D02*
X879Y218D01*
X806Y217D02*
X879Y217D01*
X806Y216D02*
X879Y216D01*
X806Y215D02*
X879Y215D01*
X806Y214D02*
X879Y214D01*
X806Y213D02*
X879Y213D01*
X806Y212D02*
X879Y212D01*
X806Y211D02*
X879Y211D01*
X806Y210D02*
X879Y210D01*
X806Y209D02*
X879Y209D01*
X806Y208D02*
X879Y208D01*
X806Y207D02*
X837Y207D01*
X847Y207D02*
X879Y207D01*
X806Y206D02*
X834Y206D01*
X850Y206D02*
X879Y206D01*
X806Y205D02*
X832Y205D01*
X852Y205D02*
X879Y205D01*
X806Y204D02*
X830Y204D01*
X854Y204D02*
X879Y204D01*
X806Y203D02*
X829Y203D01*
X855Y203D02*
X879Y203D01*
X806Y202D02*
X828Y202D01*
X857Y202D02*
X879Y202D01*
X806Y201D02*
X827Y201D01*
X857Y201D02*
X879Y201D01*
X806Y200D02*
X826Y200D01*
X858Y200D02*
X879Y200D01*
X806Y199D02*
X825Y199D01*
X859Y199D02*
X879Y199D01*
X806Y198D02*
X825Y198D01*
X860Y198D02*
X879Y198D01*
X806Y197D02*
X824Y197D01*
X860Y197D02*
X879Y197D01*
X806Y196D02*
X824Y196D01*
X861Y196D02*
X879Y196D01*
X806Y195D02*
X823Y195D01*
X861Y195D02*
X879Y195D01*
X806Y194D02*
X823Y194D01*
X862Y194D02*
X879Y194D01*
X806Y193D02*
X823Y193D01*
X862Y193D02*
X879Y193D01*
X806Y192D02*
X822Y192D01*
X862Y192D02*
X879Y192D01*
X806Y191D02*
X822Y191D01*
X862Y191D02*
X879Y191D01*
X806Y190D02*
X822Y190D01*
X862Y190D02*
X879Y190D01*
X806Y189D02*
X822Y189D01*
X863Y189D02*
X879Y189D01*
X806Y188D02*
X822Y188D01*
X863Y188D02*
X879Y188D01*
X806Y187D02*
X822Y187D01*
X863Y187D02*
X879Y187D01*
X806Y186D02*
X822Y186D01*
X863Y186D02*
X879Y186D01*
X806Y185D02*
X822Y185D01*
X862Y185D02*
X879Y185D01*
X806Y184D02*
X822Y184D01*
X862Y184D02*
X879Y184D01*
X806Y183D02*
X822Y183D01*
X862Y183D02*
X879Y183D01*
X806Y182D02*
X823Y182D01*
X862Y182D02*
X879Y182D01*
X806Y181D02*
X823Y181D01*
X862Y181D02*
X879Y181D01*
X806Y180D02*
X823Y180D01*
X861Y180D02*
X879Y180D01*
X806Y179D02*
X824Y179D01*
X861Y179D02*
X879Y179D01*
X806Y178D02*
X824Y178D01*
X860Y178D02*
X879Y178D01*
X806Y177D02*
X825Y177D01*
X860Y177D02*
X879Y177D01*
X806Y176D02*
X825Y176D01*
X859Y176D02*
X879Y176D01*
X806Y175D02*
X826Y175D01*
X858Y175D02*
X879Y175D01*
X806Y174D02*
X827Y174D01*
X857Y174D02*
X879Y174D01*
X806Y173D02*
X828Y173D01*
X856Y173D02*
X879Y173D01*
X806Y172D02*
X829Y172D01*
X855Y172D02*
X879Y172D01*
X806Y171D02*
X831Y171D01*
X854Y171D02*
X879Y171D01*
X806Y170D02*
X832Y170D01*
X852Y170D02*
X879Y170D01*
X806Y169D02*
X834Y169D01*
X850Y169D02*
X879Y169D01*
X806Y168D02*
X838Y168D01*
X847Y168D02*
X879Y168D01*
X806Y167D02*
X879Y167D01*
X806Y166D02*
X879Y166D01*
X806Y165D02*
X879Y165D01*
X806Y164D02*
X879Y164D01*
X806Y163D02*
X879Y163D01*
X806Y162D02*
X879Y162D01*
X806Y161D02*
X879Y161D01*
X806Y160D02*
X879Y160D01*
X806Y159D02*
X879Y159D01*
X806Y158D02*
X879Y158D01*
X806Y157D02*
X879Y157D01*
X806Y156D02*
X879Y156D01*
X806Y155D02*
X879Y155D01*
X806Y154D02*
X879Y154D01*
X806Y153D02*
X879Y153D01*
X806Y152D02*
X879Y152D01*
X806Y151D02*
X879Y151D01*
D02*
G04 End of Copper0*
M02*