; NON-PLATED HOLES START AT T1
; THROUGH (PLATED) HOLES START AT T100
M48
INCH
T100C0.040000
T101C0.035000
T102C0.130000
%
T100
X006247Y001861
X005157Y001861
X004066Y001861
X005704Y000743
X004613Y000743
X008428Y001861
X006791Y000743
X007338Y001861
X007881Y000743
T101
X009143Y011857
X009143Y004857
X003143Y013857
X003143Y006857
X003143Y010857
X003143Y003857
X009143Y009857
X009143Y013857
X009143Y006857
X003143Y008857
X009143Y010857
X009143Y003857
X003143Y012857
X003143Y005857
X009143Y008857
X009143Y012857
X009143Y005857
X003143Y014857
X003143Y007857
X003143Y011857
X003143Y004857
X009143Y014857
X009143Y007857
X003143Y009857
T102
X001326Y001302
X011169Y001302
T00
M30
