G04 MADE WITH FRITZING*
G04 WWW.FRITZING.ORG*
G04 DOUBLE SIDED*
G04 HOLES PLATED*
G04 CONTOUR ON CENTER OF CONTOUR VECTOR*
%ASAXBY*%
%FSLAX23Y23*%
%MOIN*%
%OFA0B0*%
%SFA1.0B1.0*%
%ADD10R,2.089000X1.251020X2.073000X1.235020*%
%ADD11C,0.008000*%
%ADD12R,0.001000X0.001000*%
%LNSILK0*%
G90*
G70*
G54D11*
X4Y1247D02*
X2085Y1247D01*
X2085Y4D01*
X4Y4D01*
X4Y1247D01*
D02*
G54D12*
X873Y876D02*
X886Y876D01*
X1165Y876D02*
X1191Y876D01*
X870Y875D02*
X891Y875D01*
X1160Y875D02*
X1191Y875D01*
X869Y874D02*
X893Y874D01*
X1159Y874D02*
X1191Y874D01*
X869Y873D02*
X894Y873D01*
X1157Y873D02*
X1191Y873D01*
X552Y872D02*
X556Y872D01*
X869Y872D02*
X895Y872D01*
X1065Y872D02*
X1068Y872D01*
X1156Y872D02*
X1191Y872D01*
X551Y871D02*
X557Y871D01*
X869Y871D02*
X896Y871D01*
X1064Y871D02*
X1069Y871D01*
X1155Y871D02*
X1191Y871D01*
X551Y870D02*
X557Y870D01*
X869Y870D02*
X897Y870D01*
X1063Y870D02*
X1069Y870D01*
X1155Y870D02*
X1191Y870D01*
X550Y869D02*
X557Y869D01*
X870Y869D02*
X897Y869D01*
X1063Y869D02*
X1070Y869D01*
X1154Y869D02*
X1191Y869D01*
X550Y868D02*
X557Y868D01*
X888Y868D02*
X898Y868D01*
X1063Y868D02*
X1070Y868D01*
X1154Y868D02*
X1164Y868D01*
X1184Y868D02*
X1191Y868D01*
X550Y867D02*
X557Y867D01*
X890Y867D02*
X898Y867D01*
X1063Y867D02*
X1070Y867D01*
X1154Y867D02*
X1162Y867D01*
X1184Y867D02*
X1191Y867D01*
X550Y866D02*
X557Y866D01*
X891Y866D02*
X899Y866D01*
X1063Y866D02*
X1070Y866D01*
X1153Y866D02*
X1161Y866D01*
X1184Y866D02*
X1191Y866D01*
X550Y865D02*
X557Y865D01*
X891Y865D02*
X899Y865D01*
X1063Y865D02*
X1070Y865D01*
X1153Y865D02*
X1160Y865D01*
X1184Y865D02*
X1191Y865D01*
X550Y864D02*
X557Y864D01*
X892Y864D02*
X900Y864D01*
X1063Y864D02*
X1070Y864D01*
X1153Y864D02*
X1160Y864D01*
X1184Y864D02*
X1191Y864D01*
X550Y863D02*
X557Y863D01*
X892Y863D02*
X900Y863D01*
X1063Y863D02*
X1070Y863D01*
X1153Y863D02*
X1160Y863D01*
X1184Y863D02*
X1191Y863D01*
X550Y862D02*
X557Y862D01*
X893Y862D02*
X901Y862D01*
X1063Y862D02*
X1070Y862D01*
X1153Y862D02*
X1160Y862D01*
X1184Y862D02*
X1191Y862D01*
X550Y861D02*
X557Y861D01*
X893Y861D02*
X901Y861D01*
X1063Y861D02*
X1070Y861D01*
X1153Y861D02*
X1160Y861D01*
X1184Y861D02*
X1191Y861D01*
X550Y860D02*
X557Y860D01*
X894Y860D02*
X902Y860D01*
X1063Y860D02*
X1070Y860D01*
X1153Y860D02*
X1160Y860D01*
X1184Y860D02*
X1191Y860D01*
X422Y859D02*
X433Y859D01*
X447Y859D02*
X449Y859D01*
X482Y859D02*
X496Y859D01*
X533Y859D02*
X563Y859D01*
X586Y859D02*
X606Y859D01*
X653Y859D02*
X667Y859D01*
X708Y859D02*
X717Y859D01*
X732Y859D02*
X733Y859D01*
X765Y859D02*
X774Y859D01*
X788Y859D02*
X790Y859D01*
X824Y859D02*
X838Y859D01*
X894Y859D02*
X902Y859D01*
X938Y859D02*
X952Y859D01*
X992Y859D02*
X1003Y859D01*
X1016Y859D02*
X1018Y859D01*
X1046Y859D02*
X1075Y859D01*
X1108Y859D02*
X1122Y859D01*
X1153Y859D02*
X1160Y859D01*
X1184Y859D02*
X1191Y859D01*
X420Y858D02*
X435Y858D01*
X446Y858D02*
X450Y858D01*
X479Y858D02*
X499Y858D01*
X532Y858D02*
X564Y858D01*
X585Y858D02*
X609Y858D01*
X650Y858D02*
X670Y858D01*
X705Y858D02*
X719Y858D01*
X730Y858D02*
X735Y858D01*
X762Y858D02*
X776Y858D01*
X787Y858D02*
X792Y858D01*
X821Y858D02*
X841Y858D01*
X895Y858D02*
X903Y858D01*
X935Y858D02*
X954Y858D01*
X989Y858D02*
X1004Y858D01*
X1015Y858D02*
X1019Y858D01*
X1044Y858D02*
X1076Y858D01*
X1106Y858D02*
X1125Y858D01*
X1153Y858D02*
X1161Y858D01*
X1184Y858D02*
X1191Y858D01*
X418Y857D02*
X436Y857D01*
X445Y857D02*
X451Y857D01*
X478Y857D02*
X501Y857D01*
X531Y857D02*
X565Y857D01*
X584Y857D02*
X611Y857D01*
X649Y857D02*
X671Y857D01*
X704Y857D02*
X721Y857D01*
X729Y857D02*
X736Y857D01*
X761Y857D02*
X778Y857D01*
X786Y857D02*
X792Y857D01*
X819Y857D02*
X842Y857D01*
X895Y857D02*
X903Y857D01*
X933Y857D02*
X956Y857D01*
X987Y857D02*
X1005Y857D01*
X1014Y857D02*
X1020Y857D01*
X1044Y857D02*
X1077Y857D01*
X1104Y857D02*
X1127Y857D01*
X1154Y857D02*
X1162Y857D01*
X1184Y857D02*
X1191Y857D01*
X417Y856D02*
X437Y856D01*
X445Y856D02*
X451Y856D01*
X477Y856D02*
X502Y856D01*
X531Y856D02*
X565Y856D01*
X584Y856D02*
X612Y856D01*
X647Y856D02*
X673Y856D01*
X702Y856D02*
X723Y856D01*
X729Y856D02*
X736Y856D01*
X759Y856D02*
X780Y856D01*
X786Y856D02*
X793Y856D01*
X818Y856D02*
X843Y856D01*
X896Y856D02*
X904Y856D01*
X932Y856D02*
X957Y856D01*
X986Y856D02*
X1006Y856D01*
X1014Y856D02*
X1020Y856D01*
X1043Y856D02*
X1077Y856D01*
X1103Y856D02*
X1128Y856D01*
X1154Y856D02*
X1164Y856D01*
X1184Y856D02*
X1191Y856D01*
X416Y855D02*
X438Y855D01*
X444Y855D02*
X451Y855D01*
X475Y855D02*
X503Y855D01*
X531Y855D02*
X565Y855D01*
X584Y855D02*
X613Y855D01*
X646Y855D02*
X674Y855D01*
X702Y855D02*
X724Y855D01*
X729Y855D02*
X736Y855D01*
X758Y855D02*
X781Y855D01*
X786Y855D02*
X793Y855D01*
X817Y855D02*
X845Y855D01*
X896Y855D02*
X904Y855D01*
X931Y855D02*
X958Y855D01*
X985Y855D02*
X1008Y855D01*
X1014Y855D02*
X1021Y855D01*
X1043Y855D02*
X1077Y855D01*
X1101Y855D02*
X1129Y855D01*
X1154Y855D02*
X1191Y855D01*
X415Y854D02*
X439Y854D01*
X444Y854D02*
X451Y854D01*
X474Y854D02*
X504Y854D01*
X531Y854D02*
X565Y854D01*
X584Y854D02*
X614Y854D01*
X645Y854D02*
X675Y854D01*
X701Y854D02*
X726Y854D01*
X729Y854D02*
X736Y854D01*
X758Y854D02*
X783Y854D01*
X786Y854D02*
X793Y854D01*
X816Y854D02*
X846Y854D01*
X897Y854D02*
X905Y854D01*
X930Y854D02*
X960Y854D01*
X984Y854D02*
X1009Y854D01*
X1014Y854D02*
X1021Y854D01*
X1044Y854D02*
X1077Y854D01*
X1100Y854D02*
X1130Y854D01*
X1155Y854D02*
X1191Y854D01*
X415Y853D02*
X441Y853D01*
X444Y853D02*
X451Y853D01*
X473Y853D02*
X505Y853D01*
X532Y853D02*
X564Y853D01*
X585Y853D02*
X615Y853D01*
X644Y853D02*
X676Y853D01*
X700Y853D02*
X727Y853D01*
X729Y853D02*
X736Y853D01*
X757Y853D02*
X784Y853D01*
X786Y853D02*
X793Y853D01*
X815Y853D02*
X847Y853D01*
X897Y853D02*
X905Y853D01*
X929Y853D02*
X961Y853D01*
X984Y853D02*
X1010Y853D01*
X1014Y853D02*
X1021Y853D01*
X1044Y853D02*
X1077Y853D01*
X1099Y853D02*
X1131Y853D01*
X1155Y853D02*
X1191Y853D01*
X414Y852D02*
X442Y852D01*
X444Y852D02*
X451Y852D01*
X472Y852D02*
X506Y852D01*
X533Y852D02*
X563Y852D01*
X586Y852D02*
X617Y852D01*
X643Y852D02*
X677Y852D01*
X700Y852D02*
X736Y852D01*
X757Y852D02*
X793Y852D01*
X814Y852D02*
X847Y852D01*
X898Y852D02*
X905Y852D01*
X928Y852D02*
X961Y852D01*
X983Y852D02*
X1011Y852D01*
X1014Y852D02*
X1021Y852D01*
X1045Y852D02*
X1076Y852D01*
X1099Y852D02*
X1132Y852D01*
X1156Y852D02*
X1191Y852D01*
X414Y851D02*
X422Y851D01*
X432Y851D02*
X451Y851D01*
X472Y851D02*
X482Y851D01*
X496Y851D02*
X507Y851D01*
X550Y851D02*
X557Y851D01*
X606Y851D02*
X618Y851D01*
X642Y851D02*
X653Y851D01*
X667Y851D02*
X677Y851D01*
X699Y851D02*
X708Y851D01*
X717Y851D02*
X736Y851D01*
X756Y851D02*
X765Y851D01*
X774Y851D02*
X793Y851D01*
X813Y851D02*
X824Y851D01*
X838Y851D02*
X848Y851D01*
X898Y851D02*
X906Y851D01*
X927Y851D02*
X937Y851D01*
X952Y851D02*
X962Y851D01*
X983Y851D02*
X992Y851D01*
X1001Y851D02*
X1021Y851D01*
X1063Y851D02*
X1070Y851D01*
X1098Y851D02*
X1108Y851D01*
X1122Y851D02*
X1133Y851D01*
X1157Y851D02*
X1191Y851D01*
X413Y850D02*
X421Y850D01*
X433Y850D02*
X451Y850D01*
X471Y850D02*
X480Y850D01*
X498Y850D02*
X507Y850D01*
X550Y850D02*
X557Y850D01*
X608Y850D02*
X619Y850D01*
X642Y850D02*
X651Y850D01*
X668Y850D02*
X678Y850D01*
X699Y850D02*
X707Y850D01*
X718Y850D02*
X736Y850D01*
X756Y850D02*
X764Y850D01*
X775Y850D02*
X793Y850D01*
X813Y850D02*
X822Y850D01*
X839Y850D02*
X849Y850D01*
X899Y850D02*
X906Y850D01*
X927Y850D02*
X936Y850D01*
X953Y850D02*
X962Y850D01*
X983Y850D02*
X990Y850D01*
X1002Y850D02*
X1021Y850D01*
X1063Y850D02*
X1070Y850D01*
X1097Y850D02*
X1107Y850D01*
X1124Y850D02*
X1133Y850D01*
X1159Y850D02*
X1191Y850D01*
X413Y849D02*
X420Y849D01*
X434Y849D02*
X451Y849D01*
X471Y849D02*
X479Y849D01*
X499Y849D02*
X507Y849D01*
X550Y849D02*
X557Y849D01*
X609Y849D02*
X620Y849D01*
X642Y849D02*
X650Y849D01*
X670Y849D02*
X678Y849D01*
X699Y849D02*
X706Y849D01*
X720Y849D02*
X736Y849D01*
X756Y849D02*
X763Y849D01*
X777Y849D02*
X793Y849D01*
X812Y849D02*
X821Y849D01*
X840Y849D02*
X849Y849D01*
X899Y849D02*
X906Y849D01*
X926Y849D02*
X935Y849D01*
X954Y849D02*
X963Y849D01*
X983Y849D02*
X990Y849D01*
X1003Y849D02*
X1021Y849D01*
X1063Y849D02*
X1070Y849D01*
X1097Y849D02*
X1105Y849D01*
X1125Y849D02*
X1134Y849D01*
X1160Y849D02*
X1191Y849D01*
X413Y848D02*
X420Y848D01*
X435Y848D02*
X451Y848D01*
X470Y848D02*
X478Y848D01*
X500Y848D02*
X508Y848D01*
X550Y848D02*
X557Y848D01*
X610Y848D02*
X620Y848D01*
X641Y848D02*
X649Y848D01*
X671Y848D02*
X679Y848D01*
X699Y848D02*
X706Y848D01*
X721Y848D02*
X736Y848D01*
X756Y848D02*
X763Y848D01*
X778Y848D02*
X793Y848D01*
X812Y848D02*
X820Y848D01*
X841Y848D02*
X849Y848D01*
X899Y848D02*
X907Y848D01*
X926Y848D02*
X934Y848D01*
X955Y848D02*
X963Y848D01*
X982Y848D02*
X989Y848D01*
X1004Y848D02*
X1021Y848D01*
X1063Y848D02*
X1070Y848D01*
X1097Y848D02*
X1105Y848D01*
X1126Y848D02*
X1134Y848D01*
X1165Y848D02*
X1191Y848D01*
X413Y847D02*
X420Y847D01*
X436Y847D02*
X451Y847D01*
X470Y847D02*
X478Y847D01*
X501Y847D02*
X508Y847D01*
X550Y847D02*
X557Y847D01*
X611Y847D02*
X621Y847D01*
X641Y847D02*
X648Y847D01*
X672Y847D02*
X679Y847D01*
X699Y847D02*
X706Y847D01*
X723Y847D02*
X736Y847D01*
X756Y847D02*
X763Y847D01*
X780Y847D02*
X793Y847D01*
X812Y847D02*
X819Y847D01*
X842Y847D02*
X850Y847D01*
X900Y847D02*
X907Y847D01*
X926Y847D02*
X933Y847D01*
X956Y847D02*
X963Y847D01*
X982Y847D02*
X989Y847D01*
X1006Y847D02*
X1021Y847D01*
X1063Y847D02*
X1070Y847D01*
X1096Y847D02*
X1104Y847D01*
X1127Y847D02*
X1134Y847D01*
X1169Y847D02*
X1177Y847D01*
X1184Y847D02*
X1191Y847D01*
X413Y846D02*
X420Y846D01*
X438Y846D02*
X451Y846D01*
X470Y846D02*
X477Y846D01*
X501Y846D02*
X508Y846D01*
X550Y846D02*
X557Y846D01*
X612Y846D02*
X621Y846D01*
X641Y846D02*
X648Y846D01*
X672Y846D02*
X679Y846D01*
X699Y846D02*
X706Y846D01*
X725Y846D02*
X736Y846D01*
X756Y846D02*
X763Y846D01*
X781Y846D02*
X793Y846D01*
X812Y846D02*
X819Y846D01*
X843Y846D02*
X850Y846D01*
X900Y846D02*
X907Y846D01*
X926Y846D02*
X933Y846D01*
X957Y846D02*
X964Y846D01*
X982Y846D02*
X989Y846D01*
X1007Y846D02*
X1021Y846D01*
X1063Y846D02*
X1070Y846D01*
X1096Y846D02*
X1103Y846D01*
X1127Y846D02*
X1134Y846D01*
X1169Y846D02*
X1177Y846D01*
X1184Y846D02*
X1191Y846D01*
X413Y845D02*
X420Y845D01*
X439Y845D02*
X451Y845D01*
X470Y845D02*
X477Y845D01*
X501Y845D02*
X508Y845D01*
X550Y845D02*
X557Y845D01*
X613Y845D02*
X622Y845D01*
X641Y845D02*
X648Y845D01*
X672Y845D02*
X679Y845D01*
X699Y845D02*
X706Y845D01*
X726Y845D02*
X736Y845D01*
X756Y845D02*
X763Y845D01*
X783Y845D02*
X793Y845D01*
X812Y845D02*
X819Y845D01*
X843Y845D02*
X850Y845D01*
X900Y845D02*
X907Y845D01*
X925Y845D02*
X932Y845D01*
X957Y845D02*
X964Y845D01*
X982Y845D02*
X989Y845D01*
X1008Y845D02*
X1021Y845D01*
X1063Y845D02*
X1070Y845D01*
X1096Y845D02*
X1103Y845D01*
X1127Y845D02*
X1134Y845D01*
X1168Y845D02*
X1176Y845D01*
X1184Y845D02*
X1191Y845D01*
X413Y844D02*
X420Y844D01*
X440Y844D02*
X451Y844D01*
X470Y844D02*
X477Y844D01*
X501Y844D02*
X508Y844D01*
X550Y844D02*
X557Y844D01*
X614Y844D02*
X622Y844D01*
X641Y844D02*
X648Y844D01*
X672Y844D02*
X679Y844D01*
X699Y844D02*
X706Y844D01*
X728Y844D02*
X736Y844D01*
X756Y844D02*
X763Y844D01*
X785Y844D02*
X793Y844D01*
X812Y844D02*
X819Y844D01*
X843Y844D02*
X850Y844D01*
X900Y844D02*
X907Y844D01*
X925Y844D02*
X932Y844D01*
X957Y844D02*
X964Y844D01*
X983Y844D02*
X989Y844D01*
X1009Y844D02*
X1021Y844D01*
X1063Y844D02*
X1070Y844D01*
X1096Y844D02*
X1103Y844D01*
X1127Y844D02*
X1134Y844D01*
X1167Y844D02*
X1176Y844D01*
X1184Y844D02*
X1191Y844D01*
X414Y843D02*
X419Y843D01*
X441Y843D02*
X451Y843D01*
X470Y843D02*
X477Y843D01*
X501Y843D02*
X508Y843D01*
X550Y843D02*
X557Y843D01*
X615Y843D02*
X622Y843D01*
X641Y843D02*
X648Y843D01*
X672Y843D02*
X679Y843D01*
X699Y843D02*
X706Y843D01*
X729Y843D02*
X736Y843D01*
X756Y843D02*
X762Y843D01*
X786Y843D02*
X793Y843D01*
X812Y843D02*
X819Y843D01*
X843Y843D02*
X850Y843D01*
X900Y843D02*
X907Y843D01*
X925Y843D02*
X932Y843D01*
X957Y843D02*
X964Y843D01*
X983Y843D02*
X989Y843D01*
X1010Y843D02*
X1021Y843D01*
X1063Y843D02*
X1070Y843D01*
X1096Y843D02*
X1103Y843D01*
X1127Y843D02*
X1134Y843D01*
X1167Y843D02*
X1175Y843D01*
X1184Y843D02*
X1191Y843D01*
X415Y842D02*
X418Y842D01*
X442Y842D02*
X451Y842D01*
X470Y842D02*
X477Y842D01*
X501Y842D02*
X508Y842D01*
X550Y842D02*
X557Y842D01*
X615Y842D02*
X622Y842D01*
X641Y842D02*
X648Y842D01*
X672Y842D02*
X679Y842D01*
X699Y842D02*
X706Y842D01*
X729Y842D02*
X736Y842D01*
X756Y842D02*
X762Y842D01*
X786Y842D02*
X793Y842D01*
X812Y842D02*
X819Y842D01*
X843Y842D02*
X850Y842D01*
X899Y842D02*
X906Y842D01*
X925Y842D02*
X932Y842D01*
X957Y842D02*
X964Y842D01*
X984Y842D02*
X987Y842D01*
X1011Y842D02*
X1021Y842D01*
X1063Y842D02*
X1070Y842D01*
X1096Y842D02*
X1103Y842D01*
X1127Y842D02*
X1134Y842D01*
X1166Y842D02*
X1174Y842D01*
X1184Y842D02*
X1191Y842D01*
X443Y841D02*
X451Y841D01*
X470Y841D02*
X477Y841D01*
X501Y841D02*
X508Y841D01*
X550Y841D02*
X557Y841D01*
X615Y841D02*
X622Y841D01*
X641Y841D02*
X648Y841D01*
X672Y841D02*
X679Y841D01*
X699Y841D02*
X705Y841D01*
X729Y841D02*
X736Y841D01*
X755Y841D02*
X762Y841D01*
X786Y841D02*
X793Y841D01*
X812Y841D02*
X819Y841D01*
X843Y841D02*
X850Y841D01*
X899Y841D02*
X906Y841D01*
X925Y841D02*
X932Y841D01*
X957Y841D02*
X964Y841D01*
X1013Y841D02*
X1021Y841D01*
X1063Y841D02*
X1070Y841D01*
X1096Y841D02*
X1103Y841D01*
X1127Y841D02*
X1134Y841D01*
X1166Y841D02*
X1174Y841D01*
X1184Y841D02*
X1191Y841D01*
X444Y840D02*
X451Y840D01*
X470Y840D02*
X477Y840D01*
X501Y840D02*
X508Y840D01*
X550Y840D02*
X557Y840D01*
X615Y840D02*
X622Y840D01*
X641Y840D02*
X648Y840D01*
X672Y840D02*
X679Y840D01*
X699Y840D02*
X705Y840D01*
X729Y840D02*
X736Y840D01*
X755Y840D02*
X762Y840D01*
X786Y840D02*
X793Y840D01*
X812Y840D02*
X819Y840D01*
X843Y840D02*
X850Y840D01*
X898Y840D02*
X906Y840D01*
X925Y840D02*
X932Y840D01*
X957Y840D02*
X964Y840D01*
X1014Y840D02*
X1021Y840D01*
X1063Y840D02*
X1070Y840D01*
X1096Y840D02*
X1103Y840D01*
X1127Y840D02*
X1134Y840D01*
X1165Y840D02*
X1173Y840D01*
X1184Y840D02*
X1191Y840D01*
X444Y839D02*
X451Y839D01*
X470Y839D02*
X477Y839D01*
X501Y839D02*
X508Y839D01*
X550Y839D02*
X557Y839D01*
X615Y839D02*
X622Y839D01*
X641Y839D02*
X679Y839D01*
X698Y839D02*
X705Y839D01*
X729Y839D02*
X736Y839D01*
X755Y839D02*
X762Y839D01*
X786Y839D02*
X793Y839D01*
X812Y839D02*
X819Y839D01*
X843Y839D02*
X850Y839D01*
X898Y839D02*
X905Y839D01*
X925Y839D02*
X932Y839D01*
X957Y839D02*
X964Y839D01*
X1014Y839D02*
X1021Y839D01*
X1063Y839D02*
X1070Y839D01*
X1096Y839D02*
X1134Y839D01*
X1164Y839D02*
X1173Y839D01*
X1184Y839D02*
X1191Y839D01*
X444Y838D02*
X451Y838D01*
X470Y838D02*
X477Y838D01*
X501Y838D02*
X508Y838D01*
X550Y838D02*
X557Y838D01*
X615Y838D02*
X622Y838D01*
X641Y838D02*
X679Y838D01*
X698Y838D02*
X705Y838D01*
X729Y838D02*
X736Y838D01*
X755Y838D02*
X762Y838D01*
X786Y838D02*
X793Y838D01*
X812Y838D02*
X819Y838D01*
X843Y838D02*
X850Y838D01*
X897Y838D02*
X905Y838D01*
X925Y838D02*
X932Y838D01*
X957Y838D02*
X964Y838D01*
X1014Y838D02*
X1021Y838D01*
X1063Y838D02*
X1070Y838D01*
X1096Y838D02*
X1134Y838D01*
X1164Y838D02*
X1172Y838D01*
X1184Y838D02*
X1191Y838D01*
X444Y837D02*
X451Y837D01*
X470Y837D02*
X477Y837D01*
X501Y837D02*
X508Y837D01*
X550Y837D02*
X557Y837D01*
X615Y837D02*
X622Y837D01*
X641Y837D02*
X679Y837D01*
X698Y837D02*
X705Y837D01*
X729Y837D02*
X736Y837D01*
X755Y837D02*
X762Y837D01*
X786Y837D02*
X793Y837D01*
X812Y837D02*
X819Y837D01*
X843Y837D02*
X850Y837D01*
X897Y837D02*
X905Y837D01*
X925Y837D02*
X932Y837D01*
X957Y837D02*
X964Y837D01*
X1014Y837D02*
X1021Y837D01*
X1063Y837D02*
X1070Y837D01*
X1096Y837D02*
X1134Y837D01*
X1163Y837D02*
X1172Y837D01*
X1184Y837D02*
X1191Y837D01*
X444Y836D02*
X451Y836D01*
X470Y836D02*
X477Y836D01*
X501Y836D02*
X508Y836D01*
X550Y836D02*
X557Y836D01*
X615Y836D02*
X622Y836D01*
X641Y836D02*
X679Y836D01*
X698Y836D02*
X705Y836D01*
X729Y836D02*
X736Y836D01*
X755Y836D02*
X762Y836D01*
X786Y836D02*
X793Y836D01*
X812Y836D02*
X819Y836D01*
X843Y836D02*
X850Y836D01*
X896Y836D02*
X904Y836D01*
X925Y836D02*
X932Y836D01*
X957Y836D02*
X964Y836D01*
X1014Y836D02*
X1021Y836D01*
X1063Y836D02*
X1070Y836D01*
X1096Y836D02*
X1134Y836D01*
X1163Y836D02*
X1171Y836D01*
X1184Y836D02*
X1191Y836D01*
X444Y835D02*
X451Y835D01*
X470Y835D02*
X477Y835D01*
X501Y835D02*
X508Y835D01*
X550Y835D02*
X557Y835D01*
X615Y835D02*
X622Y835D01*
X641Y835D02*
X679Y835D01*
X698Y835D02*
X705Y835D01*
X729Y835D02*
X736Y835D01*
X755Y835D02*
X762Y835D01*
X786Y835D02*
X793Y835D01*
X812Y835D02*
X819Y835D01*
X843Y835D02*
X850Y835D01*
X896Y835D02*
X904Y835D01*
X925Y835D02*
X932Y835D01*
X957Y835D02*
X964Y835D01*
X1014Y835D02*
X1021Y835D01*
X1063Y835D02*
X1070Y835D01*
X1096Y835D02*
X1134Y835D01*
X1162Y835D02*
X1170Y835D01*
X1184Y835D02*
X1191Y835D01*
X444Y834D02*
X451Y834D01*
X470Y834D02*
X477Y834D01*
X501Y834D02*
X508Y834D01*
X550Y834D02*
X557Y834D01*
X615Y834D02*
X622Y834D01*
X641Y834D02*
X679Y834D01*
X698Y834D02*
X705Y834D01*
X729Y834D02*
X736Y834D01*
X755Y834D02*
X762Y834D01*
X786Y834D02*
X793Y834D01*
X812Y834D02*
X819Y834D01*
X843Y834D02*
X850Y834D01*
X895Y834D02*
X903Y834D01*
X925Y834D02*
X932Y834D01*
X957Y834D02*
X964Y834D01*
X1014Y834D02*
X1021Y834D01*
X1063Y834D02*
X1070Y834D01*
X1097Y834D02*
X1134Y834D01*
X1162Y834D02*
X1170Y834D01*
X1184Y834D02*
X1191Y834D01*
X444Y833D02*
X451Y833D01*
X470Y833D02*
X477Y833D01*
X501Y833D02*
X508Y833D01*
X550Y833D02*
X557Y833D01*
X615Y833D02*
X622Y833D01*
X642Y833D02*
X679Y833D01*
X698Y833D02*
X705Y833D01*
X729Y833D02*
X736Y833D01*
X755Y833D02*
X762Y833D01*
X786Y833D02*
X793Y833D01*
X812Y833D02*
X819Y833D01*
X843Y833D02*
X850Y833D01*
X895Y833D02*
X903Y833D01*
X925Y833D02*
X932Y833D01*
X957Y833D02*
X964Y833D01*
X1014Y833D02*
X1021Y833D01*
X1063Y833D02*
X1070Y833D01*
X1097Y833D02*
X1134Y833D01*
X1161Y833D02*
X1169Y833D01*
X1184Y833D02*
X1191Y833D01*
X444Y832D02*
X451Y832D01*
X470Y832D02*
X477Y832D01*
X501Y832D02*
X508Y832D01*
X550Y832D02*
X557Y832D01*
X615Y832D02*
X622Y832D01*
X643Y832D02*
X679Y832D01*
X698Y832D02*
X705Y832D01*
X729Y832D02*
X736Y832D01*
X755Y832D02*
X762Y832D01*
X786Y832D02*
X793Y832D01*
X812Y832D02*
X819Y832D01*
X843Y832D02*
X850Y832D01*
X894Y832D02*
X902Y832D01*
X925Y832D02*
X932Y832D01*
X957Y832D02*
X964Y832D01*
X1014Y832D02*
X1021Y832D01*
X1063Y832D02*
X1070Y832D01*
X1098Y832D02*
X1134Y832D01*
X1160Y832D02*
X1169Y832D01*
X1184Y832D02*
X1191Y832D01*
X444Y831D02*
X451Y831D01*
X470Y831D02*
X477Y831D01*
X501Y831D02*
X508Y831D01*
X550Y831D02*
X557Y831D01*
X615Y831D02*
X622Y831D01*
X672Y831D02*
X679Y831D01*
X698Y831D02*
X705Y831D01*
X729Y831D02*
X736Y831D01*
X755Y831D02*
X762Y831D01*
X786Y831D02*
X793Y831D01*
X812Y831D02*
X819Y831D01*
X843Y831D02*
X850Y831D01*
X894Y831D02*
X902Y831D01*
X925Y831D02*
X932Y831D01*
X957Y831D02*
X964Y831D01*
X1014Y831D02*
X1021Y831D01*
X1063Y831D02*
X1070Y831D01*
X1127Y831D02*
X1134Y831D01*
X1160Y831D02*
X1168Y831D01*
X1184Y831D02*
X1191Y831D01*
X444Y830D02*
X451Y830D01*
X470Y830D02*
X477Y830D01*
X501Y830D02*
X508Y830D01*
X550Y830D02*
X557Y830D01*
X614Y830D02*
X622Y830D01*
X672Y830D02*
X679Y830D01*
X698Y830D02*
X705Y830D01*
X729Y830D02*
X736Y830D01*
X755Y830D02*
X762Y830D01*
X786Y830D02*
X793Y830D01*
X812Y830D02*
X819Y830D01*
X843Y830D02*
X850Y830D01*
X893Y830D02*
X901Y830D01*
X925Y830D02*
X932Y830D01*
X957Y830D02*
X964Y830D01*
X1014Y830D02*
X1021Y830D01*
X1063Y830D02*
X1070Y830D01*
X1127Y830D02*
X1134Y830D01*
X1159Y830D02*
X1167Y830D01*
X1184Y830D02*
X1191Y830D01*
X444Y829D02*
X451Y829D01*
X470Y829D02*
X477Y829D01*
X501Y829D02*
X508Y829D01*
X530Y829D02*
X531Y829D01*
X550Y829D02*
X557Y829D01*
X614Y829D02*
X622Y829D01*
X672Y829D02*
X679Y829D01*
X698Y829D02*
X705Y829D01*
X729Y829D02*
X736Y829D01*
X755Y829D02*
X762Y829D01*
X786Y829D02*
X793Y829D01*
X812Y829D02*
X819Y829D01*
X843Y829D02*
X850Y829D01*
X893Y829D02*
X901Y829D01*
X925Y829D02*
X932Y829D01*
X957Y829D02*
X964Y829D01*
X1014Y829D02*
X1021Y829D01*
X1042Y829D02*
X1044Y829D01*
X1063Y829D02*
X1070Y829D01*
X1127Y829D02*
X1134Y829D01*
X1159Y829D02*
X1167Y829D01*
X1184Y829D02*
X1191Y829D01*
X444Y828D02*
X451Y828D01*
X470Y828D02*
X477Y828D01*
X501Y828D02*
X508Y828D01*
X528Y828D02*
X533Y828D01*
X550Y828D02*
X557Y828D01*
X612Y828D02*
X621Y828D01*
X672Y828D02*
X679Y828D01*
X698Y828D02*
X705Y828D01*
X729Y828D02*
X736Y828D01*
X755Y828D02*
X762Y828D01*
X786Y828D02*
X793Y828D01*
X812Y828D02*
X819Y828D01*
X843Y828D02*
X850Y828D01*
X892Y828D02*
X900Y828D01*
X926Y828D02*
X933Y828D01*
X957Y828D02*
X964Y828D01*
X1014Y828D02*
X1021Y828D01*
X1041Y828D02*
X1045Y828D01*
X1063Y828D02*
X1070Y828D01*
X1127Y828D02*
X1134Y828D01*
X1158Y828D02*
X1166Y828D01*
X1184Y828D02*
X1191Y828D01*
X444Y827D02*
X451Y827D01*
X470Y827D02*
X478Y827D01*
X501Y827D02*
X508Y827D01*
X527Y827D02*
X533Y827D01*
X550Y827D02*
X557Y827D01*
X611Y827D02*
X621Y827D01*
X672Y827D02*
X679Y827D01*
X698Y827D02*
X705Y827D01*
X729Y827D02*
X736Y827D01*
X755Y827D02*
X762Y827D01*
X786Y827D02*
X793Y827D01*
X812Y827D02*
X819Y827D01*
X842Y827D02*
X850Y827D01*
X892Y827D02*
X900Y827D01*
X926Y827D02*
X933Y827D01*
X956Y827D02*
X963Y827D01*
X1014Y827D02*
X1021Y827D01*
X1040Y827D02*
X1046Y827D01*
X1063Y827D02*
X1070Y827D01*
X1127Y827D02*
X1134Y827D01*
X1157Y827D02*
X1166Y827D01*
X1184Y827D02*
X1191Y827D01*
X444Y826D02*
X451Y826D01*
X470Y826D02*
X478Y826D01*
X500Y826D02*
X508Y826D01*
X527Y826D02*
X534Y826D01*
X550Y826D02*
X557Y826D01*
X610Y826D02*
X620Y826D01*
X671Y826D02*
X679Y826D01*
X698Y826D02*
X705Y826D01*
X729Y826D02*
X736Y826D01*
X755Y826D02*
X762Y826D01*
X786Y826D02*
X793Y826D01*
X812Y826D02*
X820Y826D01*
X842Y826D02*
X849Y826D01*
X891Y826D02*
X899Y826D01*
X926Y826D02*
X934Y826D01*
X955Y826D02*
X963Y826D01*
X1014Y826D02*
X1021Y826D01*
X1039Y826D02*
X1046Y826D01*
X1063Y826D02*
X1070Y826D01*
X1126Y826D02*
X1134Y826D01*
X1157Y826D02*
X1165Y826D01*
X1184Y826D02*
X1191Y826D01*
X444Y825D02*
X451Y825D01*
X471Y825D02*
X479Y825D01*
X499Y825D02*
X508Y825D01*
X527Y825D02*
X534Y825D01*
X550Y825D02*
X557Y825D01*
X609Y825D02*
X620Y825D01*
X670Y825D02*
X678Y825D01*
X698Y825D02*
X705Y825D01*
X729Y825D02*
X736Y825D01*
X755Y825D02*
X762Y825D01*
X786Y825D02*
X793Y825D01*
X812Y825D02*
X821Y825D01*
X841Y825D02*
X849Y825D01*
X891Y825D02*
X899Y825D01*
X926Y825D02*
X935Y825D01*
X954Y825D02*
X963Y825D01*
X1014Y825D02*
X1021Y825D01*
X1039Y825D02*
X1047Y825D01*
X1062Y825D02*
X1070Y825D01*
X1125Y825D02*
X1134Y825D01*
X1156Y825D02*
X1165Y825D01*
X1184Y825D02*
X1191Y825D01*
X444Y824D02*
X451Y824D01*
X471Y824D02*
X481Y824D01*
X498Y824D02*
X507Y824D01*
X527Y824D02*
X535Y824D01*
X550Y824D02*
X557Y824D01*
X608Y824D02*
X619Y824D01*
X669Y824D02*
X678Y824D01*
X698Y824D02*
X705Y824D01*
X729Y824D02*
X736Y824D01*
X755Y824D02*
X762Y824D01*
X786Y824D02*
X793Y824D01*
X813Y824D02*
X822Y824D01*
X839Y824D02*
X849Y824D01*
X890Y824D02*
X898Y824D01*
X927Y824D02*
X936Y824D01*
X953Y824D02*
X963Y824D01*
X1014Y824D02*
X1021Y824D01*
X1039Y824D02*
X1047Y824D01*
X1062Y824D02*
X1069Y824D01*
X1124Y824D02*
X1133Y824D01*
X1156Y824D02*
X1164Y824D01*
X1184Y824D02*
X1191Y824D01*
X444Y823D02*
X451Y823D01*
X472Y823D02*
X482Y823D01*
X496Y823D02*
X507Y823D01*
X527Y823D02*
X536Y823D01*
X548Y823D02*
X557Y823D01*
X606Y823D02*
X618Y823D01*
X667Y823D02*
X678Y823D01*
X698Y823D02*
X705Y823D01*
X729Y823D02*
X736Y823D01*
X755Y823D02*
X762Y823D01*
X786Y823D02*
X793Y823D01*
X813Y823D02*
X824Y823D01*
X838Y823D02*
X848Y823D01*
X889Y823D02*
X898Y823D01*
X927Y823D02*
X937Y823D01*
X952Y823D02*
X962Y823D01*
X1014Y823D02*
X1021Y823D01*
X1040Y823D02*
X1048Y823D01*
X1061Y823D02*
X1069Y823D01*
X1122Y823D02*
X1133Y823D01*
X1155Y823D02*
X1163Y823D01*
X1184Y823D02*
X1191Y823D01*
X444Y822D02*
X451Y822D01*
X472Y822D02*
X506Y822D01*
X528Y822D02*
X557Y822D01*
X586Y822D02*
X617Y822D01*
X643Y822D02*
X677Y822D01*
X698Y822D02*
X705Y822D01*
X729Y822D02*
X736Y822D01*
X755Y822D02*
X762Y822D01*
X786Y822D02*
X793Y822D01*
X814Y822D02*
X848Y822D01*
X871Y822D02*
X897Y822D01*
X928Y822D02*
X962Y822D01*
X1014Y822D02*
X1021Y822D01*
X1040Y822D02*
X1069Y822D01*
X1098Y822D02*
X1132Y822D01*
X1155Y822D02*
X1163Y822D01*
X1184Y822D02*
X1191Y822D01*
X444Y821D02*
X451Y821D01*
X473Y821D02*
X505Y821D01*
X528Y821D02*
X556Y821D01*
X585Y821D02*
X615Y821D01*
X642Y821D02*
X676Y821D01*
X698Y821D02*
X705Y821D01*
X729Y821D02*
X736Y821D01*
X755Y821D02*
X762Y821D01*
X786Y821D02*
X793Y821D01*
X815Y821D02*
X847Y821D01*
X869Y821D02*
X897Y821D01*
X929Y821D02*
X961Y821D01*
X1014Y821D02*
X1021Y821D01*
X1041Y821D02*
X1068Y821D01*
X1097Y821D02*
X1131Y821D01*
X1154Y821D02*
X1162Y821D01*
X1184Y821D02*
X1191Y821D01*
X444Y820D02*
X451Y820D01*
X474Y820D02*
X504Y820D01*
X529Y820D02*
X555Y820D01*
X584Y820D02*
X614Y820D01*
X641Y820D02*
X675Y820D01*
X698Y820D02*
X705Y820D01*
X729Y820D02*
X736Y820D01*
X755Y820D02*
X762Y820D01*
X786Y820D02*
X793Y820D01*
X816Y820D02*
X846Y820D01*
X869Y820D02*
X896Y820D01*
X930Y820D02*
X960Y820D01*
X1014Y820D02*
X1021Y820D01*
X1041Y820D02*
X1068Y820D01*
X1097Y820D02*
X1130Y820D01*
X1153Y820D02*
X1162Y820D01*
X1184Y820D02*
X1191Y820D01*
X444Y819D02*
X451Y819D01*
X475Y819D02*
X503Y819D01*
X530Y819D02*
X555Y819D01*
X584Y819D02*
X613Y819D01*
X641Y819D02*
X674Y819D01*
X698Y819D02*
X705Y819D01*
X729Y819D02*
X736Y819D01*
X755Y819D02*
X762Y819D01*
X786Y819D02*
X793Y819D01*
X817Y819D02*
X845Y819D01*
X869Y819D02*
X895Y819D01*
X931Y819D02*
X959Y819D01*
X1014Y819D02*
X1021Y819D01*
X1042Y819D02*
X1067Y819D01*
X1096Y819D02*
X1129Y819D01*
X1153Y819D02*
X1161Y819D01*
X1184Y819D02*
X1191Y819D01*
X444Y818D02*
X451Y818D01*
X476Y818D02*
X502Y818D01*
X531Y818D02*
X554Y818D01*
X584Y818D02*
X612Y818D01*
X641Y818D02*
X673Y818D01*
X698Y818D02*
X705Y818D01*
X729Y818D02*
X736Y818D01*
X755Y818D02*
X762Y818D01*
X786Y818D02*
X793Y818D01*
X818Y818D02*
X844Y818D01*
X869Y818D02*
X894Y818D01*
X932Y818D02*
X957Y818D01*
X1014Y818D02*
X1020Y818D01*
X1043Y818D02*
X1066Y818D01*
X1096Y818D02*
X1128Y818D01*
X1153Y818D02*
X1160Y818D01*
X1185Y818D02*
X1191Y818D01*
X445Y817D02*
X451Y817D01*
X478Y817D02*
X501Y817D01*
X532Y817D02*
X553Y817D01*
X584Y817D02*
X611Y817D01*
X641Y817D02*
X672Y817D01*
X698Y817D02*
X704Y817D01*
X729Y817D02*
X736Y817D01*
X755Y817D02*
X761Y817D01*
X786Y817D02*
X793Y817D01*
X819Y817D02*
X842Y817D01*
X869Y817D02*
X893Y817D01*
X933Y817D02*
X956Y817D01*
X1014Y817D02*
X1020Y817D01*
X1044Y817D02*
X1065Y817D01*
X1097Y817D02*
X1127Y817D01*
X1154Y817D02*
X1160Y817D01*
X1185Y817D02*
X1191Y817D01*
X445Y816D02*
X450Y816D01*
X479Y816D02*
X499Y816D01*
X533Y816D02*
X551Y816D01*
X585Y816D02*
X609Y816D01*
X642Y816D02*
X670Y816D01*
X699Y816D02*
X704Y816D01*
X730Y816D02*
X735Y816D01*
X756Y816D02*
X761Y816D01*
X787Y816D02*
X792Y816D01*
X821Y816D02*
X841Y816D01*
X870Y816D02*
X891Y816D01*
X935Y816D02*
X954Y816D01*
X1015Y816D02*
X1020Y816D01*
X1046Y816D02*
X1063Y816D01*
X1097Y816D02*
X1125Y816D01*
X1154Y816D02*
X1159Y816D01*
X1185Y816D02*
X1190Y816D01*
X447Y815D02*
X449Y815D01*
X482Y815D02*
X496Y815D01*
X536Y815D02*
X549Y815D01*
X586Y815D02*
X607Y815D01*
X643Y815D02*
X667Y815D01*
X700Y815D02*
X702Y815D01*
X731Y815D02*
X734Y815D01*
X757Y815D02*
X759Y815D01*
X788Y815D02*
X791Y815D01*
X823Y815D02*
X838Y815D01*
X871Y815D02*
X889Y815D01*
X937Y815D02*
X952Y815D01*
X1016Y815D02*
X1018Y815D01*
X1048Y815D02*
X1061Y815D01*
X1099Y815D02*
X1123Y815D01*
X1156Y815D02*
X1158Y815D01*
X1187Y815D02*
X1189Y815D01*
X379Y782D02*
X389Y782D01*
X813Y782D02*
X822Y782D01*
X378Y781D02*
X390Y781D01*
X812Y781D02*
X824Y781D01*
X377Y780D02*
X390Y780D01*
X811Y780D02*
X824Y780D01*
X377Y779D02*
X391Y779D01*
X811Y779D02*
X825Y779D01*
X143Y778D02*
X147Y778D01*
X235Y778D02*
X254Y778D01*
X377Y778D02*
X391Y778D01*
X472Y778D02*
X476Y778D01*
X511Y778D02*
X543Y778D01*
X688Y778D02*
X692Y778D01*
X811Y778D02*
X825Y778D01*
X1160Y778D02*
X1164Y778D01*
X141Y777D02*
X148Y777D01*
X234Y777D02*
X255Y777D01*
X377Y777D02*
X391Y777D01*
X470Y777D02*
X477Y777D01*
X509Y777D02*
X545Y777D01*
X687Y777D02*
X694Y777D01*
X811Y777D02*
X825Y777D01*
X1159Y777D02*
X1165Y777D01*
X141Y776D02*
X149Y776D01*
X233Y776D02*
X256Y776D01*
X377Y776D02*
X391Y776D01*
X470Y776D02*
X477Y776D01*
X507Y776D02*
X546Y776D01*
X686Y776D02*
X694Y776D01*
X811Y776D02*
X825Y776D01*
X1158Y776D02*
X1166Y776D01*
X140Y775D02*
X149Y775D01*
X233Y775D02*
X256Y775D01*
X377Y775D02*
X391Y775D01*
X469Y775D02*
X478Y775D01*
X506Y775D02*
X547Y775D01*
X686Y775D02*
X695Y775D01*
X811Y775D02*
X825Y775D01*
X1157Y775D02*
X1166Y775D01*
X140Y774D02*
X149Y774D01*
X232Y774D02*
X256Y774D01*
X377Y774D02*
X391Y774D01*
X469Y774D02*
X478Y774D01*
X505Y774D02*
X548Y774D01*
X686Y774D02*
X695Y774D01*
X811Y774D02*
X825Y774D01*
X896Y774D02*
X899Y774D01*
X1157Y774D02*
X1166Y774D01*
X140Y773D02*
X149Y773D01*
X232Y773D02*
X256Y773D01*
X377Y773D02*
X391Y773D01*
X469Y773D02*
X478Y773D01*
X504Y773D02*
X549Y773D01*
X686Y773D02*
X695Y773D01*
X811Y773D02*
X825Y773D01*
X894Y773D02*
X900Y773D01*
X1157Y773D02*
X1166Y773D01*
X140Y772D02*
X149Y772D01*
X232Y772D02*
X256Y772D01*
X377Y772D02*
X391Y772D01*
X469Y772D02*
X478Y772D01*
X503Y772D02*
X549Y772D01*
X686Y772D02*
X695Y772D01*
X811Y772D02*
X824Y772D01*
X894Y772D02*
X901Y772D01*
X1157Y772D02*
X1166Y772D01*
X140Y771D02*
X149Y771D01*
X232Y771D02*
X255Y771D01*
X378Y771D02*
X390Y771D01*
X469Y771D02*
X478Y771D01*
X503Y771D02*
X550Y771D01*
X686Y771D02*
X695Y771D01*
X812Y771D02*
X824Y771D01*
X893Y771D02*
X902Y771D01*
X1157Y771D02*
X1166Y771D01*
X140Y770D02*
X149Y770D01*
X232Y770D02*
X255Y770D01*
X379Y770D02*
X389Y770D01*
X469Y770D02*
X478Y770D01*
X502Y770D02*
X550Y770D01*
X686Y770D02*
X695Y770D01*
X812Y770D02*
X823Y770D01*
X893Y770D02*
X902Y770D01*
X1157Y770D02*
X1166Y770D01*
X140Y769D02*
X149Y769D01*
X232Y769D02*
X253Y769D01*
X380Y769D02*
X388Y769D01*
X469Y769D02*
X478Y769D01*
X502Y769D02*
X550Y769D01*
X686Y769D02*
X695Y769D01*
X814Y769D02*
X821Y769D01*
X893Y769D02*
X902Y769D01*
X1157Y769D02*
X1166Y769D01*
X140Y768D02*
X149Y768D01*
X232Y768D02*
X241Y768D01*
X469Y768D02*
X478Y768D01*
X502Y768D02*
X512Y768D01*
X541Y768D02*
X550Y768D01*
X686Y768D02*
X695Y768D01*
X893Y768D02*
X902Y768D01*
X1157Y768D02*
X1166Y768D01*
X140Y767D02*
X149Y767D01*
X232Y767D02*
X241Y767D01*
X469Y767D02*
X478Y767D01*
X502Y767D02*
X511Y767D01*
X541Y767D02*
X550Y767D01*
X686Y767D02*
X695Y767D01*
X893Y767D02*
X902Y767D01*
X1157Y767D02*
X1166Y767D01*
X140Y766D02*
X149Y766D01*
X232Y766D02*
X241Y766D01*
X469Y766D02*
X478Y766D01*
X502Y766D02*
X511Y766D01*
X541Y766D02*
X550Y766D01*
X686Y766D02*
X695Y766D01*
X893Y766D02*
X902Y766D01*
X1157Y766D02*
X1166Y766D01*
X140Y765D02*
X149Y765D01*
X232Y765D02*
X241Y765D01*
X469Y765D02*
X478Y765D01*
X502Y765D02*
X511Y765D01*
X540Y765D02*
X550Y765D01*
X686Y765D02*
X695Y765D01*
X893Y765D02*
X902Y765D01*
X1157Y765D02*
X1166Y765D01*
X140Y764D02*
X149Y764D01*
X232Y764D02*
X241Y764D01*
X469Y764D02*
X478Y764D01*
X502Y764D02*
X510Y764D01*
X539Y764D02*
X550Y764D01*
X686Y764D02*
X695Y764D01*
X893Y764D02*
X902Y764D01*
X1157Y764D02*
X1166Y764D01*
X140Y763D02*
X149Y763D01*
X232Y763D02*
X241Y763D01*
X469Y763D02*
X478Y763D01*
X502Y763D02*
X510Y763D01*
X538Y763D02*
X549Y763D01*
X686Y763D02*
X695Y763D01*
X893Y763D02*
X902Y763D01*
X1157Y763D02*
X1166Y763D01*
X140Y762D02*
X149Y762D01*
X232Y762D02*
X241Y762D01*
X469Y762D02*
X478Y762D01*
X503Y762D02*
X509Y762D01*
X537Y762D02*
X549Y762D01*
X686Y762D02*
X695Y762D01*
X893Y762D02*
X902Y762D01*
X1157Y762D02*
X1166Y762D01*
X140Y761D02*
X149Y761D01*
X232Y761D02*
X241Y761D01*
X469Y761D02*
X478Y761D01*
X504Y761D02*
X508Y761D01*
X537Y761D02*
X548Y761D01*
X686Y761D02*
X695Y761D01*
X893Y761D02*
X902Y761D01*
X1157Y761D02*
X1166Y761D01*
X140Y760D02*
X149Y760D01*
X232Y760D02*
X241Y760D01*
X469Y760D02*
X478Y760D01*
X536Y760D02*
X548Y760D01*
X686Y760D02*
X695Y760D01*
X893Y760D02*
X902Y760D01*
X1157Y760D02*
X1166Y760D01*
X140Y759D02*
X149Y759D01*
X232Y759D02*
X241Y759D01*
X469Y759D02*
X478Y759D01*
X535Y759D02*
X547Y759D01*
X686Y759D02*
X695Y759D01*
X893Y759D02*
X902Y759D01*
X1157Y759D02*
X1166Y759D01*
X140Y758D02*
X149Y758D01*
X232Y758D02*
X241Y758D01*
X469Y758D02*
X478Y758D01*
X534Y758D02*
X546Y758D01*
X686Y758D02*
X695Y758D01*
X893Y758D02*
X902Y758D01*
X1157Y758D02*
X1166Y758D01*
X140Y757D02*
X149Y757D01*
X160Y757D02*
X174Y757D01*
X232Y757D02*
X241Y757D01*
X299Y757D02*
X319Y757D01*
X380Y757D02*
X398Y757D01*
X442Y757D02*
X454Y757D01*
X469Y757D02*
X478Y757D01*
X534Y757D02*
X545Y757D01*
X654Y757D02*
X657Y757D01*
X686Y757D02*
X695Y757D01*
X721Y757D02*
X747Y757D01*
X814Y757D02*
X832Y757D01*
X871Y757D02*
X909Y757D01*
X946Y757D02*
X974Y757D01*
X1011Y757D02*
X1014Y757D01*
X1050Y757D02*
X1054Y757D01*
X1095Y757D02*
X1114Y757D01*
X1157Y757D02*
X1166Y757D01*
X140Y756D02*
X149Y756D01*
X157Y756D02*
X177Y756D01*
X232Y756D02*
X241Y756D01*
X297Y756D02*
X321Y756D01*
X378Y756D02*
X399Y756D01*
X439Y756D02*
X457Y756D01*
X469Y756D02*
X478Y756D01*
X533Y756D02*
X545Y756D01*
X653Y756D02*
X659Y756D01*
X686Y756D02*
X695Y756D01*
X720Y756D02*
X750Y756D01*
X812Y756D02*
X833Y756D01*
X870Y756D02*
X910Y756D01*
X943Y756D02*
X976Y756D01*
X1009Y756D02*
X1015Y756D01*
X1049Y756D02*
X1055Y756D01*
X1092Y756D02*
X1117Y756D01*
X1157Y756D02*
X1166Y756D01*
X140Y755D02*
X149Y755D01*
X156Y755D02*
X179Y755D01*
X232Y755D02*
X241Y755D01*
X295Y755D02*
X323Y755D01*
X378Y755D02*
X400Y755D01*
X437Y755D02*
X459Y755D01*
X469Y755D02*
X478Y755D01*
X532Y755D02*
X544Y755D01*
X652Y755D02*
X660Y755D01*
X686Y755D02*
X695Y755D01*
X719Y755D02*
X752Y755D01*
X811Y755D02*
X834Y755D01*
X869Y755D02*
X911Y755D01*
X941Y755D02*
X978Y755D01*
X1008Y755D02*
X1016Y755D01*
X1048Y755D02*
X1056Y755D01*
X1090Y755D02*
X1118Y755D01*
X1157Y755D02*
X1166Y755D01*
X140Y754D02*
X149Y754D01*
X154Y754D02*
X180Y754D01*
X232Y754D02*
X241Y754D01*
X294Y754D02*
X324Y754D01*
X377Y754D02*
X401Y754D01*
X436Y754D02*
X460Y754D01*
X469Y754D02*
X478Y754D01*
X531Y754D02*
X543Y754D01*
X651Y754D02*
X661Y754D01*
X686Y754D02*
X695Y754D01*
X719Y754D02*
X754Y754D01*
X811Y754D02*
X834Y754D01*
X868Y754D02*
X912Y754D01*
X940Y754D02*
X979Y754D01*
X1008Y754D02*
X1017Y754D01*
X1048Y754D02*
X1056Y754D01*
X1089Y754D02*
X1120Y754D01*
X1157Y754D02*
X1166Y754D01*
X140Y753D02*
X149Y753D01*
X153Y753D02*
X181Y753D01*
X232Y753D02*
X241Y753D01*
X292Y753D02*
X326Y753D01*
X377Y753D02*
X401Y753D01*
X435Y753D02*
X462Y753D01*
X469Y753D02*
X478Y753D01*
X530Y753D02*
X542Y753D01*
X651Y753D02*
X662Y753D01*
X686Y753D02*
X695Y753D01*
X719Y753D02*
X755Y753D01*
X811Y753D02*
X835Y753D01*
X868Y753D02*
X912Y753D01*
X939Y753D02*
X980Y753D01*
X1008Y753D02*
X1017Y753D01*
X1047Y753D02*
X1056Y753D01*
X1088Y753D02*
X1121Y753D01*
X1157Y753D02*
X1166Y753D01*
X140Y752D02*
X149Y752D01*
X152Y752D02*
X182Y752D01*
X232Y752D02*
X241Y752D01*
X291Y752D02*
X327Y752D01*
X377Y752D02*
X401Y752D01*
X434Y752D02*
X463Y752D01*
X469Y752D02*
X478Y752D01*
X530Y752D02*
X542Y752D01*
X651Y752D02*
X664Y752D01*
X686Y752D02*
X695Y752D01*
X719Y752D02*
X756Y752D01*
X811Y752D02*
X835Y752D01*
X868Y752D02*
X912Y752D01*
X938Y752D02*
X981Y752D01*
X1008Y752D02*
X1017Y752D01*
X1047Y752D02*
X1056Y752D01*
X1087Y752D02*
X1122Y752D01*
X1157Y752D02*
X1166Y752D01*
X140Y751D02*
X183Y751D01*
X232Y751D02*
X241Y751D01*
X290Y751D02*
X328Y751D01*
X377Y751D02*
X401Y751D01*
X433Y751D02*
X465Y751D01*
X469Y751D02*
X478Y751D01*
X529Y751D02*
X541Y751D01*
X651Y751D02*
X665Y751D01*
X686Y751D02*
X695Y751D01*
X719Y751D02*
X757Y751D01*
X811Y751D02*
X834Y751D01*
X868Y751D02*
X912Y751D01*
X937Y751D02*
X981Y751D01*
X1008Y751D02*
X1017Y751D01*
X1047Y751D02*
X1056Y751D01*
X1085Y751D02*
X1123Y751D01*
X1157Y751D02*
X1166Y751D01*
X140Y750D02*
X184Y750D01*
X232Y750D02*
X241Y750D01*
X289Y750D02*
X329Y750D01*
X377Y750D02*
X400Y750D01*
X433Y750D02*
X466Y750D01*
X469Y750D02*
X478Y750D01*
X528Y750D02*
X540Y750D01*
X652Y750D02*
X666Y750D01*
X686Y750D02*
X695Y750D01*
X719Y750D02*
X758Y750D01*
X811Y750D02*
X834Y750D01*
X869Y750D02*
X911Y750D01*
X937Y750D02*
X982Y750D01*
X1008Y750D02*
X1017Y750D01*
X1047Y750D02*
X1056Y750D01*
X1084Y750D02*
X1124Y750D01*
X1157Y750D02*
X1166Y750D01*
X140Y749D02*
X185Y749D01*
X232Y749D02*
X241Y749D01*
X288Y749D02*
X330Y749D01*
X377Y749D02*
X399Y749D01*
X432Y749D02*
X478Y749D01*
X527Y749D02*
X539Y749D01*
X653Y749D02*
X667Y749D01*
X686Y749D02*
X695Y749D01*
X720Y749D02*
X759Y749D01*
X811Y749D02*
X833Y749D01*
X870Y749D02*
X910Y749D01*
X937Y749D02*
X982Y749D01*
X1008Y749D02*
X1017Y749D01*
X1047Y749D02*
X1056Y749D01*
X1083Y749D02*
X1125Y749D01*
X1157Y749D02*
X1166Y749D01*
X140Y748D02*
X186Y748D01*
X232Y748D02*
X241Y748D01*
X287Y748D02*
X331Y748D01*
X377Y748D02*
X398Y748D01*
X432Y748D02*
X478Y748D01*
X526Y748D02*
X538Y748D01*
X654Y748D02*
X668Y748D01*
X686Y748D02*
X695Y748D01*
X721Y748D02*
X760Y748D01*
X811Y748D02*
X832Y748D01*
X871Y748D02*
X909Y748D01*
X936Y748D02*
X983Y748D01*
X1008Y748D02*
X1017Y748D01*
X1047Y748D02*
X1056Y748D01*
X1083Y748D02*
X1126Y748D01*
X1157Y748D02*
X1166Y748D01*
X140Y747D02*
X161Y747D01*
X173Y747D02*
X187Y747D01*
X232Y747D02*
X241Y747D01*
X287Y747D02*
X300Y747D01*
X318Y747D02*
X331Y747D01*
X377Y747D02*
X386Y747D01*
X431Y747D02*
X443Y747D01*
X453Y747D02*
X478Y747D01*
X526Y747D02*
X538Y747D01*
X655Y747D02*
X669Y747D01*
X686Y747D02*
X695Y747D01*
X747Y747D02*
X762Y747D01*
X811Y747D02*
X820Y747D01*
X893Y747D02*
X902Y747D01*
X937Y747D02*
X947Y747D01*
X973Y747D02*
X983Y747D01*
X1008Y747D02*
X1017Y747D01*
X1047Y747D02*
X1056Y747D01*
X1082Y747D02*
X1096Y747D01*
X1113Y747D02*
X1126Y747D01*
X1157Y747D02*
X1166Y747D01*
X140Y746D02*
X159Y746D01*
X175Y746D02*
X187Y746D01*
X232Y746D02*
X241Y746D01*
X286Y746D02*
X299Y746D01*
X319Y746D02*
X332Y746D01*
X377Y746D02*
X386Y746D01*
X431Y746D02*
X441Y746D01*
X455Y746D02*
X478Y746D01*
X525Y746D02*
X537Y746D01*
X656Y746D02*
X671Y746D01*
X686Y746D02*
X695Y746D01*
X748Y746D02*
X763Y746D01*
X811Y746D02*
X820Y746D01*
X893Y746D02*
X902Y746D01*
X937Y746D02*
X946Y746D01*
X974Y746D02*
X983Y746D01*
X1008Y746D02*
X1017Y746D01*
X1047Y746D02*
X1056Y746D01*
X1081Y746D02*
X1094Y746D01*
X1115Y746D02*
X1127Y746D01*
X1157Y746D02*
X1166Y746D01*
X140Y745D02*
X158Y745D01*
X176Y745D02*
X188Y745D01*
X232Y745D02*
X241Y745D01*
X286Y745D02*
X297Y745D01*
X321Y745D02*
X332Y745D01*
X377Y745D02*
X386Y745D01*
X431Y745D02*
X440Y745D01*
X456Y745D02*
X478Y745D01*
X524Y745D02*
X536Y745D01*
X657Y745D02*
X672Y745D01*
X686Y745D02*
X695Y745D01*
X749Y745D02*
X764Y745D01*
X811Y745D02*
X820Y745D01*
X893Y745D02*
X902Y745D01*
X938Y745D02*
X944Y745D01*
X974Y745D02*
X983Y745D01*
X1008Y745D02*
X1017Y745D01*
X1047Y745D02*
X1056Y745D01*
X1081Y745D02*
X1092Y745D01*
X1116Y745D02*
X1127Y745D01*
X1157Y745D02*
X1166Y745D01*
X140Y744D02*
X157Y744D01*
X177Y744D02*
X188Y744D01*
X232Y744D02*
X241Y744D01*
X285Y744D02*
X296Y744D01*
X322Y744D02*
X333Y744D01*
X377Y744D02*
X386Y744D01*
X431Y744D02*
X440Y744D01*
X458Y744D02*
X478Y744D01*
X523Y744D02*
X535Y744D01*
X658Y744D02*
X673Y744D01*
X686Y744D02*
X695Y744D01*
X750Y744D02*
X764Y744D01*
X811Y744D02*
X820Y744D01*
X893Y744D02*
X902Y744D01*
X939Y744D02*
X943Y744D01*
X974Y744D02*
X983Y744D01*
X1008Y744D02*
X1017Y744D01*
X1047Y744D02*
X1056Y744D01*
X1081Y744D02*
X1091Y744D01*
X1117Y744D02*
X1128Y744D01*
X1157Y744D02*
X1166Y744D01*
X140Y743D02*
X156Y743D01*
X178Y743D02*
X188Y743D01*
X232Y743D02*
X241Y743D01*
X285Y743D02*
X295Y743D01*
X323Y743D02*
X333Y743D01*
X377Y743D02*
X386Y743D01*
X431Y743D02*
X440Y743D01*
X460Y743D02*
X478Y743D01*
X523Y743D02*
X535Y743D01*
X660Y743D02*
X674Y743D01*
X686Y743D02*
X695Y743D01*
X752Y743D02*
X765Y743D01*
X811Y743D02*
X820Y743D01*
X893Y743D02*
X902Y743D01*
X973Y743D02*
X983Y743D01*
X1008Y743D02*
X1018Y743D01*
X1046Y743D02*
X1056Y743D01*
X1080Y743D02*
X1090Y743D01*
X1118Y743D02*
X1128Y743D01*
X1157Y743D02*
X1166Y743D01*
X140Y742D02*
X155Y742D01*
X179Y742D02*
X189Y742D01*
X232Y742D02*
X241Y742D01*
X285Y742D02*
X295Y742D01*
X324Y742D02*
X333Y742D01*
X377Y742D02*
X386Y742D01*
X431Y742D02*
X440Y742D01*
X461Y742D02*
X478Y742D01*
X522Y742D02*
X534Y742D01*
X661Y742D02*
X675Y742D01*
X686Y742D02*
X695Y742D01*
X753Y742D02*
X766Y742D01*
X811Y742D02*
X820Y742D01*
X893Y742D02*
X902Y742D01*
X972Y742D02*
X983Y742D01*
X1008Y742D02*
X1018Y742D01*
X1046Y742D02*
X1056Y742D01*
X1080Y742D02*
X1090Y742D01*
X1119Y742D02*
X1128Y742D01*
X1157Y742D02*
X1166Y742D01*
X140Y741D02*
X153Y741D01*
X179Y741D02*
X189Y741D01*
X232Y741D02*
X241Y741D01*
X285Y741D02*
X294Y741D01*
X324Y741D02*
X333Y741D01*
X377Y741D02*
X386Y741D01*
X430Y741D02*
X440Y741D01*
X463Y741D02*
X478Y741D01*
X521Y741D02*
X533Y741D01*
X662Y741D02*
X676Y741D01*
X686Y741D02*
X695Y741D01*
X754Y741D02*
X766Y741D01*
X811Y741D02*
X820Y741D01*
X893Y741D02*
X902Y741D01*
X970Y741D02*
X982Y741D01*
X1009Y741D02*
X1019Y741D01*
X1046Y741D02*
X1056Y741D01*
X1080Y741D02*
X1089Y741D01*
X1119Y741D02*
X1129Y741D01*
X1157Y741D02*
X1166Y741D01*
X140Y740D02*
X152Y740D01*
X180Y740D02*
X189Y740D01*
X232Y740D02*
X241Y740D01*
X285Y740D02*
X294Y740D01*
X324Y740D02*
X333Y740D01*
X377Y740D02*
X386Y740D01*
X430Y740D02*
X440Y740D01*
X464Y740D02*
X478Y740D01*
X520Y740D02*
X532Y740D01*
X663Y740D02*
X678Y740D01*
X686Y740D02*
X695Y740D01*
X755Y740D02*
X766Y740D01*
X811Y740D02*
X820Y740D01*
X893Y740D02*
X902Y740D01*
X967Y740D02*
X982Y740D01*
X1009Y740D02*
X1019Y740D01*
X1045Y740D02*
X1055Y740D01*
X1080Y740D02*
X1089Y740D01*
X1120Y740D02*
X1129Y740D01*
X1157Y740D02*
X1166Y740D01*
X140Y739D02*
X151Y739D01*
X180Y739D02*
X189Y739D01*
X232Y739D02*
X241Y739D01*
X285Y739D02*
X294Y739D01*
X324Y739D02*
X333Y739D01*
X377Y739D02*
X386Y739D01*
X430Y739D02*
X440Y739D01*
X466Y739D02*
X478Y739D01*
X519Y739D02*
X531Y739D01*
X664Y739D02*
X679Y739D01*
X686Y739D02*
X695Y739D01*
X756Y739D02*
X767Y739D01*
X811Y739D02*
X820Y739D01*
X893Y739D02*
X902Y739D01*
X965Y739D02*
X981Y739D01*
X1009Y739D02*
X1019Y739D01*
X1045Y739D02*
X1055Y739D01*
X1080Y739D02*
X1089Y739D01*
X1120Y739D02*
X1129Y739D01*
X1157Y739D02*
X1166Y739D01*
X140Y738D02*
X150Y738D01*
X180Y738D02*
X189Y738D01*
X232Y738D02*
X241Y738D01*
X285Y738D02*
X294Y738D01*
X324Y738D02*
X333Y738D01*
X377Y738D02*
X386Y738D01*
X430Y738D02*
X439Y738D01*
X467Y738D02*
X478Y738D01*
X519Y738D02*
X531Y738D01*
X665Y738D02*
X680Y738D01*
X686Y738D02*
X695Y738D01*
X757Y738D02*
X767Y738D01*
X811Y738D02*
X820Y738D01*
X893Y738D02*
X902Y738D01*
X963Y738D02*
X981Y738D01*
X1010Y738D02*
X1020Y738D01*
X1044Y738D02*
X1054Y738D01*
X1080Y738D02*
X1089Y738D01*
X1120Y738D02*
X1129Y738D01*
X1157Y738D02*
X1166Y738D01*
X140Y737D02*
X150Y737D01*
X180Y737D02*
X189Y737D01*
X232Y737D02*
X241Y737D01*
X285Y737D02*
X294Y737D01*
X324Y737D02*
X333Y737D01*
X377Y737D02*
X386Y737D01*
X430Y737D02*
X439Y737D01*
X469Y737D02*
X478Y737D01*
X518Y737D02*
X530Y737D01*
X667Y737D02*
X681Y737D01*
X686Y737D02*
X695Y737D01*
X758Y737D02*
X767Y737D01*
X811Y737D02*
X820Y737D01*
X893Y737D02*
X902Y737D01*
X960Y737D02*
X980Y737D01*
X1010Y737D02*
X1020Y737D01*
X1044Y737D02*
X1054Y737D01*
X1080Y737D02*
X1089Y737D01*
X1120Y737D02*
X1129Y737D01*
X1157Y737D02*
X1166Y737D01*
X140Y736D02*
X149Y736D01*
X180Y736D02*
X189Y736D01*
X232Y736D02*
X241Y736D01*
X285Y736D02*
X294Y736D01*
X324Y736D02*
X333Y736D01*
X377Y736D02*
X386Y736D01*
X430Y736D02*
X439Y736D01*
X469Y736D02*
X478Y736D01*
X517Y736D02*
X529Y736D01*
X668Y736D02*
X682Y736D01*
X686Y736D02*
X695Y736D01*
X758Y736D02*
X767Y736D01*
X811Y736D02*
X820Y736D01*
X893Y736D02*
X902Y736D01*
X958Y736D02*
X979Y736D01*
X1011Y736D02*
X1021Y736D01*
X1043Y736D02*
X1053Y736D01*
X1080Y736D02*
X1089Y736D01*
X1120Y736D02*
X1129Y736D01*
X1157Y736D02*
X1166Y736D01*
X1190Y736D02*
X1193Y736D01*
X140Y735D02*
X149Y735D01*
X180Y735D02*
X189Y735D01*
X232Y735D02*
X241Y735D01*
X285Y735D02*
X294Y735D01*
X324Y735D02*
X333Y735D01*
X377Y735D02*
X386Y735D01*
X430Y735D02*
X439Y735D01*
X469Y735D02*
X478Y735D01*
X516Y735D02*
X528Y735D01*
X669Y735D02*
X684Y735D01*
X686Y735D02*
X695Y735D01*
X758Y735D02*
X767Y735D01*
X811Y735D02*
X820Y735D01*
X893Y735D02*
X902Y735D01*
X956Y735D02*
X978Y735D01*
X1011Y735D02*
X1021Y735D01*
X1043Y735D02*
X1053Y735D01*
X1080Y735D02*
X1089Y735D01*
X1120Y735D02*
X1129Y735D01*
X1157Y735D02*
X1166Y735D01*
X1189Y735D02*
X1194Y735D01*
X140Y734D02*
X149Y734D01*
X180Y734D02*
X189Y734D01*
X232Y734D02*
X241Y734D01*
X285Y734D02*
X294Y734D01*
X324Y734D02*
X333Y734D01*
X377Y734D02*
X386Y734D01*
X430Y734D02*
X439Y734D01*
X469Y734D02*
X478Y734D01*
X516Y734D02*
X528Y734D01*
X670Y734D02*
X695Y734D01*
X758Y734D02*
X767Y734D01*
X811Y734D02*
X820Y734D01*
X893Y734D02*
X902Y734D01*
X953Y734D02*
X977Y734D01*
X1012Y734D02*
X1022Y734D01*
X1043Y734D02*
X1053Y734D01*
X1080Y734D02*
X1089Y734D01*
X1120Y734D02*
X1129Y734D01*
X1157Y734D02*
X1166Y734D01*
X1188Y734D02*
X1195Y734D01*
X140Y733D02*
X149Y733D01*
X180Y733D02*
X189Y733D01*
X232Y733D02*
X241Y733D01*
X285Y733D02*
X294Y733D01*
X324Y733D02*
X333Y733D01*
X377Y733D02*
X386Y733D01*
X430Y733D02*
X439Y733D01*
X469Y733D02*
X478Y733D01*
X515Y733D02*
X527Y733D01*
X671Y733D02*
X695Y733D01*
X758Y733D02*
X767Y733D01*
X811Y733D02*
X820Y733D01*
X893Y733D02*
X902Y733D01*
X951Y733D02*
X975Y733D01*
X1012Y733D02*
X1022Y733D01*
X1042Y733D02*
X1052Y733D01*
X1080Y733D02*
X1089Y733D01*
X1120Y733D02*
X1129Y733D01*
X1157Y733D02*
X1166Y733D01*
X1187Y733D02*
X1196Y733D01*
X140Y732D02*
X149Y732D01*
X180Y732D02*
X189Y732D01*
X232Y732D02*
X241Y732D01*
X285Y732D02*
X333Y732D01*
X377Y732D02*
X386Y732D01*
X430Y732D02*
X439Y732D01*
X469Y732D02*
X478Y732D01*
X514Y732D02*
X526Y732D01*
X672Y732D02*
X695Y732D01*
X758Y732D02*
X767Y732D01*
X811Y732D02*
X820Y732D01*
X893Y732D02*
X902Y732D01*
X949Y732D02*
X973Y732D01*
X1012Y732D02*
X1023Y732D01*
X1042Y732D02*
X1052Y732D01*
X1080Y732D02*
X1089Y732D01*
X1120Y732D02*
X1129Y732D01*
X1157Y732D02*
X1166Y732D01*
X1187Y732D02*
X1196Y732D01*
X140Y731D02*
X149Y731D01*
X180Y731D02*
X189Y731D01*
X232Y731D02*
X241Y731D01*
X285Y731D02*
X333Y731D01*
X377Y731D02*
X386Y731D01*
X430Y731D02*
X439Y731D01*
X469Y731D02*
X478Y731D01*
X513Y731D02*
X525Y731D01*
X673Y731D02*
X695Y731D01*
X758Y731D02*
X767Y731D01*
X811Y731D02*
X820Y731D01*
X893Y731D02*
X902Y731D01*
X946Y731D02*
X971Y731D01*
X1013Y731D02*
X1023Y731D01*
X1041Y731D02*
X1051Y731D01*
X1080Y731D02*
X1089Y731D01*
X1120Y731D02*
X1129Y731D01*
X1157Y731D02*
X1166Y731D01*
X1187Y731D02*
X1196Y731D01*
X140Y730D02*
X149Y730D01*
X180Y730D02*
X189Y730D01*
X232Y730D02*
X241Y730D01*
X285Y730D02*
X333Y730D01*
X377Y730D02*
X386Y730D01*
X430Y730D02*
X439Y730D01*
X469Y730D02*
X478Y730D01*
X512Y730D02*
X524Y730D01*
X672Y730D02*
X695Y730D01*
X758Y730D02*
X767Y730D01*
X811Y730D02*
X820Y730D01*
X893Y730D02*
X902Y730D01*
X944Y730D02*
X969Y730D01*
X1013Y730D02*
X1023Y730D01*
X1041Y730D02*
X1051Y730D01*
X1080Y730D02*
X1089Y730D01*
X1120Y730D02*
X1129Y730D01*
X1157Y730D02*
X1166Y730D01*
X1187Y730D02*
X1196Y730D01*
X140Y729D02*
X149Y729D01*
X180Y729D02*
X189Y729D01*
X232Y729D02*
X241Y729D01*
X285Y729D02*
X333Y729D01*
X377Y729D02*
X386Y729D01*
X430Y729D02*
X439Y729D01*
X469Y729D02*
X478Y729D01*
X512Y729D02*
X524Y729D01*
X671Y729D02*
X695Y729D01*
X758Y729D02*
X767Y729D01*
X811Y729D02*
X820Y729D01*
X893Y729D02*
X902Y729D01*
X942Y729D02*
X966Y729D01*
X1014Y729D02*
X1024Y729D01*
X1040Y729D02*
X1050Y729D01*
X1080Y729D02*
X1089Y729D01*
X1120Y729D02*
X1129Y729D01*
X1157Y729D02*
X1166Y729D01*
X1187Y729D02*
X1196Y729D01*
X140Y728D02*
X149Y728D01*
X180Y728D02*
X189Y728D01*
X232Y728D02*
X241Y728D01*
X285Y728D02*
X333Y728D01*
X377Y728D02*
X386Y728D01*
X430Y728D02*
X439Y728D01*
X469Y728D02*
X478Y728D01*
X511Y728D02*
X523Y728D01*
X669Y728D02*
X695Y728D01*
X758Y728D02*
X767Y728D01*
X811Y728D02*
X820Y728D01*
X893Y728D02*
X902Y728D01*
X941Y728D02*
X964Y728D01*
X1014Y728D02*
X1024Y728D01*
X1040Y728D02*
X1050Y728D01*
X1080Y728D02*
X1089Y728D01*
X1120Y728D02*
X1129Y728D01*
X1157Y728D02*
X1166Y728D01*
X1187Y728D02*
X1196Y728D01*
X140Y727D02*
X149Y727D01*
X180Y727D02*
X189Y727D01*
X232Y727D02*
X241Y727D01*
X285Y727D02*
X333Y727D01*
X377Y727D02*
X386Y727D01*
X430Y727D02*
X439Y727D01*
X469Y727D02*
X478Y727D01*
X510Y727D02*
X522Y727D01*
X668Y727D02*
X695Y727D01*
X758Y727D02*
X767Y727D01*
X811Y727D02*
X820Y727D01*
X893Y727D02*
X902Y727D01*
X940Y727D02*
X962Y727D01*
X1015Y727D02*
X1025Y727D01*
X1039Y727D02*
X1049Y727D01*
X1080Y727D02*
X1089Y727D01*
X1120Y727D02*
X1129Y727D01*
X1157Y727D02*
X1166Y727D01*
X1187Y727D02*
X1196Y727D01*
X140Y726D02*
X149Y726D01*
X180Y726D02*
X189Y726D01*
X232Y726D02*
X241Y726D01*
X285Y726D02*
X333Y726D01*
X377Y726D02*
X386Y726D01*
X430Y726D02*
X439Y726D01*
X469Y726D02*
X478Y726D01*
X509Y726D02*
X521Y726D01*
X667Y726D02*
X695Y726D01*
X758Y726D02*
X767Y726D01*
X811Y726D02*
X820Y726D01*
X893Y726D02*
X902Y726D01*
X939Y726D02*
X959Y726D01*
X1015Y726D02*
X1025Y726D01*
X1039Y726D02*
X1049Y726D01*
X1080Y726D02*
X1089Y726D01*
X1120Y726D02*
X1129Y726D01*
X1157Y726D02*
X1166Y726D01*
X1187Y726D02*
X1196Y726D01*
X140Y725D02*
X149Y725D01*
X180Y725D02*
X189Y725D01*
X232Y725D02*
X241Y725D01*
X285Y725D02*
X333Y725D01*
X377Y725D02*
X386Y725D01*
X430Y725D02*
X439Y725D01*
X469Y725D02*
X478Y725D01*
X509Y725D02*
X521Y725D01*
X666Y725D02*
X695Y725D01*
X758Y725D02*
X767Y725D01*
X811Y725D02*
X820Y725D01*
X893Y725D02*
X902Y725D01*
X938Y725D02*
X957Y725D01*
X1016Y725D02*
X1026Y725D01*
X1039Y725D02*
X1049Y725D01*
X1080Y725D02*
X1089Y725D01*
X1120Y725D02*
X1129Y725D01*
X1157Y725D02*
X1166Y725D01*
X1187Y725D02*
X1196Y725D01*
X140Y724D02*
X149Y724D01*
X180Y724D02*
X189Y724D01*
X232Y724D02*
X241Y724D01*
X286Y724D02*
X333Y724D01*
X377Y724D02*
X386Y724D01*
X430Y724D02*
X439Y724D01*
X469Y724D02*
X478Y724D01*
X508Y724D02*
X520Y724D01*
X665Y724D02*
X679Y724D01*
X682Y724D02*
X695Y724D01*
X758Y724D02*
X767Y724D01*
X811Y724D02*
X820Y724D01*
X893Y724D02*
X902Y724D01*
X938Y724D02*
X955Y724D01*
X1016Y724D02*
X1026Y724D01*
X1038Y724D02*
X1048Y724D01*
X1080Y724D02*
X1089Y724D01*
X1120Y724D02*
X1129Y724D01*
X1157Y724D02*
X1166Y724D01*
X1187Y724D02*
X1196Y724D01*
X140Y723D02*
X149Y723D01*
X180Y723D02*
X189Y723D01*
X232Y723D02*
X241Y723D01*
X287Y723D02*
X333Y723D01*
X377Y723D02*
X386Y723D01*
X430Y723D02*
X439Y723D01*
X469Y723D02*
X478Y723D01*
X507Y723D02*
X519Y723D01*
X664Y723D02*
X678Y723D01*
X683Y723D02*
X695Y723D01*
X758Y723D02*
X767Y723D01*
X811Y723D02*
X820Y723D01*
X893Y723D02*
X902Y723D01*
X937Y723D02*
X952Y723D01*
X1016Y723D02*
X1027Y723D01*
X1038Y723D02*
X1048Y723D01*
X1080Y723D02*
X1089Y723D01*
X1120Y723D02*
X1129Y723D01*
X1157Y723D02*
X1166Y723D01*
X1187Y723D02*
X1196Y723D01*
X140Y722D02*
X149Y722D01*
X180Y722D02*
X189Y722D01*
X232Y722D02*
X241Y722D01*
X290Y722D02*
X333Y722D01*
X377Y722D02*
X386Y722D01*
X430Y722D02*
X439Y722D01*
X469Y722D02*
X478Y722D01*
X506Y722D02*
X518Y722D01*
X662Y722D02*
X677Y722D01*
X684Y722D02*
X695Y722D01*
X758Y722D02*
X767Y722D01*
X811Y722D02*
X820Y722D01*
X893Y722D02*
X902Y722D01*
X937Y722D02*
X950Y722D01*
X1017Y722D02*
X1027Y722D01*
X1037Y722D02*
X1047Y722D01*
X1080Y722D02*
X1089Y722D01*
X1120Y722D02*
X1129Y722D01*
X1157Y722D02*
X1166Y722D01*
X1187Y722D02*
X1196Y722D01*
X140Y721D02*
X150Y721D01*
X180Y721D02*
X189Y721D01*
X232Y721D02*
X241Y721D01*
X324Y721D02*
X333Y721D01*
X377Y721D02*
X386Y721D01*
X430Y721D02*
X439Y721D01*
X469Y721D02*
X478Y721D01*
X505Y721D02*
X518Y721D01*
X661Y721D02*
X676Y721D01*
X685Y721D02*
X695Y721D01*
X758Y721D02*
X767Y721D01*
X811Y721D02*
X820Y721D01*
X893Y721D02*
X902Y721D01*
X936Y721D02*
X948Y721D01*
X1017Y721D02*
X1027Y721D01*
X1037Y721D02*
X1047Y721D01*
X1080Y721D02*
X1089Y721D01*
X1120Y721D02*
X1129Y721D01*
X1157Y721D02*
X1166Y721D01*
X1187Y721D02*
X1196Y721D01*
X140Y720D02*
X150Y720D01*
X180Y720D02*
X189Y720D01*
X232Y720D02*
X241Y720D01*
X324Y720D02*
X333Y720D01*
X377Y720D02*
X386Y720D01*
X430Y720D02*
X439Y720D01*
X469Y720D02*
X478Y720D01*
X505Y720D02*
X517Y720D01*
X660Y720D02*
X675Y720D01*
X686Y720D02*
X695Y720D01*
X757Y720D02*
X767Y720D01*
X811Y720D02*
X820Y720D01*
X893Y720D02*
X902Y720D01*
X936Y720D02*
X946Y720D01*
X1018Y720D02*
X1028Y720D01*
X1036Y720D02*
X1046Y720D01*
X1080Y720D02*
X1089Y720D01*
X1120Y720D02*
X1129Y720D01*
X1157Y720D02*
X1166Y720D01*
X1187Y720D02*
X1196Y720D01*
X140Y719D02*
X151Y719D01*
X180Y719D02*
X189Y719D01*
X232Y719D02*
X241Y719D01*
X324Y719D02*
X333Y719D01*
X377Y719D02*
X386Y719D01*
X430Y719D02*
X439Y719D01*
X469Y719D02*
X478Y719D01*
X504Y719D02*
X516Y719D01*
X545Y719D02*
X547Y719D01*
X659Y719D02*
X673Y719D01*
X686Y719D02*
X695Y719D01*
X756Y719D02*
X767Y719D01*
X811Y719D02*
X820Y719D01*
X866Y719D02*
X869Y719D01*
X893Y719D02*
X902Y719D01*
X936Y719D02*
X945Y719D01*
X1018Y719D02*
X1028Y719D01*
X1036Y719D02*
X1046Y719D01*
X1080Y719D02*
X1089Y719D01*
X1120Y719D02*
X1129Y719D01*
X1157Y719D02*
X1166Y719D01*
X1187Y719D02*
X1196Y719D01*
X140Y718D02*
X153Y718D01*
X180Y718D02*
X189Y718D01*
X232Y718D02*
X241Y718D01*
X324Y718D02*
X333Y718D01*
X377Y718D02*
X386Y718D01*
X430Y718D02*
X439Y718D01*
X469Y718D02*
X478Y718D01*
X503Y718D02*
X515Y718D01*
X543Y718D02*
X549Y718D01*
X658Y718D02*
X672Y718D01*
X686Y718D02*
X695Y718D01*
X755Y718D02*
X766Y718D01*
X811Y718D02*
X820Y718D01*
X865Y718D02*
X870Y718D01*
X893Y718D02*
X902Y718D01*
X936Y718D02*
X945Y718D01*
X1019Y718D02*
X1029Y718D01*
X1036Y718D02*
X1045Y718D01*
X1080Y718D02*
X1089Y718D01*
X1120Y718D02*
X1129Y718D01*
X1157Y718D02*
X1166Y718D01*
X1187Y718D02*
X1196Y718D01*
X140Y717D02*
X154Y717D01*
X179Y717D02*
X189Y717D01*
X232Y717D02*
X241Y717D01*
X324Y717D02*
X333Y717D01*
X377Y717D02*
X386Y717D01*
X430Y717D02*
X439Y717D01*
X469Y717D02*
X478Y717D01*
X503Y717D02*
X514Y717D01*
X542Y717D02*
X549Y717D01*
X657Y717D02*
X671Y717D01*
X686Y717D02*
X695Y717D01*
X754Y717D02*
X766Y717D01*
X811Y717D02*
X820Y717D01*
X864Y717D02*
X871Y717D01*
X893Y717D02*
X902Y717D01*
X935Y717D02*
X945Y717D01*
X1019Y717D02*
X1029Y717D01*
X1035Y717D02*
X1045Y717D01*
X1080Y717D02*
X1089Y717D01*
X1119Y717D02*
X1129Y717D01*
X1157Y717D02*
X1166Y717D01*
X1187Y717D02*
X1196Y717D01*
X140Y716D02*
X155Y716D01*
X179Y716D02*
X189Y716D01*
X232Y716D02*
X241Y716D01*
X323Y716D02*
X333Y716D01*
X377Y716D02*
X386Y716D01*
X430Y716D02*
X439Y716D01*
X469Y716D02*
X478Y716D01*
X502Y716D02*
X514Y716D01*
X542Y716D02*
X550Y716D01*
X655Y716D02*
X670Y716D01*
X686Y716D02*
X695Y716D01*
X752Y716D02*
X765Y716D01*
X811Y716D02*
X820Y716D01*
X863Y716D02*
X872Y716D01*
X893Y716D02*
X902Y716D01*
X935Y716D02*
X945Y716D01*
X1019Y716D02*
X1030Y716D01*
X1035Y716D02*
X1045Y716D01*
X1080Y716D02*
X1090Y716D01*
X1119Y716D02*
X1128Y716D01*
X1157Y716D02*
X1166Y716D01*
X1187Y716D02*
X1196Y716D01*
X140Y715D02*
X156Y715D01*
X178Y715D02*
X188Y715D01*
X232Y715D02*
X241Y715D01*
X323Y715D02*
X333Y715D01*
X377Y715D02*
X386Y715D01*
X430Y715D02*
X439Y715D01*
X469Y715D02*
X478Y715D01*
X502Y715D02*
X513Y715D01*
X541Y715D02*
X550Y715D01*
X654Y715D02*
X669Y715D01*
X686Y715D02*
X695Y715D01*
X751Y715D02*
X765Y715D01*
X811Y715D02*
X820Y715D01*
X863Y715D02*
X872Y715D01*
X893Y715D02*
X902Y715D01*
X936Y715D02*
X945Y715D01*
X1020Y715D02*
X1044Y715D01*
X1080Y715D02*
X1091Y715D01*
X1118Y715D02*
X1128Y715D01*
X1157Y715D02*
X1166Y715D01*
X1187Y715D02*
X1196Y715D01*
X140Y714D02*
X157Y714D01*
X177Y714D02*
X188Y714D01*
X232Y714D02*
X241Y714D01*
X321Y714D02*
X333Y714D01*
X377Y714D02*
X386Y714D01*
X430Y714D02*
X439Y714D01*
X469Y714D02*
X478Y714D01*
X502Y714D02*
X512Y714D01*
X541Y714D02*
X550Y714D01*
X653Y714D02*
X668Y714D01*
X686Y714D02*
X695Y714D01*
X750Y714D02*
X764Y714D01*
X811Y714D02*
X820Y714D01*
X863Y714D02*
X873Y714D01*
X892Y714D02*
X902Y714D01*
X936Y714D02*
X945Y714D01*
X977Y714D02*
X982Y714D01*
X1020Y714D02*
X1044Y714D01*
X1081Y714D02*
X1092Y714D01*
X1117Y714D02*
X1128Y714D01*
X1157Y714D02*
X1167Y714D01*
X1187Y714D02*
X1196Y714D01*
X140Y713D02*
X158Y713D01*
X176Y713D02*
X188Y713D01*
X232Y713D02*
X241Y713D01*
X320Y713D02*
X332Y713D01*
X377Y713D02*
X386Y713D01*
X430Y713D02*
X439Y713D01*
X469Y713D02*
X478Y713D01*
X502Y713D02*
X511Y713D01*
X541Y713D02*
X550Y713D01*
X652Y713D02*
X666Y713D01*
X686Y713D02*
X695Y713D01*
X749Y713D02*
X763Y713D01*
X811Y713D02*
X820Y713D01*
X863Y713D02*
X873Y713D01*
X892Y713D02*
X902Y713D01*
X936Y713D02*
X946Y713D01*
X976Y713D02*
X983Y713D01*
X1021Y713D02*
X1043Y713D01*
X1081Y713D02*
X1093Y713D01*
X1116Y713D02*
X1128Y713D01*
X1157Y713D02*
X1167Y713D01*
X1186Y713D02*
X1196Y713D01*
X140Y712D02*
X160Y712D01*
X174Y712D02*
X187Y712D01*
X232Y712D02*
X241Y712D01*
X319Y712D02*
X332Y712D01*
X377Y712D02*
X386Y712D01*
X430Y712D02*
X439Y712D01*
X469Y712D02*
X478Y712D01*
X502Y712D02*
X511Y712D01*
X540Y712D02*
X550Y712D01*
X651Y712D02*
X665Y712D01*
X686Y712D02*
X695Y712D01*
X748Y712D02*
X762Y712D01*
X811Y712D02*
X820Y712D01*
X863Y712D02*
X874Y712D01*
X891Y712D02*
X901Y712D01*
X936Y712D02*
X947Y712D01*
X974Y712D02*
X984Y712D01*
X1021Y712D02*
X1043Y712D01*
X1082Y712D02*
X1094Y712D01*
X1114Y712D02*
X1127Y712D01*
X1158Y712D02*
X1168Y712D01*
X1185Y712D02*
X1196Y712D01*
X140Y711D02*
X162Y711D01*
X172Y711D02*
X187Y711D01*
X232Y711D02*
X242Y711D01*
X317Y711D02*
X331Y711D01*
X377Y711D02*
X386Y711D01*
X430Y711D02*
X439Y711D01*
X469Y711D02*
X478Y711D01*
X502Y711D02*
X512Y711D01*
X539Y711D02*
X550Y711D01*
X650Y711D02*
X664Y711D01*
X686Y711D02*
X695Y711D01*
X745Y711D02*
X761Y711D01*
X810Y711D02*
X820Y711D01*
X864Y711D02*
X876Y711D01*
X889Y711D02*
X901Y711D01*
X936Y711D02*
X949Y711D01*
X972Y711D02*
X984Y711D01*
X1022Y711D02*
X1042Y711D01*
X1082Y711D02*
X1096Y711D01*
X1112Y711D02*
X1127Y711D01*
X1158Y711D02*
X1171Y711D01*
X1183Y711D02*
X1195Y711D01*
X140Y710D02*
X186Y710D01*
X220Y710D02*
X254Y710D01*
X287Y710D02*
X331Y710D01*
X364Y710D02*
X398Y710D01*
X429Y710D02*
X439Y710D01*
X469Y710D02*
X478Y710D01*
X502Y710D02*
X550Y710D01*
X648Y710D02*
X663Y710D01*
X686Y710D02*
X695Y710D01*
X721Y710D02*
X760Y710D01*
X798Y710D02*
X832Y710D01*
X864Y710D02*
X901Y710D01*
X937Y710D02*
X984Y710D01*
X1022Y710D02*
X1042Y710D01*
X1083Y710D02*
X1126Y710D01*
X1158Y710D02*
X1195Y710D01*
X140Y709D02*
X185Y709D01*
X219Y709D02*
X255Y709D01*
X286Y709D02*
X330Y709D01*
X363Y709D02*
X400Y709D01*
X429Y709D02*
X438Y709D01*
X469Y709D02*
X478Y709D01*
X502Y709D02*
X549Y709D01*
X647Y709D02*
X662Y709D01*
X686Y709D02*
X695Y709D01*
X720Y709D02*
X759Y709D01*
X797Y709D02*
X833Y709D01*
X865Y709D02*
X900Y709D01*
X937Y709D02*
X984Y709D01*
X1023Y709D02*
X1042Y709D01*
X1084Y709D02*
X1125Y709D01*
X1159Y709D02*
X1194Y709D01*
X140Y708D02*
X184Y708D01*
X218Y708D02*
X256Y708D01*
X285Y708D02*
X329Y708D01*
X363Y708D02*
X400Y708D01*
X429Y708D02*
X438Y708D01*
X469Y708D02*
X478Y708D01*
X502Y708D02*
X549Y708D01*
X647Y708D02*
X661Y708D01*
X686Y708D02*
X695Y708D01*
X719Y708D02*
X758Y708D01*
X796Y708D02*
X834Y708D01*
X865Y708D02*
X900Y708D01*
X938Y708D02*
X984Y708D01*
X1023Y708D02*
X1041Y708D01*
X1085Y708D02*
X1124Y708D01*
X1159Y708D02*
X1194Y708D01*
X140Y707D02*
X183Y707D01*
X218Y707D02*
X256Y707D01*
X285Y707D02*
X328Y707D01*
X362Y707D02*
X401Y707D01*
X429Y707D02*
X438Y707D01*
X469Y707D02*
X478Y707D01*
X503Y707D02*
X548Y707D01*
X646Y707D02*
X659Y707D01*
X686Y707D02*
X695Y707D01*
X719Y707D02*
X757Y707D01*
X796Y707D02*
X834Y707D01*
X866Y707D02*
X899Y707D01*
X939Y707D02*
X983Y707D01*
X1023Y707D02*
X1041Y707D01*
X1086Y707D02*
X1123Y707D01*
X1160Y707D02*
X1193Y707D01*
X140Y706D02*
X149Y706D01*
X152Y706D02*
X182Y706D01*
X217Y706D02*
X256Y706D01*
X285Y706D02*
X327Y706D01*
X362Y706D02*
X401Y706D01*
X429Y706D02*
X438Y706D01*
X469Y706D02*
X478Y706D01*
X504Y706D02*
X547Y706D01*
X646Y706D02*
X658Y706D01*
X686Y706D02*
X695Y706D01*
X718Y706D02*
X755Y706D01*
X796Y706D02*
X835Y706D01*
X867Y706D02*
X898Y706D01*
X939Y706D02*
X982Y706D01*
X1024Y706D02*
X1040Y706D01*
X1087Y706D02*
X1122Y706D01*
X1161Y706D02*
X1192Y706D01*
X140Y705D02*
X149Y705D01*
X153Y705D02*
X181Y705D01*
X218Y705D02*
X256Y705D01*
X285Y705D02*
X325Y705D01*
X362Y705D02*
X401Y705D01*
X430Y705D02*
X438Y705D01*
X469Y705D02*
X478Y705D01*
X504Y705D02*
X547Y705D01*
X646Y705D02*
X657Y705D01*
X686Y705D02*
X695Y705D01*
X719Y705D02*
X754Y705D01*
X796Y705D02*
X834Y705D01*
X868Y705D02*
X897Y705D01*
X940Y705D02*
X981Y705D01*
X1024Y705D02*
X1037Y705D01*
X1088Y705D02*
X1121Y705D01*
X1162Y705D02*
X1191Y705D01*
X140Y704D02*
X149Y704D01*
X154Y704D02*
X180Y704D01*
X218Y704D02*
X256Y704D01*
X285Y704D02*
X324Y704D01*
X362Y704D02*
X400Y704D01*
X430Y704D02*
X438Y704D01*
X469Y704D02*
X478Y704D01*
X505Y704D02*
X545Y704D01*
X647Y704D02*
X656Y704D01*
X686Y704D02*
X695Y704D01*
X719Y704D02*
X753Y704D01*
X796Y704D02*
X834Y704D01*
X869Y704D02*
X896Y704D01*
X941Y704D02*
X979Y704D01*
X1025Y704D02*
X1035Y704D01*
X1089Y704D02*
X1119Y704D01*
X1163Y704D02*
X1190Y704D01*
X141Y703D02*
X148Y703D01*
X156Y703D02*
X178Y703D01*
X218Y703D02*
X255Y703D01*
X286Y703D02*
X323Y703D01*
X363Y703D02*
X400Y703D01*
X430Y703D02*
X437Y703D01*
X470Y703D02*
X477Y703D01*
X506Y703D02*
X544Y703D01*
X647Y703D02*
X655Y703D01*
X687Y703D02*
X694Y703D01*
X719Y703D02*
X752Y703D01*
X797Y703D02*
X834Y703D01*
X870Y703D02*
X895Y703D01*
X943Y703D02*
X978Y703D01*
X1025Y703D02*
X1035Y703D01*
X1091Y703D02*
X1118Y703D01*
X1165Y703D02*
X1189Y703D01*
X142Y702D02*
X147Y702D01*
X158Y702D02*
X176Y702D01*
X219Y702D02*
X254Y702D01*
X287Y702D02*
X321Y702D01*
X364Y702D02*
X399Y702D01*
X431Y702D02*
X437Y702D01*
X471Y702D02*
X476Y702D01*
X508Y702D02*
X542Y702D01*
X648Y702D02*
X654Y702D01*
X688Y702D02*
X693Y702D01*
X720Y702D02*
X750Y702D01*
X798Y702D02*
X833Y702D01*
X872Y702D02*
X893Y702D01*
X945Y702D02*
X975Y702D01*
X1026Y702D02*
X1036Y702D01*
X1093Y702D02*
X1116Y702D01*
X1166Y702D02*
X1187Y702D01*
X144Y701D02*
X145Y701D01*
X161Y701D02*
X173Y701D01*
X221Y701D02*
X252Y701D01*
X288Y701D02*
X318Y701D01*
X366Y701D02*
X397Y701D01*
X433Y701D02*
X435Y701D01*
X473Y701D02*
X474Y701D01*
X511Y701D02*
X539Y701D01*
X650Y701D02*
X652Y701D01*
X690Y701D02*
X691Y701D01*
X722Y701D02*
X746Y701D01*
X800Y701D02*
X831Y701D01*
X875Y701D02*
X890Y701D01*
X948Y701D02*
X971Y701D01*
X1026Y701D02*
X1036Y701D01*
X1096Y701D02*
X1112Y701D01*
X1170Y701D02*
X1184Y701D01*
X1026Y700D02*
X1037Y700D01*
X1027Y699D02*
X1037Y699D01*
X1027Y698D02*
X1037Y698D01*
X1028Y697D02*
X1038Y697D01*
X1028Y696D02*
X1038Y696D01*
X1029Y695D02*
X1039Y695D01*
X1029Y694D02*
X1039Y694D01*
X1030Y693D02*
X1040Y693D01*
X1030Y692D02*
X1040Y692D01*
X1030Y691D02*
X1041Y691D01*
X1031Y690D02*
X1041Y690D01*
X1031Y689D02*
X1054Y689D01*
X1032Y688D02*
X1055Y688D01*
X1032Y687D02*
X1056Y687D01*
X1033Y686D02*
X1056Y686D01*
X1033Y685D02*
X1056Y685D01*
X1033Y684D02*
X1056Y684D01*
X1034Y683D02*
X1056Y683D01*
X1034Y682D02*
X1056Y682D01*
X1035Y681D02*
X1055Y681D01*
X1037Y680D02*
X1053Y680D01*
X566Y587D02*
X570Y587D01*
X663Y587D02*
X669Y587D01*
X712Y587D02*
X742Y587D01*
X763Y587D02*
X799Y587D01*
X818Y587D02*
X854Y587D01*
X1167Y587D02*
X1198Y587D01*
X565Y586D02*
X571Y586D01*
X661Y586D02*
X671Y586D01*
X710Y586D02*
X742Y586D01*
X762Y586D02*
X799Y586D01*
X818Y586D02*
X855Y586D01*
X1165Y586D02*
X1198Y586D01*
X565Y585D02*
X571Y585D01*
X660Y585D02*
X672Y585D01*
X708Y585D02*
X742Y585D01*
X761Y585D02*
X799Y585D01*
X818Y585D02*
X856Y585D01*
X1164Y585D02*
X1198Y585D01*
X388Y584D02*
X391Y584D01*
X445Y584D02*
X447Y584D01*
X564Y584D02*
X571Y584D01*
X659Y584D02*
X674Y584D01*
X707Y584D02*
X742Y584D01*
X761Y584D02*
X799Y584D01*
X818Y584D02*
X856Y584D01*
X1163Y584D02*
X1198Y584D01*
X387Y583D02*
X392Y583D01*
X444Y583D02*
X449Y583D01*
X564Y583D02*
X571Y583D01*
X658Y583D02*
X674Y583D01*
X706Y583D02*
X742Y583D01*
X761Y583D02*
X799Y583D01*
X818Y583D02*
X856Y583D01*
X1162Y583D02*
X1198Y583D01*
X386Y582D02*
X392Y582D01*
X443Y582D02*
X449Y582D01*
X564Y582D02*
X571Y582D01*
X657Y582D02*
X675Y582D01*
X706Y582D02*
X742Y582D01*
X761Y582D02*
X799Y582D01*
X818Y582D02*
X856Y582D01*
X1161Y582D02*
X1198Y582D01*
X386Y581D02*
X393Y581D01*
X443Y581D02*
X450Y581D01*
X564Y581D02*
X571Y581D01*
X657Y581D02*
X675Y581D01*
X705Y581D02*
X742Y581D01*
X762Y581D02*
X799Y581D01*
X819Y581D02*
X855Y581D01*
X1161Y581D02*
X1198Y581D01*
X386Y580D02*
X393Y580D01*
X443Y580D02*
X450Y580D01*
X564Y580D02*
X571Y580D01*
X656Y580D02*
X676Y580D01*
X705Y580D02*
X742Y580D01*
X764Y580D02*
X799Y580D01*
X819Y580D02*
X853Y580D01*
X1160Y580D02*
X1198Y580D01*
X386Y579D02*
X393Y579D01*
X443Y579D02*
X450Y579D01*
X564Y579D02*
X571Y579D01*
X656Y579D02*
X664Y579D01*
X668Y579D02*
X676Y579D01*
X704Y579D02*
X713Y579D01*
X735Y579D02*
X742Y579D01*
X792Y579D02*
X799Y579D01*
X820Y579D02*
X828Y579D01*
X1160Y579D02*
X1168Y579D01*
X1191Y579D02*
X1198Y579D01*
X386Y578D02*
X393Y578D01*
X443Y578D02*
X450Y578D01*
X564Y578D02*
X571Y578D01*
X655Y578D02*
X663Y578D01*
X669Y578D02*
X677Y578D01*
X704Y578D02*
X712Y578D01*
X735Y578D02*
X742Y578D01*
X792Y578D02*
X799Y578D01*
X821Y578D02*
X829Y578D01*
X1160Y578D02*
X1167Y578D01*
X1191Y578D02*
X1198Y578D01*
X386Y577D02*
X393Y577D01*
X443Y577D02*
X450Y577D01*
X564Y577D02*
X571Y577D01*
X655Y577D02*
X663Y577D01*
X669Y577D02*
X677Y577D01*
X704Y577D02*
X711Y577D01*
X735Y577D02*
X742Y577D01*
X792Y577D02*
X799Y577D01*
X821Y577D02*
X829Y577D01*
X1159Y577D02*
X1167Y577D01*
X1191Y577D02*
X1198Y577D01*
X386Y576D02*
X393Y576D01*
X443Y576D02*
X450Y576D01*
X564Y576D02*
X571Y576D01*
X654Y576D02*
X662Y576D01*
X670Y576D02*
X678Y576D01*
X704Y576D02*
X711Y576D01*
X735Y576D02*
X742Y576D01*
X792Y576D02*
X799Y576D01*
X822Y576D02*
X830Y576D01*
X1159Y576D02*
X1166Y576D01*
X1191Y576D02*
X1198Y576D01*
X386Y575D02*
X393Y575D01*
X443Y575D02*
X450Y575D01*
X564Y575D02*
X571Y575D01*
X654Y575D02*
X662Y575D01*
X670Y575D02*
X678Y575D01*
X704Y575D02*
X711Y575D01*
X735Y575D02*
X742Y575D01*
X792Y575D02*
X799Y575D01*
X822Y575D02*
X831Y575D01*
X1159Y575D02*
X1166Y575D01*
X1191Y575D02*
X1198Y575D01*
X386Y574D02*
X393Y574D01*
X443Y574D02*
X450Y574D01*
X564Y574D02*
X571Y574D01*
X653Y574D02*
X661Y574D01*
X671Y574D02*
X679Y574D01*
X704Y574D02*
X711Y574D01*
X735Y574D02*
X742Y574D01*
X792Y574D02*
X799Y574D01*
X823Y574D02*
X831Y574D01*
X1159Y574D02*
X1166Y574D01*
X1191Y574D02*
X1198Y574D01*
X386Y573D02*
X393Y573D01*
X443Y573D02*
X450Y573D01*
X564Y573D02*
X571Y573D01*
X653Y573D02*
X661Y573D01*
X671Y573D02*
X679Y573D01*
X704Y573D02*
X711Y573D01*
X735Y573D02*
X742Y573D01*
X792Y573D02*
X799Y573D01*
X823Y573D02*
X832Y573D01*
X1159Y573D02*
X1166Y573D01*
X1191Y573D02*
X1198Y573D01*
X386Y572D02*
X393Y572D01*
X443Y572D02*
X450Y572D01*
X564Y572D02*
X571Y572D01*
X652Y572D02*
X660Y572D01*
X672Y572D02*
X680Y572D01*
X704Y572D02*
X711Y572D01*
X735Y572D02*
X742Y572D01*
X792Y572D02*
X799Y572D01*
X824Y572D02*
X832Y572D01*
X1159Y572D02*
X1166Y572D01*
X1191Y572D02*
X1198Y572D01*
X261Y571D02*
X265Y571D01*
X320Y571D02*
X329Y571D01*
X370Y571D02*
X397Y571D01*
X427Y571D02*
X454Y571D01*
X547Y571D02*
X553Y571D01*
X564Y571D02*
X571Y571D01*
X652Y571D02*
X660Y571D01*
X672Y571D02*
X680Y571D01*
X704Y571D02*
X711Y571D01*
X735Y571D02*
X742Y571D01*
X792Y571D02*
X799Y571D01*
X825Y571D02*
X833Y571D01*
X943Y571D02*
X959Y571D01*
X1000Y571D02*
X1016Y571D01*
X1060Y571D02*
X1069Y571D01*
X1114Y571D02*
X1121Y571D01*
X1159Y571D02*
X1166Y571D01*
X1191Y571D02*
X1198Y571D01*
X257Y570D02*
X269Y570D01*
X281Y570D02*
X285Y570D01*
X315Y570D02*
X334Y570D01*
X368Y570D02*
X399Y570D01*
X425Y570D02*
X456Y570D01*
X478Y570D02*
X482Y570D01*
X509Y570D02*
X513Y570D01*
X543Y570D02*
X557Y570D01*
X564Y570D02*
X571Y570D01*
X651Y570D02*
X659Y570D01*
X673Y570D02*
X681Y570D01*
X704Y570D02*
X711Y570D01*
X735Y570D02*
X742Y570D01*
X792Y570D02*
X799Y570D01*
X825Y570D02*
X833Y570D01*
X938Y570D02*
X963Y570D01*
X995Y570D02*
X1020Y570D01*
X1055Y570D02*
X1074Y570D01*
X1109Y570D02*
X1124Y570D01*
X1135Y570D02*
X1139Y570D01*
X1159Y570D02*
X1166Y570D01*
X1191Y570D02*
X1198Y570D01*
X255Y569D02*
X271Y569D01*
X280Y569D02*
X286Y569D01*
X314Y569D02*
X336Y569D01*
X367Y569D02*
X400Y569D01*
X424Y569D02*
X457Y569D01*
X477Y569D02*
X483Y569D01*
X508Y569D02*
X514Y569D01*
X541Y569D02*
X559Y569D01*
X564Y569D02*
X571Y569D01*
X651Y569D02*
X659Y569D01*
X673Y569D02*
X681Y569D01*
X704Y569D02*
X712Y569D01*
X735Y569D02*
X742Y569D01*
X792Y569D02*
X799Y569D01*
X826Y569D02*
X834Y569D01*
X936Y569D02*
X965Y569D01*
X993Y569D02*
X1022Y569D01*
X1054Y569D02*
X1076Y569D01*
X1108Y569D02*
X1125Y569D01*
X1134Y569D02*
X1140Y569D01*
X1159Y569D02*
X1166Y569D01*
X1191Y569D02*
X1198Y569D01*
X253Y568D02*
X273Y568D01*
X280Y568D02*
X287Y568D01*
X312Y568D02*
X337Y568D01*
X367Y568D02*
X400Y568D01*
X423Y568D02*
X457Y568D01*
X476Y568D02*
X483Y568D01*
X508Y568D02*
X514Y568D01*
X540Y568D02*
X561Y568D01*
X564Y568D02*
X571Y568D01*
X650Y568D02*
X658Y568D01*
X674Y568D02*
X682Y568D01*
X705Y568D02*
X713Y568D01*
X735Y568D02*
X742Y568D01*
X792Y568D02*
X799Y568D01*
X826Y568D02*
X835Y568D01*
X935Y568D02*
X966Y568D01*
X992Y568D02*
X1023Y568D01*
X1052Y568D02*
X1077Y568D01*
X1106Y568D02*
X1126Y568D01*
X1134Y568D02*
X1140Y568D01*
X1159Y568D02*
X1166Y568D01*
X1191Y568D02*
X1198Y568D01*
X253Y567D02*
X275Y567D01*
X280Y567D02*
X287Y567D01*
X311Y567D02*
X338Y567D01*
X366Y567D02*
X401Y567D01*
X423Y567D02*
X457Y567D01*
X476Y567D02*
X483Y567D01*
X508Y567D02*
X514Y567D01*
X539Y567D02*
X562Y567D01*
X564Y567D02*
X571Y567D01*
X650Y567D02*
X658Y567D01*
X674Y567D02*
X682Y567D01*
X705Y567D02*
X742Y567D01*
X792Y567D02*
X799Y567D01*
X827Y567D02*
X835Y567D01*
X934Y567D02*
X967Y567D01*
X991Y567D02*
X1024Y567D01*
X1051Y567D02*
X1078Y567D01*
X1105Y567D02*
X1127Y567D01*
X1134Y567D02*
X1141Y567D01*
X1159Y567D02*
X1166Y567D01*
X1191Y567D02*
X1198Y567D01*
X252Y566D02*
X276Y566D01*
X280Y566D02*
X287Y566D01*
X310Y566D02*
X339Y566D01*
X367Y566D02*
X400Y566D01*
X423Y566D02*
X457Y566D01*
X476Y566D02*
X483Y566D01*
X508Y566D02*
X514Y566D01*
X538Y566D02*
X571Y566D01*
X649Y566D02*
X657Y566D01*
X675Y566D02*
X683Y566D01*
X705Y566D02*
X742Y566D01*
X792Y566D02*
X799Y566D01*
X828Y566D02*
X836Y566D01*
X933Y566D02*
X968Y566D01*
X990Y566D02*
X1024Y566D01*
X1050Y566D02*
X1079Y566D01*
X1105Y566D02*
X1128Y566D01*
X1134Y566D02*
X1141Y566D01*
X1159Y566D02*
X1166Y566D01*
X1191Y566D02*
X1198Y566D01*
X251Y565D02*
X278Y565D01*
X280Y565D02*
X287Y565D01*
X309Y565D02*
X340Y565D01*
X367Y565D02*
X400Y565D01*
X424Y565D02*
X457Y565D01*
X476Y565D02*
X483Y565D01*
X507Y565D02*
X514Y565D01*
X537Y565D02*
X571Y565D01*
X649Y565D02*
X657Y565D01*
X675Y565D02*
X683Y565D01*
X706Y565D02*
X742Y565D01*
X792Y565D02*
X799Y565D01*
X828Y565D02*
X836Y565D01*
X933Y565D02*
X968Y565D01*
X990Y565D02*
X1025Y565D01*
X1049Y565D02*
X1080Y565D01*
X1104Y565D02*
X1130Y565D01*
X1134Y565D02*
X1141Y565D01*
X1159Y565D02*
X1166Y565D01*
X1191Y565D02*
X1198Y565D01*
X251Y564D02*
X287Y564D01*
X308Y564D02*
X341Y564D01*
X368Y564D02*
X399Y564D01*
X425Y564D02*
X456Y564D01*
X476Y564D02*
X483Y564D01*
X507Y564D02*
X514Y564D01*
X536Y564D02*
X571Y564D01*
X649Y564D02*
X656Y564D01*
X676Y564D02*
X684Y564D01*
X707Y564D02*
X742Y564D01*
X792Y564D02*
X799Y564D01*
X829Y564D02*
X837Y564D01*
X933Y564D02*
X968Y564D01*
X989Y564D02*
X1025Y564D01*
X1048Y564D02*
X1081Y564D01*
X1103Y564D02*
X1131Y564D01*
X1134Y564D02*
X1141Y564D01*
X1159Y564D02*
X1166Y564D01*
X1191Y564D02*
X1198Y564D01*
X250Y563D02*
X260Y563D01*
X267Y563D02*
X287Y563D01*
X307Y563D02*
X319Y563D01*
X331Y563D02*
X342Y563D01*
X385Y563D02*
X393Y563D01*
X442Y563D02*
X450Y563D01*
X476Y563D02*
X483Y563D01*
X507Y563D02*
X514Y563D01*
X535Y563D02*
X547Y563D01*
X554Y563D02*
X571Y563D01*
X648Y563D02*
X656Y563D01*
X677Y563D02*
X684Y563D01*
X708Y563D02*
X742Y563D01*
X792Y563D02*
X799Y563D01*
X829Y563D02*
X838Y563D01*
X933Y563D02*
X942Y563D01*
X960Y563D02*
X969Y563D01*
X990Y563D02*
X999Y563D01*
X1017Y563D02*
X1026Y563D01*
X1047Y563D02*
X1059Y563D01*
X1071Y563D02*
X1082Y563D01*
X1103Y563D02*
X1113Y563D01*
X1121Y563D02*
X1132Y563D01*
X1134Y563D02*
X1141Y563D01*
X1159Y563D02*
X1166Y563D01*
X1191Y563D02*
X1198Y563D01*
X250Y562D02*
X258Y562D01*
X269Y562D02*
X287Y562D01*
X307Y562D02*
X316Y562D01*
X333Y562D02*
X342Y562D01*
X386Y562D02*
X393Y562D01*
X443Y562D02*
X450Y562D01*
X476Y562D02*
X483Y562D01*
X507Y562D02*
X514Y562D01*
X534Y562D02*
X544Y562D01*
X556Y562D02*
X571Y562D01*
X648Y562D02*
X655Y562D01*
X677Y562D02*
X684Y562D01*
X709Y562D02*
X742Y562D01*
X792Y562D02*
X799Y562D01*
X830Y562D02*
X838Y562D01*
X933Y562D02*
X940Y562D01*
X962Y562D02*
X969Y562D01*
X990Y562D02*
X996Y562D01*
X1019Y562D02*
X1026Y562D01*
X1047Y562D02*
X1056Y562D01*
X1073Y562D02*
X1082Y562D01*
X1103Y562D02*
X1111Y562D01*
X1122Y562D02*
X1141Y562D01*
X1159Y562D02*
X1166Y562D01*
X1191Y562D02*
X1198Y562D01*
X250Y561D02*
X257Y561D01*
X270Y561D02*
X287Y561D01*
X306Y561D02*
X315Y561D01*
X334Y561D02*
X343Y561D01*
X386Y561D02*
X393Y561D01*
X443Y561D02*
X450Y561D01*
X476Y561D02*
X483Y561D01*
X507Y561D02*
X514Y561D01*
X534Y561D02*
X543Y561D01*
X558Y561D02*
X571Y561D01*
X647Y561D02*
X655Y561D01*
X677Y561D02*
X685Y561D01*
X711Y561D02*
X742Y561D01*
X780Y561D02*
X799Y561D01*
X830Y561D02*
X839Y561D01*
X934Y561D02*
X938Y561D01*
X962Y561D02*
X969Y561D01*
X991Y561D02*
X995Y561D01*
X1019Y561D02*
X1026Y561D01*
X1046Y561D02*
X1055Y561D01*
X1074Y561D02*
X1083Y561D01*
X1103Y561D02*
X1110Y561D01*
X1123Y561D02*
X1141Y561D01*
X1159Y561D02*
X1166Y561D01*
X1191Y561D02*
X1198Y561D01*
X250Y560D02*
X257Y560D01*
X272Y560D02*
X287Y560D01*
X306Y560D02*
X314Y560D01*
X335Y560D02*
X343Y560D01*
X386Y560D02*
X393Y560D01*
X443Y560D02*
X450Y560D01*
X476Y560D02*
X483Y560D01*
X507Y560D02*
X514Y560D01*
X534Y560D02*
X542Y560D01*
X559Y560D02*
X571Y560D01*
X647Y560D02*
X654Y560D01*
X678Y560D02*
X685Y560D01*
X713Y560D02*
X742Y560D01*
X778Y560D02*
X799Y560D01*
X831Y560D02*
X839Y560D01*
X935Y560D02*
X937Y560D01*
X962Y560D02*
X969Y560D01*
X992Y560D02*
X994Y560D01*
X1019Y560D02*
X1026Y560D01*
X1046Y560D02*
X1054Y560D01*
X1075Y560D02*
X1083Y560D01*
X1102Y560D02*
X1110Y560D01*
X1124Y560D02*
X1141Y560D01*
X1159Y560D02*
X1167Y560D01*
X1191Y560D02*
X1198Y560D01*
X250Y559D02*
X256Y559D01*
X273Y559D02*
X287Y559D01*
X306Y559D02*
X313Y559D01*
X336Y559D02*
X343Y559D01*
X386Y559D02*
X393Y559D01*
X443Y559D02*
X450Y559D01*
X476Y559D02*
X483Y559D01*
X507Y559D02*
X514Y559D01*
X533Y559D02*
X541Y559D01*
X560Y559D02*
X571Y559D01*
X647Y559D02*
X654Y559D01*
X678Y559D02*
X685Y559D01*
X720Y559D02*
X728Y559D01*
X735Y559D02*
X742Y559D01*
X777Y559D02*
X799Y559D01*
X832Y559D02*
X840Y559D01*
X961Y559D02*
X969Y559D01*
X1018Y559D02*
X1026Y559D01*
X1046Y559D02*
X1053Y559D01*
X1076Y559D02*
X1083Y559D01*
X1102Y559D02*
X1109Y559D01*
X1125Y559D02*
X1141Y559D01*
X1160Y559D02*
X1167Y559D01*
X1191Y559D02*
X1198Y559D01*
X249Y558D02*
X256Y558D01*
X275Y558D02*
X287Y558D01*
X306Y558D02*
X313Y558D01*
X336Y558D02*
X344Y558D01*
X386Y558D02*
X393Y558D01*
X443Y558D02*
X450Y558D01*
X476Y558D02*
X483Y558D01*
X507Y558D02*
X514Y558D01*
X533Y558D02*
X540Y558D01*
X561Y558D02*
X571Y558D01*
X647Y558D02*
X654Y558D01*
X678Y558D02*
X685Y558D01*
X719Y558D02*
X728Y558D01*
X735Y558D02*
X742Y558D01*
X777Y558D02*
X799Y558D01*
X832Y558D02*
X840Y558D01*
X959Y558D02*
X968Y558D01*
X1016Y558D02*
X1025Y558D01*
X1046Y558D02*
X1053Y558D01*
X1076Y558D02*
X1084Y558D01*
X1102Y558D02*
X1109Y558D01*
X1126Y558D02*
X1141Y558D01*
X1160Y558D02*
X1169Y558D01*
X1191Y558D02*
X1198Y558D01*
X249Y557D02*
X256Y557D01*
X276Y557D02*
X287Y557D01*
X305Y557D02*
X312Y557D01*
X337Y557D02*
X344Y557D01*
X386Y557D02*
X393Y557D01*
X443Y557D02*
X450Y557D01*
X476Y557D02*
X483Y557D01*
X507Y557D02*
X514Y557D01*
X533Y557D02*
X540Y557D01*
X562Y557D02*
X571Y557D01*
X647Y557D02*
X654Y557D01*
X678Y557D02*
X685Y557D01*
X719Y557D02*
X727Y557D01*
X735Y557D02*
X742Y557D01*
X777Y557D02*
X799Y557D01*
X833Y557D02*
X841Y557D01*
X956Y557D02*
X968Y557D01*
X1013Y557D02*
X1025Y557D01*
X1046Y557D02*
X1052Y557D01*
X1077Y557D02*
X1084Y557D01*
X1102Y557D02*
X1109Y557D01*
X1128Y557D02*
X1141Y557D01*
X1160Y557D02*
X1198Y557D01*
X249Y556D02*
X256Y556D01*
X278Y556D02*
X287Y556D01*
X305Y556D02*
X312Y556D01*
X337Y556D02*
X344Y556D01*
X386Y556D02*
X393Y556D01*
X443Y556D02*
X450Y556D01*
X476Y556D02*
X483Y556D01*
X507Y556D02*
X514Y556D01*
X533Y556D02*
X540Y556D01*
X563Y556D02*
X571Y556D01*
X647Y556D02*
X654Y556D01*
X678Y556D02*
X685Y556D01*
X718Y556D02*
X727Y556D01*
X735Y556D02*
X742Y556D01*
X777Y556D02*
X799Y556D01*
X833Y556D02*
X842Y556D01*
X954Y556D02*
X967Y556D01*
X1011Y556D02*
X1024Y556D01*
X1045Y556D02*
X1052Y556D01*
X1077Y556D02*
X1084Y556D01*
X1103Y556D02*
X1109Y556D01*
X1129Y556D02*
X1141Y556D01*
X1161Y556D02*
X1198Y556D01*
X249Y555D02*
X256Y555D01*
X279Y555D02*
X287Y555D01*
X305Y555D02*
X312Y555D01*
X337Y555D02*
X344Y555D01*
X386Y555D02*
X393Y555D01*
X443Y555D02*
X450Y555D01*
X476Y555D02*
X483Y555D01*
X507Y555D02*
X514Y555D01*
X533Y555D02*
X540Y555D01*
X564Y555D02*
X571Y555D01*
X647Y555D02*
X654Y555D01*
X678Y555D02*
X685Y555D01*
X718Y555D02*
X726Y555D01*
X735Y555D02*
X742Y555D01*
X777Y555D02*
X799Y555D01*
X834Y555D02*
X842Y555D01*
X952Y555D02*
X967Y555D01*
X1009Y555D02*
X1024Y555D01*
X1045Y555D02*
X1052Y555D01*
X1077Y555D02*
X1084Y555D01*
X1103Y555D02*
X1109Y555D01*
X1130Y555D02*
X1141Y555D01*
X1161Y555D02*
X1198Y555D01*
X249Y554D02*
X256Y554D01*
X280Y554D02*
X287Y554D01*
X305Y554D02*
X312Y554D01*
X337Y554D02*
X344Y554D01*
X386Y554D02*
X393Y554D01*
X443Y554D02*
X450Y554D01*
X476Y554D02*
X483Y554D01*
X507Y554D02*
X514Y554D01*
X533Y554D02*
X540Y554D01*
X564Y554D02*
X571Y554D01*
X647Y554D02*
X655Y554D01*
X678Y554D02*
X685Y554D01*
X717Y554D02*
X725Y554D01*
X735Y554D02*
X742Y554D01*
X778Y554D02*
X799Y554D01*
X835Y554D02*
X843Y554D01*
X949Y554D02*
X966Y554D01*
X1006Y554D02*
X1023Y554D01*
X1045Y554D02*
X1052Y554D01*
X1077Y554D02*
X1084Y554D01*
X1104Y554D02*
X1108Y554D01*
X1131Y554D02*
X1141Y554D01*
X1162Y554D02*
X1198Y554D01*
X249Y553D02*
X256Y553D01*
X280Y553D02*
X287Y553D01*
X305Y553D02*
X312Y553D01*
X337Y553D02*
X344Y553D01*
X386Y553D02*
X393Y553D01*
X443Y553D02*
X450Y553D01*
X476Y553D02*
X483Y553D01*
X507Y553D02*
X514Y553D01*
X533Y553D02*
X540Y553D01*
X564Y553D02*
X571Y553D01*
X647Y553D02*
X655Y553D01*
X677Y553D02*
X685Y553D01*
X717Y553D02*
X725Y553D01*
X735Y553D02*
X742Y553D01*
X792Y553D02*
X799Y553D01*
X835Y553D02*
X843Y553D01*
X947Y553D02*
X965Y553D01*
X1004Y553D02*
X1022Y553D01*
X1045Y553D02*
X1052Y553D01*
X1077Y553D02*
X1084Y553D01*
X1132Y553D02*
X1141Y553D01*
X1163Y553D02*
X1198Y553D01*
X249Y552D02*
X256Y552D01*
X280Y552D02*
X287Y552D01*
X305Y552D02*
X312Y552D01*
X337Y552D02*
X344Y552D01*
X386Y552D02*
X393Y552D01*
X443Y552D02*
X450Y552D01*
X476Y552D02*
X483Y552D01*
X507Y552D02*
X514Y552D01*
X533Y552D02*
X540Y552D01*
X564Y552D02*
X571Y552D01*
X648Y552D02*
X655Y552D01*
X677Y552D02*
X685Y552D01*
X716Y552D02*
X724Y552D01*
X735Y552D02*
X742Y552D01*
X792Y552D02*
X799Y552D01*
X836Y552D02*
X844Y552D01*
X945Y552D02*
X963Y552D01*
X1002Y552D02*
X1020Y552D01*
X1045Y552D02*
X1052Y552D01*
X1077Y552D02*
X1084Y552D01*
X1133Y552D02*
X1141Y552D01*
X1164Y552D02*
X1198Y552D01*
X249Y551D02*
X256Y551D01*
X280Y551D02*
X287Y551D01*
X305Y551D02*
X312Y551D01*
X337Y551D02*
X344Y551D01*
X386Y551D02*
X393Y551D01*
X443Y551D02*
X450Y551D01*
X476Y551D02*
X483Y551D01*
X507Y551D02*
X514Y551D01*
X533Y551D02*
X540Y551D01*
X564Y551D02*
X571Y551D01*
X648Y551D02*
X656Y551D01*
X677Y551D02*
X684Y551D01*
X715Y551D02*
X724Y551D01*
X735Y551D02*
X742Y551D01*
X792Y551D02*
X799Y551D01*
X836Y551D02*
X845Y551D01*
X942Y551D02*
X961Y551D01*
X999Y551D02*
X1018Y551D01*
X1045Y551D02*
X1053Y551D01*
X1076Y551D02*
X1084Y551D01*
X1134Y551D02*
X1141Y551D01*
X1166Y551D02*
X1198Y551D01*
X249Y550D02*
X256Y550D01*
X280Y550D02*
X287Y550D01*
X305Y550D02*
X312Y550D01*
X337Y550D02*
X344Y550D01*
X386Y550D02*
X393Y550D01*
X443Y550D02*
X450Y550D01*
X476Y550D02*
X483Y550D01*
X507Y550D02*
X514Y550D01*
X533Y550D02*
X540Y550D01*
X564Y550D02*
X571Y550D01*
X649Y550D02*
X656Y550D01*
X676Y550D02*
X684Y550D01*
X715Y550D02*
X723Y550D01*
X735Y550D02*
X742Y550D01*
X792Y550D02*
X799Y550D01*
X837Y550D02*
X845Y550D01*
X940Y550D02*
X959Y550D01*
X997Y550D02*
X1016Y550D01*
X1045Y550D02*
X1084Y550D01*
X1134Y550D02*
X1141Y550D01*
X1169Y550D02*
X1198Y550D01*
X249Y549D02*
X256Y549D01*
X280Y549D02*
X287Y549D01*
X305Y549D02*
X312Y549D01*
X337Y549D02*
X344Y549D01*
X386Y549D02*
X393Y549D01*
X443Y549D02*
X450Y549D01*
X476Y549D02*
X483Y549D01*
X507Y549D02*
X514Y549D01*
X533Y549D02*
X540Y549D01*
X564Y549D02*
X571Y549D01*
X649Y549D02*
X657Y549D01*
X675Y549D02*
X683Y549D01*
X714Y549D02*
X723Y549D01*
X735Y549D02*
X742Y549D01*
X792Y549D02*
X799Y549D01*
X837Y549D02*
X846Y549D01*
X938Y549D02*
X957Y549D01*
X995Y549D02*
X1014Y549D01*
X1045Y549D02*
X1084Y549D01*
X1134Y549D02*
X1141Y549D01*
X1191Y549D02*
X1198Y549D01*
X249Y548D02*
X256Y548D01*
X280Y548D02*
X287Y548D01*
X305Y548D02*
X312Y548D01*
X337Y548D02*
X344Y548D01*
X386Y548D02*
X393Y548D01*
X443Y548D02*
X450Y548D01*
X476Y548D02*
X483Y548D01*
X507Y548D02*
X514Y548D01*
X533Y548D02*
X540Y548D01*
X564Y548D02*
X571Y548D01*
X649Y548D02*
X657Y548D01*
X675Y548D02*
X683Y548D01*
X714Y548D02*
X722Y548D01*
X735Y548D02*
X742Y548D01*
X792Y548D02*
X799Y548D01*
X838Y548D02*
X846Y548D01*
X937Y548D02*
X954Y548D01*
X994Y548D02*
X1011Y548D01*
X1045Y548D02*
X1084Y548D01*
X1134Y548D02*
X1141Y548D01*
X1191Y548D02*
X1198Y548D01*
X249Y547D02*
X256Y547D01*
X280Y547D02*
X287Y547D01*
X305Y547D02*
X312Y547D01*
X337Y547D02*
X344Y547D01*
X386Y547D02*
X393Y547D01*
X443Y547D02*
X450Y547D01*
X476Y547D02*
X483Y547D01*
X507Y547D02*
X514Y547D01*
X533Y547D02*
X540Y547D01*
X564Y547D02*
X571Y547D01*
X650Y547D02*
X658Y547D01*
X674Y547D02*
X682Y547D01*
X713Y547D02*
X721Y547D01*
X735Y547D02*
X742Y547D01*
X792Y547D02*
X799Y547D01*
X839Y547D02*
X847Y547D01*
X935Y547D02*
X952Y547D01*
X992Y547D02*
X1009Y547D01*
X1046Y547D02*
X1084Y547D01*
X1134Y547D02*
X1141Y547D01*
X1191Y547D02*
X1198Y547D01*
X249Y546D02*
X256Y546D01*
X280Y546D02*
X287Y546D01*
X305Y546D02*
X312Y546D01*
X337Y546D02*
X344Y546D01*
X386Y546D02*
X393Y546D01*
X443Y546D02*
X450Y546D01*
X476Y546D02*
X483Y546D01*
X507Y546D02*
X514Y546D01*
X533Y546D02*
X540Y546D01*
X564Y546D02*
X571Y546D01*
X650Y546D02*
X658Y546D01*
X674Y546D02*
X682Y546D01*
X712Y546D02*
X721Y546D01*
X735Y546D02*
X742Y546D01*
X792Y546D02*
X799Y546D01*
X839Y546D02*
X847Y546D01*
X935Y546D02*
X950Y546D01*
X992Y546D02*
X1007Y546D01*
X1046Y546D02*
X1084Y546D01*
X1134Y546D02*
X1141Y546D01*
X1191Y546D02*
X1198Y546D01*
X249Y545D02*
X256Y545D01*
X280Y545D02*
X287Y545D01*
X305Y545D02*
X312Y545D01*
X337Y545D02*
X344Y545D01*
X386Y545D02*
X393Y545D01*
X443Y545D02*
X450Y545D01*
X476Y545D02*
X483Y545D01*
X507Y545D02*
X514Y545D01*
X533Y545D02*
X540Y545D01*
X564Y545D02*
X571Y545D01*
X651Y545D02*
X659Y545D01*
X673Y545D02*
X681Y545D01*
X712Y545D02*
X720Y545D01*
X735Y545D02*
X742Y545D01*
X792Y545D02*
X799Y545D01*
X840Y545D02*
X848Y545D01*
X934Y545D02*
X948Y545D01*
X991Y545D02*
X1004Y545D01*
X1046Y545D02*
X1084Y545D01*
X1134Y545D02*
X1141Y545D01*
X1191Y545D02*
X1198Y545D01*
X249Y544D02*
X256Y544D01*
X280Y544D02*
X287Y544D01*
X305Y544D02*
X312Y544D01*
X337Y544D02*
X344Y544D01*
X386Y544D02*
X393Y544D01*
X443Y544D02*
X450Y544D01*
X476Y544D02*
X483Y544D01*
X507Y544D02*
X514Y544D01*
X533Y544D02*
X540Y544D01*
X564Y544D02*
X571Y544D01*
X651Y544D02*
X659Y544D01*
X673Y544D02*
X681Y544D01*
X711Y544D02*
X720Y544D01*
X735Y544D02*
X742Y544D01*
X792Y544D02*
X799Y544D01*
X840Y544D02*
X849Y544D01*
X933Y544D02*
X945Y544D01*
X990Y544D02*
X1002Y544D01*
X1047Y544D02*
X1084Y544D01*
X1134Y544D02*
X1141Y544D01*
X1191Y544D02*
X1198Y544D01*
X249Y543D02*
X256Y543D01*
X280Y543D02*
X287Y543D01*
X305Y543D02*
X312Y543D01*
X337Y543D02*
X344Y543D01*
X386Y543D02*
X393Y543D01*
X443Y543D02*
X450Y543D01*
X476Y543D02*
X483Y543D01*
X507Y543D02*
X514Y543D01*
X533Y543D02*
X540Y543D01*
X564Y543D02*
X571Y543D01*
X652Y543D02*
X660Y543D01*
X672Y543D02*
X680Y543D01*
X711Y543D02*
X719Y543D01*
X735Y543D02*
X742Y543D01*
X792Y543D02*
X799Y543D01*
X841Y543D02*
X849Y543D01*
X933Y543D02*
X943Y543D01*
X990Y543D02*
X1000Y543D01*
X1050Y543D02*
X1084Y543D01*
X1134Y543D02*
X1141Y543D01*
X1191Y543D02*
X1198Y543D01*
X249Y542D02*
X256Y542D01*
X280Y542D02*
X287Y542D01*
X305Y542D02*
X312Y542D01*
X337Y542D02*
X344Y542D01*
X386Y542D02*
X393Y542D01*
X443Y542D02*
X450Y542D01*
X476Y542D02*
X484Y542D01*
X507Y542D02*
X514Y542D01*
X533Y542D02*
X540Y542D01*
X564Y542D02*
X571Y542D01*
X652Y542D02*
X660Y542D01*
X672Y542D02*
X680Y542D01*
X710Y542D02*
X718Y542D01*
X735Y542D02*
X742Y542D01*
X792Y542D02*
X799Y542D01*
X842Y542D02*
X850Y542D01*
X932Y542D02*
X941Y542D01*
X989Y542D02*
X998Y542D01*
X1077Y542D02*
X1084Y542D01*
X1134Y542D02*
X1141Y542D01*
X1191Y542D02*
X1198Y542D01*
X249Y541D02*
X256Y541D01*
X280Y541D02*
X287Y541D01*
X305Y541D02*
X312Y541D01*
X337Y541D02*
X344Y541D01*
X386Y541D02*
X393Y541D01*
X443Y541D02*
X450Y541D01*
X476Y541D02*
X485Y541D01*
X507Y541D02*
X514Y541D01*
X533Y541D02*
X540Y541D01*
X563Y541D02*
X571Y541D01*
X653Y541D02*
X661Y541D01*
X671Y541D02*
X679Y541D01*
X710Y541D02*
X718Y541D01*
X735Y541D02*
X742Y541D01*
X792Y541D02*
X799Y541D01*
X842Y541D02*
X850Y541D01*
X932Y541D02*
X940Y541D01*
X989Y541D02*
X997Y541D01*
X1077Y541D02*
X1084Y541D01*
X1134Y541D02*
X1141Y541D01*
X1191Y541D02*
X1198Y541D01*
X249Y540D02*
X256Y540D01*
X280Y540D02*
X287Y540D01*
X305Y540D02*
X313Y540D01*
X337Y540D02*
X344Y540D01*
X364Y540D02*
X368Y540D01*
X386Y540D02*
X393Y540D01*
X421Y540D02*
X425Y540D01*
X443Y540D02*
X450Y540D01*
X476Y540D02*
X487Y540D01*
X507Y540D02*
X514Y540D01*
X533Y540D02*
X540Y540D01*
X562Y540D02*
X571Y540D01*
X653Y540D02*
X661Y540D01*
X671Y540D02*
X679Y540D01*
X709Y540D02*
X717Y540D01*
X735Y540D02*
X742Y540D01*
X792Y540D02*
X799Y540D01*
X843Y540D02*
X851Y540D01*
X932Y540D02*
X939Y540D01*
X989Y540D02*
X996Y540D01*
X1077Y540D02*
X1084Y540D01*
X1134Y540D02*
X1141Y540D01*
X1191Y540D02*
X1198Y540D01*
X249Y539D02*
X256Y539D01*
X280Y539D02*
X287Y539D01*
X306Y539D02*
X313Y539D01*
X336Y539D02*
X343Y539D01*
X363Y539D02*
X369Y539D01*
X386Y539D02*
X393Y539D01*
X420Y539D02*
X426Y539D01*
X443Y539D02*
X450Y539D01*
X476Y539D02*
X489Y539D01*
X507Y539D02*
X514Y539D01*
X533Y539D02*
X540Y539D01*
X561Y539D02*
X571Y539D01*
X654Y539D02*
X662Y539D01*
X670Y539D02*
X678Y539D01*
X708Y539D02*
X717Y539D01*
X735Y539D02*
X742Y539D01*
X792Y539D02*
X799Y539D01*
X843Y539D02*
X852Y539D01*
X932Y539D02*
X939Y539D01*
X989Y539D02*
X996Y539D01*
X1076Y539D02*
X1084Y539D01*
X1134Y539D02*
X1141Y539D01*
X1191Y539D02*
X1198Y539D01*
X249Y538D02*
X256Y538D01*
X280Y538D02*
X287Y538D01*
X306Y538D02*
X314Y538D01*
X336Y538D02*
X343Y538D01*
X363Y538D02*
X369Y538D01*
X386Y538D02*
X393Y538D01*
X419Y538D02*
X426Y538D01*
X443Y538D02*
X450Y538D01*
X476Y538D02*
X490Y538D01*
X507Y538D02*
X513Y538D01*
X533Y538D02*
X541Y538D01*
X560Y538D02*
X571Y538D01*
X654Y538D02*
X662Y538D01*
X670Y538D02*
X678Y538D01*
X708Y538D02*
X716Y538D01*
X735Y538D02*
X742Y538D01*
X792Y538D02*
X799Y538D01*
X844Y538D02*
X852Y538D01*
X932Y538D02*
X939Y538D01*
X989Y538D02*
X996Y538D01*
X1076Y538D02*
X1083Y538D01*
X1134Y538D02*
X1141Y538D01*
X1191Y538D02*
X1198Y538D01*
X249Y537D02*
X256Y537D01*
X280Y537D02*
X287Y537D01*
X306Y537D02*
X314Y537D01*
X335Y537D02*
X343Y537D01*
X362Y537D02*
X370Y537D01*
X386Y537D02*
X393Y537D01*
X419Y537D02*
X426Y537D01*
X443Y537D02*
X450Y537D01*
X476Y537D02*
X492Y537D01*
X506Y537D02*
X513Y537D01*
X534Y537D02*
X542Y537D01*
X558Y537D02*
X571Y537D01*
X655Y537D02*
X663Y537D01*
X669Y537D02*
X677Y537D01*
X707Y537D02*
X716Y537D01*
X735Y537D02*
X742Y537D01*
X792Y537D02*
X799Y537D01*
X845Y537D02*
X853Y537D01*
X932Y537D02*
X939Y537D01*
X965Y537D02*
X968Y537D01*
X989Y537D02*
X996Y537D01*
X1022Y537D02*
X1025Y537D01*
X1075Y537D02*
X1083Y537D01*
X1134Y537D02*
X1141Y537D01*
X1191Y537D02*
X1198Y537D01*
X249Y536D02*
X256Y536D01*
X280Y536D02*
X287Y536D01*
X306Y536D02*
X316Y536D01*
X334Y536D02*
X343Y536D01*
X362Y536D02*
X370Y536D01*
X385Y536D02*
X393Y536D01*
X419Y536D02*
X427Y536D01*
X442Y536D02*
X449Y536D01*
X476Y536D02*
X493Y536D01*
X506Y536D02*
X513Y536D01*
X534Y536D02*
X543Y536D01*
X557Y536D02*
X571Y536D01*
X655Y536D02*
X663Y536D01*
X669Y536D02*
X677Y536D01*
X707Y536D02*
X715Y536D01*
X735Y536D02*
X742Y536D01*
X792Y536D02*
X799Y536D01*
X845Y536D02*
X853Y536D01*
X932Y536D02*
X940Y536D01*
X963Y536D02*
X969Y536D01*
X989Y536D02*
X997Y536D01*
X1020Y536D02*
X1026Y536D01*
X1074Y536D02*
X1083Y536D01*
X1134Y536D02*
X1141Y536D01*
X1191Y536D02*
X1198Y536D01*
X249Y535D02*
X256Y535D01*
X280Y535D02*
X287Y535D01*
X307Y535D02*
X317Y535D01*
X332Y535D02*
X342Y535D01*
X363Y535D02*
X371Y535D01*
X384Y535D02*
X392Y535D01*
X420Y535D02*
X428Y535D01*
X441Y535D02*
X449Y535D01*
X476Y535D02*
X495Y535D01*
X505Y535D02*
X513Y535D01*
X535Y535D02*
X545Y535D01*
X556Y535D02*
X571Y535D01*
X656Y535D02*
X664Y535D01*
X668Y535D02*
X676Y535D01*
X706Y535D02*
X714Y535D01*
X735Y535D02*
X742Y535D01*
X792Y535D02*
X799Y535D01*
X846Y535D02*
X854Y535D01*
X932Y535D02*
X941Y535D01*
X962Y535D02*
X970Y535D01*
X989Y535D02*
X998Y535D01*
X1019Y535D02*
X1026Y535D01*
X1072Y535D02*
X1082Y535D01*
X1134Y535D02*
X1141Y535D01*
X1191Y535D02*
X1198Y535D01*
X249Y534D02*
X256Y534D01*
X280Y534D02*
X287Y534D01*
X308Y534D02*
X342Y534D01*
X363Y534D02*
X392Y534D01*
X420Y534D02*
X449Y534D01*
X476Y534D02*
X513Y534D01*
X535Y534D02*
X571Y534D01*
X656Y534D02*
X676Y534D01*
X705Y534D02*
X714Y534D01*
X735Y534D02*
X742Y534D01*
X764Y534D02*
X799Y534D01*
X821Y534D02*
X855Y534D01*
X933Y534D02*
X970Y534D01*
X989Y534D02*
X1027Y534D01*
X1048Y534D02*
X1082Y534D01*
X1134Y534D02*
X1141Y534D01*
X1191Y534D02*
X1198Y534D01*
X249Y533D02*
X256Y533D01*
X280Y533D02*
X287Y533D01*
X308Y533D02*
X341Y533D01*
X364Y533D02*
X392Y533D01*
X420Y533D02*
X448Y533D01*
X476Y533D02*
X512Y533D01*
X536Y533D02*
X571Y533D01*
X657Y533D02*
X675Y533D01*
X705Y533D02*
X713Y533D01*
X735Y533D02*
X742Y533D01*
X762Y533D02*
X799Y533D01*
X819Y533D02*
X855Y533D01*
X933Y533D02*
X970Y533D01*
X990Y533D02*
X1027Y533D01*
X1047Y533D02*
X1081Y533D01*
X1134Y533D02*
X1141Y533D01*
X1191Y533D02*
X1198Y533D01*
X249Y532D02*
X256Y532D01*
X280Y532D02*
X287Y532D01*
X309Y532D02*
X340Y532D01*
X364Y532D02*
X391Y532D01*
X421Y532D02*
X448Y532D01*
X476Y532D02*
X483Y532D01*
X486Y532D02*
X512Y532D01*
X537Y532D02*
X571Y532D01*
X657Y532D02*
X675Y532D01*
X704Y532D02*
X713Y532D01*
X735Y532D02*
X742Y532D01*
X761Y532D02*
X799Y532D01*
X818Y532D02*
X856Y532D01*
X934Y532D02*
X969Y532D01*
X991Y532D02*
X1026Y532D01*
X1046Y532D02*
X1080Y532D01*
X1134Y532D02*
X1141Y532D01*
X1191Y532D02*
X1198Y532D01*
X249Y531D02*
X255Y531D01*
X280Y531D02*
X287Y531D01*
X310Y531D02*
X339Y531D01*
X365Y531D02*
X390Y531D01*
X422Y531D02*
X447Y531D01*
X476Y531D02*
X483Y531D01*
X487Y531D02*
X511Y531D01*
X538Y531D02*
X571Y531D01*
X658Y531D02*
X674Y531D01*
X704Y531D02*
X712Y531D01*
X735Y531D02*
X742Y531D01*
X761Y531D02*
X799Y531D01*
X818Y531D02*
X856Y531D01*
X934Y531D02*
X969Y531D01*
X991Y531D02*
X1026Y531D01*
X1046Y531D02*
X1079Y531D01*
X1134Y531D02*
X1141Y531D01*
X1191Y531D02*
X1198Y531D01*
X249Y530D02*
X255Y530D01*
X280Y530D02*
X287Y530D01*
X311Y530D02*
X338Y530D01*
X366Y530D02*
X389Y530D01*
X423Y530D02*
X446Y530D01*
X476Y530D02*
X483Y530D01*
X489Y530D02*
X510Y530D01*
X539Y530D02*
X562Y530D01*
X564Y530D02*
X571Y530D01*
X659Y530D02*
X674Y530D01*
X704Y530D02*
X711Y530D01*
X735Y530D02*
X742Y530D01*
X761Y530D02*
X799Y530D01*
X818Y530D02*
X856Y530D01*
X935Y530D02*
X968Y530D01*
X992Y530D02*
X1025Y530D01*
X1046Y530D02*
X1078Y530D01*
X1134Y530D02*
X1141Y530D01*
X1191Y530D02*
X1197Y530D01*
X249Y529D02*
X255Y529D01*
X280Y529D02*
X286Y529D01*
X313Y529D02*
X336Y529D01*
X367Y529D02*
X388Y529D01*
X424Y529D02*
X445Y529D01*
X476Y529D02*
X483Y529D01*
X491Y529D02*
X509Y529D01*
X540Y529D02*
X560Y529D01*
X565Y529D02*
X571Y529D01*
X660Y529D02*
X672Y529D01*
X704Y529D02*
X711Y529D01*
X735Y529D02*
X742Y529D01*
X761Y529D02*
X799Y529D01*
X818Y529D02*
X856Y529D01*
X936Y529D02*
X966Y529D01*
X993Y529D02*
X1023Y529D01*
X1046Y529D02*
X1077Y529D01*
X1134Y529D02*
X1140Y529D01*
X1191Y529D02*
X1197Y529D01*
X249Y528D02*
X255Y528D01*
X281Y528D02*
X286Y528D01*
X314Y528D02*
X335Y528D01*
X368Y528D02*
X387Y528D01*
X425Y528D02*
X444Y528D01*
X477Y528D02*
X482Y528D01*
X492Y528D02*
X508Y528D01*
X542Y528D02*
X559Y528D01*
X565Y528D02*
X571Y528D01*
X661Y528D02*
X671Y528D01*
X705Y528D02*
X710Y528D01*
X736Y528D02*
X741Y528D01*
X762Y528D02*
X799Y528D01*
X819Y528D02*
X856Y528D01*
X938Y528D02*
X965Y528D01*
X995Y528D02*
X1021Y528D01*
X1046Y528D02*
X1075Y528D01*
X1134Y528D02*
X1140Y528D01*
X1191Y528D02*
X1197Y528D01*
X250Y527D02*
X254Y527D01*
X282Y527D02*
X285Y527D01*
X316Y527D02*
X333Y527D01*
X370Y527D02*
X385Y527D01*
X427Y527D02*
X442Y527D01*
X478Y527D02*
X481Y527D01*
X494Y527D02*
X506Y527D01*
X544Y527D02*
X557Y527D01*
X566Y527D02*
X570Y527D01*
X663Y527D02*
X669Y527D01*
X706Y527D02*
X709Y527D01*
X737Y527D02*
X740Y527D01*
X763Y527D02*
X799Y527D01*
X820Y527D02*
X856Y527D01*
X940Y527D02*
X962Y527D01*
X997Y527D02*
X1019Y527D01*
X1047Y527D02*
X1073Y527D01*
X1136Y527D02*
X1139Y527D01*
X1192Y527D02*
X1196Y527D01*
X729Y507D02*
X734Y507D01*
X727Y506D02*
X736Y506D01*
X727Y505D02*
X737Y505D01*
X726Y504D02*
X737Y504D01*
X686Y503D02*
X690Y503D01*
X726Y503D02*
X737Y503D01*
X785Y503D02*
X800Y503D01*
X685Y502D02*
X691Y502D01*
X726Y502D02*
X737Y502D01*
X784Y502D02*
X801Y502D01*
X685Y501D02*
X692Y501D01*
X726Y501D02*
X737Y501D01*
X783Y501D02*
X802Y501D01*
X508Y500D02*
X511Y500D01*
X685Y500D02*
X692Y500D01*
X726Y500D02*
X737Y500D01*
X783Y500D02*
X802Y500D01*
X1191Y500D02*
X1194Y500D01*
X507Y499D02*
X512Y499D01*
X685Y499D02*
X692Y499D01*
X726Y499D02*
X737Y499D01*
X783Y499D02*
X802Y499D01*
X1190Y499D02*
X1195Y499D01*
X507Y498D02*
X513Y498D01*
X685Y498D02*
X692Y498D01*
X727Y498D02*
X736Y498D01*
X783Y498D02*
X801Y498D01*
X1190Y498D02*
X1196Y498D01*
X506Y497D02*
X513Y497D01*
X685Y497D02*
X692Y497D01*
X728Y497D02*
X736Y497D01*
X783Y497D02*
X800Y497D01*
X1189Y497D02*
X1196Y497D01*
X506Y496D02*
X513Y496D01*
X685Y496D02*
X692Y496D01*
X783Y496D02*
X791Y496D01*
X1189Y496D02*
X1196Y496D01*
X506Y495D02*
X513Y495D01*
X685Y495D02*
X692Y495D01*
X783Y495D02*
X790Y495D01*
X1189Y495D02*
X1196Y495D01*
X506Y494D02*
X513Y494D01*
X685Y494D02*
X692Y494D01*
X783Y494D02*
X790Y494D01*
X1189Y494D02*
X1196Y494D01*
X506Y493D02*
X513Y493D01*
X685Y493D02*
X692Y493D01*
X783Y493D02*
X790Y493D01*
X1189Y493D02*
X1196Y493D01*
X506Y492D02*
X513Y492D01*
X685Y492D02*
X692Y492D01*
X783Y492D02*
X790Y492D01*
X1189Y492D02*
X1196Y492D01*
X506Y491D02*
X513Y491D01*
X685Y491D02*
X692Y491D01*
X783Y491D02*
X790Y491D01*
X1189Y491D02*
X1196Y491D01*
X506Y490D02*
X513Y490D01*
X685Y490D02*
X692Y490D01*
X783Y490D02*
X790Y490D01*
X1189Y490D02*
X1196Y490D01*
X506Y489D02*
X513Y489D01*
X685Y489D02*
X692Y489D01*
X783Y489D02*
X790Y489D01*
X1189Y489D02*
X1196Y489D01*
X506Y488D02*
X513Y488D01*
X685Y488D02*
X692Y488D01*
X783Y488D02*
X790Y488D01*
X1189Y488D02*
X1196Y488D01*
X438Y487D02*
X452Y487D01*
X489Y487D02*
X518Y487D01*
X550Y487D02*
X567Y487D01*
X606Y487D02*
X617Y487D01*
X631Y487D02*
X632Y487D01*
X666Y487D02*
X675Y487D01*
X685Y487D02*
X692Y487D01*
X729Y487D02*
X742Y487D01*
X783Y487D02*
X790Y487D01*
X835Y487D02*
X852Y487D01*
X884Y487D02*
X903Y487D01*
X950Y487D02*
X964Y487D01*
X1004Y487D02*
X1015Y487D01*
X1029Y487D02*
X1031Y487D01*
X1121Y487D02*
X1135Y487D01*
X1173Y487D02*
X1201Y487D01*
X435Y486D02*
X455Y486D01*
X488Y486D02*
X520Y486D01*
X547Y486D02*
X569Y486D01*
X603Y486D02*
X618Y486D01*
X629Y486D02*
X634Y486D01*
X663Y486D02*
X678Y486D01*
X685Y486D02*
X692Y486D01*
X727Y486D02*
X744Y486D01*
X783Y486D02*
X790Y486D01*
X832Y486D02*
X854Y486D01*
X882Y486D02*
X906Y486D01*
X948Y486D02*
X967Y486D01*
X1002Y486D02*
X1017Y486D01*
X1028Y486D02*
X1032Y486D01*
X1118Y486D02*
X1138Y486D01*
X1171Y486D02*
X1203Y486D01*
X434Y485D02*
X456Y485D01*
X487Y485D02*
X521Y485D01*
X546Y485D02*
X570Y485D01*
X602Y485D02*
X619Y485D01*
X628Y485D02*
X634Y485D01*
X661Y485D02*
X680Y485D01*
X685Y485D02*
X692Y485D01*
X727Y485D02*
X744Y485D01*
X783Y485D02*
X790Y485D01*
X830Y485D02*
X854Y485D01*
X882Y485D02*
X908Y485D01*
X946Y485D02*
X969Y485D01*
X1000Y485D02*
X1018Y485D01*
X1027Y485D02*
X1033Y485D01*
X1117Y485D02*
X1139Y485D01*
X1170Y485D02*
X1204Y485D01*
X432Y484D02*
X458Y484D01*
X487Y484D02*
X521Y484D01*
X544Y484D02*
X570Y484D01*
X600Y484D02*
X621Y484D01*
X628Y484D02*
X635Y484D01*
X660Y484D02*
X682Y484D01*
X685Y484D02*
X692Y484D01*
X726Y484D02*
X745Y484D01*
X783Y484D02*
X790Y484D01*
X829Y484D02*
X855Y484D01*
X881Y484D02*
X909Y484D01*
X945Y484D02*
X970Y484D01*
X999Y484D02*
X1019Y484D01*
X1027Y484D02*
X1033Y484D01*
X1116Y484D02*
X1141Y484D01*
X1170Y484D02*
X1204Y484D01*
X431Y483D02*
X459Y483D01*
X487Y483D02*
X521Y483D01*
X544Y483D02*
X570Y483D01*
X599Y483D02*
X622Y483D01*
X628Y483D02*
X635Y483D01*
X659Y483D02*
X683Y483D01*
X685Y483D02*
X692Y483D01*
X726Y483D02*
X745Y483D01*
X783Y483D02*
X790Y483D01*
X828Y483D02*
X855Y483D01*
X881Y483D02*
X911Y483D01*
X943Y483D02*
X971Y483D01*
X998Y483D02*
X1020Y483D01*
X1026Y483D02*
X1033Y483D01*
X1114Y483D02*
X1142Y483D01*
X1170Y483D02*
X1204Y483D01*
X430Y482D02*
X460Y482D01*
X487Y482D02*
X521Y482D01*
X543Y482D02*
X570Y482D01*
X599Y482D02*
X623Y482D01*
X628Y482D02*
X635Y482D01*
X658Y482D02*
X692Y482D01*
X726Y482D02*
X745Y482D01*
X783Y482D02*
X790Y482D01*
X827Y482D02*
X854Y482D01*
X882Y482D02*
X912Y482D01*
X942Y482D02*
X972Y482D01*
X997Y482D02*
X1021Y482D01*
X1026Y482D02*
X1033Y482D01*
X1113Y482D02*
X1143Y482D01*
X1170Y482D02*
X1204Y482D01*
X429Y481D02*
X461Y481D01*
X488Y481D02*
X520Y481D01*
X542Y481D02*
X569Y481D01*
X598Y481D02*
X624Y481D01*
X628Y481D02*
X635Y481D01*
X657Y481D02*
X692Y481D01*
X726Y481D02*
X744Y481D01*
X783Y481D02*
X790Y481D01*
X827Y481D02*
X854Y481D01*
X882Y481D02*
X913Y481D01*
X941Y481D02*
X973Y481D01*
X997Y481D02*
X1023Y481D01*
X1026Y481D02*
X1033Y481D01*
X1112Y481D02*
X1144Y481D01*
X1171Y481D02*
X1203Y481D01*
X428Y480D02*
X462Y480D01*
X489Y480D02*
X519Y480D01*
X542Y480D02*
X568Y480D01*
X598Y480D02*
X625Y480D01*
X628Y480D02*
X635Y480D01*
X656Y480D02*
X692Y480D01*
X726Y480D02*
X743Y480D01*
X783Y480D02*
X790Y480D01*
X826Y480D02*
X853Y480D01*
X883Y480D02*
X914Y480D01*
X941Y480D02*
X974Y480D01*
X996Y480D02*
X1024Y480D01*
X1026Y480D02*
X1033Y480D01*
X1111Y480D02*
X1145Y480D01*
X1172Y480D02*
X1202Y480D01*
X428Y479D02*
X438Y479D01*
X452Y479D02*
X462Y479D01*
X506Y479D02*
X513Y479D01*
X541Y479D02*
X550Y479D01*
X597Y479D02*
X606Y479D01*
X615Y479D02*
X635Y479D01*
X655Y479D02*
X666Y479D01*
X676Y479D02*
X692Y479D01*
X726Y479D02*
X733Y479D01*
X783Y479D02*
X790Y479D01*
X826Y479D02*
X835Y479D01*
X903Y479D02*
X915Y479D01*
X940Y479D02*
X950Y479D01*
X964Y479D02*
X975Y479D01*
X996Y479D02*
X1005Y479D01*
X1014Y479D02*
X1033Y479D01*
X1111Y479D02*
X1121Y479D01*
X1135Y479D02*
X1145Y479D01*
X1189Y479D02*
X1196Y479D01*
X427Y478D02*
X436Y478D01*
X453Y478D02*
X463Y478D01*
X506Y478D02*
X513Y478D01*
X541Y478D02*
X549Y478D01*
X597Y478D02*
X605Y478D01*
X616Y478D02*
X635Y478D01*
X655Y478D02*
X664Y478D01*
X677Y478D02*
X692Y478D01*
X726Y478D02*
X733Y478D01*
X783Y478D02*
X790Y478D01*
X826Y478D02*
X833Y478D01*
X905Y478D02*
X916Y478D01*
X939Y478D02*
X949Y478D01*
X966Y478D02*
X975Y478D01*
X995Y478D02*
X1003Y478D01*
X1015Y478D02*
X1033Y478D01*
X1110Y478D02*
X1119Y478D01*
X1137Y478D02*
X1146Y478D01*
X1189Y478D02*
X1196Y478D01*
X427Y477D02*
X435Y477D01*
X455Y477D02*
X463Y477D01*
X506Y477D02*
X513Y477D01*
X541Y477D02*
X548Y477D01*
X597Y477D02*
X604Y477D01*
X617Y477D02*
X635Y477D01*
X654Y477D02*
X663Y477D01*
X678Y477D02*
X692Y477D01*
X726Y477D02*
X733Y477D01*
X783Y477D02*
X790Y477D01*
X825Y477D02*
X833Y477D01*
X906Y477D02*
X917Y477D01*
X939Y477D02*
X947Y477D01*
X967Y477D02*
X976Y477D01*
X995Y477D02*
X1002Y477D01*
X1016Y477D02*
X1033Y477D01*
X1110Y477D02*
X1118Y477D01*
X1138Y477D02*
X1146Y477D01*
X1189Y477D02*
X1196Y477D01*
X426Y476D02*
X434Y476D01*
X456Y476D02*
X464Y476D01*
X506Y476D02*
X513Y476D01*
X541Y476D02*
X548Y476D01*
X597Y476D02*
X604Y476D01*
X619Y476D02*
X635Y476D01*
X654Y476D02*
X662Y476D01*
X679Y476D02*
X692Y476D01*
X726Y476D02*
X733Y476D01*
X783Y476D02*
X790Y476D01*
X825Y476D02*
X833Y476D01*
X907Y476D02*
X918Y476D01*
X939Y476D02*
X946Y476D01*
X968Y476D02*
X976Y476D01*
X995Y476D02*
X1002Y476D01*
X1017Y476D02*
X1033Y476D01*
X1109Y476D02*
X1117Y476D01*
X1139Y476D02*
X1147Y476D01*
X1189Y476D02*
X1196Y476D01*
X426Y475D02*
X433Y475D01*
X456Y475D02*
X464Y475D01*
X506Y475D02*
X513Y475D01*
X541Y475D02*
X548Y475D01*
X597Y475D02*
X604Y475D01*
X620Y475D02*
X635Y475D01*
X654Y475D02*
X661Y475D01*
X681Y475D02*
X692Y475D01*
X726Y475D02*
X733Y475D01*
X783Y475D02*
X790Y475D01*
X825Y475D02*
X832Y475D01*
X908Y475D02*
X918Y475D01*
X938Y475D02*
X946Y475D01*
X969Y475D02*
X976Y475D01*
X995Y475D02*
X1002Y475D01*
X1018Y475D02*
X1033Y475D01*
X1109Y475D02*
X1116Y475D01*
X1140Y475D02*
X1147Y475D01*
X1189Y475D02*
X1196Y475D01*
X426Y474D02*
X433Y474D01*
X457Y474D02*
X464Y474D01*
X506Y474D02*
X513Y474D01*
X541Y474D02*
X548Y474D01*
X597Y474D02*
X604Y474D01*
X621Y474D02*
X635Y474D01*
X654Y474D02*
X661Y474D01*
X682Y474D02*
X692Y474D01*
X726Y474D02*
X733Y474D01*
X783Y474D02*
X790Y474D01*
X825Y474D02*
X832Y474D01*
X909Y474D02*
X919Y474D01*
X938Y474D02*
X945Y474D01*
X969Y474D02*
X976Y474D01*
X995Y474D02*
X1002Y474D01*
X1019Y474D02*
X1033Y474D01*
X1109Y474D02*
X1116Y474D01*
X1140Y474D02*
X1147Y474D01*
X1189Y474D02*
X1196Y474D01*
X426Y473D02*
X433Y473D01*
X457Y473D02*
X464Y473D01*
X506Y473D02*
X513Y473D01*
X541Y473D02*
X548Y473D01*
X597Y473D02*
X604Y473D01*
X622Y473D02*
X635Y473D01*
X654Y473D02*
X661Y473D01*
X683Y473D02*
X692Y473D01*
X726Y473D02*
X733Y473D01*
X783Y473D02*
X790Y473D01*
X825Y473D02*
X832Y473D01*
X911Y473D02*
X919Y473D01*
X938Y473D02*
X945Y473D01*
X969Y473D02*
X976Y473D01*
X995Y473D02*
X1002Y473D01*
X1021Y473D02*
X1033Y473D01*
X1109Y473D02*
X1116Y473D01*
X1140Y473D02*
X1147Y473D01*
X1189Y473D02*
X1196Y473D01*
X426Y472D02*
X433Y472D01*
X457Y472D02*
X464Y472D01*
X506Y472D02*
X513Y472D01*
X541Y472D02*
X548Y472D01*
X597Y472D02*
X603Y472D01*
X623Y472D02*
X635Y472D01*
X654Y472D02*
X661Y472D01*
X684Y472D02*
X692Y472D01*
X726Y472D02*
X733Y472D01*
X783Y472D02*
X790Y472D01*
X825Y472D02*
X832Y472D01*
X912Y472D02*
X919Y472D01*
X938Y472D02*
X945Y472D01*
X969Y472D02*
X976Y472D01*
X995Y472D02*
X1002Y472D01*
X1022Y472D02*
X1033Y472D01*
X1109Y472D02*
X1116Y472D01*
X1140Y472D02*
X1147Y472D01*
X1189Y472D02*
X1196Y472D01*
X426Y471D02*
X433Y471D01*
X457Y471D02*
X464Y471D01*
X506Y471D02*
X513Y471D01*
X541Y471D02*
X548Y471D01*
X597Y471D02*
X603Y471D01*
X624Y471D02*
X635Y471D01*
X654Y471D02*
X661Y471D01*
X685Y471D02*
X692Y471D01*
X726Y471D02*
X733Y471D01*
X783Y471D02*
X790Y471D01*
X825Y471D02*
X832Y471D01*
X912Y471D02*
X919Y471D01*
X938Y471D02*
X945Y471D01*
X969Y471D02*
X976Y471D01*
X996Y471D02*
X1001Y471D01*
X1023Y471D02*
X1033Y471D01*
X1109Y471D02*
X1116Y471D01*
X1140Y471D02*
X1147Y471D01*
X1189Y471D02*
X1196Y471D01*
X426Y470D02*
X433Y470D01*
X457Y470D02*
X464Y470D01*
X506Y470D02*
X513Y470D01*
X541Y470D02*
X570Y470D01*
X599Y470D02*
X602Y470D01*
X626Y470D02*
X635Y470D01*
X654Y470D02*
X661Y470D01*
X685Y470D02*
X692Y470D01*
X726Y470D02*
X733Y470D01*
X783Y470D02*
X790Y470D01*
X825Y470D02*
X854Y470D01*
X912Y470D02*
X919Y470D01*
X938Y470D02*
X945Y470D01*
X969Y470D02*
X976Y470D01*
X997Y470D02*
X1000Y470D01*
X1024Y470D02*
X1033Y470D01*
X1109Y470D02*
X1116Y470D01*
X1140Y470D02*
X1147Y470D01*
X1189Y470D02*
X1196Y470D01*
X426Y469D02*
X433Y469D01*
X457Y469D02*
X464Y469D01*
X506Y469D02*
X513Y469D01*
X540Y469D02*
X572Y469D01*
X627Y469D02*
X635Y469D01*
X654Y469D02*
X661Y469D01*
X685Y469D02*
X692Y469D01*
X726Y469D02*
X733Y469D01*
X783Y469D02*
X790Y469D01*
X825Y469D02*
X857Y469D01*
X913Y469D02*
X919Y469D01*
X938Y469D02*
X945Y469D01*
X969Y469D02*
X976Y469D01*
X1025Y469D02*
X1033Y469D01*
X1109Y469D02*
X1116Y469D01*
X1140Y469D02*
X1147Y469D01*
X1189Y469D02*
X1196Y469D01*
X426Y468D02*
X433Y468D01*
X457Y468D02*
X464Y468D01*
X506Y468D02*
X513Y468D01*
X540Y468D02*
X573Y468D01*
X628Y468D02*
X635Y468D01*
X654Y468D02*
X661Y468D01*
X685Y468D02*
X692Y468D01*
X726Y468D02*
X733Y468D01*
X783Y468D02*
X790Y468D01*
X825Y468D02*
X858Y468D01*
X913Y468D02*
X919Y468D01*
X938Y468D02*
X945Y468D01*
X969Y468D02*
X976Y468D01*
X1026Y468D02*
X1033Y468D01*
X1109Y468D02*
X1116Y468D01*
X1140Y468D02*
X1147Y468D01*
X1189Y468D02*
X1196Y468D01*
X384Y467D02*
X392Y467D01*
X426Y467D02*
X464Y467D01*
X506Y467D02*
X513Y467D01*
X540Y467D02*
X575Y467D01*
X628Y467D02*
X635Y467D01*
X654Y467D02*
X661Y467D01*
X685Y467D02*
X692Y467D01*
X726Y467D02*
X733Y467D01*
X783Y467D02*
X790Y467D01*
X825Y467D02*
X859Y467D01*
X913Y467D02*
X919Y467D01*
X938Y467D02*
X976Y467D01*
X1026Y467D02*
X1033Y467D01*
X1109Y467D02*
X1116Y467D01*
X1140Y467D02*
X1147Y467D01*
X1189Y467D02*
X1196Y467D01*
X382Y466D02*
X394Y466D01*
X426Y466D02*
X464Y466D01*
X506Y466D02*
X513Y466D01*
X540Y466D02*
X575Y466D01*
X628Y466D02*
X635Y466D01*
X654Y466D02*
X661Y466D01*
X685Y466D02*
X692Y466D01*
X726Y466D02*
X733Y466D01*
X783Y466D02*
X790Y466D01*
X825Y466D02*
X860Y466D01*
X913Y466D02*
X919Y466D01*
X938Y466D02*
X976Y466D01*
X1026Y466D02*
X1033Y466D01*
X1109Y466D02*
X1116Y466D01*
X1140Y466D02*
X1147Y466D01*
X1189Y466D02*
X1196Y466D01*
X381Y465D02*
X395Y465D01*
X426Y465D02*
X464Y465D01*
X506Y465D02*
X513Y465D01*
X540Y465D02*
X576Y465D01*
X628Y465D02*
X635Y465D01*
X654Y465D02*
X661Y465D01*
X685Y465D02*
X692Y465D01*
X726Y465D02*
X733Y465D01*
X783Y465D02*
X790Y465D01*
X825Y465D02*
X861Y465D01*
X913Y465D02*
X919Y465D01*
X938Y465D02*
X976Y465D01*
X1026Y465D02*
X1033Y465D01*
X1109Y465D02*
X1116Y465D01*
X1140Y465D02*
X1147Y465D01*
X1189Y465D02*
X1196Y465D01*
X381Y464D02*
X395Y464D01*
X426Y464D02*
X464Y464D01*
X506Y464D02*
X513Y464D01*
X540Y464D02*
X577Y464D01*
X628Y464D02*
X635Y464D01*
X654Y464D02*
X661Y464D01*
X685Y464D02*
X692Y464D01*
X726Y464D02*
X733Y464D01*
X783Y464D02*
X790Y464D01*
X825Y464D02*
X861Y464D01*
X913Y464D02*
X919Y464D01*
X938Y464D02*
X976Y464D01*
X1026Y464D02*
X1033Y464D01*
X1109Y464D02*
X1116Y464D01*
X1140Y464D02*
X1147Y464D01*
X1189Y464D02*
X1196Y464D01*
X381Y463D02*
X395Y463D01*
X426Y463D02*
X464Y463D01*
X506Y463D02*
X513Y463D01*
X540Y463D02*
X577Y463D01*
X628Y463D02*
X635Y463D01*
X654Y463D02*
X661Y463D01*
X685Y463D02*
X692Y463D01*
X726Y463D02*
X733Y463D01*
X783Y463D02*
X790Y463D01*
X825Y463D02*
X862Y463D01*
X913Y463D02*
X919Y463D01*
X938Y463D02*
X976Y463D01*
X1026Y463D02*
X1033Y463D01*
X1109Y463D02*
X1116Y463D01*
X1140Y463D02*
X1147Y463D01*
X1189Y463D02*
X1196Y463D01*
X381Y462D02*
X395Y462D01*
X426Y462D02*
X464Y462D01*
X506Y462D02*
X513Y462D01*
X540Y462D02*
X549Y462D01*
X569Y462D02*
X577Y462D01*
X628Y462D02*
X635Y462D01*
X654Y462D02*
X661Y462D01*
X685Y462D02*
X692Y462D01*
X726Y462D02*
X733Y462D01*
X783Y462D02*
X790Y462D01*
X825Y462D02*
X834Y462D01*
X854Y462D02*
X862Y462D01*
X913Y462D02*
X919Y462D01*
X938Y462D02*
X976Y462D01*
X1026Y462D02*
X1033Y462D01*
X1109Y462D02*
X1116Y462D01*
X1140Y462D02*
X1147Y462D01*
X1189Y462D02*
X1196Y462D01*
X381Y461D02*
X395Y461D01*
X427Y461D02*
X464Y461D01*
X506Y461D02*
X513Y461D01*
X540Y461D02*
X548Y461D01*
X570Y461D02*
X578Y461D01*
X628Y461D02*
X635Y461D01*
X654Y461D02*
X661Y461D01*
X685Y461D02*
X692Y461D01*
X726Y461D02*
X733Y461D01*
X783Y461D02*
X790Y461D01*
X825Y461D02*
X833Y461D01*
X855Y461D02*
X862Y461D01*
X913Y461D02*
X919Y461D01*
X939Y461D02*
X976Y461D01*
X1026Y461D02*
X1033Y461D01*
X1109Y461D02*
X1116Y461D01*
X1140Y461D02*
X1147Y461D01*
X1189Y461D02*
X1196Y461D01*
X381Y460D02*
X395Y460D01*
X428Y460D02*
X464Y460D01*
X506Y460D02*
X513Y460D01*
X540Y460D02*
X547Y460D01*
X571Y460D02*
X578Y460D01*
X628Y460D02*
X635Y460D01*
X654Y460D02*
X661Y460D01*
X685Y460D02*
X692Y460D01*
X726Y460D02*
X733Y460D01*
X783Y460D02*
X790Y460D01*
X825Y460D02*
X832Y460D01*
X855Y460D02*
X862Y460D01*
X912Y460D02*
X919Y460D01*
X940Y460D02*
X976Y460D01*
X1026Y460D02*
X1033Y460D01*
X1109Y460D02*
X1116Y460D01*
X1140Y460D02*
X1147Y460D01*
X1189Y460D02*
X1196Y460D01*
X381Y459D02*
X395Y459D01*
X457Y459D02*
X464Y459D01*
X506Y459D02*
X513Y459D01*
X540Y459D02*
X547Y459D01*
X571Y459D02*
X578Y459D01*
X628Y459D02*
X635Y459D01*
X654Y459D02*
X661Y459D01*
X685Y459D02*
X692Y459D01*
X726Y459D02*
X733Y459D01*
X783Y459D02*
X790Y459D01*
X825Y459D02*
X832Y459D01*
X856Y459D02*
X863Y459D01*
X912Y459D02*
X919Y459D01*
X969Y459D02*
X976Y459D01*
X1026Y459D02*
X1033Y459D01*
X1109Y459D02*
X1116Y459D01*
X1140Y459D02*
X1147Y459D01*
X1189Y459D02*
X1196Y459D01*
X381Y458D02*
X395Y458D01*
X457Y458D02*
X464Y458D01*
X506Y458D02*
X513Y458D01*
X540Y458D02*
X547Y458D01*
X571Y458D02*
X578Y458D01*
X628Y458D02*
X635Y458D01*
X654Y458D02*
X661Y458D01*
X684Y458D02*
X692Y458D01*
X726Y458D02*
X733Y458D01*
X783Y458D02*
X790Y458D01*
X825Y458D02*
X832Y458D01*
X856Y458D02*
X863Y458D01*
X912Y458D02*
X919Y458D01*
X969Y458D02*
X976Y458D01*
X1026Y458D02*
X1033Y458D01*
X1109Y458D02*
X1116Y458D01*
X1140Y458D02*
X1147Y458D01*
X1189Y458D02*
X1196Y458D01*
X381Y457D02*
X395Y457D01*
X457Y457D02*
X464Y457D01*
X486Y457D02*
X487Y457D01*
X506Y457D02*
X513Y457D01*
X540Y457D02*
X547Y457D01*
X571Y457D02*
X578Y457D01*
X628Y457D02*
X635Y457D01*
X654Y457D02*
X661Y457D01*
X683Y457D02*
X692Y457D01*
X726Y457D02*
X733Y457D01*
X783Y457D02*
X790Y457D01*
X825Y457D02*
X832Y457D01*
X856Y457D02*
X863Y457D01*
X911Y457D02*
X919Y457D01*
X969Y457D02*
X976Y457D01*
X1026Y457D02*
X1033Y457D01*
X1109Y457D02*
X1116Y457D01*
X1140Y457D02*
X1147Y457D01*
X1169Y457D02*
X1170Y457D01*
X1189Y457D02*
X1196Y457D01*
X381Y456D02*
X395Y456D01*
X457Y456D02*
X464Y456D01*
X484Y456D02*
X488Y456D01*
X506Y456D02*
X513Y456D01*
X540Y456D02*
X547Y456D01*
X571Y456D02*
X578Y456D01*
X628Y456D02*
X635Y456D01*
X654Y456D02*
X661Y456D01*
X682Y456D02*
X692Y456D01*
X726Y456D02*
X733Y456D01*
X783Y456D02*
X790Y456D01*
X825Y456D02*
X832Y456D01*
X856Y456D02*
X863Y456D01*
X910Y456D02*
X919Y456D01*
X969Y456D02*
X976Y456D01*
X1026Y456D02*
X1033Y456D01*
X1109Y456D02*
X1116Y456D01*
X1140Y456D02*
X1147Y456D01*
X1167Y456D02*
X1172Y456D01*
X1189Y456D02*
X1196Y456D01*
X381Y455D02*
X395Y455D01*
X457Y455D02*
X464Y455D01*
X483Y455D02*
X489Y455D01*
X506Y455D02*
X513Y455D01*
X540Y455D02*
X548Y455D01*
X571Y455D02*
X578Y455D01*
X628Y455D02*
X635Y455D01*
X654Y455D02*
X661Y455D01*
X681Y455D02*
X692Y455D01*
X726Y455D02*
X733Y455D01*
X783Y455D02*
X790Y455D01*
X825Y455D02*
X833Y455D01*
X856Y455D02*
X863Y455D01*
X909Y455D02*
X918Y455D01*
X969Y455D02*
X976Y455D01*
X1026Y455D02*
X1033Y455D01*
X1109Y455D02*
X1116Y455D01*
X1140Y455D02*
X1147Y455D01*
X1166Y455D02*
X1172Y455D01*
X1189Y455D02*
X1196Y455D01*
X382Y454D02*
X394Y454D01*
X456Y454D02*
X464Y454D01*
X483Y454D02*
X490Y454D01*
X506Y454D02*
X513Y454D01*
X540Y454D02*
X550Y454D01*
X571Y454D02*
X578Y454D01*
X628Y454D02*
X635Y454D01*
X654Y454D02*
X662Y454D01*
X680Y454D02*
X692Y454D01*
X726Y454D02*
X733Y454D01*
X783Y454D02*
X790Y454D01*
X825Y454D02*
X834Y454D01*
X856Y454D02*
X863Y454D01*
X907Y454D02*
X918Y454D01*
X968Y454D02*
X976Y454D01*
X1026Y454D02*
X1033Y454D01*
X1109Y454D02*
X1117Y454D01*
X1139Y454D02*
X1147Y454D01*
X1166Y454D02*
X1173Y454D01*
X1189Y454D02*
X1196Y454D01*
X383Y453D02*
X393Y453D01*
X455Y453D02*
X463Y453D01*
X483Y453D02*
X490Y453D01*
X506Y453D02*
X513Y453D01*
X540Y453D02*
X551Y453D01*
X571Y453D02*
X578Y453D01*
X628Y453D02*
X635Y453D01*
X654Y453D02*
X663Y453D01*
X678Y453D02*
X692Y453D01*
X726Y453D02*
X733Y453D01*
X783Y453D02*
X790Y453D01*
X825Y453D02*
X836Y453D01*
X855Y453D02*
X862Y453D01*
X906Y453D02*
X917Y453D01*
X967Y453D02*
X976Y453D01*
X1026Y453D02*
X1033Y453D01*
X1110Y453D02*
X1118Y453D01*
X1138Y453D02*
X1147Y453D01*
X1166Y453D02*
X1173Y453D01*
X1189Y453D02*
X1196Y453D01*
X454Y452D02*
X463Y452D01*
X483Y452D02*
X491Y452D01*
X505Y452D02*
X513Y452D01*
X540Y452D02*
X553Y452D01*
X570Y452D02*
X578Y452D01*
X628Y452D02*
X635Y452D01*
X655Y452D02*
X664Y452D01*
X677Y452D02*
X692Y452D01*
X726Y452D02*
X733Y452D01*
X783Y452D02*
X790Y452D01*
X825Y452D02*
X838Y452D01*
X855Y452D02*
X862Y452D01*
X905Y452D02*
X916Y452D01*
X966Y452D02*
X975Y452D01*
X1026Y452D02*
X1033Y452D01*
X1110Y452D02*
X1119Y452D01*
X1137Y452D02*
X1146Y452D01*
X1166Y452D02*
X1174Y452D01*
X1188Y452D02*
X1196Y452D01*
X452Y451D02*
X463Y451D01*
X483Y451D02*
X492Y451D01*
X504Y451D02*
X513Y451D01*
X540Y451D02*
X555Y451D01*
X569Y451D02*
X577Y451D01*
X628Y451D02*
X635Y451D01*
X655Y451D02*
X665Y451D01*
X676Y451D02*
X692Y451D01*
X726Y451D02*
X733Y451D01*
X783Y451D02*
X790Y451D01*
X824Y451D02*
X839Y451D01*
X854Y451D02*
X862Y451D01*
X904Y451D02*
X915Y451D01*
X964Y451D02*
X975Y451D01*
X1026Y451D02*
X1033Y451D01*
X1111Y451D02*
X1121Y451D01*
X1135Y451D02*
X1146Y451D01*
X1166Y451D02*
X1175Y451D01*
X1187Y451D02*
X1196Y451D01*
X428Y450D02*
X462Y450D01*
X484Y450D02*
X512Y450D01*
X540Y450D02*
X577Y450D01*
X628Y450D02*
X635Y450D01*
X656Y450D02*
X692Y450D01*
X717Y450D02*
X743Y450D01*
X774Y450D02*
X800Y450D01*
X824Y450D02*
X862Y450D01*
X883Y450D02*
X914Y450D01*
X940Y450D02*
X974Y450D01*
X1026Y450D02*
X1033Y450D01*
X1111Y450D02*
X1145Y450D01*
X1167Y450D02*
X1195Y450D01*
X427Y449D02*
X461Y449D01*
X484Y449D02*
X512Y449D01*
X540Y449D02*
X577Y449D01*
X628Y449D02*
X635Y449D01*
X657Y449D02*
X692Y449D01*
X715Y449D02*
X744Y449D01*
X772Y449D02*
X801Y449D01*
X824Y449D02*
X861Y449D01*
X882Y449D02*
X913Y449D01*
X939Y449D02*
X973Y449D01*
X1026Y449D02*
X1033Y449D01*
X1112Y449D02*
X1144Y449D01*
X1167Y449D02*
X1195Y449D01*
X426Y448D02*
X460Y448D01*
X485Y448D02*
X511Y448D01*
X540Y448D02*
X576Y448D01*
X628Y448D02*
X635Y448D01*
X658Y448D02*
X692Y448D01*
X715Y448D02*
X744Y448D01*
X772Y448D02*
X801Y448D01*
X824Y448D02*
X861Y448D01*
X882Y448D02*
X912Y448D01*
X939Y448D02*
X972Y448D01*
X1026Y448D02*
X1033Y448D01*
X1113Y448D02*
X1143Y448D01*
X1168Y448D02*
X1194Y448D01*
X426Y447D02*
X459Y447D01*
X485Y447D02*
X511Y447D01*
X540Y447D02*
X575Y447D01*
X628Y447D02*
X635Y447D01*
X659Y447D02*
X683Y447D01*
X685Y447D02*
X692Y447D01*
X714Y447D02*
X745Y447D01*
X771Y447D02*
X802Y447D01*
X824Y447D02*
X860Y447D01*
X881Y447D02*
X910Y447D01*
X938Y447D02*
X971Y447D01*
X1026Y447D02*
X1033Y447D01*
X1114Y447D02*
X1142Y447D01*
X1169Y447D02*
X1194Y447D01*
X426Y446D02*
X458Y446D01*
X486Y446D02*
X510Y446D01*
X540Y446D02*
X574Y446D01*
X628Y446D02*
X635Y446D01*
X660Y446D02*
X682Y446D01*
X685Y446D02*
X692Y446D01*
X715Y446D02*
X745Y446D01*
X771Y446D02*
X802Y446D01*
X824Y446D02*
X831Y446D01*
X833Y446D02*
X859Y446D01*
X881Y446D02*
X909Y446D01*
X938Y446D02*
X970Y446D01*
X1026Y446D02*
X1033Y446D01*
X1115Y446D02*
X1141Y446D01*
X1170Y446D02*
X1193Y446D01*
X426Y445D02*
X457Y445D01*
X488Y445D02*
X508Y445D01*
X540Y445D02*
X546Y445D01*
X550Y445D02*
X573Y445D01*
X628Y445D02*
X634Y445D01*
X661Y445D02*
X681Y445D01*
X685Y445D02*
X691Y445D01*
X715Y445D02*
X744Y445D01*
X772Y445D02*
X801Y445D01*
X825Y445D02*
X831Y445D01*
X835Y445D02*
X858Y445D01*
X882Y445D02*
X908Y445D01*
X939Y445D02*
X969Y445D01*
X1027Y445D02*
X1033Y445D01*
X1117Y445D02*
X1140Y445D01*
X1171Y445D02*
X1192Y445D01*
X427Y444D02*
X455Y444D01*
X489Y444D02*
X507Y444D01*
X541Y444D02*
X546Y444D01*
X552Y444D02*
X572Y444D01*
X629Y444D02*
X634Y444D01*
X663Y444D02*
X679Y444D01*
X686Y444D02*
X691Y444D01*
X715Y444D02*
X744Y444D01*
X772Y444D02*
X801Y444D01*
X825Y444D02*
X830Y444D01*
X837Y444D02*
X856Y444D01*
X882Y444D02*
X907Y444D01*
X939Y444D02*
X967Y444D01*
X1027Y444D02*
X1032Y444D01*
X1118Y444D02*
X1138Y444D01*
X1172Y444D02*
X1190Y444D01*
X428Y443D02*
X453Y443D01*
X492Y443D02*
X505Y443D01*
X542Y443D02*
X544Y443D01*
X554Y443D02*
X569Y443D01*
X630Y443D02*
X633Y443D01*
X665Y443D02*
X676Y443D01*
X687Y443D02*
X690Y443D01*
X717Y443D02*
X743Y443D01*
X774Y443D02*
X799Y443D01*
X827Y443D02*
X829Y443D01*
X838Y443D02*
X854Y443D01*
X884Y443D02*
X904Y443D01*
X940Y443D02*
X965Y443D01*
X1029Y443D02*
X1031Y443D01*
X1121Y443D02*
X1136Y443D01*
X1175Y443D02*
X1188Y443D01*
D02*
G04 End of Silk0*
M02*