G04 MADE WITH FRITZING*
G04 WWW.FRITZING.ORG*
G04 DOUBLE SIDED*
G04 HOLES PLATED*
G04 CONTOUR ON CENTER OF CONTOUR VECTOR*
%ASAXBY*%
%FSLAX23Y23*%
%MOIN*%
%OFA0B0*%
%SFA1.0B1.0*%
%ADD10C,0.074000*%
%ADD11C,0.200000*%
%ADD12C,0.075000*%
%ADD13R,0.075000X0.075000*%
%ADD14C,0.024000*%
%ADD15C,0.012000*%
%ADD16R,0.001000X0.001000*%
%LNCOPPER1*%
G90*
G70*
G54D10*
X1870Y843D03*
X1870Y734D03*
X1870Y625D03*
X1870Y516D03*
X1870Y407D03*
X1981Y788D03*
X1981Y679D03*
X1981Y571D03*
X1981Y461D03*
G54D11*
X1926Y1117D03*
X1926Y133D03*
G54D10*
X1870Y843D03*
X1870Y734D03*
X1870Y625D03*
X1870Y516D03*
X1870Y407D03*
X1981Y788D03*
X1981Y679D03*
X1981Y571D03*
X1981Y461D03*
G54D11*
X1926Y1117D03*
X1926Y133D03*
G54D12*
X1369Y1001D03*
X1669Y1001D03*
X1369Y901D03*
X1669Y901D03*
X1369Y801D03*
X1669Y801D03*
X1369Y701D03*
X1669Y701D03*
X1369Y601D03*
X1669Y601D03*
X1369Y501D03*
X1669Y501D03*
X1369Y401D03*
X1669Y401D03*
X1369Y301D03*
X1669Y301D03*
X69Y351D03*
X69Y951D03*
X169Y351D03*
X169Y951D03*
X269Y351D03*
X269Y951D03*
X369Y351D03*
X369Y951D03*
X469Y351D03*
X469Y951D03*
X569Y351D03*
X569Y951D03*
X669Y351D03*
X669Y951D03*
X769Y351D03*
X769Y951D03*
X869Y351D03*
X869Y951D03*
X969Y351D03*
X969Y951D03*
X1069Y351D03*
X1069Y951D03*
X1169Y351D03*
X1169Y951D03*
X869Y113D03*
X1169Y113D03*
X869Y238D03*
X1169Y238D03*
X1169Y1176D03*
X869Y1176D03*
X1169Y1051D03*
X869Y1051D03*
X656Y63D03*
X401Y63D03*
X656Y240D03*
X401Y240D03*
G54D13*
X1369Y1001D03*
X69Y351D03*
G54D14*
X868Y38D02*
X1780Y38D01*
D02*
X1780Y38D02*
X1780Y625D01*
D02*
X1780Y625D02*
X1839Y625D01*
D02*
X1257Y1001D02*
X1340Y1001D01*
D02*
X1256Y851D02*
X1257Y1001D01*
D02*
X68Y851D02*
X1256Y851D01*
D02*
X69Y922D02*
X68Y851D01*
G54D15*
D02*
X1457Y801D02*
X1392Y801D01*
D02*
X1169Y177D02*
X1457Y177D01*
D02*
X1457Y177D02*
X1457Y801D01*
D02*
X1169Y215D02*
X1169Y177D01*
D02*
X1069Y328D02*
X1070Y113D01*
D02*
X1070Y113D02*
X1146Y113D01*
D02*
X1506Y113D02*
X1493Y901D01*
D02*
X1493Y901D02*
X1392Y901D01*
D02*
X1192Y113D02*
X1506Y113D01*
D02*
X882Y1039D02*
X886Y1035D01*
D02*
X953Y967D02*
X882Y1039D01*
D02*
X806Y1012D02*
X807Y1175D01*
D02*
X807Y1175D02*
X846Y1175D01*
D02*
X852Y967D02*
X806Y1012D01*
G54D14*
D02*
X1169Y1147D02*
X1169Y1079D01*
D02*
X1744Y1089D02*
X1468Y1089D01*
D02*
X1745Y739D02*
X1744Y1089D01*
D02*
X1839Y735D02*
X1745Y739D01*
D02*
X1468Y1089D02*
X1390Y1020D01*
D02*
X372Y241D02*
X69Y251D01*
D02*
X69Y251D02*
X69Y322D01*
D02*
X628Y240D02*
X429Y240D01*
D02*
X628Y63D02*
X429Y63D01*
D02*
X1257Y301D02*
X1340Y301D01*
D02*
X1257Y450D02*
X1257Y301D01*
D02*
X69Y450D02*
X1257Y450D01*
D02*
X69Y379D02*
X69Y450D01*
D02*
X840Y239D02*
X685Y240D01*
D02*
X869Y142D02*
X869Y210D01*
D02*
X868Y38D02*
X869Y85D01*
G54D16*
X1833Y880D02*
X1906Y880D01*
X1833Y879D02*
X1906Y879D01*
X1833Y878D02*
X1906Y878D01*
X1833Y877D02*
X1906Y877D01*
X1833Y876D02*
X1906Y876D01*
X1833Y875D02*
X1906Y875D01*
X1833Y874D02*
X1906Y874D01*
X1833Y873D02*
X1906Y873D01*
X1833Y872D02*
X1906Y872D01*
X1833Y871D02*
X1906Y871D01*
X1833Y870D02*
X1906Y870D01*
X1833Y869D02*
X1906Y869D01*
X1833Y868D02*
X1906Y868D01*
X1833Y867D02*
X1906Y867D01*
X1833Y866D02*
X1906Y866D01*
X1833Y865D02*
X1906Y865D01*
X1833Y864D02*
X1906Y864D01*
X1833Y863D02*
X1865Y863D01*
X1874Y863D02*
X1906Y863D01*
X1833Y862D02*
X1861Y862D01*
X1877Y862D02*
X1906Y862D01*
X1833Y861D02*
X1859Y861D01*
X1879Y861D02*
X1906Y861D01*
X1833Y860D02*
X1857Y860D01*
X1881Y860D02*
X1906Y860D01*
X1833Y859D02*
X1856Y859D01*
X1882Y859D02*
X1906Y859D01*
X1833Y858D02*
X1855Y858D01*
X1883Y858D02*
X1906Y858D01*
X1833Y857D02*
X1854Y857D01*
X1884Y857D02*
X1906Y857D01*
X1833Y856D02*
X1853Y856D01*
X1885Y856D02*
X1906Y856D01*
X1833Y855D02*
X1852Y855D01*
X1886Y855D02*
X1906Y855D01*
X1833Y854D02*
X1852Y854D01*
X1887Y854D02*
X1906Y854D01*
X1833Y853D02*
X1851Y853D01*
X1887Y853D02*
X1906Y853D01*
X1833Y852D02*
X1851Y852D01*
X1888Y852D02*
X1906Y852D01*
X1833Y851D02*
X1850Y851D01*
X1888Y851D02*
X1906Y851D01*
X1833Y850D02*
X1850Y850D01*
X1888Y850D02*
X1906Y850D01*
X1833Y849D02*
X1850Y849D01*
X1889Y849D02*
X1906Y849D01*
X1833Y848D02*
X1849Y848D01*
X1889Y848D02*
X1906Y848D01*
X1833Y847D02*
X1849Y847D01*
X1889Y847D02*
X1906Y847D01*
X1833Y846D02*
X1849Y846D01*
X1889Y846D02*
X1906Y846D01*
X1833Y845D02*
X1849Y845D01*
X1890Y845D02*
X1906Y845D01*
X1833Y844D02*
X1849Y844D01*
X1890Y844D02*
X1906Y844D01*
X1833Y843D02*
X1849Y843D01*
X1890Y843D02*
X1906Y843D01*
X1833Y842D02*
X1849Y842D01*
X1890Y842D02*
X1906Y842D01*
X1833Y841D02*
X1849Y841D01*
X1889Y841D02*
X1906Y841D01*
X1833Y840D02*
X1849Y840D01*
X1889Y840D02*
X1906Y840D01*
X1833Y839D02*
X1849Y839D01*
X1889Y839D02*
X1906Y839D01*
X1833Y838D02*
X1850Y838D01*
X1889Y838D02*
X1906Y838D01*
X1833Y837D02*
X1850Y837D01*
X1889Y837D02*
X1906Y837D01*
X1833Y836D02*
X1850Y836D01*
X1888Y836D02*
X1906Y836D01*
X1833Y835D02*
X1851Y835D01*
X1888Y835D02*
X1906Y835D01*
X1833Y834D02*
X1851Y834D01*
X1887Y834D02*
X1906Y834D01*
X1833Y833D02*
X1852Y833D01*
X1887Y833D02*
X1906Y833D01*
X1833Y832D02*
X1852Y832D01*
X1886Y832D02*
X1906Y832D01*
X1833Y831D02*
X1853Y831D01*
X1885Y831D02*
X1906Y831D01*
X1833Y830D02*
X1854Y830D01*
X1884Y830D02*
X1906Y830D01*
X1833Y829D02*
X1855Y829D01*
X1883Y829D02*
X1906Y829D01*
X1833Y828D02*
X1856Y828D01*
X1882Y828D02*
X1906Y828D01*
X1833Y827D02*
X1857Y827D01*
X1881Y827D02*
X1906Y827D01*
X1833Y826D02*
X1859Y826D01*
X1879Y826D02*
X1906Y826D01*
X1833Y825D02*
X1861Y825D01*
X1877Y825D02*
X1906Y825D01*
X1833Y824D02*
X1864Y824D01*
X1874Y824D02*
X1906Y824D01*
X1833Y823D02*
X1906Y823D01*
X1833Y822D02*
X1906Y822D01*
X1833Y821D02*
X1906Y821D01*
X1833Y820D02*
X1906Y820D01*
X1833Y819D02*
X1906Y819D01*
X1833Y818D02*
X1906Y818D01*
X1833Y817D02*
X1906Y817D01*
X1833Y816D02*
X1906Y816D01*
X1833Y815D02*
X1906Y815D01*
X1833Y814D02*
X1906Y814D01*
X1833Y813D02*
X1906Y813D01*
X1833Y812D02*
X1906Y812D01*
X1833Y811D02*
X1906Y811D01*
X1833Y810D02*
X1906Y810D01*
X1833Y809D02*
X1906Y809D01*
X1833Y808D02*
X1906Y808D01*
X1833Y807D02*
X1906Y807D01*
D02*
G04 End of Copper1*
M02*