; NON-PLATED HOLES START AT T1
; THROUGH (PLATED) HOLES START AT T100
M48
INCH
T1C0.086614
T100C0.040000
T101C0.130000
T102C0.035000
%
T1
X000814Y000882
X000814Y011632
T100
X018696Y007339
X018696Y004067
X018696Y008429
X019814Y006791
X018696Y005157
X019814Y004614
X019814Y007882
X018696Y006248
X019814Y005705
T101
X019255Y001327
X019255Y011169
T102
X013689Y005007
X000689Y009507
X006564Y002404
X016689Y005007
X005689Y009507
X003689Y009507
X001689Y009507
X008689Y009507
X006689Y009507
X004689Y009507
X002689Y009507
X008689Y001132
X009689Y009507
X007689Y009507
X013689Y003007
X008689Y010507
X016689Y003007
X013689Y008007
X010689Y009507
X016689Y008007
X011689Y009507
X011689Y001132
X004005Y002404
X011689Y010507
X008689Y002382
X013689Y006007
X008689Y011757
X016689Y006007
X000689Y003507
X006564Y000632
X005689Y003507
X003689Y003507
X001689Y003507
X013689Y004007
X011689Y002382
X008689Y003507
X006689Y003507
X004689Y003507
X002689Y003507
X016689Y004007
X013689Y009007
X011689Y011757
X009689Y003507
X007689Y003507
X016689Y009007
X013689Y010007
X016689Y010007
X010689Y003507
X013689Y007007
X011689Y003507
X016689Y007007
X004005Y000632
T00
M30
