G04 MADE WITH FRITZING*
G04 WWW.FRITZING.ORG*
G04 DOUBLE SIDED*
G04 HOLES PLATED*
G04 CONTOUR ON CENTER OF CONTOUR VECTOR*
%ASAXBY*%
%FSLAX23Y23*%
%MOIN*%
%OFA0B0*%
%SFA1.0B1.0*%
%ADD10C,0.084000*%
%ADD11C,0.210000*%
%ADD12C,0.085000*%
%ADD13C,0.096614*%
%ADD14R,0.085000X0.085000*%
%ADD15R,0.001000X0.001000*%
%LNMASK1*%
G90*
G70*
G54D10*
X1870Y843D03*
X1870Y734D03*
X1870Y625D03*
X1870Y516D03*
X1870Y407D03*
X1981Y788D03*
X1981Y679D03*
X1981Y571D03*
X1981Y461D03*
G54D11*
X1926Y1117D03*
X1926Y133D03*
G54D10*
X1870Y843D03*
X1870Y734D03*
X1870Y625D03*
X1870Y516D03*
X1870Y407D03*
X1981Y788D03*
X1981Y679D03*
X1981Y571D03*
X1981Y461D03*
G54D11*
X1926Y1117D03*
X1926Y133D03*
G54D12*
X1369Y1001D03*
X1669Y1001D03*
X1369Y901D03*
X1669Y901D03*
X1369Y801D03*
X1669Y801D03*
X1369Y701D03*
X1669Y701D03*
X1369Y601D03*
X1669Y601D03*
X1369Y501D03*
X1669Y501D03*
X1369Y401D03*
X1669Y401D03*
X1369Y301D03*
X1669Y301D03*
X69Y351D03*
X69Y951D03*
X169Y351D03*
X169Y951D03*
X269Y351D03*
X269Y951D03*
X369Y351D03*
X369Y951D03*
X469Y351D03*
X469Y951D03*
X569Y351D03*
X569Y951D03*
X669Y351D03*
X669Y951D03*
X769Y351D03*
X769Y951D03*
X869Y351D03*
X869Y951D03*
X969Y351D03*
X969Y951D03*
X1069Y351D03*
X1069Y951D03*
X1169Y351D03*
X1169Y951D03*
X869Y113D03*
X1169Y113D03*
X869Y238D03*
X1169Y238D03*
X1169Y1176D03*
X869Y1176D03*
X1169Y1051D03*
X869Y1051D03*
X656Y63D03*
X401Y63D03*
X656Y240D03*
X401Y240D03*
G54D13*
X81Y1163D03*
X81Y88D03*
G54D14*
X1369Y1001D03*
X69Y351D03*
G54D15*
X1828Y885D02*
X1911Y885D01*
X1828Y884D02*
X1911Y884D01*
X1828Y883D02*
X1911Y883D01*
X1828Y882D02*
X1911Y882D01*
X1828Y881D02*
X1911Y881D01*
X1828Y880D02*
X1911Y880D01*
X1828Y879D02*
X1911Y879D01*
X1828Y878D02*
X1911Y878D01*
X1828Y877D02*
X1911Y877D01*
X1828Y876D02*
X1911Y876D01*
X1828Y875D02*
X1911Y875D01*
X1828Y874D02*
X1911Y874D01*
X1828Y873D02*
X1911Y873D01*
X1828Y872D02*
X1911Y872D01*
X1828Y871D02*
X1911Y871D01*
X1828Y870D02*
X1911Y870D01*
X1828Y869D02*
X1911Y869D01*
X1828Y868D02*
X1911Y868D01*
X1828Y867D02*
X1911Y867D01*
X1828Y866D02*
X1911Y866D01*
X1828Y865D02*
X1911Y865D01*
X1828Y864D02*
X1911Y864D01*
X1828Y863D02*
X1911Y863D01*
X1828Y862D02*
X1911Y862D01*
X1828Y861D02*
X1911Y861D01*
X1828Y860D02*
X1911Y860D01*
X1828Y859D02*
X1911Y859D01*
X1828Y858D02*
X1865Y858D01*
X1873Y858D02*
X1911Y858D01*
X1828Y857D02*
X1862Y857D01*
X1876Y857D02*
X1911Y857D01*
X1828Y856D02*
X1860Y856D01*
X1878Y856D02*
X1911Y856D01*
X1828Y855D02*
X1859Y855D01*
X1879Y855D02*
X1911Y855D01*
X1828Y854D02*
X1858Y854D01*
X1880Y854D02*
X1911Y854D01*
X1828Y853D02*
X1857Y853D01*
X1881Y853D02*
X1911Y853D01*
X1828Y852D02*
X1856Y852D01*
X1882Y852D02*
X1911Y852D01*
X1828Y851D02*
X1856Y851D01*
X1883Y851D02*
X1911Y851D01*
X1828Y850D02*
X1855Y850D01*
X1883Y850D02*
X1911Y850D01*
X1828Y849D02*
X1855Y849D01*
X1884Y849D02*
X1911Y849D01*
X1828Y848D02*
X1854Y848D01*
X1884Y848D02*
X1911Y848D01*
X1828Y847D02*
X1854Y847D01*
X1884Y847D02*
X1911Y847D01*
X1828Y846D02*
X1854Y846D01*
X1884Y846D02*
X1911Y846D01*
X1828Y845D02*
X1854Y845D01*
X1885Y845D02*
X1911Y845D01*
X1828Y844D02*
X1854Y844D01*
X1885Y844D02*
X1911Y844D01*
X1828Y843D02*
X1854Y843D01*
X1885Y843D02*
X1911Y843D01*
X1828Y842D02*
X1854Y842D01*
X1885Y842D02*
X1911Y842D01*
X1828Y841D02*
X1854Y841D01*
X1884Y841D02*
X1911Y841D01*
X1828Y840D02*
X1854Y840D01*
X1884Y840D02*
X1911Y840D01*
X1828Y839D02*
X1854Y839D01*
X1884Y839D02*
X1911Y839D01*
X1828Y838D02*
X1855Y838D01*
X1884Y838D02*
X1911Y838D01*
X1828Y837D02*
X1855Y837D01*
X1883Y837D02*
X1911Y837D01*
X1828Y836D02*
X1856Y836D01*
X1883Y836D02*
X1911Y836D01*
X1828Y835D02*
X1856Y835D01*
X1882Y835D02*
X1911Y835D01*
X1828Y834D02*
X1857Y834D01*
X1881Y834D02*
X1911Y834D01*
X1828Y833D02*
X1858Y833D01*
X1880Y833D02*
X1911Y833D01*
X1828Y832D02*
X1859Y832D01*
X1879Y832D02*
X1911Y832D01*
X1828Y831D02*
X1860Y831D01*
X1878Y831D02*
X1911Y831D01*
X1828Y830D02*
X1862Y830D01*
X1876Y830D02*
X1911Y830D01*
X1828Y829D02*
X1865Y829D01*
X1874Y829D02*
X1911Y829D01*
X1828Y828D02*
X1911Y828D01*
X1828Y827D02*
X1911Y827D01*
X1828Y826D02*
X1911Y826D01*
X1828Y825D02*
X1911Y825D01*
X1828Y824D02*
X1911Y824D01*
X1828Y823D02*
X1911Y823D01*
X1828Y822D02*
X1911Y822D01*
X1828Y821D02*
X1911Y821D01*
X1828Y820D02*
X1911Y820D01*
X1828Y819D02*
X1911Y819D01*
X1828Y818D02*
X1911Y818D01*
X1828Y817D02*
X1911Y817D01*
X1828Y816D02*
X1911Y816D01*
X1828Y815D02*
X1911Y815D01*
X1828Y814D02*
X1911Y814D01*
X1828Y813D02*
X1911Y813D01*
X1828Y812D02*
X1911Y812D01*
X1828Y811D02*
X1911Y811D01*
X1828Y810D02*
X1911Y810D01*
X1828Y809D02*
X1911Y809D01*
X1828Y808D02*
X1911Y808D01*
X1828Y807D02*
X1911Y807D01*
X1828Y806D02*
X1911Y806D01*
X1828Y805D02*
X1911Y805D01*
X1828Y804D02*
X1911Y804D01*
X1828Y803D02*
X1911Y803D01*
X1828Y802D02*
X1911Y802D01*
D02*
G04 End of Mask1*
M02*