; NON-PLATED HOLES START AT T1
; THROUGH (PLATED) HOLES START AT T100
M48
INCH
T100C0.040000
T101C0.130000
T102C0.039370
%
T100
X009394Y014607
X004597Y000757
X004050Y001875
X009394Y006607
X003394Y012607
X001394Y013547
X003394Y004607
X009394Y012607
X003394Y009607
X009394Y004607
X003394Y010607
X006231Y001875
X009394Y009607
X005687Y000757
X005140Y001875
X003394Y015607
X009394Y010607
X003394Y007607
X007865Y000757
X006774Y000757
X009394Y015607
X009394Y007607
X003394Y013607
X001394Y014547
X003394Y005607
X007321Y001875
X009394Y013607
X008412Y001875
X009394Y005607
X003394Y011607
X003394Y008607
X009394Y011607
X009394Y008607
X003394Y014607
X001394Y015547
X003394Y006607
T101
X011152Y001316
X001309Y001316
T102
X004394Y008607
X004394Y009607
T00
M30
