G04 MADE WITH FRITZING*
G04 WWW.FRITZING.ORG*
G04 DOUBLE SIDED*
G04 HOLES PLATED*
G04 CONTOUR ON CENTER OF CONTOUR VECTOR*
%ASAXBY*%
%FSLAX23Y23*%
%MOIN*%
%OFA0B0*%
%SFA1.0B1.0*%
%ADD10C,0.084000*%
%ADD11C,0.210000*%
%ADD12C,0.080000*%
%ADD13R,0.001000X0.001000*%
%LNMASK1*%
G90*
G70*
G54D10*
X841Y188D03*
X732Y188D03*
X623Y188D03*
X514Y188D03*
X405Y188D03*
X787Y76D03*
X677Y76D03*
X569Y76D03*
X460Y76D03*
G54D11*
X1115Y132D03*
X131Y132D03*
G54D10*
X841Y188D03*
X732Y188D03*
X623Y188D03*
X514Y188D03*
X405Y188D03*
X787Y76D03*
X677Y76D03*
X569Y76D03*
X460Y76D03*
G54D11*
X1115Y132D03*
X131Y132D03*
G54D12*
X339Y761D03*
X939Y961D03*
X339Y1561D03*
X939Y1361D03*
X939Y561D03*
X339Y1161D03*
X939Y1561D03*
X939Y1161D03*
X939Y761D03*
X439Y961D03*
X339Y1361D03*
X339Y961D03*
X339Y561D03*
X939Y1461D03*
X939Y1261D03*
X939Y1061D03*
X939Y861D03*
X939Y661D03*
X939Y461D03*
X439Y861D03*
X339Y1461D03*
X339Y1261D03*
X339Y1061D03*
X339Y861D03*
X339Y661D03*
X339Y461D03*
G54D10*
X139Y1555D03*
X139Y1455D03*
X139Y1355D03*
X139Y1555D03*
X139Y1455D03*
X139Y1355D03*
G54D13*
X97Y1597D02*
X180Y1597D01*
X97Y1596D02*
X180Y1596D01*
X97Y1595D02*
X180Y1595D01*
X97Y1594D02*
X180Y1594D01*
X97Y1593D02*
X180Y1593D01*
X97Y1592D02*
X180Y1592D01*
X97Y1591D02*
X180Y1591D01*
X97Y1590D02*
X180Y1590D01*
X97Y1589D02*
X180Y1589D01*
X97Y1588D02*
X180Y1588D01*
X97Y1587D02*
X180Y1587D01*
X97Y1586D02*
X180Y1586D01*
X97Y1585D02*
X180Y1585D01*
X97Y1584D02*
X180Y1584D01*
X97Y1583D02*
X180Y1583D01*
X97Y1582D02*
X180Y1582D01*
X97Y1581D02*
X180Y1581D01*
X97Y1580D02*
X180Y1580D01*
X97Y1579D02*
X180Y1579D01*
X97Y1578D02*
X180Y1578D01*
X97Y1577D02*
X180Y1577D01*
X97Y1576D02*
X180Y1576D01*
X97Y1575D02*
X180Y1575D01*
X97Y1574D02*
X180Y1574D01*
X97Y1573D02*
X180Y1573D01*
X97Y1572D02*
X180Y1572D01*
X97Y1571D02*
X180Y1571D01*
X97Y1570D02*
X134Y1570D01*
X144Y1570D02*
X180Y1570D01*
X97Y1569D02*
X131Y1569D01*
X147Y1569D02*
X180Y1569D01*
X97Y1568D02*
X129Y1568D01*
X148Y1568D02*
X180Y1568D01*
X97Y1567D02*
X128Y1567D01*
X150Y1567D02*
X180Y1567D01*
X97Y1566D02*
X127Y1566D01*
X151Y1566D02*
X180Y1566D01*
X97Y1565D02*
X126Y1565D01*
X151Y1565D02*
X180Y1565D01*
X97Y1564D02*
X126Y1564D01*
X152Y1564D02*
X180Y1564D01*
X97Y1563D02*
X125Y1563D01*
X153Y1563D02*
X180Y1563D01*
X97Y1562D02*
X125Y1562D01*
X153Y1562D02*
X180Y1562D01*
X97Y1561D02*
X124Y1561D01*
X153Y1561D02*
X180Y1561D01*
X97Y1560D02*
X124Y1560D01*
X154Y1560D02*
X180Y1560D01*
X97Y1559D02*
X124Y1559D01*
X154Y1559D02*
X180Y1559D01*
X97Y1558D02*
X124Y1558D01*
X154Y1558D02*
X180Y1558D01*
X97Y1557D02*
X123Y1557D01*
X154Y1557D02*
X180Y1557D01*
X97Y1556D02*
X123Y1556D01*
X154Y1556D02*
X180Y1556D01*
X97Y1555D02*
X123Y1555D01*
X154Y1555D02*
X180Y1555D01*
X97Y1554D02*
X124Y1554D01*
X154Y1554D02*
X180Y1554D01*
X97Y1553D02*
X124Y1553D01*
X154Y1553D02*
X180Y1553D01*
X97Y1552D02*
X124Y1552D01*
X154Y1552D02*
X180Y1552D01*
X97Y1551D02*
X124Y1551D01*
X154Y1551D02*
X180Y1551D01*
X97Y1550D02*
X124Y1550D01*
X153Y1550D02*
X180Y1550D01*
X97Y1549D02*
X125Y1549D01*
X153Y1549D02*
X180Y1549D01*
X97Y1548D02*
X125Y1548D01*
X153Y1548D02*
X180Y1548D01*
X97Y1547D02*
X126Y1547D01*
X152Y1547D02*
X180Y1547D01*
X97Y1546D02*
X126Y1546D01*
X151Y1546D02*
X180Y1546D01*
X97Y1545D02*
X127Y1545D01*
X150Y1545D02*
X180Y1545D01*
X97Y1544D02*
X128Y1544D01*
X149Y1544D02*
X180Y1544D01*
X97Y1543D02*
X130Y1543D01*
X148Y1543D02*
X180Y1543D01*
X97Y1542D02*
X132Y1542D01*
X146Y1542D02*
X180Y1542D01*
X97Y1541D02*
X135Y1541D01*
X143Y1541D02*
X180Y1541D01*
X97Y1540D02*
X180Y1540D01*
X97Y1539D02*
X180Y1539D01*
X97Y1538D02*
X180Y1538D01*
X97Y1537D02*
X180Y1537D01*
X97Y1536D02*
X180Y1536D01*
X97Y1535D02*
X180Y1535D01*
X97Y1534D02*
X180Y1534D01*
X97Y1533D02*
X180Y1533D01*
X97Y1532D02*
X180Y1532D01*
X97Y1531D02*
X180Y1531D01*
X97Y1530D02*
X180Y1530D01*
X97Y1529D02*
X180Y1529D01*
X97Y1528D02*
X180Y1528D01*
X97Y1527D02*
X180Y1527D01*
X97Y1526D02*
X180Y1526D01*
X97Y1525D02*
X180Y1525D01*
X97Y1524D02*
X180Y1524D01*
X97Y1523D02*
X180Y1523D01*
X97Y1522D02*
X180Y1522D01*
X97Y1521D02*
X180Y1521D01*
X97Y1520D02*
X180Y1520D01*
X97Y1519D02*
X180Y1519D01*
X97Y1518D02*
X180Y1518D01*
X97Y1517D02*
X180Y1517D01*
X97Y1516D02*
X180Y1516D01*
X97Y1515D02*
X180Y1515D01*
X97Y1514D02*
X180Y1514D01*
X799Y230D02*
X882Y230D01*
X799Y229D02*
X882Y229D01*
X799Y228D02*
X882Y228D01*
X799Y227D02*
X882Y227D01*
X799Y226D02*
X882Y226D01*
X799Y225D02*
X882Y225D01*
X799Y224D02*
X882Y224D01*
X799Y223D02*
X882Y223D01*
X799Y222D02*
X882Y222D01*
X799Y221D02*
X882Y221D01*
X799Y220D02*
X882Y220D01*
X799Y219D02*
X882Y219D01*
X799Y218D02*
X882Y218D01*
X799Y217D02*
X882Y217D01*
X799Y216D02*
X882Y216D01*
X799Y215D02*
X882Y215D01*
X799Y214D02*
X882Y214D01*
X799Y213D02*
X882Y213D01*
X799Y212D02*
X882Y212D01*
X799Y211D02*
X882Y211D01*
X799Y210D02*
X882Y210D01*
X799Y209D02*
X882Y209D01*
X799Y208D02*
X882Y208D01*
X799Y207D02*
X882Y207D01*
X799Y206D02*
X882Y206D01*
X799Y205D02*
X882Y205D01*
X799Y204D02*
X882Y204D01*
X799Y203D02*
X834Y203D01*
X847Y203D02*
X882Y203D01*
X799Y202D02*
X832Y202D01*
X849Y202D02*
X882Y202D01*
X799Y201D02*
X831Y201D01*
X851Y201D02*
X882Y201D01*
X799Y200D02*
X829Y200D01*
X852Y200D02*
X882Y200D01*
X799Y199D02*
X829Y199D01*
X853Y199D02*
X882Y199D01*
X799Y198D02*
X828Y198D01*
X853Y198D02*
X882Y198D01*
X799Y197D02*
X827Y197D01*
X854Y197D02*
X882Y197D01*
X799Y196D02*
X827Y196D01*
X855Y196D02*
X882Y196D01*
X799Y195D02*
X826Y195D01*
X855Y195D02*
X882Y195D01*
X799Y194D02*
X826Y194D01*
X855Y194D02*
X882Y194D01*
X799Y193D02*
X826Y193D01*
X856Y193D02*
X882Y193D01*
X799Y192D02*
X825Y192D01*
X856Y192D02*
X882Y192D01*
X799Y191D02*
X825Y191D01*
X856Y191D02*
X882Y191D01*
X799Y190D02*
X825Y190D01*
X856Y190D02*
X882Y190D01*
X799Y189D02*
X825Y189D01*
X856Y189D02*
X882Y189D01*
X799Y188D02*
X825Y188D01*
X856Y188D02*
X882Y188D01*
X799Y187D02*
X825Y187D01*
X856Y187D02*
X882Y187D01*
X799Y186D02*
X825Y186D01*
X856Y186D02*
X882Y186D01*
X799Y185D02*
X826Y185D01*
X856Y185D02*
X882Y185D01*
X799Y184D02*
X826Y184D01*
X855Y184D02*
X882Y184D01*
X799Y183D02*
X826Y183D01*
X855Y183D02*
X882Y183D01*
X799Y182D02*
X827Y182D01*
X855Y182D02*
X882Y182D01*
X799Y181D02*
X827Y181D01*
X854Y181D02*
X882Y181D01*
X799Y180D02*
X828Y180D01*
X853Y180D02*
X882Y180D01*
X799Y179D02*
X829Y179D01*
X853Y179D02*
X882Y179D01*
X799Y178D02*
X829Y178D01*
X852Y178D02*
X882Y178D01*
X799Y177D02*
X831Y177D01*
X851Y177D02*
X882Y177D01*
X799Y176D02*
X832Y176D01*
X849Y176D02*
X882Y176D01*
X799Y175D02*
X834Y175D01*
X847Y175D02*
X882Y175D01*
X799Y174D02*
X882Y174D01*
X799Y173D02*
X882Y173D01*
X799Y172D02*
X882Y172D01*
X799Y171D02*
X882Y171D01*
X799Y170D02*
X882Y170D01*
X799Y169D02*
X882Y169D01*
X799Y168D02*
X882Y168D01*
X799Y167D02*
X882Y167D01*
X799Y166D02*
X882Y166D01*
X799Y165D02*
X882Y165D01*
X799Y164D02*
X882Y164D01*
X799Y163D02*
X882Y163D01*
X799Y162D02*
X882Y162D01*
X799Y161D02*
X882Y161D01*
X799Y160D02*
X882Y160D01*
X799Y159D02*
X882Y159D01*
X799Y158D02*
X882Y158D01*
X799Y157D02*
X882Y157D01*
X799Y156D02*
X882Y156D01*
X799Y155D02*
X882Y155D01*
X799Y154D02*
X882Y154D01*
X799Y153D02*
X882Y153D01*
X799Y152D02*
X882Y152D01*
X799Y151D02*
X882Y151D01*
X799Y150D02*
X882Y150D01*
X799Y149D02*
X882Y149D01*
X799Y148D02*
X882Y148D01*
D02*
G04 End of Mask1*
M02*