G04 MADE WITH FRITZING*
G04 WWW.FRITZING.ORG*
G04 DOUBLE SIDED*
G04 HOLES PLATED*
G04 CONTOUR ON CENTER OF CONTOUR VECTOR*
%ASAXBY*%
%FSLAX23Y23*%
%MOIN*%
%OFA0B0*%
%SFA1.0B1.0*%
%ADD10C,0.021811X0.00181102*%
%ADD11R,1.248220X1.754770X1.232220X1.738770*%
%ADD12C,0.008000*%
%ADD13C,0.010000*%
%ADD14C,0.005000*%
%ADD15C,0.006000*%
%ADD16R,0.001000X0.001000*%
%LNSILK1*%
G90*
G70*
G54D10*
X700Y805D03*
G54D12*
X4Y1751D02*
X1244Y1751D01*
X1244Y4D01*
X4Y4D01*
X4Y1751D01*
D02*
X1229Y242D02*
X1229Y32D01*
D02*
X17Y242D02*
X17Y32D01*
D02*
X1229Y242D02*
X17Y242D01*
G54D13*
D02*
X694Y716D02*
X694Y631D01*
D02*
X694Y631D02*
X814Y631D01*
D02*
X814Y631D02*
X814Y716D01*
D02*
X814Y716D02*
X694Y716D01*
G54D14*
D02*
X738Y1517D02*
X706Y1517D01*
D02*
X572Y1517D02*
X541Y1517D01*
D02*
X789Y1695D02*
X789Y1730D01*
D02*
X789Y1730D02*
X490Y1730D01*
D02*
X490Y1730D02*
X490Y1695D01*
G54D13*
D02*
X732Y785D02*
X720Y773D01*
D02*
X559Y773D02*
X547Y785D01*
D02*
X547Y946D02*
X559Y958D01*
D02*
X720Y958D02*
X732Y946D01*
G54D15*
D02*
X676Y1090D02*
X613Y1090D01*
D02*
X613Y1202D02*
X676Y1202D01*
D02*
X676Y1166D02*
X676Y1125D01*
D02*
X613Y1163D02*
X613Y1166D01*
D02*
X613Y1125D02*
X613Y1129D01*
D02*
X613Y1198D02*
X613Y1202D01*
D02*
X613Y1090D02*
X613Y1093D01*
D02*
X676Y1093D02*
X676Y1090D01*
D02*
X676Y1202D02*
X676Y1198D01*
G54D12*
D02*
X441Y1750D02*
X838Y1750D01*
D02*
X441Y1731D02*
X441Y1750D01*
D02*
X838Y1731D02*
X838Y1750D01*
D02*
X11Y1605D02*
X11Y1305D01*
D02*
X11Y1305D02*
X275Y1305D01*
D02*
X275Y1305D02*
X275Y1605D01*
D02*
X275Y1605D02*
X11Y1605D01*
G54D16*
X355Y1731D02*
X923Y1731D01*
X349Y1730D02*
X929Y1730D01*
X345Y1729D02*
X933Y1729D01*
X341Y1728D02*
X936Y1728D01*
X338Y1727D02*
X939Y1727D01*
X336Y1726D02*
X942Y1726D01*
X334Y1725D02*
X944Y1725D01*
X331Y1724D02*
X946Y1724D01*
X329Y1723D02*
X354Y1723D01*
X924Y1723D02*
X948Y1723D01*
X328Y1722D02*
X348Y1722D01*
X929Y1722D02*
X950Y1722D01*
X326Y1721D02*
X344Y1721D01*
X933Y1721D02*
X952Y1721D01*
X324Y1720D02*
X341Y1720D01*
X936Y1720D02*
X953Y1720D01*
X323Y1719D02*
X338Y1719D01*
X939Y1719D02*
X955Y1719D01*
X321Y1718D02*
X336Y1718D01*
X941Y1718D02*
X956Y1718D01*
X320Y1717D02*
X334Y1717D01*
X944Y1717D02*
X958Y1717D01*
X318Y1716D02*
X332Y1716D01*
X946Y1716D02*
X959Y1716D01*
X317Y1715D02*
X330Y1715D01*
X947Y1715D02*
X960Y1715D01*
X316Y1714D02*
X329Y1714D01*
X949Y1714D02*
X962Y1714D01*
X315Y1713D02*
X327Y1713D01*
X951Y1713D02*
X963Y1713D01*
X314Y1712D02*
X325Y1712D01*
X952Y1712D02*
X964Y1712D01*
X313Y1711D02*
X324Y1711D01*
X953Y1711D02*
X965Y1711D01*
X311Y1710D02*
X323Y1710D01*
X955Y1710D02*
X966Y1710D01*
X311Y1709D02*
X321Y1709D01*
X956Y1709D02*
X967Y1709D01*
X310Y1708D02*
X320Y1708D01*
X957Y1708D02*
X968Y1708D01*
X309Y1707D02*
X319Y1707D01*
X958Y1707D02*
X969Y1707D01*
X308Y1706D02*
X318Y1706D01*
X960Y1706D02*
X970Y1706D01*
X307Y1705D02*
X317Y1705D01*
X961Y1705D02*
X971Y1705D01*
X306Y1704D02*
X316Y1704D01*
X356Y1704D02*
X372Y1704D01*
X906Y1704D02*
X921Y1704D01*
X962Y1704D02*
X972Y1704D01*
X305Y1703D02*
X315Y1703D01*
X352Y1703D02*
X375Y1703D01*
X902Y1703D02*
X925Y1703D01*
X963Y1703D02*
X972Y1703D01*
X305Y1702D02*
X314Y1702D01*
X349Y1702D02*
X378Y1702D01*
X899Y1702D02*
X928Y1702D01*
X964Y1702D02*
X973Y1702D01*
X304Y1701D02*
X313Y1701D01*
X347Y1701D02*
X381Y1701D01*
X897Y1701D02*
X931Y1701D01*
X964Y1701D02*
X974Y1701D01*
X303Y1700D02*
X312Y1700D01*
X345Y1700D02*
X383Y1700D01*
X895Y1700D02*
X933Y1700D01*
X965Y1700D02*
X974Y1700D01*
X302Y1699D02*
X311Y1699D01*
X343Y1699D02*
X385Y1699D01*
X893Y1699D02*
X934Y1699D01*
X966Y1699D02*
X975Y1699D01*
X302Y1698D02*
X310Y1698D01*
X341Y1698D02*
X386Y1698D01*
X891Y1698D02*
X936Y1698D01*
X967Y1698D02*
X976Y1698D01*
X301Y1697D02*
X310Y1697D01*
X340Y1697D02*
X388Y1697D01*
X890Y1697D02*
X938Y1697D01*
X968Y1697D02*
X977Y1697D01*
X300Y1696D02*
X309Y1696D01*
X339Y1696D02*
X355Y1696D01*
X372Y1696D02*
X389Y1696D01*
X889Y1696D02*
X905Y1696D01*
X922Y1696D02*
X939Y1696D01*
X969Y1696D02*
X977Y1696D01*
X300Y1695D02*
X308Y1695D01*
X337Y1695D02*
X352Y1695D01*
X376Y1695D02*
X390Y1695D01*
X887Y1695D02*
X902Y1695D01*
X926Y1695D02*
X940Y1695D01*
X969Y1695D02*
X978Y1695D01*
X299Y1694D02*
X308Y1694D01*
X336Y1694D02*
X349Y1694D01*
X379Y1694D02*
X391Y1694D01*
X886Y1694D02*
X899Y1694D01*
X928Y1694D02*
X941Y1694D01*
X970Y1694D02*
X978Y1694D01*
X299Y1693D02*
X307Y1693D01*
X335Y1693D02*
X347Y1693D01*
X381Y1693D02*
X393Y1693D01*
X885Y1693D02*
X897Y1693D01*
X931Y1693D02*
X942Y1693D01*
X971Y1693D02*
X979Y1693D01*
X298Y1692D02*
X306Y1692D01*
X334Y1692D02*
X345Y1692D01*
X383Y1692D02*
X394Y1692D01*
X884Y1692D02*
X895Y1692D01*
X932Y1692D02*
X944Y1692D01*
X971Y1692D02*
X979Y1692D01*
X298Y1691D02*
X306Y1691D01*
X333Y1691D02*
X343Y1691D01*
X384Y1691D02*
X395Y1691D01*
X883Y1691D02*
X893Y1691D01*
X934Y1691D02*
X945Y1691D01*
X972Y1691D02*
X980Y1691D01*
X297Y1690D02*
X305Y1690D01*
X332Y1690D02*
X342Y1690D01*
X386Y1690D02*
X396Y1690D01*
X882Y1690D02*
X892Y1690D01*
X935Y1690D02*
X945Y1690D01*
X972Y1690D02*
X980Y1690D01*
X297Y1689D02*
X305Y1689D01*
X331Y1689D02*
X341Y1689D01*
X387Y1689D02*
X396Y1689D01*
X881Y1689D02*
X891Y1689D01*
X937Y1689D02*
X946Y1689D01*
X973Y1689D02*
X981Y1689D01*
X296Y1688D02*
X304Y1688D01*
X330Y1688D02*
X340Y1688D01*
X388Y1688D02*
X397Y1688D01*
X880Y1688D02*
X889Y1688D01*
X938Y1688D02*
X947Y1688D01*
X974Y1688D02*
X981Y1688D01*
X296Y1687D02*
X303Y1687D01*
X330Y1687D02*
X338Y1687D01*
X389Y1687D02*
X398Y1687D01*
X880Y1687D02*
X888Y1687D01*
X939Y1687D02*
X948Y1687D01*
X974Y1687D02*
X982Y1687D01*
X295Y1686D02*
X303Y1686D01*
X329Y1686D02*
X338Y1686D01*
X390Y1686D02*
X399Y1686D01*
X879Y1686D02*
X887Y1686D01*
X940Y1686D02*
X949Y1686D01*
X975Y1686D02*
X982Y1686D01*
X295Y1685D02*
X302Y1685D01*
X328Y1685D02*
X337Y1685D01*
X391Y1685D02*
X399Y1685D01*
X878Y1685D02*
X887Y1685D01*
X941Y1685D02*
X949Y1685D01*
X975Y1685D02*
X983Y1685D01*
X294Y1684D02*
X302Y1684D01*
X328Y1684D02*
X336Y1684D01*
X392Y1684D02*
X400Y1684D01*
X878Y1684D02*
X886Y1684D01*
X942Y1684D02*
X950Y1684D01*
X975Y1684D02*
X983Y1684D01*
X294Y1683D02*
X302Y1683D01*
X327Y1683D02*
X335Y1683D01*
X393Y1683D02*
X401Y1683D01*
X877Y1683D02*
X885Y1683D01*
X943Y1683D02*
X951Y1683D01*
X976Y1683D02*
X983Y1683D01*
X294Y1682D02*
X301Y1682D01*
X326Y1682D02*
X334Y1682D01*
X393Y1682D02*
X401Y1682D01*
X876Y1682D02*
X884Y1682D01*
X943Y1682D02*
X951Y1682D01*
X976Y1682D02*
X984Y1682D01*
X293Y1681D02*
X301Y1681D01*
X326Y1681D02*
X334Y1681D01*
X394Y1681D02*
X402Y1681D01*
X876Y1681D02*
X884Y1681D01*
X944Y1681D02*
X952Y1681D01*
X977Y1681D02*
X984Y1681D01*
X293Y1680D02*
X300Y1680D01*
X325Y1680D02*
X333Y1680D01*
X395Y1680D02*
X402Y1680D01*
X875Y1680D02*
X883Y1680D01*
X945Y1680D02*
X952Y1680D01*
X977Y1680D02*
X984Y1680D01*
X293Y1679D02*
X300Y1679D01*
X325Y1679D02*
X332Y1679D01*
X395Y1679D02*
X403Y1679D01*
X875Y1679D02*
X882Y1679D01*
X945Y1679D02*
X953Y1679D01*
X978Y1679D02*
X985Y1679D01*
X292Y1678D02*
X300Y1678D01*
X324Y1678D02*
X332Y1678D01*
X396Y1678D02*
X403Y1678D01*
X874Y1678D02*
X882Y1678D01*
X946Y1678D02*
X953Y1678D01*
X978Y1678D02*
X985Y1678D01*
X292Y1677D02*
X299Y1677D01*
X324Y1677D02*
X331Y1677D01*
X396Y1677D02*
X404Y1677D01*
X874Y1677D02*
X881Y1677D01*
X946Y1677D02*
X953Y1677D01*
X978Y1677D02*
X985Y1677D01*
X292Y1676D02*
X299Y1676D01*
X324Y1676D02*
X331Y1676D01*
X397Y1676D02*
X404Y1676D01*
X874Y1676D02*
X881Y1676D01*
X947Y1676D02*
X954Y1676D01*
X978Y1676D02*
X986Y1676D01*
X292Y1675D02*
X299Y1675D01*
X323Y1675D02*
X331Y1675D01*
X397Y1675D02*
X404Y1675D01*
X873Y1675D02*
X880Y1675D01*
X947Y1675D02*
X954Y1675D01*
X979Y1675D02*
X986Y1675D01*
X291Y1674D02*
X298Y1674D01*
X323Y1674D02*
X330Y1674D01*
X397Y1674D02*
X405Y1674D01*
X873Y1674D02*
X880Y1674D01*
X947Y1674D02*
X955Y1674D01*
X979Y1674D02*
X986Y1674D01*
X291Y1673D02*
X298Y1673D01*
X323Y1673D02*
X330Y1673D01*
X398Y1673D02*
X405Y1673D01*
X873Y1673D02*
X880Y1673D01*
X948Y1673D02*
X955Y1673D01*
X979Y1673D02*
X986Y1673D01*
X291Y1672D02*
X298Y1672D01*
X322Y1672D02*
X330Y1672D01*
X398Y1672D02*
X405Y1672D01*
X872Y1672D02*
X879Y1672D01*
X948Y1672D02*
X955Y1672D01*
X980Y1672D02*
X987Y1672D01*
X291Y1671D02*
X298Y1671D01*
X322Y1671D02*
X329Y1671D01*
X398Y1671D02*
X405Y1671D01*
X872Y1671D02*
X879Y1671D01*
X948Y1671D02*
X955Y1671D01*
X980Y1671D02*
X987Y1671D01*
X291Y1670D02*
X298Y1670D01*
X322Y1670D02*
X329Y1670D01*
X399Y1670D02*
X406Y1670D01*
X872Y1670D02*
X879Y1670D01*
X949Y1670D02*
X956Y1670D01*
X980Y1670D02*
X987Y1670D01*
X290Y1669D02*
X297Y1669D01*
X322Y1669D02*
X329Y1669D01*
X399Y1669D02*
X406Y1669D01*
X872Y1669D02*
X879Y1669D01*
X949Y1669D02*
X956Y1669D01*
X980Y1669D02*
X987Y1669D01*
X290Y1668D02*
X297Y1668D01*
X322Y1668D02*
X329Y1668D01*
X399Y1668D02*
X406Y1668D01*
X871Y1668D02*
X879Y1668D01*
X949Y1668D02*
X956Y1668D01*
X980Y1668D02*
X987Y1668D01*
X290Y1667D02*
X297Y1667D01*
X321Y1667D02*
X328Y1667D01*
X399Y1667D02*
X406Y1667D01*
X871Y1667D02*
X878Y1667D01*
X949Y1667D02*
X956Y1667D01*
X981Y1667D02*
X988Y1667D01*
X290Y1666D02*
X297Y1666D01*
X321Y1666D02*
X328Y1666D01*
X399Y1666D02*
X406Y1666D01*
X871Y1666D02*
X878Y1666D01*
X949Y1666D02*
X956Y1666D01*
X981Y1666D02*
X988Y1666D01*
X290Y1665D02*
X297Y1665D01*
X321Y1665D02*
X328Y1665D01*
X399Y1665D02*
X406Y1665D01*
X871Y1665D02*
X878Y1665D01*
X949Y1665D02*
X956Y1665D01*
X981Y1665D02*
X988Y1665D01*
X290Y1664D02*
X297Y1664D01*
X321Y1664D02*
X328Y1664D01*
X400Y1664D02*
X406Y1664D01*
X871Y1664D02*
X878Y1664D01*
X949Y1664D02*
X956Y1664D01*
X981Y1664D02*
X988Y1664D01*
X290Y1663D02*
X297Y1663D01*
X321Y1663D02*
X328Y1663D01*
X400Y1663D02*
X407Y1663D01*
X871Y1663D02*
X878Y1663D01*
X949Y1663D02*
X956Y1663D01*
X981Y1663D02*
X988Y1663D01*
X290Y1662D02*
X296Y1662D01*
X321Y1662D02*
X328Y1662D01*
X400Y1662D02*
X407Y1662D01*
X871Y1662D02*
X878Y1662D01*
X950Y1662D02*
X957Y1662D01*
X981Y1662D02*
X988Y1662D01*
X289Y1661D02*
X296Y1661D01*
X321Y1661D02*
X328Y1661D01*
X400Y1661D02*
X407Y1661D01*
X871Y1661D02*
X878Y1661D01*
X950Y1661D02*
X957Y1661D01*
X981Y1661D02*
X988Y1661D01*
X289Y1660D02*
X296Y1660D01*
X321Y1660D02*
X328Y1660D01*
X400Y1660D02*
X407Y1660D01*
X871Y1660D02*
X878Y1660D01*
X949Y1660D02*
X956Y1660D01*
X981Y1660D02*
X988Y1660D01*
X289Y1659D02*
X296Y1659D01*
X321Y1659D02*
X328Y1659D01*
X400Y1659D02*
X406Y1659D01*
X871Y1659D02*
X878Y1659D01*
X949Y1659D02*
X956Y1659D01*
X981Y1659D02*
X988Y1659D01*
X289Y1658D02*
X296Y1658D01*
X321Y1658D02*
X328Y1658D01*
X399Y1658D02*
X406Y1658D01*
X871Y1658D02*
X878Y1658D01*
X949Y1658D02*
X956Y1658D01*
X981Y1658D02*
X988Y1658D01*
X289Y1657D02*
X296Y1657D01*
X321Y1657D02*
X328Y1657D01*
X399Y1657D02*
X406Y1657D01*
X871Y1657D02*
X878Y1657D01*
X949Y1657D02*
X956Y1657D01*
X981Y1657D02*
X988Y1657D01*
X289Y1656D02*
X296Y1656D01*
X321Y1656D02*
X328Y1656D01*
X399Y1656D02*
X406Y1656D01*
X871Y1656D02*
X878Y1656D01*
X949Y1656D02*
X956Y1656D01*
X981Y1656D02*
X988Y1656D01*
X289Y1655D02*
X296Y1655D01*
X322Y1655D02*
X329Y1655D01*
X399Y1655D02*
X406Y1655D01*
X872Y1655D02*
X879Y1655D01*
X949Y1655D02*
X956Y1655D01*
X981Y1655D02*
X988Y1655D01*
X289Y1654D02*
X296Y1654D01*
X322Y1654D02*
X329Y1654D01*
X399Y1654D02*
X406Y1654D01*
X872Y1654D02*
X879Y1654D01*
X949Y1654D02*
X956Y1654D01*
X981Y1654D02*
X988Y1654D01*
X289Y1653D02*
X296Y1653D01*
X322Y1653D02*
X329Y1653D01*
X399Y1653D02*
X406Y1653D01*
X872Y1653D02*
X879Y1653D01*
X949Y1653D02*
X956Y1653D01*
X981Y1653D02*
X988Y1653D01*
X289Y1652D02*
X296Y1652D01*
X322Y1652D02*
X329Y1652D01*
X398Y1652D02*
X405Y1652D01*
X872Y1652D02*
X879Y1652D01*
X948Y1652D02*
X955Y1652D01*
X981Y1652D02*
X988Y1652D01*
X289Y1651D02*
X296Y1651D01*
X322Y1651D02*
X330Y1651D01*
X398Y1651D02*
X405Y1651D01*
X872Y1651D02*
X879Y1651D01*
X948Y1651D02*
X955Y1651D01*
X981Y1651D02*
X988Y1651D01*
X289Y1650D02*
X296Y1650D01*
X323Y1650D02*
X330Y1650D01*
X398Y1650D02*
X405Y1650D01*
X873Y1650D02*
X880Y1650D01*
X948Y1650D02*
X955Y1650D01*
X981Y1650D02*
X988Y1650D01*
X289Y1649D02*
X296Y1649D01*
X323Y1649D02*
X330Y1649D01*
X397Y1649D02*
X405Y1649D01*
X873Y1649D02*
X880Y1649D01*
X947Y1649D02*
X955Y1649D01*
X981Y1649D02*
X988Y1649D01*
X289Y1648D02*
X296Y1648D01*
X323Y1648D02*
X331Y1648D01*
X397Y1648D02*
X404Y1648D01*
X873Y1648D02*
X880Y1648D01*
X947Y1648D02*
X954Y1648D01*
X981Y1648D02*
X988Y1648D01*
X289Y1647D02*
X296Y1647D01*
X324Y1647D02*
X331Y1647D01*
X397Y1647D02*
X404Y1647D01*
X874Y1647D02*
X881Y1647D01*
X947Y1647D02*
X954Y1647D01*
X981Y1647D02*
X988Y1647D01*
X289Y1646D02*
X296Y1646D01*
X324Y1646D02*
X331Y1646D01*
X396Y1646D02*
X404Y1646D01*
X874Y1646D02*
X881Y1646D01*
X946Y1646D02*
X953Y1646D01*
X981Y1646D02*
X988Y1646D01*
X289Y1645D02*
X296Y1645D01*
X324Y1645D02*
X332Y1645D01*
X396Y1645D02*
X403Y1645D01*
X874Y1645D02*
X882Y1645D01*
X946Y1645D02*
X953Y1645D01*
X981Y1645D02*
X988Y1645D01*
X289Y1644D02*
X296Y1644D01*
X325Y1644D02*
X332Y1644D01*
X395Y1644D02*
X403Y1644D01*
X875Y1644D02*
X882Y1644D01*
X945Y1644D02*
X953Y1644D01*
X981Y1644D02*
X988Y1644D01*
X289Y1643D02*
X296Y1643D01*
X325Y1643D02*
X333Y1643D01*
X395Y1643D02*
X402Y1643D01*
X875Y1643D02*
X883Y1643D01*
X944Y1643D02*
X952Y1643D01*
X981Y1643D02*
X988Y1643D01*
X289Y1642D02*
X296Y1642D01*
X326Y1642D02*
X334Y1642D01*
X394Y1642D02*
X402Y1642D01*
X876Y1642D02*
X884Y1642D01*
X944Y1642D02*
X952Y1642D01*
X981Y1642D02*
X988Y1642D01*
X289Y1641D02*
X296Y1641D01*
X326Y1641D02*
X334Y1641D01*
X393Y1641D02*
X401Y1641D01*
X876Y1641D02*
X884Y1641D01*
X943Y1641D02*
X951Y1641D01*
X981Y1641D02*
X988Y1641D01*
X289Y1640D02*
X296Y1640D01*
X327Y1640D02*
X335Y1640D01*
X393Y1640D02*
X401Y1640D01*
X877Y1640D02*
X885Y1640D01*
X942Y1640D02*
X950Y1640D01*
X981Y1640D02*
X988Y1640D01*
X289Y1639D02*
X296Y1639D01*
X328Y1639D02*
X336Y1639D01*
X392Y1639D02*
X400Y1639D01*
X878Y1639D02*
X886Y1639D01*
X942Y1639D02*
X950Y1639D01*
X981Y1639D02*
X988Y1639D01*
X289Y1638D02*
X296Y1638D01*
X328Y1638D02*
X337Y1638D01*
X391Y1638D02*
X399Y1638D01*
X878Y1638D02*
X887Y1638D01*
X941Y1638D02*
X949Y1638D01*
X981Y1638D02*
X988Y1638D01*
X289Y1637D02*
X296Y1637D01*
X329Y1637D02*
X338Y1637D01*
X390Y1637D02*
X399Y1637D01*
X879Y1637D02*
X888Y1637D01*
X940Y1637D02*
X949Y1637D01*
X981Y1637D02*
X988Y1637D01*
X289Y1636D02*
X296Y1636D01*
X330Y1636D02*
X339Y1636D01*
X389Y1636D02*
X398Y1636D01*
X880Y1636D02*
X888Y1636D01*
X939Y1636D02*
X948Y1636D01*
X981Y1636D02*
X988Y1636D01*
X289Y1635D02*
X296Y1635D01*
X331Y1635D02*
X340Y1635D01*
X388Y1635D02*
X397Y1635D01*
X880Y1635D02*
X890Y1635D01*
X938Y1635D02*
X947Y1635D01*
X981Y1635D02*
X988Y1635D01*
X289Y1634D02*
X296Y1634D01*
X331Y1634D02*
X341Y1634D01*
X387Y1634D02*
X396Y1634D01*
X881Y1634D02*
X891Y1634D01*
X937Y1634D02*
X946Y1634D01*
X981Y1634D02*
X988Y1634D01*
X289Y1633D02*
X296Y1633D01*
X332Y1633D02*
X342Y1633D01*
X385Y1633D02*
X395Y1633D01*
X882Y1633D02*
X892Y1633D01*
X935Y1633D02*
X945Y1633D01*
X981Y1633D02*
X988Y1633D01*
X289Y1632D02*
X296Y1632D01*
X333Y1632D02*
X344Y1632D01*
X384Y1632D02*
X395Y1632D01*
X883Y1632D02*
X894Y1632D01*
X934Y1632D02*
X944Y1632D01*
X981Y1632D02*
X988Y1632D01*
X289Y1631D02*
X296Y1631D01*
X334Y1631D02*
X345Y1631D01*
X382Y1631D02*
X394Y1631D01*
X884Y1631D02*
X895Y1631D01*
X932Y1631D02*
X943Y1631D01*
X981Y1631D02*
X988Y1631D01*
X289Y1630D02*
X296Y1630D01*
X335Y1630D02*
X347Y1630D01*
X381Y1630D02*
X392Y1630D01*
X885Y1630D02*
X897Y1630D01*
X930Y1630D02*
X942Y1630D01*
X981Y1630D02*
X988Y1630D01*
X289Y1629D02*
X296Y1629D01*
X336Y1629D02*
X349Y1629D01*
X378Y1629D02*
X391Y1629D01*
X886Y1629D02*
X899Y1629D01*
X928Y1629D02*
X941Y1629D01*
X981Y1629D02*
X988Y1629D01*
X289Y1628D02*
X296Y1628D01*
X337Y1628D02*
X352Y1628D01*
X376Y1628D02*
X390Y1628D01*
X887Y1628D02*
X902Y1628D01*
X925Y1628D02*
X940Y1628D01*
X981Y1628D02*
X988Y1628D01*
X289Y1627D02*
X296Y1627D01*
X339Y1627D02*
X356Y1627D01*
X372Y1627D02*
X389Y1627D01*
X889Y1627D02*
X906Y1627D01*
X922Y1627D02*
X939Y1627D01*
X981Y1627D02*
X988Y1627D01*
X289Y1626D02*
X296Y1626D01*
X340Y1626D02*
X388Y1626D01*
X890Y1626D02*
X937Y1626D01*
X981Y1626D02*
X988Y1626D01*
X289Y1625D02*
X296Y1625D01*
X342Y1625D02*
X386Y1625D01*
X892Y1625D02*
X936Y1625D01*
X981Y1625D02*
X988Y1625D01*
X289Y1624D02*
X296Y1624D01*
X343Y1624D02*
X384Y1624D01*
X893Y1624D02*
X934Y1624D01*
X981Y1624D02*
X988Y1624D01*
X289Y1623D02*
X296Y1623D01*
X345Y1623D02*
X383Y1623D01*
X895Y1623D02*
X932Y1623D01*
X981Y1623D02*
X988Y1623D01*
X289Y1622D02*
X296Y1622D01*
X347Y1622D02*
X380Y1622D01*
X897Y1622D02*
X930Y1622D01*
X981Y1622D02*
X988Y1622D01*
X289Y1621D02*
X296Y1621D01*
X350Y1621D02*
X378Y1621D01*
X900Y1621D02*
X928Y1621D01*
X981Y1621D02*
X988Y1621D01*
X289Y1620D02*
X296Y1620D01*
X353Y1620D02*
X375Y1620D01*
X902Y1620D02*
X925Y1620D01*
X981Y1620D02*
X988Y1620D01*
X289Y1619D02*
X296Y1619D01*
X357Y1619D02*
X371Y1619D01*
X907Y1619D02*
X921Y1619D01*
X981Y1619D02*
X988Y1619D01*
X289Y1618D02*
X296Y1618D01*
X981Y1618D02*
X988Y1618D01*
X289Y1617D02*
X296Y1617D01*
X981Y1617D02*
X988Y1617D01*
X289Y1616D02*
X296Y1616D01*
X981Y1616D02*
X988Y1616D01*
X289Y1615D02*
X296Y1615D01*
X981Y1615D02*
X988Y1615D01*
X289Y1614D02*
X296Y1614D01*
X981Y1614D02*
X988Y1614D01*
X289Y1613D02*
X296Y1613D01*
X981Y1613D02*
X988Y1613D01*
X289Y1612D02*
X296Y1612D01*
X981Y1612D02*
X988Y1612D01*
X289Y1611D02*
X296Y1611D01*
X981Y1611D02*
X988Y1611D01*
X289Y1610D02*
X296Y1610D01*
X981Y1610D02*
X988Y1610D01*
X289Y1609D02*
X296Y1609D01*
X981Y1609D02*
X988Y1609D01*
X289Y1608D02*
X296Y1608D01*
X981Y1608D02*
X988Y1608D01*
X289Y1607D02*
X296Y1607D01*
X981Y1607D02*
X988Y1607D01*
X289Y1606D02*
X296Y1606D01*
X981Y1606D02*
X988Y1606D01*
X289Y1605D02*
X296Y1605D01*
X981Y1605D02*
X988Y1605D01*
X289Y1604D02*
X296Y1604D01*
X981Y1604D02*
X988Y1604D01*
X289Y1603D02*
X296Y1603D01*
X981Y1603D02*
X988Y1603D01*
X289Y1602D02*
X296Y1602D01*
X981Y1602D02*
X988Y1602D01*
X289Y1601D02*
X296Y1601D01*
X981Y1601D02*
X988Y1601D01*
X289Y1600D02*
X296Y1600D01*
X981Y1600D02*
X988Y1600D01*
X289Y1599D02*
X296Y1599D01*
X981Y1599D02*
X988Y1599D01*
X289Y1598D02*
X296Y1598D01*
X981Y1598D02*
X988Y1598D01*
X289Y1597D02*
X296Y1597D01*
X981Y1597D02*
X988Y1597D01*
X289Y1596D02*
X296Y1596D01*
X981Y1596D02*
X988Y1596D01*
X289Y1595D02*
X296Y1595D01*
X981Y1595D02*
X988Y1595D01*
X289Y1594D02*
X296Y1594D01*
X981Y1594D02*
X988Y1594D01*
X289Y1593D02*
X296Y1593D01*
X981Y1593D02*
X988Y1593D01*
X289Y1592D02*
X296Y1592D01*
X981Y1592D02*
X988Y1592D01*
X289Y1591D02*
X296Y1591D01*
X981Y1591D02*
X988Y1591D01*
X289Y1590D02*
X296Y1590D01*
X981Y1590D02*
X988Y1590D01*
X289Y1589D02*
X296Y1589D01*
X981Y1589D02*
X988Y1589D01*
X289Y1588D02*
X296Y1588D01*
X981Y1588D02*
X988Y1588D01*
X289Y1587D02*
X296Y1587D01*
X981Y1587D02*
X988Y1587D01*
X289Y1586D02*
X296Y1586D01*
X981Y1586D02*
X988Y1586D01*
X289Y1585D02*
X296Y1585D01*
X981Y1585D02*
X988Y1585D01*
X289Y1584D02*
X296Y1584D01*
X981Y1584D02*
X988Y1584D01*
X289Y1583D02*
X296Y1583D01*
X850Y1583D02*
X859Y1583D01*
X981Y1583D02*
X988Y1583D01*
X289Y1582D02*
X296Y1582D01*
X848Y1582D02*
X859Y1582D01*
X981Y1582D02*
X988Y1582D01*
X289Y1581D02*
X296Y1581D01*
X848Y1581D02*
X859Y1581D01*
X981Y1581D02*
X988Y1581D01*
X289Y1580D02*
X296Y1580D01*
X848Y1580D02*
X859Y1580D01*
X981Y1580D02*
X988Y1580D01*
X289Y1579D02*
X296Y1579D01*
X848Y1579D02*
X859Y1579D01*
X981Y1579D02*
X988Y1579D01*
X289Y1578D02*
X296Y1578D01*
X848Y1578D02*
X859Y1578D01*
X981Y1578D02*
X988Y1578D01*
X289Y1577D02*
X296Y1577D01*
X849Y1577D02*
X859Y1577D01*
X981Y1577D02*
X988Y1577D01*
X289Y1576D02*
X296Y1576D01*
X853Y1576D02*
X859Y1576D01*
X981Y1576D02*
X988Y1576D01*
X289Y1575D02*
X296Y1575D01*
X560Y1575D02*
X564Y1575D01*
X713Y1575D02*
X718Y1575D01*
X853Y1575D02*
X859Y1575D01*
X981Y1575D02*
X988Y1575D01*
X289Y1574D02*
X296Y1574D01*
X557Y1574D02*
X567Y1574D01*
X711Y1574D02*
X721Y1574D01*
X853Y1574D02*
X859Y1574D01*
X981Y1574D02*
X988Y1574D01*
X289Y1573D02*
X296Y1573D01*
X555Y1573D02*
X569Y1573D01*
X709Y1573D02*
X722Y1573D01*
X853Y1573D02*
X859Y1573D01*
X981Y1573D02*
X988Y1573D01*
X289Y1572D02*
X296Y1572D01*
X554Y1572D02*
X570Y1572D01*
X708Y1572D02*
X724Y1572D01*
X853Y1572D02*
X859Y1572D01*
X981Y1572D02*
X988Y1572D01*
X289Y1571D02*
X296Y1571D01*
X553Y1571D02*
X571Y1571D01*
X706Y1571D02*
X725Y1571D01*
X853Y1571D02*
X859Y1571D01*
X981Y1571D02*
X988Y1571D01*
X289Y1570D02*
X296Y1570D01*
X552Y1570D02*
X572Y1570D01*
X706Y1570D02*
X726Y1570D01*
X853Y1570D02*
X859Y1570D01*
X981Y1570D02*
X988Y1570D01*
X289Y1569D02*
X296Y1569D01*
X551Y1569D02*
X573Y1569D01*
X705Y1569D02*
X726Y1569D01*
X808Y1569D02*
X859Y1569D01*
X981Y1569D02*
X988Y1569D01*
X289Y1568D02*
X296Y1568D01*
X551Y1568D02*
X573Y1568D01*
X704Y1568D02*
X727Y1568D01*
X807Y1568D02*
X859Y1568D01*
X981Y1568D02*
X988Y1568D01*
X289Y1567D02*
X296Y1567D01*
X550Y1567D02*
X559Y1567D01*
X565Y1567D02*
X574Y1567D01*
X704Y1567D02*
X713Y1567D01*
X718Y1567D02*
X727Y1567D01*
X807Y1567D02*
X859Y1567D01*
X981Y1567D02*
X988Y1567D01*
X289Y1566D02*
X296Y1566D01*
X550Y1566D02*
X557Y1566D01*
X567Y1566D02*
X574Y1566D01*
X703Y1566D02*
X711Y1566D01*
X720Y1566D02*
X728Y1566D01*
X806Y1566D02*
X859Y1566D01*
X981Y1566D02*
X988Y1566D01*
X289Y1565D02*
X296Y1565D01*
X549Y1565D02*
X557Y1565D01*
X567Y1565D02*
X575Y1565D01*
X703Y1565D02*
X710Y1565D01*
X721Y1565D02*
X728Y1565D01*
X806Y1565D02*
X859Y1565D01*
X981Y1565D02*
X988Y1565D01*
X289Y1564D02*
X296Y1564D01*
X549Y1564D02*
X556Y1564D01*
X568Y1564D02*
X575Y1564D01*
X703Y1564D02*
X710Y1564D01*
X721Y1564D02*
X729Y1564D01*
X807Y1564D02*
X859Y1564D01*
X981Y1564D02*
X988Y1564D01*
X289Y1563D02*
X296Y1563D01*
X549Y1563D02*
X556Y1563D01*
X568Y1563D02*
X575Y1563D01*
X702Y1563D02*
X709Y1563D01*
X722Y1563D02*
X729Y1563D01*
X808Y1563D02*
X859Y1563D01*
X981Y1563D02*
X988Y1563D01*
X289Y1562D02*
X296Y1562D01*
X549Y1562D02*
X556Y1562D01*
X568Y1562D02*
X575Y1562D01*
X702Y1562D02*
X709Y1562D01*
X722Y1562D02*
X729Y1562D01*
X853Y1562D02*
X859Y1562D01*
X981Y1562D02*
X988Y1562D01*
X289Y1561D02*
X296Y1561D01*
X549Y1561D02*
X556Y1561D01*
X568Y1561D02*
X575Y1561D01*
X702Y1561D02*
X709Y1561D01*
X722Y1561D02*
X729Y1561D01*
X853Y1561D02*
X859Y1561D01*
X981Y1561D02*
X988Y1561D01*
X289Y1560D02*
X296Y1560D01*
X549Y1560D02*
X556Y1560D01*
X568Y1560D02*
X575Y1560D01*
X702Y1560D02*
X710Y1560D01*
X722Y1560D02*
X729Y1560D01*
X853Y1560D02*
X859Y1560D01*
X981Y1560D02*
X988Y1560D01*
X289Y1559D02*
X296Y1559D01*
X549Y1559D02*
X556Y1559D01*
X568Y1559D02*
X575Y1559D01*
X703Y1559D02*
X710Y1559D01*
X721Y1559D02*
X728Y1559D01*
X853Y1559D02*
X859Y1559D01*
X981Y1559D02*
X988Y1559D01*
X289Y1558D02*
X296Y1558D01*
X549Y1558D02*
X557Y1558D01*
X567Y1558D02*
X575Y1558D01*
X703Y1558D02*
X710Y1558D01*
X721Y1558D02*
X728Y1558D01*
X853Y1558D02*
X859Y1558D01*
X981Y1558D02*
X988Y1558D01*
X289Y1557D02*
X296Y1557D01*
X550Y1557D02*
X558Y1557D01*
X566Y1557D02*
X574Y1557D01*
X703Y1557D02*
X711Y1557D01*
X720Y1557D02*
X728Y1557D01*
X853Y1557D02*
X859Y1557D01*
X981Y1557D02*
X988Y1557D01*
X289Y1556D02*
X296Y1556D01*
X550Y1556D02*
X560Y1556D01*
X564Y1556D02*
X574Y1556D01*
X704Y1556D02*
X714Y1556D01*
X717Y1556D02*
X727Y1556D01*
X853Y1556D02*
X859Y1556D01*
X981Y1556D02*
X988Y1556D01*
X289Y1555D02*
X296Y1555D01*
X551Y1555D02*
X573Y1555D01*
X704Y1555D02*
X727Y1555D01*
X849Y1555D02*
X859Y1555D01*
X981Y1555D02*
X988Y1555D01*
X289Y1554D02*
X296Y1554D01*
X551Y1554D02*
X573Y1554D01*
X705Y1554D02*
X726Y1554D01*
X848Y1554D02*
X859Y1554D01*
X981Y1554D02*
X988Y1554D01*
X289Y1553D02*
X296Y1553D01*
X552Y1553D02*
X572Y1553D01*
X706Y1553D02*
X725Y1553D01*
X848Y1553D02*
X859Y1553D01*
X981Y1553D02*
X988Y1553D01*
X289Y1552D02*
X296Y1552D01*
X553Y1552D02*
X571Y1552D01*
X707Y1552D02*
X724Y1552D01*
X848Y1552D02*
X859Y1552D01*
X981Y1552D02*
X988Y1552D01*
X289Y1551D02*
X296Y1551D01*
X554Y1551D02*
X570Y1551D01*
X708Y1551D02*
X723Y1551D01*
X848Y1551D02*
X859Y1551D01*
X981Y1551D02*
X988Y1551D01*
X289Y1550D02*
X296Y1550D01*
X556Y1550D02*
X568Y1550D01*
X709Y1550D02*
X722Y1550D01*
X848Y1550D02*
X859Y1550D01*
X981Y1550D02*
X988Y1550D01*
X289Y1549D02*
X296Y1549D01*
X557Y1549D02*
X567Y1549D01*
X711Y1549D02*
X720Y1549D01*
X850Y1549D02*
X859Y1549D01*
X981Y1549D02*
X988Y1549D01*
X289Y1548D02*
X296Y1548D01*
X561Y1548D02*
X563Y1548D01*
X714Y1548D02*
X717Y1548D01*
X981Y1548D02*
X988Y1548D01*
X289Y1547D02*
X296Y1547D01*
X981Y1547D02*
X988Y1547D01*
X289Y1546D02*
X296Y1546D01*
X981Y1546D02*
X988Y1546D01*
X289Y1545D02*
X296Y1545D01*
X981Y1545D02*
X988Y1545D01*
X289Y1544D02*
X296Y1544D01*
X981Y1544D02*
X988Y1544D01*
X289Y1543D02*
X296Y1543D01*
X981Y1543D02*
X988Y1543D01*
X289Y1542D02*
X296Y1542D01*
X981Y1542D02*
X988Y1542D01*
X289Y1541D02*
X296Y1541D01*
X981Y1541D02*
X988Y1541D01*
X289Y1540D02*
X296Y1540D01*
X981Y1540D02*
X988Y1540D01*
X289Y1539D02*
X296Y1539D01*
X981Y1539D02*
X988Y1539D01*
X289Y1538D02*
X296Y1538D01*
X981Y1538D02*
X988Y1538D01*
X289Y1537D02*
X296Y1537D01*
X981Y1537D02*
X988Y1537D01*
X289Y1536D02*
X296Y1536D01*
X981Y1536D02*
X988Y1536D01*
X289Y1535D02*
X296Y1535D01*
X981Y1535D02*
X988Y1535D01*
X289Y1534D02*
X296Y1534D01*
X981Y1534D02*
X988Y1534D01*
X289Y1533D02*
X296Y1533D01*
X981Y1533D02*
X988Y1533D01*
X289Y1532D02*
X296Y1532D01*
X807Y1532D02*
X844Y1532D01*
X981Y1532D02*
X988Y1532D01*
X289Y1531D02*
X296Y1531D01*
X807Y1531D02*
X844Y1531D01*
X981Y1531D02*
X988Y1531D01*
X289Y1530D02*
X296Y1530D01*
X806Y1530D02*
X845Y1530D01*
X981Y1530D02*
X988Y1530D01*
X289Y1529D02*
X296Y1529D01*
X806Y1529D02*
X845Y1529D01*
X981Y1529D02*
X988Y1529D01*
X289Y1528D02*
X296Y1528D01*
X807Y1528D02*
X844Y1528D01*
X981Y1528D02*
X988Y1528D01*
X289Y1527D02*
X296Y1527D01*
X807Y1527D02*
X844Y1527D01*
X981Y1527D02*
X988Y1527D01*
X289Y1526D02*
X296Y1526D01*
X810Y1526D02*
X841Y1526D01*
X981Y1526D02*
X988Y1526D01*
X289Y1525D02*
X296Y1525D01*
X830Y1525D02*
X838Y1525D01*
X981Y1525D02*
X988Y1525D01*
X289Y1524D02*
X296Y1524D01*
X830Y1524D02*
X839Y1524D01*
X981Y1524D02*
X988Y1524D01*
X289Y1523D02*
X296Y1523D01*
X831Y1523D02*
X840Y1523D01*
X981Y1523D02*
X988Y1523D01*
X289Y1522D02*
X296Y1522D01*
X832Y1522D02*
X840Y1522D01*
X981Y1522D02*
X988Y1522D01*
X289Y1521D02*
X296Y1521D01*
X833Y1521D02*
X841Y1521D01*
X981Y1521D02*
X988Y1521D01*
X289Y1520D02*
X296Y1520D01*
X834Y1520D02*
X842Y1520D01*
X981Y1520D02*
X988Y1520D01*
X289Y1519D02*
X296Y1519D01*
X835Y1519D02*
X843Y1519D01*
X981Y1519D02*
X988Y1519D01*
X289Y1518D02*
X296Y1518D01*
X836Y1518D02*
X844Y1518D01*
X981Y1518D02*
X988Y1518D01*
X289Y1517D02*
X296Y1517D01*
X837Y1517D02*
X844Y1517D01*
X981Y1517D02*
X988Y1517D01*
X289Y1516D02*
X296Y1516D01*
X837Y1516D02*
X845Y1516D01*
X981Y1516D02*
X988Y1516D01*
X289Y1515D02*
X296Y1515D01*
X838Y1515D02*
X845Y1515D01*
X981Y1515D02*
X988Y1515D01*
X289Y1514D02*
X296Y1514D01*
X839Y1514D02*
X845Y1514D01*
X981Y1514D02*
X988Y1514D01*
X289Y1513D02*
X296Y1513D01*
X839Y1513D02*
X845Y1513D01*
X981Y1513D02*
X988Y1513D01*
X289Y1512D02*
X296Y1512D01*
X839Y1512D02*
X845Y1512D01*
X981Y1512D02*
X988Y1512D01*
X289Y1511D02*
X296Y1511D01*
X839Y1511D02*
X845Y1511D01*
X981Y1511D02*
X988Y1511D01*
X289Y1510D02*
X296Y1510D01*
X839Y1510D02*
X845Y1510D01*
X981Y1510D02*
X988Y1510D01*
X289Y1509D02*
X296Y1509D01*
X839Y1509D02*
X845Y1509D01*
X981Y1509D02*
X988Y1509D01*
X289Y1508D02*
X296Y1508D01*
X839Y1508D02*
X845Y1508D01*
X981Y1508D02*
X988Y1508D01*
X289Y1507D02*
X296Y1507D01*
X838Y1507D02*
X845Y1507D01*
X981Y1507D02*
X988Y1507D01*
X289Y1506D02*
X296Y1506D01*
X837Y1506D02*
X844Y1506D01*
X981Y1506D02*
X988Y1506D01*
X289Y1505D02*
X296Y1505D01*
X832Y1505D02*
X844Y1505D01*
X981Y1505D02*
X988Y1505D01*
X289Y1504D02*
X296Y1504D01*
X831Y1504D02*
X843Y1504D01*
X981Y1504D02*
X988Y1504D01*
X289Y1503D02*
X296Y1503D01*
X830Y1503D02*
X843Y1503D01*
X981Y1503D02*
X988Y1503D01*
X289Y1502D02*
X296Y1502D01*
X830Y1502D02*
X842Y1502D01*
X981Y1502D02*
X988Y1502D01*
X289Y1501D02*
X296Y1501D01*
X830Y1501D02*
X841Y1501D01*
X981Y1501D02*
X988Y1501D01*
X289Y1500D02*
X296Y1500D01*
X831Y1500D02*
X840Y1500D01*
X981Y1500D02*
X988Y1500D01*
X289Y1499D02*
X296Y1499D01*
X832Y1499D02*
X838Y1499D01*
X981Y1499D02*
X988Y1499D01*
X289Y1498D02*
X296Y1498D01*
X981Y1498D02*
X988Y1498D01*
X289Y1497D02*
X296Y1497D01*
X981Y1497D02*
X988Y1497D01*
X289Y1496D02*
X296Y1496D01*
X981Y1496D02*
X988Y1496D01*
X289Y1495D02*
X296Y1495D01*
X981Y1495D02*
X988Y1495D01*
X289Y1494D02*
X296Y1494D01*
X981Y1494D02*
X988Y1494D01*
X289Y1493D02*
X296Y1493D01*
X981Y1493D02*
X988Y1493D01*
X289Y1492D02*
X296Y1492D01*
X981Y1492D02*
X988Y1492D01*
X289Y1491D02*
X296Y1491D01*
X981Y1491D02*
X988Y1491D01*
X289Y1490D02*
X296Y1490D01*
X981Y1490D02*
X988Y1490D01*
X289Y1489D02*
X296Y1489D01*
X981Y1489D02*
X988Y1489D01*
X289Y1488D02*
X296Y1488D01*
X981Y1488D02*
X988Y1488D01*
X289Y1487D02*
X296Y1487D01*
X981Y1487D02*
X988Y1487D01*
X289Y1486D02*
X296Y1486D01*
X981Y1486D02*
X988Y1486D01*
X289Y1485D02*
X296Y1485D01*
X981Y1485D02*
X988Y1485D01*
X289Y1484D02*
X296Y1484D01*
X981Y1484D02*
X988Y1484D01*
X289Y1483D02*
X296Y1483D01*
X981Y1483D02*
X988Y1483D01*
X289Y1482D02*
X296Y1482D01*
X981Y1482D02*
X988Y1482D01*
X289Y1481D02*
X296Y1481D01*
X981Y1481D02*
X988Y1481D01*
X289Y1480D02*
X296Y1480D01*
X981Y1480D02*
X988Y1480D01*
X289Y1479D02*
X296Y1479D01*
X808Y1479D02*
X810Y1479D01*
X841Y1479D02*
X843Y1479D01*
X981Y1479D02*
X988Y1479D01*
X289Y1478D02*
X296Y1478D01*
X807Y1478D02*
X811Y1478D01*
X839Y1478D02*
X844Y1478D01*
X981Y1478D02*
X988Y1478D01*
X289Y1477D02*
X296Y1477D01*
X807Y1477D02*
X812Y1477D01*
X839Y1477D02*
X844Y1477D01*
X981Y1477D02*
X988Y1477D01*
X289Y1476D02*
X296Y1476D01*
X806Y1476D02*
X812Y1476D01*
X839Y1476D02*
X845Y1476D01*
X981Y1476D02*
X988Y1476D01*
X289Y1475D02*
X296Y1475D01*
X806Y1475D02*
X812Y1475D01*
X839Y1475D02*
X845Y1475D01*
X981Y1475D02*
X988Y1475D01*
X289Y1474D02*
X296Y1474D01*
X806Y1474D02*
X812Y1474D01*
X839Y1474D02*
X845Y1474D01*
X981Y1474D02*
X988Y1474D01*
X289Y1473D02*
X296Y1473D01*
X806Y1473D02*
X812Y1473D01*
X839Y1473D02*
X845Y1473D01*
X981Y1473D02*
X988Y1473D01*
X289Y1472D02*
X296Y1472D01*
X806Y1472D02*
X812Y1472D01*
X839Y1472D02*
X845Y1472D01*
X855Y1472D02*
X861Y1472D01*
X981Y1472D02*
X988Y1472D01*
X289Y1471D02*
X296Y1471D01*
X806Y1471D02*
X812Y1471D01*
X839Y1471D02*
X845Y1471D01*
X854Y1471D02*
X862Y1471D01*
X981Y1471D02*
X988Y1471D01*
X289Y1470D02*
X296Y1470D01*
X806Y1470D02*
X812Y1470D01*
X839Y1470D02*
X845Y1470D01*
X854Y1470D02*
X862Y1470D01*
X981Y1470D02*
X988Y1470D01*
X289Y1469D02*
X296Y1469D01*
X806Y1469D02*
X813Y1469D01*
X838Y1469D02*
X845Y1469D01*
X853Y1469D02*
X862Y1469D01*
X981Y1469D02*
X988Y1469D01*
X289Y1468D02*
X296Y1468D01*
X806Y1468D02*
X845Y1468D01*
X853Y1468D02*
X862Y1468D01*
X981Y1468D02*
X988Y1468D01*
X289Y1467D02*
X296Y1467D01*
X806Y1467D02*
X845Y1467D01*
X853Y1467D02*
X862Y1467D01*
X981Y1467D02*
X988Y1467D01*
X289Y1466D02*
X296Y1466D01*
X806Y1466D02*
X845Y1466D01*
X853Y1466D02*
X862Y1466D01*
X981Y1466D02*
X988Y1466D01*
X289Y1465D02*
X296Y1465D01*
X806Y1465D02*
X845Y1465D01*
X854Y1465D02*
X862Y1465D01*
X981Y1465D02*
X988Y1465D01*
X1148Y1465D02*
X1203Y1465D01*
X289Y1464D02*
X296Y1464D01*
X806Y1464D02*
X844Y1464D01*
X854Y1464D02*
X862Y1464D01*
X981Y1464D02*
X988Y1464D01*
X1147Y1464D02*
X1204Y1464D01*
X289Y1463D02*
X296Y1463D01*
X806Y1463D02*
X844Y1463D01*
X855Y1463D02*
X861Y1463D01*
X981Y1463D02*
X988Y1463D01*
X1146Y1463D02*
X1204Y1463D01*
X289Y1462D02*
X296Y1462D01*
X806Y1462D02*
X813Y1462D01*
X981Y1462D02*
X988Y1462D01*
X1146Y1462D02*
X1204Y1462D01*
X289Y1461D02*
X296Y1461D01*
X806Y1461D02*
X812Y1461D01*
X981Y1461D02*
X988Y1461D01*
X1146Y1461D02*
X1204Y1461D01*
X289Y1460D02*
X296Y1460D01*
X806Y1460D02*
X812Y1460D01*
X981Y1460D02*
X988Y1460D01*
X1146Y1460D02*
X1204Y1460D01*
X289Y1459D02*
X296Y1459D01*
X806Y1459D02*
X812Y1459D01*
X981Y1459D02*
X988Y1459D01*
X1146Y1459D02*
X1204Y1459D01*
X289Y1458D02*
X296Y1458D01*
X806Y1458D02*
X812Y1458D01*
X981Y1458D02*
X988Y1458D01*
X1148Y1458D02*
X1204Y1458D01*
X289Y1457D02*
X296Y1457D01*
X806Y1457D02*
X812Y1457D01*
X981Y1457D02*
X988Y1457D01*
X1178Y1457D02*
X1184Y1457D01*
X1197Y1457D02*
X1204Y1457D01*
X289Y1456D02*
X296Y1456D01*
X806Y1456D02*
X812Y1456D01*
X981Y1456D02*
X988Y1456D01*
X1178Y1456D02*
X1184Y1456D01*
X1197Y1456D02*
X1204Y1456D01*
X289Y1455D02*
X296Y1455D01*
X806Y1455D02*
X812Y1455D01*
X981Y1455D02*
X988Y1455D01*
X1178Y1455D02*
X1184Y1455D01*
X1197Y1455D02*
X1204Y1455D01*
X289Y1454D02*
X296Y1454D01*
X807Y1454D02*
X812Y1454D01*
X981Y1454D02*
X988Y1454D01*
X1178Y1454D02*
X1184Y1454D01*
X1197Y1454D02*
X1204Y1454D01*
X289Y1453D02*
X296Y1453D01*
X807Y1453D02*
X811Y1453D01*
X981Y1453D02*
X988Y1453D01*
X1178Y1453D02*
X1184Y1453D01*
X1197Y1453D02*
X1204Y1453D01*
X289Y1452D02*
X296Y1452D01*
X809Y1452D02*
X810Y1452D01*
X981Y1452D02*
X988Y1452D01*
X1177Y1452D02*
X1184Y1452D01*
X1197Y1452D02*
X1204Y1452D01*
X289Y1451D02*
X296Y1451D01*
X981Y1451D02*
X988Y1451D01*
X1175Y1451D02*
X1184Y1451D01*
X1197Y1451D02*
X1204Y1451D01*
X289Y1450D02*
X296Y1450D01*
X981Y1450D02*
X988Y1450D01*
X1174Y1450D02*
X1184Y1450D01*
X1197Y1450D02*
X1204Y1450D01*
X289Y1449D02*
X296Y1449D01*
X981Y1449D02*
X988Y1449D01*
X1172Y1449D02*
X1184Y1449D01*
X1197Y1449D02*
X1204Y1449D01*
X289Y1448D02*
X296Y1448D01*
X981Y1448D02*
X988Y1448D01*
X1170Y1448D02*
X1184Y1448D01*
X1197Y1448D02*
X1204Y1448D01*
X289Y1447D02*
X296Y1447D01*
X981Y1447D02*
X988Y1447D01*
X1168Y1447D02*
X1184Y1447D01*
X1197Y1447D02*
X1204Y1447D01*
X289Y1446D02*
X296Y1446D01*
X981Y1446D02*
X988Y1446D01*
X1167Y1446D02*
X1184Y1446D01*
X1197Y1446D02*
X1204Y1446D01*
X289Y1445D02*
X296Y1445D01*
X981Y1445D02*
X988Y1445D01*
X1165Y1445D02*
X1184Y1445D01*
X1197Y1445D02*
X1204Y1445D01*
X289Y1444D02*
X296Y1444D01*
X981Y1444D02*
X988Y1444D01*
X1163Y1444D02*
X1184Y1444D01*
X1197Y1444D02*
X1204Y1444D01*
X289Y1443D02*
X296Y1443D01*
X981Y1443D02*
X988Y1443D01*
X1162Y1443D02*
X1184Y1443D01*
X1197Y1443D02*
X1204Y1443D01*
X289Y1442D02*
X296Y1442D01*
X981Y1442D02*
X988Y1442D01*
X1160Y1442D02*
X1174Y1442D01*
X1178Y1442D02*
X1184Y1442D01*
X1197Y1442D02*
X1204Y1442D01*
X289Y1441D02*
X296Y1441D01*
X981Y1441D02*
X988Y1441D01*
X1158Y1441D02*
X1172Y1441D01*
X1178Y1441D02*
X1184Y1441D01*
X1197Y1441D02*
X1204Y1441D01*
X289Y1440D02*
X296Y1440D01*
X981Y1440D02*
X988Y1440D01*
X1156Y1440D02*
X1171Y1440D01*
X1178Y1440D02*
X1184Y1440D01*
X1197Y1440D02*
X1204Y1440D01*
X289Y1439D02*
X296Y1439D01*
X981Y1439D02*
X988Y1439D01*
X1155Y1439D02*
X1169Y1439D01*
X1178Y1439D02*
X1184Y1439D01*
X1197Y1439D02*
X1204Y1439D01*
X289Y1438D02*
X296Y1438D01*
X981Y1438D02*
X988Y1438D01*
X1153Y1438D02*
X1167Y1438D01*
X1178Y1438D02*
X1184Y1438D01*
X1197Y1438D02*
X1203Y1438D01*
X289Y1437D02*
X296Y1437D01*
X981Y1437D02*
X988Y1437D01*
X1151Y1437D02*
X1166Y1437D01*
X1178Y1437D02*
X1185Y1437D01*
X1196Y1437D02*
X1203Y1437D01*
X289Y1436D02*
X296Y1436D01*
X981Y1436D02*
X988Y1436D01*
X1150Y1436D02*
X1164Y1436D01*
X1178Y1436D02*
X1186Y1436D01*
X1195Y1436D02*
X1203Y1436D01*
X289Y1435D02*
X296Y1435D01*
X981Y1435D02*
X988Y1435D01*
X1148Y1435D02*
X1162Y1435D01*
X1178Y1435D02*
X1203Y1435D01*
X289Y1434D02*
X296Y1434D01*
X981Y1434D02*
X988Y1434D01*
X1147Y1434D02*
X1160Y1434D01*
X1179Y1434D02*
X1202Y1434D01*
X289Y1433D02*
X296Y1433D01*
X981Y1433D02*
X988Y1433D01*
X1146Y1433D02*
X1159Y1433D01*
X1179Y1433D02*
X1202Y1433D01*
X289Y1432D02*
X296Y1432D01*
X808Y1432D02*
X843Y1432D01*
X981Y1432D02*
X988Y1432D01*
X1146Y1432D02*
X1157Y1432D01*
X1180Y1432D02*
X1201Y1432D01*
X289Y1431D02*
X296Y1431D01*
X807Y1431D02*
X844Y1431D01*
X981Y1431D02*
X988Y1431D01*
X1146Y1431D02*
X1155Y1431D01*
X1181Y1431D02*
X1200Y1431D01*
X289Y1430D02*
X296Y1430D01*
X806Y1430D02*
X845Y1430D01*
X981Y1430D02*
X988Y1430D01*
X1146Y1430D02*
X1154Y1430D01*
X1182Y1430D02*
X1199Y1430D01*
X289Y1429D02*
X296Y1429D01*
X806Y1429D02*
X845Y1429D01*
X981Y1429D02*
X988Y1429D01*
X1146Y1429D02*
X1152Y1429D01*
X1184Y1429D02*
X1198Y1429D01*
X289Y1428D02*
X296Y1428D01*
X807Y1428D02*
X844Y1428D01*
X981Y1428D02*
X988Y1428D01*
X1148Y1428D02*
X1150Y1428D01*
X1186Y1428D02*
X1195Y1428D01*
X289Y1427D02*
X296Y1427D01*
X807Y1427D02*
X844Y1427D01*
X981Y1427D02*
X988Y1427D01*
X289Y1426D02*
X296Y1426D01*
X808Y1426D02*
X843Y1426D01*
X981Y1426D02*
X988Y1426D01*
X289Y1425D02*
X296Y1425D01*
X832Y1425D02*
X839Y1425D01*
X981Y1425D02*
X988Y1425D01*
X289Y1424D02*
X296Y1424D01*
X832Y1424D02*
X840Y1424D01*
X981Y1424D02*
X988Y1424D01*
X289Y1423D02*
X296Y1423D01*
X833Y1423D02*
X840Y1423D01*
X981Y1423D02*
X988Y1423D01*
X289Y1422D02*
X296Y1422D01*
X834Y1422D02*
X841Y1422D01*
X981Y1422D02*
X988Y1422D01*
X289Y1421D02*
X296Y1421D01*
X834Y1421D02*
X842Y1421D01*
X981Y1421D02*
X988Y1421D01*
X289Y1420D02*
X296Y1420D01*
X835Y1420D02*
X842Y1420D01*
X981Y1420D02*
X988Y1420D01*
X289Y1419D02*
X296Y1419D01*
X836Y1419D02*
X843Y1419D01*
X981Y1419D02*
X988Y1419D01*
X289Y1418D02*
X296Y1418D01*
X836Y1418D02*
X843Y1418D01*
X981Y1418D02*
X988Y1418D01*
X289Y1417D02*
X296Y1417D01*
X837Y1417D02*
X844Y1417D01*
X981Y1417D02*
X988Y1417D01*
X289Y1416D02*
X296Y1416D01*
X838Y1416D02*
X844Y1416D01*
X981Y1416D02*
X988Y1416D01*
X289Y1415D02*
X296Y1415D01*
X838Y1415D02*
X845Y1415D01*
X981Y1415D02*
X988Y1415D01*
X289Y1414D02*
X296Y1414D01*
X839Y1414D02*
X845Y1414D01*
X981Y1414D02*
X988Y1414D01*
X289Y1413D02*
X296Y1413D01*
X839Y1413D02*
X845Y1413D01*
X981Y1413D02*
X988Y1413D01*
X289Y1412D02*
X296Y1412D01*
X839Y1412D02*
X845Y1412D01*
X981Y1412D02*
X988Y1412D01*
X289Y1411D02*
X296Y1411D01*
X839Y1411D02*
X845Y1411D01*
X981Y1411D02*
X988Y1411D01*
X289Y1410D02*
X296Y1410D01*
X839Y1410D02*
X845Y1410D01*
X981Y1410D02*
X988Y1410D01*
X1156Y1410D02*
X1177Y1410D01*
X289Y1409D02*
X296Y1409D01*
X839Y1409D02*
X845Y1409D01*
X981Y1409D02*
X988Y1409D01*
X1154Y1409D02*
X1179Y1409D01*
X289Y1408D02*
X296Y1408D01*
X838Y1408D02*
X845Y1408D01*
X981Y1408D02*
X988Y1408D01*
X1152Y1408D02*
X1181Y1408D01*
X289Y1407D02*
X296Y1407D01*
X838Y1407D02*
X844Y1407D01*
X981Y1407D02*
X988Y1407D01*
X1151Y1407D02*
X1182Y1407D01*
X289Y1406D02*
X296Y1406D01*
X836Y1406D02*
X844Y1406D01*
X981Y1406D02*
X988Y1406D01*
X1150Y1406D02*
X1183Y1406D01*
X289Y1405D02*
X296Y1405D01*
X809Y1405D02*
X844Y1405D01*
X981Y1405D02*
X988Y1405D01*
X1149Y1405D02*
X1184Y1405D01*
X289Y1404D02*
X296Y1404D01*
X807Y1404D02*
X843Y1404D01*
X981Y1404D02*
X988Y1404D01*
X1148Y1404D02*
X1185Y1404D01*
X289Y1403D02*
X296Y1403D01*
X807Y1403D02*
X842Y1403D01*
X981Y1403D02*
X988Y1403D01*
X1148Y1403D02*
X1185Y1403D01*
X289Y1402D02*
X296Y1402D01*
X806Y1402D02*
X842Y1402D01*
X981Y1402D02*
X988Y1402D01*
X1147Y1402D02*
X1156Y1402D01*
X1162Y1402D02*
X1168Y1402D01*
X1177Y1402D02*
X1186Y1402D01*
X289Y1401D02*
X296Y1401D01*
X806Y1401D02*
X840Y1401D01*
X981Y1401D02*
X988Y1401D01*
X1146Y1401D02*
X1155Y1401D01*
X1162Y1401D02*
X1168Y1401D01*
X1178Y1401D02*
X1187Y1401D01*
X289Y1400D02*
X296Y1400D01*
X807Y1400D02*
X839Y1400D01*
X981Y1400D02*
X988Y1400D01*
X1146Y1400D02*
X1154Y1400D01*
X1162Y1400D02*
X1168Y1400D01*
X1179Y1400D02*
X1187Y1400D01*
X289Y1399D02*
X296Y1399D01*
X808Y1399D02*
X835Y1399D01*
X981Y1399D02*
X988Y1399D01*
X1146Y1399D02*
X1153Y1399D01*
X1162Y1399D02*
X1168Y1399D01*
X1180Y1399D02*
X1187Y1399D01*
X289Y1398D02*
X296Y1398D01*
X981Y1398D02*
X988Y1398D01*
X1146Y1398D02*
X1153Y1398D01*
X1162Y1398D02*
X1168Y1398D01*
X1181Y1398D02*
X1187Y1398D01*
X289Y1397D02*
X296Y1397D01*
X981Y1397D02*
X988Y1397D01*
X1146Y1397D02*
X1152Y1397D01*
X1162Y1397D02*
X1168Y1397D01*
X1181Y1397D02*
X1187Y1397D01*
X289Y1396D02*
X296Y1396D01*
X981Y1396D02*
X988Y1396D01*
X1146Y1396D02*
X1152Y1396D01*
X1162Y1396D02*
X1168Y1396D01*
X1181Y1396D02*
X1188Y1396D01*
X289Y1395D02*
X296Y1395D01*
X981Y1395D02*
X988Y1395D01*
X1146Y1395D02*
X1152Y1395D01*
X1162Y1395D02*
X1168Y1395D01*
X1181Y1395D02*
X1188Y1395D01*
X289Y1394D02*
X296Y1394D01*
X981Y1394D02*
X988Y1394D01*
X1146Y1394D02*
X1152Y1394D01*
X1162Y1394D02*
X1168Y1394D01*
X1181Y1394D02*
X1188Y1394D01*
X289Y1393D02*
X296Y1393D01*
X981Y1393D02*
X988Y1393D01*
X1146Y1393D02*
X1152Y1393D01*
X1162Y1393D02*
X1168Y1393D01*
X1181Y1393D02*
X1188Y1393D01*
X289Y1392D02*
X296Y1392D01*
X981Y1392D02*
X988Y1392D01*
X1146Y1392D02*
X1152Y1392D01*
X1162Y1392D02*
X1168Y1392D01*
X1181Y1392D02*
X1188Y1392D01*
X289Y1391D02*
X296Y1391D01*
X981Y1391D02*
X988Y1391D01*
X1146Y1391D02*
X1152Y1391D01*
X1162Y1391D02*
X1168Y1391D01*
X1181Y1391D02*
X1188Y1391D01*
X289Y1390D02*
X296Y1390D01*
X981Y1390D02*
X988Y1390D01*
X1146Y1390D02*
X1152Y1390D01*
X1162Y1390D02*
X1168Y1390D01*
X1181Y1390D02*
X1188Y1390D01*
X289Y1389D02*
X296Y1389D01*
X981Y1389D02*
X988Y1389D01*
X1146Y1389D02*
X1152Y1389D01*
X1162Y1389D02*
X1168Y1389D01*
X1181Y1389D02*
X1188Y1389D01*
X289Y1388D02*
X296Y1388D01*
X981Y1388D02*
X988Y1388D01*
X1146Y1388D02*
X1152Y1388D01*
X1162Y1388D02*
X1168Y1388D01*
X1181Y1388D02*
X1188Y1388D01*
X289Y1387D02*
X296Y1387D01*
X981Y1387D02*
X988Y1387D01*
X1146Y1387D02*
X1152Y1387D01*
X1162Y1387D02*
X1168Y1387D01*
X1181Y1387D02*
X1187Y1387D01*
X289Y1386D02*
X296Y1386D01*
X981Y1386D02*
X988Y1386D01*
X1146Y1386D02*
X1152Y1386D01*
X1162Y1386D02*
X1168Y1386D01*
X1181Y1386D02*
X1187Y1386D01*
X289Y1385D02*
X296Y1385D01*
X981Y1385D02*
X988Y1385D01*
X1146Y1385D02*
X1152Y1385D01*
X1162Y1385D02*
X1168Y1385D01*
X1180Y1385D02*
X1187Y1385D01*
X289Y1384D02*
X296Y1384D01*
X981Y1384D02*
X988Y1384D01*
X1146Y1384D02*
X1152Y1384D01*
X1162Y1384D02*
X1168Y1384D01*
X1180Y1384D02*
X1187Y1384D01*
X289Y1383D02*
X296Y1383D01*
X981Y1383D02*
X988Y1383D01*
X1146Y1383D02*
X1152Y1383D01*
X1162Y1383D02*
X1168Y1383D01*
X1179Y1383D02*
X1187Y1383D01*
X289Y1382D02*
X296Y1382D01*
X808Y1382D02*
X858Y1382D01*
X981Y1382D02*
X988Y1382D01*
X1146Y1382D02*
X1152Y1382D01*
X1162Y1382D02*
X1168Y1382D01*
X1178Y1382D02*
X1186Y1382D01*
X289Y1381D02*
X296Y1381D01*
X807Y1381D02*
X859Y1381D01*
X981Y1381D02*
X988Y1381D01*
X1146Y1381D02*
X1152Y1381D01*
X1162Y1381D02*
X1168Y1381D01*
X1177Y1381D02*
X1186Y1381D01*
X289Y1380D02*
X296Y1380D01*
X806Y1380D02*
X859Y1380D01*
X981Y1380D02*
X988Y1380D01*
X1146Y1380D02*
X1152Y1380D01*
X1162Y1380D02*
X1185Y1380D01*
X289Y1379D02*
X296Y1379D01*
X806Y1379D02*
X859Y1379D01*
X981Y1379D02*
X988Y1379D01*
X1146Y1379D02*
X1152Y1379D01*
X1162Y1379D02*
X1184Y1379D01*
X289Y1378D02*
X296Y1378D01*
X806Y1378D02*
X859Y1378D01*
X981Y1378D02*
X988Y1378D01*
X1146Y1378D02*
X1152Y1378D01*
X1162Y1378D02*
X1183Y1378D01*
X289Y1377D02*
X296Y1377D01*
X807Y1377D02*
X859Y1377D01*
X981Y1377D02*
X988Y1377D01*
X1146Y1377D02*
X1152Y1377D01*
X1162Y1377D02*
X1183Y1377D01*
X289Y1376D02*
X296Y1376D01*
X808Y1376D02*
X858Y1376D01*
X981Y1376D02*
X988Y1376D01*
X1146Y1376D02*
X1152Y1376D01*
X1162Y1376D02*
X1182Y1376D01*
X289Y1375D02*
X296Y1375D01*
X820Y1375D02*
X829Y1375D01*
X981Y1375D02*
X988Y1375D01*
X1146Y1375D02*
X1152Y1375D01*
X1162Y1375D02*
X1180Y1375D01*
X289Y1374D02*
X296Y1374D01*
X821Y1374D02*
X829Y1374D01*
X981Y1374D02*
X988Y1374D01*
X1147Y1374D02*
X1151Y1374D01*
X1163Y1374D02*
X1179Y1374D01*
X289Y1373D02*
X296Y1373D01*
X822Y1373D02*
X830Y1373D01*
X981Y1373D02*
X988Y1373D01*
X1148Y1373D02*
X1149Y1373D01*
X1164Y1373D02*
X1176Y1373D01*
X289Y1372D02*
X296Y1372D01*
X823Y1372D02*
X831Y1372D01*
X981Y1372D02*
X988Y1372D01*
X289Y1371D02*
X296Y1371D01*
X822Y1371D02*
X832Y1371D01*
X981Y1371D02*
X988Y1371D01*
X289Y1370D02*
X296Y1370D01*
X821Y1370D02*
X833Y1370D01*
X981Y1370D02*
X988Y1370D01*
X289Y1369D02*
X296Y1369D01*
X820Y1369D02*
X834Y1369D01*
X981Y1369D02*
X988Y1369D01*
X289Y1368D02*
X296Y1368D01*
X819Y1368D02*
X835Y1368D01*
X981Y1368D02*
X988Y1368D01*
X289Y1367D02*
X296Y1367D01*
X819Y1367D02*
X835Y1367D01*
X981Y1367D02*
X988Y1367D01*
X289Y1366D02*
X296Y1366D01*
X818Y1366D02*
X826Y1366D01*
X828Y1366D02*
X836Y1366D01*
X981Y1366D02*
X988Y1366D01*
X289Y1365D02*
X296Y1365D01*
X817Y1365D02*
X825Y1365D01*
X829Y1365D02*
X837Y1365D01*
X981Y1365D02*
X988Y1365D01*
X289Y1364D02*
X296Y1364D01*
X816Y1364D02*
X824Y1364D01*
X830Y1364D02*
X838Y1364D01*
X981Y1364D02*
X988Y1364D01*
X289Y1363D02*
X296Y1363D01*
X815Y1363D02*
X823Y1363D01*
X831Y1363D02*
X839Y1363D01*
X981Y1363D02*
X988Y1363D01*
X289Y1362D02*
X296Y1362D01*
X814Y1362D02*
X822Y1362D01*
X831Y1362D02*
X840Y1362D01*
X981Y1362D02*
X988Y1362D01*
X289Y1361D02*
X296Y1361D01*
X813Y1361D02*
X822Y1361D01*
X832Y1361D02*
X841Y1361D01*
X981Y1361D02*
X988Y1361D01*
X289Y1360D02*
X296Y1360D01*
X813Y1360D02*
X821Y1360D01*
X833Y1360D02*
X841Y1360D01*
X981Y1360D02*
X988Y1360D01*
X289Y1359D02*
X296Y1359D01*
X812Y1359D02*
X820Y1359D01*
X834Y1359D02*
X842Y1359D01*
X981Y1359D02*
X988Y1359D01*
X289Y1358D02*
X296Y1358D01*
X811Y1358D02*
X819Y1358D01*
X835Y1358D02*
X843Y1358D01*
X981Y1358D02*
X988Y1358D01*
X289Y1357D02*
X296Y1357D01*
X810Y1357D02*
X818Y1357D01*
X836Y1357D02*
X844Y1357D01*
X981Y1357D02*
X988Y1357D01*
X289Y1356D02*
X296Y1356D01*
X809Y1356D02*
X817Y1356D01*
X837Y1356D02*
X844Y1356D01*
X981Y1356D02*
X988Y1356D01*
X289Y1355D02*
X296Y1355D01*
X808Y1355D02*
X817Y1355D01*
X837Y1355D02*
X845Y1355D01*
X981Y1355D02*
X988Y1355D01*
X1182Y1355D02*
X1186Y1355D01*
X289Y1354D02*
X296Y1354D01*
X807Y1354D02*
X816Y1354D01*
X838Y1354D02*
X845Y1354D01*
X981Y1354D02*
X988Y1354D01*
X1182Y1354D02*
X1187Y1354D01*
X289Y1353D02*
X296Y1353D01*
X807Y1353D02*
X815Y1353D01*
X839Y1353D02*
X844Y1353D01*
X981Y1353D02*
X988Y1353D01*
X1181Y1353D02*
X1187Y1353D01*
X289Y1352D02*
X296Y1352D01*
X806Y1352D02*
X814Y1352D01*
X840Y1352D02*
X843Y1352D01*
X981Y1352D02*
X988Y1352D01*
X1181Y1352D02*
X1187Y1352D01*
X289Y1351D02*
X296Y1351D01*
X806Y1351D02*
X813Y1351D01*
X981Y1351D02*
X988Y1351D01*
X1181Y1351D02*
X1188Y1351D01*
X289Y1350D02*
X296Y1350D01*
X807Y1350D02*
X812Y1350D01*
X981Y1350D02*
X988Y1350D01*
X1181Y1350D02*
X1188Y1350D01*
X289Y1349D02*
X296Y1349D01*
X807Y1349D02*
X811Y1349D01*
X981Y1349D02*
X988Y1349D01*
X1181Y1349D02*
X1188Y1349D01*
X289Y1348D02*
X296Y1348D01*
X809Y1348D02*
X809Y1348D01*
X981Y1348D02*
X988Y1348D01*
X1154Y1348D02*
X1198Y1348D01*
X289Y1347D02*
X296Y1347D01*
X981Y1347D02*
X988Y1347D01*
X1152Y1347D02*
X1199Y1347D01*
X289Y1346D02*
X296Y1346D01*
X981Y1346D02*
X988Y1346D01*
X1150Y1346D02*
X1200Y1346D01*
X289Y1345D02*
X296Y1345D01*
X981Y1345D02*
X988Y1345D01*
X1149Y1345D02*
X1200Y1345D01*
X289Y1344D02*
X296Y1344D01*
X981Y1344D02*
X988Y1344D01*
X1148Y1344D02*
X1200Y1344D01*
X289Y1343D02*
X296Y1343D01*
X981Y1343D02*
X988Y1343D01*
X1147Y1343D02*
X1200Y1343D01*
X289Y1342D02*
X296Y1342D01*
X981Y1342D02*
X988Y1342D01*
X1147Y1342D02*
X1199Y1342D01*
X289Y1341D02*
X296Y1341D01*
X981Y1341D02*
X988Y1341D01*
X1146Y1341D02*
X1198Y1341D01*
X289Y1340D02*
X296Y1340D01*
X981Y1340D02*
X988Y1340D01*
X1146Y1340D02*
X1154Y1340D01*
X1181Y1340D02*
X1188Y1340D01*
X289Y1339D02*
X296Y1339D01*
X981Y1339D02*
X988Y1339D01*
X1146Y1339D02*
X1153Y1339D01*
X1181Y1339D02*
X1188Y1339D01*
X289Y1338D02*
X296Y1338D01*
X981Y1338D02*
X988Y1338D01*
X1146Y1338D02*
X1152Y1338D01*
X1181Y1338D02*
X1188Y1338D01*
X289Y1337D02*
X296Y1337D01*
X981Y1337D02*
X988Y1337D01*
X1146Y1337D02*
X1152Y1337D01*
X1181Y1337D02*
X1188Y1337D01*
X289Y1336D02*
X296Y1336D01*
X981Y1336D02*
X988Y1336D01*
X1146Y1336D02*
X1152Y1336D01*
X1181Y1336D02*
X1188Y1336D01*
X289Y1335D02*
X296Y1335D01*
X981Y1335D02*
X988Y1335D01*
X1146Y1335D02*
X1152Y1335D01*
X1181Y1335D02*
X1188Y1335D01*
X289Y1334D02*
X296Y1334D01*
X981Y1334D02*
X988Y1334D01*
X1146Y1334D02*
X1152Y1334D01*
X1181Y1334D02*
X1188Y1334D01*
X289Y1333D02*
X296Y1333D01*
X981Y1333D02*
X988Y1333D01*
X1146Y1333D02*
X1152Y1333D01*
X1181Y1333D02*
X1188Y1333D01*
X289Y1332D02*
X296Y1332D01*
X817Y1332D02*
X834Y1332D01*
X981Y1332D02*
X988Y1332D01*
X1146Y1332D02*
X1152Y1332D01*
X1181Y1332D02*
X1188Y1332D01*
X289Y1331D02*
X296Y1331D01*
X814Y1331D02*
X837Y1331D01*
X981Y1331D02*
X988Y1331D01*
X1146Y1331D02*
X1152Y1331D01*
X1181Y1331D02*
X1188Y1331D01*
X289Y1330D02*
X296Y1330D01*
X812Y1330D02*
X839Y1330D01*
X981Y1330D02*
X988Y1330D01*
X1146Y1330D02*
X1152Y1330D01*
X1181Y1330D02*
X1188Y1330D01*
X289Y1329D02*
X296Y1329D01*
X811Y1329D02*
X840Y1329D01*
X981Y1329D02*
X988Y1329D01*
X1146Y1329D02*
X1152Y1329D01*
X1181Y1329D02*
X1188Y1329D01*
X289Y1328D02*
X296Y1328D01*
X810Y1328D02*
X841Y1328D01*
X981Y1328D02*
X988Y1328D01*
X1146Y1328D02*
X1153Y1328D01*
X1181Y1328D02*
X1188Y1328D01*
X289Y1327D02*
X296Y1327D01*
X809Y1327D02*
X841Y1327D01*
X981Y1327D02*
X988Y1327D01*
X1146Y1327D02*
X1153Y1327D01*
X1181Y1327D02*
X1188Y1327D01*
X289Y1326D02*
X296Y1326D01*
X809Y1326D02*
X842Y1326D01*
X981Y1326D02*
X988Y1326D01*
X1146Y1326D02*
X1155Y1326D01*
X1181Y1326D02*
X1187Y1326D01*
X289Y1325D02*
X296Y1325D01*
X808Y1325D02*
X817Y1325D01*
X821Y1325D02*
X827Y1325D01*
X834Y1325D02*
X843Y1325D01*
X981Y1325D02*
X988Y1325D01*
X1146Y1325D02*
X1157Y1325D01*
X1181Y1325D02*
X1187Y1325D01*
X289Y1324D02*
X296Y1324D01*
X807Y1324D02*
X815Y1324D01*
X821Y1324D02*
X827Y1324D01*
X836Y1324D02*
X844Y1324D01*
X981Y1324D02*
X988Y1324D01*
X1147Y1324D02*
X1158Y1324D01*
X1181Y1324D02*
X1187Y1324D01*
X289Y1323D02*
X296Y1323D01*
X807Y1323D02*
X814Y1323D01*
X821Y1323D02*
X827Y1323D01*
X837Y1323D02*
X844Y1323D01*
X981Y1323D02*
X988Y1323D01*
X1148Y1323D02*
X1158Y1323D01*
X1182Y1323D02*
X1186Y1323D01*
X289Y1322D02*
X296Y1322D01*
X807Y1322D02*
X813Y1322D01*
X821Y1322D02*
X827Y1322D01*
X838Y1322D02*
X844Y1322D01*
X981Y1322D02*
X988Y1322D01*
X1148Y1322D02*
X1159Y1322D01*
X1184Y1322D02*
X1184Y1322D01*
X289Y1321D02*
X296Y1321D01*
X806Y1321D02*
X813Y1321D01*
X821Y1321D02*
X827Y1321D01*
X838Y1321D02*
X845Y1321D01*
X981Y1321D02*
X988Y1321D01*
X1149Y1321D02*
X1158Y1321D01*
X289Y1320D02*
X296Y1320D01*
X806Y1320D02*
X812Y1320D01*
X821Y1320D02*
X827Y1320D01*
X839Y1320D02*
X845Y1320D01*
X981Y1320D02*
X988Y1320D01*
X1151Y1320D02*
X1158Y1320D01*
X289Y1319D02*
X296Y1319D01*
X806Y1319D02*
X812Y1319D01*
X821Y1319D02*
X827Y1319D01*
X839Y1319D02*
X845Y1319D01*
X981Y1319D02*
X988Y1319D01*
X1152Y1319D02*
X1157Y1319D01*
X289Y1318D02*
X296Y1318D01*
X806Y1318D02*
X812Y1318D01*
X821Y1318D02*
X827Y1318D01*
X839Y1318D02*
X845Y1318D01*
X981Y1318D02*
X988Y1318D01*
X289Y1317D02*
X296Y1317D01*
X806Y1317D02*
X812Y1317D01*
X821Y1317D02*
X827Y1317D01*
X839Y1317D02*
X845Y1317D01*
X981Y1317D02*
X988Y1317D01*
X289Y1316D02*
X296Y1316D01*
X806Y1316D02*
X812Y1316D01*
X821Y1316D02*
X827Y1316D01*
X839Y1316D02*
X845Y1316D01*
X981Y1316D02*
X988Y1316D01*
X289Y1315D02*
X296Y1315D01*
X806Y1315D02*
X812Y1315D01*
X821Y1315D02*
X827Y1315D01*
X839Y1315D02*
X845Y1315D01*
X981Y1315D02*
X988Y1315D01*
X289Y1314D02*
X296Y1314D01*
X806Y1314D02*
X812Y1314D01*
X821Y1314D02*
X827Y1314D01*
X839Y1314D02*
X845Y1314D01*
X981Y1314D02*
X988Y1314D01*
X289Y1313D02*
X296Y1313D01*
X806Y1313D02*
X812Y1313D01*
X821Y1313D02*
X827Y1313D01*
X839Y1313D02*
X845Y1313D01*
X981Y1313D02*
X988Y1313D01*
X289Y1312D02*
X296Y1312D01*
X806Y1312D02*
X812Y1312D01*
X821Y1312D02*
X827Y1312D01*
X839Y1312D02*
X845Y1312D01*
X981Y1312D02*
X988Y1312D01*
X289Y1311D02*
X296Y1311D01*
X806Y1311D02*
X812Y1311D01*
X821Y1311D02*
X827Y1311D01*
X839Y1311D02*
X845Y1311D01*
X981Y1311D02*
X988Y1311D01*
X289Y1310D02*
X296Y1310D01*
X806Y1310D02*
X812Y1310D01*
X821Y1310D02*
X827Y1310D01*
X839Y1310D02*
X845Y1310D01*
X981Y1310D02*
X988Y1310D01*
X289Y1309D02*
X296Y1309D01*
X806Y1309D02*
X812Y1309D01*
X821Y1309D02*
X827Y1309D01*
X838Y1309D02*
X845Y1309D01*
X981Y1309D02*
X988Y1309D01*
X289Y1308D02*
X296Y1308D01*
X806Y1308D02*
X812Y1308D01*
X821Y1308D02*
X827Y1308D01*
X838Y1308D02*
X844Y1308D01*
X981Y1308D02*
X988Y1308D01*
X289Y1307D02*
X296Y1307D01*
X806Y1307D02*
X812Y1307D01*
X821Y1307D02*
X827Y1307D01*
X837Y1307D02*
X844Y1307D01*
X981Y1307D02*
X988Y1307D01*
X289Y1306D02*
X296Y1306D01*
X806Y1306D02*
X812Y1306D01*
X821Y1306D02*
X827Y1306D01*
X836Y1306D02*
X844Y1306D01*
X981Y1306D02*
X988Y1306D01*
X289Y1305D02*
X296Y1305D01*
X806Y1305D02*
X812Y1305D01*
X821Y1305D02*
X827Y1305D01*
X834Y1305D02*
X843Y1305D01*
X981Y1305D02*
X988Y1305D01*
X289Y1304D02*
X296Y1304D01*
X806Y1304D02*
X812Y1304D01*
X821Y1304D02*
X842Y1304D01*
X981Y1304D02*
X988Y1304D01*
X289Y1303D02*
X296Y1303D01*
X806Y1303D02*
X812Y1303D01*
X821Y1303D02*
X842Y1303D01*
X981Y1303D02*
X988Y1303D01*
X289Y1302D02*
X296Y1302D01*
X806Y1302D02*
X812Y1302D01*
X821Y1302D02*
X841Y1302D01*
X981Y1302D02*
X988Y1302D01*
X289Y1301D02*
X296Y1301D01*
X806Y1301D02*
X812Y1301D01*
X821Y1301D02*
X840Y1301D01*
X981Y1301D02*
X988Y1301D01*
X1149Y1301D02*
X1184Y1301D01*
X289Y1300D02*
X296Y1300D01*
X807Y1300D02*
X812Y1300D01*
X821Y1300D02*
X839Y1300D01*
X981Y1300D02*
X988Y1300D01*
X1147Y1300D02*
X1186Y1300D01*
X289Y1299D02*
X296Y1299D01*
X807Y1299D02*
X811Y1299D01*
X822Y1299D02*
X837Y1299D01*
X981Y1299D02*
X988Y1299D01*
X1146Y1299D02*
X1187Y1299D01*
X289Y1298D02*
X296Y1298D01*
X808Y1298D02*
X810Y1298D01*
X823Y1298D02*
X835Y1298D01*
X981Y1298D02*
X988Y1298D01*
X1146Y1298D02*
X1187Y1298D01*
X289Y1297D02*
X296Y1297D01*
X981Y1297D02*
X988Y1297D01*
X1146Y1297D02*
X1187Y1297D01*
X289Y1296D02*
X296Y1296D01*
X981Y1296D02*
X988Y1296D01*
X1146Y1296D02*
X1187Y1296D01*
X289Y1295D02*
X296Y1295D01*
X981Y1295D02*
X988Y1295D01*
X1146Y1295D02*
X1187Y1295D01*
X54Y1294D02*
X87Y1294D01*
X104Y1294D02*
X130Y1294D01*
X156Y1294D02*
X186Y1294D01*
X204Y1294D02*
X212Y1294D01*
X230Y1294D02*
X238Y1294D01*
X289Y1294D02*
X296Y1294D01*
X981Y1294D02*
X988Y1294D01*
X1147Y1294D02*
X1186Y1294D01*
X54Y1293D02*
X87Y1293D01*
X104Y1293D02*
X132Y1293D01*
X155Y1293D02*
X187Y1293D01*
X204Y1293D02*
X213Y1293D01*
X229Y1293D02*
X238Y1293D01*
X289Y1293D02*
X296Y1293D01*
X981Y1293D02*
X988Y1293D01*
X1170Y1293D02*
X1180Y1293D01*
X54Y1292D02*
X87Y1292D01*
X104Y1292D02*
X134Y1292D01*
X154Y1292D02*
X187Y1292D01*
X204Y1292D02*
X214Y1292D01*
X228Y1292D02*
X238Y1292D01*
X289Y1292D02*
X296Y1292D01*
X981Y1292D02*
X988Y1292D01*
X1171Y1292D02*
X1180Y1292D01*
X54Y1291D02*
X87Y1291D01*
X104Y1291D02*
X135Y1291D01*
X154Y1291D02*
X188Y1291D01*
X204Y1291D02*
X214Y1291D01*
X228Y1291D02*
X238Y1291D01*
X289Y1291D02*
X296Y1291D01*
X981Y1291D02*
X988Y1291D01*
X1172Y1291D02*
X1181Y1291D01*
X54Y1290D02*
X87Y1290D01*
X104Y1290D02*
X135Y1290D01*
X154Y1290D02*
X188Y1290D01*
X204Y1290D02*
X215Y1290D01*
X227Y1290D02*
X238Y1290D01*
X289Y1290D02*
X296Y1290D01*
X981Y1290D02*
X988Y1290D01*
X1173Y1290D02*
X1182Y1290D01*
X54Y1289D02*
X87Y1289D01*
X104Y1289D02*
X136Y1289D01*
X155Y1289D02*
X187Y1289D01*
X204Y1289D02*
X216Y1289D01*
X226Y1289D02*
X238Y1289D01*
X289Y1289D02*
X296Y1289D01*
X981Y1289D02*
X988Y1289D01*
X1174Y1289D02*
X1183Y1289D01*
X54Y1288D02*
X87Y1288D01*
X104Y1288D02*
X137Y1288D01*
X156Y1288D02*
X186Y1288D01*
X204Y1288D02*
X217Y1288D01*
X226Y1288D02*
X238Y1288D01*
X289Y1288D02*
X296Y1288D01*
X981Y1288D02*
X988Y1288D01*
X1175Y1288D02*
X1184Y1288D01*
X54Y1287D02*
X60Y1287D01*
X67Y1287D02*
X74Y1287D01*
X81Y1287D02*
X87Y1287D01*
X104Y1287D02*
X110Y1287D01*
X129Y1287D02*
X137Y1287D01*
X168Y1287D02*
X174Y1287D01*
X204Y1287D02*
X217Y1287D01*
X225Y1287D02*
X238Y1287D01*
X289Y1287D02*
X296Y1287D01*
X981Y1287D02*
X988Y1287D01*
X1176Y1287D02*
X1185Y1287D01*
X54Y1286D02*
X60Y1286D01*
X67Y1286D02*
X74Y1286D01*
X81Y1286D02*
X87Y1286D01*
X104Y1286D02*
X110Y1286D01*
X131Y1286D02*
X137Y1286D01*
X168Y1286D02*
X174Y1286D01*
X204Y1286D02*
X218Y1286D01*
X224Y1286D02*
X238Y1286D01*
X289Y1286D02*
X296Y1286D01*
X981Y1286D02*
X988Y1286D01*
X1176Y1286D02*
X1186Y1286D01*
X54Y1285D02*
X60Y1285D01*
X67Y1285D02*
X74Y1285D01*
X81Y1285D02*
X87Y1285D01*
X104Y1285D02*
X110Y1285D01*
X131Y1285D02*
X137Y1285D01*
X168Y1285D02*
X174Y1285D01*
X204Y1285D02*
X219Y1285D01*
X224Y1285D02*
X238Y1285D01*
X289Y1285D02*
X296Y1285D01*
X981Y1285D02*
X988Y1285D01*
X1177Y1285D02*
X1186Y1285D01*
X54Y1284D02*
X60Y1284D01*
X67Y1284D02*
X74Y1284D01*
X82Y1284D02*
X87Y1284D01*
X104Y1284D02*
X110Y1284D01*
X131Y1284D02*
X138Y1284D01*
X168Y1284D02*
X174Y1284D01*
X204Y1284D02*
X219Y1284D01*
X223Y1284D02*
X230Y1284D01*
X232Y1284D02*
X238Y1284D01*
X289Y1284D02*
X296Y1284D01*
X981Y1284D02*
X988Y1284D01*
X1178Y1284D02*
X1187Y1284D01*
X54Y1283D02*
X59Y1283D01*
X67Y1283D02*
X74Y1283D01*
X82Y1283D02*
X87Y1283D01*
X104Y1283D02*
X110Y1283D01*
X132Y1283D02*
X138Y1283D01*
X168Y1283D02*
X174Y1283D01*
X204Y1283D02*
X210Y1283D01*
X212Y1283D02*
X220Y1283D01*
X222Y1283D02*
X230Y1283D01*
X232Y1283D02*
X238Y1283D01*
X289Y1283D02*
X296Y1283D01*
X981Y1283D02*
X988Y1283D01*
X1179Y1283D02*
X1187Y1283D01*
X55Y1282D02*
X58Y1282D01*
X67Y1282D02*
X74Y1282D01*
X83Y1282D02*
X86Y1282D01*
X104Y1282D02*
X110Y1282D01*
X132Y1282D02*
X138Y1282D01*
X168Y1282D02*
X174Y1282D01*
X204Y1282D02*
X210Y1282D01*
X213Y1282D02*
X229Y1282D01*
X232Y1282D02*
X238Y1282D01*
X289Y1282D02*
X296Y1282D01*
X842Y1282D02*
X842Y1282D01*
X981Y1282D02*
X988Y1282D01*
X1180Y1282D02*
X1187Y1282D01*
X67Y1281D02*
X74Y1281D01*
X104Y1281D02*
X110Y1281D01*
X132Y1281D02*
X138Y1281D01*
X168Y1281D02*
X174Y1281D01*
X204Y1281D02*
X210Y1281D01*
X214Y1281D02*
X228Y1281D01*
X232Y1281D02*
X238Y1281D01*
X289Y1281D02*
X296Y1281D01*
X840Y1281D02*
X844Y1281D01*
X981Y1281D02*
X988Y1281D01*
X1181Y1281D02*
X1188Y1281D01*
X67Y1280D02*
X74Y1280D01*
X104Y1280D02*
X110Y1280D01*
X131Y1280D02*
X138Y1280D01*
X168Y1280D02*
X174Y1280D01*
X204Y1280D02*
X210Y1280D01*
X215Y1280D02*
X228Y1280D01*
X232Y1280D02*
X238Y1280D01*
X289Y1280D02*
X296Y1280D01*
X839Y1280D02*
X844Y1280D01*
X981Y1280D02*
X988Y1280D01*
X1181Y1280D02*
X1188Y1280D01*
X67Y1279D02*
X74Y1279D01*
X104Y1279D02*
X110Y1279D01*
X131Y1279D02*
X137Y1279D01*
X168Y1279D02*
X174Y1279D01*
X204Y1279D02*
X210Y1279D01*
X215Y1279D02*
X227Y1279D01*
X232Y1279D02*
X238Y1279D01*
X289Y1279D02*
X296Y1279D01*
X839Y1279D02*
X845Y1279D01*
X981Y1279D02*
X988Y1279D01*
X1181Y1279D02*
X1188Y1279D01*
X67Y1278D02*
X74Y1278D01*
X104Y1278D02*
X110Y1278D01*
X131Y1278D02*
X137Y1278D01*
X168Y1278D02*
X174Y1278D01*
X204Y1278D02*
X210Y1278D01*
X216Y1278D02*
X226Y1278D01*
X232Y1278D02*
X238Y1278D01*
X289Y1278D02*
X296Y1278D01*
X839Y1278D02*
X845Y1278D01*
X981Y1278D02*
X988Y1278D01*
X1181Y1278D02*
X1188Y1278D01*
X67Y1277D02*
X74Y1277D01*
X104Y1277D02*
X110Y1277D01*
X129Y1277D02*
X137Y1277D01*
X168Y1277D02*
X174Y1277D01*
X204Y1277D02*
X210Y1277D01*
X217Y1277D02*
X226Y1277D01*
X232Y1277D02*
X238Y1277D01*
X289Y1277D02*
X296Y1277D01*
X839Y1277D02*
X845Y1277D01*
X981Y1277D02*
X988Y1277D01*
X1181Y1277D02*
X1188Y1277D01*
X67Y1276D02*
X74Y1276D01*
X104Y1276D02*
X137Y1276D01*
X168Y1276D02*
X174Y1276D01*
X204Y1276D02*
X210Y1276D01*
X217Y1276D02*
X225Y1276D01*
X232Y1276D02*
X238Y1276D01*
X289Y1276D02*
X296Y1276D01*
X839Y1276D02*
X845Y1276D01*
X981Y1276D02*
X988Y1276D01*
X1181Y1276D02*
X1188Y1276D01*
X67Y1275D02*
X74Y1275D01*
X104Y1275D02*
X136Y1275D01*
X168Y1275D02*
X174Y1275D01*
X204Y1275D02*
X210Y1275D01*
X218Y1275D02*
X224Y1275D01*
X232Y1275D02*
X238Y1275D01*
X289Y1275D02*
X296Y1275D01*
X815Y1275D02*
X854Y1275D01*
X981Y1275D02*
X988Y1275D01*
X1181Y1275D02*
X1188Y1275D01*
X67Y1274D02*
X74Y1274D01*
X104Y1274D02*
X135Y1274D01*
X168Y1274D02*
X174Y1274D01*
X204Y1274D02*
X210Y1274D01*
X218Y1274D02*
X224Y1274D01*
X232Y1274D02*
X238Y1274D01*
X289Y1274D02*
X296Y1274D01*
X812Y1274D02*
X856Y1274D01*
X981Y1274D02*
X988Y1274D01*
X1181Y1274D02*
X1187Y1274D01*
X67Y1273D02*
X74Y1273D01*
X104Y1273D02*
X135Y1273D01*
X168Y1273D02*
X174Y1273D01*
X204Y1273D02*
X210Y1273D01*
X218Y1273D02*
X224Y1273D01*
X232Y1273D02*
X238Y1273D01*
X289Y1273D02*
X296Y1273D01*
X810Y1273D02*
X856Y1273D01*
X981Y1273D02*
X988Y1273D01*
X1180Y1273D02*
X1187Y1273D01*
X67Y1272D02*
X74Y1272D01*
X104Y1272D02*
X133Y1272D01*
X168Y1272D02*
X174Y1272D01*
X204Y1272D02*
X210Y1272D01*
X218Y1272D02*
X224Y1272D01*
X232Y1272D02*
X238Y1272D01*
X289Y1272D02*
X296Y1272D01*
X809Y1272D02*
X856Y1272D01*
X981Y1272D02*
X988Y1272D01*
X1180Y1272D02*
X1187Y1272D01*
X67Y1271D02*
X74Y1271D01*
X104Y1271D02*
X132Y1271D01*
X168Y1271D02*
X174Y1271D01*
X204Y1271D02*
X210Y1271D01*
X219Y1271D02*
X223Y1271D01*
X232Y1271D02*
X238Y1271D01*
X289Y1271D02*
X296Y1271D01*
X808Y1271D02*
X856Y1271D01*
X981Y1271D02*
X988Y1271D01*
X1175Y1271D02*
X1187Y1271D01*
X67Y1270D02*
X74Y1270D01*
X104Y1270D02*
X130Y1270D01*
X168Y1270D02*
X174Y1270D01*
X204Y1270D02*
X210Y1270D01*
X220Y1270D02*
X222Y1270D01*
X232Y1270D02*
X238Y1270D01*
X289Y1270D02*
X296Y1270D01*
X808Y1270D02*
X856Y1270D01*
X981Y1270D02*
X988Y1270D01*
X1173Y1270D02*
X1186Y1270D01*
X67Y1269D02*
X74Y1269D01*
X104Y1269D02*
X110Y1269D01*
X116Y1269D02*
X123Y1269D01*
X168Y1269D02*
X174Y1269D01*
X204Y1269D02*
X210Y1269D01*
X232Y1269D02*
X238Y1269D01*
X289Y1269D02*
X296Y1269D01*
X807Y1269D02*
X855Y1269D01*
X981Y1269D02*
X988Y1269D01*
X1172Y1269D02*
X1186Y1269D01*
X67Y1268D02*
X74Y1268D01*
X104Y1268D02*
X110Y1268D01*
X117Y1268D02*
X124Y1268D01*
X168Y1268D02*
X174Y1268D01*
X204Y1268D02*
X210Y1268D01*
X232Y1268D02*
X238Y1268D01*
X289Y1268D02*
X296Y1268D01*
X807Y1268D02*
X815Y1268D01*
X838Y1268D02*
X845Y1268D01*
X981Y1268D02*
X988Y1268D01*
X1171Y1268D02*
X1185Y1268D01*
X67Y1267D02*
X74Y1267D01*
X104Y1267D02*
X110Y1267D01*
X117Y1267D02*
X125Y1267D01*
X168Y1267D02*
X174Y1267D01*
X204Y1267D02*
X210Y1267D01*
X232Y1267D02*
X238Y1267D01*
X289Y1267D02*
X296Y1267D01*
X807Y1267D02*
X813Y1267D01*
X839Y1267D02*
X845Y1267D01*
X981Y1267D02*
X988Y1267D01*
X1171Y1267D02*
X1184Y1267D01*
X67Y1266D02*
X74Y1266D01*
X104Y1266D02*
X110Y1266D01*
X118Y1266D02*
X125Y1266D01*
X168Y1266D02*
X174Y1266D01*
X204Y1266D02*
X210Y1266D01*
X232Y1266D02*
X238Y1266D01*
X289Y1266D02*
X296Y1266D01*
X806Y1266D02*
X813Y1266D01*
X839Y1266D02*
X845Y1266D01*
X981Y1266D02*
X988Y1266D01*
X1171Y1266D02*
X1183Y1266D01*
X67Y1265D02*
X74Y1265D01*
X104Y1265D02*
X110Y1265D01*
X118Y1265D02*
X126Y1265D01*
X168Y1265D02*
X174Y1265D01*
X204Y1265D02*
X210Y1265D01*
X232Y1265D02*
X238Y1265D01*
X289Y1265D02*
X296Y1265D01*
X806Y1265D02*
X812Y1265D01*
X839Y1265D02*
X845Y1265D01*
X981Y1265D02*
X988Y1265D01*
X1172Y1265D02*
X1182Y1265D01*
X67Y1264D02*
X74Y1264D01*
X104Y1264D02*
X110Y1264D01*
X119Y1264D02*
X126Y1264D01*
X168Y1264D02*
X174Y1264D01*
X204Y1264D02*
X210Y1264D01*
X232Y1264D02*
X238Y1264D01*
X289Y1264D02*
X296Y1264D01*
X806Y1264D02*
X812Y1264D01*
X839Y1264D02*
X845Y1264D01*
X981Y1264D02*
X988Y1264D01*
X1173Y1264D02*
X1180Y1264D01*
X67Y1263D02*
X74Y1263D01*
X104Y1263D02*
X110Y1263D01*
X120Y1263D02*
X127Y1263D01*
X168Y1263D02*
X174Y1263D01*
X204Y1263D02*
X210Y1263D01*
X232Y1263D02*
X238Y1263D01*
X289Y1263D02*
X296Y1263D01*
X806Y1263D02*
X812Y1263D01*
X839Y1263D02*
X845Y1263D01*
X981Y1263D02*
X988Y1263D01*
X67Y1262D02*
X74Y1262D01*
X104Y1262D02*
X110Y1262D01*
X120Y1262D02*
X127Y1262D01*
X168Y1262D02*
X174Y1262D01*
X204Y1262D02*
X210Y1262D01*
X232Y1262D02*
X238Y1262D01*
X289Y1262D02*
X296Y1262D01*
X806Y1262D02*
X812Y1262D01*
X839Y1262D02*
X845Y1262D01*
X981Y1262D02*
X988Y1262D01*
X67Y1261D02*
X74Y1261D01*
X104Y1261D02*
X110Y1261D01*
X121Y1261D02*
X128Y1261D01*
X168Y1261D02*
X174Y1261D01*
X204Y1261D02*
X210Y1261D01*
X232Y1261D02*
X238Y1261D01*
X289Y1261D02*
X296Y1261D01*
X806Y1261D02*
X812Y1261D01*
X839Y1261D02*
X845Y1261D01*
X981Y1261D02*
X988Y1261D01*
X67Y1260D02*
X74Y1260D01*
X104Y1260D02*
X110Y1260D01*
X121Y1260D02*
X129Y1260D01*
X168Y1260D02*
X174Y1260D01*
X204Y1260D02*
X210Y1260D01*
X232Y1260D02*
X238Y1260D01*
X289Y1260D02*
X296Y1260D01*
X806Y1260D02*
X812Y1260D01*
X839Y1260D02*
X845Y1260D01*
X981Y1260D02*
X988Y1260D01*
X67Y1259D02*
X74Y1259D01*
X104Y1259D02*
X110Y1259D01*
X122Y1259D02*
X129Y1259D01*
X168Y1259D02*
X174Y1259D01*
X204Y1259D02*
X210Y1259D01*
X232Y1259D02*
X238Y1259D01*
X289Y1259D02*
X296Y1259D01*
X806Y1259D02*
X812Y1259D01*
X839Y1259D02*
X845Y1259D01*
X981Y1259D02*
X988Y1259D01*
X67Y1258D02*
X74Y1258D01*
X104Y1258D02*
X110Y1258D01*
X123Y1258D02*
X130Y1258D01*
X168Y1258D02*
X174Y1258D01*
X204Y1258D02*
X210Y1258D01*
X232Y1258D02*
X238Y1258D01*
X289Y1258D02*
X296Y1258D01*
X806Y1258D02*
X812Y1258D01*
X839Y1258D02*
X845Y1258D01*
X981Y1258D02*
X988Y1258D01*
X67Y1257D02*
X74Y1257D01*
X104Y1257D02*
X110Y1257D01*
X123Y1257D02*
X130Y1257D01*
X168Y1257D02*
X174Y1257D01*
X204Y1257D02*
X210Y1257D01*
X232Y1257D02*
X238Y1257D01*
X289Y1257D02*
X296Y1257D01*
X806Y1257D02*
X812Y1257D01*
X839Y1257D02*
X845Y1257D01*
X981Y1257D02*
X988Y1257D01*
X67Y1256D02*
X74Y1256D01*
X104Y1256D02*
X110Y1256D01*
X124Y1256D02*
X131Y1256D01*
X168Y1256D02*
X174Y1256D01*
X204Y1256D02*
X210Y1256D01*
X232Y1256D02*
X238Y1256D01*
X289Y1256D02*
X296Y1256D01*
X806Y1256D02*
X813Y1256D01*
X839Y1256D02*
X845Y1256D01*
X981Y1256D02*
X988Y1256D01*
X67Y1255D02*
X74Y1255D01*
X104Y1255D02*
X110Y1255D01*
X124Y1255D02*
X132Y1255D01*
X168Y1255D02*
X174Y1255D01*
X204Y1255D02*
X210Y1255D01*
X232Y1255D02*
X238Y1255D01*
X289Y1255D02*
X296Y1255D01*
X807Y1255D02*
X814Y1255D01*
X839Y1255D02*
X845Y1255D01*
X981Y1255D02*
X988Y1255D01*
X67Y1254D02*
X74Y1254D01*
X104Y1254D02*
X110Y1254D01*
X125Y1254D02*
X132Y1254D01*
X168Y1254D02*
X174Y1254D01*
X204Y1254D02*
X210Y1254D01*
X232Y1254D02*
X238Y1254D01*
X289Y1254D02*
X296Y1254D01*
X807Y1254D02*
X816Y1254D01*
X839Y1254D02*
X845Y1254D01*
X981Y1254D02*
X988Y1254D01*
X67Y1253D02*
X74Y1253D01*
X104Y1253D02*
X110Y1253D01*
X125Y1253D02*
X133Y1253D01*
X168Y1253D02*
X174Y1253D01*
X204Y1253D02*
X210Y1253D01*
X232Y1253D02*
X238Y1253D01*
X289Y1253D02*
X296Y1253D01*
X808Y1253D02*
X817Y1253D01*
X839Y1253D02*
X844Y1253D01*
X981Y1253D02*
X988Y1253D01*
X67Y1252D02*
X74Y1252D01*
X104Y1252D02*
X110Y1252D01*
X126Y1252D02*
X133Y1252D01*
X168Y1252D02*
X174Y1252D01*
X204Y1252D02*
X210Y1252D01*
X232Y1252D02*
X238Y1252D01*
X289Y1252D02*
X296Y1252D01*
X808Y1252D02*
X818Y1252D01*
X840Y1252D02*
X844Y1252D01*
X981Y1252D02*
X988Y1252D01*
X67Y1251D02*
X74Y1251D01*
X104Y1251D02*
X110Y1251D01*
X127Y1251D02*
X134Y1251D01*
X168Y1251D02*
X174Y1251D01*
X204Y1251D02*
X210Y1251D01*
X232Y1251D02*
X238Y1251D01*
X289Y1251D02*
X296Y1251D01*
X809Y1251D02*
X818Y1251D01*
X981Y1251D02*
X988Y1251D01*
X67Y1250D02*
X74Y1250D01*
X104Y1250D02*
X110Y1250D01*
X127Y1250D02*
X134Y1250D01*
X168Y1250D02*
X174Y1250D01*
X204Y1250D02*
X210Y1250D01*
X232Y1250D02*
X238Y1250D01*
X289Y1250D02*
X296Y1250D01*
X810Y1250D02*
X818Y1250D01*
X981Y1250D02*
X988Y1250D01*
X67Y1249D02*
X74Y1249D01*
X104Y1249D02*
X110Y1249D01*
X128Y1249D02*
X135Y1249D01*
X168Y1249D02*
X174Y1249D01*
X204Y1249D02*
X210Y1249D01*
X232Y1249D02*
X238Y1249D01*
X289Y1249D02*
X296Y1249D01*
X811Y1249D02*
X817Y1249D01*
X981Y1249D02*
X988Y1249D01*
X67Y1248D02*
X74Y1248D01*
X104Y1248D02*
X110Y1248D01*
X128Y1248D02*
X136Y1248D01*
X168Y1248D02*
X174Y1248D01*
X204Y1248D02*
X210Y1248D01*
X232Y1248D02*
X238Y1248D01*
X289Y1248D02*
X296Y1248D01*
X813Y1248D02*
X816Y1248D01*
X981Y1248D02*
X988Y1248D01*
X67Y1247D02*
X74Y1247D01*
X104Y1247D02*
X110Y1247D01*
X129Y1247D02*
X136Y1247D01*
X156Y1247D02*
X185Y1247D01*
X204Y1247D02*
X210Y1247D01*
X232Y1247D02*
X238Y1247D01*
X289Y1247D02*
X296Y1247D01*
X981Y1247D02*
X988Y1247D01*
X67Y1246D02*
X74Y1246D01*
X104Y1246D02*
X110Y1246D01*
X130Y1246D02*
X137Y1246D01*
X155Y1246D02*
X187Y1246D01*
X204Y1246D02*
X210Y1246D01*
X232Y1246D02*
X238Y1246D01*
X289Y1246D02*
X296Y1246D01*
X981Y1246D02*
X988Y1246D01*
X1156Y1246D02*
X1176Y1246D01*
X67Y1245D02*
X74Y1245D01*
X104Y1245D02*
X110Y1245D01*
X130Y1245D02*
X137Y1245D01*
X154Y1245D02*
X187Y1245D01*
X204Y1245D02*
X210Y1245D01*
X232Y1245D02*
X238Y1245D01*
X289Y1245D02*
X296Y1245D01*
X981Y1245D02*
X988Y1245D01*
X1154Y1245D02*
X1179Y1245D01*
X68Y1244D02*
X74Y1244D01*
X104Y1244D02*
X110Y1244D01*
X131Y1244D02*
X137Y1244D01*
X154Y1244D02*
X188Y1244D01*
X204Y1244D02*
X210Y1244D01*
X232Y1244D02*
X238Y1244D01*
X289Y1244D02*
X296Y1244D01*
X981Y1244D02*
X988Y1244D01*
X1152Y1244D02*
X1181Y1244D01*
X68Y1243D02*
X73Y1243D01*
X104Y1243D02*
X110Y1243D01*
X131Y1243D02*
X137Y1243D01*
X154Y1243D02*
X188Y1243D01*
X204Y1243D02*
X210Y1243D01*
X232Y1243D02*
X238Y1243D01*
X289Y1243D02*
X296Y1243D01*
X981Y1243D02*
X988Y1243D01*
X1151Y1243D02*
X1182Y1243D01*
X68Y1242D02*
X73Y1242D01*
X104Y1242D02*
X109Y1242D01*
X132Y1242D02*
X137Y1242D01*
X155Y1242D02*
X187Y1242D01*
X205Y1242D02*
X210Y1242D01*
X232Y1242D02*
X237Y1242D01*
X289Y1242D02*
X296Y1242D01*
X981Y1242D02*
X988Y1242D01*
X1150Y1242D02*
X1183Y1242D01*
X69Y1241D02*
X72Y1241D01*
X105Y1241D02*
X109Y1241D01*
X133Y1241D02*
X136Y1241D01*
X156Y1241D02*
X186Y1241D01*
X206Y1241D02*
X209Y1241D01*
X233Y1241D02*
X236Y1241D01*
X289Y1241D02*
X296Y1241D01*
X981Y1241D02*
X988Y1241D01*
X1149Y1241D02*
X1184Y1241D01*
X289Y1240D02*
X296Y1240D01*
X981Y1240D02*
X988Y1240D01*
X1149Y1240D02*
X1184Y1240D01*
X289Y1239D02*
X296Y1239D01*
X981Y1239D02*
X988Y1239D01*
X1148Y1239D02*
X1185Y1239D01*
X289Y1238D02*
X296Y1238D01*
X981Y1238D02*
X988Y1238D01*
X1147Y1238D02*
X1156Y1238D01*
X1177Y1238D02*
X1186Y1238D01*
X289Y1237D02*
X296Y1237D01*
X981Y1237D02*
X988Y1237D01*
X1147Y1237D02*
X1155Y1237D01*
X1178Y1237D02*
X1186Y1237D01*
X289Y1236D02*
X296Y1236D01*
X981Y1236D02*
X988Y1236D01*
X1146Y1236D02*
X1154Y1236D01*
X1179Y1236D02*
X1187Y1236D01*
X289Y1235D02*
X296Y1235D01*
X981Y1235D02*
X988Y1235D01*
X1146Y1235D02*
X1153Y1235D01*
X1180Y1235D02*
X1187Y1235D01*
X289Y1234D02*
X296Y1234D01*
X981Y1234D02*
X988Y1234D01*
X1146Y1234D02*
X1153Y1234D01*
X1180Y1234D02*
X1187Y1234D01*
X289Y1233D02*
X296Y1233D01*
X981Y1233D02*
X988Y1233D01*
X1146Y1233D02*
X1152Y1233D01*
X1181Y1233D02*
X1187Y1233D01*
X289Y1232D02*
X296Y1232D01*
X981Y1232D02*
X988Y1232D01*
X1146Y1232D02*
X1152Y1232D01*
X1181Y1232D02*
X1188Y1232D01*
X289Y1231D02*
X296Y1231D01*
X981Y1231D02*
X988Y1231D01*
X1146Y1231D02*
X1152Y1231D01*
X1181Y1231D02*
X1188Y1231D01*
X289Y1230D02*
X296Y1230D01*
X981Y1230D02*
X988Y1230D01*
X1146Y1230D02*
X1152Y1230D01*
X1181Y1230D02*
X1188Y1230D01*
X289Y1229D02*
X296Y1229D01*
X981Y1229D02*
X988Y1229D01*
X1146Y1229D02*
X1152Y1229D01*
X1181Y1229D02*
X1188Y1229D01*
X289Y1228D02*
X296Y1228D01*
X981Y1228D02*
X988Y1228D01*
X1146Y1228D02*
X1152Y1228D01*
X1181Y1228D02*
X1188Y1228D01*
X289Y1227D02*
X296Y1227D01*
X981Y1227D02*
X988Y1227D01*
X1146Y1227D02*
X1152Y1227D01*
X1181Y1227D02*
X1188Y1227D01*
X289Y1226D02*
X296Y1226D01*
X981Y1226D02*
X988Y1226D01*
X1146Y1226D02*
X1152Y1226D01*
X1181Y1226D02*
X1188Y1226D01*
X289Y1225D02*
X296Y1225D01*
X981Y1225D02*
X988Y1225D01*
X1146Y1225D02*
X1152Y1225D01*
X1181Y1225D02*
X1188Y1225D01*
X289Y1224D02*
X296Y1224D01*
X981Y1224D02*
X988Y1224D01*
X1146Y1224D02*
X1152Y1224D01*
X1181Y1224D02*
X1188Y1224D01*
X289Y1223D02*
X296Y1223D01*
X981Y1223D02*
X988Y1223D01*
X1146Y1223D02*
X1152Y1223D01*
X1181Y1223D02*
X1188Y1223D01*
X289Y1222D02*
X296Y1222D01*
X981Y1222D02*
X988Y1222D01*
X1146Y1222D02*
X1152Y1222D01*
X1181Y1222D02*
X1187Y1222D01*
X289Y1221D02*
X296Y1221D01*
X981Y1221D02*
X988Y1221D01*
X1146Y1221D02*
X1153Y1221D01*
X1180Y1221D02*
X1187Y1221D01*
X289Y1220D02*
X296Y1220D01*
X981Y1220D02*
X988Y1220D01*
X1146Y1220D02*
X1153Y1220D01*
X1180Y1220D02*
X1187Y1220D01*
X289Y1219D02*
X296Y1219D01*
X981Y1219D02*
X988Y1219D01*
X1146Y1219D02*
X1154Y1219D01*
X1179Y1219D02*
X1187Y1219D01*
X289Y1218D02*
X296Y1218D01*
X981Y1218D02*
X988Y1218D01*
X1147Y1218D02*
X1155Y1218D01*
X1178Y1218D02*
X1186Y1218D01*
X289Y1217D02*
X296Y1217D01*
X981Y1217D02*
X988Y1217D01*
X1147Y1217D02*
X1156Y1217D01*
X1177Y1217D02*
X1186Y1217D01*
X289Y1216D02*
X296Y1216D01*
X981Y1216D02*
X988Y1216D01*
X1148Y1216D02*
X1185Y1216D01*
X289Y1215D02*
X296Y1215D01*
X981Y1215D02*
X988Y1215D01*
X1149Y1215D02*
X1184Y1215D01*
X289Y1214D02*
X296Y1214D01*
X981Y1214D02*
X988Y1214D01*
X1149Y1214D02*
X1184Y1214D01*
X289Y1213D02*
X296Y1213D01*
X981Y1213D02*
X988Y1213D01*
X1150Y1213D02*
X1183Y1213D01*
X289Y1212D02*
X296Y1212D01*
X981Y1212D02*
X988Y1212D01*
X1151Y1212D02*
X1182Y1212D01*
X289Y1211D02*
X296Y1211D01*
X981Y1211D02*
X988Y1211D01*
X1153Y1211D02*
X1181Y1211D01*
X289Y1210D02*
X296Y1210D01*
X981Y1210D02*
X988Y1210D01*
X1154Y1210D02*
X1179Y1210D01*
X289Y1209D02*
X296Y1209D01*
X981Y1209D02*
X988Y1209D01*
X1156Y1209D02*
X1177Y1209D01*
X289Y1208D02*
X296Y1208D01*
X981Y1208D02*
X988Y1208D01*
X289Y1207D02*
X296Y1207D01*
X981Y1207D02*
X988Y1207D01*
X289Y1206D02*
X296Y1206D01*
X981Y1206D02*
X988Y1206D01*
X289Y1205D02*
X296Y1205D01*
X981Y1205D02*
X988Y1205D01*
X289Y1204D02*
X296Y1204D01*
X981Y1204D02*
X988Y1204D01*
X289Y1203D02*
X296Y1203D01*
X981Y1203D02*
X988Y1203D01*
X289Y1202D02*
X296Y1202D01*
X981Y1202D02*
X988Y1202D01*
X289Y1201D02*
X296Y1201D01*
X981Y1201D02*
X988Y1201D01*
X289Y1200D02*
X296Y1200D01*
X981Y1200D02*
X988Y1200D01*
X289Y1199D02*
X296Y1199D01*
X981Y1199D02*
X988Y1199D01*
X289Y1198D02*
X296Y1198D01*
X981Y1198D02*
X988Y1198D01*
X289Y1197D02*
X296Y1197D01*
X981Y1197D02*
X988Y1197D01*
X289Y1196D02*
X296Y1196D01*
X981Y1196D02*
X988Y1196D01*
X289Y1195D02*
X296Y1195D01*
X981Y1195D02*
X988Y1195D01*
X289Y1194D02*
X296Y1194D01*
X981Y1194D02*
X988Y1194D01*
X289Y1193D02*
X296Y1193D01*
X981Y1193D02*
X988Y1193D01*
X289Y1192D02*
X296Y1192D01*
X981Y1192D02*
X988Y1192D01*
X289Y1191D02*
X296Y1191D01*
X981Y1191D02*
X988Y1191D01*
X1171Y1191D02*
X1178Y1191D01*
X289Y1190D02*
X296Y1190D01*
X981Y1190D02*
X988Y1190D01*
X1168Y1190D02*
X1181Y1190D01*
X289Y1189D02*
X296Y1189D01*
X981Y1189D02*
X988Y1189D01*
X1166Y1189D02*
X1183Y1189D01*
X289Y1188D02*
X296Y1188D01*
X981Y1188D02*
X988Y1188D01*
X1164Y1188D02*
X1185Y1188D01*
X289Y1187D02*
X296Y1187D01*
X981Y1187D02*
X988Y1187D01*
X1162Y1187D02*
X1188Y1187D01*
X289Y1186D02*
X296Y1186D01*
X981Y1186D02*
X988Y1186D01*
X1160Y1186D02*
X1190Y1186D01*
X289Y1185D02*
X296Y1185D01*
X981Y1185D02*
X988Y1185D01*
X1158Y1185D02*
X1192Y1185D01*
X289Y1184D02*
X296Y1184D01*
X981Y1184D02*
X988Y1184D01*
X1156Y1184D02*
X1194Y1184D01*
X289Y1183D02*
X296Y1183D01*
X981Y1183D02*
X988Y1183D01*
X1154Y1183D02*
X1170Y1183D01*
X1179Y1183D02*
X1196Y1183D01*
X289Y1182D02*
X296Y1182D01*
X981Y1182D02*
X988Y1182D01*
X1152Y1182D02*
X1168Y1182D01*
X1181Y1182D02*
X1198Y1182D01*
X289Y1181D02*
X296Y1181D01*
X808Y1181D02*
X859Y1181D01*
X981Y1181D02*
X988Y1181D01*
X1150Y1181D02*
X1166Y1181D01*
X1183Y1181D02*
X1199Y1181D01*
X289Y1180D02*
X296Y1180D01*
X807Y1180D02*
X859Y1180D01*
X981Y1180D02*
X988Y1180D01*
X1149Y1180D02*
X1164Y1180D01*
X1185Y1180D02*
X1200Y1180D01*
X289Y1179D02*
X296Y1179D01*
X806Y1179D02*
X859Y1179D01*
X981Y1179D02*
X988Y1179D01*
X1148Y1179D02*
X1162Y1179D01*
X1187Y1179D02*
X1201Y1179D01*
X289Y1178D02*
X296Y1178D01*
X806Y1178D02*
X859Y1178D01*
X981Y1178D02*
X988Y1178D01*
X1147Y1178D02*
X1160Y1178D01*
X1189Y1178D02*
X1202Y1178D01*
X289Y1177D02*
X296Y1177D01*
X807Y1177D02*
X859Y1177D01*
X981Y1177D02*
X988Y1177D01*
X1147Y1177D02*
X1158Y1177D01*
X1191Y1177D02*
X1202Y1177D01*
X289Y1176D02*
X296Y1176D01*
X807Y1176D02*
X859Y1176D01*
X981Y1176D02*
X988Y1176D01*
X1146Y1176D02*
X1156Y1176D01*
X1193Y1176D02*
X1203Y1176D01*
X289Y1175D02*
X296Y1175D01*
X808Y1175D02*
X859Y1175D01*
X981Y1175D02*
X988Y1175D01*
X1146Y1175D02*
X1154Y1175D01*
X1195Y1175D02*
X1203Y1175D01*
X289Y1174D02*
X296Y1174D01*
X827Y1174D02*
X833Y1174D01*
X853Y1174D02*
X859Y1174D01*
X981Y1174D02*
X988Y1174D01*
X1146Y1174D02*
X1153Y1174D01*
X1196Y1174D02*
X1203Y1174D01*
X289Y1173D02*
X296Y1173D01*
X827Y1173D02*
X833Y1173D01*
X853Y1173D02*
X859Y1173D01*
X981Y1173D02*
X988Y1173D01*
X1146Y1173D02*
X1152Y1173D01*
X1197Y1173D02*
X1203Y1173D01*
X289Y1172D02*
X296Y1172D01*
X827Y1172D02*
X833Y1172D01*
X853Y1172D02*
X859Y1172D01*
X981Y1172D02*
X988Y1172D01*
X1146Y1172D02*
X1152Y1172D01*
X1197Y1172D02*
X1204Y1172D01*
X289Y1171D02*
X296Y1171D01*
X827Y1171D02*
X833Y1171D01*
X853Y1171D02*
X859Y1171D01*
X981Y1171D02*
X988Y1171D01*
X1146Y1171D02*
X1152Y1171D01*
X1197Y1171D02*
X1204Y1171D01*
X289Y1170D02*
X296Y1170D01*
X827Y1170D02*
X833Y1170D01*
X853Y1170D02*
X859Y1170D01*
X981Y1170D02*
X988Y1170D01*
X1146Y1170D02*
X1152Y1170D01*
X1197Y1170D02*
X1204Y1170D01*
X289Y1169D02*
X296Y1169D01*
X827Y1169D02*
X833Y1169D01*
X853Y1169D02*
X859Y1169D01*
X981Y1169D02*
X988Y1169D01*
X1146Y1169D02*
X1152Y1169D01*
X1197Y1169D02*
X1204Y1169D01*
X289Y1168D02*
X296Y1168D01*
X827Y1168D02*
X833Y1168D01*
X853Y1168D02*
X859Y1168D01*
X981Y1168D02*
X988Y1168D01*
X1146Y1168D02*
X1152Y1168D01*
X1197Y1168D02*
X1204Y1168D01*
X289Y1167D02*
X296Y1167D01*
X827Y1167D02*
X833Y1167D01*
X853Y1167D02*
X859Y1167D01*
X981Y1167D02*
X988Y1167D01*
X1146Y1167D02*
X1152Y1167D01*
X1197Y1167D02*
X1204Y1167D01*
X289Y1166D02*
X296Y1166D01*
X827Y1166D02*
X833Y1166D01*
X853Y1166D02*
X859Y1166D01*
X981Y1166D02*
X988Y1166D01*
X1146Y1166D02*
X1152Y1166D01*
X1197Y1166D02*
X1204Y1166D01*
X289Y1165D02*
X296Y1165D01*
X827Y1165D02*
X833Y1165D01*
X853Y1165D02*
X859Y1165D01*
X981Y1165D02*
X988Y1165D01*
X1146Y1165D02*
X1152Y1165D01*
X1197Y1165D02*
X1204Y1165D01*
X289Y1164D02*
X296Y1164D01*
X827Y1164D02*
X833Y1164D01*
X853Y1164D02*
X859Y1164D01*
X981Y1164D02*
X988Y1164D01*
X1146Y1164D02*
X1152Y1164D01*
X1197Y1164D02*
X1204Y1164D01*
X289Y1163D02*
X296Y1163D01*
X827Y1163D02*
X833Y1163D01*
X853Y1163D02*
X859Y1163D01*
X981Y1163D02*
X988Y1163D01*
X1146Y1163D02*
X1152Y1163D01*
X1197Y1163D02*
X1204Y1163D01*
X289Y1162D02*
X296Y1162D01*
X827Y1162D02*
X833Y1162D01*
X853Y1162D02*
X859Y1162D01*
X981Y1162D02*
X988Y1162D01*
X1146Y1162D02*
X1152Y1162D01*
X1197Y1162D02*
X1204Y1162D01*
X289Y1161D02*
X296Y1161D01*
X827Y1161D02*
X833Y1161D01*
X853Y1161D02*
X859Y1161D01*
X981Y1161D02*
X988Y1161D01*
X1146Y1161D02*
X1152Y1161D01*
X1197Y1161D02*
X1204Y1161D01*
X289Y1160D02*
X296Y1160D01*
X827Y1160D02*
X833Y1160D01*
X853Y1160D02*
X859Y1160D01*
X981Y1160D02*
X988Y1160D01*
X1146Y1160D02*
X1152Y1160D01*
X1197Y1160D02*
X1204Y1160D01*
X289Y1159D02*
X296Y1159D01*
X827Y1159D02*
X833Y1159D01*
X853Y1159D02*
X859Y1159D01*
X981Y1159D02*
X988Y1159D01*
X1146Y1159D02*
X1152Y1159D01*
X1197Y1159D02*
X1204Y1159D01*
X289Y1158D02*
X296Y1158D01*
X827Y1158D02*
X833Y1158D01*
X853Y1158D02*
X859Y1158D01*
X981Y1158D02*
X988Y1158D01*
X1146Y1158D02*
X1152Y1158D01*
X1197Y1158D02*
X1204Y1158D01*
X289Y1157D02*
X296Y1157D01*
X827Y1157D02*
X833Y1157D01*
X853Y1157D02*
X859Y1157D01*
X981Y1157D02*
X988Y1157D01*
X1146Y1157D02*
X1152Y1157D01*
X1197Y1157D02*
X1203Y1157D01*
X289Y1156D02*
X296Y1156D01*
X827Y1156D02*
X833Y1156D01*
X853Y1156D02*
X859Y1156D01*
X981Y1156D02*
X988Y1156D01*
X1146Y1156D02*
X1152Y1156D01*
X1197Y1156D02*
X1203Y1156D01*
X289Y1155D02*
X296Y1155D01*
X827Y1155D02*
X834Y1155D01*
X852Y1155D02*
X859Y1155D01*
X981Y1155D02*
X988Y1155D01*
X1147Y1155D02*
X1151Y1155D01*
X1198Y1155D02*
X1202Y1155D01*
X289Y1154D02*
X296Y1154D01*
X828Y1154D02*
X859Y1154D01*
X981Y1154D02*
X988Y1154D01*
X1149Y1154D02*
X1149Y1154D01*
X1200Y1154D02*
X1200Y1154D01*
X289Y1153D02*
X296Y1153D01*
X828Y1153D02*
X858Y1153D01*
X981Y1153D02*
X988Y1153D01*
X289Y1152D02*
X296Y1152D01*
X829Y1152D02*
X858Y1152D01*
X981Y1152D02*
X988Y1152D01*
X289Y1151D02*
X296Y1151D01*
X829Y1151D02*
X857Y1151D01*
X981Y1151D02*
X988Y1151D01*
X289Y1150D02*
X296Y1150D01*
X830Y1150D02*
X856Y1150D01*
X981Y1150D02*
X988Y1150D01*
X289Y1149D02*
X296Y1149D01*
X832Y1149D02*
X855Y1149D01*
X981Y1149D02*
X988Y1149D01*
X289Y1148D02*
X296Y1148D01*
X833Y1148D02*
X853Y1148D01*
X981Y1148D02*
X988Y1148D01*
X289Y1147D02*
X296Y1147D01*
X981Y1147D02*
X988Y1147D01*
X289Y1146D02*
X296Y1146D01*
X981Y1146D02*
X988Y1146D01*
X289Y1145D02*
X296Y1145D01*
X981Y1145D02*
X988Y1145D01*
X289Y1144D02*
X296Y1144D01*
X981Y1144D02*
X988Y1144D01*
X289Y1143D02*
X296Y1143D01*
X981Y1143D02*
X988Y1143D01*
X289Y1142D02*
X296Y1142D01*
X981Y1142D02*
X988Y1142D01*
X289Y1141D02*
X296Y1141D01*
X981Y1141D02*
X988Y1141D01*
X289Y1140D02*
X296Y1140D01*
X981Y1140D02*
X988Y1140D01*
X289Y1139D02*
X296Y1139D01*
X981Y1139D02*
X988Y1139D01*
X289Y1138D02*
X296Y1138D01*
X981Y1138D02*
X988Y1138D01*
X289Y1137D02*
X296Y1137D01*
X981Y1137D02*
X988Y1137D01*
X289Y1136D02*
X296Y1136D01*
X981Y1136D02*
X988Y1136D01*
X1155Y1136D02*
X1178Y1136D01*
X289Y1135D02*
X296Y1135D01*
X981Y1135D02*
X988Y1135D01*
X1153Y1135D02*
X1180Y1135D01*
X289Y1134D02*
X296Y1134D01*
X981Y1134D02*
X988Y1134D01*
X1152Y1134D02*
X1181Y1134D01*
X289Y1133D02*
X296Y1133D01*
X981Y1133D02*
X988Y1133D01*
X1151Y1133D02*
X1182Y1133D01*
X289Y1132D02*
X296Y1132D01*
X981Y1132D02*
X988Y1132D01*
X1150Y1132D02*
X1183Y1132D01*
X289Y1131D02*
X296Y1131D01*
X808Y1131D02*
X843Y1131D01*
X981Y1131D02*
X988Y1131D01*
X1149Y1131D02*
X1184Y1131D01*
X289Y1130D02*
X296Y1130D01*
X807Y1130D02*
X844Y1130D01*
X981Y1130D02*
X988Y1130D01*
X1148Y1130D02*
X1185Y1130D01*
X289Y1129D02*
X296Y1129D01*
X806Y1129D02*
X845Y1129D01*
X981Y1129D02*
X988Y1129D01*
X1147Y1129D02*
X1157Y1129D01*
X1176Y1129D02*
X1186Y1129D01*
X289Y1128D02*
X296Y1128D01*
X806Y1128D02*
X845Y1128D01*
X981Y1128D02*
X988Y1128D01*
X1147Y1128D02*
X1155Y1128D01*
X1178Y1128D02*
X1186Y1128D01*
X289Y1127D02*
X296Y1127D01*
X806Y1127D02*
X845Y1127D01*
X981Y1127D02*
X988Y1127D01*
X1146Y1127D02*
X1154Y1127D01*
X1179Y1127D02*
X1187Y1127D01*
X289Y1126D02*
X296Y1126D01*
X807Y1126D02*
X844Y1126D01*
X981Y1126D02*
X988Y1126D01*
X1146Y1126D02*
X1154Y1126D01*
X1179Y1126D02*
X1187Y1126D01*
X289Y1125D02*
X296Y1125D01*
X808Y1125D02*
X843Y1125D01*
X981Y1125D02*
X988Y1125D01*
X1146Y1125D02*
X1153Y1125D01*
X1180Y1125D02*
X1187Y1125D01*
X289Y1124D02*
X296Y1124D01*
X829Y1124D02*
X838Y1124D01*
X981Y1124D02*
X988Y1124D01*
X1146Y1124D02*
X1152Y1124D01*
X1181Y1124D02*
X1187Y1124D01*
X289Y1123D02*
X296Y1123D01*
X830Y1123D02*
X838Y1123D01*
X981Y1123D02*
X988Y1123D01*
X1146Y1123D02*
X1152Y1123D01*
X1181Y1123D02*
X1187Y1123D01*
X289Y1122D02*
X296Y1122D01*
X831Y1122D02*
X839Y1122D01*
X981Y1122D02*
X988Y1122D01*
X1146Y1122D02*
X1152Y1122D01*
X1181Y1122D02*
X1188Y1122D01*
X289Y1121D02*
X296Y1121D01*
X832Y1121D02*
X840Y1121D01*
X981Y1121D02*
X988Y1121D01*
X1146Y1121D02*
X1152Y1121D01*
X1181Y1121D02*
X1188Y1121D01*
X289Y1120D02*
X296Y1120D01*
X833Y1120D02*
X841Y1120D01*
X981Y1120D02*
X988Y1120D01*
X1146Y1120D02*
X1152Y1120D01*
X1181Y1120D02*
X1188Y1120D01*
X289Y1119D02*
X296Y1119D01*
X834Y1119D02*
X842Y1119D01*
X981Y1119D02*
X988Y1119D01*
X1146Y1119D02*
X1152Y1119D01*
X1181Y1119D02*
X1188Y1119D01*
X289Y1118D02*
X296Y1118D01*
X834Y1118D02*
X843Y1118D01*
X981Y1118D02*
X988Y1118D01*
X1146Y1118D02*
X1152Y1118D01*
X1181Y1118D02*
X1188Y1118D01*
X289Y1117D02*
X296Y1117D01*
X835Y1117D02*
X844Y1117D01*
X981Y1117D02*
X988Y1117D01*
X1146Y1117D02*
X1152Y1117D01*
X1181Y1117D02*
X1188Y1117D01*
X289Y1116D02*
X296Y1116D01*
X836Y1116D02*
X844Y1116D01*
X981Y1116D02*
X988Y1116D01*
X1146Y1116D02*
X1152Y1116D01*
X1181Y1116D02*
X1188Y1116D01*
X289Y1115D02*
X296Y1115D01*
X837Y1115D02*
X845Y1115D01*
X981Y1115D02*
X988Y1115D01*
X1146Y1115D02*
X1152Y1115D01*
X1181Y1115D02*
X1188Y1115D01*
X289Y1114D02*
X296Y1114D01*
X838Y1114D02*
X845Y1114D01*
X981Y1114D02*
X988Y1114D01*
X1146Y1114D02*
X1152Y1114D01*
X1181Y1114D02*
X1188Y1114D01*
X289Y1113D02*
X296Y1113D01*
X839Y1113D02*
X845Y1113D01*
X981Y1113D02*
X988Y1113D01*
X1146Y1113D02*
X1152Y1113D01*
X1181Y1113D02*
X1187Y1113D01*
X289Y1112D02*
X296Y1112D01*
X839Y1112D02*
X845Y1112D01*
X981Y1112D02*
X988Y1112D01*
X1146Y1112D02*
X1152Y1112D01*
X1181Y1112D02*
X1187Y1112D01*
X289Y1111D02*
X296Y1111D01*
X839Y1111D02*
X845Y1111D01*
X981Y1111D02*
X988Y1111D01*
X1146Y1111D02*
X1153Y1111D01*
X1180Y1111D02*
X1187Y1111D01*
X289Y1110D02*
X296Y1110D01*
X839Y1110D02*
X845Y1110D01*
X981Y1110D02*
X988Y1110D01*
X1146Y1110D02*
X1154Y1110D01*
X1179Y1110D02*
X1187Y1110D01*
X289Y1109D02*
X296Y1109D01*
X839Y1109D02*
X845Y1109D01*
X981Y1109D02*
X988Y1109D01*
X1146Y1109D02*
X1155Y1109D01*
X1179Y1109D02*
X1187Y1109D01*
X289Y1108D02*
X296Y1108D01*
X839Y1108D02*
X845Y1108D01*
X981Y1108D02*
X988Y1108D01*
X1147Y1108D02*
X1156Y1108D01*
X1177Y1108D02*
X1186Y1108D01*
X289Y1107D02*
X296Y1107D01*
X839Y1107D02*
X845Y1107D01*
X981Y1107D02*
X988Y1107D01*
X1148Y1107D02*
X1158Y1107D01*
X1176Y1107D02*
X1185Y1107D01*
X289Y1106D02*
X296Y1106D01*
X838Y1106D02*
X845Y1106D01*
X981Y1106D02*
X988Y1106D01*
X1148Y1106D02*
X1185Y1106D01*
X289Y1105D02*
X296Y1105D01*
X838Y1105D02*
X844Y1105D01*
X981Y1105D02*
X988Y1105D01*
X1149Y1105D02*
X1184Y1105D01*
X289Y1104D02*
X296Y1104D01*
X835Y1104D02*
X844Y1104D01*
X981Y1104D02*
X988Y1104D01*
X1150Y1104D02*
X1183Y1104D01*
X289Y1103D02*
X296Y1103D01*
X831Y1103D02*
X844Y1103D01*
X981Y1103D02*
X988Y1103D01*
X1151Y1103D02*
X1182Y1103D01*
X289Y1102D02*
X296Y1102D01*
X830Y1102D02*
X843Y1102D01*
X981Y1102D02*
X988Y1102D01*
X1152Y1102D02*
X1181Y1102D01*
X289Y1101D02*
X296Y1101D01*
X830Y1101D02*
X842Y1101D01*
X981Y1101D02*
X988Y1101D01*
X1153Y1101D02*
X1180Y1101D01*
X289Y1100D02*
X296Y1100D01*
X830Y1100D02*
X842Y1100D01*
X981Y1100D02*
X988Y1100D01*
X1155Y1100D02*
X1178Y1100D01*
X289Y1099D02*
X296Y1099D01*
X830Y1099D02*
X840Y1099D01*
X981Y1099D02*
X988Y1099D01*
X289Y1098D02*
X296Y1098D01*
X831Y1098D02*
X839Y1098D01*
X981Y1098D02*
X988Y1098D01*
X289Y1097D02*
X296Y1097D01*
X833Y1097D02*
X835Y1097D01*
X981Y1097D02*
X988Y1097D01*
X289Y1096D02*
X296Y1096D01*
X981Y1096D02*
X988Y1096D01*
X289Y1095D02*
X296Y1095D01*
X981Y1095D02*
X988Y1095D01*
X289Y1094D02*
X296Y1094D01*
X981Y1094D02*
X988Y1094D01*
X289Y1093D02*
X296Y1093D01*
X981Y1093D02*
X988Y1093D01*
X289Y1092D02*
X296Y1092D01*
X981Y1092D02*
X988Y1092D01*
X289Y1091D02*
X296Y1091D01*
X981Y1091D02*
X988Y1091D01*
X289Y1090D02*
X296Y1090D01*
X981Y1090D02*
X988Y1090D01*
X289Y1089D02*
X296Y1089D01*
X981Y1089D02*
X988Y1089D01*
X289Y1088D02*
X296Y1088D01*
X981Y1088D02*
X988Y1088D01*
X289Y1087D02*
X296Y1087D01*
X981Y1087D02*
X988Y1087D01*
X289Y1086D02*
X296Y1086D01*
X981Y1086D02*
X988Y1086D01*
X289Y1085D02*
X296Y1085D01*
X981Y1085D02*
X988Y1085D01*
X289Y1084D02*
X296Y1084D01*
X981Y1084D02*
X988Y1084D01*
X289Y1083D02*
X296Y1083D01*
X981Y1083D02*
X988Y1083D01*
X289Y1082D02*
X296Y1082D01*
X981Y1082D02*
X988Y1082D01*
X1148Y1082D02*
X1185Y1082D01*
X289Y1081D02*
X296Y1081D01*
X816Y1081D02*
X835Y1081D01*
X981Y1081D02*
X988Y1081D01*
X1147Y1081D02*
X1186Y1081D01*
X289Y1080D02*
X296Y1080D01*
X814Y1080D02*
X837Y1080D01*
X981Y1080D02*
X988Y1080D01*
X1146Y1080D02*
X1187Y1080D01*
X289Y1079D02*
X296Y1079D01*
X812Y1079D02*
X839Y1079D01*
X981Y1079D02*
X988Y1079D01*
X1146Y1079D02*
X1187Y1079D01*
X289Y1078D02*
X296Y1078D01*
X811Y1078D02*
X840Y1078D01*
X981Y1078D02*
X988Y1078D01*
X1146Y1078D02*
X1187Y1078D01*
X289Y1077D02*
X296Y1077D01*
X810Y1077D02*
X841Y1077D01*
X981Y1077D02*
X988Y1077D01*
X1146Y1077D02*
X1187Y1077D01*
X289Y1076D02*
X296Y1076D01*
X809Y1076D02*
X841Y1076D01*
X981Y1076D02*
X988Y1076D01*
X1146Y1076D02*
X1187Y1076D01*
X289Y1075D02*
X296Y1075D01*
X809Y1075D02*
X842Y1075D01*
X981Y1075D02*
X988Y1075D01*
X1148Y1075D02*
X1185Y1075D01*
X289Y1074D02*
X296Y1074D01*
X808Y1074D02*
X817Y1074D01*
X834Y1074D02*
X843Y1074D01*
X981Y1074D02*
X988Y1074D01*
X1173Y1074D02*
X1181Y1074D01*
X289Y1073D02*
X296Y1073D01*
X807Y1073D02*
X815Y1073D01*
X836Y1073D02*
X844Y1073D01*
X981Y1073D02*
X988Y1073D01*
X1174Y1073D02*
X1182Y1073D01*
X289Y1072D02*
X296Y1072D01*
X807Y1072D02*
X814Y1072D01*
X837Y1072D02*
X844Y1072D01*
X981Y1072D02*
X988Y1072D01*
X1175Y1072D02*
X1183Y1072D01*
X289Y1071D02*
X296Y1071D01*
X807Y1071D02*
X813Y1071D01*
X838Y1071D02*
X844Y1071D01*
X981Y1071D02*
X988Y1071D01*
X1175Y1071D02*
X1183Y1071D01*
X289Y1070D02*
X296Y1070D01*
X806Y1070D02*
X813Y1070D01*
X838Y1070D02*
X845Y1070D01*
X981Y1070D02*
X988Y1070D01*
X1176Y1070D02*
X1184Y1070D01*
X289Y1069D02*
X296Y1069D01*
X806Y1069D02*
X812Y1069D01*
X839Y1069D02*
X845Y1069D01*
X981Y1069D02*
X988Y1069D01*
X1176Y1069D02*
X1185Y1069D01*
X289Y1068D02*
X296Y1068D01*
X806Y1068D02*
X812Y1068D01*
X839Y1068D02*
X845Y1068D01*
X981Y1068D02*
X988Y1068D01*
X1177Y1068D02*
X1185Y1068D01*
X289Y1067D02*
X296Y1067D01*
X806Y1067D02*
X812Y1067D01*
X839Y1067D02*
X845Y1067D01*
X981Y1067D02*
X988Y1067D01*
X1178Y1067D02*
X1186Y1067D01*
X289Y1066D02*
X296Y1066D01*
X806Y1066D02*
X812Y1066D01*
X839Y1066D02*
X845Y1066D01*
X981Y1066D02*
X988Y1066D01*
X1178Y1066D02*
X1186Y1066D01*
X289Y1065D02*
X296Y1065D01*
X806Y1065D02*
X812Y1065D01*
X839Y1065D02*
X845Y1065D01*
X981Y1065D02*
X988Y1065D01*
X1179Y1065D02*
X1187Y1065D01*
X289Y1064D02*
X296Y1064D01*
X806Y1064D02*
X812Y1064D01*
X839Y1064D02*
X845Y1064D01*
X981Y1064D02*
X988Y1064D01*
X1180Y1064D02*
X1187Y1064D01*
X289Y1063D02*
X296Y1063D01*
X806Y1063D02*
X812Y1063D01*
X839Y1063D02*
X845Y1063D01*
X981Y1063D02*
X988Y1063D01*
X1180Y1063D02*
X1187Y1063D01*
X289Y1062D02*
X296Y1062D01*
X806Y1062D02*
X812Y1062D01*
X839Y1062D02*
X845Y1062D01*
X981Y1062D02*
X988Y1062D01*
X1181Y1062D02*
X1187Y1062D01*
X289Y1061D02*
X296Y1061D01*
X806Y1061D02*
X812Y1061D01*
X839Y1061D02*
X845Y1061D01*
X981Y1061D02*
X988Y1061D01*
X1181Y1061D02*
X1188Y1061D01*
X289Y1060D02*
X296Y1060D01*
X806Y1060D02*
X812Y1060D01*
X839Y1060D02*
X845Y1060D01*
X981Y1060D02*
X988Y1060D01*
X1181Y1060D02*
X1188Y1060D01*
X289Y1059D02*
X296Y1059D01*
X806Y1059D02*
X812Y1059D01*
X839Y1059D02*
X845Y1059D01*
X981Y1059D02*
X988Y1059D01*
X1181Y1059D02*
X1188Y1059D01*
X289Y1058D02*
X296Y1058D01*
X806Y1058D02*
X813Y1058D01*
X838Y1058D02*
X845Y1058D01*
X981Y1058D02*
X988Y1058D01*
X1181Y1058D02*
X1188Y1058D01*
X289Y1057D02*
X296Y1057D01*
X807Y1057D02*
X814Y1057D01*
X838Y1057D02*
X844Y1057D01*
X981Y1057D02*
X988Y1057D01*
X1181Y1057D02*
X1187Y1057D01*
X289Y1056D02*
X296Y1056D01*
X807Y1056D02*
X814Y1056D01*
X837Y1056D02*
X844Y1056D01*
X981Y1056D02*
X988Y1056D01*
X1181Y1056D02*
X1187Y1056D01*
X289Y1055D02*
X296Y1055D01*
X807Y1055D02*
X815Y1055D01*
X836Y1055D02*
X844Y1055D01*
X981Y1055D02*
X988Y1055D01*
X1180Y1055D02*
X1187Y1055D01*
X289Y1054D02*
X296Y1054D01*
X808Y1054D02*
X817Y1054D01*
X834Y1054D02*
X843Y1054D01*
X981Y1054D02*
X988Y1054D01*
X1179Y1054D02*
X1187Y1054D01*
X289Y1053D02*
X296Y1053D01*
X809Y1053D02*
X842Y1053D01*
X981Y1053D02*
X988Y1053D01*
X1173Y1053D02*
X1187Y1053D01*
X289Y1052D02*
X296Y1052D01*
X810Y1052D02*
X841Y1052D01*
X981Y1052D02*
X988Y1052D01*
X1148Y1052D02*
X1186Y1052D01*
X289Y1051D02*
X296Y1051D01*
X811Y1051D02*
X841Y1051D01*
X981Y1051D02*
X988Y1051D01*
X1147Y1051D02*
X1186Y1051D01*
X289Y1050D02*
X296Y1050D01*
X811Y1050D02*
X840Y1050D01*
X981Y1050D02*
X988Y1050D01*
X1146Y1050D02*
X1185Y1050D01*
X289Y1049D02*
X296Y1049D01*
X813Y1049D02*
X839Y1049D01*
X981Y1049D02*
X988Y1049D01*
X1146Y1049D02*
X1184Y1049D01*
X289Y1048D02*
X296Y1048D01*
X814Y1048D02*
X837Y1048D01*
X981Y1048D02*
X988Y1048D01*
X1146Y1048D02*
X1183Y1048D01*
X289Y1047D02*
X296Y1047D01*
X816Y1047D02*
X834Y1047D01*
X981Y1047D02*
X988Y1047D01*
X1146Y1047D02*
X1182Y1047D01*
X289Y1046D02*
X296Y1046D01*
X981Y1046D02*
X988Y1046D01*
X1146Y1046D02*
X1179Y1046D01*
X289Y1045D02*
X296Y1045D01*
X981Y1045D02*
X988Y1045D01*
X1148Y1045D02*
X1161Y1045D01*
X289Y1044D02*
X296Y1044D01*
X981Y1044D02*
X988Y1044D01*
X289Y1043D02*
X296Y1043D01*
X981Y1043D02*
X988Y1043D01*
X289Y1042D02*
X296Y1042D01*
X981Y1042D02*
X988Y1042D01*
X289Y1041D02*
X296Y1041D01*
X981Y1041D02*
X988Y1041D01*
X289Y1040D02*
X296Y1040D01*
X981Y1040D02*
X988Y1040D01*
X289Y1039D02*
X296Y1039D01*
X981Y1039D02*
X988Y1039D01*
X289Y1038D02*
X296Y1038D01*
X981Y1038D02*
X988Y1038D01*
X289Y1037D02*
X296Y1037D01*
X981Y1037D02*
X988Y1037D01*
X289Y1036D02*
X296Y1036D01*
X981Y1036D02*
X988Y1036D01*
X289Y1035D02*
X296Y1035D01*
X981Y1035D02*
X988Y1035D01*
X289Y1034D02*
X296Y1034D01*
X981Y1034D02*
X988Y1034D01*
X289Y1033D02*
X296Y1033D01*
X981Y1033D02*
X988Y1033D01*
X289Y1032D02*
X296Y1032D01*
X981Y1032D02*
X988Y1032D01*
X289Y1031D02*
X296Y1031D01*
X981Y1031D02*
X988Y1031D01*
X289Y1030D02*
X296Y1030D01*
X981Y1030D02*
X988Y1030D01*
X289Y1029D02*
X296Y1029D01*
X981Y1029D02*
X988Y1029D01*
X289Y1028D02*
X296Y1028D01*
X981Y1028D02*
X988Y1028D01*
X289Y1027D02*
X296Y1027D01*
X981Y1027D02*
X988Y1027D01*
X1148Y1027D02*
X1185Y1027D01*
X289Y1026D02*
X296Y1026D01*
X981Y1026D02*
X988Y1026D01*
X1146Y1026D02*
X1187Y1026D01*
X289Y1025D02*
X296Y1025D01*
X981Y1025D02*
X988Y1025D01*
X1146Y1025D02*
X1187Y1025D01*
X289Y1024D02*
X296Y1024D01*
X981Y1024D02*
X988Y1024D01*
X1146Y1024D02*
X1187Y1024D01*
X289Y1023D02*
X296Y1023D01*
X981Y1023D02*
X988Y1023D01*
X1146Y1023D02*
X1187Y1023D01*
X289Y1022D02*
X296Y1022D01*
X981Y1022D02*
X988Y1022D01*
X1146Y1022D02*
X1187Y1022D01*
X289Y1021D02*
X296Y1021D01*
X981Y1021D02*
X988Y1021D01*
X1147Y1021D02*
X1186Y1021D01*
X289Y1020D02*
X296Y1020D01*
X981Y1020D02*
X988Y1020D01*
X1149Y1020D02*
X1184Y1020D01*
X289Y1019D02*
X296Y1019D01*
X981Y1019D02*
X988Y1019D01*
X1173Y1019D02*
X1182Y1019D01*
X289Y1018D02*
X296Y1018D01*
X981Y1018D02*
X988Y1018D01*
X1174Y1018D02*
X1182Y1018D01*
X289Y1017D02*
X296Y1017D01*
X981Y1017D02*
X988Y1017D01*
X1175Y1017D02*
X1183Y1017D01*
X289Y1016D02*
X296Y1016D01*
X981Y1016D02*
X988Y1016D01*
X1175Y1016D02*
X1184Y1016D01*
X289Y1015D02*
X296Y1015D01*
X981Y1015D02*
X988Y1015D01*
X1176Y1015D02*
X1184Y1015D01*
X289Y1014D02*
X296Y1014D01*
X981Y1014D02*
X988Y1014D01*
X1177Y1014D02*
X1185Y1014D01*
X289Y1013D02*
X296Y1013D01*
X981Y1013D02*
X988Y1013D01*
X1177Y1013D02*
X1185Y1013D01*
X289Y1012D02*
X296Y1012D01*
X981Y1012D02*
X988Y1012D01*
X1178Y1012D02*
X1186Y1012D01*
X289Y1011D02*
X296Y1011D01*
X981Y1011D02*
X988Y1011D01*
X1179Y1011D02*
X1186Y1011D01*
X289Y1010D02*
X296Y1010D01*
X981Y1010D02*
X988Y1010D01*
X1179Y1010D02*
X1187Y1010D01*
X289Y1009D02*
X296Y1009D01*
X981Y1009D02*
X988Y1009D01*
X1180Y1009D02*
X1187Y1009D01*
X289Y1008D02*
X296Y1008D01*
X981Y1008D02*
X988Y1008D01*
X1181Y1008D02*
X1187Y1008D01*
X289Y1007D02*
X296Y1007D01*
X981Y1007D02*
X988Y1007D01*
X1181Y1007D02*
X1187Y1007D01*
X289Y1006D02*
X296Y1006D01*
X981Y1006D02*
X988Y1006D01*
X1181Y1006D02*
X1188Y1006D01*
X289Y1005D02*
X296Y1005D01*
X981Y1005D02*
X988Y1005D01*
X1181Y1005D02*
X1188Y1005D01*
X289Y1004D02*
X296Y1004D01*
X981Y1004D02*
X988Y1004D01*
X1181Y1004D02*
X1188Y1004D01*
X289Y1003D02*
X296Y1003D01*
X981Y1003D02*
X988Y1003D01*
X1181Y1003D02*
X1188Y1003D01*
X289Y1002D02*
X296Y1002D01*
X981Y1002D02*
X988Y1002D01*
X1181Y1002D02*
X1187Y1002D01*
X289Y1001D02*
X296Y1001D01*
X981Y1001D02*
X988Y1001D01*
X1181Y1001D02*
X1187Y1001D01*
X289Y1000D02*
X296Y1000D01*
X981Y1000D02*
X988Y1000D01*
X1180Y1000D02*
X1187Y1000D01*
X289Y999D02*
X296Y999D01*
X981Y999D02*
X988Y999D01*
X1179Y999D02*
X1187Y999D01*
X289Y998D02*
X296Y998D01*
X981Y998D02*
X988Y998D01*
X1165Y998D02*
X1187Y998D01*
X289Y997D02*
X296Y997D01*
X981Y997D02*
X988Y997D01*
X1148Y997D02*
X1186Y997D01*
X289Y996D02*
X296Y996D01*
X981Y996D02*
X988Y996D01*
X1146Y996D02*
X1186Y996D01*
X289Y995D02*
X296Y995D01*
X981Y995D02*
X988Y995D01*
X1146Y995D02*
X1185Y995D01*
X289Y994D02*
X296Y994D01*
X981Y994D02*
X988Y994D01*
X1146Y994D02*
X1184Y994D01*
X289Y993D02*
X296Y993D01*
X981Y993D02*
X988Y993D01*
X1146Y993D02*
X1183Y993D01*
X289Y992D02*
X296Y992D01*
X981Y992D02*
X988Y992D01*
X1146Y992D02*
X1181Y992D01*
X289Y991D02*
X296Y991D01*
X981Y991D02*
X988Y991D01*
X1147Y991D02*
X1178Y991D01*
X289Y990D02*
X296Y990D01*
X981Y990D02*
X988Y990D01*
X1149Y990D02*
X1152Y990D01*
X289Y989D02*
X296Y989D01*
X981Y989D02*
X988Y989D01*
X289Y988D02*
X296Y988D01*
X981Y988D02*
X988Y988D01*
X289Y987D02*
X296Y987D01*
X981Y987D02*
X988Y987D01*
X289Y986D02*
X296Y986D01*
X981Y986D02*
X988Y986D01*
X289Y985D02*
X296Y985D01*
X981Y985D02*
X988Y985D01*
X289Y984D02*
X296Y984D01*
X981Y984D02*
X988Y984D01*
X289Y983D02*
X296Y983D01*
X981Y983D02*
X988Y983D01*
X289Y982D02*
X296Y982D01*
X981Y982D02*
X988Y982D01*
X289Y981D02*
X296Y981D01*
X981Y981D02*
X988Y981D01*
X289Y980D02*
X296Y980D01*
X810Y980D02*
X814Y980D01*
X981Y980D02*
X988Y980D01*
X289Y979D02*
X296Y979D01*
X810Y979D02*
X815Y979D01*
X981Y979D02*
X988Y979D01*
X289Y978D02*
X296Y978D01*
X809Y978D02*
X815Y978D01*
X981Y978D02*
X988Y978D01*
X289Y977D02*
X296Y977D01*
X809Y977D02*
X815Y977D01*
X981Y977D02*
X988Y977D01*
X289Y976D02*
X296Y976D01*
X808Y976D02*
X815Y976D01*
X981Y976D02*
X988Y976D01*
X289Y975D02*
X296Y975D01*
X808Y975D02*
X814Y975D01*
X981Y975D02*
X988Y975D01*
X289Y974D02*
X296Y974D01*
X807Y974D02*
X814Y974D01*
X830Y974D02*
X859Y974D01*
X981Y974D02*
X988Y974D01*
X289Y973D02*
X296Y973D01*
X807Y973D02*
X814Y973D01*
X830Y973D02*
X859Y973D01*
X981Y973D02*
X988Y973D01*
X289Y972D02*
X296Y972D01*
X807Y972D02*
X813Y972D01*
X830Y972D02*
X859Y972D01*
X981Y972D02*
X988Y972D01*
X1155Y972D02*
X1178Y972D01*
X289Y971D02*
X296Y971D01*
X807Y971D02*
X813Y971D01*
X830Y971D02*
X859Y971D01*
X981Y971D02*
X988Y971D01*
X1153Y971D02*
X1180Y971D01*
X289Y970D02*
X296Y970D01*
X806Y970D02*
X812Y970D01*
X830Y970D02*
X859Y970D01*
X981Y970D02*
X988Y970D01*
X1152Y970D02*
X1181Y970D01*
X289Y969D02*
X296Y969D01*
X806Y969D02*
X812Y969D01*
X830Y969D02*
X859Y969D01*
X981Y969D02*
X988Y969D01*
X1151Y969D02*
X1182Y969D01*
X289Y968D02*
X296Y968D01*
X806Y968D02*
X812Y968D01*
X830Y968D02*
X859Y968D01*
X981Y968D02*
X988Y968D01*
X1150Y968D02*
X1183Y968D01*
X289Y967D02*
X296Y967D01*
X806Y967D02*
X812Y967D01*
X830Y967D02*
X836Y967D01*
X853Y967D02*
X859Y967D01*
X981Y967D02*
X988Y967D01*
X1149Y967D02*
X1184Y967D01*
X289Y966D02*
X296Y966D01*
X806Y966D02*
X812Y966D01*
X830Y966D02*
X836Y966D01*
X853Y966D02*
X859Y966D01*
X981Y966D02*
X988Y966D01*
X1148Y966D02*
X1185Y966D01*
X289Y965D02*
X296Y965D01*
X806Y965D02*
X812Y965D01*
X830Y965D02*
X836Y965D01*
X853Y965D02*
X859Y965D01*
X981Y965D02*
X988Y965D01*
X1147Y965D02*
X1157Y965D01*
X1161Y965D02*
X1168Y965D01*
X1175Y965D02*
X1186Y965D01*
X289Y964D02*
X296Y964D01*
X806Y964D02*
X812Y964D01*
X830Y964D02*
X836Y964D01*
X853Y964D02*
X859Y964D01*
X981Y964D02*
X988Y964D01*
X1147Y964D02*
X1156Y964D01*
X1162Y964D02*
X1168Y964D01*
X1177Y964D02*
X1186Y964D01*
X289Y963D02*
X296Y963D01*
X806Y963D02*
X812Y963D01*
X830Y963D02*
X836Y963D01*
X853Y963D02*
X859Y963D01*
X981Y963D02*
X988Y963D01*
X1146Y963D02*
X1155Y963D01*
X1162Y963D02*
X1168Y963D01*
X1178Y963D02*
X1187Y963D01*
X289Y962D02*
X296Y962D01*
X806Y962D02*
X812Y962D01*
X830Y962D02*
X836Y962D01*
X853Y962D02*
X859Y962D01*
X981Y962D02*
X988Y962D01*
X1146Y962D02*
X1154Y962D01*
X1162Y962D02*
X1168Y962D01*
X1179Y962D02*
X1187Y962D01*
X289Y961D02*
X296Y961D01*
X806Y961D02*
X812Y961D01*
X830Y961D02*
X836Y961D01*
X853Y961D02*
X859Y961D01*
X981Y961D02*
X988Y961D01*
X1146Y961D02*
X1153Y961D01*
X1162Y961D02*
X1168Y961D01*
X1180Y961D02*
X1187Y961D01*
X289Y960D02*
X296Y960D01*
X806Y960D02*
X812Y960D01*
X830Y960D02*
X836Y960D01*
X853Y960D02*
X859Y960D01*
X981Y960D02*
X988Y960D01*
X1146Y960D02*
X1152Y960D01*
X1162Y960D02*
X1168Y960D01*
X1181Y960D02*
X1187Y960D01*
X289Y959D02*
X296Y959D01*
X806Y959D02*
X812Y959D01*
X830Y959D02*
X836Y959D01*
X853Y959D02*
X859Y959D01*
X981Y959D02*
X988Y959D01*
X1146Y959D02*
X1152Y959D01*
X1162Y959D02*
X1168Y959D01*
X1181Y959D02*
X1187Y959D01*
X289Y958D02*
X296Y958D01*
X806Y958D02*
X812Y958D01*
X830Y958D02*
X836Y958D01*
X853Y958D02*
X859Y958D01*
X981Y958D02*
X988Y958D01*
X1146Y958D02*
X1152Y958D01*
X1162Y958D02*
X1168Y958D01*
X1181Y958D02*
X1188Y958D01*
X289Y957D02*
X296Y957D01*
X806Y957D02*
X812Y957D01*
X830Y957D02*
X836Y957D01*
X853Y957D02*
X859Y957D01*
X981Y957D02*
X988Y957D01*
X1146Y957D02*
X1152Y957D01*
X1162Y957D02*
X1168Y957D01*
X1181Y957D02*
X1188Y957D01*
X289Y956D02*
X296Y956D01*
X806Y956D02*
X812Y956D01*
X830Y956D02*
X836Y956D01*
X853Y956D02*
X859Y956D01*
X981Y956D02*
X988Y956D01*
X1146Y956D02*
X1152Y956D01*
X1162Y956D02*
X1168Y956D01*
X1181Y956D02*
X1188Y956D01*
X289Y955D02*
X296Y955D01*
X806Y955D02*
X812Y955D01*
X830Y955D02*
X836Y955D01*
X853Y955D02*
X859Y955D01*
X981Y955D02*
X988Y955D01*
X1146Y955D02*
X1152Y955D01*
X1162Y955D02*
X1168Y955D01*
X1181Y955D02*
X1188Y955D01*
X289Y954D02*
X296Y954D01*
X806Y954D02*
X812Y954D01*
X830Y954D02*
X836Y954D01*
X853Y954D02*
X859Y954D01*
X981Y954D02*
X988Y954D01*
X1146Y954D02*
X1152Y954D01*
X1162Y954D02*
X1168Y954D01*
X1181Y954D02*
X1188Y954D01*
X289Y953D02*
X296Y953D01*
X806Y953D02*
X836Y953D01*
X853Y953D02*
X859Y953D01*
X981Y953D02*
X988Y953D01*
X1146Y953D02*
X1152Y953D01*
X1162Y953D02*
X1168Y953D01*
X1181Y953D02*
X1188Y953D01*
X289Y952D02*
X296Y952D01*
X806Y952D02*
X836Y952D01*
X853Y952D02*
X859Y952D01*
X981Y952D02*
X988Y952D01*
X1146Y952D02*
X1152Y952D01*
X1162Y952D02*
X1168Y952D01*
X1181Y952D02*
X1188Y952D01*
X289Y951D02*
X296Y951D01*
X807Y951D02*
X835Y951D01*
X853Y951D02*
X859Y951D01*
X981Y951D02*
X988Y951D01*
X1146Y951D02*
X1152Y951D01*
X1162Y951D02*
X1168Y951D01*
X1181Y951D02*
X1188Y951D01*
X289Y950D02*
X296Y950D01*
X807Y950D02*
X835Y950D01*
X853Y950D02*
X859Y950D01*
X981Y950D02*
X988Y950D01*
X1146Y950D02*
X1152Y950D01*
X1162Y950D02*
X1168Y950D01*
X1181Y950D02*
X1188Y950D01*
X289Y949D02*
X296Y949D01*
X808Y949D02*
X834Y949D01*
X854Y949D02*
X859Y949D01*
X981Y949D02*
X988Y949D01*
X1146Y949D02*
X1152Y949D01*
X1162Y949D02*
X1168Y949D01*
X1181Y949D02*
X1187Y949D01*
X289Y948D02*
X296Y948D01*
X809Y948D02*
X833Y948D01*
X854Y948D02*
X859Y948D01*
X981Y948D02*
X988Y948D01*
X1146Y948D02*
X1152Y948D01*
X1162Y948D02*
X1168Y948D01*
X1181Y948D02*
X1187Y948D01*
X289Y947D02*
X296Y947D01*
X811Y947D02*
X832Y947D01*
X855Y947D02*
X858Y947D01*
X981Y947D02*
X988Y947D01*
X1146Y947D02*
X1152Y947D01*
X1162Y947D02*
X1168Y947D01*
X1180Y947D02*
X1187Y947D01*
X289Y946D02*
X296Y946D01*
X981Y946D02*
X988Y946D01*
X1146Y946D02*
X1152Y946D01*
X1162Y946D02*
X1168Y946D01*
X1180Y946D02*
X1187Y946D01*
X289Y945D02*
X296Y945D01*
X981Y945D02*
X988Y945D01*
X1146Y945D02*
X1152Y945D01*
X1162Y945D02*
X1168Y945D01*
X1179Y945D02*
X1187Y945D01*
X289Y944D02*
X296Y944D01*
X981Y944D02*
X988Y944D01*
X1146Y944D02*
X1152Y944D01*
X1162Y944D02*
X1168Y944D01*
X1178Y944D02*
X1186Y944D01*
X289Y943D02*
X296Y943D01*
X981Y943D02*
X988Y943D01*
X1146Y943D02*
X1152Y943D01*
X1162Y943D02*
X1168Y943D01*
X1176Y943D02*
X1186Y943D01*
X289Y942D02*
X296Y942D01*
X981Y942D02*
X988Y942D01*
X1146Y942D02*
X1152Y942D01*
X1162Y942D02*
X1185Y942D01*
X289Y941D02*
X296Y941D01*
X981Y941D02*
X988Y941D01*
X1146Y941D02*
X1152Y941D01*
X1162Y941D02*
X1184Y941D01*
X289Y940D02*
X296Y940D01*
X981Y940D02*
X988Y940D01*
X1146Y940D02*
X1152Y940D01*
X1162Y940D02*
X1183Y940D01*
X289Y939D02*
X296Y939D01*
X981Y939D02*
X988Y939D01*
X1146Y939D02*
X1152Y939D01*
X1162Y939D02*
X1182Y939D01*
X289Y938D02*
X296Y938D01*
X981Y938D02*
X988Y938D01*
X1146Y938D02*
X1152Y938D01*
X1162Y938D02*
X1181Y938D01*
X289Y937D02*
X296Y937D01*
X981Y937D02*
X988Y937D01*
X1146Y937D02*
X1152Y937D01*
X1162Y937D02*
X1180Y937D01*
X289Y936D02*
X296Y936D01*
X981Y936D02*
X988Y936D01*
X1147Y936D02*
X1151Y936D01*
X1163Y936D02*
X1178Y936D01*
X289Y935D02*
X296Y935D01*
X981Y935D02*
X988Y935D01*
X289Y934D02*
X296Y934D01*
X981Y934D02*
X988Y934D01*
X289Y933D02*
X296Y933D01*
X981Y933D02*
X988Y933D01*
X289Y932D02*
X296Y932D01*
X981Y932D02*
X988Y932D01*
X289Y931D02*
X296Y931D01*
X981Y931D02*
X988Y931D01*
X289Y930D02*
X296Y930D01*
X842Y930D02*
X858Y930D01*
X981Y930D02*
X988Y930D01*
X289Y929D02*
X296Y929D01*
X840Y929D02*
X859Y929D01*
X981Y929D02*
X988Y929D01*
X289Y928D02*
X296Y928D01*
X837Y928D02*
X859Y928D01*
X981Y928D02*
X988Y928D01*
X289Y927D02*
X296Y927D01*
X835Y927D02*
X859Y927D01*
X981Y927D02*
X988Y927D01*
X289Y926D02*
X296Y926D01*
X832Y926D02*
X859Y926D01*
X981Y926D02*
X988Y926D01*
X289Y925D02*
X296Y925D01*
X830Y925D02*
X859Y925D01*
X981Y925D02*
X988Y925D01*
X289Y924D02*
X296Y924D01*
X827Y924D02*
X857Y924D01*
X981Y924D02*
X988Y924D01*
X289Y923D02*
X296Y923D01*
X824Y923D02*
X843Y923D01*
X981Y923D02*
X988Y923D01*
X289Y922D02*
X296Y922D01*
X822Y922D02*
X840Y922D01*
X981Y922D02*
X988Y922D01*
X289Y921D02*
X296Y921D01*
X819Y921D02*
X838Y921D01*
X981Y921D02*
X988Y921D01*
X289Y920D02*
X296Y920D01*
X817Y920D02*
X835Y920D01*
X981Y920D02*
X988Y920D01*
X289Y919D02*
X296Y919D01*
X814Y919D02*
X833Y919D01*
X981Y919D02*
X988Y919D01*
X289Y918D02*
X296Y918D01*
X812Y918D02*
X830Y918D01*
X981Y918D02*
X988Y918D01*
X1162Y918D02*
X1171Y918D01*
X289Y917D02*
X296Y917D01*
X809Y917D02*
X828Y917D01*
X981Y917D02*
X988Y917D01*
X1158Y917D02*
X1175Y917D01*
X289Y916D02*
X296Y916D01*
X807Y916D02*
X825Y916D01*
X981Y916D02*
X988Y916D01*
X1156Y916D02*
X1177Y916D01*
X289Y915D02*
X296Y915D01*
X807Y915D02*
X822Y915D01*
X981Y915D02*
X988Y915D01*
X1155Y915D02*
X1178Y915D01*
X289Y914D02*
X296Y914D01*
X806Y914D02*
X820Y914D01*
X981Y914D02*
X988Y914D01*
X1154Y914D02*
X1179Y914D01*
X289Y913D02*
X296Y913D01*
X806Y913D02*
X820Y913D01*
X981Y913D02*
X988Y913D01*
X1153Y913D02*
X1180Y913D01*
X289Y912D02*
X296Y912D01*
X807Y912D02*
X822Y912D01*
X981Y912D02*
X988Y912D01*
X1152Y912D02*
X1181Y912D01*
X289Y911D02*
X296Y911D01*
X807Y911D02*
X825Y911D01*
X981Y911D02*
X988Y911D01*
X1151Y911D02*
X1182Y911D01*
X289Y910D02*
X296Y910D01*
X809Y910D02*
X827Y910D01*
X981Y910D02*
X988Y910D01*
X1150Y910D02*
X1160Y910D01*
X1173Y910D02*
X1183Y910D01*
X289Y909D02*
X296Y909D01*
X812Y909D02*
X830Y909D01*
X981Y909D02*
X988Y909D01*
X1149Y909D02*
X1159Y909D01*
X1174Y909D02*
X1184Y909D01*
X289Y908D02*
X296Y908D01*
X814Y908D02*
X833Y908D01*
X981Y908D02*
X988Y908D01*
X1149Y908D02*
X1158Y908D01*
X1175Y908D02*
X1185Y908D01*
X289Y907D02*
X296Y907D01*
X817Y907D02*
X835Y907D01*
X981Y907D02*
X988Y907D01*
X1148Y907D02*
X1157Y907D01*
X1176Y907D02*
X1185Y907D01*
X289Y906D02*
X296Y906D01*
X819Y906D02*
X838Y906D01*
X981Y906D02*
X988Y906D01*
X1147Y906D02*
X1156Y906D01*
X1177Y906D02*
X1186Y906D01*
X289Y905D02*
X296Y905D01*
X822Y905D02*
X840Y905D01*
X981Y905D02*
X988Y905D01*
X1147Y905D02*
X1155Y905D01*
X1178Y905D02*
X1186Y905D01*
X289Y904D02*
X296Y904D01*
X824Y904D02*
X843Y904D01*
X981Y904D02*
X988Y904D01*
X1146Y904D02*
X1154Y904D01*
X1179Y904D02*
X1187Y904D01*
X289Y903D02*
X296Y903D01*
X827Y903D02*
X857Y903D01*
X981Y903D02*
X988Y903D01*
X1146Y903D02*
X1153Y903D01*
X1180Y903D02*
X1187Y903D01*
X289Y902D02*
X296Y902D01*
X830Y902D02*
X859Y902D01*
X981Y902D02*
X988Y902D01*
X1146Y902D02*
X1153Y902D01*
X1180Y902D02*
X1187Y902D01*
X289Y901D02*
X296Y901D01*
X832Y901D02*
X859Y901D01*
X981Y901D02*
X988Y901D01*
X1146Y901D02*
X1152Y901D01*
X1181Y901D02*
X1187Y901D01*
X289Y900D02*
X296Y900D01*
X835Y900D02*
X859Y900D01*
X981Y900D02*
X988Y900D01*
X1146Y900D02*
X1152Y900D01*
X1181Y900D02*
X1187Y900D01*
X289Y899D02*
X296Y899D01*
X837Y899D02*
X859Y899D01*
X981Y899D02*
X988Y899D01*
X1146Y899D02*
X1152Y899D01*
X1181Y899D02*
X1188Y899D01*
X289Y898D02*
X296Y898D01*
X840Y898D02*
X859Y898D01*
X981Y898D02*
X988Y898D01*
X1146Y898D02*
X1152Y898D01*
X1181Y898D02*
X1188Y898D01*
X289Y897D02*
X296Y897D01*
X842Y897D02*
X858Y897D01*
X981Y897D02*
X988Y897D01*
X1146Y897D02*
X1152Y897D01*
X1181Y897D02*
X1188Y897D01*
X289Y896D02*
X296Y896D01*
X981Y896D02*
X988Y896D01*
X1146Y896D02*
X1152Y896D01*
X1181Y896D02*
X1188Y896D01*
X289Y895D02*
X296Y895D01*
X981Y895D02*
X988Y895D01*
X1146Y895D02*
X1152Y895D01*
X1181Y895D02*
X1188Y895D01*
X289Y894D02*
X296Y894D01*
X981Y894D02*
X988Y894D01*
X1146Y894D02*
X1152Y894D01*
X1181Y894D02*
X1188Y894D01*
X289Y893D02*
X296Y893D01*
X981Y893D02*
X988Y893D01*
X1146Y893D02*
X1152Y893D01*
X1181Y893D02*
X1188Y893D01*
X289Y892D02*
X296Y892D01*
X981Y892D02*
X988Y892D01*
X1146Y892D02*
X1152Y892D01*
X1181Y892D02*
X1188Y892D01*
X289Y891D02*
X296Y891D01*
X981Y891D02*
X988Y891D01*
X1146Y891D02*
X1152Y891D01*
X1181Y891D02*
X1188Y891D01*
X289Y890D02*
X296Y890D01*
X981Y890D02*
X988Y890D01*
X1146Y890D02*
X1152Y890D01*
X1181Y890D02*
X1188Y890D01*
X289Y889D02*
X296Y889D01*
X981Y889D02*
X988Y889D01*
X1146Y889D02*
X1152Y889D01*
X1181Y889D02*
X1188Y889D01*
X289Y888D02*
X296Y888D01*
X981Y888D02*
X988Y888D01*
X1146Y888D02*
X1152Y888D01*
X1181Y888D02*
X1188Y888D01*
X289Y887D02*
X296Y887D01*
X981Y887D02*
X988Y887D01*
X1146Y887D02*
X1152Y887D01*
X1181Y887D02*
X1188Y887D01*
X289Y886D02*
X296Y886D01*
X981Y886D02*
X988Y886D01*
X1146Y886D02*
X1152Y886D01*
X1181Y886D02*
X1188Y886D01*
X289Y885D02*
X296Y885D01*
X981Y885D02*
X988Y885D01*
X1146Y885D02*
X1152Y885D01*
X1181Y885D02*
X1188Y885D01*
X289Y884D02*
X296Y884D01*
X981Y884D02*
X988Y884D01*
X1146Y884D02*
X1152Y884D01*
X1181Y884D02*
X1187Y884D01*
X289Y883D02*
X296Y883D01*
X981Y883D02*
X988Y883D01*
X1146Y883D02*
X1152Y883D01*
X1181Y883D02*
X1187Y883D01*
X289Y882D02*
X296Y882D01*
X981Y882D02*
X988Y882D01*
X1146Y882D02*
X1151Y882D01*
X1182Y882D02*
X1187Y882D01*
X289Y881D02*
X296Y881D01*
X981Y881D02*
X988Y881D01*
X1147Y881D02*
X1150Y881D01*
X1183Y881D02*
X1186Y881D01*
X289Y880D02*
X296Y880D01*
X981Y880D02*
X988Y880D01*
X289Y879D02*
X296Y879D01*
X981Y879D02*
X988Y879D01*
X289Y878D02*
X296Y878D01*
X981Y878D02*
X988Y878D01*
X289Y877D02*
X296Y877D01*
X981Y877D02*
X988Y877D01*
X289Y876D02*
X296Y876D01*
X981Y876D02*
X988Y876D01*
X289Y875D02*
X296Y875D01*
X981Y875D02*
X988Y875D01*
X289Y874D02*
X296Y874D01*
X981Y874D02*
X988Y874D01*
X289Y873D02*
X296Y873D01*
X981Y873D02*
X988Y873D01*
X289Y872D02*
X296Y872D01*
X981Y872D02*
X988Y872D01*
X289Y871D02*
X296Y871D01*
X981Y871D02*
X988Y871D01*
X289Y870D02*
X296Y870D01*
X981Y870D02*
X988Y870D01*
X289Y869D02*
X296Y869D01*
X981Y869D02*
X988Y869D01*
X289Y868D02*
X296Y868D01*
X981Y868D02*
X988Y868D01*
X289Y867D02*
X296Y867D01*
X981Y867D02*
X988Y867D01*
X289Y866D02*
X296Y866D01*
X981Y866D02*
X988Y866D01*
X289Y865D02*
X296Y865D01*
X981Y865D02*
X988Y865D01*
X289Y864D02*
X296Y864D01*
X981Y864D02*
X988Y864D01*
X289Y863D02*
X296Y863D01*
X981Y863D02*
X988Y863D01*
X1183Y863D02*
X1185Y863D01*
X289Y862D02*
X296Y862D01*
X981Y862D02*
X988Y862D01*
X1182Y862D02*
X1187Y862D01*
X289Y861D02*
X296Y861D01*
X981Y861D02*
X988Y861D01*
X1181Y861D02*
X1187Y861D01*
X289Y860D02*
X296Y860D01*
X981Y860D02*
X988Y860D01*
X1181Y860D02*
X1187Y860D01*
X289Y859D02*
X296Y859D01*
X981Y859D02*
X988Y859D01*
X1181Y859D02*
X1188Y859D01*
X289Y858D02*
X296Y858D01*
X981Y858D02*
X988Y858D01*
X1181Y858D02*
X1188Y858D01*
X289Y857D02*
X296Y857D01*
X981Y857D02*
X988Y857D01*
X1181Y857D02*
X1188Y857D01*
X289Y856D02*
X296Y856D01*
X981Y856D02*
X988Y856D01*
X1181Y856D02*
X1188Y856D01*
X289Y855D02*
X296Y855D01*
X981Y855D02*
X988Y855D01*
X1153Y855D02*
X1199Y855D01*
X289Y854D02*
X296Y854D01*
X981Y854D02*
X988Y854D01*
X1151Y854D02*
X1200Y854D01*
X289Y853D02*
X296Y853D01*
X981Y853D02*
X988Y853D01*
X1149Y853D02*
X1200Y853D01*
X289Y852D02*
X296Y852D01*
X981Y852D02*
X988Y852D01*
X1148Y852D02*
X1200Y852D01*
X289Y851D02*
X296Y851D01*
X981Y851D02*
X988Y851D01*
X1148Y851D02*
X1200Y851D01*
X289Y850D02*
X296Y850D01*
X981Y850D02*
X988Y850D01*
X1147Y850D02*
X1200Y850D01*
X289Y849D02*
X296Y849D01*
X981Y849D02*
X988Y849D01*
X1146Y849D02*
X1199Y849D01*
X289Y848D02*
X296Y848D01*
X981Y848D02*
X988Y848D01*
X1146Y848D02*
X1155Y848D01*
X1181Y848D02*
X1188Y848D01*
X289Y847D02*
X296Y847D01*
X981Y847D02*
X988Y847D01*
X1146Y847D02*
X1153Y847D01*
X1181Y847D02*
X1188Y847D01*
X289Y846D02*
X296Y846D01*
X981Y846D02*
X988Y846D01*
X1146Y846D02*
X1153Y846D01*
X1181Y846D02*
X1188Y846D01*
X289Y845D02*
X296Y845D01*
X981Y845D02*
X988Y845D01*
X1146Y845D02*
X1152Y845D01*
X1181Y845D02*
X1188Y845D01*
X289Y844D02*
X296Y844D01*
X981Y844D02*
X988Y844D01*
X1146Y844D02*
X1152Y844D01*
X1181Y844D02*
X1188Y844D01*
X289Y843D02*
X296Y843D01*
X981Y843D02*
X988Y843D01*
X1146Y843D02*
X1152Y843D01*
X1181Y843D02*
X1188Y843D01*
X289Y842D02*
X296Y842D01*
X981Y842D02*
X988Y842D01*
X1146Y842D02*
X1152Y842D01*
X1181Y842D02*
X1188Y842D01*
X289Y841D02*
X296Y841D01*
X981Y841D02*
X988Y841D01*
X1146Y841D02*
X1152Y841D01*
X1181Y841D02*
X1188Y841D01*
X289Y840D02*
X296Y840D01*
X981Y840D02*
X988Y840D01*
X1146Y840D02*
X1152Y840D01*
X1181Y840D02*
X1188Y840D01*
X289Y839D02*
X296Y839D01*
X981Y839D02*
X988Y839D01*
X1146Y839D02*
X1152Y839D01*
X1181Y839D02*
X1188Y839D01*
X289Y838D02*
X296Y838D01*
X981Y838D02*
X988Y838D01*
X1146Y838D02*
X1152Y838D01*
X1181Y838D02*
X1188Y838D01*
X289Y837D02*
X296Y837D01*
X981Y837D02*
X988Y837D01*
X1146Y837D02*
X1152Y837D01*
X1181Y837D02*
X1188Y837D01*
X289Y836D02*
X296Y836D01*
X981Y836D02*
X988Y836D01*
X1146Y836D02*
X1152Y836D01*
X1181Y836D02*
X1188Y836D01*
X289Y835D02*
X296Y835D01*
X981Y835D02*
X988Y835D01*
X1146Y835D02*
X1153Y835D01*
X1181Y835D02*
X1188Y835D01*
X289Y834D02*
X296Y834D01*
X981Y834D02*
X988Y834D01*
X1146Y834D02*
X1154Y834D01*
X1181Y834D02*
X1188Y834D01*
X289Y833D02*
X296Y833D01*
X981Y833D02*
X988Y833D01*
X1146Y833D02*
X1156Y833D01*
X1181Y833D02*
X1187Y833D01*
X289Y832D02*
X296Y832D01*
X981Y832D02*
X988Y832D01*
X1147Y832D02*
X1157Y832D01*
X1181Y832D02*
X1187Y832D01*
X289Y831D02*
X296Y831D01*
X981Y831D02*
X988Y831D01*
X1147Y831D02*
X1158Y831D01*
X1182Y831D02*
X1187Y831D01*
X289Y830D02*
X296Y830D01*
X981Y830D02*
X988Y830D01*
X1148Y830D02*
X1159Y830D01*
X1183Y830D02*
X1185Y830D01*
X289Y829D02*
X296Y829D01*
X981Y829D02*
X988Y829D01*
X1149Y829D02*
X1158Y829D01*
X289Y828D02*
X296Y828D01*
X981Y828D02*
X988Y828D01*
X1150Y828D02*
X1158Y828D01*
X289Y827D02*
X296Y827D01*
X981Y827D02*
X988Y827D01*
X1152Y827D02*
X1158Y827D01*
X289Y826D02*
X296Y826D01*
X981Y826D02*
X988Y826D01*
X1154Y826D02*
X1156Y826D01*
X289Y825D02*
X296Y825D01*
X981Y825D02*
X988Y825D01*
X289Y824D02*
X296Y824D01*
X981Y824D02*
X988Y824D01*
X289Y823D02*
X296Y823D01*
X981Y823D02*
X988Y823D01*
X289Y822D02*
X296Y822D01*
X981Y822D02*
X988Y822D01*
X289Y821D02*
X296Y821D01*
X981Y821D02*
X988Y821D01*
X289Y820D02*
X296Y820D01*
X981Y820D02*
X988Y820D01*
X289Y819D02*
X296Y819D01*
X981Y819D02*
X988Y819D01*
X289Y818D02*
X296Y818D01*
X981Y818D02*
X988Y818D01*
X289Y817D02*
X296Y817D01*
X981Y817D02*
X988Y817D01*
X289Y816D02*
X296Y816D01*
X981Y816D02*
X988Y816D01*
X289Y815D02*
X296Y815D01*
X981Y815D02*
X988Y815D01*
X289Y814D02*
X296Y814D01*
X981Y814D02*
X988Y814D01*
X289Y813D02*
X296Y813D01*
X981Y813D02*
X988Y813D01*
X289Y812D02*
X296Y812D01*
X981Y812D02*
X988Y812D01*
X289Y811D02*
X296Y811D01*
X981Y811D02*
X988Y811D01*
X289Y810D02*
X296Y810D01*
X981Y810D02*
X988Y810D01*
X289Y809D02*
X296Y809D01*
X981Y809D02*
X988Y809D01*
X289Y808D02*
X296Y808D01*
X981Y808D02*
X988Y808D01*
X1155Y808D02*
X1177Y808D01*
X289Y807D02*
X296Y807D01*
X981Y807D02*
X988Y807D01*
X1153Y807D02*
X1179Y807D01*
X289Y806D02*
X296Y806D01*
X981Y806D02*
X988Y806D01*
X1152Y806D02*
X1181Y806D01*
X289Y805D02*
X296Y805D01*
X981Y805D02*
X988Y805D01*
X1151Y805D02*
X1182Y805D01*
X289Y804D02*
X296Y804D01*
X981Y804D02*
X988Y804D01*
X1150Y804D02*
X1183Y804D01*
X289Y803D02*
X296Y803D01*
X981Y803D02*
X988Y803D01*
X1149Y803D02*
X1184Y803D01*
X289Y802D02*
X296Y802D01*
X981Y802D02*
X988Y802D01*
X1148Y802D02*
X1185Y802D01*
X289Y801D02*
X296Y801D01*
X981Y801D02*
X988Y801D01*
X1148Y801D02*
X1185Y801D01*
X289Y800D02*
X296Y800D01*
X981Y800D02*
X988Y800D01*
X1147Y800D02*
X1156Y800D01*
X1177Y800D02*
X1186Y800D01*
X289Y799D02*
X296Y799D01*
X981Y799D02*
X988Y799D01*
X1146Y799D02*
X1155Y799D01*
X1178Y799D02*
X1187Y799D01*
X289Y798D02*
X296Y798D01*
X981Y798D02*
X988Y798D01*
X1146Y798D02*
X1154Y798D01*
X1179Y798D02*
X1187Y798D01*
X289Y797D02*
X296Y797D01*
X981Y797D02*
X988Y797D01*
X1146Y797D02*
X1153Y797D01*
X1180Y797D02*
X1187Y797D01*
X289Y796D02*
X296Y796D01*
X981Y796D02*
X988Y796D01*
X1146Y796D02*
X1153Y796D01*
X1181Y796D02*
X1187Y796D01*
X289Y795D02*
X296Y795D01*
X981Y795D02*
X988Y795D01*
X1146Y795D02*
X1152Y795D01*
X1181Y795D02*
X1187Y795D01*
X289Y794D02*
X296Y794D01*
X981Y794D02*
X988Y794D01*
X1146Y794D02*
X1152Y794D01*
X1181Y794D02*
X1188Y794D01*
X289Y793D02*
X296Y793D01*
X981Y793D02*
X988Y793D01*
X1146Y793D02*
X1152Y793D01*
X1181Y793D02*
X1188Y793D01*
X289Y792D02*
X296Y792D01*
X981Y792D02*
X988Y792D01*
X1146Y792D02*
X1152Y792D01*
X1181Y792D02*
X1188Y792D01*
X289Y791D02*
X296Y791D01*
X981Y791D02*
X988Y791D01*
X1146Y791D02*
X1152Y791D01*
X1181Y791D02*
X1188Y791D01*
X289Y790D02*
X296Y790D01*
X981Y790D02*
X988Y790D01*
X1146Y790D02*
X1152Y790D01*
X1181Y790D02*
X1188Y790D01*
X289Y789D02*
X296Y789D01*
X981Y789D02*
X988Y789D01*
X1146Y789D02*
X1152Y789D01*
X1181Y789D02*
X1188Y789D01*
X289Y788D02*
X296Y788D01*
X981Y788D02*
X988Y788D01*
X1146Y788D02*
X1152Y788D01*
X1181Y788D02*
X1188Y788D01*
X289Y787D02*
X296Y787D01*
X981Y787D02*
X988Y787D01*
X1146Y787D02*
X1152Y787D01*
X1181Y787D02*
X1188Y787D01*
X289Y786D02*
X296Y786D01*
X981Y786D02*
X988Y786D01*
X1146Y786D02*
X1152Y786D01*
X1181Y786D02*
X1188Y786D01*
X289Y785D02*
X296Y785D01*
X981Y785D02*
X988Y785D01*
X1146Y785D02*
X1152Y785D01*
X1181Y785D02*
X1187Y785D01*
X289Y784D02*
X296Y784D01*
X981Y784D02*
X988Y784D01*
X1146Y784D02*
X1152Y784D01*
X1181Y784D02*
X1187Y784D01*
X289Y783D02*
X296Y783D01*
X981Y783D02*
X988Y783D01*
X1146Y783D02*
X1153Y783D01*
X1180Y783D02*
X1187Y783D01*
X289Y782D02*
X296Y782D01*
X981Y782D02*
X988Y782D01*
X1146Y782D02*
X1154Y782D01*
X1180Y782D02*
X1187Y782D01*
X289Y781D02*
X296Y781D01*
X981Y781D02*
X988Y781D01*
X1146Y781D02*
X1154Y781D01*
X1179Y781D02*
X1187Y781D01*
X289Y780D02*
X296Y780D01*
X981Y780D02*
X988Y780D01*
X1147Y780D02*
X1155Y780D01*
X1178Y780D02*
X1186Y780D01*
X289Y779D02*
X296Y779D01*
X981Y779D02*
X988Y779D01*
X1147Y779D02*
X1157Y779D01*
X1176Y779D02*
X1186Y779D01*
X289Y778D02*
X296Y778D01*
X981Y778D02*
X988Y778D01*
X1148Y778D02*
X1185Y778D01*
X289Y777D02*
X296Y777D01*
X981Y777D02*
X988Y777D01*
X1149Y777D02*
X1184Y777D01*
X289Y776D02*
X296Y776D01*
X981Y776D02*
X988Y776D01*
X1150Y776D02*
X1183Y776D01*
X289Y775D02*
X296Y775D01*
X981Y775D02*
X988Y775D01*
X1151Y775D02*
X1182Y775D01*
X289Y774D02*
X296Y774D01*
X981Y774D02*
X988Y774D01*
X1152Y774D02*
X1181Y774D01*
X289Y773D02*
X296Y773D01*
X981Y773D02*
X988Y773D01*
X1153Y773D02*
X1180Y773D01*
X289Y772D02*
X296Y772D01*
X981Y772D02*
X988Y772D01*
X1155Y772D02*
X1179Y772D01*
X289Y771D02*
X296Y771D01*
X981Y771D02*
X988Y771D01*
X1159Y771D02*
X1174Y771D01*
X289Y770D02*
X296Y770D01*
X981Y770D02*
X988Y770D01*
X289Y769D02*
X296Y769D01*
X981Y769D02*
X988Y769D01*
X289Y768D02*
X296Y768D01*
X981Y768D02*
X988Y768D01*
X289Y767D02*
X296Y767D01*
X981Y767D02*
X988Y767D01*
X289Y766D02*
X296Y766D01*
X981Y766D02*
X988Y766D01*
X289Y765D02*
X296Y765D01*
X981Y765D02*
X988Y765D01*
X289Y764D02*
X296Y764D01*
X981Y764D02*
X988Y764D01*
X289Y763D02*
X296Y763D01*
X981Y763D02*
X988Y763D01*
X289Y762D02*
X296Y762D01*
X981Y762D02*
X988Y762D01*
X289Y761D02*
X296Y761D01*
X981Y761D02*
X988Y761D01*
X289Y760D02*
X296Y760D01*
X981Y760D02*
X988Y760D01*
X289Y759D02*
X296Y759D01*
X981Y759D02*
X988Y759D01*
X289Y758D02*
X296Y758D01*
X981Y758D02*
X988Y758D01*
X289Y757D02*
X296Y757D01*
X981Y757D02*
X988Y757D01*
X289Y756D02*
X296Y756D01*
X981Y756D02*
X988Y756D01*
X289Y755D02*
X296Y755D01*
X981Y755D02*
X988Y755D01*
X289Y754D02*
X296Y754D01*
X981Y754D02*
X988Y754D01*
X289Y753D02*
X296Y753D01*
X981Y753D02*
X988Y753D01*
X1147Y753D02*
X1186Y753D01*
X289Y752D02*
X296Y752D01*
X981Y752D02*
X988Y752D01*
X1146Y752D02*
X1187Y752D01*
X289Y751D02*
X296Y751D01*
X981Y751D02*
X988Y751D01*
X1146Y751D02*
X1187Y751D01*
X289Y750D02*
X296Y750D01*
X981Y750D02*
X988Y750D01*
X1146Y750D02*
X1187Y750D01*
X289Y749D02*
X296Y749D01*
X981Y749D02*
X988Y749D01*
X1146Y749D02*
X1187Y749D01*
X289Y748D02*
X296Y748D01*
X981Y748D02*
X988Y748D01*
X1146Y748D02*
X1187Y748D01*
X289Y747D02*
X296Y747D01*
X981Y747D02*
X988Y747D01*
X1147Y747D02*
X1186Y747D01*
X289Y746D02*
X296Y746D01*
X981Y746D02*
X988Y746D01*
X1170Y746D02*
X1180Y746D01*
X289Y745D02*
X296Y745D01*
X981Y745D02*
X988Y745D01*
X1171Y745D02*
X1180Y745D01*
X289Y744D02*
X296Y744D01*
X981Y744D02*
X988Y744D01*
X1172Y744D02*
X1181Y744D01*
X289Y743D02*
X296Y743D01*
X981Y743D02*
X988Y743D01*
X1173Y743D02*
X1182Y743D01*
X289Y742D02*
X296Y742D01*
X981Y742D02*
X988Y742D01*
X1174Y742D02*
X1183Y742D01*
X289Y741D02*
X296Y741D01*
X981Y741D02*
X988Y741D01*
X1175Y741D02*
X1184Y741D01*
X289Y740D02*
X296Y740D01*
X981Y740D02*
X988Y740D01*
X1175Y740D02*
X1185Y740D01*
X289Y739D02*
X296Y739D01*
X981Y739D02*
X988Y739D01*
X1176Y739D02*
X1185Y739D01*
X289Y738D02*
X296Y738D01*
X981Y738D02*
X988Y738D01*
X1177Y738D02*
X1186Y738D01*
X289Y737D02*
X296Y737D01*
X981Y737D02*
X988Y737D01*
X1178Y737D02*
X1187Y737D01*
X289Y736D02*
X296Y736D01*
X981Y736D02*
X988Y736D01*
X1179Y736D02*
X1187Y736D01*
X289Y735D02*
X296Y735D01*
X981Y735D02*
X988Y735D01*
X1180Y735D02*
X1187Y735D01*
X289Y734D02*
X296Y734D01*
X981Y734D02*
X988Y734D01*
X1181Y734D02*
X1188Y734D01*
X289Y733D02*
X296Y733D01*
X981Y733D02*
X988Y733D01*
X1181Y733D02*
X1188Y733D01*
X289Y732D02*
X296Y732D01*
X981Y732D02*
X988Y732D01*
X1181Y732D02*
X1188Y732D01*
X289Y731D02*
X296Y731D01*
X981Y731D02*
X988Y731D01*
X1181Y731D02*
X1188Y731D01*
X289Y730D02*
X296Y730D01*
X981Y730D02*
X988Y730D01*
X1181Y730D02*
X1188Y730D01*
X289Y729D02*
X296Y729D01*
X981Y729D02*
X988Y729D01*
X1181Y729D02*
X1188Y729D01*
X289Y728D02*
X296Y728D01*
X981Y728D02*
X988Y728D01*
X1181Y728D02*
X1188Y728D01*
X289Y727D02*
X296Y727D01*
X981Y727D02*
X988Y727D01*
X1181Y727D02*
X1187Y727D01*
X289Y726D02*
X296Y726D01*
X981Y726D02*
X988Y726D01*
X1180Y726D02*
X1187Y726D01*
X289Y725D02*
X296Y725D01*
X981Y725D02*
X988Y725D01*
X1180Y725D02*
X1187Y725D01*
X289Y724D02*
X296Y724D01*
X981Y724D02*
X988Y724D01*
X1178Y724D02*
X1187Y724D01*
X289Y723D02*
X296Y723D01*
X981Y723D02*
X988Y723D01*
X1173Y723D02*
X1187Y723D01*
X289Y722D02*
X296Y722D01*
X981Y722D02*
X988Y722D01*
X1172Y722D02*
X1186Y722D01*
X289Y721D02*
X296Y721D01*
X981Y721D02*
X988Y721D01*
X1171Y721D02*
X1185Y721D01*
X289Y720D02*
X296Y720D01*
X981Y720D02*
X988Y720D01*
X1171Y720D02*
X1184Y720D01*
X289Y719D02*
X296Y719D01*
X981Y719D02*
X988Y719D01*
X1171Y719D02*
X1183Y719D01*
X289Y718D02*
X296Y718D01*
X981Y718D02*
X988Y718D01*
X1172Y718D02*
X1182Y718D01*
X289Y717D02*
X296Y717D01*
X981Y717D02*
X988Y717D01*
X1173Y717D02*
X1180Y717D01*
X289Y716D02*
X296Y716D01*
X981Y716D02*
X988Y716D01*
X289Y715D02*
X296Y715D01*
X981Y715D02*
X988Y715D01*
X289Y714D02*
X296Y714D01*
X981Y714D02*
X988Y714D01*
X289Y713D02*
X296Y713D01*
X981Y713D02*
X988Y713D01*
X289Y712D02*
X296Y712D01*
X981Y712D02*
X988Y712D01*
X289Y711D02*
X296Y711D01*
X981Y711D02*
X988Y711D01*
X289Y710D02*
X296Y710D01*
X981Y710D02*
X988Y710D01*
X289Y709D02*
X296Y709D01*
X981Y709D02*
X988Y709D01*
X289Y708D02*
X296Y708D01*
X981Y708D02*
X988Y708D01*
X289Y707D02*
X296Y707D01*
X981Y707D02*
X988Y707D01*
X289Y706D02*
X296Y706D01*
X981Y706D02*
X988Y706D01*
X289Y705D02*
X296Y705D01*
X981Y705D02*
X988Y705D01*
X289Y704D02*
X296Y704D01*
X981Y704D02*
X988Y704D01*
X289Y703D02*
X296Y703D01*
X981Y703D02*
X988Y703D01*
X289Y702D02*
X296Y702D01*
X981Y702D02*
X988Y702D01*
X289Y701D02*
X296Y701D01*
X981Y701D02*
X988Y701D01*
X289Y700D02*
X296Y700D01*
X981Y700D02*
X988Y700D01*
X289Y699D02*
X296Y699D01*
X981Y699D02*
X988Y699D01*
X289Y698D02*
X296Y698D01*
X981Y698D02*
X988Y698D01*
X289Y697D02*
X296Y697D01*
X981Y697D02*
X988Y697D01*
X289Y696D02*
X296Y696D01*
X981Y696D02*
X988Y696D01*
X289Y695D02*
X296Y695D01*
X981Y695D02*
X988Y695D01*
X289Y694D02*
X296Y694D01*
X981Y694D02*
X988Y694D01*
X289Y693D02*
X296Y693D01*
X981Y693D02*
X988Y693D01*
X289Y692D02*
X296Y692D01*
X981Y692D02*
X988Y692D01*
X289Y691D02*
X296Y691D01*
X981Y691D02*
X988Y691D01*
X289Y690D02*
X296Y690D01*
X635Y690D02*
X643Y690D01*
X981Y690D02*
X988Y690D01*
X289Y689D02*
X296Y689D01*
X629Y689D02*
X648Y689D01*
X981Y689D02*
X988Y689D01*
X289Y688D02*
X296Y688D01*
X626Y688D02*
X652Y688D01*
X981Y688D02*
X988Y688D01*
X289Y687D02*
X296Y687D01*
X623Y687D02*
X654Y687D01*
X981Y687D02*
X988Y687D01*
X289Y686D02*
X296Y686D01*
X621Y686D02*
X657Y686D01*
X981Y686D02*
X988Y686D01*
X289Y685D02*
X296Y685D01*
X619Y685D02*
X659Y685D01*
X981Y685D02*
X988Y685D01*
X289Y684D02*
X296Y684D01*
X617Y684D02*
X660Y684D01*
X981Y684D02*
X988Y684D01*
X289Y683D02*
X296Y683D01*
X616Y683D02*
X662Y683D01*
X981Y683D02*
X988Y683D01*
X289Y682D02*
X296Y682D01*
X614Y682D02*
X634Y682D01*
X644Y682D02*
X663Y682D01*
X981Y682D02*
X988Y682D01*
X289Y681D02*
X296Y681D01*
X613Y681D02*
X629Y681D01*
X649Y681D02*
X665Y681D01*
X981Y681D02*
X988Y681D01*
X289Y680D02*
X296Y680D01*
X612Y680D02*
X625Y680D01*
X652Y680D02*
X666Y680D01*
X981Y680D02*
X988Y680D01*
X289Y679D02*
X296Y679D01*
X611Y679D02*
X623Y679D01*
X655Y679D02*
X667Y679D01*
X981Y679D02*
X988Y679D01*
X289Y678D02*
X296Y678D01*
X610Y678D02*
X621Y678D01*
X657Y678D02*
X668Y678D01*
X981Y678D02*
X988Y678D01*
X289Y677D02*
X296Y677D01*
X608Y677D02*
X619Y677D01*
X658Y677D02*
X669Y677D01*
X981Y677D02*
X988Y677D01*
X289Y676D02*
X296Y676D01*
X608Y676D02*
X618Y676D01*
X660Y676D02*
X670Y676D01*
X981Y676D02*
X988Y676D01*
X289Y675D02*
X296Y675D01*
X607Y675D02*
X616Y675D01*
X661Y675D02*
X671Y675D01*
X981Y675D02*
X988Y675D01*
X289Y674D02*
X296Y674D01*
X606Y674D02*
X615Y674D01*
X662Y674D02*
X672Y674D01*
X981Y674D02*
X988Y674D01*
X289Y673D02*
X296Y673D01*
X605Y673D02*
X614Y673D01*
X664Y673D02*
X673Y673D01*
X981Y673D02*
X988Y673D01*
X289Y672D02*
X296Y672D01*
X604Y672D02*
X613Y672D01*
X665Y672D02*
X673Y672D01*
X981Y672D02*
X988Y672D01*
X289Y671D02*
X296Y671D01*
X604Y671D02*
X612Y671D01*
X666Y671D02*
X674Y671D01*
X981Y671D02*
X988Y671D01*
X289Y670D02*
X296Y670D01*
X603Y670D02*
X611Y670D01*
X666Y670D02*
X675Y670D01*
X981Y670D02*
X988Y670D01*
X289Y669D02*
X296Y669D01*
X602Y669D02*
X610Y669D01*
X667Y669D02*
X675Y669D01*
X981Y669D02*
X988Y669D01*
X289Y668D02*
X296Y668D01*
X602Y668D02*
X610Y668D01*
X668Y668D02*
X676Y668D01*
X981Y668D02*
X988Y668D01*
X289Y667D02*
X296Y667D01*
X601Y667D02*
X609Y667D01*
X669Y667D02*
X676Y667D01*
X981Y667D02*
X988Y667D01*
X289Y666D02*
X296Y666D01*
X601Y666D02*
X608Y666D01*
X669Y666D02*
X677Y666D01*
X981Y666D02*
X988Y666D01*
X289Y665D02*
X296Y665D01*
X600Y665D02*
X608Y665D01*
X670Y665D02*
X677Y665D01*
X981Y665D02*
X988Y665D01*
X289Y664D02*
X296Y664D01*
X600Y664D02*
X607Y664D01*
X670Y664D02*
X678Y664D01*
X981Y664D02*
X988Y664D01*
X289Y663D02*
X296Y663D01*
X599Y663D02*
X607Y663D01*
X671Y663D02*
X678Y663D01*
X981Y663D02*
X988Y663D01*
X289Y662D02*
X296Y662D01*
X599Y662D02*
X606Y662D01*
X671Y662D02*
X679Y662D01*
X981Y662D02*
X988Y662D01*
X289Y661D02*
X296Y661D01*
X598Y661D02*
X606Y661D01*
X672Y661D02*
X679Y661D01*
X981Y661D02*
X988Y661D01*
X289Y660D02*
X296Y660D01*
X598Y660D02*
X605Y660D01*
X672Y660D02*
X679Y660D01*
X981Y660D02*
X988Y660D01*
X289Y659D02*
X296Y659D01*
X598Y659D02*
X605Y659D01*
X673Y659D02*
X680Y659D01*
X981Y659D02*
X988Y659D01*
X289Y658D02*
X296Y658D01*
X598Y658D02*
X605Y658D01*
X673Y658D02*
X680Y658D01*
X981Y658D02*
X988Y658D01*
X289Y657D02*
X296Y657D01*
X597Y657D02*
X604Y657D01*
X673Y657D02*
X680Y657D01*
X981Y657D02*
X988Y657D01*
X289Y656D02*
X296Y656D01*
X597Y656D02*
X604Y656D01*
X673Y656D02*
X681Y656D01*
X981Y656D02*
X988Y656D01*
X289Y655D02*
X296Y655D01*
X597Y655D02*
X604Y655D01*
X674Y655D02*
X681Y655D01*
X981Y655D02*
X988Y655D01*
X289Y654D02*
X296Y654D01*
X597Y654D02*
X604Y654D01*
X674Y654D02*
X681Y654D01*
X981Y654D02*
X988Y654D01*
X289Y653D02*
X296Y653D01*
X596Y653D02*
X603Y653D01*
X674Y653D02*
X681Y653D01*
X981Y653D02*
X988Y653D01*
X289Y652D02*
X296Y652D01*
X596Y652D02*
X603Y652D01*
X674Y652D02*
X681Y652D01*
X981Y652D02*
X988Y652D01*
X289Y651D02*
X296Y651D01*
X596Y651D02*
X603Y651D01*
X674Y651D02*
X681Y651D01*
X981Y651D02*
X988Y651D01*
X289Y650D02*
X296Y650D01*
X596Y650D02*
X603Y650D01*
X674Y650D02*
X681Y650D01*
X981Y650D02*
X988Y650D01*
X289Y649D02*
X296Y649D01*
X596Y649D02*
X603Y649D01*
X674Y649D02*
X681Y649D01*
X981Y649D02*
X988Y649D01*
X289Y648D02*
X296Y648D01*
X596Y648D02*
X603Y648D01*
X675Y648D02*
X682Y648D01*
X981Y648D02*
X988Y648D01*
X289Y647D02*
X296Y647D01*
X596Y647D02*
X603Y647D01*
X675Y647D02*
X682Y647D01*
X981Y647D02*
X988Y647D01*
X289Y646D02*
X296Y646D01*
X596Y646D02*
X603Y646D01*
X675Y646D02*
X682Y646D01*
X981Y646D02*
X988Y646D01*
X289Y645D02*
X296Y645D01*
X596Y645D02*
X603Y645D01*
X674Y645D02*
X681Y645D01*
X981Y645D02*
X988Y645D01*
X289Y644D02*
X296Y644D01*
X596Y644D02*
X603Y644D01*
X674Y644D02*
X681Y644D01*
X981Y644D02*
X988Y644D01*
X1148Y644D02*
X1204Y644D01*
X289Y643D02*
X296Y643D01*
X596Y643D02*
X603Y643D01*
X674Y643D02*
X681Y643D01*
X981Y643D02*
X988Y643D01*
X1146Y643D02*
X1204Y643D01*
X289Y642D02*
X296Y642D01*
X596Y642D02*
X603Y642D01*
X674Y642D02*
X681Y642D01*
X981Y642D02*
X988Y642D01*
X1146Y642D02*
X1204Y642D01*
X289Y641D02*
X296Y641D01*
X596Y641D02*
X603Y641D01*
X674Y641D02*
X681Y641D01*
X981Y641D02*
X988Y641D01*
X1146Y641D02*
X1204Y641D01*
X289Y640D02*
X296Y640D01*
X597Y640D02*
X604Y640D01*
X674Y640D02*
X681Y640D01*
X981Y640D02*
X988Y640D01*
X1146Y640D02*
X1204Y640D01*
X289Y639D02*
X296Y639D01*
X597Y639D02*
X604Y639D01*
X674Y639D02*
X681Y639D01*
X981Y639D02*
X988Y639D01*
X1146Y639D02*
X1204Y639D01*
X289Y638D02*
X296Y638D01*
X597Y638D02*
X604Y638D01*
X673Y638D02*
X681Y638D01*
X981Y638D02*
X988Y638D01*
X1147Y638D02*
X1204Y638D01*
X289Y637D02*
X296Y637D01*
X597Y637D02*
X604Y637D01*
X673Y637D02*
X680Y637D01*
X981Y637D02*
X988Y637D01*
X1149Y637D02*
X1204Y637D01*
X289Y636D02*
X296Y636D01*
X598Y636D02*
X605Y636D01*
X673Y636D02*
X680Y636D01*
X981Y636D02*
X988Y636D01*
X1193Y636D02*
X1204Y636D01*
X289Y635D02*
X296Y635D01*
X598Y635D02*
X605Y635D01*
X673Y635D02*
X680Y635D01*
X981Y635D02*
X988Y635D01*
X1191Y635D02*
X1203Y635D01*
X289Y634D02*
X296Y634D01*
X598Y634D02*
X605Y634D01*
X672Y634D02*
X679Y634D01*
X981Y634D02*
X988Y634D01*
X1190Y634D02*
X1202Y634D01*
X289Y633D02*
X296Y633D01*
X598Y633D02*
X606Y633D01*
X672Y633D02*
X679Y633D01*
X981Y633D02*
X988Y633D01*
X1188Y633D02*
X1201Y633D01*
X289Y632D02*
X296Y632D01*
X599Y632D02*
X606Y632D01*
X671Y632D02*
X679Y632D01*
X981Y632D02*
X988Y632D01*
X1187Y632D02*
X1199Y632D01*
X289Y631D02*
X296Y631D01*
X599Y631D02*
X607Y631D01*
X671Y631D02*
X678Y631D01*
X981Y631D02*
X988Y631D01*
X1186Y631D02*
X1198Y631D01*
X289Y630D02*
X296Y630D01*
X600Y630D02*
X607Y630D01*
X670Y630D02*
X678Y630D01*
X981Y630D02*
X988Y630D01*
X1184Y630D02*
X1196Y630D01*
X289Y629D02*
X296Y629D01*
X600Y629D02*
X608Y629D01*
X670Y629D02*
X677Y629D01*
X981Y629D02*
X988Y629D01*
X1180Y629D02*
X1195Y629D01*
X289Y628D02*
X296Y628D01*
X601Y628D02*
X608Y628D01*
X669Y628D02*
X677Y628D01*
X981Y628D02*
X988Y628D01*
X1178Y628D02*
X1194Y628D01*
X289Y627D02*
X296Y627D01*
X601Y627D02*
X609Y627D01*
X669Y627D02*
X676Y627D01*
X981Y627D02*
X988Y627D01*
X1178Y627D02*
X1192Y627D01*
X289Y626D02*
X296Y626D01*
X602Y626D02*
X610Y626D01*
X668Y626D02*
X676Y626D01*
X981Y626D02*
X988Y626D01*
X1178Y626D02*
X1191Y626D01*
X289Y625D02*
X296Y625D01*
X602Y625D02*
X610Y625D01*
X667Y625D02*
X675Y625D01*
X981Y625D02*
X988Y625D01*
X1178Y625D02*
X1191Y625D01*
X289Y624D02*
X296Y624D01*
X603Y624D02*
X611Y624D01*
X666Y624D02*
X675Y624D01*
X981Y624D02*
X988Y624D01*
X1178Y624D02*
X1193Y624D01*
X289Y623D02*
X296Y623D01*
X604Y623D02*
X612Y623D01*
X665Y623D02*
X674Y623D01*
X981Y623D02*
X988Y623D01*
X1179Y623D02*
X1194Y623D01*
X289Y622D02*
X296Y622D01*
X604Y622D02*
X613Y622D01*
X665Y622D02*
X673Y622D01*
X981Y622D02*
X988Y622D01*
X1181Y622D02*
X1196Y622D01*
X289Y621D02*
X296Y621D01*
X605Y621D02*
X614Y621D01*
X664Y621D02*
X672Y621D01*
X981Y621D02*
X988Y621D01*
X1185Y621D02*
X1197Y621D01*
X289Y620D02*
X296Y620D01*
X606Y620D02*
X615Y620D01*
X662Y620D02*
X672Y620D01*
X981Y620D02*
X988Y620D01*
X1186Y620D02*
X1198Y620D01*
X289Y619D02*
X296Y619D01*
X607Y619D02*
X616Y619D01*
X661Y619D02*
X671Y619D01*
X981Y619D02*
X988Y619D01*
X1188Y619D02*
X1200Y619D01*
X289Y618D02*
X296Y618D01*
X608Y618D02*
X618Y618D01*
X660Y618D02*
X670Y618D01*
X981Y618D02*
X988Y618D01*
X1189Y618D02*
X1201Y618D01*
X289Y617D02*
X296Y617D01*
X609Y617D02*
X619Y617D01*
X658Y617D02*
X669Y617D01*
X981Y617D02*
X988Y617D01*
X1190Y617D02*
X1203Y617D01*
X289Y616D02*
X296Y616D01*
X610Y616D02*
X621Y616D01*
X657Y616D02*
X668Y616D01*
X981Y616D02*
X988Y616D01*
X1192Y616D02*
X1204Y616D01*
X289Y615D02*
X296Y615D01*
X611Y615D02*
X623Y615D01*
X655Y615D02*
X667Y615D01*
X981Y615D02*
X988Y615D01*
X1193Y615D02*
X1204Y615D01*
X289Y614D02*
X296Y614D01*
X612Y614D02*
X625Y614D01*
X652Y614D02*
X666Y614D01*
X981Y614D02*
X988Y614D01*
X1148Y614D02*
X1204Y614D01*
X289Y613D02*
X296Y613D01*
X613Y613D02*
X629Y613D01*
X649Y613D02*
X665Y613D01*
X981Y613D02*
X988Y613D01*
X1146Y613D02*
X1204Y613D01*
X289Y612D02*
X296Y612D01*
X614Y612D02*
X634Y612D01*
X644Y612D02*
X663Y612D01*
X981Y612D02*
X988Y612D01*
X1146Y612D02*
X1204Y612D01*
X289Y611D02*
X296Y611D01*
X616Y611D02*
X662Y611D01*
X981Y611D02*
X988Y611D01*
X1146Y611D02*
X1204Y611D01*
X289Y610D02*
X296Y610D01*
X617Y610D02*
X660Y610D01*
X981Y610D02*
X988Y610D01*
X1146Y610D02*
X1204Y610D01*
X289Y609D02*
X296Y609D01*
X619Y609D02*
X659Y609D01*
X981Y609D02*
X988Y609D01*
X1146Y609D02*
X1204Y609D01*
X289Y608D02*
X296Y608D01*
X621Y608D02*
X657Y608D01*
X981Y608D02*
X988Y608D01*
X1147Y608D02*
X1204Y608D01*
X289Y607D02*
X296Y607D01*
X623Y607D02*
X654Y607D01*
X981Y607D02*
X988Y607D01*
X1148Y607D02*
X1203Y607D01*
X289Y606D02*
X296Y606D01*
X626Y606D02*
X652Y606D01*
X981Y606D02*
X988Y606D01*
X289Y605D02*
X296Y605D01*
X629Y605D02*
X648Y605D01*
X981Y605D02*
X988Y605D01*
X289Y604D02*
X296Y604D01*
X635Y604D02*
X643Y604D01*
X981Y604D02*
X988Y604D01*
X289Y603D02*
X296Y603D01*
X981Y603D02*
X988Y603D01*
X289Y602D02*
X296Y602D01*
X981Y602D02*
X988Y602D01*
X289Y601D02*
X296Y601D01*
X981Y601D02*
X988Y601D01*
X289Y600D02*
X296Y600D01*
X981Y600D02*
X988Y600D01*
X289Y599D02*
X296Y599D01*
X981Y599D02*
X988Y599D01*
X289Y598D02*
X296Y598D01*
X981Y598D02*
X988Y598D01*
X289Y597D02*
X296Y597D01*
X981Y597D02*
X988Y597D01*
X289Y596D02*
X296Y596D01*
X981Y596D02*
X988Y596D01*
X289Y595D02*
X296Y595D01*
X981Y595D02*
X988Y595D01*
X289Y594D02*
X296Y594D01*
X981Y594D02*
X988Y594D01*
X289Y593D02*
X296Y593D01*
X981Y593D02*
X988Y593D01*
X289Y592D02*
X296Y592D01*
X981Y592D02*
X988Y592D01*
X289Y591D02*
X296Y591D01*
X981Y591D02*
X988Y591D01*
X289Y590D02*
X296Y590D01*
X981Y590D02*
X988Y590D01*
X289Y589D02*
X296Y589D01*
X981Y589D02*
X988Y589D01*
X1150Y589D02*
X1199Y589D01*
X289Y588D02*
X296Y588D01*
X981Y588D02*
X988Y588D01*
X1148Y588D02*
X1201Y588D01*
X289Y587D02*
X296Y587D01*
X981Y587D02*
X988Y587D01*
X1147Y587D02*
X1202Y587D01*
X289Y586D02*
X296Y586D01*
X981Y586D02*
X988Y586D01*
X1147Y586D02*
X1202Y586D01*
X289Y585D02*
X296Y585D01*
X981Y585D02*
X988Y585D01*
X1146Y585D02*
X1203Y585D01*
X289Y584D02*
X296Y584D01*
X981Y584D02*
X988Y584D01*
X1146Y584D02*
X1203Y584D01*
X289Y583D02*
X296Y583D01*
X981Y583D02*
X988Y583D01*
X1146Y583D02*
X1203Y583D01*
X289Y582D02*
X296Y582D01*
X981Y582D02*
X988Y582D01*
X1146Y582D02*
X1152Y582D01*
X1197Y582D02*
X1204Y582D01*
X289Y581D02*
X296Y581D01*
X981Y581D02*
X988Y581D01*
X1146Y581D02*
X1152Y581D01*
X1197Y581D02*
X1204Y581D01*
X289Y580D02*
X296Y580D01*
X981Y580D02*
X988Y580D01*
X1146Y580D02*
X1152Y580D01*
X1197Y580D02*
X1204Y580D01*
X289Y579D02*
X296Y579D01*
X981Y579D02*
X988Y579D01*
X1146Y579D02*
X1152Y579D01*
X1197Y579D02*
X1204Y579D01*
X289Y578D02*
X296Y578D01*
X981Y578D02*
X988Y578D01*
X1146Y578D02*
X1152Y578D01*
X1197Y578D02*
X1204Y578D01*
X289Y577D02*
X296Y577D01*
X981Y577D02*
X988Y577D01*
X1146Y577D02*
X1152Y577D01*
X1197Y577D02*
X1204Y577D01*
X289Y576D02*
X296Y576D01*
X981Y576D02*
X988Y576D01*
X1146Y576D02*
X1152Y576D01*
X1197Y576D02*
X1204Y576D01*
X289Y575D02*
X296Y575D01*
X981Y575D02*
X988Y575D01*
X1146Y575D02*
X1152Y575D01*
X1197Y575D02*
X1204Y575D01*
X289Y574D02*
X296Y574D01*
X981Y574D02*
X988Y574D01*
X1146Y574D02*
X1152Y574D01*
X1197Y574D02*
X1204Y574D01*
X289Y573D02*
X296Y573D01*
X981Y573D02*
X988Y573D01*
X1146Y573D02*
X1152Y573D01*
X1197Y573D02*
X1204Y573D01*
X289Y572D02*
X296Y572D01*
X981Y572D02*
X988Y572D01*
X1146Y572D02*
X1152Y572D01*
X1197Y572D02*
X1204Y572D01*
X289Y571D02*
X296Y571D01*
X981Y571D02*
X988Y571D01*
X1146Y571D02*
X1152Y571D01*
X1197Y571D02*
X1204Y571D01*
X289Y570D02*
X296Y570D01*
X981Y570D02*
X988Y570D01*
X1146Y570D02*
X1152Y570D01*
X1197Y570D02*
X1204Y570D01*
X289Y569D02*
X296Y569D01*
X981Y569D02*
X988Y569D01*
X1146Y569D02*
X1152Y569D01*
X1197Y569D02*
X1204Y569D01*
X289Y568D02*
X296Y568D01*
X981Y568D02*
X988Y568D01*
X1146Y568D02*
X1152Y568D01*
X1197Y568D02*
X1204Y568D01*
X289Y567D02*
X296Y567D01*
X981Y567D02*
X988Y567D01*
X1146Y567D02*
X1152Y567D01*
X1197Y567D02*
X1204Y567D01*
X289Y566D02*
X296Y566D01*
X981Y566D02*
X988Y566D01*
X1146Y566D02*
X1152Y566D01*
X1197Y566D02*
X1204Y566D01*
X289Y565D02*
X296Y565D01*
X981Y565D02*
X988Y565D01*
X1146Y565D02*
X1152Y565D01*
X1197Y565D02*
X1204Y565D01*
X289Y564D02*
X296Y564D01*
X981Y564D02*
X988Y564D01*
X1146Y564D02*
X1152Y564D01*
X1197Y564D02*
X1204Y564D01*
X289Y563D02*
X296Y563D01*
X981Y563D02*
X988Y563D01*
X1146Y563D02*
X1152Y563D01*
X1197Y563D02*
X1204Y563D01*
X289Y562D02*
X296Y562D01*
X981Y562D02*
X988Y562D01*
X1146Y562D02*
X1152Y562D01*
X1197Y562D02*
X1204Y562D01*
X289Y561D02*
X296Y561D01*
X981Y561D02*
X988Y561D01*
X1146Y561D02*
X1152Y561D01*
X1197Y561D02*
X1204Y561D01*
X289Y560D02*
X296Y560D01*
X981Y560D02*
X988Y560D01*
X1146Y560D02*
X1152Y560D01*
X1197Y560D02*
X1204Y560D01*
X289Y559D02*
X296Y559D01*
X981Y559D02*
X988Y559D01*
X1146Y559D02*
X1203Y559D01*
X289Y558D02*
X296Y558D01*
X981Y558D02*
X988Y558D01*
X1146Y558D02*
X1203Y558D01*
X289Y557D02*
X296Y557D01*
X981Y557D02*
X988Y557D01*
X1146Y557D02*
X1203Y557D01*
X289Y556D02*
X296Y556D01*
X981Y556D02*
X988Y556D01*
X1147Y556D02*
X1202Y556D01*
X289Y555D02*
X296Y555D01*
X981Y555D02*
X988Y555D01*
X1147Y555D02*
X1202Y555D01*
X289Y554D02*
X296Y554D01*
X981Y554D02*
X988Y554D01*
X1148Y554D02*
X1201Y554D01*
X289Y553D02*
X296Y553D01*
X981Y553D02*
X988Y553D01*
X1150Y553D02*
X1199Y553D01*
X289Y552D02*
X296Y552D01*
X981Y552D02*
X988Y552D01*
X289Y551D02*
X296Y551D01*
X981Y551D02*
X988Y551D01*
X289Y550D02*
X296Y550D01*
X981Y550D02*
X988Y550D01*
X289Y549D02*
X296Y549D01*
X981Y549D02*
X988Y549D01*
X289Y548D02*
X296Y548D01*
X981Y548D02*
X988Y548D01*
X289Y547D02*
X296Y547D01*
X981Y547D02*
X988Y547D01*
X289Y546D02*
X296Y546D01*
X981Y546D02*
X988Y546D01*
X289Y545D02*
X296Y545D01*
X981Y545D02*
X988Y545D01*
X289Y544D02*
X296Y544D01*
X981Y544D02*
X988Y544D01*
X289Y543D02*
X296Y543D01*
X981Y543D02*
X988Y543D01*
X289Y542D02*
X296Y542D01*
X981Y542D02*
X988Y542D01*
X289Y541D02*
X296Y541D01*
X981Y541D02*
X988Y541D01*
X289Y540D02*
X296Y540D01*
X981Y540D02*
X988Y540D01*
X289Y539D02*
X296Y539D01*
X981Y539D02*
X988Y539D01*
X289Y538D02*
X296Y538D01*
X981Y538D02*
X988Y538D01*
X289Y537D02*
X296Y537D01*
X981Y537D02*
X988Y537D01*
X289Y536D02*
X296Y536D01*
X981Y536D02*
X988Y536D01*
X289Y535D02*
X296Y535D01*
X981Y535D02*
X988Y535D01*
X1149Y535D02*
X1149Y535D01*
X1200Y535D02*
X1200Y535D01*
X289Y534D02*
X296Y534D01*
X981Y534D02*
X988Y534D01*
X1147Y534D02*
X1151Y534D01*
X1198Y534D02*
X1202Y534D01*
X289Y533D02*
X296Y533D01*
X981Y533D02*
X988Y533D01*
X1146Y533D02*
X1152Y533D01*
X1197Y533D02*
X1203Y533D01*
X289Y532D02*
X296Y532D01*
X981Y532D02*
X988Y532D01*
X1146Y532D02*
X1152Y532D01*
X1197Y532D02*
X1203Y532D01*
X289Y531D02*
X296Y531D01*
X981Y531D02*
X988Y531D01*
X1146Y531D02*
X1152Y531D01*
X1197Y531D02*
X1204Y531D01*
X289Y530D02*
X296Y530D01*
X981Y530D02*
X988Y530D01*
X1146Y530D02*
X1152Y530D01*
X1197Y530D02*
X1204Y530D01*
X289Y529D02*
X296Y529D01*
X981Y529D02*
X988Y529D01*
X1146Y529D02*
X1152Y529D01*
X1197Y529D02*
X1204Y529D01*
X289Y528D02*
X296Y528D01*
X981Y528D02*
X988Y528D01*
X1146Y528D02*
X1152Y528D01*
X1197Y528D02*
X1204Y528D01*
X289Y527D02*
X296Y527D01*
X981Y527D02*
X988Y527D01*
X1146Y527D02*
X1152Y527D01*
X1197Y527D02*
X1204Y527D01*
X289Y526D02*
X296Y526D01*
X981Y526D02*
X988Y526D01*
X1146Y526D02*
X1152Y526D01*
X1197Y526D02*
X1204Y526D01*
X289Y525D02*
X296Y525D01*
X981Y525D02*
X988Y525D01*
X1146Y525D02*
X1152Y525D01*
X1197Y525D02*
X1204Y525D01*
X289Y524D02*
X296Y524D01*
X981Y524D02*
X988Y524D01*
X1146Y524D02*
X1152Y524D01*
X1197Y524D02*
X1204Y524D01*
X289Y523D02*
X296Y523D01*
X981Y523D02*
X988Y523D01*
X1146Y523D02*
X1152Y523D01*
X1197Y523D02*
X1204Y523D01*
X289Y522D02*
X296Y522D01*
X981Y522D02*
X988Y522D01*
X1146Y522D02*
X1152Y522D01*
X1197Y522D02*
X1204Y522D01*
X289Y521D02*
X296Y521D01*
X981Y521D02*
X988Y521D01*
X1146Y521D02*
X1152Y521D01*
X1197Y521D02*
X1204Y521D01*
X289Y520D02*
X296Y520D01*
X981Y520D02*
X988Y520D01*
X1146Y520D02*
X1204Y520D01*
X289Y519D02*
X296Y519D01*
X981Y519D02*
X988Y519D01*
X1146Y519D02*
X1204Y519D01*
X289Y518D02*
X296Y518D01*
X981Y518D02*
X988Y518D01*
X1146Y518D02*
X1204Y518D01*
X289Y517D02*
X296Y517D01*
X981Y517D02*
X988Y517D01*
X1146Y517D02*
X1204Y517D01*
X289Y516D02*
X296Y516D01*
X981Y516D02*
X988Y516D01*
X1146Y516D02*
X1204Y516D01*
X289Y515D02*
X296Y515D01*
X981Y515D02*
X988Y515D01*
X1146Y515D02*
X1204Y515D01*
X289Y514D02*
X296Y514D01*
X981Y514D02*
X988Y514D01*
X1146Y514D02*
X1204Y514D01*
X289Y513D02*
X296Y513D01*
X981Y513D02*
X988Y513D01*
X1146Y513D02*
X1204Y513D01*
X289Y512D02*
X296Y512D01*
X981Y512D02*
X988Y512D01*
X1146Y512D02*
X1152Y512D01*
X45Y511D02*
X75Y511D01*
X289Y511D02*
X296Y511D01*
X981Y511D02*
X988Y511D01*
X1146Y511D02*
X1152Y511D01*
X44Y510D02*
X76Y510D01*
X289Y510D02*
X296Y510D01*
X981Y510D02*
X988Y510D01*
X1146Y510D02*
X1152Y510D01*
X43Y509D02*
X76Y509D01*
X289Y509D02*
X296Y509D01*
X981Y509D02*
X988Y509D01*
X1146Y509D02*
X1152Y509D01*
X43Y508D02*
X77Y508D01*
X289Y508D02*
X296Y508D01*
X981Y508D02*
X988Y508D01*
X1146Y508D02*
X1152Y508D01*
X44Y507D02*
X76Y507D01*
X289Y507D02*
X296Y507D01*
X981Y507D02*
X988Y507D01*
X1146Y507D02*
X1152Y507D01*
X44Y506D02*
X76Y506D01*
X289Y506D02*
X296Y506D01*
X981Y506D02*
X988Y506D01*
X1146Y506D02*
X1152Y506D01*
X63Y505D02*
X71Y505D01*
X289Y505D02*
X296Y505D01*
X981Y505D02*
X988Y505D01*
X1146Y505D02*
X1168Y505D01*
X64Y504D02*
X71Y504D01*
X289Y504D02*
X296Y504D01*
X981Y504D02*
X988Y504D01*
X1146Y504D02*
X1170Y504D01*
X65Y503D02*
X72Y503D01*
X289Y503D02*
X296Y503D01*
X981Y503D02*
X988Y503D01*
X1146Y503D02*
X1171Y503D01*
X66Y502D02*
X73Y502D01*
X289Y502D02*
X296Y502D01*
X981Y502D02*
X988Y502D01*
X1146Y502D02*
X1171Y502D01*
X66Y501D02*
X74Y501D01*
X289Y501D02*
X296Y501D01*
X981Y501D02*
X988Y501D01*
X1146Y501D02*
X1171Y501D01*
X67Y500D02*
X74Y500D01*
X289Y500D02*
X296Y500D01*
X981Y500D02*
X988Y500D01*
X1146Y500D02*
X1171Y500D01*
X68Y499D02*
X75Y499D01*
X289Y499D02*
X296Y499D01*
X981Y499D02*
X988Y499D01*
X1146Y499D02*
X1171Y499D01*
X69Y498D02*
X76Y498D01*
X289Y498D02*
X296Y498D01*
X981Y498D02*
X988Y498D01*
X1147Y498D02*
X1170Y498D01*
X70Y497D02*
X77Y497D01*
X289Y497D02*
X296Y497D01*
X981Y497D02*
X988Y497D01*
X71Y496D02*
X77Y496D01*
X289Y496D02*
X296Y496D01*
X981Y496D02*
X988Y496D01*
X71Y495D02*
X77Y495D01*
X289Y495D02*
X296Y495D01*
X981Y495D02*
X988Y495D01*
X72Y494D02*
X77Y494D01*
X289Y494D02*
X296Y494D01*
X981Y494D02*
X988Y494D01*
X72Y493D02*
X77Y493D01*
X289Y493D02*
X296Y493D01*
X981Y493D02*
X988Y493D01*
X72Y492D02*
X77Y492D01*
X289Y492D02*
X296Y492D01*
X981Y492D02*
X988Y492D01*
X72Y491D02*
X77Y491D01*
X289Y491D02*
X296Y491D01*
X981Y491D02*
X988Y491D01*
X71Y490D02*
X77Y490D01*
X289Y490D02*
X296Y490D01*
X981Y490D02*
X988Y490D01*
X71Y489D02*
X77Y489D01*
X289Y489D02*
X296Y489D01*
X981Y489D02*
X988Y489D01*
X70Y488D02*
X76Y488D01*
X289Y488D02*
X296Y488D01*
X981Y488D02*
X988Y488D01*
X66Y487D02*
X76Y487D01*
X289Y487D02*
X296Y487D01*
X981Y487D02*
X988Y487D01*
X65Y486D02*
X76Y486D01*
X289Y486D02*
X296Y486D01*
X981Y486D02*
X988Y486D01*
X64Y485D02*
X75Y485D01*
X289Y485D02*
X296Y485D01*
X981Y485D02*
X988Y485D01*
X64Y484D02*
X74Y484D01*
X289Y484D02*
X296Y484D01*
X981Y484D02*
X988Y484D01*
X64Y483D02*
X73Y483D01*
X289Y483D02*
X296Y483D01*
X981Y483D02*
X988Y483D01*
X65Y482D02*
X72Y482D01*
X289Y482D02*
X296Y482D01*
X981Y482D02*
X988Y482D01*
X289Y481D02*
X296Y481D01*
X981Y481D02*
X988Y481D01*
X289Y480D02*
X296Y480D01*
X981Y480D02*
X988Y480D01*
X1151Y480D02*
X1198Y480D01*
X289Y479D02*
X296Y479D01*
X981Y479D02*
X988Y479D01*
X1149Y479D02*
X1200Y479D01*
X289Y478D02*
X296Y478D01*
X981Y478D02*
X988Y478D01*
X1148Y478D02*
X1201Y478D01*
X289Y477D02*
X296Y477D01*
X981Y477D02*
X988Y477D01*
X1147Y477D02*
X1202Y477D01*
X289Y476D02*
X296Y476D01*
X981Y476D02*
X988Y476D01*
X1146Y476D02*
X1203Y476D01*
X289Y475D02*
X296Y475D01*
X981Y475D02*
X988Y475D01*
X1146Y475D02*
X1203Y475D01*
X289Y474D02*
X296Y474D01*
X981Y474D02*
X988Y474D01*
X1146Y474D02*
X1203Y474D01*
X289Y473D02*
X296Y473D01*
X981Y473D02*
X988Y473D01*
X1146Y473D02*
X1204Y473D01*
X289Y472D02*
X296Y472D01*
X981Y472D02*
X988Y472D01*
X1146Y472D02*
X1152Y472D01*
X1197Y472D02*
X1204Y472D01*
X289Y471D02*
X296Y471D01*
X981Y471D02*
X988Y471D01*
X1146Y471D02*
X1152Y471D01*
X1197Y471D02*
X1204Y471D01*
X289Y470D02*
X296Y470D01*
X981Y470D02*
X988Y470D01*
X1146Y470D02*
X1152Y470D01*
X1197Y470D02*
X1204Y470D01*
X289Y469D02*
X296Y469D01*
X981Y469D02*
X988Y469D01*
X1146Y469D02*
X1152Y469D01*
X1197Y469D02*
X1204Y469D01*
X289Y468D02*
X296Y468D01*
X981Y468D02*
X988Y468D01*
X1146Y468D02*
X1152Y468D01*
X1197Y468D02*
X1204Y468D01*
X51Y467D02*
X68Y467D01*
X289Y467D02*
X296Y467D01*
X981Y467D02*
X988Y467D01*
X1146Y467D02*
X1152Y467D01*
X1197Y467D02*
X1204Y467D01*
X49Y466D02*
X70Y466D01*
X289Y466D02*
X296Y466D01*
X981Y466D02*
X988Y466D01*
X1146Y466D02*
X1152Y466D01*
X1197Y466D02*
X1204Y466D01*
X48Y465D02*
X72Y465D01*
X289Y465D02*
X296Y465D01*
X981Y465D02*
X988Y465D01*
X1146Y465D02*
X1152Y465D01*
X1197Y465D02*
X1204Y465D01*
X47Y464D02*
X73Y464D01*
X289Y464D02*
X296Y464D01*
X981Y464D02*
X988Y464D01*
X1146Y464D02*
X1152Y464D01*
X1197Y464D02*
X1204Y464D01*
X46Y463D02*
X74Y463D01*
X289Y463D02*
X296Y463D01*
X981Y463D02*
X988Y463D01*
X1146Y463D02*
X1152Y463D01*
X1197Y463D02*
X1204Y463D01*
X45Y462D02*
X75Y462D01*
X289Y462D02*
X296Y462D01*
X981Y462D02*
X988Y462D01*
X1146Y462D02*
X1152Y462D01*
X1197Y462D02*
X1204Y462D01*
X45Y461D02*
X52Y461D01*
X56Y461D02*
X61Y461D01*
X68Y461D02*
X75Y461D01*
X289Y461D02*
X296Y461D01*
X981Y461D02*
X988Y461D01*
X1146Y461D02*
X1152Y461D01*
X1197Y461D02*
X1204Y461D01*
X44Y460D02*
X51Y460D01*
X56Y460D02*
X61Y460D01*
X69Y460D02*
X76Y460D01*
X289Y460D02*
X296Y460D01*
X981Y460D02*
X988Y460D01*
X1146Y460D02*
X1152Y460D01*
X1197Y460D02*
X1204Y460D01*
X44Y459D02*
X50Y459D01*
X56Y459D02*
X61Y459D01*
X70Y459D02*
X76Y459D01*
X289Y459D02*
X296Y459D01*
X981Y459D02*
X988Y459D01*
X1146Y459D02*
X1152Y459D01*
X1197Y459D02*
X1204Y459D01*
X43Y458D02*
X49Y458D01*
X56Y458D02*
X61Y458D01*
X71Y458D02*
X76Y458D01*
X289Y458D02*
X296Y458D01*
X981Y458D02*
X988Y458D01*
X1146Y458D02*
X1152Y458D01*
X1197Y458D02*
X1204Y458D01*
X43Y457D02*
X49Y457D01*
X56Y457D02*
X61Y457D01*
X71Y457D02*
X77Y457D01*
X289Y457D02*
X296Y457D01*
X981Y457D02*
X988Y457D01*
X1146Y457D02*
X1152Y457D01*
X1197Y457D02*
X1204Y457D01*
X43Y456D02*
X48Y456D01*
X56Y456D02*
X61Y456D01*
X72Y456D02*
X77Y456D01*
X289Y456D02*
X296Y456D01*
X981Y456D02*
X988Y456D01*
X1146Y456D02*
X1152Y456D01*
X1197Y456D02*
X1204Y456D01*
X43Y455D02*
X48Y455D01*
X56Y455D02*
X61Y455D01*
X72Y455D02*
X77Y455D01*
X289Y455D02*
X296Y455D01*
X981Y455D02*
X988Y455D01*
X1146Y455D02*
X1152Y455D01*
X1197Y455D02*
X1204Y455D01*
X43Y454D02*
X48Y454D01*
X56Y454D02*
X61Y454D01*
X72Y454D02*
X77Y454D01*
X289Y454D02*
X296Y454D01*
X981Y454D02*
X988Y454D01*
X1146Y454D02*
X1152Y454D01*
X1197Y454D02*
X1204Y454D01*
X43Y453D02*
X48Y453D01*
X56Y453D02*
X61Y453D01*
X72Y453D02*
X77Y453D01*
X289Y453D02*
X296Y453D01*
X981Y453D02*
X988Y453D01*
X1146Y453D02*
X1152Y453D01*
X1197Y453D02*
X1204Y453D01*
X43Y452D02*
X48Y452D01*
X56Y452D02*
X61Y452D01*
X72Y452D02*
X77Y452D01*
X289Y452D02*
X296Y452D01*
X981Y452D02*
X988Y452D01*
X1146Y452D02*
X1152Y452D01*
X1197Y452D02*
X1204Y452D01*
X43Y451D02*
X48Y451D01*
X56Y451D02*
X61Y451D01*
X72Y451D02*
X77Y451D01*
X289Y451D02*
X296Y451D01*
X981Y451D02*
X988Y451D01*
X1146Y451D02*
X1152Y451D01*
X1197Y451D02*
X1204Y451D01*
X43Y450D02*
X48Y450D01*
X56Y450D02*
X61Y450D01*
X72Y450D02*
X77Y450D01*
X289Y450D02*
X296Y450D01*
X981Y450D02*
X988Y450D01*
X1146Y450D02*
X1204Y450D01*
X43Y449D02*
X48Y449D01*
X56Y449D02*
X61Y449D01*
X72Y449D02*
X77Y449D01*
X289Y449D02*
X296Y449D01*
X981Y449D02*
X988Y449D01*
X1146Y449D02*
X1203Y449D01*
X43Y448D02*
X48Y448D01*
X56Y448D02*
X61Y448D01*
X71Y448D02*
X77Y448D01*
X289Y448D02*
X296Y448D01*
X981Y448D02*
X988Y448D01*
X1146Y448D02*
X1203Y448D01*
X43Y447D02*
X48Y447D01*
X56Y447D02*
X61Y447D01*
X71Y447D02*
X77Y447D01*
X289Y447D02*
X296Y447D01*
X981Y447D02*
X988Y447D01*
X1146Y447D02*
X1203Y447D01*
X43Y446D02*
X48Y446D01*
X56Y446D02*
X61Y446D01*
X70Y446D02*
X76Y446D01*
X289Y446D02*
X296Y446D01*
X981Y446D02*
X988Y446D01*
X1147Y446D02*
X1202Y446D01*
X43Y445D02*
X48Y445D01*
X56Y445D02*
X61Y445D01*
X70Y445D02*
X76Y445D01*
X289Y445D02*
X296Y445D01*
X981Y445D02*
X988Y445D01*
X1148Y445D02*
X1201Y445D01*
X43Y444D02*
X48Y444D01*
X56Y444D02*
X61Y444D01*
X68Y444D02*
X75Y444D01*
X289Y444D02*
X296Y444D01*
X981Y444D02*
X988Y444D01*
X1149Y444D02*
X1200Y444D01*
X43Y443D02*
X48Y443D01*
X56Y443D02*
X75Y443D01*
X289Y443D02*
X296Y443D01*
X981Y443D02*
X988Y443D01*
X1151Y443D02*
X1198Y443D01*
X43Y442D02*
X48Y442D01*
X56Y442D02*
X74Y442D01*
X289Y442D02*
X296Y442D01*
X981Y442D02*
X988Y442D01*
X43Y441D02*
X48Y441D01*
X56Y441D02*
X73Y441D01*
X289Y441D02*
X296Y441D01*
X981Y441D02*
X988Y441D01*
X43Y440D02*
X48Y440D01*
X56Y440D02*
X72Y440D01*
X289Y440D02*
X296Y440D01*
X981Y440D02*
X988Y440D01*
X44Y439D02*
X48Y439D01*
X56Y439D02*
X71Y439D01*
X289Y439D02*
X296Y439D01*
X981Y439D02*
X988Y439D01*
X44Y438D02*
X47Y438D01*
X57Y438D02*
X69Y438D01*
X289Y438D02*
X296Y438D01*
X981Y438D02*
X988Y438D01*
X289Y437D02*
X296Y437D01*
X981Y437D02*
X988Y437D01*
X289Y436D02*
X296Y436D01*
X981Y436D02*
X988Y436D01*
X289Y435D02*
X296Y435D01*
X981Y435D02*
X988Y435D01*
X289Y434D02*
X296Y434D01*
X981Y434D02*
X988Y434D01*
X289Y433D02*
X296Y433D01*
X981Y433D02*
X988Y433D01*
X289Y432D02*
X296Y432D01*
X981Y432D02*
X988Y432D01*
X289Y431D02*
X296Y431D01*
X981Y431D02*
X988Y431D01*
X289Y430D02*
X296Y430D01*
X981Y430D02*
X988Y430D01*
X289Y429D02*
X296Y429D01*
X981Y429D02*
X988Y429D01*
X289Y428D02*
X296Y428D01*
X981Y428D02*
X988Y428D01*
X289Y427D02*
X296Y427D01*
X981Y427D02*
X988Y427D01*
X289Y426D02*
X296Y426D01*
X981Y426D02*
X988Y426D01*
X289Y425D02*
X296Y425D01*
X981Y425D02*
X988Y425D01*
X1150Y425D02*
X1199Y425D01*
X289Y424D02*
X296Y424D01*
X981Y424D02*
X988Y424D01*
X1149Y424D02*
X1201Y424D01*
X67Y423D02*
X75Y423D01*
X289Y423D02*
X296Y423D01*
X981Y423D02*
X988Y423D01*
X1147Y423D02*
X1202Y423D01*
X65Y422D02*
X76Y422D01*
X289Y422D02*
X296Y422D01*
X981Y422D02*
X988Y422D01*
X1147Y422D02*
X1202Y422D01*
X63Y421D02*
X77Y421D01*
X289Y421D02*
X296Y421D01*
X981Y421D02*
X988Y421D01*
X1146Y421D02*
X1203Y421D01*
X60Y420D02*
X77Y420D01*
X289Y420D02*
X296Y420D01*
X981Y420D02*
X988Y420D01*
X1146Y420D02*
X1203Y420D01*
X58Y419D02*
X76Y419D01*
X289Y419D02*
X296Y419D01*
X981Y419D02*
X988Y419D01*
X1146Y419D02*
X1203Y419D01*
X56Y418D02*
X75Y418D01*
X289Y418D02*
X296Y418D01*
X981Y418D02*
X988Y418D01*
X1146Y418D02*
X1204Y418D01*
X53Y417D02*
X68Y417D01*
X289Y417D02*
X296Y417D01*
X981Y417D02*
X988Y417D01*
X1146Y417D02*
X1152Y417D01*
X1197Y417D02*
X1204Y417D01*
X51Y416D02*
X65Y416D01*
X289Y416D02*
X296Y416D01*
X981Y416D02*
X988Y416D01*
X1146Y416D02*
X1152Y416D01*
X1197Y416D02*
X1204Y416D01*
X49Y415D02*
X63Y415D01*
X289Y415D02*
X296Y415D01*
X981Y415D02*
X988Y415D01*
X1146Y415D02*
X1152Y415D01*
X1197Y415D02*
X1204Y415D01*
X47Y414D02*
X61Y414D01*
X289Y414D02*
X296Y414D01*
X981Y414D02*
X988Y414D01*
X1146Y414D02*
X1152Y414D01*
X1197Y414D02*
X1204Y414D01*
X45Y413D02*
X59Y413D01*
X289Y413D02*
X296Y413D01*
X981Y413D02*
X988Y413D01*
X1146Y413D02*
X1152Y413D01*
X1197Y413D02*
X1204Y413D01*
X44Y412D02*
X56Y412D01*
X289Y412D02*
X296Y412D01*
X981Y412D02*
X988Y412D01*
X1146Y412D02*
X1152Y412D01*
X1197Y412D02*
X1204Y412D01*
X43Y411D02*
X54Y411D01*
X289Y411D02*
X296Y411D01*
X981Y411D02*
X988Y411D01*
X1146Y411D02*
X1152Y411D01*
X1197Y411D02*
X1204Y411D01*
X43Y410D02*
X52Y410D01*
X289Y410D02*
X296Y410D01*
X981Y410D02*
X988Y410D01*
X1146Y410D02*
X1152Y410D01*
X1197Y410D02*
X1204Y410D01*
X43Y409D02*
X49Y409D01*
X289Y409D02*
X296Y409D01*
X981Y409D02*
X988Y409D01*
X1146Y409D02*
X1152Y409D01*
X1197Y409D02*
X1204Y409D01*
X43Y408D02*
X50Y408D01*
X289Y408D02*
X296Y408D01*
X981Y408D02*
X988Y408D01*
X1146Y408D02*
X1152Y408D01*
X1197Y408D02*
X1204Y408D01*
X43Y407D02*
X52Y407D01*
X289Y407D02*
X296Y407D01*
X981Y407D02*
X988Y407D01*
X1146Y407D02*
X1152Y407D01*
X1197Y407D02*
X1204Y407D01*
X43Y406D02*
X55Y406D01*
X289Y406D02*
X296Y406D01*
X981Y406D02*
X988Y406D01*
X1146Y406D02*
X1152Y406D01*
X1197Y406D02*
X1204Y406D01*
X44Y405D02*
X57Y405D01*
X289Y405D02*
X296Y405D01*
X981Y405D02*
X988Y405D01*
X1146Y405D02*
X1152Y405D01*
X1197Y405D02*
X1204Y405D01*
X45Y404D02*
X59Y404D01*
X289Y404D02*
X296Y404D01*
X981Y404D02*
X988Y404D01*
X1146Y404D02*
X1152Y404D01*
X1197Y404D02*
X1204Y404D01*
X47Y403D02*
X61Y403D01*
X289Y403D02*
X296Y403D01*
X981Y403D02*
X988Y403D01*
X1146Y403D02*
X1152Y403D01*
X1197Y403D02*
X1204Y403D01*
X49Y402D02*
X64Y402D01*
X289Y402D02*
X296Y402D01*
X981Y402D02*
X988Y402D01*
X1146Y402D02*
X1152Y402D01*
X1197Y402D02*
X1204Y402D01*
X52Y401D02*
X66Y401D01*
X289Y401D02*
X296Y401D01*
X981Y401D02*
X988Y401D01*
X1146Y401D02*
X1152Y401D01*
X1197Y401D02*
X1204Y401D01*
X54Y400D02*
X68Y400D01*
X289Y400D02*
X296Y400D01*
X981Y400D02*
X988Y400D01*
X1146Y400D02*
X1152Y400D01*
X1197Y400D02*
X1204Y400D01*
X56Y399D02*
X75Y399D01*
X289Y399D02*
X296Y399D01*
X981Y399D02*
X988Y399D01*
X1146Y399D02*
X1152Y399D01*
X1197Y399D02*
X1204Y399D01*
X59Y398D02*
X76Y398D01*
X289Y398D02*
X296Y398D01*
X981Y398D02*
X988Y398D01*
X1146Y398D02*
X1152Y398D01*
X1197Y398D02*
X1204Y398D01*
X61Y397D02*
X77Y397D01*
X289Y397D02*
X296Y397D01*
X981Y397D02*
X988Y397D01*
X1146Y397D02*
X1152Y397D01*
X1197Y397D02*
X1204Y397D01*
X63Y396D02*
X77Y396D01*
X289Y396D02*
X296Y396D01*
X981Y396D02*
X988Y396D01*
X1146Y396D02*
X1152Y396D01*
X1197Y396D02*
X1204Y396D01*
X66Y395D02*
X76Y395D01*
X289Y395D02*
X296Y395D01*
X981Y395D02*
X988Y395D01*
X1146Y395D02*
X1203Y395D01*
X68Y394D02*
X75Y394D01*
X289Y394D02*
X296Y394D01*
X981Y394D02*
X988Y394D01*
X1146Y394D02*
X1203Y394D01*
X289Y393D02*
X296Y393D01*
X981Y393D02*
X988Y393D01*
X1146Y393D02*
X1203Y393D01*
X289Y392D02*
X296Y392D01*
X981Y392D02*
X988Y392D01*
X1146Y392D02*
X1203Y392D01*
X289Y391D02*
X296Y391D01*
X981Y391D02*
X988Y391D01*
X1147Y391D02*
X1202Y391D01*
X289Y390D02*
X296Y390D01*
X981Y390D02*
X988Y390D01*
X1148Y390D02*
X1201Y390D01*
X289Y389D02*
X296Y389D01*
X981Y389D02*
X988Y389D01*
X1149Y389D02*
X1200Y389D01*
X289Y388D02*
X296Y388D01*
X981Y388D02*
X988Y388D01*
X1153Y388D02*
X1196Y388D01*
X289Y387D02*
X296Y387D01*
X981Y387D02*
X988Y387D01*
X289Y386D02*
X296Y386D01*
X981Y386D02*
X988Y386D01*
X289Y385D02*
X296Y385D01*
X981Y385D02*
X988Y385D01*
X289Y384D02*
X296Y384D01*
X981Y384D02*
X988Y384D01*
X289Y383D02*
X296Y383D01*
X981Y383D02*
X988Y383D01*
X289Y382D02*
X296Y382D01*
X981Y382D02*
X988Y382D01*
X289Y381D02*
X296Y381D01*
X981Y381D02*
X988Y381D01*
X289Y380D02*
X296Y380D01*
X981Y380D02*
X988Y380D01*
X289Y379D02*
X296Y379D01*
X981Y379D02*
X988Y379D01*
X289Y378D02*
X296Y378D01*
X981Y378D02*
X988Y378D01*
X289Y377D02*
X296Y377D01*
X981Y377D02*
X988Y377D01*
X289Y376D02*
X296Y376D01*
X981Y376D02*
X988Y376D01*
X289Y375D02*
X296Y375D01*
X981Y375D02*
X988Y375D01*
X289Y374D02*
X296Y374D01*
X981Y374D02*
X988Y374D01*
X289Y373D02*
X296Y373D01*
X981Y373D02*
X988Y373D01*
X289Y372D02*
X296Y372D01*
X981Y372D02*
X988Y372D01*
X289Y371D02*
X296Y371D01*
X981Y371D02*
X988Y371D01*
X52Y370D02*
X60Y370D01*
X289Y370D02*
X296Y370D01*
X981Y370D02*
X988Y370D01*
X51Y369D02*
X61Y369D01*
X289Y369D02*
X296Y369D01*
X981Y369D02*
X988Y369D01*
X51Y368D02*
X61Y368D01*
X289Y368D02*
X296Y368D01*
X981Y368D02*
X988Y368D01*
X51Y367D02*
X61Y367D01*
X289Y367D02*
X296Y367D01*
X981Y367D02*
X988Y367D01*
X51Y366D02*
X61Y366D01*
X289Y366D02*
X296Y366D01*
X981Y366D02*
X988Y366D01*
X51Y365D02*
X61Y365D01*
X289Y365D02*
X296Y365D01*
X981Y365D02*
X988Y365D01*
X51Y364D02*
X61Y364D01*
X289Y364D02*
X296Y364D01*
X981Y364D02*
X988Y364D01*
X51Y363D02*
X61Y363D01*
X289Y363D02*
X296Y363D01*
X981Y363D02*
X988Y363D01*
X51Y362D02*
X61Y362D01*
X289Y362D02*
X296Y362D01*
X981Y362D02*
X988Y362D01*
X51Y361D02*
X61Y361D01*
X289Y361D02*
X296Y361D01*
X981Y361D02*
X988Y361D01*
X52Y360D02*
X61Y360D01*
X289Y360D02*
X296Y360D01*
X981Y360D02*
X988Y360D01*
X53Y359D02*
X59Y359D01*
X289Y359D02*
X296Y359D01*
X981Y359D02*
X988Y359D01*
X289Y358D02*
X296Y358D01*
X981Y358D02*
X988Y358D01*
X289Y357D02*
X296Y357D01*
X981Y357D02*
X988Y357D01*
X289Y356D02*
X296Y356D01*
X981Y356D02*
X988Y356D01*
X289Y355D02*
X296Y355D01*
X981Y355D02*
X988Y355D01*
X289Y354D02*
X296Y354D01*
X981Y354D02*
X988Y354D01*
X289Y353D02*
X296Y353D01*
X981Y353D02*
X988Y353D01*
X289Y352D02*
X296Y352D01*
X981Y352D02*
X988Y352D01*
X289Y351D02*
X296Y351D01*
X981Y351D02*
X988Y351D01*
X289Y350D02*
X296Y350D01*
X981Y350D02*
X988Y350D01*
X289Y349D02*
X296Y349D01*
X981Y349D02*
X988Y349D01*
X289Y348D02*
X296Y348D01*
X981Y348D02*
X988Y348D01*
X289Y347D02*
X296Y347D01*
X981Y347D02*
X988Y347D01*
X289Y346D02*
X296Y346D01*
X981Y346D02*
X988Y346D01*
X289Y345D02*
X296Y345D01*
X981Y345D02*
X988Y345D01*
X289Y344D02*
X296Y344D01*
X981Y344D02*
X988Y344D01*
X289Y343D02*
X296Y343D01*
X981Y343D02*
X988Y343D01*
X289Y342D02*
X296Y342D01*
X981Y342D02*
X988Y342D01*
X289Y341D02*
X296Y341D01*
X981Y341D02*
X988Y341D01*
X289Y340D02*
X296Y340D01*
X981Y340D02*
X988Y340D01*
X289Y339D02*
X296Y339D01*
X981Y339D02*
X988Y339D01*
X289Y338D02*
X296Y338D01*
X981Y338D02*
X988Y338D01*
X289Y337D02*
X296Y337D01*
X981Y337D02*
X988Y337D01*
X44Y336D02*
X64Y336D01*
X87Y336D02*
X87Y336D01*
X289Y336D02*
X296Y336D01*
X981Y336D02*
X988Y336D01*
X43Y335D02*
X66Y335D01*
X85Y335D02*
X89Y335D01*
X289Y335D02*
X296Y335D01*
X981Y335D02*
X988Y335D01*
X43Y334D02*
X67Y334D01*
X85Y334D02*
X89Y334D01*
X289Y334D02*
X296Y334D01*
X981Y334D02*
X988Y334D01*
X43Y333D02*
X68Y333D01*
X84Y333D02*
X89Y333D01*
X289Y333D02*
X296Y333D01*
X980Y333D02*
X985Y333D01*
X43Y332D02*
X69Y332D01*
X84Y332D02*
X89Y332D01*
X289Y332D02*
X296Y332D01*
X979Y332D02*
X986Y332D01*
X43Y331D02*
X69Y331D01*
X84Y331D02*
X89Y331D01*
X289Y331D02*
X296Y331D01*
X978Y331D02*
X987Y331D01*
X43Y330D02*
X49Y330D01*
X63Y330D02*
X69Y330D01*
X84Y330D02*
X89Y330D01*
X289Y330D02*
X296Y330D01*
X977Y330D02*
X987Y330D01*
X43Y329D02*
X48Y329D01*
X64Y329D02*
X69Y329D01*
X84Y329D02*
X89Y329D01*
X289Y329D02*
X296Y329D01*
X976Y329D02*
X986Y329D01*
X43Y328D02*
X48Y328D01*
X64Y328D02*
X69Y328D01*
X84Y328D02*
X89Y328D01*
X289Y328D02*
X296Y328D01*
X975Y328D02*
X985Y328D01*
X43Y327D02*
X48Y327D01*
X64Y327D02*
X69Y327D01*
X84Y327D02*
X89Y327D01*
X289Y327D02*
X296Y327D01*
X975Y327D02*
X984Y327D01*
X43Y326D02*
X48Y326D01*
X64Y326D02*
X69Y326D01*
X84Y326D02*
X89Y326D01*
X289Y326D02*
X296Y326D01*
X974Y326D02*
X983Y326D01*
X43Y325D02*
X48Y325D01*
X64Y325D02*
X69Y325D01*
X84Y325D02*
X89Y325D01*
X289Y325D02*
X296Y325D01*
X973Y325D02*
X982Y325D01*
X43Y324D02*
X48Y324D01*
X64Y324D02*
X69Y324D01*
X84Y324D02*
X89Y324D01*
X289Y324D02*
X296Y324D01*
X972Y324D02*
X982Y324D01*
X43Y323D02*
X48Y323D01*
X64Y323D02*
X69Y323D01*
X84Y323D02*
X89Y323D01*
X289Y323D02*
X296Y323D01*
X971Y323D02*
X981Y323D01*
X43Y322D02*
X48Y322D01*
X64Y322D02*
X69Y322D01*
X84Y322D02*
X89Y322D01*
X289Y322D02*
X296Y322D01*
X970Y322D02*
X980Y322D01*
X43Y321D02*
X48Y321D01*
X64Y321D02*
X69Y321D01*
X84Y321D02*
X89Y321D01*
X289Y321D02*
X296Y321D01*
X969Y321D02*
X979Y321D01*
X43Y320D02*
X48Y320D01*
X64Y320D02*
X69Y320D01*
X84Y320D02*
X89Y320D01*
X289Y320D02*
X297Y320D01*
X968Y320D02*
X978Y320D01*
X43Y319D02*
X48Y319D01*
X64Y319D02*
X69Y319D01*
X84Y319D02*
X89Y319D01*
X289Y319D02*
X339Y319D01*
X792Y319D02*
X977Y319D01*
X43Y318D02*
X48Y318D01*
X64Y318D02*
X69Y318D01*
X84Y318D02*
X89Y318D01*
X289Y318D02*
X340Y318D01*
X791Y318D02*
X976Y318D01*
X43Y317D02*
X48Y317D01*
X64Y317D02*
X69Y317D01*
X84Y317D02*
X89Y317D01*
X289Y317D02*
X341Y317D01*
X790Y317D02*
X976Y317D01*
X43Y316D02*
X48Y316D01*
X64Y316D02*
X69Y316D01*
X84Y316D02*
X89Y316D01*
X289Y316D02*
X342Y316D01*
X789Y316D02*
X975Y316D01*
X43Y315D02*
X48Y315D01*
X64Y315D02*
X69Y315D01*
X84Y315D02*
X89Y315D01*
X289Y315D02*
X343Y315D01*
X788Y315D02*
X974Y315D01*
X43Y314D02*
X48Y314D01*
X64Y314D02*
X69Y314D01*
X84Y314D02*
X89Y314D01*
X289Y314D02*
X344Y314D01*
X787Y314D02*
X973Y314D01*
X43Y313D02*
X48Y313D01*
X64Y313D02*
X69Y313D01*
X84Y313D02*
X89Y313D01*
X289Y313D02*
X345Y313D01*
X786Y313D02*
X972Y313D01*
X43Y312D02*
X48Y312D01*
X64Y312D02*
X89Y312D01*
X290Y312D02*
X346Y312D01*
X785Y312D02*
X971Y312D01*
X43Y311D02*
X48Y311D01*
X64Y311D02*
X89Y311D01*
X337Y311D02*
X347Y311D01*
X784Y311D02*
X795Y311D01*
X43Y310D02*
X48Y310D01*
X64Y310D02*
X89Y310D01*
X338Y310D02*
X348Y310D01*
X783Y310D02*
X794Y310D01*
X43Y309D02*
X48Y309D01*
X65Y309D02*
X88Y309D01*
X339Y309D02*
X349Y309D01*
X782Y309D02*
X793Y309D01*
X43Y308D02*
X48Y308D01*
X66Y308D02*
X88Y308D01*
X340Y308D02*
X350Y308D01*
X781Y308D02*
X792Y308D01*
X44Y307D02*
X47Y307D01*
X67Y307D02*
X86Y307D01*
X341Y307D02*
X351Y307D01*
X780Y307D02*
X791Y307D01*
X70Y306D02*
X84Y306D01*
X342Y306D02*
X352Y306D01*
X779Y306D02*
X790Y306D01*
X343Y305D02*
X353Y305D01*
X778Y305D02*
X789Y305D01*
X344Y304D02*
X354Y304D01*
X778Y304D02*
X788Y304D01*
X345Y303D02*
X355Y303D01*
X777Y303D02*
X787Y303D01*
X346Y302D02*
X356Y302D01*
X776Y302D02*
X786Y302D01*
X347Y301D02*
X357Y301D01*
X775Y301D02*
X785Y301D01*
X348Y300D02*
X358Y300D01*
X774Y300D02*
X784Y300D01*
X349Y299D02*
X359Y299D01*
X773Y299D02*
X783Y299D01*
X350Y298D02*
X360Y298D01*
X772Y298D02*
X782Y298D01*
X351Y297D02*
X361Y297D01*
X771Y297D02*
X781Y297D01*
X352Y296D02*
X362Y296D01*
X770Y296D02*
X780Y296D01*
X353Y295D02*
X363Y295D01*
X769Y295D02*
X779Y295D01*
X354Y294D02*
X364Y294D01*
X768Y294D02*
X778Y294D01*
X355Y293D02*
X365Y293D01*
X767Y293D02*
X777Y293D01*
X356Y292D02*
X366Y292D01*
X766Y292D02*
X776Y292D01*
X357Y291D02*
X367Y291D01*
X765Y291D02*
X775Y291D01*
X358Y290D02*
X368Y290D01*
X764Y290D02*
X774Y290D01*
X359Y289D02*
X369Y289D01*
X763Y289D02*
X773Y289D01*
X360Y288D02*
X370Y288D01*
X762Y288D02*
X772Y288D01*
X361Y287D02*
X371Y287D01*
X761Y287D02*
X771Y287D01*
X362Y286D02*
X372Y286D01*
X760Y286D02*
X770Y286D01*
X363Y285D02*
X373Y285D01*
X759Y285D02*
X769Y285D01*
X364Y284D02*
X374Y284D01*
X758Y284D02*
X768Y284D01*
X365Y283D02*
X375Y283D01*
X757Y283D02*
X767Y283D01*
X366Y282D02*
X376Y282D01*
X756Y282D02*
X766Y282D01*
X367Y281D02*
X377Y281D01*
X755Y281D02*
X765Y281D01*
X368Y280D02*
X378Y280D01*
X754Y280D02*
X764Y280D01*
X369Y279D02*
X379Y279D01*
X753Y279D02*
X763Y279D01*
X370Y278D02*
X380Y278D01*
X752Y278D02*
X762Y278D01*
X371Y277D02*
X381Y277D01*
X751Y277D02*
X761Y277D01*
X372Y276D02*
X382Y276D01*
X750Y276D02*
X760Y276D01*
X373Y275D02*
X383Y275D01*
X749Y275D02*
X759Y275D01*
X374Y274D02*
X384Y274D01*
X748Y274D02*
X758Y274D01*
X375Y273D02*
X385Y273D01*
X747Y273D02*
X757Y273D01*
X376Y272D02*
X386Y272D01*
X746Y272D02*
X756Y272D01*
X377Y271D02*
X387Y271D01*
X745Y271D02*
X755Y271D01*
X378Y270D02*
X754Y270D01*
X379Y269D02*
X753Y269D01*
X380Y268D02*
X752Y268D01*
X381Y267D02*
X751Y267D01*
X382Y266D02*
X750Y266D01*
X383Y265D02*
X749Y265D01*
X384Y264D02*
X748Y264D01*
X385Y263D02*
X747Y263D01*
X902Y213D02*
X920Y213D01*
X901Y212D02*
X920Y212D01*
X900Y211D02*
X920Y211D01*
X900Y210D02*
X920Y210D01*
X901Y209D02*
X920Y209D01*
X901Y208D02*
X920Y208D01*
X902Y207D02*
X920Y207D01*
X914Y206D02*
X920Y206D01*
X914Y205D02*
X920Y205D01*
X914Y204D02*
X920Y204D01*
X914Y203D02*
X920Y203D01*
X914Y202D02*
X920Y202D01*
X914Y201D02*
X920Y201D01*
X914Y200D02*
X920Y200D01*
X914Y199D02*
X920Y199D01*
X914Y198D02*
X920Y198D01*
X914Y197D02*
X920Y197D01*
X914Y196D02*
X920Y196D01*
X914Y195D02*
X920Y195D01*
X914Y194D02*
X920Y194D01*
X914Y193D02*
X920Y193D01*
X914Y192D02*
X920Y192D01*
X914Y191D02*
X920Y191D01*
X914Y190D02*
X920Y190D01*
X914Y189D02*
X920Y189D01*
X914Y188D02*
X920Y188D01*
X914Y187D02*
X920Y187D01*
X914Y186D02*
X920Y186D01*
X914Y185D02*
X920Y185D01*
X914Y184D02*
X920Y184D01*
X931Y184D02*
X931Y184D01*
X914Y183D02*
X920Y183D01*
X929Y183D02*
X933Y183D01*
X914Y182D02*
X920Y182D01*
X928Y182D02*
X934Y182D01*
X914Y181D02*
X920Y181D01*
X928Y181D02*
X934Y181D01*
X914Y180D02*
X920Y180D01*
X928Y180D02*
X934Y180D01*
X914Y179D02*
X920Y179D01*
X928Y179D02*
X934Y179D01*
X914Y178D02*
X920Y178D01*
X928Y178D02*
X934Y178D01*
X914Y177D02*
X920Y177D01*
X928Y177D02*
X934Y177D01*
X914Y176D02*
X920Y176D01*
X928Y176D02*
X934Y176D01*
X914Y175D02*
X920Y175D01*
X928Y175D02*
X934Y175D01*
X914Y174D02*
X920Y174D01*
X928Y174D02*
X934Y174D01*
X914Y173D02*
X920Y173D01*
X928Y173D02*
X934Y173D01*
X914Y172D02*
X920Y172D01*
X928Y172D02*
X934Y172D01*
X914Y171D02*
X920Y171D01*
X928Y171D02*
X934Y171D01*
X914Y170D02*
X920Y170D01*
X928Y170D02*
X934Y170D01*
X914Y169D02*
X920Y169D01*
X928Y169D02*
X934Y169D01*
X914Y168D02*
X920Y168D01*
X928Y168D02*
X934Y168D01*
X914Y167D02*
X920Y167D01*
X928Y167D02*
X934Y167D01*
X902Y166D02*
X934Y166D01*
X901Y165D02*
X934Y165D01*
X900Y164D02*
X934Y164D01*
X900Y163D02*
X934Y163D01*
X900Y162D02*
X934Y162D01*
X901Y161D02*
X933Y161D01*
X902Y160D02*
X932Y160D01*
D02*
G04 End of Silk1*
M02*