G04 MADE WITH FRITZING*
G04 WWW.FRITZING.ORG*
G04 DOUBLE SIDED*
G04 HOLES PLATED*
G04 CONTOUR ON CENTER OF CONTOUR VECTOR*
%ASAXBY*%
%FSLAX23Y23*%
%MOIN*%
%OFA0B0*%
%SFA1.0B1.0*%
%ADD10C,0.082000*%
%ADD11C,0.075000*%
%ADD12C,0.074000*%
%ADD13C,0.039370*%
%ADD14C,0.070925*%
%ADD15C,0.070866*%
%ADD16C,0.078000*%
%ADD17R,0.082000X0.082000*%
%ADD18R,0.075000X0.075000*%
%ADD19C,0.024000*%
%ADD20R,0.001000X0.001000*%
%LNCOPPER0*%
G90*
G70*
G54D10*
X1933Y1068D03*
X1635Y1068D03*
X1933Y968D03*
X1635Y968D03*
G54D11*
X2033Y1068D03*
X2333Y1068D03*
X2033Y968D03*
X2333Y968D03*
G54D12*
X2633Y1418D03*
X2633Y1318D03*
X2633Y1218D03*
G54D11*
X2583Y868D03*
X2683Y868D03*
G54D13*
X1531Y269D03*
X1633Y167D03*
X2033Y568D03*
X1483Y768D03*
G54D11*
X2733Y368D03*
X2733Y68D03*
X2633Y368D03*
X2633Y68D03*
X2533Y368D03*
X2533Y68D03*
X2433Y368D03*
X2433Y68D03*
X2333Y368D03*
X2333Y68D03*
X2233Y368D03*
X2233Y68D03*
X2133Y368D03*
X2133Y68D03*
X2033Y368D03*
X2033Y68D03*
X1933Y368D03*
X1933Y68D03*
X1833Y368D03*
X1833Y68D03*
X1733Y368D03*
X1733Y68D03*
X1633Y368D03*
X1633Y68D03*
X1083Y1468D03*
X1383Y1468D03*
X1083Y1368D03*
X1383Y1368D03*
X1083Y1268D03*
X1383Y1268D03*
X1083Y1168D03*
X1383Y1168D03*
X1083Y1068D03*
X1383Y1068D03*
X1083Y968D03*
X1383Y968D03*
X1083Y868D03*
X1383Y868D03*
X1083Y768D03*
X1383Y768D03*
X1083Y668D03*
X1383Y668D03*
X1083Y568D03*
X1383Y568D03*
X1083Y468D03*
X1383Y468D03*
X1083Y368D03*
X1383Y368D03*
X1083Y268D03*
X1383Y268D03*
X1083Y168D03*
X1383Y168D03*
X233Y1468D03*
X833Y1468D03*
X233Y1368D03*
X833Y1368D03*
X233Y1268D03*
X833Y1268D03*
X233Y1168D03*
X833Y1168D03*
X233Y1068D03*
X833Y1068D03*
X233Y968D03*
X833Y968D03*
X233Y868D03*
X833Y868D03*
X233Y768D03*
X833Y768D03*
X233Y668D03*
X833Y668D03*
X233Y568D03*
X833Y568D03*
X233Y468D03*
X833Y468D03*
X233Y368D03*
X833Y368D03*
G54D10*
X383Y168D03*
X283Y168D03*
X183Y168D03*
G54D14*
X640Y168D03*
G54D15*
X833Y168D03*
G54D11*
X1633Y1318D03*
X1633Y1618D03*
X1733Y1318D03*
X1733Y1618D03*
X1833Y1318D03*
X1833Y1618D03*
X1933Y1318D03*
X1933Y1618D03*
X2033Y1318D03*
X2033Y1618D03*
X2133Y1318D03*
X2133Y1618D03*
X2233Y1318D03*
X2233Y1618D03*
X2333Y1318D03*
X2333Y1618D03*
G54D16*
X733Y1518D03*
G54D17*
X1934Y1068D03*
X1934Y968D03*
G54D18*
X2583Y868D03*
X2733Y368D03*
X1083Y1468D03*
X233Y1468D03*
G54D17*
X383Y168D03*
G54D18*
X1633Y1318D03*
G54D19*
X2733Y869D02*
X2712Y869D01*
D02*
X2733Y1418D02*
X2733Y869D01*
D02*
X2664Y1418D02*
X2733Y1418D01*
D02*
X1533Y1518D02*
X1531Y288D01*
D02*
X2733Y866D02*
X2712Y867D01*
D02*
X2733Y1066D02*
X2733Y866D01*
D02*
X2484Y1069D02*
X2733Y1066D01*
D02*
X2484Y1468D02*
X2484Y1069D01*
D02*
X1633Y1468D02*
X2484Y1468D01*
D02*
X1633Y1346D02*
X1633Y1468D01*
D02*
X1482Y1266D02*
X1483Y1718D01*
D02*
X1483Y1718D02*
X2534Y1718D01*
D02*
X2533Y1317D02*
X2602Y1317D01*
D02*
X2534Y1718D02*
X2533Y1317D01*
D02*
X1412Y1267D02*
X1482Y1266D01*
D02*
X2232Y1518D02*
X1533Y1518D01*
D02*
X2233Y1589D02*
X2232Y1518D01*
D02*
X2633Y167D02*
X1652Y167D01*
D02*
X2633Y96D02*
X2633Y167D01*
D02*
X984Y69D02*
X1484Y69D01*
D02*
X284Y69D02*
X984Y69D01*
D02*
X284Y136D02*
X284Y69D01*
D02*
X983Y869D02*
X1055Y868D01*
D02*
X984Y69D02*
X983Y869D01*
D02*
X1484Y218D02*
X1484Y69D01*
D02*
X1484Y667D02*
X1484Y218D01*
D02*
X1412Y668D02*
X1484Y667D01*
D02*
X2735Y218D02*
X2734Y96D01*
D02*
X1484Y218D02*
X2735Y218D01*
D02*
X2235Y218D02*
X2233Y339D01*
D02*
X1484Y218D02*
X2235Y218D01*
D02*
X2235Y218D02*
X2531Y218D01*
D02*
X2531Y218D02*
X2533Y339D01*
D02*
X1484Y218D02*
X2235Y218D01*
D02*
X1484Y967D02*
X1483Y787D01*
D02*
X1412Y968D02*
X1484Y967D01*
D02*
X2132Y1219D02*
X1733Y1219D01*
D02*
X1733Y1219D02*
X1733Y396D01*
D02*
X2133Y1289D02*
X2132Y1219D01*
D02*
X2033Y549D02*
X2033Y396D01*
D02*
X131Y1666D02*
X131Y1318D01*
D02*
X131Y1318D02*
X208Y1280D01*
D02*
X1236Y1666D02*
X131Y1666D01*
D02*
X81Y1268D02*
X209Y1183D01*
D02*
X81Y1716D02*
X81Y1268D01*
D02*
X1285Y1716D02*
X81Y1716D01*
D02*
X236Y1616D02*
X234Y1496D01*
D02*
X1181Y1616D02*
X236Y1616D01*
D02*
X275Y199D02*
X240Y340D01*
D02*
X1055Y1468D02*
X932Y1467D01*
D02*
X932Y1467D02*
X932Y567D01*
D02*
X932Y567D02*
X862Y567D01*
D02*
X1285Y567D02*
X1285Y1716D01*
D02*
X1355Y567D02*
X1285Y567D01*
D02*
X1236Y467D02*
X1236Y1666D01*
D02*
X1355Y468D02*
X1236Y467D01*
D02*
X1181Y268D02*
X1181Y1616D01*
D02*
X1355Y268D02*
X1181Y268D01*
D02*
X733Y368D02*
X262Y368D01*
D02*
X733Y1488D02*
X733Y368D01*
G54D20*
X2596Y1455D02*
X2669Y1455D01*
X2596Y1454D02*
X2669Y1454D01*
X2596Y1453D02*
X2669Y1453D01*
X2596Y1452D02*
X2669Y1452D01*
X2596Y1451D02*
X2669Y1451D01*
X2596Y1450D02*
X2669Y1450D01*
X2596Y1449D02*
X2669Y1449D01*
X2596Y1448D02*
X2669Y1448D01*
X2596Y1447D02*
X2669Y1447D01*
X2596Y1446D02*
X2669Y1446D01*
X2596Y1445D02*
X2669Y1445D01*
X2596Y1444D02*
X2669Y1444D01*
X2596Y1443D02*
X2669Y1443D01*
X2596Y1442D02*
X2669Y1442D01*
X2596Y1441D02*
X2669Y1441D01*
X2596Y1440D02*
X2669Y1440D01*
X2596Y1439D02*
X2669Y1439D01*
X2596Y1438D02*
X2628Y1438D01*
X2637Y1438D02*
X2669Y1438D01*
X2596Y1437D02*
X2625Y1437D01*
X2640Y1437D02*
X2669Y1437D01*
X2596Y1436D02*
X2622Y1436D01*
X2642Y1436D02*
X2669Y1436D01*
X2596Y1435D02*
X2621Y1435D01*
X2644Y1435D02*
X2669Y1435D01*
X2596Y1434D02*
X2619Y1434D01*
X2645Y1434D02*
X2669Y1434D01*
X2596Y1433D02*
X2618Y1433D01*
X2647Y1433D02*
X2669Y1433D01*
X2596Y1432D02*
X2617Y1432D01*
X2648Y1432D02*
X2669Y1432D01*
X2596Y1431D02*
X2616Y1431D01*
X2648Y1431D02*
X2669Y1431D01*
X2596Y1430D02*
X2616Y1430D01*
X2649Y1430D02*
X2669Y1430D01*
X2596Y1429D02*
X2615Y1429D01*
X2650Y1429D02*
X2669Y1429D01*
X2596Y1428D02*
X2614Y1428D01*
X2650Y1428D02*
X2669Y1428D01*
X2596Y1427D02*
X2614Y1427D01*
X2651Y1427D02*
X2669Y1427D01*
X2596Y1426D02*
X2613Y1426D01*
X2651Y1426D02*
X2669Y1426D01*
X2596Y1425D02*
X2613Y1425D01*
X2652Y1425D02*
X2669Y1425D01*
X2596Y1424D02*
X2613Y1424D01*
X2652Y1424D02*
X2669Y1424D01*
X2596Y1423D02*
X2612Y1423D01*
X2652Y1423D02*
X2669Y1423D01*
X2596Y1422D02*
X2612Y1422D01*
X2653Y1422D02*
X2669Y1422D01*
X2596Y1421D02*
X2612Y1421D01*
X2653Y1421D02*
X2669Y1421D01*
X2596Y1420D02*
X2612Y1420D01*
X2653Y1420D02*
X2669Y1420D01*
X2596Y1419D02*
X2612Y1419D01*
X2653Y1419D02*
X2669Y1419D01*
X2596Y1418D02*
X2612Y1418D01*
X2653Y1418D02*
X2669Y1418D01*
X2596Y1417D02*
X2612Y1417D01*
X2653Y1417D02*
X2669Y1417D01*
X2596Y1416D02*
X2612Y1416D01*
X2653Y1416D02*
X2669Y1416D01*
X2596Y1415D02*
X2612Y1415D01*
X2653Y1415D02*
X2669Y1415D01*
X2596Y1414D02*
X2612Y1414D01*
X2652Y1414D02*
X2669Y1414D01*
X2596Y1413D02*
X2613Y1413D01*
X2652Y1413D02*
X2669Y1413D01*
X2596Y1412D02*
X2613Y1412D01*
X2652Y1412D02*
X2669Y1412D01*
X2596Y1411D02*
X2613Y1411D01*
X2651Y1411D02*
X2669Y1411D01*
X2596Y1410D02*
X2614Y1410D01*
X2651Y1410D02*
X2669Y1410D01*
X2596Y1409D02*
X2614Y1409D01*
X2651Y1409D02*
X2669Y1409D01*
X2596Y1408D02*
X2615Y1408D01*
X2650Y1408D02*
X2669Y1408D01*
X2596Y1407D02*
X2616Y1407D01*
X2649Y1407D02*
X2669Y1407D01*
X2596Y1406D02*
X2616Y1406D01*
X2649Y1406D02*
X2669Y1406D01*
X2596Y1405D02*
X2617Y1405D01*
X2648Y1405D02*
X2669Y1405D01*
X2596Y1404D02*
X2618Y1404D01*
X2647Y1404D02*
X2669Y1404D01*
X2596Y1403D02*
X2619Y1403D01*
X2646Y1403D02*
X2669Y1403D01*
X2596Y1402D02*
X2621Y1402D01*
X2644Y1402D02*
X2669Y1402D01*
X2596Y1401D02*
X2622Y1401D01*
X2643Y1401D02*
X2669Y1401D01*
X2596Y1400D02*
X2624Y1400D01*
X2641Y1400D02*
X2669Y1400D01*
X2596Y1399D02*
X2627Y1399D01*
X2638Y1399D02*
X2669Y1399D01*
X2596Y1398D02*
X2669Y1398D01*
X2596Y1397D02*
X2669Y1397D01*
X2596Y1396D02*
X2669Y1396D01*
X2596Y1395D02*
X2669Y1395D01*
X2596Y1394D02*
X2669Y1394D01*
X2596Y1393D02*
X2669Y1393D01*
X2596Y1392D02*
X2669Y1392D01*
X2596Y1391D02*
X2669Y1391D01*
X2596Y1390D02*
X2669Y1390D01*
X2596Y1389D02*
X2669Y1389D01*
X2596Y1388D02*
X2669Y1388D01*
X2596Y1387D02*
X2669Y1387D01*
X2596Y1386D02*
X2669Y1386D01*
X2596Y1385D02*
X2669Y1385D01*
X2596Y1384D02*
X2669Y1384D01*
X2596Y1383D02*
X2669Y1383D01*
X2596Y1382D02*
X2669Y1382D01*
D02*
G04 End of Copper0*
M02*