G04 MADE WITH FRITZING*
G04 WWW.FRITZING.ORG*
G04 DOUBLE SIDED*
G04 HOLES PLATED*
G04 CONTOUR ON CENTER OF CONTOUR VECTOR*
%ASAXBY*%
%FSLAX23Y23*%
%MOIN*%
%OFA0B0*%
%SFA1.0B1.0*%
%ADD10C,0.074000*%
%ADD11C,0.200000*%
%ADD12C,0.067559*%
%ADD13R,0.067559X0.067559*%
%ADD14C,0.024000*%
%ADD15R,0.001000X0.001000*%
%LNCOPPER1*%
G90*
G70*
G54D10*
X844Y226D03*
X735Y226D03*
X626Y226D03*
X517Y226D03*
X407Y226D03*
X789Y114D03*
X680Y114D03*
X571Y114D03*
X462Y114D03*
G54D11*
X1118Y170D03*
X133Y170D03*
G54D10*
X844Y226D03*
X735Y226D03*
X626Y226D03*
X517Y226D03*
X407Y226D03*
X789Y114D03*
X680Y114D03*
X571Y114D03*
X462Y114D03*
G54D11*
X1118Y170D03*
X133Y170D03*
G54D12*
X767Y476D03*
X467Y476D03*
X767Y576D03*
X467Y576D03*
X767Y676D03*
X467Y676D03*
X767Y776D03*
X467Y776D03*
X767Y876D03*
X467Y876D03*
X767Y976D03*
X467Y976D03*
X767Y1076D03*
X467Y1076D03*
X767Y1176D03*
X467Y1176D03*
G54D13*
X766Y476D03*
G54D14*
X538Y248D02*
X749Y459D01*
D02*
X615Y27D02*
X317Y27D01*
D02*
X317Y27D02*
X317Y1077D01*
D02*
X317Y1077D02*
X442Y1076D01*
D02*
X661Y89D02*
X615Y27D01*
D02*
X567Y376D02*
X567Y677D01*
D02*
X567Y677D02*
X742Y676D01*
D02*
X430Y247D02*
X567Y376D01*
G54D15*
X807Y263D02*
X880Y263D01*
X807Y262D02*
X880Y262D01*
X807Y261D02*
X880Y261D01*
X807Y260D02*
X880Y260D01*
X807Y259D02*
X880Y259D01*
X807Y258D02*
X880Y258D01*
X807Y257D02*
X880Y257D01*
X807Y256D02*
X880Y256D01*
X807Y255D02*
X880Y255D01*
X807Y254D02*
X880Y254D01*
X807Y253D02*
X880Y253D01*
X807Y252D02*
X880Y252D01*
X807Y251D02*
X880Y251D01*
X807Y250D02*
X880Y250D01*
X807Y249D02*
X880Y249D01*
X807Y248D02*
X880Y248D01*
X807Y247D02*
X880Y247D01*
X807Y246D02*
X837Y246D01*
X849Y246D02*
X880Y246D01*
X807Y245D02*
X834Y245D01*
X852Y245D02*
X880Y245D01*
X807Y244D02*
X833Y244D01*
X854Y244D02*
X880Y244D01*
X807Y243D02*
X831Y243D01*
X855Y243D02*
X880Y243D01*
X807Y242D02*
X830Y242D01*
X856Y242D02*
X880Y242D01*
X807Y241D02*
X829Y241D01*
X858Y241D02*
X880Y241D01*
X807Y240D02*
X828Y240D01*
X858Y240D02*
X880Y240D01*
X807Y239D02*
X827Y239D01*
X859Y239D02*
X880Y239D01*
X807Y238D02*
X826Y238D01*
X860Y238D02*
X880Y238D01*
X807Y237D02*
X825Y237D01*
X861Y237D02*
X880Y237D01*
X807Y236D02*
X825Y236D01*
X861Y236D02*
X880Y236D01*
X807Y235D02*
X824Y235D01*
X862Y235D02*
X880Y235D01*
X807Y234D02*
X824Y234D01*
X862Y234D02*
X880Y234D01*
X807Y233D02*
X824Y233D01*
X862Y233D02*
X880Y233D01*
X807Y232D02*
X823Y232D01*
X863Y232D02*
X880Y232D01*
X807Y231D02*
X823Y231D01*
X863Y231D02*
X880Y231D01*
X807Y230D02*
X823Y230D01*
X863Y230D02*
X880Y230D01*
X807Y229D02*
X823Y229D01*
X863Y229D02*
X880Y229D01*
X807Y228D02*
X823Y228D01*
X863Y228D02*
X880Y228D01*
X807Y227D02*
X823Y227D01*
X863Y227D02*
X880Y227D01*
X807Y226D02*
X823Y226D01*
X863Y226D02*
X880Y226D01*
X807Y225D02*
X823Y225D01*
X863Y225D02*
X880Y225D01*
X807Y224D02*
X823Y224D01*
X863Y224D02*
X880Y224D01*
X807Y223D02*
X823Y223D01*
X863Y223D02*
X880Y223D01*
X807Y222D02*
X823Y222D01*
X863Y222D02*
X880Y222D01*
X807Y221D02*
X823Y221D01*
X863Y221D02*
X880Y221D01*
X807Y220D02*
X824Y220D01*
X862Y220D02*
X880Y220D01*
X807Y219D02*
X824Y219D01*
X862Y219D02*
X880Y219D01*
X807Y218D02*
X825Y218D01*
X861Y218D02*
X880Y218D01*
X807Y217D02*
X825Y217D01*
X861Y217D02*
X880Y217D01*
X807Y216D02*
X826Y216D01*
X860Y216D02*
X880Y216D01*
X807Y215D02*
X826Y215D01*
X860Y215D02*
X880Y215D01*
X807Y214D02*
X827Y214D01*
X859Y214D02*
X880Y214D01*
X807Y213D02*
X828Y213D01*
X858Y213D02*
X880Y213D01*
X807Y212D02*
X829Y212D01*
X857Y212D02*
X880Y212D01*
X807Y211D02*
X830Y211D01*
X856Y211D02*
X880Y211D01*
X807Y210D02*
X832Y210D01*
X854Y210D02*
X880Y210D01*
X807Y209D02*
X834Y209D01*
X853Y209D02*
X880Y209D01*
X807Y208D02*
X836Y208D01*
X850Y208D02*
X880Y208D01*
X807Y207D02*
X840Y207D01*
X846Y207D02*
X880Y207D01*
X807Y206D02*
X880Y206D01*
X807Y205D02*
X880Y205D01*
X807Y204D02*
X880Y204D01*
X807Y203D02*
X880Y203D01*
X807Y202D02*
X880Y202D01*
X807Y201D02*
X880Y201D01*
X807Y200D02*
X880Y200D01*
X807Y199D02*
X880Y199D01*
X807Y198D02*
X880Y198D01*
X807Y197D02*
X880Y197D01*
X807Y196D02*
X880Y196D01*
X807Y195D02*
X880Y195D01*
X807Y194D02*
X880Y194D01*
X807Y193D02*
X880Y193D01*
X807Y192D02*
X880Y192D01*
X807Y191D02*
X880Y191D01*
X807Y190D02*
X879Y190D01*
D02*
G04 End of Copper1*
M02*