; NON-PLATED HOLES START AT T1
; THROUGH (PLATED) HOLES START AT T100
M48
INCH
T1C0.125984
T100C0.027559
T101C0.130000
T102C0.040000
%
T1
X001165Y011262
X011165Y011262
T100
X007665Y010762
X004665Y009762
X007665Y007762
X007665Y011762
X007665Y008762
X004665Y004762
X007665Y009762
X004665Y005762
X004665Y006762
X007665Y004762
X004665Y010762
X004665Y007762
X007665Y005762
X004665Y011762
X004665Y008762
X007665Y006762
T101
X001334Y001703
X011176Y001703
T102
X006798Y001144
X006255Y002262
X005165Y002262
X004074Y002262
X005712Y001144
X004621Y001144
X007889Y001144
X008436Y002262
X007346Y002262
T00
M30
