; NON-PLATED HOLES START AT T1
; THROUGH (PLATED) HOLES START AT T100
M48
INCH
T100C0.035000
T101C0.039370
%
T100
X003568Y002276
X003568Y003776
X034090Y016276
X030568Y013717
X032318Y016276
X034090Y013716
X028797Y016276
X032318Y013716
X000568Y002276
X000568Y003776
X030568Y016276
X028797Y013717
T101
X012076Y012773
X032068Y006526
X018568Y002026
X020568Y012526
X015568Y009526
X021068Y004526
X020568Y001026
X006076Y012773
X025068Y012526
X012568Y002026
X005076Y006773
X013076Y012773
X015068Y003526
X021568Y012526
X016568Y009526
X021568Y001026
X009068Y003526
X026068Y012526
X012076Y006773
X019568Y012526
X013568Y002026
X019568Y001026
X006076Y006773
X025068Y006526
X016068Y003526
X033068Y012526
X020568Y002026
X013076Y006773
X010068Y003526
X026068Y006526
X014568Y012526
X034068Y012526
X015068Y004526
X014568Y001026
X021568Y002026
X009068Y004526
X011068Y003526
X033068Y006526
X019568Y002026
X007076Y012773
X015568Y012526
X016068Y004526
X015568Y001026
X012068Y003526
X034068Y006526
X010068Y004526
X017568Y009526
X008076Y012773
X027068Y012526
X016568Y012526
X016568Y001026
X014568Y002026
X002076Y012773
X007076Y006773
X011068Y004526
X017068Y003526
X010568Y001026
X018568Y009526
X028068Y012526
X015568Y002026
X003076Y012773
X008076Y006773
X027068Y006526
X012068Y004526
X018068Y003526
X011568Y001026
X002076Y006773
X029068Y012526
X009568Y001026
X010076Y012773
X016568Y002026
X023068Y012526
X028068Y006526
X019068Y003526
X017068Y004526
X010568Y002026
X003076Y006773
X020568Y009526
X011076Y012773
X013068Y003526
X030068Y012526
X009076Y012773
X024068Y012526
X029068Y006526
X010076Y006773
X017568Y012526
X018068Y004526
X011568Y002026
X017568Y001026
X020068Y003526
X021568Y009526
X023068Y006526
X014068Y003526
X009568Y002026
X031068Y012526
X019568Y009526
X011076Y006773
X018568Y012526
X019068Y004526
X018568Y001026
X030068Y006526
X021068Y003526
X004076Y012773
X009076Y006773
X024068Y006526
X032068Y012526
X013068Y004526
X012568Y001026
X031068Y006526
X017568Y002026
X014568Y009526
X020068Y004526
X005076Y012773
X014068Y004526
X013568Y001026
X004076Y006773
T00
M30
