G04 MADE WITH FRITZING*
G04 WWW.FRITZING.ORG*
G04 DOUBLE SIDED*
G04 HOLES PLATED*
G04 CONTOUR ON CENTER OF CONTOUR VECTOR*
%ASAXBY*%
%FSLAX23Y23*%
%MOIN*%
%OFA0B0*%
%SFA1.0B1.0*%
%ADD10C,0.089370*%
%ADD11C,0.085000*%
%ADD12R,0.089370X0.089370*%
%LNMASK0*%
G90*
G70*
G54D10*
X3407Y1253D03*
X3407Y653D03*
X3307Y1253D03*
X3307Y653D03*
X3207Y1253D03*
X3207Y653D03*
X3107Y1253D03*
X3107Y653D03*
X3007Y1253D03*
X3007Y653D03*
X2907Y1253D03*
X2907Y653D03*
X2807Y1253D03*
X2807Y653D03*
X2707Y1253D03*
X2707Y653D03*
X2607Y1253D03*
X2607Y653D03*
X2507Y1253D03*
X2507Y653D03*
X2407Y1253D03*
X2407Y653D03*
X2307Y1253D03*
X2307Y653D03*
X957Y103D03*
X1057Y103D03*
X1157Y103D03*
X1257Y103D03*
X1357Y103D03*
X1457Y103D03*
X1557Y103D03*
X1657Y103D03*
X1757Y103D03*
X1857Y103D03*
X1957Y103D03*
X2057Y103D03*
X2157Y103D03*
X957Y103D03*
X1057Y103D03*
X1157Y103D03*
X1257Y103D03*
X1357Y103D03*
X1457Y103D03*
X1557Y103D03*
X1657Y103D03*
X1757Y103D03*
X1857Y103D03*
X1957Y103D03*
X2057Y103D03*
X2157Y103D03*
X2157Y203D03*
X2057Y203D03*
X1957Y203D03*
X1857Y203D03*
X1757Y203D03*
X1657Y203D03*
X1557Y203D03*
X1457Y203D03*
X1357Y203D03*
X1257Y203D03*
X1157Y203D03*
X1057Y203D03*
X957Y203D03*
X907Y353D03*
X1007Y353D03*
X1107Y353D03*
X1207Y353D03*
X1307Y353D03*
X1407Y353D03*
X1507Y353D03*
X1607Y353D03*
X1707Y353D03*
X1807Y353D03*
X1907Y353D03*
X2007Y353D03*
X2107Y353D03*
X907Y353D03*
X1007Y353D03*
X1107Y353D03*
X1207Y353D03*
X1307Y353D03*
X1407Y353D03*
X1507Y353D03*
X1607Y353D03*
X1707Y353D03*
X1807Y353D03*
X1907Y353D03*
X2007Y353D03*
X2107Y353D03*
X2107Y453D03*
X2007Y453D03*
X1907Y453D03*
X1807Y453D03*
X1707Y453D03*
X1607Y453D03*
X1507Y453D03*
X1407Y453D03*
X1307Y453D03*
X1207Y453D03*
X1107Y453D03*
X1007Y453D03*
X907Y453D03*
X1308Y1277D03*
X1308Y677D03*
X1208Y1277D03*
X1208Y677D03*
X1108Y1277D03*
X1108Y677D03*
X1008Y1277D03*
X1008Y677D03*
X908Y1277D03*
X908Y677D03*
X808Y1277D03*
X808Y677D03*
X708Y1277D03*
X708Y677D03*
X608Y1277D03*
X608Y677D03*
X508Y1277D03*
X508Y677D03*
X408Y1277D03*
X408Y677D03*
X308Y1277D03*
X308Y677D03*
X208Y1277D03*
X208Y677D03*
X1457Y953D03*
X1457Y1253D03*
X1557Y953D03*
X1557Y1253D03*
X1657Y953D03*
X1657Y1253D03*
X1757Y953D03*
X1757Y1253D03*
X1857Y953D03*
X1857Y1253D03*
X1957Y953D03*
X1957Y1253D03*
X2057Y953D03*
X2057Y1253D03*
X2157Y953D03*
X2157Y1253D03*
G54D11*
X3057Y1628D03*
X3057Y1372D03*
X2880Y1628D03*
X2880Y1372D03*
X3409Y1628D03*
X3409Y1372D03*
X3232Y1628D03*
X3232Y1372D03*
X357Y228D03*
X57Y228D03*
X357Y378D03*
X57Y378D03*
G54D12*
X3407Y1253D03*
X1308Y1277D03*
X1457Y953D03*
G04 End of Mask0*
M02*