G04 MADE WITH FRITZING*
G04 WWW.FRITZING.ORG*
G04 DOUBLE SIDED*
G04 HOLES PLATED*
G04 CONTOUR ON CENTER OF CONTOUR VECTOR*
%ASAXBY*%
%FSLAX23Y23*%
%MOIN*%
%OFA0B0*%
%SFA1.0B1.0*%
%ADD10C,0.079370*%
%ADD11C,0.075000*%
%ADD12R,0.079370X0.079370*%
%ADD13C,0.008000*%
%ADD14C,0.024000*%
%ADD15C,0.012000*%
%LNCOPPER0*%
G90*
G70*
G54D10*
X3407Y1253D03*
X3407Y653D03*
X3307Y1253D03*
X3307Y653D03*
X3207Y1253D03*
X3207Y653D03*
X3107Y1253D03*
X3107Y653D03*
X3007Y1253D03*
X3007Y653D03*
X2907Y1253D03*
X2907Y653D03*
X2807Y1253D03*
X2807Y653D03*
X2707Y1253D03*
X2707Y653D03*
X2607Y1253D03*
X2607Y653D03*
X2507Y1253D03*
X2507Y653D03*
X2407Y1253D03*
X2407Y653D03*
X2307Y1253D03*
X2307Y653D03*
X957Y103D03*
X1057Y103D03*
X1157Y103D03*
X1257Y103D03*
X1357Y103D03*
X1457Y103D03*
X1557Y103D03*
X1657Y103D03*
X1757Y103D03*
X1857Y103D03*
X1957Y103D03*
X2057Y103D03*
X2157Y103D03*
X957Y103D03*
X1057Y103D03*
X1157Y103D03*
X1257Y103D03*
X1357Y103D03*
X1457Y103D03*
X1557Y103D03*
X1657Y103D03*
X1757Y103D03*
X1857Y103D03*
X1957Y103D03*
X2057Y103D03*
X2157Y103D03*
X2157Y203D03*
X2057Y203D03*
X1957Y203D03*
X1857Y203D03*
X1757Y203D03*
X1657Y203D03*
X1557Y203D03*
X1457Y203D03*
X1357Y203D03*
X1257Y203D03*
X1157Y203D03*
X1057Y203D03*
X957Y203D03*
X907Y353D03*
X1007Y353D03*
X1107Y353D03*
X1207Y353D03*
X1307Y353D03*
X1407Y353D03*
X1507Y353D03*
X1607Y353D03*
X1707Y353D03*
X1807Y353D03*
X1907Y353D03*
X2007Y353D03*
X2107Y353D03*
X907Y353D03*
X1007Y353D03*
X1107Y353D03*
X1207Y353D03*
X1307Y353D03*
X1407Y353D03*
X1507Y353D03*
X1607Y353D03*
X1707Y353D03*
X1807Y353D03*
X1907Y353D03*
X2007Y353D03*
X2107Y353D03*
X2107Y453D03*
X2007Y453D03*
X1907Y453D03*
X1807Y453D03*
X1707Y453D03*
X1607Y453D03*
X1507Y453D03*
X1407Y453D03*
X1307Y453D03*
X1207Y453D03*
X1107Y453D03*
X1007Y453D03*
X907Y453D03*
X1308Y1277D03*
X1308Y677D03*
X1208Y1277D03*
X1208Y677D03*
X1108Y1277D03*
X1108Y677D03*
X1008Y1277D03*
X1008Y677D03*
X908Y1277D03*
X908Y677D03*
X808Y1277D03*
X808Y677D03*
X708Y1277D03*
X708Y677D03*
X608Y1277D03*
X608Y677D03*
X508Y1277D03*
X508Y677D03*
X408Y1277D03*
X408Y677D03*
X308Y1277D03*
X308Y677D03*
X208Y1277D03*
X208Y677D03*
X1457Y953D03*
X1457Y1253D03*
X1557Y953D03*
X1557Y1253D03*
X1657Y953D03*
X1657Y1253D03*
X1757Y953D03*
X1757Y1253D03*
X1857Y953D03*
X1857Y1253D03*
X1957Y953D03*
X1957Y1253D03*
X2057Y953D03*
X2057Y1253D03*
X2157Y953D03*
X2157Y1253D03*
G54D11*
X3057Y1628D03*
X3057Y1372D03*
X2880Y1628D03*
X2880Y1372D03*
X3409Y1628D03*
X3409Y1372D03*
X3232Y1628D03*
X3232Y1372D03*
X357Y228D03*
X57Y228D03*
X357Y378D03*
X57Y378D03*
G54D12*
X3407Y1253D03*
X1308Y1277D03*
X1457Y953D03*
G54D13*
X3156Y1352D02*
X3158Y1152D01*
D02*
X2407Y1152D02*
X2407Y1227D01*
D02*
X3158Y1152D02*
X2407Y1152D01*
D02*
X3079Y1367D02*
X3156Y1352D01*
D02*
X3257Y1103D02*
X2307Y1103D01*
D02*
X2307Y1103D02*
X2307Y1227D01*
D02*
X3243Y1352D02*
X3257Y1327D01*
D02*
X3257Y1327D02*
X3257Y1103D01*
D02*
X907Y152D02*
X907Y327D01*
D02*
X939Y120D02*
X907Y152D01*
D02*
X1008Y152D02*
X1007Y327D01*
D02*
X1039Y121D02*
X1008Y152D01*
D02*
X1106Y152D02*
X1107Y327D01*
D02*
X1139Y120D02*
X1106Y152D01*
D02*
X1207Y152D02*
X1207Y327D01*
D02*
X1239Y120D02*
X1207Y152D01*
D02*
X1307Y152D02*
X1307Y327D01*
D02*
X1339Y121D02*
X1307Y152D01*
D02*
X1406Y152D02*
X1407Y327D01*
D02*
X1439Y120D02*
X1406Y152D01*
D02*
X1507Y152D02*
X1507Y327D01*
D02*
X1539Y120D02*
X1507Y152D01*
D02*
X1607Y152D02*
X1607Y327D01*
D02*
X1639Y121D02*
X1607Y152D01*
D02*
X1706Y152D02*
X1707Y327D01*
D02*
X1739Y120D02*
X1706Y152D01*
D02*
X1807Y152D02*
X1807Y327D01*
D02*
X1839Y120D02*
X1807Y152D01*
D02*
X1907Y152D02*
X1907Y327D01*
D02*
X1939Y120D02*
X1907Y152D01*
D02*
X2008Y152D02*
X2007Y327D01*
D02*
X2039Y121D02*
X2008Y152D01*
D02*
X2106Y152D02*
X2107Y327D01*
D02*
X2139Y120D02*
X2106Y152D01*
D02*
X2057Y228D02*
X2057Y403D01*
D02*
X2057Y403D02*
X2025Y435D01*
D02*
X1957Y228D02*
X1956Y403D01*
D02*
X1956Y403D02*
X1925Y435D01*
G54D14*
D02*
X2880Y1599D02*
X2880Y1400D01*
D02*
X57Y28D02*
X1556Y28D01*
D02*
X1556Y28D02*
X1557Y72D01*
D02*
X57Y199D02*
X57Y28D01*
G54D13*
D02*
X2256Y503D02*
X2256Y28D01*
D02*
X3257Y503D02*
X2256Y503D01*
D02*
X1706Y28D02*
X1671Y82D01*
D02*
X2256Y28D02*
X1706Y28D01*
D02*
X3257Y1103D02*
X3257Y503D01*
G54D14*
D02*
X57Y349D02*
X57Y256D01*
D02*
X57Y406D02*
X58Y1278D01*
D02*
X58Y1278D02*
X177Y1277D01*
G54D15*
D02*
X2607Y554D02*
X2009Y554D01*
D02*
X2009Y554D02*
X2007Y478D01*
D02*
X2607Y633D02*
X2607Y554D01*
G54D13*
D02*
X507Y553D02*
X1158Y553D01*
D02*
X1158Y553D02*
X1156Y402D01*
D02*
X372Y395D02*
X507Y553D01*
D02*
X1156Y402D02*
X1189Y370D01*
D02*
X1858Y403D02*
X1857Y927D01*
D02*
X1825Y370D02*
X1858Y403D01*
D02*
X1807Y478D02*
X1807Y1054D01*
D02*
X1858Y1101D02*
X1857Y1227D01*
D02*
X1807Y1054D02*
X1858Y1101D01*
D02*
X1606Y1202D02*
X1639Y1235D01*
D02*
X1607Y578D02*
X1606Y1202D01*
D02*
X1691Y472D02*
X1607Y578D01*
G54D15*
D02*
X1208Y578D02*
X1208Y652D01*
D02*
X1394Y474D02*
X1332Y578D01*
D02*
X1332Y578D02*
X1208Y578D01*
D02*
X1382Y602D02*
X1382Y1353D01*
D02*
X1756Y1354D02*
X1757Y1278D01*
D02*
X1382Y1353D02*
X1756Y1354D01*
D02*
X1491Y472D02*
X1382Y602D01*
G54D13*
D02*
X1557Y1054D02*
X1557Y1227D01*
D02*
X1507Y1003D02*
X1557Y1054D01*
D02*
X1507Y578D02*
X1507Y1003D01*
D02*
X1591Y472D02*
X1507Y578D01*
D02*
X1757Y403D02*
X1757Y927D01*
D02*
X1725Y370D02*
X1757Y403D01*
D02*
X1305Y1400D02*
X1307Y1303D01*
D02*
X1657Y1027D02*
X1807Y1202D01*
D02*
X1807Y1401D02*
X1305Y1400D01*
D02*
X1807Y1202D02*
X1807Y1401D01*
D02*
X1657Y978D02*
X1657Y1027D01*
G54D15*
D02*
X307Y1451D02*
X2708Y1452D01*
D02*
X2708Y1452D02*
X2889Y1270D01*
D02*
X308Y1303D02*
X307Y1451D01*
G54D13*
D02*
X707Y403D02*
X956Y402D01*
D02*
X606Y302D02*
X707Y403D01*
D02*
X257Y302D02*
X606Y302D01*
D02*
X257Y852D02*
X257Y302D01*
D02*
X956Y402D02*
X989Y370D01*
D02*
X1105Y851D02*
X257Y852D01*
D02*
X1289Y694D02*
X1105Y851D01*
D02*
X257Y953D02*
X257Y1579D01*
D02*
X257Y1579D02*
X2831Y1579D01*
D02*
X2831Y1579D02*
X2863Y1611D01*
D02*
X257Y852D02*
X257Y953D01*
G54D14*
D02*
X3409Y1400D02*
X3409Y1599D01*
D02*
X3057Y1599D02*
X3057Y1400D01*
G04 End of Copper0*
M02*