M48
INCH
T10C0.040000
T11C0.035000
T12C0.015748
T13C0.042000
T14C0.031555
T15C0.031496
T16C0.038000
%
T10
X026332Y012176
X026332Y013176
X026332Y014176
T11
X023332Y014676
X023332Y011676
X022332Y014676
X022332Y011676
X021332Y014676
X021332Y011676
X020332Y014676
X020332Y011676
X019332Y014676
X019332Y011676
X018332Y014676
X018332Y011676
X017332Y014676
X017332Y011676
X016332Y014676
X016332Y011676
X008332Y003676
X002332Y003676
X008332Y004676
X002332Y004676
X008332Y005676
X002332Y005676
X008332Y006676
X002332Y006676
X008332Y007676
X002332Y007676
X008332Y008676
X002332Y008676
X008332Y009676
X002332Y009676
X008332Y010676
X002332Y010676
X008332Y011676
X002332Y011676
X008332Y012676
X002332Y012676
X008332Y013676
X002332Y013676
X008332Y014676
X002332Y014676
X013832Y001676
X010832Y001676
X013832Y002676
X010832Y002676
X013832Y003676
X010832Y003676
X013832Y004676
X010832Y004676
X013832Y005676
X010832Y005676
X013832Y006676
X010832Y006676
X013832Y007676
X010832Y007676
X013832Y008676
X010832Y008676
X013832Y009676
X010832Y009676
X013832Y010676
X010832Y010676
X013832Y011676
X010832Y011676
X013832Y012676
X010832Y012676
X013832Y013676
X010832Y013676
X013832Y014676
X010832Y014676
X016332Y000676
X016332Y003676
X017332Y000676
X017332Y003676
X018332Y000676
X018332Y003676
X019332Y000676
X019332Y003676
X020332Y000676
X020332Y003676
X021332Y000676
X021332Y003676
X022332Y000676
X022332Y003676
X023332Y000676
X023332Y003676
X024332Y000676
X024332Y003676
X025332Y000676
X025332Y003676
X026332Y000676
X026332Y003676
X027332Y000676
X027332Y003676
X026832Y008676
X025832Y008676
T12
X014832Y007676
X020332Y005676
X016325Y001668
X015314Y002687
T13
X001832Y001676
X002832Y001676
X003832Y001676
T14
X006401Y001676
T15
X008332Y001676
T16
X007332Y015176
T00
M30
