G04 MADE WITH FRITZING*
G04 WWW.FRITZING.ORG*
G04 DOUBLE SIDED*
G04 HOLES PLATED*
G04 CONTOUR ON CENTER OF CONTOUR VECTOR*
%ASAXBY*%
%FSLAX23Y23*%
%MOIN*%
%OFA0B0*%
%SFA1.0B1.0*%
%ADD10R,0.001000X0.001000*%
%LNSILK0*%
G90*
G70*
G54D10*
X7Y1737D02*
X15Y1737D01*
X7Y1736D02*
X14Y1736D01*
X7Y1735D02*
X14Y1735D01*
X7Y1734D02*
X14Y1734D01*
X7Y1733D02*
X14Y1733D01*
X7Y1732D02*
X14Y1732D01*
X7Y1731D02*
X14Y1731D01*
X7Y1730D02*
X14Y1730D01*
X7Y1729D02*
X14Y1729D01*
X7Y1728D02*
X14Y1728D01*
X7Y1727D02*
X14Y1727D01*
X7Y1726D02*
X14Y1726D01*
X7Y1725D02*
X14Y1725D01*
X7Y1724D02*
X14Y1724D01*
X7Y1723D02*
X14Y1723D01*
X7Y1722D02*
X14Y1722D01*
X7Y1721D02*
X14Y1721D01*
X7Y1720D02*
X14Y1720D01*
X7Y1719D02*
X14Y1719D01*
X7Y1718D02*
X14Y1718D01*
X7Y1717D02*
X14Y1717D01*
X7Y1716D02*
X14Y1716D01*
X7Y1715D02*
X14Y1715D01*
X7Y1714D02*
X14Y1714D01*
X7Y1713D02*
X14Y1713D01*
X7Y1712D02*
X14Y1712D01*
X7Y1711D02*
X14Y1711D01*
X7Y1710D02*
X14Y1710D01*
X7Y1709D02*
X14Y1709D01*
X7Y1708D02*
X14Y1708D01*
X7Y1707D02*
X14Y1707D01*
X7Y1706D02*
X14Y1706D01*
X7Y1705D02*
X14Y1705D01*
X7Y1704D02*
X14Y1704D01*
X7Y1703D02*
X14Y1703D01*
X7Y1702D02*
X14Y1702D01*
X7Y1701D02*
X14Y1701D01*
X7Y1700D02*
X14Y1700D01*
X7Y1699D02*
X14Y1699D01*
X7Y1698D02*
X14Y1698D01*
X7Y1697D02*
X14Y1697D01*
X7Y1696D02*
X14Y1696D01*
X7Y1695D02*
X14Y1695D01*
X7Y1694D02*
X14Y1694D01*
X7Y1693D02*
X14Y1693D01*
X7Y1692D02*
X14Y1692D01*
X7Y1691D02*
X14Y1691D01*
X7Y1690D02*
X14Y1690D01*
X7Y1689D02*
X14Y1689D01*
X7Y1688D02*
X14Y1688D01*
X7Y1687D02*
X14Y1687D01*
X7Y1686D02*
X14Y1686D01*
X7Y1685D02*
X14Y1685D01*
X7Y1684D02*
X14Y1684D01*
X7Y1683D02*
X14Y1683D01*
X7Y1682D02*
X14Y1682D01*
X7Y1681D02*
X14Y1681D01*
X7Y1680D02*
X14Y1680D01*
X7Y1679D02*
X14Y1679D01*
X7Y1678D02*
X14Y1678D01*
X7Y1677D02*
X14Y1677D01*
X7Y1676D02*
X14Y1676D01*
X7Y1675D02*
X14Y1675D01*
X7Y1674D02*
X14Y1674D01*
X7Y1673D02*
X14Y1673D01*
X7Y1672D02*
X14Y1672D01*
X7Y1671D02*
X14Y1671D01*
X7Y1670D02*
X14Y1670D01*
X7Y1669D02*
X14Y1669D01*
X7Y1668D02*
X14Y1668D01*
X7Y1667D02*
X14Y1667D01*
X7Y1666D02*
X14Y1666D01*
X7Y1665D02*
X14Y1665D01*
X7Y1664D02*
X14Y1664D01*
X7Y1663D02*
X14Y1663D01*
X7Y1662D02*
X14Y1662D01*
X7Y1661D02*
X14Y1661D01*
X7Y1660D02*
X14Y1660D01*
X7Y1659D02*
X14Y1659D01*
X7Y1658D02*
X14Y1658D01*
X7Y1657D02*
X14Y1657D01*
X7Y1656D02*
X14Y1656D01*
X7Y1655D02*
X14Y1655D01*
X7Y1654D02*
X14Y1654D01*
X7Y1653D02*
X14Y1653D01*
X7Y1652D02*
X14Y1652D01*
X7Y1651D02*
X14Y1651D01*
X7Y1650D02*
X14Y1650D01*
X7Y1649D02*
X14Y1649D01*
X7Y1648D02*
X14Y1648D01*
X7Y1647D02*
X14Y1647D01*
X7Y1646D02*
X14Y1646D01*
X7Y1645D02*
X14Y1645D01*
X7Y1644D02*
X14Y1644D01*
X7Y1643D02*
X14Y1643D01*
X7Y1642D02*
X14Y1642D01*
X7Y1641D02*
X14Y1641D01*
X7Y1640D02*
X14Y1640D01*
X7Y1639D02*
X14Y1639D01*
X7Y1638D02*
X14Y1638D01*
X7Y1637D02*
X14Y1637D01*
X7Y1636D02*
X14Y1636D01*
X7Y1635D02*
X14Y1635D01*
X7Y1634D02*
X14Y1634D01*
X7Y1633D02*
X14Y1633D01*
X7Y1632D02*
X14Y1632D01*
X7Y1631D02*
X14Y1631D01*
X7Y1630D02*
X14Y1630D01*
X7Y1629D02*
X14Y1629D01*
X7Y1628D02*
X14Y1628D01*
X7Y1627D02*
X14Y1627D01*
X7Y1626D02*
X14Y1626D01*
X7Y1625D02*
X14Y1625D01*
X7Y1624D02*
X14Y1624D01*
X7Y1623D02*
X14Y1623D01*
X7Y1622D02*
X14Y1622D01*
X7Y1621D02*
X14Y1621D01*
X7Y1620D02*
X14Y1620D01*
X7Y1619D02*
X14Y1619D01*
X7Y1618D02*
X14Y1618D01*
X7Y1617D02*
X14Y1617D01*
X7Y1616D02*
X14Y1616D01*
X7Y1615D02*
X14Y1615D01*
X7Y1614D02*
X14Y1614D01*
X7Y1613D02*
X14Y1613D01*
X7Y1612D02*
X14Y1612D01*
X7Y1611D02*
X14Y1611D01*
X7Y1610D02*
X14Y1610D01*
X7Y1609D02*
X14Y1609D01*
X7Y1608D02*
X14Y1608D01*
X7Y1607D02*
X14Y1607D01*
X7Y1606D02*
X14Y1606D01*
X7Y1605D02*
X14Y1605D01*
X7Y1604D02*
X14Y1604D01*
X7Y1603D02*
X14Y1603D01*
X7Y1602D02*
X14Y1602D01*
X7Y1601D02*
X14Y1601D01*
X7Y1600D02*
X14Y1600D01*
X7Y1599D02*
X14Y1599D01*
X7Y1598D02*
X14Y1598D01*
X7Y1597D02*
X14Y1597D01*
X7Y1596D02*
X14Y1596D01*
X7Y1595D02*
X14Y1595D01*
X7Y1594D02*
X14Y1594D01*
X7Y1593D02*
X14Y1593D01*
X7Y1592D02*
X14Y1592D01*
X7Y1591D02*
X14Y1591D01*
X7Y1590D02*
X14Y1590D01*
X7Y1589D02*
X14Y1589D01*
X7Y1588D02*
X14Y1588D01*
X7Y1587D02*
X14Y1587D01*
X7Y1586D02*
X14Y1586D01*
X7Y1585D02*
X14Y1585D01*
X7Y1584D02*
X14Y1584D01*
X7Y1583D02*
X14Y1583D01*
X7Y1582D02*
X14Y1582D01*
X7Y1581D02*
X14Y1581D01*
X7Y1580D02*
X14Y1580D01*
X7Y1579D02*
X14Y1579D01*
X7Y1578D02*
X14Y1578D01*
X7Y1577D02*
X14Y1577D01*
X7Y1576D02*
X14Y1576D01*
X7Y1575D02*
X14Y1575D01*
X7Y1574D02*
X14Y1574D01*
X7Y1573D02*
X14Y1573D01*
X7Y1572D02*
X14Y1572D01*
X7Y1571D02*
X14Y1571D01*
X7Y1570D02*
X14Y1570D01*
X7Y1569D02*
X14Y1569D01*
X7Y1568D02*
X14Y1568D01*
X7Y1567D02*
X14Y1567D01*
X7Y1566D02*
X14Y1566D01*
X7Y1565D02*
X14Y1565D01*
X7Y1564D02*
X14Y1564D01*
X7Y1563D02*
X14Y1563D01*
X7Y1562D02*
X14Y1562D01*
X7Y1561D02*
X14Y1561D01*
X7Y1560D02*
X14Y1560D01*
X7Y1559D02*
X14Y1559D01*
X7Y1558D02*
X14Y1558D01*
X7Y1557D02*
X14Y1557D01*
X7Y1556D02*
X14Y1556D01*
X7Y1555D02*
X14Y1555D01*
X7Y1554D02*
X14Y1554D01*
X7Y1553D02*
X14Y1553D01*
X7Y1552D02*
X14Y1552D01*
X7Y1551D02*
X14Y1551D01*
X7Y1550D02*
X14Y1550D01*
X7Y1549D02*
X14Y1549D01*
X7Y1548D02*
X14Y1548D01*
X7Y1547D02*
X14Y1547D01*
X7Y1546D02*
X14Y1546D01*
X7Y1545D02*
X14Y1545D01*
X7Y1544D02*
X14Y1544D01*
X7Y1543D02*
X14Y1543D01*
X7Y1542D02*
X14Y1542D01*
X7Y1541D02*
X14Y1541D01*
X7Y1540D02*
X14Y1540D01*
X7Y1539D02*
X14Y1539D01*
X7Y1538D02*
X14Y1538D01*
X7Y1537D02*
X14Y1537D01*
X7Y1536D02*
X14Y1536D01*
X7Y1535D02*
X14Y1535D01*
X7Y1534D02*
X14Y1534D01*
X7Y1533D02*
X14Y1533D01*
X7Y1532D02*
X14Y1532D01*
X7Y1531D02*
X14Y1531D01*
X7Y1530D02*
X14Y1530D01*
X7Y1529D02*
X14Y1529D01*
X7Y1528D02*
X14Y1528D01*
X7Y1527D02*
X14Y1527D01*
X7Y1526D02*
X14Y1526D01*
X7Y1525D02*
X14Y1525D01*
X7Y1524D02*
X14Y1524D01*
X7Y1523D02*
X14Y1523D01*
X7Y1522D02*
X14Y1522D01*
X7Y1521D02*
X14Y1521D01*
X7Y1520D02*
X14Y1520D01*
X7Y1519D02*
X14Y1519D01*
X7Y1518D02*
X14Y1518D01*
X7Y1517D02*
X14Y1517D01*
X7Y1516D02*
X14Y1516D01*
X7Y1515D02*
X14Y1515D01*
X7Y1514D02*
X14Y1514D01*
X7Y1513D02*
X14Y1513D01*
X7Y1512D02*
X14Y1512D01*
X7Y1511D02*
X14Y1511D01*
X7Y1510D02*
X14Y1510D01*
X7Y1509D02*
X14Y1509D01*
X7Y1508D02*
X14Y1508D01*
X7Y1507D02*
X14Y1507D01*
X7Y1506D02*
X14Y1506D01*
X7Y1505D02*
X14Y1505D01*
X7Y1504D02*
X14Y1504D01*
X7Y1503D02*
X14Y1503D01*
X7Y1502D02*
X14Y1502D01*
X7Y1501D02*
X14Y1501D01*
X7Y1500D02*
X14Y1500D01*
X7Y1499D02*
X14Y1499D01*
X7Y1498D02*
X14Y1498D01*
X7Y1497D02*
X14Y1497D01*
X7Y1496D02*
X14Y1496D01*
X7Y1495D02*
X14Y1495D01*
X7Y1494D02*
X14Y1494D01*
X7Y1493D02*
X14Y1493D01*
X7Y1492D02*
X14Y1492D01*
X7Y1491D02*
X14Y1491D01*
X7Y1490D02*
X14Y1490D01*
X7Y1489D02*
X14Y1489D01*
X7Y1488D02*
X14Y1488D01*
X7Y1487D02*
X14Y1487D01*
X7Y1486D02*
X14Y1486D01*
X7Y1485D02*
X14Y1485D01*
X7Y1484D02*
X14Y1484D01*
X7Y1483D02*
X14Y1483D01*
X7Y1482D02*
X14Y1482D01*
X7Y1481D02*
X14Y1481D01*
X7Y1480D02*
X14Y1480D01*
X7Y1479D02*
X14Y1479D01*
X7Y1478D02*
X14Y1478D01*
X7Y1477D02*
X14Y1477D01*
X7Y1476D02*
X14Y1476D01*
X7Y1475D02*
X14Y1475D01*
X7Y1474D02*
X14Y1474D01*
X7Y1473D02*
X14Y1473D01*
X7Y1472D02*
X14Y1472D01*
X7Y1471D02*
X14Y1471D01*
X7Y1470D02*
X14Y1470D01*
X7Y1469D02*
X14Y1469D01*
X7Y1468D02*
X14Y1468D01*
X7Y1467D02*
X14Y1467D01*
X7Y1466D02*
X14Y1466D01*
X7Y1465D02*
X14Y1465D01*
X7Y1464D02*
X14Y1464D01*
X7Y1463D02*
X14Y1463D01*
X7Y1462D02*
X14Y1462D01*
X7Y1461D02*
X14Y1461D01*
X7Y1460D02*
X14Y1460D01*
X7Y1459D02*
X14Y1459D01*
X7Y1458D02*
X14Y1458D01*
X7Y1457D02*
X14Y1457D01*
X7Y1456D02*
X14Y1456D01*
X7Y1455D02*
X14Y1455D01*
X7Y1454D02*
X14Y1454D01*
X7Y1453D02*
X14Y1453D01*
X7Y1452D02*
X14Y1452D01*
X7Y1451D02*
X14Y1451D01*
X7Y1450D02*
X14Y1450D01*
X7Y1449D02*
X14Y1449D01*
X7Y1448D02*
X14Y1448D01*
X7Y1447D02*
X14Y1447D01*
X7Y1446D02*
X14Y1446D01*
X7Y1445D02*
X14Y1445D01*
X7Y1444D02*
X14Y1444D01*
X7Y1443D02*
X14Y1443D01*
X7Y1442D02*
X14Y1442D01*
X7Y1441D02*
X14Y1441D01*
X7Y1440D02*
X14Y1440D01*
X7Y1439D02*
X14Y1439D01*
X7Y1438D02*
X14Y1438D01*
X7Y1437D02*
X14Y1437D01*
X7Y1436D02*
X14Y1436D01*
X7Y1435D02*
X14Y1435D01*
X7Y1434D02*
X14Y1434D01*
X7Y1433D02*
X14Y1433D01*
X7Y1432D02*
X14Y1432D01*
X7Y1431D02*
X14Y1431D01*
X7Y1430D02*
X14Y1430D01*
X7Y1429D02*
X14Y1429D01*
X7Y1428D02*
X14Y1428D01*
X7Y1427D02*
X14Y1427D01*
X7Y1426D02*
X14Y1426D01*
X7Y1425D02*
X14Y1425D01*
X7Y1424D02*
X14Y1424D01*
X7Y1423D02*
X14Y1423D01*
X7Y1422D02*
X14Y1422D01*
X7Y1421D02*
X14Y1421D01*
X7Y1420D02*
X14Y1420D01*
X7Y1419D02*
X14Y1419D01*
X7Y1418D02*
X14Y1418D01*
X7Y1417D02*
X14Y1417D01*
X7Y1416D02*
X14Y1416D01*
X7Y1415D02*
X14Y1415D01*
X7Y1414D02*
X14Y1414D01*
X7Y1413D02*
X14Y1413D01*
X7Y1412D02*
X14Y1412D01*
X7Y1411D02*
X14Y1411D01*
X7Y1410D02*
X14Y1410D01*
X7Y1409D02*
X14Y1409D01*
X7Y1408D02*
X14Y1408D01*
X7Y1407D02*
X14Y1407D01*
X7Y1406D02*
X14Y1406D01*
X7Y1405D02*
X14Y1405D01*
X7Y1404D02*
X14Y1404D01*
X7Y1403D02*
X14Y1403D01*
X7Y1402D02*
X14Y1402D01*
X7Y1401D02*
X14Y1401D01*
X7Y1400D02*
X14Y1400D01*
X7Y1399D02*
X14Y1399D01*
X7Y1398D02*
X14Y1398D01*
X7Y1397D02*
X14Y1397D01*
X7Y1396D02*
X14Y1396D01*
X7Y1395D02*
X14Y1395D01*
X7Y1394D02*
X14Y1394D01*
X7Y1393D02*
X14Y1393D01*
X7Y1392D02*
X14Y1392D01*
X7Y1391D02*
X14Y1391D01*
X7Y1390D02*
X14Y1390D01*
X7Y1389D02*
X14Y1389D01*
X7Y1388D02*
X14Y1388D01*
X7Y1387D02*
X14Y1387D01*
X7Y1386D02*
X14Y1386D01*
X7Y1385D02*
X14Y1385D01*
X7Y1384D02*
X14Y1384D01*
X7Y1383D02*
X14Y1383D01*
X7Y1382D02*
X14Y1382D01*
X7Y1381D02*
X14Y1381D01*
X7Y1380D02*
X14Y1380D01*
X7Y1379D02*
X14Y1379D01*
X7Y1378D02*
X14Y1378D01*
X7Y1377D02*
X14Y1377D01*
X7Y1376D02*
X14Y1376D01*
X7Y1375D02*
X14Y1375D01*
X7Y1374D02*
X14Y1374D01*
X7Y1373D02*
X14Y1373D01*
X7Y1372D02*
X14Y1372D01*
X7Y1371D02*
X14Y1371D01*
X7Y1370D02*
X14Y1370D01*
X7Y1369D02*
X14Y1369D01*
X7Y1368D02*
X14Y1368D01*
X7Y1367D02*
X14Y1367D01*
X7Y1366D02*
X14Y1366D01*
X7Y1365D02*
X14Y1365D01*
X7Y1364D02*
X14Y1364D01*
X7Y1363D02*
X14Y1363D01*
X7Y1362D02*
X14Y1362D01*
X7Y1361D02*
X14Y1361D01*
X7Y1360D02*
X14Y1360D01*
X7Y1359D02*
X14Y1359D01*
X7Y1358D02*
X14Y1358D01*
X7Y1357D02*
X14Y1357D01*
X7Y1356D02*
X14Y1356D01*
X7Y1355D02*
X14Y1355D01*
X7Y1354D02*
X14Y1354D01*
X7Y1353D02*
X14Y1353D01*
X7Y1352D02*
X14Y1352D01*
X7Y1351D02*
X14Y1351D01*
X7Y1350D02*
X14Y1350D01*
X7Y1349D02*
X14Y1349D01*
X7Y1348D02*
X14Y1348D01*
X7Y1347D02*
X14Y1347D01*
X7Y1346D02*
X14Y1346D01*
X7Y1345D02*
X14Y1345D01*
X7Y1344D02*
X14Y1344D01*
X7Y1343D02*
X14Y1343D01*
X7Y1342D02*
X14Y1342D01*
X7Y1341D02*
X14Y1341D01*
X7Y1340D02*
X14Y1340D01*
X7Y1339D02*
X14Y1339D01*
X7Y1338D02*
X14Y1338D01*
X7Y1337D02*
X14Y1337D01*
X7Y1336D02*
X14Y1336D01*
X7Y1335D02*
X14Y1335D01*
X7Y1334D02*
X14Y1334D01*
X7Y1333D02*
X14Y1333D01*
X7Y1332D02*
X14Y1332D01*
X7Y1331D02*
X14Y1331D01*
X7Y1330D02*
X14Y1330D01*
X7Y1329D02*
X14Y1329D01*
X7Y1328D02*
X14Y1328D01*
X7Y1327D02*
X14Y1327D01*
X7Y1326D02*
X14Y1326D01*
X7Y1325D02*
X14Y1325D01*
X7Y1324D02*
X14Y1324D01*
X7Y1323D02*
X14Y1323D01*
X7Y1322D02*
X14Y1322D01*
X7Y1321D02*
X14Y1321D01*
X7Y1320D02*
X14Y1320D01*
X7Y1319D02*
X14Y1319D01*
X7Y1318D02*
X14Y1318D01*
X7Y1317D02*
X14Y1317D01*
X7Y1316D02*
X14Y1316D01*
X7Y1315D02*
X14Y1315D01*
X7Y1314D02*
X14Y1314D01*
X7Y1313D02*
X14Y1313D01*
X7Y1312D02*
X14Y1312D01*
X7Y1311D02*
X14Y1311D01*
X7Y1310D02*
X14Y1310D01*
X7Y1309D02*
X14Y1309D01*
X7Y1308D02*
X14Y1308D01*
X7Y1307D02*
X14Y1307D01*
X7Y1306D02*
X14Y1306D01*
X7Y1305D02*
X14Y1305D01*
X7Y1304D02*
X14Y1304D01*
X7Y1303D02*
X14Y1303D01*
X7Y1302D02*
X14Y1302D01*
X7Y1301D02*
X14Y1301D01*
X7Y1300D02*
X14Y1300D01*
X7Y1299D02*
X14Y1299D01*
X7Y1298D02*
X14Y1298D01*
X7Y1297D02*
X14Y1297D01*
X7Y1296D02*
X14Y1296D01*
X7Y1295D02*
X14Y1295D01*
X7Y1294D02*
X14Y1294D01*
X7Y1293D02*
X14Y1293D01*
X7Y1292D02*
X14Y1292D01*
X7Y1291D02*
X14Y1291D01*
X7Y1290D02*
X14Y1290D01*
X7Y1289D02*
X14Y1289D01*
X7Y1288D02*
X14Y1288D01*
X7Y1287D02*
X14Y1287D01*
X7Y1286D02*
X14Y1286D01*
X7Y1285D02*
X14Y1285D01*
X7Y1284D02*
X14Y1284D01*
X7Y1283D02*
X14Y1283D01*
X7Y1282D02*
X14Y1282D01*
X7Y1281D02*
X14Y1281D01*
X7Y1280D02*
X14Y1280D01*
X7Y1279D02*
X14Y1279D01*
X7Y1278D02*
X14Y1278D01*
X7Y1277D02*
X14Y1277D01*
X7Y1276D02*
X14Y1276D01*
X7Y1275D02*
X14Y1275D01*
X7Y1274D02*
X14Y1274D01*
X7Y1273D02*
X14Y1273D01*
X7Y1272D02*
X14Y1272D01*
X7Y1271D02*
X14Y1271D01*
X7Y1270D02*
X14Y1270D01*
X7Y1269D02*
X14Y1269D01*
X7Y1268D02*
X14Y1268D01*
X7Y1267D02*
X14Y1267D01*
X7Y1266D02*
X14Y1266D01*
X7Y1265D02*
X14Y1265D01*
X7Y1264D02*
X14Y1264D01*
X7Y1263D02*
X14Y1263D01*
X7Y1262D02*
X14Y1262D01*
X7Y1261D02*
X14Y1261D01*
X7Y1260D02*
X14Y1260D01*
X7Y1259D02*
X14Y1259D01*
X7Y1258D02*
X14Y1258D01*
X7Y1257D02*
X14Y1257D01*
X7Y1256D02*
X14Y1256D01*
X7Y1255D02*
X14Y1255D01*
X7Y1254D02*
X14Y1254D01*
X7Y1253D02*
X14Y1253D01*
X7Y1252D02*
X14Y1252D01*
X7Y1251D02*
X14Y1251D01*
X7Y1250D02*
X14Y1250D01*
X7Y1249D02*
X14Y1249D01*
X7Y1248D02*
X14Y1248D01*
X7Y1247D02*
X14Y1247D01*
X7Y1246D02*
X14Y1246D01*
X7Y1245D02*
X14Y1245D01*
X7Y1244D02*
X14Y1244D01*
X7Y1243D02*
X14Y1243D01*
X7Y1242D02*
X14Y1242D01*
X7Y1241D02*
X14Y1241D01*
X7Y1240D02*
X14Y1240D01*
X7Y1239D02*
X14Y1239D01*
X7Y1238D02*
X14Y1238D01*
X7Y1237D02*
X14Y1237D01*
X7Y1236D02*
X14Y1236D01*
X7Y1235D02*
X14Y1235D01*
X7Y1234D02*
X14Y1234D01*
X7Y1233D02*
X14Y1233D01*
X7Y1232D02*
X14Y1232D01*
X7Y1231D02*
X14Y1231D01*
X7Y1230D02*
X14Y1230D01*
X7Y1229D02*
X14Y1229D01*
X7Y1228D02*
X14Y1228D01*
X7Y1227D02*
X14Y1227D01*
X7Y1226D02*
X14Y1226D01*
X7Y1225D02*
X14Y1225D01*
X7Y1224D02*
X14Y1224D01*
X7Y1223D02*
X14Y1223D01*
X7Y1222D02*
X14Y1222D01*
X7Y1221D02*
X14Y1221D01*
X7Y1220D02*
X14Y1220D01*
X7Y1219D02*
X14Y1219D01*
X7Y1218D02*
X14Y1218D01*
X7Y1217D02*
X14Y1217D01*
X7Y1216D02*
X14Y1216D01*
X7Y1215D02*
X14Y1215D01*
X7Y1214D02*
X14Y1214D01*
X7Y1213D02*
X14Y1213D01*
X7Y1212D02*
X14Y1212D01*
X7Y1211D02*
X14Y1211D01*
X7Y1210D02*
X14Y1210D01*
X7Y1209D02*
X14Y1209D01*
X7Y1208D02*
X14Y1208D01*
X7Y1207D02*
X14Y1207D01*
X7Y1206D02*
X14Y1206D01*
X7Y1205D02*
X14Y1205D01*
X7Y1204D02*
X14Y1204D01*
X7Y1203D02*
X14Y1203D01*
X7Y1202D02*
X14Y1202D01*
X7Y1201D02*
X14Y1201D01*
X7Y1200D02*
X14Y1200D01*
X7Y1199D02*
X14Y1199D01*
X7Y1198D02*
X14Y1198D01*
X7Y1197D02*
X14Y1197D01*
X7Y1196D02*
X14Y1196D01*
X7Y1195D02*
X14Y1195D01*
X7Y1194D02*
X14Y1194D01*
X7Y1193D02*
X14Y1193D01*
X7Y1192D02*
X14Y1192D01*
X7Y1191D02*
X14Y1191D01*
X7Y1190D02*
X14Y1190D01*
X7Y1189D02*
X14Y1189D01*
X7Y1188D02*
X14Y1188D01*
X7Y1187D02*
X14Y1187D01*
X7Y1186D02*
X14Y1186D01*
X7Y1185D02*
X14Y1185D01*
X7Y1184D02*
X14Y1184D01*
X7Y1183D02*
X14Y1183D01*
X7Y1182D02*
X14Y1182D01*
X7Y1181D02*
X14Y1181D01*
X7Y1180D02*
X14Y1180D01*
X7Y1179D02*
X14Y1179D01*
X7Y1178D02*
X14Y1178D01*
X7Y1177D02*
X14Y1177D01*
X7Y1176D02*
X14Y1176D01*
X7Y1175D02*
X14Y1175D01*
X7Y1174D02*
X14Y1174D01*
X7Y1173D02*
X14Y1173D01*
X7Y1172D02*
X14Y1172D01*
X7Y1171D02*
X14Y1171D01*
X7Y1170D02*
X14Y1170D01*
X7Y1169D02*
X14Y1169D01*
X7Y1168D02*
X14Y1168D01*
X7Y1167D02*
X14Y1167D01*
X7Y1166D02*
X14Y1166D01*
X7Y1165D02*
X14Y1165D01*
X7Y1164D02*
X14Y1164D01*
X7Y1163D02*
X14Y1163D01*
X7Y1162D02*
X14Y1162D01*
X7Y1161D02*
X14Y1161D01*
X7Y1160D02*
X14Y1160D01*
X7Y1159D02*
X14Y1159D01*
X7Y1158D02*
X14Y1158D01*
X7Y1157D02*
X14Y1157D01*
X7Y1156D02*
X14Y1156D01*
X7Y1155D02*
X14Y1155D01*
X7Y1154D02*
X14Y1154D01*
X7Y1153D02*
X14Y1153D01*
X7Y1152D02*
X14Y1152D01*
X7Y1151D02*
X14Y1151D01*
X7Y1150D02*
X14Y1150D01*
X7Y1149D02*
X14Y1149D01*
X7Y1148D02*
X14Y1148D01*
X7Y1147D02*
X14Y1147D01*
X7Y1146D02*
X14Y1146D01*
X7Y1145D02*
X14Y1145D01*
X7Y1144D02*
X14Y1144D01*
X7Y1143D02*
X14Y1143D01*
X7Y1142D02*
X14Y1142D01*
X7Y1141D02*
X14Y1141D01*
X7Y1140D02*
X14Y1140D01*
X7Y1139D02*
X14Y1139D01*
X7Y1138D02*
X14Y1138D01*
X7Y1137D02*
X14Y1137D01*
X7Y1136D02*
X14Y1136D01*
X7Y1135D02*
X14Y1135D01*
X7Y1134D02*
X14Y1134D01*
X7Y1133D02*
X14Y1133D01*
X7Y1132D02*
X14Y1132D01*
X7Y1131D02*
X14Y1131D01*
X7Y1130D02*
X14Y1130D01*
X7Y1129D02*
X14Y1129D01*
X7Y1128D02*
X14Y1128D01*
X7Y1127D02*
X14Y1127D01*
X7Y1126D02*
X14Y1126D01*
X7Y1125D02*
X14Y1125D01*
X7Y1124D02*
X14Y1124D01*
X7Y1123D02*
X14Y1123D01*
X7Y1122D02*
X14Y1122D01*
X7Y1121D02*
X14Y1121D01*
X7Y1120D02*
X14Y1120D01*
X7Y1119D02*
X14Y1119D01*
X7Y1118D02*
X14Y1118D01*
X7Y1117D02*
X14Y1117D01*
X7Y1116D02*
X14Y1116D01*
X7Y1115D02*
X14Y1115D01*
X7Y1114D02*
X14Y1114D01*
X7Y1113D02*
X14Y1113D01*
X7Y1112D02*
X14Y1112D01*
X7Y1111D02*
X14Y1111D01*
X7Y1110D02*
X14Y1110D01*
X7Y1109D02*
X14Y1109D01*
X7Y1108D02*
X14Y1108D01*
X7Y1107D02*
X14Y1107D01*
X7Y1106D02*
X14Y1106D01*
X7Y1105D02*
X14Y1105D01*
X7Y1104D02*
X14Y1104D01*
X7Y1103D02*
X14Y1103D01*
X7Y1102D02*
X14Y1102D01*
X7Y1101D02*
X14Y1101D01*
X7Y1100D02*
X14Y1100D01*
X7Y1099D02*
X14Y1099D01*
X7Y1098D02*
X14Y1098D01*
X7Y1097D02*
X14Y1097D01*
X7Y1096D02*
X14Y1096D01*
X7Y1095D02*
X14Y1095D01*
X7Y1094D02*
X14Y1094D01*
X7Y1093D02*
X14Y1093D01*
X7Y1092D02*
X14Y1092D01*
X7Y1091D02*
X14Y1091D01*
X7Y1090D02*
X14Y1090D01*
X7Y1089D02*
X14Y1089D01*
X7Y1088D02*
X14Y1088D01*
X7Y1087D02*
X14Y1087D01*
X7Y1086D02*
X14Y1086D01*
X7Y1085D02*
X14Y1085D01*
X7Y1084D02*
X14Y1084D01*
X7Y1083D02*
X14Y1083D01*
X7Y1082D02*
X14Y1082D01*
X7Y1081D02*
X14Y1081D01*
X7Y1080D02*
X14Y1080D01*
X7Y1079D02*
X14Y1079D01*
X7Y1078D02*
X14Y1078D01*
X7Y1077D02*
X14Y1077D01*
X7Y1076D02*
X14Y1076D01*
X7Y1075D02*
X14Y1075D01*
X7Y1074D02*
X14Y1074D01*
X7Y1073D02*
X14Y1073D01*
X7Y1072D02*
X14Y1072D01*
X7Y1071D02*
X14Y1071D01*
X7Y1070D02*
X14Y1070D01*
X7Y1069D02*
X14Y1069D01*
X7Y1068D02*
X14Y1068D01*
X7Y1067D02*
X14Y1067D01*
X7Y1066D02*
X14Y1066D01*
X7Y1065D02*
X14Y1065D01*
X7Y1064D02*
X14Y1064D01*
X7Y1063D02*
X14Y1063D01*
X7Y1062D02*
X14Y1062D01*
X7Y1061D02*
X14Y1061D01*
X7Y1060D02*
X14Y1060D01*
X7Y1059D02*
X14Y1059D01*
X7Y1058D02*
X14Y1058D01*
X7Y1057D02*
X14Y1057D01*
X7Y1056D02*
X14Y1056D01*
X7Y1055D02*
X14Y1055D01*
X7Y1054D02*
X14Y1054D01*
X7Y1053D02*
X14Y1053D01*
X7Y1052D02*
X14Y1052D01*
X7Y1051D02*
X14Y1051D01*
X7Y1050D02*
X14Y1050D01*
X7Y1049D02*
X14Y1049D01*
X7Y1048D02*
X14Y1048D01*
X7Y1047D02*
X14Y1047D01*
X7Y1046D02*
X14Y1046D01*
X7Y1045D02*
X14Y1045D01*
X7Y1044D02*
X14Y1044D01*
X7Y1043D02*
X14Y1043D01*
X7Y1042D02*
X14Y1042D01*
X7Y1041D02*
X14Y1041D01*
X7Y1040D02*
X14Y1040D01*
X7Y1039D02*
X14Y1039D01*
X7Y1038D02*
X14Y1038D01*
X7Y1037D02*
X14Y1037D01*
X7Y1036D02*
X14Y1036D01*
X7Y1035D02*
X14Y1035D01*
X7Y1034D02*
X14Y1034D01*
X7Y1033D02*
X14Y1033D01*
X7Y1032D02*
X14Y1032D01*
X7Y1031D02*
X14Y1031D01*
X7Y1030D02*
X14Y1030D01*
X7Y1029D02*
X14Y1029D01*
X7Y1028D02*
X14Y1028D01*
X7Y1027D02*
X14Y1027D01*
X7Y1026D02*
X14Y1026D01*
X7Y1025D02*
X14Y1025D01*
X7Y1024D02*
X14Y1024D01*
X7Y1023D02*
X14Y1023D01*
X7Y1022D02*
X14Y1022D01*
X7Y1021D02*
X14Y1021D01*
X7Y1020D02*
X14Y1020D01*
X7Y1019D02*
X14Y1019D01*
X7Y1018D02*
X14Y1018D01*
X7Y1017D02*
X14Y1017D01*
X7Y1016D02*
X14Y1016D01*
X7Y1015D02*
X14Y1015D01*
X7Y1014D02*
X14Y1014D01*
X7Y1013D02*
X14Y1013D01*
X7Y1012D02*
X14Y1012D01*
X7Y1011D02*
X14Y1011D01*
X7Y1010D02*
X14Y1010D01*
X7Y1009D02*
X14Y1009D01*
X7Y1008D02*
X14Y1008D01*
X7Y1007D02*
X14Y1007D01*
X7Y1006D02*
X14Y1006D01*
X7Y1005D02*
X14Y1005D01*
X7Y1004D02*
X14Y1004D01*
X7Y1003D02*
X14Y1003D01*
X7Y1002D02*
X14Y1002D01*
X7Y1001D02*
X14Y1001D01*
X7Y1000D02*
X14Y1000D01*
X7Y999D02*
X14Y999D01*
X7Y998D02*
X14Y998D01*
X7Y997D02*
X14Y997D01*
X7Y996D02*
X14Y996D01*
X7Y995D02*
X14Y995D01*
X7Y994D02*
X14Y994D01*
X7Y993D02*
X14Y993D01*
X7Y992D02*
X14Y992D01*
X7Y991D02*
X14Y991D01*
X7Y990D02*
X14Y990D01*
X7Y989D02*
X14Y989D01*
X7Y988D02*
X14Y988D01*
X7Y987D02*
X14Y987D01*
X7Y986D02*
X14Y986D01*
X7Y985D02*
X14Y985D01*
X7Y984D02*
X14Y984D01*
X7Y983D02*
X14Y983D01*
X7Y982D02*
X14Y982D01*
X7Y981D02*
X14Y981D01*
X7Y980D02*
X14Y980D01*
X7Y979D02*
X14Y979D01*
X7Y978D02*
X14Y978D01*
X7Y977D02*
X14Y977D01*
X7Y976D02*
X14Y976D01*
X7Y975D02*
X14Y975D01*
X7Y974D02*
X14Y974D01*
X7Y973D02*
X14Y973D01*
X7Y972D02*
X14Y972D01*
X7Y971D02*
X14Y971D01*
X7Y970D02*
X14Y970D01*
X7Y969D02*
X14Y969D01*
X7Y968D02*
X14Y968D01*
X7Y967D02*
X14Y967D01*
X7Y966D02*
X14Y966D01*
X7Y965D02*
X14Y965D01*
X7Y964D02*
X14Y964D01*
X7Y963D02*
X14Y963D01*
X7Y962D02*
X14Y962D01*
X7Y961D02*
X14Y961D01*
X7Y960D02*
X14Y960D01*
X7Y959D02*
X14Y959D01*
X7Y958D02*
X14Y958D01*
X7Y957D02*
X14Y957D01*
X7Y956D02*
X14Y956D01*
X7Y955D02*
X14Y955D01*
X7Y954D02*
X14Y954D01*
X7Y953D02*
X14Y953D01*
X7Y952D02*
X14Y952D01*
X7Y951D02*
X14Y951D01*
X7Y950D02*
X14Y950D01*
X7Y949D02*
X14Y949D01*
X7Y948D02*
X14Y948D01*
X7Y947D02*
X14Y947D01*
X7Y946D02*
X14Y946D01*
X7Y945D02*
X14Y945D01*
X7Y944D02*
X14Y944D01*
X7Y943D02*
X14Y943D01*
X7Y942D02*
X14Y942D01*
X7Y941D02*
X14Y941D01*
X7Y940D02*
X14Y940D01*
X7Y939D02*
X14Y939D01*
X7Y938D02*
X14Y938D01*
X7Y937D02*
X14Y937D01*
X7Y936D02*
X14Y936D01*
X7Y935D02*
X14Y935D01*
X7Y934D02*
X14Y934D01*
X7Y933D02*
X14Y933D01*
X7Y932D02*
X14Y932D01*
X7Y931D02*
X14Y931D01*
X7Y930D02*
X14Y930D01*
X7Y929D02*
X14Y929D01*
X7Y928D02*
X14Y928D01*
X7Y927D02*
X14Y927D01*
X7Y926D02*
X14Y926D01*
X7Y925D02*
X14Y925D01*
X7Y924D02*
X14Y924D01*
X7Y923D02*
X14Y923D01*
X7Y922D02*
X14Y922D01*
X7Y921D02*
X14Y921D01*
X7Y920D02*
X14Y920D01*
X7Y919D02*
X14Y919D01*
X7Y918D02*
X14Y918D01*
X7Y917D02*
X14Y917D01*
X7Y916D02*
X14Y916D01*
X7Y915D02*
X14Y915D01*
X7Y914D02*
X14Y914D01*
X7Y913D02*
X14Y913D01*
X7Y912D02*
X14Y912D01*
X7Y911D02*
X14Y911D01*
X7Y910D02*
X14Y910D01*
X7Y909D02*
X14Y909D01*
X7Y908D02*
X14Y908D01*
X7Y907D02*
X14Y907D01*
X7Y906D02*
X14Y906D01*
X7Y905D02*
X14Y905D01*
X7Y904D02*
X14Y904D01*
X7Y903D02*
X14Y903D01*
X7Y902D02*
X14Y902D01*
X7Y901D02*
X14Y901D01*
X7Y900D02*
X14Y900D01*
X7Y899D02*
X14Y899D01*
X7Y898D02*
X14Y898D01*
X7Y897D02*
X14Y897D01*
X7Y896D02*
X14Y896D01*
X7Y895D02*
X14Y895D01*
X7Y894D02*
X14Y894D01*
X7Y893D02*
X14Y893D01*
X7Y892D02*
X14Y892D01*
X7Y891D02*
X14Y891D01*
X7Y890D02*
X14Y890D01*
X7Y889D02*
X14Y889D01*
X7Y888D02*
X14Y888D01*
X7Y887D02*
X14Y887D01*
X7Y886D02*
X14Y886D01*
X7Y885D02*
X14Y885D01*
X7Y884D02*
X14Y884D01*
X7Y883D02*
X14Y883D01*
X7Y882D02*
X14Y882D01*
X7Y881D02*
X14Y881D01*
X7Y880D02*
X14Y880D01*
X7Y879D02*
X14Y879D01*
X7Y878D02*
X14Y878D01*
X7Y877D02*
X14Y877D01*
X7Y876D02*
X14Y876D01*
X7Y875D02*
X14Y875D01*
X7Y874D02*
X14Y874D01*
X7Y873D02*
X14Y873D01*
X7Y872D02*
X14Y872D01*
X7Y871D02*
X14Y871D01*
X7Y870D02*
X14Y870D01*
X7Y869D02*
X14Y869D01*
X7Y868D02*
X14Y868D01*
X7Y867D02*
X14Y867D01*
X7Y866D02*
X14Y866D01*
X7Y865D02*
X14Y865D01*
X7Y864D02*
X14Y864D01*
X7Y863D02*
X14Y863D01*
X7Y862D02*
X14Y862D01*
X7Y861D02*
X14Y861D01*
X7Y860D02*
X14Y860D01*
X7Y859D02*
X14Y859D01*
X7Y858D02*
X14Y858D01*
X7Y857D02*
X14Y857D01*
X7Y856D02*
X14Y856D01*
X7Y855D02*
X14Y855D01*
X7Y854D02*
X14Y854D01*
X7Y853D02*
X14Y853D01*
X7Y852D02*
X14Y852D01*
X7Y851D02*
X14Y851D01*
X7Y850D02*
X14Y850D01*
X7Y849D02*
X14Y849D01*
X7Y848D02*
X14Y848D01*
X7Y847D02*
X14Y847D01*
X7Y846D02*
X14Y846D01*
X7Y845D02*
X14Y845D01*
X7Y844D02*
X14Y844D01*
X7Y843D02*
X14Y843D01*
X7Y842D02*
X14Y842D01*
X7Y841D02*
X14Y841D01*
X7Y840D02*
X14Y840D01*
X7Y839D02*
X14Y839D01*
X7Y838D02*
X14Y838D01*
X7Y837D02*
X14Y837D01*
X7Y836D02*
X14Y836D01*
X7Y835D02*
X14Y835D01*
X7Y834D02*
X14Y834D01*
X7Y833D02*
X14Y833D01*
X7Y832D02*
X14Y832D01*
X7Y831D02*
X14Y831D01*
X7Y830D02*
X14Y830D01*
X7Y829D02*
X14Y829D01*
X7Y828D02*
X14Y828D01*
X7Y827D02*
X14Y827D01*
X7Y826D02*
X14Y826D01*
X7Y825D02*
X14Y825D01*
X7Y824D02*
X14Y824D01*
X7Y823D02*
X14Y823D01*
X7Y822D02*
X14Y822D01*
X7Y821D02*
X14Y821D01*
X7Y820D02*
X14Y820D01*
X7Y819D02*
X14Y819D01*
X7Y818D02*
X14Y818D01*
X7Y817D02*
X14Y817D01*
X7Y816D02*
X14Y816D01*
X7Y815D02*
X14Y815D01*
X7Y814D02*
X14Y814D01*
X7Y813D02*
X14Y813D01*
X7Y812D02*
X14Y812D01*
X7Y811D02*
X14Y811D01*
X7Y810D02*
X14Y810D01*
X7Y809D02*
X14Y809D01*
X7Y808D02*
X14Y808D01*
X7Y807D02*
X14Y807D01*
X7Y806D02*
X14Y806D01*
X7Y805D02*
X14Y805D01*
X7Y804D02*
X14Y804D01*
X7Y803D02*
X14Y803D01*
X7Y802D02*
X14Y802D01*
X7Y801D02*
X14Y801D01*
X7Y800D02*
X14Y800D01*
X7Y799D02*
X14Y799D01*
X7Y798D02*
X14Y798D01*
X7Y797D02*
X14Y797D01*
X7Y796D02*
X14Y796D01*
X7Y795D02*
X14Y795D01*
X7Y794D02*
X14Y794D01*
X7Y793D02*
X14Y793D01*
X7Y792D02*
X14Y792D01*
X7Y791D02*
X14Y791D01*
X7Y790D02*
X14Y790D01*
X7Y789D02*
X14Y789D01*
X7Y788D02*
X14Y788D01*
X7Y787D02*
X14Y787D01*
X7Y786D02*
X14Y786D01*
X7Y785D02*
X14Y785D01*
X7Y784D02*
X14Y784D01*
X7Y783D02*
X14Y783D01*
X7Y782D02*
X14Y782D01*
X7Y781D02*
X14Y781D01*
X7Y780D02*
X14Y780D01*
X7Y779D02*
X14Y779D01*
X7Y778D02*
X14Y778D01*
X7Y777D02*
X14Y777D01*
X7Y776D02*
X14Y776D01*
X7Y775D02*
X14Y775D01*
X7Y774D02*
X14Y774D01*
X7Y773D02*
X14Y773D01*
X7Y772D02*
X14Y772D01*
X7Y771D02*
X14Y771D01*
X7Y770D02*
X14Y770D01*
X7Y769D02*
X14Y769D01*
X7Y768D02*
X14Y768D01*
X7Y767D02*
X14Y767D01*
X7Y766D02*
X14Y766D01*
X7Y765D02*
X14Y765D01*
X7Y764D02*
X14Y764D01*
X7Y763D02*
X14Y763D01*
X7Y762D02*
X14Y762D01*
X7Y761D02*
X14Y761D01*
X7Y760D02*
X14Y760D01*
X7Y759D02*
X14Y759D01*
X7Y758D02*
X14Y758D01*
X7Y757D02*
X14Y757D01*
X7Y756D02*
X14Y756D01*
X7Y755D02*
X14Y755D01*
X7Y754D02*
X14Y754D01*
X7Y753D02*
X14Y753D01*
X7Y752D02*
X14Y752D01*
X7Y751D02*
X14Y751D01*
X7Y750D02*
X14Y750D01*
X7Y749D02*
X14Y749D01*
X7Y748D02*
X14Y748D01*
X7Y747D02*
X14Y747D01*
X7Y746D02*
X14Y746D01*
X7Y745D02*
X14Y745D01*
X7Y744D02*
X14Y744D01*
X7Y743D02*
X14Y743D01*
X7Y742D02*
X14Y742D01*
X7Y741D02*
X14Y741D01*
X7Y740D02*
X14Y740D01*
X7Y739D02*
X14Y739D01*
X7Y738D02*
X14Y738D01*
X7Y737D02*
X14Y737D01*
X7Y736D02*
X14Y736D01*
X7Y735D02*
X14Y735D01*
X7Y734D02*
X14Y734D01*
X7Y733D02*
X14Y733D01*
X7Y732D02*
X14Y732D01*
X7Y731D02*
X14Y731D01*
X7Y730D02*
X14Y730D01*
X7Y729D02*
X14Y729D01*
X7Y728D02*
X14Y728D01*
X7Y727D02*
X14Y727D01*
X7Y726D02*
X14Y726D01*
X7Y725D02*
X14Y725D01*
X7Y724D02*
X14Y724D01*
X7Y723D02*
X14Y723D01*
X7Y722D02*
X14Y722D01*
X7Y721D02*
X14Y721D01*
X7Y720D02*
X14Y720D01*
X7Y719D02*
X14Y719D01*
X7Y718D02*
X14Y718D01*
X7Y717D02*
X14Y717D01*
X7Y716D02*
X14Y716D01*
X7Y715D02*
X14Y715D01*
X7Y714D02*
X14Y714D01*
X7Y713D02*
X14Y713D01*
X7Y712D02*
X14Y712D01*
X7Y711D02*
X14Y711D01*
X7Y710D02*
X14Y710D01*
X7Y709D02*
X14Y709D01*
X7Y708D02*
X14Y708D01*
X7Y707D02*
X14Y707D01*
X7Y706D02*
X14Y706D01*
X7Y705D02*
X14Y705D01*
X7Y704D02*
X14Y704D01*
X7Y703D02*
X14Y703D01*
X7Y702D02*
X14Y702D01*
X7Y701D02*
X14Y701D01*
X7Y700D02*
X14Y700D01*
X7Y699D02*
X14Y699D01*
X7Y698D02*
X14Y698D01*
X7Y697D02*
X14Y697D01*
X7Y696D02*
X14Y696D01*
X7Y695D02*
X14Y695D01*
X7Y694D02*
X14Y694D01*
X7Y693D02*
X14Y693D01*
X7Y692D02*
X14Y692D01*
X7Y691D02*
X14Y691D01*
X7Y690D02*
X14Y690D01*
X7Y689D02*
X14Y689D01*
X7Y688D02*
X14Y688D01*
X7Y687D02*
X14Y687D01*
X7Y686D02*
X14Y686D01*
X7Y685D02*
X14Y685D01*
X7Y684D02*
X14Y684D01*
X7Y683D02*
X14Y683D01*
X7Y682D02*
X14Y682D01*
X7Y681D02*
X14Y681D01*
X7Y680D02*
X14Y680D01*
X7Y679D02*
X14Y679D01*
X7Y678D02*
X14Y678D01*
X7Y677D02*
X14Y677D01*
X7Y676D02*
X14Y676D01*
X7Y675D02*
X14Y675D01*
X7Y674D02*
X14Y674D01*
X7Y673D02*
X14Y673D01*
X7Y672D02*
X14Y672D01*
X7Y671D02*
X14Y671D01*
X7Y670D02*
X14Y670D01*
X7Y669D02*
X14Y669D01*
X7Y668D02*
X14Y668D01*
X7Y667D02*
X14Y667D01*
X7Y666D02*
X14Y666D01*
X7Y665D02*
X14Y665D01*
X7Y664D02*
X14Y664D01*
X7Y663D02*
X14Y663D01*
X7Y662D02*
X14Y662D01*
X7Y661D02*
X14Y661D01*
X7Y660D02*
X14Y660D01*
X7Y659D02*
X14Y659D01*
X7Y658D02*
X14Y658D01*
X7Y657D02*
X14Y657D01*
X7Y656D02*
X14Y656D01*
X7Y655D02*
X14Y655D01*
X7Y654D02*
X14Y654D01*
X7Y653D02*
X14Y653D01*
X7Y652D02*
X14Y652D01*
X7Y651D02*
X14Y651D01*
X7Y650D02*
X14Y650D01*
X7Y649D02*
X14Y649D01*
X7Y648D02*
X14Y648D01*
X7Y647D02*
X14Y647D01*
X7Y646D02*
X14Y646D01*
X7Y645D02*
X14Y645D01*
X7Y644D02*
X14Y644D01*
X7Y643D02*
X14Y643D01*
X7Y642D02*
X14Y642D01*
X7Y641D02*
X14Y641D01*
X7Y640D02*
X14Y640D01*
X7Y639D02*
X14Y639D01*
X7Y638D02*
X14Y638D01*
X7Y637D02*
X14Y637D01*
X7Y636D02*
X14Y636D01*
X7Y635D02*
X14Y635D01*
X7Y634D02*
X14Y634D01*
X7Y633D02*
X14Y633D01*
X7Y632D02*
X14Y632D01*
X7Y631D02*
X14Y631D01*
X7Y630D02*
X14Y630D01*
X7Y629D02*
X14Y629D01*
X7Y628D02*
X14Y628D01*
X7Y627D02*
X14Y627D01*
X7Y626D02*
X14Y626D01*
X7Y625D02*
X14Y625D01*
X7Y624D02*
X14Y624D01*
X7Y623D02*
X14Y623D01*
X7Y622D02*
X14Y622D01*
X7Y621D02*
X14Y621D01*
X7Y620D02*
X14Y620D01*
X7Y619D02*
X14Y619D01*
X7Y618D02*
X14Y618D01*
X7Y617D02*
X14Y617D01*
X7Y616D02*
X14Y616D01*
X7Y615D02*
X14Y615D01*
X7Y614D02*
X14Y614D01*
X7Y613D02*
X14Y613D01*
X7Y612D02*
X14Y612D01*
X7Y611D02*
X14Y611D01*
X7Y610D02*
X14Y610D01*
X7Y609D02*
X14Y609D01*
X7Y608D02*
X14Y608D01*
X7Y607D02*
X14Y607D01*
X7Y606D02*
X14Y606D01*
X7Y605D02*
X14Y605D01*
X7Y604D02*
X14Y604D01*
X7Y603D02*
X14Y603D01*
X7Y602D02*
X14Y602D01*
X7Y601D02*
X14Y601D01*
X7Y600D02*
X14Y600D01*
X7Y599D02*
X14Y599D01*
X7Y598D02*
X14Y598D01*
X7Y597D02*
X14Y597D01*
X7Y596D02*
X14Y596D01*
X7Y595D02*
X14Y595D01*
X7Y594D02*
X14Y594D01*
X7Y593D02*
X14Y593D01*
X7Y592D02*
X14Y592D01*
X7Y591D02*
X14Y591D01*
X7Y590D02*
X14Y590D01*
X7Y589D02*
X14Y589D01*
X7Y588D02*
X14Y588D01*
X7Y587D02*
X14Y587D01*
X7Y586D02*
X14Y586D01*
X7Y585D02*
X14Y585D01*
X7Y584D02*
X14Y584D01*
X7Y583D02*
X14Y583D01*
X7Y582D02*
X14Y582D01*
X7Y581D02*
X14Y581D01*
X7Y580D02*
X14Y580D01*
X7Y579D02*
X14Y579D01*
X7Y578D02*
X14Y578D01*
X7Y577D02*
X14Y577D01*
X7Y576D02*
X14Y576D01*
X7Y575D02*
X14Y575D01*
X7Y574D02*
X14Y574D01*
X7Y573D02*
X14Y573D01*
X7Y572D02*
X14Y572D01*
X7Y571D02*
X14Y571D01*
X7Y570D02*
X14Y570D01*
X7Y569D02*
X14Y569D01*
X7Y568D02*
X14Y568D01*
X7Y567D02*
X14Y567D01*
X7Y566D02*
X14Y566D01*
X7Y565D02*
X14Y565D01*
X7Y564D02*
X14Y564D01*
X7Y563D02*
X14Y563D01*
X7Y562D02*
X14Y562D01*
X7Y561D02*
X14Y561D01*
X7Y560D02*
X14Y560D01*
X7Y559D02*
X14Y559D01*
X7Y558D02*
X14Y558D01*
X7Y557D02*
X14Y557D01*
X7Y556D02*
X14Y556D01*
X7Y555D02*
X14Y555D01*
X7Y554D02*
X14Y554D01*
X7Y553D02*
X14Y553D01*
X7Y552D02*
X14Y552D01*
X7Y551D02*
X14Y551D01*
X7Y550D02*
X14Y550D01*
X7Y549D02*
X14Y549D01*
X7Y548D02*
X14Y548D01*
X7Y547D02*
X14Y547D01*
X7Y546D02*
X14Y546D01*
X7Y545D02*
X14Y545D01*
X7Y544D02*
X14Y544D01*
X7Y543D02*
X14Y543D01*
X7Y542D02*
X14Y542D01*
X7Y541D02*
X14Y541D01*
X7Y540D02*
X14Y540D01*
X7Y539D02*
X14Y539D01*
X7Y538D02*
X14Y538D01*
X7Y537D02*
X14Y537D01*
X7Y536D02*
X14Y536D01*
X7Y535D02*
X14Y535D01*
X7Y534D02*
X14Y534D01*
X7Y533D02*
X14Y533D01*
X7Y532D02*
X14Y532D01*
X7Y531D02*
X14Y531D01*
X7Y530D02*
X14Y530D01*
X7Y529D02*
X14Y529D01*
X7Y528D02*
X14Y528D01*
X7Y527D02*
X14Y527D01*
X7Y526D02*
X14Y526D01*
X7Y525D02*
X14Y525D01*
X7Y524D02*
X14Y524D01*
X7Y523D02*
X14Y523D01*
X7Y522D02*
X14Y522D01*
X7Y521D02*
X14Y521D01*
X7Y520D02*
X14Y520D01*
X7Y519D02*
X14Y519D01*
X7Y518D02*
X14Y518D01*
X7Y517D02*
X14Y517D01*
X7Y516D02*
X14Y516D01*
X7Y515D02*
X14Y515D01*
X7Y514D02*
X14Y514D01*
X7Y513D02*
X14Y513D01*
X7Y512D02*
X14Y512D01*
X7Y511D02*
X14Y511D01*
X7Y510D02*
X14Y510D01*
X7Y509D02*
X14Y509D01*
X7Y508D02*
X14Y508D01*
X7Y507D02*
X14Y507D01*
X7Y506D02*
X14Y506D01*
X7Y505D02*
X14Y505D01*
X7Y504D02*
X14Y504D01*
X7Y503D02*
X14Y503D01*
X7Y502D02*
X14Y502D01*
X7Y501D02*
X14Y501D01*
X7Y500D02*
X14Y500D01*
X7Y499D02*
X14Y499D01*
X7Y498D02*
X14Y498D01*
X7Y497D02*
X14Y497D01*
X7Y496D02*
X14Y496D01*
X7Y495D02*
X14Y495D01*
X7Y494D02*
X14Y494D01*
X7Y493D02*
X14Y493D01*
X7Y492D02*
X14Y492D01*
X7Y491D02*
X14Y491D01*
X7Y490D02*
X14Y490D01*
X7Y489D02*
X14Y489D01*
X7Y488D02*
X14Y488D01*
X7Y487D02*
X14Y487D01*
X7Y486D02*
X14Y486D01*
X7Y485D02*
X14Y485D01*
X7Y484D02*
X14Y484D01*
X7Y483D02*
X14Y483D01*
X7Y482D02*
X14Y482D01*
X7Y481D02*
X14Y481D01*
X7Y480D02*
X14Y480D01*
X7Y479D02*
X14Y479D01*
X7Y478D02*
X14Y478D01*
X7Y477D02*
X14Y477D01*
X7Y476D02*
X14Y476D01*
X7Y475D02*
X14Y475D01*
X7Y474D02*
X14Y474D01*
X7Y473D02*
X14Y473D01*
X7Y472D02*
X14Y472D01*
X7Y471D02*
X14Y471D01*
X7Y470D02*
X14Y470D01*
X7Y469D02*
X14Y469D01*
X7Y468D02*
X14Y468D01*
X7Y467D02*
X14Y467D01*
X7Y466D02*
X14Y466D01*
X7Y465D02*
X14Y465D01*
X7Y464D02*
X14Y464D01*
X7Y463D02*
X14Y463D01*
X7Y462D02*
X14Y462D01*
X7Y461D02*
X14Y461D01*
X7Y460D02*
X14Y460D01*
X7Y459D02*
X14Y459D01*
X7Y458D02*
X14Y458D01*
X7Y457D02*
X14Y457D01*
X7Y456D02*
X14Y456D01*
X7Y455D02*
X14Y455D01*
X7Y454D02*
X14Y454D01*
X7Y453D02*
X14Y453D01*
X7Y452D02*
X14Y452D01*
X7Y451D02*
X14Y451D01*
X7Y450D02*
X14Y450D01*
X7Y449D02*
X14Y449D01*
X7Y448D02*
X14Y448D01*
X7Y447D02*
X14Y447D01*
X7Y446D02*
X14Y446D01*
X7Y445D02*
X14Y445D01*
X7Y444D02*
X14Y444D01*
X7Y443D02*
X14Y443D01*
X7Y442D02*
X14Y442D01*
X7Y441D02*
X14Y441D01*
X7Y440D02*
X14Y440D01*
X7Y439D02*
X14Y439D01*
X7Y438D02*
X14Y438D01*
X7Y437D02*
X14Y437D01*
X7Y436D02*
X14Y436D01*
X7Y435D02*
X14Y435D01*
X7Y434D02*
X14Y434D01*
X7Y433D02*
X14Y433D01*
X7Y432D02*
X14Y432D01*
X7Y431D02*
X14Y431D01*
X7Y430D02*
X14Y430D01*
X7Y429D02*
X14Y429D01*
X7Y428D02*
X14Y428D01*
X7Y427D02*
X14Y427D01*
X7Y426D02*
X14Y426D01*
X7Y425D02*
X14Y425D01*
X7Y424D02*
X14Y424D01*
X7Y423D02*
X14Y423D01*
X7Y422D02*
X14Y422D01*
X7Y421D02*
X14Y421D01*
X7Y420D02*
X14Y420D01*
X7Y419D02*
X14Y419D01*
X7Y418D02*
X14Y418D01*
X7Y417D02*
X14Y417D01*
X7Y416D02*
X14Y416D01*
X7Y415D02*
X14Y415D01*
X7Y414D02*
X14Y414D01*
X7Y413D02*
X14Y413D01*
X7Y412D02*
X14Y412D01*
X7Y411D02*
X14Y411D01*
X7Y410D02*
X14Y410D01*
X7Y409D02*
X14Y409D01*
X7Y408D02*
X14Y408D01*
X7Y407D02*
X14Y407D01*
X7Y406D02*
X14Y406D01*
X7Y405D02*
X14Y405D01*
X7Y404D02*
X14Y404D01*
X7Y403D02*
X14Y403D01*
X7Y402D02*
X14Y402D01*
X7Y401D02*
X14Y401D01*
X7Y400D02*
X14Y400D01*
X7Y399D02*
X14Y399D01*
X7Y398D02*
X14Y398D01*
X7Y397D02*
X14Y397D01*
X7Y396D02*
X14Y396D01*
X7Y395D02*
X14Y395D01*
X7Y394D02*
X14Y394D01*
X7Y393D02*
X14Y393D01*
X7Y392D02*
X14Y392D01*
X7Y391D02*
X14Y391D01*
X7Y390D02*
X14Y390D01*
X7Y389D02*
X14Y389D01*
X7Y388D02*
X14Y388D01*
X7Y387D02*
X14Y387D01*
X7Y386D02*
X14Y386D01*
X7Y385D02*
X14Y385D01*
X7Y384D02*
X14Y384D01*
X7Y383D02*
X14Y383D01*
X7Y382D02*
X14Y382D01*
X7Y381D02*
X14Y381D01*
X7Y380D02*
X14Y380D01*
X7Y379D02*
X14Y379D01*
X7Y378D02*
X14Y378D01*
X7Y377D02*
X14Y377D01*
X7Y376D02*
X14Y376D01*
X7Y375D02*
X14Y375D01*
X7Y374D02*
X14Y374D01*
X7Y373D02*
X14Y373D01*
X7Y372D02*
X14Y372D01*
X7Y371D02*
X14Y371D01*
X7Y370D02*
X14Y370D01*
X7Y369D02*
X14Y369D01*
X7Y368D02*
X14Y368D01*
X7Y367D02*
X14Y367D01*
X7Y366D02*
X14Y366D01*
X7Y365D02*
X14Y365D01*
X7Y364D02*
X14Y364D01*
X7Y363D02*
X14Y363D01*
X7Y362D02*
X14Y362D01*
X7Y361D02*
X14Y361D01*
X7Y360D02*
X14Y360D01*
X7Y359D02*
X14Y359D01*
X7Y358D02*
X14Y358D01*
X7Y357D02*
X14Y357D01*
X7Y356D02*
X14Y356D01*
X7Y355D02*
X14Y355D01*
X7Y354D02*
X14Y354D01*
X7Y353D02*
X14Y353D01*
X7Y352D02*
X14Y352D01*
X7Y351D02*
X14Y351D01*
X7Y350D02*
X14Y350D01*
X7Y349D02*
X14Y349D01*
X7Y348D02*
X14Y348D01*
X7Y347D02*
X14Y347D01*
X7Y346D02*
X14Y346D01*
X7Y345D02*
X14Y345D01*
X7Y344D02*
X14Y344D01*
X7Y343D02*
X14Y343D01*
X7Y342D02*
X14Y342D01*
X7Y341D02*
X14Y341D01*
X7Y340D02*
X14Y340D01*
X7Y339D02*
X14Y339D01*
X7Y338D02*
X14Y338D01*
X7Y337D02*
X14Y337D01*
X7Y336D02*
X14Y336D01*
X7Y335D02*
X14Y335D01*
X7Y334D02*
X14Y334D01*
X7Y333D02*
X14Y333D01*
X7Y332D02*
X14Y332D01*
X7Y331D02*
X14Y331D01*
X7Y330D02*
X14Y330D01*
X7Y329D02*
X14Y329D01*
X7Y328D02*
X14Y328D01*
X7Y327D02*
X14Y327D01*
X7Y326D02*
X14Y326D01*
X7Y325D02*
X14Y325D01*
X7Y324D02*
X14Y324D01*
X7Y323D02*
X14Y323D01*
X7Y322D02*
X14Y322D01*
X7Y321D02*
X14Y321D01*
X7Y320D02*
X14Y320D01*
X7Y319D02*
X14Y319D01*
X7Y318D02*
X14Y318D01*
X7Y317D02*
X14Y317D01*
X7Y316D02*
X14Y316D01*
X7Y315D02*
X14Y315D01*
X7Y314D02*
X14Y314D01*
X7Y313D02*
X14Y313D01*
X7Y312D02*
X14Y312D01*
X7Y311D02*
X14Y311D01*
X7Y310D02*
X14Y310D01*
X7Y309D02*
X14Y309D01*
X7Y308D02*
X14Y308D01*
X7Y307D02*
X14Y307D01*
X7Y306D02*
X14Y306D01*
X7Y305D02*
X14Y305D01*
X7Y304D02*
X14Y304D01*
X7Y303D02*
X14Y303D01*
X7Y302D02*
X14Y302D01*
X7Y301D02*
X14Y301D01*
X7Y300D02*
X14Y300D01*
X7Y299D02*
X14Y299D01*
X7Y298D02*
X14Y298D01*
X7Y297D02*
X14Y297D01*
X7Y296D02*
X14Y296D01*
X7Y295D02*
X14Y295D01*
X7Y294D02*
X14Y294D01*
X7Y293D02*
X14Y293D01*
X7Y292D02*
X14Y292D01*
X7Y291D02*
X14Y291D01*
X7Y290D02*
X14Y290D01*
X7Y289D02*
X14Y289D01*
X7Y288D02*
X14Y288D01*
X7Y287D02*
X14Y287D01*
X7Y286D02*
X14Y286D01*
X7Y285D02*
X14Y285D01*
X7Y284D02*
X14Y284D01*
X7Y283D02*
X14Y283D01*
X7Y282D02*
X14Y282D01*
X7Y281D02*
X14Y281D01*
X7Y280D02*
X14Y280D01*
X7Y279D02*
X14Y279D01*
X7Y278D02*
X14Y278D01*
X7Y277D02*
X14Y277D01*
X7Y276D02*
X14Y276D01*
X7Y275D02*
X14Y275D01*
X7Y274D02*
X14Y274D01*
X7Y273D02*
X14Y273D01*
X7Y272D02*
X14Y272D01*
X7Y271D02*
X14Y271D01*
X7Y270D02*
X14Y270D01*
X7Y269D02*
X14Y269D01*
X7Y268D02*
X14Y268D01*
X7Y267D02*
X14Y267D01*
X7Y266D02*
X14Y266D01*
X7Y265D02*
X14Y265D01*
X7Y264D02*
X14Y264D01*
X7Y263D02*
X14Y263D01*
X7Y262D02*
X14Y262D01*
X7Y261D02*
X14Y261D01*
X7Y260D02*
X14Y260D01*
X7Y259D02*
X14Y259D01*
X7Y258D02*
X14Y258D01*
X7Y257D02*
X14Y257D01*
X7Y256D02*
X14Y256D01*
X7Y255D02*
X14Y255D01*
X7Y254D02*
X14Y254D01*
X7Y253D02*
X14Y253D01*
X7Y252D02*
X14Y252D01*
X7Y251D02*
X14Y251D01*
X7Y250D02*
X14Y250D01*
X7Y249D02*
X14Y249D01*
X7Y248D02*
X14Y248D01*
X7Y247D02*
X14Y247D01*
X7Y246D02*
X14Y246D01*
X7Y245D02*
X14Y245D01*
X7Y244D02*
X14Y244D01*
X7Y243D02*
X14Y243D01*
X7Y242D02*
X14Y242D01*
X7Y241D02*
X14Y241D01*
X7Y240D02*
X14Y240D01*
X7Y239D02*
X14Y239D01*
X7Y238D02*
X14Y238D01*
X7Y237D02*
X14Y237D01*
X7Y236D02*
X14Y236D01*
X7Y235D02*
X14Y235D01*
X7Y234D02*
X14Y234D01*
X7Y233D02*
X14Y233D01*
X7Y232D02*
X14Y232D01*
X7Y231D02*
X14Y231D01*
X7Y230D02*
X14Y230D01*
X7Y229D02*
X14Y229D01*
X7Y228D02*
X14Y228D01*
X7Y227D02*
X14Y227D01*
X7Y226D02*
X14Y226D01*
X7Y225D02*
X14Y225D01*
X7Y224D02*
X14Y224D01*
X7Y223D02*
X14Y223D01*
X7Y222D02*
X14Y222D01*
X7Y221D02*
X14Y221D01*
X7Y220D02*
X14Y220D01*
X7Y219D02*
X14Y219D01*
X7Y218D02*
X14Y218D01*
X7Y217D02*
X14Y217D01*
X7Y216D02*
X14Y216D01*
X7Y215D02*
X14Y215D01*
X7Y214D02*
X14Y214D01*
X7Y213D02*
X14Y213D01*
X7Y212D02*
X14Y212D01*
X7Y211D02*
X14Y211D01*
X7Y210D02*
X14Y210D01*
X7Y209D02*
X14Y209D01*
X7Y208D02*
X14Y208D01*
X7Y207D02*
X14Y207D01*
X7Y206D02*
X14Y206D01*
X7Y205D02*
X14Y205D01*
X7Y204D02*
X14Y204D01*
X7Y203D02*
X14Y203D01*
X7Y202D02*
X14Y202D01*
X7Y201D02*
X14Y201D01*
X7Y200D02*
X14Y200D01*
X7Y199D02*
X14Y199D01*
X7Y198D02*
X14Y198D01*
X7Y197D02*
X14Y197D01*
X7Y196D02*
X14Y196D01*
X7Y195D02*
X14Y195D01*
X7Y194D02*
X14Y194D01*
X7Y193D02*
X14Y193D01*
X7Y192D02*
X14Y192D01*
X7Y191D02*
X14Y191D01*
X7Y190D02*
X14Y190D01*
X7Y189D02*
X14Y189D01*
X7Y188D02*
X14Y188D01*
X7Y187D02*
X14Y187D01*
X7Y186D02*
X14Y186D01*
X7Y185D02*
X14Y185D01*
X7Y184D02*
X14Y184D01*
X7Y183D02*
X14Y183D01*
X7Y182D02*
X14Y182D01*
X7Y181D02*
X14Y181D01*
X7Y180D02*
X14Y180D01*
X7Y179D02*
X14Y179D01*
X7Y178D02*
X14Y178D01*
X7Y177D02*
X14Y177D01*
X7Y176D02*
X14Y176D01*
X7Y175D02*
X14Y175D01*
X7Y174D02*
X14Y174D01*
X7Y173D02*
X14Y173D01*
X7Y172D02*
X14Y172D01*
X7Y171D02*
X14Y171D01*
X7Y170D02*
X14Y170D01*
X7Y169D02*
X14Y169D01*
X7Y168D02*
X14Y168D01*
X7Y167D02*
X14Y167D01*
X7Y166D02*
X14Y166D01*
X7Y165D02*
X14Y165D01*
X7Y164D02*
X14Y164D01*
X7Y163D02*
X14Y163D01*
X7Y162D02*
X14Y162D01*
X7Y161D02*
X14Y161D01*
X7Y160D02*
X14Y160D01*
X7Y159D02*
X14Y159D01*
X7Y158D02*
X14Y158D01*
X7Y157D02*
X14Y157D01*
X7Y156D02*
X14Y156D01*
X7Y155D02*
X14Y155D01*
X7Y154D02*
X14Y154D01*
X7Y153D02*
X14Y153D01*
X7Y152D02*
X14Y152D01*
X7Y151D02*
X14Y151D01*
X7Y150D02*
X14Y150D01*
X7Y149D02*
X14Y149D01*
X7Y148D02*
X14Y148D01*
X7Y147D02*
X14Y147D01*
X7Y146D02*
X14Y146D01*
X7Y145D02*
X14Y145D01*
X7Y144D02*
X14Y144D01*
X7Y143D02*
X14Y143D01*
X7Y142D02*
X14Y142D01*
X7Y141D02*
X14Y141D01*
X7Y140D02*
X14Y140D01*
X7Y139D02*
X14Y139D01*
X7Y138D02*
X14Y138D01*
X7Y137D02*
X14Y137D01*
X7Y136D02*
X14Y136D01*
X7Y135D02*
X14Y135D01*
X7Y134D02*
X14Y134D01*
X7Y133D02*
X14Y133D01*
X7Y132D02*
X14Y132D01*
X7Y131D02*
X14Y131D01*
X7Y130D02*
X14Y130D01*
X7Y129D02*
X14Y129D01*
X7Y128D02*
X14Y128D01*
X7Y127D02*
X14Y127D01*
X7Y126D02*
X14Y126D01*
X7Y125D02*
X14Y125D01*
X7Y124D02*
X14Y124D01*
X7Y123D02*
X14Y123D01*
X7Y122D02*
X14Y122D01*
X7Y121D02*
X14Y121D01*
X7Y120D02*
X14Y120D01*
X7Y119D02*
X14Y119D01*
X7Y118D02*
X14Y118D01*
X7Y117D02*
X14Y117D01*
X7Y116D02*
X14Y116D01*
X7Y115D02*
X14Y115D01*
X7Y114D02*
X14Y114D01*
X7Y113D02*
X14Y113D01*
X7Y112D02*
X14Y112D01*
X7Y111D02*
X14Y111D01*
X7Y110D02*
X14Y110D01*
X7Y109D02*
X14Y109D01*
X7Y108D02*
X14Y108D01*
X7Y107D02*
X14Y107D01*
X7Y106D02*
X14Y106D01*
X7Y105D02*
X14Y105D01*
X7Y104D02*
X14Y104D01*
X7Y103D02*
X14Y103D01*
X7Y102D02*
X14Y102D01*
X7Y101D02*
X14Y101D01*
X7Y100D02*
X14Y100D01*
X7Y99D02*
X14Y99D01*
X7Y98D02*
X14Y98D01*
X7Y97D02*
X14Y97D01*
X7Y96D02*
X14Y96D01*
X7Y95D02*
X14Y95D01*
X7Y94D02*
X14Y94D01*
X7Y93D02*
X14Y93D01*
X7Y92D02*
X14Y92D01*
X7Y91D02*
X14Y91D01*
X7Y90D02*
X14Y90D01*
X7Y89D02*
X14Y89D01*
X7Y88D02*
X14Y88D01*
X7Y87D02*
X14Y87D01*
X7Y86D02*
X14Y86D01*
X7Y85D02*
X14Y85D01*
X7Y84D02*
X14Y84D01*
X7Y83D02*
X14Y83D01*
X7Y82D02*
X14Y82D01*
X7Y81D02*
X14Y81D01*
X7Y80D02*
X14Y80D01*
X7Y79D02*
X14Y79D01*
X7Y78D02*
X14Y78D01*
X7Y77D02*
X14Y77D01*
X7Y76D02*
X14Y76D01*
X7Y75D02*
X14Y75D01*
X7Y74D02*
X14Y74D01*
X7Y73D02*
X14Y73D01*
X7Y72D02*
X14Y72D01*
X7Y71D02*
X14Y71D01*
X7Y70D02*
X14Y70D01*
X7Y69D02*
X14Y69D01*
X7Y68D02*
X14Y68D01*
X7Y67D02*
X14Y67D01*
X7Y66D02*
X14Y66D01*
X7Y65D02*
X14Y65D01*
X7Y64D02*
X14Y64D01*
X7Y63D02*
X14Y63D01*
X7Y62D02*
X14Y62D01*
X7Y61D02*
X14Y61D01*
X7Y60D02*
X14Y60D01*
X7Y59D02*
X14Y59D01*
X7Y58D02*
X14Y58D01*
X7Y57D02*
X14Y57D01*
X7Y56D02*
X14Y56D01*
X7Y55D02*
X14Y55D01*
X7Y54D02*
X14Y54D01*
X7Y53D02*
X14Y53D01*
X7Y52D02*
X14Y52D01*
X7Y51D02*
X14Y51D01*
X7Y50D02*
X14Y50D01*
X7Y49D02*
X14Y49D01*
X7Y48D02*
X14Y48D01*
X7Y47D02*
X14Y47D01*
X7Y46D02*
X14Y46D01*
X7Y45D02*
X14Y45D01*
X7Y44D02*
X14Y44D01*
X7Y43D02*
X14Y43D01*
X7Y42D02*
X14Y42D01*
X7Y41D02*
X14Y41D01*
X7Y40D02*
X14Y40D01*
X7Y39D02*
X14Y39D01*
X7Y38D02*
X14Y38D01*
X7Y37D02*
X14Y37D01*
X7Y36D02*
X14Y36D01*
X7Y35D02*
X14Y35D01*
X7Y34D02*
X14Y34D01*
X7Y33D02*
X14Y33D01*
X7Y32D02*
X14Y32D01*
X7Y31D02*
X14Y31D01*
X7Y30D02*
X14Y30D01*
X7Y29D02*
X14Y29D01*
X7Y28D02*
X14Y28D01*
X7Y27D02*
X14Y27D01*
X7Y26D02*
X14Y26D01*
X7Y25D02*
X14Y25D01*
X7Y24D02*
X14Y24D01*
X7Y23D02*
X14Y23D01*
X7Y22D02*
X14Y22D01*
X7Y21D02*
X14Y21D01*
X7Y20D02*
X14Y20D01*
X7Y19D02*
X14Y19D01*
X7Y18D02*
X14Y18D01*
X7Y17D02*
X14Y17D01*
X7Y16D02*
X14Y16D01*
X7Y15D02*
X14Y15D01*
X7Y14D02*
X14Y14D01*
X7Y13D02*
X14Y13D01*
X7Y12D02*
X14Y12D01*
X7Y11D02*
X14Y11D01*
X7Y10D02*
X14Y10D01*
X7Y9D02*
X14Y9D01*
X7Y8D02*
X14Y8D01*
X7Y7D02*
X14Y7D01*
X7Y6D02*
X14Y6D01*
X7Y5D02*
X14Y5D01*
X7Y4D02*
X14Y4D01*
X7Y3D02*
X14Y3D01*
D02*
G04 End of Silk0*
M02*