G04 MADE WITH FRITZING*
G04 WWW.FRITZING.ORG*
G04 DOUBLE SIDED*
G04 HOLES PLATED*
G04 CONTOUR ON CENTER OF CONTOUR VECTOR*
%ASAXBY*%
%FSLAX23Y23*%
%MOIN*%
%OFA0B0*%
%SFA1.0B1.0*%
%ADD10C,0.084000*%
%ADD11C,0.135984*%
%ADD12C,0.085000*%
%ADD13R,0.084000X0.084000*%
%ADD14R,0.085000X0.085000*%
%LNMASK0*%
G90*
G70*
G54D10*
X2398Y252D03*
X2398Y352D03*
X2398Y452D03*
X2398Y552D03*
X2398Y652D03*
X2398Y752D03*
X2398Y852D03*
X2398Y952D03*
X2398Y1052D03*
X2398Y1152D03*
X2398Y1252D03*
X2398Y1352D03*
X2398Y1452D03*
X2398Y1552D03*
X2398Y1652D03*
X2398Y1752D03*
X2398Y1852D03*
X2498Y252D03*
X2498Y352D03*
X2498Y452D03*
X2498Y552D03*
X2498Y652D03*
X2498Y752D03*
X2498Y852D03*
X2498Y952D03*
X2498Y1052D03*
X2498Y1152D03*
X2498Y1252D03*
X2498Y1352D03*
X2498Y1452D03*
X2498Y1552D03*
X2498Y1652D03*
X2498Y1752D03*
X2498Y1852D03*
G54D11*
X198Y1902D03*
X198Y202D03*
G54D12*
X1998Y1552D03*
X1998Y952D03*
X1898Y1552D03*
X1898Y952D03*
X1798Y1552D03*
X1798Y952D03*
X1698Y1552D03*
X1698Y952D03*
X1598Y1552D03*
X1598Y952D03*
X1498Y1552D03*
X1498Y952D03*
X1398Y1552D03*
X1398Y952D03*
X1298Y1552D03*
X1298Y952D03*
X1198Y1552D03*
X1198Y952D03*
X1098Y1552D03*
X1098Y952D03*
X998Y1552D03*
X998Y952D03*
X898Y1552D03*
X898Y952D03*
X798Y1552D03*
X798Y952D03*
X698Y1552D03*
X698Y952D03*
X598Y1552D03*
X598Y952D03*
X498Y1552D03*
X498Y952D03*
X398Y1552D03*
X398Y952D03*
X298Y1552D03*
X298Y952D03*
X198Y1552D03*
X198Y952D03*
X98Y1552D03*
X98Y952D03*
G54D13*
X2498Y252D03*
G54D14*
X1998Y1552D03*
G04 End of Mask0*
M02*