G04 MADE WITH FRITZING*
G04 WWW.FRITZING.ORG*
G04 DOUBLE SIDED*
G04 HOLES PLATED*
G04 CONTOUR ON CENTER OF CONTOUR VECTOR*
%ASAXBY*%
%FSLAX23Y23*%
%MOIN*%
%OFA0B0*%
%SFA1.0B1.0*%
%ADD10C,0.075000*%
%ADD11C,0.074000*%
%ADD12R,0.074000X0.074000*%
%ADD13R,0.075000X0.075000*%
%ADD14C,0.024000*%
%LNCOPPER1*%
G90*
G70*
G54D10*
X2598Y1972D03*
X1474Y1820D03*
X2093Y1572D03*
X123Y1424D03*
X120Y823D03*
G54D11*
X2398Y252D03*
X2398Y352D03*
X2398Y452D03*
X2398Y552D03*
X2398Y652D03*
X2398Y752D03*
X2398Y852D03*
X2398Y952D03*
X2398Y1052D03*
X2398Y1152D03*
X2398Y1252D03*
X2398Y1352D03*
X2398Y1452D03*
X2398Y1552D03*
X2398Y1652D03*
X2398Y1752D03*
X2398Y1852D03*
X2498Y252D03*
X2498Y352D03*
X2498Y452D03*
X2498Y552D03*
X2498Y652D03*
X2498Y752D03*
X2498Y852D03*
X2498Y952D03*
X2498Y1052D03*
X2498Y1152D03*
X2498Y1252D03*
X2498Y1352D03*
X2498Y1452D03*
X2498Y1552D03*
X2498Y1652D03*
X2498Y1752D03*
X2498Y1852D03*
G54D10*
X1998Y1552D03*
X1998Y952D03*
X1898Y1552D03*
X1898Y952D03*
X1798Y1552D03*
X1798Y952D03*
X1698Y1552D03*
X1698Y952D03*
X1598Y1552D03*
X1598Y952D03*
X1498Y1552D03*
X1498Y952D03*
X1398Y1552D03*
X1398Y952D03*
X1298Y1552D03*
X1298Y952D03*
X1198Y1552D03*
X1198Y952D03*
X1098Y1552D03*
X1098Y952D03*
X998Y1552D03*
X998Y952D03*
X898Y1552D03*
X898Y952D03*
X798Y1552D03*
X798Y952D03*
X698Y1552D03*
X698Y952D03*
X598Y1552D03*
X598Y952D03*
X498Y1552D03*
X498Y952D03*
X398Y1552D03*
X398Y952D03*
X298Y1552D03*
X298Y952D03*
X198Y1552D03*
X198Y952D03*
X98Y1552D03*
X98Y952D03*
G54D12*
X2498Y252D03*
G54D13*
X1998Y1552D03*
G54D14*
X2598Y1452D02*
X2598Y1352D01*
D02*
X2598Y1352D02*
X2520Y1274D01*
D02*
X2520Y1374D02*
X2598Y1452D01*
D02*
X2598Y1652D02*
X2520Y1574D01*
D02*
X2598Y1452D02*
X2598Y1652D01*
D02*
X2520Y1374D02*
X2598Y1452D01*
D02*
X2598Y1852D02*
X2499Y1953D01*
D02*
X1497Y1953D02*
X1120Y1574D01*
D02*
X2499Y1953D02*
X1497Y1953D01*
D02*
X2598Y1652D02*
X2598Y1852D01*
D02*
X2520Y1574D02*
X2598Y1652D01*
D02*
X1798Y1052D02*
X2298Y1052D01*
D02*
X2298Y1052D02*
X2298Y952D01*
D02*
X2298Y952D02*
X2367Y952D01*
D02*
X1798Y1522D02*
X1798Y1052D01*
D02*
X949Y101D02*
X2647Y101D01*
D02*
X2647Y101D02*
X2647Y501D01*
D02*
X218Y930D02*
X949Y101D01*
D02*
X2647Y501D02*
X2520Y630D01*
D02*
X2498Y152D02*
X2598Y152D01*
D02*
X2598Y152D02*
X2598Y452D01*
D02*
X998Y152D02*
X2498Y152D01*
D02*
X2598Y452D02*
X2520Y530D01*
D02*
X318Y929D02*
X998Y152D01*
D02*
X1398Y1652D02*
X1320Y1574D01*
D02*
X2298Y1652D02*
X1398Y1652D01*
D02*
X2298Y1152D02*
X2298Y1652D01*
D02*
X2367Y1152D02*
X2298Y1152D01*
G36*
X40Y2054D02*
X40Y1976D01*
X2502Y1976D01*
X2502Y1974D01*
X2508Y1974D01*
X2508Y1972D01*
X2512Y1972D01*
X2512Y1970D01*
X2514Y1970D01*
X2514Y1968D01*
X2516Y1968D01*
X2516Y1966D01*
X2518Y1966D01*
X2518Y1964D01*
X2520Y1964D01*
X2520Y1962D01*
X2522Y1962D01*
X2522Y1960D01*
X2524Y1960D01*
X2524Y1958D01*
X2526Y1958D01*
X2526Y1956D01*
X2528Y1956D01*
X2528Y1954D01*
X2530Y1954D01*
X2530Y1952D01*
X2532Y1952D01*
X2532Y1950D01*
X2534Y1950D01*
X2534Y1948D01*
X2536Y1948D01*
X2536Y1946D01*
X2538Y1946D01*
X2538Y1944D01*
X2540Y1944D01*
X2540Y1942D01*
X2542Y1942D01*
X2542Y1940D01*
X2544Y1940D01*
X2544Y1938D01*
X2546Y1938D01*
X2546Y1936D01*
X2548Y1936D01*
X2548Y1934D01*
X2550Y1934D01*
X2550Y1932D01*
X2552Y1932D01*
X2552Y1930D01*
X2554Y1930D01*
X2554Y1928D01*
X2556Y1928D01*
X2556Y1926D01*
X2558Y1926D01*
X2558Y1924D01*
X2560Y1924D01*
X2560Y1922D01*
X2562Y1922D01*
X2562Y1920D01*
X2564Y1920D01*
X2564Y1918D01*
X2566Y1918D01*
X2566Y1916D01*
X2568Y1916D01*
X2568Y1914D01*
X2570Y1914D01*
X2570Y1912D01*
X2572Y1912D01*
X2572Y1910D01*
X2574Y1910D01*
X2574Y1908D01*
X2576Y1908D01*
X2576Y1906D01*
X2578Y1906D01*
X2578Y1904D01*
X2580Y1904D01*
X2580Y1902D01*
X2582Y1902D01*
X2582Y1900D01*
X2584Y1900D01*
X2584Y1896D01*
X2586Y1896D01*
X2586Y1894D01*
X2588Y1894D01*
X2588Y1892D01*
X2590Y1892D01*
X2590Y1890D01*
X2592Y1890D01*
X2592Y1888D01*
X2594Y1888D01*
X2594Y1886D01*
X2596Y1886D01*
X2596Y1884D01*
X2598Y1884D01*
X2598Y1882D01*
X2600Y1882D01*
X2600Y1880D01*
X2602Y1880D01*
X2602Y1878D01*
X2604Y1878D01*
X2604Y1876D01*
X2606Y1876D01*
X2606Y1874D01*
X2608Y1874D01*
X2608Y1872D01*
X2610Y1872D01*
X2610Y1870D01*
X2612Y1870D01*
X2612Y1868D01*
X2614Y1868D01*
X2614Y1866D01*
X2616Y1866D01*
X2616Y1864D01*
X2618Y1864D01*
X2618Y1860D01*
X2620Y1860D01*
X2620Y1346D01*
X2618Y1346D01*
X2618Y1340D01*
X2616Y1340D01*
X2616Y1338D01*
X2614Y1338D01*
X2614Y1336D01*
X2612Y1336D01*
X2612Y1334D01*
X2610Y1334D01*
X2610Y1332D01*
X2608Y1332D01*
X2608Y1330D01*
X2606Y1330D01*
X2606Y1328D01*
X2604Y1328D01*
X2604Y1326D01*
X2602Y1326D01*
X2602Y1324D01*
X2600Y1324D01*
X2600Y1322D01*
X2598Y1322D01*
X2598Y1320D01*
X2596Y1320D01*
X2596Y1318D01*
X2594Y1318D01*
X2594Y1316D01*
X2592Y1316D01*
X2592Y1314D01*
X2590Y1314D01*
X2590Y1312D01*
X2588Y1312D01*
X2588Y1310D01*
X2586Y1310D01*
X2586Y1308D01*
X2584Y1308D01*
X2584Y1306D01*
X2582Y1306D01*
X2582Y1304D01*
X2580Y1304D01*
X2580Y1302D01*
X2578Y1302D01*
X2578Y1300D01*
X2576Y1300D01*
X2576Y1298D01*
X2574Y1298D01*
X2574Y1296D01*
X2572Y1296D01*
X2572Y1294D01*
X2570Y1294D01*
X2570Y1292D01*
X2568Y1292D01*
X2568Y1290D01*
X2566Y1290D01*
X2566Y1288D01*
X2564Y1288D01*
X2564Y1286D01*
X2562Y1286D01*
X2562Y1284D01*
X2560Y1284D01*
X2560Y1282D01*
X2558Y1282D01*
X2558Y1280D01*
X2556Y1280D01*
X2556Y1278D01*
X2554Y1278D01*
X2554Y1276D01*
X2552Y1276D01*
X2552Y1274D01*
X2550Y1274D01*
X2550Y1272D01*
X2548Y1272D01*
X2548Y1270D01*
X2546Y1270D01*
X2546Y1250D01*
X2544Y1250D01*
X2544Y1240D01*
X2542Y1240D01*
X2542Y1234D01*
X2540Y1234D01*
X2540Y1232D01*
X2538Y1232D01*
X2538Y1228D01*
X2536Y1228D01*
X2536Y1226D01*
X2534Y1226D01*
X2534Y1222D01*
X2532Y1222D01*
X2532Y1220D01*
X2530Y1220D01*
X2530Y1218D01*
X2528Y1218D01*
X2528Y1216D01*
X2524Y1216D01*
X2524Y1214D01*
X2522Y1214D01*
X2522Y1212D01*
X2520Y1212D01*
X2520Y1192D01*
X2522Y1192D01*
X2522Y1190D01*
X2526Y1190D01*
X2526Y1188D01*
X2528Y1188D01*
X2528Y1186D01*
X2530Y1186D01*
X2530Y1184D01*
X2532Y1184D01*
X2532Y1182D01*
X2534Y1182D01*
X2534Y1180D01*
X2536Y1180D01*
X2536Y1176D01*
X2538Y1176D01*
X2538Y1174D01*
X2540Y1174D01*
X2540Y1170D01*
X2542Y1170D01*
X2542Y1164D01*
X2544Y1164D01*
X2544Y1156D01*
X2546Y1156D01*
X2546Y1150D01*
X2544Y1150D01*
X2544Y1140D01*
X2542Y1140D01*
X2542Y1134D01*
X2540Y1134D01*
X2540Y1132D01*
X2538Y1132D01*
X2538Y1128D01*
X2536Y1128D01*
X2536Y1126D01*
X2534Y1126D01*
X2534Y1122D01*
X2532Y1122D01*
X2532Y1120D01*
X2530Y1120D01*
X2530Y1118D01*
X2528Y1118D01*
X2528Y1116D01*
X2524Y1116D01*
X2524Y1114D01*
X2522Y1114D01*
X2522Y1112D01*
X2520Y1112D01*
X2520Y1092D01*
X2522Y1092D01*
X2522Y1090D01*
X2526Y1090D01*
X2526Y1088D01*
X2528Y1088D01*
X2528Y1086D01*
X2530Y1086D01*
X2530Y1084D01*
X2532Y1084D01*
X2532Y1082D01*
X2534Y1082D01*
X2534Y1080D01*
X2536Y1080D01*
X2536Y1076D01*
X2538Y1076D01*
X2538Y1074D01*
X2540Y1074D01*
X2540Y1070D01*
X2542Y1070D01*
X2542Y1064D01*
X2544Y1064D01*
X2544Y1056D01*
X2546Y1056D01*
X2546Y1050D01*
X2544Y1050D01*
X2544Y1040D01*
X2542Y1040D01*
X2542Y1034D01*
X2540Y1034D01*
X2540Y1032D01*
X2538Y1032D01*
X2538Y1028D01*
X2536Y1028D01*
X2536Y1026D01*
X2534Y1026D01*
X2534Y1022D01*
X2532Y1022D01*
X2532Y1020D01*
X2530Y1020D01*
X2530Y1018D01*
X2528Y1018D01*
X2528Y1016D01*
X2524Y1016D01*
X2524Y1014D01*
X2522Y1014D01*
X2522Y1012D01*
X2520Y1012D01*
X2520Y992D01*
X2522Y992D01*
X2522Y990D01*
X2526Y990D01*
X2526Y988D01*
X2528Y988D01*
X2528Y986D01*
X2530Y986D01*
X2530Y984D01*
X2532Y984D01*
X2532Y982D01*
X2534Y982D01*
X2534Y980D01*
X2536Y980D01*
X2536Y976D01*
X2538Y976D01*
X2538Y974D01*
X2540Y974D01*
X2540Y970D01*
X2542Y970D01*
X2542Y964D01*
X2544Y964D01*
X2544Y956D01*
X2546Y956D01*
X2546Y950D01*
X2544Y950D01*
X2544Y940D01*
X2542Y940D01*
X2542Y934D01*
X2540Y934D01*
X2540Y932D01*
X2538Y932D01*
X2538Y928D01*
X2536Y928D01*
X2536Y926D01*
X2534Y926D01*
X2534Y922D01*
X2532Y922D01*
X2532Y920D01*
X2530Y920D01*
X2530Y918D01*
X2528Y918D01*
X2528Y916D01*
X2524Y916D01*
X2524Y914D01*
X2522Y914D01*
X2522Y912D01*
X2520Y912D01*
X2520Y892D01*
X2522Y892D01*
X2522Y890D01*
X2526Y890D01*
X2526Y888D01*
X2528Y888D01*
X2528Y886D01*
X2530Y886D01*
X2530Y884D01*
X2532Y884D01*
X2532Y882D01*
X2534Y882D01*
X2534Y880D01*
X2536Y880D01*
X2536Y876D01*
X2538Y876D01*
X2538Y874D01*
X2540Y874D01*
X2540Y870D01*
X2542Y870D01*
X2542Y864D01*
X2544Y864D01*
X2544Y856D01*
X2546Y856D01*
X2546Y850D01*
X2544Y850D01*
X2544Y840D01*
X2542Y840D01*
X2542Y834D01*
X2540Y834D01*
X2540Y832D01*
X2538Y832D01*
X2538Y828D01*
X2536Y828D01*
X2536Y826D01*
X2534Y826D01*
X2534Y822D01*
X2532Y822D01*
X2532Y820D01*
X2530Y820D01*
X2530Y818D01*
X2528Y818D01*
X2528Y816D01*
X2524Y816D01*
X2524Y814D01*
X2522Y814D01*
X2522Y812D01*
X2520Y812D01*
X2520Y792D01*
X2522Y792D01*
X2522Y790D01*
X2526Y790D01*
X2526Y788D01*
X2528Y788D01*
X2528Y786D01*
X2530Y786D01*
X2530Y784D01*
X2532Y784D01*
X2532Y782D01*
X2534Y782D01*
X2534Y780D01*
X2536Y780D01*
X2536Y776D01*
X2538Y776D01*
X2538Y774D01*
X2540Y774D01*
X2540Y770D01*
X2542Y770D01*
X2542Y764D01*
X2544Y764D01*
X2544Y756D01*
X2546Y756D01*
X2546Y750D01*
X2544Y750D01*
X2544Y740D01*
X2542Y740D01*
X2542Y734D01*
X2540Y734D01*
X2540Y732D01*
X2538Y732D01*
X2538Y728D01*
X2536Y728D01*
X2536Y726D01*
X2534Y726D01*
X2534Y722D01*
X2532Y722D01*
X2532Y720D01*
X2530Y720D01*
X2530Y718D01*
X2528Y718D01*
X2528Y716D01*
X2524Y716D01*
X2524Y714D01*
X2522Y714D01*
X2522Y712D01*
X2520Y712D01*
X2520Y692D01*
X2522Y692D01*
X2522Y690D01*
X2526Y690D01*
X2526Y688D01*
X2528Y688D01*
X2528Y686D01*
X2530Y686D01*
X2530Y684D01*
X2532Y684D01*
X2532Y682D01*
X2534Y682D01*
X2534Y680D01*
X2536Y680D01*
X2536Y676D01*
X2538Y676D01*
X2538Y674D01*
X2540Y674D01*
X2540Y670D01*
X2542Y670D01*
X2542Y664D01*
X2544Y664D01*
X2544Y656D01*
X2546Y656D01*
X2546Y634D01*
X2548Y634D01*
X2548Y632D01*
X2550Y632D01*
X2550Y630D01*
X2552Y630D01*
X2552Y628D01*
X2554Y628D01*
X2554Y626D01*
X2556Y626D01*
X2556Y624D01*
X2558Y624D01*
X2558Y622D01*
X2560Y622D01*
X2560Y620D01*
X2562Y620D01*
X2562Y618D01*
X2564Y618D01*
X2564Y616D01*
X2566Y616D01*
X2566Y614D01*
X2568Y614D01*
X2568Y612D01*
X2570Y612D01*
X2570Y610D01*
X2572Y610D01*
X2572Y608D01*
X2574Y608D01*
X2574Y606D01*
X2576Y606D01*
X2576Y604D01*
X2578Y604D01*
X2578Y602D01*
X2580Y602D01*
X2580Y600D01*
X2582Y600D01*
X2582Y598D01*
X2584Y598D01*
X2584Y596D01*
X2586Y596D01*
X2586Y594D01*
X2588Y594D01*
X2588Y592D01*
X2590Y592D01*
X2590Y590D01*
X2592Y590D01*
X2592Y588D01*
X2594Y588D01*
X2594Y584D01*
X2596Y584D01*
X2596Y582D01*
X2598Y582D01*
X2598Y580D01*
X2600Y580D01*
X2600Y578D01*
X2602Y578D01*
X2602Y576D01*
X2604Y576D01*
X2604Y574D01*
X2606Y574D01*
X2606Y572D01*
X2608Y572D01*
X2608Y570D01*
X2610Y570D01*
X2610Y568D01*
X2612Y568D01*
X2612Y566D01*
X2614Y566D01*
X2614Y564D01*
X2616Y564D01*
X2616Y562D01*
X2618Y562D01*
X2618Y560D01*
X2620Y560D01*
X2620Y558D01*
X2622Y558D01*
X2622Y556D01*
X2624Y556D01*
X2624Y554D01*
X2626Y554D01*
X2626Y552D01*
X2628Y552D01*
X2628Y550D01*
X2630Y550D01*
X2630Y548D01*
X2632Y548D01*
X2632Y546D01*
X2634Y546D01*
X2634Y544D01*
X2636Y544D01*
X2636Y542D01*
X2638Y542D01*
X2638Y540D01*
X2640Y540D01*
X2640Y538D01*
X2642Y538D01*
X2642Y536D01*
X2644Y536D01*
X2644Y534D01*
X2646Y534D01*
X2646Y532D01*
X2648Y532D01*
X2648Y530D01*
X2650Y530D01*
X2650Y528D01*
X2652Y528D01*
X2652Y526D01*
X2654Y526D01*
X2654Y524D01*
X2656Y524D01*
X2656Y522D01*
X2658Y522D01*
X2658Y520D01*
X2660Y520D01*
X2660Y518D01*
X2680Y518D01*
X2680Y2054D01*
X40Y2054D01*
G37*
D02*
G36*
X40Y1976D02*
X40Y1830D01*
X182Y1830D01*
X182Y1832D01*
X176Y1832D01*
X176Y1834D01*
X170Y1834D01*
X170Y1836D01*
X166Y1836D01*
X166Y1838D01*
X162Y1838D01*
X162Y1840D01*
X160Y1840D01*
X160Y1842D01*
X156Y1842D01*
X156Y1844D01*
X154Y1844D01*
X154Y1846D01*
X152Y1846D01*
X152Y1848D01*
X150Y1848D01*
X150Y1850D01*
X148Y1850D01*
X148Y1852D01*
X146Y1852D01*
X146Y1854D01*
X144Y1854D01*
X144Y1856D01*
X142Y1856D01*
X142Y1858D01*
X140Y1858D01*
X140Y1860D01*
X138Y1860D01*
X138Y1864D01*
X136Y1864D01*
X136Y1866D01*
X134Y1866D01*
X134Y1870D01*
X132Y1870D01*
X132Y1874D01*
X130Y1874D01*
X130Y1880D01*
X128Y1880D01*
X128Y1886D01*
X126Y1886D01*
X126Y1918D01*
X128Y1918D01*
X128Y1924D01*
X130Y1924D01*
X130Y1930D01*
X132Y1930D01*
X132Y1934D01*
X134Y1934D01*
X134Y1938D01*
X136Y1938D01*
X136Y1942D01*
X138Y1942D01*
X138Y1944D01*
X140Y1944D01*
X140Y1946D01*
X142Y1946D01*
X142Y1948D01*
X144Y1948D01*
X144Y1952D01*
X146Y1952D01*
X146Y1954D01*
X148Y1954D01*
X148Y1956D01*
X150Y1956D01*
X150Y1958D01*
X154Y1958D01*
X154Y1960D01*
X156Y1960D01*
X156Y1962D01*
X158Y1962D01*
X158Y1964D01*
X162Y1964D01*
X162Y1966D01*
X166Y1966D01*
X166Y1968D01*
X170Y1968D01*
X170Y1970D01*
X174Y1970D01*
X174Y1972D01*
X180Y1972D01*
X180Y1974D01*
X192Y1974D01*
X192Y1976D01*
X40Y1976D01*
G37*
D02*
G36*
X204Y1976D02*
X204Y1974D01*
X216Y1974D01*
X216Y1972D01*
X222Y1972D01*
X222Y1970D01*
X226Y1970D01*
X226Y1968D01*
X230Y1968D01*
X230Y1966D01*
X234Y1966D01*
X234Y1964D01*
X238Y1964D01*
X238Y1962D01*
X240Y1962D01*
X240Y1960D01*
X242Y1960D01*
X242Y1958D01*
X246Y1958D01*
X246Y1956D01*
X248Y1956D01*
X248Y1954D01*
X250Y1954D01*
X250Y1952D01*
X252Y1952D01*
X252Y1950D01*
X254Y1950D01*
X254Y1946D01*
X256Y1946D01*
X256Y1944D01*
X258Y1944D01*
X258Y1942D01*
X260Y1942D01*
X260Y1938D01*
X262Y1938D01*
X262Y1934D01*
X264Y1934D01*
X264Y1930D01*
X266Y1930D01*
X266Y1926D01*
X268Y1926D01*
X268Y1918D01*
X270Y1918D01*
X270Y1906D01*
X272Y1906D01*
X272Y1898D01*
X270Y1898D01*
X270Y1886D01*
X268Y1886D01*
X268Y1880D01*
X266Y1880D01*
X266Y1874D01*
X264Y1874D01*
X264Y1870D01*
X262Y1870D01*
X262Y1866D01*
X260Y1866D01*
X260Y1864D01*
X258Y1864D01*
X258Y1860D01*
X256Y1860D01*
X256Y1858D01*
X254Y1858D01*
X254Y1856D01*
X252Y1856D01*
X252Y1852D01*
X250Y1852D01*
X250Y1850D01*
X246Y1850D01*
X246Y1848D01*
X244Y1848D01*
X244Y1846D01*
X242Y1846D01*
X242Y1844D01*
X240Y1844D01*
X240Y1842D01*
X236Y1842D01*
X236Y1840D01*
X234Y1840D01*
X234Y1838D01*
X230Y1838D01*
X230Y1836D01*
X226Y1836D01*
X226Y1834D01*
X220Y1834D01*
X220Y1832D01*
X214Y1832D01*
X214Y1830D01*
X1344Y1830D01*
X1344Y1832D01*
X1346Y1832D01*
X1346Y1834D01*
X1348Y1834D01*
X1348Y1836D01*
X1350Y1836D01*
X1350Y1838D01*
X1352Y1838D01*
X1352Y1840D01*
X1354Y1840D01*
X1354Y1842D01*
X1356Y1842D01*
X1356Y1844D01*
X1358Y1844D01*
X1358Y1846D01*
X1360Y1846D01*
X1360Y1848D01*
X1362Y1848D01*
X1362Y1850D01*
X1364Y1850D01*
X1364Y1852D01*
X1366Y1852D01*
X1366Y1854D01*
X1368Y1854D01*
X1368Y1856D01*
X1370Y1856D01*
X1370Y1858D01*
X1372Y1858D01*
X1372Y1860D01*
X1374Y1860D01*
X1374Y1862D01*
X1376Y1862D01*
X1376Y1864D01*
X1378Y1864D01*
X1378Y1866D01*
X1380Y1866D01*
X1380Y1868D01*
X1382Y1868D01*
X1382Y1870D01*
X1384Y1870D01*
X1384Y1872D01*
X1386Y1872D01*
X1386Y1874D01*
X1388Y1874D01*
X1388Y1876D01*
X1390Y1876D01*
X1390Y1878D01*
X1392Y1878D01*
X1392Y1880D01*
X1394Y1880D01*
X1394Y1882D01*
X1396Y1882D01*
X1396Y1884D01*
X1398Y1884D01*
X1398Y1886D01*
X1400Y1886D01*
X1400Y1888D01*
X1402Y1888D01*
X1402Y1890D01*
X1404Y1890D01*
X1404Y1892D01*
X1406Y1892D01*
X1406Y1894D01*
X1408Y1894D01*
X1408Y1896D01*
X1410Y1896D01*
X1410Y1898D01*
X1412Y1898D01*
X1412Y1900D01*
X1414Y1900D01*
X1414Y1902D01*
X1416Y1902D01*
X1416Y1904D01*
X1418Y1904D01*
X1418Y1906D01*
X1420Y1906D01*
X1420Y1908D01*
X1422Y1908D01*
X1422Y1910D01*
X1424Y1910D01*
X1424Y1912D01*
X1426Y1912D01*
X1426Y1914D01*
X1428Y1914D01*
X1428Y1916D01*
X1430Y1916D01*
X1430Y1918D01*
X1432Y1918D01*
X1432Y1920D01*
X1434Y1920D01*
X1434Y1922D01*
X1436Y1922D01*
X1436Y1924D01*
X1438Y1924D01*
X1438Y1926D01*
X1440Y1926D01*
X1440Y1928D01*
X1442Y1928D01*
X1442Y1930D01*
X1444Y1930D01*
X1444Y1932D01*
X1446Y1932D01*
X1446Y1934D01*
X1448Y1934D01*
X1448Y1936D01*
X1450Y1936D01*
X1450Y1938D01*
X1452Y1938D01*
X1452Y1940D01*
X1454Y1940D01*
X1454Y1942D01*
X1456Y1942D01*
X1456Y1944D01*
X1458Y1944D01*
X1458Y1946D01*
X1460Y1946D01*
X1460Y1948D01*
X1462Y1948D01*
X1462Y1950D01*
X1464Y1950D01*
X1464Y1952D01*
X1466Y1952D01*
X1466Y1954D01*
X1468Y1954D01*
X1468Y1956D01*
X1470Y1956D01*
X1470Y1958D01*
X1472Y1958D01*
X1472Y1960D01*
X1474Y1960D01*
X1474Y1962D01*
X1476Y1962D01*
X1476Y1964D01*
X1478Y1964D01*
X1478Y1966D01*
X1480Y1966D01*
X1480Y1968D01*
X1482Y1968D01*
X1482Y1970D01*
X1484Y1970D01*
X1484Y1972D01*
X1488Y1972D01*
X1488Y1974D01*
X1494Y1974D01*
X1494Y1976D01*
X204Y1976D01*
G37*
D02*
G36*
X40Y1830D02*
X40Y1828D01*
X1342Y1828D01*
X1342Y1830D01*
X40Y1830D01*
G37*
D02*
G36*
X40Y1830D02*
X40Y1828D01*
X1342Y1828D01*
X1342Y1830D01*
X40Y1830D01*
G37*
D02*
G36*
X40Y1828D02*
X40Y1600D01*
X1006Y1600D01*
X1006Y1598D01*
X1012Y1598D01*
X1012Y1596D01*
X1016Y1596D01*
X1016Y1594D01*
X1020Y1594D01*
X1020Y1592D01*
X1024Y1592D01*
X1024Y1590D01*
X1026Y1590D01*
X1026Y1588D01*
X1028Y1588D01*
X1028Y1586D01*
X1030Y1586D01*
X1030Y1584D01*
X1032Y1584D01*
X1032Y1582D01*
X1034Y1582D01*
X1034Y1580D01*
X1036Y1580D01*
X1036Y1578D01*
X1038Y1578D01*
X1038Y1574D01*
X1058Y1574D01*
X1058Y1576D01*
X1060Y1576D01*
X1060Y1580D01*
X1062Y1580D01*
X1062Y1582D01*
X1064Y1582D01*
X1064Y1584D01*
X1066Y1584D01*
X1066Y1586D01*
X1068Y1586D01*
X1068Y1588D01*
X1070Y1588D01*
X1070Y1590D01*
X1072Y1590D01*
X1072Y1592D01*
X1076Y1592D01*
X1076Y1594D01*
X1080Y1594D01*
X1080Y1596D01*
X1084Y1596D01*
X1084Y1598D01*
X1090Y1598D01*
X1090Y1600D01*
X1116Y1600D01*
X1116Y1602D01*
X1118Y1602D01*
X1118Y1604D01*
X1120Y1604D01*
X1120Y1606D01*
X1122Y1606D01*
X1122Y1608D01*
X1124Y1608D01*
X1124Y1610D01*
X1126Y1610D01*
X1126Y1612D01*
X1128Y1612D01*
X1128Y1614D01*
X1130Y1614D01*
X1130Y1616D01*
X1132Y1616D01*
X1132Y1618D01*
X1134Y1618D01*
X1134Y1620D01*
X1136Y1620D01*
X1136Y1622D01*
X1138Y1622D01*
X1138Y1624D01*
X1140Y1624D01*
X1140Y1626D01*
X1142Y1626D01*
X1142Y1628D01*
X1144Y1628D01*
X1144Y1630D01*
X1146Y1630D01*
X1146Y1632D01*
X1148Y1632D01*
X1148Y1634D01*
X1150Y1634D01*
X1150Y1636D01*
X1152Y1636D01*
X1152Y1638D01*
X1154Y1638D01*
X1154Y1640D01*
X1156Y1640D01*
X1156Y1642D01*
X1158Y1642D01*
X1158Y1644D01*
X1160Y1644D01*
X1160Y1646D01*
X1162Y1646D01*
X1162Y1648D01*
X1164Y1648D01*
X1164Y1650D01*
X1166Y1650D01*
X1166Y1652D01*
X1168Y1652D01*
X1168Y1654D01*
X1170Y1654D01*
X1170Y1656D01*
X1172Y1656D01*
X1172Y1658D01*
X1174Y1658D01*
X1174Y1660D01*
X1176Y1660D01*
X1176Y1662D01*
X1178Y1662D01*
X1178Y1664D01*
X1180Y1664D01*
X1180Y1666D01*
X1182Y1666D01*
X1182Y1668D01*
X1184Y1668D01*
X1184Y1670D01*
X1186Y1670D01*
X1186Y1672D01*
X1188Y1672D01*
X1188Y1674D01*
X1190Y1674D01*
X1190Y1676D01*
X1192Y1676D01*
X1192Y1678D01*
X1194Y1678D01*
X1194Y1680D01*
X1196Y1680D01*
X1196Y1682D01*
X1198Y1682D01*
X1198Y1684D01*
X1200Y1684D01*
X1200Y1686D01*
X1202Y1686D01*
X1202Y1688D01*
X1204Y1688D01*
X1204Y1690D01*
X1206Y1690D01*
X1206Y1692D01*
X1208Y1692D01*
X1208Y1694D01*
X1210Y1694D01*
X1210Y1696D01*
X1212Y1696D01*
X1212Y1698D01*
X1214Y1698D01*
X1214Y1700D01*
X1216Y1700D01*
X1216Y1702D01*
X1218Y1702D01*
X1218Y1704D01*
X1220Y1704D01*
X1220Y1706D01*
X1222Y1706D01*
X1222Y1708D01*
X1224Y1708D01*
X1224Y1710D01*
X1226Y1710D01*
X1226Y1712D01*
X1228Y1712D01*
X1228Y1714D01*
X1230Y1714D01*
X1230Y1716D01*
X1232Y1716D01*
X1232Y1718D01*
X1234Y1718D01*
X1234Y1720D01*
X1236Y1720D01*
X1236Y1722D01*
X1238Y1722D01*
X1238Y1724D01*
X1240Y1724D01*
X1240Y1726D01*
X1242Y1726D01*
X1242Y1728D01*
X1244Y1728D01*
X1244Y1730D01*
X1246Y1730D01*
X1246Y1732D01*
X1248Y1732D01*
X1248Y1734D01*
X1250Y1734D01*
X1250Y1736D01*
X1252Y1736D01*
X1252Y1740D01*
X1254Y1740D01*
X1254Y1742D01*
X1256Y1742D01*
X1256Y1744D01*
X1258Y1744D01*
X1258Y1746D01*
X1260Y1746D01*
X1260Y1748D01*
X1262Y1748D01*
X1262Y1750D01*
X1264Y1750D01*
X1264Y1752D01*
X1266Y1752D01*
X1266Y1754D01*
X1268Y1754D01*
X1268Y1756D01*
X1270Y1756D01*
X1270Y1758D01*
X1272Y1758D01*
X1272Y1760D01*
X1274Y1760D01*
X1274Y1762D01*
X1276Y1762D01*
X1276Y1764D01*
X1278Y1764D01*
X1278Y1766D01*
X1280Y1766D01*
X1280Y1768D01*
X1282Y1768D01*
X1282Y1770D01*
X1284Y1770D01*
X1284Y1772D01*
X1286Y1772D01*
X1286Y1774D01*
X1288Y1774D01*
X1288Y1776D01*
X1290Y1776D01*
X1290Y1778D01*
X1292Y1778D01*
X1292Y1780D01*
X1294Y1780D01*
X1294Y1782D01*
X1296Y1782D01*
X1296Y1784D01*
X1298Y1784D01*
X1298Y1786D01*
X1300Y1786D01*
X1300Y1788D01*
X1302Y1788D01*
X1302Y1790D01*
X1304Y1790D01*
X1304Y1792D01*
X1306Y1792D01*
X1306Y1794D01*
X1308Y1794D01*
X1308Y1796D01*
X1310Y1796D01*
X1310Y1798D01*
X1312Y1798D01*
X1312Y1800D01*
X1314Y1800D01*
X1314Y1802D01*
X1316Y1802D01*
X1316Y1804D01*
X1318Y1804D01*
X1318Y1806D01*
X1320Y1806D01*
X1320Y1808D01*
X1322Y1808D01*
X1322Y1810D01*
X1324Y1810D01*
X1324Y1812D01*
X1326Y1812D01*
X1326Y1814D01*
X1328Y1814D01*
X1328Y1816D01*
X1330Y1816D01*
X1330Y1818D01*
X1332Y1818D01*
X1332Y1820D01*
X1334Y1820D01*
X1334Y1822D01*
X1336Y1822D01*
X1336Y1824D01*
X1338Y1824D01*
X1338Y1826D01*
X1340Y1826D01*
X1340Y1828D01*
X40Y1828D01*
G37*
D02*
G36*
X40Y1600D02*
X40Y1576D01*
X60Y1576D01*
X60Y1580D01*
X62Y1580D01*
X62Y1582D01*
X64Y1582D01*
X64Y1584D01*
X66Y1584D01*
X66Y1586D01*
X68Y1586D01*
X68Y1588D01*
X70Y1588D01*
X70Y1590D01*
X72Y1590D01*
X72Y1592D01*
X76Y1592D01*
X76Y1594D01*
X80Y1594D01*
X80Y1596D01*
X84Y1596D01*
X84Y1598D01*
X90Y1598D01*
X90Y1600D01*
X40Y1600D01*
G37*
D02*
G36*
X106Y1600D02*
X106Y1598D01*
X112Y1598D01*
X112Y1596D01*
X116Y1596D01*
X116Y1594D01*
X120Y1594D01*
X120Y1592D01*
X124Y1592D01*
X124Y1590D01*
X126Y1590D01*
X126Y1588D01*
X128Y1588D01*
X128Y1586D01*
X130Y1586D01*
X130Y1584D01*
X132Y1584D01*
X132Y1582D01*
X134Y1582D01*
X134Y1580D01*
X136Y1580D01*
X136Y1578D01*
X138Y1578D01*
X138Y1574D01*
X158Y1574D01*
X158Y1576D01*
X160Y1576D01*
X160Y1580D01*
X162Y1580D01*
X162Y1582D01*
X164Y1582D01*
X164Y1584D01*
X166Y1584D01*
X166Y1586D01*
X168Y1586D01*
X168Y1588D01*
X170Y1588D01*
X170Y1590D01*
X172Y1590D01*
X172Y1592D01*
X176Y1592D01*
X176Y1594D01*
X180Y1594D01*
X180Y1596D01*
X184Y1596D01*
X184Y1598D01*
X190Y1598D01*
X190Y1600D01*
X106Y1600D01*
G37*
D02*
G36*
X206Y1600D02*
X206Y1598D01*
X212Y1598D01*
X212Y1596D01*
X216Y1596D01*
X216Y1594D01*
X220Y1594D01*
X220Y1592D01*
X224Y1592D01*
X224Y1590D01*
X226Y1590D01*
X226Y1588D01*
X228Y1588D01*
X228Y1586D01*
X230Y1586D01*
X230Y1584D01*
X232Y1584D01*
X232Y1582D01*
X234Y1582D01*
X234Y1580D01*
X236Y1580D01*
X236Y1578D01*
X238Y1578D01*
X238Y1574D01*
X258Y1574D01*
X258Y1576D01*
X260Y1576D01*
X260Y1580D01*
X262Y1580D01*
X262Y1582D01*
X264Y1582D01*
X264Y1584D01*
X266Y1584D01*
X266Y1586D01*
X268Y1586D01*
X268Y1588D01*
X270Y1588D01*
X270Y1590D01*
X272Y1590D01*
X272Y1592D01*
X276Y1592D01*
X276Y1594D01*
X280Y1594D01*
X280Y1596D01*
X284Y1596D01*
X284Y1598D01*
X290Y1598D01*
X290Y1600D01*
X206Y1600D01*
G37*
D02*
G36*
X306Y1600D02*
X306Y1598D01*
X312Y1598D01*
X312Y1596D01*
X316Y1596D01*
X316Y1594D01*
X320Y1594D01*
X320Y1592D01*
X324Y1592D01*
X324Y1590D01*
X326Y1590D01*
X326Y1588D01*
X328Y1588D01*
X328Y1586D01*
X330Y1586D01*
X330Y1584D01*
X332Y1584D01*
X332Y1582D01*
X334Y1582D01*
X334Y1580D01*
X336Y1580D01*
X336Y1578D01*
X338Y1578D01*
X338Y1574D01*
X358Y1574D01*
X358Y1576D01*
X360Y1576D01*
X360Y1580D01*
X362Y1580D01*
X362Y1582D01*
X364Y1582D01*
X364Y1584D01*
X366Y1584D01*
X366Y1586D01*
X368Y1586D01*
X368Y1588D01*
X370Y1588D01*
X370Y1590D01*
X372Y1590D01*
X372Y1592D01*
X376Y1592D01*
X376Y1594D01*
X380Y1594D01*
X380Y1596D01*
X384Y1596D01*
X384Y1598D01*
X390Y1598D01*
X390Y1600D01*
X306Y1600D01*
G37*
D02*
G36*
X406Y1600D02*
X406Y1598D01*
X412Y1598D01*
X412Y1596D01*
X416Y1596D01*
X416Y1594D01*
X420Y1594D01*
X420Y1592D01*
X424Y1592D01*
X424Y1590D01*
X426Y1590D01*
X426Y1588D01*
X428Y1588D01*
X428Y1586D01*
X430Y1586D01*
X430Y1584D01*
X432Y1584D01*
X432Y1582D01*
X434Y1582D01*
X434Y1580D01*
X436Y1580D01*
X436Y1578D01*
X438Y1578D01*
X438Y1574D01*
X458Y1574D01*
X458Y1576D01*
X460Y1576D01*
X460Y1580D01*
X462Y1580D01*
X462Y1582D01*
X464Y1582D01*
X464Y1584D01*
X466Y1584D01*
X466Y1586D01*
X468Y1586D01*
X468Y1588D01*
X470Y1588D01*
X470Y1590D01*
X472Y1590D01*
X472Y1592D01*
X476Y1592D01*
X476Y1594D01*
X480Y1594D01*
X480Y1596D01*
X484Y1596D01*
X484Y1598D01*
X490Y1598D01*
X490Y1600D01*
X406Y1600D01*
G37*
D02*
G36*
X506Y1600D02*
X506Y1598D01*
X512Y1598D01*
X512Y1596D01*
X516Y1596D01*
X516Y1594D01*
X520Y1594D01*
X520Y1592D01*
X524Y1592D01*
X524Y1590D01*
X526Y1590D01*
X526Y1588D01*
X528Y1588D01*
X528Y1586D01*
X530Y1586D01*
X530Y1584D01*
X532Y1584D01*
X532Y1582D01*
X534Y1582D01*
X534Y1580D01*
X536Y1580D01*
X536Y1578D01*
X538Y1578D01*
X538Y1574D01*
X558Y1574D01*
X558Y1576D01*
X560Y1576D01*
X560Y1580D01*
X562Y1580D01*
X562Y1582D01*
X564Y1582D01*
X564Y1584D01*
X566Y1584D01*
X566Y1586D01*
X568Y1586D01*
X568Y1588D01*
X570Y1588D01*
X570Y1590D01*
X572Y1590D01*
X572Y1592D01*
X576Y1592D01*
X576Y1594D01*
X580Y1594D01*
X580Y1596D01*
X584Y1596D01*
X584Y1598D01*
X590Y1598D01*
X590Y1600D01*
X506Y1600D01*
G37*
D02*
G36*
X606Y1600D02*
X606Y1598D01*
X612Y1598D01*
X612Y1596D01*
X616Y1596D01*
X616Y1594D01*
X620Y1594D01*
X620Y1592D01*
X624Y1592D01*
X624Y1590D01*
X626Y1590D01*
X626Y1588D01*
X628Y1588D01*
X628Y1586D01*
X630Y1586D01*
X630Y1584D01*
X632Y1584D01*
X632Y1582D01*
X634Y1582D01*
X634Y1580D01*
X636Y1580D01*
X636Y1578D01*
X638Y1578D01*
X638Y1574D01*
X658Y1574D01*
X658Y1576D01*
X660Y1576D01*
X660Y1580D01*
X662Y1580D01*
X662Y1582D01*
X664Y1582D01*
X664Y1584D01*
X666Y1584D01*
X666Y1586D01*
X668Y1586D01*
X668Y1588D01*
X670Y1588D01*
X670Y1590D01*
X672Y1590D01*
X672Y1592D01*
X676Y1592D01*
X676Y1594D01*
X680Y1594D01*
X680Y1596D01*
X684Y1596D01*
X684Y1598D01*
X690Y1598D01*
X690Y1600D01*
X606Y1600D01*
G37*
D02*
G36*
X706Y1600D02*
X706Y1598D01*
X712Y1598D01*
X712Y1596D01*
X716Y1596D01*
X716Y1594D01*
X720Y1594D01*
X720Y1592D01*
X724Y1592D01*
X724Y1590D01*
X726Y1590D01*
X726Y1588D01*
X728Y1588D01*
X728Y1586D01*
X730Y1586D01*
X730Y1584D01*
X732Y1584D01*
X732Y1582D01*
X734Y1582D01*
X734Y1580D01*
X736Y1580D01*
X736Y1578D01*
X738Y1578D01*
X738Y1574D01*
X758Y1574D01*
X758Y1576D01*
X760Y1576D01*
X760Y1580D01*
X762Y1580D01*
X762Y1582D01*
X764Y1582D01*
X764Y1584D01*
X766Y1584D01*
X766Y1586D01*
X768Y1586D01*
X768Y1588D01*
X770Y1588D01*
X770Y1590D01*
X772Y1590D01*
X772Y1592D01*
X776Y1592D01*
X776Y1594D01*
X780Y1594D01*
X780Y1596D01*
X784Y1596D01*
X784Y1598D01*
X790Y1598D01*
X790Y1600D01*
X706Y1600D01*
G37*
D02*
G36*
X806Y1600D02*
X806Y1598D01*
X812Y1598D01*
X812Y1596D01*
X816Y1596D01*
X816Y1594D01*
X820Y1594D01*
X820Y1592D01*
X824Y1592D01*
X824Y1590D01*
X826Y1590D01*
X826Y1588D01*
X828Y1588D01*
X828Y1586D01*
X830Y1586D01*
X830Y1584D01*
X832Y1584D01*
X832Y1582D01*
X834Y1582D01*
X834Y1580D01*
X836Y1580D01*
X836Y1578D01*
X838Y1578D01*
X838Y1574D01*
X858Y1574D01*
X858Y1576D01*
X860Y1576D01*
X860Y1580D01*
X862Y1580D01*
X862Y1582D01*
X864Y1582D01*
X864Y1584D01*
X866Y1584D01*
X866Y1586D01*
X868Y1586D01*
X868Y1588D01*
X870Y1588D01*
X870Y1590D01*
X872Y1590D01*
X872Y1592D01*
X876Y1592D01*
X876Y1594D01*
X880Y1594D01*
X880Y1596D01*
X884Y1596D01*
X884Y1598D01*
X890Y1598D01*
X890Y1600D01*
X806Y1600D01*
G37*
D02*
G36*
X906Y1600D02*
X906Y1598D01*
X912Y1598D01*
X912Y1596D01*
X916Y1596D01*
X916Y1594D01*
X920Y1594D01*
X920Y1592D01*
X924Y1592D01*
X924Y1590D01*
X926Y1590D01*
X926Y1588D01*
X928Y1588D01*
X928Y1586D01*
X930Y1586D01*
X930Y1584D01*
X932Y1584D01*
X932Y1582D01*
X934Y1582D01*
X934Y1580D01*
X936Y1580D01*
X936Y1578D01*
X938Y1578D01*
X938Y1574D01*
X958Y1574D01*
X958Y1576D01*
X960Y1576D01*
X960Y1580D01*
X962Y1580D01*
X962Y1582D01*
X964Y1582D01*
X964Y1584D01*
X966Y1584D01*
X966Y1586D01*
X968Y1586D01*
X968Y1588D01*
X970Y1588D01*
X970Y1590D01*
X972Y1590D01*
X972Y1592D01*
X976Y1592D01*
X976Y1594D01*
X980Y1594D01*
X980Y1596D01*
X984Y1596D01*
X984Y1598D01*
X990Y1598D01*
X990Y1600D01*
X906Y1600D01*
G37*
D02*
G36*
X1506Y1932D02*
X1506Y1930D01*
X1504Y1930D01*
X1504Y1928D01*
X1502Y1928D01*
X1502Y1926D01*
X1500Y1926D01*
X1500Y1924D01*
X1498Y1924D01*
X1498Y1922D01*
X1496Y1922D01*
X1496Y1920D01*
X1494Y1920D01*
X1494Y1918D01*
X1492Y1918D01*
X1492Y1916D01*
X1490Y1916D01*
X1490Y1914D01*
X1488Y1914D01*
X1488Y1912D01*
X1486Y1912D01*
X1486Y1910D01*
X1484Y1910D01*
X1484Y1908D01*
X1482Y1908D01*
X1482Y1906D01*
X1480Y1906D01*
X1480Y1904D01*
X1478Y1904D01*
X1478Y1902D01*
X1476Y1902D01*
X1476Y1900D01*
X2402Y1900D01*
X2402Y1898D01*
X2410Y1898D01*
X2410Y1896D01*
X2416Y1896D01*
X2416Y1894D01*
X2420Y1894D01*
X2420Y1892D01*
X2422Y1892D01*
X2422Y1890D01*
X2426Y1890D01*
X2426Y1888D01*
X2428Y1888D01*
X2428Y1886D01*
X2430Y1886D01*
X2430Y1884D01*
X2432Y1884D01*
X2432Y1882D01*
X2434Y1882D01*
X2434Y1880D01*
X2436Y1880D01*
X2436Y1876D01*
X2438Y1876D01*
X2438Y1874D01*
X2458Y1874D01*
X2458Y1876D01*
X2460Y1876D01*
X2460Y1880D01*
X2462Y1880D01*
X2462Y1882D01*
X2464Y1882D01*
X2464Y1884D01*
X2466Y1884D01*
X2466Y1886D01*
X2468Y1886D01*
X2468Y1888D01*
X2470Y1888D01*
X2470Y1890D01*
X2474Y1890D01*
X2474Y1892D01*
X2476Y1892D01*
X2476Y1894D01*
X2480Y1894D01*
X2480Y1896D01*
X2486Y1896D01*
X2486Y1898D01*
X2494Y1898D01*
X2494Y1900D01*
X2504Y1900D01*
X2504Y1918D01*
X2502Y1918D01*
X2502Y1920D01*
X2500Y1920D01*
X2500Y1922D01*
X2498Y1922D01*
X2498Y1924D01*
X2496Y1924D01*
X2496Y1926D01*
X2494Y1926D01*
X2494Y1928D01*
X2492Y1928D01*
X2492Y1930D01*
X2490Y1930D01*
X2490Y1932D01*
X1506Y1932D01*
G37*
D02*
G36*
X1474Y1900D02*
X1474Y1898D01*
X1472Y1898D01*
X1472Y1896D01*
X1470Y1896D01*
X1470Y1894D01*
X1468Y1894D01*
X1468Y1892D01*
X1466Y1892D01*
X1466Y1890D01*
X1464Y1890D01*
X1464Y1888D01*
X1462Y1888D01*
X1462Y1886D01*
X1460Y1886D01*
X1460Y1884D01*
X1458Y1884D01*
X1458Y1882D01*
X1456Y1882D01*
X1456Y1880D01*
X1454Y1880D01*
X1454Y1878D01*
X1452Y1878D01*
X1452Y1876D01*
X1450Y1876D01*
X1450Y1874D01*
X1448Y1874D01*
X1448Y1872D01*
X1446Y1872D01*
X1446Y1870D01*
X1444Y1870D01*
X1444Y1868D01*
X1442Y1868D01*
X1442Y1866D01*
X1440Y1866D01*
X1440Y1864D01*
X1438Y1864D01*
X1438Y1862D01*
X1436Y1862D01*
X1436Y1860D01*
X1434Y1860D01*
X1434Y1858D01*
X1432Y1858D01*
X1432Y1856D01*
X1430Y1856D01*
X1430Y1854D01*
X1428Y1854D01*
X1428Y1852D01*
X1426Y1852D01*
X1426Y1850D01*
X1424Y1850D01*
X1424Y1848D01*
X1422Y1848D01*
X1422Y1846D01*
X1420Y1846D01*
X1420Y1844D01*
X1418Y1844D01*
X1418Y1842D01*
X1416Y1842D01*
X1416Y1840D01*
X1414Y1840D01*
X1414Y1838D01*
X1412Y1838D01*
X1412Y1836D01*
X1410Y1836D01*
X1410Y1834D01*
X1408Y1834D01*
X1408Y1832D01*
X1406Y1832D01*
X1406Y1830D01*
X1404Y1830D01*
X1404Y1828D01*
X1402Y1828D01*
X1402Y1826D01*
X1400Y1826D01*
X1400Y1824D01*
X1398Y1824D01*
X1398Y1822D01*
X1396Y1822D01*
X1396Y1820D01*
X1394Y1820D01*
X1394Y1818D01*
X1392Y1818D01*
X1392Y1816D01*
X1390Y1816D01*
X1390Y1814D01*
X1388Y1814D01*
X1388Y1812D01*
X1386Y1812D01*
X1386Y1810D01*
X1384Y1810D01*
X1384Y1808D01*
X1382Y1808D01*
X1382Y1806D01*
X1380Y1806D01*
X1380Y1804D01*
X1378Y1804D01*
X1378Y1802D01*
X1376Y1802D01*
X1376Y1800D01*
X1374Y1800D01*
X1374Y1798D01*
X1372Y1798D01*
X1372Y1796D01*
X1370Y1796D01*
X1370Y1794D01*
X1368Y1794D01*
X1368Y1792D01*
X1366Y1792D01*
X1366Y1790D01*
X1364Y1790D01*
X1364Y1788D01*
X1362Y1788D01*
X1362Y1786D01*
X1360Y1786D01*
X1360Y1784D01*
X1358Y1784D01*
X1358Y1782D01*
X1356Y1782D01*
X1356Y1780D01*
X1354Y1780D01*
X1354Y1778D01*
X1352Y1778D01*
X1352Y1776D01*
X1350Y1776D01*
X1350Y1774D01*
X1348Y1774D01*
X1348Y1772D01*
X1346Y1772D01*
X1346Y1770D01*
X1344Y1770D01*
X1344Y1768D01*
X1342Y1768D01*
X1342Y1766D01*
X1340Y1766D01*
X1340Y1764D01*
X1338Y1764D01*
X1338Y1760D01*
X1336Y1760D01*
X1336Y1758D01*
X1334Y1758D01*
X1334Y1756D01*
X1332Y1756D01*
X1332Y1754D01*
X1330Y1754D01*
X1330Y1752D01*
X1328Y1752D01*
X1328Y1750D01*
X1326Y1750D01*
X1326Y1748D01*
X1324Y1748D01*
X1324Y1746D01*
X1322Y1746D01*
X1322Y1744D01*
X1320Y1744D01*
X1320Y1742D01*
X1318Y1742D01*
X1318Y1740D01*
X1316Y1740D01*
X1316Y1738D01*
X1314Y1738D01*
X1314Y1736D01*
X1312Y1736D01*
X1312Y1734D01*
X1310Y1734D01*
X1310Y1732D01*
X1308Y1732D01*
X1308Y1730D01*
X1306Y1730D01*
X1306Y1728D01*
X1304Y1728D01*
X1304Y1726D01*
X1302Y1726D01*
X1302Y1724D01*
X1300Y1724D01*
X1300Y1722D01*
X1298Y1722D01*
X1298Y1720D01*
X1296Y1720D01*
X1296Y1718D01*
X1294Y1718D01*
X1294Y1716D01*
X1292Y1716D01*
X1292Y1714D01*
X1290Y1714D01*
X1290Y1712D01*
X1288Y1712D01*
X1288Y1710D01*
X1286Y1710D01*
X1286Y1708D01*
X1284Y1708D01*
X1284Y1706D01*
X1282Y1706D01*
X1282Y1704D01*
X1280Y1704D01*
X1280Y1702D01*
X1278Y1702D01*
X1278Y1700D01*
X1276Y1700D01*
X1276Y1698D01*
X1274Y1698D01*
X1274Y1696D01*
X1272Y1696D01*
X1272Y1694D01*
X1270Y1694D01*
X1270Y1692D01*
X1268Y1692D01*
X1268Y1690D01*
X1266Y1690D01*
X1266Y1688D01*
X1264Y1688D01*
X1264Y1686D01*
X1262Y1686D01*
X1262Y1684D01*
X1260Y1684D01*
X1260Y1682D01*
X1258Y1682D01*
X1258Y1680D01*
X1256Y1680D01*
X1256Y1678D01*
X1254Y1678D01*
X1254Y1676D01*
X1252Y1676D01*
X1252Y1674D01*
X2306Y1674D01*
X2306Y1672D01*
X2310Y1672D01*
X2310Y1670D01*
X2312Y1670D01*
X2312Y1668D01*
X2314Y1668D01*
X2314Y1666D01*
X2316Y1666D01*
X2316Y1664D01*
X2318Y1664D01*
X2318Y1660D01*
X2320Y1660D01*
X2320Y1174D01*
X2358Y1174D01*
X2358Y1176D01*
X2360Y1176D01*
X2360Y1180D01*
X2362Y1180D01*
X2362Y1182D01*
X2364Y1182D01*
X2364Y1184D01*
X2366Y1184D01*
X2366Y1186D01*
X2368Y1186D01*
X2368Y1188D01*
X2370Y1188D01*
X2370Y1190D01*
X2374Y1190D01*
X2374Y1192D01*
X2376Y1192D01*
X2376Y1212D01*
X2374Y1212D01*
X2374Y1214D01*
X2372Y1214D01*
X2372Y1216D01*
X2370Y1216D01*
X2370Y1218D01*
X2366Y1218D01*
X2366Y1220D01*
X2364Y1220D01*
X2364Y1224D01*
X2362Y1224D01*
X2362Y1226D01*
X2360Y1226D01*
X2360Y1228D01*
X2358Y1228D01*
X2358Y1232D01*
X2356Y1232D01*
X2356Y1236D01*
X2354Y1236D01*
X2354Y1240D01*
X2352Y1240D01*
X2352Y1264D01*
X2354Y1264D01*
X2354Y1270D01*
X2356Y1270D01*
X2356Y1274D01*
X2358Y1274D01*
X2358Y1276D01*
X2360Y1276D01*
X2360Y1280D01*
X2362Y1280D01*
X2362Y1282D01*
X2364Y1282D01*
X2364Y1284D01*
X2366Y1284D01*
X2366Y1286D01*
X2368Y1286D01*
X2368Y1288D01*
X2370Y1288D01*
X2370Y1290D01*
X2374Y1290D01*
X2374Y1292D01*
X2376Y1292D01*
X2376Y1312D01*
X2374Y1312D01*
X2374Y1314D01*
X2372Y1314D01*
X2372Y1316D01*
X2370Y1316D01*
X2370Y1318D01*
X2366Y1318D01*
X2366Y1320D01*
X2364Y1320D01*
X2364Y1324D01*
X2362Y1324D01*
X2362Y1326D01*
X2360Y1326D01*
X2360Y1328D01*
X2358Y1328D01*
X2358Y1332D01*
X2356Y1332D01*
X2356Y1336D01*
X2354Y1336D01*
X2354Y1340D01*
X2352Y1340D01*
X2352Y1364D01*
X2354Y1364D01*
X2354Y1370D01*
X2356Y1370D01*
X2356Y1374D01*
X2358Y1374D01*
X2358Y1376D01*
X2360Y1376D01*
X2360Y1380D01*
X2362Y1380D01*
X2362Y1382D01*
X2364Y1382D01*
X2364Y1384D01*
X2366Y1384D01*
X2366Y1386D01*
X2368Y1386D01*
X2368Y1388D01*
X2370Y1388D01*
X2370Y1390D01*
X2374Y1390D01*
X2374Y1392D01*
X2376Y1392D01*
X2376Y1412D01*
X2374Y1412D01*
X2374Y1414D01*
X2372Y1414D01*
X2372Y1416D01*
X2370Y1416D01*
X2370Y1418D01*
X2366Y1418D01*
X2366Y1420D01*
X2364Y1420D01*
X2364Y1424D01*
X2362Y1424D01*
X2362Y1426D01*
X2360Y1426D01*
X2360Y1428D01*
X2358Y1428D01*
X2358Y1432D01*
X2356Y1432D01*
X2356Y1436D01*
X2354Y1436D01*
X2354Y1440D01*
X2352Y1440D01*
X2352Y1464D01*
X2354Y1464D01*
X2354Y1470D01*
X2356Y1470D01*
X2356Y1474D01*
X2358Y1474D01*
X2358Y1476D01*
X2360Y1476D01*
X2360Y1480D01*
X2362Y1480D01*
X2362Y1482D01*
X2364Y1482D01*
X2364Y1484D01*
X2366Y1484D01*
X2366Y1486D01*
X2368Y1486D01*
X2368Y1488D01*
X2370Y1488D01*
X2370Y1490D01*
X2374Y1490D01*
X2374Y1492D01*
X2376Y1492D01*
X2376Y1512D01*
X2374Y1512D01*
X2374Y1514D01*
X2372Y1514D01*
X2372Y1516D01*
X2370Y1516D01*
X2370Y1518D01*
X2366Y1518D01*
X2366Y1520D01*
X2364Y1520D01*
X2364Y1524D01*
X2362Y1524D01*
X2362Y1526D01*
X2360Y1526D01*
X2360Y1528D01*
X2358Y1528D01*
X2358Y1532D01*
X2356Y1532D01*
X2356Y1536D01*
X2354Y1536D01*
X2354Y1540D01*
X2352Y1540D01*
X2352Y1564D01*
X2354Y1564D01*
X2354Y1570D01*
X2356Y1570D01*
X2356Y1574D01*
X2358Y1574D01*
X2358Y1576D01*
X2360Y1576D01*
X2360Y1580D01*
X2362Y1580D01*
X2362Y1582D01*
X2364Y1582D01*
X2364Y1584D01*
X2366Y1584D01*
X2366Y1586D01*
X2368Y1586D01*
X2368Y1588D01*
X2370Y1588D01*
X2370Y1590D01*
X2374Y1590D01*
X2374Y1592D01*
X2376Y1592D01*
X2376Y1612D01*
X2374Y1612D01*
X2374Y1614D01*
X2372Y1614D01*
X2372Y1616D01*
X2370Y1616D01*
X2370Y1618D01*
X2366Y1618D01*
X2366Y1620D01*
X2364Y1620D01*
X2364Y1624D01*
X2362Y1624D01*
X2362Y1626D01*
X2360Y1626D01*
X2360Y1628D01*
X2358Y1628D01*
X2358Y1632D01*
X2356Y1632D01*
X2356Y1636D01*
X2354Y1636D01*
X2354Y1640D01*
X2352Y1640D01*
X2352Y1664D01*
X2354Y1664D01*
X2354Y1670D01*
X2356Y1670D01*
X2356Y1674D01*
X2358Y1674D01*
X2358Y1676D01*
X2360Y1676D01*
X2360Y1680D01*
X2362Y1680D01*
X2362Y1682D01*
X2364Y1682D01*
X2364Y1684D01*
X2366Y1684D01*
X2366Y1686D01*
X2368Y1686D01*
X2368Y1688D01*
X2370Y1688D01*
X2370Y1690D01*
X2374Y1690D01*
X2374Y1692D01*
X2376Y1692D01*
X2376Y1712D01*
X2374Y1712D01*
X2374Y1714D01*
X2372Y1714D01*
X2372Y1716D01*
X2370Y1716D01*
X2370Y1718D01*
X2366Y1718D01*
X2366Y1720D01*
X2364Y1720D01*
X2364Y1724D01*
X2362Y1724D01*
X2362Y1726D01*
X2360Y1726D01*
X2360Y1728D01*
X2358Y1728D01*
X2358Y1732D01*
X2356Y1732D01*
X2356Y1736D01*
X2354Y1736D01*
X2354Y1740D01*
X2352Y1740D01*
X2352Y1764D01*
X2354Y1764D01*
X2354Y1770D01*
X2356Y1770D01*
X2356Y1774D01*
X2358Y1774D01*
X2358Y1776D01*
X2360Y1776D01*
X2360Y1780D01*
X2362Y1780D01*
X2362Y1782D01*
X2364Y1782D01*
X2364Y1784D01*
X2366Y1784D01*
X2366Y1786D01*
X2368Y1786D01*
X2368Y1788D01*
X2370Y1788D01*
X2370Y1790D01*
X2374Y1790D01*
X2374Y1792D01*
X2376Y1792D01*
X2376Y1812D01*
X2374Y1812D01*
X2374Y1814D01*
X2372Y1814D01*
X2372Y1816D01*
X2370Y1816D01*
X2370Y1818D01*
X2366Y1818D01*
X2366Y1820D01*
X2364Y1820D01*
X2364Y1824D01*
X2362Y1824D01*
X2362Y1826D01*
X2360Y1826D01*
X2360Y1828D01*
X2358Y1828D01*
X2358Y1832D01*
X2356Y1832D01*
X2356Y1836D01*
X2354Y1836D01*
X2354Y1840D01*
X2352Y1840D01*
X2352Y1864D01*
X2354Y1864D01*
X2354Y1870D01*
X2356Y1870D01*
X2356Y1874D01*
X2358Y1874D01*
X2358Y1876D01*
X2360Y1876D01*
X2360Y1880D01*
X2362Y1880D01*
X2362Y1882D01*
X2364Y1882D01*
X2364Y1884D01*
X2366Y1884D01*
X2366Y1886D01*
X2368Y1886D01*
X2368Y1888D01*
X2370Y1888D01*
X2370Y1890D01*
X2374Y1890D01*
X2374Y1892D01*
X2376Y1892D01*
X2376Y1894D01*
X2380Y1894D01*
X2380Y1896D01*
X2386Y1896D01*
X2386Y1898D01*
X2394Y1898D01*
X2394Y1900D01*
X1474Y1900D01*
G37*
D02*
G36*
X1250Y1674D02*
X1250Y1672D01*
X1248Y1672D01*
X1248Y1670D01*
X1246Y1670D01*
X1246Y1668D01*
X1244Y1668D01*
X1244Y1666D01*
X1242Y1666D01*
X1242Y1664D01*
X1240Y1664D01*
X1240Y1662D01*
X1238Y1662D01*
X1238Y1660D01*
X1236Y1660D01*
X1236Y1658D01*
X1234Y1658D01*
X1234Y1656D01*
X1232Y1656D01*
X1232Y1654D01*
X1230Y1654D01*
X1230Y1652D01*
X1228Y1652D01*
X1228Y1650D01*
X1226Y1650D01*
X1226Y1648D01*
X1224Y1648D01*
X1224Y1646D01*
X1222Y1646D01*
X1222Y1644D01*
X1220Y1644D01*
X1220Y1642D01*
X1218Y1642D01*
X1218Y1640D01*
X1216Y1640D01*
X1216Y1638D01*
X1214Y1638D01*
X1214Y1636D01*
X1212Y1636D01*
X1212Y1634D01*
X1210Y1634D01*
X1210Y1632D01*
X1208Y1632D01*
X1208Y1630D01*
X1206Y1630D01*
X1206Y1628D01*
X1204Y1628D01*
X1204Y1626D01*
X1202Y1626D01*
X1202Y1624D01*
X1200Y1624D01*
X1200Y1622D01*
X1198Y1622D01*
X1198Y1620D01*
X1196Y1620D01*
X1196Y1600D01*
X1206Y1600D01*
X1206Y1598D01*
X1212Y1598D01*
X1212Y1596D01*
X1216Y1596D01*
X1216Y1594D01*
X1220Y1594D01*
X1220Y1592D01*
X1224Y1592D01*
X1224Y1590D01*
X1226Y1590D01*
X1226Y1588D01*
X1228Y1588D01*
X1228Y1586D01*
X1230Y1586D01*
X1230Y1584D01*
X1232Y1584D01*
X1232Y1582D01*
X1234Y1582D01*
X1234Y1580D01*
X1236Y1580D01*
X1236Y1578D01*
X1238Y1578D01*
X1238Y1574D01*
X1258Y1574D01*
X1258Y1576D01*
X1260Y1576D01*
X1260Y1580D01*
X1262Y1580D01*
X1262Y1582D01*
X1264Y1582D01*
X1264Y1584D01*
X1266Y1584D01*
X1266Y1586D01*
X1268Y1586D01*
X1268Y1588D01*
X1270Y1588D01*
X1270Y1590D01*
X1272Y1590D01*
X1272Y1592D01*
X1276Y1592D01*
X1276Y1594D01*
X1280Y1594D01*
X1280Y1596D01*
X1284Y1596D01*
X1284Y1598D01*
X1290Y1598D01*
X1290Y1600D01*
X1316Y1600D01*
X1316Y1602D01*
X1318Y1602D01*
X1318Y1604D01*
X1320Y1604D01*
X1320Y1606D01*
X1322Y1606D01*
X1322Y1608D01*
X1324Y1608D01*
X1324Y1610D01*
X1326Y1610D01*
X1326Y1612D01*
X1328Y1612D01*
X1328Y1614D01*
X1330Y1614D01*
X1330Y1616D01*
X1332Y1616D01*
X1332Y1618D01*
X1334Y1618D01*
X1334Y1620D01*
X1336Y1620D01*
X1336Y1622D01*
X1338Y1622D01*
X1338Y1624D01*
X1340Y1624D01*
X1340Y1626D01*
X1342Y1626D01*
X1342Y1628D01*
X1344Y1628D01*
X1344Y1630D01*
X1346Y1630D01*
X1346Y1632D01*
X1348Y1632D01*
X1348Y1634D01*
X1350Y1634D01*
X1350Y1636D01*
X1352Y1636D01*
X1352Y1638D01*
X1354Y1638D01*
X1354Y1640D01*
X1356Y1640D01*
X1356Y1642D01*
X1358Y1642D01*
X1358Y1644D01*
X1360Y1644D01*
X1360Y1646D01*
X1362Y1646D01*
X1362Y1648D01*
X1364Y1648D01*
X1364Y1650D01*
X1366Y1650D01*
X1366Y1652D01*
X1368Y1652D01*
X1368Y1654D01*
X1370Y1654D01*
X1370Y1656D01*
X1372Y1656D01*
X1372Y1658D01*
X1374Y1658D01*
X1374Y1660D01*
X1376Y1660D01*
X1376Y1662D01*
X1378Y1662D01*
X1378Y1664D01*
X1380Y1664D01*
X1380Y1666D01*
X1382Y1666D01*
X1382Y1668D01*
X1384Y1668D01*
X1384Y1670D01*
X1386Y1670D01*
X1386Y1672D01*
X1390Y1672D01*
X1390Y1674D01*
X1250Y1674D01*
G37*
D02*
G36*
X2546Y1854D02*
X2546Y1850D01*
X2544Y1850D01*
X2544Y1840D01*
X2542Y1840D01*
X2542Y1834D01*
X2540Y1834D01*
X2540Y1832D01*
X2538Y1832D01*
X2538Y1828D01*
X2536Y1828D01*
X2536Y1826D01*
X2534Y1826D01*
X2534Y1822D01*
X2532Y1822D01*
X2532Y1820D01*
X2530Y1820D01*
X2530Y1818D01*
X2528Y1818D01*
X2528Y1816D01*
X2524Y1816D01*
X2524Y1814D01*
X2522Y1814D01*
X2522Y1812D01*
X2520Y1812D01*
X2520Y1792D01*
X2522Y1792D01*
X2522Y1790D01*
X2526Y1790D01*
X2526Y1788D01*
X2528Y1788D01*
X2528Y1786D01*
X2530Y1786D01*
X2530Y1784D01*
X2532Y1784D01*
X2532Y1782D01*
X2534Y1782D01*
X2534Y1780D01*
X2536Y1780D01*
X2536Y1776D01*
X2538Y1776D01*
X2538Y1774D01*
X2540Y1774D01*
X2540Y1770D01*
X2542Y1770D01*
X2542Y1764D01*
X2544Y1764D01*
X2544Y1756D01*
X2546Y1756D01*
X2546Y1750D01*
X2544Y1750D01*
X2544Y1740D01*
X2542Y1740D01*
X2542Y1734D01*
X2540Y1734D01*
X2540Y1732D01*
X2538Y1732D01*
X2538Y1728D01*
X2536Y1728D01*
X2536Y1726D01*
X2534Y1726D01*
X2534Y1722D01*
X2532Y1722D01*
X2532Y1720D01*
X2530Y1720D01*
X2530Y1718D01*
X2528Y1718D01*
X2528Y1716D01*
X2524Y1716D01*
X2524Y1714D01*
X2522Y1714D01*
X2522Y1712D01*
X2520Y1712D01*
X2520Y1692D01*
X2522Y1692D01*
X2522Y1690D01*
X2526Y1690D01*
X2526Y1688D01*
X2528Y1688D01*
X2528Y1686D01*
X2530Y1686D01*
X2530Y1684D01*
X2532Y1684D01*
X2532Y1682D01*
X2534Y1682D01*
X2534Y1680D01*
X2536Y1680D01*
X2536Y1676D01*
X2538Y1676D01*
X2538Y1674D01*
X2540Y1674D01*
X2540Y1670D01*
X2542Y1670D01*
X2542Y1664D01*
X2544Y1664D01*
X2544Y1656D01*
X2546Y1656D01*
X2546Y1650D01*
X2544Y1650D01*
X2544Y1648D01*
X2564Y1648D01*
X2564Y1650D01*
X2566Y1650D01*
X2566Y1652D01*
X2568Y1652D01*
X2568Y1654D01*
X2570Y1654D01*
X2570Y1656D01*
X2572Y1656D01*
X2572Y1658D01*
X2574Y1658D01*
X2574Y1660D01*
X2576Y1660D01*
X2576Y1844D01*
X2574Y1844D01*
X2574Y1846D01*
X2572Y1846D01*
X2572Y1848D01*
X2570Y1848D01*
X2570Y1850D01*
X2568Y1850D01*
X2568Y1852D01*
X2566Y1852D01*
X2566Y1854D01*
X2546Y1854D01*
G37*
D02*
G36*
X2438Y1832D02*
X2438Y1828D01*
X2436Y1828D01*
X2436Y1826D01*
X2434Y1826D01*
X2434Y1822D01*
X2432Y1822D01*
X2432Y1820D01*
X2430Y1820D01*
X2430Y1818D01*
X2428Y1818D01*
X2428Y1816D01*
X2424Y1816D01*
X2424Y1814D01*
X2422Y1814D01*
X2422Y1812D01*
X2420Y1812D01*
X2420Y1792D01*
X2422Y1792D01*
X2422Y1790D01*
X2426Y1790D01*
X2426Y1788D01*
X2428Y1788D01*
X2428Y1786D01*
X2430Y1786D01*
X2430Y1784D01*
X2432Y1784D01*
X2432Y1782D01*
X2434Y1782D01*
X2434Y1780D01*
X2436Y1780D01*
X2436Y1776D01*
X2438Y1776D01*
X2438Y1774D01*
X2458Y1774D01*
X2458Y1776D01*
X2460Y1776D01*
X2460Y1780D01*
X2462Y1780D01*
X2462Y1782D01*
X2464Y1782D01*
X2464Y1784D01*
X2466Y1784D01*
X2466Y1786D01*
X2468Y1786D01*
X2468Y1788D01*
X2470Y1788D01*
X2470Y1790D01*
X2474Y1790D01*
X2474Y1792D01*
X2476Y1792D01*
X2476Y1812D01*
X2474Y1812D01*
X2474Y1814D01*
X2472Y1814D01*
X2472Y1816D01*
X2470Y1816D01*
X2470Y1818D01*
X2466Y1818D01*
X2466Y1820D01*
X2464Y1820D01*
X2464Y1824D01*
X2462Y1824D01*
X2462Y1826D01*
X2460Y1826D01*
X2460Y1828D01*
X2458Y1828D01*
X2458Y1832D01*
X2438Y1832D01*
G37*
D02*
G36*
X2438Y1732D02*
X2438Y1728D01*
X2436Y1728D01*
X2436Y1726D01*
X2434Y1726D01*
X2434Y1722D01*
X2432Y1722D01*
X2432Y1720D01*
X2430Y1720D01*
X2430Y1718D01*
X2428Y1718D01*
X2428Y1716D01*
X2424Y1716D01*
X2424Y1714D01*
X2422Y1714D01*
X2422Y1712D01*
X2420Y1712D01*
X2420Y1692D01*
X2422Y1692D01*
X2422Y1690D01*
X2426Y1690D01*
X2426Y1688D01*
X2428Y1688D01*
X2428Y1686D01*
X2430Y1686D01*
X2430Y1684D01*
X2432Y1684D01*
X2432Y1682D01*
X2434Y1682D01*
X2434Y1680D01*
X2436Y1680D01*
X2436Y1676D01*
X2438Y1676D01*
X2438Y1674D01*
X2458Y1674D01*
X2458Y1676D01*
X2460Y1676D01*
X2460Y1680D01*
X2462Y1680D01*
X2462Y1682D01*
X2464Y1682D01*
X2464Y1684D01*
X2466Y1684D01*
X2466Y1686D01*
X2468Y1686D01*
X2468Y1688D01*
X2470Y1688D01*
X2470Y1690D01*
X2474Y1690D01*
X2474Y1692D01*
X2476Y1692D01*
X2476Y1712D01*
X2474Y1712D01*
X2474Y1714D01*
X2472Y1714D01*
X2472Y1716D01*
X2470Y1716D01*
X2470Y1718D01*
X2466Y1718D01*
X2466Y1720D01*
X2464Y1720D01*
X2464Y1724D01*
X2462Y1724D01*
X2462Y1726D01*
X2460Y1726D01*
X2460Y1728D01*
X2458Y1728D01*
X2458Y1732D01*
X2438Y1732D01*
G37*
D02*
G36*
X2438Y1632D02*
X2438Y1628D01*
X2436Y1628D01*
X2436Y1626D01*
X2434Y1626D01*
X2434Y1622D01*
X2432Y1622D01*
X2432Y1620D01*
X2430Y1620D01*
X2430Y1618D01*
X2428Y1618D01*
X2428Y1616D01*
X2424Y1616D01*
X2424Y1614D01*
X2422Y1614D01*
X2422Y1612D01*
X2420Y1612D01*
X2420Y1592D01*
X2422Y1592D01*
X2422Y1590D01*
X2426Y1590D01*
X2426Y1588D01*
X2428Y1588D01*
X2428Y1586D01*
X2430Y1586D01*
X2430Y1584D01*
X2432Y1584D01*
X2432Y1582D01*
X2434Y1582D01*
X2434Y1580D01*
X2436Y1580D01*
X2436Y1576D01*
X2438Y1576D01*
X2438Y1574D01*
X2458Y1574D01*
X2458Y1576D01*
X2460Y1576D01*
X2460Y1580D01*
X2462Y1580D01*
X2462Y1582D01*
X2464Y1582D01*
X2464Y1584D01*
X2466Y1584D01*
X2466Y1586D01*
X2468Y1586D01*
X2468Y1588D01*
X2470Y1588D01*
X2470Y1590D01*
X2474Y1590D01*
X2474Y1592D01*
X2476Y1592D01*
X2476Y1612D01*
X2474Y1612D01*
X2474Y1614D01*
X2472Y1614D01*
X2472Y1616D01*
X2470Y1616D01*
X2470Y1618D01*
X2466Y1618D01*
X2466Y1620D01*
X2464Y1620D01*
X2464Y1624D01*
X2462Y1624D01*
X2462Y1626D01*
X2460Y1626D01*
X2460Y1628D01*
X2458Y1628D01*
X2458Y1632D01*
X2438Y1632D01*
G37*
D02*
G36*
X2556Y1580D02*
X2556Y1578D01*
X2554Y1578D01*
X2554Y1576D01*
X2552Y1576D01*
X2552Y1574D01*
X2550Y1574D01*
X2550Y1572D01*
X2548Y1572D01*
X2548Y1570D01*
X2546Y1570D01*
X2546Y1550D01*
X2544Y1550D01*
X2544Y1540D01*
X2542Y1540D01*
X2542Y1534D01*
X2540Y1534D01*
X2540Y1532D01*
X2538Y1532D01*
X2538Y1528D01*
X2536Y1528D01*
X2536Y1526D01*
X2534Y1526D01*
X2534Y1522D01*
X2532Y1522D01*
X2532Y1520D01*
X2530Y1520D01*
X2530Y1518D01*
X2528Y1518D01*
X2528Y1516D01*
X2524Y1516D01*
X2524Y1514D01*
X2522Y1514D01*
X2522Y1512D01*
X2520Y1512D01*
X2520Y1492D01*
X2522Y1492D01*
X2522Y1490D01*
X2526Y1490D01*
X2526Y1488D01*
X2528Y1488D01*
X2528Y1486D01*
X2530Y1486D01*
X2530Y1484D01*
X2532Y1484D01*
X2532Y1482D01*
X2534Y1482D01*
X2534Y1480D01*
X2536Y1480D01*
X2536Y1476D01*
X2538Y1476D01*
X2538Y1474D01*
X2540Y1474D01*
X2540Y1470D01*
X2542Y1470D01*
X2542Y1464D01*
X2544Y1464D01*
X2544Y1456D01*
X2546Y1456D01*
X2546Y1450D01*
X2544Y1450D01*
X2544Y1448D01*
X2564Y1448D01*
X2564Y1450D01*
X2566Y1450D01*
X2566Y1452D01*
X2568Y1452D01*
X2568Y1454D01*
X2570Y1454D01*
X2570Y1456D01*
X2572Y1456D01*
X2572Y1458D01*
X2574Y1458D01*
X2574Y1460D01*
X2576Y1460D01*
X2576Y1580D01*
X2556Y1580D01*
G37*
D02*
G36*
X2438Y1532D02*
X2438Y1528D01*
X2436Y1528D01*
X2436Y1526D01*
X2434Y1526D01*
X2434Y1522D01*
X2432Y1522D01*
X2432Y1520D01*
X2430Y1520D01*
X2430Y1518D01*
X2428Y1518D01*
X2428Y1516D01*
X2424Y1516D01*
X2424Y1514D01*
X2422Y1514D01*
X2422Y1512D01*
X2420Y1512D01*
X2420Y1492D01*
X2422Y1492D01*
X2422Y1490D01*
X2426Y1490D01*
X2426Y1488D01*
X2428Y1488D01*
X2428Y1486D01*
X2430Y1486D01*
X2430Y1484D01*
X2432Y1484D01*
X2432Y1482D01*
X2434Y1482D01*
X2434Y1480D01*
X2436Y1480D01*
X2436Y1476D01*
X2438Y1476D01*
X2438Y1474D01*
X2458Y1474D01*
X2458Y1476D01*
X2460Y1476D01*
X2460Y1480D01*
X2462Y1480D01*
X2462Y1482D01*
X2464Y1482D01*
X2464Y1484D01*
X2466Y1484D01*
X2466Y1486D01*
X2468Y1486D01*
X2468Y1488D01*
X2470Y1488D01*
X2470Y1490D01*
X2474Y1490D01*
X2474Y1492D01*
X2476Y1492D01*
X2476Y1512D01*
X2474Y1512D01*
X2474Y1514D01*
X2472Y1514D01*
X2472Y1516D01*
X2470Y1516D01*
X2470Y1518D01*
X2466Y1518D01*
X2466Y1520D01*
X2464Y1520D01*
X2464Y1524D01*
X2462Y1524D01*
X2462Y1526D01*
X2460Y1526D01*
X2460Y1528D01*
X2458Y1528D01*
X2458Y1532D01*
X2438Y1532D01*
G37*
D02*
G36*
X1406Y1630D02*
X1406Y1628D01*
X1404Y1628D01*
X1404Y1626D01*
X1402Y1626D01*
X1402Y1624D01*
X1400Y1624D01*
X1400Y1622D01*
X1398Y1622D01*
X1398Y1620D01*
X1396Y1620D01*
X1396Y1600D01*
X2046Y1600D01*
X2046Y1504D01*
X2276Y1504D01*
X2276Y1630D01*
X1406Y1630D01*
G37*
D02*
G36*
X1406Y1600D02*
X1406Y1598D01*
X1412Y1598D01*
X1412Y1596D01*
X1416Y1596D01*
X1416Y1594D01*
X1420Y1594D01*
X1420Y1592D01*
X1424Y1592D01*
X1424Y1590D01*
X1426Y1590D01*
X1426Y1588D01*
X1428Y1588D01*
X1428Y1586D01*
X1430Y1586D01*
X1430Y1584D01*
X1432Y1584D01*
X1432Y1582D01*
X1434Y1582D01*
X1434Y1580D01*
X1436Y1580D01*
X1436Y1578D01*
X1438Y1578D01*
X1438Y1574D01*
X1458Y1574D01*
X1458Y1576D01*
X1460Y1576D01*
X1460Y1580D01*
X1462Y1580D01*
X1462Y1582D01*
X1464Y1582D01*
X1464Y1584D01*
X1466Y1584D01*
X1466Y1586D01*
X1468Y1586D01*
X1468Y1588D01*
X1470Y1588D01*
X1470Y1590D01*
X1472Y1590D01*
X1472Y1592D01*
X1476Y1592D01*
X1476Y1594D01*
X1480Y1594D01*
X1480Y1596D01*
X1484Y1596D01*
X1484Y1598D01*
X1490Y1598D01*
X1490Y1600D01*
X1406Y1600D01*
G37*
D02*
G36*
X1506Y1600D02*
X1506Y1598D01*
X1512Y1598D01*
X1512Y1596D01*
X1516Y1596D01*
X1516Y1594D01*
X1520Y1594D01*
X1520Y1592D01*
X1524Y1592D01*
X1524Y1590D01*
X1526Y1590D01*
X1526Y1588D01*
X1528Y1588D01*
X1528Y1586D01*
X1530Y1586D01*
X1530Y1584D01*
X1532Y1584D01*
X1532Y1582D01*
X1534Y1582D01*
X1534Y1580D01*
X1536Y1580D01*
X1536Y1578D01*
X1538Y1578D01*
X1538Y1574D01*
X1558Y1574D01*
X1558Y1576D01*
X1560Y1576D01*
X1560Y1580D01*
X1562Y1580D01*
X1562Y1582D01*
X1564Y1582D01*
X1564Y1584D01*
X1566Y1584D01*
X1566Y1586D01*
X1568Y1586D01*
X1568Y1588D01*
X1570Y1588D01*
X1570Y1590D01*
X1572Y1590D01*
X1572Y1592D01*
X1576Y1592D01*
X1576Y1594D01*
X1580Y1594D01*
X1580Y1596D01*
X1584Y1596D01*
X1584Y1598D01*
X1590Y1598D01*
X1590Y1600D01*
X1506Y1600D01*
G37*
D02*
G36*
X1606Y1600D02*
X1606Y1598D01*
X1612Y1598D01*
X1612Y1596D01*
X1616Y1596D01*
X1616Y1594D01*
X1620Y1594D01*
X1620Y1592D01*
X1624Y1592D01*
X1624Y1590D01*
X1626Y1590D01*
X1626Y1588D01*
X1628Y1588D01*
X1628Y1586D01*
X1630Y1586D01*
X1630Y1584D01*
X1632Y1584D01*
X1632Y1582D01*
X1634Y1582D01*
X1634Y1580D01*
X1636Y1580D01*
X1636Y1578D01*
X1638Y1578D01*
X1638Y1574D01*
X1658Y1574D01*
X1658Y1576D01*
X1660Y1576D01*
X1660Y1580D01*
X1662Y1580D01*
X1662Y1582D01*
X1664Y1582D01*
X1664Y1584D01*
X1666Y1584D01*
X1666Y1586D01*
X1668Y1586D01*
X1668Y1588D01*
X1670Y1588D01*
X1670Y1590D01*
X1672Y1590D01*
X1672Y1592D01*
X1676Y1592D01*
X1676Y1594D01*
X1680Y1594D01*
X1680Y1596D01*
X1684Y1596D01*
X1684Y1598D01*
X1690Y1598D01*
X1690Y1600D01*
X1606Y1600D01*
G37*
D02*
G36*
X1706Y1600D02*
X1706Y1598D01*
X1712Y1598D01*
X1712Y1596D01*
X1716Y1596D01*
X1716Y1594D01*
X1720Y1594D01*
X1720Y1592D01*
X1724Y1592D01*
X1724Y1590D01*
X1726Y1590D01*
X1726Y1588D01*
X1728Y1588D01*
X1728Y1586D01*
X1730Y1586D01*
X1730Y1584D01*
X1732Y1584D01*
X1732Y1582D01*
X1734Y1582D01*
X1734Y1580D01*
X1736Y1580D01*
X1736Y1578D01*
X1738Y1578D01*
X1738Y1574D01*
X1758Y1574D01*
X1758Y1576D01*
X1760Y1576D01*
X1760Y1580D01*
X1762Y1580D01*
X1762Y1582D01*
X1764Y1582D01*
X1764Y1584D01*
X1766Y1584D01*
X1766Y1586D01*
X1768Y1586D01*
X1768Y1588D01*
X1770Y1588D01*
X1770Y1590D01*
X1772Y1590D01*
X1772Y1592D01*
X1776Y1592D01*
X1776Y1594D01*
X1780Y1594D01*
X1780Y1596D01*
X1784Y1596D01*
X1784Y1598D01*
X1790Y1598D01*
X1790Y1600D01*
X1706Y1600D01*
G37*
D02*
G36*
X1806Y1600D02*
X1806Y1598D01*
X1812Y1598D01*
X1812Y1596D01*
X1816Y1596D01*
X1816Y1594D01*
X1820Y1594D01*
X1820Y1592D01*
X1824Y1592D01*
X1824Y1590D01*
X1826Y1590D01*
X1826Y1588D01*
X1828Y1588D01*
X1828Y1586D01*
X1830Y1586D01*
X1830Y1584D01*
X1832Y1584D01*
X1832Y1582D01*
X1834Y1582D01*
X1834Y1580D01*
X1836Y1580D01*
X1836Y1578D01*
X1838Y1578D01*
X1838Y1574D01*
X1858Y1574D01*
X1858Y1576D01*
X1860Y1576D01*
X1860Y1580D01*
X1862Y1580D01*
X1862Y1582D01*
X1864Y1582D01*
X1864Y1584D01*
X1866Y1584D01*
X1866Y1586D01*
X1868Y1586D01*
X1868Y1588D01*
X1870Y1588D01*
X1870Y1590D01*
X1872Y1590D01*
X1872Y1592D01*
X1876Y1592D01*
X1876Y1594D01*
X1880Y1594D01*
X1880Y1596D01*
X1884Y1596D01*
X1884Y1598D01*
X1890Y1598D01*
X1890Y1600D01*
X1806Y1600D01*
G37*
D02*
G36*
X1906Y1600D02*
X1906Y1598D01*
X1912Y1598D01*
X1912Y1596D01*
X1916Y1596D01*
X1916Y1594D01*
X1920Y1594D01*
X1920Y1592D01*
X1924Y1592D01*
X1924Y1590D01*
X1926Y1590D01*
X1926Y1588D01*
X1928Y1588D01*
X1928Y1586D01*
X1930Y1586D01*
X1930Y1584D01*
X1950Y1584D01*
X1950Y1600D01*
X1906Y1600D01*
G37*
D02*
G36*
X1838Y1530D02*
X1838Y1528D01*
X1836Y1528D01*
X1836Y1524D01*
X1834Y1524D01*
X1834Y1522D01*
X1832Y1522D01*
X1832Y1520D01*
X1830Y1520D01*
X1830Y1518D01*
X1828Y1518D01*
X1828Y1516D01*
X1826Y1516D01*
X1826Y1514D01*
X1822Y1514D01*
X1822Y1512D01*
X1820Y1512D01*
X1820Y1504D01*
X1894Y1504D01*
X1894Y1506D01*
X1886Y1506D01*
X1886Y1508D01*
X1880Y1508D01*
X1880Y1510D01*
X1876Y1510D01*
X1876Y1512D01*
X1874Y1512D01*
X1874Y1514D01*
X1870Y1514D01*
X1870Y1516D01*
X1868Y1516D01*
X1868Y1518D01*
X1866Y1518D01*
X1866Y1520D01*
X1864Y1520D01*
X1864Y1522D01*
X1862Y1522D01*
X1862Y1524D01*
X1860Y1524D01*
X1860Y1528D01*
X1858Y1528D01*
X1858Y1530D01*
X1838Y1530D01*
G37*
D02*
G36*
X1930Y1520D02*
X1930Y1518D01*
X1928Y1518D01*
X1928Y1516D01*
X1926Y1516D01*
X1926Y1514D01*
X1922Y1514D01*
X1922Y1512D01*
X1920Y1512D01*
X1920Y1510D01*
X1916Y1510D01*
X1916Y1508D01*
X1910Y1508D01*
X1910Y1506D01*
X1902Y1506D01*
X1902Y1504D01*
X1952Y1504D01*
X1952Y1506D01*
X1950Y1506D01*
X1950Y1520D01*
X1930Y1520D01*
G37*
D02*
G36*
X1820Y1504D02*
X1820Y1502D01*
X2276Y1502D01*
X2276Y1504D01*
X1820Y1504D01*
G37*
D02*
G36*
X1820Y1504D02*
X1820Y1502D01*
X2276Y1502D01*
X2276Y1504D01*
X1820Y1504D01*
G37*
D02*
G36*
X1820Y1504D02*
X1820Y1502D01*
X2276Y1502D01*
X2276Y1504D01*
X1820Y1504D01*
G37*
D02*
G36*
X1820Y1502D02*
X1820Y1074D01*
X2306Y1074D01*
X2306Y1072D01*
X2310Y1072D01*
X2310Y1070D01*
X2312Y1070D01*
X2312Y1068D01*
X2314Y1068D01*
X2314Y1066D01*
X2316Y1066D01*
X2316Y1064D01*
X2318Y1064D01*
X2318Y1060D01*
X2320Y1060D01*
X2320Y974D01*
X2358Y974D01*
X2358Y976D01*
X2360Y976D01*
X2360Y980D01*
X2362Y980D01*
X2362Y982D01*
X2364Y982D01*
X2364Y984D01*
X2366Y984D01*
X2366Y986D01*
X2368Y986D01*
X2368Y988D01*
X2370Y988D01*
X2370Y990D01*
X2374Y990D01*
X2374Y992D01*
X2376Y992D01*
X2376Y1012D01*
X2374Y1012D01*
X2374Y1014D01*
X2372Y1014D01*
X2372Y1016D01*
X2370Y1016D01*
X2370Y1018D01*
X2366Y1018D01*
X2366Y1020D01*
X2364Y1020D01*
X2364Y1024D01*
X2362Y1024D01*
X2362Y1026D01*
X2360Y1026D01*
X2360Y1028D01*
X2358Y1028D01*
X2358Y1032D01*
X2356Y1032D01*
X2356Y1036D01*
X2354Y1036D01*
X2354Y1040D01*
X2352Y1040D01*
X2352Y1064D01*
X2354Y1064D01*
X2354Y1070D01*
X2356Y1070D01*
X2356Y1074D01*
X2358Y1074D01*
X2358Y1076D01*
X2360Y1076D01*
X2360Y1080D01*
X2362Y1080D01*
X2362Y1082D01*
X2364Y1082D01*
X2364Y1084D01*
X2366Y1084D01*
X2366Y1086D01*
X2368Y1086D01*
X2368Y1088D01*
X2370Y1088D01*
X2370Y1090D01*
X2374Y1090D01*
X2374Y1092D01*
X2376Y1092D01*
X2376Y1112D01*
X2374Y1112D01*
X2374Y1114D01*
X2372Y1114D01*
X2372Y1116D01*
X2370Y1116D01*
X2370Y1118D01*
X2366Y1118D01*
X2366Y1120D01*
X2364Y1120D01*
X2364Y1124D01*
X2362Y1124D01*
X2362Y1126D01*
X2360Y1126D01*
X2360Y1128D01*
X2358Y1128D01*
X2358Y1130D01*
X2292Y1130D01*
X2292Y1132D01*
X2288Y1132D01*
X2288Y1134D01*
X2284Y1134D01*
X2284Y1136D01*
X2282Y1136D01*
X2282Y1138D01*
X2280Y1138D01*
X2280Y1142D01*
X2278Y1142D01*
X2278Y1146D01*
X2276Y1146D01*
X2276Y1502D01*
X1820Y1502D01*
G37*
D02*
G36*
X2438Y1432D02*
X2438Y1428D01*
X2436Y1428D01*
X2436Y1426D01*
X2434Y1426D01*
X2434Y1422D01*
X2432Y1422D01*
X2432Y1420D01*
X2430Y1420D01*
X2430Y1418D01*
X2428Y1418D01*
X2428Y1416D01*
X2424Y1416D01*
X2424Y1414D01*
X2422Y1414D01*
X2422Y1412D01*
X2420Y1412D01*
X2420Y1392D01*
X2422Y1392D01*
X2422Y1390D01*
X2426Y1390D01*
X2426Y1388D01*
X2428Y1388D01*
X2428Y1386D01*
X2430Y1386D01*
X2430Y1384D01*
X2432Y1384D01*
X2432Y1382D01*
X2434Y1382D01*
X2434Y1380D01*
X2436Y1380D01*
X2436Y1376D01*
X2438Y1376D01*
X2438Y1374D01*
X2458Y1374D01*
X2458Y1376D01*
X2460Y1376D01*
X2460Y1380D01*
X2462Y1380D01*
X2462Y1382D01*
X2464Y1382D01*
X2464Y1384D01*
X2466Y1384D01*
X2466Y1386D01*
X2468Y1386D01*
X2468Y1388D01*
X2470Y1388D01*
X2470Y1390D01*
X2474Y1390D01*
X2474Y1392D01*
X2476Y1392D01*
X2476Y1412D01*
X2474Y1412D01*
X2474Y1414D01*
X2472Y1414D01*
X2472Y1416D01*
X2470Y1416D01*
X2470Y1418D01*
X2466Y1418D01*
X2466Y1420D01*
X2464Y1420D01*
X2464Y1424D01*
X2462Y1424D01*
X2462Y1426D01*
X2460Y1426D01*
X2460Y1428D01*
X2458Y1428D01*
X2458Y1432D01*
X2438Y1432D01*
G37*
D02*
G36*
X2438Y1332D02*
X2438Y1328D01*
X2436Y1328D01*
X2436Y1326D01*
X2434Y1326D01*
X2434Y1322D01*
X2432Y1322D01*
X2432Y1320D01*
X2430Y1320D01*
X2430Y1318D01*
X2428Y1318D01*
X2428Y1316D01*
X2424Y1316D01*
X2424Y1314D01*
X2422Y1314D01*
X2422Y1312D01*
X2420Y1312D01*
X2420Y1292D01*
X2422Y1292D01*
X2422Y1290D01*
X2426Y1290D01*
X2426Y1288D01*
X2428Y1288D01*
X2428Y1286D01*
X2430Y1286D01*
X2430Y1284D01*
X2432Y1284D01*
X2432Y1282D01*
X2434Y1282D01*
X2434Y1280D01*
X2436Y1280D01*
X2436Y1276D01*
X2438Y1276D01*
X2438Y1274D01*
X2458Y1274D01*
X2458Y1276D01*
X2460Y1276D01*
X2460Y1280D01*
X2462Y1280D01*
X2462Y1282D01*
X2464Y1282D01*
X2464Y1284D01*
X2466Y1284D01*
X2466Y1286D01*
X2468Y1286D01*
X2468Y1288D01*
X2470Y1288D01*
X2470Y1290D01*
X2474Y1290D01*
X2474Y1292D01*
X2476Y1292D01*
X2476Y1312D01*
X2474Y1312D01*
X2474Y1314D01*
X2472Y1314D01*
X2472Y1316D01*
X2470Y1316D01*
X2470Y1318D01*
X2466Y1318D01*
X2466Y1320D01*
X2464Y1320D01*
X2464Y1324D01*
X2462Y1324D01*
X2462Y1326D01*
X2460Y1326D01*
X2460Y1328D01*
X2458Y1328D01*
X2458Y1332D01*
X2438Y1332D01*
G37*
D02*
G36*
X2438Y1232D02*
X2438Y1228D01*
X2436Y1228D01*
X2436Y1226D01*
X2434Y1226D01*
X2434Y1222D01*
X2432Y1222D01*
X2432Y1220D01*
X2430Y1220D01*
X2430Y1218D01*
X2428Y1218D01*
X2428Y1216D01*
X2424Y1216D01*
X2424Y1214D01*
X2422Y1214D01*
X2422Y1212D01*
X2420Y1212D01*
X2420Y1192D01*
X2422Y1192D01*
X2422Y1190D01*
X2426Y1190D01*
X2426Y1188D01*
X2428Y1188D01*
X2428Y1186D01*
X2430Y1186D01*
X2430Y1184D01*
X2432Y1184D01*
X2432Y1182D01*
X2434Y1182D01*
X2434Y1180D01*
X2436Y1180D01*
X2436Y1176D01*
X2438Y1176D01*
X2438Y1174D01*
X2458Y1174D01*
X2458Y1176D01*
X2460Y1176D01*
X2460Y1180D01*
X2462Y1180D01*
X2462Y1182D01*
X2464Y1182D01*
X2464Y1184D01*
X2466Y1184D01*
X2466Y1186D01*
X2468Y1186D01*
X2468Y1188D01*
X2470Y1188D01*
X2470Y1190D01*
X2474Y1190D01*
X2474Y1192D01*
X2476Y1192D01*
X2476Y1212D01*
X2474Y1212D01*
X2474Y1214D01*
X2472Y1214D01*
X2472Y1216D01*
X2470Y1216D01*
X2470Y1218D01*
X2466Y1218D01*
X2466Y1220D01*
X2464Y1220D01*
X2464Y1224D01*
X2462Y1224D01*
X2462Y1226D01*
X2460Y1226D01*
X2460Y1228D01*
X2458Y1228D01*
X2458Y1232D01*
X2438Y1232D01*
G37*
D02*
G36*
X2438Y1132D02*
X2438Y1128D01*
X2436Y1128D01*
X2436Y1126D01*
X2434Y1126D01*
X2434Y1122D01*
X2432Y1122D01*
X2432Y1120D01*
X2430Y1120D01*
X2430Y1118D01*
X2428Y1118D01*
X2428Y1116D01*
X2424Y1116D01*
X2424Y1114D01*
X2422Y1114D01*
X2422Y1112D01*
X2420Y1112D01*
X2420Y1092D01*
X2422Y1092D01*
X2422Y1090D01*
X2426Y1090D01*
X2426Y1088D01*
X2428Y1088D01*
X2428Y1086D01*
X2430Y1086D01*
X2430Y1084D01*
X2432Y1084D01*
X2432Y1082D01*
X2434Y1082D01*
X2434Y1080D01*
X2436Y1080D01*
X2436Y1076D01*
X2438Y1076D01*
X2438Y1074D01*
X2458Y1074D01*
X2458Y1076D01*
X2460Y1076D01*
X2460Y1080D01*
X2462Y1080D01*
X2462Y1082D01*
X2464Y1082D01*
X2464Y1084D01*
X2466Y1084D01*
X2466Y1086D01*
X2468Y1086D01*
X2468Y1088D01*
X2470Y1088D01*
X2470Y1090D01*
X2474Y1090D01*
X2474Y1092D01*
X2476Y1092D01*
X2476Y1112D01*
X2474Y1112D01*
X2474Y1114D01*
X2472Y1114D01*
X2472Y1116D01*
X2470Y1116D01*
X2470Y1118D01*
X2466Y1118D01*
X2466Y1120D01*
X2464Y1120D01*
X2464Y1124D01*
X2462Y1124D01*
X2462Y1126D01*
X2460Y1126D01*
X2460Y1128D01*
X2458Y1128D01*
X2458Y1132D01*
X2438Y1132D01*
G37*
D02*
G36*
X2438Y1032D02*
X2438Y1028D01*
X2436Y1028D01*
X2436Y1026D01*
X2434Y1026D01*
X2434Y1022D01*
X2432Y1022D01*
X2432Y1020D01*
X2430Y1020D01*
X2430Y1018D01*
X2428Y1018D01*
X2428Y1016D01*
X2424Y1016D01*
X2424Y1014D01*
X2422Y1014D01*
X2422Y1012D01*
X2420Y1012D01*
X2420Y992D01*
X2422Y992D01*
X2422Y990D01*
X2426Y990D01*
X2426Y988D01*
X2428Y988D01*
X2428Y986D01*
X2430Y986D01*
X2430Y984D01*
X2432Y984D01*
X2432Y982D01*
X2434Y982D01*
X2434Y980D01*
X2436Y980D01*
X2436Y976D01*
X2438Y976D01*
X2438Y974D01*
X2458Y974D01*
X2458Y976D01*
X2460Y976D01*
X2460Y980D01*
X2462Y980D01*
X2462Y982D01*
X2464Y982D01*
X2464Y984D01*
X2466Y984D01*
X2466Y986D01*
X2468Y986D01*
X2468Y988D01*
X2470Y988D01*
X2470Y990D01*
X2474Y990D01*
X2474Y992D01*
X2476Y992D01*
X2476Y1012D01*
X2474Y1012D01*
X2474Y1014D01*
X2472Y1014D01*
X2472Y1016D01*
X2470Y1016D01*
X2470Y1018D01*
X2466Y1018D01*
X2466Y1020D01*
X2464Y1020D01*
X2464Y1024D01*
X2462Y1024D01*
X2462Y1026D01*
X2460Y1026D01*
X2460Y1028D01*
X2458Y1028D01*
X2458Y1032D01*
X2438Y1032D01*
G37*
D02*
G36*
X2438Y932D02*
X2438Y928D01*
X2436Y928D01*
X2436Y926D01*
X2434Y926D01*
X2434Y922D01*
X2432Y922D01*
X2432Y920D01*
X2430Y920D01*
X2430Y918D01*
X2428Y918D01*
X2428Y916D01*
X2424Y916D01*
X2424Y914D01*
X2422Y914D01*
X2422Y912D01*
X2420Y912D01*
X2420Y892D01*
X2422Y892D01*
X2422Y890D01*
X2426Y890D01*
X2426Y888D01*
X2428Y888D01*
X2428Y886D01*
X2430Y886D01*
X2430Y884D01*
X2432Y884D01*
X2432Y882D01*
X2434Y882D01*
X2434Y880D01*
X2436Y880D01*
X2436Y876D01*
X2438Y876D01*
X2438Y874D01*
X2458Y874D01*
X2458Y876D01*
X2460Y876D01*
X2460Y880D01*
X2462Y880D01*
X2462Y882D01*
X2464Y882D01*
X2464Y884D01*
X2466Y884D01*
X2466Y886D01*
X2468Y886D01*
X2468Y888D01*
X2470Y888D01*
X2470Y890D01*
X2474Y890D01*
X2474Y892D01*
X2476Y892D01*
X2476Y912D01*
X2474Y912D01*
X2474Y914D01*
X2472Y914D01*
X2472Y916D01*
X2470Y916D01*
X2470Y918D01*
X2466Y918D01*
X2466Y920D01*
X2464Y920D01*
X2464Y924D01*
X2462Y924D01*
X2462Y926D01*
X2460Y926D01*
X2460Y928D01*
X2458Y928D01*
X2458Y932D01*
X2438Y932D01*
G37*
D02*
G36*
X138Y1530D02*
X138Y1528D01*
X136Y1528D01*
X136Y1524D01*
X134Y1524D01*
X134Y1522D01*
X132Y1522D01*
X132Y1520D01*
X130Y1520D01*
X130Y1518D01*
X128Y1518D01*
X128Y1516D01*
X126Y1516D01*
X126Y1514D01*
X122Y1514D01*
X122Y1512D01*
X120Y1512D01*
X120Y1510D01*
X116Y1510D01*
X116Y1508D01*
X110Y1508D01*
X110Y1506D01*
X102Y1506D01*
X102Y1504D01*
X194Y1504D01*
X194Y1506D01*
X186Y1506D01*
X186Y1508D01*
X180Y1508D01*
X180Y1510D01*
X176Y1510D01*
X176Y1512D01*
X174Y1512D01*
X174Y1514D01*
X170Y1514D01*
X170Y1516D01*
X168Y1516D01*
X168Y1518D01*
X166Y1518D01*
X166Y1520D01*
X164Y1520D01*
X164Y1522D01*
X162Y1522D01*
X162Y1524D01*
X160Y1524D01*
X160Y1528D01*
X158Y1528D01*
X158Y1530D01*
X138Y1530D01*
G37*
D02*
G36*
X238Y1530D02*
X238Y1528D01*
X236Y1528D01*
X236Y1524D01*
X234Y1524D01*
X234Y1522D01*
X232Y1522D01*
X232Y1520D01*
X230Y1520D01*
X230Y1518D01*
X228Y1518D01*
X228Y1516D01*
X226Y1516D01*
X226Y1514D01*
X222Y1514D01*
X222Y1512D01*
X220Y1512D01*
X220Y1510D01*
X216Y1510D01*
X216Y1508D01*
X210Y1508D01*
X210Y1506D01*
X202Y1506D01*
X202Y1504D01*
X294Y1504D01*
X294Y1506D01*
X286Y1506D01*
X286Y1508D01*
X280Y1508D01*
X280Y1510D01*
X276Y1510D01*
X276Y1512D01*
X274Y1512D01*
X274Y1514D01*
X270Y1514D01*
X270Y1516D01*
X268Y1516D01*
X268Y1518D01*
X266Y1518D01*
X266Y1520D01*
X264Y1520D01*
X264Y1522D01*
X262Y1522D01*
X262Y1524D01*
X260Y1524D01*
X260Y1528D01*
X258Y1528D01*
X258Y1530D01*
X238Y1530D01*
G37*
D02*
G36*
X338Y1530D02*
X338Y1528D01*
X336Y1528D01*
X336Y1524D01*
X334Y1524D01*
X334Y1522D01*
X332Y1522D01*
X332Y1520D01*
X330Y1520D01*
X330Y1518D01*
X328Y1518D01*
X328Y1516D01*
X326Y1516D01*
X326Y1514D01*
X322Y1514D01*
X322Y1512D01*
X320Y1512D01*
X320Y1510D01*
X316Y1510D01*
X316Y1508D01*
X310Y1508D01*
X310Y1506D01*
X302Y1506D01*
X302Y1504D01*
X394Y1504D01*
X394Y1506D01*
X386Y1506D01*
X386Y1508D01*
X380Y1508D01*
X380Y1510D01*
X376Y1510D01*
X376Y1512D01*
X374Y1512D01*
X374Y1514D01*
X370Y1514D01*
X370Y1516D01*
X368Y1516D01*
X368Y1518D01*
X366Y1518D01*
X366Y1520D01*
X364Y1520D01*
X364Y1522D01*
X362Y1522D01*
X362Y1524D01*
X360Y1524D01*
X360Y1528D01*
X358Y1528D01*
X358Y1530D01*
X338Y1530D01*
G37*
D02*
G36*
X438Y1530D02*
X438Y1528D01*
X436Y1528D01*
X436Y1524D01*
X434Y1524D01*
X434Y1522D01*
X432Y1522D01*
X432Y1520D01*
X430Y1520D01*
X430Y1518D01*
X428Y1518D01*
X428Y1516D01*
X426Y1516D01*
X426Y1514D01*
X422Y1514D01*
X422Y1512D01*
X420Y1512D01*
X420Y1510D01*
X416Y1510D01*
X416Y1508D01*
X410Y1508D01*
X410Y1506D01*
X402Y1506D01*
X402Y1504D01*
X494Y1504D01*
X494Y1506D01*
X486Y1506D01*
X486Y1508D01*
X480Y1508D01*
X480Y1510D01*
X476Y1510D01*
X476Y1512D01*
X474Y1512D01*
X474Y1514D01*
X470Y1514D01*
X470Y1516D01*
X468Y1516D01*
X468Y1518D01*
X466Y1518D01*
X466Y1520D01*
X464Y1520D01*
X464Y1522D01*
X462Y1522D01*
X462Y1524D01*
X460Y1524D01*
X460Y1528D01*
X458Y1528D01*
X458Y1530D01*
X438Y1530D01*
G37*
D02*
G36*
X538Y1530D02*
X538Y1528D01*
X536Y1528D01*
X536Y1524D01*
X534Y1524D01*
X534Y1522D01*
X532Y1522D01*
X532Y1520D01*
X530Y1520D01*
X530Y1518D01*
X528Y1518D01*
X528Y1516D01*
X526Y1516D01*
X526Y1514D01*
X522Y1514D01*
X522Y1512D01*
X520Y1512D01*
X520Y1510D01*
X516Y1510D01*
X516Y1508D01*
X510Y1508D01*
X510Y1506D01*
X502Y1506D01*
X502Y1504D01*
X594Y1504D01*
X594Y1506D01*
X586Y1506D01*
X586Y1508D01*
X580Y1508D01*
X580Y1510D01*
X576Y1510D01*
X576Y1512D01*
X574Y1512D01*
X574Y1514D01*
X570Y1514D01*
X570Y1516D01*
X568Y1516D01*
X568Y1518D01*
X566Y1518D01*
X566Y1520D01*
X564Y1520D01*
X564Y1522D01*
X562Y1522D01*
X562Y1524D01*
X560Y1524D01*
X560Y1528D01*
X558Y1528D01*
X558Y1530D01*
X538Y1530D01*
G37*
D02*
G36*
X638Y1530D02*
X638Y1528D01*
X636Y1528D01*
X636Y1524D01*
X634Y1524D01*
X634Y1522D01*
X632Y1522D01*
X632Y1520D01*
X630Y1520D01*
X630Y1518D01*
X628Y1518D01*
X628Y1516D01*
X626Y1516D01*
X626Y1514D01*
X622Y1514D01*
X622Y1512D01*
X620Y1512D01*
X620Y1510D01*
X616Y1510D01*
X616Y1508D01*
X610Y1508D01*
X610Y1506D01*
X602Y1506D01*
X602Y1504D01*
X694Y1504D01*
X694Y1506D01*
X686Y1506D01*
X686Y1508D01*
X680Y1508D01*
X680Y1510D01*
X676Y1510D01*
X676Y1512D01*
X674Y1512D01*
X674Y1514D01*
X670Y1514D01*
X670Y1516D01*
X668Y1516D01*
X668Y1518D01*
X666Y1518D01*
X666Y1520D01*
X664Y1520D01*
X664Y1522D01*
X662Y1522D01*
X662Y1524D01*
X660Y1524D01*
X660Y1528D01*
X658Y1528D01*
X658Y1530D01*
X638Y1530D01*
G37*
D02*
G36*
X738Y1530D02*
X738Y1528D01*
X736Y1528D01*
X736Y1524D01*
X734Y1524D01*
X734Y1522D01*
X732Y1522D01*
X732Y1520D01*
X730Y1520D01*
X730Y1518D01*
X728Y1518D01*
X728Y1516D01*
X726Y1516D01*
X726Y1514D01*
X722Y1514D01*
X722Y1512D01*
X720Y1512D01*
X720Y1510D01*
X716Y1510D01*
X716Y1508D01*
X710Y1508D01*
X710Y1506D01*
X702Y1506D01*
X702Y1504D01*
X794Y1504D01*
X794Y1506D01*
X786Y1506D01*
X786Y1508D01*
X780Y1508D01*
X780Y1510D01*
X776Y1510D01*
X776Y1512D01*
X774Y1512D01*
X774Y1514D01*
X770Y1514D01*
X770Y1516D01*
X768Y1516D01*
X768Y1518D01*
X766Y1518D01*
X766Y1520D01*
X764Y1520D01*
X764Y1522D01*
X762Y1522D01*
X762Y1524D01*
X760Y1524D01*
X760Y1528D01*
X758Y1528D01*
X758Y1530D01*
X738Y1530D01*
G37*
D02*
G36*
X838Y1530D02*
X838Y1528D01*
X836Y1528D01*
X836Y1524D01*
X834Y1524D01*
X834Y1522D01*
X832Y1522D01*
X832Y1520D01*
X830Y1520D01*
X830Y1518D01*
X828Y1518D01*
X828Y1516D01*
X826Y1516D01*
X826Y1514D01*
X822Y1514D01*
X822Y1512D01*
X820Y1512D01*
X820Y1510D01*
X816Y1510D01*
X816Y1508D01*
X810Y1508D01*
X810Y1506D01*
X802Y1506D01*
X802Y1504D01*
X894Y1504D01*
X894Y1506D01*
X886Y1506D01*
X886Y1508D01*
X880Y1508D01*
X880Y1510D01*
X876Y1510D01*
X876Y1512D01*
X874Y1512D01*
X874Y1514D01*
X870Y1514D01*
X870Y1516D01*
X868Y1516D01*
X868Y1518D01*
X866Y1518D01*
X866Y1520D01*
X864Y1520D01*
X864Y1522D01*
X862Y1522D01*
X862Y1524D01*
X860Y1524D01*
X860Y1528D01*
X858Y1528D01*
X858Y1530D01*
X838Y1530D01*
G37*
D02*
G36*
X938Y1530D02*
X938Y1528D01*
X936Y1528D01*
X936Y1524D01*
X934Y1524D01*
X934Y1522D01*
X932Y1522D01*
X932Y1520D01*
X930Y1520D01*
X930Y1518D01*
X928Y1518D01*
X928Y1516D01*
X926Y1516D01*
X926Y1514D01*
X922Y1514D01*
X922Y1512D01*
X920Y1512D01*
X920Y1510D01*
X916Y1510D01*
X916Y1508D01*
X910Y1508D01*
X910Y1506D01*
X902Y1506D01*
X902Y1504D01*
X994Y1504D01*
X994Y1506D01*
X986Y1506D01*
X986Y1508D01*
X980Y1508D01*
X980Y1510D01*
X976Y1510D01*
X976Y1512D01*
X974Y1512D01*
X974Y1514D01*
X970Y1514D01*
X970Y1516D01*
X968Y1516D01*
X968Y1518D01*
X966Y1518D01*
X966Y1520D01*
X964Y1520D01*
X964Y1522D01*
X962Y1522D01*
X962Y1524D01*
X960Y1524D01*
X960Y1528D01*
X958Y1528D01*
X958Y1530D01*
X938Y1530D01*
G37*
D02*
G36*
X1038Y1530D02*
X1038Y1528D01*
X1036Y1528D01*
X1036Y1524D01*
X1034Y1524D01*
X1034Y1522D01*
X1032Y1522D01*
X1032Y1520D01*
X1030Y1520D01*
X1030Y1518D01*
X1028Y1518D01*
X1028Y1516D01*
X1026Y1516D01*
X1026Y1514D01*
X1022Y1514D01*
X1022Y1512D01*
X1020Y1512D01*
X1020Y1510D01*
X1016Y1510D01*
X1016Y1508D01*
X1010Y1508D01*
X1010Y1506D01*
X1002Y1506D01*
X1002Y1504D01*
X1094Y1504D01*
X1094Y1506D01*
X1086Y1506D01*
X1086Y1508D01*
X1080Y1508D01*
X1080Y1510D01*
X1076Y1510D01*
X1076Y1512D01*
X1074Y1512D01*
X1074Y1514D01*
X1070Y1514D01*
X1070Y1516D01*
X1068Y1516D01*
X1068Y1518D01*
X1066Y1518D01*
X1066Y1520D01*
X1064Y1520D01*
X1064Y1522D01*
X1062Y1522D01*
X1062Y1524D01*
X1060Y1524D01*
X1060Y1528D01*
X1058Y1528D01*
X1058Y1530D01*
X1038Y1530D01*
G37*
D02*
G36*
X1138Y1530D02*
X1138Y1528D01*
X1136Y1528D01*
X1136Y1524D01*
X1134Y1524D01*
X1134Y1522D01*
X1132Y1522D01*
X1132Y1520D01*
X1130Y1520D01*
X1130Y1518D01*
X1128Y1518D01*
X1128Y1516D01*
X1126Y1516D01*
X1126Y1514D01*
X1122Y1514D01*
X1122Y1512D01*
X1120Y1512D01*
X1120Y1510D01*
X1116Y1510D01*
X1116Y1508D01*
X1110Y1508D01*
X1110Y1506D01*
X1102Y1506D01*
X1102Y1504D01*
X1194Y1504D01*
X1194Y1506D01*
X1186Y1506D01*
X1186Y1508D01*
X1180Y1508D01*
X1180Y1510D01*
X1176Y1510D01*
X1176Y1512D01*
X1174Y1512D01*
X1174Y1514D01*
X1170Y1514D01*
X1170Y1516D01*
X1168Y1516D01*
X1168Y1518D01*
X1166Y1518D01*
X1166Y1520D01*
X1164Y1520D01*
X1164Y1522D01*
X1162Y1522D01*
X1162Y1524D01*
X1160Y1524D01*
X1160Y1528D01*
X1158Y1528D01*
X1158Y1530D01*
X1138Y1530D01*
G37*
D02*
G36*
X1238Y1530D02*
X1238Y1528D01*
X1236Y1528D01*
X1236Y1524D01*
X1234Y1524D01*
X1234Y1522D01*
X1232Y1522D01*
X1232Y1520D01*
X1230Y1520D01*
X1230Y1518D01*
X1228Y1518D01*
X1228Y1516D01*
X1226Y1516D01*
X1226Y1514D01*
X1222Y1514D01*
X1222Y1512D01*
X1220Y1512D01*
X1220Y1510D01*
X1216Y1510D01*
X1216Y1508D01*
X1210Y1508D01*
X1210Y1506D01*
X1202Y1506D01*
X1202Y1504D01*
X1294Y1504D01*
X1294Y1506D01*
X1286Y1506D01*
X1286Y1508D01*
X1280Y1508D01*
X1280Y1510D01*
X1276Y1510D01*
X1276Y1512D01*
X1274Y1512D01*
X1274Y1514D01*
X1270Y1514D01*
X1270Y1516D01*
X1268Y1516D01*
X1268Y1518D01*
X1266Y1518D01*
X1266Y1520D01*
X1264Y1520D01*
X1264Y1522D01*
X1262Y1522D01*
X1262Y1524D01*
X1260Y1524D01*
X1260Y1528D01*
X1258Y1528D01*
X1258Y1530D01*
X1238Y1530D01*
G37*
D02*
G36*
X1338Y1530D02*
X1338Y1528D01*
X1336Y1528D01*
X1336Y1524D01*
X1334Y1524D01*
X1334Y1522D01*
X1332Y1522D01*
X1332Y1520D01*
X1330Y1520D01*
X1330Y1518D01*
X1328Y1518D01*
X1328Y1516D01*
X1326Y1516D01*
X1326Y1514D01*
X1322Y1514D01*
X1322Y1512D01*
X1320Y1512D01*
X1320Y1510D01*
X1316Y1510D01*
X1316Y1508D01*
X1310Y1508D01*
X1310Y1506D01*
X1302Y1506D01*
X1302Y1504D01*
X1394Y1504D01*
X1394Y1506D01*
X1386Y1506D01*
X1386Y1508D01*
X1380Y1508D01*
X1380Y1510D01*
X1376Y1510D01*
X1376Y1512D01*
X1374Y1512D01*
X1374Y1514D01*
X1370Y1514D01*
X1370Y1516D01*
X1368Y1516D01*
X1368Y1518D01*
X1366Y1518D01*
X1366Y1520D01*
X1364Y1520D01*
X1364Y1522D01*
X1362Y1522D01*
X1362Y1524D01*
X1360Y1524D01*
X1360Y1528D01*
X1358Y1528D01*
X1358Y1530D01*
X1338Y1530D01*
G37*
D02*
G36*
X1438Y1530D02*
X1438Y1528D01*
X1436Y1528D01*
X1436Y1524D01*
X1434Y1524D01*
X1434Y1522D01*
X1432Y1522D01*
X1432Y1520D01*
X1430Y1520D01*
X1430Y1518D01*
X1428Y1518D01*
X1428Y1516D01*
X1426Y1516D01*
X1426Y1514D01*
X1422Y1514D01*
X1422Y1512D01*
X1420Y1512D01*
X1420Y1510D01*
X1416Y1510D01*
X1416Y1508D01*
X1410Y1508D01*
X1410Y1506D01*
X1402Y1506D01*
X1402Y1504D01*
X1494Y1504D01*
X1494Y1506D01*
X1486Y1506D01*
X1486Y1508D01*
X1480Y1508D01*
X1480Y1510D01*
X1476Y1510D01*
X1476Y1512D01*
X1474Y1512D01*
X1474Y1514D01*
X1470Y1514D01*
X1470Y1516D01*
X1468Y1516D01*
X1468Y1518D01*
X1466Y1518D01*
X1466Y1520D01*
X1464Y1520D01*
X1464Y1522D01*
X1462Y1522D01*
X1462Y1524D01*
X1460Y1524D01*
X1460Y1528D01*
X1458Y1528D01*
X1458Y1530D01*
X1438Y1530D01*
G37*
D02*
G36*
X1538Y1530D02*
X1538Y1528D01*
X1536Y1528D01*
X1536Y1524D01*
X1534Y1524D01*
X1534Y1522D01*
X1532Y1522D01*
X1532Y1520D01*
X1530Y1520D01*
X1530Y1518D01*
X1528Y1518D01*
X1528Y1516D01*
X1526Y1516D01*
X1526Y1514D01*
X1522Y1514D01*
X1522Y1512D01*
X1520Y1512D01*
X1520Y1510D01*
X1516Y1510D01*
X1516Y1508D01*
X1510Y1508D01*
X1510Y1506D01*
X1502Y1506D01*
X1502Y1504D01*
X1594Y1504D01*
X1594Y1506D01*
X1586Y1506D01*
X1586Y1508D01*
X1580Y1508D01*
X1580Y1510D01*
X1576Y1510D01*
X1576Y1512D01*
X1574Y1512D01*
X1574Y1514D01*
X1570Y1514D01*
X1570Y1516D01*
X1568Y1516D01*
X1568Y1518D01*
X1566Y1518D01*
X1566Y1520D01*
X1564Y1520D01*
X1564Y1522D01*
X1562Y1522D01*
X1562Y1524D01*
X1560Y1524D01*
X1560Y1528D01*
X1558Y1528D01*
X1558Y1530D01*
X1538Y1530D01*
G37*
D02*
G36*
X1638Y1530D02*
X1638Y1528D01*
X1636Y1528D01*
X1636Y1524D01*
X1634Y1524D01*
X1634Y1522D01*
X1632Y1522D01*
X1632Y1520D01*
X1630Y1520D01*
X1630Y1518D01*
X1628Y1518D01*
X1628Y1516D01*
X1626Y1516D01*
X1626Y1514D01*
X1622Y1514D01*
X1622Y1512D01*
X1620Y1512D01*
X1620Y1510D01*
X1616Y1510D01*
X1616Y1508D01*
X1610Y1508D01*
X1610Y1506D01*
X1602Y1506D01*
X1602Y1504D01*
X1694Y1504D01*
X1694Y1506D01*
X1686Y1506D01*
X1686Y1508D01*
X1680Y1508D01*
X1680Y1510D01*
X1676Y1510D01*
X1676Y1512D01*
X1674Y1512D01*
X1674Y1514D01*
X1670Y1514D01*
X1670Y1516D01*
X1668Y1516D01*
X1668Y1518D01*
X1666Y1518D01*
X1666Y1520D01*
X1664Y1520D01*
X1664Y1522D01*
X1662Y1522D01*
X1662Y1524D01*
X1660Y1524D01*
X1660Y1528D01*
X1658Y1528D01*
X1658Y1530D01*
X1638Y1530D01*
G37*
D02*
G36*
X1738Y1530D02*
X1738Y1528D01*
X1736Y1528D01*
X1736Y1524D01*
X1734Y1524D01*
X1734Y1522D01*
X1732Y1522D01*
X1732Y1520D01*
X1730Y1520D01*
X1730Y1518D01*
X1728Y1518D01*
X1728Y1516D01*
X1726Y1516D01*
X1726Y1514D01*
X1722Y1514D01*
X1722Y1512D01*
X1720Y1512D01*
X1720Y1510D01*
X1716Y1510D01*
X1716Y1508D01*
X1710Y1508D01*
X1710Y1506D01*
X1702Y1506D01*
X1702Y1504D01*
X1776Y1504D01*
X1776Y1512D01*
X1774Y1512D01*
X1774Y1514D01*
X1770Y1514D01*
X1770Y1516D01*
X1768Y1516D01*
X1768Y1518D01*
X1766Y1518D01*
X1766Y1520D01*
X1764Y1520D01*
X1764Y1522D01*
X1762Y1522D01*
X1762Y1524D01*
X1760Y1524D01*
X1760Y1528D01*
X1758Y1528D01*
X1758Y1530D01*
X1738Y1530D01*
G37*
D02*
G36*
X40Y1528D02*
X40Y1504D01*
X94Y1504D01*
X94Y1506D01*
X86Y1506D01*
X86Y1508D01*
X80Y1508D01*
X80Y1510D01*
X76Y1510D01*
X76Y1512D01*
X74Y1512D01*
X74Y1514D01*
X70Y1514D01*
X70Y1516D01*
X68Y1516D01*
X68Y1518D01*
X66Y1518D01*
X66Y1520D01*
X64Y1520D01*
X64Y1522D01*
X62Y1522D01*
X62Y1524D01*
X60Y1524D01*
X60Y1528D01*
X40Y1528D01*
G37*
D02*
G36*
X40Y1504D02*
X40Y1502D01*
X1776Y1502D01*
X1776Y1504D01*
X40Y1504D01*
G37*
D02*
G36*
X40Y1504D02*
X40Y1502D01*
X1776Y1502D01*
X1776Y1504D01*
X40Y1504D01*
G37*
D02*
G36*
X40Y1504D02*
X40Y1502D01*
X1776Y1502D01*
X1776Y1504D01*
X40Y1504D01*
G37*
D02*
G36*
X40Y1504D02*
X40Y1502D01*
X1776Y1502D01*
X1776Y1504D01*
X40Y1504D01*
G37*
D02*
G36*
X40Y1504D02*
X40Y1502D01*
X1776Y1502D01*
X1776Y1504D01*
X40Y1504D01*
G37*
D02*
G36*
X40Y1504D02*
X40Y1502D01*
X1776Y1502D01*
X1776Y1504D01*
X40Y1504D01*
G37*
D02*
G36*
X40Y1504D02*
X40Y1502D01*
X1776Y1502D01*
X1776Y1504D01*
X40Y1504D01*
G37*
D02*
G36*
X40Y1504D02*
X40Y1502D01*
X1776Y1502D01*
X1776Y1504D01*
X40Y1504D01*
G37*
D02*
G36*
X40Y1504D02*
X40Y1502D01*
X1776Y1502D01*
X1776Y1504D01*
X40Y1504D01*
G37*
D02*
G36*
X40Y1504D02*
X40Y1502D01*
X1776Y1502D01*
X1776Y1504D01*
X40Y1504D01*
G37*
D02*
G36*
X40Y1504D02*
X40Y1502D01*
X1776Y1502D01*
X1776Y1504D01*
X40Y1504D01*
G37*
D02*
G36*
X40Y1504D02*
X40Y1502D01*
X1776Y1502D01*
X1776Y1504D01*
X40Y1504D01*
G37*
D02*
G36*
X40Y1504D02*
X40Y1502D01*
X1776Y1502D01*
X1776Y1504D01*
X40Y1504D01*
G37*
D02*
G36*
X40Y1504D02*
X40Y1502D01*
X1776Y1502D01*
X1776Y1504D01*
X40Y1504D01*
G37*
D02*
G36*
X40Y1504D02*
X40Y1502D01*
X1776Y1502D01*
X1776Y1504D01*
X40Y1504D01*
G37*
D02*
G36*
X40Y1504D02*
X40Y1502D01*
X1776Y1502D01*
X1776Y1504D01*
X40Y1504D01*
G37*
D02*
G36*
X40Y1504D02*
X40Y1502D01*
X1776Y1502D01*
X1776Y1504D01*
X40Y1504D01*
G37*
D02*
G36*
X40Y1504D02*
X40Y1502D01*
X1776Y1502D01*
X1776Y1504D01*
X40Y1504D01*
G37*
D02*
G36*
X40Y1502D02*
X40Y1000D01*
X2006Y1000D01*
X2006Y998D01*
X2012Y998D01*
X2012Y996D01*
X2016Y996D01*
X2016Y994D01*
X2020Y994D01*
X2020Y992D01*
X2024Y992D01*
X2024Y990D01*
X2026Y990D01*
X2026Y988D01*
X2028Y988D01*
X2028Y986D01*
X2030Y986D01*
X2030Y984D01*
X2032Y984D01*
X2032Y982D01*
X2034Y982D01*
X2034Y980D01*
X2036Y980D01*
X2036Y978D01*
X2038Y978D01*
X2038Y974D01*
X2040Y974D01*
X2040Y970D01*
X2042Y970D01*
X2042Y966D01*
X2044Y966D01*
X2044Y958D01*
X2046Y958D01*
X2046Y946D01*
X2044Y946D01*
X2044Y938D01*
X2042Y938D01*
X2042Y934D01*
X2040Y934D01*
X2040Y930D01*
X2038Y930D01*
X2038Y928D01*
X2036Y928D01*
X2036Y924D01*
X2034Y924D01*
X2034Y922D01*
X2032Y922D01*
X2032Y920D01*
X2030Y920D01*
X2030Y918D01*
X2028Y918D01*
X2028Y916D01*
X2026Y916D01*
X2026Y914D01*
X2022Y914D01*
X2022Y912D01*
X2020Y912D01*
X2020Y910D01*
X2016Y910D01*
X2016Y908D01*
X2010Y908D01*
X2010Y906D01*
X2002Y906D01*
X2002Y904D01*
X2376Y904D01*
X2376Y912D01*
X2374Y912D01*
X2374Y914D01*
X2372Y914D01*
X2372Y916D01*
X2370Y916D01*
X2370Y918D01*
X2366Y918D01*
X2366Y920D01*
X2364Y920D01*
X2364Y924D01*
X2362Y924D01*
X2362Y926D01*
X2360Y926D01*
X2360Y928D01*
X2358Y928D01*
X2358Y930D01*
X2292Y930D01*
X2292Y932D01*
X2288Y932D01*
X2288Y934D01*
X2284Y934D01*
X2284Y936D01*
X2282Y936D01*
X2282Y938D01*
X2280Y938D01*
X2280Y942D01*
X2278Y942D01*
X2278Y946D01*
X2276Y946D01*
X2276Y1030D01*
X1792Y1030D01*
X1792Y1032D01*
X1788Y1032D01*
X1788Y1034D01*
X1784Y1034D01*
X1784Y1036D01*
X1782Y1036D01*
X1782Y1038D01*
X1780Y1038D01*
X1780Y1042D01*
X1778Y1042D01*
X1778Y1046D01*
X1776Y1046D01*
X1776Y1502D01*
X40Y1502D01*
G37*
D02*
G36*
X40Y1000D02*
X40Y976D01*
X60Y976D01*
X60Y980D01*
X62Y980D01*
X62Y982D01*
X64Y982D01*
X64Y984D01*
X66Y984D01*
X66Y986D01*
X68Y986D01*
X68Y988D01*
X70Y988D01*
X70Y990D01*
X72Y990D01*
X72Y992D01*
X76Y992D01*
X76Y994D01*
X80Y994D01*
X80Y996D01*
X84Y996D01*
X84Y998D01*
X90Y998D01*
X90Y1000D01*
X40Y1000D01*
G37*
D02*
G36*
X106Y1000D02*
X106Y998D01*
X112Y998D01*
X112Y996D01*
X116Y996D01*
X116Y994D01*
X120Y994D01*
X120Y992D01*
X124Y992D01*
X124Y990D01*
X126Y990D01*
X126Y988D01*
X128Y988D01*
X128Y986D01*
X130Y986D01*
X130Y984D01*
X132Y984D01*
X132Y982D01*
X134Y982D01*
X134Y980D01*
X136Y980D01*
X136Y978D01*
X138Y978D01*
X138Y974D01*
X158Y974D01*
X158Y976D01*
X160Y976D01*
X160Y980D01*
X162Y980D01*
X162Y982D01*
X164Y982D01*
X164Y984D01*
X166Y984D01*
X166Y986D01*
X168Y986D01*
X168Y988D01*
X170Y988D01*
X170Y990D01*
X172Y990D01*
X172Y992D01*
X176Y992D01*
X176Y994D01*
X180Y994D01*
X180Y996D01*
X184Y996D01*
X184Y998D01*
X190Y998D01*
X190Y1000D01*
X106Y1000D01*
G37*
D02*
G36*
X206Y1000D02*
X206Y998D01*
X212Y998D01*
X212Y996D01*
X216Y996D01*
X216Y994D01*
X220Y994D01*
X220Y992D01*
X224Y992D01*
X224Y990D01*
X226Y990D01*
X226Y988D01*
X228Y988D01*
X228Y986D01*
X230Y986D01*
X230Y984D01*
X232Y984D01*
X232Y982D01*
X234Y982D01*
X234Y980D01*
X236Y980D01*
X236Y978D01*
X238Y978D01*
X238Y974D01*
X258Y974D01*
X258Y976D01*
X260Y976D01*
X260Y980D01*
X262Y980D01*
X262Y982D01*
X264Y982D01*
X264Y984D01*
X266Y984D01*
X266Y986D01*
X268Y986D01*
X268Y988D01*
X270Y988D01*
X270Y990D01*
X272Y990D01*
X272Y992D01*
X276Y992D01*
X276Y994D01*
X280Y994D01*
X280Y996D01*
X284Y996D01*
X284Y998D01*
X290Y998D01*
X290Y1000D01*
X206Y1000D01*
G37*
D02*
G36*
X306Y1000D02*
X306Y998D01*
X312Y998D01*
X312Y996D01*
X316Y996D01*
X316Y994D01*
X320Y994D01*
X320Y992D01*
X324Y992D01*
X324Y990D01*
X326Y990D01*
X326Y988D01*
X328Y988D01*
X328Y986D01*
X330Y986D01*
X330Y984D01*
X332Y984D01*
X332Y982D01*
X334Y982D01*
X334Y980D01*
X336Y980D01*
X336Y978D01*
X338Y978D01*
X338Y974D01*
X358Y974D01*
X358Y976D01*
X360Y976D01*
X360Y980D01*
X362Y980D01*
X362Y982D01*
X364Y982D01*
X364Y984D01*
X366Y984D01*
X366Y986D01*
X368Y986D01*
X368Y988D01*
X370Y988D01*
X370Y990D01*
X372Y990D01*
X372Y992D01*
X376Y992D01*
X376Y994D01*
X380Y994D01*
X380Y996D01*
X384Y996D01*
X384Y998D01*
X390Y998D01*
X390Y1000D01*
X306Y1000D01*
G37*
D02*
G36*
X406Y1000D02*
X406Y998D01*
X412Y998D01*
X412Y996D01*
X416Y996D01*
X416Y994D01*
X420Y994D01*
X420Y992D01*
X424Y992D01*
X424Y990D01*
X426Y990D01*
X426Y988D01*
X428Y988D01*
X428Y986D01*
X430Y986D01*
X430Y984D01*
X432Y984D01*
X432Y982D01*
X434Y982D01*
X434Y980D01*
X436Y980D01*
X436Y978D01*
X438Y978D01*
X438Y974D01*
X458Y974D01*
X458Y976D01*
X460Y976D01*
X460Y980D01*
X462Y980D01*
X462Y982D01*
X464Y982D01*
X464Y984D01*
X466Y984D01*
X466Y986D01*
X468Y986D01*
X468Y988D01*
X470Y988D01*
X470Y990D01*
X472Y990D01*
X472Y992D01*
X476Y992D01*
X476Y994D01*
X480Y994D01*
X480Y996D01*
X484Y996D01*
X484Y998D01*
X490Y998D01*
X490Y1000D01*
X406Y1000D01*
G37*
D02*
G36*
X506Y1000D02*
X506Y998D01*
X512Y998D01*
X512Y996D01*
X516Y996D01*
X516Y994D01*
X520Y994D01*
X520Y992D01*
X524Y992D01*
X524Y990D01*
X526Y990D01*
X526Y988D01*
X528Y988D01*
X528Y986D01*
X530Y986D01*
X530Y984D01*
X532Y984D01*
X532Y982D01*
X534Y982D01*
X534Y980D01*
X536Y980D01*
X536Y978D01*
X538Y978D01*
X538Y974D01*
X558Y974D01*
X558Y976D01*
X560Y976D01*
X560Y980D01*
X562Y980D01*
X562Y982D01*
X564Y982D01*
X564Y984D01*
X566Y984D01*
X566Y986D01*
X568Y986D01*
X568Y988D01*
X570Y988D01*
X570Y990D01*
X572Y990D01*
X572Y992D01*
X576Y992D01*
X576Y994D01*
X580Y994D01*
X580Y996D01*
X584Y996D01*
X584Y998D01*
X590Y998D01*
X590Y1000D01*
X506Y1000D01*
G37*
D02*
G36*
X606Y1000D02*
X606Y998D01*
X612Y998D01*
X612Y996D01*
X616Y996D01*
X616Y994D01*
X620Y994D01*
X620Y992D01*
X624Y992D01*
X624Y990D01*
X626Y990D01*
X626Y988D01*
X628Y988D01*
X628Y986D01*
X630Y986D01*
X630Y984D01*
X632Y984D01*
X632Y982D01*
X634Y982D01*
X634Y980D01*
X636Y980D01*
X636Y978D01*
X638Y978D01*
X638Y974D01*
X658Y974D01*
X658Y976D01*
X660Y976D01*
X660Y980D01*
X662Y980D01*
X662Y982D01*
X664Y982D01*
X664Y984D01*
X666Y984D01*
X666Y986D01*
X668Y986D01*
X668Y988D01*
X670Y988D01*
X670Y990D01*
X672Y990D01*
X672Y992D01*
X676Y992D01*
X676Y994D01*
X680Y994D01*
X680Y996D01*
X684Y996D01*
X684Y998D01*
X690Y998D01*
X690Y1000D01*
X606Y1000D01*
G37*
D02*
G36*
X706Y1000D02*
X706Y998D01*
X712Y998D01*
X712Y996D01*
X716Y996D01*
X716Y994D01*
X720Y994D01*
X720Y992D01*
X724Y992D01*
X724Y990D01*
X726Y990D01*
X726Y988D01*
X728Y988D01*
X728Y986D01*
X730Y986D01*
X730Y984D01*
X732Y984D01*
X732Y982D01*
X734Y982D01*
X734Y980D01*
X736Y980D01*
X736Y978D01*
X738Y978D01*
X738Y974D01*
X758Y974D01*
X758Y976D01*
X760Y976D01*
X760Y980D01*
X762Y980D01*
X762Y982D01*
X764Y982D01*
X764Y984D01*
X766Y984D01*
X766Y986D01*
X768Y986D01*
X768Y988D01*
X770Y988D01*
X770Y990D01*
X772Y990D01*
X772Y992D01*
X776Y992D01*
X776Y994D01*
X780Y994D01*
X780Y996D01*
X784Y996D01*
X784Y998D01*
X790Y998D01*
X790Y1000D01*
X706Y1000D01*
G37*
D02*
G36*
X806Y1000D02*
X806Y998D01*
X812Y998D01*
X812Y996D01*
X816Y996D01*
X816Y994D01*
X820Y994D01*
X820Y992D01*
X824Y992D01*
X824Y990D01*
X826Y990D01*
X826Y988D01*
X828Y988D01*
X828Y986D01*
X830Y986D01*
X830Y984D01*
X832Y984D01*
X832Y982D01*
X834Y982D01*
X834Y980D01*
X836Y980D01*
X836Y978D01*
X838Y978D01*
X838Y974D01*
X858Y974D01*
X858Y976D01*
X860Y976D01*
X860Y980D01*
X862Y980D01*
X862Y982D01*
X864Y982D01*
X864Y984D01*
X866Y984D01*
X866Y986D01*
X868Y986D01*
X868Y988D01*
X870Y988D01*
X870Y990D01*
X872Y990D01*
X872Y992D01*
X876Y992D01*
X876Y994D01*
X880Y994D01*
X880Y996D01*
X884Y996D01*
X884Y998D01*
X890Y998D01*
X890Y1000D01*
X806Y1000D01*
G37*
D02*
G36*
X906Y1000D02*
X906Y998D01*
X912Y998D01*
X912Y996D01*
X916Y996D01*
X916Y994D01*
X920Y994D01*
X920Y992D01*
X924Y992D01*
X924Y990D01*
X926Y990D01*
X926Y988D01*
X928Y988D01*
X928Y986D01*
X930Y986D01*
X930Y984D01*
X932Y984D01*
X932Y982D01*
X934Y982D01*
X934Y980D01*
X936Y980D01*
X936Y978D01*
X938Y978D01*
X938Y974D01*
X958Y974D01*
X958Y976D01*
X960Y976D01*
X960Y980D01*
X962Y980D01*
X962Y982D01*
X964Y982D01*
X964Y984D01*
X966Y984D01*
X966Y986D01*
X968Y986D01*
X968Y988D01*
X970Y988D01*
X970Y990D01*
X972Y990D01*
X972Y992D01*
X976Y992D01*
X976Y994D01*
X980Y994D01*
X980Y996D01*
X984Y996D01*
X984Y998D01*
X990Y998D01*
X990Y1000D01*
X906Y1000D01*
G37*
D02*
G36*
X1006Y1000D02*
X1006Y998D01*
X1012Y998D01*
X1012Y996D01*
X1016Y996D01*
X1016Y994D01*
X1020Y994D01*
X1020Y992D01*
X1024Y992D01*
X1024Y990D01*
X1026Y990D01*
X1026Y988D01*
X1028Y988D01*
X1028Y986D01*
X1030Y986D01*
X1030Y984D01*
X1032Y984D01*
X1032Y982D01*
X1034Y982D01*
X1034Y980D01*
X1036Y980D01*
X1036Y978D01*
X1038Y978D01*
X1038Y974D01*
X1058Y974D01*
X1058Y976D01*
X1060Y976D01*
X1060Y980D01*
X1062Y980D01*
X1062Y982D01*
X1064Y982D01*
X1064Y984D01*
X1066Y984D01*
X1066Y986D01*
X1068Y986D01*
X1068Y988D01*
X1070Y988D01*
X1070Y990D01*
X1072Y990D01*
X1072Y992D01*
X1076Y992D01*
X1076Y994D01*
X1080Y994D01*
X1080Y996D01*
X1084Y996D01*
X1084Y998D01*
X1090Y998D01*
X1090Y1000D01*
X1006Y1000D01*
G37*
D02*
G36*
X1106Y1000D02*
X1106Y998D01*
X1112Y998D01*
X1112Y996D01*
X1116Y996D01*
X1116Y994D01*
X1120Y994D01*
X1120Y992D01*
X1124Y992D01*
X1124Y990D01*
X1126Y990D01*
X1126Y988D01*
X1128Y988D01*
X1128Y986D01*
X1130Y986D01*
X1130Y984D01*
X1132Y984D01*
X1132Y982D01*
X1134Y982D01*
X1134Y980D01*
X1136Y980D01*
X1136Y978D01*
X1138Y978D01*
X1138Y974D01*
X1158Y974D01*
X1158Y976D01*
X1160Y976D01*
X1160Y980D01*
X1162Y980D01*
X1162Y982D01*
X1164Y982D01*
X1164Y984D01*
X1166Y984D01*
X1166Y986D01*
X1168Y986D01*
X1168Y988D01*
X1170Y988D01*
X1170Y990D01*
X1172Y990D01*
X1172Y992D01*
X1176Y992D01*
X1176Y994D01*
X1180Y994D01*
X1180Y996D01*
X1184Y996D01*
X1184Y998D01*
X1190Y998D01*
X1190Y1000D01*
X1106Y1000D01*
G37*
D02*
G36*
X1206Y1000D02*
X1206Y998D01*
X1212Y998D01*
X1212Y996D01*
X1216Y996D01*
X1216Y994D01*
X1220Y994D01*
X1220Y992D01*
X1224Y992D01*
X1224Y990D01*
X1226Y990D01*
X1226Y988D01*
X1228Y988D01*
X1228Y986D01*
X1230Y986D01*
X1230Y984D01*
X1232Y984D01*
X1232Y982D01*
X1234Y982D01*
X1234Y980D01*
X1236Y980D01*
X1236Y978D01*
X1238Y978D01*
X1238Y974D01*
X1258Y974D01*
X1258Y976D01*
X1260Y976D01*
X1260Y980D01*
X1262Y980D01*
X1262Y982D01*
X1264Y982D01*
X1264Y984D01*
X1266Y984D01*
X1266Y986D01*
X1268Y986D01*
X1268Y988D01*
X1270Y988D01*
X1270Y990D01*
X1272Y990D01*
X1272Y992D01*
X1276Y992D01*
X1276Y994D01*
X1280Y994D01*
X1280Y996D01*
X1284Y996D01*
X1284Y998D01*
X1290Y998D01*
X1290Y1000D01*
X1206Y1000D01*
G37*
D02*
G36*
X1306Y1000D02*
X1306Y998D01*
X1312Y998D01*
X1312Y996D01*
X1316Y996D01*
X1316Y994D01*
X1320Y994D01*
X1320Y992D01*
X1324Y992D01*
X1324Y990D01*
X1326Y990D01*
X1326Y988D01*
X1328Y988D01*
X1328Y986D01*
X1330Y986D01*
X1330Y984D01*
X1332Y984D01*
X1332Y982D01*
X1334Y982D01*
X1334Y980D01*
X1336Y980D01*
X1336Y978D01*
X1338Y978D01*
X1338Y974D01*
X1358Y974D01*
X1358Y976D01*
X1360Y976D01*
X1360Y980D01*
X1362Y980D01*
X1362Y982D01*
X1364Y982D01*
X1364Y984D01*
X1366Y984D01*
X1366Y986D01*
X1368Y986D01*
X1368Y988D01*
X1370Y988D01*
X1370Y990D01*
X1372Y990D01*
X1372Y992D01*
X1376Y992D01*
X1376Y994D01*
X1380Y994D01*
X1380Y996D01*
X1384Y996D01*
X1384Y998D01*
X1390Y998D01*
X1390Y1000D01*
X1306Y1000D01*
G37*
D02*
G36*
X1406Y1000D02*
X1406Y998D01*
X1412Y998D01*
X1412Y996D01*
X1416Y996D01*
X1416Y994D01*
X1420Y994D01*
X1420Y992D01*
X1424Y992D01*
X1424Y990D01*
X1426Y990D01*
X1426Y988D01*
X1428Y988D01*
X1428Y986D01*
X1430Y986D01*
X1430Y984D01*
X1432Y984D01*
X1432Y982D01*
X1434Y982D01*
X1434Y980D01*
X1436Y980D01*
X1436Y978D01*
X1438Y978D01*
X1438Y974D01*
X1458Y974D01*
X1458Y976D01*
X1460Y976D01*
X1460Y980D01*
X1462Y980D01*
X1462Y982D01*
X1464Y982D01*
X1464Y984D01*
X1466Y984D01*
X1466Y986D01*
X1468Y986D01*
X1468Y988D01*
X1470Y988D01*
X1470Y990D01*
X1472Y990D01*
X1472Y992D01*
X1476Y992D01*
X1476Y994D01*
X1480Y994D01*
X1480Y996D01*
X1484Y996D01*
X1484Y998D01*
X1490Y998D01*
X1490Y1000D01*
X1406Y1000D01*
G37*
D02*
G36*
X1506Y1000D02*
X1506Y998D01*
X1512Y998D01*
X1512Y996D01*
X1516Y996D01*
X1516Y994D01*
X1520Y994D01*
X1520Y992D01*
X1524Y992D01*
X1524Y990D01*
X1526Y990D01*
X1526Y988D01*
X1528Y988D01*
X1528Y986D01*
X1530Y986D01*
X1530Y984D01*
X1532Y984D01*
X1532Y982D01*
X1534Y982D01*
X1534Y980D01*
X1536Y980D01*
X1536Y978D01*
X1538Y978D01*
X1538Y974D01*
X1558Y974D01*
X1558Y976D01*
X1560Y976D01*
X1560Y980D01*
X1562Y980D01*
X1562Y982D01*
X1564Y982D01*
X1564Y984D01*
X1566Y984D01*
X1566Y986D01*
X1568Y986D01*
X1568Y988D01*
X1570Y988D01*
X1570Y990D01*
X1572Y990D01*
X1572Y992D01*
X1576Y992D01*
X1576Y994D01*
X1580Y994D01*
X1580Y996D01*
X1584Y996D01*
X1584Y998D01*
X1590Y998D01*
X1590Y1000D01*
X1506Y1000D01*
G37*
D02*
G36*
X1606Y1000D02*
X1606Y998D01*
X1612Y998D01*
X1612Y996D01*
X1616Y996D01*
X1616Y994D01*
X1620Y994D01*
X1620Y992D01*
X1624Y992D01*
X1624Y990D01*
X1626Y990D01*
X1626Y988D01*
X1628Y988D01*
X1628Y986D01*
X1630Y986D01*
X1630Y984D01*
X1632Y984D01*
X1632Y982D01*
X1634Y982D01*
X1634Y980D01*
X1636Y980D01*
X1636Y978D01*
X1638Y978D01*
X1638Y974D01*
X1658Y974D01*
X1658Y976D01*
X1660Y976D01*
X1660Y980D01*
X1662Y980D01*
X1662Y982D01*
X1664Y982D01*
X1664Y984D01*
X1666Y984D01*
X1666Y986D01*
X1668Y986D01*
X1668Y988D01*
X1670Y988D01*
X1670Y990D01*
X1672Y990D01*
X1672Y992D01*
X1676Y992D01*
X1676Y994D01*
X1680Y994D01*
X1680Y996D01*
X1684Y996D01*
X1684Y998D01*
X1690Y998D01*
X1690Y1000D01*
X1606Y1000D01*
G37*
D02*
G36*
X1706Y1000D02*
X1706Y998D01*
X1712Y998D01*
X1712Y996D01*
X1716Y996D01*
X1716Y994D01*
X1720Y994D01*
X1720Y992D01*
X1724Y992D01*
X1724Y990D01*
X1726Y990D01*
X1726Y988D01*
X1728Y988D01*
X1728Y986D01*
X1730Y986D01*
X1730Y984D01*
X1732Y984D01*
X1732Y982D01*
X1734Y982D01*
X1734Y980D01*
X1736Y980D01*
X1736Y978D01*
X1738Y978D01*
X1738Y974D01*
X1758Y974D01*
X1758Y976D01*
X1760Y976D01*
X1760Y980D01*
X1762Y980D01*
X1762Y982D01*
X1764Y982D01*
X1764Y984D01*
X1766Y984D01*
X1766Y986D01*
X1768Y986D01*
X1768Y988D01*
X1770Y988D01*
X1770Y990D01*
X1772Y990D01*
X1772Y992D01*
X1776Y992D01*
X1776Y994D01*
X1780Y994D01*
X1780Y996D01*
X1784Y996D01*
X1784Y998D01*
X1790Y998D01*
X1790Y1000D01*
X1706Y1000D01*
G37*
D02*
G36*
X1806Y1000D02*
X1806Y998D01*
X1812Y998D01*
X1812Y996D01*
X1816Y996D01*
X1816Y994D01*
X1820Y994D01*
X1820Y992D01*
X1824Y992D01*
X1824Y990D01*
X1826Y990D01*
X1826Y988D01*
X1828Y988D01*
X1828Y986D01*
X1830Y986D01*
X1830Y984D01*
X1832Y984D01*
X1832Y982D01*
X1834Y982D01*
X1834Y980D01*
X1836Y980D01*
X1836Y978D01*
X1838Y978D01*
X1838Y974D01*
X1858Y974D01*
X1858Y976D01*
X1860Y976D01*
X1860Y980D01*
X1862Y980D01*
X1862Y982D01*
X1864Y982D01*
X1864Y984D01*
X1866Y984D01*
X1866Y986D01*
X1868Y986D01*
X1868Y988D01*
X1870Y988D01*
X1870Y990D01*
X1872Y990D01*
X1872Y992D01*
X1876Y992D01*
X1876Y994D01*
X1880Y994D01*
X1880Y996D01*
X1884Y996D01*
X1884Y998D01*
X1890Y998D01*
X1890Y1000D01*
X1806Y1000D01*
G37*
D02*
G36*
X1906Y1000D02*
X1906Y998D01*
X1912Y998D01*
X1912Y996D01*
X1916Y996D01*
X1916Y994D01*
X1920Y994D01*
X1920Y992D01*
X1924Y992D01*
X1924Y990D01*
X1926Y990D01*
X1926Y988D01*
X1928Y988D01*
X1928Y986D01*
X1930Y986D01*
X1930Y984D01*
X1932Y984D01*
X1932Y982D01*
X1934Y982D01*
X1934Y980D01*
X1936Y980D01*
X1936Y978D01*
X1938Y978D01*
X1938Y974D01*
X1958Y974D01*
X1958Y976D01*
X1960Y976D01*
X1960Y980D01*
X1962Y980D01*
X1962Y982D01*
X1964Y982D01*
X1964Y984D01*
X1966Y984D01*
X1966Y986D01*
X1968Y986D01*
X1968Y988D01*
X1970Y988D01*
X1970Y990D01*
X1972Y990D01*
X1972Y992D01*
X1976Y992D01*
X1976Y994D01*
X1980Y994D01*
X1980Y996D01*
X1984Y996D01*
X1984Y998D01*
X1990Y998D01*
X1990Y1000D01*
X1906Y1000D01*
G37*
D02*
G36*
X438Y930D02*
X438Y928D01*
X436Y928D01*
X436Y924D01*
X434Y924D01*
X434Y922D01*
X432Y922D01*
X432Y920D01*
X430Y920D01*
X430Y918D01*
X428Y918D01*
X428Y916D01*
X426Y916D01*
X426Y914D01*
X422Y914D01*
X422Y912D01*
X420Y912D01*
X420Y910D01*
X416Y910D01*
X416Y908D01*
X410Y908D01*
X410Y906D01*
X402Y906D01*
X402Y904D01*
X494Y904D01*
X494Y906D01*
X486Y906D01*
X486Y908D01*
X480Y908D01*
X480Y910D01*
X476Y910D01*
X476Y912D01*
X474Y912D01*
X474Y914D01*
X470Y914D01*
X470Y916D01*
X468Y916D01*
X468Y918D01*
X466Y918D01*
X466Y920D01*
X464Y920D01*
X464Y922D01*
X462Y922D01*
X462Y924D01*
X460Y924D01*
X460Y928D01*
X458Y928D01*
X458Y930D01*
X438Y930D01*
G37*
D02*
G36*
X538Y930D02*
X538Y928D01*
X536Y928D01*
X536Y924D01*
X534Y924D01*
X534Y922D01*
X532Y922D01*
X532Y920D01*
X530Y920D01*
X530Y918D01*
X528Y918D01*
X528Y916D01*
X526Y916D01*
X526Y914D01*
X522Y914D01*
X522Y912D01*
X520Y912D01*
X520Y910D01*
X516Y910D01*
X516Y908D01*
X510Y908D01*
X510Y906D01*
X502Y906D01*
X502Y904D01*
X594Y904D01*
X594Y906D01*
X586Y906D01*
X586Y908D01*
X580Y908D01*
X580Y910D01*
X576Y910D01*
X576Y912D01*
X574Y912D01*
X574Y914D01*
X570Y914D01*
X570Y916D01*
X568Y916D01*
X568Y918D01*
X566Y918D01*
X566Y920D01*
X564Y920D01*
X564Y922D01*
X562Y922D01*
X562Y924D01*
X560Y924D01*
X560Y928D01*
X558Y928D01*
X558Y930D01*
X538Y930D01*
G37*
D02*
G36*
X638Y930D02*
X638Y928D01*
X636Y928D01*
X636Y924D01*
X634Y924D01*
X634Y922D01*
X632Y922D01*
X632Y920D01*
X630Y920D01*
X630Y918D01*
X628Y918D01*
X628Y916D01*
X626Y916D01*
X626Y914D01*
X622Y914D01*
X622Y912D01*
X620Y912D01*
X620Y910D01*
X616Y910D01*
X616Y908D01*
X610Y908D01*
X610Y906D01*
X602Y906D01*
X602Y904D01*
X694Y904D01*
X694Y906D01*
X686Y906D01*
X686Y908D01*
X680Y908D01*
X680Y910D01*
X676Y910D01*
X676Y912D01*
X674Y912D01*
X674Y914D01*
X670Y914D01*
X670Y916D01*
X668Y916D01*
X668Y918D01*
X666Y918D01*
X666Y920D01*
X664Y920D01*
X664Y922D01*
X662Y922D01*
X662Y924D01*
X660Y924D01*
X660Y928D01*
X658Y928D01*
X658Y930D01*
X638Y930D01*
G37*
D02*
G36*
X738Y930D02*
X738Y928D01*
X736Y928D01*
X736Y924D01*
X734Y924D01*
X734Y922D01*
X732Y922D01*
X732Y920D01*
X730Y920D01*
X730Y918D01*
X728Y918D01*
X728Y916D01*
X726Y916D01*
X726Y914D01*
X722Y914D01*
X722Y912D01*
X720Y912D01*
X720Y910D01*
X716Y910D01*
X716Y908D01*
X710Y908D01*
X710Y906D01*
X702Y906D01*
X702Y904D01*
X794Y904D01*
X794Y906D01*
X786Y906D01*
X786Y908D01*
X780Y908D01*
X780Y910D01*
X776Y910D01*
X776Y912D01*
X774Y912D01*
X774Y914D01*
X770Y914D01*
X770Y916D01*
X768Y916D01*
X768Y918D01*
X766Y918D01*
X766Y920D01*
X764Y920D01*
X764Y922D01*
X762Y922D01*
X762Y924D01*
X760Y924D01*
X760Y928D01*
X758Y928D01*
X758Y930D01*
X738Y930D01*
G37*
D02*
G36*
X838Y930D02*
X838Y928D01*
X836Y928D01*
X836Y924D01*
X834Y924D01*
X834Y922D01*
X832Y922D01*
X832Y920D01*
X830Y920D01*
X830Y918D01*
X828Y918D01*
X828Y916D01*
X826Y916D01*
X826Y914D01*
X822Y914D01*
X822Y912D01*
X820Y912D01*
X820Y910D01*
X816Y910D01*
X816Y908D01*
X810Y908D01*
X810Y906D01*
X802Y906D01*
X802Y904D01*
X894Y904D01*
X894Y906D01*
X886Y906D01*
X886Y908D01*
X880Y908D01*
X880Y910D01*
X876Y910D01*
X876Y912D01*
X874Y912D01*
X874Y914D01*
X870Y914D01*
X870Y916D01*
X868Y916D01*
X868Y918D01*
X866Y918D01*
X866Y920D01*
X864Y920D01*
X864Y922D01*
X862Y922D01*
X862Y924D01*
X860Y924D01*
X860Y928D01*
X858Y928D01*
X858Y930D01*
X838Y930D01*
G37*
D02*
G36*
X938Y930D02*
X938Y928D01*
X936Y928D01*
X936Y924D01*
X934Y924D01*
X934Y922D01*
X932Y922D01*
X932Y920D01*
X930Y920D01*
X930Y918D01*
X928Y918D01*
X928Y916D01*
X926Y916D01*
X926Y914D01*
X922Y914D01*
X922Y912D01*
X920Y912D01*
X920Y910D01*
X916Y910D01*
X916Y908D01*
X910Y908D01*
X910Y906D01*
X902Y906D01*
X902Y904D01*
X994Y904D01*
X994Y906D01*
X986Y906D01*
X986Y908D01*
X980Y908D01*
X980Y910D01*
X976Y910D01*
X976Y912D01*
X974Y912D01*
X974Y914D01*
X970Y914D01*
X970Y916D01*
X968Y916D01*
X968Y918D01*
X966Y918D01*
X966Y920D01*
X964Y920D01*
X964Y922D01*
X962Y922D01*
X962Y924D01*
X960Y924D01*
X960Y928D01*
X958Y928D01*
X958Y930D01*
X938Y930D01*
G37*
D02*
G36*
X1038Y930D02*
X1038Y928D01*
X1036Y928D01*
X1036Y924D01*
X1034Y924D01*
X1034Y922D01*
X1032Y922D01*
X1032Y920D01*
X1030Y920D01*
X1030Y918D01*
X1028Y918D01*
X1028Y916D01*
X1026Y916D01*
X1026Y914D01*
X1022Y914D01*
X1022Y912D01*
X1020Y912D01*
X1020Y910D01*
X1016Y910D01*
X1016Y908D01*
X1010Y908D01*
X1010Y906D01*
X1002Y906D01*
X1002Y904D01*
X1094Y904D01*
X1094Y906D01*
X1086Y906D01*
X1086Y908D01*
X1080Y908D01*
X1080Y910D01*
X1076Y910D01*
X1076Y912D01*
X1074Y912D01*
X1074Y914D01*
X1070Y914D01*
X1070Y916D01*
X1068Y916D01*
X1068Y918D01*
X1066Y918D01*
X1066Y920D01*
X1064Y920D01*
X1064Y922D01*
X1062Y922D01*
X1062Y924D01*
X1060Y924D01*
X1060Y928D01*
X1058Y928D01*
X1058Y930D01*
X1038Y930D01*
G37*
D02*
G36*
X1138Y930D02*
X1138Y928D01*
X1136Y928D01*
X1136Y924D01*
X1134Y924D01*
X1134Y922D01*
X1132Y922D01*
X1132Y920D01*
X1130Y920D01*
X1130Y918D01*
X1128Y918D01*
X1128Y916D01*
X1126Y916D01*
X1126Y914D01*
X1122Y914D01*
X1122Y912D01*
X1120Y912D01*
X1120Y910D01*
X1116Y910D01*
X1116Y908D01*
X1110Y908D01*
X1110Y906D01*
X1102Y906D01*
X1102Y904D01*
X1194Y904D01*
X1194Y906D01*
X1186Y906D01*
X1186Y908D01*
X1180Y908D01*
X1180Y910D01*
X1176Y910D01*
X1176Y912D01*
X1174Y912D01*
X1174Y914D01*
X1170Y914D01*
X1170Y916D01*
X1168Y916D01*
X1168Y918D01*
X1166Y918D01*
X1166Y920D01*
X1164Y920D01*
X1164Y922D01*
X1162Y922D01*
X1162Y924D01*
X1160Y924D01*
X1160Y928D01*
X1158Y928D01*
X1158Y930D01*
X1138Y930D01*
G37*
D02*
G36*
X1238Y930D02*
X1238Y928D01*
X1236Y928D01*
X1236Y924D01*
X1234Y924D01*
X1234Y922D01*
X1232Y922D01*
X1232Y920D01*
X1230Y920D01*
X1230Y918D01*
X1228Y918D01*
X1228Y916D01*
X1226Y916D01*
X1226Y914D01*
X1222Y914D01*
X1222Y912D01*
X1220Y912D01*
X1220Y910D01*
X1216Y910D01*
X1216Y908D01*
X1210Y908D01*
X1210Y906D01*
X1202Y906D01*
X1202Y904D01*
X1294Y904D01*
X1294Y906D01*
X1286Y906D01*
X1286Y908D01*
X1280Y908D01*
X1280Y910D01*
X1276Y910D01*
X1276Y912D01*
X1274Y912D01*
X1274Y914D01*
X1270Y914D01*
X1270Y916D01*
X1268Y916D01*
X1268Y918D01*
X1266Y918D01*
X1266Y920D01*
X1264Y920D01*
X1264Y922D01*
X1262Y922D01*
X1262Y924D01*
X1260Y924D01*
X1260Y928D01*
X1258Y928D01*
X1258Y930D01*
X1238Y930D01*
G37*
D02*
G36*
X1338Y930D02*
X1338Y928D01*
X1336Y928D01*
X1336Y924D01*
X1334Y924D01*
X1334Y922D01*
X1332Y922D01*
X1332Y920D01*
X1330Y920D01*
X1330Y918D01*
X1328Y918D01*
X1328Y916D01*
X1326Y916D01*
X1326Y914D01*
X1322Y914D01*
X1322Y912D01*
X1320Y912D01*
X1320Y910D01*
X1316Y910D01*
X1316Y908D01*
X1310Y908D01*
X1310Y906D01*
X1302Y906D01*
X1302Y904D01*
X1394Y904D01*
X1394Y906D01*
X1386Y906D01*
X1386Y908D01*
X1380Y908D01*
X1380Y910D01*
X1376Y910D01*
X1376Y912D01*
X1374Y912D01*
X1374Y914D01*
X1370Y914D01*
X1370Y916D01*
X1368Y916D01*
X1368Y918D01*
X1366Y918D01*
X1366Y920D01*
X1364Y920D01*
X1364Y922D01*
X1362Y922D01*
X1362Y924D01*
X1360Y924D01*
X1360Y928D01*
X1358Y928D01*
X1358Y930D01*
X1338Y930D01*
G37*
D02*
G36*
X1438Y930D02*
X1438Y928D01*
X1436Y928D01*
X1436Y924D01*
X1434Y924D01*
X1434Y922D01*
X1432Y922D01*
X1432Y920D01*
X1430Y920D01*
X1430Y918D01*
X1428Y918D01*
X1428Y916D01*
X1426Y916D01*
X1426Y914D01*
X1422Y914D01*
X1422Y912D01*
X1420Y912D01*
X1420Y910D01*
X1416Y910D01*
X1416Y908D01*
X1410Y908D01*
X1410Y906D01*
X1402Y906D01*
X1402Y904D01*
X1494Y904D01*
X1494Y906D01*
X1486Y906D01*
X1486Y908D01*
X1480Y908D01*
X1480Y910D01*
X1476Y910D01*
X1476Y912D01*
X1474Y912D01*
X1474Y914D01*
X1470Y914D01*
X1470Y916D01*
X1468Y916D01*
X1468Y918D01*
X1466Y918D01*
X1466Y920D01*
X1464Y920D01*
X1464Y922D01*
X1462Y922D01*
X1462Y924D01*
X1460Y924D01*
X1460Y928D01*
X1458Y928D01*
X1458Y930D01*
X1438Y930D01*
G37*
D02*
G36*
X1538Y930D02*
X1538Y928D01*
X1536Y928D01*
X1536Y924D01*
X1534Y924D01*
X1534Y922D01*
X1532Y922D01*
X1532Y920D01*
X1530Y920D01*
X1530Y918D01*
X1528Y918D01*
X1528Y916D01*
X1526Y916D01*
X1526Y914D01*
X1522Y914D01*
X1522Y912D01*
X1520Y912D01*
X1520Y910D01*
X1516Y910D01*
X1516Y908D01*
X1510Y908D01*
X1510Y906D01*
X1502Y906D01*
X1502Y904D01*
X1594Y904D01*
X1594Y906D01*
X1586Y906D01*
X1586Y908D01*
X1580Y908D01*
X1580Y910D01*
X1576Y910D01*
X1576Y912D01*
X1574Y912D01*
X1574Y914D01*
X1570Y914D01*
X1570Y916D01*
X1568Y916D01*
X1568Y918D01*
X1566Y918D01*
X1566Y920D01*
X1564Y920D01*
X1564Y922D01*
X1562Y922D01*
X1562Y924D01*
X1560Y924D01*
X1560Y928D01*
X1558Y928D01*
X1558Y930D01*
X1538Y930D01*
G37*
D02*
G36*
X1638Y930D02*
X1638Y928D01*
X1636Y928D01*
X1636Y924D01*
X1634Y924D01*
X1634Y922D01*
X1632Y922D01*
X1632Y920D01*
X1630Y920D01*
X1630Y918D01*
X1628Y918D01*
X1628Y916D01*
X1626Y916D01*
X1626Y914D01*
X1622Y914D01*
X1622Y912D01*
X1620Y912D01*
X1620Y910D01*
X1616Y910D01*
X1616Y908D01*
X1610Y908D01*
X1610Y906D01*
X1602Y906D01*
X1602Y904D01*
X1694Y904D01*
X1694Y906D01*
X1686Y906D01*
X1686Y908D01*
X1680Y908D01*
X1680Y910D01*
X1676Y910D01*
X1676Y912D01*
X1674Y912D01*
X1674Y914D01*
X1670Y914D01*
X1670Y916D01*
X1668Y916D01*
X1668Y918D01*
X1666Y918D01*
X1666Y920D01*
X1664Y920D01*
X1664Y922D01*
X1662Y922D01*
X1662Y924D01*
X1660Y924D01*
X1660Y928D01*
X1658Y928D01*
X1658Y930D01*
X1638Y930D01*
G37*
D02*
G36*
X1738Y930D02*
X1738Y928D01*
X1736Y928D01*
X1736Y924D01*
X1734Y924D01*
X1734Y922D01*
X1732Y922D01*
X1732Y920D01*
X1730Y920D01*
X1730Y918D01*
X1728Y918D01*
X1728Y916D01*
X1726Y916D01*
X1726Y914D01*
X1722Y914D01*
X1722Y912D01*
X1720Y912D01*
X1720Y910D01*
X1716Y910D01*
X1716Y908D01*
X1710Y908D01*
X1710Y906D01*
X1702Y906D01*
X1702Y904D01*
X1794Y904D01*
X1794Y906D01*
X1786Y906D01*
X1786Y908D01*
X1780Y908D01*
X1780Y910D01*
X1776Y910D01*
X1776Y912D01*
X1774Y912D01*
X1774Y914D01*
X1770Y914D01*
X1770Y916D01*
X1768Y916D01*
X1768Y918D01*
X1766Y918D01*
X1766Y920D01*
X1764Y920D01*
X1764Y922D01*
X1762Y922D01*
X1762Y924D01*
X1760Y924D01*
X1760Y928D01*
X1758Y928D01*
X1758Y930D01*
X1738Y930D01*
G37*
D02*
G36*
X1838Y930D02*
X1838Y928D01*
X1836Y928D01*
X1836Y924D01*
X1834Y924D01*
X1834Y922D01*
X1832Y922D01*
X1832Y920D01*
X1830Y920D01*
X1830Y918D01*
X1828Y918D01*
X1828Y916D01*
X1826Y916D01*
X1826Y914D01*
X1822Y914D01*
X1822Y912D01*
X1820Y912D01*
X1820Y910D01*
X1816Y910D01*
X1816Y908D01*
X1810Y908D01*
X1810Y906D01*
X1802Y906D01*
X1802Y904D01*
X1894Y904D01*
X1894Y906D01*
X1886Y906D01*
X1886Y908D01*
X1880Y908D01*
X1880Y910D01*
X1876Y910D01*
X1876Y912D01*
X1874Y912D01*
X1874Y914D01*
X1870Y914D01*
X1870Y916D01*
X1868Y916D01*
X1868Y918D01*
X1866Y918D01*
X1866Y920D01*
X1864Y920D01*
X1864Y922D01*
X1862Y922D01*
X1862Y924D01*
X1860Y924D01*
X1860Y928D01*
X1858Y928D01*
X1858Y930D01*
X1838Y930D01*
G37*
D02*
G36*
X1938Y930D02*
X1938Y928D01*
X1936Y928D01*
X1936Y924D01*
X1934Y924D01*
X1934Y922D01*
X1932Y922D01*
X1932Y920D01*
X1930Y920D01*
X1930Y918D01*
X1928Y918D01*
X1928Y916D01*
X1926Y916D01*
X1926Y914D01*
X1922Y914D01*
X1922Y912D01*
X1920Y912D01*
X1920Y910D01*
X1916Y910D01*
X1916Y908D01*
X1910Y908D01*
X1910Y906D01*
X1902Y906D01*
X1902Y904D01*
X1994Y904D01*
X1994Y906D01*
X1986Y906D01*
X1986Y908D01*
X1980Y908D01*
X1980Y910D01*
X1976Y910D01*
X1976Y912D01*
X1974Y912D01*
X1974Y914D01*
X1970Y914D01*
X1970Y916D01*
X1968Y916D01*
X1968Y918D01*
X1966Y918D01*
X1966Y920D01*
X1964Y920D01*
X1964Y922D01*
X1962Y922D01*
X1962Y924D01*
X1960Y924D01*
X1960Y928D01*
X1958Y928D01*
X1958Y930D01*
X1938Y930D01*
G37*
D02*
G36*
X382Y904D02*
X382Y902D01*
X2376Y902D01*
X2376Y904D01*
X382Y904D01*
G37*
D02*
G36*
X382Y904D02*
X382Y902D01*
X2376Y902D01*
X2376Y904D01*
X382Y904D01*
G37*
D02*
G36*
X382Y904D02*
X382Y902D01*
X2376Y902D01*
X2376Y904D01*
X382Y904D01*
G37*
D02*
G36*
X382Y904D02*
X382Y902D01*
X2376Y902D01*
X2376Y904D01*
X382Y904D01*
G37*
D02*
G36*
X382Y904D02*
X382Y902D01*
X2376Y902D01*
X2376Y904D01*
X382Y904D01*
G37*
D02*
G36*
X382Y904D02*
X382Y902D01*
X2376Y902D01*
X2376Y904D01*
X382Y904D01*
G37*
D02*
G36*
X382Y904D02*
X382Y902D01*
X2376Y902D01*
X2376Y904D01*
X382Y904D01*
G37*
D02*
G36*
X382Y904D02*
X382Y902D01*
X2376Y902D01*
X2376Y904D01*
X382Y904D01*
G37*
D02*
G36*
X382Y904D02*
X382Y902D01*
X2376Y902D01*
X2376Y904D01*
X382Y904D01*
G37*
D02*
G36*
X382Y904D02*
X382Y902D01*
X2376Y902D01*
X2376Y904D01*
X382Y904D01*
G37*
D02*
G36*
X382Y904D02*
X382Y902D01*
X2376Y902D01*
X2376Y904D01*
X382Y904D01*
G37*
D02*
G36*
X382Y904D02*
X382Y902D01*
X2376Y902D01*
X2376Y904D01*
X382Y904D01*
G37*
D02*
G36*
X382Y904D02*
X382Y902D01*
X2376Y902D01*
X2376Y904D01*
X382Y904D01*
G37*
D02*
G36*
X382Y904D02*
X382Y902D01*
X2376Y902D01*
X2376Y904D01*
X382Y904D01*
G37*
D02*
G36*
X382Y904D02*
X382Y902D01*
X2376Y902D01*
X2376Y904D01*
X382Y904D01*
G37*
D02*
G36*
X382Y904D02*
X382Y902D01*
X2376Y902D01*
X2376Y904D01*
X382Y904D01*
G37*
D02*
G36*
X382Y904D02*
X382Y902D01*
X2376Y902D01*
X2376Y904D01*
X382Y904D01*
G37*
D02*
G36*
X382Y902D02*
X382Y888D01*
X384Y888D01*
X384Y886D01*
X386Y886D01*
X386Y884D01*
X388Y884D01*
X388Y882D01*
X390Y882D01*
X390Y880D01*
X392Y880D01*
X392Y878D01*
X394Y878D01*
X394Y874D01*
X396Y874D01*
X396Y872D01*
X398Y872D01*
X398Y870D01*
X400Y870D01*
X400Y868D01*
X402Y868D01*
X402Y866D01*
X404Y866D01*
X404Y864D01*
X406Y864D01*
X406Y862D01*
X408Y862D01*
X408Y858D01*
X410Y858D01*
X410Y856D01*
X412Y856D01*
X412Y854D01*
X414Y854D01*
X414Y852D01*
X416Y852D01*
X416Y850D01*
X418Y850D01*
X418Y848D01*
X420Y848D01*
X420Y846D01*
X422Y846D01*
X422Y842D01*
X424Y842D01*
X424Y840D01*
X426Y840D01*
X426Y838D01*
X428Y838D01*
X428Y836D01*
X430Y836D01*
X430Y834D01*
X432Y834D01*
X432Y832D01*
X434Y832D01*
X434Y830D01*
X436Y830D01*
X436Y826D01*
X438Y826D01*
X438Y824D01*
X440Y824D01*
X440Y822D01*
X442Y822D01*
X442Y820D01*
X444Y820D01*
X444Y818D01*
X446Y818D01*
X446Y816D01*
X448Y816D01*
X448Y814D01*
X450Y814D01*
X450Y810D01*
X452Y810D01*
X452Y808D01*
X454Y808D01*
X454Y806D01*
X456Y806D01*
X456Y804D01*
X458Y804D01*
X458Y802D01*
X460Y802D01*
X460Y800D01*
X462Y800D01*
X462Y798D01*
X464Y798D01*
X464Y794D01*
X466Y794D01*
X466Y792D01*
X468Y792D01*
X468Y790D01*
X470Y790D01*
X470Y788D01*
X472Y788D01*
X472Y786D01*
X474Y786D01*
X474Y784D01*
X476Y784D01*
X476Y782D01*
X478Y782D01*
X478Y778D01*
X480Y778D01*
X480Y776D01*
X482Y776D01*
X482Y774D01*
X484Y774D01*
X484Y772D01*
X486Y772D01*
X486Y770D01*
X488Y770D01*
X488Y768D01*
X490Y768D01*
X490Y766D01*
X492Y766D01*
X492Y762D01*
X494Y762D01*
X494Y760D01*
X496Y760D01*
X496Y758D01*
X498Y758D01*
X498Y756D01*
X500Y756D01*
X500Y754D01*
X502Y754D01*
X502Y752D01*
X504Y752D01*
X504Y750D01*
X506Y750D01*
X506Y746D01*
X508Y746D01*
X508Y744D01*
X510Y744D01*
X510Y742D01*
X512Y742D01*
X512Y740D01*
X514Y740D01*
X514Y738D01*
X516Y738D01*
X516Y736D01*
X518Y736D01*
X518Y734D01*
X520Y734D01*
X520Y730D01*
X522Y730D01*
X522Y728D01*
X524Y728D01*
X524Y726D01*
X526Y726D01*
X526Y724D01*
X528Y724D01*
X528Y722D01*
X530Y722D01*
X530Y720D01*
X532Y720D01*
X532Y718D01*
X534Y718D01*
X534Y714D01*
X536Y714D01*
X536Y712D01*
X538Y712D01*
X538Y710D01*
X540Y710D01*
X540Y708D01*
X542Y708D01*
X542Y706D01*
X544Y706D01*
X544Y704D01*
X546Y704D01*
X546Y702D01*
X548Y702D01*
X548Y698D01*
X550Y698D01*
X550Y696D01*
X552Y696D01*
X552Y694D01*
X554Y694D01*
X554Y692D01*
X556Y692D01*
X556Y690D01*
X558Y690D01*
X558Y688D01*
X560Y688D01*
X560Y686D01*
X562Y686D01*
X562Y682D01*
X564Y682D01*
X564Y680D01*
X566Y680D01*
X566Y678D01*
X568Y678D01*
X568Y676D01*
X570Y676D01*
X570Y674D01*
X572Y674D01*
X572Y672D01*
X574Y672D01*
X574Y670D01*
X576Y670D01*
X576Y666D01*
X578Y666D01*
X578Y664D01*
X580Y664D01*
X580Y662D01*
X582Y662D01*
X582Y660D01*
X584Y660D01*
X584Y658D01*
X586Y658D01*
X586Y656D01*
X588Y656D01*
X588Y654D01*
X590Y654D01*
X590Y650D01*
X592Y650D01*
X592Y648D01*
X594Y648D01*
X594Y646D01*
X596Y646D01*
X596Y644D01*
X598Y644D01*
X598Y642D01*
X600Y642D01*
X600Y640D01*
X602Y640D01*
X602Y638D01*
X604Y638D01*
X604Y634D01*
X606Y634D01*
X606Y632D01*
X608Y632D01*
X608Y630D01*
X610Y630D01*
X610Y628D01*
X612Y628D01*
X612Y626D01*
X614Y626D01*
X614Y624D01*
X616Y624D01*
X616Y622D01*
X618Y622D01*
X618Y618D01*
X620Y618D01*
X620Y616D01*
X622Y616D01*
X622Y614D01*
X624Y614D01*
X624Y612D01*
X626Y612D01*
X626Y610D01*
X628Y610D01*
X628Y608D01*
X630Y608D01*
X630Y606D01*
X632Y606D01*
X632Y602D01*
X634Y602D01*
X634Y600D01*
X636Y600D01*
X636Y598D01*
X638Y598D01*
X638Y596D01*
X640Y596D01*
X640Y594D01*
X642Y594D01*
X642Y592D01*
X644Y592D01*
X644Y590D01*
X646Y590D01*
X646Y586D01*
X648Y586D01*
X648Y584D01*
X650Y584D01*
X650Y582D01*
X652Y582D01*
X652Y580D01*
X654Y580D01*
X654Y578D01*
X656Y578D01*
X656Y576D01*
X658Y576D01*
X658Y574D01*
X660Y574D01*
X660Y570D01*
X662Y570D01*
X662Y568D01*
X664Y568D01*
X664Y566D01*
X666Y566D01*
X666Y564D01*
X668Y564D01*
X668Y562D01*
X670Y562D01*
X670Y560D01*
X672Y560D01*
X672Y558D01*
X674Y558D01*
X674Y554D01*
X676Y554D01*
X676Y552D01*
X678Y552D01*
X678Y550D01*
X680Y550D01*
X680Y548D01*
X682Y548D01*
X682Y546D01*
X684Y546D01*
X684Y544D01*
X686Y544D01*
X686Y542D01*
X688Y542D01*
X688Y538D01*
X690Y538D01*
X690Y536D01*
X692Y536D01*
X692Y534D01*
X694Y534D01*
X694Y532D01*
X696Y532D01*
X696Y530D01*
X698Y530D01*
X698Y528D01*
X700Y528D01*
X700Y526D01*
X702Y526D01*
X702Y522D01*
X704Y522D01*
X704Y520D01*
X706Y520D01*
X706Y518D01*
X708Y518D01*
X708Y516D01*
X710Y516D01*
X710Y514D01*
X712Y514D01*
X712Y512D01*
X714Y512D01*
X714Y510D01*
X716Y510D01*
X716Y506D01*
X718Y506D01*
X718Y504D01*
X720Y504D01*
X720Y502D01*
X722Y502D01*
X722Y500D01*
X724Y500D01*
X724Y498D01*
X726Y498D01*
X726Y496D01*
X728Y496D01*
X728Y494D01*
X730Y494D01*
X730Y490D01*
X732Y490D01*
X732Y488D01*
X734Y488D01*
X734Y486D01*
X736Y486D01*
X736Y484D01*
X738Y484D01*
X738Y482D01*
X740Y482D01*
X740Y480D01*
X742Y480D01*
X742Y478D01*
X744Y478D01*
X744Y474D01*
X746Y474D01*
X746Y472D01*
X748Y472D01*
X748Y470D01*
X750Y470D01*
X750Y468D01*
X752Y468D01*
X752Y466D01*
X754Y466D01*
X754Y464D01*
X756Y464D01*
X756Y462D01*
X758Y462D01*
X758Y458D01*
X760Y458D01*
X760Y456D01*
X762Y456D01*
X762Y454D01*
X764Y454D01*
X764Y452D01*
X766Y452D01*
X766Y450D01*
X768Y450D01*
X768Y448D01*
X770Y448D01*
X770Y446D01*
X772Y446D01*
X772Y442D01*
X774Y442D01*
X774Y440D01*
X776Y440D01*
X776Y438D01*
X778Y438D01*
X778Y436D01*
X780Y436D01*
X780Y434D01*
X782Y434D01*
X782Y432D01*
X784Y432D01*
X784Y430D01*
X786Y430D01*
X786Y426D01*
X788Y426D01*
X788Y424D01*
X790Y424D01*
X790Y422D01*
X792Y422D01*
X792Y420D01*
X794Y420D01*
X794Y418D01*
X796Y418D01*
X796Y416D01*
X798Y416D01*
X798Y414D01*
X800Y414D01*
X800Y410D01*
X802Y410D01*
X802Y408D01*
X804Y408D01*
X804Y406D01*
X806Y406D01*
X806Y404D01*
X808Y404D01*
X808Y402D01*
X810Y402D01*
X810Y400D01*
X812Y400D01*
X812Y398D01*
X814Y398D01*
X814Y394D01*
X816Y394D01*
X816Y392D01*
X818Y392D01*
X818Y390D01*
X820Y390D01*
X820Y388D01*
X822Y388D01*
X822Y386D01*
X824Y386D01*
X824Y384D01*
X826Y384D01*
X826Y382D01*
X828Y382D01*
X828Y378D01*
X830Y378D01*
X830Y376D01*
X832Y376D01*
X832Y374D01*
X834Y374D01*
X834Y372D01*
X836Y372D01*
X836Y370D01*
X838Y370D01*
X838Y368D01*
X840Y368D01*
X840Y366D01*
X842Y366D01*
X842Y362D01*
X844Y362D01*
X844Y360D01*
X846Y360D01*
X846Y358D01*
X848Y358D01*
X848Y356D01*
X850Y356D01*
X850Y354D01*
X852Y354D01*
X852Y352D01*
X854Y352D01*
X854Y350D01*
X856Y350D01*
X856Y346D01*
X858Y346D01*
X858Y344D01*
X860Y344D01*
X860Y342D01*
X862Y342D01*
X862Y340D01*
X864Y340D01*
X864Y338D01*
X866Y338D01*
X866Y336D01*
X868Y336D01*
X868Y334D01*
X870Y334D01*
X870Y330D01*
X872Y330D01*
X872Y328D01*
X874Y328D01*
X874Y326D01*
X876Y326D01*
X876Y324D01*
X878Y324D01*
X878Y322D01*
X880Y322D01*
X880Y320D01*
X882Y320D01*
X882Y318D01*
X884Y318D01*
X884Y314D01*
X886Y314D01*
X886Y312D01*
X888Y312D01*
X888Y310D01*
X890Y310D01*
X890Y308D01*
X892Y308D01*
X892Y306D01*
X894Y306D01*
X894Y304D01*
X896Y304D01*
X896Y302D01*
X898Y302D01*
X898Y298D01*
X900Y298D01*
X900Y296D01*
X902Y296D01*
X902Y294D01*
X904Y294D01*
X904Y292D01*
X906Y292D01*
X906Y290D01*
X908Y290D01*
X908Y288D01*
X910Y288D01*
X910Y286D01*
X912Y286D01*
X912Y282D01*
X914Y282D01*
X914Y280D01*
X916Y280D01*
X916Y278D01*
X918Y278D01*
X918Y276D01*
X920Y276D01*
X920Y274D01*
X922Y274D01*
X922Y272D01*
X924Y272D01*
X924Y270D01*
X926Y270D01*
X926Y266D01*
X928Y266D01*
X928Y264D01*
X930Y264D01*
X930Y262D01*
X932Y262D01*
X932Y260D01*
X934Y260D01*
X934Y258D01*
X936Y258D01*
X936Y256D01*
X938Y256D01*
X938Y254D01*
X940Y254D01*
X940Y250D01*
X942Y250D01*
X942Y248D01*
X944Y248D01*
X944Y246D01*
X946Y246D01*
X946Y244D01*
X948Y244D01*
X948Y242D01*
X950Y242D01*
X950Y240D01*
X952Y240D01*
X952Y238D01*
X954Y238D01*
X954Y234D01*
X956Y234D01*
X956Y232D01*
X958Y232D01*
X958Y230D01*
X960Y230D01*
X960Y228D01*
X962Y228D01*
X962Y226D01*
X964Y226D01*
X964Y224D01*
X966Y224D01*
X966Y222D01*
X968Y222D01*
X968Y218D01*
X970Y218D01*
X970Y216D01*
X972Y216D01*
X972Y214D01*
X974Y214D01*
X974Y212D01*
X976Y212D01*
X976Y210D01*
X978Y210D01*
X978Y208D01*
X980Y208D01*
X980Y206D01*
X2386Y206D01*
X2386Y208D01*
X2382Y208D01*
X2382Y210D01*
X2378Y210D01*
X2378Y212D01*
X2374Y212D01*
X2374Y214D01*
X2372Y214D01*
X2372Y216D01*
X2370Y216D01*
X2370Y218D01*
X2366Y218D01*
X2366Y220D01*
X2364Y220D01*
X2364Y224D01*
X2362Y224D01*
X2362Y226D01*
X2360Y226D01*
X2360Y228D01*
X2358Y228D01*
X2358Y232D01*
X2356Y232D01*
X2356Y236D01*
X2354Y236D01*
X2354Y240D01*
X2352Y240D01*
X2352Y264D01*
X2354Y264D01*
X2354Y270D01*
X2356Y270D01*
X2356Y274D01*
X2358Y274D01*
X2358Y276D01*
X2360Y276D01*
X2360Y280D01*
X2362Y280D01*
X2362Y282D01*
X2364Y282D01*
X2364Y284D01*
X2366Y284D01*
X2366Y286D01*
X2368Y286D01*
X2368Y288D01*
X2370Y288D01*
X2370Y290D01*
X2374Y290D01*
X2374Y292D01*
X2376Y292D01*
X2376Y312D01*
X2374Y312D01*
X2374Y314D01*
X2372Y314D01*
X2372Y316D01*
X2370Y316D01*
X2370Y318D01*
X2366Y318D01*
X2366Y320D01*
X2364Y320D01*
X2364Y324D01*
X2362Y324D01*
X2362Y326D01*
X2360Y326D01*
X2360Y328D01*
X2358Y328D01*
X2358Y332D01*
X2356Y332D01*
X2356Y336D01*
X2354Y336D01*
X2354Y340D01*
X2352Y340D01*
X2352Y364D01*
X2354Y364D01*
X2354Y370D01*
X2356Y370D01*
X2356Y374D01*
X2358Y374D01*
X2358Y376D01*
X2360Y376D01*
X2360Y380D01*
X2362Y380D01*
X2362Y382D01*
X2364Y382D01*
X2364Y384D01*
X2366Y384D01*
X2366Y386D01*
X2368Y386D01*
X2368Y388D01*
X2370Y388D01*
X2370Y390D01*
X2374Y390D01*
X2374Y392D01*
X2376Y392D01*
X2376Y412D01*
X2374Y412D01*
X2374Y414D01*
X2372Y414D01*
X2372Y416D01*
X2370Y416D01*
X2370Y418D01*
X2366Y418D01*
X2366Y420D01*
X2364Y420D01*
X2364Y424D01*
X2362Y424D01*
X2362Y426D01*
X2360Y426D01*
X2360Y428D01*
X2358Y428D01*
X2358Y432D01*
X2356Y432D01*
X2356Y436D01*
X2354Y436D01*
X2354Y440D01*
X2352Y440D01*
X2352Y464D01*
X2354Y464D01*
X2354Y470D01*
X2356Y470D01*
X2356Y474D01*
X2358Y474D01*
X2358Y476D01*
X2360Y476D01*
X2360Y480D01*
X2362Y480D01*
X2362Y482D01*
X2364Y482D01*
X2364Y484D01*
X2366Y484D01*
X2366Y486D01*
X2368Y486D01*
X2368Y488D01*
X2370Y488D01*
X2370Y490D01*
X2374Y490D01*
X2374Y492D01*
X2376Y492D01*
X2376Y512D01*
X2374Y512D01*
X2374Y514D01*
X2372Y514D01*
X2372Y516D01*
X2370Y516D01*
X2370Y518D01*
X2366Y518D01*
X2366Y520D01*
X2364Y520D01*
X2364Y524D01*
X2362Y524D01*
X2362Y526D01*
X2360Y526D01*
X2360Y528D01*
X2358Y528D01*
X2358Y532D01*
X2356Y532D01*
X2356Y536D01*
X2354Y536D01*
X2354Y540D01*
X2352Y540D01*
X2352Y564D01*
X2354Y564D01*
X2354Y570D01*
X2356Y570D01*
X2356Y574D01*
X2358Y574D01*
X2358Y576D01*
X2360Y576D01*
X2360Y580D01*
X2362Y580D01*
X2362Y582D01*
X2364Y582D01*
X2364Y584D01*
X2366Y584D01*
X2366Y586D01*
X2368Y586D01*
X2368Y588D01*
X2370Y588D01*
X2370Y590D01*
X2374Y590D01*
X2374Y592D01*
X2376Y592D01*
X2376Y612D01*
X2374Y612D01*
X2374Y614D01*
X2372Y614D01*
X2372Y616D01*
X2370Y616D01*
X2370Y618D01*
X2366Y618D01*
X2366Y620D01*
X2364Y620D01*
X2364Y624D01*
X2362Y624D01*
X2362Y626D01*
X2360Y626D01*
X2360Y628D01*
X2358Y628D01*
X2358Y632D01*
X2356Y632D01*
X2356Y636D01*
X2354Y636D01*
X2354Y640D01*
X2352Y640D01*
X2352Y664D01*
X2354Y664D01*
X2354Y670D01*
X2356Y670D01*
X2356Y674D01*
X2358Y674D01*
X2358Y676D01*
X2360Y676D01*
X2360Y680D01*
X2362Y680D01*
X2362Y682D01*
X2364Y682D01*
X2364Y684D01*
X2366Y684D01*
X2366Y686D01*
X2368Y686D01*
X2368Y688D01*
X2370Y688D01*
X2370Y690D01*
X2374Y690D01*
X2374Y692D01*
X2376Y692D01*
X2376Y712D01*
X2374Y712D01*
X2374Y714D01*
X2372Y714D01*
X2372Y716D01*
X2370Y716D01*
X2370Y718D01*
X2366Y718D01*
X2366Y720D01*
X2364Y720D01*
X2364Y724D01*
X2362Y724D01*
X2362Y726D01*
X2360Y726D01*
X2360Y728D01*
X2358Y728D01*
X2358Y732D01*
X2356Y732D01*
X2356Y736D01*
X2354Y736D01*
X2354Y740D01*
X2352Y740D01*
X2352Y764D01*
X2354Y764D01*
X2354Y770D01*
X2356Y770D01*
X2356Y774D01*
X2358Y774D01*
X2358Y776D01*
X2360Y776D01*
X2360Y780D01*
X2362Y780D01*
X2362Y782D01*
X2364Y782D01*
X2364Y784D01*
X2366Y784D01*
X2366Y786D01*
X2368Y786D01*
X2368Y788D01*
X2370Y788D01*
X2370Y790D01*
X2374Y790D01*
X2374Y792D01*
X2376Y792D01*
X2376Y812D01*
X2374Y812D01*
X2374Y814D01*
X2372Y814D01*
X2372Y816D01*
X2370Y816D01*
X2370Y818D01*
X2366Y818D01*
X2366Y820D01*
X2364Y820D01*
X2364Y824D01*
X2362Y824D01*
X2362Y826D01*
X2360Y826D01*
X2360Y828D01*
X2358Y828D01*
X2358Y832D01*
X2356Y832D01*
X2356Y836D01*
X2354Y836D01*
X2354Y840D01*
X2352Y840D01*
X2352Y864D01*
X2354Y864D01*
X2354Y870D01*
X2356Y870D01*
X2356Y874D01*
X2358Y874D01*
X2358Y876D01*
X2360Y876D01*
X2360Y880D01*
X2362Y880D01*
X2362Y882D01*
X2364Y882D01*
X2364Y884D01*
X2366Y884D01*
X2366Y886D01*
X2368Y886D01*
X2368Y888D01*
X2370Y888D01*
X2370Y890D01*
X2374Y890D01*
X2374Y892D01*
X2376Y892D01*
X2376Y902D01*
X382Y902D01*
G37*
D02*
G36*
X2546Y454D02*
X2546Y450D01*
X2544Y450D01*
X2544Y440D01*
X2542Y440D01*
X2542Y434D01*
X2540Y434D01*
X2540Y432D01*
X2538Y432D01*
X2538Y428D01*
X2536Y428D01*
X2536Y426D01*
X2534Y426D01*
X2534Y422D01*
X2532Y422D01*
X2532Y420D01*
X2530Y420D01*
X2530Y418D01*
X2528Y418D01*
X2528Y416D01*
X2524Y416D01*
X2524Y414D01*
X2522Y414D01*
X2522Y412D01*
X2520Y412D01*
X2520Y392D01*
X2522Y392D01*
X2522Y390D01*
X2526Y390D01*
X2526Y388D01*
X2528Y388D01*
X2528Y386D01*
X2530Y386D01*
X2530Y384D01*
X2532Y384D01*
X2532Y382D01*
X2534Y382D01*
X2534Y380D01*
X2536Y380D01*
X2536Y376D01*
X2538Y376D01*
X2538Y374D01*
X2540Y374D01*
X2540Y370D01*
X2542Y370D01*
X2542Y364D01*
X2544Y364D01*
X2544Y356D01*
X2546Y356D01*
X2546Y350D01*
X2544Y350D01*
X2544Y340D01*
X2542Y340D01*
X2542Y334D01*
X2540Y334D01*
X2540Y332D01*
X2538Y332D01*
X2538Y328D01*
X2536Y328D01*
X2536Y326D01*
X2534Y326D01*
X2534Y322D01*
X2532Y322D01*
X2532Y320D01*
X2530Y320D01*
X2530Y300D01*
X2544Y300D01*
X2544Y298D01*
X2546Y298D01*
X2546Y206D01*
X2576Y206D01*
X2576Y444D01*
X2574Y444D01*
X2574Y446D01*
X2572Y446D01*
X2572Y448D01*
X2570Y448D01*
X2570Y450D01*
X2568Y450D01*
X2568Y452D01*
X2566Y452D01*
X2566Y454D01*
X2546Y454D01*
G37*
D02*
G36*
X2432Y222D02*
X2432Y220D01*
X2430Y220D01*
X2430Y218D01*
X2428Y218D01*
X2428Y216D01*
X2424Y216D01*
X2424Y214D01*
X2422Y214D01*
X2422Y212D01*
X2418Y212D01*
X2418Y210D01*
X2414Y210D01*
X2414Y208D01*
X2410Y208D01*
X2410Y206D01*
X2452Y206D01*
X2452Y222D01*
X2432Y222D01*
G37*
D02*
G36*
X982Y206D02*
X982Y204D01*
X2576Y204D01*
X2576Y206D01*
X982Y206D01*
G37*
D02*
G36*
X982Y206D02*
X982Y204D01*
X2576Y204D01*
X2576Y206D01*
X982Y206D01*
G37*
D02*
G36*
X982Y206D02*
X982Y204D01*
X2576Y204D01*
X2576Y206D01*
X982Y206D01*
G37*
D02*
G36*
X982Y204D02*
X982Y202D01*
X984Y202D01*
X984Y200D01*
X986Y200D01*
X986Y198D01*
X988Y198D01*
X988Y196D01*
X990Y196D01*
X990Y194D01*
X992Y194D01*
X992Y192D01*
X994Y192D01*
X994Y190D01*
X996Y190D01*
X996Y186D01*
X998Y186D01*
X998Y184D01*
X1000Y184D01*
X1000Y182D01*
X1002Y182D01*
X1002Y180D01*
X1004Y180D01*
X1004Y178D01*
X1006Y178D01*
X1006Y176D01*
X1008Y176D01*
X1008Y174D01*
X2576Y174D01*
X2576Y204D01*
X982Y204D01*
G37*
D02*
G36*
X138Y930D02*
X138Y928D01*
X136Y928D01*
X136Y924D01*
X134Y924D01*
X134Y922D01*
X132Y922D01*
X132Y920D01*
X130Y920D01*
X130Y918D01*
X128Y918D01*
X128Y916D01*
X126Y916D01*
X126Y914D01*
X122Y914D01*
X122Y912D01*
X120Y912D01*
X120Y910D01*
X116Y910D01*
X116Y908D01*
X110Y908D01*
X110Y906D01*
X102Y906D01*
X102Y904D01*
X194Y904D01*
X194Y906D01*
X186Y906D01*
X186Y908D01*
X180Y908D01*
X180Y910D01*
X176Y910D01*
X176Y912D01*
X174Y912D01*
X174Y914D01*
X170Y914D01*
X170Y916D01*
X168Y916D01*
X168Y918D01*
X166Y918D01*
X166Y920D01*
X164Y920D01*
X164Y922D01*
X162Y922D01*
X162Y924D01*
X160Y924D01*
X160Y928D01*
X158Y928D01*
X158Y930D01*
X138Y930D01*
G37*
D02*
G36*
X40Y928D02*
X40Y904D01*
X94Y904D01*
X94Y906D01*
X86Y906D01*
X86Y908D01*
X80Y908D01*
X80Y910D01*
X76Y910D01*
X76Y912D01*
X74Y912D01*
X74Y914D01*
X70Y914D01*
X70Y916D01*
X68Y916D01*
X68Y918D01*
X66Y918D01*
X66Y920D01*
X64Y920D01*
X64Y922D01*
X62Y922D01*
X62Y924D01*
X60Y924D01*
X60Y928D01*
X40Y928D01*
G37*
D02*
G36*
X40Y904D02*
X40Y902D01*
X212Y902D01*
X212Y904D01*
X40Y904D01*
G37*
D02*
G36*
X40Y904D02*
X40Y902D01*
X212Y902D01*
X212Y904D01*
X40Y904D01*
G37*
D02*
G36*
X40Y902D02*
X40Y276D01*
X204Y276D01*
X204Y274D01*
X216Y274D01*
X216Y272D01*
X222Y272D01*
X222Y270D01*
X226Y270D01*
X226Y268D01*
X230Y268D01*
X230Y266D01*
X234Y266D01*
X234Y264D01*
X238Y264D01*
X238Y262D01*
X240Y262D01*
X240Y260D01*
X242Y260D01*
X242Y258D01*
X246Y258D01*
X246Y256D01*
X248Y256D01*
X248Y254D01*
X250Y254D01*
X250Y252D01*
X252Y252D01*
X252Y250D01*
X254Y250D01*
X254Y246D01*
X256Y246D01*
X256Y244D01*
X258Y244D01*
X258Y242D01*
X260Y242D01*
X260Y238D01*
X262Y238D01*
X262Y234D01*
X264Y234D01*
X264Y230D01*
X266Y230D01*
X266Y226D01*
X268Y226D01*
X268Y218D01*
X270Y218D01*
X270Y206D01*
X272Y206D01*
X272Y198D01*
X270Y198D01*
X270Y186D01*
X268Y186D01*
X268Y180D01*
X266Y180D01*
X266Y174D01*
X264Y174D01*
X264Y170D01*
X262Y170D01*
X262Y166D01*
X260Y166D01*
X260Y164D01*
X258Y164D01*
X258Y160D01*
X256Y160D01*
X256Y158D01*
X254Y158D01*
X254Y156D01*
X252Y156D01*
X252Y152D01*
X250Y152D01*
X250Y150D01*
X246Y150D01*
X246Y148D01*
X244Y148D01*
X244Y146D01*
X242Y146D01*
X242Y144D01*
X240Y144D01*
X240Y142D01*
X236Y142D01*
X236Y140D01*
X234Y140D01*
X234Y138D01*
X230Y138D01*
X230Y136D01*
X226Y136D01*
X226Y134D01*
X220Y134D01*
X220Y132D01*
X214Y132D01*
X214Y130D01*
X894Y130D01*
X894Y132D01*
X892Y132D01*
X892Y134D01*
X890Y134D01*
X890Y136D01*
X888Y136D01*
X888Y138D01*
X886Y138D01*
X886Y140D01*
X884Y140D01*
X884Y142D01*
X882Y142D01*
X882Y146D01*
X880Y146D01*
X880Y148D01*
X878Y148D01*
X878Y150D01*
X876Y150D01*
X876Y152D01*
X874Y152D01*
X874Y154D01*
X872Y154D01*
X872Y156D01*
X870Y156D01*
X870Y158D01*
X868Y158D01*
X868Y162D01*
X866Y162D01*
X866Y164D01*
X864Y164D01*
X864Y166D01*
X862Y166D01*
X862Y168D01*
X860Y168D01*
X860Y170D01*
X858Y170D01*
X858Y172D01*
X856Y172D01*
X856Y174D01*
X854Y174D01*
X854Y176D01*
X852Y176D01*
X852Y180D01*
X850Y180D01*
X850Y182D01*
X848Y182D01*
X848Y184D01*
X846Y184D01*
X846Y186D01*
X844Y186D01*
X844Y188D01*
X842Y188D01*
X842Y190D01*
X840Y190D01*
X840Y192D01*
X838Y192D01*
X838Y196D01*
X836Y196D01*
X836Y198D01*
X834Y198D01*
X834Y200D01*
X832Y200D01*
X832Y202D01*
X830Y202D01*
X830Y204D01*
X828Y204D01*
X828Y206D01*
X826Y206D01*
X826Y208D01*
X824Y208D01*
X824Y210D01*
X822Y210D01*
X822Y214D01*
X820Y214D01*
X820Y216D01*
X818Y216D01*
X818Y218D01*
X816Y218D01*
X816Y220D01*
X814Y220D01*
X814Y222D01*
X812Y222D01*
X812Y224D01*
X810Y224D01*
X810Y226D01*
X808Y226D01*
X808Y230D01*
X806Y230D01*
X806Y232D01*
X804Y232D01*
X804Y234D01*
X802Y234D01*
X802Y236D01*
X800Y236D01*
X800Y238D01*
X798Y238D01*
X798Y240D01*
X796Y240D01*
X796Y242D01*
X794Y242D01*
X794Y244D01*
X792Y244D01*
X792Y248D01*
X790Y248D01*
X790Y250D01*
X788Y250D01*
X788Y252D01*
X786Y252D01*
X786Y254D01*
X784Y254D01*
X784Y256D01*
X782Y256D01*
X782Y258D01*
X780Y258D01*
X780Y260D01*
X778Y260D01*
X778Y264D01*
X776Y264D01*
X776Y266D01*
X774Y266D01*
X774Y268D01*
X772Y268D01*
X772Y270D01*
X770Y270D01*
X770Y272D01*
X768Y272D01*
X768Y274D01*
X766Y274D01*
X766Y276D01*
X764Y276D01*
X764Y278D01*
X762Y278D01*
X762Y282D01*
X760Y282D01*
X760Y284D01*
X758Y284D01*
X758Y286D01*
X756Y286D01*
X756Y288D01*
X754Y288D01*
X754Y290D01*
X752Y290D01*
X752Y292D01*
X750Y292D01*
X750Y294D01*
X748Y294D01*
X748Y298D01*
X746Y298D01*
X746Y300D01*
X744Y300D01*
X744Y302D01*
X742Y302D01*
X742Y304D01*
X740Y304D01*
X740Y306D01*
X738Y306D01*
X738Y308D01*
X736Y308D01*
X736Y310D01*
X734Y310D01*
X734Y312D01*
X732Y312D01*
X732Y316D01*
X730Y316D01*
X730Y318D01*
X728Y318D01*
X728Y320D01*
X726Y320D01*
X726Y322D01*
X724Y322D01*
X724Y324D01*
X722Y324D01*
X722Y326D01*
X720Y326D01*
X720Y328D01*
X718Y328D01*
X718Y332D01*
X716Y332D01*
X716Y334D01*
X714Y334D01*
X714Y336D01*
X712Y336D01*
X712Y338D01*
X710Y338D01*
X710Y340D01*
X708Y340D01*
X708Y342D01*
X706Y342D01*
X706Y344D01*
X704Y344D01*
X704Y346D01*
X702Y346D01*
X702Y350D01*
X700Y350D01*
X700Y352D01*
X698Y352D01*
X698Y354D01*
X696Y354D01*
X696Y356D01*
X694Y356D01*
X694Y358D01*
X692Y358D01*
X692Y360D01*
X690Y360D01*
X690Y362D01*
X688Y362D01*
X688Y366D01*
X686Y366D01*
X686Y368D01*
X684Y368D01*
X684Y370D01*
X682Y370D01*
X682Y372D01*
X680Y372D01*
X680Y374D01*
X678Y374D01*
X678Y376D01*
X676Y376D01*
X676Y378D01*
X674Y378D01*
X674Y380D01*
X672Y380D01*
X672Y384D01*
X670Y384D01*
X670Y386D01*
X668Y386D01*
X668Y388D01*
X666Y388D01*
X666Y390D01*
X664Y390D01*
X664Y392D01*
X662Y392D01*
X662Y394D01*
X660Y394D01*
X660Y396D01*
X658Y396D01*
X658Y400D01*
X656Y400D01*
X656Y402D01*
X654Y402D01*
X654Y404D01*
X652Y404D01*
X652Y406D01*
X650Y406D01*
X650Y408D01*
X648Y408D01*
X648Y410D01*
X646Y410D01*
X646Y412D01*
X644Y412D01*
X644Y414D01*
X642Y414D01*
X642Y418D01*
X640Y418D01*
X640Y420D01*
X638Y420D01*
X638Y422D01*
X636Y422D01*
X636Y424D01*
X634Y424D01*
X634Y426D01*
X632Y426D01*
X632Y428D01*
X630Y428D01*
X630Y430D01*
X628Y430D01*
X628Y434D01*
X626Y434D01*
X626Y436D01*
X624Y436D01*
X624Y438D01*
X622Y438D01*
X622Y440D01*
X620Y440D01*
X620Y442D01*
X618Y442D01*
X618Y444D01*
X616Y444D01*
X616Y446D01*
X614Y446D01*
X614Y448D01*
X612Y448D01*
X612Y452D01*
X610Y452D01*
X610Y454D01*
X608Y454D01*
X608Y456D01*
X606Y456D01*
X606Y458D01*
X604Y458D01*
X604Y460D01*
X602Y460D01*
X602Y462D01*
X600Y462D01*
X600Y464D01*
X598Y464D01*
X598Y466D01*
X596Y466D01*
X596Y470D01*
X594Y470D01*
X594Y472D01*
X592Y472D01*
X592Y474D01*
X590Y474D01*
X590Y476D01*
X588Y476D01*
X588Y478D01*
X586Y478D01*
X586Y480D01*
X584Y480D01*
X584Y482D01*
X582Y482D01*
X582Y486D01*
X580Y486D01*
X580Y488D01*
X578Y488D01*
X578Y490D01*
X576Y490D01*
X576Y492D01*
X574Y492D01*
X574Y494D01*
X572Y494D01*
X572Y496D01*
X570Y496D01*
X570Y498D01*
X568Y498D01*
X568Y500D01*
X566Y500D01*
X566Y504D01*
X564Y504D01*
X564Y506D01*
X562Y506D01*
X562Y508D01*
X560Y508D01*
X560Y510D01*
X558Y510D01*
X558Y512D01*
X556Y512D01*
X556Y514D01*
X554Y514D01*
X554Y516D01*
X552Y516D01*
X552Y520D01*
X550Y520D01*
X550Y522D01*
X548Y522D01*
X548Y524D01*
X546Y524D01*
X546Y526D01*
X544Y526D01*
X544Y528D01*
X542Y528D01*
X542Y530D01*
X540Y530D01*
X540Y532D01*
X538Y532D01*
X538Y534D01*
X536Y534D01*
X536Y538D01*
X534Y538D01*
X534Y540D01*
X532Y540D01*
X532Y542D01*
X530Y542D01*
X530Y544D01*
X528Y544D01*
X528Y546D01*
X526Y546D01*
X526Y548D01*
X524Y548D01*
X524Y550D01*
X522Y550D01*
X522Y554D01*
X520Y554D01*
X520Y556D01*
X518Y556D01*
X518Y558D01*
X516Y558D01*
X516Y560D01*
X514Y560D01*
X514Y562D01*
X512Y562D01*
X512Y564D01*
X510Y564D01*
X510Y566D01*
X508Y566D01*
X508Y568D01*
X506Y568D01*
X506Y572D01*
X504Y572D01*
X504Y574D01*
X502Y574D01*
X502Y576D01*
X500Y576D01*
X500Y578D01*
X498Y578D01*
X498Y580D01*
X496Y580D01*
X496Y582D01*
X494Y582D01*
X494Y584D01*
X492Y584D01*
X492Y588D01*
X490Y588D01*
X490Y590D01*
X488Y590D01*
X488Y592D01*
X486Y592D01*
X486Y594D01*
X484Y594D01*
X484Y596D01*
X482Y596D01*
X482Y598D01*
X480Y598D01*
X480Y600D01*
X478Y600D01*
X478Y602D01*
X476Y602D01*
X476Y606D01*
X474Y606D01*
X474Y608D01*
X472Y608D01*
X472Y610D01*
X470Y610D01*
X470Y612D01*
X468Y612D01*
X468Y614D01*
X466Y614D01*
X466Y616D01*
X464Y616D01*
X464Y618D01*
X462Y618D01*
X462Y622D01*
X460Y622D01*
X460Y624D01*
X458Y624D01*
X458Y626D01*
X456Y626D01*
X456Y628D01*
X454Y628D01*
X454Y630D01*
X452Y630D01*
X452Y632D01*
X450Y632D01*
X450Y634D01*
X448Y634D01*
X448Y636D01*
X446Y636D01*
X446Y640D01*
X444Y640D01*
X444Y642D01*
X442Y642D01*
X442Y644D01*
X440Y644D01*
X440Y646D01*
X438Y646D01*
X438Y648D01*
X436Y648D01*
X436Y650D01*
X434Y650D01*
X434Y652D01*
X432Y652D01*
X432Y656D01*
X430Y656D01*
X430Y658D01*
X428Y658D01*
X428Y660D01*
X426Y660D01*
X426Y662D01*
X424Y662D01*
X424Y664D01*
X422Y664D01*
X422Y666D01*
X420Y666D01*
X420Y668D01*
X418Y668D01*
X418Y670D01*
X416Y670D01*
X416Y674D01*
X414Y674D01*
X414Y676D01*
X412Y676D01*
X412Y678D01*
X410Y678D01*
X410Y680D01*
X408Y680D01*
X408Y682D01*
X406Y682D01*
X406Y684D01*
X404Y684D01*
X404Y686D01*
X402Y686D01*
X402Y690D01*
X400Y690D01*
X400Y692D01*
X398Y692D01*
X398Y694D01*
X396Y694D01*
X396Y696D01*
X394Y696D01*
X394Y698D01*
X392Y698D01*
X392Y700D01*
X390Y700D01*
X390Y702D01*
X388Y702D01*
X388Y704D01*
X386Y704D01*
X386Y708D01*
X384Y708D01*
X384Y710D01*
X382Y710D01*
X382Y712D01*
X380Y712D01*
X380Y714D01*
X378Y714D01*
X378Y716D01*
X376Y716D01*
X376Y718D01*
X374Y718D01*
X374Y720D01*
X372Y720D01*
X372Y724D01*
X370Y724D01*
X370Y726D01*
X368Y726D01*
X368Y728D01*
X366Y728D01*
X366Y730D01*
X364Y730D01*
X364Y732D01*
X362Y732D01*
X362Y734D01*
X360Y734D01*
X360Y736D01*
X358Y736D01*
X358Y738D01*
X356Y738D01*
X356Y742D01*
X354Y742D01*
X354Y744D01*
X352Y744D01*
X352Y746D01*
X350Y746D01*
X350Y748D01*
X348Y748D01*
X348Y750D01*
X346Y750D01*
X346Y752D01*
X344Y752D01*
X344Y754D01*
X342Y754D01*
X342Y758D01*
X340Y758D01*
X340Y760D01*
X338Y760D01*
X338Y762D01*
X336Y762D01*
X336Y764D01*
X334Y764D01*
X334Y766D01*
X332Y766D01*
X332Y768D01*
X330Y768D01*
X330Y770D01*
X328Y770D01*
X328Y772D01*
X326Y772D01*
X326Y776D01*
X324Y776D01*
X324Y778D01*
X322Y778D01*
X322Y780D01*
X320Y780D01*
X320Y782D01*
X318Y782D01*
X318Y784D01*
X316Y784D01*
X316Y786D01*
X314Y786D01*
X314Y788D01*
X312Y788D01*
X312Y792D01*
X310Y792D01*
X310Y794D01*
X308Y794D01*
X308Y796D01*
X306Y796D01*
X306Y798D01*
X304Y798D01*
X304Y800D01*
X302Y800D01*
X302Y802D01*
X300Y802D01*
X300Y804D01*
X298Y804D01*
X298Y806D01*
X296Y806D01*
X296Y810D01*
X294Y810D01*
X294Y812D01*
X292Y812D01*
X292Y814D01*
X290Y814D01*
X290Y816D01*
X288Y816D01*
X288Y818D01*
X286Y818D01*
X286Y820D01*
X284Y820D01*
X284Y822D01*
X282Y822D01*
X282Y826D01*
X280Y826D01*
X280Y828D01*
X278Y828D01*
X278Y830D01*
X276Y830D01*
X276Y832D01*
X274Y832D01*
X274Y834D01*
X272Y834D01*
X272Y836D01*
X270Y836D01*
X270Y838D01*
X268Y838D01*
X268Y840D01*
X266Y840D01*
X266Y844D01*
X264Y844D01*
X264Y846D01*
X262Y846D01*
X262Y848D01*
X260Y848D01*
X260Y850D01*
X258Y850D01*
X258Y852D01*
X256Y852D01*
X256Y854D01*
X254Y854D01*
X254Y856D01*
X252Y856D01*
X252Y860D01*
X250Y860D01*
X250Y862D01*
X248Y862D01*
X248Y864D01*
X246Y864D01*
X246Y866D01*
X244Y866D01*
X244Y868D01*
X242Y868D01*
X242Y870D01*
X240Y870D01*
X240Y872D01*
X238Y872D01*
X238Y874D01*
X236Y874D01*
X236Y878D01*
X234Y878D01*
X234Y880D01*
X232Y880D01*
X232Y882D01*
X230Y882D01*
X230Y884D01*
X228Y884D01*
X228Y886D01*
X226Y886D01*
X226Y888D01*
X224Y888D01*
X224Y890D01*
X222Y890D01*
X222Y894D01*
X220Y894D01*
X220Y896D01*
X218Y896D01*
X218Y898D01*
X216Y898D01*
X216Y900D01*
X214Y900D01*
X214Y902D01*
X40Y902D01*
G37*
D02*
G36*
X40Y276D02*
X40Y130D01*
X182Y130D01*
X182Y132D01*
X176Y132D01*
X176Y134D01*
X170Y134D01*
X170Y136D01*
X166Y136D01*
X166Y138D01*
X162Y138D01*
X162Y140D01*
X160Y140D01*
X160Y142D01*
X156Y142D01*
X156Y144D01*
X154Y144D01*
X154Y146D01*
X152Y146D01*
X152Y148D01*
X150Y148D01*
X150Y150D01*
X148Y150D01*
X148Y152D01*
X146Y152D01*
X146Y154D01*
X144Y154D01*
X144Y156D01*
X142Y156D01*
X142Y158D01*
X140Y158D01*
X140Y160D01*
X138Y160D01*
X138Y164D01*
X136Y164D01*
X136Y166D01*
X134Y166D01*
X134Y170D01*
X132Y170D01*
X132Y174D01*
X130Y174D01*
X130Y180D01*
X128Y180D01*
X128Y186D01*
X126Y186D01*
X126Y218D01*
X128Y218D01*
X128Y224D01*
X130Y224D01*
X130Y230D01*
X132Y230D01*
X132Y234D01*
X134Y234D01*
X134Y238D01*
X136Y238D01*
X136Y242D01*
X138Y242D01*
X138Y244D01*
X140Y244D01*
X140Y246D01*
X142Y246D01*
X142Y248D01*
X144Y248D01*
X144Y252D01*
X146Y252D01*
X146Y254D01*
X148Y254D01*
X148Y256D01*
X150Y256D01*
X150Y258D01*
X154Y258D01*
X154Y260D01*
X156Y260D01*
X156Y262D01*
X158Y262D01*
X158Y264D01*
X162Y264D01*
X162Y266D01*
X166Y266D01*
X166Y268D01*
X170Y268D01*
X170Y270D01*
X174Y270D01*
X174Y272D01*
X180Y272D01*
X180Y274D01*
X192Y274D01*
X192Y276D01*
X40Y276D01*
G37*
D02*
G36*
X40Y130D02*
X40Y128D01*
X896Y128D01*
X896Y130D01*
X40Y130D01*
G37*
D02*
G36*
X40Y130D02*
X40Y128D01*
X896Y128D01*
X896Y130D01*
X40Y130D01*
G37*
D02*
G36*
X40Y128D02*
X40Y78D01*
X948Y78D01*
X948Y80D01*
X940Y80D01*
X940Y82D01*
X936Y82D01*
X936Y84D01*
X934Y84D01*
X934Y86D01*
X932Y86D01*
X932Y88D01*
X930Y88D01*
X930Y90D01*
X928Y90D01*
X928Y94D01*
X926Y94D01*
X926Y96D01*
X924Y96D01*
X924Y98D01*
X922Y98D01*
X922Y100D01*
X920Y100D01*
X920Y102D01*
X918Y102D01*
X918Y104D01*
X916Y104D01*
X916Y106D01*
X914Y106D01*
X914Y108D01*
X912Y108D01*
X912Y112D01*
X910Y112D01*
X910Y114D01*
X908Y114D01*
X908Y116D01*
X906Y116D01*
X906Y118D01*
X904Y118D01*
X904Y120D01*
X902Y120D01*
X902Y122D01*
X900Y122D01*
X900Y124D01*
X898Y124D01*
X898Y128D01*
X40Y128D01*
G37*
D02*
G36*
X2660Y84D02*
X2660Y82D01*
X2656Y82D01*
X2656Y80D01*
X2650Y80D01*
X2650Y78D01*
X2680Y78D01*
X2680Y84D01*
X2660Y84D01*
G37*
D02*
G36*
X40Y78D02*
X40Y76D01*
X2680Y76D01*
X2680Y78D01*
X40Y78D01*
G37*
D02*
G36*
X40Y78D02*
X40Y76D01*
X2680Y76D01*
X2680Y78D01*
X40Y78D01*
G37*
D02*
G36*
X40Y76D02*
X40Y40D01*
X2680Y40D01*
X2680Y76D01*
X40Y76D01*
G37*
D02*
G36*
X284Y904D02*
X284Y888D01*
X286Y888D01*
X286Y884D01*
X288Y884D01*
X288Y882D01*
X290Y882D01*
X290Y880D01*
X292Y880D01*
X292Y878D01*
X294Y878D01*
X294Y876D01*
X296Y876D01*
X296Y874D01*
X298Y874D01*
X298Y872D01*
X300Y872D01*
X300Y868D01*
X302Y868D01*
X302Y866D01*
X304Y866D01*
X304Y864D01*
X306Y864D01*
X306Y862D01*
X308Y862D01*
X308Y860D01*
X310Y860D01*
X310Y858D01*
X312Y858D01*
X312Y856D01*
X314Y856D01*
X314Y854D01*
X316Y854D01*
X316Y850D01*
X318Y850D01*
X318Y848D01*
X320Y848D01*
X320Y846D01*
X322Y846D01*
X322Y844D01*
X324Y844D01*
X324Y842D01*
X326Y842D01*
X326Y840D01*
X328Y840D01*
X328Y838D01*
X330Y838D01*
X330Y834D01*
X332Y834D01*
X332Y832D01*
X334Y832D01*
X334Y830D01*
X336Y830D01*
X336Y828D01*
X338Y828D01*
X338Y826D01*
X340Y826D01*
X340Y824D01*
X342Y824D01*
X342Y822D01*
X344Y822D01*
X344Y820D01*
X346Y820D01*
X346Y816D01*
X348Y816D01*
X348Y814D01*
X350Y814D01*
X350Y812D01*
X352Y812D01*
X352Y810D01*
X354Y810D01*
X354Y808D01*
X356Y808D01*
X356Y806D01*
X358Y806D01*
X358Y804D01*
X360Y804D01*
X360Y800D01*
X362Y800D01*
X362Y798D01*
X364Y798D01*
X364Y796D01*
X366Y796D01*
X366Y794D01*
X368Y794D01*
X368Y792D01*
X370Y792D01*
X370Y790D01*
X372Y790D01*
X372Y788D01*
X374Y788D01*
X374Y786D01*
X376Y786D01*
X376Y782D01*
X378Y782D01*
X378Y780D01*
X380Y780D01*
X380Y778D01*
X382Y778D01*
X382Y776D01*
X384Y776D01*
X384Y774D01*
X386Y774D01*
X386Y772D01*
X388Y772D01*
X388Y770D01*
X390Y770D01*
X390Y766D01*
X392Y766D01*
X392Y764D01*
X394Y764D01*
X394Y762D01*
X396Y762D01*
X396Y760D01*
X398Y760D01*
X398Y758D01*
X400Y758D01*
X400Y756D01*
X402Y756D01*
X402Y754D01*
X404Y754D01*
X404Y752D01*
X406Y752D01*
X406Y748D01*
X408Y748D01*
X408Y746D01*
X410Y746D01*
X410Y744D01*
X412Y744D01*
X412Y742D01*
X414Y742D01*
X414Y740D01*
X416Y740D01*
X416Y738D01*
X418Y738D01*
X418Y736D01*
X420Y736D01*
X420Y732D01*
X422Y732D01*
X422Y730D01*
X424Y730D01*
X424Y728D01*
X426Y728D01*
X426Y726D01*
X428Y726D01*
X428Y724D01*
X430Y724D01*
X430Y722D01*
X432Y722D01*
X432Y720D01*
X434Y720D01*
X434Y718D01*
X436Y718D01*
X436Y714D01*
X438Y714D01*
X438Y712D01*
X440Y712D01*
X440Y710D01*
X442Y710D01*
X442Y708D01*
X444Y708D01*
X444Y706D01*
X446Y706D01*
X446Y704D01*
X448Y704D01*
X448Y702D01*
X450Y702D01*
X450Y698D01*
X452Y698D01*
X452Y696D01*
X454Y696D01*
X454Y694D01*
X456Y694D01*
X456Y692D01*
X458Y692D01*
X458Y690D01*
X460Y690D01*
X460Y688D01*
X462Y688D01*
X462Y686D01*
X464Y686D01*
X464Y684D01*
X466Y684D01*
X466Y680D01*
X468Y680D01*
X468Y678D01*
X470Y678D01*
X470Y676D01*
X472Y676D01*
X472Y674D01*
X474Y674D01*
X474Y672D01*
X476Y672D01*
X476Y670D01*
X478Y670D01*
X478Y668D01*
X480Y668D01*
X480Y664D01*
X482Y664D01*
X482Y662D01*
X484Y662D01*
X484Y660D01*
X486Y660D01*
X486Y658D01*
X488Y658D01*
X488Y656D01*
X490Y656D01*
X490Y654D01*
X492Y654D01*
X492Y652D01*
X494Y652D01*
X494Y650D01*
X496Y650D01*
X496Y646D01*
X498Y646D01*
X498Y644D01*
X500Y644D01*
X500Y642D01*
X502Y642D01*
X502Y640D01*
X504Y640D01*
X504Y638D01*
X506Y638D01*
X506Y636D01*
X508Y636D01*
X508Y634D01*
X510Y634D01*
X510Y630D01*
X512Y630D01*
X512Y628D01*
X514Y628D01*
X514Y626D01*
X516Y626D01*
X516Y624D01*
X518Y624D01*
X518Y622D01*
X520Y622D01*
X520Y620D01*
X522Y620D01*
X522Y618D01*
X524Y618D01*
X524Y616D01*
X526Y616D01*
X526Y612D01*
X528Y612D01*
X528Y610D01*
X530Y610D01*
X530Y608D01*
X532Y608D01*
X532Y606D01*
X534Y606D01*
X534Y604D01*
X536Y604D01*
X536Y602D01*
X538Y602D01*
X538Y600D01*
X540Y600D01*
X540Y596D01*
X542Y596D01*
X542Y594D01*
X544Y594D01*
X544Y592D01*
X546Y592D01*
X546Y590D01*
X548Y590D01*
X548Y588D01*
X550Y588D01*
X550Y586D01*
X552Y586D01*
X552Y584D01*
X554Y584D01*
X554Y582D01*
X556Y582D01*
X556Y578D01*
X558Y578D01*
X558Y576D01*
X560Y576D01*
X560Y574D01*
X562Y574D01*
X562Y572D01*
X564Y572D01*
X564Y570D01*
X566Y570D01*
X566Y568D01*
X568Y568D01*
X568Y566D01*
X570Y566D01*
X570Y562D01*
X572Y562D01*
X572Y560D01*
X574Y560D01*
X574Y558D01*
X576Y558D01*
X576Y556D01*
X578Y556D01*
X578Y554D01*
X580Y554D01*
X580Y552D01*
X582Y552D01*
X582Y550D01*
X584Y550D01*
X584Y548D01*
X586Y548D01*
X586Y544D01*
X588Y544D01*
X588Y542D01*
X590Y542D01*
X590Y540D01*
X592Y540D01*
X592Y538D01*
X594Y538D01*
X594Y536D01*
X596Y536D01*
X596Y534D01*
X598Y534D01*
X598Y532D01*
X600Y532D01*
X600Y528D01*
X602Y528D01*
X602Y526D01*
X604Y526D01*
X604Y524D01*
X606Y524D01*
X606Y522D01*
X608Y522D01*
X608Y520D01*
X610Y520D01*
X610Y518D01*
X612Y518D01*
X612Y516D01*
X614Y516D01*
X614Y514D01*
X616Y514D01*
X616Y510D01*
X618Y510D01*
X618Y508D01*
X620Y508D01*
X620Y506D01*
X622Y506D01*
X622Y504D01*
X624Y504D01*
X624Y502D01*
X626Y502D01*
X626Y500D01*
X628Y500D01*
X628Y498D01*
X630Y498D01*
X630Y494D01*
X632Y494D01*
X632Y492D01*
X634Y492D01*
X634Y490D01*
X636Y490D01*
X636Y488D01*
X638Y488D01*
X638Y486D01*
X640Y486D01*
X640Y484D01*
X642Y484D01*
X642Y482D01*
X644Y482D01*
X644Y480D01*
X646Y480D01*
X646Y476D01*
X648Y476D01*
X648Y474D01*
X650Y474D01*
X650Y472D01*
X652Y472D01*
X652Y470D01*
X654Y470D01*
X654Y468D01*
X656Y468D01*
X656Y466D01*
X658Y466D01*
X658Y464D01*
X660Y464D01*
X660Y460D01*
X662Y460D01*
X662Y458D01*
X664Y458D01*
X664Y456D01*
X666Y456D01*
X666Y454D01*
X668Y454D01*
X668Y452D01*
X670Y452D01*
X670Y450D01*
X672Y450D01*
X672Y448D01*
X674Y448D01*
X674Y446D01*
X676Y446D01*
X676Y442D01*
X678Y442D01*
X678Y440D01*
X680Y440D01*
X680Y438D01*
X682Y438D01*
X682Y436D01*
X684Y436D01*
X684Y434D01*
X686Y434D01*
X686Y432D01*
X688Y432D01*
X688Y430D01*
X690Y430D01*
X690Y426D01*
X692Y426D01*
X692Y424D01*
X694Y424D01*
X694Y422D01*
X696Y422D01*
X696Y420D01*
X698Y420D01*
X698Y418D01*
X700Y418D01*
X700Y416D01*
X702Y416D01*
X702Y414D01*
X704Y414D01*
X704Y412D01*
X706Y412D01*
X706Y408D01*
X708Y408D01*
X708Y406D01*
X710Y406D01*
X710Y404D01*
X712Y404D01*
X712Y402D01*
X714Y402D01*
X714Y400D01*
X716Y400D01*
X716Y398D01*
X718Y398D01*
X718Y396D01*
X720Y396D01*
X720Y392D01*
X722Y392D01*
X722Y390D01*
X724Y390D01*
X724Y388D01*
X726Y388D01*
X726Y386D01*
X728Y386D01*
X728Y384D01*
X730Y384D01*
X730Y382D01*
X732Y382D01*
X732Y380D01*
X734Y380D01*
X734Y378D01*
X736Y378D01*
X736Y374D01*
X738Y374D01*
X738Y372D01*
X740Y372D01*
X740Y370D01*
X742Y370D01*
X742Y368D01*
X744Y368D01*
X744Y366D01*
X746Y366D01*
X746Y364D01*
X748Y364D01*
X748Y362D01*
X750Y362D01*
X750Y358D01*
X752Y358D01*
X752Y356D01*
X754Y356D01*
X754Y354D01*
X756Y354D01*
X756Y352D01*
X758Y352D01*
X758Y350D01*
X760Y350D01*
X760Y348D01*
X762Y348D01*
X762Y346D01*
X764Y346D01*
X764Y344D01*
X766Y344D01*
X766Y340D01*
X768Y340D01*
X768Y338D01*
X770Y338D01*
X770Y336D01*
X772Y336D01*
X772Y334D01*
X774Y334D01*
X774Y332D01*
X776Y332D01*
X776Y330D01*
X778Y330D01*
X778Y328D01*
X780Y328D01*
X780Y324D01*
X782Y324D01*
X782Y322D01*
X784Y322D01*
X784Y320D01*
X786Y320D01*
X786Y318D01*
X788Y318D01*
X788Y316D01*
X790Y316D01*
X790Y314D01*
X792Y314D01*
X792Y312D01*
X794Y312D01*
X794Y310D01*
X796Y310D01*
X796Y306D01*
X798Y306D01*
X798Y304D01*
X800Y304D01*
X800Y302D01*
X802Y302D01*
X802Y300D01*
X804Y300D01*
X804Y298D01*
X806Y298D01*
X806Y296D01*
X808Y296D01*
X808Y294D01*
X810Y294D01*
X810Y292D01*
X812Y292D01*
X812Y288D01*
X814Y288D01*
X814Y286D01*
X816Y286D01*
X816Y284D01*
X818Y284D01*
X818Y282D01*
X820Y282D01*
X820Y280D01*
X822Y280D01*
X822Y278D01*
X824Y278D01*
X824Y276D01*
X826Y276D01*
X826Y272D01*
X828Y272D01*
X828Y270D01*
X830Y270D01*
X830Y268D01*
X832Y268D01*
X832Y266D01*
X834Y266D01*
X834Y264D01*
X836Y264D01*
X836Y262D01*
X838Y262D01*
X838Y260D01*
X840Y260D01*
X840Y258D01*
X842Y258D01*
X842Y254D01*
X844Y254D01*
X844Y252D01*
X846Y252D01*
X846Y250D01*
X848Y250D01*
X848Y248D01*
X850Y248D01*
X850Y246D01*
X852Y246D01*
X852Y244D01*
X854Y244D01*
X854Y242D01*
X856Y242D01*
X856Y238D01*
X858Y238D01*
X858Y236D01*
X860Y236D01*
X860Y234D01*
X862Y234D01*
X862Y232D01*
X864Y232D01*
X864Y230D01*
X866Y230D01*
X866Y228D01*
X868Y228D01*
X868Y226D01*
X870Y226D01*
X870Y224D01*
X872Y224D01*
X872Y220D01*
X874Y220D01*
X874Y218D01*
X876Y218D01*
X876Y216D01*
X878Y216D01*
X878Y214D01*
X880Y214D01*
X880Y212D01*
X882Y212D01*
X882Y210D01*
X884Y210D01*
X884Y208D01*
X886Y208D01*
X886Y204D01*
X888Y204D01*
X888Y202D01*
X890Y202D01*
X890Y200D01*
X892Y200D01*
X892Y198D01*
X894Y198D01*
X894Y196D01*
X896Y196D01*
X896Y194D01*
X898Y194D01*
X898Y192D01*
X900Y192D01*
X900Y190D01*
X902Y190D01*
X902Y186D01*
X904Y186D01*
X904Y184D01*
X906Y184D01*
X906Y182D01*
X908Y182D01*
X908Y180D01*
X910Y180D01*
X910Y178D01*
X912Y178D01*
X912Y176D01*
X914Y176D01*
X914Y174D01*
X916Y174D01*
X916Y170D01*
X918Y170D01*
X918Y168D01*
X920Y168D01*
X920Y166D01*
X922Y166D01*
X922Y164D01*
X924Y164D01*
X924Y162D01*
X926Y162D01*
X926Y160D01*
X928Y160D01*
X928Y158D01*
X930Y158D01*
X930Y156D01*
X932Y156D01*
X932Y152D01*
X934Y152D01*
X934Y150D01*
X936Y150D01*
X936Y148D01*
X938Y148D01*
X938Y146D01*
X940Y146D01*
X940Y144D01*
X942Y144D01*
X942Y142D01*
X944Y142D01*
X944Y140D01*
X946Y140D01*
X946Y136D01*
X948Y136D01*
X948Y134D01*
X950Y134D01*
X950Y132D01*
X952Y132D01*
X952Y130D01*
X954Y130D01*
X954Y128D01*
X956Y128D01*
X956Y126D01*
X958Y126D01*
X958Y124D01*
X978Y124D01*
X978Y142D01*
X976Y142D01*
X976Y146D01*
X974Y146D01*
X974Y148D01*
X972Y148D01*
X972Y150D01*
X970Y150D01*
X970Y152D01*
X968Y152D01*
X968Y154D01*
X966Y154D01*
X966Y156D01*
X964Y156D01*
X964Y158D01*
X962Y158D01*
X962Y162D01*
X960Y162D01*
X960Y164D01*
X958Y164D01*
X958Y166D01*
X956Y166D01*
X956Y168D01*
X954Y168D01*
X954Y170D01*
X952Y170D01*
X952Y172D01*
X950Y172D01*
X950Y174D01*
X948Y174D01*
X948Y178D01*
X946Y178D01*
X946Y180D01*
X944Y180D01*
X944Y182D01*
X942Y182D01*
X942Y184D01*
X940Y184D01*
X940Y186D01*
X938Y186D01*
X938Y188D01*
X936Y188D01*
X936Y190D01*
X934Y190D01*
X934Y194D01*
X932Y194D01*
X932Y196D01*
X930Y196D01*
X930Y198D01*
X928Y198D01*
X928Y200D01*
X926Y200D01*
X926Y202D01*
X924Y202D01*
X924Y204D01*
X922Y204D01*
X922Y206D01*
X920Y206D01*
X920Y210D01*
X918Y210D01*
X918Y212D01*
X916Y212D01*
X916Y214D01*
X914Y214D01*
X914Y216D01*
X912Y216D01*
X912Y218D01*
X910Y218D01*
X910Y220D01*
X908Y220D01*
X908Y222D01*
X906Y222D01*
X906Y226D01*
X904Y226D01*
X904Y228D01*
X902Y228D01*
X902Y230D01*
X900Y230D01*
X900Y232D01*
X898Y232D01*
X898Y234D01*
X896Y234D01*
X896Y236D01*
X894Y236D01*
X894Y238D01*
X892Y238D01*
X892Y242D01*
X890Y242D01*
X890Y244D01*
X888Y244D01*
X888Y246D01*
X886Y246D01*
X886Y248D01*
X884Y248D01*
X884Y250D01*
X882Y250D01*
X882Y252D01*
X880Y252D01*
X880Y254D01*
X878Y254D01*
X878Y258D01*
X876Y258D01*
X876Y260D01*
X874Y260D01*
X874Y262D01*
X872Y262D01*
X872Y264D01*
X870Y264D01*
X870Y266D01*
X868Y266D01*
X868Y268D01*
X866Y268D01*
X866Y270D01*
X864Y270D01*
X864Y274D01*
X862Y274D01*
X862Y276D01*
X860Y276D01*
X860Y278D01*
X858Y278D01*
X858Y280D01*
X856Y280D01*
X856Y282D01*
X854Y282D01*
X854Y284D01*
X852Y284D01*
X852Y286D01*
X850Y286D01*
X850Y290D01*
X848Y290D01*
X848Y292D01*
X846Y292D01*
X846Y294D01*
X844Y294D01*
X844Y296D01*
X842Y296D01*
X842Y298D01*
X840Y298D01*
X840Y300D01*
X838Y300D01*
X838Y302D01*
X836Y302D01*
X836Y306D01*
X834Y306D01*
X834Y308D01*
X832Y308D01*
X832Y310D01*
X830Y310D01*
X830Y312D01*
X828Y312D01*
X828Y314D01*
X826Y314D01*
X826Y316D01*
X824Y316D01*
X824Y318D01*
X822Y318D01*
X822Y322D01*
X820Y322D01*
X820Y324D01*
X818Y324D01*
X818Y326D01*
X816Y326D01*
X816Y328D01*
X814Y328D01*
X814Y330D01*
X812Y330D01*
X812Y332D01*
X810Y332D01*
X810Y334D01*
X808Y334D01*
X808Y338D01*
X806Y338D01*
X806Y340D01*
X804Y340D01*
X804Y342D01*
X802Y342D01*
X802Y344D01*
X800Y344D01*
X800Y346D01*
X798Y346D01*
X798Y348D01*
X796Y348D01*
X796Y350D01*
X794Y350D01*
X794Y354D01*
X792Y354D01*
X792Y356D01*
X790Y356D01*
X790Y358D01*
X788Y358D01*
X788Y360D01*
X786Y360D01*
X786Y362D01*
X784Y362D01*
X784Y364D01*
X782Y364D01*
X782Y366D01*
X780Y366D01*
X780Y370D01*
X778Y370D01*
X778Y372D01*
X776Y372D01*
X776Y374D01*
X774Y374D01*
X774Y376D01*
X772Y376D01*
X772Y378D01*
X770Y378D01*
X770Y380D01*
X768Y380D01*
X768Y382D01*
X766Y382D01*
X766Y386D01*
X764Y386D01*
X764Y388D01*
X762Y388D01*
X762Y390D01*
X760Y390D01*
X760Y392D01*
X758Y392D01*
X758Y394D01*
X756Y394D01*
X756Y396D01*
X754Y396D01*
X754Y398D01*
X752Y398D01*
X752Y402D01*
X750Y402D01*
X750Y404D01*
X748Y404D01*
X748Y406D01*
X746Y406D01*
X746Y408D01*
X744Y408D01*
X744Y410D01*
X742Y410D01*
X742Y412D01*
X740Y412D01*
X740Y414D01*
X738Y414D01*
X738Y418D01*
X736Y418D01*
X736Y420D01*
X734Y420D01*
X734Y422D01*
X732Y422D01*
X732Y424D01*
X730Y424D01*
X730Y426D01*
X728Y426D01*
X728Y428D01*
X726Y428D01*
X726Y430D01*
X724Y430D01*
X724Y434D01*
X722Y434D01*
X722Y436D01*
X720Y436D01*
X720Y438D01*
X718Y438D01*
X718Y440D01*
X716Y440D01*
X716Y442D01*
X714Y442D01*
X714Y444D01*
X712Y444D01*
X712Y446D01*
X710Y446D01*
X710Y450D01*
X708Y450D01*
X708Y452D01*
X706Y452D01*
X706Y454D01*
X704Y454D01*
X704Y456D01*
X702Y456D01*
X702Y458D01*
X700Y458D01*
X700Y460D01*
X698Y460D01*
X698Y462D01*
X696Y462D01*
X696Y466D01*
X694Y466D01*
X694Y468D01*
X692Y468D01*
X692Y470D01*
X690Y470D01*
X690Y472D01*
X688Y472D01*
X688Y474D01*
X686Y474D01*
X686Y476D01*
X684Y476D01*
X684Y478D01*
X682Y478D01*
X682Y482D01*
X680Y482D01*
X680Y484D01*
X678Y484D01*
X678Y486D01*
X676Y486D01*
X676Y488D01*
X674Y488D01*
X674Y490D01*
X672Y490D01*
X672Y492D01*
X670Y492D01*
X670Y494D01*
X668Y494D01*
X668Y498D01*
X666Y498D01*
X666Y500D01*
X664Y500D01*
X664Y502D01*
X662Y502D01*
X662Y504D01*
X660Y504D01*
X660Y506D01*
X658Y506D01*
X658Y508D01*
X656Y508D01*
X656Y510D01*
X654Y510D01*
X654Y514D01*
X652Y514D01*
X652Y516D01*
X650Y516D01*
X650Y518D01*
X648Y518D01*
X648Y520D01*
X646Y520D01*
X646Y522D01*
X644Y522D01*
X644Y524D01*
X642Y524D01*
X642Y526D01*
X640Y526D01*
X640Y530D01*
X638Y530D01*
X638Y532D01*
X636Y532D01*
X636Y534D01*
X634Y534D01*
X634Y536D01*
X632Y536D01*
X632Y538D01*
X630Y538D01*
X630Y540D01*
X628Y540D01*
X628Y542D01*
X626Y542D01*
X626Y546D01*
X624Y546D01*
X624Y548D01*
X622Y548D01*
X622Y550D01*
X620Y550D01*
X620Y552D01*
X618Y552D01*
X618Y554D01*
X616Y554D01*
X616Y556D01*
X614Y556D01*
X614Y558D01*
X612Y558D01*
X612Y562D01*
X610Y562D01*
X610Y564D01*
X608Y564D01*
X608Y566D01*
X606Y566D01*
X606Y568D01*
X604Y568D01*
X604Y570D01*
X602Y570D01*
X602Y572D01*
X600Y572D01*
X600Y574D01*
X598Y574D01*
X598Y578D01*
X596Y578D01*
X596Y580D01*
X594Y580D01*
X594Y582D01*
X592Y582D01*
X592Y584D01*
X590Y584D01*
X590Y586D01*
X588Y586D01*
X588Y588D01*
X586Y588D01*
X586Y590D01*
X584Y590D01*
X584Y594D01*
X582Y594D01*
X582Y596D01*
X580Y596D01*
X580Y598D01*
X578Y598D01*
X578Y600D01*
X576Y600D01*
X576Y602D01*
X574Y602D01*
X574Y604D01*
X572Y604D01*
X572Y606D01*
X570Y606D01*
X570Y610D01*
X568Y610D01*
X568Y612D01*
X566Y612D01*
X566Y614D01*
X564Y614D01*
X564Y616D01*
X562Y616D01*
X562Y618D01*
X560Y618D01*
X560Y620D01*
X558Y620D01*
X558Y622D01*
X556Y622D01*
X556Y626D01*
X554Y626D01*
X554Y628D01*
X552Y628D01*
X552Y630D01*
X550Y630D01*
X550Y632D01*
X548Y632D01*
X548Y634D01*
X546Y634D01*
X546Y636D01*
X544Y636D01*
X544Y638D01*
X542Y638D01*
X542Y642D01*
X540Y642D01*
X540Y644D01*
X538Y644D01*
X538Y646D01*
X536Y646D01*
X536Y648D01*
X534Y648D01*
X534Y650D01*
X532Y650D01*
X532Y652D01*
X530Y652D01*
X530Y654D01*
X528Y654D01*
X528Y658D01*
X526Y658D01*
X526Y660D01*
X524Y660D01*
X524Y662D01*
X522Y662D01*
X522Y664D01*
X520Y664D01*
X520Y666D01*
X518Y666D01*
X518Y668D01*
X516Y668D01*
X516Y670D01*
X514Y670D01*
X514Y674D01*
X512Y674D01*
X512Y676D01*
X510Y676D01*
X510Y678D01*
X508Y678D01*
X508Y680D01*
X506Y680D01*
X506Y682D01*
X504Y682D01*
X504Y684D01*
X502Y684D01*
X502Y686D01*
X500Y686D01*
X500Y690D01*
X498Y690D01*
X498Y692D01*
X496Y692D01*
X496Y694D01*
X494Y694D01*
X494Y696D01*
X492Y696D01*
X492Y698D01*
X490Y698D01*
X490Y700D01*
X488Y700D01*
X488Y702D01*
X486Y702D01*
X486Y706D01*
X484Y706D01*
X484Y708D01*
X482Y708D01*
X482Y710D01*
X480Y710D01*
X480Y712D01*
X478Y712D01*
X478Y714D01*
X476Y714D01*
X476Y716D01*
X474Y716D01*
X474Y718D01*
X472Y718D01*
X472Y722D01*
X470Y722D01*
X470Y724D01*
X468Y724D01*
X468Y726D01*
X466Y726D01*
X466Y728D01*
X464Y728D01*
X464Y730D01*
X462Y730D01*
X462Y732D01*
X460Y732D01*
X460Y734D01*
X458Y734D01*
X458Y738D01*
X456Y738D01*
X456Y740D01*
X454Y740D01*
X454Y742D01*
X452Y742D01*
X452Y744D01*
X450Y744D01*
X450Y746D01*
X448Y746D01*
X448Y748D01*
X446Y748D01*
X446Y750D01*
X444Y750D01*
X444Y754D01*
X442Y754D01*
X442Y756D01*
X440Y756D01*
X440Y758D01*
X438Y758D01*
X438Y760D01*
X436Y760D01*
X436Y762D01*
X434Y762D01*
X434Y764D01*
X432Y764D01*
X432Y766D01*
X430Y766D01*
X430Y770D01*
X428Y770D01*
X428Y772D01*
X426Y772D01*
X426Y774D01*
X424Y774D01*
X424Y776D01*
X422Y776D01*
X422Y778D01*
X420Y778D01*
X420Y780D01*
X418Y780D01*
X418Y782D01*
X416Y782D01*
X416Y786D01*
X414Y786D01*
X414Y788D01*
X412Y788D01*
X412Y790D01*
X410Y790D01*
X410Y792D01*
X408Y792D01*
X408Y794D01*
X406Y794D01*
X406Y796D01*
X404Y796D01*
X404Y798D01*
X402Y798D01*
X402Y802D01*
X400Y802D01*
X400Y804D01*
X398Y804D01*
X398Y806D01*
X396Y806D01*
X396Y808D01*
X394Y808D01*
X394Y810D01*
X392Y810D01*
X392Y812D01*
X390Y812D01*
X390Y814D01*
X388Y814D01*
X388Y818D01*
X386Y818D01*
X386Y820D01*
X384Y820D01*
X384Y822D01*
X382Y822D01*
X382Y824D01*
X380Y824D01*
X380Y826D01*
X378Y826D01*
X378Y828D01*
X376Y828D01*
X376Y830D01*
X374Y830D01*
X374Y834D01*
X372Y834D01*
X372Y836D01*
X370Y836D01*
X370Y838D01*
X368Y838D01*
X368Y840D01*
X366Y840D01*
X366Y842D01*
X364Y842D01*
X364Y844D01*
X362Y844D01*
X362Y846D01*
X360Y846D01*
X360Y850D01*
X358Y850D01*
X358Y852D01*
X356Y852D01*
X356Y854D01*
X354Y854D01*
X354Y856D01*
X352Y856D01*
X352Y858D01*
X350Y858D01*
X350Y860D01*
X348Y860D01*
X348Y862D01*
X346Y862D01*
X346Y866D01*
X344Y866D01*
X344Y868D01*
X342Y868D01*
X342Y870D01*
X340Y870D01*
X340Y872D01*
X338Y872D01*
X338Y874D01*
X336Y874D01*
X336Y876D01*
X334Y876D01*
X334Y878D01*
X332Y878D01*
X332Y882D01*
X330Y882D01*
X330Y884D01*
X328Y884D01*
X328Y886D01*
X326Y886D01*
X326Y888D01*
X324Y888D01*
X324Y890D01*
X322Y890D01*
X322Y892D01*
X320Y892D01*
X320Y894D01*
X318Y894D01*
X318Y898D01*
X316Y898D01*
X316Y900D01*
X314Y900D01*
X314Y902D01*
X312Y902D01*
X312Y904D01*
X284Y904D01*
G37*
D02*
G36*
X2438Y832D02*
X2438Y828D01*
X2436Y828D01*
X2436Y826D01*
X2434Y826D01*
X2434Y822D01*
X2432Y822D01*
X2432Y820D01*
X2430Y820D01*
X2430Y818D01*
X2428Y818D01*
X2428Y816D01*
X2424Y816D01*
X2424Y814D01*
X2422Y814D01*
X2422Y812D01*
X2420Y812D01*
X2420Y792D01*
X2422Y792D01*
X2422Y790D01*
X2426Y790D01*
X2426Y788D01*
X2428Y788D01*
X2428Y786D01*
X2430Y786D01*
X2430Y784D01*
X2432Y784D01*
X2432Y782D01*
X2434Y782D01*
X2434Y780D01*
X2436Y780D01*
X2436Y776D01*
X2438Y776D01*
X2438Y774D01*
X2458Y774D01*
X2458Y776D01*
X2460Y776D01*
X2460Y780D01*
X2462Y780D01*
X2462Y782D01*
X2464Y782D01*
X2464Y784D01*
X2466Y784D01*
X2466Y786D01*
X2468Y786D01*
X2468Y788D01*
X2470Y788D01*
X2470Y790D01*
X2474Y790D01*
X2474Y792D01*
X2476Y792D01*
X2476Y812D01*
X2474Y812D01*
X2474Y814D01*
X2472Y814D01*
X2472Y816D01*
X2470Y816D01*
X2470Y818D01*
X2466Y818D01*
X2466Y820D01*
X2464Y820D01*
X2464Y824D01*
X2462Y824D01*
X2462Y826D01*
X2460Y826D01*
X2460Y828D01*
X2458Y828D01*
X2458Y832D01*
X2438Y832D01*
G37*
D02*
G36*
X2438Y732D02*
X2438Y728D01*
X2436Y728D01*
X2436Y726D01*
X2434Y726D01*
X2434Y722D01*
X2432Y722D01*
X2432Y720D01*
X2430Y720D01*
X2430Y718D01*
X2428Y718D01*
X2428Y716D01*
X2424Y716D01*
X2424Y714D01*
X2422Y714D01*
X2422Y712D01*
X2420Y712D01*
X2420Y692D01*
X2422Y692D01*
X2422Y690D01*
X2426Y690D01*
X2426Y688D01*
X2428Y688D01*
X2428Y686D01*
X2430Y686D01*
X2430Y684D01*
X2432Y684D01*
X2432Y682D01*
X2434Y682D01*
X2434Y680D01*
X2436Y680D01*
X2436Y676D01*
X2438Y676D01*
X2438Y674D01*
X2458Y674D01*
X2458Y676D01*
X2460Y676D01*
X2460Y680D01*
X2462Y680D01*
X2462Y682D01*
X2464Y682D01*
X2464Y684D01*
X2466Y684D01*
X2466Y686D01*
X2468Y686D01*
X2468Y688D01*
X2470Y688D01*
X2470Y690D01*
X2474Y690D01*
X2474Y692D01*
X2476Y692D01*
X2476Y712D01*
X2474Y712D01*
X2474Y714D01*
X2472Y714D01*
X2472Y716D01*
X2470Y716D01*
X2470Y718D01*
X2466Y718D01*
X2466Y720D01*
X2464Y720D01*
X2464Y724D01*
X2462Y724D01*
X2462Y726D01*
X2460Y726D01*
X2460Y728D01*
X2458Y728D01*
X2458Y732D01*
X2438Y732D01*
G37*
D02*
G36*
X2438Y632D02*
X2438Y628D01*
X2436Y628D01*
X2436Y626D01*
X2434Y626D01*
X2434Y622D01*
X2432Y622D01*
X2432Y620D01*
X2430Y620D01*
X2430Y618D01*
X2428Y618D01*
X2428Y616D01*
X2424Y616D01*
X2424Y614D01*
X2422Y614D01*
X2422Y612D01*
X2420Y612D01*
X2420Y592D01*
X2422Y592D01*
X2422Y590D01*
X2426Y590D01*
X2426Y588D01*
X2428Y588D01*
X2428Y586D01*
X2430Y586D01*
X2430Y584D01*
X2432Y584D01*
X2432Y582D01*
X2434Y582D01*
X2434Y580D01*
X2436Y580D01*
X2436Y576D01*
X2438Y576D01*
X2438Y574D01*
X2458Y574D01*
X2458Y576D01*
X2460Y576D01*
X2460Y580D01*
X2462Y580D01*
X2462Y582D01*
X2464Y582D01*
X2464Y584D01*
X2466Y584D01*
X2466Y586D01*
X2468Y586D01*
X2468Y588D01*
X2470Y588D01*
X2470Y590D01*
X2474Y590D01*
X2474Y592D01*
X2476Y592D01*
X2476Y612D01*
X2474Y612D01*
X2474Y614D01*
X2472Y614D01*
X2472Y616D01*
X2470Y616D01*
X2470Y618D01*
X2466Y618D01*
X2466Y620D01*
X2464Y620D01*
X2464Y624D01*
X2462Y624D01*
X2462Y626D01*
X2460Y626D01*
X2460Y628D01*
X2458Y628D01*
X2458Y632D01*
X2438Y632D01*
G37*
D02*
G36*
X2546Y552D02*
X2546Y534D01*
X2548Y534D01*
X2548Y532D01*
X2550Y532D01*
X2550Y530D01*
X2552Y530D01*
X2552Y528D01*
X2554Y528D01*
X2554Y526D01*
X2556Y526D01*
X2556Y524D01*
X2558Y524D01*
X2558Y522D01*
X2560Y522D01*
X2560Y520D01*
X2562Y520D01*
X2562Y518D01*
X2564Y518D01*
X2564Y516D01*
X2566Y516D01*
X2566Y514D01*
X2568Y514D01*
X2568Y512D01*
X2570Y512D01*
X2570Y510D01*
X2572Y510D01*
X2572Y508D01*
X2574Y508D01*
X2574Y506D01*
X2576Y506D01*
X2576Y504D01*
X2578Y504D01*
X2578Y502D01*
X2580Y502D01*
X2580Y500D01*
X2582Y500D01*
X2582Y498D01*
X2584Y498D01*
X2584Y496D01*
X2586Y496D01*
X2586Y494D01*
X2588Y494D01*
X2588Y492D01*
X2590Y492D01*
X2590Y490D01*
X2592Y490D01*
X2592Y488D01*
X2594Y488D01*
X2594Y486D01*
X2596Y486D01*
X2596Y484D01*
X2598Y484D01*
X2598Y482D01*
X2600Y482D01*
X2600Y480D01*
X2602Y480D01*
X2602Y478D01*
X2604Y478D01*
X2604Y476D01*
X2624Y476D01*
X2624Y494D01*
X2622Y494D01*
X2622Y496D01*
X2620Y496D01*
X2620Y498D01*
X2618Y498D01*
X2618Y500D01*
X2616Y500D01*
X2616Y502D01*
X2614Y502D01*
X2614Y504D01*
X2612Y504D01*
X2612Y506D01*
X2610Y506D01*
X2610Y508D01*
X2608Y508D01*
X2608Y510D01*
X2606Y510D01*
X2606Y512D01*
X2604Y512D01*
X2604Y514D01*
X2602Y514D01*
X2602Y516D01*
X2600Y516D01*
X2600Y518D01*
X2598Y518D01*
X2598Y520D01*
X2596Y520D01*
X2596Y522D01*
X2594Y522D01*
X2594Y524D01*
X2592Y524D01*
X2592Y526D01*
X2590Y526D01*
X2590Y528D01*
X2588Y528D01*
X2588Y530D01*
X2586Y530D01*
X2586Y532D01*
X2584Y532D01*
X2584Y534D01*
X2582Y534D01*
X2582Y536D01*
X2580Y536D01*
X2580Y538D01*
X2578Y538D01*
X2578Y540D01*
X2576Y540D01*
X2576Y542D01*
X2574Y542D01*
X2574Y544D01*
X2572Y544D01*
X2572Y546D01*
X2570Y546D01*
X2570Y548D01*
X2568Y548D01*
X2568Y550D01*
X2566Y550D01*
X2566Y552D01*
X2546Y552D01*
G37*
D02*
G36*
X2438Y532D02*
X2438Y528D01*
X2436Y528D01*
X2436Y526D01*
X2434Y526D01*
X2434Y522D01*
X2432Y522D01*
X2432Y520D01*
X2430Y520D01*
X2430Y518D01*
X2428Y518D01*
X2428Y516D01*
X2424Y516D01*
X2424Y514D01*
X2422Y514D01*
X2422Y512D01*
X2420Y512D01*
X2420Y492D01*
X2422Y492D01*
X2422Y490D01*
X2426Y490D01*
X2426Y488D01*
X2428Y488D01*
X2428Y486D01*
X2430Y486D01*
X2430Y484D01*
X2432Y484D01*
X2432Y482D01*
X2434Y482D01*
X2434Y480D01*
X2436Y480D01*
X2436Y476D01*
X2438Y476D01*
X2438Y474D01*
X2458Y474D01*
X2458Y476D01*
X2460Y476D01*
X2460Y480D01*
X2462Y480D01*
X2462Y482D01*
X2464Y482D01*
X2464Y484D01*
X2466Y484D01*
X2466Y486D01*
X2468Y486D01*
X2468Y488D01*
X2470Y488D01*
X2470Y490D01*
X2474Y490D01*
X2474Y492D01*
X2476Y492D01*
X2476Y512D01*
X2474Y512D01*
X2474Y514D01*
X2472Y514D01*
X2472Y516D01*
X2470Y516D01*
X2470Y518D01*
X2466Y518D01*
X2466Y520D01*
X2464Y520D01*
X2464Y524D01*
X2462Y524D01*
X2462Y526D01*
X2460Y526D01*
X2460Y528D01*
X2458Y528D01*
X2458Y532D01*
X2438Y532D01*
G37*
D02*
G36*
X2438Y432D02*
X2438Y428D01*
X2436Y428D01*
X2436Y426D01*
X2434Y426D01*
X2434Y422D01*
X2432Y422D01*
X2432Y420D01*
X2430Y420D01*
X2430Y418D01*
X2428Y418D01*
X2428Y416D01*
X2424Y416D01*
X2424Y414D01*
X2422Y414D01*
X2422Y412D01*
X2420Y412D01*
X2420Y392D01*
X2422Y392D01*
X2422Y390D01*
X2426Y390D01*
X2426Y388D01*
X2428Y388D01*
X2428Y386D01*
X2430Y386D01*
X2430Y384D01*
X2432Y384D01*
X2432Y382D01*
X2434Y382D01*
X2434Y380D01*
X2436Y380D01*
X2436Y376D01*
X2438Y376D01*
X2438Y374D01*
X2458Y374D01*
X2458Y376D01*
X2460Y376D01*
X2460Y380D01*
X2462Y380D01*
X2462Y382D01*
X2464Y382D01*
X2464Y384D01*
X2466Y384D01*
X2466Y386D01*
X2468Y386D01*
X2468Y388D01*
X2470Y388D01*
X2470Y390D01*
X2474Y390D01*
X2474Y392D01*
X2476Y392D01*
X2476Y412D01*
X2474Y412D01*
X2474Y414D01*
X2472Y414D01*
X2472Y416D01*
X2470Y416D01*
X2470Y418D01*
X2466Y418D01*
X2466Y420D01*
X2464Y420D01*
X2464Y424D01*
X2462Y424D01*
X2462Y426D01*
X2460Y426D01*
X2460Y428D01*
X2458Y428D01*
X2458Y432D01*
X2438Y432D01*
G37*
D02*
G36*
X2438Y332D02*
X2438Y328D01*
X2436Y328D01*
X2436Y326D01*
X2434Y326D01*
X2434Y322D01*
X2432Y322D01*
X2432Y320D01*
X2430Y320D01*
X2430Y318D01*
X2428Y318D01*
X2428Y316D01*
X2424Y316D01*
X2424Y314D01*
X2422Y314D01*
X2422Y312D01*
X2420Y312D01*
X2420Y292D01*
X2422Y292D01*
X2422Y290D01*
X2426Y290D01*
X2426Y288D01*
X2428Y288D01*
X2428Y286D01*
X2430Y286D01*
X2430Y284D01*
X2432Y284D01*
X2432Y282D01*
X2452Y282D01*
X2452Y300D01*
X2466Y300D01*
X2466Y320D01*
X2464Y320D01*
X2464Y324D01*
X2462Y324D01*
X2462Y326D01*
X2460Y326D01*
X2460Y328D01*
X2458Y328D01*
X2458Y332D01*
X2438Y332D01*
G37*
D02*
G04 End of Copper1*
M02*