M48
INCH
T10C0.040000
T11C0.125984
T12C0.035000
%
T10
X024981Y018523
X024981Y017523
X024981Y016523
X024981Y015523
X024981Y014523
X024981Y013523
X024981Y012523
X024981Y011523
X024981Y010523
X024981Y009523
X024981Y008523
X024981Y007523
X024981Y006523
X024981Y005523
X024981Y004523
X024981Y003523
X024981Y002523
X023981Y018523
X023981Y017523
X023981Y016523
X023981Y015523
X023981Y014523
X023981Y013523
X023981Y012523
X023981Y011523
X023981Y010523
X023981Y009523
X023981Y008523
X023981Y007523
X023981Y006523
X023981Y005523
X023981Y004523
X023981Y003523
X023981Y002523
T11
X001981Y002023
X001981Y019023
T12
X000981Y009523
X000981Y015523
X001981Y009523
X001981Y015523
X002981Y009523
X002981Y015523
X003981Y009523
X003981Y015523
X004981Y009523
X004981Y015523
X005981Y009523
X005981Y015523
X006981Y009523
X006981Y015523
X007981Y009523
X007981Y015523
X008981Y009523
X008981Y015523
X009981Y009523
X009981Y015523
X010981Y009523
X010981Y015523
X011981Y009523
X011981Y015523
X012981Y009523
X012981Y015523
X013981Y009523
X013981Y015523
X014981Y009523
X014981Y015523
X015981Y009523
X015981Y015523
X016981Y009523
X016981Y015523
X017981Y009523
X017981Y015523
X018981Y009523
X018981Y015523
X019981Y009523
X019981Y015523
T00
M30
