M48
INCH
T10C0.038492
T11C0.025000
T12C0.040000
T13C0.125984
%
T10
X016981Y011153
X019981Y013153
X011981Y015153
X010981Y015153
X019981Y012153
X000981Y009153
X019981Y015153
X018981Y015153
X017981Y015153
X016981Y015153
X015981Y015153
X014981Y015153
X013981Y015153
X012981Y015153
X008981Y015153
X009981Y015153
X011981Y009153
X010981Y009153
X009981Y009153
X008981Y009153
X007981Y009153
X006981Y009153
X005981Y009153
X004981Y009153
X003981Y009153
X002981Y009153
X019981Y009153
X018981Y009153
X017981Y009153
X016981Y009153
X015981Y009153
X014981Y009153
X013981Y009153
X012981Y009153
X001981Y009153
X001981Y015153
X002981Y015153
X003981Y015153
X004981Y015153
X005981Y015153
X006981Y015153
X007981Y015153
X016981Y013153
X015981Y013153
X014981Y013153
X013981Y013153
X016981Y012153
X015981Y012153
X014981Y012153
X013981Y012153
X019981Y011153
X000981Y015153
T11
X006881Y011993
X006881Y012513
T12
X023981Y002153
X023981Y003153
X023981Y004153
X023981Y005153
X023981Y006153
X023981Y007153
X023981Y008153
X023981Y009153
X023981Y010153
X023981Y011153
X023981Y012153
X023981Y013153
X023981Y014153
X024981Y002153
X024981Y003153
X024981Y004153
X024981Y005153
X024981Y006153
X024981Y007153
X024981Y008153
X024981Y009153
X024981Y010153
X024981Y011153
X024981Y012153
X024981Y013153
X024981Y014153
T13
X001481Y001153
X001481Y017653
X027481Y001153
T00
M30
