M48
M72,TZ
T10C0.038492
T11C0.025000
T12C0.040000
T13C0.125984
%
T10
X1.698140Y1.149650
X1.998140Y1.349646
X1.198140Y1.549646
X1.098140Y1.549646
X1.998140Y1.249646
X0.098144Y0.949650
X1.998140Y1.549646
X1.898140Y1.549646
X1.798140Y1.549646
X1.698140Y1.549646
X1.598140Y1.549646
X1.498140Y1.549646
X1.398140Y1.549646
X1.298140Y1.549646
X0.898144Y1.549646
X0.998144Y1.549646
X1.198140Y0.949650
X1.098140Y0.949650
X0.998144Y0.949650
X0.898144Y0.949650
X0.798144Y0.949650
X0.698144Y0.949650
X0.598144Y0.949650
X0.498144Y0.949650
X0.398144Y0.949650
X0.298144Y0.949650
X1.998140Y0.949650
X1.898140Y0.949650
X1.798140Y0.949650
X1.698140Y0.949650
X1.598140Y0.949650
X1.498140Y0.949650
X1.398140Y0.949650
X1.298140Y0.949650
X0.198144Y0.949650
X0.198144Y1.549646
X0.298144Y1.549646
X0.398144Y1.549646
X0.498144Y1.549646
X0.598144Y1.549646
X0.698144Y1.549646
X0.798144Y1.549646
X1.698140Y1.349646
X1.598140Y1.349646
X1.498140Y1.349646
X1.398140Y1.349646
X1.698140Y1.249646
X1.598140Y1.249646
X1.498140Y1.249646
X1.398140Y1.249646
X1.998140Y1.149650
X0.098144Y1.549646
T11
X0.688144Y1.233650
X0.688144Y1.285646
T12
X2.398140Y0.249650
X2.398140Y0.349650
X2.398140Y0.449650
X2.398140Y0.549650
X2.398140Y0.649650
X2.398140Y0.749650
X2.398140Y0.849650
X2.398140Y0.949650
X2.398140Y1.049650
X2.398140Y1.149650
X2.398140Y1.249646
X2.398140Y1.349646
X2.398140Y1.449646
X2.498140Y0.249650
X2.498140Y0.349650
X2.498140Y0.449650
X2.498140Y0.549650
X2.498140Y0.649650
X2.498140Y0.749650
X2.498140Y0.849650
X2.498140Y0.949650
X2.498140Y1.049650
X2.498140Y1.149650
X2.498140Y1.249646
X2.498140Y1.349646
X2.498140Y1.449646
T13
X0.198147Y0.249650
X0.198147Y2.049643
X2.998140Y0.249650
X2.998140Y2.049643
T00
M30
