G04 MADE WITH FRITZING*
G04 WWW.FRITZING.ORG*
G04 DOUBLE SIDED*
G04 HOLES PLATED*
G04 CONTOUR ON CENTER OF CONTOUR VECTOR*
%ASAXBY*%
%FSLAX23Y23*%
%MOIN*%
%OFA0B0*%
%SFA1.0B1.0*%
%ADD10C,0.078892*%
%ADD11C,0.048000*%
%ADD12C,0.080000*%
%ADD13C,0.131984*%
%ADD14R,0.080000X0.080000*%
%LNMASK1*%
G90*
G70*
G54D10*
X98Y1550D03*
X1998Y1150D03*
X1398Y1250D03*
X1498Y1250D03*
X1598Y1250D03*
X1698Y1250D03*
X1398Y1350D03*
X1498Y1350D03*
X1598Y1350D03*
X1698Y1350D03*
X798Y1550D03*
X698Y1550D03*
X598Y1550D03*
X498Y1550D03*
X398Y1550D03*
X298Y1550D03*
X198Y1550D03*
X198Y950D03*
X1298Y950D03*
X1398Y950D03*
X1498Y950D03*
X1598Y950D03*
X1698Y950D03*
X1798Y950D03*
X1898Y950D03*
X1998Y950D03*
X298Y950D03*
X398Y950D03*
X498Y950D03*
X598Y950D03*
X698Y950D03*
X798Y950D03*
X898Y950D03*
X998Y950D03*
X1098Y950D03*
X1198Y950D03*
G54D11*
X688Y1286D03*
X688Y1234D03*
G54D10*
X998Y1550D03*
X898Y1550D03*
X1298Y1550D03*
X1398Y1550D03*
X1498Y1550D03*
X1598Y1550D03*
X1698Y1550D03*
X1798Y1550D03*
X1898Y1550D03*
X1998Y1550D03*
X98Y950D03*
X1998Y1250D03*
X1098Y1550D03*
X1198Y1550D03*
X1998Y1350D03*
X1698Y1150D03*
G54D12*
X2498Y1450D03*
X2498Y1350D03*
X2498Y1250D03*
X2498Y1150D03*
X2498Y1050D03*
X2498Y950D03*
X2498Y850D03*
X2498Y750D03*
X2498Y650D03*
X2498Y550D03*
X2498Y450D03*
X2498Y350D03*
X2498Y250D03*
X2398Y1450D03*
X2398Y1350D03*
X2398Y1250D03*
X2398Y1150D03*
X2398Y1050D03*
X2398Y950D03*
X2398Y850D03*
X2398Y750D03*
X2398Y650D03*
X2398Y550D03*
X2398Y450D03*
X2398Y350D03*
X2398Y250D03*
G54D13*
X2998Y2050D03*
X2998Y250D03*
X198Y2050D03*
X198Y250D03*
G54D14*
X2398Y1450D03*
G04 End of Mask1*
M02*