G04 MADE WITH FRITZING*
G04 WWW.FRITZING.ORG*
G04 DOUBLE SIDED*
G04 HOLES PLATED*
G04 CONTOUR ON CENTER OF CONTOUR VECTOR*
%ASAXBY*%
%FSLAX23Y23*%
%MOIN*%
%OFA0B0*%
%SFA1.0B1.0*%
%ADD10R,1.278810X2.082280X1.262810X2.066280*%
%ADD11C,0.008000*%
%ADD12R,0.001000X0.001000*%
%LNSILK0*%
G90*
G70*
G54D11*
X4Y2078D02*
X1275Y2078D01*
X1275Y4D01*
X4Y4D01*
X4Y2078D01*
D02*
G54D12*
X185Y1869D02*
X242Y1869D01*
X281Y1869D02*
X340Y1869D01*
X185Y1868D02*
X244Y1868D01*
X281Y1868D02*
X341Y1868D01*
X185Y1867D02*
X245Y1867D01*
X281Y1867D02*
X341Y1867D01*
X185Y1866D02*
X245Y1866D01*
X281Y1866D02*
X342Y1866D01*
X185Y1865D02*
X245Y1865D01*
X281Y1865D02*
X342Y1865D01*
X185Y1864D02*
X245Y1864D01*
X281Y1864D02*
X341Y1864D01*
X185Y1863D02*
X244Y1863D01*
X281Y1863D02*
X340Y1863D01*
X185Y1862D02*
X243Y1862D01*
X281Y1862D02*
X338Y1862D01*
X185Y1861D02*
X192Y1861D01*
X205Y1861D02*
X212Y1861D01*
X281Y1861D02*
X293Y1861D01*
X185Y1860D02*
X192Y1860D01*
X205Y1860D02*
X212Y1860D01*
X281Y1860D02*
X294Y1860D01*
X185Y1859D02*
X192Y1859D01*
X205Y1859D02*
X212Y1859D01*
X283Y1859D02*
X296Y1859D01*
X185Y1858D02*
X192Y1858D01*
X205Y1858D02*
X212Y1858D01*
X284Y1858D02*
X297Y1858D01*
X185Y1857D02*
X192Y1857D01*
X205Y1857D02*
X212Y1857D01*
X286Y1857D02*
X298Y1857D01*
X185Y1856D02*
X192Y1856D01*
X205Y1856D02*
X212Y1856D01*
X287Y1856D02*
X300Y1856D01*
X185Y1855D02*
X192Y1855D01*
X205Y1855D02*
X213Y1855D01*
X288Y1855D02*
X301Y1855D01*
X185Y1854D02*
X192Y1854D01*
X205Y1854D02*
X215Y1854D01*
X290Y1854D02*
X306Y1854D01*
X185Y1853D02*
X192Y1853D01*
X205Y1853D02*
X217Y1853D01*
X291Y1853D02*
X307Y1853D01*
X185Y1852D02*
X192Y1852D01*
X205Y1852D02*
X218Y1852D01*
X293Y1852D02*
X308Y1852D01*
X185Y1851D02*
X192Y1851D01*
X205Y1851D02*
X220Y1851D01*
X294Y1851D02*
X308Y1851D01*
X185Y1850D02*
X192Y1850D01*
X205Y1850D02*
X222Y1850D01*
X295Y1850D02*
X308Y1850D01*
X185Y1849D02*
X192Y1849D01*
X205Y1849D02*
X223Y1849D01*
X293Y1849D02*
X308Y1849D01*
X185Y1848D02*
X192Y1848D01*
X205Y1848D02*
X225Y1848D01*
X292Y1848D02*
X307Y1848D01*
X185Y1847D02*
X192Y1847D01*
X205Y1847D02*
X227Y1847D01*
X290Y1847D02*
X306Y1847D01*
X185Y1846D02*
X192Y1846D01*
X205Y1846D02*
X212Y1846D01*
X214Y1846D02*
X229Y1846D01*
X289Y1846D02*
X302Y1846D01*
X185Y1845D02*
X192Y1845D01*
X205Y1845D02*
X212Y1845D01*
X215Y1845D02*
X230Y1845D01*
X288Y1845D02*
X300Y1845D01*
X185Y1844D02*
X192Y1844D01*
X205Y1844D02*
X212Y1844D01*
X217Y1844D02*
X232Y1844D01*
X286Y1844D02*
X299Y1844D01*
X185Y1843D02*
X192Y1843D01*
X205Y1843D02*
X212Y1843D01*
X219Y1843D02*
X234Y1843D01*
X285Y1843D02*
X298Y1843D01*
X434Y1843D02*
X465Y1843D01*
X185Y1842D02*
X192Y1842D01*
X205Y1842D02*
X212Y1842D01*
X221Y1842D02*
X235Y1842D01*
X283Y1842D02*
X296Y1842D01*
X433Y1842D02*
X466Y1842D01*
X185Y1841D02*
X192Y1841D01*
X204Y1841D02*
X211Y1841D01*
X222Y1841D02*
X237Y1841D01*
X282Y1841D02*
X295Y1841D01*
X433Y1841D02*
X466Y1841D01*
X185Y1840D02*
X192Y1840D01*
X204Y1840D02*
X211Y1840D01*
X224Y1840D02*
X239Y1840D01*
X281Y1840D02*
X293Y1840D01*
X433Y1840D02*
X466Y1840D01*
X185Y1839D02*
X193Y1839D01*
X203Y1839D02*
X211Y1839D01*
X226Y1839D02*
X241Y1839D01*
X281Y1839D02*
X292Y1839D01*
X434Y1839D02*
X465Y1839D01*
X185Y1838D02*
X211Y1838D01*
X227Y1838D02*
X242Y1838D01*
X281Y1838D02*
X340Y1838D01*
X435Y1838D02*
X464Y1838D01*
X186Y1837D02*
X210Y1837D01*
X229Y1837D02*
X244Y1837D01*
X281Y1837D02*
X341Y1837D01*
X439Y1837D02*
X446Y1837D01*
X186Y1836D02*
X210Y1836D01*
X231Y1836D02*
X244Y1836D01*
X281Y1836D02*
X341Y1836D01*
X438Y1836D02*
X445Y1836D01*
X187Y1835D02*
X209Y1835D01*
X233Y1835D02*
X245Y1835D01*
X281Y1835D02*
X342Y1835D01*
X437Y1835D02*
X444Y1835D01*
X188Y1834D02*
X208Y1834D01*
X234Y1834D02*
X245Y1834D01*
X281Y1834D02*
X342Y1834D01*
X436Y1834D02*
X443Y1834D01*
X189Y1833D02*
X207Y1833D01*
X236Y1833D02*
X245Y1833D01*
X281Y1833D02*
X341Y1833D01*
X435Y1833D02*
X442Y1833D01*
X190Y1832D02*
X206Y1832D01*
X238Y1832D02*
X244Y1832D01*
X281Y1832D02*
X341Y1832D01*
X435Y1832D02*
X442Y1832D01*
X192Y1831D02*
X204Y1831D01*
X239Y1831D02*
X243Y1831D01*
X281Y1831D02*
X339Y1831D01*
X434Y1831D02*
X441Y1831D01*
X433Y1830D02*
X440Y1830D01*
X433Y1829D02*
X439Y1829D01*
X433Y1828D02*
X438Y1828D01*
X433Y1827D02*
X438Y1827D01*
X433Y1826D02*
X438Y1826D01*
X433Y1825D02*
X438Y1825D01*
X433Y1824D02*
X438Y1824D01*
X433Y1823D02*
X438Y1823D01*
X433Y1822D02*
X438Y1822D01*
X433Y1821D02*
X439Y1821D01*
X433Y1820D02*
X440Y1820D01*
X434Y1819D02*
X445Y1819D01*
X434Y1818D02*
X445Y1818D01*
X435Y1817D02*
X446Y1817D01*
X436Y1816D02*
X445Y1816D01*
X438Y1815D02*
X445Y1815D01*
X440Y1814D02*
X444Y1814D01*
X213Y1812D02*
X234Y1812D01*
X308Y1812D02*
X332Y1812D01*
X210Y1811D02*
X236Y1811D01*
X306Y1811D02*
X334Y1811D01*
X208Y1810D02*
X238Y1810D01*
X305Y1810D02*
X335Y1810D01*
X207Y1809D02*
X239Y1809D01*
X303Y1809D02*
X336Y1809D01*
X206Y1808D02*
X240Y1808D01*
X303Y1808D02*
X337Y1808D01*
X205Y1807D02*
X241Y1807D01*
X302Y1807D02*
X338Y1807D01*
X205Y1806D02*
X242Y1806D01*
X301Y1806D02*
X339Y1806D01*
X204Y1805D02*
X242Y1805D01*
X300Y1805D02*
X340Y1805D01*
X203Y1804D02*
X213Y1804D01*
X221Y1804D02*
X228Y1804D01*
X233Y1804D02*
X243Y1804D01*
X299Y1804D02*
X309Y1804D01*
X331Y1804D02*
X340Y1804D01*
X202Y1803D02*
X211Y1803D01*
X221Y1803D02*
X228Y1803D01*
X235Y1803D02*
X244Y1803D01*
X299Y1803D02*
X308Y1803D01*
X332Y1803D02*
X341Y1803D01*
X202Y1802D02*
X211Y1802D01*
X221Y1802D02*
X228Y1802D01*
X236Y1802D02*
X244Y1802D01*
X299Y1802D02*
X307Y1802D01*
X333Y1802D02*
X341Y1802D01*
X202Y1801D02*
X210Y1801D01*
X221Y1801D02*
X228Y1801D01*
X236Y1801D02*
X244Y1801D01*
X298Y1801D02*
X306Y1801D01*
X334Y1801D02*
X341Y1801D01*
X201Y1800D02*
X209Y1800D01*
X221Y1800D02*
X228Y1800D01*
X237Y1800D02*
X245Y1800D01*
X298Y1800D02*
X305Y1800D01*
X334Y1800D02*
X342Y1800D01*
X442Y1800D02*
X457Y1800D01*
X201Y1799D02*
X208Y1799D01*
X221Y1799D02*
X228Y1799D01*
X238Y1799D02*
X245Y1799D01*
X298Y1799D02*
X305Y1799D01*
X335Y1799D02*
X342Y1799D01*
X440Y1799D02*
X460Y1799D01*
X201Y1798D02*
X208Y1798D01*
X221Y1798D02*
X228Y1798D01*
X238Y1798D02*
X245Y1798D01*
X298Y1798D02*
X305Y1798D01*
X335Y1798D02*
X342Y1798D01*
X438Y1798D02*
X461Y1798D01*
X201Y1797D02*
X208Y1797D01*
X221Y1797D02*
X228Y1797D01*
X238Y1797D02*
X245Y1797D01*
X298Y1797D02*
X305Y1797D01*
X335Y1797D02*
X342Y1797D01*
X437Y1797D02*
X462Y1797D01*
X201Y1796D02*
X208Y1796D01*
X221Y1796D02*
X228Y1796D01*
X238Y1796D02*
X245Y1796D01*
X298Y1796D02*
X305Y1796D01*
X335Y1796D02*
X342Y1796D01*
X436Y1796D02*
X463Y1796D01*
X201Y1795D02*
X208Y1795D01*
X221Y1795D02*
X228Y1795D01*
X238Y1795D02*
X245Y1795D01*
X298Y1795D02*
X305Y1795D01*
X335Y1795D02*
X342Y1795D01*
X435Y1795D02*
X464Y1795D01*
X201Y1794D02*
X208Y1794D01*
X221Y1794D02*
X228Y1794D01*
X238Y1794D02*
X245Y1794D01*
X298Y1794D02*
X305Y1794D01*
X335Y1794D02*
X342Y1794D01*
X434Y1794D02*
X443Y1794D01*
X448Y1794D02*
X454Y1794D01*
X456Y1794D02*
X465Y1794D01*
X201Y1793D02*
X208Y1793D01*
X221Y1793D02*
X228Y1793D01*
X238Y1793D02*
X245Y1793D01*
X298Y1793D02*
X305Y1793D01*
X335Y1793D02*
X342Y1793D01*
X434Y1793D02*
X441Y1793D01*
X448Y1793D02*
X453Y1793D01*
X459Y1793D02*
X465Y1793D01*
X201Y1792D02*
X208Y1792D01*
X221Y1792D02*
X228Y1792D01*
X238Y1792D02*
X245Y1792D01*
X298Y1792D02*
X305Y1792D01*
X335Y1792D02*
X342Y1792D01*
X433Y1792D02*
X440Y1792D01*
X448Y1792D02*
X453Y1792D01*
X459Y1792D02*
X466Y1792D01*
X201Y1791D02*
X208Y1791D01*
X221Y1791D02*
X228Y1791D01*
X238Y1791D02*
X245Y1791D01*
X298Y1791D02*
X305Y1791D01*
X335Y1791D02*
X342Y1791D01*
X433Y1791D02*
X439Y1791D01*
X448Y1791D02*
X453Y1791D01*
X460Y1791D02*
X466Y1791D01*
X201Y1790D02*
X208Y1790D01*
X221Y1790D02*
X228Y1790D01*
X238Y1790D02*
X245Y1790D01*
X298Y1790D02*
X305Y1790D01*
X335Y1790D02*
X342Y1790D01*
X433Y1790D02*
X438Y1790D01*
X448Y1790D02*
X453Y1790D01*
X461Y1790D02*
X466Y1790D01*
X201Y1789D02*
X208Y1789D01*
X221Y1789D02*
X228Y1789D01*
X238Y1789D02*
X245Y1789D01*
X298Y1789D02*
X305Y1789D01*
X335Y1789D02*
X342Y1789D01*
X433Y1789D02*
X438Y1789D01*
X448Y1789D02*
X453Y1789D01*
X461Y1789D02*
X466Y1789D01*
X201Y1788D02*
X208Y1788D01*
X221Y1788D02*
X228Y1788D01*
X238Y1788D02*
X245Y1788D01*
X298Y1788D02*
X305Y1788D01*
X335Y1788D02*
X342Y1788D01*
X433Y1788D02*
X438Y1788D01*
X448Y1788D02*
X453Y1788D01*
X461Y1788D02*
X466Y1788D01*
X201Y1787D02*
X208Y1787D01*
X221Y1787D02*
X228Y1787D01*
X238Y1787D02*
X245Y1787D01*
X298Y1787D02*
X305Y1787D01*
X334Y1787D02*
X342Y1787D01*
X433Y1787D02*
X438Y1787D01*
X448Y1787D02*
X453Y1787D01*
X461Y1787D02*
X466Y1787D01*
X201Y1786D02*
X209Y1786D01*
X221Y1786D02*
X228Y1786D01*
X238Y1786D02*
X245Y1786D01*
X298Y1786D02*
X306Y1786D01*
X334Y1786D02*
X341Y1786D01*
X433Y1786D02*
X438Y1786D01*
X448Y1786D02*
X453Y1786D01*
X461Y1786D02*
X466Y1786D01*
X202Y1785D02*
X209Y1785D01*
X221Y1785D02*
X228Y1785D01*
X238Y1785D02*
X245Y1785D01*
X299Y1785D02*
X306Y1785D01*
X333Y1785D02*
X341Y1785D01*
X433Y1785D02*
X438Y1785D01*
X448Y1785D02*
X453Y1785D01*
X461Y1785D02*
X466Y1785D01*
X202Y1784D02*
X210Y1784D01*
X221Y1784D02*
X228Y1784D01*
X238Y1784D02*
X245Y1784D01*
X299Y1784D02*
X307Y1784D01*
X332Y1784D02*
X341Y1784D01*
X433Y1784D02*
X438Y1784D01*
X448Y1784D02*
X453Y1784D01*
X461Y1784D02*
X466Y1784D01*
X202Y1783D02*
X211Y1783D01*
X221Y1783D02*
X228Y1783D01*
X238Y1783D02*
X245Y1783D01*
X299Y1783D02*
X308Y1783D01*
X331Y1783D02*
X340Y1783D01*
X433Y1783D02*
X438Y1783D01*
X448Y1783D02*
X453Y1783D01*
X461Y1783D02*
X466Y1783D01*
X203Y1782D02*
X212Y1782D01*
X221Y1782D02*
X228Y1782D01*
X238Y1782D02*
X245Y1782D01*
X300Y1782D02*
X310Y1782D01*
X330Y1782D02*
X340Y1782D01*
X433Y1782D02*
X438Y1782D01*
X448Y1782D02*
X453Y1782D01*
X461Y1782D02*
X466Y1782D01*
X204Y1781D02*
X228Y1781D01*
X238Y1781D02*
X245Y1781D01*
X301Y1781D02*
X339Y1781D01*
X433Y1781D02*
X438Y1781D01*
X448Y1781D02*
X453Y1781D01*
X461Y1781D02*
X466Y1781D01*
X204Y1780D02*
X228Y1780D01*
X238Y1780D02*
X245Y1780D01*
X302Y1780D02*
X338Y1780D01*
X433Y1780D02*
X438Y1780D01*
X448Y1780D02*
X453Y1780D01*
X461Y1780D02*
X466Y1780D01*
X205Y1779D02*
X228Y1779D01*
X238Y1779D02*
X245Y1779D01*
X302Y1779D02*
X337Y1779D01*
X433Y1779D02*
X439Y1779D01*
X448Y1779D02*
X453Y1779D01*
X461Y1779D02*
X466Y1779D01*
X206Y1778D02*
X228Y1778D01*
X238Y1778D02*
X245Y1778D01*
X303Y1778D02*
X336Y1778D01*
X433Y1778D02*
X440Y1778D01*
X448Y1778D02*
X453Y1778D01*
X461Y1778D02*
X466Y1778D01*
X207Y1777D02*
X228Y1777D01*
X238Y1777D02*
X245Y1777D01*
X304Y1777D02*
X335Y1777D01*
X434Y1777D02*
X441Y1777D01*
X448Y1777D02*
X453Y1777D01*
X461Y1777D02*
X466Y1777D01*
X208Y1776D02*
X228Y1776D01*
X238Y1776D02*
X245Y1776D01*
X305Y1776D02*
X334Y1776D01*
X435Y1776D02*
X453Y1776D01*
X461Y1776D02*
X466Y1776D01*
X209Y1775D02*
X227Y1775D01*
X239Y1775D02*
X244Y1775D01*
X307Y1775D02*
X333Y1775D01*
X435Y1775D02*
X453Y1775D01*
X461Y1775D02*
X466Y1775D01*
X211Y1774D02*
X226Y1774D01*
X240Y1774D02*
X243Y1774D01*
X310Y1774D02*
X330Y1774D01*
X436Y1774D02*
X453Y1774D01*
X461Y1774D02*
X466Y1774D01*
X437Y1773D02*
X453Y1773D01*
X461Y1773D02*
X466Y1773D01*
X438Y1772D02*
X453Y1772D01*
X461Y1772D02*
X466Y1772D01*
X440Y1771D02*
X452Y1771D01*
X462Y1771D02*
X465Y1771D01*
X444Y1770D02*
X450Y1770D01*
X302Y1756D02*
X302Y1756D01*
X435Y1756D02*
X442Y1756D01*
X203Y1755D02*
X206Y1755D01*
X299Y1755D02*
X331Y1755D01*
X433Y1755D02*
X444Y1755D01*
X202Y1754D02*
X207Y1754D01*
X299Y1754D02*
X335Y1754D01*
X433Y1754D02*
X446Y1754D01*
X202Y1753D02*
X208Y1753D01*
X298Y1753D02*
X337Y1753D01*
X433Y1753D02*
X448Y1753D01*
X201Y1752D02*
X208Y1752D01*
X298Y1752D02*
X338Y1752D01*
X433Y1752D02*
X451Y1752D01*
X201Y1751D02*
X208Y1751D01*
X298Y1751D02*
X339Y1751D01*
X434Y1751D02*
X453Y1751D01*
X201Y1750D02*
X208Y1750D01*
X299Y1750D02*
X340Y1750D01*
X441Y1750D02*
X455Y1750D01*
X201Y1749D02*
X208Y1749D01*
X300Y1749D02*
X340Y1749D01*
X443Y1749D02*
X458Y1749D01*
X201Y1748D02*
X208Y1748D01*
X306Y1748D02*
X341Y1748D01*
X446Y1748D02*
X460Y1748D01*
X190Y1747D02*
X237Y1747D01*
X332Y1747D02*
X341Y1747D01*
X448Y1747D02*
X462Y1747D01*
X189Y1746D02*
X239Y1746D01*
X334Y1746D02*
X341Y1746D01*
X450Y1746D02*
X464Y1746D01*
X188Y1745D02*
X241Y1745D01*
X334Y1745D02*
X342Y1745D01*
X453Y1745D02*
X466Y1745D01*
X188Y1744D02*
X242Y1744D01*
X335Y1744D02*
X342Y1744D01*
X455Y1744D02*
X466Y1744D01*
X188Y1743D02*
X242Y1743D01*
X335Y1743D02*
X342Y1743D01*
X457Y1743D02*
X466Y1743D01*
X188Y1742D02*
X243Y1742D01*
X335Y1742D02*
X342Y1742D01*
X459Y1742D02*
X466Y1742D01*
X189Y1741D02*
X244Y1741D01*
X335Y1741D02*
X342Y1741D01*
X460Y1741D02*
X466Y1741D01*
X191Y1740D02*
X244Y1740D01*
X335Y1740D02*
X342Y1740D01*
X458Y1740D02*
X466Y1740D01*
X201Y1739D02*
X208Y1739D01*
X236Y1739D02*
X245Y1739D01*
X335Y1739D02*
X342Y1739D01*
X456Y1739D02*
X466Y1739D01*
X201Y1738D02*
X208Y1738D01*
X237Y1738D02*
X245Y1738D01*
X335Y1738D02*
X342Y1738D01*
X453Y1738D02*
X466Y1738D01*
X201Y1737D02*
X208Y1737D01*
X238Y1737D02*
X245Y1737D01*
X334Y1737D02*
X342Y1737D01*
X451Y1737D02*
X465Y1737D01*
X201Y1736D02*
X208Y1736D01*
X238Y1736D02*
X245Y1736D01*
X334Y1736D02*
X341Y1736D01*
X449Y1736D02*
X463Y1736D01*
X201Y1735D02*
X208Y1735D01*
X238Y1735D02*
X245Y1735D01*
X333Y1735D02*
X341Y1735D01*
X446Y1735D02*
X461Y1735D01*
X201Y1734D02*
X208Y1734D01*
X238Y1734D02*
X245Y1734D01*
X332Y1734D02*
X341Y1734D01*
X444Y1734D02*
X458Y1734D01*
X201Y1733D02*
X208Y1733D01*
X238Y1733D02*
X245Y1733D01*
X332Y1733D02*
X340Y1733D01*
X442Y1733D02*
X456Y1733D01*
X201Y1732D02*
X208Y1732D01*
X238Y1732D02*
X245Y1732D01*
X331Y1732D02*
X340Y1732D01*
X435Y1732D02*
X454Y1732D01*
X201Y1731D02*
X208Y1731D01*
X238Y1731D02*
X245Y1731D01*
X331Y1731D02*
X339Y1731D01*
X433Y1731D02*
X452Y1731D01*
X201Y1730D02*
X208Y1730D01*
X238Y1730D02*
X245Y1730D01*
X330Y1730D02*
X338Y1730D01*
X433Y1730D02*
X449Y1730D01*
X201Y1729D02*
X208Y1729D01*
X238Y1729D02*
X245Y1729D01*
X329Y1729D02*
X338Y1729D01*
X433Y1729D02*
X447Y1729D01*
X201Y1728D02*
X208Y1728D01*
X238Y1728D02*
X245Y1728D01*
X329Y1728D02*
X337Y1728D01*
X433Y1728D02*
X445Y1728D01*
X201Y1727D02*
X208Y1727D01*
X238Y1727D02*
X245Y1727D01*
X328Y1727D02*
X336Y1727D01*
X434Y1727D02*
X442Y1727D01*
X201Y1726D02*
X208Y1726D01*
X237Y1726D02*
X245Y1726D01*
X327Y1726D02*
X336Y1726D01*
X201Y1725D02*
X208Y1725D01*
X236Y1725D02*
X244Y1725D01*
X327Y1725D02*
X335Y1725D01*
X201Y1724D02*
X208Y1724D01*
X234Y1724D02*
X244Y1724D01*
X300Y1724D02*
X340Y1724D01*
X201Y1723D02*
X208Y1723D01*
X233Y1723D02*
X244Y1723D01*
X299Y1723D02*
X341Y1723D01*
X202Y1722D02*
X207Y1722D01*
X232Y1722D02*
X243Y1722D01*
X298Y1722D02*
X341Y1722D01*
X203Y1721D02*
X206Y1721D01*
X231Y1721D02*
X242Y1721D01*
X298Y1721D02*
X342Y1721D01*
X231Y1720D02*
X242Y1720D01*
X298Y1720D02*
X342Y1720D01*
X232Y1719D02*
X240Y1719D01*
X299Y1719D02*
X341Y1719D01*
X232Y1718D02*
X239Y1718D01*
X299Y1718D02*
X340Y1718D01*
X233Y1717D02*
X237Y1717D01*
X301Y1717D02*
X339Y1717D01*
X450Y1703D02*
X457Y1703D01*
X449Y1702D02*
X458Y1702D01*
X448Y1701D02*
X458Y1701D01*
X448Y1700D02*
X459Y1700D01*
X335Y1699D02*
X335Y1699D01*
X448Y1699D02*
X459Y1699D01*
X203Y1698D02*
X243Y1698D01*
X306Y1698D02*
X309Y1698D01*
X333Y1698D02*
X337Y1698D01*
X448Y1698D02*
X459Y1698D01*
X202Y1697D02*
X244Y1697D01*
X303Y1697D02*
X311Y1697D01*
X332Y1697D02*
X338Y1697D01*
X448Y1697D02*
X459Y1697D01*
X202Y1696D02*
X245Y1696D01*
X302Y1696D02*
X313Y1696D01*
X332Y1696D02*
X339Y1696D01*
X448Y1696D02*
X459Y1696D01*
X201Y1695D02*
X245Y1695D01*
X301Y1695D02*
X314Y1695D01*
X331Y1695D02*
X339Y1695D01*
X448Y1695D02*
X459Y1695D01*
X201Y1694D02*
X245Y1694D01*
X300Y1694D02*
X315Y1694D01*
X332Y1694D02*
X340Y1694D01*
X448Y1694D02*
X458Y1694D01*
X202Y1693D02*
X245Y1693D01*
X299Y1693D02*
X316Y1693D01*
X332Y1693D02*
X340Y1693D01*
X449Y1693D02*
X458Y1693D01*
X202Y1692D02*
X244Y1692D01*
X299Y1692D02*
X316Y1692D01*
X333Y1692D02*
X341Y1692D01*
X450Y1692D02*
X457Y1692D01*
X204Y1691D02*
X242Y1691D01*
X298Y1691D02*
X317Y1691D01*
X333Y1691D02*
X341Y1691D01*
X209Y1690D02*
X219Y1690D01*
X298Y1690D02*
X306Y1690D01*
X309Y1690D02*
X317Y1690D01*
X334Y1690D02*
X341Y1690D01*
X208Y1689D02*
X218Y1689D01*
X298Y1689D02*
X305Y1689D01*
X310Y1689D02*
X318Y1689D01*
X334Y1689D02*
X342Y1689D01*
X208Y1688D02*
X217Y1688D01*
X298Y1688D02*
X305Y1688D01*
X311Y1688D02*
X318Y1688D01*
X335Y1688D02*
X342Y1688D01*
X207Y1687D02*
X216Y1687D01*
X298Y1687D02*
X305Y1687D01*
X311Y1687D02*
X319Y1687D01*
X335Y1687D02*
X342Y1687D01*
X206Y1686D02*
X215Y1686D01*
X298Y1686D02*
X305Y1686D01*
X311Y1686D02*
X319Y1686D01*
X335Y1686D02*
X342Y1686D01*
X205Y1685D02*
X215Y1685D01*
X298Y1685D02*
X305Y1685D01*
X312Y1685D02*
X319Y1685D01*
X335Y1685D02*
X342Y1685D01*
X204Y1684D02*
X214Y1684D01*
X298Y1684D02*
X305Y1684D01*
X312Y1684D02*
X320Y1684D01*
X335Y1684D02*
X342Y1684D01*
X203Y1683D02*
X213Y1683D01*
X298Y1683D02*
X305Y1683D01*
X313Y1683D02*
X320Y1683D01*
X335Y1683D02*
X342Y1683D01*
X202Y1682D02*
X212Y1682D01*
X298Y1682D02*
X305Y1682D01*
X313Y1682D02*
X321Y1682D01*
X335Y1682D02*
X342Y1682D01*
X202Y1681D02*
X211Y1681D01*
X298Y1681D02*
X305Y1681D01*
X314Y1681D02*
X321Y1681D01*
X335Y1681D02*
X342Y1681D01*
X201Y1680D02*
X210Y1680D01*
X298Y1680D02*
X305Y1680D01*
X314Y1680D02*
X322Y1680D01*
X335Y1680D02*
X342Y1680D01*
X201Y1679D02*
X209Y1679D01*
X298Y1679D02*
X305Y1679D01*
X314Y1679D02*
X322Y1679D01*
X335Y1679D02*
X342Y1679D01*
X201Y1678D02*
X209Y1678D01*
X298Y1678D02*
X305Y1678D01*
X315Y1678D02*
X322Y1678D01*
X335Y1678D02*
X342Y1678D01*
X201Y1677D02*
X208Y1677D01*
X298Y1677D02*
X305Y1677D01*
X315Y1677D02*
X323Y1677D01*
X335Y1677D02*
X342Y1677D01*
X201Y1676D02*
X208Y1676D01*
X298Y1676D02*
X305Y1676D01*
X316Y1676D02*
X323Y1676D01*
X335Y1676D02*
X342Y1676D01*
X201Y1675D02*
X208Y1675D01*
X298Y1675D02*
X305Y1675D01*
X316Y1675D02*
X324Y1675D01*
X335Y1675D02*
X342Y1675D01*
X201Y1674D02*
X208Y1674D01*
X298Y1674D02*
X305Y1674D01*
X317Y1674D02*
X324Y1674D01*
X335Y1674D02*
X342Y1674D01*
X201Y1673D02*
X208Y1673D01*
X298Y1673D02*
X305Y1673D01*
X317Y1673D02*
X325Y1673D01*
X335Y1673D02*
X342Y1673D01*
X201Y1672D02*
X208Y1672D01*
X298Y1672D02*
X305Y1672D01*
X317Y1672D02*
X325Y1672D01*
X335Y1672D02*
X342Y1672D01*
X201Y1671D02*
X208Y1671D01*
X298Y1671D02*
X305Y1671D01*
X318Y1671D02*
X326Y1671D01*
X335Y1671D02*
X342Y1671D01*
X201Y1670D02*
X208Y1670D01*
X298Y1670D02*
X305Y1670D01*
X318Y1670D02*
X326Y1670D01*
X334Y1670D02*
X341Y1670D01*
X201Y1669D02*
X209Y1669D01*
X298Y1669D02*
X306Y1669D01*
X319Y1669D02*
X327Y1669D01*
X333Y1669D02*
X341Y1669D01*
X202Y1668D02*
X210Y1668D01*
X298Y1668D02*
X307Y1668D01*
X319Y1668D02*
X341Y1668D01*
X423Y1668D02*
X463Y1668D01*
X202Y1667D02*
X216Y1667D01*
X299Y1667D02*
X307Y1667D01*
X320Y1667D02*
X341Y1667D01*
X422Y1667D02*
X464Y1667D01*
X202Y1666D02*
X217Y1666D01*
X299Y1666D02*
X308Y1666D01*
X320Y1666D02*
X340Y1666D01*
X421Y1666D02*
X465Y1666D01*
X203Y1665D02*
X218Y1665D01*
X300Y1665D02*
X308Y1665D01*
X321Y1665D02*
X339Y1665D01*
X421Y1665D02*
X466Y1665D01*
X204Y1664D02*
X218Y1664D01*
X300Y1664D02*
X308Y1664D01*
X322Y1664D02*
X339Y1664D01*
X420Y1664D02*
X466Y1664D01*
X205Y1663D02*
X218Y1663D01*
X301Y1663D02*
X308Y1663D01*
X323Y1663D02*
X337Y1663D01*
X420Y1663D02*
X466Y1663D01*
X206Y1662D02*
X218Y1662D01*
X302Y1662D02*
X307Y1662D01*
X324Y1662D02*
X336Y1662D01*
X420Y1662D02*
X425Y1662D01*
X461Y1662D02*
X466Y1662D01*
X207Y1661D02*
X217Y1661D01*
X304Y1661D02*
X305Y1661D01*
X326Y1661D02*
X334Y1661D01*
X420Y1661D02*
X425Y1661D01*
X461Y1661D02*
X466Y1661D01*
X209Y1660D02*
X216Y1660D01*
X420Y1660D02*
X425Y1660D01*
X461Y1660D02*
X466Y1660D01*
X420Y1659D02*
X425Y1659D01*
X461Y1659D02*
X466Y1659D01*
X420Y1658D02*
X425Y1658D01*
X461Y1658D02*
X466Y1658D01*
X420Y1657D02*
X425Y1657D01*
X461Y1657D02*
X466Y1657D01*
X420Y1656D02*
X425Y1656D01*
X461Y1656D02*
X466Y1656D01*
X420Y1655D02*
X425Y1655D01*
X461Y1655D02*
X466Y1655D01*
X420Y1654D02*
X425Y1654D01*
X461Y1654D02*
X466Y1654D01*
X420Y1653D02*
X425Y1653D01*
X461Y1653D02*
X466Y1653D01*
X420Y1652D02*
X425Y1652D01*
X461Y1652D02*
X466Y1652D01*
X420Y1651D02*
X425Y1651D01*
X461Y1651D02*
X466Y1651D01*
X420Y1650D02*
X425Y1650D01*
X461Y1650D02*
X466Y1650D01*
X420Y1649D02*
X425Y1649D01*
X461Y1649D02*
X466Y1649D01*
X420Y1648D02*
X425Y1648D01*
X461Y1648D02*
X466Y1648D01*
X420Y1647D02*
X425Y1647D01*
X461Y1647D02*
X466Y1647D01*
X420Y1646D02*
X425Y1646D01*
X461Y1646D02*
X466Y1646D01*
X420Y1645D02*
X425Y1645D01*
X461Y1645D02*
X466Y1645D01*
X420Y1644D02*
X466Y1644D01*
X420Y1643D02*
X466Y1643D01*
X310Y1642D02*
X330Y1642D01*
X421Y1642D02*
X465Y1642D01*
X212Y1641D02*
X235Y1641D01*
X307Y1641D02*
X333Y1641D01*
X421Y1641D02*
X465Y1641D01*
X210Y1640D02*
X237Y1640D01*
X306Y1640D02*
X334Y1640D01*
X423Y1640D02*
X464Y1640D01*
X208Y1639D02*
X238Y1639D01*
X304Y1639D02*
X336Y1639D01*
X424Y1639D02*
X462Y1639D01*
X207Y1638D02*
X239Y1638D01*
X303Y1638D02*
X337Y1638D01*
X206Y1637D02*
X240Y1637D01*
X302Y1637D02*
X337Y1637D01*
X205Y1636D02*
X241Y1636D01*
X302Y1636D02*
X338Y1636D01*
X204Y1635D02*
X242Y1635D01*
X301Y1635D02*
X339Y1635D01*
X204Y1634D02*
X243Y1634D01*
X300Y1634D02*
X310Y1634D01*
X318Y1634D02*
X325Y1634D01*
X330Y1634D02*
X340Y1634D01*
X203Y1633D02*
X212Y1633D01*
X234Y1633D02*
X243Y1633D01*
X299Y1633D02*
X308Y1633D01*
X318Y1633D02*
X325Y1633D01*
X331Y1633D02*
X340Y1633D01*
X202Y1632D02*
X211Y1632D01*
X235Y1632D02*
X244Y1632D01*
X299Y1632D02*
X307Y1632D01*
X318Y1632D02*
X325Y1632D01*
X332Y1632D02*
X341Y1632D01*
X202Y1631D02*
X210Y1631D01*
X236Y1631D02*
X244Y1631D01*
X299Y1631D02*
X307Y1631D01*
X318Y1631D02*
X325Y1631D01*
X333Y1631D02*
X341Y1631D01*
X202Y1630D02*
X209Y1630D01*
X237Y1630D02*
X244Y1630D01*
X298Y1630D02*
X306Y1630D01*
X318Y1630D02*
X325Y1630D01*
X334Y1630D02*
X341Y1630D01*
X201Y1629D02*
X209Y1629D01*
X237Y1629D02*
X245Y1629D01*
X298Y1629D02*
X305Y1629D01*
X318Y1629D02*
X325Y1629D01*
X334Y1629D02*
X342Y1629D01*
X201Y1628D02*
X208Y1628D01*
X238Y1628D02*
X245Y1628D01*
X298Y1628D02*
X305Y1628D01*
X318Y1628D02*
X325Y1628D01*
X335Y1628D02*
X342Y1628D01*
X201Y1627D02*
X208Y1627D01*
X238Y1627D02*
X245Y1627D01*
X298Y1627D02*
X305Y1627D01*
X318Y1627D02*
X325Y1627D01*
X335Y1627D02*
X342Y1627D01*
X201Y1626D02*
X208Y1626D01*
X238Y1626D02*
X245Y1626D01*
X298Y1626D02*
X305Y1626D01*
X318Y1626D02*
X325Y1626D01*
X335Y1626D02*
X342Y1626D01*
X201Y1625D02*
X208Y1625D01*
X238Y1625D02*
X245Y1625D01*
X298Y1625D02*
X305Y1625D01*
X318Y1625D02*
X325Y1625D01*
X335Y1625D02*
X342Y1625D01*
X201Y1624D02*
X208Y1624D01*
X238Y1624D02*
X245Y1624D01*
X298Y1624D02*
X305Y1624D01*
X318Y1624D02*
X325Y1624D01*
X335Y1624D02*
X342Y1624D01*
X201Y1623D02*
X208Y1623D01*
X238Y1623D02*
X245Y1623D01*
X298Y1623D02*
X305Y1623D01*
X318Y1623D02*
X325Y1623D01*
X335Y1623D02*
X342Y1623D01*
X201Y1622D02*
X208Y1622D01*
X238Y1622D02*
X245Y1622D01*
X298Y1622D02*
X305Y1622D01*
X318Y1622D02*
X325Y1622D01*
X335Y1622D02*
X342Y1622D01*
X201Y1621D02*
X208Y1621D01*
X238Y1621D02*
X245Y1621D01*
X298Y1621D02*
X305Y1621D01*
X318Y1621D02*
X325Y1621D01*
X335Y1621D02*
X342Y1621D01*
X201Y1620D02*
X208Y1620D01*
X238Y1620D02*
X245Y1620D01*
X298Y1620D02*
X305Y1620D01*
X318Y1620D02*
X325Y1620D01*
X335Y1620D02*
X342Y1620D01*
X201Y1619D02*
X208Y1619D01*
X238Y1619D02*
X245Y1619D01*
X298Y1619D02*
X305Y1619D01*
X318Y1619D02*
X325Y1619D01*
X335Y1619D02*
X342Y1619D01*
X201Y1618D02*
X208Y1618D01*
X238Y1618D02*
X245Y1618D01*
X298Y1618D02*
X305Y1618D01*
X318Y1618D02*
X325Y1618D01*
X335Y1618D02*
X342Y1618D01*
X201Y1617D02*
X208Y1617D01*
X238Y1617D02*
X245Y1617D01*
X298Y1617D02*
X305Y1617D01*
X318Y1617D02*
X325Y1617D01*
X335Y1617D02*
X342Y1617D01*
X201Y1616D02*
X208Y1616D01*
X238Y1616D02*
X245Y1616D01*
X298Y1616D02*
X305Y1616D01*
X318Y1616D02*
X325Y1616D01*
X335Y1616D02*
X342Y1616D01*
X201Y1615D02*
X209Y1615D01*
X237Y1615D02*
X245Y1615D01*
X298Y1615D02*
X306Y1615D01*
X318Y1615D02*
X325Y1615D01*
X335Y1615D02*
X342Y1615D01*
X202Y1614D02*
X209Y1614D01*
X237Y1614D02*
X244Y1614D01*
X299Y1614D02*
X307Y1614D01*
X318Y1614D02*
X325Y1614D01*
X335Y1614D02*
X342Y1614D01*
X202Y1613D02*
X210Y1613D01*
X236Y1613D02*
X244Y1613D01*
X299Y1613D02*
X307Y1613D01*
X318Y1613D02*
X325Y1613D01*
X335Y1613D02*
X342Y1613D01*
X202Y1612D02*
X211Y1612D01*
X235Y1612D02*
X244Y1612D01*
X299Y1612D02*
X309Y1612D01*
X318Y1612D02*
X325Y1612D01*
X335Y1612D02*
X342Y1612D01*
X203Y1611D02*
X213Y1611D01*
X234Y1611D02*
X243Y1611D01*
X300Y1611D02*
X311Y1611D01*
X318Y1611D02*
X325Y1611D01*
X335Y1611D02*
X342Y1611D01*
X204Y1610D02*
X242Y1610D01*
X301Y1610D02*
X325Y1610D01*
X335Y1610D02*
X342Y1610D01*
X205Y1609D02*
X242Y1609D01*
X302Y1609D02*
X325Y1609D01*
X335Y1609D02*
X342Y1609D01*
X205Y1608D02*
X241Y1608D01*
X303Y1608D02*
X325Y1608D01*
X335Y1608D02*
X342Y1608D01*
X206Y1607D02*
X240Y1607D01*
X303Y1607D02*
X325Y1607D01*
X335Y1607D02*
X342Y1607D01*
X207Y1606D02*
X239Y1606D01*
X304Y1606D02*
X325Y1606D01*
X335Y1606D02*
X341Y1606D01*
X208Y1605D02*
X238Y1605D01*
X306Y1605D02*
X324Y1605D01*
X335Y1605D02*
X341Y1605D01*
X210Y1604D02*
X236Y1604D01*
X307Y1604D02*
X324Y1604D01*
X336Y1604D02*
X340Y1604D01*
X212Y1603D02*
X234Y1603D01*
X312Y1603D02*
X321Y1603D01*
X210Y1584D02*
X219Y1584D01*
X208Y1583D02*
X222Y1583D01*
X205Y1582D02*
X224Y1582D01*
X203Y1581D02*
X226Y1581D01*
X201Y1580D02*
X228Y1580D01*
X199Y1579D02*
X230Y1579D01*
X197Y1578D02*
X232Y1578D01*
X195Y1577D02*
X234Y1577D01*
X193Y1576D02*
X210Y1576D01*
X219Y1576D02*
X236Y1576D01*
X191Y1575D02*
X208Y1575D01*
X221Y1575D02*
X238Y1575D01*
X190Y1574D02*
X206Y1574D01*
X223Y1574D02*
X240Y1574D01*
X188Y1573D02*
X204Y1573D01*
X225Y1573D02*
X241Y1573D01*
X187Y1572D02*
X202Y1572D01*
X227Y1572D02*
X242Y1572D01*
X187Y1571D02*
X200Y1571D01*
X229Y1571D02*
X243Y1571D01*
X186Y1570D02*
X198Y1570D01*
X231Y1570D02*
X243Y1570D01*
X186Y1569D02*
X196Y1569D01*
X233Y1569D02*
X244Y1569D01*
X185Y1568D02*
X194Y1568D01*
X235Y1568D02*
X244Y1568D01*
X185Y1567D02*
X193Y1567D01*
X237Y1567D02*
X245Y1567D01*
X185Y1566D02*
X192Y1566D01*
X238Y1566D02*
X245Y1566D01*
X185Y1565D02*
X192Y1565D01*
X238Y1565D02*
X245Y1565D01*
X185Y1564D02*
X192Y1564D01*
X238Y1564D02*
X245Y1564D01*
X185Y1563D02*
X192Y1563D01*
X238Y1563D02*
X245Y1563D01*
X185Y1562D02*
X192Y1562D01*
X238Y1562D02*
X245Y1562D01*
X185Y1561D02*
X192Y1561D01*
X238Y1561D02*
X245Y1561D01*
X185Y1560D02*
X192Y1560D01*
X238Y1560D02*
X245Y1560D01*
X185Y1559D02*
X192Y1559D01*
X238Y1559D02*
X245Y1559D01*
X185Y1558D02*
X192Y1558D01*
X238Y1558D02*
X245Y1558D01*
X185Y1557D02*
X192Y1557D01*
X238Y1557D02*
X245Y1557D01*
X185Y1556D02*
X192Y1556D01*
X238Y1556D02*
X245Y1556D01*
X185Y1555D02*
X192Y1555D01*
X238Y1555D02*
X245Y1555D01*
X185Y1554D02*
X192Y1554D01*
X238Y1554D02*
X245Y1554D01*
X185Y1553D02*
X192Y1553D01*
X238Y1553D02*
X245Y1553D01*
X185Y1552D02*
X192Y1552D01*
X238Y1552D02*
X245Y1552D01*
X185Y1551D02*
X192Y1551D01*
X238Y1551D02*
X245Y1551D01*
X185Y1550D02*
X191Y1550D01*
X238Y1550D02*
X245Y1550D01*
X185Y1549D02*
X191Y1549D01*
X238Y1549D02*
X245Y1549D01*
X185Y1548D02*
X191Y1548D01*
X238Y1548D02*
X245Y1548D01*
X186Y1547D02*
X190Y1547D01*
X239Y1547D02*
X244Y1547D01*
X187Y1546D02*
X189Y1546D01*
X240Y1546D02*
X243Y1546D01*
X284Y1528D02*
X286Y1528D01*
X337Y1528D02*
X339Y1528D01*
X211Y1527D02*
X235Y1527D01*
X282Y1527D02*
X287Y1527D01*
X336Y1527D02*
X341Y1527D01*
X209Y1526D02*
X237Y1526D01*
X282Y1526D02*
X288Y1526D01*
X335Y1526D02*
X341Y1526D01*
X208Y1525D02*
X238Y1525D01*
X281Y1525D02*
X288Y1525D01*
X335Y1525D02*
X342Y1525D01*
X207Y1524D02*
X239Y1524D01*
X281Y1524D02*
X288Y1524D01*
X335Y1524D02*
X342Y1524D01*
X206Y1523D02*
X240Y1523D01*
X281Y1523D02*
X288Y1523D01*
X335Y1523D02*
X342Y1523D01*
X205Y1522D02*
X241Y1522D01*
X281Y1522D02*
X288Y1522D01*
X335Y1522D02*
X342Y1522D01*
X204Y1521D02*
X242Y1521D01*
X281Y1521D02*
X288Y1521D01*
X335Y1521D02*
X342Y1521D01*
X203Y1520D02*
X243Y1520D01*
X281Y1520D02*
X288Y1520D01*
X335Y1520D02*
X342Y1520D01*
X203Y1519D02*
X212Y1519D01*
X234Y1519D02*
X243Y1519D01*
X281Y1519D02*
X288Y1519D01*
X335Y1519D02*
X342Y1519D01*
X202Y1518D02*
X211Y1518D01*
X235Y1518D02*
X244Y1518D01*
X281Y1518D02*
X288Y1518D01*
X335Y1518D02*
X342Y1518D01*
X202Y1517D02*
X210Y1517D01*
X236Y1517D02*
X244Y1517D01*
X281Y1517D02*
X288Y1517D01*
X335Y1517D02*
X342Y1517D01*
X202Y1516D02*
X209Y1516D01*
X237Y1516D02*
X245Y1516D01*
X281Y1516D02*
X288Y1516D01*
X335Y1516D02*
X342Y1516D01*
X201Y1515D02*
X209Y1515D01*
X237Y1515D02*
X245Y1515D01*
X281Y1515D02*
X288Y1515D01*
X335Y1515D02*
X342Y1515D01*
X201Y1514D02*
X208Y1514D01*
X238Y1514D02*
X245Y1514D01*
X281Y1514D02*
X288Y1514D01*
X335Y1514D02*
X342Y1514D01*
X201Y1513D02*
X208Y1513D01*
X238Y1513D02*
X245Y1513D01*
X281Y1513D02*
X288Y1513D01*
X335Y1513D02*
X342Y1513D01*
X201Y1512D02*
X208Y1512D01*
X238Y1512D02*
X245Y1512D01*
X281Y1512D02*
X342Y1512D01*
X201Y1511D02*
X208Y1511D01*
X238Y1511D02*
X245Y1511D01*
X281Y1511D02*
X342Y1511D01*
X201Y1510D02*
X208Y1510D01*
X238Y1510D02*
X245Y1510D01*
X281Y1510D02*
X342Y1510D01*
X201Y1509D02*
X208Y1509D01*
X238Y1509D02*
X245Y1509D01*
X281Y1509D02*
X342Y1509D01*
X201Y1508D02*
X208Y1508D01*
X238Y1508D02*
X245Y1508D01*
X281Y1508D02*
X342Y1508D01*
X201Y1507D02*
X208Y1507D01*
X238Y1507D02*
X245Y1507D01*
X281Y1507D02*
X342Y1507D01*
X201Y1506D02*
X208Y1506D01*
X238Y1506D02*
X245Y1506D01*
X281Y1506D02*
X342Y1506D01*
X201Y1505D02*
X208Y1505D01*
X238Y1505D02*
X245Y1505D01*
X281Y1505D02*
X342Y1505D01*
X201Y1504D02*
X208Y1504D01*
X238Y1504D02*
X245Y1504D01*
X281Y1504D02*
X288Y1504D01*
X335Y1504D02*
X342Y1504D01*
X201Y1503D02*
X208Y1503D01*
X238Y1503D02*
X245Y1503D01*
X281Y1503D02*
X288Y1503D01*
X335Y1503D02*
X342Y1503D01*
X201Y1502D02*
X208Y1502D01*
X238Y1502D02*
X245Y1502D01*
X281Y1502D02*
X288Y1502D01*
X335Y1502D02*
X342Y1502D01*
X201Y1501D02*
X209Y1501D01*
X237Y1501D02*
X245Y1501D01*
X281Y1501D02*
X288Y1501D01*
X335Y1501D02*
X342Y1501D01*
X202Y1500D02*
X210Y1500D01*
X236Y1500D02*
X244Y1500D01*
X281Y1500D02*
X288Y1500D01*
X335Y1500D02*
X342Y1500D01*
X202Y1499D02*
X210Y1499D01*
X236Y1499D02*
X244Y1499D01*
X281Y1499D02*
X288Y1499D01*
X335Y1499D02*
X342Y1499D01*
X203Y1498D02*
X211Y1498D01*
X235Y1498D02*
X244Y1498D01*
X281Y1498D02*
X288Y1498D01*
X335Y1498D02*
X342Y1498D01*
X203Y1497D02*
X213Y1497D01*
X233Y1497D02*
X243Y1497D01*
X281Y1497D02*
X288Y1497D01*
X335Y1497D02*
X342Y1497D01*
X204Y1496D02*
X242Y1496D01*
X281Y1496D02*
X288Y1496D01*
X335Y1496D02*
X342Y1496D01*
X205Y1495D02*
X242Y1495D01*
X281Y1495D02*
X288Y1495D01*
X335Y1495D02*
X342Y1495D01*
X205Y1494D02*
X241Y1494D01*
X281Y1494D02*
X288Y1494D01*
X335Y1494D02*
X342Y1494D01*
X206Y1493D02*
X240Y1493D01*
X281Y1493D02*
X288Y1493D01*
X335Y1493D02*
X342Y1493D01*
X207Y1492D02*
X239Y1492D01*
X282Y1492D02*
X288Y1492D01*
X335Y1492D02*
X341Y1492D01*
X208Y1491D02*
X238Y1491D01*
X282Y1491D02*
X288Y1491D01*
X335Y1491D02*
X341Y1491D01*
X210Y1490D02*
X236Y1490D01*
X283Y1490D02*
X287Y1490D01*
X336Y1490D02*
X340Y1490D01*
X213Y1489D02*
X234Y1489D01*
X300Y1471D02*
X339Y1471D01*
X203Y1470D02*
X243Y1470D01*
X299Y1470D02*
X341Y1470D01*
X202Y1469D02*
X244Y1469D01*
X298Y1469D02*
X341Y1469D01*
X201Y1468D02*
X245Y1468D01*
X298Y1468D02*
X342Y1468D01*
X201Y1467D02*
X245Y1467D01*
X298Y1467D02*
X342Y1467D01*
X201Y1466D02*
X245Y1466D01*
X298Y1466D02*
X341Y1466D01*
X202Y1465D02*
X244Y1465D01*
X299Y1465D02*
X341Y1465D01*
X203Y1464D02*
X244Y1464D01*
X300Y1464D02*
X340Y1464D01*
X205Y1463D02*
X241Y1463D01*
X304Y1463D02*
X313Y1463D01*
X207Y1462D02*
X216Y1462D01*
X304Y1462D02*
X312Y1462D01*
X207Y1461D02*
X215Y1461D01*
X303Y1461D02*
X312Y1461D01*
X206Y1460D02*
X215Y1460D01*
X302Y1460D02*
X311Y1460D01*
X205Y1459D02*
X214Y1459D01*
X302Y1459D02*
X310Y1459D01*
X205Y1458D02*
X213Y1458D01*
X301Y1458D02*
X310Y1458D01*
X204Y1457D02*
X213Y1457D01*
X301Y1457D02*
X309Y1457D01*
X203Y1456D02*
X212Y1456D01*
X300Y1456D02*
X308Y1456D01*
X203Y1455D02*
X211Y1455D01*
X299Y1455D02*
X308Y1455D01*
X202Y1454D02*
X211Y1454D01*
X299Y1454D02*
X307Y1454D01*
X202Y1453D02*
X210Y1453D01*
X299Y1453D02*
X306Y1453D01*
X202Y1452D02*
X209Y1452D01*
X298Y1452D02*
X306Y1452D01*
X201Y1451D02*
X209Y1451D01*
X298Y1451D02*
X305Y1451D01*
X201Y1450D02*
X208Y1450D01*
X298Y1450D02*
X305Y1450D01*
X201Y1449D02*
X208Y1449D01*
X298Y1449D02*
X305Y1449D01*
X201Y1448D02*
X208Y1448D01*
X298Y1448D02*
X305Y1448D01*
X201Y1447D02*
X208Y1447D01*
X298Y1447D02*
X305Y1447D01*
X201Y1446D02*
X208Y1446D01*
X298Y1446D02*
X305Y1446D01*
X201Y1445D02*
X208Y1445D01*
X298Y1445D02*
X305Y1445D01*
X201Y1444D02*
X208Y1444D01*
X298Y1444D02*
X305Y1444D01*
X201Y1443D02*
X209Y1443D01*
X298Y1443D02*
X306Y1443D01*
X202Y1442D02*
X209Y1442D01*
X298Y1442D02*
X307Y1442D01*
X202Y1441D02*
X211Y1441D01*
X299Y1441D02*
X315Y1441D01*
X202Y1440D02*
X231Y1440D01*
X299Y1440D02*
X339Y1440D01*
X203Y1439D02*
X243Y1439D01*
X300Y1439D02*
X340Y1439D01*
X203Y1438D02*
X244Y1438D01*
X300Y1438D02*
X341Y1438D01*
X204Y1437D02*
X245Y1437D01*
X301Y1437D02*
X342Y1437D01*
X205Y1436D02*
X245Y1436D01*
X302Y1436D02*
X342Y1436D01*
X206Y1435D02*
X245Y1435D01*
X304Y1435D02*
X341Y1435D01*
X208Y1434D02*
X244Y1434D01*
X306Y1434D02*
X341Y1434D01*
X211Y1433D02*
X244Y1433D01*
X318Y1433D02*
X340Y1433D01*
X235Y1432D02*
X242Y1432D01*
X206Y1414D02*
X240Y1414D01*
X300Y1414D02*
X303Y1414D01*
X203Y1413D02*
X243Y1413D01*
X299Y1413D02*
X304Y1413D01*
X202Y1412D02*
X244Y1412D01*
X298Y1412D02*
X305Y1412D01*
X201Y1411D02*
X245Y1411D01*
X298Y1411D02*
X305Y1411D01*
X201Y1410D02*
X245Y1410D01*
X298Y1410D02*
X305Y1410D01*
X201Y1409D02*
X245Y1409D01*
X298Y1409D02*
X305Y1409D01*
X202Y1408D02*
X244Y1408D01*
X298Y1408D02*
X305Y1408D01*
X203Y1407D02*
X243Y1407D01*
X298Y1407D02*
X305Y1407D01*
X207Y1406D02*
X217Y1406D01*
X286Y1406D02*
X334Y1406D01*
X207Y1405D02*
X216Y1405D01*
X285Y1405D02*
X336Y1405D01*
X207Y1404D02*
X215Y1404D01*
X285Y1404D02*
X337Y1404D01*
X206Y1403D02*
X214Y1403D01*
X285Y1403D02*
X338Y1403D01*
X205Y1402D02*
X214Y1402D01*
X285Y1402D02*
X339Y1402D01*
X205Y1401D02*
X213Y1401D01*
X285Y1401D02*
X340Y1401D01*
X204Y1400D02*
X213Y1400D01*
X286Y1400D02*
X341Y1400D01*
X203Y1399D02*
X212Y1399D01*
X288Y1399D02*
X341Y1399D01*
X203Y1398D02*
X211Y1398D01*
X298Y1398D02*
X305Y1398D01*
X333Y1398D02*
X341Y1398D01*
X202Y1397D02*
X211Y1397D01*
X298Y1397D02*
X305Y1397D01*
X334Y1397D02*
X341Y1397D01*
X202Y1396D02*
X210Y1396D01*
X298Y1396D02*
X305Y1396D01*
X335Y1396D02*
X342Y1396D01*
X202Y1395D02*
X209Y1395D01*
X298Y1395D02*
X305Y1395D01*
X335Y1395D02*
X342Y1395D01*
X201Y1394D02*
X209Y1394D01*
X298Y1394D02*
X305Y1394D01*
X335Y1394D02*
X342Y1394D01*
X201Y1393D02*
X208Y1393D01*
X298Y1393D02*
X305Y1393D01*
X335Y1393D02*
X342Y1393D01*
X201Y1392D02*
X208Y1392D01*
X298Y1392D02*
X305Y1392D01*
X335Y1392D02*
X342Y1392D01*
X201Y1391D02*
X208Y1391D01*
X298Y1391D02*
X305Y1391D01*
X335Y1391D02*
X342Y1391D01*
X201Y1390D02*
X208Y1390D01*
X298Y1390D02*
X305Y1390D01*
X335Y1390D02*
X342Y1390D01*
X201Y1389D02*
X208Y1389D01*
X298Y1389D02*
X305Y1389D01*
X335Y1389D02*
X342Y1389D01*
X201Y1388D02*
X208Y1388D01*
X298Y1388D02*
X305Y1388D01*
X335Y1388D02*
X342Y1388D01*
X201Y1387D02*
X208Y1387D01*
X298Y1387D02*
X305Y1387D01*
X335Y1387D02*
X342Y1387D01*
X201Y1386D02*
X209Y1386D01*
X298Y1386D02*
X305Y1386D01*
X335Y1386D02*
X342Y1386D01*
X202Y1385D02*
X209Y1385D01*
X298Y1385D02*
X305Y1385D01*
X334Y1385D02*
X341Y1385D01*
X202Y1384D02*
X211Y1384D01*
X298Y1384D02*
X305Y1384D01*
X333Y1384D02*
X341Y1384D01*
X202Y1383D02*
X234Y1383D01*
X298Y1383D02*
X305Y1383D01*
X331Y1383D02*
X341Y1383D01*
X203Y1382D02*
X243Y1382D01*
X298Y1382D02*
X305Y1382D01*
X329Y1382D02*
X340Y1382D01*
X203Y1381D02*
X244Y1381D01*
X299Y1381D02*
X304Y1381D01*
X329Y1381D02*
X340Y1381D01*
X204Y1380D02*
X245Y1380D01*
X300Y1380D02*
X303Y1380D01*
X328Y1380D02*
X339Y1380D01*
X205Y1379D02*
X245Y1379D01*
X328Y1379D02*
X338Y1379D01*
X206Y1378D02*
X245Y1378D01*
X328Y1378D02*
X337Y1378D01*
X208Y1377D02*
X244Y1377D01*
X329Y1377D02*
X336Y1377D01*
X211Y1376D02*
X244Y1376D01*
X330Y1376D02*
X334Y1376D01*
X238Y1375D02*
X242Y1375D01*
X215Y1357D02*
X232Y1357D01*
X309Y1357D02*
X331Y1357D01*
X211Y1356D02*
X236Y1356D01*
X307Y1356D02*
X333Y1356D01*
X209Y1355D02*
X237Y1355D01*
X305Y1355D02*
X335Y1355D01*
X208Y1354D02*
X239Y1354D01*
X304Y1354D02*
X336Y1354D01*
X207Y1353D02*
X240Y1353D01*
X303Y1353D02*
X337Y1353D01*
X206Y1352D02*
X241Y1352D01*
X302Y1352D02*
X338Y1352D01*
X205Y1351D02*
X241Y1351D01*
X301Y1351D02*
X339Y1351D01*
X204Y1350D02*
X242Y1350D01*
X300Y1350D02*
X339Y1350D01*
X203Y1349D02*
X214Y1349D01*
X221Y1349D02*
X229Y1349D01*
X232Y1349D02*
X243Y1349D01*
X300Y1349D02*
X309Y1349D01*
X318Y1349D02*
X325Y1349D01*
X331Y1349D02*
X340Y1349D01*
X203Y1348D02*
X212Y1348D01*
X221Y1348D02*
X228Y1348D01*
X234Y1348D02*
X244Y1348D01*
X299Y1348D02*
X308Y1348D01*
X318Y1348D02*
X325Y1348D01*
X332Y1348D02*
X341Y1348D01*
X202Y1347D02*
X211Y1347D01*
X221Y1347D02*
X228Y1347D01*
X235Y1347D02*
X244Y1347D01*
X299Y1347D02*
X307Y1347D01*
X318Y1347D02*
X325Y1347D01*
X333Y1347D02*
X341Y1347D01*
X202Y1346D02*
X210Y1346D01*
X221Y1346D02*
X228Y1346D01*
X236Y1346D02*
X244Y1346D01*
X298Y1346D02*
X306Y1346D01*
X318Y1346D02*
X325Y1346D01*
X333Y1346D02*
X341Y1346D01*
X202Y1345D02*
X209Y1345D01*
X221Y1345D02*
X228Y1345D01*
X237Y1345D02*
X245Y1345D01*
X298Y1345D02*
X306Y1345D01*
X318Y1345D02*
X325Y1345D01*
X334Y1345D02*
X342Y1345D01*
X201Y1344D02*
X209Y1344D01*
X221Y1344D02*
X228Y1344D01*
X238Y1344D02*
X245Y1344D01*
X298Y1344D02*
X305Y1344D01*
X318Y1344D02*
X325Y1344D01*
X335Y1344D02*
X342Y1344D01*
X201Y1343D02*
X208Y1343D01*
X221Y1343D02*
X228Y1343D01*
X238Y1343D02*
X245Y1343D01*
X298Y1343D02*
X305Y1343D01*
X318Y1343D02*
X325Y1343D01*
X335Y1343D02*
X342Y1343D01*
X201Y1342D02*
X208Y1342D01*
X221Y1342D02*
X228Y1342D01*
X238Y1342D02*
X245Y1342D01*
X298Y1342D02*
X305Y1342D01*
X318Y1342D02*
X325Y1342D01*
X335Y1342D02*
X342Y1342D01*
X201Y1341D02*
X208Y1341D01*
X221Y1341D02*
X228Y1341D01*
X238Y1341D02*
X245Y1341D01*
X298Y1341D02*
X305Y1341D01*
X318Y1341D02*
X325Y1341D01*
X335Y1341D02*
X342Y1341D01*
X201Y1340D02*
X208Y1340D01*
X221Y1340D02*
X228Y1340D01*
X238Y1340D02*
X245Y1340D01*
X298Y1340D02*
X305Y1340D01*
X318Y1340D02*
X325Y1340D01*
X335Y1340D02*
X342Y1340D01*
X201Y1339D02*
X208Y1339D01*
X221Y1339D02*
X228Y1339D01*
X238Y1339D02*
X245Y1339D01*
X298Y1339D02*
X305Y1339D01*
X318Y1339D02*
X325Y1339D01*
X335Y1339D02*
X342Y1339D01*
X201Y1338D02*
X208Y1338D01*
X221Y1338D02*
X228Y1338D01*
X238Y1338D02*
X245Y1338D01*
X298Y1338D02*
X305Y1338D01*
X318Y1338D02*
X325Y1338D01*
X335Y1338D02*
X342Y1338D01*
X201Y1337D02*
X208Y1337D01*
X221Y1337D02*
X228Y1337D01*
X238Y1337D02*
X245Y1337D01*
X298Y1337D02*
X305Y1337D01*
X318Y1337D02*
X325Y1337D01*
X335Y1337D02*
X342Y1337D01*
X201Y1336D02*
X208Y1336D01*
X221Y1336D02*
X228Y1336D01*
X238Y1336D02*
X245Y1336D01*
X298Y1336D02*
X305Y1336D01*
X318Y1336D02*
X325Y1336D01*
X335Y1336D02*
X342Y1336D01*
X201Y1335D02*
X208Y1335D01*
X221Y1335D02*
X228Y1335D01*
X238Y1335D02*
X245Y1335D01*
X298Y1335D02*
X305Y1335D01*
X318Y1335D02*
X325Y1335D01*
X335Y1335D02*
X342Y1335D01*
X201Y1334D02*
X208Y1334D01*
X221Y1334D02*
X228Y1334D01*
X238Y1334D02*
X245Y1334D01*
X298Y1334D02*
X305Y1334D01*
X318Y1334D02*
X325Y1334D01*
X335Y1334D02*
X342Y1334D01*
X201Y1333D02*
X208Y1333D01*
X221Y1333D02*
X228Y1333D01*
X238Y1333D02*
X245Y1333D01*
X298Y1333D02*
X305Y1333D01*
X318Y1333D02*
X325Y1333D01*
X335Y1333D02*
X342Y1333D01*
X201Y1332D02*
X208Y1332D01*
X221Y1332D02*
X228Y1332D01*
X238Y1332D02*
X245Y1332D01*
X298Y1332D02*
X305Y1332D01*
X318Y1332D02*
X325Y1332D01*
X335Y1332D02*
X342Y1332D01*
X201Y1331D02*
X209Y1331D01*
X221Y1331D02*
X228Y1331D01*
X238Y1331D02*
X245Y1331D01*
X298Y1331D02*
X306Y1331D01*
X318Y1331D02*
X325Y1331D01*
X335Y1331D02*
X342Y1331D01*
X202Y1330D02*
X209Y1330D01*
X221Y1330D02*
X228Y1330D01*
X238Y1330D02*
X245Y1330D01*
X298Y1330D02*
X306Y1330D01*
X318Y1330D02*
X325Y1330D01*
X335Y1330D02*
X342Y1330D01*
X202Y1329D02*
X210Y1329D01*
X221Y1329D02*
X228Y1329D01*
X238Y1329D02*
X245Y1329D01*
X299Y1329D02*
X307Y1329D01*
X318Y1329D02*
X325Y1329D01*
X335Y1329D02*
X342Y1329D01*
X202Y1328D02*
X211Y1328D01*
X221Y1328D02*
X228Y1328D01*
X238Y1328D02*
X245Y1328D01*
X299Y1328D02*
X308Y1328D01*
X318Y1328D02*
X325Y1328D01*
X335Y1328D02*
X342Y1328D01*
X203Y1327D02*
X212Y1327D01*
X221Y1327D02*
X228Y1327D01*
X238Y1327D02*
X245Y1327D01*
X300Y1327D02*
X309Y1327D01*
X318Y1327D02*
X325Y1327D01*
X335Y1327D02*
X342Y1327D01*
X203Y1326D02*
X213Y1326D01*
X221Y1326D02*
X228Y1326D01*
X238Y1326D02*
X245Y1326D01*
X300Y1326D02*
X325Y1326D01*
X335Y1326D02*
X342Y1326D01*
X204Y1325D02*
X228Y1325D01*
X238Y1325D02*
X245Y1325D01*
X301Y1325D02*
X325Y1325D01*
X335Y1325D02*
X342Y1325D01*
X205Y1324D02*
X228Y1324D01*
X238Y1324D02*
X245Y1324D01*
X302Y1324D02*
X325Y1324D01*
X335Y1324D02*
X342Y1324D01*
X206Y1323D02*
X228Y1323D01*
X238Y1323D02*
X245Y1323D01*
X303Y1323D02*
X325Y1323D01*
X335Y1323D02*
X342Y1323D01*
X207Y1322D02*
X228Y1322D01*
X238Y1322D02*
X245Y1322D01*
X304Y1322D02*
X325Y1322D01*
X335Y1322D02*
X342Y1322D01*
X208Y1321D02*
X228Y1321D01*
X238Y1321D02*
X245Y1321D01*
X305Y1321D02*
X325Y1321D01*
X335Y1321D02*
X341Y1321D01*
X209Y1320D02*
X228Y1320D01*
X239Y1320D02*
X244Y1320D01*
X306Y1320D02*
X324Y1320D01*
X336Y1320D02*
X341Y1320D01*
X210Y1319D02*
X227Y1319D01*
X239Y1319D02*
X244Y1319D01*
X309Y1319D02*
X323Y1319D01*
X337Y1319D02*
X340Y1319D01*
X214Y1318D02*
X225Y1318D01*
X241Y1318D02*
X242Y1318D01*
X217Y1300D02*
X229Y1300D01*
X300Y1300D02*
X340Y1300D01*
X214Y1299D02*
X232Y1299D01*
X299Y1299D02*
X341Y1299D01*
X212Y1298D02*
X234Y1298D01*
X298Y1298D02*
X341Y1298D01*
X211Y1297D02*
X235Y1297D01*
X298Y1297D02*
X342Y1297D01*
X210Y1296D02*
X236Y1296D01*
X298Y1296D02*
X342Y1296D01*
X209Y1295D02*
X237Y1295D01*
X298Y1295D02*
X341Y1295D01*
X208Y1294D02*
X238Y1294D01*
X299Y1294D02*
X341Y1294D01*
X207Y1293D02*
X239Y1293D01*
X301Y1293D02*
X339Y1293D01*
X206Y1292D02*
X217Y1292D01*
X229Y1292D02*
X240Y1292D01*
X306Y1292D02*
X316Y1292D01*
X205Y1291D02*
X215Y1291D01*
X231Y1291D02*
X241Y1291D01*
X305Y1291D02*
X315Y1291D01*
X204Y1290D02*
X214Y1290D01*
X232Y1290D02*
X241Y1290D01*
X304Y1290D02*
X314Y1290D01*
X204Y1289D02*
X213Y1289D01*
X233Y1289D02*
X242Y1289D01*
X303Y1289D02*
X313Y1289D01*
X203Y1288D02*
X212Y1288D01*
X234Y1288D02*
X243Y1288D01*
X303Y1288D02*
X312Y1288D01*
X203Y1287D02*
X212Y1287D01*
X235Y1287D02*
X244Y1287D01*
X302Y1287D02*
X311Y1287D01*
X202Y1286D02*
X211Y1286D01*
X235Y1286D02*
X244Y1286D01*
X301Y1286D02*
X310Y1286D01*
X202Y1285D02*
X210Y1285D01*
X236Y1285D02*
X244Y1285D01*
X300Y1285D02*
X310Y1285D01*
X202Y1284D02*
X209Y1284D01*
X237Y1284D02*
X245Y1284D01*
X299Y1284D02*
X309Y1284D01*
X201Y1283D02*
X208Y1283D01*
X238Y1283D02*
X245Y1283D01*
X298Y1283D02*
X308Y1283D01*
X201Y1282D02*
X208Y1282D01*
X238Y1282D02*
X245Y1282D01*
X298Y1282D02*
X307Y1282D01*
X201Y1281D02*
X208Y1281D01*
X238Y1281D02*
X245Y1281D01*
X298Y1281D02*
X306Y1281D01*
X201Y1280D02*
X208Y1280D01*
X238Y1280D02*
X245Y1280D01*
X298Y1280D02*
X305Y1280D01*
X201Y1279D02*
X208Y1279D01*
X238Y1279D02*
X245Y1279D01*
X298Y1279D02*
X305Y1279D01*
X201Y1278D02*
X208Y1278D01*
X238Y1278D02*
X245Y1278D01*
X298Y1278D02*
X305Y1278D01*
X201Y1277D02*
X208Y1277D01*
X238Y1277D02*
X245Y1277D01*
X298Y1277D02*
X305Y1277D01*
X201Y1276D02*
X208Y1276D01*
X238Y1276D02*
X245Y1276D01*
X298Y1276D02*
X305Y1276D01*
X201Y1275D02*
X208Y1275D01*
X238Y1275D02*
X245Y1275D01*
X298Y1275D02*
X305Y1275D01*
X201Y1274D02*
X208Y1274D01*
X238Y1274D02*
X245Y1274D01*
X298Y1274D02*
X305Y1274D01*
X201Y1273D02*
X208Y1273D01*
X238Y1273D02*
X245Y1273D01*
X298Y1273D02*
X305Y1273D01*
X201Y1272D02*
X208Y1272D01*
X238Y1272D02*
X245Y1272D01*
X298Y1272D02*
X305Y1272D01*
X201Y1271D02*
X208Y1271D01*
X238Y1271D02*
X245Y1271D01*
X298Y1271D02*
X306Y1271D01*
X201Y1270D02*
X208Y1270D01*
X238Y1270D02*
X245Y1270D01*
X299Y1270D02*
X307Y1270D01*
X201Y1269D02*
X208Y1269D01*
X238Y1269D02*
X245Y1269D01*
X299Y1269D02*
X313Y1269D01*
X201Y1268D02*
X208Y1268D01*
X238Y1268D02*
X245Y1268D01*
X299Y1268D02*
X314Y1268D01*
X201Y1267D02*
X208Y1267D01*
X238Y1267D02*
X245Y1267D01*
X300Y1267D02*
X315Y1267D01*
X201Y1266D02*
X208Y1266D01*
X238Y1266D02*
X245Y1266D01*
X301Y1266D02*
X315Y1266D01*
X201Y1265D02*
X208Y1265D01*
X238Y1265D02*
X245Y1265D01*
X302Y1265D02*
X315Y1265D01*
X201Y1264D02*
X208Y1264D01*
X238Y1264D02*
X245Y1264D01*
X303Y1264D02*
X315Y1264D01*
X202Y1263D02*
X208Y1263D01*
X239Y1263D02*
X244Y1263D01*
X304Y1263D02*
X314Y1263D01*
X203Y1262D02*
X207Y1262D01*
X239Y1262D02*
X244Y1262D01*
X307Y1262D02*
X313Y1262D01*
X204Y1243D02*
X205Y1243D01*
X202Y1242D02*
X207Y1242D01*
X202Y1241D02*
X208Y1241D01*
X300Y1241D02*
X303Y1241D01*
X201Y1240D02*
X208Y1240D01*
X299Y1240D02*
X304Y1240D01*
X201Y1239D02*
X208Y1239D01*
X298Y1239D02*
X305Y1239D01*
X201Y1238D02*
X208Y1238D01*
X298Y1238D02*
X305Y1238D01*
X201Y1237D02*
X208Y1237D01*
X298Y1237D02*
X305Y1237D01*
X201Y1236D02*
X208Y1236D01*
X298Y1236D02*
X305Y1236D01*
X190Y1235D02*
X236Y1235D01*
X298Y1235D02*
X305Y1235D01*
X189Y1234D02*
X239Y1234D01*
X294Y1234D02*
X338Y1234D01*
X188Y1233D02*
X240Y1233D01*
X290Y1233D02*
X340Y1233D01*
X188Y1232D02*
X241Y1232D01*
X288Y1232D02*
X341Y1232D01*
X188Y1231D02*
X242Y1231D01*
X287Y1231D02*
X342Y1231D01*
X188Y1230D02*
X243Y1230D01*
X285Y1230D02*
X342Y1230D01*
X189Y1229D02*
X244Y1229D01*
X285Y1229D02*
X341Y1229D01*
X190Y1228D02*
X244Y1228D01*
X284Y1228D02*
X341Y1228D01*
X201Y1227D02*
X208Y1227D01*
X236Y1227D02*
X244Y1227D01*
X283Y1227D02*
X340Y1227D01*
X201Y1226D02*
X208Y1226D01*
X237Y1226D02*
X245Y1226D01*
X283Y1226D02*
X293Y1226D01*
X298Y1226D02*
X305Y1226D01*
X201Y1225D02*
X208Y1225D01*
X238Y1225D02*
X245Y1225D01*
X282Y1225D02*
X291Y1225D01*
X298Y1225D02*
X305Y1225D01*
X201Y1224D02*
X208Y1224D01*
X238Y1224D02*
X245Y1224D01*
X282Y1224D02*
X290Y1224D01*
X298Y1224D02*
X305Y1224D01*
X201Y1223D02*
X208Y1223D01*
X238Y1223D02*
X245Y1223D01*
X282Y1223D02*
X289Y1223D01*
X298Y1223D02*
X305Y1223D01*
X201Y1222D02*
X208Y1222D01*
X238Y1222D02*
X245Y1222D01*
X281Y1222D02*
X289Y1222D01*
X298Y1222D02*
X305Y1222D01*
X201Y1221D02*
X208Y1221D01*
X238Y1221D02*
X245Y1221D01*
X281Y1221D02*
X288Y1221D01*
X298Y1221D02*
X305Y1221D01*
X201Y1220D02*
X208Y1220D01*
X238Y1220D02*
X245Y1220D01*
X281Y1220D02*
X288Y1220D01*
X298Y1220D02*
X305Y1220D01*
X201Y1219D02*
X208Y1219D01*
X238Y1219D02*
X245Y1219D01*
X281Y1219D02*
X288Y1219D01*
X298Y1219D02*
X305Y1219D01*
X201Y1218D02*
X208Y1218D01*
X238Y1218D02*
X245Y1218D01*
X281Y1218D02*
X288Y1218D01*
X298Y1218D02*
X305Y1218D01*
X201Y1217D02*
X208Y1217D01*
X238Y1217D02*
X245Y1217D01*
X281Y1217D02*
X288Y1217D01*
X298Y1217D02*
X305Y1217D01*
X201Y1216D02*
X208Y1216D01*
X238Y1216D02*
X245Y1216D01*
X281Y1216D02*
X288Y1216D01*
X299Y1216D02*
X304Y1216D01*
X201Y1215D02*
X208Y1215D01*
X238Y1215D02*
X245Y1215D01*
X281Y1215D02*
X288Y1215D01*
X300Y1215D02*
X303Y1215D01*
X201Y1214D02*
X208Y1214D01*
X237Y1214D02*
X245Y1214D01*
X281Y1214D02*
X288Y1214D01*
X201Y1213D02*
X208Y1213D01*
X237Y1213D02*
X245Y1213D01*
X281Y1213D02*
X288Y1213D01*
X201Y1212D02*
X208Y1212D01*
X235Y1212D02*
X244Y1212D01*
X281Y1212D02*
X288Y1212D01*
X201Y1211D02*
X208Y1211D01*
X233Y1211D02*
X244Y1211D01*
X281Y1211D02*
X288Y1211D01*
X202Y1210D02*
X208Y1210D01*
X232Y1210D02*
X243Y1210D01*
X281Y1210D02*
X288Y1210D01*
X203Y1209D02*
X207Y1209D01*
X231Y1209D02*
X243Y1209D01*
X282Y1209D02*
X288Y1209D01*
X231Y1208D02*
X242Y1208D01*
X282Y1208D02*
X287Y1208D01*
X231Y1207D02*
X241Y1207D01*
X284Y1207D02*
X286Y1207D01*
X232Y1206D02*
X240Y1206D01*
X233Y1205D02*
X238Y1205D01*
X213Y1186D02*
X233Y1186D01*
X322Y1186D02*
X334Y1186D01*
X210Y1185D02*
X236Y1185D01*
X320Y1185D02*
X336Y1185D01*
X209Y1184D02*
X238Y1184D01*
X319Y1184D02*
X338Y1184D01*
X207Y1183D02*
X239Y1183D01*
X318Y1183D02*
X339Y1183D01*
X206Y1182D02*
X240Y1182D01*
X317Y1182D02*
X339Y1182D01*
X206Y1181D02*
X241Y1181D01*
X316Y1181D02*
X340Y1181D01*
X205Y1180D02*
X242Y1180D01*
X316Y1180D02*
X341Y1180D01*
X204Y1179D02*
X242Y1179D01*
X315Y1179D02*
X341Y1179D01*
X203Y1178D02*
X213Y1178D01*
X233Y1178D02*
X243Y1178D01*
X299Y1178D02*
X304Y1178D01*
X315Y1178D02*
X323Y1178D01*
X333Y1178D02*
X341Y1178D01*
X203Y1177D02*
X212Y1177D01*
X235Y1177D02*
X244Y1177D01*
X299Y1177D02*
X304Y1177D01*
X315Y1177D02*
X322Y1177D01*
X334Y1177D02*
X342Y1177D01*
X202Y1176D02*
X211Y1176D01*
X236Y1176D02*
X244Y1176D01*
X298Y1176D02*
X305Y1176D01*
X315Y1176D02*
X322Y1176D01*
X335Y1176D02*
X342Y1176D01*
X202Y1175D02*
X210Y1175D01*
X236Y1175D02*
X244Y1175D01*
X298Y1175D02*
X305Y1175D01*
X315Y1175D02*
X322Y1175D01*
X335Y1175D02*
X342Y1175D01*
X201Y1174D02*
X209Y1174D01*
X237Y1174D02*
X245Y1174D01*
X298Y1174D02*
X305Y1174D01*
X315Y1174D02*
X322Y1174D01*
X335Y1174D02*
X342Y1174D01*
X201Y1173D02*
X208Y1173D01*
X238Y1173D02*
X245Y1173D01*
X298Y1173D02*
X305Y1173D01*
X315Y1173D02*
X322Y1173D01*
X335Y1173D02*
X342Y1173D01*
X201Y1172D02*
X208Y1172D01*
X238Y1172D02*
X245Y1172D01*
X298Y1172D02*
X305Y1172D01*
X315Y1172D02*
X322Y1172D01*
X335Y1172D02*
X342Y1172D01*
X201Y1171D02*
X208Y1171D01*
X238Y1171D02*
X245Y1171D01*
X298Y1171D02*
X305Y1171D01*
X315Y1171D02*
X322Y1171D01*
X335Y1171D02*
X342Y1171D01*
X201Y1170D02*
X208Y1170D01*
X238Y1170D02*
X245Y1170D01*
X298Y1170D02*
X305Y1170D01*
X315Y1170D02*
X322Y1170D01*
X335Y1170D02*
X342Y1170D01*
X201Y1169D02*
X208Y1169D01*
X238Y1169D02*
X245Y1169D01*
X298Y1169D02*
X305Y1169D01*
X315Y1169D02*
X322Y1169D01*
X335Y1169D02*
X342Y1169D01*
X201Y1168D02*
X208Y1168D01*
X238Y1168D02*
X245Y1168D01*
X298Y1168D02*
X305Y1168D01*
X315Y1168D02*
X322Y1168D01*
X335Y1168D02*
X342Y1168D01*
X201Y1167D02*
X208Y1167D01*
X238Y1167D02*
X245Y1167D01*
X298Y1167D02*
X305Y1167D01*
X315Y1167D02*
X322Y1167D01*
X335Y1167D02*
X342Y1167D01*
X201Y1166D02*
X208Y1166D01*
X238Y1166D02*
X245Y1166D01*
X298Y1166D02*
X305Y1166D01*
X315Y1166D02*
X322Y1166D01*
X335Y1166D02*
X342Y1166D01*
X201Y1165D02*
X208Y1165D01*
X238Y1165D02*
X245Y1165D01*
X298Y1165D02*
X305Y1165D01*
X315Y1165D02*
X322Y1165D01*
X335Y1165D02*
X342Y1165D01*
X201Y1164D02*
X208Y1164D01*
X238Y1164D02*
X245Y1164D01*
X298Y1164D02*
X305Y1164D01*
X315Y1164D02*
X322Y1164D01*
X334Y1164D02*
X342Y1164D01*
X201Y1163D02*
X208Y1163D01*
X238Y1163D02*
X245Y1163D01*
X298Y1163D02*
X305Y1163D01*
X315Y1163D02*
X322Y1163D01*
X334Y1163D02*
X342Y1163D01*
X201Y1162D02*
X208Y1162D01*
X238Y1162D02*
X245Y1162D01*
X298Y1162D02*
X305Y1162D01*
X315Y1162D02*
X322Y1162D01*
X333Y1162D02*
X341Y1162D01*
X201Y1161D02*
X208Y1161D01*
X238Y1161D02*
X245Y1161D01*
X298Y1161D02*
X305Y1161D01*
X315Y1161D02*
X322Y1161D01*
X333Y1161D02*
X341Y1161D01*
X201Y1160D02*
X209Y1160D01*
X238Y1160D02*
X245Y1160D01*
X298Y1160D02*
X305Y1160D01*
X315Y1160D02*
X322Y1160D01*
X332Y1160D02*
X340Y1160D01*
X202Y1159D02*
X209Y1159D01*
X237Y1159D02*
X245Y1159D01*
X298Y1159D02*
X305Y1159D01*
X315Y1159D02*
X322Y1159D01*
X332Y1159D02*
X340Y1159D01*
X202Y1158D02*
X210Y1158D01*
X236Y1158D02*
X244Y1158D01*
X298Y1158D02*
X306Y1158D01*
X315Y1158D02*
X322Y1158D01*
X331Y1158D02*
X339Y1158D01*
X202Y1157D02*
X211Y1157D01*
X235Y1157D02*
X244Y1157D01*
X299Y1157D02*
X308Y1157D01*
X315Y1157D02*
X323Y1157D01*
X330Y1157D02*
X339Y1157D01*
X203Y1156D02*
X212Y1156D01*
X234Y1156D02*
X243Y1156D01*
X299Y1156D02*
X338Y1156D01*
X203Y1155D02*
X243Y1155D01*
X299Y1155D02*
X340Y1155D01*
X204Y1154D02*
X242Y1154D01*
X300Y1154D02*
X341Y1154D01*
X205Y1153D02*
X241Y1153D01*
X301Y1153D02*
X341Y1153D01*
X206Y1152D02*
X240Y1152D01*
X302Y1152D02*
X342Y1152D01*
X207Y1151D02*
X239Y1151D01*
X303Y1151D02*
X342Y1151D01*
X208Y1150D02*
X238Y1150D01*
X304Y1150D02*
X341Y1150D01*
X209Y1149D02*
X237Y1149D01*
X307Y1149D02*
X341Y1149D01*
X211Y1148D02*
X235Y1148D01*
X328Y1148D02*
X339Y1148D01*
X204Y1129D02*
X243Y1129D01*
X311Y1129D02*
X329Y1129D01*
X202Y1128D02*
X244Y1128D01*
X309Y1128D02*
X331Y1128D01*
X202Y1127D02*
X245Y1127D01*
X308Y1127D02*
X332Y1127D01*
X201Y1126D02*
X245Y1126D01*
X307Y1126D02*
X333Y1126D01*
X201Y1125D02*
X245Y1125D01*
X306Y1125D02*
X334Y1125D01*
X202Y1124D02*
X245Y1124D01*
X305Y1124D02*
X335Y1124D01*
X202Y1123D02*
X244Y1123D01*
X304Y1123D02*
X335Y1123D01*
X203Y1122D02*
X243Y1122D01*
X303Y1122D02*
X336Y1122D01*
X209Y1121D02*
X219Y1121D01*
X302Y1121D02*
X312Y1121D01*
X328Y1121D02*
X337Y1121D01*
X209Y1120D02*
X218Y1120D01*
X301Y1120D02*
X311Y1120D01*
X329Y1120D02*
X338Y1120D01*
X208Y1119D02*
X217Y1119D01*
X301Y1119D02*
X310Y1119D01*
X329Y1119D02*
X339Y1119D01*
X207Y1118D02*
X216Y1118D01*
X300Y1118D02*
X309Y1118D01*
X330Y1118D02*
X340Y1118D01*
X206Y1117D02*
X216Y1117D01*
X299Y1117D02*
X309Y1117D01*
X331Y1117D02*
X340Y1117D01*
X205Y1116D02*
X215Y1116D01*
X299Y1116D02*
X308Y1116D01*
X332Y1116D02*
X341Y1116D01*
X204Y1115D02*
X214Y1115D01*
X299Y1115D02*
X307Y1115D01*
X333Y1115D02*
X341Y1115D01*
X204Y1114D02*
X213Y1114D01*
X298Y1114D02*
X306Y1114D01*
X334Y1114D02*
X341Y1114D01*
X203Y1113D02*
X212Y1113D01*
X298Y1113D02*
X305Y1113D01*
X334Y1113D02*
X342Y1113D01*
X202Y1112D02*
X211Y1112D01*
X298Y1112D02*
X305Y1112D01*
X335Y1112D02*
X342Y1112D01*
X201Y1111D02*
X210Y1111D01*
X298Y1111D02*
X305Y1111D01*
X335Y1111D02*
X342Y1111D01*
X201Y1110D02*
X210Y1110D01*
X298Y1110D02*
X305Y1110D01*
X335Y1110D02*
X342Y1110D01*
X201Y1109D02*
X209Y1109D01*
X298Y1109D02*
X305Y1109D01*
X335Y1109D02*
X342Y1109D01*
X201Y1108D02*
X208Y1108D01*
X298Y1108D02*
X305Y1108D01*
X335Y1108D02*
X342Y1108D01*
X201Y1107D02*
X208Y1107D01*
X298Y1107D02*
X305Y1107D01*
X335Y1107D02*
X342Y1107D01*
X201Y1106D02*
X208Y1106D01*
X298Y1106D02*
X305Y1106D01*
X335Y1106D02*
X342Y1106D01*
X201Y1105D02*
X208Y1105D01*
X298Y1105D02*
X305Y1105D01*
X335Y1105D02*
X342Y1105D01*
X201Y1104D02*
X208Y1104D01*
X298Y1104D02*
X305Y1104D01*
X335Y1104D02*
X342Y1104D01*
X201Y1103D02*
X208Y1103D01*
X298Y1103D02*
X305Y1103D01*
X335Y1103D02*
X342Y1103D01*
X201Y1102D02*
X208Y1102D01*
X298Y1102D02*
X305Y1102D01*
X335Y1102D02*
X342Y1102D01*
X201Y1101D02*
X208Y1101D01*
X298Y1101D02*
X305Y1101D01*
X335Y1101D02*
X342Y1101D01*
X201Y1100D02*
X209Y1100D01*
X298Y1100D02*
X305Y1100D01*
X335Y1100D02*
X342Y1100D01*
X202Y1099D02*
X210Y1099D01*
X298Y1099D02*
X305Y1099D01*
X335Y1099D02*
X342Y1099D01*
X202Y1098D02*
X215Y1098D01*
X298Y1098D02*
X305Y1098D01*
X335Y1098D02*
X342Y1098D01*
X202Y1097D02*
X217Y1097D01*
X298Y1097D02*
X305Y1097D01*
X335Y1097D02*
X342Y1097D01*
X203Y1096D02*
X218Y1096D01*
X298Y1096D02*
X305Y1096D01*
X335Y1096D02*
X342Y1096D01*
X204Y1095D02*
X218Y1095D01*
X298Y1095D02*
X305Y1095D01*
X335Y1095D02*
X342Y1095D01*
X204Y1094D02*
X218Y1094D01*
X298Y1094D02*
X305Y1094D01*
X335Y1094D02*
X342Y1094D01*
X206Y1093D02*
X218Y1093D01*
X298Y1093D02*
X304Y1093D01*
X335Y1093D02*
X341Y1093D01*
X207Y1092D02*
X217Y1092D01*
X299Y1092D02*
X304Y1092D01*
X336Y1092D02*
X341Y1092D01*
X209Y1091D02*
X216Y1091D01*
X301Y1091D02*
X302Y1091D01*
X337Y1091D02*
X339Y1091D01*
X312Y1073D02*
X328Y1073D01*
X308Y1072D02*
X332Y1072D01*
X306Y1071D02*
X334Y1071D01*
X304Y1070D02*
X335Y1070D01*
X303Y1069D02*
X336Y1069D01*
X303Y1068D02*
X337Y1068D01*
X302Y1067D02*
X338Y1067D01*
X301Y1066D02*
X339Y1066D01*
X300Y1065D02*
X311Y1065D01*
X318Y1065D02*
X325Y1065D01*
X329Y1065D02*
X340Y1065D01*
X299Y1064D02*
X309Y1064D01*
X318Y1064D02*
X325Y1064D01*
X331Y1064D02*
X340Y1064D01*
X299Y1063D02*
X308Y1063D01*
X318Y1063D02*
X325Y1063D01*
X332Y1063D02*
X341Y1063D01*
X299Y1062D02*
X307Y1062D01*
X318Y1062D02*
X325Y1062D01*
X333Y1062D02*
X341Y1062D01*
X298Y1061D02*
X306Y1061D01*
X318Y1061D02*
X325Y1061D01*
X334Y1061D02*
X341Y1061D01*
X298Y1060D02*
X305Y1060D01*
X318Y1060D02*
X325Y1060D01*
X334Y1060D02*
X342Y1060D01*
X298Y1059D02*
X305Y1059D01*
X318Y1059D02*
X325Y1059D01*
X335Y1059D02*
X342Y1059D01*
X298Y1058D02*
X305Y1058D01*
X318Y1058D02*
X325Y1058D01*
X335Y1058D02*
X342Y1058D01*
X298Y1057D02*
X305Y1057D01*
X318Y1057D02*
X325Y1057D01*
X335Y1057D02*
X342Y1057D01*
X298Y1056D02*
X305Y1056D01*
X318Y1056D02*
X325Y1056D01*
X335Y1056D02*
X342Y1056D01*
X298Y1055D02*
X305Y1055D01*
X318Y1055D02*
X325Y1055D01*
X335Y1055D02*
X342Y1055D01*
X298Y1054D02*
X305Y1054D01*
X318Y1054D02*
X325Y1054D01*
X335Y1054D02*
X342Y1054D01*
X298Y1053D02*
X305Y1053D01*
X318Y1053D02*
X325Y1053D01*
X335Y1053D02*
X342Y1053D01*
X298Y1052D02*
X305Y1052D01*
X318Y1052D02*
X325Y1052D01*
X335Y1052D02*
X342Y1052D01*
X298Y1051D02*
X305Y1051D01*
X318Y1051D02*
X325Y1051D01*
X335Y1051D02*
X342Y1051D01*
X298Y1050D02*
X305Y1050D01*
X318Y1050D02*
X325Y1050D01*
X335Y1050D02*
X342Y1050D01*
X298Y1049D02*
X305Y1049D01*
X318Y1049D02*
X325Y1049D01*
X335Y1049D02*
X342Y1049D01*
X298Y1048D02*
X305Y1048D01*
X318Y1048D02*
X325Y1048D01*
X335Y1048D02*
X342Y1048D01*
X298Y1047D02*
X305Y1047D01*
X318Y1047D02*
X325Y1047D01*
X335Y1047D02*
X342Y1047D01*
X298Y1046D02*
X306Y1046D01*
X318Y1046D02*
X325Y1046D01*
X335Y1046D02*
X342Y1046D01*
X299Y1045D02*
X306Y1045D01*
X318Y1045D02*
X325Y1045D01*
X335Y1045D02*
X342Y1045D01*
X299Y1044D02*
X307Y1044D01*
X318Y1044D02*
X325Y1044D01*
X335Y1044D02*
X342Y1044D01*
X299Y1043D02*
X308Y1043D01*
X318Y1043D02*
X325Y1043D01*
X335Y1043D02*
X342Y1043D01*
X300Y1042D02*
X310Y1042D01*
X318Y1042D02*
X325Y1042D01*
X335Y1042D02*
X342Y1042D01*
X301Y1041D02*
X325Y1041D01*
X335Y1041D02*
X342Y1041D01*
X302Y1040D02*
X325Y1040D01*
X335Y1040D02*
X342Y1040D01*
X302Y1039D02*
X325Y1039D01*
X335Y1039D02*
X342Y1039D01*
X303Y1038D02*
X325Y1038D01*
X335Y1038D02*
X342Y1038D01*
X304Y1037D02*
X325Y1037D01*
X335Y1037D02*
X342Y1037D01*
X305Y1036D02*
X325Y1036D01*
X335Y1036D02*
X341Y1036D01*
X307Y1035D02*
X324Y1035D01*
X336Y1035D02*
X340Y1035D01*
X310Y1034D02*
X322Y1034D01*
X338Y1034D02*
X339Y1034D01*
D02*
G04 End of Silk0*
M02*