G04 MADE WITH FRITZING*
G04 WWW.FRITZING.ORG*
G04 DOUBLE SIDED*
G04 HOLES PLATED*
G04 CONTOUR ON CENTER OF CONTOUR VECTOR*
%ASAXBY*%
%FSLAX23Y23*%
%MOIN*%
%OFA0B0*%
%SFA1.0B1.0*%
%ADD10R,0.096457X0.038714X0.076772X0.019029*%
%ADD11C,0.009843*%
%ADD12C,0.010000*%
%ADD13C,0.005000*%
%ADD14C,0.008000*%
%ADD15R,0.001000X0.001000*%
%LNSILK1*%
G90*
G70*
G54D11*
X634Y566D02*
X721Y566D01*
X721Y538D01*
X634Y538D01*
X634Y566D01*
D02*
G54D12*
X1203Y586D02*
X1203Y1986D01*
D02*
X1203Y1986D02*
X803Y1986D01*
D02*
X803Y1986D02*
X803Y586D01*
D02*
X1203Y586D02*
X1053Y586D01*
D02*
X953Y586D02*
X803Y586D01*
D02*
X53Y1986D02*
X53Y786D01*
D02*
X53Y786D02*
X753Y786D01*
D02*
X753Y786D02*
X753Y1986D01*
D02*
X53Y1986D02*
X353Y1986D01*
D02*
X453Y1986D02*
X753Y1986D01*
D02*
X428Y316D02*
X28Y316D01*
D02*
X28Y316D02*
X28Y496D01*
D02*
X28Y496D02*
X428Y496D01*
D02*
X428Y496D02*
X428Y316D01*
D02*
X428Y316D02*
X28Y316D01*
D02*
X28Y316D02*
X28Y376D01*
D02*
X28Y376D02*
X428Y376D01*
D02*
X428Y376D02*
X428Y316D01*
G54D13*
D02*
X298Y316D02*
X298Y376D01*
D02*
X158Y316D02*
X158Y376D01*
G54D14*
D02*
X1241Y240D02*
X1241Y30D01*
D02*
X28Y240D02*
X28Y30D01*
D02*
X1241Y240D02*
X28Y240D01*
G54D12*
D02*
X553Y1886D02*
X653Y1886D01*
D02*
X653Y1886D02*
X653Y1986D01*
D02*
X653Y1986D02*
X553Y1986D01*
D02*
X553Y1986D02*
X553Y1886D01*
G54D15*
X0Y2082D02*
X1277Y2082D01*
X0Y2081D02*
X1277Y2081D01*
X0Y2080D02*
X1277Y2080D01*
X0Y2079D02*
X1277Y2079D01*
X0Y2078D02*
X1277Y2078D01*
X0Y2077D02*
X1277Y2077D01*
X0Y2076D02*
X1277Y2076D01*
X0Y2075D02*
X1277Y2075D01*
X0Y2074D02*
X7Y2074D01*
X1270Y2074D02*
X1277Y2074D01*
X0Y2073D02*
X7Y2073D01*
X1270Y2073D02*
X1277Y2073D01*
X0Y2072D02*
X7Y2072D01*
X1270Y2072D02*
X1277Y2072D01*
X0Y2071D02*
X7Y2071D01*
X1270Y2071D02*
X1277Y2071D01*
X0Y2070D02*
X7Y2070D01*
X1270Y2070D02*
X1277Y2070D01*
X0Y2069D02*
X7Y2069D01*
X1270Y2069D02*
X1277Y2069D01*
X0Y2068D02*
X7Y2068D01*
X1270Y2068D02*
X1277Y2068D01*
X0Y2067D02*
X7Y2067D01*
X1270Y2067D02*
X1277Y2067D01*
X0Y2066D02*
X7Y2066D01*
X1270Y2066D02*
X1277Y2066D01*
X0Y2065D02*
X7Y2065D01*
X1270Y2065D02*
X1277Y2065D01*
X0Y2064D02*
X7Y2064D01*
X1270Y2064D02*
X1277Y2064D01*
X0Y2063D02*
X7Y2063D01*
X1270Y2063D02*
X1277Y2063D01*
X0Y2062D02*
X7Y2062D01*
X1270Y2062D02*
X1277Y2062D01*
X0Y2061D02*
X7Y2061D01*
X1270Y2061D02*
X1277Y2061D01*
X0Y2060D02*
X7Y2060D01*
X1270Y2060D02*
X1277Y2060D01*
X0Y2059D02*
X7Y2059D01*
X1270Y2059D02*
X1277Y2059D01*
X0Y2058D02*
X7Y2058D01*
X1270Y2058D02*
X1277Y2058D01*
X0Y2057D02*
X7Y2057D01*
X1270Y2057D02*
X1277Y2057D01*
X0Y2056D02*
X7Y2056D01*
X1270Y2056D02*
X1277Y2056D01*
X0Y2055D02*
X7Y2055D01*
X1270Y2055D02*
X1277Y2055D01*
X0Y2054D02*
X7Y2054D01*
X1270Y2054D02*
X1277Y2054D01*
X0Y2053D02*
X7Y2053D01*
X1270Y2053D02*
X1277Y2053D01*
X0Y2052D02*
X7Y2052D01*
X1270Y2052D02*
X1277Y2052D01*
X0Y2051D02*
X7Y2051D01*
X1270Y2051D02*
X1277Y2051D01*
X0Y2050D02*
X7Y2050D01*
X1270Y2050D02*
X1277Y2050D01*
X0Y2049D02*
X7Y2049D01*
X1270Y2049D02*
X1277Y2049D01*
X0Y2048D02*
X7Y2048D01*
X1270Y2048D02*
X1277Y2048D01*
X0Y2047D02*
X7Y2047D01*
X1270Y2047D02*
X1277Y2047D01*
X0Y2046D02*
X7Y2046D01*
X1270Y2046D02*
X1277Y2046D01*
X0Y2045D02*
X7Y2045D01*
X1270Y2045D02*
X1277Y2045D01*
X0Y2044D02*
X7Y2044D01*
X1270Y2044D02*
X1277Y2044D01*
X0Y2043D02*
X7Y2043D01*
X1270Y2043D02*
X1277Y2043D01*
X0Y2042D02*
X7Y2042D01*
X1270Y2042D02*
X1277Y2042D01*
X0Y2041D02*
X7Y2041D01*
X1270Y2041D02*
X1277Y2041D01*
X0Y2040D02*
X7Y2040D01*
X1270Y2040D02*
X1277Y2040D01*
X0Y2039D02*
X7Y2039D01*
X1270Y2039D02*
X1277Y2039D01*
X0Y2038D02*
X7Y2038D01*
X1270Y2038D02*
X1277Y2038D01*
X0Y2037D02*
X7Y2037D01*
X1270Y2037D02*
X1277Y2037D01*
X0Y2036D02*
X7Y2036D01*
X1270Y2036D02*
X1277Y2036D01*
X0Y2035D02*
X7Y2035D01*
X1270Y2035D02*
X1277Y2035D01*
X0Y2034D02*
X7Y2034D01*
X1270Y2034D02*
X1277Y2034D01*
X0Y2033D02*
X7Y2033D01*
X1270Y2033D02*
X1277Y2033D01*
X0Y2032D02*
X7Y2032D01*
X1270Y2032D02*
X1277Y2032D01*
X0Y2031D02*
X7Y2031D01*
X1270Y2031D02*
X1277Y2031D01*
X0Y2030D02*
X7Y2030D01*
X1270Y2030D02*
X1277Y2030D01*
X0Y2029D02*
X7Y2029D01*
X1270Y2029D02*
X1277Y2029D01*
X0Y2028D02*
X7Y2028D01*
X1270Y2028D02*
X1277Y2028D01*
X0Y2027D02*
X7Y2027D01*
X1270Y2027D02*
X1277Y2027D01*
X0Y2026D02*
X7Y2026D01*
X1270Y2026D02*
X1277Y2026D01*
X0Y2025D02*
X7Y2025D01*
X1270Y2025D02*
X1277Y2025D01*
X0Y2024D02*
X7Y2024D01*
X1270Y2024D02*
X1277Y2024D01*
X0Y2023D02*
X7Y2023D01*
X1270Y2023D02*
X1277Y2023D01*
X0Y2022D02*
X7Y2022D01*
X1270Y2022D02*
X1277Y2022D01*
X0Y2021D02*
X7Y2021D01*
X1270Y2021D02*
X1277Y2021D01*
X0Y2020D02*
X7Y2020D01*
X1270Y2020D02*
X1277Y2020D01*
X0Y2019D02*
X7Y2019D01*
X1270Y2019D02*
X1277Y2019D01*
X0Y2018D02*
X7Y2018D01*
X1270Y2018D02*
X1277Y2018D01*
X0Y2017D02*
X7Y2017D01*
X1270Y2017D02*
X1277Y2017D01*
X0Y2016D02*
X7Y2016D01*
X1270Y2016D02*
X1277Y2016D01*
X0Y2015D02*
X7Y2015D01*
X1270Y2015D02*
X1277Y2015D01*
X0Y2014D02*
X7Y2014D01*
X1270Y2014D02*
X1277Y2014D01*
X0Y2013D02*
X7Y2013D01*
X1270Y2013D02*
X1277Y2013D01*
X0Y2012D02*
X7Y2012D01*
X1270Y2012D02*
X1277Y2012D01*
X0Y2011D02*
X7Y2011D01*
X1270Y2011D02*
X1277Y2011D01*
X0Y2010D02*
X7Y2010D01*
X1270Y2010D02*
X1277Y2010D01*
X0Y2009D02*
X7Y2009D01*
X1270Y2009D02*
X1277Y2009D01*
X0Y2008D02*
X7Y2008D01*
X1270Y2008D02*
X1277Y2008D01*
X0Y2007D02*
X7Y2007D01*
X1270Y2007D02*
X1277Y2007D01*
X0Y2006D02*
X7Y2006D01*
X1270Y2006D02*
X1277Y2006D01*
X0Y2005D02*
X7Y2005D01*
X1270Y2005D02*
X1277Y2005D01*
X0Y2004D02*
X7Y2004D01*
X1270Y2004D02*
X1277Y2004D01*
X0Y2003D02*
X7Y2003D01*
X1270Y2003D02*
X1277Y2003D01*
X0Y2002D02*
X7Y2002D01*
X1270Y2002D02*
X1277Y2002D01*
X0Y2001D02*
X7Y2001D01*
X1270Y2001D02*
X1277Y2001D01*
X0Y2000D02*
X7Y2000D01*
X1270Y2000D02*
X1277Y2000D01*
X0Y1999D02*
X7Y1999D01*
X1270Y1999D02*
X1277Y1999D01*
X0Y1998D02*
X7Y1998D01*
X1270Y1998D02*
X1277Y1998D01*
X0Y1997D02*
X7Y1997D01*
X1270Y1997D02*
X1277Y1997D01*
X0Y1996D02*
X7Y1996D01*
X1270Y1996D02*
X1277Y1996D01*
X0Y1995D02*
X7Y1995D01*
X1270Y1995D02*
X1277Y1995D01*
X0Y1994D02*
X7Y1994D01*
X1270Y1994D02*
X1277Y1994D01*
X0Y1993D02*
X7Y1993D01*
X1270Y1993D02*
X1277Y1993D01*
X0Y1992D02*
X7Y1992D01*
X1270Y1992D02*
X1277Y1992D01*
X0Y1991D02*
X7Y1991D01*
X1270Y1991D02*
X1277Y1991D01*
X0Y1990D02*
X7Y1990D01*
X1270Y1990D02*
X1277Y1990D01*
X0Y1989D02*
X7Y1989D01*
X1270Y1989D02*
X1277Y1989D01*
X0Y1988D02*
X7Y1988D01*
X1270Y1988D02*
X1277Y1988D01*
X0Y1987D02*
X7Y1987D01*
X1270Y1987D02*
X1277Y1987D01*
X0Y1986D02*
X7Y1986D01*
X1270Y1986D02*
X1277Y1986D01*
X0Y1985D02*
X7Y1985D01*
X1270Y1985D02*
X1277Y1985D01*
X0Y1984D02*
X7Y1984D01*
X1270Y1984D02*
X1277Y1984D01*
X0Y1983D02*
X7Y1983D01*
X1270Y1983D02*
X1277Y1983D01*
X0Y1982D02*
X7Y1982D01*
X1270Y1982D02*
X1277Y1982D01*
X0Y1981D02*
X7Y1981D01*
X1270Y1981D02*
X1277Y1981D01*
X0Y1980D02*
X7Y1980D01*
X1270Y1980D02*
X1277Y1980D01*
X0Y1979D02*
X7Y1979D01*
X1270Y1979D02*
X1277Y1979D01*
X0Y1978D02*
X7Y1978D01*
X1270Y1978D02*
X1277Y1978D01*
X0Y1977D02*
X7Y1977D01*
X1270Y1977D02*
X1277Y1977D01*
X0Y1976D02*
X7Y1976D01*
X1270Y1976D02*
X1277Y1976D01*
X0Y1975D02*
X7Y1975D01*
X1270Y1975D02*
X1277Y1975D01*
X0Y1974D02*
X7Y1974D01*
X1270Y1974D02*
X1277Y1974D01*
X0Y1973D02*
X7Y1973D01*
X1270Y1973D02*
X1277Y1973D01*
X0Y1972D02*
X7Y1972D01*
X1270Y1972D02*
X1277Y1972D01*
X0Y1971D02*
X7Y1971D01*
X1270Y1971D02*
X1277Y1971D01*
X0Y1970D02*
X7Y1970D01*
X1270Y1970D02*
X1277Y1970D01*
X0Y1969D02*
X7Y1969D01*
X1270Y1969D02*
X1277Y1969D01*
X0Y1968D02*
X7Y1968D01*
X1270Y1968D02*
X1277Y1968D01*
X0Y1967D02*
X7Y1967D01*
X1270Y1967D02*
X1277Y1967D01*
X0Y1966D02*
X7Y1966D01*
X1270Y1966D02*
X1277Y1966D01*
X0Y1965D02*
X7Y1965D01*
X1270Y1965D02*
X1277Y1965D01*
X0Y1964D02*
X7Y1964D01*
X458Y1964D02*
X482Y1964D01*
X1270Y1964D02*
X1277Y1964D01*
X0Y1963D02*
X7Y1963D01*
X458Y1963D02*
X484Y1963D01*
X1270Y1963D02*
X1277Y1963D01*
X0Y1962D02*
X7Y1962D01*
X458Y1962D02*
X484Y1962D01*
X1270Y1962D02*
X1277Y1962D01*
X0Y1961D02*
X7Y1961D01*
X458Y1961D02*
X484Y1961D01*
X1270Y1961D02*
X1277Y1961D01*
X0Y1960D02*
X7Y1960D01*
X458Y1960D02*
X484Y1960D01*
X1270Y1960D02*
X1277Y1960D01*
X0Y1959D02*
X7Y1959D01*
X458Y1959D02*
X484Y1959D01*
X1270Y1959D02*
X1277Y1959D01*
X0Y1958D02*
X7Y1958D01*
X458Y1958D02*
X483Y1958D01*
X1270Y1958D02*
X1277Y1958D01*
X0Y1957D02*
X7Y1957D01*
X458Y1957D02*
X464Y1957D01*
X1270Y1957D02*
X1277Y1957D01*
X0Y1956D02*
X7Y1956D01*
X458Y1956D02*
X464Y1956D01*
X1270Y1956D02*
X1277Y1956D01*
X0Y1955D02*
X7Y1955D01*
X458Y1955D02*
X464Y1955D01*
X1270Y1955D02*
X1277Y1955D01*
X0Y1954D02*
X7Y1954D01*
X458Y1954D02*
X464Y1954D01*
X1270Y1954D02*
X1277Y1954D01*
X0Y1953D02*
X7Y1953D01*
X458Y1953D02*
X464Y1953D01*
X1270Y1953D02*
X1277Y1953D01*
X0Y1952D02*
X7Y1952D01*
X458Y1952D02*
X464Y1952D01*
X1270Y1952D02*
X1277Y1952D01*
X0Y1951D02*
X7Y1951D01*
X458Y1951D02*
X464Y1951D01*
X1270Y1951D02*
X1277Y1951D01*
X0Y1950D02*
X7Y1950D01*
X458Y1950D02*
X464Y1950D01*
X1270Y1950D02*
X1277Y1950D01*
X0Y1949D02*
X7Y1949D01*
X458Y1949D02*
X464Y1949D01*
X503Y1949D02*
X505Y1949D01*
X530Y1949D02*
X533Y1949D01*
X1270Y1949D02*
X1277Y1949D01*
X0Y1948D02*
X7Y1948D01*
X458Y1948D02*
X464Y1948D01*
X502Y1948D02*
X506Y1948D01*
X529Y1948D02*
X534Y1948D01*
X1270Y1948D02*
X1277Y1948D01*
X0Y1947D02*
X7Y1947D01*
X458Y1947D02*
X464Y1947D01*
X501Y1947D02*
X507Y1947D01*
X529Y1947D02*
X534Y1947D01*
X1270Y1947D02*
X1277Y1947D01*
X0Y1946D02*
X7Y1946D01*
X458Y1946D02*
X464Y1946D01*
X501Y1946D02*
X507Y1946D01*
X529Y1946D02*
X535Y1946D01*
X1270Y1946D02*
X1277Y1946D01*
X0Y1945D02*
X7Y1945D01*
X458Y1945D02*
X464Y1945D01*
X501Y1945D02*
X507Y1945D01*
X529Y1945D02*
X535Y1945D01*
X1270Y1945D02*
X1277Y1945D01*
X0Y1944D02*
X7Y1944D01*
X458Y1944D02*
X464Y1944D01*
X501Y1944D02*
X507Y1944D01*
X529Y1944D02*
X535Y1944D01*
X1270Y1944D02*
X1277Y1944D01*
X0Y1943D02*
X7Y1943D01*
X458Y1943D02*
X464Y1943D01*
X501Y1943D02*
X507Y1943D01*
X529Y1943D02*
X535Y1943D01*
X1270Y1943D02*
X1277Y1943D01*
X0Y1942D02*
X7Y1942D01*
X458Y1942D02*
X464Y1942D01*
X501Y1942D02*
X507Y1942D01*
X529Y1942D02*
X535Y1942D01*
X1270Y1942D02*
X1277Y1942D01*
X0Y1941D02*
X7Y1941D01*
X458Y1941D02*
X464Y1941D01*
X501Y1941D02*
X507Y1941D01*
X529Y1941D02*
X535Y1941D01*
X1270Y1941D02*
X1277Y1941D01*
X0Y1940D02*
X7Y1940D01*
X458Y1940D02*
X480Y1940D01*
X501Y1940D02*
X507Y1940D01*
X528Y1940D02*
X535Y1940D01*
X1270Y1940D02*
X1277Y1940D01*
X0Y1939D02*
X7Y1939D01*
X458Y1939D02*
X482Y1939D01*
X501Y1939D02*
X508Y1939D01*
X528Y1939D02*
X534Y1939D01*
X1270Y1939D02*
X1277Y1939D01*
X0Y1938D02*
X7Y1938D01*
X458Y1938D02*
X483Y1938D01*
X502Y1938D02*
X508Y1938D01*
X527Y1938D02*
X534Y1938D01*
X1270Y1938D02*
X1277Y1938D01*
X0Y1937D02*
X7Y1937D01*
X458Y1937D02*
X484Y1937D01*
X502Y1937D02*
X509Y1937D01*
X527Y1937D02*
X534Y1937D01*
X1270Y1937D02*
X1277Y1937D01*
X0Y1936D02*
X7Y1936D01*
X458Y1936D02*
X484Y1936D01*
X503Y1936D02*
X509Y1936D01*
X526Y1936D02*
X533Y1936D01*
X1270Y1936D02*
X1277Y1936D01*
X0Y1935D02*
X7Y1935D01*
X458Y1935D02*
X484Y1935D01*
X503Y1935D02*
X510Y1935D01*
X526Y1935D02*
X533Y1935D01*
X1270Y1935D02*
X1277Y1935D01*
X0Y1934D02*
X7Y1934D01*
X458Y1934D02*
X484Y1934D01*
X503Y1934D02*
X510Y1934D01*
X526Y1934D02*
X532Y1934D01*
X1270Y1934D02*
X1277Y1934D01*
X0Y1933D02*
X7Y1933D01*
X478Y1933D02*
X484Y1933D01*
X504Y1933D02*
X511Y1933D01*
X525Y1933D02*
X532Y1933D01*
X1270Y1933D02*
X1277Y1933D01*
X0Y1932D02*
X7Y1932D01*
X478Y1932D02*
X484Y1932D01*
X504Y1932D02*
X511Y1932D01*
X525Y1932D02*
X531Y1932D01*
X1270Y1932D02*
X1277Y1932D01*
X0Y1931D02*
X7Y1931D01*
X478Y1931D02*
X484Y1931D01*
X505Y1931D02*
X511Y1931D01*
X524Y1931D02*
X531Y1931D01*
X1270Y1931D02*
X1277Y1931D01*
X0Y1930D02*
X7Y1930D01*
X478Y1930D02*
X484Y1930D01*
X505Y1930D02*
X512Y1930D01*
X524Y1930D02*
X530Y1930D01*
X1270Y1930D02*
X1277Y1930D01*
X0Y1929D02*
X7Y1929D01*
X478Y1929D02*
X484Y1929D01*
X506Y1929D02*
X512Y1929D01*
X523Y1929D02*
X530Y1929D01*
X1270Y1929D02*
X1277Y1929D01*
X0Y1928D02*
X7Y1928D01*
X478Y1928D02*
X484Y1928D01*
X506Y1928D02*
X513Y1928D01*
X523Y1928D02*
X530Y1928D01*
X1270Y1928D02*
X1277Y1928D01*
X0Y1927D02*
X7Y1927D01*
X478Y1927D02*
X484Y1927D01*
X506Y1927D02*
X513Y1927D01*
X523Y1927D02*
X529Y1927D01*
X1270Y1927D02*
X1277Y1927D01*
X0Y1926D02*
X7Y1926D01*
X478Y1926D02*
X484Y1926D01*
X507Y1926D02*
X514Y1926D01*
X522Y1926D02*
X529Y1926D01*
X1270Y1926D02*
X1277Y1926D01*
X0Y1925D02*
X7Y1925D01*
X478Y1925D02*
X484Y1925D01*
X507Y1925D02*
X514Y1925D01*
X522Y1925D02*
X528Y1925D01*
X1270Y1925D02*
X1277Y1925D01*
X0Y1924D02*
X7Y1924D01*
X478Y1924D02*
X484Y1924D01*
X508Y1924D02*
X514Y1924D01*
X521Y1924D02*
X528Y1924D01*
X1270Y1924D02*
X1277Y1924D01*
X0Y1923D02*
X7Y1923D01*
X478Y1923D02*
X484Y1923D01*
X508Y1923D02*
X515Y1923D01*
X521Y1923D02*
X527Y1923D01*
X1270Y1923D02*
X1277Y1923D01*
X0Y1922D02*
X7Y1922D01*
X478Y1922D02*
X484Y1922D01*
X509Y1922D02*
X515Y1922D01*
X520Y1922D02*
X527Y1922D01*
X553Y1922D02*
X554Y1922D01*
X1270Y1922D02*
X1277Y1922D01*
X0Y1921D02*
X7Y1921D01*
X478Y1921D02*
X484Y1921D01*
X509Y1921D02*
X516Y1921D01*
X520Y1921D02*
X527Y1921D01*
X552Y1921D02*
X555Y1921D01*
X1270Y1921D02*
X1277Y1921D01*
X0Y1920D02*
X7Y1920D01*
X454Y1920D02*
X454Y1920D01*
X478Y1920D02*
X484Y1920D01*
X510Y1920D02*
X516Y1920D01*
X519Y1920D02*
X526Y1920D01*
X551Y1920D02*
X556Y1920D01*
X1270Y1920D02*
X1277Y1920D01*
X0Y1919D02*
X7Y1919D01*
X452Y1919D02*
X457Y1919D01*
X478Y1919D02*
X484Y1919D01*
X510Y1919D02*
X517Y1919D01*
X519Y1919D02*
X526Y1919D01*
X551Y1919D02*
X557Y1919D01*
X1270Y1919D02*
X1277Y1919D01*
X0Y1918D02*
X7Y1918D01*
X451Y1918D02*
X459Y1918D01*
X478Y1918D02*
X484Y1918D01*
X510Y1918D02*
X517Y1918D01*
X519Y1918D02*
X525Y1918D01*
X552Y1918D02*
X558Y1918D01*
X1270Y1918D02*
X1277Y1918D01*
X0Y1917D02*
X7Y1917D01*
X451Y1917D02*
X484Y1917D01*
X511Y1917D02*
X525Y1917D01*
X553Y1917D02*
X559Y1917D01*
X1270Y1917D02*
X1277Y1917D01*
X0Y1916D02*
X7Y1916D01*
X451Y1916D02*
X484Y1916D01*
X511Y1916D02*
X524Y1916D01*
X554Y1916D02*
X560Y1916D01*
X1270Y1916D02*
X1277Y1916D01*
X0Y1915D02*
X7Y1915D01*
X451Y1915D02*
X484Y1915D01*
X512Y1915D02*
X524Y1915D01*
X555Y1915D02*
X561Y1915D01*
X1270Y1915D02*
X1277Y1915D01*
X0Y1914D02*
X7Y1914D01*
X452Y1914D02*
X484Y1914D01*
X512Y1914D02*
X523Y1914D01*
X556Y1914D02*
X562Y1914D01*
X1270Y1914D02*
X1277Y1914D01*
X0Y1913D02*
X7Y1913D01*
X454Y1913D02*
X483Y1913D01*
X513Y1913D02*
X523Y1913D01*
X557Y1913D02*
X563Y1913D01*
X1270Y1913D02*
X1277Y1913D01*
X0Y1912D02*
X7Y1912D01*
X456Y1912D02*
X482Y1912D01*
X513Y1912D02*
X523Y1912D01*
X558Y1912D02*
X564Y1912D01*
X1270Y1912D02*
X1277Y1912D01*
X0Y1911D02*
X7Y1911D01*
X458Y1911D02*
X481Y1911D01*
X514Y1911D02*
X522Y1911D01*
X559Y1911D02*
X565Y1911D01*
X1270Y1911D02*
X1277Y1911D01*
X0Y1910D02*
X7Y1910D01*
X560Y1910D02*
X566Y1910D01*
X1270Y1910D02*
X1277Y1910D01*
X0Y1909D02*
X7Y1909D01*
X561Y1909D02*
X567Y1909D01*
X1270Y1909D02*
X1277Y1909D01*
X0Y1908D02*
X7Y1908D01*
X562Y1908D02*
X567Y1908D01*
X1270Y1908D02*
X1277Y1908D01*
X0Y1907D02*
X7Y1907D01*
X563Y1907D02*
X568Y1907D01*
X1270Y1907D02*
X1277Y1907D01*
X0Y1906D02*
X7Y1906D01*
X564Y1906D02*
X569Y1906D01*
X1270Y1906D02*
X1277Y1906D01*
X0Y1905D02*
X7Y1905D01*
X565Y1905D02*
X570Y1905D01*
X1270Y1905D02*
X1277Y1905D01*
X0Y1904D02*
X7Y1904D01*
X566Y1904D02*
X571Y1904D01*
X1270Y1904D02*
X1277Y1904D01*
X0Y1903D02*
X7Y1903D01*
X567Y1903D02*
X572Y1903D01*
X1270Y1903D02*
X1277Y1903D01*
X0Y1902D02*
X7Y1902D01*
X568Y1902D02*
X574Y1902D01*
X1270Y1902D02*
X1277Y1902D01*
X0Y1901D02*
X7Y1901D01*
X569Y1901D02*
X575Y1901D01*
X1270Y1901D02*
X1277Y1901D01*
X0Y1900D02*
X7Y1900D01*
X570Y1900D02*
X576Y1900D01*
X1270Y1900D02*
X1277Y1900D01*
X0Y1899D02*
X7Y1899D01*
X571Y1899D02*
X577Y1899D01*
X1270Y1899D02*
X1277Y1899D01*
X0Y1898D02*
X7Y1898D01*
X572Y1898D02*
X578Y1898D01*
X1270Y1898D02*
X1277Y1898D01*
X0Y1897D02*
X7Y1897D01*
X573Y1897D02*
X579Y1897D01*
X1270Y1897D02*
X1277Y1897D01*
X0Y1896D02*
X7Y1896D01*
X574Y1896D02*
X580Y1896D01*
X1270Y1896D02*
X1277Y1896D01*
X0Y1895D02*
X7Y1895D01*
X575Y1895D02*
X581Y1895D01*
X1270Y1895D02*
X1277Y1895D01*
X0Y1894D02*
X7Y1894D01*
X576Y1894D02*
X582Y1894D01*
X1270Y1894D02*
X1277Y1894D01*
X0Y1893D02*
X7Y1893D01*
X577Y1893D02*
X583Y1893D01*
X1270Y1893D02*
X1277Y1893D01*
X0Y1892D02*
X7Y1892D01*
X578Y1892D02*
X584Y1892D01*
X1270Y1892D02*
X1277Y1892D01*
X0Y1891D02*
X7Y1891D01*
X579Y1891D02*
X585Y1891D01*
X1270Y1891D02*
X1277Y1891D01*
X0Y1890D02*
X7Y1890D01*
X580Y1890D02*
X586Y1890D01*
X1270Y1890D02*
X1277Y1890D01*
X0Y1889D02*
X7Y1889D01*
X581Y1889D02*
X587Y1889D01*
X1270Y1889D02*
X1277Y1889D01*
X0Y1888D02*
X7Y1888D01*
X582Y1888D02*
X588Y1888D01*
X1270Y1888D02*
X1277Y1888D01*
X0Y1887D02*
X7Y1887D01*
X583Y1887D02*
X587Y1887D01*
X1270Y1887D02*
X1277Y1887D01*
X0Y1886D02*
X7Y1886D01*
X584Y1886D02*
X586Y1886D01*
X1270Y1886D02*
X1277Y1886D01*
X0Y1885D02*
X7Y1885D01*
X585Y1885D02*
X585Y1885D01*
X1270Y1885D02*
X1277Y1885D01*
X0Y1884D02*
X7Y1884D01*
X1270Y1884D02*
X1277Y1884D01*
X0Y1883D02*
X7Y1883D01*
X1270Y1883D02*
X1277Y1883D01*
X0Y1882D02*
X7Y1882D01*
X1270Y1882D02*
X1277Y1882D01*
X0Y1881D02*
X7Y1881D01*
X1270Y1881D02*
X1277Y1881D01*
X0Y1880D02*
X7Y1880D01*
X1270Y1880D02*
X1277Y1880D01*
X0Y1879D02*
X7Y1879D01*
X1270Y1879D02*
X1277Y1879D01*
X0Y1878D02*
X7Y1878D01*
X1270Y1878D02*
X1277Y1878D01*
X0Y1877D02*
X7Y1877D01*
X1270Y1877D02*
X1277Y1877D01*
X0Y1876D02*
X7Y1876D01*
X1270Y1876D02*
X1277Y1876D01*
X0Y1875D02*
X7Y1875D01*
X1270Y1875D02*
X1277Y1875D01*
X0Y1874D02*
X7Y1874D01*
X1270Y1874D02*
X1277Y1874D01*
X0Y1873D02*
X7Y1873D01*
X1270Y1873D02*
X1277Y1873D01*
X0Y1872D02*
X7Y1872D01*
X1270Y1872D02*
X1277Y1872D01*
X0Y1871D02*
X7Y1871D01*
X1270Y1871D02*
X1277Y1871D01*
X0Y1870D02*
X7Y1870D01*
X1270Y1870D02*
X1277Y1870D01*
X0Y1869D02*
X7Y1869D01*
X1270Y1869D02*
X1277Y1869D01*
X0Y1868D02*
X7Y1868D01*
X1270Y1868D02*
X1277Y1868D01*
X0Y1867D02*
X7Y1867D01*
X1270Y1867D02*
X1277Y1867D01*
X0Y1866D02*
X7Y1866D01*
X1270Y1866D02*
X1277Y1866D01*
X0Y1865D02*
X7Y1865D01*
X1270Y1865D02*
X1277Y1865D01*
X0Y1864D02*
X7Y1864D01*
X1270Y1864D02*
X1277Y1864D01*
X0Y1863D02*
X7Y1863D01*
X1270Y1863D02*
X1277Y1863D01*
X0Y1862D02*
X7Y1862D01*
X1270Y1862D02*
X1277Y1862D01*
X0Y1861D02*
X7Y1861D01*
X1270Y1861D02*
X1277Y1861D01*
X0Y1860D02*
X7Y1860D01*
X1270Y1860D02*
X1277Y1860D01*
X0Y1859D02*
X7Y1859D01*
X1270Y1859D02*
X1277Y1859D01*
X0Y1858D02*
X7Y1858D01*
X1270Y1858D02*
X1277Y1858D01*
X0Y1857D02*
X7Y1857D01*
X1270Y1857D02*
X1277Y1857D01*
X0Y1856D02*
X7Y1856D01*
X1270Y1856D02*
X1277Y1856D01*
X0Y1855D02*
X7Y1855D01*
X1270Y1855D02*
X1277Y1855D01*
X0Y1854D02*
X7Y1854D01*
X1270Y1854D02*
X1277Y1854D01*
X0Y1853D02*
X7Y1853D01*
X1270Y1853D02*
X1277Y1853D01*
X0Y1852D02*
X7Y1852D01*
X1270Y1852D02*
X1277Y1852D01*
X0Y1851D02*
X7Y1851D01*
X1270Y1851D02*
X1277Y1851D01*
X0Y1850D02*
X7Y1850D01*
X1270Y1850D02*
X1277Y1850D01*
X0Y1849D02*
X7Y1849D01*
X1270Y1849D02*
X1277Y1849D01*
X0Y1848D02*
X7Y1848D01*
X1270Y1848D02*
X1277Y1848D01*
X0Y1847D02*
X7Y1847D01*
X1270Y1847D02*
X1277Y1847D01*
X0Y1846D02*
X7Y1846D01*
X1270Y1846D02*
X1277Y1846D01*
X0Y1845D02*
X7Y1845D01*
X1270Y1845D02*
X1277Y1845D01*
X0Y1844D02*
X7Y1844D01*
X1270Y1844D02*
X1277Y1844D01*
X0Y1843D02*
X7Y1843D01*
X1270Y1843D02*
X1277Y1843D01*
X0Y1842D02*
X7Y1842D01*
X1270Y1842D02*
X1277Y1842D01*
X0Y1841D02*
X7Y1841D01*
X1270Y1841D02*
X1277Y1841D01*
X0Y1840D02*
X7Y1840D01*
X1270Y1840D02*
X1277Y1840D01*
X0Y1839D02*
X7Y1839D01*
X1270Y1839D02*
X1277Y1839D01*
X0Y1838D02*
X7Y1838D01*
X1270Y1838D02*
X1277Y1838D01*
X0Y1837D02*
X7Y1837D01*
X1270Y1837D02*
X1277Y1837D01*
X0Y1836D02*
X7Y1836D01*
X1270Y1836D02*
X1277Y1836D01*
X0Y1835D02*
X7Y1835D01*
X1270Y1835D02*
X1277Y1835D01*
X0Y1834D02*
X7Y1834D01*
X1270Y1834D02*
X1277Y1834D01*
X0Y1833D02*
X7Y1833D01*
X1270Y1833D02*
X1277Y1833D01*
X0Y1832D02*
X7Y1832D01*
X1270Y1832D02*
X1277Y1832D01*
X0Y1831D02*
X7Y1831D01*
X1270Y1831D02*
X1277Y1831D01*
X0Y1830D02*
X7Y1830D01*
X1270Y1830D02*
X1277Y1830D01*
X0Y1829D02*
X7Y1829D01*
X1270Y1829D02*
X1277Y1829D01*
X0Y1828D02*
X7Y1828D01*
X1270Y1828D02*
X1277Y1828D01*
X0Y1827D02*
X7Y1827D01*
X1270Y1827D02*
X1277Y1827D01*
X0Y1826D02*
X7Y1826D01*
X1270Y1826D02*
X1277Y1826D01*
X0Y1825D02*
X7Y1825D01*
X1270Y1825D02*
X1277Y1825D01*
X0Y1824D02*
X7Y1824D01*
X1270Y1824D02*
X1277Y1824D01*
X0Y1823D02*
X7Y1823D01*
X1270Y1823D02*
X1277Y1823D01*
X0Y1822D02*
X7Y1822D01*
X1270Y1822D02*
X1277Y1822D01*
X0Y1821D02*
X7Y1821D01*
X1270Y1821D02*
X1277Y1821D01*
X0Y1820D02*
X7Y1820D01*
X1270Y1820D02*
X1277Y1820D01*
X0Y1819D02*
X7Y1819D01*
X1270Y1819D02*
X1277Y1819D01*
X0Y1818D02*
X7Y1818D01*
X1270Y1818D02*
X1277Y1818D01*
X0Y1817D02*
X7Y1817D01*
X1270Y1817D02*
X1277Y1817D01*
X0Y1816D02*
X7Y1816D01*
X1270Y1816D02*
X1277Y1816D01*
X0Y1815D02*
X7Y1815D01*
X1270Y1815D02*
X1277Y1815D01*
X0Y1814D02*
X7Y1814D01*
X1270Y1814D02*
X1277Y1814D01*
X0Y1813D02*
X7Y1813D01*
X1270Y1813D02*
X1277Y1813D01*
X0Y1812D02*
X7Y1812D01*
X1270Y1812D02*
X1277Y1812D01*
X0Y1811D02*
X7Y1811D01*
X1270Y1811D02*
X1277Y1811D01*
X0Y1810D02*
X7Y1810D01*
X1270Y1810D02*
X1277Y1810D01*
X0Y1809D02*
X7Y1809D01*
X1270Y1809D02*
X1277Y1809D01*
X0Y1808D02*
X7Y1808D01*
X1270Y1808D02*
X1277Y1808D01*
X0Y1807D02*
X7Y1807D01*
X1270Y1807D02*
X1277Y1807D01*
X0Y1806D02*
X7Y1806D01*
X1270Y1806D02*
X1277Y1806D01*
X0Y1805D02*
X7Y1805D01*
X1270Y1805D02*
X1277Y1805D01*
X0Y1804D02*
X7Y1804D01*
X1270Y1804D02*
X1277Y1804D01*
X0Y1803D02*
X7Y1803D01*
X1270Y1803D02*
X1277Y1803D01*
X0Y1802D02*
X7Y1802D01*
X1270Y1802D02*
X1277Y1802D01*
X0Y1801D02*
X7Y1801D01*
X1270Y1801D02*
X1277Y1801D01*
X0Y1800D02*
X7Y1800D01*
X1270Y1800D02*
X1277Y1800D01*
X0Y1799D02*
X7Y1799D01*
X1270Y1799D02*
X1277Y1799D01*
X0Y1798D02*
X7Y1798D01*
X1270Y1798D02*
X1277Y1798D01*
X0Y1797D02*
X7Y1797D01*
X1270Y1797D02*
X1277Y1797D01*
X0Y1796D02*
X7Y1796D01*
X1270Y1796D02*
X1277Y1796D01*
X0Y1795D02*
X7Y1795D01*
X1270Y1795D02*
X1277Y1795D01*
X0Y1794D02*
X7Y1794D01*
X1270Y1794D02*
X1277Y1794D01*
X0Y1793D02*
X7Y1793D01*
X1270Y1793D02*
X1277Y1793D01*
X0Y1792D02*
X7Y1792D01*
X1270Y1792D02*
X1277Y1792D01*
X0Y1791D02*
X7Y1791D01*
X1270Y1791D02*
X1277Y1791D01*
X0Y1790D02*
X7Y1790D01*
X1270Y1790D02*
X1277Y1790D01*
X0Y1789D02*
X7Y1789D01*
X1270Y1789D02*
X1277Y1789D01*
X0Y1788D02*
X7Y1788D01*
X1270Y1788D02*
X1277Y1788D01*
X0Y1787D02*
X7Y1787D01*
X1270Y1787D02*
X1277Y1787D01*
X0Y1786D02*
X7Y1786D01*
X1270Y1786D02*
X1277Y1786D01*
X0Y1785D02*
X7Y1785D01*
X1270Y1785D02*
X1277Y1785D01*
X0Y1784D02*
X7Y1784D01*
X1270Y1784D02*
X1277Y1784D01*
X0Y1783D02*
X7Y1783D01*
X1270Y1783D02*
X1277Y1783D01*
X0Y1782D02*
X7Y1782D01*
X1270Y1782D02*
X1277Y1782D01*
X0Y1781D02*
X7Y1781D01*
X1270Y1781D02*
X1277Y1781D01*
X0Y1780D02*
X7Y1780D01*
X1270Y1780D02*
X1277Y1780D01*
X0Y1779D02*
X7Y1779D01*
X1270Y1779D02*
X1277Y1779D01*
X0Y1778D02*
X7Y1778D01*
X1270Y1778D02*
X1277Y1778D01*
X0Y1777D02*
X7Y1777D01*
X1270Y1777D02*
X1277Y1777D01*
X0Y1776D02*
X7Y1776D01*
X1270Y1776D02*
X1277Y1776D01*
X0Y1775D02*
X7Y1775D01*
X1270Y1775D02*
X1277Y1775D01*
X0Y1774D02*
X7Y1774D01*
X1270Y1774D02*
X1277Y1774D01*
X0Y1773D02*
X7Y1773D01*
X1270Y1773D02*
X1277Y1773D01*
X0Y1772D02*
X7Y1772D01*
X1270Y1772D02*
X1277Y1772D01*
X0Y1771D02*
X7Y1771D01*
X1270Y1771D02*
X1277Y1771D01*
X0Y1770D02*
X7Y1770D01*
X1270Y1770D02*
X1277Y1770D01*
X0Y1769D02*
X7Y1769D01*
X1270Y1769D02*
X1277Y1769D01*
X0Y1768D02*
X7Y1768D01*
X1270Y1768D02*
X1277Y1768D01*
X0Y1767D02*
X7Y1767D01*
X1270Y1767D02*
X1277Y1767D01*
X0Y1766D02*
X7Y1766D01*
X1270Y1766D02*
X1277Y1766D01*
X0Y1765D02*
X7Y1765D01*
X1270Y1765D02*
X1277Y1765D01*
X0Y1764D02*
X7Y1764D01*
X1270Y1764D02*
X1277Y1764D01*
X0Y1763D02*
X7Y1763D01*
X1270Y1763D02*
X1277Y1763D01*
X0Y1762D02*
X7Y1762D01*
X1270Y1762D02*
X1277Y1762D01*
X0Y1761D02*
X7Y1761D01*
X1270Y1761D02*
X1277Y1761D01*
X0Y1760D02*
X7Y1760D01*
X1270Y1760D02*
X1277Y1760D01*
X0Y1759D02*
X7Y1759D01*
X1270Y1759D02*
X1277Y1759D01*
X0Y1758D02*
X7Y1758D01*
X1270Y1758D02*
X1277Y1758D01*
X0Y1757D02*
X7Y1757D01*
X1270Y1757D02*
X1277Y1757D01*
X0Y1756D02*
X7Y1756D01*
X1270Y1756D02*
X1277Y1756D01*
X0Y1755D02*
X7Y1755D01*
X1270Y1755D02*
X1277Y1755D01*
X0Y1754D02*
X7Y1754D01*
X1270Y1754D02*
X1277Y1754D01*
X0Y1753D02*
X7Y1753D01*
X1270Y1753D02*
X1277Y1753D01*
X0Y1752D02*
X7Y1752D01*
X1270Y1752D02*
X1277Y1752D01*
X0Y1751D02*
X7Y1751D01*
X1270Y1751D02*
X1277Y1751D01*
X0Y1750D02*
X7Y1750D01*
X1270Y1750D02*
X1277Y1750D01*
X0Y1749D02*
X7Y1749D01*
X1270Y1749D02*
X1277Y1749D01*
X0Y1748D02*
X7Y1748D01*
X1270Y1748D02*
X1277Y1748D01*
X0Y1747D02*
X7Y1747D01*
X1270Y1747D02*
X1277Y1747D01*
X0Y1746D02*
X7Y1746D01*
X1270Y1746D02*
X1277Y1746D01*
X0Y1745D02*
X7Y1745D01*
X1270Y1745D02*
X1277Y1745D01*
X0Y1744D02*
X7Y1744D01*
X1270Y1744D02*
X1277Y1744D01*
X0Y1743D02*
X7Y1743D01*
X1270Y1743D02*
X1277Y1743D01*
X0Y1742D02*
X7Y1742D01*
X1270Y1742D02*
X1277Y1742D01*
X0Y1741D02*
X7Y1741D01*
X1270Y1741D02*
X1277Y1741D01*
X0Y1740D02*
X7Y1740D01*
X1270Y1740D02*
X1277Y1740D01*
X0Y1739D02*
X7Y1739D01*
X1270Y1739D02*
X1277Y1739D01*
X0Y1738D02*
X7Y1738D01*
X1270Y1738D02*
X1277Y1738D01*
X0Y1737D02*
X7Y1737D01*
X1270Y1737D02*
X1277Y1737D01*
X0Y1736D02*
X7Y1736D01*
X1270Y1736D02*
X1277Y1736D01*
X0Y1735D02*
X7Y1735D01*
X1270Y1735D02*
X1277Y1735D01*
X0Y1734D02*
X7Y1734D01*
X1270Y1734D02*
X1277Y1734D01*
X0Y1733D02*
X7Y1733D01*
X1270Y1733D02*
X1277Y1733D01*
X0Y1732D02*
X7Y1732D01*
X1270Y1732D02*
X1277Y1732D01*
X0Y1731D02*
X7Y1731D01*
X1270Y1731D02*
X1277Y1731D01*
X0Y1730D02*
X7Y1730D01*
X1270Y1730D02*
X1277Y1730D01*
X0Y1729D02*
X7Y1729D01*
X1270Y1729D02*
X1277Y1729D01*
X0Y1728D02*
X7Y1728D01*
X1270Y1728D02*
X1277Y1728D01*
X0Y1727D02*
X7Y1727D01*
X1270Y1727D02*
X1277Y1727D01*
X0Y1726D02*
X7Y1726D01*
X1270Y1726D02*
X1277Y1726D01*
X0Y1725D02*
X7Y1725D01*
X1270Y1725D02*
X1277Y1725D01*
X0Y1724D02*
X7Y1724D01*
X1270Y1724D02*
X1277Y1724D01*
X0Y1723D02*
X7Y1723D01*
X1270Y1723D02*
X1277Y1723D01*
X0Y1722D02*
X7Y1722D01*
X1270Y1722D02*
X1277Y1722D01*
X0Y1721D02*
X7Y1721D01*
X1270Y1721D02*
X1277Y1721D01*
X0Y1720D02*
X7Y1720D01*
X1270Y1720D02*
X1277Y1720D01*
X0Y1719D02*
X7Y1719D01*
X1270Y1719D02*
X1277Y1719D01*
X0Y1718D02*
X7Y1718D01*
X1270Y1718D02*
X1277Y1718D01*
X0Y1717D02*
X7Y1717D01*
X1270Y1717D02*
X1277Y1717D01*
X0Y1716D02*
X7Y1716D01*
X1270Y1716D02*
X1277Y1716D01*
X0Y1715D02*
X7Y1715D01*
X1270Y1715D02*
X1277Y1715D01*
X0Y1714D02*
X7Y1714D01*
X1270Y1714D02*
X1277Y1714D01*
X0Y1713D02*
X7Y1713D01*
X1270Y1713D02*
X1277Y1713D01*
X0Y1712D02*
X7Y1712D01*
X1270Y1712D02*
X1277Y1712D01*
X0Y1711D02*
X7Y1711D01*
X1270Y1711D02*
X1277Y1711D01*
X0Y1710D02*
X7Y1710D01*
X1270Y1710D02*
X1277Y1710D01*
X0Y1709D02*
X7Y1709D01*
X1270Y1709D02*
X1277Y1709D01*
X0Y1708D02*
X7Y1708D01*
X1270Y1708D02*
X1277Y1708D01*
X0Y1707D02*
X7Y1707D01*
X1270Y1707D02*
X1277Y1707D01*
X0Y1706D02*
X7Y1706D01*
X1270Y1706D02*
X1277Y1706D01*
X0Y1705D02*
X7Y1705D01*
X1270Y1705D02*
X1277Y1705D01*
X0Y1704D02*
X7Y1704D01*
X1270Y1704D02*
X1277Y1704D01*
X0Y1703D02*
X7Y1703D01*
X1270Y1703D02*
X1277Y1703D01*
X0Y1702D02*
X7Y1702D01*
X1270Y1702D02*
X1277Y1702D01*
X0Y1701D02*
X7Y1701D01*
X1270Y1701D02*
X1277Y1701D01*
X0Y1700D02*
X7Y1700D01*
X1270Y1700D02*
X1277Y1700D01*
X0Y1699D02*
X7Y1699D01*
X1270Y1699D02*
X1277Y1699D01*
X0Y1698D02*
X7Y1698D01*
X1270Y1698D02*
X1277Y1698D01*
X0Y1697D02*
X7Y1697D01*
X1270Y1697D02*
X1277Y1697D01*
X0Y1696D02*
X7Y1696D01*
X1270Y1696D02*
X1277Y1696D01*
X0Y1695D02*
X7Y1695D01*
X1270Y1695D02*
X1277Y1695D01*
X0Y1694D02*
X7Y1694D01*
X1270Y1694D02*
X1277Y1694D01*
X0Y1693D02*
X7Y1693D01*
X1270Y1693D02*
X1277Y1693D01*
X0Y1692D02*
X7Y1692D01*
X1270Y1692D02*
X1277Y1692D01*
X0Y1691D02*
X7Y1691D01*
X1270Y1691D02*
X1277Y1691D01*
X0Y1690D02*
X7Y1690D01*
X1270Y1690D02*
X1277Y1690D01*
X0Y1689D02*
X7Y1689D01*
X1270Y1689D02*
X1277Y1689D01*
X0Y1688D02*
X7Y1688D01*
X1270Y1688D02*
X1277Y1688D01*
X0Y1687D02*
X7Y1687D01*
X1270Y1687D02*
X1277Y1687D01*
X0Y1686D02*
X7Y1686D01*
X1270Y1686D02*
X1277Y1686D01*
X0Y1685D02*
X7Y1685D01*
X1270Y1685D02*
X1277Y1685D01*
X0Y1684D02*
X7Y1684D01*
X1270Y1684D02*
X1277Y1684D01*
X0Y1683D02*
X7Y1683D01*
X1270Y1683D02*
X1277Y1683D01*
X0Y1682D02*
X7Y1682D01*
X1270Y1682D02*
X1277Y1682D01*
X0Y1681D02*
X7Y1681D01*
X1270Y1681D02*
X1277Y1681D01*
X0Y1680D02*
X7Y1680D01*
X1270Y1680D02*
X1277Y1680D01*
X0Y1679D02*
X7Y1679D01*
X1270Y1679D02*
X1277Y1679D01*
X0Y1678D02*
X7Y1678D01*
X1270Y1678D02*
X1277Y1678D01*
X0Y1677D02*
X7Y1677D01*
X1270Y1677D02*
X1277Y1677D01*
X0Y1676D02*
X7Y1676D01*
X1270Y1676D02*
X1277Y1676D01*
X0Y1675D02*
X7Y1675D01*
X1270Y1675D02*
X1277Y1675D01*
X0Y1674D02*
X7Y1674D01*
X1270Y1674D02*
X1277Y1674D01*
X0Y1673D02*
X7Y1673D01*
X1270Y1673D02*
X1277Y1673D01*
X0Y1672D02*
X7Y1672D01*
X1270Y1672D02*
X1277Y1672D01*
X0Y1671D02*
X7Y1671D01*
X1270Y1671D02*
X1277Y1671D01*
X0Y1670D02*
X7Y1670D01*
X1270Y1670D02*
X1277Y1670D01*
X0Y1669D02*
X7Y1669D01*
X1270Y1669D02*
X1277Y1669D01*
X0Y1668D02*
X7Y1668D01*
X1270Y1668D02*
X1277Y1668D01*
X0Y1667D02*
X7Y1667D01*
X1270Y1667D02*
X1277Y1667D01*
X0Y1666D02*
X7Y1666D01*
X1270Y1666D02*
X1277Y1666D01*
X0Y1665D02*
X7Y1665D01*
X1270Y1665D02*
X1277Y1665D01*
X0Y1664D02*
X7Y1664D01*
X1270Y1664D02*
X1277Y1664D01*
X0Y1663D02*
X7Y1663D01*
X1270Y1663D02*
X1277Y1663D01*
X0Y1662D02*
X7Y1662D01*
X1270Y1662D02*
X1277Y1662D01*
X0Y1661D02*
X7Y1661D01*
X1270Y1661D02*
X1277Y1661D01*
X0Y1660D02*
X7Y1660D01*
X1270Y1660D02*
X1277Y1660D01*
X0Y1659D02*
X7Y1659D01*
X1270Y1659D02*
X1277Y1659D01*
X0Y1658D02*
X7Y1658D01*
X1270Y1658D02*
X1277Y1658D01*
X0Y1657D02*
X7Y1657D01*
X1270Y1657D02*
X1277Y1657D01*
X0Y1656D02*
X7Y1656D01*
X1270Y1656D02*
X1277Y1656D01*
X0Y1655D02*
X7Y1655D01*
X1270Y1655D02*
X1277Y1655D01*
X0Y1654D02*
X7Y1654D01*
X1270Y1654D02*
X1277Y1654D01*
X0Y1653D02*
X7Y1653D01*
X1270Y1653D02*
X1277Y1653D01*
X0Y1652D02*
X7Y1652D01*
X1270Y1652D02*
X1277Y1652D01*
X0Y1651D02*
X7Y1651D01*
X1270Y1651D02*
X1277Y1651D01*
X0Y1650D02*
X7Y1650D01*
X1270Y1650D02*
X1277Y1650D01*
X0Y1649D02*
X7Y1649D01*
X1270Y1649D02*
X1277Y1649D01*
X0Y1648D02*
X7Y1648D01*
X1270Y1648D02*
X1277Y1648D01*
X0Y1647D02*
X7Y1647D01*
X1270Y1647D02*
X1277Y1647D01*
X0Y1646D02*
X7Y1646D01*
X1270Y1646D02*
X1277Y1646D01*
X0Y1645D02*
X7Y1645D01*
X1270Y1645D02*
X1277Y1645D01*
X0Y1644D02*
X7Y1644D01*
X480Y1644D02*
X487Y1644D01*
X580Y1644D02*
X587Y1644D01*
X1270Y1644D02*
X1277Y1644D01*
X0Y1643D02*
X7Y1643D01*
X479Y1643D02*
X488Y1643D01*
X579Y1643D02*
X588Y1643D01*
X1270Y1643D02*
X1277Y1643D01*
X0Y1642D02*
X7Y1642D01*
X325Y1642D02*
X342Y1642D01*
X418Y1642D02*
X425Y1642D01*
X444Y1642D02*
X451Y1642D01*
X479Y1642D02*
X488Y1642D01*
X579Y1642D02*
X588Y1642D01*
X1270Y1642D02*
X1277Y1642D01*
X0Y1641D02*
X7Y1641D01*
X218Y1641D02*
X222Y1641D01*
X246Y1641D02*
X250Y1641D01*
X269Y1641D02*
X272Y1641D01*
X296Y1641D02*
X300Y1641D01*
X322Y1641D02*
X346Y1641D01*
X418Y1641D02*
X426Y1641D01*
X443Y1641D02*
X452Y1641D01*
X478Y1641D02*
X488Y1641D01*
X579Y1641D02*
X588Y1641D01*
X1270Y1641D02*
X1277Y1641D01*
X0Y1640D02*
X7Y1640D01*
X218Y1640D02*
X223Y1640D01*
X245Y1640D02*
X251Y1640D01*
X268Y1640D02*
X273Y1640D01*
X295Y1640D02*
X301Y1640D01*
X320Y1640D02*
X348Y1640D01*
X418Y1640D02*
X427Y1640D01*
X442Y1640D02*
X452Y1640D01*
X478Y1640D02*
X488Y1640D01*
X579Y1640D02*
X588Y1640D01*
X1270Y1640D02*
X1277Y1640D01*
X0Y1639D02*
X7Y1639D01*
X217Y1639D02*
X223Y1639D01*
X245Y1639D02*
X251Y1639D01*
X268Y1639D02*
X273Y1639D01*
X295Y1639D02*
X301Y1639D01*
X319Y1639D02*
X349Y1639D01*
X418Y1639D02*
X428Y1639D01*
X442Y1639D02*
X452Y1639D01*
X478Y1639D02*
X488Y1639D01*
X579Y1639D02*
X588Y1639D01*
X1270Y1639D02*
X1277Y1639D01*
X0Y1638D02*
X7Y1638D01*
X217Y1638D02*
X223Y1638D01*
X245Y1638D02*
X251Y1638D01*
X267Y1638D02*
X274Y1638D01*
X295Y1638D02*
X301Y1638D01*
X319Y1638D02*
X349Y1638D01*
X418Y1638D02*
X429Y1638D01*
X441Y1638D02*
X452Y1638D01*
X479Y1638D02*
X488Y1638D01*
X579Y1638D02*
X588Y1638D01*
X1270Y1638D02*
X1277Y1638D01*
X0Y1637D02*
X7Y1637D01*
X217Y1637D02*
X223Y1637D01*
X245Y1637D02*
X251Y1637D01*
X267Y1637D02*
X274Y1637D01*
X295Y1637D02*
X301Y1637D01*
X318Y1637D02*
X350Y1637D01*
X418Y1637D02*
X429Y1637D01*
X440Y1637D02*
X452Y1637D01*
X479Y1637D02*
X488Y1637D01*
X579Y1637D02*
X588Y1637D01*
X1270Y1637D02*
X1277Y1637D01*
X0Y1636D02*
X7Y1636D01*
X217Y1636D02*
X223Y1636D01*
X245Y1636D02*
X251Y1636D01*
X267Y1636D02*
X274Y1636D01*
X295Y1636D02*
X301Y1636D01*
X318Y1636D02*
X351Y1636D01*
X418Y1636D02*
X430Y1636D01*
X440Y1636D02*
X452Y1636D01*
X480Y1636D02*
X487Y1636D01*
X580Y1636D02*
X587Y1636D01*
X1270Y1636D02*
X1277Y1636D01*
X0Y1635D02*
X7Y1635D01*
X217Y1635D02*
X223Y1635D01*
X245Y1635D02*
X251Y1635D01*
X267Y1635D02*
X274Y1635D01*
X295Y1635D02*
X301Y1635D01*
X318Y1635D02*
X325Y1635D01*
X343Y1635D02*
X351Y1635D01*
X418Y1635D02*
X431Y1635D01*
X439Y1635D02*
X452Y1635D01*
X1270Y1635D02*
X1277Y1635D01*
X0Y1634D02*
X7Y1634D01*
X217Y1634D02*
X223Y1634D01*
X245Y1634D02*
X251Y1634D01*
X267Y1634D02*
X274Y1634D01*
X295Y1634D02*
X301Y1634D01*
X318Y1634D02*
X324Y1634D01*
X345Y1634D02*
X351Y1634D01*
X418Y1634D02*
X431Y1634D01*
X438Y1634D02*
X452Y1634D01*
X1270Y1634D02*
X1277Y1634D01*
X0Y1633D02*
X7Y1633D01*
X217Y1633D02*
X223Y1633D01*
X245Y1633D02*
X251Y1633D01*
X267Y1633D02*
X274Y1633D01*
X295Y1633D02*
X301Y1633D01*
X318Y1633D02*
X324Y1633D01*
X345Y1633D02*
X351Y1633D01*
X418Y1633D02*
X432Y1633D01*
X437Y1633D02*
X452Y1633D01*
X1270Y1633D02*
X1277Y1633D01*
X0Y1632D02*
X7Y1632D01*
X217Y1632D02*
X223Y1632D01*
X245Y1632D02*
X251Y1632D01*
X267Y1632D02*
X274Y1632D01*
X295Y1632D02*
X301Y1632D01*
X318Y1632D02*
X325Y1632D01*
X345Y1632D02*
X351Y1632D01*
X418Y1632D02*
X433Y1632D01*
X437Y1632D02*
X452Y1632D01*
X1270Y1632D02*
X1277Y1632D01*
X0Y1631D02*
X7Y1631D01*
X217Y1631D02*
X223Y1631D01*
X245Y1631D02*
X251Y1631D01*
X267Y1631D02*
X274Y1631D01*
X295Y1631D02*
X301Y1631D01*
X318Y1631D02*
X326Y1631D01*
X346Y1631D02*
X351Y1631D01*
X418Y1631D02*
X424Y1631D01*
X426Y1631D02*
X434Y1631D01*
X436Y1631D02*
X444Y1631D01*
X446Y1631D02*
X452Y1631D01*
X1270Y1631D02*
X1277Y1631D01*
X0Y1630D02*
X7Y1630D01*
X217Y1630D02*
X223Y1630D01*
X245Y1630D02*
X251Y1630D01*
X267Y1630D02*
X274Y1630D01*
X295Y1630D02*
X301Y1630D01*
X319Y1630D02*
X327Y1630D01*
X346Y1630D02*
X350Y1630D01*
X418Y1630D02*
X424Y1630D01*
X427Y1630D02*
X443Y1630D01*
X446Y1630D02*
X452Y1630D01*
X1270Y1630D02*
X1277Y1630D01*
X0Y1629D02*
X7Y1629D01*
X217Y1629D02*
X223Y1629D01*
X245Y1629D02*
X251Y1629D01*
X267Y1629D02*
X274Y1629D01*
X295Y1629D02*
X301Y1629D01*
X319Y1629D02*
X327Y1629D01*
X418Y1629D02*
X424Y1629D01*
X427Y1629D02*
X442Y1629D01*
X446Y1629D02*
X452Y1629D01*
X1270Y1629D02*
X1277Y1629D01*
X0Y1628D02*
X7Y1628D01*
X217Y1628D02*
X223Y1628D01*
X245Y1628D02*
X251Y1628D01*
X267Y1628D02*
X274Y1628D01*
X295Y1628D02*
X301Y1628D01*
X320Y1628D02*
X328Y1628D01*
X418Y1628D02*
X424Y1628D01*
X428Y1628D02*
X442Y1628D01*
X446Y1628D02*
X452Y1628D01*
X1270Y1628D02*
X1277Y1628D01*
X0Y1627D02*
X7Y1627D01*
X217Y1627D02*
X223Y1627D01*
X245Y1627D02*
X251Y1627D01*
X267Y1627D02*
X274Y1627D01*
X295Y1627D02*
X301Y1627D01*
X321Y1627D02*
X329Y1627D01*
X418Y1627D02*
X424Y1627D01*
X429Y1627D02*
X441Y1627D01*
X446Y1627D02*
X452Y1627D01*
X474Y1627D02*
X486Y1627D01*
X520Y1627D02*
X522Y1627D01*
X535Y1627D02*
X543Y1627D01*
X574Y1627D02*
X586Y1627D01*
X1270Y1627D02*
X1277Y1627D01*
X0Y1626D02*
X7Y1626D01*
X217Y1626D02*
X223Y1626D01*
X245Y1626D02*
X251Y1626D01*
X267Y1626D02*
X274Y1626D01*
X295Y1626D02*
X301Y1626D01*
X322Y1626D02*
X330Y1626D01*
X418Y1626D02*
X424Y1626D01*
X429Y1626D02*
X440Y1626D01*
X446Y1626D02*
X452Y1626D01*
X472Y1626D02*
X487Y1626D01*
X519Y1626D02*
X524Y1626D01*
X533Y1626D02*
X546Y1626D01*
X573Y1626D02*
X587Y1626D01*
X1270Y1626D02*
X1277Y1626D01*
X0Y1625D02*
X7Y1625D01*
X217Y1625D02*
X223Y1625D01*
X245Y1625D02*
X251Y1625D01*
X267Y1625D02*
X274Y1625D01*
X295Y1625D02*
X301Y1625D01*
X323Y1625D02*
X331Y1625D01*
X418Y1625D02*
X424Y1625D01*
X430Y1625D02*
X439Y1625D01*
X446Y1625D02*
X452Y1625D01*
X472Y1625D02*
X488Y1625D01*
X519Y1625D02*
X524Y1625D01*
X531Y1625D02*
X547Y1625D01*
X572Y1625D02*
X588Y1625D01*
X1270Y1625D02*
X1277Y1625D01*
X0Y1624D02*
X7Y1624D01*
X217Y1624D02*
X223Y1624D01*
X245Y1624D02*
X251Y1624D01*
X267Y1624D02*
X274Y1624D01*
X295Y1624D02*
X301Y1624D01*
X323Y1624D02*
X331Y1624D01*
X418Y1624D02*
X424Y1624D01*
X431Y1624D02*
X439Y1624D01*
X446Y1624D02*
X452Y1624D01*
X472Y1624D02*
X488Y1624D01*
X518Y1624D02*
X524Y1624D01*
X529Y1624D02*
X548Y1624D01*
X572Y1624D02*
X588Y1624D01*
X1270Y1624D02*
X1277Y1624D01*
X0Y1623D02*
X7Y1623D01*
X217Y1623D02*
X223Y1623D01*
X245Y1623D02*
X251Y1623D01*
X267Y1623D02*
X274Y1623D01*
X295Y1623D02*
X301Y1623D01*
X324Y1623D02*
X332Y1623D01*
X418Y1623D02*
X424Y1623D01*
X432Y1623D02*
X438Y1623D01*
X446Y1623D02*
X452Y1623D01*
X472Y1623D02*
X488Y1623D01*
X518Y1623D02*
X524Y1623D01*
X528Y1623D02*
X549Y1623D01*
X572Y1623D02*
X588Y1623D01*
X1270Y1623D02*
X1277Y1623D01*
X0Y1622D02*
X7Y1622D01*
X217Y1622D02*
X223Y1622D01*
X245Y1622D02*
X251Y1622D01*
X267Y1622D02*
X274Y1622D01*
X295Y1622D02*
X301Y1622D01*
X325Y1622D02*
X333Y1622D01*
X418Y1622D02*
X424Y1622D01*
X432Y1622D02*
X438Y1622D01*
X446Y1622D02*
X452Y1622D01*
X472Y1622D02*
X488Y1622D01*
X518Y1622D02*
X524Y1622D01*
X526Y1622D02*
X550Y1622D01*
X573Y1622D02*
X588Y1622D01*
X1270Y1622D02*
X1277Y1622D01*
X0Y1621D02*
X7Y1621D01*
X217Y1621D02*
X223Y1621D01*
X245Y1621D02*
X251Y1621D01*
X267Y1621D02*
X274Y1621D01*
X295Y1621D02*
X301Y1621D01*
X326Y1621D02*
X334Y1621D01*
X418Y1621D02*
X424Y1621D01*
X432Y1621D02*
X438Y1621D01*
X446Y1621D02*
X452Y1621D01*
X473Y1621D02*
X488Y1621D01*
X518Y1621D02*
X550Y1621D01*
X573Y1621D02*
X588Y1621D01*
X1270Y1621D02*
X1277Y1621D01*
X0Y1620D02*
X7Y1620D01*
X217Y1620D02*
X223Y1620D01*
X245Y1620D02*
X251Y1620D01*
X267Y1620D02*
X274Y1620D01*
X295Y1620D02*
X301Y1620D01*
X326Y1620D02*
X334Y1620D01*
X418Y1620D02*
X424Y1620D01*
X432Y1620D02*
X438Y1620D01*
X446Y1620D02*
X452Y1620D01*
X482Y1620D02*
X488Y1620D01*
X518Y1620D02*
X535Y1620D01*
X543Y1620D02*
X551Y1620D01*
X582Y1620D02*
X588Y1620D01*
X1270Y1620D02*
X1277Y1620D01*
X0Y1619D02*
X7Y1619D01*
X217Y1619D02*
X223Y1619D01*
X245Y1619D02*
X251Y1619D01*
X267Y1619D02*
X274Y1619D01*
X295Y1619D02*
X301Y1619D01*
X327Y1619D02*
X335Y1619D01*
X418Y1619D02*
X424Y1619D01*
X432Y1619D02*
X437Y1619D01*
X446Y1619D02*
X452Y1619D01*
X482Y1619D02*
X488Y1619D01*
X518Y1619D02*
X534Y1619D01*
X544Y1619D02*
X551Y1619D01*
X582Y1619D02*
X588Y1619D01*
X1270Y1619D02*
X1277Y1619D01*
X0Y1618D02*
X7Y1618D01*
X217Y1618D02*
X223Y1618D01*
X245Y1618D02*
X251Y1618D01*
X267Y1618D02*
X301Y1618D01*
X328Y1618D02*
X336Y1618D01*
X418Y1618D02*
X424Y1618D01*
X433Y1618D02*
X436Y1618D01*
X446Y1618D02*
X452Y1618D01*
X482Y1618D02*
X488Y1618D01*
X518Y1618D02*
X532Y1618D01*
X545Y1618D02*
X551Y1618D01*
X582Y1618D02*
X588Y1618D01*
X1270Y1618D02*
X1277Y1618D01*
X0Y1617D02*
X7Y1617D01*
X217Y1617D02*
X223Y1617D01*
X245Y1617D02*
X251Y1617D01*
X267Y1617D02*
X301Y1617D01*
X329Y1617D02*
X337Y1617D01*
X418Y1617D02*
X424Y1617D01*
X446Y1617D02*
X452Y1617D01*
X482Y1617D02*
X488Y1617D01*
X518Y1617D02*
X531Y1617D01*
X545Y1617D02*
X551Y1617D01*
X582Y1617D02*
X588Y1617D01*
X1270Y1617D02*
X1277Y1617D01*
X0Y1616D02*
X7Y1616D01*
X217Y1616D02*
X223Y1616D01*
X245Y1616D02*
X251Y1616D01*
X267Y1616D02*
X301Y1616D01*
X330Y1616D02*
X338Y1616D01*
X418Y1616D02*
X424Y1616D01*
X446Y1616D02*
X452Y1616D01*
X482Y1616D02*
X488Y1616D01*
X518Y1616D02*
X529Y1616D01*
X545Y1616D02*
X551Y1616D01*
X582Y1616D02*
X588Y1616D01*
X1270Y1616D02*
X1277Y1616D01*
X0Y1615D02*
X7Y1615D01*
X217Y1615D02*
X223Y1615D01*
X245Y1615D02*
X251Y1615D01*
X267Y1615D02*
X301Y1615D01*
X330Y1615D02*
X338Y1615D01*
X418Y1615D02*
X424Y1615D01*
X446Y1615D02*
X452Y1615D01*
X482Y1615D02*
X488Y1615D01*
X518Y1615D02*
X527Y1615D01*
X545Y1615D02*
X551Y1615D01*
X582Y1615D02*
X588Y1615D01*
X1270Y1615D02*
X1277Y1615D01*
X0Y1614D02*
X7Y1614D01*
X217Y1614D02*
X223Y1614D01*
X245Y1614D02*
X251Y1614D01*
X267Y1614D02*
X301Y1614D01*
X331Y1614D02*
X339Y1614D01*
X418Y1614D02*
X424Y1614D01*
X446Y1614D02*
X452Y1614D01*
X482Y1614D02*
X488Y1614D01*
X518Y1614D02*
X526Y1614D01*
X545Y1614D02*
X551Y1614D01*
X582Y1614D02*
X588Y1614D01*
X1270Y1614D02*
X1277Y1614D01*
X0Y1613D02*
X7Y1613D01*
X217Y1613D02*
X223Y1613D01*
X245Y1613D02*
X251Y1613D01*
X267Y1613D02*
X301Y1613D01*
X332Y1613D02*
X340Y1613D01*
X418Y1613D02*
X424Y1613D01*
X446Y1613D02*
X452Y1613D01*
X482Y1613D02*
X488Y1613D01*
X518Y1613D02*
X525Y1613D01*
X545Y1613D02*
X551Y1613D01*
X582Y1613D02*
X588Y1613D01*
X1270Y1613D02*
X1277Y1613D01*
X0Y1612D02*
X7Y1612D01*
X217Y1612D02*
X223Y1612D01*
X245Y1612D02*
X251Y1612D01*
X267Y1612D02*
X301Y1612D01*
X333Y1612D02*
X341Y1612D01*
X418Y1612D02*
X424Y1612D01*
X446Y1612D02*
X452Y1612D01*
X482Y1612D02*
X488Y1612D01*
X518Y1612D02*
X524Y1612D01*
X545Y1612D02*
X551Y1612D01*
X582Y1612D02*
X588Y1612D01*
X1270Y1612D02*
X1277Y1612D01*
X0Y1611D02*
X7Y1611D01*
X217Y1611D02*
X223Y1611D01*
X245Y1611D02*
X251Y1611D01*
X267Y1611D02*
X274Y1611D01*
X295Y1611D02*
X301Y1611D01*
X333Y1611D02*
X341Y1611D01*
X418Y1611D02*
X424Y1611D01*
X446Y1611D02*
X452Y1611D01*
X482Y1611D02*
X488Y1611D01*
X518Y1611D02*
X524Y1611D01*
X545Y1611D02*
X551Y1611D01*
X582Y1611D02*
X588Y1611D01*
X1270Y1611D02*
X1277Y1611D01*
X0Y1610D02*
X7Y1610D01*
X217Y1610D02*
X223Y1610D01*
X245Y1610D02*
X251Y1610D01*
X267Y1610D02*
X274Y1610D01*
X295Y1610D02*
X301Y1610D01*
X334Y1610D02*
X342Y1610D01*
X418Y1610D02*
X424Y1610D01*
X446Y1610D02*
X452Y1610D01*
X482Y1610D02*
X488Y1610D01*
X518Y1610D02*
X524Y1610D01*
X545Y1610D02*
X551Y1610D01*
X582Y1610D02*
X588Y1610D01*
X1270Y1610D02*
X1277Y1610D01*
X0Y1609D02*
X7Y1609D01*
X217Y1609D02*
X223Y1609D01*
X245Y1609D02*
X251Y1609D01*
X267Y1609D02*
X274Y1609D01*
X295Y1609D02*
X301Y1609D01*
X335Y1609D02*
X343Y1609D01*
X418Y1609D02*
X424Y1609D01*
X446Y1609D02*
X452Y1609D01*
X482Y1609D02*
X488Y1609D01*
X518Y1609D02*
X524Y1609D01*
X545Y1609D02*
X551Y1609D01*
X582Y1609D02*
X588Y1609D01*
X1270Y1609D02*
X1277Y1609D01*
X0Y1608D02*
X7Y1608D01*
X217Y1608D02*
X223Y1608D01*
X245Y1608D02*
X251Y1608D01*
X267Y1608D02*
X274Y1608D01*
X295Y1608D02*
X301Y1608D01*
X336Y1608D02*
X344Y1608D01*
X418Y1608D02*
X424Y1608D01*
X446Y1608D02*
X452Y1608D01*
X482Y1608D02*
X488Y1608D01*
X518Y1608D02*
X524Y1608D01*
X545Y1608D02*
X551Y1608D01*
X582Y1608D02*
X588Y1608D01*
X1270Y1608D02*
X1277Y1608D01*
X0Y1607D02*
X7Y1607D01*
X217Y1607D02*
X223Y1607D01*
X245Y1607D02*
X251Y1607D01*
X267Y1607D02*
X274Y1607D01*
X295Y1607D02*
X301Y1607D01*
X337Y1607D02*
X345Y1607D01*
X418Y1607D02*
X424Y1607D01*
X446Y1607D02*
X452Y1607D01*
X482Y1607D02*
X488Y1607D01*
X518Y1607D02*
X524Y1607D01*
X545Y1607D02*
X551Y1607D01*
X582Y1607D02*
X588Y1607D01*
X1270Y1607D02*
X1277Y1607D01*
X0Y1606D02*
X7Y1606D01*
X217Y1606D02*
X223Y1606D01*
X245Y1606D02*
X251Y1606D01*
X267Y1606D02*
X274Y1606D01*
X295Y1606D02*
X301Y1606D01*
X337Y1606D02*
X345Y1606D01*
X418Y1606D02*
X424Y1606D01*
X446Y1606D02*
X452Y1606D01*
X482Y1606D02*
X488Y1606D01*
X518Y1606D02*
X524Y1606D01*
X545Y1606D02*
X551Y1606D01*
X582Y1606D02*
X588Y1606D01*
X1270Y1606D02*
X1277Y1606D01*
X0Y1605D02*
X7Y1605D01*
X217Y1605D02*
X223Y1605D01*
X245Y1605D02*
X251Y1605D01*
X267Y1605D02*
X274Y1605D01*
X295Y1605D02*
X301Y1605D01*
X338Y1605D02*
X346Y1605D01*
X418Y1605D02*
X424Y1605D01*
X446Y1605D02*
X452Y1605D01*
X482Y1605D02*
X488Y1605D01*
X518Y1605D02*
X524Y1605D01*
X545Y1605D02*
X551Y1605D01*
X582Y1605D02*
X588Y1605D01*
X1270Y1605D02*
X1277Y1605D01*
X0Y1604D02*
X7Y1604D01*
X217Y1604D02*
X223Y1604D01*
X245Y1604D02*
X251Y1604D01*
X267Y1604D02*
X274Y1604D01*
X295Y1604D02*
X301Y1604D01*
X339Y1604D02*
X347Y1604D01*
X418Y1604D02*
X424Y1604D01*
X446Y1604D02*
X452Y1604D01*
X482Y1604D02*
X488Y1604D01*
X518Y1604D02*
X524Y1604D01*
X545Y1604D02*
X551Y1604D01*
X582Y1604D02*
X588Y1604D01*
X1270Y1604D02*
X1277Y1604D01*
X0Y1603D02*
X7Y1603D01*
X217Y1603D02*
X223Y1603D01*
X245Y1603D02*
X251Y1603D01*
X267Y1603D02*
X274Y1603D01*
X295Y1603D02*
X301Y1603D01*
X340Y1603D02*
X348Y1603D01*
X418Y1603D02*
X424Y1603D01*
X446Y1603D02*
X452Y1603D01*
X482Y1603D02*
X488Y1603D01*
X518Y1603D02*
X524Y1603D01*
X546Y1603D02*
X551Y1603D01*
X582Y1603D02*
X588Y1603D01*
X1270Y1603D02*
X1277Y1603D01*
X0Y1602D02*
X7Y1602D01*
X217Y1602D02*
X223Y1602D01*
X245Y1602D02*
X251Y1602D01*
X267Y1602D02*
X274Y1602D01*
X295Y1602D02*
X301Y1602D01*
X340Y1602D02*
X348Y1602D01*
X418Y1602D02*
X424Y1602D01*
X446Y1602D02*
X452Y1602D01*
X482Y1602D02*
X488Y1602D01*
X518Y1602D02*
X524Y1602D01*
X546Y1602D02*
X552Y1602D01*
X582Y1602D02*
X588Y1602D01*
X1270Y1602D02*
X1277Y1602D01*
X0Y1601D02*
X7Y1601D01*
X217Y1601D02*
X223Y1601D01*
X245Y1601D02*
X251Y1601D01*
X267Y1601D02*
X274Y1601D01*
X295Y1601D02*
X301Y1601D01*
X341Y1601D02*
X349Y1601D01*
X418Y1601D02*
X424Y1601D01*
X446Y1601D02*
X452Y1601D01*
X482Y1601D02*
X488Y1601D01*
X518Y1601D02*
X524Y1601D01*
X546Y1601D02*
X552Y1601D01*
X582Y1601D02*
X588Y1601D01*
X1270Y1601D02*
X1277Y1601D01*
X0Y1600D02*
X7Y1600D01*
X217Y1600D02*
X223Y1600D01*
X245Y1600D02*
X251Y1600D01*
X267Y1600D02*
X274Y1600D01*
X295Y1600D02*
X301Y1600D01*
X319Y1600D02*
X322Y1600D01*
X342Y1600D02*
X350Y1600D01*
X418Y1600D02*
X424Y1600D01*
X446Y1600D02*
X452Y1600D01*
X482Y1600D02*
X488Y1600D01*
X518Y1600D02*
X524Y1600D01*
X546Y1600D02*
X552Y1600D01*
X582Y1600D02*
X588Y1600D01*
X1270Y1600D02*
X1277Y1600D01*
X0Y1599D02*
X7Y1599D01*
X217Y1599D02*
X223Y1599D01*
X245Y1599D02*
X251Y1599D01*
X267Y1599D02*
X274Y1599D01*
X295Y1599D02*
X301Y1599D01*
X318Y1599D02*
X323Y1599D01*
X343Y1599D02*
X350Y1599D01*
X418Y1599D02*
X424Y1599D01*
X446Y1599D02*
X452Y1599D01*
X482Y1599D02*
X488Y1599D01*
X518Y1599D02*
X524Y1599D01*
X546Y1599D02*
X552Y1599D01*
X582Y1599D02*
X588Y1599D01*
X1270Y1599D02*
X1277Y1599D01*
X0Y1598D02*
X7Y1598D01*
X217Y1598D02*
X223Y1598D01*
X245Y1598D02*
X251Y1598D01*
X267Y1598D02*
X274Y1598D01*
X295Y1598D02*
X301Y1598D01*
X318Y1598D02*
X324Y1598D01*
X344Y1598D02*
X351Y1598D01*
X418Y1598D02*
X424Y1598D01*
X446Y1598D02*
X452Y1598D01*
X482Y1598D02*
X488Y1598D01*
X518Y1598D02*
X524Y1598D01*
X546Y1598D02*
X552Y1598D01*
X582Y1598D02*
X588Y1598D01*
X1270Y1598D02*
X1277Y1598D01*
X0Y1597D02*
X7Y1597D01*
X217Y1597D02*
X224Y1597D01*
X245Y1597D02*
X251Y1597D01*
X267Y1597D02*
X274Y1597D01*
X295Y1597D02*
X301Y1597D01*
X318Y1597D02*
X324Y1597D01*
X344Y1597D02*
X351Y1597D01*
X418Y1597D02*
X424Y1597D01*
X446Y1597D02*
X452Y1597D01*
X482Y1597D02*
X488Y1597D01*
X518Y1597D02*
X524Y1597D01*
X546Y1597D02*
X552Y1597D01*
X582Y1597D02*
X588Y1597D01*
X1270Y1597D02*
X1277Y1597D01*
X0Y1596D02*
X7Y1596D01*
X218Y1596D02*
X224Y1596D01*
X244Y1596D02*
X251Y1596D01*
X267Y1596D02*
X274Y1596D01*
X295Y1596D02*
X301Y1596D01*
X318Y1596D02*
X324Y1596D01*
X345Y1596D02*
X351Y1596D01*
X418Y1596D02*
X424Y1596D01*
X446Y1596D02*
X452Y1596D01*
X482Y1596D02*
X488Y1596D01*
X518Y1596D02*
X524Y1596D01*
X546Y1596D02*
X552Y1596D01*
X582Y1596D02*
X588Y1596D01*
X1270Y1596D02*
X1277Y1596D01*
X0Y1595D02*
X7Y1595D01*
X218Y1595D02*
X226Y1595D01*
X242Y1595D02*
X250Y1595D01*
X267Y1595D02*
X274Y1595D01*
X295Y1595D02*
X301Y1595D01*
X318Y1595D02*
X326Y1595D01*
X345Y1595D02*
X351Y1595D01*
X418Y1595D02*
X424Y1595D01*
X446Y1595D02*
X452Y1595D01*
X482Y1595D02*
X488Y1595D01*
X518Y1595D02*
X524Y1595D01*
X546Y1595D02*
X552Y1595D01*
X582Y1595D02*
X589Y1595D01*
X1270Y1595D02*
X1277Y1595D01*
X0Y1594D02*
X7Y1594D01*
X218Y1594D02*
X250Y1594D01*
X267Y1594D02*
X274Y1594D01*
X295Y1594D02*
X301Y1594D01*
X318Y1594D02*
X351Y1594D01*
X418Y1594D02*
X424Y1594D01*
X446Y1594D02*
X452Y1594D01*
X473Y1594D02*
X497Y1594D01*
X518Y1594D02*
X524Y1594D01*
X546Y1594D02*
X552Y1594D01*
X573Y1594D02*
X597Y1594D01*
X1270Y1594D02*
X1277Y1594D01*
X0Y1593D02*
X7Y1593D01*
X219Y1593D02*
X249Y1593D01*
X267Y1593D02*
X274Y1593D01*
X295Y1593D02*
X301Y1593D01*
X319Y1593D02*
X351Y1593D01*
X418Y1593D02*
X424Y1593D01*
X446Y1593D02*
X452Y1593D01*
X472Y1593D02*
X498Y1593D01*
X518Y1593D02*
X524Y1593D01*
X546Y1593D02*
X552Y1593D01*
X572Y1593D02*
X598Y1593D01*
X1270Y1593D02*
X1277Y1593D01*
X0Y1592D02*
X7Y1592D01*
X220Y1592D02*
X249Y1592D01*
X267Y1592D02*
X274Y1592D01*
X295Y1592D02*
X301Y1592D01*
X319Y1592D02*
X350Y1592D01*
X418Y1592D02*
X424Y1592D01*
X446Y1592D02*
X452Y1592D01*
X472Y1592D02*
X498Y1592D01*
X518Y1592D02*
X524Y1592D01*
X546Y1592D02*
X552Y1592D01*
X572Y1592D02*
X599Y1592D01*
X1270Y1592D02*
X1277Y1592D01*
X0Y1591D02*
X7Y1591D01*
X220Y1591D02*
X248Y1591D01*
X268Y1591D02*
X273Y1591D01*
X295Y1591D02*
X301Y1591D01*
X320Y1591D02*
X349Y1591D01*
X418Y1591D02*
X424Y1591D01*
X446Y1591D02*
X452Y1591D01*
X472Y1591D02*
X498Y1591D01*
X518Y1591D02*
X524Y1591D01*
X546Y1591D02*
X552Y1591D01*
X572Y1591D02*
X599Y1591D01*
X1270Y1591D02*
X1277Y1591D01*
X0Y1590D02*
X7Y1590D01*
X222Y1590D02*
X247Y1590D01*
X268Y1590D02*
X273Y1590D01*
X295Y1590D02*
X301Y1590D01*
X321Y1590D02*
X349Y1590D01*
X418Y1590D02*
X424Y1590D01*
X446Y1590D02*
X451Y1590D01*
X472Y1590D02*
X498Y1590D01*
X519Y1590D02*
X524Y1590D01*
X546Y1590D02*
X552Y1590D01*
X572Y1590D02*
X598Y1590D01*
X1270Y1590D02*
X1277Y1590D01*
X0Y1589D02*
X7Y1589D01*
X223Y1589D02*
X245Y1589D01*
X269Y1589D02*
X272Y1589D01*
X296Y1589D02*
X300Y1589D01*
X323Y1589D02*
X347Y1589D01*
X419Y1589D02*
X423Y1589D01*
X447Y1589D02*
X451Y1589D01*
X473Y1589D02*
X497Y1589D01*
X519Y1589D02*
X523Y1589D01*
X547Y1589D02*
X551Y1589D01*
X573Y1589D02*
X598Y1589D01*
X1270Y1589D02*
X1277Y1589D01*
X0Y1588D02*
X7Y1588D01*
X227Y1588D02*
X242Y1588D01*
X270Y1588D02*
X271Y1588D01*
X298Y1588D02*
X298Y1588D01*
X326Y1588D02*
X345Y1588D01*
X421Y1588D02*
X421Y1588D01*
X448Y1588D02*
X449Y1588D01*
X475Y1588D02*
X495Y1588D01*
X521Y1588D02*
X521Y1588D01*
X549Y1588D02*
X549Y1588D01*
X575Y1588D02*
X596Y1588D01*
X1270Y1588D02*
X1277Y1588D01*
X0Y1587D02*
X7Y1587D01*
X1270Y1587D02*
X1277Y1587D01*
X0Y1586D02*
X7Y1586D01*
X1270Y1586D02*
X1277Y1586D01*
X0Y1585D02*
X7Y1585D01*
X1270Y1585D02*
X1277Y1585D01*
X0Y1584D02*
X7Y1584D01*
X1270Y1584D02*
X1277Y1584D01*
X0Y1583D02*
X7Y1583D01*
X1270Y1583D02*
X1277Y1583D01*
X0Y1582D02*
X7Y1582D01*
X1270Y1582D02*
X1277Y1582D01*
X0Y1581D02*
X7Y1581D01*
X1270Y1581D02*
X1277Y1581D01*
X0Y1580D02*
X7Y1580D01*
X1270Y1580D02*
X1277Y1580D01*
X0Y1579D02*
X7Y1579D01*
X1270Y1579D02*
X1277Y1579D01*
X0Y1578D02*
X7Y1578D01*
X1270Y1578D02*
X1277Y1578D01*
X0Y1577D02*
X7Y1577D01*
X1270Y1577D02*
X1277Y1577D01*
X0Y1576D02*
X7Y1576D01*
X1270Y1576D02*
X1277Y1576D01*
X0Y1575D02*
X7Y1575D01*
X1270Y1575D02*
X1277Y1575D01*
X0Y1574D02*
X7Y1574D01*
X1270Y1574D02*
X1277Y1574D01*
X0Y1573D02*
X7Y1573D01*
X1270Y1573D02*
X1277Y1573D01*
X0Y1572D02*
X7Y1572D01*
X1270Y1572D02*
X1277Y1572D01*
X0Y1571D02*
X7Y1571D01*
X1270Y1571D02*
X1277Y1571D01*
X0Y1570D02*
X7Y1570D01*
X1270Y1570D02*
X1277Y1570D01*
X0Y1569D02*
X7Y1569D01*
X1270Y1569D02*
X1277Y1569D01*
X0Y1568D02*
X7Y1568D01*
X1270Y1568D02*
X1277Y1568D01*
X0Y1567D02*
X7Y1567D01*
X1270Y1567D02*
X1277Y1567D01*
X0Y1566D02*
X7Y1566D01*
X1270Y1566D02*
X1277Y1566D01*
X0Y1565D02*
X7Y1565D01*
X1270Y1565D02*
X1277Y1565D01*
X0Y1564D02*
X7Y1564D01*
X1270Y1564D02*
X1277Y1564D01*
X0Y1563D02*
X7Y1563D01*
X1270Y1563D02*
X1277Y1563D01*
X0Y1562D02*
X7Y1562D01*
X1270Y1562D02*
X1277Y1562D01*
X0Y1561D02*
X7Y1561D01*
X1270Y1561D02*
X1277Y1561D01*
X0Y1560D02*
X7Y1560D01*
X1270Y1560D02*
X1277Y1560D01*
X0Y1559D02*
X7Y1559D01*
X1270Y1559D02*
X1277Y1559D01*
X0Y1558D02*
X7Y1558D01*
X1270Y1558D02*
X1277Y1558D01*
X0Y1557D02*
X7Y1557D01*
X1270Y1557D02*
X1277Y1557D01*
X0Y1556D02*
X7Y1556D01*
X1270Y1556D02*
X1277Y1556D01*
X0Y1555D02*
X7Y1555D01*
X1270Y1555D02*
X1277Y1555D01*
X0Y1554D02*
X7Y1554D01*
X1270Y1554D02*
X1277Y1554D01*
X0Y1553D02*
X7Y1553D01*
X1270Y1553D02*
X1277Y1553D01*
X0Y1552D02*
X7Y1552D01*
X1270Y1552D02*
X1277Y1552D01*
X0Y1551D02*
X7Y1551D01*
X1270Y1551D02*
X1277Y1551D01*
X0Y1550D02*
X7Y1550D01*
X1270Y1550D02*
X1277Y1550D01*
X0Y1549D02*
X7Y1549D01*
X1270Y1549D02*
X1277Y1549D01*
X0Y1548D02*
X7Y1548D01*
X1270Y1548D02*
X1277Y1548D01*
X0Y1547D02*
X7Y1547D01*
X1270Y1547D02*
X1277Y1547D01*
X0Y1546D02*
X7Y1546D01*
X1270Y1546D02*
X1277Y1546D01*
X0Y1545D02*
X7Y1545D01*
X1270Y1545D02*
X1277Y1545D01*
X0Y1544D02*
X7Y1544D01*
X1270Y1544D02*
X1277Y1544D01*
X0Y1543D02*
X7Y1543D01*
X1270Y1543D02*
X1277Y1543D01*
X0Y1542D02*
X7Y1542D01*
X1270Y1542D02*
X1277Y1542D01*
X0Y1541D02*
X7Y1541D01*
X1270Y1541D02*
X1277Y1541D01*
X0Y1540D02*
X7Y1540D01*
X1270Y1540D02*
X1277Y1540D01*
X0Y1539D02*
X7Y1539D01*
X1270Y1539D02*
X1277Y1539D01*
X0Y1538D02*
X7Y1538D01*
X1270Y1538D02*
X1277Y1538D01*
X0Y1537D02*
X7Y1537D01*
X1270Y1537D02*
X1277Y1537D01*
X0Y1536D02*
X7Y1536D01*
X1270Y1536D02*
X1277Y1536D01*
X0Y1535D02*
X7Y1535D01*
X1270Y1535D02*
X1277Y1535D01*
X0Y1534D02*
X7Y1534D01*
X1270Y1534D02*
X1277Y1534D01*
X0Y1533D02*
X7Y1533D01*
X1270Y1533D02*
X1277Y1533D01*
X0Y1532D02*
X7Y1532D01*
X1270Y1532D02*
X1277Y1532D01*
X0Y1531D02*
X7Y1531D01*
X1270Y1531D02*
X1277Y1531D01*
X0Y1530D02*
X7Y1530D01*
X1270Y1530D02*
X1277Y1530D01*
X0Y1529D02*
X7Y1529D01*
X1270Y1529D02*
X1277Y1529D01*
X0Y1528D02*
X7Y1528D01*
X1270Y1528D02*
X1277Y1528D01*
X0Y1527D02*
X7Y1527D01*
X1270Y1527D02*
X1277Y1527D01*
X0Y1526D02*
X7Y1526D01*
X1270Y1526D02*
X1277Y1526D01*
X0Y1525D02*
X7Y1525D01*
X1270Y1525D02*
X1277Y1525D01*
X0Y1524D02*
X7Y1524D01*
X1270Y1524D02*
X1277Y1524D01*
X0Y1523D02*
X7Y1523D01*
X1270Y1523D02*
X1277Y1523D01*
X0Y1522D02*
X7Y1522D01*
X1270Y1522D02*
X1277Y1522D01*
X0Y1521D02*
X7Y1521D01*
X1270Y1521D02*
X1277Y1521D01*
X0Y1520D02*
X7Y1520D01*
X1270Y1520D02*
X1277Y1520D01*
X0Y1519D02*
X7Y1519D01*
X1270Y1519D02*
X1277Y1519D01*
X0Y1518D02*
X7Y1518D01*
X1270Y1518D02*
X1277Y1518D01*
X0Y1517D02*
X7Y1517D01*
X1270Y1517D02*
X1277Y1517D01*
X0Y1516D02*
X7Y1516D01*
X1270Y1516D02*
X1277Y1516D01*
X0Y1515D02*
X7Y1515D01*
X1270Y1515D02*
X1277Y1515D01*
X0Y1514D02*
X7Y1514D01*
X1270Y1514D02*
X1277Y1514D01*
X0Y1513D02*
X7Y1513D01*
X1270Y1513D02*
X1277Y1513D01*
X0Y1512D02*
X7Y1512D01*
X1270Y1512D02*
X1277Y1512D01*
X0Y1511D02*
X7Y1511D01*
X1270Y1511D02*
X1277Y1511D01*
X0Y1510D02*
X7Y1510D01*
X1270Y1510D02*
X1277Y1510D01*
X0Y1509D02*
X7Y1509D01*
X1270Y1509D02*
X1277Y1509D01*
X0Y1508D02*
X7Y1508D01*
X1270Y1508D02*
X1277Y1508D01*
X0Y1507D02*
X7Y1507D01*
X1270Y1507D02*
X1277Y1507D01*
X0Y1506D02*
X7Y1506D01*
X1270Y1506D02*
X1277Y1506D01*
X0Y1505D02*
X7Y1505D01*
X1270Y1505D02*
X1277Y1505D01*
X0Y1504D02*
X7Y1504D01*
X1270Y1504D02*
X1277Y1504D01*
X0Y1503D02*
X7Y1503D01*
X1270Y1503D02*
X1277Y1503D01*
X0Y1502D02*
X7Y1502D01*
X1270Y1502D02*
X1277Y1502D01*
X0Y1501D02*
X7Y1501D01*
X1270Y1501D02*
X1277Y1501D01*
X0Y1500D02*
X7Y1500D01*
X1270Y1500D02*
X1277Y1500D01*
X0Y1499D02*
X7Y1499D01*
X1270Y1499D02*
X1277Y1499D01*
X0Y1498D02*
X7Y1498D01*
X1008Y1498D02*
X1026Y1498D01*
X1270Y1498D02*
X1277Y1498D01*
X0Y1497D02*
X7Y1497D01*
X1006Y1497D02*
X1028Y1497D01*
X1270Y1497D02*
X1277Y1497D01*
X0Y1496D02*
X7Y1496D01*
X1004Y1496D02*
X1030Y1496D01*
X1270Y1496D02*
X1277Y1496D01*
X0Y1495D02*
X7Y1495D01*
X1004Y1495D02*
X1031Y1495D01*
X1270Y1495D02*
X1277Y1495D01*
X0Y1494D02*
X7Y1494D01*
X1003Y1494D02*
X1031Y1494D01*
X1270Y1494D02*
X1277Y1494D01*
X0Y1493D02*
X7Y1493D01*
X1003Y1493D02*
X1032Y1493D01*
X1270Y1493D02*
X1277Y1493D01*
X0Y1492D02*
X7Y1492D01*
X1002Y1492D02*
X1032Y1492D01*
X1270Y1492D02*
X1277Y1492D01*
X0Y1491D02*
X7Y1491D01*
X982Y1491D02*
X1009Y1491D01*
X1025Y1491D02*
X1032Y1491D01*
X1270Y1491D02*
X1277Y1491D01*
X0Y1490D02*
X7Y1490D01*
X980Y1490D02*
X1008Y1490D01*
X1026Y1490D02*
X1032Y1490D01*
X1270Y1490D02*
X1277Y1490D01*
X0Y1489D02*
X7Y1489D01*
X979Y1489D02*
X1008Y1489D01*
X1026Y1489D02*
X1032Y1489D01*
X1270Y1489D02*
X1277Y1489D01*
X0Y1488D02*
X7Y1488D01*
X979Y1488D02*
X1008Y1488D01*
X1026Y1488D02*
X1032Y1488D01*
X1270Y1488D02*
X1277Y1488D01*
X0Y1487D02*
X7Y1487D01*
X979Y1487D02*
X1008Y1487D01*
X1026Y1487D02*
X1032Y1487D01*
X1270Y1487D02*
X1277Y1487D01*
X0Y1486D02*
X7Y1486D01*
X979Y1486D02*
X1008Y1486D01*
X1026Y1486D02*
X1032Y1486D01*
X1270Y1486D02*
X1277Y1486D01*
X0Y1485D02*
X7Y1485D01*
X979Y1485D02*
X1008Y1485D01*
X1026Y1485D02*
X1032Y1485D01*
X1270Y1485D02*
X1277Y1485D01*
X0Y1484D02*
X7Y1484D01*
X979Y1484D02*
X985Y1484D01*
X1002Y1484D02*
X1008Y1484D01*
X1026Y1484D02*
X1032Y1484D01*
X1270Y1484D02*
X1277Y1484D01*
X0Y1483D02*
X7Y1483D01*
X979Y1483D02*
X985Y1483D01*
X1002Y1483D02*
X1008Y1483D01*
X1026Y1483D02*
X1032Y1483D01*
X1270Y1483D02*
X1277Y1483D01*
X0Y1482D02*
X7Y1482D01*
X979Y1482D02*
X985Y1482D01*
X1002Y1482D02*
X1008Y1482D01*
X1026Y1482D02*
X1032Y1482D01*
X1270Y1482D02*
X1277Y1482D01*
X0Y1481D02*
X7Y1481D01*
X979Y1481D02*
X985Y1481D01*
X1002Y1481D02*
X1008Y1481D01*
X1026Y1481D02*
X1032Y1481D01*
X1270Y1481D02*
X1277Y1481D01*
X0Y1480D02*
X7Y1480D01*
X979Y1480D02*
X985Y1480D01*
X1002Y1480D02*
X1008Y1480D01*
X1026Y1480D02*
X1032Y1480D01*
X1270Y1480D02*
X1277Y1480D01*
X0Y1479D02*
X7Y1479D01*
X979Y1479D02*
X985Y1479D01*
X1002Y1479D02*
X1008Y1479D01*
X1026Y1479D02*
X1032Y1479D01*
X1270Y1479D02*
X1277Y1479D01*
X0Y1478D02*
X7Y1478D01*
X979Y1478D02*
X985Y1478D01*
X1002Y1478D02*
X1008Y1478D01*
X1026Y1478D02*
X1032Y1478D01*
X1270Y1478D02*
X1277Y1478D01*
X0Y1477D02*
X7Y1477D01*
X979Y1477D02*
X1008Y1477D01*
X1026Y1477D02*
X1032Y1477D01*
X1270Y1477D02*
X1277Y1477D01*
X0Y1476D02*
X7Y1476D01*
X979Y1476D02*
X1008Y1476D01*
X1026Y1476D02*
X1032Y1476D01*
X1270Y1476D02*
X1277Y1476D01*
X0Y1475D02*
X7Y1475D01*
X979Y1475D02*
X1008Y1475D01*
X1026Y1475D02*
X1032Y1475D01*
X1270Y1475D02*
X1277Y1475D01*
X0Y1474D02*
X7Y1474D01*
X979Y1474D02*
X1008Y1474D01*
X1026Y1474D02*
X1032Y1474D01*
X1270Y1474D02*
X1277Y1474D01*
X0Y1473D02*
X7Y1473D01*
X979Y1473D02*
X1008Y1473D01*
X1026Y1473D02*
X1032Y1473D01*
X1270Y1473D02*
X1277Y1473D01*
X0Y1472D02*
X7Y1472D01*
X979Y1472D02*
X1008Y1472D01*
X1026Y1472D02*
X1032Y1472D01*
X1270Y1472D02*
X1277Y1472D01*
X0Y1471D02*
X7Y1471D01*
X980Y1471D02*
X1008Y1471D01*
X1026Y1471D02*
X1032Y1471D01*
X1270Y1471D02*
X1277Y1471D01*
X0Y1470D02*
X7Y1470D01*
X1002Y1470D02*
X1032Y1470D01*
X1270Y1470D02*
X1277Y1470D01*
X0Y1469D02*
X7Y1469D01*
X1002Y1469D02*
X1032Y1469D01*
X1270Y1469D02*
X1277Y1469D01*
X0Y1468D02*
X7Y1468D01*
X1003Y1468D02*
X1031Y1468D01*
X1270Y1468D02*
X1277Y1468D01*
X0Y1467D02*
X7Y1467D01*
X1003Y1467D02*
X1031Y1467D01*
X1270Y1467D02*
X1277Y1467D01*
X0Y1466D02*
X7Y1466D01*
X1004Y1466D02*
X1030Y1466D01*
X1270Y1466D02*
X1277Y1466D01*
X0Y1465D02*
X7Y1465D01*
X1005Y1465D02*
X1029Y1465D01*
X1270Y1465D02*
X1277Y1465D01*
X0Y1464D02*
X7Y1464D01*
X1007Y1464D02*
X1027Y1464D01*
X1270Y1464D02*
X1277Y1464D01*
X0Y1463D02*
X7Y1463D01*
X1270Y1463D02*
X1277Y1463D01*
X0Y1462D02*
X7Y1462D01*
X1270Y1462D02*
X1277Y1462D01*
X0Y1461D02*
X7Y1461D01*
X1270Y1461D02*
X1277Y1461D01*
X0Y1460D02*
X7Y1460D01*
X1270Y1460D02*
X1277Y1460D01*
X0Y1459D02*
X7Y1459D01*
X1270Y1459D02*
X1277Y1459D01*
X0Y1458D02*
X7Y1458D01*
X1270Y1458D02*
X1277Y1458D01*
X0Y1457D02*
X7Y1457D01*
X1270Y1457D02*
X1277Y1457D01*
X0Y1456D02*
X7Y1456D01*
X1270Y1456D02*
X1277Y1456D01*
X0Y1455D02*
X7Y1455D01*
X1270Y1455D02*
X1277Y1455D01*
X0Y1454D02*
X7Y1454D01*
X1270Y1454D02*
X1277Y1454D01*
X0Y1453D02*
X7Y1453D01*
X1270Y1453D02*
X1277Y1453D01*
X0Y1452D02*
X7Y1452D01*
X1270Y1452D02*
X1277Y1452D01*
X0Y1451D02*
X7Y1451D01*
X1270Y1451D02*
X1277Y1451D01*
X0Y1450D02*
X7Y1450D01*
X1270Y1450D02*
X1277Y1450D01*
X0Y1449D02*
X7Y1449D01*
X1270Y1449D02*
X1277Y1449D01*
X0Y1448D02*
X7Y1448D01*
X1270Y1448D02*
X1277Y1448D01*
X0Y1447D02*
X7Y1447D01*
X982Y1447D02*
X1005Y1447D01*
X1027Y1447D02*
X1031Y1447D01*
X1270Y1447D02*
X1277Y1447D01*
X0Y1446D02*
X7Y1446D01*
X981Y1446D02*
X1006Y1446D01*
X1026Y1446D02*
X1031Y1446D01*
X1270Y1446D02*
X1277Y1446D01*
X0Y1445D02*
X7Y1445D01*
X980Y1445D02*
X1007Y1445D01*
X1026Y1445D02*
X1032Y1445D01*
X1270Y1445D02*
X1277Y1445D01*
X0Y1444D02*
X7Y1444D01*
X979Y1444D02*
X1007Y1444D01*
X1026Y1444D02*
X1032Y1444D01*
X1270Y1444D02*
X1277Y1444D01*
X0Y1443D02*
X7Y1443D01*
X979Y1443D02*
X1008Y1443D01*
X1026Y1443D02*
X1032Y1443D01*
X1270Y1443D02*
X1277Y1443D01*
X0Y1442D02*
X7Y1442D01*
X979Y1442D02*
X1008Y1442D01*
X1026Y1442D02*
X1032Y1442D01*
X1270Y1442D02*
X1277Y1442D01*
X0Y1441D02*
X7Y1441D01*
X979Y1441D02*
X1008Y1441D01*
X1026Y1441D02*
X1032Y1441D01*
X1270Y1441D02*
X1277Y1441D01*
X0Y1440D02*
X7Y1440D01*
X979Y1440D02*
X985Y1440D01*
X1002Y1440D02*
X1008Y1440D01*
X1026Y1440D02*
X1032Y1440D01*
X1270Y1440D02*
X1277Y1440D01*
X0Y1439D02*
X7Y1439D01*
X979Y1439D02*
X985Y1439D01*
X1002Y1439D02*
X1008Y1439D01*
X1026Y1439D02*
X1032Y1439D01*
X1270Y1439D02*
X1277Y1439D01*
X0Y1438D02*
X7Y1438D01*
X979Y1438D02*
X985Y1438D01*
X1002Y1438D02*
X1008Y1438D01*
X1026Y1438D02*
X1032Y1438D01*
X1270Y1438D02*
X1277Y1438D01*
X0Y1437D02*
X7Y1437D01*
X979Y1437D02*
X985Y1437D01*
X1002Y1437D02*
X1008Y1437D01*
X1026Y1437D02*
X1032Y1437D01*
X1270Y1437D02*
X1277Y1437D01*
X0Y1436D02*
X7Y1436D01*
X979Y1436D02*
X985Y1436D01*
X1002Y1436D02*
X1008Y1436D01*
X1026Y1436D02*
X1032Y1436D01*
X1270Y1436D02*
X1277Y1436D01*
X0Y1435D02*
X7Y1435D01*
X979Y1435D02*
X985Y1435D01*
X1002Y1435D02*
X1008Y1435D01*
X1026Y1435D02*
X1032Y1435D01*
X1270Y1435D02*
X1277Y1435D01*
X0Y1434D02*
X7Y1434D01*
X979Y1434D02*
X985Y1434D01*
X1002Y1434D02*
X1008Y1434D01*
X1026Y1434D02*
X1032Y1434D01*
X1270Y1434D02*
X1277Y1434D01*
X0Y1433D02*
X7Y1433D01*
X979Y1433D02*
X985Y1433D01*
X1002Y1433D02*
X1008Y1433D01*
X1026Y1433D02*
X1032Y1433D01*
X1270Y1433D02*
X1277Y1433D01*
X0Y1432D02*
X7Y1432D01*
X979Y1432D02*
X985Y1432D01*
X1002Y1432D02*
X1008Y1432D01*
X1026Y1432D02*
X1032Y1432D01*
X1270Y1432D02*
X1277Y1432D01*
X0Y1431D02*
X7Y1431D01*
X979Y1431D02*
X985Y1431D01*
X1002Y1431D02*
X1008Y1431D01*
X1026Y1431D02*
X1032Y1431D01*
X1270Y1431D02*
X1277Y1431D01*
X0Y1430D02*
X7Y1430D01*
X979Y1430D02*
X985Y1430D01*
X1002Y1430D02*
X1008Y1430D01*
X1026Y1430D02*
X1032Y1430D01*
X1270Y1430D02*
X1277Y1430D01*
X0Y1429D02*
X7Y1429D01*
X979Y1429D02*
X985Y1429D01*
X1002Y1429D02*
X1008Y1429D01*
X1026Y1429D02*
X1032Y1429D01*
X1270Y1429D02*
X1277Y1429D01*
X0Y1428D02*
X7Y1428D01*
X979Y1428D02*
X985Y1428D01*
X1002Y1428D02*
X1008Y1428D01*
X1026Y1428D02*
X1032Y1428D01*
X1270Y1428D02*
X1277Y1428D01*
X0Y1427D02*
X7Y1427D01*
X979Y1427D02*
X985Y1427D01*
X1002Y1427D02*
X1008Y1427D01*
X1026Y1427D02*
X1032Y1427D01*
X1270Y1427D02*
X1277Y1427D01*
X0Y1426D02*
X7Y1426D01*
X979Y1426D02*
X985Y1426D01*
X1002Y1426D02*
X1008Y1426D01*
X1026Y1426D02*
X1032Y1426D01*
X1270Y1426D02*
X1277Y1426D01*
X0Y1425D02*
X7Y1425D01*
X979Y1425D02*
X985Y1425D01*
X1002Y1425D02*
X1008Y1425D01*
X1026Y1425D02*
X1032Y1425D01*
X1270Y1425D02*
X1277Y1425D01*
X0Y1424D02*
X7Y1424D01*
X979Y1424D02*
X985Y1424D01*
X1002Y1424D02*
X1008Y1424D01*
X1026Y1424D02*
X1032Y1424D01*
X1270Y1424D02*
X1277Y1424D01*
X0Y1423D02*
X7Y1423D01*
X979Y1423D02*
X985Y1423D01*
X1002Y1423D02*
X1008Y1423D01*
X1026Y1423D02*
X1032Y1423D01*
X1270Y1423D02*
X1277Y1423D01*
X0Y1422D02*
X7Y1422D01*
X979Y1422D02*
X985Y1422D01*
X1002Y1422D02*
X1008Y1422D01*
X1026Y1422D02*
X1032Y1422D01*
X1270Y1422D02*
X1277Y1422D01*
X0Y1421D02*
X7Y1421D01*
X979Y1421D02*
X985Y1421D01*
X1002Y1421D02*
X1008Y1421D01*
X1026Y1421D02*
X1032Y1421D01*
X1270Y1421D02*
X1277Y1421D01*
X0Y1420D02*
X7Y1420D01*
X979Y1420D02*
X985Y1420D01*
X1002Y1420D02*
X1032Y1420D01*
X1270Y1420D02*
X1277Y1420D01*
X0Y1419D02*
X7Y1419D01*
X979Y1419D02*
X985Y1419D01*
X1002Y1419D02*
X1032Y1419D01*
X1270Y1419D02*
X1277Y1419D01*
X0Y1418D02*
X7Y1418D01*
X979Y1418D02*
X985Y1418D01*
X1003Y1418D02*
X1032Y1418D01*
X1270Y1418D02*
X1277Y1418D01*
X0Y1417D02*
X7Y1417D01*
X979Y1417D02*
X985Y1417D01*
X1003Y1417D02*
X1032Y1417D01*
X1270Y1417D02*
X1277Y1417D01*
X0Y1416D02*
X7Y1416D01*
X979Y1416D02*
X985Y1416D01*
X1004Y1416D02*
X1032Y1416D01*
X1270Y1416D02*
X1277Y1416D01*
X0Y1415D02*
X7Y1415D01*
X979Y1415D02*
X984Y1415D01*
X1005Y1415D02*
X1032Y1415D01*
X1270Y1415D02*
X1277Y1415D01*
X0Y1414D02*
X7Y1414D01*
X980Y1414D02*
X983Y1414D01*
X1006Y1414D02*
X1032Y1414D01*
X1270Y1414D02*
X1277Y1414D01*
X0Y1413D02*
X7Y1413D01*
X1270Y1413D02*
X1277Y1413D01*
X0Y1412D02*
X7Y1412D01*
X1270Y1412D02*
X1277Y1412D01*
X0Y1411D02*
X7Y1411D01*
X1270Y1411D02*
X1277Y1411D01*
X0Y1410D02*
X7Y1410D01*
X1270Y1410D02*
X1277Y1410D01*
X0Y1409D02*
X7Y1409D01*
X1270Y1409D02*
X1277Y1409D01*
X0Y1408D02*
X7Y1408D01*
X1270Y1408D02*
X1277Y1408D01*
X0Y1407D02*
X7Y1407D01*
X1270Y1407D02*
X1277Y1407D01*
X0Y1406D02*
X7Y1406D01*
X1270Y1406D02*
X1277Y1406D01*
X0Y1405D02*
X7Y1405D01*
X1270Y1405D02*
X1277Y1405D01*
X0Y1404D02*
X7Y1404D01*
X1270Y1404D02*
X1277Y1404D01*
X0Y1403D02*
X7Y1403D01*
X1270Y1403D02*
X1277Y1403D01*
X0Y1402D02*
X7Y1402D01*
X1270Y1402D02*
X1277Y1402D01*
X0Y1401D02*
X7Y1401D01*
X1270Y1401D02*
X1277Y1401D01*
X0Y1400D02*
X7Y1400D01*
X1270Y1400D02*
X1277Y1400D01*
X0Y1399D02*
X7Y1399D01*
X1270Y1399D02*
X1277Y1399D01*
X0Y1398D02*
X7Y1398D01*
X1270Y1398D02*
X1277Y1398D01*
X0Y1397D02*
X7Y1397D01*
X983Y1397D02*
X1001Y1397D01*
X1009Y1397D02*
X1028Y1397D01*
X1270Y1397D02*
X1277Y1397D01*
X0Y1396D02*
X7Y1396D01*
X981Y1396D02*
X1003Y1396D01*
X1007Y1396D02*
X1029Y1396D01*
X1270Y1396D02*
X1277Y1396D01*
X0Y1395D02*
X7Y1395D01*
X980Y1395D02*
X1030Y1395D01*
X1270Y1395D02*
X1277Y1395D01*
X0Y1394D02*
X7Y1394D01*
X980Y1394D02*
X1031Y1394D01*
X1270Y1394D02*
X1277Y1394D01*
X0Y1393D02*
X7Y1393D01*
X979Y1393D02*
X1031Y1393D01*
X1270Y1393D02*
X1277Y1393D01*
X0Y1392D02*
X7Y1392D01*
X979Y1392D02*
X1032Y1392D01*
X1270Y1392D02*
X1277Y1392D01*
X0Y1391D02*
X7Y1391D01*
X979Y1391D02*
X1032Y1391D01*
X1270Y1391D02*
X1277Y1391D01*
X0Y1390D02*
X7Y1390D01*
X979Y1390D02*
X985Y1390D01*
X1001Y1390D02*
X1010Y1390D01*
X1026Y1390D02*
X1032Y1390D01*
X1270Y1390D02*
X1277Y1390D01*
X0Y1389D02*
X7Y1389D01*
X979Y1389D02*
X985Y1389D01*
X1002Y1389D02*
X1009Y1389D01*
X1026Y1389D02*
X1032Y1389D01*
X1270Y1389D02*
X1277Y1389D01*
X0Y1388D02*
X7Y1388D01*
X979Y1388D02*
X985Y1388D01*
X1002Y1388D02*
X1008Y1388D01*
X1026Y1388D02*
X1032Y1388D01*
X1270Y1388D02*
X1277Y1388D01*
X0Y1387D02*
X7Y1387D01*
X979Y1387D02*
X985Y1387D01*
X1002Y1387D02*
X1008Y1387D01*
X1026Y1387D02*
X1032Y1387D01*
X1270Y1387D02*
X1277Y1387D01*
X0Y1386D02*
X7Y1386D01*
X979Y1386D02*
X985Y1386D01*
X1002Y1386D02*
X1008Y1386D01*
X1026Y1386D02*
X1032Y1386D01*
X1270Y1386D02*
X1277Y1386D01*
X0Y1385D02*
X7Y1385D01*
X979Y1385D02*
X985Y1385D01*
X1002Y1385D02*
X1008Y1385D01*
X1026Y1385D02*
X1032Y1385D01*
X1270Y1385D02*
X1277Y1385D01*
X0Y1384D02*
X7Y1384D01*
X979Y1384D02*
X985Y1384D01*
X1002Y1384D02*
X1008Y1384D01*
X1026Y1384D02*
X1032Y1384D01*
X1270Y1384D02*
X1277Y1384D01*
X0Y1383D02*
X7Y1383D01*
X979Y1383D02*
X985Y1383D01*
X1002Y1383D02*
X1008Y1383D01*
X1026Y1383D02*
X1032Y1383D01*
X1270Y1383D02*
X1277Y1383D01*
X0Y1382D02*
X7Y1382D01*
X979Y1382D02*
X985Y1382D01*
X1002Y1382D02*
X1008Y1382D01*
X1026Y1382D02*
X1032Y1382D01*
X1270Y1382D02*
X1277Y1382D01*
X0Y1381D02*
X7Y1381D01*
X979Y1381D02*
X985Y1381D01*
X1002Y1381D02*
X1008Y1381D01*
X1026Y1381D02*
X1032Y1381D01*
X1270Y1381D02*
X1277Y1381D01*
X0Y1380D02*
X7Y1380D01*
X979Y1380D02*
X985Y1380D01*
X1002Y1380D02*
X1008Y1380D01*
X1026Y1380D02*
X1032Y1380D01*
X1270Y1380D02*
X1277Y1380D01*
X0Y1379D02*
X7Y1379D01*
X979Y1379D02*
X985Y1379D01*
X1002Y1379D02*
X1008Y1379D01*
X1026Y1379D02*
X1032Y1379D01*
X1270Y1379D02*
X1277Y1379D01*
X0Y1378D02*
X7Y1378D01*
X979Y1378D02*
X985Y1378D01*
X1002Y1378D02*
X1008Y1378D01*
X1026Y1378D02*
X1032Y1378D01*
X1270Y1378D02*
X1277Y1378D01*
X0Y1377D02*
X7Y1377D01*
X979Y1377D02*
X985Y1377D01*
X1002Y1377D02*
X1008Y1377D01*
X1026Y1377D02*
X1032Y1377D01*
X1270Y1377D02*
X1277Y1377D01*
X0Y1376D02*
X7Y1376D01*
X979Y1376D02*
X985Y1376D01*
X1002Y1376D02*
X1008Y1376D01*
X1026Y1376D02*
X1032Y1376D01*
X1270Y1376D02*
X1277Y1376D01*
X0Y1375D02*
X7Y1375D01*
X979Y1375D02*
X985Y1375D01*
X1002Y1375D02*
X1008Y1375D01*
X1026Y1375D02*
X1032Y1375D01*
X1270Y1375D02*
X1277Y1375D01*
X0Y1374D02*
X7Y1374D01*
X979Y1374D02*
X985Y1374D01*
X1002Y1374D02*
X1008Y1374D01*
X1026Y1374D02*
X1032Y1374D01*
X1270Y1374D02*
X1277Y1374D01*
X0Y1373D02*
X7Y1373D01*
X979Y1373D02*
X985Y1373D01*
X1002Y1373D02*
X1008Y1373D01*
X1026Y1373D02*
X1032Y1373D01*
X1270Y1373D02*
X1277Y1373D01*
X0Y1372D02*
X7Y1372D01*
X979Y1372D02*
X985Y1372D01*
X1003Y1372D02*
X1008Y1372D01*
X1026Y1372D02*
X1032Y1372D01*
X1270Y1372D02*
X1277Y1372D01*
X0Y1371D02*
X7Y1371D01*
X979Y1371D02*
X985Y1371D01*
X1003Y1371D02*
X1007Y1371D01*
X1026Y1371D02*
X1032Y1371D01*
X1270Y1371D02*
X1277Y1371D01*
X0Y1370D02*
X7Y1370D01*
X979Y1370D02*
X985Y1370D01*
X1026Y1370D02*
X1032Y1370D01*
X1270Y1370D02*
X1277Y1370D01*
X0Y1369D02*
X7Y1369D01*
X979Y1369D02*
X985Y1369D01*
X1026Y1369D02*
X1032Y1369D01*
X1270Y1369D02*
X1277Y1369D01*
X0Y1368D02*
X7Y1368D01*
X979Y1368D02*
X985Y1368D01*
X1026Y1368D02*
X1032Y1368D01*
X1270Y1368D02*
X1277Y1368D01*
X0Y1367D02*
X7Y1367D01*
X979Y1367D02*
X985Y1367D01*
X1026Y1367D02*
X1032Y1367D01*
X1270Y1367D02*
X1277Y1367D01*
X0Y1366D02*
X7Y1366D01*
X979Y1366D02*
X985Y1366D01*
X1026Y1366D02*
X1032Y1366D01*
X1270Y1366D02*
X1277Y1366D01*
X0Y1365D02*
X7Y1365D01*
X979Y1365D02*
X984Y1365D01*
X1026Y1365D02*
X1031Y1365D01*
X1270Y1365D02*
X1277Y1365D01*
X0Y1364D02*
X7Y1364D01*
X980Y1364D02*
X983Y1364D01*
X1027Y1364D02*
X1031Y1364D01*
X1270Y1364D02*
X1277Y1364D01*
X0Y1363D02*
X7Y1363D01*
X1270Y1363D02*
X1277Y1363D01*
X0Y1362D02*
X7Y1362D01*
X1270Y1362D02*
X1277Y1362D01*
X0Y1361D02*
X7Y1361D01*
X1270Y1361D02*
X1277Y1361D01*
X0Y1360D02*
X7Y1360D01*
X1270Y1360D02*
X1277Y1360D01*
X0Y1359D02*
X7Y1359D01*
X1270Y1359D02*
X1277Y1359D01*
X0Y1358D02*
X7Y1358D01*
X1270Y1358D02*
X1277Y1358D01*
X0Y1357D02*
X7Y1357D01*
X1270Y1357D02*
X1277Y1357D01*
X0Y1356D02*
X7Y1356D01*
X1270Y1356D02*
X1277Y1356D01*
X0Y1355D02*
X7Y1355D01*
X1270Y1355D02*
X1277Y1355D01*
X0Y1354D02*
X7Y1354D01*
X1270Y1354D02*
X1277Y1354D01*
X0Y1353D02*
X7Y1353D01*
X1270Y1353D02*
X1277Y1353D01*
X0Y1352D02*
X7Y1352D01*
X1270Y1352D02*
X1277Y1352D01*
X0Y1351D02*
X7Y1351D01*
X1270Y1351D02*
X1277Y1351D01*
X0Y1350D02*
X7Y1350D01*
X1270Y1350D02*
X1277Y1350D01*
X0Y1349D02*
X7Y1349D01*
X1270Y1349D02*
X1277Y1349D01*
X0Y1348D02*
X7Y1348D01*
X1270Y1348D02*
X1277Y1348D01*
X0Y1347D02*
X7Y1347D01*
X1027Y1347D02*
X1030Y1347D01*
X1270Y1347D02*
X1277Y1347D01*
X0Y1346D02*
X7Y1346D01*
X1024Y1346D02*
X1031Y1346D01*
X1270Y1346D02*
X1277Y1346D01*
X0Y1345D02*
X7Y1345D01*
X1020Y1345D02*
X1032Y1345D01*
X1270Y1345D02*
X1277Y1345D01*
X0Y1344D02*
X7Y1344D01*
X1017Y1344D02*
X1032Y1344D01*
X1270Y1344D02*
X1277Y1344D01*
X0Y1343D02*
X7Y1343D01*
X1014Y1343D02*
X1032Y1343D01*
X1270Y1343D02*
X1277Y1343D01*
X0Y1342D02*
X7Y1342D01*
X1010Y1342D02*
X1031Y1342D01*
X1270Y1342D02*
X1277Y1342D01*
X0Y1341D02*
X7Y1341D01*
X1007Y1341D02*
X1030Y1341D01*
X1270Y1341D02*
X1277Y1341D01*
X0Y1340D02*
X7Y1340D01*
X1003Y1340D02*
X1027Y1340D01*
X1270Y1340D02*
X1277Y1340D01*
X0Y1339D02*
X7Y1339D01*
X1000Y1339D02*
X1024Y1339D01*
X1270Y1339D02*
X1277Y1339D01*
X0Y1338D02*
X7Y1338D01*
X996Y1338D02*
X1020Y1338D01*
X1270Y1338D02*
X1277Y1338D01*
X0Y1337D02*
X7Y1337D01*
X993Y1337D02*
X1020Y1337D01*
X1270Y1337D02*
X1277Y1337D01*
X0Y1336D02*
X7Y1336D01*
X990Y1336D02*
X1020Y1336D01*
X1270Y1336D02*
X1277Y1336D01*
X0Y1335D02*
X7Y1335D01*
X986Y1335D02*
X1010Y1335D01*
X1014Y1335D02*
X1020Y1335D01*
X1270Y1335D02*
X1277Y1335D01*
X0Y1334D02*
X7Y1334D01*
X983Y1334D02*
X1007Y1334D01*
X1014Y1334D02*
X1020Y1334D01*
X1270Y1334D02*
X1277Y1334D01*
X0Y1333D02*
X7Y1333D01*
X980Y1333D02*
X1003Y1333D01*
X1014Y1333D02*
X1020Y1333D01*
X1270Y1333D02*
X1277Y1333D01*
X0Y1332D02*
X7Y1332D01*
X979Y1332D02*
X1000Y1332D01*
X1014Y1332D02*
X1020Y1332D01*
X1270Y1332D02*
X1277Y1332D01*
X0Y1331D02*
X7Y1331D01*
X979Y1331D02*
X997Y1331D01*
X1014Y1331D02*
X1020Y1331D01*
X1270Y1331D02*
X1277Y1331D01*
X0Y1330D02*
X7Y1330D01*
X979Y1330D02*
X995Y1330D01*
X1014Y1330D02*
X1020Y1330D01*
X1270Y1330D02*
X1277Y1330D01*
X0Y1329D02*
X7Y1329D01*
X979Y1329D02*
X998Y1329D01*
X1014Y1329D02*
X1020Y1329D01*
X1270Y1329D02*
X1277Y1329D01*
X0Y1328D02*
X7Y1328D01*
X979Y1328D02*
X1001Y1328D01*
X1014Y1328D02*
X1020Y1328D01*
X1270Y1328D02*
X1277Y1328D01*
X0Y1327D02*
X7Y1327D01*
X981Y1327D02*
X1004Y1327D01*
X1014Y1327D02*
X1020Y1327D01*
X1270Y1327D02*
X1277Y1327D01*
X0Y1326D02*
X7Y1326D01*
X984Y1326D02*
X1008Y1326D01*
X1014Y1326D02*
X1020Y1326D01*
X1270Y1326D02*
X1277Y1326D01*
X0Y1325D02*
X7Y1325D01*
X987Y1325D02*
X1011Y1325D01*
X1014Y1325D02*
X1020Y1325D01*
X1270Y1325D02*
X1277Y1325D01*
X0Y1324D02*
X7Y1324D01*
X991Y1324D02*
X1020Y1324D01*
X1270Y1324D02*
X1277Y1324D01*
X0Y1323D02*
X7Y1323D01*
X994Y1323D02*
X1020Y1323D01*
X1270Y1323D02*
X1277Y1323D01*
X0Y1322D02*
X7Y1322D01*
X998Y1322D02*
X1021Y1322D01*
X1270Y1322D02*
X1277Y1322D01*
X0Y1321D02*
X7Y1321D01*
X1001Y1321D02*
X1025Y1321D01*
X1270Y1321D02*
X1277Y1321D01*
X0Y1320D02*
X7Y1320D01*
X1004Y1320D02*
X1028Y1320D01*
X1270Y1320D02*
X1277Y1320D01*
X0Y1319D02*
X7Y1319D01*
X1008Y1319D02*
X1031Y1319D01*
X1270Y1319D02*
X1277Y1319D01*
X0Y1318D02*
X7Y1318D01*
X1011Y1318D02*
X1031Y1318D01*
X1270Y1318D02*
X1277Y1318D01*
X0Y1317D02*
X7Y1317D01*
X1015Y1317D02*
X1032Y1317D01*
X1270Y1317D02*
X1277Y1317D01*
X0Y1316D02*
X7Y1316D01*
X1018Y1316D02*
X1032Y1316D01*
X1270Y1316D02*
X1277Y1316D01*
X0Y1315D02*
X7Y1315D01*
X1021Y1315D02*
X1032Y1315D01*
X1270Y1315D02*
X1277Y1315D01*
X0Y1314D02*
X7Y1314D01*
X1025Y1314D02*
X1031Y1314D01*
X1270Y1314D02*
X1277Y1314D01*
X0Y1313D02*
X7Y1313D01*
X1028Y1313D02*
X1030Y1313D01*
X1270Y1313D02*
X1277Y1313D01*
X0Y1312D02*
X7Y1312D01*
X1270Y1312D02*
X1277Y1312D01*
X0Y1311D02*
X7Y1311D01*
X1270Y1311D02*
X1277Y1311D01*
X0Y1310D02*
X7Y1310D01*
X1270Y1310D02*
X1277Y1310D01*
X0Y1309D02*
X7Y1309D01*
X1270Y1309D02*
X1277Y1309D01*
X0Y1308D02*
X7Y1308D01*
X1270Y1308D02*
X1277Y1308D01*
X0Y1307D02*
X7Y1307D01*
X1270Y1307D02*
X1277Y1307D01*
X0Y1306D02*
X7Y1306D01*
X1270Y1306D02*
X1277Y1306D01*
X0Y1305D02*
X7Y1305D01*
X1270Y1305D02*
X1277Y1305D01*
X0Y1304D02*
X7Y1304D01*
X1270Y1304D02*
X1277Y1304D01*
X0Y1303D02*
X7Y1303D01*
X1270Y1303D02*
X1277Y1303D01*
X0Y1302D02*
X7Y1302D01*
X1270Y1302D02*
X1277Y1302D01*
X0Y1301D02*
X7Y1301D01*
X1270Y1301D02*
X1277Y1301D01*
X0Y1300D02*
X7Y1300D01*
X1270Y1300D02*
X1277Y1300D01*
X0Y1299D02*
X7Y1299D01*
X1270Y1299D02*
X1277Y1299D01*
X0Y1298D02*
X7Y1298D01*
X1270Y1298D02*
X1277Y1298D01*
X0Y1297D02*
X7Y1297D01*
X981Y1297D02*
X982Y1297D01*
X1008Y1297D02*
X1024Y1297D01*
X1270Y1297D02*
X1277Y1297D01*
X0Y1296D02*
X7Y1296D01*
X980Y1296D02*
X984Y1296D01*
X1008Y1296D02*
X1026Y1296D01*
X1270Y1296D02*
X1277Y1296D01*
X0Y1295D02*
X7Y1295D01*
X979Y1295D02*
X984Y1295D01*
X1008Y1295D02*
X1028Y1295D01*
X1270Y1295D02*
X1277Y1295D01*
X0Y1294D02*
X7Y1294D01*
X979Y1294D02*
X985Y1294D01*
X1008Y1294D02*
X1029Y1294D01*
X1270Y1294D02*
X1277Y1294D01*
X0Y1293D02*
X7Y1293D01*
X979Y1293D02*
X985Y1293D01*
X1008Y1293D02*
X1030Y1293D01*
X1270Y1293D02*
X1277Y1293D01*
X0Y1292D02*
X7Y1292D01*
X979Y1292D02*
X985Y1292D01*
X1008Y1292D02*
X1030Y1292D01*
X1270Y1292D02*
X1277Y1292D01*
X0Y1291D02*
X7Y1291D01*
X979Y1291D02*
X985Y1291D01*
X1008Y1291D02*
X1031Y1291D01*
X1270Y1291D02*
X1277Y1291D01*
X0Y1290D02*
X7Y1290D01*
X979Y1290D02*
X985Y1290D01*
X1008Y1290D02*
X1014Y1290D01*
X1024Y1290D02*
X1031Y1290D01*
X1270Y1290D02*
X1277Y1290D01*
X0Y1289D02*
X7Y1289D01*
X979Y1289D02*
X985Y1289D01*
X1008Y1289D02*
X1014Y1289D01*
X1025Y1289D02*
X1032Y1289D01*
X1270Y1289D02*
X1277Y1289D01*
X0Y1288D02*
X7Y1288D01*
X979Y1288D02*
X985Y1288D01*
X1008Y1288D02*
X1014Y1288D01*
X1026Y1288D02*
X1032Y1288D01*
X1270Y1288D02*
X1277Y1288D01*
X0Y1287D02*
X7Y1287D01*
X979Y1287D02*
X985Y1287D01*
X1008Y1287D02*
X1014Y1287D01*
X1026Y1287D02*
X1032Y1287D01*
X1270Y1287D02*
X1277Y1287D01*
X0Y1286D02*
X7Y1286D01*
X979Y1286D02*
X985Y1286D01*
X1008Y1286D02*
X1014Y1286D01*
X1026Y1286D02*
X1032Y1286D01*
X1270Y1286D02*
X1277Y1286D01*
X0Y1285D02*
X7Y1285D01*
X979Y1285D02*
X985Y1285D01*
X1008Y1285D02*
X1014Y1285D01*
X1026Y1285D02*
X1032Y1285D01*
X1270Y1285D02*
X1277Y1285D01*
X0Y1284D02*
X7Y1284D01*
X979Y1284D02*
X985Y1284D01*
X1008Y1284D02*
X1014Y1284D01*
X1026Y1284D02*
X1032Y1284D01*
X1270Y1284D02*
X1277Y1284D01*
X0Y1283D02*
X7Y1283D01*
X979Y1283D02*
X985Y1283D01*
X1008Y1283D02*
X1014Y1283D01*
X1026Y1283D02*
X1032Y1283D01*
X1270Y1283D02*
X1277Y1283D01*
X0Y1282D02*
X7Y1282D01*
X979Y1282D02*
X985Y1282D01*
X1008Y1282D02*
X1014Y1282D01*
X1026Y1282D02*
X1032Y1282D01*
X1270Y1282D02*
X1277Y1282D01*
X0Y1281D02*
X7Y1281D01*
X979Y1281D02*
X986Y1281D01*
X1009Y1281D02*
X1013Y1281D01*
X1026Y1281D02*
X1032Y1281D01*
X1270Y1281D02*
X1277Y1281D01*
X0Y1280D02*
X7Y1280D01*
X979Y1280D02*
X987Y1280D01*
X1011Y1280D02*
X1011Y1280D01*
X1026Y1280D02*
X1032Y1280D01*
X1270Y1280D02*
X1277Y1280D01*
X0Y1279D02*
X7Y1279D01*
X980Y1279D02*
X988Y1279D01*
X1026Y1279D02*
X1032Y1279D01*
X1270Y1279D02*
X1277Y1279D01*
X0Y1278D02*
X7Y1278D01*
X980Y1278D02*
X989Y1278D01*
X1026Y1278D02*
X1032Y1278D01*
X1270Y1278D02*
X1277Y1278D01*
X0Y1277D02*
X7Y1277D01*
X981Y1277D02*
X991Y1277D01*
X1026Y1277D02*
X1032Y1277D01*
X1270Y1277D02*
X1277Y1277D01*
X0Y1276D02*
X7Y1276D01*
X982Y1276D02*
X992Y1276D01*
X1026Y1276D02*
X1032Y1276D01*
X1270Y1276D02*
X1277Y1276D01*
X0Y1275D02*
X7Y1275D01*
X983Y1275D02*
X993Y1275D01*
X1026Y1275D02*
X1032Y1275D01*
X1270Y1275D02*
X1277Y1275D01*
X0Y1274D02*
X7Y1274D01*
X984Y1274D02*
X995Y1274D01*
X1026Y1274D02*
X1032Y1274D01*
X1270Y1274D02*
X1277Y1274D01*
X0Y1273D02*
X7Y1273D01*
X985Y1273D02*
X996Y1273D01*
X1026Y1273D02*
X1032Y1273D01*
X1270Y1273D02*
X1277Y1273D01*
X0Y1272D02*
X7Y1272D01*
X987Y1272D02*
X997Y1272D01*
X1026Y1272D02*
X1032Y1272D01*
X1270Y1272D02*
X1277Y1272D01*
X0Y1271D02*
X7Y1271D01*
X988Y1271D02*
X999Y1271D01*
X1025Y1271D02*
X1032Y1271D01*
X1270Y1271D02*
X1277Y1271D01*
X0Y1270D02*
X7Y1270D01*
X989Y1270D02*
X1001Y1270D01*
X1024Y1270D02*
X1031Y1270D01*
X1270Y1270D02*
X1277Y1270D01*
X0Y1269D02*
X7Y1269D01*
X991Y1269D02*
X1031Y1269D01*
X1270Y1269D02*
X1277Y1269D01*
X0Y1268D02*
X7Y1268D01*
X992Y1268D02*
X1030Y1268D01*
X1270Y1268D02*
X1277Y1268D01*
X0Y1267D02*
X7Y1267D01*
X993Y1267D02*
X1030Y1267D01*
X1270Y1267D02*
X1277Y1267D01*
X0Y1266D02*
X7Y1266D01*
X994Y1266D02*
X1029Y1266D01*
X1270Y1266D02*
X1277Y1266D01*
X0Y1265D02*
X7Y1265D01*
X996Y1265D02*
X1028Y1265D01*
X1270Y1265D02*
X1277Y1265D01*
X0Y1264D02*
X7Y1264D01*
X998Y1264D02*
X1026Y1264D01*
X1270Y1264D02*
X1277Y1264D01*
X0Y1263D02*
X7Y1263D01*
X1001Y1263D02*
X1024Y1263D01*
X1270Y1263D02*
X1277Y1263D01*
X0Y1262D02*
X7Y1262D01*
X1270Y1262D02*
X1277Y1262D01*
X0Y1261D02*
X7Y1261D01*
X1270Y1261D02*
X1277Y1261D01*
X0Y1260D02*
X7Y1260D01*
X1270Y1260D02*
X1277Y1260D01*
X0Y1259D02*
X7Y1259D01*
X1270Y1259D02*
X1277Y1259D01*
X0Y1258D02*
X7Y1258D01*
X1270Y1258D02*
X1277Y1258D01*
X0Y1257D02*
X7Y1257D01*
X1270Y1257D02*
X1277Y1257D01*
X0Y1256D02*
X7Y1256D01*
X1270Y1256D02*
X1277Y1256D01*
X0Y1255D02*
X7Y1255D01*
X1270Y1255D02*
X1277Y1255D01*
X0Y1254D02*
X7Y1254D01*
X1270Y1254D02*
X1277Y1254D01*
X0Y1253D02*
X7Y1253D01*
X1270Y1253D02*
X1277Y1253D01*
X0Y1252D02*
X7Y1252D01*
X1270Y1252D02*
X1277Y1252D01*
X0Y1251D02*
X7Y1251D01*
X1270Y1251D02*
X1277Y1251D01*
X0Y1250D02*
X7Y1250D01*
X1270Y1250D02*
X1277Y1250D01*
X0Y1249D02*
X7Y1249D01*
X1270Y1249D02*
X1277Y1249D01*
X0Y1248D02*
X7Y1248D01*
X1270Y1248D02*
X1277Y1248D01*
X0Y1247D02*
X7Y1247D01*
X982Y1247D02*
X982Y1247D01*
X1029Y1247D02*
X1029Y1247D01*
X1270Y1247D02*
X1277Y1247D01*
X0Y1246D02*
X7Y1246D01*
X980Y1246D02*
X984Y1246D01*
X1027Y1246D02*
X1031Y1246D01*
X1270Y1246D02*
X1277Y1246D01*
X0Y1245D02*
X7Y1245D01*
X979Y1245D02*
X984Y1245D01*
X1026Y1245D02*
X1031Y1245D01*
X1270Y1245D02*
X1277Y1245D01*
X0Y1244D02*
X7Y1244D01*
X979Y1244D02*
X985Y1244D01*
X1026Y1244D02*
X1032Y1244D01*
X1270Y1244D02*
X1277Y1244D01*
X0Y1243D02*
X7Y1243D01*
X979Y1243D02*
X985Y1243D01*
X1026Y1243D02*
X1032Y1243D01*
X1270Y1243D02*
X1277Y1243D01*
X0Y1242D02*
X7Y1242D01*
X979Y1242D02*
X985Y1242D01*
X1026Y1242D02*
X1032Y1242D01*
X1270Y1242D02*
X1277Y1242D01*
X0Y1241D02*
X7Y1241D01*
X979Y1241D02*
X985Y1241D01*
X1026Y1241D02*
X1032Y1241D01*
X1270Y1241D02*
X1277Y1241D01*
X0Y1240D02*
X7Y1240D01*
X979Y1240D02*
X985Y1240D01*
X1026Y1240D02*
X1032Y1240D01*
X1270Y1240D02*
X1277Y1240D01*
X0Y1239D02*
X7Y1239D01*
X979Y1239D02*
X985Y1239D01*
X1026Y1239D02*
X1032Y1239D01*
X1270Y1239D02*
X1277Y1239D01*
X0Y1238D02*
X7Y1238D01*
X979Y1238D02*
X985Y1238D01*
X1026Y1238D02*
X1032Y1238D01*
X1270Y1238D02*
X1277Y1238D01*
X0Y1237D02*
X7Y1237D01*
X979Y1237D02*
X985Y1237D01*
X1026Y1237D02*
X1032Y1237D01*
X1270Y1237D02*
X1277Y1237D01*
X0Y1236D02*
X7Y1236D01*
X979Y1236D02*
X985Y1236D01*
X1026Y1236D02*
X1032Y1236D01*
X1270Y1236D02*
X1277Y1236D01*
X0Y1235D02*
X7Y1235D01*
X979Y1235D02*
X985Y1235D01*
X1026Y1235D02*
X1032Y1235D01*
X1270Y1235D02*
X1277Y1235D01*
X0Y1234D02*
X7Y1234D01*
X979Y1234D02*
X985Y1234D01*
X1026Y1234D02*
X1032Y1234D01*
X1270Y1234D02*
X1277Y1234D01*
X0Y1233D02*
X7Y1233D01*
X979Y1233D02*
X985Y1233D01*
X1005Y1233D02*
X1006Y1233D01*
X1026Y1233D02*
X1032Y1233D01*
X1270Y1233D02*
X1277Y1233D01*
X0Y1232D02*
X7Y1232D01*
X979Y1232D02*
X985Y1232D01*
X1003Y1232D02*
X1007Y1232D01*
X1026Y1232D02*
X1032Y1232D01*
X1270Y1232D02*
X1277Y1232D01*
X0Y1231D02*
X7Y1231D01*
X979Y1231D02*
X985Y1231D01*
X1002Y1231D02*
X1008Y1231D01*
X1026Y1231D02*
X1032Y1231D01*
X1270Y1231D02*
X1277Y1231D01*
X0Y1230D02*
X7Y1230D01*
X979Y1230D02*
X985Y1230D01*
X1002Y1230D02*
X1008Y1230D01*
X1026Y1230D02*
X1032Y1230D01*
X1270Y1230D02*
X1277Y1230D01*
X0Y1229D02*
X7Y1229D01*
X979Y1229D02*
X985Y1229D01*
X1002Y1229D02*
X1008Y1229D01*
X1026Y1229D02*
X1032Y1229D01*
X1270Y1229D02*
X1277Y1229D01*
X0Y1228D02*
X7Y1228D01*
X979Y1228D02*
X985Y1228D01*
X1002Y1228D02*
X1008Y1228D01*
X1026Y1228D02*
X1032Y1228D01*
X1270Y1228D02*
X1277Y1228D01*
X0Y1227D02*
X7Y1227D01*
X979Y1227D02*
X985Y1227D01*
X1002Y1227D02*
X1008Y1227D01*
X1026Y1227D02*
X1032Y1227D01*
X1270Y1227D02*
X1277Y1227D01*
X0Y1226D02*
X7Y1226D01*
X979Y1226D02*
X985Y1226D01*
X1002Y1226D02*
X1008Y1226D01*
X1026Y1226D02*
X1032Y1226D01*
X1270Y1226D02*
X1277Y1226D01*
X0Y1225D02*
X7Y1225D01*
X979Y1225D02*
X985Y1225D01*
X1002Y1225D02*
X1008Y1225D01*
X1026Y1225D02*
X1032Y1225D01*
X1270Y1225D02*
X1277Y1225D01*
X0Y1224D02*
X7Y1224D01*
X979Y1224D02*
X985Y1224D01*
X1002Y1224D02*
X1008Y1224D01*
X1026Y1224D02*
X1032Y1224D01*
X1270Y1224D02*
X1277Y1224D01*
X0Y1223D02*
X7Y1223D01*
X979Y1223D02*
X985Y1223D01*
X1002Y1223D02*
X1008Y1223D01*
X1026Y1223D02*
X1032Y1223D01*
X1270Y1223D02*
X1277Y1223D01*
X0Y1222D02*
X7Y1222D01*
X979Y1222D02*
X985Y1222D01*
X1002Y1222D02*
X1008Y1222D01*
X1026Y1222D02*
X1032Y1222D01*
X1270Y1222D02*
X1277Y1222D01*
X0Y1221D02*
X7Y1221D01*
X979Y1221D02*
X985Y1221D01*
X1002Y1221D02*
X1008Y1221D01*
X1026Y1221D02*
X1032Y1221D01*
X1270Y1221D02*
X1277Y1221D01*
X0Y1220D02*
X7Y1220D01*
X979Y1220D02*
X985Y1220D01*
X1002Y1220D02*
X1008Y1220D01*
X1026Y1220D02*
X1032Y1220D01*
X1270Y1220D02*
X1277Y1220D01*
X0Y1219D02*
X7Y1219D01*
X979Y1219D02*
X1032Y1219D01*
X1270Y1219D02*
X1277Y1219D01*
X0Y1218D02*
X7Y1218D01*
X979Y1218D02*
X1032Y1218D01*
X1270Y1218D02*
X1277Y1218D01*
X0Y1217D02*
X7Y1217D01*
X979Y1217D02*
X1032Y1217D01*
X1270Y1217D02*
X1277Y1217D01*
X0Y1216D02*
X7Y1216D01*
X979Y1216D02*
X1032Y1216D01*
X1270Y1216D02*
X1277Y1216D01*
X0Y1215D02*
X7Y1215D01*
X979Y1215D02*
X1032Y1215D01*
X1270Y1215D02*
X1277Y1215D01*
X0Y1214D02*
X7Y1214D01*
X979Y1214D02*
X1032Y1214D01*
X1270Y1214D02*
X1277Y1214D01*
X0Y1213D02*
X7Y1213D01*
X979Y1213D02*
X1032Y1213D01*
X1270Y1213D02*
X1277Y1213D01*
X0Y1212D02*
X7Y1212D01*
X1270Y1212D02*
X1277Y1212D01*
X0Y1211D02*
X7Y1211D01*
X1270Y1211D02*
X1277Y1211D01*
X0Y1210D02*
X7Y1210D01*
X1270Y1210D02*
X1277Y1210D01*
X0Y1209D02*
X7Y1209D01*
X1270Y1209D02*
X1277Y1209D01*
X0Y1208D02*
X7Y1208D01*
X1270Y1208D02*
X1277Y1208D01*
X0Y1207D02*
X7Y1207D01*
X1270Y1207D02*
X1277Y1207D01*
X0Y1206D02*
X7Y1206D01*
X1270Y1206D02*
X1277Y1206D01*
X0Y1205D02*
X7Y1205D01*
X1270Y1205D02*
X1277Y1205D01*
X0Y1204D02*
X7Y1204D01*
X1270Y1204D02*
X1277Y1204D01*
X0Y1203D02*
X7Y1203D01*
X1270Y1203D02*
X1277Y1203D01*
X0Y1202D02*
X7Y1202D01*
X1270Y1202D02*
X1277Y1202D01*
X0Y1201D02*
X7Y1201D01*
X1270Y1201D02*
X1277Y1201D01*
X0Y1200D02*
X7Y1200D01*
X1270Y1200D02*
X1277Y1200D01*
X0Y1199D02*
X7Y1199D01*
X1270Y1199D02*
X1277Y1199D01*
X0Y1198D02*
X7Y1198D01*
X1270Y1198D02*
X1277Y1198D01*
X0Y1197D02*
X7Y1197D01*
X1270Y1197D02*
X1277Y1197D01*
X0Y1196D02*
X7Y1196D01*
X979Y1196D02*
X1031Y1196D01*
X1270Y1196D02*
X1277Y1196D01*
X0Y1195D02*
X7Y1195D01*
X979Y1195D02*
X1031Y1195D01*
X1270Y1195D02*
X1277Y1195D01*
X0Y1194D02*
X7Y1194D01*
X979Y1194D02*
X1032Y1194D01*
X1270Y1194D02*
X1277Y1194D01*
X0Y1193D02*
X7Y1193D01*
X979Y1193D02*
X1032Y1193D01*
X1270Y1193D02*
X1277Y1193D01*
X0Y1192D02*
X7Y1192D01*
X979Y1192D02*
X1032Y1192D01*
X1270Y1192D02*
X1277Y1192D01*
X0Y1191D02*
X7Y1191D01*
X979Y1191D02*
X1031Y1191D01*
X1270Y1191D02*
X1277Y1191D01*
X0Y1190D02*
X7Y1190D01*
X979Y1190D02*
X1029Y1190D01*
X1270Y1190D02*
X1277Y1190D01*
X0Y1189D02*
X7Y1189D01*
X979Y1189D02*
X989Y1189D01*
X1270Y1189D02*
X1277Y1189D01*
X0Y1188D02*
X7Y1188D01*
X979Y1188D02*
X990Y1188D01*
X1270Y1188D02*
X1277Y1188D01*
X0Y1187D02*
X7Y1187D01*
X980Y1187D02*
X991Y1187D01*
X1270Y1187D02*
X1277Y1187D01*
X0Y1186D02*
X7Y1186D01*
X982Y1186D02*
X993Y1186D01*
X1270Y1186D02*
X1277Y1186D01*
X0Y1185D02*
X7Y1185D01*
X983Y1185D02*
X994Y1185D01*
X1270Y1185D02*
X1277Y1185D01*
X0Y1184D02*
X7Y1184D01*
X985Y1184D02*
X996Y1184D01*
X1270Y1184D02*
X1277Y1184D01*
X0Y1183D02*
X7Y1183D01*
X986Y1183D02*
X999Y1183D01*
X1270Y1183D02*
X1277Y1183D01*
X0Y1182D02*
X7Y1182D01*
X987Y1182D02*
X1001Y1182D01*
X1270Y1182D02*
X1277Y1182D01*
X0Y1181D02*
X7Y1181D01*
X989Y1181D02*
X1002Y1181D01*
X1270Y1181D02*
X1277Y1181D01*
X0Y1180D02*
X7Y1180D01*
X990Y1180D02*
X1002Y1180D01*
X1270Y1180D02*
X1277Y1180D01*
X0Y1179D02*
X7Y1179D01*
X990Y1179D02*
X1002Y1179D01*
X1270Y1179D02*
X1277Y1179D01*
X0Y1178D02*
X7Y1178D01*
X989Y1178D02*
X1002Y1178D01*
X1270Y1178D02*
X1277Y1178D01*
X0Y1177D02*
X7Y1177D01*
X987Y1177D02*
X1001Y1177D01*
X1270Y1177D02*
X1277Y1177D01*
X0Y1176D02*
X7Y1176D01*
X986Y1176D02*
X997Y1176D01*
X1270Y1176D02*
X1277Y1176D01*
X0Y1175D02*
X7Y1175D01*
X984Y1175D02*
X996Y1175D01*
X1270Y1175D02*
X1277Y1175D01*
X0Y1174D02*
X7Y1174D01*
X983Y1174D02*
X994Y1174D01*
X1270Y1174D02*
X1277Y1174D01*
X0Y1173D02*
X7Y1173D01*
X981Y1173D02*
X993Y1173D01*
X1270Y1173D02*
X1277Y1173D01*
X0Y1172D02*
X7Y1172D01*
X980Y1172D02*
X991Y1172D01*
X1270Y1172D02*
X1277Y1172D01*
X0Y1171D02*
X7Y1171D01*
X979Y1171D02*
X990Y1171D01*
X1270Y1171D02*
X1277Y1171D01*
X0Y1170D02*
X7Y1170D01*
X979Y1170D02*
X988Y1170D01*
X1270Y1170D02*
X1277Y1170D01*
X0Y1169D02*
X7Y1169D01*
X979Y1169D02*
X1030Y1169D01*
X1270Y1169D02*
X1277Y1169D01*
X0Y1168D02*
X7Y1168D01*
X979Y1168D02*
X1031Y1168D01*
X1270Y1168D02*
X1277Y1168D01*
X0Y1167D02*
X7Y1167D01*
X979Y1167D02*
X1032Y1167D01*
X1270Y1167D02*
X1277Y1167D01*
X0Y1166D02*
X7Y1166D01*
X979Y1166D02*
X1032Y1166D01*
X1270Y1166D02*
X1277Y1166D01*
X0Y1165D02*
X7Y1165D01*
X979Y1165D02*
X1032Y1165D01*
X1270Y1165D02*
X1277Y1165D01*
X0Y1164D02*
X7Y1164D01*
X979Y1164D02*
X1031Y1164D01*
X1270Y1164D02*
X1277Y1164D01*
X0Y1163D02*
X7Y1163D01*
X979Y1163D02*
X1030Y1163D01*
X1270Y1163D02*
X1277Y1163D01*
X0Y1162D02*
X7Y1162D01*
X1270Y1162D02*
X1277Y1162D01*
X0Y1161D02*
X7Y1161D01*
X1270Y1161D02*
X1277Y1161D01*
X0Y1160D02*
X7Y1160D01*
X1270Y1160D02*
X1277Y1160D01*
X0Y1159D02*
X7Y1159D01*
X1270Y1159D02*
X1277Y1159D01*
X0Y1158D02*
X7Y1158D01*
X1270Y1158D02*
X1277Y1158D01*
X0Y1157D02*
X7Y1157D01*
X1270Y1157D02*
X1277Y1157D01*
X0Y1156D02*
X7Y1156D01*
X1270Y1156D02*
X1277Y1156D01*
X0Y1155D02*
X7Y1155D01*
X1270Y1155D02*
X1277Y1155D01*
X0Y1154D02*
X7Y1154D01*
X1270Y1154D02*
X1277Y1154D01*
X0Y1153D02*
X7Y1153D01*
X1270Y1153D02*
X1277Y1153D01*
X0Y1152D02*
X7Y1152D01*
X1270Y1152D02*
X1277Y1152D01*
X0Y1151D02*
X7Y1151D01*
X1270Y1151D02*
X1277Y1151D01*
X0Y1150D02*
X7Y1150D01*
X1270Y1150D02*
X1277Y1150D01*
X0Y1149D02*
X7Y1149D01*
X1270Y1149D02*
X1277Y1149D01*
X0Y1148D02*
X7Y1148D01*
X1270Y1148D02*
X1277Y1148D01*
X0Y1147D02*
X7Y1147D01*
X1270Y1147D02*
X1277Y1147D01*
X0Y1146D02*
X7Y1146D01*
X979Y1146D02*
X989Y1146D01*
X1270Y1146D02*
X1277Y1146D01*
X0Y1145D02*
X7Y1145D01*
X979Y1145D02*
X990Y1145D01*
X1270Y1145D02*
X1277Y1145D01*
X0Y1144D02*
X7Y1144D01*
X979Y1144D02*
X990Y1144D01*
X1270Y1144D02*
X1277Y1144D01*
X0Y1143D02*
X7Y1143D01*
X979Y1143D02*
X991Y1143D01*
X1270Y1143D02*
X1277Y1143D01*
X0Y1142D02*
X7Y1142D01*
X979Y1142D02*
X990Y1142D01*
X1270Y1142D02*
X1277Y1142D01*
X0Y1141D02*
X7Y1141D01*
X979Y1141D02*
X990Y1141D01*
X1270Y1141D02*
X1277Y1141D01*
X0Y1140D02*
X7Y1140D01*
X979Y1140D02*
X988Y1140D01*
X1270Y1140D02*
X1277Y1140D01*
X0Y1139D02*
X7Y1139D01*
X979Y1139D02*
X985Y1139D01*
X1270Y1139D02*
X1277Y1139D01*
X0Y1138D02*
X7Y1138D01*
X979Y1138D02*
X985Y1138D01*
X1270Y1138D02*
X1277Y1138D01*
X0Y1137D02*
X7Y1137D01*
X979Y1137D02*
X985Y1137D01*
X1270Y1137D02*
X1277Y1137D01*
X0Y1136D02*
X7Y1136D01*
X979Y1136D02*
X985Y1136D01*
X1270Y1136D02*
X1277Y1136D01*
X0Y1135D02*
X7Y1135D01*
X979Y1135D02*
X985Y1135D01*
X1270Y1135D02*
X1277Y1135D01*
X0Y1134D02*
X7Y1134D01*
X979Y1134D02*
X985Y1134D01*
X1270Y1134D02*
X1277Y1134D01*
X0Y1133D02*
X7Y1133D01*
X979Y1133D02*
X985Y1133D01*
X1270Y1133D02*
X1277Y1133D01*
X0Y1132D02*
X7Y1132D01*
X979Y1132D02*
X1031Y1132D01*
X1270Y1132D02*
X1277Y1132D01*
X0Y1131D02*
X7Y1131D01*
X979Y1131D02*
X1031Y1131D01*
X1270Y1131D02*
X1277Y1131D01*
X0Y1130D02*
X7Y1130D01*
X979Y1130D02*
X1032Y1130D01*
X1270Y1130D02*
X1277Y1130D01*
X0Y1129D02*
X7Y1129D01*
X979Y1129D02*
X1032Y1129D01*
X1270Y1129D02*
X1277Y1129D01*
X0Y1128D02*
X7Y1128D01*
X979Y1128D02*
X1031Y1128D01*
X1270Y1128D02*
X1277Y1128D01*
X0Y1127D02*
X7Y1127D01*
X979Y1127D02*
X1031Y1127D01*
X1270Y1127D02*
X1277Y1127D01*
X0Y1126D02*
X7Y1126D01*
X979Y1126D02*
X1029Y1126D01*
X1270Y1126D02*
X1277Y1126D01*
X0Y1125D02*
X7Y1125D01*
X979Y1125D02*
X985Y1125D01*
X1270Y1125D02*
X1277Y1125D01*
X0Y1124D02*
X7Y1124D01*
X979Y1124D02*
X985Y1124D01*
X1270Y1124D02*
X1277Y1124D01*
X0Y1123D02*
X7Y1123D01*
X979Y1123D02*
X985Y1123D01*
X1270Y1123D02*
X1277Y1123D01*
X0Y1122D02*
X7Y1122D01*
X979Y1122D02*
X985Y1122D01*
X1270Y1122D02*
X1277Y1122D01*
X0Y1121D02*
X7Y1121D01*
X979Y1121D02*
X985Y1121D01*
X1270Y1121D02*
X1277Y1121D01*
X0Y1120D02*
X7Y1120D01*
X979Y1120D02*
X985Y1120D01*
X1270Y1120D02*
X1277Y1120D01*
X0Y1119D02*
X7Y1119D01*
X979Y1119D02*
X988Y1119D01*
X1270Y1119D02*
X1277Y1119D01*
X0Y1118D02*
X7Y1118D01*
X979Y1118D02*
X990Y1118D01*
X1270Y1118D02*
X1277Y1118D01*
X0Y1117D02*
X7Y1117D01*
X979Y1117D02*
X990Y1117D01*
X1270Y1117D02*
X1277Y1117D01*
X0Y1116D02*
X7Y1116D01*
X979Y1116D02*
X991Y1116D01*
X1270Y1116D02*
X1277Y1116D01*
X0Y1115D02*
X7Y1115D01*
X979Y1115D02*
X990Y1115D01*
X1270Y1115D02*
X1277Y1115D01*
X0Y1114D02*
X7Y1114D01*
X979Y1114D02*
X990Y1114D01*
X1270Y1114D02*
X1277Y1114D01*
X0Y1113D02*
X7Y1113D01*
X979Y1113D02*
X989Y1113D01*
X1270Y1113D02*
X1277Y1113D01*
X0Y1112D02*
X7Y1112D01*
X1270Y1112D02*
X1277Y1112D01*
X0Y1111D02*
X7Y1111D01*
X1270Y1111D02*
X1277Y1111D01*
X0Y1110D02*
X7Y1110D01*
X1270Y1110D02*
X1277Y1110D01*
X0Y1109D02*
X7Y1109D01*
X1270Y1109D02*
X1277Y1109D01*
X0Y1108D02*
X7Y1108D01*
X1270Y1108D02*
X1277Y1108D01*
X0Y1107D02*
X7Y1107D01*
X1270Y1107D02*
X1277Y1107D01*
X0Y1106D02*
X7Y1106D01*
X1270Y1106D02*
X1277Y1106D01*
X0Y1105D02*
X7Y1105D01*
X1270Y1105D02*
X1277Y1105D01*
X0Y1104D02*
X7Y1104D01*
X1270Y1104D02*
X1277Y1104D01*
X0Y1103D02*
X7Y1103D01*
X1270Y1103D02*
X1277Y1103D01*
X0Y1102D02*
X7Y1102D01*
X1270Y1102D02*
X1277Y1102D01*
X0Y1101D02*
X7Y1101D01*
X1270Y1101D02*
X1277Y1101D01*
X0Y1100D02*
X7Y1100D01*
X1270Y1100D02*
X1277Y1100D01*
X0Y1099D02*
X7Y1099D01*
X1270Y1099D02*
X1277Y1099D01*
X0Y1098D02*
X7Y1098D01*
X1270Y1098D02*
X1277Y1098D01*
X0Y1097D02*
X7Y1097D01*
X1270Y1097D02*
X1277Y1097D01*
X0Y1096D02*
X7Y1096D01*
X1027Y1096D02*
X1030Y1096D01*
X1270Y1096D02*
X1277Y1096D01*
X0Y1095D02*
X7Y1095D01*
X1024Y1095D02*
X1031Y1095D01*
X1270Y1095D02*
X1277Y1095D01*
X0Y1094D02*
X7Y1094D01*
X1020Y1094D02*
X1032Y1094D01*
X1270Y1094D02*
X1277Y1094D01*
X0Y1093D02*
X7Y1093D01*
X1017Y1093D02*
X1032Y1093D01*
X1270Y1093D02*
X1277Y1093D01*
X0Y1092D02*
X7Y1092D01*
X1014Y1092D02*
X1032Y1092D01*
X1270Y1092D02*
X1277Y1092D01*
X0Y1091D02*
X7Y1091D01*
X1010Y1091D02*
X1031Y1091D01*
X1270Y1091D02*
X1277Y1091D01*
X0Y1090D02*
X7Y1090D01*
X1007Y1090D02*
X1030Y1090D01*
X1270Y1090D02*
X1277Y1090D01*
X0Y1089D02*
X7Y1089D01*
X1003Y1089D02*
X1027Y1089D01*
X1270Y1089D02*
X1277Y1089D01*
X0Y1088D02*
X7Y1088D01*
X1000Y1088D02*
X1024Y1088D01*
X1270Y1088D02*
X1277Y1088D01*
X0Y1087D02*
X7Y1087D01*
X996Y1087D02*
X1020Y1087D01*
X1270Y1087D02*
X1277Y1087D01*
X0Y1086D02*
X7Y1086D01*
X993Y1086D02*
X1020Y1086D01*
X1270Y1086D02*
X1277Y1086D01*
X0Y1085D02*
X7Y1085D01*
X990Y1085D02*
X1020Y1085D01*
X1270Y1085D02*
X1277Y1085D01*
X0Y1084D02*
X7Y1084D01*
X986Y1084D02*
X1010Y1084D01*
X1014Y1084D02*
X1020Y1084D01*
X1270Y1084D02*
X1277Y1084D01*
X0Y1083D02*
X7Y1083D01*
X983Y1083D02*
X1007Y1083D01*
X1014Y1083D02*
X1020Y1083D01*
X1270Y1083D02*
X1277Y1083D01*
X0Y1082D02*
X7Y1082D01*
X980Y1082D02*
X1003Y1082D01*
X1014Y1082D02*
X1020Y1082D01*
X1270Y1082D02*
X1277Y1082D01*
X0Y1081D02*
X7Y1081D01*
X979Y1081D02*
X1000Y1081D01*
X1014Y1081D02*
X1020Y1081D01*
X1270Y1081D02*
X1277Y1081D01*
X0Y1080D02*
X7Y1080D01*
X979Y1080D02*
X997Y1080D01*
X1014Y1080D02*
X1020Y1080D01*
X1270Y1080D02*
X1277Y1080D01*
X0Y1079D02*
X7Y1079D01*
X979Y1079D02*
X995Y1079D01*
X1014Y1079D02*
X1020Y1079D01*
X1270Y1079D02*
X1277Y1079D01*
X0Y1078D02*
X7Y1078D01*
X979Y1078D02*
X998Y1078D01*
X1014Y1078D02*
X1020Y1078D01*
X1270Y1078D02*
X1277Y1078D01*
X0Y1077D02*
X7Y1077D01*
X979Y1077D02*
X1001Y1077D01*
X1014Y1077D02*
X1020Y1077D01*
X1270Y1077D02*
X1277Y1077D01*
X0Y1076D02*
X7Y1076D01*
X981Y1076D02*
X1005Y1076D01*
X1014Y1076D02*
X1020Y1076D01*
X1270Y1076D02*
X1277Y1076D01*
X0Y1075D02*
X7Y1075D01*
X984Y1075D02*
X1008Y1075D01*
X1014Y1075D02*
X1020Y1075D01*
X1270Y1075D02*
X1277Y1075D01*
X0Y1074D02*
X7Y1074D01*
X987Y1074D02*
X1011Y1074D01*
X1014Y1074D02*
X1020Y1074D01*
X1270Y1074D02*
X1277Y1074D01*
X0Y1073D02*
X7Y1073D01*
X991Y1073D02*
X1020Y1073D01*
X1270Y1073D02*
X1277Y1073D01*
X0Y1072D02*
X7Y1072D01*
X994Y1072D02*
X1020Y1072D01*
X1270Y1072D02*
X1277Y1072D01*
X0Y1071D02*
X7Y1071D01*
X998Y1071D02*
X1021Y1071D01*
X1270Y1071D02*
X1277Y1071D01*
X0Y1070D02*
X7Y1070D01*
X1001Y1070D02*
X1025Y1070D01*
X1270Y1070D02*
X1277Y1070D01*
X0Y1069D02*
X7Y1069D01*
X1004Y1069D02*
X1028Y1069D01*
X1270Y1069D02*
X1277Y1069D01*
X0Y1068D02*
X7Y1068D01*
X1008Y1068D02*
X1031Y1068D01*
X1270Y1068D02*
X1277Y1068D01*
X0Y1067D02*
X7Y1067D01*
X1011Y1067D02*
X1031Y1067D01*
X1270Y1067D02*
X1277Y1067D01*
X0Y1066D02*
X7Y1066D01*
X1015Y1066D02*
X1032Y1066D01*
X1270Y1066D02*
X1277Y1066D01*
X0Y1065D02*
X7Y1065D01*
X1018Y1065D02*
X1032Y1065D01*
X1270Y1065D02*
X1277Y1065D01*
X0Y1064D02*
X7Y1064D01*
X1021Y1064D02*
X1032Y1064D01*
X1270Y1064D02*
X1277Y1064D01*
X0Y1063D02*
X7Y1063D01*
X1025Y1063D02*
X1031Y1063D01*
X1270Y1063D02*
X1277Y1063D01*
X0Y1062D02*
X7Y1062D01*
X1028Y1062D02*
X1030Y1062D01*
X1270Y1062D02*
X1277Y1062D01*
X0Y1061D02*
X7Y1061D01*
X1270Y1061D02*
X1277Y1061D01*
X0Y1060D02*
X7Y1060D01*
X1270Y1060D02*
X1277Y1060D01*
X0Y1059D02*
X7Y1059D01*
X1270Y1059D02*
X1277Y1059D01*
X0Y1058D02*
X7Y1058D01*
X1270Y1058D02*
X1277Y1058D01*
X0Y1057D02*
X7Y1057D01*
X1270Y1057D02*
X1277Y1057D01*
X0Y1056D02*
X7Y1056D01*
X1270Y1056D02*
X1277Y1056D01*
X0Y1055D02*
X7Y1055D01*
X1270Y1055D02*
X1277Y1055D01*
X0Y1054D02*
X7Y1054D01*
X1270Y1054D02*
X1277Y1054D01*
X0Y1053D02*
X7Y1053D01*
X1270Y1053D02*
X1277Y1053D01*
X0Y1052D02*
X7Y1052D01*
X1270Y1052D02*
X1277Y1052D01*
X0Y1051D02*
X7Y1051D01*
X1270Y1051D02*
X1277Y1051D01*
X0Y1050D02*
X7Y1050D01*
X1270Y1050D02*
X1277Y1050D01*
X0Y1049D02*
X7Y1049D01*
X1270Y1049D02*
X1277Y1049D01*
X0Y1048D02*
X7Y1048D01*
X1270Y1048D02*
X1277Y1048D01*
X0Y1047D02*
X7Y1047D01*
X1270Y1047D02*
X1277Y1047D01*
X0Y1046D02*
X7Y1046D01*
X1270Y1046D02*
X1277Y1046D01*
X0Y1045D02*
X7Y1045D01*
X1270Y1045D02*
X1277Y1045D01*
X0Y1044D02*
X7Y1044D01*
X1270Y1044D02*
X1277Y1044D01*
X0Y1043D02*
X7Y1043D01*
X1270Y1043D02*
X1277Y1043D01*
X0Y1042D02*
X7Y1042D01*
X1270Y1042D02*
X1277Y1042D01*
X0Y1041D02*
X7Y1041D01*
X1270Y1041D02*
X1277Y1041D01*
X0Y1040D02*
X7Y1040D01*
X1270Y1040D02*
X1277Y1040D01*
X0Y1039D02*
X7Y1039D01*
X1270Y1039D02*
X1277Y1039D01*
X0Y1038D02*
X7Y1038D01*
X1270Y1038D02*
X1277Y1038D01*
X0Y1037D02*
X7Y1037D01*
X1270Y1037D02*
X1277Y1037D01*
X0Y1036D02*
X7Y1036D01*
X1270Y1036D02*
X1277Y1036D01*
X0Y1035D02*
X7Y1035D01*
X1270Y1035D02*
X1277Y1035D01*
X0Y1034D02*
X7Y1034D01*
X1270Y1034D02*
X1277Y1034D01*
X0Y1033D02*
X7Y1033D01*
X1270Y1033D02*
X1277Y1033D01*
X0Y1032D02*
X7Y1032D01*
X1270Y1032D02*
X1277Y1032D01*
X0Y1031D02*
X7Y1031D01*
X1270Y1031D02*
X1277Y1031D01*
X0Y1030D02*
X7Y1030D01*
X1270Y1030D02*
X1277Y1030D01*
X0Y1029D02*
X7Y1029D01*
X1270Y1029D02*
X1277Y1029D01*
X0Y1028D02*
X7Y1028D01*
X1270Y1028D02*
X1277Y1028D01*
X0Y1027D02*
X7Y1027D01*
X1270Y1027D02*
X1277Y1027D01*
X0Y1026D02*
X7Y1026D01*
X1270Y1026D02*
X1277Y1026D01*
X0Y1025D02*
X7Y1025D01*
X1270Y1025D02*
X1277Y1025D01*
X0Y1024D02*
X7Y1024D01*
X1270Y1024D02*
X1277Y1024D01*
X0Y1023D02*
X7Y1023D01*
X1270Y1023D02*
X1277Y1023D01*
X0Y1022D02*
X7Y1022D01*
X1270Y1022D02*
X1277Y1022D01*
X0Y1021D02*
X7Y1021D01*
X1270Y1021D02*
X1277Y1021D01*
X0Y1020D02*
X7Y1020D01*
X1270Y1020D02*
X1277Y1020D01*
X0Y1019D02*
X7Y1019D01*
X1270Y1019D02*
X1277Y1019D01*
X0Y1018D02*
X7Y1018D01*
X1270Y1018D02*
X1277Y1018D01*
X0Y1017D02*
X7Y1017D01*
X1270Y1017D02*
X1277Y1017D01*
X0Y1016D02*
X7Y1016D01*
X1270Y1016D02*
X1277Y1016D01*
X0Y1015D02*
X7Y1015D01*
X1270Y1015D02*
X1277Y1015D01*
X0Y1014D02*
X7Y1014D01*
X1270Y1014D02*
X1277Y1014D01*
X0Y1013D02*
X7Y1013D01*
X1270Y1013D02*
X1277Y1013D01*
X0Y1012D02*
X7Y1012D01*
X1270Y1012D02*
X1277Y1012D01*
X0Y1011D02*
X7Y1011D01*
X1270Y1011D02*
X1277Y1011D01*
X0Y1010D02*
X7Y1010D01*
X1270Y1010D02*
X1277Y1010D01*
X0Y1009D02*
X7Y1009D01*
X1270Y1009D02*
X1277Y1009D01*
X0Y1008D02*
X7Y1008D01*
X1270Y1008D02*
X1277Y1008D01*
X0Y1007D02*
X7Y1007D01*
X1270Y1007D02*
X1277Y1007D01*
X0Y1006D02*
X7Y1006D01*
X1270Y1006D02*
X1277Y1006D01*
X0Y1005D02*
X7Y1005D01*
X1270Y1005D02*
X1277Y1005D01*
X0Y1004D02*
X7Y1004D01*
X1270Y1004D02*
X1277Y1004D01*
X0Y1003D02*
X7Y1003D01*
X1270Y1003D02*
X1277Y1003D01*
X0Y1002D02*
X7Y1002D01*
X1270Y1002D02*
X1277Y1002D01*
X0Y1001D02*
X7Y1001D01*
X1270Y1001D02*
X1277Y1001D01*
X0Y1000D02*
X7Y1000D01*
X1270Y1000D02*
X1277Y1000D01*
X0Y999D02*
X7Y999D01*
X1270Y999D02*
X1277Y999D01*
X0Y998D02*
X7Y998D01*
X1270Y998D02*
X1277Y998D01*
X0Y997D02*
X7Y997D01*
X1270Y997D02*
X1277Y997D01*
X0Y996D02*
X7Y996D01*
X1270Y996D02*
X1277Y996D01*
X0Y995D02*
X7Y995D01*
X1270Y995D02*
X1277Y995D01*
X0Y994D02*
X7Y994D01*
X1270Y994D02*
X1277Y994D01*
X0Y993D02*
X7Y993D01*
X1270Y993D02*
X1277Y993D01*
X0Y992D02*
X7Y992D01*
X1270Y992D02*
X1277Y992D01*
X0Y991D02*
X7Y991D01*
X1270Y991D02*
X1277Y991D01*
X0Y990D02*
X7Y990D01*
X1270Y990D02*
X1277Y990D01*
X0Y989D02*
X7Y989D01*
X1270Y989D02*
X1277Y989D01*
X0Y988D02*
X7Y988D01*
X1270Y988D02*
X1277Y988D01*
X0Y987D02*
X7Y987D01*
X1270Y987D02*
X1277Y987D01*
X0Y986D02*
X7Y986D01*
X1270Y986D02*
X1277Y986D01*
X0Y985D02*
X7Y985D01*
X1270Y985D02*
X1277Y985D01*
X0Y984D02*
X7Y984D01*
X1270Y984D02*
X1277Y984D01*
X0Y983D02*
X7Y983D01*
X1270Y983D02*
X1277Y983D01*
X0Y982D02*
X7Y982D01*
X1270Y982D02*
X1277Y982D01*
X0Y981D02*
X7Y981D01*
X1270Y981D02*
X1277Y981D01*
X0Y980D02*
X7Y980D01*
X1270Y980D02*
X1277Y980D01*
X0Y979D02*
X7Y979D01*
X1270Y979D02*
X1277Y979D01*
X0Y978D02*
X7Y978D01*
X1270Y978D02*
X1277Y978D01*
X0Y977D02*
X7Y977D01*
X1270Y977D02*
X1277Y977D01*
X0Y976D02*
X7Y976D01*
X1270Y976D02*
X1277Y976D01*
X0Y975D02*
X7Y975D01*
X1270Y975D02*
X1277Y975D01*
X0Y974D02*
X7Y974D01*
X1270Y974D02*
X1277Y974D01*
X0Y973D02*
X7Y973D01*
X1270Y973D02*
X1277Y973D01*
X0Y972D02*
X7Y972D01*
X1270Y972D02*
X1277Y972D01*
X0Y971D02*
X7Y971D01*
X1270Y971D02*
X1277Y971D01*
X0Y970D02*
X7Y970D01*
X1270Y970D02*
X1277Y970D01*
X0Y969D02*
X7Y969D01*
X1270Y969D02*
X1277Y969D01*
X0Y968D02*
X7Y968D01*
X1270Y968D02*
X1277Y968D01*
X0Y967D02*
X7Y967D01*
X1270Y967D02*
X1277Y967D01*
X0Y966D02*
X7Y966D01*
X1270Y966D02*
X1277Y966D01*
X0Y965D02*
X7Y965D01*
X1270Y965D02*
X1277Y965D01*
X0Y964D02*
X7Y964D01*
X1270Y964D02*
X1277Y964D01*
X0Y963D02*
X7Y963D01*
X1270Y963D02*
X1277Y963D01*
X0Y962D02*
X7Y962D01*
X1270Y962D02*
X1277Y962D01*
X0Y961D02*
X7Y961D01*
X1270Y961D02*
X1277Y961D01*
X0Y960D02*
X7Y960D01*
X1270Y960D02*
X1277Y960D01*
X0Y959D02*
X7Y959D01*
X1270Y959D02*
X1277Y959D01*
X0Y958D02*
X7Y958D01*
X1270Y958D02*
X1277Y958D01*
X0Y957D02*
X7Y957D01*
X1270Y957D02*
X1277Y957D01*
X0Y956D02*
X7Y956D01*
X1270Y956D02*
X1277Y956D01*
X0Y955D02*
X7Y955D01*
X1270Y955D02*
X1277Y955D01*
X0Y954D02*
X7Y954D01*
X1270Y954D02*
X1277Y954D01*
X0Y953D02*
X7Y953D01*
X1270Y953D02*
X1277Y953D01*
X0Y952D02*
X7Y952D01*
X1270Y952D02*
X1277Y952D01*
X0Y951D02*
X7Y951D01*
X1270Y951D02*
X1277Y951D01*
X0Y950D02*
X7Y950D01*
X1270Y950D02*
X1277Y950D01*
X0Y949D02*
X7Y949D01*
X1270Y949D02*
X1277Y949D01*
X0Y948D02*
X7Y948D01*
X1270Y948D02*
X1277Y948D01*
X0Y947D02*
X7Y947D01*
X1270Y947D02*
X1277Y947D01*
X0Y946D02*
X7Y946D01*
X1270Y946D02*
X1277Y946D01*
X0Y945D02*
X7Y945D01*
X1270Y945D02*
X1277Y945D01*
X0Y944D02*
X7Y944D01*
X1270Y944D02*
X1277Y944D01*
X0Y943D02*
X7Y943D01*
X1270Y943D02*
X1277Y943D01*
X0Y942D02*
X7Y942D01*
X1270Y942D02*
X1277Y942D01*
X0Y941D02*
X7Y941D01*
X1270Y941D02*
X1277Y941D01*
X0Y940D02*
X7Y940D01*
X1270Y940D02*
X1277Y940D01*
X0Y939D02*
X7Y939D01*
X1270Y939D02*
X1277Y939D01*
X0Y938D02*
X7Y938D01*
X1270Y938D02*
X1277Y938D01*
X0Y937D02*
X7Y937D01*
X1270Y937D02*
X1277Y937D01*
X0Y936D02*
X7Y936D01*
X1270Y936D02*
X1277Y936D01*
X0Y935D02*
X7Y935D01*
X1270Y935D02*
X1277Y935D01*
X0Y934D02*
X7Y934D01*
X1270Y934D02*
X1277Y934D01*
X0Y933D02*
X7Y933D01*
X1270Y933D02*
X1277Y933D01*
X0Y932D02*
X7Y932D01*
X1270Y932D02*
X1277Y932D01*
X0Y931D02*
X7Y931D01*
X1270Y931D02*
X1277Y931D01*
X0Y930D02*
X7Y930D01*
X1270Y930D02*
X1277Y930D01*
X0Y929D02*
X7Y929D01*
X1270Y929D02*
X1277Y929D01*
X0Y928D02*
X7Y928D01*
X1270Y928D02*
X1277Y928D01*
X0Y927D02*
X7Y927D01*
X1270Y927D02*
X1277Y927D01*
X0Y926D02*
X7Y926D01*
X1270Y926D02*
X1277Y926D01*
X0Y925D02*
X7Y925D01*
X1270Y925D02*
X1277Y925D01*
X0Y924D02*
X7Y924D01*
X1270Y924D02*
X1277Y924D01*
X0Y923D02*
X7Y923D01*
X1270Y923D02*
X1277Y923D01*
X0Y922D02*
X7Y922D01*
X1270Y922D02*
X1277Y922D01*
X0Y921D02*
X7Y921D01*
X1270Y921D02*
X1277Y921D01*
X0Y920D02*
X7Y920D01*
X1270Y920D02*
X1277Y920D01*
X0Y919D02*
X7Y919D01*
X1270Y919D02*
X1277Y919D01*
X0Y918D02*
X7Y918D01*
X1270Y918D02*
X1277Y918D01*
X0Y917D02*
X7Y917D01*
X1270Y917D02*
X1277Y917D01*
X0Y916D02*
X7Y916D01*
X1270Y916D02*
X1277Y916D01*
X0Y915D02*
X7Y915D01*
X1270Y915D02*
X1277Y915D01*
X0Y914D02*
X7Y914D01*
X1270Y914D02*
X1277Y914D01*
X0Y913D02*
X7Y913D01*
X1270Y913D02*
X1277Y913D01*
X0Y912D02*
X7Y912D01*
X1270Y912D02*
X1277Y912D01*
X0Y911D02*
X7Y911D01*
X1270Y911D02*
X1277Y911D01*
X0Y910D02*
X7Y910D01*
X1270Y910D02*
X1277Y910D01*
X0Y909D02*
X7Y909D01*
X1270Y909D02*
X1277Y909D01*
X0Y908D02*
X7Y908D01*
X1270Y908D02*
X1277Y908D01*
X0Y907D02*
X7Y907D01*
X1270Y907D02*
X1277Y907D01*
X0Y906D02*
X7Y906D01*
X1270Y906D02*
X1277Y906D01*
X0Y905D02*
X7Y905D01*
X1270Y905D02*
X1277Y905D01*
X0Y904D02*
X7Y904D01*
X1270Y904D02*
X1277Y904D01*
X0Y903D02*
X7Y903D01*
X1270Y903D02*
X1277Y903D01*
X0Y902D02*
X7Y902D01*
X1270Y902D02*
X1277Y902D01*
X0Y901D02*
X7Y901D01*
X1270Y901D02*
X1277Y901D01*
X0Y900D02*
X7Y900D01*
X1270Y900D02*
X1277Y900D01*
X0Y899D02*
X7Y899D01*
X1270Y899D02*
X1277Y899D01*
X0Y898D02*
X7Y898D01*
X1270Y898D02*
X1277Y898D01*
X0Y897D02*
X7Y897D01*
X1270Y897D02*
X1277Y897D01*
X0Y896D02*
X7Y896D01*
X1270Y896D02*
X1277Y896D01*
X0Y895D02*
X7Y895D01*
X1270Y895D02*
X1277Y895D01*
X0Y894D02*
X7Y894D01*
X1270Y894D02*
X1277Y894D01*
X0Y893D02*
X7Y893D01*
X1270Y893D02*
X1277Y893D01*
X0Y892D02*
X7Y892D01*
X1270Y892D02*
X1277Y892D01*
X0Y891D02*
X7Y891D01*
X1270Y891D02*
X1277Y891D01*
X0Y890D02*
X7Y890D01*
X1270Y890D02*
X1277Y890D01*
X0Y889D02*
X7Y889D01*
X1270Y889D02*
X1277Y889D01*
X0Y888D02*
X7Y888D01*
X1270Y888D02*
X1277Y888D01*
X0Y887D02*
X7Y887D01*
X1270Y887D02*
X1277Y887D01*
X0Y886D02*
X7Y886D01*
X1270Y886D02*
X1277Y886D01*
X0Y885D02*
X7Y885D01*
X1270Y885D02*
X1277Y885D01*
X0Y884D02*
X7Y884D01*
X1270Y884D02*
X1277Y884D01*
X0Y883D02*
X7Y883D01*
X1270Y883D02*
X1277Y883D01*
X0Y882D02*
X7Y882D01*
X1270Y882D02*
X1277Y882D01*
X0Y881D02*
X7Y881D01*
X1270Y881D02*
X1277Y881D01*
X0Y880D02*
X7Y880D01*
X1270Y880D02*
X1277Y880D01*
X0Y879D02*
X7Y879D01*
X1270Y879D02*
X1277Y879D01*
X0Y878D02*
X7Y878D01*
X1270Y878D02*
X1277Y878D01*
X0Y877D02*
X7Y877D01*
X1270Y877D02*
X1277Y877D01*
X0Y876D02*
X7Y876D01*
X1270Y876D02*
X1277Y876D01*
X0Y875D02*
X7Y875D01*
X1270Y875D02*
X1277Y875D01*
X0Y874D02*
X7Y874D01*
X1270Y874D02*
X1277Y874D01*
X0Y873D02*
X7Y873D01*
X1270Y873D02*
X1277Y873D01*
X0Y872D02*
X7Y872D01*
X1270Y872D02*
X1277Y872D01*
X0Y871D02*
X7Y871D01*
X1270Y871D02*
X1277Y871D01*
X0Y870D02*
X7Y870D01*
X1270Y870D02*
X1277Y870D01*
X0Y869D02*
X7Y869D01*
X1270Y869D02*
X1277Y869D01*
X0Y868D02*
X7Y868D01*
X1270Y868D02*
X1277Y868D01*
X0Y867D02*
X7Y867D01*
X1270Y867D02*
X1277Y867D01*
X0Y866D02*
X7Y866D01*
X1270Y866D02*
X1277Y866D01*
X0Y865D02*
X7Y865D01*
X1270Y865D02*
X1277Y865D01*
X0Y864D02*
X7Y864D01*
X1270Y864D02*
X1277Y864D01*
X0Y863D02*
X7Y863D01*
X1270Y863D02*
X1277Y863D01*
X0Y862D02*
X7Y862D01*
X1270Y862D02*
X1277Y862D01*
X0Y861D02*
X7Y861D01*
X1270Y861D02*
X1277Y861D01*
X0Y860D02*
X7Y860D01*
X1270Y860D02*
X1277Y860D01*
X0Y859D02*
X7Y859D01*
X1270Y859D02*
X1277Y859D01*
X0Y858D02*
X7Y858D01*
X1270Y858D02*
X1277Y858D01*
X0Y857D02*
X7Y857D01*
X1270Y857D02*
X1277Y857D01*
X0Y856D02*
X7Y856D01*
X1270Y856D02*
X1277Y856D01*
X0Y855D02*
X7Y855D01*
X1270Y855D02*
X1277Y855D01*
X0Y854D02*
X7Y854D01*
X1270Y854D02*
X1277Y854D01*
X0Y853D02*
X7Y853D01*
X1270Y853D02*
X1277Y853D01*
X0Y852D02*
X7Y852D01*
X1270Y852D02*
X1277Y852D01*
X0Y851D02*
X7Y851D01*
X1270Y851D02*
X1277Y851D01*
X0Y850D02*
X7Y850D01*
X1270Y850D02*
X1277Y850D01*
X0Y849D02*
X7Y849D01*
X1270Y849D02*
X1277Y849D01*
X0Y848D02*
X7Y848D01*
X1270Y848D02*
X1277Y848D01*
X0Y847D02*
X7Y847D01*
X1270Y847D02*
X1277Y847D01*
X0Y846D02*
X7Y846D01*
X1270Y846D02*
X1277Y846D01*
X0Y845D02*
X7Y845D01*
X1270Y845D02*
X1277Y845D01*
X0Y844D02*
X7Y844D01*
X1270Y844D02*
X1277Y844D01*
X0Y843D02*
X7Y843D01*
X1270Y843D02*
X1277Y843D01*
X0Y842D02*
X7Y842D01*
X1270Y842D02*
X1277Y842D01*
X0Y841D02*
X7Y841D01*
X1270Y841D02*
X1277Y841D01*
X0Y840D02*
X7Y840D01*
X1270Y840D02*
X1277Y840D01*
X0Y839D02*
X7Y839D01*
X1270Y839D02*
X1277Y839D01*
X0Y838D02*
X7Y838D01*
X1270Y838D02*
X1277Y838D01*
X0Y837D02*
X7Y837D01*
X1270Y837D02*
X1277Y837D01*
X0Y836D02*
X7Y836D01*
X1270Y836D02*
X1277Y836D01*
X0Y835D02*
X7Y835D01*
X1270Y835D02*
X1277Y835D01*
X0Y834D02*
X7Y834D01*
X1270Y834D02*
X1277Y834D01*
X0Y833D02*
X7Y833D01*
X1270Y833D02*
X1277Y833D01*
X0Y832D02*
X7Y832D01*
X1270Y832D02*
X1277Y832D01*
X0Y831D02*
X7Y831D01*
X1270Y831D02*
X1277Y831D01*
X0Y830D02*
X7Y830D01*
X1270Y830D02*
X1277Y830D01*
X0Y829D02*
X7Y829D01*
X1270Y829D02*
X1277Y829D01*
X0Y828D02*
X7Y828D01*
X1270Y828D02*
X1277Y828D01*
X0Y827D02*
X7Y827D01*
X1270Y827D02*
X1277Y827D01*
X0Y826D02*
X7Y826D01*
X1270Y826D02*
X1277Y826D01*
X0Y825D02*
X7Y825D01*
X1270Y825D02*
X1277Y825D01*
X0Y824D02*
X7Y824D01*
X1270Y824D02*
X1277Y824D01*
X0Y823D02*
X7Y823D01*
X1270Y823D02*
X1277Y823D01*
X0Y822D02*
X7Y822D01*
X1270Y822D02*
X1277Y822D01*
X0Y821D02*
X7Y821D01*
X1270Y821D02*
X1277Y821D01*
X0Y820D02*
X7Y820D01*
X1270Y820D02*
X1277Y820D01*
X0Y819D02*
X7Y819D01*
X1270Y819D02*
X1277Y819D01*
X0Y818D02*
X7Y818D01*
X1270Y818D02*
X1277Y818D01*
X0Y817D02*
X7Y817D01*
X1270Y817D02*
X1277Y817D01*
X0Y816D02*
X7Y816D01*
X1270Y816D02*
X1277Y816D01*
X0Y815D02*
X7Y815D01*
X1270Y815D02*
X1277Y815D01*
X0Y814D02*
X7Y814D01*
X1270Y814D02*
X1277Y814D01*
X0Y813D02*
X7Y813D01*
X1270Y813D02*
X1277Y813D01*
X0Y812D02*
X7Y812D01*
X1270Y812D02*
X1277Y812D01*
X0Y811D02*
X7Y811D01*
X1270Y811D02*
X1277Y811D01*
X0Y810D02*
X7Y810D01*
X1270Y810D02*
X1277Y810D01*
X0Y809D02*
X7Y809D01*
X1270Y809D02*
X1277Y809D01*
X0Y808D02*
X7Y808D01*
X1270Y808D02*
X1277Y808D01*
X0Y807D02*
X7Y807D01*
X1270Y807D02*
X1277Y807D01*
X0Y806D02*
X7Y806D01*
X1270Y806D02*
X1277Y806D01*
X0Y805D02*
X7Y805D01*
X1270Y805D02*
X1277Y805D01*
X0Y804D02*
X7Y804D01*
X1270Y804D02*
X1277Y804D01*
X0Y803D02*
X7Y803D01*
X1270Y803D02*
X1277Y803D01*
X0Y802D02*
X7Y802D01*
X1270Y802D02*
X1277Y802D01*
X0Y801D02*
X7Y801D01*
X1270Y801D02*
X1277Y801D01*
X0Y800D02*
X7Y800D01*
X1270Y800D02*
X1277Y800D01*
X0Y799D02*
X7Y799D01*
X1270Y799D02*
X1277Y799D01*
X0Y798D02*
X7Y798D01*
X1270Y798D02*
X1277Y798D01*
X0Y797D02*
X7Y797D01*
X1270Y797D02*
X1277Y797D01*
X0Y796D02*
X7Y796D01*
X1270Y796D02*
X1277Y796D01*
X0Y795D02*
X7Y795D01*
X1270Y795D02*
X1277Y795D01*
X0Y794D02*
X7Y794D01*
X1270Y794D02*
X1277Y794D01*
X0Y793D02*
X7Y793D01*
X1270Y793D02*
X1277Y793D01*
X0Y792D02*
X7Y792D01*
X1270Y792D02*
X1277Y792D01*
X0Y791D02*
X7Y791D01*
X1270Y791D02*
X1277Y791D01*
X0Y790D02*
X7Y790D01*
X1270Y790D02*
X1277Y790D01*
X0Y789D02*
X7Y789D01*
X1270Y789D02*
X1277Y789D01*
X0Y788D02*
X7Y788D01*
X1270Y788D02*
X1277Y788D01*
X0Y787D02*
X7Y787D01*
X1270Y787D02*
X1277Y787D01*
X0Y786D02*
X7Y786D01*
X1270Y786D02*
X1277Y786D01*
X0Y785D02*
X7Y785D01*
X1270Y785D02*
X1277Y785D01*
X0Y784D02*
X7Y784D01*
X1270Y784D02*
X1277Y784D01*
X0Y783D02*
X7Y783D01*
X1270Y783D02*
X1277Y783D01*
X0Y782D02*
X7Y782D01*
X1270Y782D02*
X1277Y782D01*
X0Y781D02*
X7Y781D01*
X1270Y781D02*
X1277Y781D01*
X0Y780D02*
X7Y780D01*
X1270Y780D02*
X1277Y780D01*
X0Y779D02*
X7Y779D01*
X1270Y779D02*
X1277Y779D01*
X0Y778D02*
X7Y778D01*
X1270Y778D02*
X1277Y778D01*
X0Y777D02*
X7Y777D01*
X1270Y777D02*
X1277Y777D01*
X0Y776D02*
X7Y776D01*
X1270Y776D02*
X1277Y776D01*
X0Y775D02*
X7Y775D01*
X1270Y775D02*
X1277Y775D01*
X0Y774D02*
X7Y774D01*
X1270Y774D02*
X1277Y774D01*
X0Y773D02*
X7Y773D01*
X1270Y773D02*
X1277Y773D01*
X0Y772D02*
X7Y772D01*
X1270Y772D02*
X1277Y772D01*
X0Y771D02*
X7Y771D01*
X1270Y771D02*
X1277Y771D01*
X0Y770D02*
X7Y770D01*
X1270Y770D02*
X1277Y770D01*
X0Y769D02*
X7Y769D01*
X1270Y769D02*
X1277Y769D01*
X0Y768D02*
X7Y768D01*
X1270Y768D02*
X1277Y768D01*
X0Y767D02*
X7Y767D01*
X664Y767D02*
X689Y767D01*
X1270Y767D02*
X1277Y767D01*
X0Y766D02*
X7Y766D01*
X658Y766D02*
X695Y766D01*
X1270Y766D02*
X1277Y766D01*
X0Y765D02*
X7Y765D01*
X653Y765D02*
X700Y765D01*
X1270Y765D02*
X1277Y765D01*
X0Y764D02*
X7Y764D01*
X650Y764D02*
X703Y764D01*
X1270Y764D02*
X1277Y764D01*
X0Y763D02*
X7Y763D01*
X647Y763D02*
X707Y763D01*
X1270Y763D02*
X1277Y763D01*
X0Y762D02*
X7Y762D01*
X644Y762D02*
X709Y762D01*
X1270Y762D02*
X1277Y762D01*
X0Y761D02*
X7Y761D01*
X641Y761D02*
X712Y761D01*
X1270Y761D02*
X1277Y761D01*
X0Y760D02*
X7Y760D01*
X638Y760D02*
X715Y760D01*
X1270Y760D02*
X1277Y760D01*
X0Y759D02*
X7Y759D01*
X636Y759D02*
X717Y759D01*
X1270Y759D02*
X1277Y759D01*
X0Y758D02*
X7Y758D01*
X634Y758D02*
X673Y758D01*
X680Y758D02*
X719Y758D01*
X1270Y758D02*
X1277Y758D01*
X0Y757D02*
X7Y757D01*
X632Y757D02*
X662Y757D01*
X691Y757D02*
X721Y757D01*
X1270Y757D02*
X1277Y757D01*
X0Y756D02*
X7Y756D01*
X630Y756D02*
X657Y756D01*
X696Y756D02*
X723Y756D01*
X1270Y756D02*
X1277Y756D01*
X0Y755D02*
X7Y755D01*
X628Y755D02*
X653Y755D01*
X700Y755D02*
X725Y755D01*
X1270Y755D02*
X1277Y755D01*
X0Y754D02*
X7Y754D01*
X627Y754D02*
X649Y754D01*
X704Y754D02*
X726Y754D01*
X1270Y754D02*
X1277Y754D01*
X0Y753D02*
X7Y753D01*
X227Y753D02*
X252Y753D01*
X625Y753D02*
X646Y753D01*
X707Y753D02*
X728Y753D01*
X1270Y753D02*
X1277Y753D01*
X0Y752D02*
X7Y752D01*
X221Y752D02*
X258Y752D01*
X623Y752D02*
X644Y752D01*
X710Y752D02*
X730Y752D01*
X1270Y752D02*
X1277Y752D01*
X0Y751D02*
X7Y751D01*
X216Y751D02*
X263Y751D01*
X622Y751D02*
X641Y751D01*
X712Y751D02*
X731Y751D01*
X1270Y751D02*
X1277Y751D01*
X0Y750D02*
X7Y750D01*
X212Y750D02*
X267Y750D01*
X620Y750D02*
X639Y750D01*
X714Y750D02*
X733Y750D01*
X1270Y750D02*
X1277Y750D01*
X0Y749D02*
X7Y749D01*
X209Y749D02*
X270Y749D01*
X619Y749D02*
X637Y749D01*
X716Y749D02*
X734Y749D01*
X1270Y749D02*
X1277Y749D01*
X0Y748D02*
X7Y748D01*
X206Y748D02*
X273Y748D01*
X618Y748D02*
X635Y748D01*
X718Y748D02*
X735Y748D01*
X1270Y748D02*
X1277Y748D01*
X0Y747D02*
X7Y747D01*
X203Y747D02*
X276Y747D01*
X616Y747D02*
X633Y747D01*
X720Y747D02*
X737Y747D01*
X1270Y747D02*
X1277Y747D01*
X0Y746D02*
X7Y746D01*
X200Y746D02*
X278Y746D01*
X615Y746D02*
X631Y746D01*
X722Y746D02*
X738Y746D01*
X1270Y746D02*
X1277Y746D01*
X0Y745D02*
X7Y745D01*
X198Y745D02*
X281Y745D01*
X614Y745D02*
X630Y745D01*
X724Y745D02*
X739Y745D01*
X1270Y745D02*
X1277Y745D01*
X0Y744D02*
X7Y744D01*
X196Y744D02*
X283Y744D01*
X613Y744D02*
X628Y744D01*
X725Y744D02*
X740Y744D01*
X1270Y744D02*
X1277Y744D01*
X0Y743D02*
X7Y743D01*
X194Y743D02*
X226Y743D01*
X253Y743D02*
X285Y743D01*
X612Y743D02*
X626Y743D01*
X727Y743D02*
X742Y743D01*
X1270Y743D02*
X1277Y743D01*
X0Y742D02*
X7Y742D01*
X192Y742D02*
X220Y742D01*
X259Y742D02*
X287Y742D01*
X611Y742D02*
X625Y742D01*
X728Y742D02*
X743Y742D01*
X1270Y742D02*
X1277Y742D01*
X0Y741D02*
X7Y741D01*
X190Y741D02*
X215Y741D01*
X263Y741D02*
X289Y741D01*
X609Y741D02*
X624Y741D01*
X729Y741D02*
X744Y741D01*
X1270Y741D02*
X1277Y741D01*
X0Y740D02*
X7Y740D01*
X188Y740D02*
X212Y740D01*
X267Y740D02*
X291Y740D01*
X608Y740D02*
X622Y740D01*
X731Y740D02*
X745Y740D01*
X1270Y740D02*
X1277Y740D01*
X0Y739D02*
X7Y739D01*
X186Y739D02*
X209Y739D01*
X270Y739D02*
X292Y739D01*
X607Y739D02*
X621Y739D01*
X732Y739D02*
X746Y739D01*
X1270Y739D02*
X1277Y739D01*
X0Y738D02*
X7Y738D01*
X185Y738D02*
X206Y738D01*
X273Y738D02*
X294Y738D01*
X606Y738D02*
X620Y738D01*
X733Y738D02*
X747Y738D01*
X1270Y738D02*
X1277Y738D01*
X0Y737D02*
X7Y737D01*
X183Y737D02*
X203Y737D01*
X275Y737D02*
X296Y737D01*
X605Y737D02*
X619Y737D01*
X734Y737D02*
X748Y737D01*
X1270Y737D02*
X1277Y737D01*
X0Y736D02*
X7Y736D01*
X181Y736D02*
X201Y736D01*
X278Y736D02*
X297Y736D01*
X605Y736D02*
X618Y736D01*
X736Y736D02*
X749Y736D01*
X1270Y736D02*
X1277Y736D01*
X0Y735D02*
X7Y735D01*
X180Y735D02*
X199Y735D01*
X280Y735D02*
X299Y735D01*
X604Y735D02*
X616Y735D01*
X737Y735D02*
X750Y735D01*
X1270Y735D02*
X1277Y735D01*
X0Y734D02*
X7Y734D01*
X179Y734D02*
X197Y734D01*
X282Y734D02*
X300Y734D01*
X603Y734D02*
X615Y734D01*
X738Y734D02*
X750Y734D01*
X1270Y734D02*
X1277Y734D01*
X0Y733D02*
X7Y733D01*
X177Y733D02*
X195Y733D01*
X284Y733D02*
X301Y733D01*
X602Y733D02*
X614Y733D01*
X739Y733D02*
X751Y733D01*
X1270Y733D02*
X1277Y733D01*
X0Y732D02*
X7Y732D01*
X176Y732D02*
X193Y732D01*
X286Y732D02*
X303Y732D01*
X601Y732D02*
X613Y732D01*
X740Y732D02*
X752Y732D01*
X1270Y732D02*
X1277Y732D01*
X0Y731D02*
X7Y731D01*
X175Y731D02*
X191Y731D01*
X288Y731D02*
X304Y731D01*
X600Y731D02*
X612Y731D01*
X741Y731D02*
X753Y731D01*
X1270Y731D02*
X1277Y731D01*
X0Y730D02*
X7Y730D01*
X173Y730D02*
X190Y730D01*
X289Y730D02*
X305Y730D01*
X600Y730D02*
X611Y730D01*
X742Y730D02*
X754Y730D01*
X1270Y730D02*
X1277Y730D01*
X0Y729D02*
X7Y729D01*
X172Y729D02*
X188Y729D01*
X291Y729D02*
X307Y729D01*
X599Y729D02*
X610Y729D01*
X743Y729D02*
X754Y729D01*
X1270Y729D02*
X1277Y729D01*
X0Y728D02*
X7Y728D01*
X171Y728D02*
X186Y728D01*
X292Y728D02*
X308Y728D01*
X598Y728D02*
X610Y728D01*
X744Y728D02*
X755Y728D01*
X1270Y728D02*
X1277Y728D01*
X0Y727D02*
X7Y727D01*
X170Y727D02*
X185Y727D01*
X294Y727D02*
X309Y727D01*
X597Y727D02*
X609Y727D01*
X745Y727D02*
X756Y727D01*
X1270Y727D02*
X1277Y727D01*
X0Y726D02*
X7Y726D01*
X169Y726D02*
X184Y726D01*
X295Y726D02*
X310Y726D01*
X597Y726D02*
X608Y726D01*
X745Y726D02*
X757Y726D01*
X1270Y726D02*
X1277Y726D01*
X0Y725D02*
X7Y725D01*
X168Y725D02*
X182Y725D01*
X296Y725D02*
X311Y725D01*
X596Y725D02*
X607Y725D01*
X746Y725D02*
X757Y725D01*
X1270Y725D02*
X1277Y725D01*
X0Y724D02*
X7Y724D01*
X167Y724D02*
X181Y724D01*
X298Y724D02*
X312Y724D01*
X595Y724D02*
X606Y724D01*
X747Y724D02*
X758Y724D01*
X1270Y724D02*
X1277Y724D01*
X0Y723D02*
X7Y723D01*
X166Y723D02*
X180Y723D01*
X299Y723D02*
X313Y723D01*
X595Y723D02*
X605Y723D01*
X748Y723D02*
X759Y723D01*
X1270Y723D02*
X1277Y723D01*
X0Y722D02*
X7Y722D01*
X165Y722D02*
X178Y722D01*
X300Y722D02*
X314Y722D01*
X594Y722D02*
X605Y722D01*
X748Y722D02*
X759Y722D01*
X1270Y722D02*
X1277Y722D01*
X0Y721D02*
X7Y721D01*
X164Y721D02*
X177Y721D01*
X302Y721D02*
X315Y721D01*
X593Y721D02*
X604Y721D01*
X749Y721D02*
X760Y721D01*
X1270Y721D02*
X1277Y721D01*
X0Y720D02*
X7Y720D01*
X163Y720D02*
X176Y720D01*
X303Y720D02*
X316Y720D01*
X593Y720D02*
X603Y720D01*
X750Y720D02*
X760Y720D01*
X1270Y720D02*
X1277Y720D01*
X0Y719D02*
X7Y719D01*
X162Y719D02*
X175Y719D01*
X304Y719D02*
X317Y719D01*
X592Y719D02*
X603Y719D01*
X751Y719D02*
X761Y719D01*
X1270Y719D02*
X1277Y719D01*
X0Y718D02*
X7Y718D01*
X161Y718D02*
X174Y718D01*
X305Y718D02*
X318Y718D01*
X592Y718D02*
X602Y718D01*
X751Y718D02*
X762Y718D01*
X1270Y718D02*
X1277Y718D01*
X0Y717D02*
X7Y717D01*
X160Y717D02*
X173Y717D01*
X306Y717D02*
X319Y717D01*
X591Y717D02*
X601Y717D01*
X752Y717D02*
X762Y717D01*
X1270Y717D02*
X1277Y717D01*
X0Y716D02*
X7Y716D01*
X159Y716D02*
X172Y716D01*
X307Y716D02*
X319Y716D01*
X591Y716D02*
X601Y716D01*
X752Y716D02*
X763Y716D01*
X1270Y716D02*
X1277Y716D01*
X0Y715D02*
X7Y715D01*
X158Y715D02*
X171Y715D01*
X308Y715D02*
X320Y715D01*
X590Y715D02*
X600Y715D01*
X753Y715D02*
X763Y715D01*
X1270Y715D02*
X1277Y715D01*
X0Y714D02*
X7Y714D01*
X158Y714D02*
X170Y714D01*
X309Y714D02*
X321Y714D01*
X590Y714D02*
X599Y714D01*
X754Y714D02*
X764Y714D01*
X1270Y714D02*
X1277Y714D01*
X0Y713D02*
X7Y713D01*
X157Y713D02*
X169Y713D01*
X310Y713D02*
X322Y713D01*
X589Y713D02*
X599Y713D01*
X754Y713D02*
X764Y713D01*
X1270Y713D02*
X1277Y713D01*
X0Y712D02*
X7Y712D01*
X156Y712D02*
X168Y712D01*
X311Y712D02*
X322Y712D01*
X589Y712D02*
X598Y712D01*
X755Y712D02*
X765Y712D01*
X1270Y712D02*
X1277Y712D01*
X0Y711D02*
X7Y711D01*
X155Y711D02*
X167Y711D01*
X312Y711D02*
X323Y711D01*
X588Y711D02*
X598Y711D01*
X755Y711D02*
X765Y711D01*
X1270Y711D02*
X1277Y711D01*
X0Y710D02*
X7Y710D01*
X155Y710D02*
X166Y710D01*
X312Y710D02*
X324Y710D01*
X588Y710D02*
X597Y710D01*
X756Y710D02*
X766Y710D01*
X1270Y710D02*
X1277Y710D01*
X0Y709D02*
X7Y709D01*
X154Y709D02*
X165Y709D01*
X273Y709D02*
X306Y709D01*
X313Y709D02*
X325Y709D01*
X587Y709D02*
X597Y709D01*
X756Y709D02*
X766Y709D01*
X1270Y709D02*
X1277Y709D01*
X0Y708D02*
X7Y708D01*
X153Y708D02*
X165Y708D01*
X271Y708D02*
X307Y708D01*
X314Y708D02*
X325Y708D01*
X587Y708D02*
X596Y708D01*
X757Y708D02*
X766Y708D01*
X1270Y708D02*
X1277Y708D01*
X0Y707D02*
X7Y707D01*
X153Y707D02*
X164Y707D01*
X270Y707D02*
X308Y707D01*
X315Y707D02*
X326Y707D01*
X586Y707D02*
X596Y707D01*
X757Y707D02*
X767Y707D01*
X1270Y707D02*
X1277Y707D01*
X0Y706D02*
X7Y706D01*
X152Y706D02*
X163Y706D01*
X270Y706D02*
X309Y706D01*
X316Y706D02*
X327Y706D01*
X586Y706D02*
X595Y706D01*
X758Y706D02*
X767Y706D01*
X1270Y706D02*
X1277Y706D01*
X0Y705D02*
X7Y705D01*
X151Y705D02*
X162Y705D01*
X270Y705D02*
X309Y705D01*
X316Y705D02*
X327Y705D01*
X586Y705D02*
X595Y705D01*
X758Y705D02*
X767Y705D01*
X1270Y705D02*
X1277Y705D01*
X0Y704D02*
X7Y704D01*
X151Y704D02*
X162Y704D01*
X269Y704D02*
X309Y704D01*
X317Y704D02*
X328Y704D01*
X585Y704D02*
X595Y704D01*
X758Y704D02*
X768Y704D01*
X1270Y704D02*
X1277Y704D01*
X0Y703D02*
X7Y703D01*
X150Y703D02*
X161Y703D01*
X270Y703D02*
X309Y703D01*
X318Y703D02*
X329Y703D01*
X585Y703D02*
X594Y703D01*
X759Y703D02*
X768Y703D01*
X1270Y703D02*
X1277Y703D01*
X0Y702D02*
X7Y702D01*
X150Y702D02*
X160Y702D01*
X270Y702D02*
X309Y702D01*
X319Y702D02*
X329Y702D01*
X585Y702D02*
X594Y702D01*
X759Y702D02*
X769Y702D01*
X1270Y702D02*
X1277Y702D01*
X0Y701D02*
X7Y701D01*
X149Y701D02*
X159Y701D01*
X270Y701D02*
X308Y701D01*
X319Y701D02*
X330Y701D01*
X584Y701D02*
X594Y701D01*
X760Y701D02*
X769Y701D01*
X1270Y701D02*
X1277Y701D01*
X0Y700D02*
X7Y700D01*
X148Y700D02*
X159Y700D01*
X271Y700D02*
X308Y700D01*
X320Y700D02*
X330Y700D01*
X584Y700D02*
X593Y700D01*
X760Y700D02*
X769Y700D01*
X1270Y700D02*
X1277Y700D01*
X0Y699D02*
X7Y699D01*
X148Y699D02*
X158Y699D01*
X272Y699D02*
X306Y699D01*
X320Y699D02*
X331Y699D01*
X584Y699D02*
X593Y699D01*
X760Y699D02*
X770Y699D01*
X1270Y699D02*
X1277Y699D01*
X0Y698D02*
X7Y698D01*
X147Y698D02*
X158Y698D01*
X321Y698D02*
X331Y698D01*
X583Y698D02*
X592Y698D01*
X761Y698D02*
X770Y698D01*
X1270Y698D02*
X1277Y698D01*
X0Y697D02*
X7Y697D01*
X147Y697D02*
X157Y697D01*
X322Y697D02*
X332Y697D01*
X583Y697D02*
X592Y697D01*
X761Y697D02*
X770Y697D01*
X1270Y697D02*
X1277Y697D01*
X0Y696D02*
X7Y696D01*
X146Y696D02*
X156Y696D01*
X322Y696D02*
X332Y696D01*
X583Y696D02*
X592Y696D01*
X761Y696D02*
X770Y696D01*
X1270Y696D02*
X1277Y696D01*
X0Y695D02*
X7Y695D01*
X146Y695D02*
X156Y695D01*
X323Y695D02*
X333Y695D01*
X583Y695D02*
X592Y695D01*
X762Y695D02*
X771Y695D01*
X1270Y695D02*
X1277Y695D01*
X0Y694D02*
X7Y694D01*
X145Y694D02*
X155Y694D01*
X323Y694D02*
X333Y694D01*
X582Y694D02*
X591Y694D01*
X762Y694D02*
X771Y694D01*
X1270Y694D02*
X1277Y694D01*
X0Y693D02*
X7Y693D01*
X145Y693D02*
X155Y693D01*
X324Y693D02*
X334Y693D01*
X582Y693D02*
X591Y693D01*
X762Y693D02*
X771Y693D01*
X1270Y693D02*
X1277Y693D01*
X0Y692D02*
X7Y692D01*
X144Y692D02*
X154Y692D01*
X324Y692D02*
X334Y692D01*
X582Y692D02*
X591Y692D01*
X762Y692D02*
X771Y692D01*
X1270Y692D02*
X1277Y692D01*
X0Y691D02*
X7Y691D01*
X144Y691D02*
X154Y691D01*
X332Y691D02*
X335Y691D01*
X582Y691D02*
X591Y691D01*
X763Y691D02*
X772Y691D01*
X1270Y691D02*
X1277Y691D01*
X0Y690D02*
X7Y690D01*
X143Y690D02*
X153Y690D01*
X332Y690D02*
X335Y690D01*
X581Y690D02*
X590Y690D01*
X763Y690D02*
X772Y690D01*
X1270Y690D02*
X1277Y690D01*
X0Y689D02*
X7Y689D01*
X143Y689D02*
X153Y689D01*
X332Y689D02*
X336Y689D01*
X581Y689D02*
X590Y689D01*
X763Y689D02*
X772Y689D01*
X1270Y689D02*
X1277Y689D01*
X0Y688D02*
X7Y688D01*
X143Y688D02*
X152Y688D01*
X332Y688D02*
X336Y688D01*
X581Y688D02*
X590Y688D01*
X763Y688D02*
X772Y688D01*
X1270Y688D02*
X1277Y688D01*
X0Y687D02*
X7Y687D01*
X142Y687D02*
X152Y687D01*
X332Y687D02*
X337Y687D01*
X581Y687D02*
X590Y687D01*
X763Y687D02*
X772Y687D01*
X1270Y687D02*
X1277Y687D01*
X0Y686D02*
X7Y686D01*
X142Y686D02*
X151Y686D01*
X332Y686D02*
X337Y686D01*
X581Y686D02*
X590Y686D01*
X764Y686D02*
X772Y686D01*
X1270Y686D02*
X1277Y686D01*
X0Y685D02*
X7Y685D01*
X141Y685D02*
X151Y685D01*
X332Y685D02*
X337Y685D01*
X581Y685D02*
X589Y685D01*
X764Y685D02*
X773Y685D01*
X1270Y685D02*
X1277Y685D01*
X0Y684D02*
X7Y684D01*
X141Y684D02*
X151Y684D01*
X332Y684D02*
X338Y684D01*
X580Y684D02*
X589Y684D01*
X764Y684D02*
X773Y684D01*
X1270Y684D02*
X1277Y684D01*
X0Y683D02*
X7Y683D01*
X141Y683D02*
X150Y683D01*
X332Y683D02*
X338Y683D01*
X580Y683D02*
X589Y683D01*
X764Y683D02*
X773Y683D01*
X1270Y683D02*
X1277Y683D01*
X0Y682D02*
X7Y682D01*
X140Y682D02*
X150Y682D01*
X332Y682D02*
X338Y682D01*
X580Y682D02*
X589Y682D01*
X764Y682D02*
X773Y682D01*
X1270Y682D02*
X1277Y682D01*
X0Y681D02*
X7Y681D01*
X140Y681D02*
X150Y681D01*
X332Y681D02*
X339Y681D01*
X580Y681D02*
X589Y681D01*
X764Y681D02*
X773Y681D01*
X1270Y681D02*
X1277Y681D01*
X0Y680D02*
X7Y680D01*
X140Y680D02*
X149Y680D01*
X332Y680D02*
X339Y680D01*
X580Y680D02*
X589Y680D01*
X764Y680D02*
X773Y680D01*
X1270Y680D02*
X1277Y680D01*
X0Y679D02*
X7Y679D01*
X139Y679D02*
X149Y679D01*
X332Y679D02*
X339Y679D01*
X580Y679D02*
X589Y679D01*
X764Y679D02*
X773Y679D01*
X1270Y679D02*
X1277Y679D01*
X0Y678D02*
X7Y678D01*
X139Y678D02*
X148Y678D01*
X332Y678D02*
X340Y678D01*
X580Y678D02*
X589Y678D01*
X764Y678D02*
X773Y678D01*
X1270Y678D02*
X1277Y678D01*
X0Y677D02*
X7Y677D01*
X139Y677D02*
X148Y677D01*
X332Y677D02*
X340Y677D01*
X580Y677D02*
X589Y677D01*
X764Y677D02*
X773Y677D01*
X1270Y677D02*
X1277Y677D01*
X0Y676D02*
X7Y676D01*
X139Y676D02*
X148Y676D01*
X332Y676D02*
X340Y676D01*
X580Y676D02*
X589Y676D01*
X765Y676D02*
X773Y676D01*
X1270Y676D02*
X1277Y676D01*
X0Y675D02*
X7Y675D01*
X138Y675D02*
X148Y675D01*
X332Y675D02*
X340Y675D01*
X580Y675D02*
X589Y675D01*
X765Y675D02*
X773Y675D01*
X1270Y675D02*
X1277Y675D01*
X0Y674D02*
X7Y674D01*
X138Y674D02*
X147Y674D01*
X332Y674D02*
X341Y674D01*
X580Y674D02*
X589Y674D01*
X765Y674D02*
X773Y674D01*
X1270Y674D02*
X1277Y674D01*
X0Y673D02*
X7Y673D01*
X138Y673D02*
X147Y673D01*
X332Y673D02*
X341Y673D01*
X580Y673D02*
X589Y673D01*
X765Y673D02*
X773Y673D01*
X1270Y673D02*
X1277Y673D01*
X0Y672D02*
X7Y672D01*
X138Y672D02*
X147Y672D01*
X332Y672D02*
X341Y672D01*
X580Y672D02*
X589Y672D01*
X765Y672D02*
X773Y672D01*
X1270Y672D02*
X1277Y672D01*
X0Y671D02*
X7Y671D01*
X137Y671D02*
X146Y671D01*
X332Y671D02*
X341Y671D01*
X580Y671D02*
X589Y671D01*
X765Y671D02*
X773Y671D01*
X1270Y671D02*
X1277Y671D01*
X0Y670D02*
X7Y670D01*
X137Y670D02*
X146Y670D01*
X332Y670D02*
X342Y670D01*
X580Y670D02*
X589Y670D01*
X765Y670D02*
X773Y670D01*
X1270Y670D02*
X1277Y670D01*
X0Y669D02*
X7Y669D01*
X137Y669D02*
X146Y669D01*
X333Y669D02*
X342Y669D01*
X580Y669D02*
X589Y669D01*
X765Y669D02*
X773Y669D01*
X1270Y669D02*
X1277Y669D01*
X0Y668D02*
X7Y668D01*
X137Y668D02*
X146Y668D01*
X333Y668D02*
X342Y668D01*
X580Y668D02*
X589Y668D01*
X765Y668D02*
X773Y668D01*
X1270Y668D02*
X1277Y668D01*
X0Y667D02*
X7Y667D01*
X137Y667D02*
X146Y667D01*
X333Y667D02*
X342Y667D01*
X580Y667D02*
X589Y667D01*
X765Y667D02*
X773Y667D01*
X1270Y667D02*
X1277Y667D01*
X0Y666D02*
X7Y666D01*
X136Y666D02*
X145Y666D01*
X333Y666D02*
X342Y666D01*
X580Y666D02*
X589Y666D01*
X765Y666D02*
X773Y666D01*
X1270Y666D02*
X1277Y666D01*
X0Y665D02*
X7Y665D01*
X136Y665D02*
X145Y665D01*
X333Y665D02*
X343Y665D01*
X580Y665D02*
X589Y665D01*
X765Y665D02*
X773Y665D01*
X1270Y665D02*
X1277Y665D01*
X0Y664D02*
X7Y664D01*
X136Y664D02*
X145Y664D01*
X334Y664D02*
X343Y664D01*
X580Y664D02*
X589Y664D01*
X765Y664D02*
X773Y664D01*
X1270Y664D02*
X1277Y664D01*
X0Y663D02*
X7Y663D01*
X136Y663D02*
X145Y663D01*
X334Y663D02*
X343Y663D01*
X580Y663D02*
X589Y663D01*
X765Y663D02*
X773Y663D01*
X1270Y663D02*
X1277Y663D01*
X0Y662D02*
X7Y662D01*
X136Y662D02*
X145Y662D01*
X334Y662D02*
X343Y662D01*
X580Y662D02*
X589Y662D01*
X765Y662D02*
X773Y662D01*
X1270Y662D02*
X1277Y662D01*
X0Y661D02*
X7Y661D01*
X136Y661D02*
X145Y661D01*
X334Y661D02*
X343Y661D01*
X580Y661D02*
X589Y661D01*
X765Y661D02*
X773Y661D01*
X1270Y661D02*
X1277Y661D01*
X0Y660D02*
X7Y660D01*
X136Y660D02*
X145Y660D01*
X334Y660D02*
X343Y660D01*
X580Y660D02*
X589Y660D01*
X765Y660D02*
X773Y660D01*
X1270Y660D02*
X1277Y660D01*
X0Y659D02*
X7Y659D01*
X135Y659D02*
X144Y659D01*
X334Y659D02*
X343Y659D01*
X580Y659D02*
X589Y659D01*
X765Y659D02*
X773Y659D01*
X1270Y659D02*
X1277Y659D01*
X0Y658D02*
X7Y658D01*
X135Y658D02*
X144Y658D01*
X334Y658D02*
X343Y658D01*
X580Y658D02*
X589Y658D01*
X765Y658D02*
X773Y658D01*
X1270Y658D02*
X1277Y658D01*
X0Y657D02*
X7Y657D01*
X135Y657D02*
X144Y657D01*
X334Y657D02*
X343Y657D01*
X580Y657D02*
X589Y657D01*
X765Y657D02*
X773Y657D01*
X1270Y657D02*
X1277Y657D01*
X0Y656D02*
X7Y656D01*
X135Y656D02*
X144Y656D01*
X335Y656D02*
X344Y656D01*
X580Y656D02*
X589Y656D01*
X765Y656D02*
X773Y656D01*
X1270Y656D02*
X1277Y656D01*
X0Y655D02*
X7Y655D01*
X135Y655D02*
X144Y655D01*
X335Y655D02*
X344Y655D01*
X580Y655D02*
X589Y655D01*
X765Y655D02*
X773Y655D01*
X1270Y655D02*
X1277Y655D01*
X0Y654D02*
X7Y654D01*
X135Y654D02*
X144Y654D01*
X335Y654D02*
X344Y654D01*
X580Y654D02*
X589Y654D01*
X765Y654D02*
X773Y654D01*
X1270Y654D02*
X1277Y654D01*
X0Y653D02*
X7Y653D01*
X135Y653D02*
X144Y653D01*
X335Y653D02*
X344Y653D01*
X580Y653D02*
X589Y653D01*
X765Y653D02*
X773Y653D01*
X1270Y653D02*
X1277Y653D01*
X0Y652D02*
X7Y652D01*
X135Y652D02*
X144Y652D01*
X335Y652D02*
X344Y652D01*
X580Y652D02*
X589Y652D01*
X765Y652D02*
X773Y652D01*
X1270Y652D02*
X1277Y652D01*
X0Y651D02*
X7Y651D01*
X135Y651D02*
X144Y651D01*
X335Y651D02*
X344Y651D01*
X580Y651D02*
X589Y651D01*
X765Y651D02*
X773Y651D01*
X1270Y651D02*
X1277Y651D01*
X0Y650D02*
X7Y650D01*
X135Y650D02*
X144Y650D01*
X335Y650D02*
X344Y650D01*
X580Y650D02*
X589Y650D01*
X765Y650D02*
X773Y650D01*
X1270Y650D02*
X1277Y650D01*
X0Y649D02*
X7Y649D01*
X135Y649D02*
X144Y649D01*
X335Y649D02*
X344Y649D01*
X580Y649D02*
X589Y649D01*
X765Y649D02*
X773Y649D01*
X1270Y649D02*
X1277Y649D01*
X0Y648D02*
X7Y648D01*
X135Y648D02*
X144Y648D01*
X335Y648D02*
X344Y648D01*
X580Y648D02*
X589Y648D01*
X765Y648D02*
X773Y648D01*
X1270Y648D02*
X1277Y648D01*
X0Y647D02*
X7Y647D01*
X135Y647D02*
X144Y647D01*
X335Y647D02*
X344Y647D01*
X580Y647D02*
X589Y647D01*
X765Y647D02*
X773Y647D01*
X1270Y647D02*
X1277Y647D01*
X0Y646D02*
X7Y646D01*
X135Y646D02*
X144Y646D01*
X335Y646D02*
X344Y646D01*
X580Y646D02*
X589Y646D01*
X765Y646D02*
X773Y646D01*
X1270Y646D02*
X1277Y646D01*
X0Y645D02*
X7Y645D01*
X135Y645D02*
X144Y645D01*
X335Y645D02*
X344Y645D01*
X580Y645D02*
X589Y645D01*
X765Y645D02*
X773Y645D01*
X1270Y645D02*
X1277Y645D01*
X0Y644D02*
X7Y644D01*
X135Y644D02*
X144Y644D01*
X335Y644D02*
X344Y644D01*
X580Y644D02*
X589Y644D01*
X765Y644D02*
X773Y644D01*
X1270Y644D02*
X1277Y644D01*
X0Y643D02*
X7Y643D01*
X135Y643D02*
X144Y643D01*
X335Y643D02*
X344Y643D01*
X580Y643D02*
X589Y643D01*
X765Y643D02*
X773Y643D01*
X1270Y643D02*
X1277Y643D01*
X0Y642D02*
X7Y642D01*
X135Y642D02*
X144Y642D01*
X335Y642D02*
X344Y642D01*
X580Y642D02*
X589Y642D01*
X765Y642D02*
X773Y642D01*
X1270Y642D02*
X1277Y642D01*
X0Y641D02*
X7Y641D01*
X135Y641D02*
X144Y641D01*
X334Y641D02*
X343Y641D01*
X580Y641D02*
X589Y641D01*
X765Y641D02*
X773Y641D01*
X1270Y641D02*
X1277Y641D01*
X0Y640D02*
X7Y640D01*
X135Y640D02*
X144Y640D01*
X334Y640D02*
X343Y640D01*
X580Y640D02*
X589Y640D01*
X765Y640D02*
X773Y640D01*
X1270Y640D02*
X1277Y640D01*
X0Y639D02*
X7Y639D01*
X135Y639D02*
X144Y639D01*
X334Y639D02*
X343Y639D01*
X580Y639D02*
X589Y639D01*
X765Y639D02*
X773Y639D01*
X1270Y639D02*
X1277Y639D01*
X0Y638D02*
X7Y638D01*
X135Y638D02*
X145Y638D01*
X334Y638D02*
X343Y638D01*
X580Y638D02*
X589Y638D01*
X765Y638D02*
X773Y638D01*
X1270Y638D02*
X1277Y638D01*
X0Y637D02*
X7Y637D01*
X136Y637D02*
X145Y637D01*
X334Y637D02*
X343Y637D01*
X580Y637D02*
X589Y637D01*
X765Y637D02*
X773Y637D01*
X1270Y637D02*
X1277Y637D01*
X0Y636D02*
X7Y636D01*
X136Y636D02*
X145Y636D01*
X334Y636D02*
X343Y636D01*
X580Y636D02*
X589Y636D01*
X765Y636D02*
X773Y636D01*
X1270Y636D02*
X1277Y636D01*
X0Y635D02*
X7Y635D01*
X136Y635D02*
X145Y635D01*
X334Y635D02*
X343Y635D01*
X580Y635D02*
X589Y635D01*
X765Y635D02*
X773Y635D01*
X1270Y635D02*
X1277Y635D01*
X0Y634D02*
X7Y634D01*
X136Y634D02*
X145Y634D01*
X334Y634D02*
X343Y634D01*
X580Y634D02*
X589Y634D01*
X765Y634D02*
X773Y634D01*
X1270Y634D02*
X1277Y634D01*
X0Y633D02*
X7Y633D01*
X136Y633D02*
X145Y633D01*
X333Y633D02*
X343Y633D01*
X580Y633D02*
X589Y633D01*
X765Y633D02*
X773Y633D01*
X1270Y633D02*
X1277Y633D01*
X0Y632D02*
X7Y632D01*
X136Y632D02*
X145Y632D01*
X333Y632D02*
X342Y632D01*
X580Y632D02*
X589Y632D01*
X765Y632D02*
X773Y632D01*
X1270Y632D02*
X1277Y632D01*
X0Y631D02*
X7Y631D01*
X137Y631D02*
X146Y631D01*
X333Y631D02*
X342Y631D01*
X580Y631D02*
X589Y631D01*
X765Y631D02*
X773Y631D01*
X1270Y631D02*
X1277Y631D01*
X0Y630D02*
X7Y630D01*
X137Y630D02*
X146Y630D01*
X333Y630D02*
X342Y630D01*
X580Y630D02*
X589Y630D01*
X765Y630D02*
X773Y630D01*
X1270Y630D02*
X1277Y630D01*
X0Y629D02*
X7Y629D01*
X137Y629D02*
X146Y629D01*
X333Y629D02*
X342Y629D01*
X580Y629D02*
X589Y629D01*
X765Y629D02*
X773Y629D01*
X1270Y629D02*
X1277Y629D01*
X0Y628D02*
X7Y628D01*
X137Y628D02*
X146Y628D01*
X333Y628D02*
X342Y628D01*
X580Y628D02*
X589Y628D01*
X765Y628D02*
X773Y628D01*
X1270Y628D02*
X1277Y628D01*
X0Y627D02*
X7Y627D01*
X137Y627D02*
X146Y627D01*
X332Y627D02*
X341Y627D01*
X580Y627D02*
X589Y627D01*
X765Y627D02*
X773Y627D01*
X1270Y627D02*
X1277Y627D01*
X0Y626D02*
X7Y626D01*
X138Y626D02*
X147Y626D01*
X332Y626D02*
X341Y626D01*
X580Y626D02*
X589Y626D01*
X765Y626D02*
X773Y626D01*
X1270Y626D02*
X1277Y626D01*
X0Y625D02*
X7Y625D01*
X138Y625D02*
X147Y625D01*
X332Y625D02*
X341Y625D01*
X580Y625D02*
X589Y625D01*
X765Y625D02*
X773Y625D01*
X1270Y625D02*
X1277Y625D01*
X0Y624D02*
X7Y624D01*
X138Y624D02*
X147Y624D01*
X332Y624D02*
X341Y624D01*
X580Y624D02*
X589Y624D01*
X765Y624D02*
X773Y624D01*
X1270Y624D02*
X1277Y624D01*
X0Y623D02*
X7Y623D01*
X138Y623D02*
X147Y623D01*
X332Y623D02*
X341Y623D01*
X580Y623D02*
X589Y623D01*
X765Y623D02*
X773Y623D01*
X1270Y623D02*
X1277Y623D01*
X0Y622D02*
X7Y622D01*
X138Y622D02*
X148Y622D01*
X332Y622D02*
X340Y622D01*
X580Y622D02*
X589Y622D01*
X765Y622D02*
X773Y622D01*
X1270Y622D02*
X1277Y622D01*
X0Y621D02*
X7Y621D01*
X139Y621D02*
X148Y621D01*
X332Y621D02*
X340Y621D01*
X580Y621D02*
X589Y621D01*
X765Y621D02*
X773Y621D01*
X1270Y621D02*
X1277Y621D01*
X0Y620D02*
X7Y620D01*
X139Y620D02*
X148Y620D01*
X332Y620D02*
X340Y620D01*
X580Y620D02*
X589Y620D01*
X765Y620D02*
X773Y620D01*
X1270Y620D02*
X1277Y620D01*
X0Y619D02*
X7Y619D01*
X139Y619D02*
X149Y619D01*
X332Y619D02*
X339Y619D01*
X580Y619D02*
X589Y619D01*
X765Y619D02*
X773Y619D01*
X1270Y619D02*
X1277Y619D01*
X0Y618D02*
X7Y618D01*
X140Y618D02*
X149Y618D01*
X332Y618D02*
X339Y618D01*
X580Y618D02*
X589Y618D01*
X765Y618D02*
X773Y618D01*
X1270Y618D02*
X1277Y618D01*
X0Y617D02*
X7Y617D01*
X140Y617D02*
X149Y617D01*
X332Y617D02*
X339Y617D01*
X580Y617D02*
X589Y617D01*
X765Y617D02*
X773Y617D01*
X1270Y617D02*
X1277Y617D01*
X0Y616D02*
X7Y616D01*
X140Y616D02*
X150Y616D01*
X332Y616D02*
X338Y616D01*
X580Y616D02*
X589Y616D01*
X765Y616D02*
X773Y616D01*
X1270Y616D02*
X1277Y616D01*
X0Y615D02*
X7Y615D01*
X141Y615D02*
X150Y615D01*
X332Y615D02*
X338Y615D01*
X580Y615D02*
X589Y615D01*
X765Y615D02*
X773Y615D01*
X1270Y615D02*
X1277Y615D01*
X0Y614D02*
X7Y614D01*
X141Y614D02*
X151Y614D01*
X332Y614D02*
X338Y614D01*
X580Y614D02*
X589Y614D01*
X765Y614D02*
X773Y614D01*
X789Y614D02*
X815Y614D01*
X1270Y614D02*
X1277Y614D01*
X0Y613D02*
X7Y613D01*
X141Y613D02*
X151Y613D01*
X332Y613D02*
X337Y613D01*
X580Y613D02*
X589Y613D01*
X765Y613D02*
X773Y613D01*
X787Y613D02*
X816Y613D01*
X1270Y613D02*
X1277Y613D01*
X0Y612D02*
X7Y612D01*
X142Y612D02*
X151Y612D01*
X332Y612D02*
X337Y612D01*
X580Y612D02*
X589Y612D01*
X765Y612D02*
X773Y612D01*
X787Y612D02*
X816Y612D01*
X1270Y612D02*
X1277Y612D01*
X0Y611D02*
X7Y611D01*
X142Y611D02*
X152Y611D01*
X332Y611D02*
X337Y611D01*
X580Y611D02*
X589Y611D01*
X765Y611D02*
X773Y611D01*
X787Y611D02*
X817Y611D01*
X1270Y611D02*
X1277Y611D01*
X0Y610D02*
X7Y610D01*
X142Y610D02*
X152Y610D01*
X332Y610D02*
X336Y610D01*
X580Y610D02*
X589Y610D01*
X765Y610D02*
X773Y610D01*
X787Y610D02*
X818Y610D01*
X1270Y610D02*
X1277Y610D01*
X0Y609D02*
X7Y609D01*
X143Y609D02*
X153Y609D01*
X332Y609D02*
X336Y609D01*
X580Y609D02*
X589Y609D01*
X765Y609D02*
X773Y609D01*
X787Y609D02*
X819Y609D01*
X1270Y609D02*
X1277Y609D01*
X0Y608D02*
X7Y608D01*
X143Y608D02*
X153Y608D01*
X332Y608D02*
X335Y608D01*
X580Y608D02*
X589Y608D01*
X765Y608D02*
X773Y608D01*
X788Y608D02*
X819Y608D01*
X1270Y608D02*
X1277Y608D01*
X0Y607D02*
X7Y607D01*
X144Y607D02*
X154Y607D01*
X332Y607D02*
X335Y607D01*
X580Y607D02*
X589Y607D01*
X765Y607D02*
X773Y607D01*
X1270Y607D02*
X1277Y607D01*
X0Y606D02*
X7Y606D01*
X144Y606D02*
X154Y606D01*
X325Y606D02*
X334Y606D01*
X580Y606D02*
X589Y606D01*
X765Y606D02*
X773Y606D01*
X1270Y606D02*
X1277Y606D01*
X0Y605D02*
X7Y605D01*
X145Y605D02*
X155Y605D01*
X324Y605D02*
X334Y605D01*
X580Y605D02*
X589Y605D01*
X765Y605D02*
X773Y605D01*
X1270Y605D02*
X1277Y605D01*
X0Y604D02*
X7Y604D01*
X145Y604D02*
X155Y604D01*
X324Y604D02*
X334Y604D01*
X580Y604D02*
X589Y604D01*
X765Y604D02*
X773Y604D01*
X1270Y604D02*
X1277Y604D01*
X0Y603D02*
X7Y603D01*
X146Y603D02*
X156Y603D01*
X323Y603D02*
X333Y603D01*
X580Y603D02*
X589Y603D01*
X765Y603D02*
X773Y603D01*
X1270Y603D02*
X1277Y603D01*
X0Y602D02*
X7Y602D01*
X146Y602D02*
X156Y602D01*
X322Y602D02*
X333Y602D01*
X580Y602D02*
X589Y602D01*
X765Y602D02*
X773Y602D01*
X1270Y602D02*
X1277Y602D01*
X0Y601D02*
X7Y601D01*
X147Y601D02*
X157Y601D01*
X322Y601D02*
X332Y601D01*
X580Y601D02*
X589Y601D01*
X765Y601D02*
X773Y601D01*
X1270Y601D02*
X1277Y601D01*
X0Y600D02*
X7Y600D01*
X147Y600D02*
X157Y600D01*
X321Y600D02*
X332Y600D01*
X580Y600D02*
X589Y600D01*
X765Y600D02*
X773Y600D01*
X1270Y600D02*
X1277Y600D01*
X0Y599D02*
X7Y599D01*
X148Y599D02*
X158Y599D01*
X273Y599D02*
X306Y599D01*
X321Y599D02*
X331Y599D01*
X580Y599D02*
X589Y599D01*
X765Y599D02*
X773Y599D01*
X1270Y599D02*
X1277Y599D01*
X0Y598D02*
X7Y598D01*
X148Y598D02*
X159Y598D01*
X271Y598D02*
X307Y598D01*
X320Y598D02*
X331Y598D01*
X580Y598D02*
X589Y598D01*
X765Y598D02*
X773Y598D01*
X1270Y598D02*
X1277Y598D01*
X0Y597D02*
X7Y597D01*
X149Y597D02*
X159Y597D01*
X270Y597D02*
X308Y597D01*
X319Y597D02*
X330Y597D01*
X580Y597D02*
X589Y597D01*
X765Y597D02*
X773Y597D01*
X1270Y597D02*
X1277Y597D01*
X0Y596D02*
X7Y596D01*
X149Y596D02*
X160Y596D01*
X270Y596D02*
X309Y596D01*
X319Y596D02*
X329Y596D01*
X580Y596D02*
X589Y596D01*
X765Y596D02*
X773Y596D01*
X1270Y596D02*
X1277Y596D01*
X0Y595D02*
X7Y595D01*
X150Y595D02*
X161Y595D01*
X270Y595D02*
X309Y595D01*
X318Y595D02*
X329Y595D01*
X580Y595D02*
X589Y595D01*
X765Y595D02*
X773Y595D01*
X1270Y595D02*
X1277Y595D01*
X0Y594D02*
X7Y594D01*
X151Y594D02*
X161Y594D01*
X269Y594D02*
X309Y594D01*
X317Y594D02*
X328Y594D01*
X580Y594D02*
X589Y594D01*
X765Y594D02*
X773Y594D01*
X1270Y594D02*
X1277Y594D01*
X0Y593D02*
X7Y593D01*
X151Y593D02*
X162Y593D01*
X270Y593D02*
X309Y593D01*
X317Y593D02*
X328Y593D01*
X580Y593D02*
X589Y593D01*
X765Y593D02*
X773Y593D01*
X1270Y593D02*
X1277Y593D01*
X0Y592D02*
X7Y592D01*
X152Y592D02*
X163Y592D01*
X270Y592D02*
X309Y592D01*
X316Y592D02*
X327Y592D01*
X580Y592D02*
X589Y592D01*
X765Y592D02*
X773Y592D01*
X1270Y592D02*
X1277Y592D01*
X0Y591D02*
X7Y591D01*
X152Y591D02*
X164Y591D01*
X270Y591D02*
X308Y591D01*
X315Y591D02*
X326Y591D01*
X580Y591D02*
X589Y591D01*
X765Y591D02*
X773Y591D01*
X834Y591D02*
X839Y591D01*
X1270Y591D02*
X1277Y591D01*
X0Y590D02*
X7Y590D01*
X153Y590D02*
X164Y590D01*
X271Y590D02*
X308Y590D01*
X314Y590D02*
X326Y590D01*
X580Y590D02*
X589Y590D01*
X765Y590D02*
X773Y590D01*
X831Y590D02*
X839Y590D01*
X1270Y590D02*
X1277Y590D01*
X0Y589D02*
X7Y589D01*
X154Y589D02*
X165Y589D01*
X272Y589D02*
X306Y589D01*
X314Y589D02*
X325Y589D01*
X580Y589D02*
X589Y589D01*
X765Y589D02*
X773Y589D01*
X827Y589D02*
X840Y589D01*
X1270Y589D02*
X1277Y589D01*
X0Y588D02*
X7Y588D01*
X155Y588D02*
X166Y588D01*
X313Y588D02*
X324Y588D01*
X580Y588D02*
X589Y588D01*
X635Y588D02*
X718Y588D01*
X765Y588D02*
X773Y588D01*
X824Y588D02*
X840Y588D01*
X1270Y588D02*
X1277Y588D01*
X0Y587D02*
X7Y587D01*
X155Y587D02*
X167Y587D01*
X312Y587D02*
X323Y587D01*
X580Y587D02*
X589Y587D01*
X634Y587D02*
X719Y587D01*
X765Y587D02*
X773Y587D01*
X820Y587D02*
X840Y587D01*
X1270Y587D02*
X1277Y587D01*
X0Y586D02*
X7Y586D01*
X156Y586D02*
X168Y586D01*
X311Y586D02*
X323Y586D01*
X580Y586D02*
X589Y586D01*
X633Y586D02*
X720Y586D01*
X765Y586D02*
X773Y586D01*
X817Y586D02*
X839Y586D01*
X1270Y586D02*
X1277Y586D01*
X0Y585D02*
X7Y585D01*
X157Y585D02*
X169Y585D01*
X310Y585D02*
X322Y585D01*
X580Y585D02*
X589Y585D01*
X633Y585D02*
X720Y585D01*
X765Y585D02*
X773Y585D01*
X813Y585D02*
X837Y585D01*
X1270Y585D02*
X1277Y585D01*
X0Y584D02*
X7Y584D01*
X157Y584D02*
X170Y584D01*
X309Y584D02*
X321Y584D01*
X580Y584D02*
X589Y584D01*
X633Y584D02*
X720Y584D01*
X765Y584D02*
X773Y584D01*
X810Y584D02*
X834Y584D01*
X1270Y584D02*
X1277Y584D01*
X0Y583D02*
X7Y583D01*
X158Y583D02*
X171Y583D01*
X308Y583D02*
X320Y583D01*
X580Y583D02*
X589Y583D01*
X633Y583D02*
X720Y583D01*
X765Y583D02*
X773Y583D01*
X807Y583D02*
X830Y583D01*
X1270Y583D02*
X1277Y583D01*
X0Y582D02*
X7Y582D01*
X159Y582D02*
X171Y582D01*
X307Y582D02*
X320Y582D01*
X580Y582D02*
X589Y582D01*
X633Y582D02*
X720Y582D01*
X765Y582D02*
X773Y582D01*
X803Y582D02*
X828Y582D01*
X1270Y582D02*
X1277Y582D01*
X0Y581D02*
X7Y581D01*
X160Y581D02*
X172Y581D01*
X306Y581D02*
X319Y581D01*
X580Y581D02*
X589Y581D01*
X634Y581D02*
X719Y581D01*
X765Y581D02*
X773Y581D01*
X800Y581D02*
X828Y581D01*
X1270Y581D02*
X1277Y581D01*
X0Y580D02*
X7Y580D01*
X161Y580D02*
X174Y580D01*
X305Y580D02*
X318Y580D01*
X580Y580D02*
X589Y580D01*
X635Y580D02*
X718Y580D01*
X765Y580D02*
X773Y580D01*
X796Y580D02*
X820Y580D01*
X822Y580D02*
X828Y580D01*
X1270Y580D02*
X1277Y580D01*
X0Y579D02*
X7Y579D01*
X162Y579D02*
X175Y579D01*
X304Y579D02*
X317Y579D01*
X580Y579D02*
X589Y579D01*
X638Y579D02*
X716Y579D01*
X765Y579D02*
X773Y579D01*
X793Y579D02*
X817Y579D01*
X822Y579D02*
X828Y579D01*
X1270Y579D02*
X1277Y579D01*
X0Y578D02*
X7Y578D01*
X163Y578D02*
X176Y578D01*
X303Y578D02*
X316Y578D01*
X580Y578D02*
X589Y578D01*
X765Y578D02*
X773Y578D01*
X789Y578D02*
X814Y578D01*
X822Y578D02*
X828Y578D01*
X1270Y578D02*
X1277Y578D01*
X0Y577D02*
X7Y577D01*
X163Y577D02*
X177Y577D01*
X302Y577D02*
X315Y577D01*
X580Y577D02*
X589Y577D01*
X765Y577D02*
X773Y577D01*
X788Y577D02*
X810Y577D01*
X822Y577D02*
X828Y577D01*
X1270Y577D02*
X1277Y577D01*
X0Y576D02*
X7Y576D01*
X164Y576D02*
X178Y576D01*
X301Y576D02*
X314Y576D01*
X580Y576D02*
X589Y576D01*
X765Y576D02*
X773Y576D01*
X787Y576D02*
X807Y576D01*
X822Y576D02*
X828Y576D01*
X1270Y576D02*
X1277Y576D01*
X0Y575D02*
X7Y575D01*
X165Y575D02*
X179Y575D01*
X300Y575D02*
X313Y575D01*
X580Y575D02*
X589Y575D01*
X765Y575D02*
X773Y575D01*
X787Y575D02*
X803Y575D01*
X822Y575D02*
X828Y575D01*
X1270Y575D02*
X1277Y575D01*
X0Y574D02*
X7Y574D01*
X166Y574D02*
X181Y574D01*
X298Y574D02*
X312Y574D01*
X580Y574D02*
X589Y574D01*
X765Y574D02*
X773Y574D01*
X787Y574D02*
X804Y574D01*
X822Y574D02*
X828Y574D01*
X1270Y574D02*
X1277Y574D01*
X0Y573D02*
X7Y573D01*
X167Y573D02*
X182Y573D01*
X297Y573D02*
X311Y573D01*
X580Y573D02*
X589Y573D01*
X765Y573D02*
X773Y573D01*
X787Y573D02*
X807Y573D01*
X822Y573D02*
X828Y573D01*
X1270Y573D02*
X1277Y573D01*
X0Y572D02*
X7Y572D01*
X169Y572D02*
X183Y572D01*
X296Y572D02*
X310Y572D01*
X580Y572D02*
X589Y572D01*
X765Y572D02*
X773Y572D01*
X788Y572D02*
X810Y572D01*
X822Y572D02*
X828Y572D01*
X1270Y572D02*
X1277Y572D01*
X0Y571D02*
X7Y571D01*
X170Y571D02*
X184Y571D01*
X294Y571D02*
X309Y571D01*
X580Y571D02*
X589Y571D01*
X765Y571D02*
X773Y571D01*
X790Y571D02*
X814Y571D01*
X822Y571D02*
X828Y571D01*
X1270Y571D02*
X1277Y571D01*
X0Y570D02*
X7Y570D01*
X171Y570D02*
X186Y570D01*
X293Y570D02*
X308Y570D01*
X580Y570D02*
X589Y570D01*
X765Y570D02*
X773Y570D01*
X793Y570D02*
X817Y570D01*
X822Y570D02*
X828Y570D01*
X1270Y570D02*
X1277Y570D01*
X0Y569D02*
X7Y569D01*
X172Y569D02*
X187Y569D01*
X291Y569D02*
X307Y569D01*
X580Y569D02*
X589Y569D01*
X765Y569D02*
X773Y569D01*
X797Y569D02*
X828Y569D01*
X1270Y569D02*
X1277Y569D01*
X0Y568D02*
X7Y568D01*
X173Y568D02*
X189Y568D01*
X290Y568D02*
X306Y568D01*
X580Y568D02*
X589Y568D01*
X765Y568D02*
X773Y568D01*
X800Y568D02*
X828Y568D01*
X1270Y568D02*
X1277Y568D01*
X0Y567D02*
X7Y567D01*
X174Y567D02*
X191Y567D01*
X288Y567D02*
X304Y567D01*
X580Y567D02*
X589Y567D01*
X765Y567D02*
X773Y567D01*
X803Y567D02*
X828Y567D01*
X1270Y567D02*
X1277Y567D01*
X0Y566D02*
X7Y566D01*
X176Y566D02*
X192Y566D01*
X286Y566D02*
X303Y566D01*
X580Y566D02*
X589Y566D01*
X765Y566D02*
X773Y566D01*
X807Y566D02*
X831Y566D01*
X1270Y566D02*
X1277Y566D01*
X0Y565D02*
X7Y565D01*
X177Y565D02*
X194Y565D01*
X285Y565D02*
X302Y565D01*
X580Y565D02*
X589Y565D01*
X765Y565D02*
X773Y565D01*
X810Y565D02*
X834Y565D01*
X1270Y565D02*
X1277Y565D01*
X0Y564D02*
X7Y564D01*
X178Y564D02*
X196Y564D01*
X283Y564D02*
X300Y564D01*
X372Y564D02*
X384Y564D01*
X401Y564D02*
X408Y564D01*
X426Y564D02*
X428Y564D01*
X446Y564D02*
X460Y564D01*
X580Y564D02*
X589Y564D01*
X765Y564D02*
X773Y564D01*
X814Y564D02*
X838Y564D01*
X1270Y564D02*
X1277Y564D01*
X0Y563D02*
X7Y563D01*
X34Y563D02*
X63Y563D01*
X180Y563D02*
X198Y563D01*
X280Y563D02*
X299Y563D01*
X370Y563D02*
X385Y563D01*
X400Y563D02*
X408Y563D01*
X425Y563D02*
X429Y563D01*
X445Y563D02*
X462Y563D01*
X580Y563D02*
X589Y563D01*
X765Y563D02*
X773Y563D01*
X817Y563D02*
X839Y563D01*
X1270Y563D02*
X1277Y563D01*
X0Y562D02*
X7Y562D01*
X33Y562D02*
X64Y562D01*
X181Y562D02*
X200Y562D01*
X278Y562D02*
X298Y562D01*
X369Y562D02*
X386Y562D01*
X400Y562D02*
X409Y562D01*
X425Y562D02*
X430Y562D01*
X444Y562D02*
X464Y562D01*
X580Y562D02*
X589Y562D01*
X765Y562D02*
X773Y562D01*
X821Y562D02*
X840Y562D01*
X1270Y562D02*
X1277Y562D01*
X0Y561D02*
X7Y561D01*
X33Y561D02*
X65Y561D01*
X183Y561D02*
X203Y561D01*
X276Y561D02*
X296Y561D01*
X368Y561D02*
X386Y561D01*
X400Y561D02*
X409Y561D01*
X425Y561D02*
X430Y561D01*
X444Y561D02*
X465Y561D01*
X580Y561D02*
X589Y561D01*
X765Y561D02*
X773Y561D01*
X824Y561D02*
X840Y561D01*
X1270Y561D02*
X1277Y561D01*
X0Y560D02*
X7Y560D01*
X33Y560D02*
X65Y560D01*
X184Y560D02*
X205Y560D01*
X273Y560D02*
X294Y560D01*
X367Y560D02*
X385Y560D01*
X400Y560D02*
X409Y560D01*
X425Y560D02*
X430Y560D01*
X445Y560D02*
X465Y560D01*
X580Y560D02*
X589Y560D01*
X765Y560D02*
X773Y560D01*
X827Y560D02*
X840Y560D01*
X1270Y560D02*
X1277Y560D01*
X0Y559D02*
X7Y559D01*
X33Y559D02*
X66Y559D01*
X186Y559D02*
X208Y559D01*
X271Y559D02*
X293Y559D01*
X366Y559D02*
X385Y559D01*
X400Y559D02*
X410Y559D01*
X425Y559D02*
X430Y559D01*
X445Y559D02*
X466Y559D01*
X580Y559D02*
X589Y559D01*
X765Y559D02*
X773Y559D01*
X831Y559D02*
X839Y559D01*
X1270Y559D02*
X1277Y559D01*
X0Y558D02*
X7Y558D01*
X34Y558D02*
X66Y558D01*
X188Y558D02*
X211Y558D01*
X268Y558D02*
X291Y558D01*
X365Y558D02*
X373Y558D01*
X400Y558D02*
X410Y558D01*
X425Y558D02*
X430Y558D01*
X450Y558D02*
X455Y558D01*
X460Y558D02*
X466Y558D01*
X580Y558D02*
X589Y558D01*
X765Y558D02*
X773Y558D01*
X834Y558D02*
X839Y558D01*
X1270Y558D02*
X1277Y558D01*
X0Y557D02*
X7Y557D01*
X36Y557D02*
X66Y557D01*
X189Y557D02*
X214Y557D01*
X264Y557D02*
X289Y557D01*
X364Y557D02*
X371Y557D01*
X400Y557D02*
X411Y557D01*
X425Y557D02*
X430Y557D01*
X450Y557D02*
X455Y557D01*
X461Y557D02*
X467Y557D01*
X580Y557D02*
X589Y557D01*
X765Y557D02*
X773Y557D01*
X1270Y557D02*
X1277Y557D01*
X0Y556D02*
X7Y556D01*
X60Y556D02*
X66Y556D01*
X191Y556D02*
X219Y556D01*
X260Y556D02*
X288Y556D01*
X364Y556D02*
X370Y556D01*
X400Y556D02*
X411Y556D01*
X425Y556D02*
X430Y556D01*
X450Y556D02*
X455Y556D01*
X462Y556D02*
X467Y556D01*
X580Y556D02*
X589Y556D01*
X765Y556D02*
X773Y556D01*
X1270Y556D02*
X1277Y556D01*
X0Y555D02*
X7Y555D01*
X60Y555D02*
X66Y555D01*
X193Y555D02*
X224Y555D01*
X255Y555D02*
X285Y555D01*
X363Y555D02*
X370Y555D01*
X400Y555D02*
X412Y555D01*
X425Y555D02*
X430Y555D01*
X450Y555D02*
X455Y555D01*
X462Y555D02*
X468Y555D01*
X580Y555D02*
X589Y555D01*
X765Y555D02*
X773Y555D01*
X1270Y555D02*
X1277Y555D01*
X0Y554D02*
X7Y554D01*
X60Y554D02*
X66Y554D01*
X195Y554D02*
X234Y554D01*
X245Y554D02*
X283Y554D01*
X362Y554D02*
X369Y554D01*
X400Y554D02*
X412Y554D01*
X425Y554D02*
X430Y554D01*
X450Y554D02*
X455Y554D01*
X463Y554D02*
X468Y554D01*
X580Y554D02*
X589Y554D01*
X765Y554D02*
X773Y554D01*
X1270Y554D02*
X1277Y554D01*
X0Y553D02*
X7Y553D01*
X60Y553D02*
X66Y553D01*
X197Y553D02*
X281Y553D01*
X361Y553D02*
X368Y553D01*
X400Y553D02*
X413Y553D01*
X425Y553D02*
X430Y553D01*
X450Y553D02*
X455Y553D01*
X463Y553D02*
X469Y553D01*
X580Y553D02*
X589Y553D01*
X765Y553D02*
X773Y553D01*
X1270Y553D02*
X1277Y553D01*
X0Y552D02*
X7Y552D01*
X60Y552D02*
X66Y552D01*
X200Y552D02*
X279Y552D01*
X361Y552D02*
X367Y552D01*
X400Y552D02*
X413Y552D01*
X425Y552D02*
X430Y552D01*
X450Y552D02*
X455Y552D01*
X464Y552D02*
X469Y552D01*
X580Y552D02*
X589Y552D01*
X765Y552D02*
X773Y552D01*
X1270Y552D02*
X1277Y552D01*
X0Y551D02*
X7Y551D01*
X60Y551D02*
X66Y551D01*
X202Y551D02*
X277Y551D01*
X360Y551D02*
X367Y551D01*
X400Y551D02*
X406Y551D01*
X408Y551D02*
X413Y551D01*
X425Y551D02*
X430Y551D01*
X450Y551D02*
X455Y551D01*
X464Y551D02*
X470Y551D01*
X580Y551D02*
X589Y551D01*
X765Y551D02*
X773Y551D01*
X1270Y551D02*
X1277Y551D01*
X0Y550D02*
X7Y550D01*
X60Y550D02*
X66Y550D01*
X205Y550D02*
X274Y550D01*
X359Y550D02*
X366Y550D01*
X400Y550D02*
X406Y550D01*
X408Y550D02*
X414Y550D01*
X425Y550D02*
X430Y550D01*
X450Y550D02*
X455Y550D01*
X465Y550D02*
X470Y550D01*
X580Y550D02*
X589Y550D01*
X765Y550D02*
X773Y550D01*
X1270Y550D02*
X1277Y550D01*
X0Y549D02*
X7Y549D01*
X60Y549D02*
X66Y549D01*
X85Y549D02*
X86Y549D01*
X113Y549D02*
X114Y549D01*
X208Y549D02*
X271Y549D01*
X358Y549D02*
X365Y549D01*
X400Y549D02*
X406Y549D01*
X409Y549D02*
X414Y549D01*
X425Y549D02*
X430Y549D01*
X450Y549D02*
X455Y549D01*
X465Y549D02*
X471Y549D01*
X580Y549D02*
X589Y549D01*
X765Y549D02*
X773Y549D01*
X1270Y549D02*
X1277Y549D01*
X0Y548D02*
X7Y548D01*
X60Y548D02*
X66Y548D01*
X84Y548D02*
X88Y548D01*
X111Y548D02*
X115Y548D01*
X211Y548D02*
X268Y548D01*
X358Y548D02*
X364Y548D01*
X400Y548D02*
X406Y548D01*
X409Y548D02*
X415Y548D01*
X425Y548D02*
X430Y548D01*
X450Y548D02*
X455Y548D01*
X466Y548D02*
X471Y548D01*
X580Y548D02*
X589Y548D01*
X765Y548D02*
X773Y548D01*
X1270Y548D02*
X1277Y548D01*
X0Y547D02*
X7Y547D01*
X60Y547D02*
X66Y547D01*
X83Y547D02*
X89Y547D01*
X111Y547D02*
X116Y547D01*
X215Y547D02*
X264Y547D01*
X357Y547D02*
X363Y547D01*
X400Y547D02*
X406Y547D01*
X409Y547D02*
X415Y547D01*
X425Y547D02*
X430Y547D01*
X450Y547D02*
X455Y547D01*
X466Y547D02*
X472Y547D01*
X580Y547D02*
X589Y547D01*
X765Y547D02*
X773Y547D01*
X1270Y547D02*
X1277Y547D01*
X0Y546D02*
X7Y546D01*
X60Y546D02*
X66Y546D01*
X83Y546D02*
X89Y546D01*
X110Y546D02*
X116Y546D01*
X219Y546D02*
X260Y546D01*
X357Y546D02*
X363Y546D01*
X400Y546D02*
X406Y546D01*
X410Y546D02*
X416Y546D01*
X425Y546D02*
X430Y546D01*
X450Y546D02*
X455Y546D01*
X467Y546D02*
X472Y546D01*
X580Y546D02*
X589Y546D01*
X765Y546D02*
X773Y546D01*
X1270Y546D02*
X1277Y546D01*
X0Y545D02*
X7Y545D01*
X60Y545D02*
X66Y545D01*
X83Y545D02*
X89Y545D01*
X110Y545D02*
X116Y545D01*
X225Y545D02*
X254Y545D01*
X357Y545D02*
X362Y545D01*
X400Y545D02*
X406Y545D01*
X410Y545D02*
X416Y545D01*
X425Y545D02*
X430Y545D01*
X450Y545D02*
X455Y545D01*
X467Y545D02*
X473Y545D01*
X580Y545D02*
X589Y545D01*
X765Y545D02*
X773Y545D01*
X1270Y545D02*
X1277Y545D01*
X0Y544D02*
X7Y544D01*
X60Y544D02*
X66Y544D01*
X83Y544D02*
X89Y544D01*
X110Y544D02*
X116Y544D01*
X235Y544D02*
X244Y544D01*
X357Y544D02*
X362Y544D01*
X400Y544D02*
X406Y544D01*
X411Y544D02*
X417Y544D01*
X425Y544D02*
X430Y544D01*
X450Y544D02*
X455Y544D01*
X468Y544D02*
X473Y544D01*
X580Y544D02*
X589Y544D01*
X765Y544D02*
X773Y544D01*
X1270Y544D02*
X1277Y544D01*
X0Y543D02*
X7Y543D01*
X60Y543D02*
X66Y543D01*
X83Y543D02*
X89Y543D01*
X110Y543D02*
X116Y543D01*
X357Y543D02*
X362Y543D01*
X400Y543D02*
X406Y543D01*
X411Y543D02*
X417Y543D01*
X425Y543D02*
X430Y543D01*
X450Y543D02*
X455Y543D01*
X468Y543D02*
X473Y543D01*
X580Y543D02*
X589Y543D01*
X765Y543D02*
X773Y543D01*
X1270Y543D02*
X1277Y543D01*
X0Y542D02*
X7Y542D01*
X60Y542D02*
X66Y542D01*
X83Y542D02*
X89Y542D01*
X110Y542D02*
X116Y542D01*
X357Y542D02*
X362Y542D01*
X400Y542D02*
X406Y542D01*
X412Y542D02*
X417Y542D01*
X425Y542D02*
X430Y542D01*
X450Y542D02*
X455Y542D01*
X468Y542D02*
X473Y542D01*
X580Y542D02*
X589Y542D01*
X765Y542D02*
X773Y542D01*
X1270Y542D02*
X1277Y542D01*
X0Y541D02*
X7Y541D01*
X59Y541D02*
X66Y541D01*
X83Y541D02*
X89Y541D01*
X110Y541D02*
X116Y541D01*
X357Y541D02*
X362Y541D01*
X400Y541D02*
X406Y541D01*
X412Y541D02*
X418Y541D01*
X425Y541D02*
X430Y541D01*
X450Y541D02*
X455Y541D01*
X468Y541D02*
X473Y541D01*
X580Y541D02*
X589Y541D01*
X765Y541D02*
X773Y541D01*
X787Y541D02*
X797Y541D01*
X1270Y541D02*
X1277Y541D01*
X0Y540D02*
X7Y540D01*
X42Y540D02*
X65Y540D01*
X83Y540D02*
X89Y540D01*
X110Y540D02*
X116Y540D01*
X357Y540D02*
X362Y540D01*
X400Y540D02*
X406Y540D01*
X413Y540D02*
X418Y540D01*
X425Y540D02*
X430Y540D01*
X450Y540D02*
X455Y540D01*
X468Y540D02*
X473Y540D01*
X580Y540D02*
X589Y540D01*
X765Y540D02*
X773Y540D01*
X787Y540D02*
X798Y540D01*
X1270Y540D02*
X1277Y540D01*
X0Y539D02*
X7Y539D01*
X40Y539D02*
X65Y539D01*
X83Y539D02*
X90Y539D01*
X110Y539D02*
X116Y539D01*
X357Y539D02*
X362Y539D01*
X400Y539D02*
X406Y539D01*
X413Y539D02*
X419Y539D01*
X425Y539D02*
X430Y539D01*
X450Y539D02*
X455Y539D01*
X468Y539D02*
X473Y539D01*
X580Y539D02*
X589Y539D01*
X765Y539D02*
X773Y539D01*
X787Y539D02*
X798Y539D01*
X1270Y539D02*
X1277Y539D01*
X0Y538D02*
X7Y538D01*
X40Y538D02*
X64Y538D01*
X83Y538D02*
X90Y538D01*
X109Y538D02*
X116Y538D01*
X357Y538D02*
X362Y538D01*
X373Y538D02*
X386Y538D01*
X400Y538D02*
X406Y538D01*
X413Y538D02*
X419Y538D01*
X425Y538D02*
X430Y538D01*
X450Y538D02*
X455Y538D01*
X468Y538D02*
X473Y538D01*
X580Y538D02*
X589Y538D01*
X765Y538D02*
X773Y538D01*
X787Y538D02*
X799Y538D01*
X1270Y538D02*
X1277Y538D01*
X0Y537D02*
X7Y537D01*
X40Y537D02*
X64Y537D01*
X84Y537D02*
X90Y537D01*
X109Y537D02*
X115Y537D01*
X357Y537D02*
X362Y537D01*
X372Y537D02*
X386Y537D01*
X400Y537D02*
X406Y537D01*
X414Y537D02*
X420Y537D01*
X425Y537D02*
X430Y537D01*
X450Y537D02*
X455Y537D01*
X467Y537D02*
X473Y537D01*
X580Y537D02*
X589Y537D01*
X765Y537D02*
X773Y537D01*
X787Y537D02*
X798Y537D01*
X1270Y537D02*
X1277Y537D01*
X0Y536D02*
X7Y536D01*
X40Y536D02*
X64Y536D01*
X84Y536D02*
X91Y536D01*
X108Y536D02*
X115Y536D01*
X357Y536D02*
X362Y536D01*
X372Y536D02*
X386Y536D01*
X400Y536D02*
X406Y536D01*
X414Y536D02*
X420Y536D01*
X425Y536D02*
X430Y536D01*
X450Y536D02*
X455Y536D01*
X467Y536D02*
X472Y536D01*
X580Y536D02*
X589Y536D01*
X765Y536D02*
X773Y536D01*
X787Y536D02*
X798Y536D01*
X1270Y536D02*
X1277Y536D01*
X0Y535D02*
X7Y535D01*
X40Y535D02*
X65Y535D01*
X85Y535D02*
X91Y535D01*
X108Y535D02*
X115Y535D01*
X357Y535D02*
X362Y535D01*
X372Y535D02*
X386Y535D01*
X400Y535D02*
X406Y535D01*
X415Y535D02*
X420Y535D01*
X425Y535D02*
X430Y535D01*
X450Y535D02*
X455Y535D01*
X466Y535D02*
X472Y535D01*
X580Y535D02*
X589Y535D01*
X765Y535D02*
X773Y535D01*
X787Y535D02*
X797Y535D01*
X1270Y535D02*
X1277Y535D01*
X0Y534D02*
X7Y534D01*
X41Y534D02*
X65Y534D01*
X85Y534D02*
X92Y534D01*
X108Y534D02*
X114Y534D01*
X357Y534D02*
X362Y534D01*
X372Y534D02*
X386Y534D01*
X400Y534D02*
X406Y534D01*
X415Y534D02*
X421Y534D01*
X425Y534D02*
X430Y534D01*
X450Y534D02*
X455Y534D01*
X466Y534D02*
X472Y534D01*
X580Y534D02*
X589Y534D01*
X765Y534D02*
X773Y534D01*
X787Y534D02*
X793Y534D01*
X1270Y534D02*
X1277Y534D01*
X0Y533D02*
X7Y533D01*
X58Y533D02*
X66Y533D01*
X85Y533D02*
X92Y533D01*
X107Y533D02*
X114Y533D01*
X357Y533D02*
X362Y533D01*
X373Y533D02*
X386Y533D01*
X400Y533D02*
X406Y533D01*
X416Y533D02*
X421Y533D01*
X425Y533D02*
X430Y533D01*
X450Y533D02*
X455Y533D01*
X465Y533D02*
X471Y533D01*
X580Y533D02*
X589Y533D01*
X765Y533D02*
X773Y533D01*
X787Y533D02*
X793Y533D01*
X1270Y533D02*
X1277Y533D01*
X0Y532D02*
X7Y532D01*
X59Y532D02*
X66Y532D01*
X86Y532D02*
X93Y532D01*
X107Y532D02*
X113Y532D01*
X357Y532D02*
X362Y532D01*
X381Y532D02*
X386Y532D01*
X400Y532D02*
X406Y532D01*
X416Y532D02*
X422Y532D01*
X425Y532D02*
X430Y532D01*
X450Y532D02*
X455Y532D01*
X465Y532D02*
X471Y532D01*
X580Y532D02*
X589Y532D01*
X765Y532D02*
X773Y532D01*
X787Y532D02*
X793Y532D01*
X1270Y532D02*
X1277Y532D01*
X0Y531D02*
X7Y531D01*
X60Y531D02*
X66Y531D01*
X86Y531D02*
X93Y531D01*
X106Y531D02*
X113Y531D01*
X357Y531D02*
X362Y531D01*
X381Y531D02*
X386Y531D01*
X400Y531D02*
X406Y531D01*
X416Y531D02*
X422Y531D01*
X425Y531D02*
X430Y531D01*
X450Y531D02*
X455Y531D01*
X464Y531D02*
X470Y531D01*
X580Y531D02*
X589Y531D01*
X765Y531D02*
X773Y531D01*
X787Y531D02*
X793Y531D01*
X1270Y531D02*
X1277Y531D01*
X0Y530D02*
X7Y530D01*
X60Y530D02*
X66Y530D01*
X87Y530D02*
X93Y530D01*
X106Y530D02*
X112Y530D01*
X357Y530D02*
X362Y530D01*
X381Y530D02*
X386Y530D01*
X400Y530D02*
X406Y530D01*
X417Y530D02*
X423Y530D01*
X425Y530D02*
X430Y530D01*
X450Y530D02*
X455Y530D01*
X464Y530D02*
X470Y530D01*
X580Y530D02*
X589Y530D01*
X765Y530D02*
X773Y530D01*
X787Y530D02*
X793Y530D01*
X1270Y530D02*
X1277Y530D01*
X0Y529D02*
X7Y529D01*
X60Y529D02*
X66Y529D01*
X87Y529D02*
X94Y529D01*
X105Y529D02*
X112Y529D01*
X357Y529D02*
X362Y529D01*
X381Y529D02*
X386Y529D01*
X400Y529D02*
X406Y529D01*
X417Y529D02*
X430Y529D01*
X450Y529D02*
X455Y529D01*
X463Y529D02*
X469Y529D01*
X580Y529D02*
X589Y529D01*
X765Y529D02*
X773Y529D01*
X787Y529D02*
X793Y529D01*
X1270Y529D02*
X1277Y529D01*
X0Y528D02*
X7Y528D01*
X60Y528D02*
X66Y528D01*
X88Y528D02*
X94Y528D01*
X105Y528D02*
X112Y528D01*
X357Y528D02*
X362Y528D01*
X381Y528D02*
X386Y528D01*
X400Y528D02*
X406Y528D01*
X418Y528D02*
X430Y528D01*
X450Y528D02*
X455Y528D01*
X463Y528D02*
X469Y528D01*
X580Y528D02*
X589Y528D01*
X765Y528D02*
X773Y528D01*
X787Y528D02*
X793Y528D01*
X1270Y528D02*
X1277Y528D01*
X0Y527D02*
X7Y527D01*
X60Y527D02*
X66Y527D01*
X88Y527D02*
X95Y527D01*
X104Y527D02*
X111Y527D01*
X357Y527D02*
X362Y527D01*
X381Y527D02*
X386Y527D01*
X400Y527D02*
X406Y527D01*
X418Y527D02*
X430Y527D01*
X450Y527D02*
X455Y527D01*
X462Y527D02*
X468Y527D01*
X580Y527D02*
X589Y527D01*
X765Y527D02*
X773Y527D01*
X787Y527D02*
X839Y527D01*
X1270Y527D02*
X1277Y527D01*
X0Y526D02*
X7Y526D01*
X60Y526D02*
X66Y526D01*
X89Y526D02*
X95Y526D01*
X104Y526D02*
X111Y526D01*
X357Y526D02*
X362Y526D01*
X381Y526D02*
X386Y526D01*
X400Y526D02*
X406Y526D01*
X419Y526D02*
X430Y526D01*
X450Y526D02*
X455Y526D01*
X462Y526D02*
X468Y526D01*
X580Y526D02*
X589Y526D01*
X765Y526D02*
X773Y526D01*
X787Y526D02*
X839Y526D01*
X1270Y526D02*
X1277Y526D01*
X0Y525D02*
X7Y525D01*
X60Y525D02*
X66Y525D01*
X89Y525D02*
X96Y525D01*
X104Y525D02*
X110Y525D01*
X357Y525D02*
X362Y525D01*
X380Y525D02*
X386Y525D01*
X400Y525D02*
X406Y525D01*
X419Y525D02*
X430Y525D01*
X450Y525D02*
X455Y525D01*
X461Y525D02*
X467Y525D01*
X580Y525D02*
X589Y525D01*
X635Y525D02*
X718Y525D01*
X765Y525D02*
X773Y525D01*
X787Y525D02*
X840Y525D01*
X1270Y525D02*
X1277Y525D01*
X0Y524D02*
X7Y524D01*
X60Y524D02*
X66Y524D01*
X89Y524D02*
X96Y524D01*
X103Y524D02*
X110Y524D01*
X357Y524D02*
X363Y524D01*
X379Y524D02*
X386Y524D01*
X400Y524D02*
X406Y524D01*
X420Y524D02*
X430Y524D01*
X450Y524D02*
X455Y524D01*
X460Y524D02*
X467Y524D01*
X580Y524D02*
X589Y524D01*
X634Y524D02*
X719Y524D01*
X765Y524D02*
X773Y524D01*
X787Y524D02*
X840Y524D01*
X1270Y524D02*
X1277Y524D01*
X0Y523D02*
X7Y523D01*
X60Y523D02*
X66Y523D01*
X90Y523D02*
X96Y523D01*
X103Y523D02*
X109Y523D01*
X357Y523D02*
X385Y523D01*
X400Y523D02*
X406Y523D01*
X420Y523D02*
X430Y523D01*
X446Y523D02*
X466Y523D01*
X580Y523D02*
X589Y523D01*
X633Y523D02*
X720Y523D01*
X765Y523D02*
X773Y523D01*
X787Y523D02*
X840Y523D01*
X1270Y523D02*
X1277Y523D01*
X0Y522D02*
X7Y522D01*
X60Y522D02*
X66Y522D01*
X90Y522D02*
X97Y522D01*
X102Y522D02*
X109Y522D01*
X358Y522D02*
X385Y522D01*
X400Y522D02*
X406Y522D01*
X420Y522D02*
X430Y522D01*
X445Y522D02*
X466Y522D01*
X580Y522D02*
X589Y522D01*
X633Y522D02*
X720Y522D01*
X765Y522D02*
X773Y522D01*
X787Y522D02*
X839Y522D01*
X1270Y522D02*
X1277Y522D01*
X0Y521D02*
X7Y521D01*
X60Y521D02*
X66Y521D01*
X91Y521D02*
X97Y521D01*
X102Y521D02*
X108Y521D01*
X359Y521D02*
X384Y521D01*
X400Y521D02*
X406Y521D01*
X421Y521D02*
X430Y521D01*
X444Y521D02*
X465Y521D01*
X580Y521D02*
X589Y521D01*
X633Y521D02*
X720Y521D01*
X765Y521D02*
X773Y521D01*
X787Y521D02*
X837Y521D01*
X1270Y521D02*
X1277Y521D01*
X0Y520D02*
X7Y520D01*
X60Y520D02*
X66Y520D01*
X91Y520D02*
X98Y520D01*
X101Y520D02*
X108Y520D01*
X359Y520D02*
X383Y520D01*
X401Y520D02*
X406Y520D01*
X421Y520D02*
X430Y520D01*
X444Y520D02*
X464Y520D01*
X580Y520D02*
X589Y520D01*
X633Y520D02*
X720Y520D01*
X765Y520D02*
X773Y520D01*
X787Y520D02*
X793Y520D01*
X1270Y520D02*
X1277Y520D01*
X0Y519D02*
X7Y519D01*
X60Y519D02*
X66Y519D01*
X92Y519D02*
X98Y519D01*
X101Y519D02*
X108Y519D01*
X360Y519D02*
X382Y519D01*
X401Y519D02*
X405Y519D01*
X422Y519D02*
X430Y519D01*
X445Y519D02*
X463Y519D01*
X580Y519D02*
X589Y519D01*
X633Y519D02*
X720Y519D01*
X765Y519D02*
X773Y519D01*
X787Y519D02*
X793Y519D01*
X1270Y519D02*
X1277Y519D01*
X0Y518D02*
X7Y518D01*
X60Y518D02*
X66Y518D01*
X92Y518D02*
X99Y518D01*
X101Y518D02*
X107Y518D01*
X362Y518D02*
X380Y518D01*
X402Y518D02*
X404Y518D01*
X422Y518D02*
X430Y518D01*
X445Y518D02*
X461Y518D01*
X580Y518D02*
X589Y518D01*
X634Y518D02*
X719Y518D01*
X765Y518D02*
X773Y518D01*
X787Y518D02*
X793Y518D01*
X1270Y518D02*
X1277Y518D01*
X0Y517D02*
X7Y517D01*
X60Y517D02*
X66Y517D01*
X92Y517D02*
X107Y517D01*
X580Y517D02*
X589Y517D01*
X635Y517D02*
X718Y517D01*
X765Y517D02*
X773Y517D01*
X787Y517D02*
X793Y517D01*
X1270Y517D02*
X1277Y517D01*
X0Y516D02*
X7Y516D01*
X34Y516D02*
X66Y516D01*
X93Y516D02*
X106Y516D01*
X580Y516D02*
X589Y516D01*
X638Y516D02*
X715Y516D01*
X765Y516D02*
X773Y516D01*
X787Y516D02*
X793Y516D01*
X1270Y516D02*
X1277Y516D01*
X0Y515D02*
X7Y515D01*
X33Y515D02*
X66Y515D01*
X93Y515D02*
X106Y515D01*
X580Y515D02*
X589Y515D01*
X765Y515D02*
X773Y515D01*
X787Y515D02*
X793Y515D01*
X1270Y515D02*
X1277Y515D01*
X0Y514D02*
X7Y514D01*
X33Y514D02*
X66Y514D01*
X94Y514D02*
X105Y514D01*
X580Y514D02*
X589Y514D01*
X765Y514D02*
X773Y514D01*
X787Y514D02*
X796Y514D01*
X1270Y514D02*
X1277Y514D01*
X0Y513D02*
X7Y513D01*
X33Y513D02*
X65Y513D01*
X94Y513D02*
X105Y513D01*
X580Y513D02*
X589Y513D01*
X765Y513D02*
X773Y513D01*
X787Y513D02*
X798Y513D01*
X1270Y513D02*
X1277Y513D01*
X0Y512D02*
X7Y512D01*
X33Y512D02*
X64Y512D01*
X95Y512D02*
X105Y512D01*
X580Y512D02*
X589Y512D01*
X765Y512D02*
X773Y512D01*
X787Y512D02*
X798Y512D01*
X1270Y512D02*
X1277Y512D01*
X0Y511D02*
X7Y511D01*
X34Y511D02*
X63Y511D01*
X95Y511D02*
X104Y511D01*
X580Y511D02*
X589Y511D01*
X765Y511D02*
X773Y511D01*
X787Y511D02*
X799Y511D01*
X1270Y511D02*
X1277Y511D01*
X0Y510D02*
X7Y510D01*
X35Y510D02*
X61Y510D01*
X97Y510D02*
X103Y510D01*
X580Y510D02*
X589Y510D01*
X765Y510D02*
X773Y510D01*
X787Y510D02*
X798Y510D01*
X1270Y510D02*
X1277Y510D01*
X0Y509D02*
X7Y509D01*
X580Y509D02*
X589Y509D01*
X765Y509D02*
X773Y509D01*
X787Y509D02*
X798Y509D01*
X1270Y509D02*
X1277Y509D01*
X0Y508D02*
X7Y508D01*
X580Y508D02*
X589Y508D01*
X765Y508D02*
X773Y508D01*
X787Y508D02*
X797Y508D01*
X1270Y508D02*
X1277Y508D01*
X0Y507D02*
X7Y507D01*
X580Y507D02*
X589Y507D01*
X765Y507D02*
X773Y507D01*
X1270Y507D02*
X1277Y507D01*
X0Y506D02*
X7Y506D01*
X580Y506D02*
X589Y506D01*
X765Y506D02*
X773Y506D01*
X1270Y506D02*
X1277Y506D01*
X0Y505D02*
X7Y505D01*
X580Y505D02*
X589Y505D01*
X765Y505D02*
X773Y505D01*
X1270Y505D02*
X1277Y505D01*
X0Y504D02*
X7Y504D01*
X580Y504D02*
X589Y504D01*
X765Y504D02*
X773Y504D01*
X1270Y504D02*
X1277Y504D01*
X0Y503D02*
X7Y503D01*
X580Y503D02*
X589Y503D01*
X765Y503D02*
X773Y503D01*
X1270Y503D02*
X1277Y503D01*
X0Y502D02*
X7Y502D01*
X580Y502D02*
X589Y502D01*
X765Y502D02*
X773Y502D01*
X1270Y502D02*
X1277Y502D01*
X0Y501D02*
X7Y501D01*
X580Y501D02*
X589Y501D01*
X765Y501D02*
X773Y501D01*
X1270Y501D02*
X1277Y501D01*
X0Y500D02*
X7Y500D01*
X580Y500D02*
X589Y500D01*
X765Y500D02*
X773Y500D01*
X1270Y500D02*
X1277Y500D01*
X0Y499D02*
X7Y499D01*
X580Y499D02*
X589Y499D01*
X765Y499D02*
X773Y499D01*
X1270Y499D02*
X1277Y499D01*
X0Y498D02*
X7Y498D01*
X580Y498D02*
X589Y498D01*
X765Y498D02*
X773Y498D01*
X1270Y498D02*
X1277Y498D01*
X0Y497D02*
X7Y497D01*
X580Y497D02*
X589Y497D01*
X765Y497D02*
X773Y497D01*
X1270Y497D02*
X1277Y497D01*
X0Y496D02*
X7Y496D01*
X580Y496D02*
X589Y496D01*
X765Y496D02*
X773Y496D01*
X1270Y496D02*
X1277Y496D01*
X0Y495D02*
X7Y495D01*
X580Y495D02*
X589Y495D01*
X765Y495D02*
X773Y495D01*
X1270Y495D02*
X1277Y495D01*
X0Y494D02*
X7Y494D01*
X580Y494D02*
X589Y494D01*
X765Y494D02*
X773Y494D01*
X1270Y494D02*
X1277Y494D01*
X0Y493D02*
X7Y493D01*
X580Y493D02*
X589Y493D01*
X765Y493D02*
X773Y493D01*
X1270Y493D02*
X1277Y493D01*
X0Y492D02*
X7Y492D01*
X580Y492D02*
X589Y492D01*
X765Y492D02*
X773Y492D01*
X1270Y492D02*
X1277Y492D01*
X0Y491D02*
X7Y491D01*
X580Y491D02*
X589Y491D01*
X765Y491D02*
X773Y491D01*
X789Y491D02*
X791Y491D01*
X836Y491D02*
X838Y491D01*
X1270Y491D02*
X1277Y491D01*
X0Y490D02*
X7Y490D01*
X580Y490D02*
X589Y490D01*
X765Y490D02*
X773Y490D01*
X787Y490D02*
X793Y490D01*
X834Y490D02*
X839Y490D01*
X1270Y490D02*
X1277Y490D01*
X0Y489D02*
X7Y489D01*
X580Y489D02*
X589Y489D01*
X765Y489D02*
X773Y489D01*
X787Y489D02*
X794Y489D01*
X832Y489D02*
X840Y489D01*
X1270Y489D02*
X1277Y489D01*
X0Y488D02*
X7Y488D01*
X580Y488D02*
X589Y488D01*
X765Y488D02*
X773Y488D01*
X787Y488D02*
X796Y488D01*
X830Y488D02*
X840Y488D01*
X1270Y488D02*
X1277Y488D01*
X0Y487D02*
X7Y487D01*
X580Y487D02*
X589Y487D01*
X765Y487D02*
X773Y487D01*
X787Y487D02*
X798Y487D01*
X829Y487D02*
X840Y487D01*
X1270Y487D02*
X1277Y487D01*
X0Y486D02*
X7Y486D01*
X580Y486D02*
X589Y486D01*
X765Y486D02*
X773Y486D01*
X787Y486D02*
X799Y486D01*
X827Y486D02*
X839Y486D01*
X1270Y486D02*
X1277Y486D01*
X0Y485D02*
X7Y485D01*
X580Y485D02*
X589Y485D01*
X765Y485D02*
X773Y485D01*
X788Y485D02*
X801Y485D01*
X825Y485D02*
X838Y485D01*
X1270Y485D02*
X1277Y485D01*
X0Y484D02*
X7Y484D01*
X580Y484D02*
X589Y484D01*
X765Y484D02*
X773Y484D01*
X790Y484D02*
X803Y484D01*
X824Y484D02*
X837Y484D01*
X1270Y484D02*
X1277Y484D01*
X0Y483D02*
X7Y483D01*
X580Y483D02*
X589Y483D01*
X765Y483D02*
X773Y483D01*
X792Y483D02*
X805Y483D01*
X822Y483D02*
X835Y483D01*
X1270Y483D02*
X1277Y483D01*
X0Y482D02*
X7Y482D01*
X580Y482D02*
X589Y482D01*
X765Y482D02*
X773Y482D01*
X793Y482D02*
X806Y482D01*
X820Y482D02*
X833Y482D01*
X1270Y482D02*
X1277Y482D01*
X0Y481D02*
X7Y481D01*
X580Y481D02*
X589Y481D01*
X765Y481D02*
X773Y481D01*
X795Y481D02*
X808Y481D01*
X819Y481D02*
X831Y481D01*
X1270Y481D02*
X1277Y481D01*
X0Y480D02*
X7Y480D01*
X580Y480D02*
X589Y480D01*
X765Y480D02*
X773Y480D01*
X797Y480D02*
X810Y480D01*
X817Y480D02*
X830Y480D01*
X1270Y480D02*
X1277Y480D01*
X0Y479D02*
X7Y479D01*
X580Y479D02*
X589Y479D01*
X765Y479D02*
X773Y479D01*
X798Y479D02*
X811Y479D01*
X815Y479D02*
X828Y479D01*
X1270Y479D02*
X1277Y479D01*
X0Y478D02*
X7Y478D01*
X580Y478D02*
X589Y478D01*
X765Y478D02*
X773Y478D01*
X800Y478D02*
X826Y478D01*
X1270Y478D02*
X1277Y478D01*
X0Y477D02*
X7Y477D01*
X580Y477D02*
X589Y477D01*
X765Y477D02*
X773Y477D01*
X802Y477D02*
X825Y477D01*
X1270Y477D02*
X1277Y477D01*
X0Y476D02*
X7Y476D01*
X580Y476D02*
X589Y476D01*
X765Y476D02*
X773Y476D01*
X804Y476D02*
X823Y476D01*
X1270Y476D02*
X1277Y476D01*
X0Y475D02*
X7Y475D01*
X580Y475D02*
X589Y475D01*
X765Y475D02*
X773Y475D01*
X805Y475D02*
X821Y475D01*
X1270Y475D02*
X1277Y475D01*
X0Y474D02*
X7Y474D01*
X580Y474D02*
X589Y474D01*
X765Y474D02*
X773Y474D01*
X806Y474D02*
X820Y474D01*
X1270Y474D02*
X1277Y474D01*
X0Y473D02*
X7Y473D01*
X580Y473D02*
X589Y473D01*
X765Y473D02*
X773Y473D01*
X805Y473D02*
X822Y473D01*
X1270Y473D02*
X1277Y473D01*
X0Y472D02*
X7Y472D01*
X580Y472D02*
X589Y472D01*
X765Y472D02*
X773Y472D01*
X803Y472D02*
X824Y472D01*
X1270Y472D02*
X1277Y472D01*
X0Y471D02*
X7Y471D01*
X580Y471D02*
X589Y471D01*
X765Y471D02*
X773Y471D01*
X801Y471D02*
X825Y471D01*
X1270Y471D02*
X1277Y471D01*
X0Y470D02*
X7Y470D01*
X580Y470D02*
X589Y470D01*
X765Y470D02*
X773Y470D01*
X800Y470D02*
X827Y470D01*
X1270Y470D02*
X1277Y470D01*
X0Y469D02*
X7Y469D01*
X580Y469D02*
X589Y469D01*
X765Y469D02*
X773Y469D01*
X798Y469D02*
X811Y469D01*
X816Y469D02*
X829Y469D01*
X1270Y469D02*
X1277Y469D01*
X0Y468D02*
X7Y468D01*
X580Y468D02*
X589Y468D01*
X765Y468D02*
X773Y468D01*
X796Y468D02*
X809Y468D01*
X817Y468D02*
X830Y468D01*
X1270Y468D02*
X1277Y468D01*
X0Y467D02*
X7Y467D01*
X580Y467D02*
X589Y467D01*
X765Y467D02*
X773Y467D01*
X795Y467D02*
X807Y467D01*
X819Y467D02*
X832Y467D01*
X1270Y467D02*
X1277Y467D01*
X0Y466D02*
X7Y466D01*
X580Y466D02*
X589Y466D01*
X765Y466D02*
X773Y466D01*
X793Y466D02*
X806Y466D01*
X821Y466D02*
X834Y466D01*
X1270Y466D02*
X1277Y466D01*
X0Y465D02*
X7Y465D01*
X580Y465D02*
X589Y465D01*
X765Y465D02*
X773Y465D01*
X791Y465D02*
X804Y465D01*
X822Y465D02*
X835Y465D01*
X1270Y465D02*
X1277Y465D01*
X0Y464D02*
X7Y464D01*
X580Y464D02*
X589Y464D01*
X765Y464D02*
X773Y464D01*
X789Y464D02*
X802Y464D01*
X824Y464D02*
X837Y464D01*
X1270Y464D02*
X1277Y464D01*
X0Y463D02*
X7Y463D01*
X580Y463D02*
X589Y463D01*
X765Y463D02*
X773Y463D01*
X788Y463D02*
X801Y463D01*
X826Y463D02*
X839Y463D01*
X1270Y463D02*
X1277Y463D01*
X0Y462D02*
X7Y462D01*
X580Y462D02*
X589Y462D01*
X765Y462D02*
X773Y462D01*
X787Y462D02*
X799Y462D01*
X828Y462D02*
X839Y462D01*
X1270Y462D02*
X1277Y462D01*
X0Y461D02*
X7Y461D01*
X580Y461D02*
X589Y461D01*
X765Y461D02*
X773Y461D01*
X787Y461D02*
X797Y461D01*
X829Y461D02*
X840Y461D01*
X1270Y461D02*
X1277Y461D01*
X0Y460D02*
X7Y460D01*
X580Y460D02*
X589Y460D01*
X765Y460D02*
X773Y460D01*
X787Y460D02*
X796Y460D01*
X831Y460D02*
X840Y460D01*
X1270Y460D02*
X1277Y460D01*
X0Y459D02*
X7Y459D01*
X580Y459D02*
X589Y459D01*
X765Y459D02*
X773Y459D01*
X787Y459D02*
X794Y459D01*
X833Y459D02*
X840Y459D01*
X1270Y459D02*
X1277Y459D01*
X0Y458D02*
X7Y458D01*
X580Y458D02*
X589Y458D01*
X765Y458D02*
X773Y458D01*
X788Y458D02*
X792Y458D01*
X834Y458D02*
X839Y458D01*
X1270Y458D02*
X1277Y458D01*
X0Y457D02*
X7Y457D01*
X580Y457D02*
X589Y457D01*
X765Y457D02*
X773Y457D01*
X790Y457D02*
X790Y457D01*
X837Y457D02*
X837Y457D01*
X1270Y457D02*
X1277Y457D01*
X0Y456D02*
X7Y456D01*
X580Y456D02*
X589Y456D01*
X765Y456D02*
X773Y456D01*
X1270Y456D02*
X1277Y456D01*
X0Y455D02*
X7Y455D01*
X580Y455D02*
X589Y455D01*
X765Y455D02*
X773Y455D01*
X1270Y455D02*
X1277Y455D01*
X0Y454D02*
X7Y454D01*
X580Y454D02*
X589Y454D01*
X765Y454D02*
X773Y454D01*
X1270Y454D02*
X1277Y454D01*
X0Y453D02*
X7Y453D01*
X580Y453D02*
X589Y453D01*
X765Y453D02*
X773Y453D01*
X1270Y453D02*
X1277Y453D01*
X0Y452D02*
X7Y452D01*
X580Y452D02*
X589Y452D01*
X765Y452D02*
X773Y452D01*
X1270Y452D02*
X1277Y452D01*
X0Y451D02*
X7Y451D01*
X580Y451D02*
X589Y451D01*
X765Y451D02*
X773Y451D01*
X1270Y451D02*
X1277Y451D01*
X0Y450D02*
X7Y450D01*
X580Y450D02*
X589Y450D01*
X765Y450D02*
X773Y450D01*
X1270Y450D02*
X1277Y450D01*
X0Y449D02*
X7Y449D01*
X580Y449D02*
X589Y449D01*
X765Y449D02*
X773Y449D01*
X1270Y449D02*
X1277Y449D01*
X0Y448D02*
X7Y448D01*
X580Y448D02*
X589Y448D01*
X765Y448D02*
X773Y448D01*
X1270Y448D02*
X1277Y448D01*
X0Y447D02*
X7Y447D01*
X580Y447D02*
X589Y447D01*
X765Y447D02*
X773Y447D01*
X1270Y447D02*
X1277Y447D01*
X0Y446D02*
X7Y446D01*
X580Y446D02*
X589Y446D01*
X765Y446D02*
X773Y446D01*
X1270Y446D02*
X1277Y446D01*
X0Y445D02*
X7Y445D01*
X580Y445D02*
X589Y445D01*
X765Y445D02*
X773Y445D01*
X1270Y445D02*
X1277Y445D01*
X0Y444D02*
X7Y444D01*
X580Y444D02*
X589Y444D01*
X765Y444D02*
X773Y444D01*
X1270Y444D02*
X1277Y444D01*
X0Y443D02*
X7Y443D01*
X580Y443D02*
X589Y443D01*
X765Y443D02*
X773Y443D01*
X1270Y443D02*
X1277Y443D01*
X0Y442D02*
X7Y442D01*
X580Y442D02*
X589Y442D01*
X765Y442D02*
X773Y442D01*
X1270Y442D02*
X1277Y442D01*
X0Y441D02*
X7Y441D01*
X580Y441D02*
X589Y441D01*
X765Y441D02*
X773Y441D01*
X1270Y441D02*
X1277Y441D01*
X0Y440D02*
X7Y440D01*
X580Y440D02*
X589Y440D01*
X765Y440D02*
X773Y440D01*
X1270Y440D02*
X1277Y440D01*
X0Y439D02*
X7Y439D01*
X580Y439D02*
X589Y439D01*
X765Y439D02*
X773Y439D01*
X1270Y439D02*
X1277Y439D01*
X0Y438D02*
X7Y438D01*
X580Y438D02*
X589Y438D01*
X765Y438D02*
X773Y438D01*
X1270Y438D02*
X1277Y438D01*
X0Y437D02*
X7Y437D01*
X580Y437D02*
X589Y437D01*
X765Y437D02*
X773Y437D01*
X1270Y437D02*
X1277Y437D01*
X0Y436D02*
X7Y436D01*
X580Y436D02*
X589Y436D01*
X765Y436D02*
X773Y436D01*
X1270Y436D02*
X1277Y436D01*
X0Y435D02*
X7Y435D01*
X580Y435D02*
X589Y435D01*
X765Y435D02*
X773Y435D01*
X1270Y435D02*
X1277Y435D01*
X0Y434D02*
X7Y434D01*
X580Y434D02*
X589Y434D01*
X765Y434D02*
X773Y434D01*
X1270Y434D02*
X1277Y434D01*
X0Y433D02*
X7Y433D01*
X580Y433D02*
X589Y433D01*
X765Y433D02*
X773Y433D01*
X1270Y433D02*
X1277Y433D01*
X0Y432D02*
X7Y432D01*
X580Y432D02*
X589Y432D01*
X765Y432D02*
X773Y432D01*
X1270Y432D02*
X1277Y432D01*
X0Y431D02*
X7Y431D01*
X580Y431D02*
X589Y431D01*
X765Y431D02*
X773Y431D01*
X1270Y431D02*
X1277Y431D01*
X0Y430D02*
X7Y430D01*
X580Y430D02*
X589Y430D01*
X765Y430D02*
X773Y430D01*
X1270Y430D02*
X1277Y430D01*
X0Y429D02*
X7Y429D01*
X580Y429D02*
X589Y429D01*
X765Y429D02*
X773Y429D01*
X1270Y429D02*
X1277Y429D01*
X0Y428D02*
X7Y428D01*
X580Y428D02*
X589Y428D01*
X765Y428D02*
X773Y428D01*
X1270Y428D02*
X1277Y428D01*
X0Y427D02*
X7Y427D01*
X580Y427D02*
X589Y427D01*
X764Y427D02*
X773Y427D01*
X1270Y427D02*
X1277Y427D01*
X0Y426D02*
X7Y426D01*
X580Y426D02*
X589Y426D01*
X764Y426D02*
X773Y426D01*
X1270Y426D02*
X1277Y426D01*
X0Y425D02*
X7Y425D01*
X580Y425D02*
X589Y425D01*
X764Y425D02*
X773Y425D01*
X1270Y425D02*
X1277Y425D01*
X0Y424D02*
X7Y424D01*
X580Y424D02*
X589Y424D01*
X764Y424D02*
X773Y424D01*
X1270Y424D02*
X1277Y424D01*
X0Y423D02*
X7Y423D01*
X580Y423D02*
X589Y423D01*
X764Y423D02*
X773Y423D01*
X1270Y423D02*
X1277Y423D01*
X0Y422D02*
X7Y422D01*
X580Y422D02*
X589Y422D01*
X764Y422D02*
X773Y422D01*
X1270Y422D02*
X1277Y422D01*
X0Y421D02*
X7Y421D01*
X580Y421D02*
X589Y421D01*
X764Y421D02*
X773Y421D01*
X1270Y421D02*
X1277Y421D01*
X0Y420D02*
X7Y420D01*
X581Y420D02*
X589Y420D01*
X764Y420D02*
X773Y420D01*
X1270Y420D02*
X1277Y420D01*
X0Y419D02*
X7Y419D01*
X581Y419D02*
X590Y419D01*
X764Y419D02*
X772Y419D01*
X1270Y419D02*
X1277Y419D01*
X0Y418D02*
X7Y418D01*
X581Y418D02*
X590Y418D01*
X763Y418D02*
X772Y418D01*
X1270Y418D02*
X1277Y418D01*
X0Y417D02*
X7Y417D01*
X581Y417D02*
X590Y417D01*
X763Y417D02*
X772Y417D01*
X1270Y417D02*
X1277Y417D01*
X0Y416D02*
X7Y416D01*
X581Y416D02*
X590Y416D01*
X763Y416D02*
X772Y416D01*
X1270Y416D02*
X1277Y416D01*
X0Y415D02*
X7Y415D01*
X581Y415D02*
X590Y415D01*
X763Y415D02*
X772Y415D01*
X1270Y415D02*
X1277Y415D01*
X0Y414D02*
X7Y414D01*
X582Y414D02*
X591Y414D01*
X763Y414D02*
X772Y414D01*
X1270Y414D02*
X1277Y414D01*
X0Y413D02*
X7Y413D01*
X582Y413D02*
X591Y413D01*
X762Y413D02*
X771Y413D01*
X1270Y413D02*
X1277Y413D01*
X0Y412D02*
X7Y412D01*
X582Y412D02*
X591Y412D01*
X762Y412D02*
X771Y412D01*
X1270Y412D02*
X1277Y412D01*
X0Y411D02*
X7Y411D01*
X582Y411D02*
X591Y411D01*
X762Y411D02*
X771Y411D01*
X1270Y411D02*
X1277Y411D01*
X0Y410D02*
X7Y410D01*
X582Y410D02*
X592Y410D01*
X762Y410D02*
X771Y410D01*
X1270Y410D02*
X1277Y410D01*
X0Y409D02*
X7Y409D01*
X583Y409D02*
X592Y409D01*
X761Y409D02*
X770Y409D01*
X1270Y409D02*
X1277Y409D01*
X0Y408D02*
X7Y408D01*
X583Y408D02*
X592Y408D01*
X761Y408D02*
X770Y408D01*
X1270Y408D02*
X1277Y408D01*
X0Y407D02*
X7Y407D01*
X583Y407D02*
X592Y407D01*
X761Y407D02*
X770Y407D01*
X1270Y407D02*
X1277Y407D01*
X0Y406D02*
X7Y406D01*
X584Y406D02*
X593Y406D01*
X760Y406D02*
X770Y406D01*
X1270Y406D02*
X1277Y406D01*
X0Y405D02*
X7Y405D01*
X584Y405D02*
X593Y405D01*
X760Y405D02*
X769Y405D01*
X1270Y405D02*
X1277Y405D01*
X0Y404D02*
X7Y404D01*
X584Y404D02*
X593Y404D01*
X760Y404D02*
X769Y404D01*
X1270Y404D02*
X1277Y404D01*
X0Y403D02*
X7Y403D01*
X585Y403D02*
X594Y403D01*
X759Y403D02*
X769Y403D01*
X1270Y403D02*
X1277Y403D01*
X0Y402D02*
X7Y402D01*
X585Y402D02*
X594Y402D01*
X759Y402D02*
X768Y402D01*
X1270Y402D02*
X1277Y402D01*
X0Y401D02*
X7Y401D01*
X585Y401D02*
X595Y401D01*
X759Y401D02*
X768Y401D01*
X1270Y401D02*
X1277Y401D01*
X0Y400D02*
X7Y400D01*
X586Y400D02*
X595Y400D01*
X758Y400D02*
X768Y400D01*
X1270Y400D02*
X1277Y400D01*
X0Y399D02*
X7Y399D01*
X586Y399D02*
X595Y399D01*
X758Y399D02*
X767Y399D01*
X1270Y399D02*
X1277Y399D01*
X0Y398D02*
X7Y398D01*
X586Y398D02*
X596Y398D01*
X757Y398D02*
X767Y398D01*
X1270Y398D02*
X1277Y398D01*
X0Y397D02*
X7Y397D01*
X587Y397D02*
X596Y397D01*
X757Y397D02*
X766Y397D01*
X1270Y397D02*
X1277Y397D01*
X0Y396D02*
X7Y396D01*
X587Y396D02*
X597Y396D01*
X756Y396D02*
X766Y396D01*
X1270Y396D02*
X1277Y396D01*
X0Y395D02*
X7Y395D01*
X588Y395D02*
X597Y395D01*
X756Y395D02*
X766Y395D01*
X1270Y395D02*
X1277Y395D01*
X0Y394D02*
X7Y394D01*
X588Y394D02*
X598Y394D01*
X755Y394D02*
X765Y394D01*
X1270Y394D02*
X1277Y394D01*
X0Y393D02*
X7Y393D01*
X589Y393D02*
X598Y393D01*
X755Y393D02*
X765Y393D01*
X1270Y393D02*
X1277Y393D01*
X0Y392D02*
X7Y392D01*
X589Y392D02*
X599Y392D01*
X754Y392D02*
X764Y392D01*
X1270Y392D02*
X1277Y392D01*
X0Y391D02*
X7Y391D01*
X590Y391D02*
X599Y391D01*
X754Y391D02*
X764Y391D01*
X1270Y391D02*
X1277Y391D01*
X0Y390D02*
X7Y390D01*
X590Y390D02*
X600Y390D01*
X753Y390D02*
X763Y390D01*
X1270Y390D02*
X1277Y390D01*
X0Y389D02*
X7Y389D01*
X590Y389D02*
X601Y389D01*
X753Y389D02*
X763Y389D01*
X1270Y389D02*
X1277Y389D01*
X0Y388D02*
X7Y388D01*
X591Y388D02*
X601Y388D01*
X752Y388D02*
X762Y388D01*
X1270Y388D02*
X1277Y388D01*
X0Y387D02*
X7Y387D01*
X591Y387D02*
X602Y387D01*
X751Y387D02*
X762Y387D01*
X1270Y387D02*
X1277Y387D01*
X0Y386D02*
X7Y386D01*
X592Y386D02*
X602Y386D01*
X751Y386D02*
X761Y386D01*
X1270Y386D02*
X1277Y386D01*
X0Y385D02*
X7Y385D01*
X593Y385D02*
X603Y385D01*
X750Y385D02*
X760Y385D01*
X1270Y385D02*
X1277Y385D01*
X0Y384D02*
X7Y384D01*
X593Y384D02*
X604Y384D01*
X749Y384D02*
X760Y384D01*
X1270Y384D02*
X1277Y384D01*
X0Y383D02*
X7Y383D01*
X594Y383D02*
X605Y383D01*
X749Y383D02*
X759Y383D01*
X1270Y383D02*
X1277Y383D01*
X0Y382D02*
X7Y382D01*
X595Y382D02*
X605Y382D01*
X748Y382D02*
X759Y382D01*
X1270Y382D02*
X1277Y382D01*
X0Y381D02*
X7Y381D01*
X595Y381D02*
X606Y381D01*
X747Y381D02*
X758Y381D01*
X1270Y381D02*
X1277Y381D01*
X0Y380D02*
X7Y380D01*
X596Y380D02*
X607Y380D01*
X746Y380D02*
X757Y380D01*
X1270Y380D02*
X1277Y380D01*
X0Y379D02*
X7Y379D01*
X596Y379D02*
X608Y379D01*
X746Y379D02*
X757Y379D01*
X1270Y379D02*
X1277Y379D01*
X0Y378D02*
X7Y378D01*
X597Y378D02*
X608Y378D01*
X745Y378D02*
X756Y378D01*
X1270Y378D02*
X1277Y378D01*
X0Y377D02*
X7Y377D01*
X598Y377D02*
X609Y377D01*
X744Y377D02*
X755Y377D01*
X1270Y377D02*
X1277Y377D01*
X0Y376D02*
X7Y376D01*
X599Y376D02*
X610Y376D01*
X743Y376D02*
X755Y376D01*
X1270Y376D02*
X1277Y376D01*
X0Y375D02*
X7Y375D01*
X599Y375D02*
X611Y375D01*
X742Y375D02*
X754Y375D01*
X1270Y375D02*
X1277Y375D01*
X0Y374D02*
X7Y374D01*
X600Y374D02*
X612Y374D01*
X741Y374D02*
X753Y374D01*
X1270Y374D02*
X1277Y374D01*
X0Y373D02*
X7Y373D01*
X601Y373D02*
X613Y373D01*
X740Y373D02*
X752Y373D01*
X1270Y373D02*
X1277Y373D01*
X0Y372D02*
X7Y372D01*
X602Y372D02*
X614Y372D01*
X739Y372D02*
X751Y372D01*
X1270Y372D02*
X1277Y372D01*
X0Y371D02*
X7Y371D01*
X603Y371D02*
X615Y371D01*
X738Y371D02*
X751Y371D01*
X1270Y371D02*
X1277Y371D01*
X0Y370D02*
X7Y370D01*
X603Y370D02*
X616Y370D01*
X737Y370D02*
X750Y370D01*
X1270Y370D02*
X1277Y370D01*
X0Y369D02*
X7Y369D01*
X604Y369D02*
X617Y369D01*
X736Y369D02*
X749Y369D01*
X1270Y369D02*
X1277Y369D01*
X0Y368D02*
X7Y368D01*
X605Y368D02*
X618Y368D01*
X735Y368D02*
X748Y368D01*
X1270Y368D02*
X1277Y368D01*
X0Y367D02*
X7Y367D01*
X606Y367D02*
X620Y367D01*
X734Y367D02*
X747Y367D01*
X1270Y367D02*
X1277Y367D01*
X0Y366D02*
X7Y366D01*
X607Y366D02*
X621Y366D01*
X732Y366D02*
X746Y366D01*
X1270Y366D02*
X1277Y366D01*
X0Y365D02*
X7Y365D01*
X608Y365D02*
X622Y365D01*
X731Y365D02*
X745Y365D01*
X1270Y365D02*
X1277Y365D01*
X0Y364D02*
X7Y364D01*
X609Y364D02*
X623Y364D01*
X730Y364D02*
X744Y364D01*
X1270Y364D02*
X1277Y364D01*
X0Y363D02*
X7Y363D01*
X610Y363D02*
X625Y363D01*
X728Y363D02*
X743Y363D01*
X1270Y363D02*
X1277Y363D01*
X0Y362D02*
X7Y362D01*
X611Y362D02*
X626Y362D01*
X727Y362D02*
X742Y362D01*
X1270Y362D02*
X1277Y362D01*
X0Y361D02*
X7Y361D01*
X613Y361D02*
X628Y361D01*
X726Y361D02*
X741Y361D01*
X1270Y361D02*
X1277Y361D01*
X0Y360D02*
X7Y360D01*
X614Y360D02*
X629Y360D01*
X724Y360D02*
X739Y360D01*
X1270Y360D02*
X1277Y360D01*
X0Y359D02*
X7Y359D01*
X615Y359D02*
X631Y359D01*
X722Y359D02*
X738Y359D01*
X1270Y359D02*
X1277Y359D01*
X0Y358D02*
X7Y358D01*
X616Y358D02*
X633Y358D01*
X721Y358D02*
X737Y358D01*
X1270Y358D02*
X1277Y358D01*
X0Y357D02*
X7Y357D01*
X617Y357D02*
X634Y357D01*
X719Y357D02*
X736Y357D01*
X1270Y357D02*
X1277Y357D01*
X0Y356D02*
X7Y356D01*
X619Y356D02*
X636Y356D01*
X717Y356D02*
X734Y356D01*
X1270Y356D02*
X1277Y356D01*
X0Y355D02*
X7Y355D01*
X620Y355D02*
X639Y355D01*
X715Y355D02*
X733Y355D01*
X1270Y355D02*
X1277Y355D01*
X0Y354D02*
X7Y354D01*
X622Y354D02*
X641Y354D01*
X713Y354D02*
X732Y354D01*
X1270Y354D02*
X1277Y354D01*
X0Y353D02*
X7Y353D01*
X623Y353D02*
X643Y353D01*
X710Y353D02*
X730Y353D01*
X1270Y353D02*
X1277Y353D01*
X0Y352D02*
X7Y352D01*
X625Y352D02*
X646Y352D01*
X707Y352D02*
X728Y352D01*
X1270Y352D02*
X1277Y352D01*
X0Y351D02*
X7Y351D01*
X626Y351D02*
X649Y351D01*
X705Y351D02*
X727Y351D01*
X1270Y351D02*
X1277Y351D01*
X0Y350D02*
X7Y350D01*
X628Y350D02*
X652Y350D01*
X701Y350D02*
X725Y350D01*
X1270Y350D02*
X1277Y350D01*
X0Y349D02*
X7Y349D01*
X630Y349D02*
X656Y349D01*
X697Y349D02*
X723Y349D01*
X1270Y349D02*
X1277Y349D01*
X0Y348D02*
X7Y348D01*
X632Y348D02*
X661Y348D01*
X692Y348D02*
X721Y348D01*
X1270Y348D02*
X1277Y348D01*
X0Y347D02*
X7Y347D01*
X634Y347D02*
X669Y347D01*
X684Y347D02*
X719Y347D01*
X1270Y347D02*
X1277Y347D01*
X0Y346D02*
X7Y346D01*
X636Y346D02*
X717Y346D01*
X1270Y346D02*
X1277Y346D01*
X0Y345D02*
X7Y345D01*
X638Y345D02*
X715Y345D01*
X1270Y345D02*
X1277Y345D01*
X0Y344D02*
X7Y344D01*
X640Y344D02*
X713Y344D01*
X1270Y344D02*
X1277Y344D01*
X0Y343D02*
X7Y343D01*
X643Y343D02*
X710Y343D01*
X1270Y343D02*
X1277Y343D01*
X0Y342D02*
X7Y342D01*
X646Y342D02*
X707Y342D01*
X1270Y342D02*
X1277Y342D01*
X0Y341D02*
X7Y341D01*
X649Y341D02*
X704Y341D01*
X1270Y341D02*
X1277Y341D01*
X0Y340D02*
X7Y340D01*
X653Y340D02*
X701Y340D01*
X1270Y340D02*
X1277Y340D01*
X0Y339D02*
X7Y339D01*
X657Y339D02*
X696Y339D01*
X1270Y339D02*
X1277Y339D01*
X0Y338D02*
X7Y338D01*
X662Y338D02*
X691Y338D01*
X1270Y338D02*
X1277Y338D01*
X0Y337D02*
X7Y337D01*
X672Y337D02*
X681Y337D01*
X1270Y337D02*
X1277Y337D01*
X0Y336D02*
X7Y336D01*
X1270Y336D02*
X1277Y336D01*
X0Y335D02*
X7Y335D01*
X1270Y335D02*
X1277Y335D01*
X0Y334D02*
X7Y334D01*
X1270Y334D02*
X1277Y334D01*
X0Y333D02*
X7Y333D01*
X1270Y333D02*
X1277Y333D01*
X0Y332D02*
X7Y332D01*
X1270Y332D02*
X1277Y332D01*
X0Y331D02*
X7Y331D01*
X1270Y331D02*
X1277Y331D01*
X0Y330D02*
X7Y330D01*
X1270Y330D02*
X1277Y330D01*
X0Y329D02*
X7Y329D01*
X1270Y329D02*
X1277Y329D01*
X0Y328D02*
X7Y328D01*
X1270Y328D02*
X1277Y328D01*
X0Y327D02*
X7Y327D01*
X1270Y327D02*
X1277Y327D01*
X0Y326D02*
X7Y326D01*
X1270Y326D02*
X1277Y326D01*
X0Y325D02*
X7Y325D01*
X1270Y325D02*
X1277Y325D01*
X0Y324D02*
X7Y324D01*
X1270Y324D02*
X1277Y324D01*
X0Y323D02*
X7Y323D01*
X1270Y323D02*
X1277Y323D01*
X0Y322D02*
X7Y322D01*
X1270Y322D02*
X1277Y322D01*
X0Y321D02*
X7Y321D01*
X1270Y321D02*
X1277Y321D01*
X0Y320D02*
X7Y320D01*
X1270Y320D02*
X1277Y320D01*
X0Y319D02*
X7Y319D01*
X1270Y319D02*
X1277Y319D01*
X0Y318D02*
X7Y318D01*
X1270Y318D02*
X1277Y318D01*
X0Y317D02*
X7Y317D01*
X1270Y317D02*
X1277Y317D01*
X0Y316D02*
X7Y316D01*
X1270Y316D02*
X1277Y316D01*
X0Y315D02*
X7Y315D01*
X1270Y315D02*
X1277Y315D01*
X0Y314D02*
X7Y314D01*
X1270Y314D02*
X1277Y314D01*
X0Y313D02*
X7Y313D01*
X1270Y313D02*
X1277Y313D01*
X0Y312D02*
X7Y312D01*
X1270Y312D02*
X1277Y312D01*
X0Y311D02*
X7Y311D01*
X1270Y311D02*
X1277Y311D01*
X0Y310D02*
X7Y310D01*
X1270Y310D02*
X1277Y310D01*
X0Y309D02*
X7Y309D01*
X1270Y309D02*
X1277Y309D01*
X0Y308D02*
X7Y308D01*
X1270Y308D02*
X1277Y308D01*
X0Y307D02*
X7Y307D01*
X1270Y307D02*
X1277Y307D01*
X0Y306D02*
X7Y306D01*
X1270Y306D02*
X1277Y306D01*
X0Y305D02*
X7Y305D01*
X1270Y305D02*
X1277Y305D01*
X0Y304D02*
X7Y304D01*
X1270Y304D02*
X1277Y304D01*
X0Y303D02*
X7Y303D01*
X1270Y303D02*
X1277Y303D01*
X0Y302D02*
X7Y302D01*
X1270Y302D02*
X1277Y302D01*
X0Y301D02*
X7Y301D01*
X1270Y301D02*
X1277Y301D01*
X0Y300D02*
X7Y300D01*
X1270Y300D02*
X1277Y300D01*
X0Y299D02*
X7Y299D01*
X1270Y299D02*
X1277Y299D01*
X0Y298D02*
X7Y298D01*
X193Y298D02*
X214Y298D01*
X1270Y298D02*
X1277Y298D01*
X0Y297D02*
X7Y297D01*
X193Y297D02*
X215Y297D01*
X1270Y297D02*
X1277Y297D01*
X0Y296D02*
X7Y296D01*
X193Y296D02*
X216Y296D01*
X1270Y296D02*
X1277Y296D01*
X0Y295D02*
X7Y295D01*
X193Y295D02*
X216Y295D01*
X1270Y295D02*
X1277Y295D01*
X0Y294D02*
X7Y294D01*
X193Y294D02*
X215Y294D01*
X1270Y294D02*
X1277Y294D01*
X0Y293D02*
X7Y293D01*
X193Y293D02*
X214Y293D01*
X1270Y293D02*
X1277Y293D01*
X0Y292D02*
X7Y292D01*
X193Y292D02*
X198Y292D01*
X1270Y292D02*
X1277Y292D01*
X0Y291D02*
X7Y291D01*
X193Y291D02*
X198Y291D01*
X1270Y291D02*
X1277Y291D01*
X0Y290D02*
X7Y290D01*
X193Y290D02*
X198Y290D01*
X1270Y290D02*
X1277Y290D01*
X0Y289D02*
X7Y289D01*
X193Y289D02*
X198Y289D01*
X1270Y289D02*
X1277Y289D01*
X0Y288D02*
X7Y288D01*
X193Y288D02*
X198Y288D01*
X1270Y288D02*
X1277Y288D01*
X0Y287D02*
X7Y287D01*
X193Y287D02*
X198Y287D01*
X1270Y287D02*
X1277Y287D01*
X0Y286D02*
X7Y286D01*
X193Y286D02*
X198Y286D01*
X1270Y286D02*
X1277Y286D01*
X0Y285D02*
X7Y285D01*
X193Y285D02*
X198Y285D01*
X231Y285D02*
X234Y285D01*
X255Y285D02*
X258Y285D01*
X1270Y285D02*
X1277Y285D01*
X0Y284D02*
X7Y284D01*
X193Y284D02*
X198Y284D01*
X231Y284D02*
X235Y284D01*
X255Y284D02*
X259Y284D01*
X1270Y284D02*
X1277Y284D01*
X0Y283D02*
X7Y283D01*
X193Y283D02*
X198Y283D01*
X230Y283D02*
X235Y283D01*
X254Y283D02*
X259Y283D01*
X1270Y283D02*
X1277Y283D01*
X0Y282D02*
X7Y282D01*
X193Y282D02*
X198Y282D01*
X230Y282D02*
X235Y282D01*
X254Y282D02*
X260Y282D01*
X1270Y282D02*
X1277Y282D01*
X0Y281D02*
X7Y281D01*
X193Y281D02*
X198Y281D01*
X230Y281D02*
X235Y281D01*
X254Y281D02*
X260Y281D01*
X1270Y281D02*
X1277Y281D01*
X0Y280D02*
X7Y280D01*
X193Y280D02*
X198Y280D01*
X230Y280D02*
X235Y280D01*
X254Y280D02*
X260Y280D01*
X1270Y280D02*
X1277Y280D01*
X0Y279D02*
X7Y279D01*
X193Y279D02*
X198Y279D01*
X230Y279D02*
X235Y279D01*
X254Y279D02*
X260Y279D01*
X1270Y279D02*
X1277Y279D01*
X0Y278D02*
X7Y278D01*
X193Y278D02*
X211Y278D01*
X230Y278D02*
X236Y278D01*
X254Y278D02*
X260Y278D01*
X1270Y278D02*
X1277Y278D01*
X0Y277D02*
X7Y277D01*
X193Y277D02*
X213Y277D01*
X230Y277D02*
X236Y277D01*
X254Y277D02*
X259Y277D01*
X1270Y277D02*
X1277Y277D01*
X0Y276D02*
X7Y276D01*
X193Y276D02*
X214Y276D01*
X231Y276D02*
X236Y276D01*
X253Y276D02*
X259Y276D01*
X1270Y276D02*
X1277Y276D01*
X0Y275D02*
X7Y275D01*
X193Y275D02*
X215Y275D01*
X231Y275D02*
X237Y275D01*
X253Y275D02*
X259Y275D01*
X1270Y275D02*
X1277Y275D01*
X0Y274D02*
X7Y274D01*
X193Y274D02*
X215Y274D01*
X232Y274D02*
X237Y274D01*
X253Y274D02*
X258Y274D01*
X1270Y274D02*
X1277Y274D01*
X0Y273D02*
X7Y273D01*
X193Y273D02*
X216Y273D01*
X232Y273D02*
X238Y273D01*
X252Y273D02*
X258Y273D01*
X1270Y273D02*
X1277Y273D01*
X0Y272D02*
X7Y272D01*
X210Y272D02*
X216Y272D01*
X233Y272D02*
X238Y272D01*
X252Y272D02*
X257Y272D01*
X1270Y272D02*
X1277Y272D01*
X0Y271D02*
X7Y271D01*
X211Y271D02*
X216Y271D01*
X233Y271D02*
X239Y271D01*
X251Y271D02*
X257Y271D01*
X1270Y271D02*
X1277Y271D01*
X0Y270D02*
X7Y270D01*
X211Y270D02*
X216Y270D01*
X233Y270D02*
X239Y270D01*
X251Y270D02*
X256Y270D01*
X1270Y270D02*
X1277Y270D01*
X0Y269D02*
X7Y269D01*
X211Y269D02*
X216Y269D01*
X234Y269D02*
X239Y269D01*
X250Y269D02*
X256Y269D01*
X1270Y269D02*
X1277Y269D01*
X0Y268D02*
X7Y268D01*
X211Y268D02*
X216Y268D01*
X234Y268D02*
X240Y268D01*
X250Y268D02*
X256Y268D01*
X1270Y268D02*
X1277Y268D01*
X0Y267D02*
X7Y267D01*
X211Y267D02*
X216Y267D01*
X235Y267D02*
X240Y267D01*
X249Y267D02*
X255Y267D01*
X1270Y267D02*
X1277Y267D01*
X0Y266D02*
X7Y266D01*
X211Y266D02*
X216Y266D01*
X235Y266D02*
X241Y266D01*
X249Y266D02*
X255Y266D01*
X1270Y266D02*
X1277Y266D01*
X0Y265D02*
X7Y265D01*
X211Y265D02*
X216Y265D01*
X236Y265D02*
X241Y265D01*
X249Y265D02*
X254Y265D01*
X1270Y265D02*
X1277Y265D01*
X0Y264D02*
X7Y264D01*
X211Y264D02*
X216Y264D01*
X236Y264D02*
X242Y264D01*
X248Y264D02*
X254Y264D01*
X1270Y264D02*
X1277Y264D01*
X0Y263D02*
X7Y263D01*
X211Y263D02*
X216Y263D01*
X236Y263D02*
X242Y263D01*
X248Y263D02*
X253Y263D01*
X1270Y263D02*
X1277Y263D01*
X0Y262D02*
X7Y262D01*
X211Y262D02*
X216Y262D01*
X237Y262D02*
X243Y262D01*
X247Y262D02*
X253Y262D01*
X1270Y262D02*
X1277Y262D01*
X0Y261D02*
X7Y261D01*
X211Y261D02*
X216Y261D01*
X237Y261D02*
X243Y261D01*
X247Y261D02*
X252Y261D01*
X1270Y261D02*
X1277Y261D01*
X0Y260D02*
X7Y260D01*
X189Y260D02*
X189Y260D01*
X211Y260D02*
X216Y260D01*
X238Y260D02*
X243Y260D01*
X246Y260D02*
X252Y260D01*
X1270Y260D02*
X1277Y260D01*
X0Y259D02*
X7Y259D01*
X187Y259D02*
X192Y259D01*
X211Y259D02*
X216Y259D01*
X238Y259D02*
X244Y259D01*
X246Y259D02*
X252Y259D01*
X1270Y259D02*
X1277Y259D01*
X0Y258D02*
X7Y258D01*
X187Y258D02*
X194Y258D01*
X211Y258D02*
X216Y258D01*
X239Y258D02*
X251Y258D01*
X1270Y258D02*
X1277Y258D01*
X0Y257D02*
X7Y257D01*
X187Y257D02*
X216Y257D01*
X239Y257D02*
X251Y257D01*
X1270Y257D02*
X1277Y257D01*
X0Y256D02*
X7Y256D01*
X187Y256D02*
X216Y256D01*
X240Y256D02*
X250Y256D01*
X1270Y256D02*
X1277Y256D01*
X0Y255D02*
X7Y255D01*
X187Y255D02*
X215Y255D01*
X240Y255D02*
X250Y255D01*
X1270Y255D02*
X1277Y255D01*
X0Y254D02*
X7Y254D01*
X189Y254D02*
X214Y254D01*
X240Y254D02*
X249Y254D01*
X1270Y254D02*
X1277Y254D01*
X0Y253D02*
X7Y253D01*
X191Y253D02*
X214Y253D01*
X241Y253D02*
X249Y253D01*
X1270Y253D02*
X1277Y253D01*
X0Y252D02*
X7Y252D01*
X194Y252D02*
X212Y252D01*
X242Y252D02*
X248Y252D01*
X1270Y252D02*
X1277Y252D01*
X0Y251D02*
X7Y251D01*
X1270Y251D02*
X1277Y251D01*
X0Y250D02*
X7Y250D01*
X1270Y250D02*
X1277Y250D01*
X0Y249D02*
X7Y249D01*
X1270Y249D02*
X1277Y249D01*
X0Y248D02*
X7Y248D01*
X1270Y248D02*
X1277Y248D01*
X0Y247D02*
X7Y247D01*
X1270Y247D02*
X1277Y247D01*
X0Y246D02*
X7Y246D01*
X1270Y246D02*
X1277Y246D01*
X0Y245D02*
X7Y245D01*
X1270Y245D02*
X1277Y245D01*
X0Y244D02*
X7Y244D01*
X1270Y244D02*
X1277Y244D01*
X0Y243D02*
X7Y243D01*
X1270Y243D02*
X1277Y243D01*
X0Y242D02*
X7Y242D01*
X1270Y242D02*
X1277Y242D01*
X0Y241D02*
X7Y241D01*
X1270Y241D02*
X1277Y241D01*
X0Y240D02*
X7Y240D01*
X1270Y240D02*
X1277Y240D01*
X0Y239D02*
X7Y239D01*
X1270Y239D02*
X1277Y239D01*
X0Y238D02*
X7Y238D01*
X1270Y238D02*
X1277Y238D01*
X0Y237D02*
X7Y237D01*
X1270Y237D02*
X1277Y237D01*
X0Y236D02*
X7Y236D01*
X1270Y236D02*
X1277Y236D01*
X0Y235D02*
X7Y235D01*
X1270Y235D02*
X1277Y235D01*
X0Y234D02*
X7Y234D01*
X1270Y234D02*
X1277Y234D01*
X0Y233D02*
X7Y233D01*
X1270Y233D02*
X1277Y233D01*
X0Y232D02*
X7Y232D01*
X1270Y232D02*
X1277Y232D01*
X0Y231D02*
X7Y231D01*
X1270Y231D02*
X1277Y231D01*
X0Y230D02*
X7Y230D01*
X1270Y230D02*
X1277Y230D01*
X0Y229D02*
X7Y229D01*
X1270Y229D02*
X1277Y229D01*
X0Y228D02*
X7Y228D01*
X1270Y228D02*
X1277Y228D01*
X0Y227D02*
X7Y227D01*
X1270Y227D02*
X1277Y227D01*
X0Y226D02*
X7Y226D01*
X1270Y226D02*
X1277Y226D01*
X0Y225D02*
X7Y225D01*
X1270Y225D02*
X1277Y225D01*
X0Y224D02*
X7Y224D01*
X1270Y224D02*
X1277Y224D01*
X0Y223D02*
X7Y223D01*
X1270Y223D02*
X1277Y223D01*
X0Y222D02*
X7Y222D01*
X1270Y222D02*
X1277Y222D01*
X0Y221D02*
X7Y221D01*
X1270Y221D02*
X1277Y221D01*
X0Y220D02*
X7Y220D01*
X1270Y220D02*
X1277Y220D01*
X0Y219D02*
X7Y219D01*
X1270Y219D02*
X1277Y219D01*
X0Y218D02*
X7Y218D01*
X1270Y218D02*
X1277Y218D01*
X0Y217D02*
X7Y217D01*
X918Y217D02*
X935Y217D01*
X1270Y217D02*
X1277Y217D01*
X0Y216D02*
X7Y216D01*
X916Y216D02*
X935Y216D01*
X1270Y216D02*
X1277Y216D01*
X0Y215D02*
X7Y215D01*
X916Y215D02*
X935Y215D01*
X1270Y215D02*
X1277Y215D01*
X0Y214D02*
X7Y214D01*
X915Y214D02*
X935Y214D01*
X1270Y214D02*
X1277Y214D01*
X0Y213D02*
X7Y213D01*
X915Y213D02*
X935Y213D01*
X1270Y213D02*
X1277Y213D01*
X0Y212D02*
X7Y212D01*
X916Y212D02*
X935Y212D01*
X1270Y212D02*
X1277Y212D01*
X0Y211D02*
X7Y211D01*
X917Y211D02*
X935Y211D01*
X1270Y211D02*
X1277Y211D01*
X0Y210D02*
X7Y210D01*
X929Y210D02*
X935Y210D01*
X1270Y210D02*
X1277Y210D01*
X0Y209D02*
X7Y209D01*
X929Y209D02*
X935Y209D01*
X1270Y209D02*
X1277Y209D01*
X0Y208D02*
X7Y208D01*
X929Y208D02*
X935Y208D01*
X1270Y208D02*
X1277Y208D01*
X0Y207D02*
X7Y207D01*
X929Y207D02*
X935Y207D01*
X1270Y207D02*
X1277Y207D01*
X0Y206D02*
X7Y206D01*
X929Y206D02*
X935Y206D01*
X1270Y206D02*
X1277Y206D01*
X0Y205D02*
X7Y205D01*
X929Y205D02*
X935Y205D01*
X1270Y205D02*
X1277Y205D01*
X0Y204D02*
X7Y204D01*
X929Y204D02*
X935Y204D01*
X1270Y204D02*
X1277Y204D01*
X0Y203D02*
X7Y203D01*
X929Y203D02*
X935Y203D01*
X1270Y203D02*
X1277Y203D01*
X0Y202D02*
X7Y202D01*
X929Y202D02*
X935Y202D01*
X1270Y202D02*
X1277Y202D01*
X0Y201D02*
X7Y201D01*
X929Y201D02*
X935Y201D01*
X1270Y201D02*
X1277Y201D01*
X0Y200D02*
X7Y200D01*
X929Y200D02*
X935Y200D01*
X1270Y200D02*
X1277Y200D01*
X0Y199D02*
X7Y199D01*
X929Y199D02*
X935Y199D01*
X1270Y199D02*
X1277Y199D01*
X0Y198D02*
X7Y198D01*
X929Y198D02*
X935Y198D01*
X1270Y198D02*
X1277Y198D01*
X0Y197D02*
X7Y197D01*
X929Y197D02*
X935Y197D01*
X1270Y197D02*
X1277Y197D01*
X0Y196D02*
X7Y196D01*
X929Y196D02*
X935Y196D01*
X1270Y196D02*
X1277Y196D01*
X0Y195D02*
X7Y195D01*
X929Y195D02*
X935Y195D01*
X1270Y195D02*
X1277Y195D01*
X0Y194D02*
X7Y194D01*
X929Y194D02*
X935Y194D01*
X1270Y194D02*
X1277Y194D01*
X0Y193D02*
X7Y193D01*
X929Y193D02*
X935Y193D01*
X1270Y193D02*
X1277Y193D01*
X0Y192D02*
X7Y192D01*
X929Y192D02*
X935Y192D01*
X1270Y192D02*
X1277Y192D01*
X0Y191D02*
X7Y191D01*
X929Y191D02*
X935Y191D01*
X1270Y191D02*
X1277Y191D01*
X0Y190D02*
X7Y190D01*
X929Y190D02*
X935Y190D01*
X1270Y190D02*
X1277Y190D01*
X0Y189D02*
X7Y189D01*
X929Y189D02*
X935Y189D01*
X1270Y189D02*
X1277Y189D01*
X0Y188D02*
X7Y188D01*
X929Y188D02*
X935Y188D01*
X1270Y188D02*
X1277Y188D01*
X0Y187D02*
X7Y187D01*
X929Y187D02*
X935Y187D01*
X944Y187D02*
X947Y187D01*
X1270Y187D02*
X1277Y187D01*
X0Y186D02*
X7Y186D01*
X929Y186D02*
X935Y186D01*
X943Y186D02*
X948Y186D01*
X1270Y186D02*
X1277Y186D01*
X0Y185D02*
X7Y185D01*
X929Y185D02*
X935Y185D01*
X943Y185D02*
X949Y185D01*
X1270Y185D02*
X1277Y185D01*
X0Y184D02*
X7Y184D01*
X929Y184D02*
X935Y184D01*
X943Y184D02*
X949Y184D01*
X1270Y184D02*
X1277Y184D01*
X0Y183D02*
X7Y183D01*
X929Y183D02*
X935Y183D01*
X943Y183D02*
X949Y183D01*
X1270Y183D02*
X1277Y183D01*
X0Y182D02*
X7Y182D01*
X929Y182D02*
X935Y182D01*
X943Y182D02*
X949Y182D01*
X1270Y182D02*
X1277Y182D01*
X0Y181D02*
X7Y181D01*
X929Y181D02*
X935Y181D01*
X943Y181D02*
X949Y181D01*
X1270Y181D02*
X1277Y181D01*
X0Y180D02*
X7Y180D01*
X929Y180D02*
X935Y180D01*
X943Y180D02*
X949Y180D01*
X1270Y180D02*
X1277Y180D01*
X0Y179D02*
X7Y179D01*
X929Y179D02*
X935Y179D01*
X943Y179D02*
X949Y179D01*
X1270Y179D02*
X1277Y179D01*
X0Y178D02*
X7Y178D01*
X929Y178D02*
X935Y178D01*
X943Y178D02*
X949Y178D01*
X1270Y178D02*
X1277Y178D01*
X0Y177D02*
X7Y177D01*
X929Y177D02*
X935Y177D01*
X943Y177D02*
X949Y177D01*
X1270Y177D02*
X1277Y177D01*
X0Y176D02*
X7Y176D01*
X929Y176D02*
X935Y176D01*
X943Y176D02*
X949Y176D01*
X1270Y176D02*
X1277Y176D01*
X0Y175D02*
X7Y175D01*
X929Y175D02*
X935Y175D01*
X943Y175D02*
X949Y175D01*
X1270Y175D02*
X1277Y175D01*
X0Y174D02*
X7Y174D01*
X929Y174D02*
X935Y174D01*
X943Y174D02*
X949Y174D01*
X1270Y174D02*
X1277Y174D01*
X0Y173D02*
X7Y173D01*
X929Y173D02*
X935Y173D01*
X943Y173D02*
X949Y173D01*
X1270Y173D02*
X1277Y173D01*
X0Y172D02*
X7Y172D01*
X929Y172D02*
X935Y172D01*
X943Y172D02*
X949Y172D01*
X1270Y172D02*
X1277Y172D01*
X0Y171D02*
X7Y171D01*
X929Y171D02*
X935Y171D01*
X943Y171D02*
X949Y171D01*
X1270Y171D02*
X1277Y171D01*
X0Y170D02*
X7Y170D01*
X919Y170D02*
X949Y170D01*
X1270Y170D02*
X1277Y170D01*
X0Y169D02*
X7Y169D01*
X916Y169D02*
X949Y169D01*
X1270Y169D02*
X1277Y169D01*
X0Y168D02*
X7Y168D01*
X916Y168D02*
X949Y168D01*
X1270Y168D02*
X1277Y168D01*
X0Y167D02*
X7Y167D01*
X915Y167D02*
X949Y167D01*
X1270Y167D02*
X1277Y167D01*
X0Y166D02*
X7Y166D01*
X915Y166D02*
X949Y166D01*
X1270Y166D02*
X1277Y166D01*
X0Y165D02*
X7Y165D01*
X916Y165D02*
X949Y165D01*
X1270Y165D02*
X1277Y165D01*
X0Y164D02*
X7Y164D01*
X917Y164D02*
X948Y164D01*
X1270Y164D02*
X1277Y164D01*
X0Y163D02*
X7Y163D01*
X1270Y163D02*
X1277Y163D01*
X0Y162D02*
X7Y162D01*
X1270Y162D02*
X1277Y162D01*
X0Y161D02*
X7Y161D01*
X1270Y161D02*
X1277Y161D01*
X0Y160D02*
X7Y160D01*
X1270Y160D02*
X1277Y160D01*
X0Y159D02*
X7Y159D01*
X1270Y159D02*
X1277Y159D01*
X0Y158D02*
X7Y158D01*
X1270Y158D02*
X1277Y158D01*
X0Y157D02*
X7Y157D01*
X1270Y157D02*
X1277Y157D01*
X0Y156D02*
X7Y156D01*
X1270Y156D02*
X1277Y156D01*
X0Y155D02*
X7Y155D01*
X1270Y155D02*
X1277Y155D01*
X0Y154D02*
X7Y154D01*
X1270Y154D02*
X1277Y154D01*
X0Y153D02*
X7Y153D01*
X1270Y153D02*
X1277Y153D01*
X0Y152D02*
X7Y152D01*
X1270Y152D02*
X1277Y152D01*
X0Y151D02*
X7Y151D01*
X1270Y151D02*
X1277Y151D01*
X0Y150D02*
X7Y150D01*
X1270Y150D02*
X1277Y150D01*
X0Y149D02*
X7Y149D01*
X1270Y149D02*
X1277Y149D01*
X0Y148D02*
X7Y148D01*
X1270Y148D02*
X1277Y148D01*
X0Y147D02*
X7Y147D01*
X1270Y147D02*
X1277Y147D01*
X0Y146D02*
X7Y146D01*
X1270Y146D02*
X1277Y146D01*
X0Y145D02*
X7Y145D01*
X1270Y145D02*
X1277Y145D01*
X0Y144D02*
X7Y144D01*
X1270Y144D02*
X1277Y144D01*
X0Y143D02*
X7Y143D01*
X1270Y143D02*
X1277Y143D01*
X0Y142D02*
X7Y142D01*
X1270Y142D02*
X1277Y142D01*
X0Y141D02*
X7Y141D01*
X1270Y141D02*
X1277Y141D01*
X0Y140D02*
X7Y140D01*
X1270Y140D02*
X1277Y140D01*
X0Y139D02*
X7Y139D01*
X1270Y139D02*
X1277Y139D01*
X0Y138D02*
X7Y138D01*
X1270Y138D02*
X1277Y138D01*
X0Y137D02*
X7Y137D01*
X1270Y137D02*
X1277Y137D01*
X0Y136D02*
X7Y136D01*
X1270Y136D02*
X1277Y136D01*
X0Y135D02*
X7Y135D01*
X1270Y135D02*
X1277Y135D01*
X0Y134D02*
X7Y134D01*
X1270Y134D02*
X1277Y134D01*
X0Y133D02*
X7Y133D01*
X1270Y133D02*
X1277Y133D01*
X0Y132D02*
X7Y132D01*
X1270Y132D02*
X1277Y132D01*
X0Y131D02*
X7Y131D01*
X1270Y131D02*
X1277Y131D01*
X0Y130D02*
X7Y130D01*
X1270Y130D02*
X1277Y130D01*
X0Y129D02*
X7Y129D01*
X1270Y129D02*
X1277Y129D01*
X0Y128D02*
X7Y128D01*
X1270Y128D02*
X1277Y128D01*
X0Y127D02*
X7Y127D01*
X1270Y127D02*
X1277Y127D01*
X0Y126D02*
X7Y126D01*
X1270Y126D02*
X1277Y126D01*
X0Y125D02*
X7Y125D01*
X1270Y125D02*
X1277Y125D01*
X0Y124D02*
X7Y124D01*
X1270Y124D02*
X1277Y124D01*
X0Y123D02*
X7Y123D01*
X1270Y123D02*
X1277Y123D01*
X0Y122D02*
X7Y122D01*
X1270Y122D02*
X1277Y122D01*
X0Y121D02*
X7Y121D01*
X1270Y121D02*
X1277Y121D01*
X0Y120D02*
X7Y120D01*
X1270Y120D02*
X1277Y120D01*
X0Y119D02*
X7Y119D01*
X1270Y119D02*
X1277Y119D01*
X0Y118D02*
X7Y118D01*
X1270Y118D02*
X1277Y118D01*
X0Y117D02*
X7Y117D01*
X1270Y117D02*
X1277Y117D01*
X0Y116D02*
X7Y116D01*
X1270Y116D02*
X1277Y116D01*
X0Y115D02*
X7Y115D01*
X1270Y115D02*
X1277Y115D01*
X0Y114D02*
X7Y114D01*
X1270Y114D02*
X1277Y114D01*
X0Y113D02*
X7Y113D01*
X1270Y113D02*
X1277Y113D01*
X0Y112D02*
X7Y112D01*
X1270Y112D02*
X1277Y112D01*
X0Y111D02*
X7Y111D01*
X1270Y111D02*
X1277Y111D01*
X0Y110D02*
X7Y110D01*
X1270Y110D02*
X1277Y110D01*
X0Y109D02*
X7Y109D01*
X1270Y109D02*
X1277Y109D01*
X0Y108D02*
X7Y108D01*
X1270Y108D02*
X1277Y108D01*
X0Y107D02*
X7Y107D01*
X1270Y107D02*
X1277Y107D01*
X0Y106D02*
X7Y106D01*
X1270Y106D02*
X1277Y106D01*
X0Y105D02*
X7Y105D01*
X1270Y105D02*
X1277Y105D01*
X0Y104D02*
X7Y104D01*
X1270Y104D02*
X1277Y104D01*
X0Y103D02*
X7Y103D01*
X1270Y103D02*
X1277Y103D01*
X0Y102D02*
X7Y102D01*
X1270Y102D02*
X1277Y102D01*
X0Y101D02*
X7Y101D01*
X1270Y101D02*
X1277Y101D01*
X0Y100D02*
X7Y100D01*
X1270Y100D02*
X1277Y100D01*
X0Y99D02*
X7Y99D01*
X1270Y99D02*
X1277Y99D01*
X0Y98D02*
X7Y98D01*
X1270Y98D02*
X1277Y98D01*
X0Y97D02*
X7Y97D01*
X1270Y97D02*
X1277Y97D01*
X0Y96D02*
X7Y96D01*
X1270Y96D02*
X1277Y96D01*
X0Y95D02*
X7Y95D01*
X1270Y95D02*
X1277Y95D01*
X0Y94D02*
X7Y94D01*
X1270Y94D02*
X1277Y94D01*
X0Y93D02*
X7Y93D01*
X1270Y93D02*
X1277Y93D01*
X0Y92D02*
X7Y92D01*
X1270Y92D02*
X1277Y92D01*
X0Y91D02*
X7Y91D01*
X1270Y91D02*
X1277Y91D01*
X0Y90D02*
X7Y90D01*
X1270Y90D02*
X1277Y90D01*
X0Y89D02*
X7Y89D01*
X1270Y89D02*
X1277Y89D01*
X0Y88D02*
X7Y88D01*
X1270Y88D02*
X1277Y88D01*
X0Y87D02*
X7Y87D01*
X1270Y87D02*
X1277Y87D01*
X0Y86D02*
X7Y86D01*
X1270Y86D02*
X1277Y86D01*
X0Y85D02*
X7Y85D01*
X1270Y85D02*
X1277Y85D01*
X0Y84D02*
X7Y84D01*
X1270Y84D02*
X1277Y84D01*
X0Y83D02*
X7Y83D01*
X1270Y83D02*
X1277Y83D01*
X0Y82D02*
X7Y82D01*
X1270Y82D02*
X1277Y82D01*
X0Y81D02*
X7Y81D01*
X1270Y81D02*
X1277Y81D01*
X0Y80D02*
X7Y80D01*
X1270Y80D02*
X1277Y80D01*
X0Y79D02*
X7Y79D01*
X1270Y79D02*
X1277Y79D01*
X0Y78D02*
X7Y78D01*
X1270Y78D02*
X1277Y78D01*
X0Y77D02*
X7Y77D01*
X1270Y77D02*
X1277Y77D01*
X0Y76D02*
X7Y76D01*
X1270Y76D02*
X1277Y76D01*
X0Y75D02*
X7Y75D01*
X1270Y75D02*
X1277Y75D01*
X0Y74D02*
X7Y74D01*
X1270Y74D02*
X1277Y74D01*
X0Y73D02*
X7Y73D01*
X1270Y73D02*
X1277Y73D01*
X0Y72D02*
X7Y72D01*
X1270Y72D02*
X1277Y72D01*
X0Y71D02*
X7Y71D01*
X1270Y71D02*
X1277Y71D01*
X0Y70D02*
X7Y70D01*
X1270Y70D02*
X1277Y70D01*
X0Y69D02*
X7Y69D01*
X1270Y69D02*
X1277Y69D01*
X0Y68D02*
X7Y68D01*
X1270Y68D02*
X1277Y68D01*
X0Y67D02*
X7Y67D01*
X1270Y67D02*
X1277Y67D01*
X0Y66D02*
X7Y66D01*
X1270Y66D02*
X1277Y66D01*
X0Y65D02*
X7Y65D01*
X1270Y65D02*
X1277Y65D01*
X0Y64D02*
X7Y64D01*
X1270Y64D02*
X1277Y64D01*
X0Y63D02*
X7Y63D01*
X1270Y63D02*
X1277Y63D01*
X0Y62D02*
X7Y62D01*
X1270Y62D02*
X1277Y62D01*
X0Y61D02*
X7Y61D01*
X1270Y61D02*
X1277Y61D01*
X0Y60D02*
X7Y60D01*
X1270Y60D02*
X1277Y60D01*
X0Y59D02*
X7Y59D01*
X1270Y59D02*
X1277Y59D01*
X0Y58D02*
X7Y58D01*
X1270Y58D02*
X1277Y58D01*
X0Y57D02*
X7Y57D01*
X1270Y57D02*
X1277Y57D01*
X0Y56D02*
X7Y56D01*
X1270Y56D02*
X1277Y56D01*
X0Y55D02*
X7Y55D01*
X1270Y55D02*
X1277Y55D01*
X0Y54D02*
X7Y54D01*
X1270Y54D02*
X1277Y54D01*
X0Y53D02*
X7Y53D01*
X1270Y53D02*
X1277Y53D01*
X0Y52D02*
X7Y52D01*
X1270Y52D02*
X1277Y52D01*
X0Y51D02*
X7Y51D01*
X1270Y51D02*
X1277Y51D01*
X0Y50D02*
X7Y50D01*
X1270Y50D02*
X1277Y50D01*
X0Y49D02*
X7Y49D01*
X1270Y49D02*
X1277Y49D01*
X0Y48D02*
X7Y48D01*
X1270Y48D02*
X1277Y48D01*
X0Y47D02*
X7Y47D01*
X1270Y47D02*
X1277Y47D01*
X0Y46D02*
X7Y46D01*
X1270Y46D02*
X1277Y46D01*
X0Y45D02*
X7Y45D01*
X1270Y45D02*
X1277Y45D01*
X0Y44D02*
X7Y44D01*
X1270Y44D02*
X1277Y44D01*
X0Y43D02*
X7Y43D01*
X1270Y43D02*
X1277Y43D01*
X0Y42D02*
X7Y42D01*
X1270Y42D02*
X1277Y42D01*
X0Y41D02*
X7Y41D01*
X1270Y41D02*
X1277Y41D01*
X0Y40D02*
X7Y40D01*
X1270Y40D02*
X1277Y40D01*
X0Y39D02*
X7Y39D01*
X1270Y39D02*
X1277Y39D01*
X0Y38D02*
X7Y38D01*
X1270Y38D02*
X1277Y38D01*
X0Y37D02*
X7Y37D01*
X1270Y37D02*
X1277Y37D01*
X0Y36D02*
X7Y36D01*
X1270Y36D02*
X1277Y36D01*
X0Y35D02*
X7Y35D01*
X1270Y35D02*
X1277Y35D01*
X0Y34D02*
X7Y34D01*
X1270Y34D02*
X1277Y34D01*
X0Y33D02*
X7Y33D01*
X1270Y33D02*
X1277Y33D01*
X0Y32D02*
X7Y32D01*
X1270Y32D02*
X1277Y32D01*
X0Y31D02*
X7Y31D01*
X1270Y31D02*
X1277Y31D01*
X0Y30D02*
X7Y30D01*
X1270Y30D02*
X1277Y30D01*
X0Y29D02*
X7Y29D01*
X1270Y29D02*
X1277Y29D01*
X0Y28D02*
X7Y28D01*
X1270Y28D02*
X1277Y28D01*
X0Y27D02*
X7Y27D01*
X1270Y27D02*
X1277Y27D01*
X0Y26D02*
X7Y26D01*
X1270Y26D02*
X1277Y26D01*
X0Y25D02*
X7Y25D01*
X1270Y25D02*
X1277Y25D01*
X0Y24D02*
X7Y24D01*
X1270Y24D02*
X1277Y24D01*
X0Y23D02*
X7Y23D01*
X1270Y23D02*
X1277Y23D01*
X0Y22D02*
X7Y22D01*
X1270Y22D02*
X1277Y22D01*
X0Y21D02*
X7Y21D01*
X1270Y21D02*
X1277Y21D01*
X0Y20D02*
X7Y20D01*
X1270Y20D02*
X1277Y20D01*
X0Y19D02*
X7Y19D01*
X1270Y19D02*
X1277Y19D01*
X0Y18D02*
X7Y18D01*
X1270Y18D02*
X1277Y18D01*
X0Y17D02*
X7Y17D01*
X1270Y17D02*
X1277Y17D01*
X0Y16D02*
X7Y16D01*
X1270Y16D02*
X1277Y16D01*
X0Y15D02*
X7Y15D01*
X1270Y15D02*
X1277Y15D01*
X0Y14D02*
X7Y14D01*
X1270Y14D02*
X1277Y14D01*
X0Y13D02*
X7Y13D01*
X1270Y13D02*
X1277Y13D01*
X0Y12D02*
X7Y12D01*
X1270Y12D02*
X1277Y12D01*
X0Y11D02*
X7Y11D01*
X1270Y11D02*
X1277Y11D01*
X0Y10D02*
X7Y10D01*
X1270Y10D02*
X1277Y10D01*
X0Y9D02*
X7Y9D01*
X1270Y9D02*
X1277Y9D01*
X0Y8D02*
X1277Y8D01*
X0Y7D02*
X1277Y7D01*
X0Y6D02*
X1277Y6D01*
X0Y5D02*
X1277Y5D01*
X0Y4D02*
X1277Y4D01*
X0Y3D02*
X1277Y3D01*
X0Y2D02*
X1277Y2D01*
X0Y1D02*
X1277Y1D01*
D02*
G04 End of Silk1*
M02*