G04 MADE WITH FRITZING*
G04 WWW.FRITZING.ORG*
G04 DOUBLE SIDED*
G04 HOLES PLATED*
G04 CONTOUR ON CENTER OF CONTOUR VECTOR*
%ASAXBY*%
%FSLAX23Y23*%
%MOIN*%
%OFA0B0*%
%SFA1.0B1.0*%
%ADD10C,0.075000*%
%ADD11C,0.082000*%
%ADD12C,0.070925*%
%ADD13C,0.070866*%
%ADD14C,0.074000*%
%ADD15C,0.200000*%
%ADD16C,0.078000*%
%ADD17R,0.075000X0.075000*%
%ADD18R,0.082000X0.082000*%
%ADD19C,0.008000*%
%ADD20C,0.024000*%
%ADD21C,0.016000*%
%ADD22R,0.001000X0.001000*%
%LNCOPPER1*%
G90*
G70*
G54D10*
X290Y648D03*
X190Y648D03*
X1153Y636D03*
X853Y636D03*
X1153Y736D03*
X853Y736D03*
X1153Y836D03*
X853Y836D03*
X1153Y936D03*
X853Y936D03*
X1153Y1036D03*
X853Y1036D03*
X1153Y1136D03*
X853Y1136D03*
X1153Y1236D03*
X853Y1236D03*
X1153Y1336D03*
X853Y1336D03*
X1153Y1436D03*
X853Y1436D03*
X1153Y1536D03*
X853Y1536D03*
X1153Y1636D03*
X853Y1636D03*
X1153Y1736D03*
X853Y1736D03*
X1153Y1836D03*
X853Y1836D03*
X1153Y1936D03*
X853Y1936D03*
X103Y1936D03*
X703Y1936D03*
X103Y1836D03*
X703Y1836D03*
X103Y1736D03*
X703Y1736D03*
X103Y1636D03*
X703Y1636D03*
X103Y1536D03*
X703Y1536D03*
X103Y1436D03*
X703Y1436D03*
X103Y1336D03*
X703Y1336D03*
X103Y1236D03*
X703Y1236D03*
X103Y1136D03*
X703Y1136D03*
X103Y1036D03*
X703Y1036D03*
X103Y936D03*
X703Y936D03*
X103Y836D03*
X703Y836D03*
G54D11*
X328Y436D03*
X228Y436D03*
X128Y436D03*
G54D12*
X678Y455D03*
G54D13*
X678Y648D03*
G54D14*
X853Y186D03*
X743Y186D03*
X634Y186D03*
X525Y186D03*
X416Y186D03*
X798Y74D03*
X689Y74D03*
X580Y74D03*
X471Y74D03*
G54D15*
X1127Y130D03*
X142Y130D03*
G54D14*
X853Y186D03*
X743Y186D03*
X634Y186D03*
X525Y186D03*
X416Y186D03*
X798Y74D03*
X689Y74D03*
X580Y74D03*
X471Y74D03*
G54D15*
X1127Y130D03*
X142Y130D03*
G54D16*
X603Y1936D03*
G54D17*
X290Y648D03*
X1153Y636D03*
X103Y1936D03*
G54D18*
X328Y436D03*
G54D19*
X952Y487D02*
X1253Y487D01*
D02*
X952Y74D02*
X952Y487D01*
D02*
X1253Y487D02*
X1253Y936D01*
D02*
X1253Y936D02*
X1176Y936D01*
D02*
X823Y74D02*
X952Y74D01*
D02*
X852Y523D02*
X852Y211D01*
D02*
X1227Y835D02*
X1227Y523D01*
D02*
X1227Y523D02*
X852Y523D01*
D02*
X1176Y836D02*
X1227Y835D01*
G54D20*
D02*
X610Y206D02*
X529Y273D01*
D02*
X529Y273D02*
X441Y205D01*
G54D21*
D02*
X323Y462D02*
X294Y626D01*
G54D19*
D02*
X829Y1936D02*
X726Y1936D01*
D02*
X876Y1736D02*
X940Y1735D01*
D02*
X940Y1735D02*
X940Y2048D01*
D02*
X940Y2048D02*
X28Y2048D01*
D02*
X28Y2048D02*
X28Y1835D01*
D02*
X28Y1835D02*
X79Y1836D01*
G54D21*
D02*
X880Y1245D02*
X1125Y1327D01*
D02*
X124Y943D02*
X681Y1129D01*
G54D20*
D02*
X406Y215D02*
X338Y406D01*
G54D21*
D02*
X722Y1149D02*
X833Y1223D01*
G54D19*
D02*
X616Y1036D02*
X679Y1036D01*
D02*
X616Y561D02*
X616Y1036D01*
D02*
X1153Y561D02*
X616Y561D01*
D02*
X1153Y613D02*
X1153Y561D01*
G54D20*
D02*
X290Y677D02*
X291Y936D01*
D02*
X291Y936D02*
X131Y936D01*
G54D22*
X815Y223D02*
X888Y223D01*
X815Y222D02*
X888Y222D01*
X815Y221D02*
X888Y221D01*
X815Y220D02*
X888Y220D01*
X815Y219D02*
X888Y219D01*
X815Y218D02*
X888Y218D01*
X815Y217D02*
X888Y217D01*
X815Y216D02*
X888Y216D01*
X815Y215D02*
X888Y215D01*
X815Y214D02*
X888Y214D01*
X815Y213D02*
X888Y213D01*
X815Y212D02*
X888Y212D01*
X815Y211D02*
X888Y211D01*
X815Y210D02*
X888Y210D01*
X815Y209D02*
X888Y209D01*
X815Y208D02*
X888Y208D01*
X815Y207D02*
X888Y207D01*
X815Y206D02*
X847Y206D01*
X856Y206D02*
X888Y206D01*
X815Y205D02*
X844Y205D01*
X859Y205D02*
X888Y205D01*
X815Y204D02*
X842Y204D01*
X861Y204D02*
X888Y204D01*
X815Y203D02*
X840Y203D01*
X863Y203D02*
X888Y203D01*
X815Y202D02*
X839Y202D01*
X864Y202D02*
X888Y202D01*
X815Y201D02*
X837Y201D01*
X866Y201D02*
X888Y201D01*
X815Y200D02*
X836Y200D01*
X867Y200D02*
X888Y200D01*
X815Y199D02*
X836Y199D01*
X867Y199D02*
X888Y199D01*
X815Y198D02*
X835Y198D01*
X868Y198D02*
X888Y198D01*
X815Y197D02*
X834Y197D01*
X869Y197D02*
X888Y197D01*
X815Y196D02*
X834Y196D01*
X869Y196D02*
X888Y196D01*
X815Y195D02*
X833Y195D01*
X870Y195D02*
X888Y195D01*
X815Y194D02*
X833Y194D01*
X870Y194D02*
X888Y194D01*
X815Y193D02*
X832Y193D01*
X871Y193D02*
X888Y193D01*
X815Y192D02*
X832Y192D01*
X871Y192D02*
X888Y192D01*
X815Y191D02*
X832Y191D01*
X871Y191D02*
X888Y191D01*
X815Y190D02*
X831Y190D01*
X872Y190D02*
X888Y190D01*
X815Y189D02*
X831Y189D01*
X872Y189D02*
X888Y189D01*
X815Y188D02*
X831Y188D01*
X872Y188D02*
X888Y188D01*
X815Y187D02*
X831Y187D01*
X872Y187D02*
X888Y187D01*
X815Y186D02*
X831Y186D01*
X872Y186D02*
X888Y186D01*
X815Y185D02*
X831Y185D01*
X872Y185D02*
X888Y185D01*
X815Y184D02*
X831Y184D01*
X872Y184D02*
X888Y184D01*
X815Y183D02*
X831Y183D01*
X872Y183D02*
X888Y183D01*
X815Y182D02*
X832Y182D01*
X871Y182D02*
X888Y182D01*
X815Y181D02*
X832Y181D01*
X871Y181D02*
X888Y181D01*
X815Y180D02*
X832Y180D01*
X871Y180D02*
X888Y180D01*
X815Y179D02*
X832Y179D01*
X871Y179D02*
X888Y179D01*
X815Y178D02*
X833Y178D01*
X870Y178D02*
X888Y178D01*
X815Y177D02*
X833Y177D01*
X870Y177D02*
X888Y177D01*
X815Y176D02*
X834Y176D01*
X869Y176D02*
X888Y176D01*
X815Y175D02*
X835Y175D01*
X868Y175D02*
X888Y175D01*
X815Y174D02*
X835Y174D01*
X868Y174D02*
X888Y174D01*
X815Y173D02*
X836Y173D01*
X867Y173D02*
X888Y173D01*
X815Y172D02*
X837Y172D01*
X866Y172D02*
X888Y172D01*
X815Y171D02*
X838Y171D01*
X865Y171D02*
X888Y171D01*
X815Y170D02*
X840Y170D01*
X863Y170D02*
X888Y170D01*
X815Y169D02*
X841Y169D01*
X862Y169D02*
X888Y169D01*
X815Y168D02*
X843Y168D01*
X860Y168D02*
X888Y168D01*
X815Y167D02*
X846Y167D01*
X857Y167D02*
X888Y167D01*
X815Y166D02*
X888Y166D01*
X815Y165D02*
X888Y165D01*
X815Y164D02*
X888Y164D01*
X815Y163D02*
X888Y163D01*
X815Y162D02*
X888Y162D01*
X815Y161D02*
X888Y161D01*
X815Y160D02*
X888Y160D01*
X815Y159D02*
X888Y159D01*
X815Y158D02*
X888Y158D01*
X815Y157D02*
X888Y157D01*
X815Y156D02*
X888Y156D01*
X815Y155D02*
X888Y155D01*
X815Y154D02*
X888Y154D01*
X815Y153D02*
X888Y153D01*
X815Y152D02*
X888Y152D01*
X815Y151D02*
X888Y151D01*
X815Y150D02*
X888Y150D01*
D02*
G04 End of Copper1*
M02*