; NON-PLATED HOLES START AT T1
; THROUGH (PLATED) HOLES START AT T100
M48
INCH
T100C0.040000
T101C0.130000
T102C0.035000
T103C0.031496
T104C0.031555
T105C0.042000
T106C0.038000
%
T100
X007434Y001859
X005800Y000741
X006344Y001859
X004710Y000741
X005253Y001859
X007977Y000741
X004162Y001859
X006887Y000741
X008525Y001859
T101
X011265Y001300
X001422Y001300
T102
X011525Y013359
X007025Y015359
X001025Y015359
X008525Y016359
X011525Y018359
X008525Y008359
X011525Y011359
X007025Y013359
X001025Y013359
X008525Y014359
X011525Y016359
X008525Y006359
X007025Y018359
X001025Y018359
X008525Y019359
X011525Y008359
X007025Y011359
X001025Y011359
X008525Y012359
X011525Y014359
X007025Y016359
X001025Y016359
X008525Y017359
X011525Y006359
X007025Y008359
X001025Y008359
X011525Y019359
X008525Y009359
X008525Y010359
X011525Y012359
X007025Y014359
X001025Y014359
X008525Y015359
X011525Y017359
X008525Y007359
X007025Y019359
X001025Y019359
X011525Y009359
X011525Y010359
X007025Y012359
X001025Y012359
X008525Y013359
X001900Y006484
X011525Y015359
X007025Y017359
X001025Y017359
X008525Y018359
X002900Y006484
X011525Y007359
X007025Y009359
X001025Y009359
X007025Y010359
X001025Y010359
X008525Y011359
T103
X006775Y006484
T104
X006775Y004553
T105
X003275Y004359
X002275Y004359
X001275Y004359
T106
X006025Y019359
T00
M30
