G04 MADE WITH FRITZING*
G04 WWW.FRITZING.ORG*
G04 DOUBLE SIDED*
G04 HOLES PLATED*
G04 CONTOUR ON CENTER OF CONTOUR VECTOR*
%ASAXBY*%
%FSLAX23Y23*%
%MOIN*%
%OFA0B0*%
%SFA1.0B1.0*%
%ADD10C,0.085000*%
%ADD11C,0.092000*%
%ADD12C,0.080925*%
%ADD13C,0.080866*%
%ADD14C,0.084000*%
%ADD15C,0.210000*%
%ADD16C,0.088000*%
%ADD17R,0.085000X0.085000*%
%ADD18R,0.092000X0.092000*%
%ADD19R,0.001000X0.001000*%
%LNMASK1*%
G90*
G70*
G54D10*
X290Y648D03*
X190Y648D03*
X1153Y636D03*
X853Y636D03*
X1153Y736D03*
X853Y736D03*
X1153Y836D03*
X853Y836D03*
X1153Y936D03*
X853Y936D03*
X1153Y1036D03*
X853Y1036D03*
X1153Y1136D03*
X853Y1136D03*
X1153Y1236D03*
X853Y1236D03*
X1153Y1336D03*
X853Y1336D03*
X1153Y1436D03*
X853Y1436D03*
X1153Y1536D03*
X853Y1536D03*
X1153Y1636D03*
X853Y1636D03*
X1153Y1736D03*
X853Y1736D03*
X1153Y1836D03*
X853Y1836D03*
X1153Y1936D03*
X853Y1936D03*
X103Y1936D03*
X703Y1936D03*
X103Y1836D03*
X703Y1836D03*
X103Y1736D03*
X703Y1736D03*
X103Y1636D03*
X703Y1636D03*
X103Y1536D03*
X703Y1536D03*
X103Y1436D03*
X703Y1436D03*
X103Y1336D03*
X703Y1336D03*
X103Y1236D03*
X703Y1236D03*
X103Y1136D03*
X703Y1136D03*
X103Y1036D03*
X703Y1036D03*
X103Y936D03*
X703Y936D03*
X103Y836D03*
X703Y836D03*
G54D11*
X328Y436D03*
X228Y436D03*
X128Y436D03*
G54D12*
X678Y455D03*
G54D13*
X678Y648D03*
G54D14*
X853Y186D03*
X743Y186D03*
X634Y186D03*
X525Y186D03*
X416Y186D03*
X798Y74D03*
X689Y74D03*
X580Y74D03*
X471Y74D03*
G54D15*
X1127Y130D03*
X142Y130D03*
G54D14*
X853Y186D03*
X743Y186D03*
X634Y186D03*
X525Y186D03*
X416Y186D03*
X798Y74D03*
X689Y74D03*
X580Y74D03*
X471Y74D03*
G54D15*
X1127Y130D03*
X142Y130D03*
G54D16*
X603Y1936D03*
G54D17*
X290Y648D03*
X1153Y636D03*
X103Y1936D03*
G54D18*
X328Y436D03*
G54D19*
X810Y228D02*
X893Y228D01*
X810Y227D02*
X893Y227D01*
X810Y226D02*
X893Y226D01*
X810Y225D02*
X893Y225D01*
X810Y224D02*
X893Y224D01*
X810Y223D02*
X893Y223D01*
X810Y222D02*
X893Y222D01*
X810Y221D02*
X893Y221D01*
X810Y220D02*
X893Y220D01*
X810Y219D02*
X893Y219D01*
X810Y218D02*
X893Y218D01*
X810Y217D02*
X893Y217D01*
X810Y216D02*
X893Y216D01*
X810Y215D02*
X893Y215D01*
X810Y214D02*
X893Y214D01*
X810Y213D02*
X893Y213D01*
X810Y212D02*
X893Y212D01*
X810Y211D02*
X893Y211D01*
X810Y210D02*
X893Y210D01*
X810Y209D02*
X893Y209D01*
X810Y208D02*
X893Y208D01*
X810Y207D02*
X893Y207D01*
X810Y206D02*
X893Y206D01*
X810Y205D02*
X893Y205D01*
X810Y204D02*
X893Y204D01*
X810Y203D02*
X893Y203D01*
X810Y202D02*
X893Y202D01*
X810Y201D02*
X847Y201D01*
X856Y201D02*
X893Y201D01*
X810Y200D02*
X845Y200D01*
X858Y200D02*
X893Y200D01*
X810Y199D02*
X843Y199D01*
X860Y199D02*
X893Y199D01*
X810Y198D02*
X842Y198D01*
X861Y198D02*
X893Y198D01*
X810Y197D02*
X840Y197D01*
X863Y197D02*
X893Y197D01*
X810Y196D02*
X840Y196D01*
X863Y196D02*
X893Y196D01*
X810Y195D02*
X839Y195D01*
X864Y195D02*
X893Y195D01*
X810Y194D02*
X838Y194D01*
X865Y194D02*
X893Y194D01*
X810Y193D02*
X837Y193D01*
X865Y193D02*
X893Y193D01*
X810Y192D02*
X837Y192D01*
X866Y192D02*
X893Y192D01*
X810Y191D02*
X837Y191D01*
X866Y191D02*
X893Y191D01*
X810Y190D02*
X836Y190D01*
X867Y190D02*
X893Y190D01*
X810Y189D02*
X836Y189D01*
X867Y189D02*
X893Y189D01*
X810Y188D02*
X836Y188D01*
X867Y188D02*
X893Y188D01*
X810Y187D02*
X836Y187D01*
X867Y187D02*
X893Y187D01*
X810Y186D02*
X836Y186D01*
X867Y186D02*
X893Y186D01*
X810Y185D02*
X836Y185D01*
X867Y185D02*
X893Y185D01*
X810Y184D02*
X836Y184D01*
X867Y184D02*
X893Y184D01*
X810Y183D02*
X836Y183D01*
X867Y183D02*
X893Y183D01*
X810Y182D02*
X837Y182D01*
X866Y182D02*
X893Y182D01*
X810Y181D02*
X837Y181D01*
X866Y181D02*
X893Y181D01*
X810Y180D02*
X837Y180D01*
X866Y180D02*
X893Y180D01*
X810Y179D02*
X838Y179D01*
X865Y179D02*
X893Y179D01*
X810Y178D02*
X839Y178D01*
X864Y178D02*
X893Y178D01*
X810Y177D02*
X839Y177D01*
X864Y177D02*
X893Y177D01*
X810Y176D02*
X840Y176D01*
X863Y176D02*
X893Y176D01*
X810Y175D02*
X841Y175D01*
X862Y175D02*
X893Y175D01*
X810Y174D02*
X843Y174D01*
X860Y174D02*
X893Y174D01*
X810Y173D02*
X844Y173D01*
X859Y173D02*
X893Y173D01*
X810Y172D02*
X847Y172D01*
X856Y172D02*
X893Y172D01*
X810Y171D02*
X893Y171D01*
X810Y170D02*
X893Y170D01*
X810Y169D02*
X893Y169D01*
X810Y168D02*
X893Y168D01*
X810Y167D02*
X893Y167D01*
X810Y166D02*
X893Y166D01*
X810Y165D02*
X893Y165D01*
X810Y164D02*
X893Y164D01*
X810Y163D02*
X893Y163D01*
X810Y162D02*
X893Y162D01*
X810Y161D02*
X893Y161D01*
X810Y160D02*
X893Y160D01*
X810Y159D02*
X893Y159D01*
X810Y158D02*
X893Y158D01*
X810Y157D02*
X893Y157D01*
X810Y156D02*
X893Y156D01*
X810Y155D02*
X893Y155D01*
X810Y154D02*
X893Y154D01*
X810Y153D02*
X893Y153D01*
X810Y152D02*
X893Y152D01*
X810Y151D02*
X893Y151D01*
X810Y150D02*
X893Y150D01*
X810Y149D02*
X893Y149D01*
X810Y148D02*
X893Y148D01*
X810Y147D02*
X893Y147D01*
X810Y146D02*
X893Y146D01*
X810Y145D02*
X893Y145D01*
D02*
G04 End of Mask1*
M02*