G04 MADE WITH FRITZING*
G04 WWW.FRITZING.ORG*
G04 DOUBLE SIDED*
G04 HOLES PLATED*
G04 CONTOUR ON CENTER OF CONTOUR VECTOR*
%ASAXBY*%
%FSLAX23Y23*%
%MOIN*%
%OFA0B0*%
%SFA1.0B1.0*%
%ADD10C,0.082000*%
%ADD11C,0.075000*%
%ADD12C,0.074000*%
%ADD13C,0.039370*%
%ADD14C,0.070925*%
%ADD15C,0.070866*%
%ADD16C,0.078000*%
%ADD17R,0.082000X0.082000*%
%ADD18R,0.075000X0.075000*%
%ADD19C,0.016000*%
%ADD20C,0.008000*%
%ADD21C,0.024000*%
%ADD22R,0.001000X0.001000*%
%LNCOPPER1*%
G90*
G70*
G54D10*
X1878Y1005D03*
X1580Y1005D03*
X1878Y893D03*
X1580Y893D03*
G54D11*
X1978Y1005D03*
X2278Y1005D03*
X1978Y893D03*
X2278Y893D03*
G54D12*
X2578Y1418D03*
X2578Y1318D03*
X2578Y1218D03*
X2578Y1418D03*
X2578Y1318D03*
X2578Y1218D03*
G54D11*
X2528Y868D03*
X2628Y868D03*
G54D13*
X1476Y269D03*
X1978Y568D03*
X1428Y718D03*
G54D11*
X2678Y404D03*
X2678Y104D03*
X2578Y404D03*
X2578Y104D03*
X2478Y404D03*
X2478Y104D03*
X2378Y404D03*
X2378Y104D03*
X2278Y404D03*
X2278Y104D03*
X2178Y404D03*
X2178Y104D03*
X2078Y404D03*
X2078Y104D03*
X1978Y404D03*
X1978Y104D03*
X1878Y404D03*
X1878Y104D03*
X1778Y404D03*
X1778Y104D03*
X1678Y404D03*
X1678Y104D03*
X1578Y404D03*
X1578Y104D03*
X1028Y1468D03*
X1328Y1468D03*
X1028Y1368D03*
X1328Y1368D03*
X1028Y1268D03*
X1328Y1268D03*
X1028Y1168D03*
X1328Y1168D03*
X1028Y1068D03*
X1328Y1068D03*
X1028Y968D03*
X1328Y968D03*
X1028Y868D03*
X1328Y868D03*
X1028Y768D03*
X1328Y768D03*
X1028Y668D03*
X1328Y668D03*
X1028Y568D03*
X1328Y568D03*
X1028Y468D03*
X1328Y468D03*
X1028Y368D03*
X1328Y368D03*
X1028Y268D03*
X1328Y268D03*
X1028Y168D03*
X1328Y168D03*
X178Y1468D03*
X778Y1468D03*
X178Y1368D03*
X778Y1368D03*
X178Y1268D03*
X778Y1268D03*
X178Y1168D03*
X778Y1168D03*
X178Y1068D03*
X778Y1068D03*
X178Y968D03*
X778Y968D03*
X178Y868D03*
X778Y868D03*
X178Y768D03*
X778Y768D03*
X178Y668D03*
X778Y668D03*
X178Y568D03*
X778Y568D03*
X178Y468D03*
X778Y468D03*
X178Y368D03*
X778Y368D03*
G54D10*
X328Y168D03*
X228Y168D03*
X128Y168D03*
G54D14*
X584Y168D03*
G54D15*
X778Y168D03*
G54D11*
X1578Y1168D03*
X1578Y1468D03*
X1678Y1168D03*
X1678Y1468D03*
X1778Y1168D03*
X1778Y1468D03*
X1878Y1168D03*
X1878Y1468D03*
X1978Y1168D03*
X1978Y1468D03*
X2078Y1168D03*
X2078Y1468D03*
X2178Y1168D03*
X2178Y1468D03*
X2278Y1168D03*
X2278Y1468D03*
G54D16*
X678Y1468D03*
G54D17*
X1879Y1005D03*
X1879Y893D03*
G54D18*
X2528Y868D03*
X2678Y404D03*
X1028Y1468D03*
X178Y1468D03*
G54D17*
X328Y168D03*
G54D18*
X1578Y1168D03*
G54D19*
X1949Y893D02*
X1910Y893D01*
D02*
X1949Y1005D02*
X1910Y1005D01*
G54D20*
D02*
X1477Y1005D02*
X1553Y1005D01*
D02*
X1427Y893D02*
X1553Y893D01*
D02*
X1427Y1368D02*
X1427Y893D01*
D02*
X1477Y1468D02*
X1477Y1005D01*
D02*
X1351Y1368D02*
X1427Y1368D01*
D02*
X1351Y1468D02*
X1477Y1468D01*
G54D19*
D02*
X2478Y666D02*
X2478Y428D01*
D02*
X2627Y666D02*
X2478Y666D01*
D02*
X2627Y839D02*
X2627Y666D01*
G54D20*
D02*
X2376Y305D02*
X2377Y376D01*
D02*
X2576Y255D02*
X1778Y255D01*
D02*
X1778Y255D02*
X1778Y381D01*
D02*
X2577Y376D02*
X2576Y255D01*
D02*
X1878Y305D02*
X2376Y305D01*
D02*
X1878Y376D02*
X1878Y305D01*
G54D19*
D02*
X2328Y1218D02*
X2546Y1218D01*
D02*
X2294Y1184D02*
X2328Y1218D01*
D02*
X2376Y767D02*
X2378Y428D01*
D02*
X2277Y818D02*
X2376Y767D01*
G54D20*
D02*
X2277Y718D02*
X2278Y428D01*
D02*
X1441Y718D02*
X2277Y718D01*
D02*
X1679Y269D02*
X1678Y128D01*
D02*
X1495Y269D02*
X1679Y269D01*
D02*
X1428Y366D02*
X1356Y367D01*
D02*
X1428Y519D02*
X1428Y366D01*
D02*
X2077Y519D02*
X1428Y519D01*
D02*
X2078Y428D02*
X2077Y519D01*
D02*
X1356Y568D02*
X1959Y568D01*
D02*
X1678Y893D02*
X1678Y1145D01*
D02*
X1851Y893D02*
X1678Y893D01*
D02*
X1851Y1005D02*
X1778Y1005D01*
D02*
X1778Y1005D02*
X1778Y1145D01*
G54D19*
D02*
X154Y667D02*
X102Y667D01*
D02*
X327Y200D02*
X326Y468D01*
G54D21*
D02*
X804Y678D02*
X1001Y757D01*
G54D20*
D02*
X1327Y42D02*
X27Y31D01*
D02*
X1327Y145D02*
X1327Y42D01*
D02*
X27Y1531D02*
X777Y1542D01*
D02*
X27Y31D02*
X27Y1531D01*
D02*
X777Y1542D02*
X777Y1491D01*
D02*
X1125Y368D02*
X1127Y69D01*
D02*
X65Y69D02*
X65Y1369D01*
D02*
X1299Y368D02*
X1125Y368D01*
D02*
X65Y1369D02*
X154Y1368D01*
G54D21*
D02*
X1300Y859D02*
X1055Y777D01*
G54D19*
D02*
X206Y468D02*
X326Y468D01*
G54D20*
D02*
X877Y517D02*
X1007Y647D01*
D02*
X877Y268D02*
X877Y517D01*
D02*
X678Y268D02*
X877Y268D01*
D02*
X603Y187D02*
X678Y268D01*
D02*
X928Y167D02*
X926Y467D01*
D02*
X804Y168D02*
X928Y167D01*
D02*
X926Y467D02*
X1007Y548D01*
D02*
X1127Y69D02*
X65Y69D01*
G54D19*
D02*
X102Y191D02*
X108Y186D01*
D02*
X102Y667D02*
X102Y191D01*
D02*
X326Y468D02*
X206Y468D01*
D02*
X326Y468D02*
X751Y656D01*
D02*
X2278Y1028D02*
X2278Y1145D01*
D02*
X1415Y818D02*
X2277Y818D01*
D02*
X1348Y856D02*
X1415Y818D01*
D02*
X2278Y921D02*
X2278Y977D01*
D02*
X2277Y818D02*
X2278Y864D01*
D02*
X2300Y890D02*
X2505Y870D01*
G54D22*
X2540Y1455D02*
X2613Y1455D01*
X2540Y1454D02*
X2613Y1454D01*
X2540Y1453D02*
X2613Y1453D01*
X2540Y1452D02*
X2613Y1452D01*
X2540Y1451D02*
X2613Y1451D01*
X2540Y1450D02*
X2613Y1450D01*
X2540Y1449D02*
X2613Y1449D01*
X2540Y1448D02*
X2613Y1448D01*
X2540Y1447D02*
X2613Y1447D01*
X2540Y1446D02*
X2613Y1446D01*
X2540Y1445D02*
X2613Y1445D01*
X2540Y1444D02*
X2613Y1444D01*
X2540Y1443D02*
X2613Y1443D01*
X2540Y1442D02*
X2613Y1442D01*
X2540Y1441D02*
X2613Y1441D01*
X2540Y1440D02*
X2613Y1440D01*
X2540Y1439D02*
X2613Y1439D01*
X2540Y1438D02*
X2574Y1438D01*
X2579Y1438D02*
X2613Y1438D01*
X2540Y1437D02*
X2570Y1437D01*
X2583Y1437D02*
X2613Y1437D01*
X2540Y1436D02*
X2567Y1436D01*
X2586Y1436D02*
X2613Y1436D01*
X2540Y1435D02*
X2565Y1435D01*
X2588Y1435D02*
X2613Y1435D01*
X2540Y1434D02*
X2564Y1434D01*
X2589Y1434D02*
X2613Y1434D01*
X2540Y1433D02*
X2563Y1433D01*
X2590Y1433D02*
X2613Y1433D01*
X2540Y1432D02*
X2562Y1432D01*
X2591Y1432D02*
X2613Y1432D01*
X2540Y1431D02*
X2561Y1431D01*
X2592Y1431D02*
X2613Y1431D01*
X2540Y1430D02*
X2560Y1430D01*
X2593Y1430D02*
X2613Y1430D01*
X2540Y1429D02*
X2559Y1429D01*
X2594Y1429D02*
X2613Y1429D01*
X2540Y1428D02*
X2559Y1428D01*
X2594Y1428D02*
X2613Y1428D01*
X2540Y1427D02*
X2558Y1427D01*
X2595Y1427D02*
X2613Y1427D01*
X2540Y1426D02*
X2558Y1426D01*
X2595Y1426D02*
X2613Y1426D01*
X2540Y1425D02*
X2557Y1425D01*
X2596Y1425D02*
X2613Y1425D01*
X2540Y1424D02*
X2557Y1424D01*
X2596Y1424D02*
X2613Y1424D01*
X2540Y1423D02*
X2557Y1423D01*
X2596Y1423D02*
X2613Y1423D01*
X2540Y1422D02*
X2556Y1422D01*
X2597Y1422D02*
X2613Y1422D01*
X2540Y1421D02*
X2556Y1421D01*
X2597Y1421D02*
X2613Y1421D01*
X2540Y1420D02*
X2556Y1420D01*
X2597Y1420D02*
X2613Y1420D01*
X2540Y1419D02*
X2556Y1419D01*
X2597Y1419D02*
X2613Y1419D01*
X2540Y1418D02*
X2556Y1418D01*
X2597Y1418D02*
X2613Y1418D01*
X2540Y1417D02*
X2556Y1417D01*
X2597Y1417D02*
X2613Y1417D01*
X2540Y1416D02*
X2556Y1416D01*
X2597Y1416D02*
X2613Y1416D01*
X2540Y1415D02*
X2556Y1415D01*
X2597Y1415D02*
X2613Y1415D01*
X2540Y1414D02*
X2556Y1414D01*
X2596Y1414D02*
X2613Y1414D01*
X2540Y1413D02*
X2557Y1413D01*
X2596Y1413D02*
X2613Y1413D01*
X2540Y1412D02*
X2557Y1412D01*
X2596Y1412D02*
X2613Y1412D01*
X2540Y1411D02*
X2557Y1411D01*
X2596Y1411D02*
X2613Y1411D01*
X2540Y1410D02*
X2558Y1410D01*
X2595Y1410D02*
X2613Y1410D01*
X2540Y1409D02*
X2558Y1409D01*
X2595Y1409D02*
X2613Y1409D01*
X2540Y1408D02*
X2559Y1408D01*
X2594Y1408D02*
X2613Y1408D01*
X2540Y1407D02*
X2559Y1407D01*
X2594Y1407D02*
X2613Y1407D01*
X2540Y1406D02*
X2560Y1406D01*
X2593Y1406D02*
X2613Y1406D01*
X2540Y1405D02*
X2561Y1405D01*
X2592Y1405D02*
X2613Y1405D01*
X2540Y1404D02*
X2562Y1404D01*
X2591Y1404D02*
X2613Y1404D01*
X2540Y1403D02*
X2563Y1403D01*
X2590Y1403D02*
X2613Y1403D01*
X2540Y1402D02*
X2564Y1402D01*
X2589Y1402D02*
X2613Y1402D01*
X2540Y1401D02*
X2566Y1401D01*
X2587Y1401D02*
X2613Y1401D01*
X2540Y1400D02*
X2568Y1400D01*
X2585Y1400D02*
X2613Y1400D01*
X2540Y1399D02*
X2571Y1399D01*
X2582Y1399D02*
X2613Y1399D01*
X2540Y1398D02*
X2613Y1398D01*
X2540Y1397D02*
X2613Y1397D01*
X2540Y1396D02*
X2613Y1396D01*
X2540Y1395D02*
X2613Y1395D01*
X2540Y1394D02*
X2613Y1394D01*
X2540Y1393D02*
X2613Y1393D01*
X2540Y1392D02*
X2613Y1392D01*
X2540Y1391D02*
X2613Y1391D01*
X2540Y1390D02*
X2613Y1390D01*
X2540Y1389D02*
X2613Y1389D01*
X2540Y1388D02*
X2613Y1388D01*
X2540Y1387D02*
X2613Y1387D01*
X2540Y1386D02*
X2613Y1386D01*
X2540Y1385D02*
X2613Y1385D01*
X2540Y1384D02*
X2613Y1384D01*
X2540Y1383D02*
X2613Y1383D01*
X2540Y1382D02*
X2613Y1382D01*
D02*
G04 End of Copper1*
M02*