G04 MADE WITH FRITZING*
G04 WWW.FRITZING.ORG*
G04 DOUBLE SIDED*
G04 HOLES PLATED*
G04 CONTOUR ON CENTER OF CONTOUR VECTOR*
%ASAXBY*%
%FSLAX23Y23*%
%MOIN*%
%OFA0B0*%
%SFA1.0B1.0*%
%ADD10C,0.092000*%
%ADD11C,0.085000*%
%ADD12C,0.084000*%
%ADD13C,0.049370*%
%ADD14C,0.080925*%
%ADD15C,0.080866*%
%ADD16C,0.088000*%
%ADD17R,0.092000X0.092000*%
%ADD18R,0.085000X0.085000*%
%ADD19R,0.001000X0.001000*%
%LNMASK1*%
G90*
G70*
G54D10*
X1878Y1005D03*
X1580Y1005D03*
X1878Y893D03*
X1580Y893D03*
G54D11*
X1978Y1005D03*
X2278Y1005D03*
X1978Y893D03*
X2278Y893D03*
G54D12*
X2578Y1418D03*
X2578Y1318D03*
X2578Y1218D03*
X2578Y1418D03*
X2578Y1318D03*
X2578Y1218D03*
G54D11*
X2528Y868D03*
X2628Y868D03*
G54D13*
X1476Y269D03*
X1978Y568D03*
X1428Y718D03*
G54D11*
X2678Y404D03*
X2678Y104D03*
X2578Y404D03*
X2578Y104D03*
X2478Y404D03*
X2478Y104D03*
X2378Y404D03*
X2378Y104D03*
X2278Y404D03*
X2278Y104D03*
X2178Y404D03*
X2178Y104D03*
X2078Y404D03*
X2078Y104D03*
X1978Y404D03*
X1978Y104D03*
X1878Y404D03*
X1878Y104D03*
X1778Y404D03*
X1778Y104D03*
X1678Y404D03*
X1678Y104D03*
X1578Y404D03*
X1578Y104D03*
X1028Y1468D03*
X1328Y1468D03*
X1028Y1368D03*
X1328Y1368D03*
X1028Y1268D03*
X1328Y1268D03*
X1028Y1168D03*
X1328Y1168D03*
X1028Y1068D03*
X1328Y1068D03*
X1028Y968D03*
X1328Y968D03*
X1028Y868D03*
X1328Y868D03*
X1028Y768D03*
X1328Y768D03*
X1028Y668D03*
X1328Y668D03*
X1028Y568D03*
X1328Y568D03*
X1028Y468D03*
X1328Y468D03*
X1028Y368D03*
X1328Y368D03*
X1028Y268D03*
X1328Y268D03*
X1028Y168D03*
X1328Y168D03*
X178Y1468D03*
X778Y1468D03*
X178Y1368D03*
X778Y1368D03*
X178Y1268D03*
X778Y1268D03*
X178Y1168D03*
X778Y1168D03*
X178Y1068D03*
X778Y1068D03*
X178Y968D03*
X778Y968D03*
X178Y868D03*
X778Y868D03*
X178Y768D03*
X778Y768D03*
X178Y668D03*
X778Y668D03*
X178Y568D03*
X778Y568D03*
X178Y468D03*
X778Y468D03*
X178Y368D03*
X778Y368D03*
G54D10*
X328Y168D03*
X228Y168D03*
X128Y168D03*
G54D14*
X584Y168D03*
G54D15*
X778Y168D03*
G54D11*
X1578Y1168D03*
X1578Y1468D03*
X1678Y1168D03*
X1678Y1468D03*
X1778Y1168D03*
X1778Y1468D03*
X1878Y1168D03*
X1878Y1468D03*
X1978Y1168D03*
X1978Y1468D03*
X2078Y1168D03*
X2078Y1468D03*
X2178Y1168D03*
X2178Y1468D03*
X2278Y1168D03*
X2278Y1468D03*
G54D16*
X678Y1468D03*
G54D17*
X1879Y1005D03*
X1879Y893D03*
G54D18*
X2528Y868D03*
X2678Y404D03*
X1028Y1468D03*
X178Y1468D03*
G54D17*
X328Y168D03*
G54D18*
X1578Y1168D03*
G54D19*
X2535Y1460D02*
X2618Y1460D01*
X2535Y1459D02*
X2618Y1459D01*
X2535Y1458D02*
X2618Y1458D01*
X2535Y1457D02*
X2618Y1457D01*
X2535Y1456D02*
X2618Y1456D01*
X2535Y1455D02*
X2618Y1455D01*
X2535Y1454D02*
X2618Y1454D01*
X2535Y1453D02*
X2618Y1453D01*
X2535Y1452D02*
X2618Y1452D01*
X2535Y1451D02*
X2618Y1451D01*
X2535Y1450D02*
X2618Y1450D01*
X2535Y1449D02*
X2618Y1449D01*
X2535Y1448D02*
X2618Y1448D01*
X2535Y1447D02*
X2618Y1447D01*
X2535Y1446D02*
X2618Y1446D01*
X2535Y1445D02*
X2618Y1445D01*
X2535Y1444D02*
X2618Y1444D01*
X2535Y1443D02*
X2618Y1443D01*
X2535Y1442D02*
X2618Y1442D01*
X2535Y1441D02*
X2618Y1441D01*
X2535Y1440D02*
X2618Y1440D01*
X2535Y1439D02*
X2618Y1439D01*
X2535Y1438D02*
X2618Y1438D01*
X2535Y1437D02*
X2618Y1437D01*
X2535Y1436D02*
X2618Y1436D01*
X2535Y1435D02*
X2618Y1435D01*
X2535Y1434D02*
X2618Y1434D01*
X2535Y1433D02*
X2574Y1433D01*
X2579Y1433D02*
X2618Y1433D01*
X2535Y1432D02*
X2570Y1432D01*
X2583Y1432D02*
X2618Y1432D01*
X2535Y1431D02*
X2568Y1431D01*
X2585Y1431D02*
X2618Y1431D01*
X2535Y1430D02*
X2567Y1430D01*
X2586Y1430D02*
X2618Y1430D01*
X2535Y1429D02*
X2566Y1429D01*
X2587Y1429D02*
X2618Y1429D01*
X2535Y1428D02*
X2565Y1428D01*
X2588Y1428D02*
X2618Y1428D01*
X2535Y1427D02*
X2564Y1427D01*
X2589Y1427D02*
X2618Y1427D01*
X2535Y1426D02*
X2563Y1426D01*
X2590Y1426D02*
X2618Y1426D01*
X2535Y1425D02*
X2563Y1425D01*
X2590Y1425D02*
X2618Y1425D01*
X2535Y1424D02*
X2562Y1424D01*
X2591Y1424D02*
X2618Y1424D01*
X2535Y1423D02*
X2562Y1423D01*
X2591Y1423D02*
X2618Y1423D01*
X2535Y1422D02*
X2561Y1422D01*
X2591Y1422D02*
X2618Y1422D01*
X2535Y1421D02*
X2561Y1421D01*
X2592Y1421D02*
X2618Y1421D01*
X2535Y1420D02*
X2561Y1420D01*
X2592Y1420D02*
X2618Y1420D01*
X2535Y1419D02*
X2561Y1419D01*
X2592Y1419D02*
X2618Y1419D01*
X2535Y1418D02*
X2561Y1418D01*
X2592Y1418D02*
X2618Y1418D01*
X2535Y1417D02*
X2561Y1417D01*
X2592Y1417D02*
X2618Y1417D01*
X2535Y1416D02*
X2561Y1416D01*
X2592Y1416D02*
X2618Y1416D01*
X2535Y1415D02*
X2561Y1415D01*
X2592Y1415D02*
X2618Y1415D01*
X2535Y1414D02*
X2562Y1414D01*
X2591Y1414D02*
X2618Y1414D01*
X2535Y1413D02*
X2562Y1413D01*
X2591Y1413D02*
X2618Y1413D01*
X2535Y1412D02*
X2562Y1412D01*
X2591Y1412D02*
X2618Y1412D01*
X2535Y1411D02*
X2563Y1411D01*
X2590Y1411D02*
X2618Y1411D01*
X2535Y1410D02*
X2563Y1410D01*
X2590Y1410D02*
X2618Y1410D01*
X2535Y1409D02*
X2564Y1409D01*
X2589Y1409D02*
X2618Y1409D01*
X2535Y1408D02*
X2565Y1408D01*
X2588Y1408D02*
X2618Y1408D01*
X2535Y1407D02*
X2566Y1407D01*
X2587Y1407D02*
X2618Y1407D01*
X2535Y1406D02*
X2567Y1406D01*
X2586Y1406D02*
X2618Y1406D01*
X2535Y1405D02*
X2569Y1405D01*
X2584Y1405D02*
X2618Y1405D01*
X2535Y1404D02*
X2571Y1404D01*
X2582Y1404D02*
X2618Y1404D01*
X2535Y1403D02*
X2618Y1403D01*
X2535Y1402D02*
X2618Y1402D01*
X2535Y1401D02*
X2618Y1401D01*
X2535Y1400D02*
X2618Y1400D01*
X2535Y1399D02*
X2618Y1399D01*
X2535Y1398D02*
X2618Y1398D01*
X2535Y1397D02*
X2618Y1397D01*
X2535Y1396D02*
X2618Y1396D01*
X2535Y1395D02*
X2618Y1395D01*
X2535Y1394D02*
X2618Y1394D01*
X2535Y1393D02*
X2618Y1393D01*
X2535Y1392D02*
X2618Y1392D01*
X2535Y1391D02*
X2618Y1391D01*
X2535Y1390D02*
X2618Y1390D01*
X2535Y1389D02*
X2618Y1389D01*
X2535Y1388D02*
X2618Y1388D01*
X2535Y1387D02*
X2618Y1387D01*
X2535Y1386D02*
X2618Y1386D01*
X2535Y1385D02*
X2618Y1385D01*
X2535Y1384D02*
X2618Y1384D01*
X2535Y1383D02*
X2618Y1383D01*
X2535Y1382D02*
X2618Y1382D01*
X2535Y1381D02*
X2618Y1381D01*
X2535Y1380D02*
X2618Y1380D01*
X2535Y1379D02*
X2618Y1379D01*
X2535Y1378D02*
X2618Y1378D01*
X2535Y1377D02*
X2618Y1377D01*
D02*
G04 End of Mask1*
M02*