; NON-PLATED HOLES START AT T1
; THROUGH (PLATED) HOLES START AT T100
M48
INCH
T100C0.031555
T101C0.042000
T102C0.015748
T103C0.038000
T104C0.040000
T105C0.035000
T106C0.031496
%
T100
X005844Y001676
T101
X003275Y001676
X015795Y010051
X002275Y001676
X015795Y008926
X001275Y001676
X018775Y010051
X018775Y008926
T102
X019775Y005676
X014275Y007176
X014757Y002687
T103
X006775Y014676
T104
X025775Y014176
X025775Y012176
X025775Y013176
T105
X001775Y005676
X007775Y011676
X016775Y011676
X019776Y001044
X017776Y004044
X007775Y007676
X010275Y004676
X026776Y004044
X013275Y005676
X001775Y004676
X007775Y010676
X020776Y001044
X019775Y011676
X007775Y006676
X010275Y003676
X017775Y014676
X013275Y004676
X001775Y003676
X020775Y011676
X007775Y005676
X023776Y001044
X010275Y002676
X021776Y004044
X013275Y003676
X017776Y001044
X007775Y004676
X010275Y001676
X015776Y004044
X026776Y001044
X013275Y002676
X026275Y008676
X021775Y014676
X024776Y004044
X022775Y010051
X007775Y003676
X017775Y011676
X013275Y001676
X015775Y014676
X018776Y004044
X021776Y001044
X018775Y014676
X019775Y010051
X010275Y014676
X022775Y008926
X001775Y014676
X015776Y001044
X021775Y011676
X024776Y001044
X022776Y004044
X010275Y013676
X013275Y014676
X001775Y013676
X010275Y009676
X015775Y011676
X018776Y001044
X001775Y009676
X016776Y004044
X010275Y012676
X022775Y014676
X013275Y013676
X025776Y004044
X019775Y008926
X001775Y012676
X010275Y008676
X013275Y009676
X018775Y011676
X001775Y008676
X007775Y014676
X010275Y011676
X016775Y014676
X019776Y004044
X013275Y012676
X001775Y011676
X010275Y007676
X013275Y008676
X001775Y007676
X007775Y013676
X022776Y001044
X010275Y010676
X020776Y004044
X013275Y011676
X001775Y010676
X019775Y014676
X007775Y009676
X010275Y006676
X013275Y007676
X001775Y006676
X007775Y012676
X016776Y001044
X022775Y011676
X013275Y010676
X025776Y001044
X025275Y008676
X020775Y014676
X007775Y008676
X023776Y004044
X010275Y005676
X013275Y006676
T106
X007775Y001676
T00
M30
