M48
INCH
T10C0.040000
T11C0.130000
T12C0.035000
%
T10
X022409Y004863
X022409Y005953
X022409Y007040
X022409Y008130
X021291Y004315
X021291Y005406
X021291Y006497
X021291Y007587
X021291Y008678
T11
X021850Y001575
X021850Y011418
T12
X014791Y012906
X011791Y012906
X010791Y011906
X007791Y011906
X014291Y001906
X017291Y001906
X010791Y001906
X007791Y001906
X011791Y009906
X011791Y003906
X010791Y009906
X010791Y003906
X009791Y009906
X009791Y003906
X008791Y009906
X008791Y003906
X007791Y009906
X007791Y003906
X006791Y009906
X006791Y003906
X005791Y009906
X005791Y003906
X004791Y009906
X004791Y003906
X003791Y009906
X003791Y003906
X002791Y009906
X002791Y003906
X001791Y009906
X001791Y003906
X000791Y009906
X000791Y003906
X018791Y003906
X015791Y003906
X018791Y004906
X015791Y004906
X018791Y005906
X015791Y005906
X018791Y006906
X015791Y006906
X018791Y007906
X015791Y007906
X018791Y008906
X015791Y008906
X018791Y009906
X015791Y009906
X018791Y010906
X015791Y010906
T00
M30
