G04 MADE WITH FRITZING*
G04 WWW.FRITZING.ORG*
G04 DOUBLE SIDED*
G04 HOLES PLATED*
G04 CONTOUR ON CENTER OF CONTOUR VECTOR*
%ASAXBY*%
%FSLAX23Y23*%
%MOIN*%
%OFA0B0*%
%SFA1.0B1.0*%
%ADD10R,0.001000X0.001000*%
%LNSILK0*%
G90*
G70*
G54D10*
X1067Y4147D02*
X1132Y4147D01*
X1042Y4146D02*
X1157Y4146D01*
X1025Y4145D02*
X1173Y4145D01*
X1012Y4144D02*
X1187Y4144D01*
X1000Y4143D02*
X1199Y4143D01*
X989Y4142D02*
X1209Y4142D01*
X980Y4141D02*
X1219Y4141D01*
X971Y4140D02*
X1228Y4140D01*
X963Y4139D02*
X1065Y4139D01*
X1133Y4139D02*
X1236Y4139D01*
X955Y4138D02*
X1041Y4138D01*
X1158Y4138D02*
X1244Y4138D01*
X947Y4137D02*
X1024Y4137D01*
X1174Y4137D02*
X1251Y4137D01*
X940Y4136D02*
X1011Y4136D01*
X1188Y4136D02*
X1258Y4136D01*
X934Y4135D02*
X999Y4135D01*
X1200Y4135D02*
X1265Y4135D01*
X927Y4134D02*
X988Y4134D01*
X1210Y4134D02*
X1271Y4134D01*
X921Y4133D02*
X979Y4133D01*
X1220Y4133D02*
X1278Y4133D01*
X915Y4132D02*
X970Y4132D01*
X1229Y4132D02*
X1283Y4132D01*
X909Y4131D02*
X962Y4131D01*
X1237Y4131D02*
X1289Y4131D01*
X903Y4130D02*
X954Y4130D01*
X1245Y4130D02*
X1295Y4130D01*
X898Y4129D02*
X946Y4129D01*
X1252Y4129D02*
X1300Y4129D01*
X893Y4128D02*
X939Y4128D01*
X1259Y4128D02*
X1306Y4128D01*
X888Y4127D02*
X933Y4127D01*
X1266Y4127D02*
X1311Y4127D01*
X883Y4126D02*
X926Y4126D01*
X1272Y4126D02*
X1316Y4126D01*
X878Y4125D02*
X920Y4125D01*
X1278Y4125D02*
X1321Y4125D01*
X873Y4124D02*
X914Y4124D01*
X1284Y4124D02*
X1326Y4124D01*
X868Y4123D02*
X908Y4123D01*
X1290Y4123D02*
X1330Y4123D01*
X863Y4122D02*
X903Y4122D01*
X1296Y4122D02*
X1335Y4122D01*
X859Y4121D02*
X897Y4121D01*
X1301Y4121D02*
X1339Y4121D01*
X855Y4120D02*
X892Y4120D01*
X1307Y4120D02*
X1344Y4120D01*
X850Y4119D02*
X887Y4119D01*
X1312Y4119D02*
X1348Y4119D01*
X846Y4118D02*
X882Y4118D01*
X1317Y4118D02*
X1352Y4118D01*
X842Y4117D02*
X877Y4117D01*
X1322Y4117D02*
X1357Y4117D01*
X838Y4116D02*
X872Y4116D01*
X1326Y4116D02*
X1361Y4116D01*
X834Y4115D02*
X867Y4115D01*
X1331Y4115D02*
X1365Y4115D01*
X830Y4114D02*
X863Y4114D01*
X1336Y4114D02*
X1369Y4114D01*
X826Y4113D02*
X858Y4113D01*
X1340Y4113D02*
X1373Y4113D01*
X822Y4112D02*
X854Y4112D01*
X1345Y4112D02*
X1377Y4112D01*
X818Y4111D02*
X849Y4111D01*
X1349Y4111D02*
X1380Y4111D01*
X814Y4110D02*
X845Y4110D01*
X1353Y4110D02*
X1384Y4110D01*
X811Y4109D02*
X841Y4109D01*
X1357Y4109D02*
X1388Y4109D01*
X807Y4108D02*
X837Y4108D01*
X1361Y4108D02*
X1391Y4108D01*
X803Y4107D02*
X833Y4107D01*
X1365Y4107D02*
X1395Y4107D01*
X800Y4106D02*
X829Y4106D01*
X1369Y4106D02*
X1399Y4106D01*
X796Y4105D02*
X825Y4105D01*
X1373Y4105D02*
X1402Y4105D01*
X793Y4104D02*
X821Y4104D01*
X1377Y4104D02*
X1406Y4104D01*
X789Y4103D02*
X817Y4103D01*
X1381Y4103D02*
X1409Y4103D01*
X786Y4102D02*
X814Y4102D01*
X1385Y4102D02*
X1412Y4102D01*
X783Y4101D02*
X810Y4101D01*
X1388Y4101D02*
X1416Y4101D01*
X779Y4100D02*
X806Y4100D01*
X1392Y4100D02*
X1419Y4100D01*
X776Y4099D02*
X803Y4099D01*
X1396Y4099D02*
X1422Y4099D01*
X773Y4098D02*
X799Y4098D01*
X1399Y4098D02*
X1426Y4098D01*
X770Y4097D02*
X796Y4097D01*
X1403Y4097D02*
X1429Y4097D01*
X767Y4096D02*
X792Y4096D01*
X1406Y4096D02*
X1432Y4096D01*
X763Y4095D02*
X789Y4095D01*
X1410Y4095D02*
X1435Y4095D01*
X760Y4094D02*
X785Y4094D01*
X1413Y4094D02*
X1438Y4094D01*
X757Y4093D02*
X782Y4093D01*
X1416Y4093D02*
X1441Y4093D01*
X754Y4092D02*
X779Y4092D01*
X1420Y4092D02*
X1444Y4092D01*
X751Y4091D02*
X776Y4091D01*
X1423Y4091D02*
X1447Y4091D01*
X748Y4090D02*
X772Y4090D01*
X1426Y4090D02*
X1450Y4090D01*
X745Y4089D02*
X769Y4089D01*
X1429Y4089D02*
X1453Y4089D01*
X742Y4088D02*
X766Y4088D01*
X1432Y4088D02*
X1456Y4088D01*
X739Y4087D02*
X763Y4087D01*
X1436Y4087D02*
X1459Y4087D01*
X737Y4086D02*
X760Y4086D01*
X1439Y4086D02*
X1462Y4086D01*
X734Y4085D02*
X757Y4085D01*
X1442Y4085D02*
X1465Y4085D01*
X731Y4084D02*
X754Y4084D01*
X1445Y4084D02*
X1467Y4084D01*
X728Y4083D02*
X751Y4083D01*
X1448Y4083D02*
X1470Y4083D01*
X725Y4082D02*
X748Y4082D01*
X1451Y4082D02*
X1473Y4082D01*
X723Y4081D02*
X745Y4081D01*
X1454Y4081D02*
X1476Y4081D01*
X720Y4080D02*
X742Y4080D01*
X1456Y4080D02*
X1478Y4080D01*
X717Y4079D02*
X739Y4079D01*
X1459Y4079D02*
X1481Y4079D01*
X715Y4078D02*
X736Y4078D01*
X1462Y4078D02*
X1484Y4078D01*
X712Y4077D02*
X733Y4077D01*
X1465Y4077D02*
X1487Y4077D01*
X709Y4076D02*
X731Y4076D01*
X1468Y4076D02*
X1489Y4076D01*
X707Y4075D02*
X728Y4075D01*
X1471Y4075D02*
X1492Y4075D01*
X704Y4074D02*
X725Y4074D01*
X1473Y4074D02*
X1494Y4074D01*
X701Y4073D02*
X722Y4073D01*
X1476Y4073D02*
X1497Y4073D01*
X699Y4072D02*
X720Y4072D01*
X1479Y4072D02*
X1500Y4072D01*
X696Y4071D02*
X717Y4071D01*
X1482Y4071D02*
X1502Y4071D01*
X694Y4070D02*
X714Y4070D01*
X1484Y4070D02*
X1505Y4070D01*
X691Y4069D02*
X712Y4069D01*
X1487Y4069D02*
X1507Y4069D01*
X689Y4068D02*
X709Y4068D01*
X1490Y4068D02*
X1510Y4068D01*
X686Y4067D02*
X706Y4067D01*
X1492Y4067D02*
X1512Y4067D01*
X684Y4066D02*
X704Y4066D01*
X1495Y4066D02*
X1515Y4066D01*
X681Y4065D02*
X701Y4065D01*
X1497Y4065D02*
X1517Y4065D01*
X679Y4064D02*
X699Y4064D01*
X1500Y4064D02*
X1519Y4064D01*
X677Y4063D02*
X696Y4063D01*
X1502Y4063D02*
X1522Y4063D01*
X674Y4062D02*
X694Y4062D01*
X1505Y4062D02*
X1524Y4062D01*
X672Y4061D02*
X691Y4061D01*
X1507Y4061D02*
X1527Y4061D01*
X670Y4060D02*
X689Y4060D01*
X1510Y4060D02*
X1529Y4060D01*
X667Y4059D02*
X686Y4059D01*
X1512Y4059D02*
X1531Y4059D01*
X665Y4058D02*
X684Y4058D01*
X1515Y4058D02*
X1533Y4058D01*
X663Y4057D02*
X681Y4057D01*
X1517Y4057D02*
X1536Y4057D01*
X660Y4056D02*
X679Y4056D01*
X1520Y4056D02*
X1538Y4056D01*
X658Y4055D02*
X676Y4055D01*
X1522Y4055D02*
X1540Y4055D01*
X656Y4054D02*
X674Y4054D01*
X1524Y4054D02*
X1543Y4054D01*
X654Y4053D02*
X672Y4053D01*
X1527Y4053D02*
X1545Y4053D01*
X651Y4052D02*
X669Y4052D01*
X1529Y4052D02*
X1547Y4052D01*
X649Y4051D02*
X667Y4051D01*
X1531Y4051D02*
X1549Y4051D01*
X647Y4050D02*
X665Y4050D01*
X1534Y4050D02*
X1552Y4050D01*
X645Y4049D02*
X662Y4049D01*
X1536Y4049D02*
X1554Y4049D01*
X642Y4048D02*
X660Y4048D01*
X1538Y4048D02*
X1556Y4048D01*
X640Y4047D02*
X658Y4047D01*
X1541Y4047D02*
X1558Y4047D01*
X638Y4046D02*
X656Y4046D01*
X1543Y4046D02*
X1560Y4046D01*
X636Y4045D02*
X653Y4045D01*
X1545Y4045D02*
X1562Y4045D01*
X634Y4044D02*
X651Y4044D01*
X1547Y4044D02*
X1565Y4044D01*
X632Y4043D02*
X649Y4043D01*
X1550Y4043D02*
X1567Y4043D01*
X630Y4042D02*
X647Y4042D01*
X1552Y4042D02*
X1569Y4042D01*
X627Y4041D02*
X645Y4041D01*
X1554Y4041D02*
X1571Y4041D01*
X625Y4040D02*
X642Y4040D01*
X1556Y4040D02*
X1573Y4040D01*
X623Y4039D02*
X640Y4039D01*
X1558Y4039D02*
X1575Y4039D01*
X621Y4038D02*
X638Y4038D01*
X1560Y4038D02*
X1577Y4038D01*
X619Y4037D02*
X636Y4037D01*
X1563Y4037D02*
X1579Y4037D01*
X617Y4036D02*
X634Y4036D01*
X1565Y4036D02*
X1581Y4036D01*
X615Y4035D02*
X632Y4035D01*
X1567Y4035D02*
X1583Y4035D01*
X613Y4034D02*
X630Y4034D01*
X1569Y4034D02*
X1585Y4034D01*
X611Y4033D02*
X627Y4033D01*
X1571Y4033D02*
X1587Y4033D01*
X609Y4032D02*
X625Y4032D01*
X1573Y4032D02*
X1589Y4032D01*
X607Y4031D02*
X623Y4031D01*
X1575Y4031D02*
X1591Y4031D01*
X605Y4030D02*
X621Y4030D01*
X1577Y4030D02*
X1593Y4030D01*
X603Y4029D02*
X619Y4029D01*
X1579Y4029D02*
X1595Y4029D01*
X601Y4028D02*
X617Y4028D01*
X1581Y4028D02*
X1597Y4028D01*
X599Y4027D02*
X615Y4027D01*
X1583Y4027D02*
X1599Y4027D01*
X597Y4026D02*
X613Y4026D01*
X1585Y4026D02*
X1601Y4026D01*
X595Y4025D02*
X611Y4025D01*
X1587Y4025D02*
X1603Y4025D01*
X593Y4024D02*
X609Y4024D01*
X1589Y4024D02*
X1605Y4024D01*
X591Y4023D02*
X607Y4023D01*
X1591Y4023D02*
X1607Y4023D01*
X590Y4022D02*
X605Y4022D01*
X1593Y4022D02*
X1609Y4022D01*
X588Y4021D02*
X603Y4021D01*
X1595Y4021D02*
X1611Y4021D01*
X586Y4020D02*
X601Y4020D01*
X1597Y4020D02*
X1613Y4020D01*
X584Y4019D02*
X599Y4019D01*
X1599Y4019D02*
X1615Y4019D01*
X582Y4018D02*
X597Y4018D01*
X1601Y4018D02*
X1616Y4018D01*
X580Y4017D02*
X595Y4017D01*
X1603Y4017D02*
X1618Y4017D01*
X578Y4016D02*
X593Y4016D01*
X1605Y4016D02*
X1620Y4016D01*
X576Y4015D02*
X592Y4015D01*
X1607Y4015D02*
X1622Y4015D01*
X575Y4014D02*
X590Y4014D01*
X1609Y4014D02*
X1624Y4014D01*
X573Y4013D02*
X588Y4013D01*
X1611Y4013D02*
X1626Y4013D01*
X571Y4012D02*
X586Y4012D01*
X1613Y4012D02*
X1627Y4012D01*
X569Y4011D02*
X584Y4011D01*
X1614Y4011D02*
X1629Y4011D01*
X567Y4010D02*
X582Y4010D01*
X1616Y4010D02*
X1631Y4010D01*
X566Y4009D02*
X580Y4009D01*
X1618Y4009D02*
X1633Y4009D01*
X564Y4008D02*
X578Y4008D01*
X1620Y4008D02*
X1635Y4008D01*
X562Y4007D02*
X577Y4007D01*
X1622Y4007D02*
X1636Y4007D01*
X560Y4006D02*
X575Y4006D01*
X1624Y4006D02*
X1638Y4006D01*
X558Y4005D02*
X573Y4005D01*
X1625Y4005D02*
X1640Y4005D01*
X557Y4004D02*
X571Y4004D01*
X1627Y4004D02*
X1642Y4004D01*
X555Y4003D02*
X569Y4003D01*
X1629Y4003D02*
X1644Y4003D01*
X553Y4002D02*
X567Y4002D01*
X1631Y4002D02*
X1645Y4002D01*
X551Y4001D02*
X566Y4001D01*
X1633Y4001D02*
X1647Y4001D01*
X550Y4000D02*
X564Y4000D01*
X1634Y4000D02*
X1649Y4000D01*
X548Y3999D02*
X562Y3999D01*
X1636Y3999D02*
X1650Y3999D01*
X546Y3998D02*
X560Y3998D01*
X1638Y3998D02*
X1652Y3998D01*
X545Y3997D02*
X559Y3997D01*
X1640Y3997D02*
X1654Y3997D01*
X543Y3996D02*
X557Y3996D01*
X1642Y3996D02*
X1656Y3996D01*
X541Y3995D02*
X555Y3995D01*
X1643Y3995D02*
X1657Y3995D01*
X539Y3994D02*
X553Y3994D01*
X1645Y3994D02*
X1659Y3994D01*
X538Y3993D02*
X552Y3993D01*
X1647Y3993D02*
X1661Y3993D01*
X536Y3992D02*
X550Y3992D01*
X1648Y3992D02*
X1662Y3992D01*
X534Y3991D02*
X548Y3991D01*
X1650Y3991D02*
X1664Y3991D01*
X533Y3990D02*
X547Y3990D01*
X1652Y3990D02*
X1666Y3990D01*
X531Y3989D02*
X545Y3989D01*
X1654Y3989D02*
X1667Y3989D01*
X529Y3988D02*
X543Y3988D01*
X1655Y3988D02*
X1669Y3988D01*
X528Y3987D02*
X541Y3987D01*
X1657Y3987D02*
X1671Y3987D01*
X526Y3986D02*
X540Y3986D01*
X1659Y3986D02*
X1672Y3986D01*
X525Y3985D02*
X538Y3985D01*
X1660Y3985D02*
X1674Y3985D01*
X523Y3984D02*
X536Y3984D01*
X1662Y3984D02*
X1675Y3984D01*
X521Y3983D02*
X535Y3983D01*
X1664Y3983D02*
X1677Y3983D01*
X520Y3982D02*
X533Y3982D01*
X1665Y3982D02*
X1679Y3982D01*
X518Y3981D02*
X531Y3981D01*
X1667Y3981D02*
X1680Y3981D01*
X517Y3980D02*
X530Y3980D01*
X1669Y3980D02*
X1682Y3980D01*
X515Y3979D02*
X528Y3979D01*
X1670Y3979D02*
X1683Y3979D01*
X513Y3978D02*
X527Y3978D01*
X1672Y3978D02*
X1685Y3978D01*
X512Y3977D02*
X525Y3977D01*
X1673Y3977D02*
X1687Y3977D01*
X510Y3976D02*
X523Y3976D01*
X1675Y3976D02*
X1688Y3976D01*
X509Y3975D02*
X522Y3975D01*
X1677Y3975D02*
X1690Y3975D01*
X507Y3974D02*
X520Y3974D01*
X1678Y3974D02*
X1691Y3974D01*
X506Y3973D02*
X519Y3973D01*
X1680Y3973D02*
X1693Y3973D01*
X504Y3972D02*
X517Y3972D01*
X1681Y3972D02*
X1694Y3972D01*
X502Y3971D02*
X515Y3971D01*
X1683Y3971D02*
X1696Y3971D01*
X501Y3970D02*
X514Y3970D01*
X1685Y3970D02*
X1697Y3970D01*
X499Y3969D02*
X512Y3969D01*
X1686Y3969D02*
X1699Y3969D01*
X498Y3968D02*
X511Y3968D01*
X1688Y3968D02*
X1701Y3968D01*
X496Y3967D02*
X509Y3967D01*
X1689Y3967D02*
X1702Y3967D01*
X495Y3966D02*
X508Y3966D01*
X1691Y3966D02*
X1704Y3966D01*
X493Y3965D02*
X506Y3965D01*
X1692Y3965D02*
X1705Y3965D01*
X492Y3964D02*
X504Y3964D01*
X1694Y3964D02*
X1707Y3964D01*
X490Y3963D02*
X503Y3963D01*
X1696Y3963D02*
X1708Y3963D01*
X489Y3962D02*
X501Y3962D01*
X1697Y3962D02*
X1710Y3962D01*
X487Y3961D02*
X500Y3961D01*
X1699Y3961D02*
X1711Y3961D01*
X486Y3960D02*
X498Y3960D01*
X1700Y3960D02*
X1713Y3960D01*
X484Y3959D02*
X497Y3959D01*
X1702Y3959D02*
X1714Y3959D01*
X483Y3958D02*
X495Y3958D01*
X1703Y3958D02*
X1716Y3958D01*
X481Y3957D02*
X494Y3957D01*
X1705Y3957D02*
X1717Y3957D01*
X480Y3956D02*
X492Y3956D01*
X1706Y3956D02*
X1718Y3956D01*
X479Y3955D02*
X491Y3955D01*
X1708Y3955D02*
X1720Y3955D01*
X477Y3954D02*
X489Y3954D01*
X1709Y3954D02*
X1721Y3954D01*
X476Y3953D02*
X488Y3953D01*
X1711Y3953D02*
X1723Y3953D01*
X474Y3952D02*
X486Y3952D01*
X1712Y3952D02*
X1724Y3952D01*
X473Y3951D02*
X485Y3951D01*
X1714Y3951D02*
X1726Y3951D01*
X471Y3950D02*
X483Y3950D01*
X1715Y3950D02*
X1727Y3950D01*
X470Y3949D02*
X482Y3949D01*
X1716Y3949D02*
X1729Y3949D01*
X468Y3948D02*
X481Y3948D01*
X1718Y3948D02*
X1730Y3948D01*
X467Y3947D02*
X479Y3947D01*
X1719Y3947D02*
X1731Y3947D01*
X466Y3946D02*
X478Y3946D01*
X1721Y3946D02*
X1733Y3946D01*
X464Y3945D02*
X476Y3945D01*
X1722Y3945D02*
X1734Y3945D01*
X463Y3944D02*
X475Y3944D01*
X1724Y3944D02*
X1736Y3944D01*
X461Y3943D02*
X473Y3943D01*
X1725Y3943D02*
X1737Y3943D01*
X460Y3942D02*
X472Y3942D01*
X1727Y3942D02*
X1738Y3942D01*
X459Y3941D02*
X470Y3941D01*
X1728Y3941D02*
X1740Y3941D01*
X457Y3940D02*
X469Y3940D01*
X1729Y3940D02*
X1741Y3940D01*
X456Y3939D02*
X468Y3939D01*
X1731Y3939D02*
X1743Y3939D01*
X454Y3938D02*
X466Y3938D01*
X1732Y3938D02*
X1744Y3938D01*
X453Y3937D02*
X465Y3937D01*
X1734Y3937D02*
X1745Y3937D01*
X452Y3936D02*
X463Y3936D01*
X1735Y3936D02*
X1747Y3936D01*
X450Y3935D02*
X462Y3935D01*
X1736Y3935D02*
X1748Y3935D01*
X449Y3934D02*
X461Y3934D01*
X1738Y3934D02*
X1749Y3934D01*
X448Y3933D02*
X459Y3933D01*
X1739Y3933D02*
X1751Y3933D01*
X446Y3932D02*
X458Y3932D01*
X1741Y3932D02*
X1752Y3932D01*
X445Y3931D02*
X456Y3931D01*
X1742Y3931D02*
X1754Y3931D01*
X444Y3930D02*
X455Y3930D01*
X1743Y3930D02*
X1755Y3930D01*
X442Y3929D02*
X454Y3929D01*
X1745Y3929D02*
X1756Y3929D01*
X441Y3928D02*
X452Y3928D01*
X1746Y3928D02*
X1758Y3928D01*
X440Y3927D02*
X451Y3927D01*
X1747Y3927D02*
X1759Y3927D01*
X438Y3926D02*
X450Y3926D01*
X1749Y3926D02*
X1760Y3926D01*
X437Y3925D02*
X448Y3925D01*
X1750Y3925D02*
X1762Y3925D01*
X436Y3924D02*
X447Y3924D01*
X1751Y3924D02*
X1763Y3924D01*
X434Y3923D02*
X446Y3923D01*
X1753Y3923D02*
X1764Y3923D01*
X433Y3922D02*
X444Y3922D01*
X1754Y3922D02*
X1765Y3922D01*
X432Y3921D02*
X443Y3921D01*
X1755Y3921D02*
X1767Y3921D01*
X430Y3920D02*
X442Y3920D01*
X1757Y3920D02*
X1768Y3920D01*
X429Y3919D02*
X440Y3919D01*
X1758Y3919D02*
X1769Y3919D01*
X428Y3918D02*
X439Y3918D01*
X1759Y3918D02*
X1771Y3918D01*
X426Y3917D02*
X438Y3917D01*
X1761Y3917D02*
X1772Y3917D01*
X425Y3916D02*
X436Y3916D01*
X1762Y3916D02*
X1773Y3916D01*
X424Y3915D02*
X435Y3915D01*
X1763Y3915D02*
X1775Y3915D01*
X423Y3914D02*
X434Y3914D01*
X1765Y3914D02*
X1776Y3914D01*
X421Y3913D02*
X432Y3913D01*
X1766Y3913D02*
X1777Y3913D01*
X420Y3912D02*
X431Y3912D01*
X1767Y3912D02*
X1778Y3912D01*
X419Y3911D02*
X430Y3911D01*
X1769Y3911D02*
X1780Y3911D01*
X418Y3910D02*
X429Y3910D01*
X1770Y3910D02*
X1781Y3910D01*
X416Y3909D02*
X427Y3909D01*
X1771Y3909D02*
X1782Y3909D01*
X415Y3908D02*
X426Y3908D01*
X1772Y3908D02*
X1783Y3908D01*
X414Y3907D02*
X425Y3907D01*
X1774Y3907D02*
X1785Y3907D01*
X413Y3906D02*
X423Y3906D01*
X1775Y3906D02*
X1786Y3906D01*
X411Y3905D02*
X422Y3905D01*
X1776Y3905D02*
X1787Y3905D01*
X410Y3904D02*
X421Y3904D01*
X1777Y3904D02*
X1788Y3904D01*
X409Y3903D02*
X420Y3903D01*
X1779Y3903D02*
X1790Y3903D01*
X408Y3902D02*
X418Y3902D01*
X1780Y3902D02*
X1791Y3902D01*
X406Y3901D02*
X417Y3901D01*
X1781Y3901D02*
X1792Y3901D01*
X405Y3900D02*
X416Y3900D01*
X1782Y3900D02*
X1793Y3900D01*
X404Y3899D02*
X415Y3899D01*
X1784Y3899D02*
X1795Y3899D01*
X403Y3898D02*
X413Y3898D01*
X1785Y3898D02*
X1796Y3898D01*
X401Y3897D02*
X412Y3897D01*
X1786Y3897D02*
X1797Y3897D01*
X400Y3896D02*
X411Y3896D01*
X1787Y3896D02*
X1798Y3896D01*
X399Y3895D02*
X410Y3895D01*
X1789Y3895D02*
X1799Y3895D01*
X398Y3894D02*
X409Y3894D01*
X1790Y3894D02*
X1801Y3894D01*
X397Y3893D02*
X407Y3893D01*
X1791Y3893D02*
X1802Y3893D01*
X395Y3892D02*
X406Y3892D01*
X1792Y3892D02*
X1803Y3892D01*
X394Y3891D02*
X405Y3891D01*
X1794Y3891D02*
X1804Y3891D01*
X393Y3890D02*
X404Y3890D01*
X1795Y3890D02*
X1805Y3890D01*
X392Y3889D02*
X402Y3889D01*
X1796Y3889D02*
X1807Y3889D01*
X391Y3888D02*
X401Y3888D01*
X1797Y3888D02*
X1808Y3888D01*
X389Y3887D02*
X400Y3887D01*
X1798Y3887D02*
X1809Y3887D01*
X388Y3886D02*
X399Y3886D01*
X1800Y3886D02*
X1810Y3886D01*
X387Y3885D02*
X398Y3885D01*
X1801Y3885D02*
X1811Y3885D01*
X386Y3884D02*
X396Y3884D01*
X1802Y3884D02*
X1812Y3884D01*
X385Y3883D02*
X395Y3883D01*
X1803Y3883D02*
X1814Y3883D01*
X384Y3882D02*
X394Y3882D01*
X1804Y3882D02*
X1815Y3882D01*
X382Y3881D02*
X393Y3881D01*
X1806Y3881D02*
X1816Y3881D01*
X381Y3880D02*
X392Y3880D01*
X1807Y3880D02*
X1817Y3880D01*
X380Y3879D02*
X391Y3879D01*
X1808Y3879D02*
X1818Y3879D01*
X379Y3878D02*
X389Y3878D01*
X1809Y3878D02*
X1819Y3878D01*
X378Y3877D02*
X388Y3877D01*
X1810Y3877D02*
X1821Y3877D01*
X377Y3876D02*
X387Y3876D01*
X1811Y3876D02*
X1822Y3876D01*
X376Y3875D02*
X386Y3875D01*
X1813Y3875D02*
X1823Y3875D01*
X374Y3874D02*
X385Y3874D01*
X1814Y3874D02*
X1824Y3874D01*
X373Y3873D02*
X384Y3873D01*
X1815Y3873D02*
X1825Y3873D01*
X372Y3872D02*
X382Y3872D01*
X1816Y3872D02*
X1826Y3872D01*
X371Y3871D02*
X381Y3871D01*
X1817Y3871D02*
X1827Y3871D01*
X370Y3870D02*
X380Y3870D01*
X1818Y3870D02*
X1829Y3870D01*
X369Y3869D02*
X379Y3869D01*
X1819Y3869D02*
X1830Y3869D01*
X368Y3868D02*
X378Y3868D01*
X1821Y3868D02*
X1831Y3868D01*
X367Y3867D02*
X377Y3867D01*
X1822Y3867D02*
X1832Y3867D01*
X365Y3866D02*
X376Y3866D01*
X1823Y3866D02*
X1833Y3866D01*
X364Y3865D02*
X374Y3865D01*
X1824Y3865D02*
X1834Y3865D01*
X363Y3864D02*
X373Y3864D01*
X1825Y3864D02*
X1835Y3864D01*
X362Y3863D02*
X372Y3863D01*
X1826Y3863D02*
X1836Y3863D01*
X361Y3862D02*
X371Y3862D01*
X1827Y3862D02*
X1837Y3862D01*
X360Y3861D02*
X370Y3861D01*
X1828Y3861D02*
X1839Y3861D01*
X359Y3860D02*
X369Y3860D01*
X1830Y3860D02*
X1840Y3860D01*
X358Y3859D02*
X368Y3859D01*
X1831Y3859D02*
X1841Y3859D01*
X357Y3858D02*
X367Y3858D01*
X1832Y3858D02*
X1842Y3858D01*
X356Y3857D02*
X366Y3857D01*
X1833Y3857D02*
X1843Y3857D01*
X354Y3856D02*
X364Y3856D01*
X1834Y3856D02*
X1844Y3856D01*
X353Y3855D02*
X363Y3855D01*
X1835Y3855D02*
X1845Y3855D01*
X352Y3854D02*
X362Y3854D01*
X1836Y3854D02*
X1846Y3854D01*
X351Y3853D02*
X361Y3853D01*
X1837Y3853D02*
X1847Y3853D01*
X350Y3852D02*
X360Y3852D01*
X1838Y3852D02*
X1848Y3852D01*
X349Y3851D02*
X359Y3851D01*
X1839Y3851D02*
X1849Y3851D01*
X348Y3850D02*
X358Y3850D01*
X1841Y3850D02*
X1850Y3850D01*
X347Y3849D02*
X357Y3849D01*
X1842Y3849D02*
X1851Y3849D01*
X346Y3848D02*
X356Y3848D01*
X1843Y3848D02*
X1853Y3848D01*
X345Y3847D02*
X355Y3847D01*
X1844Y3847D02*
X1854Y3847D01*
X344Y3846D02*
X354Y3846D01*
X1845Y3846D02*
X1855Y3846D01*
X343Y3845D02*
X352Y3845D01*
X1846Y3845D02*
X1856Y3845D01*
X342Y3844D02*
X351Y3844D01*
X1847Y3844D02*
X1857Y3844D01*
X341Y3843D02*
X350Y3843D01*
X1848Y3843D02*
X1858Y3843D01*
X340Y3842D02*
X349Y3842D01*
X1849Y3842D02*
X1859Y3842D01*
X339Y3841D02*
X348Y3841D01*
X1850Y3841D02*
X1860Y3841D01*
X337Y3840D02*
X347Y3840D01*
X1851Y3840D02*
X1861Y3840D01*
X336Y3839D02*
X346Y3839D01*
X1852Y3839D02*
X1862Y3839D01*
X335Y3838D02*
X345Y3838D01*
X1853Y3838D02*
X1863Y3838D01*
X334Y3837D02*
X344Y3837D01*
X1854Y3837D02*
X1864Y3837D01*
X333Y3836D02*
X343Y3836D01*
X1855Y3836D02*
X1865Y3836D01*
X332Y3835D02*
X342Y3835D01*
X1856Y3835D02*
X1866Y3835D01*
X331Y3834D02*
X341Y3834D01*
X1857Y3834D02*
X1867Y3834D01*
X330Y3833D02*
X340Y3833D01*
X1859Y3833D02*
X1868Y3833D01*
X329Y3832D02*
X339Y3832D01*
X1860Y3832D02*
X1869Y3832D01*
X328Y3831D02*
X338Y3831D01*
X1861Y3831D02*
X1870Y3831D01*
X327Y3830D02*
X337Y3830D01*
X1862Y3830D02*
X1871Y3830D01*
X326Y3829D02*
X336Y3829D01*
X1863Y3829D02*
X1872Y3829D01*
X325Y3828D02*
X335Y3828D01*
X1864Y3828D02*
X1873Y3828D01*
X324Y3827D02*
X334Y3827D01*
X1865Y3827D02*
X1874Y3827D01*
X323Y3826D02*
X333Y3826D01*
X1866Y3826D02*
X1875Y3826D01*
X322Y3825D02*
X332Y3825D01*
X1867Y3825D02*
X1876Y3825D01*
X321Y3824D02*
X331Y3824D01*
X1868Y3824D02*
X1877Y3824D01*
X320Y3823D02*
X330Y3823D01*
X1869Y3823D02*
X1878Y3823D01*
X319Y3822D02*
X329Y3822D01*
X1870Y3822D02*
X1879Y3822D01*
X318Y3821D02*
X328Y3821D01*
X1871Y3821D02*
X1880Y3821D01*
X317Y3820D02*
X327Y3820D01*
X1872Y3820D02*
X1881Y3820D01*
X316Y3819D02*
X326Y3819D01*
X1873Y3819D02*
X1882Y3819D01*
X315Y3818D02*
X325Y3818D01*
X1874Y3818D02*
X1883Y3818D01*
X314Y3817D02*
X324Y3817D01*
X1875Y3817D02*
X1884Y3817D01*
X313Y3816D02*
X323Y3816D01*
X1876Y3816D02*
X1885Y3816D01*
X312Y3815D02*
X322Y3815D01*
X1877Y3815D02*
X1886Y3815D01*
X311Y3814D02*
X321Y3814D01*
X1878Y3814D02*
X1887Y3814D01*
X310Y3813D02*
X320Y3813D01*
X1879Y3813D02*
X1888Y3813D01*
X309Y3812D02*
X319Y3812D01*
X1880Y3812D02*
X1889Y3812D01*
X308Y3811D02*
X318Y3811D01*
X1881Y3811D02*
X1890Y3811D01*
X307Y3810D02*
X317Y3810D01*
X1882Y3810D02*
X1891Y3810D01*
X307Y3809D02*
X316Y3809D01*
X1883Y3809D02*
X1892Y3809D01*
X306Y3808D02*
X315Y3808D01*
X1884Y3808D02*
X1893Y3808D01*
X305Y3807D02*
X314Y3807D01*
X1885Y3807D02*
X1894Y3807D01*
X304Y3806D02*
X313Y3806D01*
X1885Y3806D02*
X1895Y3806D01*
X303Y3805D02*
X312Y3805D01*
X1886Y3805D02*
X1896Y3805D01*
X302Y3804D02*
X311Y3804D01*
X1887Y3804D02*
X1897Y3804D01*
X301Y3803D02*
X310Y3803D01*
X1888Y3803D02*
X1898Y3803D01*
X300Y3802D02*
X309Y3802D01*
X1889Y3802D02*
X1899Y3802D01*
X299Y3801D02*
X308Y3801D01*
X1890Y3801D02*
X1900Y3801D01*
X298Y3800D02*
X307Y3800D01*
X1891Y3800D02*
X1900Y3800D01*
X297Y3799D02*
X306Y3799D01*
X1892Y3799D02*
X1901Y3799D01*
X296Y3798D02*
X305Y3798D01*
X1893Y3798D02*
X1902Y3798D01*
X295Y3797D02*
X304Y3797D01*
X1894Y3797D02*
X1903Y3797D01*
X294Y3796D02*
X303Y3796D01*
X1895Y3796D02*
X1904Y3796D01*
X293Y3795D02*
X302Y3795D01*
X1896Y3795D02*
X1905Y3795D01*
X292Y3794D02*
X302Y3794D01*
X1897Y3794D02*
X1906Y3794D01*
X291Y3793D02*
X301Y3793D01*
X1898Y3793D02*
X1907Y3793D01*
X291Y3792D02*
X300Y3792D01*
X1899Y3792D02*
X1908Y3792D01*
X290Y3791D02*
X299Y3791D01*
X1900Y3791D02*
X1909Y3791D01*
X289Y3790D02*
X298Y3790D01*
X1901Y3790D02*
X1910Y3790D01*
X288Y3789D02*
X297Y3789D01*
X1902Y3789D02*
X1911Y3789D01*
X287Y3788D02*
X296Y3788D01*
X1902Y3788D02*
X1912Y3788D01*
X286Y3787D02*
X295Y3787D01*
X1903Y3787D02*
X1912Y3787D01*
X285Y3786D02*
X294Y3786D01*
X1904Y3786D02*
X1913Y3786D01*
X284Y3785D02*
X293Y3785D01*
X1905Y3785D02*
X1914Y3785D01*
X283Y3784D02*
X292Y3784D01*
X1906Y3784D02*
X1915Y3784D01*
X282Y3783D02*
X291Y3783D01*
X1907Y3783D02*
X1916Y3783D01*
X281Y3782D02*
X290Y3782D01*
X1908Y3782D02*
X1917Y3782D01*
X281Y3781D02*
X290Y3781D01*
X1909Y3781D02*
X1918Y3781D01*
X280Y3780D02*
X289Y3780D01*
X1910Y3780D02*
X1919Y3780D01*
X279Y3779D02*
X288Y3779D01*
X1911Y3779D02*
X1920Y3779D01*
X278Y3778D02*
X287Y3778D01*
X1912Y3778D02*
X1921Y3778D01*
X277Y3777D02*
X286Y3777D01*
X1912Y3777D02*
X1921Y3777D01*
X276Y3776D02*
X285Y3776D01*
X1913Y3776D02*
X1922Y3776D01*
X275Y3775D02*
X284Y3775D01*
X1914Y3775D02*
X1923Y3775D01*
X274Y3774D02*
X283Y3774D01*
X1915Y3774D02*
X1924Y3774D01*
X273Y3773D02*
X282Y3773D01*
X1916Y3773D02*
X1925Y3773D01*
X273Y3772D02*
X281Y3772D01*
X1917Y3772D02*
X1926Y3772D01*
X272Y3771D02*
X281Y3771D01*
X1918Y3771D02*
X1927Y3771D01*
X271Y3770D02*
X280Y3770D01*
X1919Y3770D02*
X1928Y3770D01*
X270Y3769D02*
X279Y3769D01*
X1920Y3769D02*
X1928Y3769D01*
X269Y3768D02*
X278Y3768D01*
X1920Y3768D02*
X1929Y3768D01*
X268Y3767D02*
X277Y3767D01*
X1921Y3767D02*
X1930Y3767D01*
X267Y3766D02*
X276Y3766D01*
X1922Y3766D02*
X1931Y3766D01*
X266Y3765D02*
X275Y3765D01*
X1923Y3765D02*
X1932Y3765D01*
X266Y3764D02*
X274Y3764D01*
X1924Y3764D02*
X1933Y3764D01*
X265Y3763D02*
X274Y3763D01*
X1925Y3763D02*
X1934Y3763D01*
X264Y3762D02*
X273Y3762D01*
X1926Y3762D02*
X1935Y3762D01*
X263Y3761D02*
X272Y3761D01*
X1927Y3761D02*
X1935Y3761D01*
X262Y3760D02*
X271Y3760D01*
X1927Y3760D02*
X1936Y3760D01*
X261Y3759D02*
X270Y3759D01*
X1928Y3759D02*
X1937Y3759D01*
X261Y3758D02*
X269Y3758D01*
X1929Y3758D02*
X1938Y3758D01*
X260Y3757D02*
X268Y3757D01*
X1930Y3757D02*
X1939Y3757D01*
X259Y3756D02*
X268Y3756D01*
X1931Y3756D02*
X1940Y3756D01*
X258Y3755D02*
X267Y3755D01*
X1932Y3755D02*
X1940Y3755D01*
X257Y3754D02*
X266Y3754D01*
X1933Y3754D02*
X1941Y3754D01*
X256Y3753D02*
X265Y3753D01*
X1933Y3753D02*
X1942Y3753D01*
X255Y3752D02*
X264Y3752D01*
X1934Y3752D02*
X1943Y3752D01*
X255Y3751D02*
X263Y3751D01*
X1935Y3751D02*
X1944Y3751D01*
X254Y3750D02*
X262Y3750D01*
X1936Y3750D02*
X1945Y3750D01*
X253Y3749D02*
X262Y3749D01*
X1937Y3749D02*
X1945Y3749D01*
X252Y3748D02*
X261Y3748D01*
X1938Y3748D02*
X1946Y3748D01*
X251Y3747D02*
X260Y3747D01*
X1938Y3747D02*
X1947Y3747D01*
X250Y3746D02*
X259Y3746D01*
X1939Y3746D02*
X1948Y3746D01*
X250Y3745D02*
X258Y3745D01*
X1940Y3745D02*
X1949Y3745D01*
X249Y3744D02*
X257Y3744D01*
X1941Y3744D02*
X1950Y3744D01*
X248Y3743D02*
X257Y3743D01*
X1942Y3743D02*
X1950Y3743D01*
X247Y3742D02*
X256Y3742D01*
X1943Y3742D02*
X1951Y3742D01*
X246Y3741D02*
X255Y3741D01*
X1943Y3741D02*
X1952Y3741D01*
X246Y3740D02*
X254Y3740D01*
X1944Y3740D02*
X1953Y3740D01*
X245Y3739D02*
X253Y3739D01*
X1945Y3739D02*
X1954Y3739D01*
X244Y3738D02*
X253Y3738D01*
X1946Y3738D02*
X1954Y3738D01*
X243Y3737D02*
X252Y3737D01*
X1947Y3737D02*
X1955Y3737D01*
X242Y3736D02*
X251Y3736D01*
X1947Y3736D02*
X1956Y3736D01*
X242Y3735D02*
X250Y3735D01*
X1948Y3735D02*
X1957Y3735D01*
X241Y3734D02*
X249Y3734D01*
X1949Y3734D02*
X1958Y3734D01*
X240Y3733D02*
X248Y3733D01*
X1950Y3733D02*
X1958Y3733D01*
X239Y3732D02*
X248Y3732D01*
X1951Y3732D02*
X1959Y3732D01*
X238Y3731D02*
X247Y3731D01*
X1952Y3731D02*
X1960Y3731D01*
X238Y3730D02*
X246Y3730D01*
X1952Y3730D02*
X1961Y3730D01*
X237Y3729D02*
X245Y3729D01*
X1953Y3729D02*
X1962Y3729D01*
X236Y3728D02*
X244Y3728D01*
X1954Y3728D02*
X1962Y3728D01*
X235Y3727D02*
X244Y3727D01*
X1955Y3727D02*
X1963Y3727D01*
X234Y3726D02*
X243Y3726D01*
X1956Y3726D02*
X1964Y3726D01*
X234Y3725D02*
X242Y3725D01*
X1956Y3725D02*
X1965Y3725D01*
X233Y3724D02*
X241Y3724D01*
X1957Y3724D02*
X1966Y3724D01*
X232Y3723D02*
X240Y3723D01*
X1958Y3723D02*
X1966Y3723D01*
X231Y3722D02*
X240Y3722D01*
X1959Y3722D02*
X1967Y3722D01*
X231Y3721D02*
X239Y3721D01*
X1959Y3721D02*
X1968Y3721D01*
X230Y3720D02*
X238Y3720D01*
X1960Y3720D02*
X1969Y3720D01*
X229Y3719D02*
X237Y3719D01*
X1961Y3719D02*
X1969Y3719D01*
X228Y3718D02*
X237Y3718D01*
X1962Y3718D02*
X1970Y3718D01*
X227Y3717D02*
X236Y3717D01*
X1963Y3717D02*
X1971Y3717D01*
X227Y3716D02*
X235Y3716D01*
X1963Y3716D02*
X1972Y3716D01*
X226Y3715D02*
X234Y3715D01*
X1964Y3715D02*
X1973Y3715D01*
X225Y3714D02*
X233Y3714D01*
X1965Y3714D02*
X1973Y3714D01*
X224Y3713D02*
X233Y3713D01*
X1966Y3713D02*
X1974Y3713D01*
X224Y3712D02*
X232Y3712D01*
X1966Y3712D02*
X1975Y3712D01*
X223Y3711D02*
X231Y3711D01*
X1967Y3711D02*
X1976Y3711D01*
X222Y3710D02*
X230Y3710D01*
X1968Y3710D02*
X1976Y3710D01*
X221Y3709D02*
X230Y3709D01*
X1969Y3709D02*
X1977Y3709D01*
X221Y3708D02*
X229Y3708D01*
X1970Y3708D02*
X1978Y3708D01*
X220Y3707D02*
X228Y3707D01*
X1970Y3707D02*
X1979Y3707D01*
X219Y3706D02*
X227Y3706D01*
X1971Y3706D02*
X1979Y3706D01*
X218Y3705D02*
X227Y3705D01*
X1972Y3705D02*
X1980Y3705D01*
X218Y3704D02*
X226Y3704D01*
X1973Y3704D02*
X1981Y3704D01*
X217Y3703D02*
X225Y3703D01*
X1973Y3703D02*
X1982Y3703D01*
X216Y3702D02*
X224Y3702D01*
X1974Y3702D02*
X1982Y3702D01*
X215Y3701D02*
X224Y3701D01*
X1975Y3701D02*
X1983Y3701D01*
X215Y3700D02*
X223Y3700D01*
X1976Y3700D02*
X1984Y3700D01*
X214Y3699D02*
X222Y3699D01*
X1976Y3699D02*
X1985Y3699D01*
X213Y3698D02*
X221Y3698D01*
X1977Y3698D02*
X1985Y3698D01*
X212Y3697D02*
X221Y3697D01*
X1978Y3697D02*
X1986Y3697D01*
X212Y3696D02*
X220Y3696D01*
X1978Y3696D02*
X1987Y3696D01*
X211Y3695D02*
X219Y3695D01*
X1979Y3695D02*
X1988Y3695D01*
X210Y3694D02*
X218Y3694D01*
X1980Y3694D02*
X1988Y3694D01*
X209Y3693D02*
X218Y3693D01*
X1981Y3693D02*
X1989Y3693D01*
X209Y3692D02*
X217Y3692D01*
X1981Y3692D02*
X1990Y3692D01*
X208Y3691D02*
X216Y3691D01*
X1982Y3691D02*
X1990Y3691D01*
X207Y3690D02*
X216Y3690D01*
X1983Y3690D02*
X1991Y3690D01*
X207Y3689D02*
X215Y3689D01*
X1984Y3689D02*
X1992Y3689D01*
X206Y3688D02*
X214Y3688D01*
X1984Y3688D02*
X1993Y3688D01*
X205Y3687D02*
X213Y3687D01*
X1985Y3687D02*
X1993Y3687D01*
X204Y3686D02*
X213Y3686D01*
X1986Y3686D02*
X1994Y3686D01*
X204Y3685D02*
X212Y3685D01*
X1987Y3685D02*
X1995Y3685D01*
X203Y3684D02*
X211Y3684D01*
X1987Y3684D02*
X1995Y3684D01*
X202Y3683D02*
X210Y3683D01*
X1988Y3683D02*
X1996Y3683D01*
X202Y3682D02*
X210Y3682D01*
X1989Y3682D02*
X1997Y3682D01*
X201Y3681D02*
X209Y3681D01*
X1989Y3681D02*
X1998Y3681D01*
X200Y3680D02*
X208Y3680D01*
X1990Y3680D02*
X1998Y3680D01*
X199Y3679D02*
X208Y3679D01*
X1991Y3679D02*
X1999Y3679D01*
X199Y3678D02*
X207Y3678D01*
X1992Y3678D02*
X2000Y3678D01*
X198Y3677D02*
X206Y3677D01*
X1992Y3677D02*
X2000Y3677D01*
X197Y3676D02*
X206Y3676D01*
X1993Y3676D02*
X2001Y3676D01*
X197Y3675D02*
X205Y3675D01*
X1994Y3675D02*
X2002Y3675D01*
X196Y3674D02*
X204Y3674D01*
X1994Y3674D02*
X2002Y3674D01*
X195Y3673D02*
X203Y3673D01*
X1995Y3673D02*
X2003Y3673D01*
X195Y3672D02*
X203Y3672D01*
X1996Y3672D02*
X2004Y3672D01*
X194Y3671D02*
X202Y3671D01*
X1996Y3671D02*
X2005Y3671D01*
X193Y3670D02*
X201Y3670D01*
X1997Y3670D02*
X2005Y3670D01*
X193Y3669D02*
X201Y3669D01*
X1998Y3669D02*
X2006Y3669D01*
X192Y3668D02*
X200Y3668D01*
X1999Y3668D02*
X2007Y3668D01*
X191Y3667D02*
X199Y3667D01*
X1999Y3667D02*
X2007Y3667D01*
X190Y3666D02*
X199Y3666D01*
X2000Y3666D02*
X2008Y3666D01*
X190Y3665D02*
X198Y3665D01*
X2001Y3665D02*
X2009Y3665D01*
X189Y3664D02*
X197Y3664D01*
X2001Y3664D02*
X2009Y3664D01*
X188Y3663D02*
X196Y3663D01*
X2002Y3663D02*
X2010Y3663D01*
X188Y3662D02*
X196Y3662D01*
X2003Y3662D02*
X2011Y3662D01*
X187Y3661D02*
X195Y3661D01*
X2003Y3661D02*
X2011Y3661D01*
X186Y3660D02*
X194Y3660D01*
X2004Y3660D02*
X2012Y3660D01*
X186Y3659D02*
X194Y3659D01*
X2005Y3659D02*
X2013Y3659D01*
X185Y3658D02*
X193Y3658D01*
X2005Y3658D02*
X2013Y3658D01*
X184Y3657D02*
X192Y3657D01*
X2006Y3657D02*
X2014Y3657D01*
X184Y3656D02*
X192Y3656D01*
X2007Y3656D02*
X2015Y3656D01*
X183Y3655D02*
X191Y3655D01*
X2007Y3655D02*
X2015Y3655D01*
X182Y3654D02*
X190Y3654D01*
X2008Y3654D02*
X2016Y3654D01*
X182Y3653D02*
X190Y3653D01*
X2009Y3653D02*
X2017Y3653D01*
X181Y3652D02*
X189Y3652D01*
X2009Y3652D02*
X2017Y3652D01*
X180Y3651D02*
X188Y3651D01*
X2010Y3651D02*
X2018Y3651D01*
X180Y3650D02*
X188Y3650D01*
X2011Y3650D02*
X2019Y3650D01*
X179Y3649D02*
X187Y3649D01*
X2011Y3649D02*
X2019Y3649D01*
X178Y3648D02*
X186Y3648D01*
X2012Y3648D02*
X2020Y3648D01*
X178Y3647D02*
X186Y3647D01*
X2013Y3647D02*
X2021Y3647D01*
X177Y3646D02*
X185Y3646D01*
X2013Y3646D02*
X2021Y3646D01*
X177Y3645D02*
X184Y3645D01*
X2014Y3645D02*
X2022Y3645D01*
X176Y3644D02*
X184Y3644D01*
X2015Y3644D02*
X2023Y3644D01*
X175Y3643D02*
X183Y3643D01*
X2015Y3643D02*
X2023Y3643D01*
X175Y3642D02*
X183Y3642D01*
X2016Y3642D02*
X2024Y3642D01*
X174Y3641D02*
X182Y3641D01*
X2017Y3641D02*
X2025Y3641D01*
X173Y3640D02*
X181Y3640D01*
X2017Y3640D02*
X2025Y3640D01*
X173Y3639D02*
X181Y3639D01*
X2018Y3639D02*
X2026Y3639D01*
X172Y3638D02*
X180Y3638D01*
X2019Y3638D02*
X2026Y3638D01*
X171Y3637D02*
X179Y3637D01*
X2019Y3637D02*
X2027Y3637D01*
X171Y3636D02*
X179Y3636D01*
X2020Y3636D02*
X2028Y3636D01*
X170Y3635D02*
X178Y3635D01*
X2020Y3635D02*
X2028Y3635D01*
X169Y3634D02*
X177Y3634D01*
X2021Y3634D02*
X2029Y3634D01*
X169Y3633D02*
X177Y3633D01*
X2022Y3633D02*
X2030Y3633D01*
X168Y3632D02*
X176Y3632D01*
X2022Y3632D02*
X2030Y3632D01*
X168Y3631D02*
X175Y3631D01*
X2023Y3631D02*
X2031Y3631D01*
X167Y3630D02*
X175Y3630D01*
X2024Y3630D02*
X2031Y3630D01*
X166Y3629D02*
X174Y3629D01*
X2024Y3629D02*
X2032Y3629D01*
X166Y3628D02*
X174Y3628D01*
X2025Y3628D02*
X2033Y3628D01*
X165Y3627D02*
X173Y3627D01*
X2025Y3627D02*
X2033Y3627D01*
X164Y3626D02*
X172Y3626D01*
X2026Y3626D02*
X2034Y3626D01*
X164Y3625D02*
X172Y3625D01*
X2027Y3625D02*
X2035Y3625D01*
X163Y3624D02*
X171Y3624D01*
X2027Y3624D02*
X2035Y3624D01*
X163Y3623D02*
X170Y3623D01*
X2028Y3623D02*
X2036Y3623D01*
X162Y3622D02*
X170Y3622D01*
X2029Y3622D02*
X2036Y3622D01*
X161Y3621D02*
X169Y3621D01*
X2029Y3621D02*
X2037Y3621D01*
X161Y3620D02*
X169Y3620D01*
X2030Y3620D02*
X2038Y3620D01*
X160Y3619D02*
X168Y3619D01*
X2030Y3619D02*
X2038Y3619D01*
X160Y3618D02*
X167Y3618D01*
X2031Y3618D02*
X2039Y3618D01*
X159Y3617D02*
X167Y3617D01*
X2032Y3617D02*
X2040Y3617D01*
X158Y3616D02*
X166Y3616D01*
X2032Y3616D02*
X2040Y3616D01*
X158Y3615D02*
X166Y3615D01*
X2033Y3615D02*
X2041Y3615D01*
X157Y3614D02*
X165Y3614D01*
X2034Y3614D02*
X2041Y3614D01*
X157Y3613D02*
X164Y3613D01*
X2034Y3613D02*
X2042Y3613D01*
X156Y3612D02*
X164Y3612D01*
X2035Y3612D02*
X2042Y3612D01*
X155Y3611D02*
X163Y3611D01*
X2035Y3611D02*
X2043Y3611D01*
X155Y3610D02*
X162Y3610D01*
X2036Y3610D02*
X2044Y3610D01*
X154Y3609D02*
X162Y3609D01*
X2037Y3609D02*
X2044Y3609D01*
X154Y3608D02*
X161Y3608D01*
X2037Y3608D02*
X2045Y3608D01*
X153Y3607D02*
X161Y3607D01*
X2038Y3607D02*
X2045Y3607D01*
X152Y3606D02*
X160Y3606D01*
X2038Y3606D02*
X2046Y3606D01*
X152Y3605D02*
X160Y3605D01*
X2039Y3605D02*
X2047Y3605D01*
X151Y3604D02*
X159Y3604D01*
X2040Y3604D02*
X2047Y3604D01*
X151Y3603D02*
X158Y3603D01*
X2040Y3603D02*
X2048Y3603D01*
X150Y3602D02*
X158Y3602D01*
X2041Y3602D02*
X2048Y3602D01*
X149Y3601D02*
X157Y3601D01*
X2041Y3601D02*
X2049Y3601D01*
X149Y3600D02*
X157Y3600D01*
X2042Y3600D02*
X2050Y3600D01*
X148Y3599D02*
X156Y3599D01*
X2042Y3599D02*
X2050Y3599D01*
X148Y3598D02*
X155Y3598D01*
X2043Y3598D02*
X2051Y3598D01*
X147Y3597D02*
X155Y3597D01*
X2044Y3597D02*
X2051Y3597D01*
X146Y3596D02*
X154Y3596D01*
X2044Y3596D02*
X2052Y3596D01*
X146Y3595D02*
X154Y3595D01*
X2045Y3595D02*
X2053Y3595D01*
X145Y3594D02*
X153Y3594D01*
X2045Y3594D02*
X2053Y3594D01*
X145Y3593D02*
X152Y3593D01*
X2046Y3593D02*
X2054Y3593D01*
X144Y3592D02*
X152Y3592D01*
X2047Y3592D02*
X2054Y3592D01*
X144Y3591D02*
X151Y3591D01*
X2047Y3591D02*
X2055Y3591D01*
X143Y3590D02*
X151Y3590D01*
X2048Y3590D02*
X2055Y3590D01*
X143Y3589D02*
X150Y3589D01*
X2048Y3589D02*
X2056Y3589D01*
X142Y3588D02*
X150Y3588D01*
X2049Y3588D02*
X2056Y3588D01*
X141Y3587D02*
X149Y3587D01*
X2049Y3587D02*
X2057Y3587D01*
X141Y3586D02*
X148Y3586D01*
X2050Y3586D02*
X2058Y3586D01*
X140Y3585D02*
X148Y3585D01*
X2050Y3585D02*
X2058Y3585D01*
X140Y3584D02*
X147Y3584D01*
X2051Y3584D02*
X2059Y3584D01*
X139Y3583D02*
X147Y3583D01*
X2052Y3583D02*
X2059Y3583D01*
X139Y3582D02*
X146Y3582D01*
X2052Y3582D02*
X2060Y3582D01*
X138Y3581D02*
X146Y3581D01*
X2053Y3581D02*
X2060Y3581D01*
X137Y3580D02*
X145Y3580D01*
X2053Y3580D02*
X2061Y3580D01*
X137Y3579D02*
X145Y3579D01*
X2054Y3579D02*
X2062Y3579D01*
X136Y3578D02*
X144Y3578D01*
X2054Y3578D02*
X2062Y3578D01*
X136Y3577D02*
X143Y3577D01*
X2055Y3577D02*
X2063Y3577D01*
X135Y3576D02*
X143Y3576D01*
X2056Y3576D02*
X2063Y3576D01*
X135Y3575D02*
X142Y3575D01*
X2056Y3575D02*
X2064Y3575D01*
X134Y3574D02*
X142Y3574D01*
X2057Y3574D02*
X2064Y3574D01*
X134Y3573D02*
X141Y3573D01*
X2057Y3573D02*
X2065Y3573D01*
X133Y3572D02*
X141Y3572D01*
X2058Y3572D02*
X2065Y3572D01*
X133Y3571D02*
X140Y3571D01*
X2058Y3571D02*
X2066Y3571D01*
X132Y3570D02*
X140Y3570D01*
X2059Y3570D02*
X2066Y3570D01*
X131Y3569D02*
X139Y3569D01*
X2059Y3569D02*
X2067Y3569D01*
X131Y3568D02*
X138Y3568D01*
X2060Y3568D02*
X2068Y3568D01*
X130Y3567D02*
X138Y3567D01*
X2060Y3567D02*
X2068Y3567D01*
X130Y3566D02*
X137Y3566D01*
X2061Y3566D02*
X2069Y3566D01*
X129Y3565D02*
X137Y3565D01*
X2062Y3565D02*
X2069Y3565D01*
X129Y3564D02*
X136Y3564D01*
X2062Y3564D02*
X2070Y3564D01*
X128Y3563D02*
X136Y3563D01*
X2063Y3563D02*
X2070Y3563D01*
X128Y3562D02*
X135Y3562D01*
X2063Y3562D02*
X2071Y3562D01*
X127Y3561D02*
X135Y3561D01*
X2064Y3561D02*
X2071Y3561D01*
X127Y3560D02*
X134Y3560D01*
X2064Y3560D02*
X2072Y3560D01*
X126Y3559D02*
X134Y3559D01*
X2065Y3559D02*
X2072Y3559D01*
X126Y3558D02*
X133Y3558D01*
X2065Y3558D02*
X2073Y3558D01*
X125Y3557D02*
X133Y3557D01*
X2066Y3557D02*
X2073Y3557D01*
X125Y3556D02*
X132Y3556D01*
X2066Y3556D02*
X2074Y3556D01*
X124Y3555D02*
X132Y3555D01*
X2067Y3555D02*
X2074Y3555D01*
X123Y3554D02*
X131Y3554D01*
X2067Y3554D02*
X2075Y3554D01*
X123Y3553D02*
X131Y3553D01*
X2068Y3553D02*
X2075Y3553D01*
X122Y3552D02*
X130Y3552D01*
X2068Y3552D02*
X2076Y3552D01*
X122Y3551D02*
X129Y3551D01*
X2069Y3551D02*
X2076Y3551D01*
X121Y3550D02*
X129Y3550D01*
X2069Y3550D02*
X2077Y3550D01*
X121Y3549D02*
X128Y3549D01*
X2070Y3549D02*
X2078Y3549D01*
X120Y3548D02*
X128Y3548D01*
X2070Y3548D02*
X2078Y3548D01*
X120Y3547D02*
X127Y3547D01*
X2071Y3547D02*
X2079Y3547D01*
X119Y3546D02*
X127Y3546D01*
X2072Y3546D02*
X2079Y3546D01*
X119Y3545D02*
X126Y3545D01*
X2072Y3545D02*
X2080Y3545D01*
X118Y3544D02*
X126Y3544D01*
X2073Y3544D02*
X2080Y3544D01*
X118Y3543D02*
X125Y3543D01*
X2073Y3543D02*
X2081Y3543D01*
X117Y3542D02*
X125Y3542D01*
X2074Y3542D02*
X2081Y3542D01*
X117Y3541D02*
X124Y3541D01*
X2074Y3541D02*
X2082Y3541D01*
X116Y3540D02*
X124Y3540D01*
X2075Y3540D02*
X2082Y3540D01*
X116Y3539D02*
X123Y3539D01*
X2075Y3539D02*
X2083Y3539D01*
X115Y3538D02*
X123Y3538D01*
X2076Y3538D02*
X2083Y3538D01*
X115Y3537D02*
X122Y3537D01*
X2076Y3537D02*
X2084Y3537D01*
X114Y3536D02*
X122Y3536D01*
X2077Y3536D02*
X2084Y3536D01*
X114Y3535D02*
X121Y3535D01*
X2077Y3535D02*
X2085Y3535D01*
X113Y3534D02*
X121Y3534D01*
X2078Y3534D02*
X2085Y3534D01*
X113Y3533D02*
X120Y3533D01*
X2078Y3533D02*
X2086Y3533D01*
X112Y3532D02*
X120Y3532D01*
X2079Y3532D02*
X2086Y3532D01*
X112Y3531D02*
X119Y3531D01*
X2079Y3531D02*
X2087Y3531D01*
X111Y3530D02*
X119Y3530D01*
X2080Y3530D02*
X2087Y3530D01*
X111Y3529D02*
X118Y3529D01*
X2080Y3529D02*
X2088Y3529D01*
X110Y3528D02*
X118Y3528D01*
X2081Y3528D02*
X2088Y3528D01*
X110Y3527D02*
X117Y3527D01*
X2081Y3527D02*
X2089Y3527D01*
X109Y3526D02*
X117Y3526D01*
X2082Y3526D02*
X2089Y3526D01*
X109Y3525D02*
X116Y3525D01*
X2082Y3525D02*
X2089Y3525D01*
X108Y3524D02*
X116Y3524D01*
X2083Y3524D02*
X2090Y3524D01*
X108Y3523D02*
X115Y3523D01*
X2083Y3523D02*
X2090Y3523D01*
X107Y3522D02*
X115Y3522D01*
X2083Y3522D02*
X2091Y3522D01*
X107Y3521D02*
X114Y3521D01*
X2084Y3521D02*
X2091Y3521D01*
X107Y3520D02*
X114Y3520D01*
X2084Y3520D02*
X2092Y3520D01*
X106Y3519D02*
X114Y3519D01*
X2085Y3519D02*
X2092Y3519D01*
X106Y3518D02*
X113Y3518D01*
X2085Y3518D02*
X2093Y3518D01*
X105Y3517D02*
X113Y3517D01*
X2086Y3517D02*
X2093Y3517D01*
X105Y3516D02*
X112Y3516D01*
X2086Y3516D02*
X2094Y3516D01*
X104Y3515D02*
X112Y3515D01*
X2087Y3515D02*
X2094Y3515D01*
X104Y3514D02*
X111Y3514D01*
X2087Y3514D02*
X2095Y3514D01*
X103Y3513D02*
X111Y3513D01*
X2088Y3513D02*
X2095Y3513D01*
X103Y3512D02*
X110Y3512D01*
X2088Y3512D02*
X2096Y3512D01*
X102Y3511D02*
X110Y3511D01*
X2089Y3511D02*
X2096Y3511D01*
X102Y3510D02*
X109Y3510D01*
X2089Y3510D02*
X2097Y3510D01*
X101Y3509D02*
X109Y3509D01*
X2090Y3509D02*
X2097Y3509D01*
X101Y3508D02*
X108Y3508D01*
X2090Y3508D02*
X2098Y3508D01*
X100Y3507D02*
X108Y3507D01*
X2091Y3507D02*
X2098Y3507D01*
X100Y3506D02*
X107Y3506D01*
X2091Y3506D02*
X2098Y3506D01*
X100Y3505D02*
X107Y3505D01*
X2091Y3505D02*
X2099Y3505D01*
X99Y3504D02*
X106Y3504D01*
X2092Y3504D02*
X2099Y3504D01*
X99Y3503D02*
X106Y3503D01*
X2092Y3503D02*
X2100Y3503D01*
X98Y3502D02*
X106Y3502D01*
X2093Y3502D02*
X2100Y3502D01*
X98Y3501D02*
X105Y3501D01*
X2093Y3501D02*
X2101Y3501D01*
X97Y3500D02*
X105Y3500D01*
X2094Y3500D02*
X2101Y3500D01*
X97Y3499D02*
X104Y3499D01*
X2094Y3499D02*
X2102Y3499D01*
X96Y3498D02*
X104Y3498D01*
X2095Y3498D02*
X2102Y3498D01*
X96Y3497D02*
X103Y3497D01*
X2095Y3497D02*
X2103Y3497D01*
X95Y3496D02*
X103Y3496D01*
X2096Y3496D02*
X2103Y3496D01*
X95Y3495D02*
X102Y3495D01*
X2096Y3495D02*
X2103Y3495D01*
X95Y3494D02*
X102Y3494D01*
X2096Y3494D02*
X2104Y3494D01*
X94Y3493D02*
X101Y3493D01*
X2097Y3493D02*
X2104Y3493D01*
X94Y3492D02*
X101Y3492D01*
X2097Y3492D02*
X2105Y3492D01*
X93Y3491D02*
X101Y3491D01*
X2098Y3491D02*
X2105Y3491D01*
X93Y3490D02*
X100Y3490D01*
X2098Y3490D02*
X2106Y3490D01*
X92Y3489D02*
X100Y3489D01*
X2099Y3489D02*
X2106Y3489D01*
X92Y3488D02*
X99Y3488D01*
X2099Y3488D02*
X2107Y3488D01*
X91Y3487D02*
X99Y3487D01*
X2100Y3487D02*
X2107Y3487D01*
X91Y3486D02*
X98Y3486D01*
X2100Y3486D02*
X2107Y3486D01*
X91Y3485D02*
X98Y3485D01*
X2100Y3485D02*
X2108Y3485D01*
X90Y3484D02*
X98Y3484D01*
X2101Y3484D02*
X2108Y3484D01*
X90Y3483D02*
X97Y3483D01*
X2101Y3483D02*
X2109Y3483D01*
X89Y3482D02*
X97Y3482D01*
X2102Y3482D02*
X2109Y3482D01*
X89Y3481D02*
X96Y3481D01*
X2102Y3481D02*
X2110Y3481D01*
X88Y3480D02*
X96Y3480D01*
X2103Y3480D02*
X2110Y3480D01*
X88Y3479D02*
X95Y3479D01*
X2103Y3479D02*
X2110Y3479D01*
X88Y3478D02*
X95Y3478D01*
X2103Y3478D02*
X2111Y3478D01*
X87Y3477D02*
X94Y3477D01*
X2104Y3477D02*
X2111Y3477D01*
X87Y3476D02*
X94Y3476D01*
X2104Y3476D02*
X2112Y3476D01*
X86Y3475D02*
X94Y3475D01*
X2105Y3475D02*
X2112Y3475D01*
X86Y3474D02*
X93Y3474D01*
X2105Y3474D02*
X2113Y3474D01*
X85Y3473D02*
X93Y3473D01*
X2106Y3473D02*
X2113Y3473D01*
X85Y3472D02*
X92Y3472D01*
X2106Y3472D02*
X2113Y3472D01*
X85Y3471D02*
X92Y3471D01*
X2106Y3471D02*
X2114Y3471D01*
X84Y3470D02*
X92Y3470D01*
X2107Y3470D02*
X2114Y3470D01*
X84Y3469D02*
X91Y3469D01*
X2107Y3469D02*
X2115Y3469D01*
X83Y3468D02*
X91Y3468D01*
X2108Y3468D02*
X2115Y3468D01*
X83Y3467D02*
X90Y3467D01*
X2108Y3467D02*
X2115Y3467D01*
X83Y3466D02*
X90Y3466D01*
X2109Y3466D02*
X2116Y3466D01*
X82Y3465D02*
X89Y3465D01*
X2109Y3465D02*
X2116Y3465D01*
X82Y3464D02*
X89Y3464D01*
X2109Y3464D02*
X2117Y3464D01*
X81Y3463D02*
X89Y3463D01*
X2110Y3463D02*
X2117Y3463D01*
X81Y3462D02*
X88Y3462D01*
X2110Y3462D02*
X2118Y3462D01*
X80Y3461D02*
X88Y3461D01*
X2111Y3461D02*
X2118Y3461D01*
X80Y3460D02*
X87Y3460D01*
X2111Y3460D02*
X2118Y3460D01*
X80Y3459D02*
X87Y3459D01*
X2111Y3459D02*
X2119Y3459D01*
X79Y3458D02*
X87Y3458D01*
X2112Y3458D02*
X2119Y3458D01*
X79Y3457D02*
X86Y3457D01*
X2112Y3457D02*
X2120Y3457D01*
X78Y3456D02*
X86Y3456D01*
X2113Y3456D02*
X2120Y3456D01*
X78Y3455D02*
X85Y3455D01*
X2113Y3455D02*
X2120Y3455D01*
X78Y3454D02*
X85Y3454D01*
X2113Y3454D02*
X2121Y3454D01*
X77Y3453D02*
X85Y3453D01*
X2114Y3453D02*
X2121Y3453D01*
X77Y3452D02*
X84Y3452D01*
X2114Y3452D02*
X2122Y3452D01*
X76Y3451D02*
X84Y3451D01*
X2115Y3451D02*
X2122Y3451D01*
X76Y3450D02*
X83Y3450D01*
X2115Y3450D02*
X2122Y3450D01*
X76Y3449D02*
X83Y3449D01*
X2115Y3449D02*
X2123Y3449D01*
X75Y3448D02*
X83Y3448D01*
X2116Y3448D02*
X2123Y3448D01*
X75Y3447D02*
X82Y3447D01*
X2116Y3447D02*
X2124Y3447D01*
X75Y3446D02*
X82Y3446D01*
X2117Y3446D02*
X2124Y3446D01*
X74Y3445D02*
X81Y3445D01*
X2117Y3445D02*
X2124Y3445D01*
X74Y3444D02*
X81Y3444D01*
X2117Y3444D02*
X2125Y3444D01*
X73Y3443D02*
X81Y3443D01*
X2118Y3443D02*
X2125Y3443D01*
X73Y3442D02*
X80Y3442D01*
X2118Y3442D02*
X2125Y3442D01*
X73Y3441D02*
X80Y3441D01*
X2119Y3441D02*
X2126Y3441D01*
X72Y3440D02*
X79Y3440D01*
X2119Y3440D02*
X2126Y3440D01*
X72Y3439D02*
X79Y3439D01*
X2119Y3439D02*
X2127Y3439D01*
X71Y3438D02*
X79Y3438D01*
X2120Y3438D02*
X2127Y3438D01*
X71Y3437D02*
X78Y3437D01*
X2120Y3437D02*
X2127Y3437D01*
X71Y3436D02*
X78Y3436D01*
X2120Y3436D02*
X2128Y3436D01*
X70Y3435D02*
X78Y3435D01*
X2121Y3435D02*
X2128Y3435D01*
X70Y3434D02*
X77Y3434D01*
X2121Y3434D02*
X2128Y3434D01*
X70Y3433D02*
X77Y3433D01*
X2122Y3433D02*
X2129Y3433D01*
X69Y3432D02*
X76Y3432D01*
X2122Y3432D02*
X2129Y3432D01*
X69Y3431D02*
X76Y3431D01*
X2122Y3431D02*
X2130Y3431D01*
X68Y3430D02*
X76Y3430D01*
X2123Y3430D02*
X2130Y3430D01*
X68Y3429D02*
X75Y3429D01*
X2123Y3429D02*
X2130Y3429D01*
X68Y3428D02*
X75Y3428D01*
X2123Y3428D02*
X2131Y3428D01*
X67Y3427D02*
X75Y3427D01*
X2124Y3427D02*
X2131Y3427D01*
X67Y3426D02*
X74Y3426D01*
X2124Y3426D02*
X2131Y3426D01*
X67Y3425D02*
X74Y3425D01*
X2125Y3425D02*
X2132Y3425D01*
X66Y3424D02*
X73Y3424D01*
X2125Y3424D02*
X2132Y3424D01*
X66Y3423D02*
X73Y3423D01*
X2125Y3423D02*
X2133Y3423D01*
X66Y3422D02*
X73Y3422D01*
X2126Y3422D02*
X2133Y3422D01*
X65Y3421D02*
X72Y3421D01*
X2126Y3421D02*
X2133Y3421D01*
X65Y3420D02*
X72Y3420D01*
X2126Y3420D02*
X2134Y3420D01*
X64Y3419D02*
X72Y3419D01*
X2127Y3419D02*
X2134Y3419D01*
X64Y3418D02*
X71Y3418D01*
X2127Y3418D02*
X2134Y3418D01*
X64Y3417D02*
X71Y3417D01*
X2127Y3417D02*
X2135Y3417D01*
X63Y3416D02*
X71Y3416D01*
X2128Y3416D02*
X2135Y3416D01*
X63Y3415D02*
X70Y3415D01*
X2128Y3415D02*
X2135Y3415D01*
X63Y3414D02*
X70Y3414D01*
X2129Y3414D02*
X2136Y3414D01*
X62Y3413D02*
X69Y3413D01*
X2129Y3413D02*
X2136Y3413D01*
X62Y3412D02*
X69Y3412D01*
X2129Y3412D02*
X2136Y3412D01*
X62Y3411D02*
X69Y3411D01*
X2130Y3411D02*
X2137Y3411D01*
X61Y3410D02*
X68Y3410D01*
X2130Y3410D02*
X2137Y3410D01*
X61Y3409D02*
X68Y3409D01*
X2130Y3409D02*
X2138Y3409D01*
X61Y3408D02*
X68Y3408D01*
X2131Y3408D02*
X2138Y3408D01*
X60Y3407D02*
X67Y3407D01*
X2131Y3407D02*
X2138Y3407D01*
X60Y3406D02*
X67Y3406D01*
X2131Y3406D02*
X2139Y3406D01*
X60Y3405D02*
X67Y3405D01*
X2132Y3405D02*
X2139Y3405D01*
X59Y3404D02*
X66Y3404D01*
X2132Y3404D02*
X2139Y3404D01*
X59Y3403D02*
X66Y3403D01*
X2132Y3403D02*
X2140Y3403D01*
X58Y3402D02*
X66Y3402D01*
X2133Y3402D02*
X2140Y3402D01*
X58Y3401D02*
X65Y3401D01*
X2133Y3401D02*
X2140Y3401D01*
X58Y3400D02*
X65Y3400D01*
X2133Y3400D02*
X2141Y3400D01*
X57Y3399D02*
X65Y3399D01*
X2134Y3399D02*
X2141Y3399D01*
X57Y3398D02*
X64Y3398D01*
X2134Y3398D02*
X2141Y3398D01*
X57Y3397D02*
X64Y3397D01*
X2134Y3397D02*
X2142Y3397D01*
X56Y3396D02*
X64Y3396D01*
X2135Y3396D02*
X2142Y3396D01*
X56Y3395D02*
X63Y3395D01*
X2135Y3395D02*
X2142Y3395D01*
X56Y3394D02*
X63Y3394D01*
X2135Y3394D02*
X2143Y3394D01*
X55Y3393D02*
X63Y3393D01*
X2136Y3393D02*
X2143Y3393D01*
X55Y3392D02*
X62Y3392D01*
X2136Y3392D02*
X2143Y3392D01*
X55Y3391D02*
X62Y3391D01*
X2136Y3391D02*
X2144Y3391D01*
X54Y3390D02*
X62Y3390D01*
X2137Y3390D02*
X2144Y3390D01*
X54Y3389D02*
X61Y3389D01*
X2137Y3389D02*
X2144Y3389D01*
X54Y3388D02*
X61Y3388D01*
X2137Y3388D02*
X2145Y3388D01*
X53Y3387D02*
X61Y3387D01*
X2138Y3387D02*
X2145Y3387D01*
X53Y3386D02*
X60Y3386D01*
X2138Y3386D02*
X2145Y3386D01*
X53Y3385D02*
X60Y3385D01*
X2138Y3385D02*
X2146Y3385D01*
X53Y3384D02*
X60Y3384D01*
X2139Y3384D02*
X2146Y3384D01*
X52Y3383D02*
X59Y3383D01*
X2139Y3383D02*
X2146Y3383D01*
X52Y3382D02*
X59Y3382D01*
X2139Y3382D02*
X2147Y3382D01*
X52Y3381D02*
X59Y3381D01*
X2140Y3381D02*
X2147Y3381D01*
X51Y3380D02*
X58Y3380D01*
X2140Y3380D02*
X2147Y3380D01*
X51Y3379D02*
X58Y3379D01*
X2140Y3379D02*
X2147Y3379D01*
X51Y3378D02*
X58Y3378D01*
X2141Y3378D02*
X2148Y3378D01*
X50Y3377D02*
X57Y3377D01*
X2141Y3377D02*
X2148Y3377D01*
X50Y3376D02*
X57Y3376D01*
X2141Y3376D02*
X2148Y3376D01*
X50Y3375D02*
X57Y3375D01*
X2142Y3375D02*
X2149Y3375D01*
X49Y3374D02*
X57Y3374D01*
X2142Y3374D02*
X2149Y3374D01*
X49Y3373D02*
X56Y3373D01*
X2142Y3373D02*
X2149Y3373D01*
X49Y3372D02*
X56Y3372D01*
X2143Y3372D02*
X2150Y3372D01*
X48Y3371D02*
X56Y3371D01*
X2143Y3371D02*
X2150Y3371D01*
X48Y3370D02*
X55Y3370D01*
X2143Y3370D02*
X2150Y3370D01*
X48Y3369D02*
X55Y3369D01*
X2143Y3369D02*
X2151Y3369D01*
X48Y3368D02*
X55Y3368D01*
X2144Y3368D02*
X2151Y3368D01*
X47Y3367D02*
X54Y3367D01*
X2144Y3367D02*
X2151Y3367D01*
X47Y3366D02*
X54Y3366D01*
X2144Y3366D02*
X2152Y3366D01*
X47Y3365D02*
X54Y3365D01*
X2145Y3365D02*
X2152Y3365D01*
X46Y3364D02*
X53Y3364D01*
X2145Y3364D02*
X2152Y3364D01*
X46Y3363D02*
X53Y3363D01*
X2145Y3363D02*
X2152Y3363D01*
X46Y3362D02*
X53Y3362D01*
X2146Y3362D02*
X2153Y3362D01*
X45Y3361D02*
X53Y3361D01*
X2146Y3361D02*
X2153Y3361D01*
X45Y3360D02*
X52Y3360D01*
X2146Y3360D02*
X2153Y3360D01*
X45Y3359D02*
X52Y3359D01*
X2146Y3359D02*
X2154Y3359D01*
X45Y3358D02*
X52Y3358D01*
X2147Y3358D02*
X2154Y3358D01*
X44Y3357D02*
X51Y3357D01*
X2147Y3357D02*
X2154Y3357D01*
X44Y3356D02*
X51Y3356D01*
X2147Y3356D02*
X2154Y3356D01*
X44Y3355D02*
X51Y3355D01*
X2148Y3355D02*
X2155Y3355D01*
X43Y3354D02*
X50Y3354D01*
X2148Y3354D02*
X2155Y3354D01*
X43Y3353D02*
X50Y3353D01*
X2148Y3353D02*
X2155Y3353D01*
X43Y3352D02*
X50Y3352D01*
X2149Y3352D02*
X2156Y3352D01*
X42Y3351D02*
X50Y3351D01*
X2149Y3351D02*
X2156Y3351D01*
X42Y3350D02*
X49Y3350D01*
X2149Y3350D02*
X2156Y3350D01*
X42Y3349D02*
X49Y3349D01*
X2149Y3349D02*
X2157Y3349D01*
X42Y3348D02*
X49Y3348D01*
X2150Y3348D02*
X2157Y3348D01*
X41Y3347D02*
X48Y3347D01*
X2150Y3347D02*
X2157Y3347D01*
X41Y3346D02*
X48Y3346D01*
X2150Y3346D02*
X2157Y3346D01*
X41Y3345D02*
X48Y3345D01*
X2151Y3345D02*
X2158Y3345D01*
X41Y3344D02*
X48Y3344D01*
X2151Y3344D02*
X2158Y3344D01*
X40Y3343D02*
X47Y3343D01*
X2151Y3343D02*
X2158Y3343D01*
X40Y3342D02*
X47Y3342D01*
X2151Y3342D02*
X2158Y3342D01*
X40Y3341D02*
X47Y3341D01*
X2152Y3341D02*
X2159Y3341D01*
X39Y3340D02*
X47Y3340D01*
X2152Y3340D02*
X2159Y3340D01*
X39Y3339D02*
X46Y3339D01*
X2152Y3339D02*
X2159Y3339D01*
X39Y3338D02*
X46Y3338D01*
X2152Y3338D02*
X2160Y3338D01*
X39Y3337D02*
X46Y3337D01*
X2153Y3337D02*
X2160Y3337D01*
X38Y3336D02*
X45Y3336D01*
X2153Y3336D02*
X2160Y3336D01*
X38Y3335D02*
X45Y3335D01*
X2153Y3335D02*
X2160Y3335D01*
X38Y3334D02*
X45Y3334D01*
X2154Y3334D02*
X2161Y3334D01*
X37Y3333D02*
X45Y3333D01*
X2154Y3333D02*
X2161Y3333D01*
X37Y3332D02*
X44Y3332D01*
X2154Y3332D02*
X2161Y3332D01*
X37Y3331D02*
X44Y3331D01*
X2154Y3331D02*
X2161Y3331D01*
X37Y3330D02*
X44Y3330D01*
X2155Y3330D02*
X2162Y3330D01*
X36Y3329D02*
X44Y3329D01*
X2155Y3329D02*
X2162Y3329D01*
X36Y3328D02*
X43Y3328D01*
X2155Y3328D02*
X2162Y3328D01*
X36Y3327D02*
X43Y3327D01*
X2155Y3327D02*
X2163Y3327D01*
X36Y3326D02*
X43Y3326D01*
X2156Y3326D02*
X2163Y3326D01*
X35Y3325D02*
X42Y3325D01*
X2156Y3325D02*
X2163Y3325D01*
X35Y3324D02*
X42Y3324D01*
X2156Y3324D02*
X2163Y3324D01*
X35Y3323D02*
X42Y3323D01*
X2156Y3323D02*
X2164Y3323D01*
X35Y3322D02*
X42Y3322D01*
X2157Y3322D02*
X2164Y3322D01*
X34Y3321D02*
X41Y3321D01*
X2157Y3321D02*
X2164Y3321D01*
X34Y3320D02*
X41Y3320D01*
X2157Y3320D02*
X2164Y3320D01*
X34Y3319D02*
X41Y3319D01*
X2158Y3319D02*
X2165Y3319D01*
X34Y3318D02*
X41Y3318D01*
X2158Y3318D02*
X2165Y3318D01*
X33Y3317D02*
X40Y3317D01*
X2158Y3317D02*
X2165Y3317D01*
X33Y3316D02*
X40Y3316D01*
X2158Y3316D02*
X2165Y3316D01*
X33Y3315D02*
X40Y3315D01*
X2159Y3315D02*
X2166Y3315D01*
X33Y3314D02*
X40Y3314D01*
X2159Y3314D02*
X2166Y3314D01*
X32Y3313D02*
X39Y3313D01*
X2159Y3313D02*
X2166Y3313D01*
X32Y3312D02*
X39Y3312D01*
X2159Y3312D02*
X2166Y3312D01*
X32Y3311D02*
X39Y3311D01*
X2160Y3311D02*
X2167Y3311D01*
X32Y3310D02*
X39Y3310D01*
X2160Y3310D02*
X2167Y3310D01*
X31Y3309D02*
X38Y3309D01*
X2160Y3309D02*
X2167Y3309D01*
X31Y3308D02*
X38Y3308D01*
X2160Y3308D02*
X2167Y3308D01*
X31Y3307D02*
X38Y3307D01*
X2161Y3307D02*
X2168Y3307D01*
X31Y3306D02*
X38Y3306D01*
X2161Y3306D02*
X2168Y3306D01*
X30Y3305D02*
X37Y3305D01*
X2161Y3305D02*
X2168Y3305D01*
X30Y3304D02*
X37Y3304D01*
X2161Y3304D02*
X2168Y3304D01*
X30Y3303D02*
X37Y3303D01*
X2161Y3303D02*
X2169Y3303D01*
X30Y3302D02*
X37Y3302D01*
X2162Y3302D02*
X2169Y3302D01*
X29Y3301D02*
X36Y3301D01*
X2162Y3301D02*
X2169Y3301D01*
X29Y3300D02*
X36Y3300D01*
X2162Y3300D02*
X2169Y3300D01*
X29Y3299D02*
X36Y3299D01*
X2162Y3299D02*
X2169Y3299D01*
X29Y3298D02*
X36Y3298D01*
X2163Y3298D02*
X2170Y3298D01*
X28Y3297D02*
X36Y3297D01*
X2163Y3297D02*
X2170Y3297D01*
X28Y3296D02*
X35Y3296D01*
X2163Y3296D02*
X2170Y3296D01*
X28Y3295D02*
X35Y3295D01*
X2163Y3295D02*
X2170Y3295D01*
X28Y3294D02*
X35Y3294D01*
X2164Y3294D02*
X2171Y3294D01*
X28Y3293D02*
X35Y3293D01*
X2164Y3293D02*
X2171Y3293D01*
X27Y3292D02*
X34Y3292D01*
X2164Y3292D02*
X2171Y3292D01*
X27Y3291D02*
X34Y3291D01*
X2164Y3291D02*
X2171Y3291D01*
X27Y3290D02*
X34Y3290D01*
X2164Y3290D02*
X2172Y3290D01*
X27Y3289D02*
X34Y3289D01*
X2165Y3289D02*
X2172Y3289D01*
X26Y3288D02*
X33Y3288D01*
X2165Y3288D02*
X2172Y3288D01*
X26Y3287D02*
X33Y3287D01*
X2165Y3287D02*
X2172Y3287D01*
X26Y3286D02*
X33Y3286D01*
X2165Y3286D02*
X2172Y3286D01*
X26Y3285D02*
X33Y3285D01*
X2166Y3285D02*
X2173Y3285D01*
X26Y3284D02*
X33Y3284D01*
X2166Y3284D02*
X2173Y3284D01*
X25Y3283D02*
X32Y3283D01*
X2166Y3283D02*
X2173Y3283D01*
X25Y3282D02*
X32Y3282D01*
X2166Y3282D02*
X2173Y3282D01*
X25Y3281D02*
X32Y3281D01*
X2166Y3281D02*
X2174Y3281D01*
X25Y3280D02*
X32Y3280D01*
X2167Y3280D02*
X2174Y3280D01*
X24Y3279D02*
X32Y3279D01*
X2167Y3279D02*
X2174Y3279D01*
X24Y3278D02*
X31Y3278D01*
X2167Y3278D02*
X2174Y3278D01*
X24Y3277D02*
X31Y3277D01*
X2167Y3277D02*
X2174Y3277D01*
X24Y3276D02*
X31Y3276D01*
X2168Y3276D02*
X2175Y3276D01*
X24Y3275D02*
X31Y3275D01*
X2168Y3275D02*
X2175Y3275D01*
X23Y3274D02*
X30Y3274D01*
X2168Y3274D02*
X2175Y3274D01*
X23Y3273D02*
X30Y3273D01*
X2168Y3273D02*
X2175Y3273D01*
X23Y3272D02*
X30Y3272D01*
X2168Y3272D02*
X2175Y3272D01*
X23Y3271D02*
X30Y3271D01*
X2169Y3271D02*
X2176Y3271D01*
X23Y3270D02*
X30Y3270D01*
X2169Y3270D02*
X2176Y3270D01*
X22Y3269D02*
X29Y3269D01*
X2169Y3269D02*
X2176Y3269D01*
X22Y3268D02*
X29Y3268D01*
X2169Y3268D02*
X2176Y3268D01*
X22Y3267D02*
X29Y3267D01*
X2169Y3267D02*
X2176Y3267D01*
X22Y3266D02*
X29Y3266D01*
X2170Y3266D02*
X2177Y3266D01*
X22Y3265D02*
X29Y3265D01*
X2170Y3265D02*
X2177Y3265D01*
X21Y3264D02*
X28Y3264D01*
X2170Y3264D02*
X2177Y3264D01*
X21Y3263D02*
X28Y3263D01*
X2170Y3263D02*
X2177Y3263D01*
X21Y3262D02*
X28Y3262D01*
X2170Y3262D02*
X2177Y3262D01*
X21Y3261D02*
X28Y3261D01*
X2171Y3261D02*
X2178Y3261D01*
X21Y3260D02*
X28Y3260D01*
X2171Y3260D02*
X2178Y3260D01*
X20Y3259D02*
X27Y3259D01*
X2171Y3259D02*
X2178Y3259D01*
X20Y3258D02*
X27Y3258D01*
X2171Y3258D02*
X2178Y3258D01*
X20Y3257D02*
X27Y3257D01*
X2171Y3257D02*
X2178Y3257D01*
X20Y3256D02*
X27Y3256D01*
X2172Y3256D02*
X2179Y3256D01*
X20Y3255D02*
X27Y3255D01*
X2172Y3255D02*
X2179Y3255D01*
X19Y3254D02*
X26Y3254D01*
X2172Y3254D02*
X2179Y3254D01*
X19Y3253D02*
X26Y3253D01*
X2172Y3253D02*
X2179Y3253D01*
X19Y3252D02*
X26Y3252D01*
X2172Y3252D02*
X2179Y3252D01*
X19Y3251D02*
X26Y3251D01*
X2173Y3251D02*
X2180Y3251D01*
X19Y3250D02*
X26Y3250D01*
X2173Y3250D02*
X2180Y3250D01*
X18Y3249D02*
X25Y3249D01*
X2173Y3249D02*
X2180Y3249D01*
X18Y3248D02*
X25Y3248D01*
X2173Y3248D02*
X2180Y3248D01*
X18Y3247D02*
X25Y3247D01*
X2173Y3247D02*
X2180Y3247D01*
X18Y3246D02*
X25Y3246D01*
X2173Y3246D02*
X2179Y3246D01*
X18Y3245D02*
X25Y3245D01*
X2174Y3245D02*
X2178Y3245D01*
X18Y3244D02*
X25Y3244D01*
X2174Y3244D02*
X2178Y3244D01*
X17Y3243D02*
X24Y3243D01*
X2174Y3243D02*
X2177Y3243D01*
X17Y3242D02*
X24Y3242D01*
X2174Y3242D02*
X2176Y3242D01*
X17Y3241D02*
X24Y3241D01*
X2174Y3241D02*
X2176Y3241D01*
X17Y3240D02*
X24Y3240D01*
X2175Y3240D02*
X2175Y3240D01*
X17Y3239D02*
X24Y3239D01*
X2175Y3239D02*
X2175Y3239D01*
X16Y3238D02*
X23Y3238D01*
X16Y3237D02*
X23Y3237D01*
X16Y3236D02*
X23Y3236D01*
X16Y3235D02*
X23Y3235D01*
X16Y3234D02*
X23Y3234D01*
X16Y3233D02*
X23Y3233D01*
X15Y3232D02*
X22Y3232D01*
X15Y3231D02*
X22Y3231D01*
X15Y3230D02*
X22Y3230D01*
X15Y3229D02*
X22Y3229D01*
X15Y3228D02*
X22Y3228D01*
X15Y3227D02*
X22Y3227D01*
X14Y3226D02*
X21Y3226D01*
X14Y3225D02*
X21Y3225D01*
X14Y3224D02*
X21Y3224D01*
X14Y3223D02*
X21Y3223D01*
X14Y3222D02*
X21Y3222D01*
X14Y3221D02*
X21Y3221D01*
X13Y3220D02*
X21Y3220D01*
X13Y3219D02*
X20Y3219D01*
X13Y3218D02*
X20Y3218D01*
X13Y3217D02*
X20Y3217D01*
X13Y3216D02*
X20Y3216D01*
X13Y3215D02*
X20Y3215D01*
X13Y3214D02*
X20Y3214D01*
X12Y3213D02*
X19Y3213D01*
X12Y3212D02*
X19Y3212D01*
X12Y3211D02*
X19Y3211D01*
X12Y3210D02*
X19Y3210D01*
X12Y3209D02*
X19Y3209D01*
X12Y3208D02*
X19Y3208D01*
X12Y3207D02*
X19Y3207D01*
X11Y3206D02*
X18Y3206D01*
X11Y3205D02*
X18Y3205D01*
X11Y3204D02*
X18Y3204D01*
X11Y3203D02*
X18Y3203D01*
X11Y3202D02*
X18Y3202D01*
X11Y3201D02*
X18Y3201D01*
X11Y3200D02*
X18Y3200D01*
X10Y3199D02*
X17Y3199D01*
X10Y3198D02*
X17Y3198D01*
X10Y3197D02*
X17Y3197D01*
X10Y3196D02*
X17Y3196D01*
X10Y3195D02*
X17Y3195D01*
X10Y3194D02*
X17Y3194D01*
X2182Y3194D02*
X2182Y3194D01*
X10Y3193D02*
X17Y3193D01*
X2182Y3193D02*
X2183Y3193D01*
X9Y3192D02*
X16Y3192D01*
X2182Y3192D02*
X2184Y3192D01*
X9Y3191D02*
X16Y3191D01*
X2182Y3191D02*
X2185Y3191D01*
X9Y3190D02*
X16Y3190D01*
X2182Y3190D02*
X2186Y3190D01*
X9Y3189D02*
X16Y3189D01*
X2182Y3189D02*
X2187Y3189D01*
X9Y3188D02*
X16Y3188D01*
X2183Y3188D02*
X2188Y3188D01*
X9Y3187D02*
X16Y3187D01*
X2183Y3187D02*
X2190Y3187D01*
X9Y3186D02*
X16Y3186D01*
X2183Y3186D02*
X2190Y3186D01*
X9Y3185D02*
X16Y3185D01*
X2183Y3185D02*
X2190Y3185D01*
X8Y3184D02*
X15Y3184D01*
X2183Y3184D02*
X2190Y3184D01*
X8Y3183D02*
X15Y3183D01*
X2183Y3183D02*
X2190Y3183D01*
X8Y3182D02*
X15Y3182D01*
X2183Y3182D02*
X2190Y3182D01*
X8Y3181D02*
X15Y3181D01*
X2183Y3181D02*
X2190Y3181D01*
X8Y3180D02*
X15Y3180D01*
X2183Y3180D02*
X2191Y3180D01*
X8Y3179D02*
X15Y3179D01*
X2184Y3179D02*
X2191Y3179D01*
X8Y3178D02*
X15Y3178D01*
X2184Y3178D02*
X2191Y3178D01*
X8Y3177D02*
X15Y3177D01*
X2184Y3177D02*
X2191Y3177D01*
X7Y3176D02*
X14Y3176D01*
X2184Y3176D02*
X2191Y3176D01*
X7Y3175D02*
X14Y3175D01*
X2184Y3175D02*
X2191Y3175D01*
X7Y3174D02*
X14Y3174D01*
X2184Y3174D02*
X2191Y3174D01*
X7Y3173D02*
X14Y3173D01*
X2184Y3173D02*
X2191Y3173D01*
X7Y3172D02*
X14Y3172D01*
X2184Y3172D02*
X2191Y3172D01*
X7Y3171D02*
X14Y3171D01*
X2185Y3171D02*
X2192Y3171D01*
X7Y3170D02*
X14Y3170D01*
X2185Y3170D02*
X2192Y3170D01*
X7Y3169D02*
X14Y3169D01*
X2185Y3169D02*
X2192Y3169D01*
X7Y3168D02*
X14Y3168D01*
X2185Y3168D02*
X2192Y3168D01*
X6Y3167D02*
X13Y3167D01*
X2185Y3167D02*
X2192Y3167D01*
X6Y3166D02*
X13Y3166D01*
X2185Y3166D02*
X2192Y3166D01*
X6Y3165D02*
X13Y3165D01*
X2185Y3165D02*
X2192Y3165D01*
X6Y3164D02*
X13Y3164D01*
X2185Y3164D02*
X2192Y3164D01*
X6Y3163D02*
X13Y3163D01*
X2185Y3163D02*
X2192Y3163D01*
X6Y3162D02*
X13Y3162D01*
X2186Y3162D02*
X2193Y3162D01*
X6Y3161D02*
X13Y3161D01*
X2186Y3161D02*
X2193Y3161D01*
X6Y3160D02*
X13Y3160D01*
X2186Y3160D02*
X2193Y3160D01*
X6Y3159D02*
X13Y3159D01*
X2186Y3159D02*
X2193Y3159D01*
X5Y3158D02*
X12Y3158D01*
X2186Y3158D02*
X2192Y3158D01*
X5Y3157D02*
X12Y3157D01*
X2186Y3157D02*
X2191Y3157D01*
X5Y3156D02*
X12Y3156D01*
X2186Y3156D02*
X2189Y3156D01*
X5Y3155D02*
X12Y3155D01*
X2186Y3155D02*
X2188Y3155D01*
X5Y3154D02*
X12Y3154D01*
X2186Y3154D02*
X2187Y3154D01*
X5Y3153D02*
X12Y3153D01*
X2186Y3153D02*
X2186Y3153D01*
X5Y3152D02*
X12Y3152D01*
X5Y3151D02*
X12Y3151D01*
X5Y3150D02*
X12Y3150D01*
X5Y3149D02*
X12Y3149D01*
X5Y3148D02*
X12Y3148D01*
X4Y3147D02*
X11Y3147D01*
X4Y3146D02*
X11Y3146D01*
X4Y3145D02*
X11Y3145D01*
X4Y3144D02*
X11Y3144D01*
X4Y3143D02*
X11Y3143D01*
X4Y3142D02*
X11Y3142D01*
X4Y3141D02*
X11Y3141D01*
X4Y3140D02*
X11Y3140D01*
X4Y3139D02*
X11Y3139D01*
X4Y3138D02*
X11Y3138D01*
X4Y3137D02*
X11Y3137D01*
X4Y3136D02*
X11Y3136D01*
X3Y3135D02*
X10Y3135D01*
X3Y3134D02*
X10Y3134D01*
X3Y3133D02*
X10Y3133D01*
X3Y3132D02*
X10Y3132D01*
X3Y3131D02*
X10Y3131D01*
X3Y3130D02*
X10Y3130D01*
X3Y3129D02*
X10Y3129D01*
X3Y3128D02*
X10Y3128D01*
X3Y3127D02*
X10Y3127D01*
X3Y3126D02*
X10Y3126D01*
X3Y3125D02*
X10Y3125D01*
X3Y3124D02*
X10Y3124D01*
X3Y3123D02*
X10Y3123D01*
X2Y3122D02*
X9Y3122D01*
X2Y3121D02*
X9Y3121D01*
X2Y3120D02*
X9Y3120D01*
X2Y3119D02*
X9Y3119D01*
X2Y3118D02*
X9Y3118D01*
X2Y3117D02*
X9Y3117D01*
X2Y3116D02*
X9Y3116D01*
X2Y3115D02*
X9Y3115D01*
X2Y3114D02*
X9Y3114D01*
X2Y3113D02*
X9Y3113D01*
X2Y3112D02*
X9Y3112D01*
X2Y3111D02*
X9Y3111D01*
X2Y3110D02*
X9Y3110D01*
X2Y3109D02*
X9Y3109D01*
X2Y3108D02*
X9Y3108D01*
X2Y3107D02*
X9Y3107D01*
X2Y3106D02*
X9Y3106D01*
X1Y3105D02*
X8Y3105D01*
X1Y3104D02*
X8Y3104D01*
X1Y3103D02*
X8Y3103D01*
X1Y3102D02*
X8Y3102D01*
X1Y3101D02*
X8Y3101D01*
X1Y3100D02*
X8Y3100D01*
X1Y3099D02*
X8Y3099D01*
X1Y3098D02*
X8Y3098D01*
X1Y3097D02*
X8Y3097D01*
X1Y3096D02*
X8Y3096D01*
X1Y3095D02*
X8Y3095D01*
X1Y3094D02*
X8Y3094D01*
X1Y3093D02*
X8Y3093D01*
X1Y3092D02*
X8Y3092D01*
X1Y3091D02*
X8Y3091D01*
X1Y3090D02*
X8Y3090D01*
X1Y3089D02*
X8Y3089D01*
X1Y3088D02*
X8Y3088D01*
X1Y3087D02*
X8Y3087D01*
X1Y3086D02*
X8Y3086D01*
X2191Y3086D02*
X2191Y3086D01*
X1Y3085D02*
X8Y3085D01*
X2191Y3085D02*
X2193Y3085D01*
X1Y3084D02*
X8Y3084D01*
X2191Y3084D02*
X2195Y3084D01*
X1Y3083D02*
X8Y3083D01*
X2191Y3083D02*
X2197Y3083D01*
X1Y3082D02*
X8Y3082D01*
X2191Y3082D02*
X2198Y3082D01*
X1Y3081D02*
X8Y3081D01*
X2191Y3081D02*
X2198Y3081D01*
X0Y3080D02*
X7Y3080D01*
X2191Y3080D02*
X2198Y3080D01*
X0Y3079D02*
X7Y3079D01*
X2191Y3079D02*
X2198Y3079D01*
X0Y3078D02*
X7Y3078D01*
X2191Y3078D02*
X2198Y3078D01*
X0Y3077D02*
X7Y3077D01*
X2191Y3077D02*
X2198Y3077D01*
X0Y3076D02*
X7Y3076D01*
X2191Y3076D02*
X2198Y3076D01*
X0Y3075D02*
X7Y3075D01*
X2191Y3075D02*
X2198Y3075D01*
X0Y3074D02*
X7Y3074D01*
X2191Y3074D02*
X2198Y3074D01*
X0Y3073D02*
X7Y3073D01*
X2191Y3073D02*
X2198Y3073D01*
X0Y3072D02*
X7Y3072D01*
X2191Y3072D02*
X2198Y3072D01*
X0Y3071D02*
X7Y3071D01*
X2191Y3071D02*
X2198Y3071D01*
X0Y3070D02*
X7Y3070D01*
X2191Y3070D02*
X2198Y3070D01*
X0Y3069D02*
X7Y3069D01*
X2191Y3069D02*
X2198Y3069D01*
X0Y3068D02*
X7Y3068D01*
X2191Y3068D02*
X2198Y3068D01*
X0Y3067D02*
X7Y3067D01*
X2191Y3067D02*
X2198Y3067D01*
X0Y3066D02*
X7Y3066D01*
X2191Y3066D02*
X2198Y3066D01*
X0Y3065D02*
X7Y3065D01*
X2191Y3065D02*
X2198Y3065D01*
X0Y3064D02*
X7Y3064D01*
X2191Y3064D02*
X2198Y3064D01*
X0Y3063D02*
X7Y3063D01*
X2191Y3063D02*
X2198Y3063D01*
X0Y3062D02*
X7Y3062D01*
X2191Y3062D02*
X2198Y3062D01*
X0Y3061D02*
X7Y3061D01*
X2191Y3061D02*
X2198Y3061D01*
X0Y3060D02*
X7Y3060D01*
X2191Y3060D02*
X2196Y3060D01*
X0Y3059D02*
X7Y3059D01*
X2191Y3059D02*
X2194Y3059D01*
X0Y3058D02*
X7Y3058D01*
X2191Y3058D02*
X2192Y3058D01*
X0Y3057D02*
X7Y3057D01*
X2191Y3057D02*
X2191Y3057D01*
X0Y3056D02*
X7Y3056D01*
X0Y3055D02*
X7Y3055D01*
X0Y3054D02*
X7Y3054D01*
X0Y3053D02*
X7Y3053D01*
X0Y3052D02*
X7Y3052D01*
X0Y3051D02*
X7Y3051D01*
X0Y3050D02*
X7Y3050D01*
X0Y3049D02*
X7Y3049D01*
X0Y3048D02*
X7Y3048D01*
X0Y3047D02*
X7Y3047D01*
X0Y3046D02*
X7Y3046D01*
X0Y3045D02*
X7Y3045D01*
X0Y3044D02*
X7Y3044D01*
X0Y3043D02*
X7Y3043D01*
X0Y3042D02*
X7Y3042D01*
X0Y3041D02*
X7Y3041D01*
X0Y3040D02*
X7Y3040D01*
X0Y3039D02*
X7Y3039D01*
X0Y3038D02*
X7Y3038D01*
X0Y3037D02*
X7Y3037D01*
X0Y3036D02*
X7Y3036D01*
X0Y3035D02*
X7Y3035D01*
X0Y3034D02*
X7Y3034D01*
X0Y3033D02*
X7Y3033D01*
X0Y3032D02*
X7Y3032D01*
X0Y3031D02*
X7Y3031D01*
X0Y3030D02*
X7Y3030D01*
X0Y3029D02*
X7Y3029D01*
X0Y3028D02*
X7Y3028D01*
X0Y3027D02*
X7Y3027D01*
X0Y3026D02*
X7Y3026D01*
X0Y3025D02*
X7Y3025D01*
X0Y3024D02*
X7Y3024D01*
X0Y3023D02*
X7Y3023D01*
X0Y3022D02*
X7Y3022D01*
X0Y3021D02*
X7Y3021D01*
X0Y3020D02*
X7Y3020D01*
X0Y3019D02*
X7Y3019D01*
X0Y3018D02*
X7Y3018D01*
X0Y3017D02*
X7Y3017D01*
X0Y3016D02*
X7Y3016D01*
X0Y3015D02*
X7Y3015D01*
X1Y3014D02*
X8Y3014D01*
X1Y3013D02*
X8Y3013D01*
X1Y3012D02*
X8Y3012D01*
X1Y3011D02*
X8Y3011D01*
X1Y3010D02*
X8Y3010D01*
X1Y3009D02*
X8Y3009D01*
X1Y3008D02*
X8Y3008D01*
X1Y3007D02*
X8Y3007D01*
X1Y3006D02*
X8Y3006D01*
X1Y3005D02*
X8Y3005D01*
X1Y3004D02*
X8Y3004D01*
X1Y3003D02*
X8Y3003D01*
X1Y3002D02*
X8Y3002D01*
X1Y3001D02*
X8Y3001D01*
X1Y3000D02*
X8Y3000D01*
X1Y2999D02*
X8Y2999D01*
X1Y2998D02*
X8Y2998D01*
X1Y2997D02*
X8Y2997D01*
X1Y2996D02*
X8Y2996D01*
X1Y2995D02*
X8Y2995D01*
X1Y2994D02*
X8Y2994D01*
X1Y2993D02*
X8Y2993D01*
X1Y2992D02*
X8Y2992D01*
X1Y2991D02*
X8Y2991D01*
X1Y2990D02*
X8Y2990D01*
X2Y2989D02*
X9Y2989D01*
X2Y2988D02*
X9Y2988D01*
X2Y2987D02*
X9Y2987D01*
X2190Y2987D02*
X2190Y2987D01*
X2Y2986D02*
X9Y2986D01*
X2190Y2986D02*
X2191Y2986D01*
X2Y2985D02*
X9Y2985D01*
X2190Y2985D02*
X2193Y2985D01*
X2Y2984D02*
X9Y2984D01*
X2190Y2984D02*
X2195Y2984D01*
X2Y2983D02*
X9Y2983D01*
X2190Y2983D02*
X2197Y2983D01*
X2Y2982D02*
X9Y2982D01*
X2189Y2982D02*
X2197Y2982D01*
X2Y2981D02*
X9Y2981D01*
X2189Y2981D02*
X2196Y2981D01*
X2Y2980D02*
X9Y2980D01*
X2189Y2980D02*
X2196Y2980D01*
X2Y2979D02*
X9Y2979D01*
X2189Y2979D02*
X2196Y2979D01*
X2Y2978D02*
X9Y2978D01*
X2189Y2978D02*
X2196Y2978D01*
X2Y2977D02*
X9Y2977D01*
X2189Y2977D02*
X2196Y2977D01*
X2Y2976D02*
X9Y2976D01*
X2189Y2976D02*
X2196Y2976D01*
X2Y2975D02*
X9Y2975D01*
X2189Y2975D02*
X2196Y2975D01*
X2Y2974D02*
X9Y2974D01*
X2189Y2974D02*
X2196Y2974D01*
X2Y2973D02*
X9Y2973D01*
X2189Y2973D02*
X2196Y2973D01*
X3Y2972D02*
X10Y2972D01*
X2189Y2972D02*
X2196Y2972D01*
X3Y2971D02*
X10Y2971D01*
X2189Y2971D02*
X2196Y2971D01*
X3Y2970D02*
X10Y2970D01*
X2189Y2970D02*
X2196Y2970D01*
X3Y2969D02*
X10Y2969D01*
X2189Y2969D02*
X2196Y2969D01*
X3Y2968D02*
X10Y2968D01*
X2189Y2968D02*
X2196Y2968D01*
X3Y2967D02*
X10Y2967D01*
X2189Y2967D02*
X2196Y2967D01*
X3Y2966D02*
X10Y2966D01*
X2188Y2966D02*
X2195Y2966D01*
X3Y2965D02*
X10Y2965D01*
X2188Y2965D02*
X2195Y2965D01*
X3Y2964D02*
X10Y2964D01*
X2188Y2964D02*
X2195Y2964D01*
X3Y2963D02*
X10Y2963D01*
X2188Y2963D02*
X2195Y2963D01*
X3Y2962D02*
X10Y2962D01*
X2188Y2962D02*
X2195Y2962D01*
X3Y2961D02*
X10Y2961D01*
X2188Y2961D02*
X2195Y2961D01*
X3Y2960D02*
X10Y2960D01*
X2188Y2960D02*
X2195Y2960D01*
X4Y2959D02*
X11Y2959D01*
X2188Y2959D02*
X2194Y2959D01*
X4Y2958D02*
X11Y2958D01*
X2188Y2958D02*
X2192Y2958D01*
X4Y2957D02*
X11Y2957D01*
X2188Y2957D02*
X2191Y2957D01*
X4Y2956D02*
X11Y2956D01*
X2188Y2956D02*
X2189Y2956D01*
X4Y2955D02*
X11Y2955D01*
X2188Y2955D02*
X2188Y2955D01*
X4Y2954D02*
X11Y2954D01*
X2187Y2954D02*
X2187Y2954D01*
X4Y2953D02*
X11Y2953D01*
X4Y2952D02*
X11Y2952D01*
X4Y2951D02*
X11Y2951D01*
X4Y2950D02*
X11Y2950D01*
X4Y2949D02*
X11Y2949D01*
X4Y2948D02*
X11Y2948D01*
X5Y2947D02*
X12Y2947D01*
X5Y2946D02*
X12Y2946D01*
X5Y2945D02*
X12Y2945D01*
X5Y2944D02*
X12Y2944D01*
X5Y2943D02*
X12Y2943D01*
X5Y2942D02*
X12Y2942D01*
X5Y2941D02*
X12Y2941D01*
X5Y2940D02*
X12Y2940D01*
X5Y2939D02*
X12Y2939D01*
X5Y2938D02*
X12Y2938D01*
X5Y2937D02*
X12Y2937D01*
X6Y2936D02*
X13Y2936D01*
X6Y2935D02*
X13Y2935D01*
X6Y2934D02*
X13Y2934D01*
X6Y2933D02*
X13Y2933D01*
X6Y2932D02*
X13Y2932D01*
X6Y2931D02*
X13Y2931D01*
X6Y2930D02*
X13Y2930D01*
X6Y2929D02*
X13Y2929D01*
X6Y2928D02*
X13Y2928D01*
X7Y2927D02*
X14Y2927D01*
X7Y2926D02*
X14Y2926D01*
X7Y2925D02*
X14Y2925D01*
X7Y2924D02*
X14Y2924D01*
X7Y2923D02*
X14Y2923D01*
X7Y2922D02*
X14Y2922D01*
X7Y2921D02*
X14Y2921D01*
X7Y2920D02*
X14Y2920D01*
X7Y2919D02*
X14Y2919D01*
X8Y2918D02*
X15Y2918D01*
X8Y2917D02*
X15Y2917D01*
X8Y2916D02*
X15Y2916D01*
X8Y2915D02*
X15Y2915D01*
X8Y2914D02*
X15Y2914D01*
X8Y2913D02*
X15Y2913D01*
X8Y2912D02*
X15Y2912D01*
X8Y2911D02*
X15Y2911D01*
X9Y2910D02*
X16Y2910D01*
X9Y2909D02*
X16Y2909D01*
X9Y2908D02*
X16Y2908D01*
X9Y2907D02*
X16Y2907D01*
X9Y2906D02*
X16Y2906D01*
X9Y2905D02*
X16Y2905D01*
X9Y2904D02*
X16Y2904D01*
X9Y2903D02*
X16Y2903D01*
X10Y2902D02*
X17Y2902D01*
X10Y2901D02*
X17Y2901D01*
X10Y2900D02*
X17Y2900D01*
X10Y2899D02*
X17Y2899D01*
X10Y2898D02*
X17Y2898D01*
X10Y2897D02*
X17Y2897D01*
X10Y2896D02*
X17Y2896D01*
X11Y2895D02*
X18Y2895D01*
X2181Y2895D02*
X2181Y2895D01*
X11Y2894D02*
X18Y2894D01*
X2181Y2894D02*
X2182Y2894D01*
X11Y2893D02*
X18Y2893D01*
X2181Y2893D02*
X2183Y2893D01*
X11Y2892D02*
X18Y2892D01*
X2180Y2892D02*
X2184Y2892D01*
X11Y2891D02*
X18Y2891D01*
X2180Y2891D02*
X2185Y2891D01*
X11Y2890D02*
X18Y2890D01*
X2180Y2890D02*
X2186Y2890D01*
X11Y2889D02*
X18Y2889D01*
X2180Y2889D02*
X2187Y2889D01*
X12Y2888D02*
X19Y2888D01*
X2180Y2888D02*
X2187Y2888D01*
X12Y2887D02*
X19Y2887D01*
X2180Y2887D02*
X2187Y2887D01*
X12Y2886D02*
X19Y2886D01*
X2180Y2886D02*
X2187Y2886D01*
X12Y2885D02*
X19Y2885D01*
X2179Y2885D02*
X2186Y2885D01*
X12Y2884D02*
X19Y2884D01*
X2179Y2884D02*
X2186Y2884D01*
X12Y2883D02*
X19Y2883D01*
X2179Y2883D02*
X2186Y2883D01*
X12Y2882D02*
X19Y2882D01*
X2179Y2882D02*
X2186Y2882D01*
X13Y2881D02*
X20Y2881D01*
X2179Y2881D02*
X2186Y2881D01*
X13Y2880D02*
X20Y2880D01*
X2179Y2880D02*
X2186Y2880D01*
X13Y2879D02*
X20Y2879D01*
X2179Y2879D02*
X2186Y2879D01*
X13Y2878D02*
X20Y2878D01*
X2178Y2878D02*
X2185Y2878D01*
X13Y2877D02*
X20Y2877D01*
X2178Y2877D02*
X2185Y2877D01*
X13Y2876D02*
X20Y2876D01*
X2178Y2876D02*
X2185Y2876D01*
X13Y2875D02*
X21Y2875D01*
X2178Y2875D02*
X2185Y2875D01*
X14Y2874D02*
X21Y2874D01*
X2178Y2874D02*
X2185Y2874D01*
X14Y2873D02*
X21Y2873D01*
X2178Y2873D02*
X2185Y2873D01*
X14Y2872D02*
X21Y2872D01*
X2177Y2872D02*
X2184Y2872D01*
X14Y2871D02*
X21Y2871D01*
X2177Y2871D02*
X2184Y2871D01*
X14Y2870D02*
X21Y2870D01*
X2177Y2870D02*
X2184Y2870D01*
X14Y2869D02*
X21Y2869D01*
X2177Y2869D02*
X2184Y2869D01*
X15Y2868D02*
X22Y2868D01*
X2177Y2868D02*
X2184Y2868D01*
X15Y2867D02*
X22Y2867D01*
X2177Y2867D02*
X2184Y2867D01*
X15Y2866D02*
X22Y2866D01*
X2176Y2866D02*
X2184Y2866D01*
X15Y2865D02*
X22Y2865D01*
X2176Y2865D02*
X2183Y2865D01*
X15Y2864D02*
X22Y2864D01*
X2176Y2864D02*
X2183Y2864D01*
X15Y2863D02*
X22Y2863D01*
X2176Y2863D02*
X2183Y2863D01*
X16Y2862D02*
X23Y2862D01*
X2176Y2862D02*
X2183Y2862D01*
X16Y2861D02*
X23Y2861D01*
X2176Y2861D02*
X2183Y2861D01*
X16Y2860D02*
X23Y2860D01*
X2175Y2860D02*
X2182Y2860D01*
X16Y2859D02*
X23Y2859D01*
X2175Y2859D02*
X2182Y2859D01*
X16Y2858D02*
X23Y2858D01*
X2175Y2858D02*
X2182Y2858D01*
X16Y2857D02*
X24Y2857D01*
X2175Y2857D02*
X2182Y2857D01*
X17Y2856D02*
X24Y2856D01*
X2175Y2856D02*
X2182Y2856D01*
X17Y2855D02*
X24Y2855D01*
X2175Y2855D02*
X2182Y2855D01*
X17Y2854D02*
X24Y2854D01*
X2174Y2854D02*
X2181Y2854D01*
X17Y2853D02*
X24Y2853D01*
X2174Y2853D02*
X2181Y2853D01*
X17Y2852D02*
X24Y2852D01*
X2174Y2852D02*
X2181Y2852D01*
X18Y2851D02*
X25Y2851D01*
X2174Y2851D02*
X2181Y2851D01*
X18Y2850D02*
X25Y2850D01*
X2174Y2850D02*
X2181Y2850D01*
X18Y2849D02*
X25Y2849D01*
X2173Y2849D02*
X2181Y2849D01*
X18Y2848D02*
X25Y2848D01*
X2173Y2848D02*
X2180Y2848D01*
X18Y2847D02*
X25Y2847D01*
X2173Y2847D02*
X2180Y2847D01*
X18Y2846D02*
X26Y2846D01*
X2173Y2846D02*
X2179Y2846D01*
X19Y2845D02*
X26Y2845D01*
X2173Y2845D02*
X2178Y2845D01*
X19Y2844D02*
X26Y2844D01*
X2173Y2844D02*
X2178Y2844D01*
X19Y2843D02*
X26Y2843D01*
X2172Y2843D02*
X2177Y2843D01*
X19Y2842D02*
X26Y2842D01*
X2172Y2842D02*
X2176Y2842D01*
X19Y2841D02*
X26Y2841D01*
X2172Y2841D02*
X2176Y2841D01*
X20Y2840D02*
X27Y2840D01*
X2172Y2840D02*
X2175Y2840D01*
X20Y2839D02*
X27Y2839D01*
X2172Y2839D02*
X2175Y2839D01*
X20Y2838D02*
X27Y2838D01*
X2171Y2838D02*
X2174Y2838D01*
X20Y2837D02*
X27Y2837D01*
X2171Y2837D02*
X2174Y2837D01*
X20Y2836D02*
X27Y2836D01*
X2171Y2836D02*
X2173Y2836D01*
X21Y2835D02*
X28Y2835D01*
X2171Y2835D02*
X2173Y2835D01*
X21Y2834D02*
X28Y2834D01*
X2171Y2834D02*
X2172Y2834D01*
X21Y2833D02*
X28Y2833D01*
X2170Y2833D02*
X2172Y2833D01*
X21Y2832D02*
X28Y2832D01*
X2170Y2832D02*
X2172Y2832D01*
X21Y2831D02*
X28Y2831D01*
X2170Y2831D02*
X2171Y2831D01*
X22Y2830D02*
X29Y2830D01*
X2170Y2830D02*
X2171Y2830D01*
X22Y2829D02*
X29Y2829D01*
X2170Y2829D02*
X2171Y2829D01*
X22Y2828D02*
X29Y2828D01*
X2169Y2828D02*
X2171Y2828D01*
X22Y2827D02*
X29Y2827D01*
X2169Y2827D02*
X2171Y2827D01*
X22Y2826D02*
X29Y2826D01*
X2169Y2826D02*
X2170Y2826D01*
X23Y2825D02*
X30Y2825D01*
X2169Y2825D02*
X2170Y2825D01*
X23Y2824D02*
X30Y2824D01*
X2169Y2824D02*
X2170Y2824D01*
X23Y2823D02*
X30Y2823D01*
X2168Y2823D02*
X2170Y2823D01*
X23Y2822D02*
X30Y2822D01*
X2168Y2822D02*
X2170Y2822D01*
X23Y2821D02*
X30Y2821D01*
X2168Y2821D02*
X2170Y2821D01*
X24Y2820D02*
X31Y2820D01*
X2168Y2820D02*
X2170Y2820D01*
X24Y2819D02*
X31Y2819D01*
X2168Y2819D02*
X2170Y2819D01*
X24Y2818D02*
X31Y2818D01*
X2167Y2818D02*
X2170Y2818D01*
X24Y2817D02*
X31Y2817D01*
X2167Y2817D02*
X2171Y2817D01*
X24Y2816D02*
X32Y2816D01*
X2167Y2816D02*
X2171Y2816D01*
X25Y2815D02*
X32Y2815D01*
X2167Y2815D02*
X2171Y2815D01*
X25Y2814D02*
X32Y2814D01*
X2166Y2814D02*
X2171Y2814D01*
X25Y2813D02*
X32Y2813D01*
X2166Y2813D02*
X2171Y2813D01*
X25Y2812D02*
X32Y2812D01*
X2166Y2812D02*
X2172Y2812D01*
X26Y2811D02*
X33Y2811D01*
X2166Y2811D02*
X2172Y2811D01*
X26Y2810D02*
X33Y2810D01*
X2166Y2810D02*
X2172Y2810D01*
X26Y2809D02*
X33Y2809D01*
X2165Y2809D02*
X2172Y2809D01*
X26Y2808D02*
X33Y2808D01*
X2165Y2808D02*
X2172Y2808D01*
X26Y2807D02*
X33Y2807D01*
X2165Y2807D02*
X2172Y2807D01*
X27Y2806D02*
X34Y2806D01*
X2165Y2806D02*
X2172Y2806D01*
X27Y2805D02*
X34Y2805D01*
X2164Y2805D02*
X2172Y2805D01*
X27Y2804D02*
X34Y2804D01*
X2164Y2804D02*
X2171Y2804D01*
X27Y2803D02*
X34Y2803D01*
X2164Y2803D02*
X2171Y2803D01*
X28Y2802D02*
X35Y2802D01*
X2164Y2802D02*
X2171Y2802D01*
X28Y2801D02*
X35Y2801D01*
X2164Y2801D02*
X2171Y2801D01*
X28Y2800D02*
X35Y2800D01*
X2163Y2800D02*
X2170Y2800D01*
X28Y2799D02*
X35Y2799D01*
X2163Y2799D02*
X2170Y2799D01*
X28Y2798D02*
X36Y2798D01*
X2163Y2798D02*
X2170Y2798D01*
X29Y2797D02*
X36Y2797D01*
X2163Y2797D02*
X2170Y2797D01*
X29Y2796D02*
X36Y2796D01*
X2162Y2796D02*
X2169Y2796D01*
X29Y2795D02*
X36Y2795D01*
X2162Y2795D02*
X2169Y2795D01*
X29Y2794D02*
X36Y2794D01*
X2162Y2794D02*
X2169Y2794D01*
X30Y2793D02*
X37Y2793D01*
X2162Y2793D02*
X2169Y2793D01*
X30Y2792D02*
X37Y2792D01*
X2161Y2792D02*
X2169Y2792D01*
X30Y2791D02*
X37Y2791D01*
X2161Y2791D02*
X2168Y2791D01*
X30Y2790D02*
X37Y2790D01*
X2161Y2790D02*
X2168Y2790D01*
X31Y2789D02*
X38Y2789D01*
X2161Y2789D02*
X2168Y2789D01*
X31Y2788D02*
X38Y2788D01*
X2160Y2788D02*
X2168Y2788D01*
X31Y2787D02*
X38Y2787D01*
X2160Y2787D02*
X2167Y2787D01*
X31Y2786D02*
X38Y2786D01*
X2160Y2786D02*
X2167Y2786D01*
X32Y2785D02*
X39Y2785D01*
X2160Y2785D02*
X2167Y2785D01*
X32Y2784D02*
X39Y2784D01*
X2159Y2784D02*
X2167Y2784D01*
X32Y2783D02*
X39Y2783D01*
X2159Y2783D02*
X2166Y2783D01*
X32Y2782D02*
X39Y2782D01*
X2159Y2782D02*
X2166Y2782D01*
X33Y2781D02*
X40Y2781D01*
X2159Y2781D02*
X2166Y2781D01*
X33Y2780D02*
X40Y2780D01*
X2158Y2780D02*
X2166Y2780D01*
X33Y2779D02*
X40Y2779D01*
X2158Y2779D02*
X2165Y2779D01*
X33Y2778D02*
X40Y2778D01*
X2158Y2778D02*
X2165Y2778D01*
X34Y2777D02*
X41Y2777D01*
X2158Y2777D02*
X2165Y2777D01*
X34Y2776D02*
X41Y2776D01*
X2157Y2776D02*
X2165Y2776D01*
X34Y2775D02*
X41Y2775D01*
X2157Y2775D02*
X2164Y2775D01*
X34Y2774D02*
X41Y2774D01*
X2157Y2774D02*
X2164Y2774D01*
X35Y2773D02*
X42Y2773D01*
X2157Y2773D02*
X2164Y2773D01*
X35Y2772D02*
X42Y2772D01*
X2156Y2772D02*
X2164Y2772D01*
X35Y2771D02*
X42Y2771D01*
X2156Y2771D02*
X2163Y2771D01*
X35Y2770D02*
X42Y2770D01*
X2156Y2770D02*
X2163Y2770D01*
X36Y2769D02*
X43Y2769D01*
X2156Y2769D02*
X2163Y2769D01*
X36Y2768D02*
X43Y2768D01*
X2155Y2768D02*
X2163Y2768D01*
X36Y2767D02*
X43Y2767D01*
X2155Y2767D02*
X2162Y2767D01*
X36Y2766D02*
X44Y2766D01*
X2155Y2766D02*
X2162Y2766D01*
X37Y2765D02*
X44Y2765D01*
X2155Y2765D02*
X2162Y2765D01*
X37Y2764D02*
X44Y2764D01*
X2154Y2764D02*
X2161Y2764D01*
X37Y2763D02*
X44Y2763D01*
X2154Y2763D02*
X2161Y2763D01*
X37Y2762D02*
X45Y2762D01*
X2154Y2762D02*
X2161Y2762D01*
X38Y2761D02*
X45Y2761D01*
X2154Y2761D02*
X2161Y2761D01*
X38Y2760D02*
X45Y2760D01*
X2153Y2760D02*
X2160Y2760D01*
X38Y2759D02*
X45Y2759D01*
X2153Y2759D02*
X2160Y2759D01*
X39Y2758D02*
X46Y2758D01*
X2153Y2758D02*
X2160Y2758D01*
X39Y2757D02*
X46Y2757D01*
X2152Y2757D02*
X2160Y2757D01*
X39Y2756D02*
X46Y2756D01*
X2152Y2756D02*
X2159Y2756D01*
X39Y2755D02*
X47Y2755D01*
X2152Y2755D02*
X2159Y2755D01*
X40Y2754D02*
X47Y2754D01*
X2152Y2754D02*
X2159Y2754D01*
X40Y2753D02*
X47Y2753D01*
X2151Y2753D02*
X2158Y2753D01*
X40Y2752D02*
X47Y2752D01*
X2151Y2752D02*
X2158Y2752D01*
X41Y2751D02*
X48Y2751D01*
X2151Y2751D02*
X2158Y2751D01*
X41Y2750D02*
X48Y2750D01*
X2151Y2750D02*
X2158Y2750D01*
X41Y2749D02*
X48Y2749D01*
X2150Y2749D02*
X2157Y2749D01*
X41Y2748D02*
X48Y2748D01*
X2150Y2748D02*
X2157Y2748D01*
X42Y2747D02*
X49Y2747D01*
X2150Y2747D02*
X2157Y2747D01*
X42Y2746D02*
X49Y2746D01*
X2149Y2746D02*
X2157Y2746D01*
X42Y2745D02*
X49Y2745D01*
X2149Y2745D02*
X2156Y2745D01*
X42Y2744D02*
X50Y2744D01*
X2149Y2744D02*
X2156Y2744D01*
X43Y2743D02*
X50Y2743D01*
X2149Y2743D02*
X2156Y2743D01*
X43Y2742D02*
X50Y2742D01*
X2148Y2742D02*
X2155Y2742D01*
X43Y2741D02*
X50Y2741D01*
X2148Y2741D02*
X2155Y2741D01*
X44Y2740D02*
X51Y2740D01*
X2148Y2740D02*
X2155Y2740D01*
X44Y2739D02*
X51Y2739D01*
X2147Y2739D02*
X2154Y2739D01*
X44Y2738D02*
X51Y2738D01*
X2147Y2738D02*
X2154Y2738D01*
X45Y2737D02*
X52Y2737D01*
X2147Y2737D02*
X2154Y2737D01*
X45Y2736D02*
X52Y2736D01*
X2146Y2736D02*
X2154Y2736D01*
X45Y2735D02*
X52Y2735D01*
X2146Y2735D02*
X2153Y2735D01*
X45Y2734D02*
X53Y2734D01*
X2146Y2734D02*
X2153Y2734D01*
X46Y2733D02*
X53Y2733D01*
X2146Y2733D02*
X2153Y2733D01*
X46Y2732D02*
X53Y2732D01*
X2145Y2732D02*
X2152Y2732D01*
X46Y2731D02*
X53Y2731D01*
X2145Y2731D02*
X2152Y2731D01*
X47Y2730D02*
X54Y2730D01*
X2145Y2730D02*
X2152Y2730D01*
X47Y2729D02*
X54Y2729D01*
X2144Y2729D02*
X2152Y2729D01*
X47Y2728D02*
X54Y2728D01*
X2144Y2728D02*
X2151Y2728D01*
X48Y2727D02*
X55Y2727D01*
X2144Y2727D02*
X2151Y2727D01*
X48Y2726D02*
X55Y2726D01*
X2143Y2726D02*
X2151Y2726D01*
X48Y2725D02*
X55Y2725D01*
X2143Y2725D02*
X2150Y2725D01*
X48Y2724D02*
X56Y2724D01*
X2143Y2724D02*
X2150Y2724D01*
X49Y2723D02*
X56Y2723D01*
X2143Y2723D02*
X2150Y2723D01*
X49Y2722D02*
X56Y2722D01*
X2142Y2722D02*
X2149Y2722D01*
X49Y2721D02*
X57Y2721D01*
X2142Y2721D02*
X2149Y2721D01*
X50Y2720D02*
X57Y2720D01*
X2142Y2720D02*
X2149Y2720D01*
X50Y2719D02*
X57Y2719D01*
X2141Y2719D02*
X2148Y2719D01*
X50Y2718D02*
X57Y2718D01*
X2141Y2718D02*
X2148Y2718D01*
X51Y2717D02*
X58Y2717D01*
X2141Y2717D02*
X2148Y2717D01*
X51Y2716D02*
X58Y2716D01*
X2140Y2716D02*
X2147Y2716D01*
X51Y2715D02*
X58Y2715D01*
X2140Y2715D02*
X2147Y2715D01*
X52Y2714D02*
X59Y2714D01*
X2140Y2714D02*
X2147Y2714D01*
X52Y2713D02*
X59Y2713D01*
X2139Y2713D02*
X2147Y2713D01*
X52Y2712D02*
X59Y2712D01*
X2139Y2712D02*
X2146Y2712D01*
X53Y2711D02*
X60Y2711D01*
X2139Y2711D02*
X2146Y2711D01*
X53Y2710D02*
X60Y2710D01*
X2138Y2710D02*
X2146Y2710D01*
X53Y2709D02*
X60Y2709D01*
X2138Y2709D02*
X2145Y2709D01*
X53Y2708D02*
X61Y2708D01*
X2138Y2708D02*
X2145Y2708D01*
X54Y2707D02*
X61Y2707D01*
X2137Y2707D02*
X2145Y2707D01*
X54Y2706D02*
X61Y2706D01*
X2137Y2706D02*
X2144Y2706D01*
X54Y2705D02*
X62Y2705D01*
X2137Y2705D02*
X2144Y2705D01*
X55Y2704D02*
X62Y2704D01*
X2136Y2704D02*
X2144Y2704D01*
X55Y2703D02*
X62Y2703D01*
X2136Y2703D02*
X2143Y2703D01*
X55Y2702D02*
X63Y2702D01*
X2136Y2702D02*
X2143Y2702D01*
X56Y2701D02*
X63Y2701D01*
X2135Y2701D02*
X2143Y2701D01*
X56Y2700D02*
X63Y2700D01*
X2135Y2700D02*
X2142Y2700D01*
X56Y2699D02*
X64Y2699D01*
X2135Y2699D02*
X2142Y2699D01*
X57Y2698D02*
X64Y2698D01*
X2134Y2698D02*
X2142Y2698D01*
X57Y2697D02*
X64Y2697D01*
X2134Y2697D02*
X2141Y2697D01*
X57Y2696D02*
X65Y2696D01*
X2134Y2696D02*
X2141Y2696D01*
X58Y2695D02*
X65Y2695D01*
X2133Y2695D02*
X2141Y2695D01*
X58Y2694D02*
X65Y2694D01*
X2133Y2694D02*
X2140Y2694D01*
X58Y2693D02*
X66Y2693D01*
X2133Y2693D02*
X2140Y2693D01*
X59Y2692D02*
X66Y2692D01*
X2132Y2692D02*
X2140Y2692D01*
X59Y2691D02*
X66Y2691D01*
X2132Y2691D02*
X2139Y2691D01*
X60Y2690D02*
X67Y2690D01*
X2132Y2690D02*
X2139Y2690D01*
X60Y2689D02*
X67Y2689D01*
X2131Y2689D02*
X2139Y2689D01*
X60Y2688D02*
X67Y2688D01*
X2131Y2688D02*
X2138Y2688D01*
X61Y2687D02*
X68Y2687D01*
X2131Y2687D02*
X2138Y2687D01*
X61Y2686D02*
X68Y2686D01*
X2130Y2686D02*
X2138Y2686D01*
X61Y2685D02*
X68Y2685D01*
X2130Y2685D02*
X2137Y2685D01*
X62Y2684D02*
X69Y2684D01*
X2130Y2684D02*
X2137Y2684D01*
X62Y2683D02*
X69Y2683D01*
X2129Y2683D02*
X2136Y2683D01*
X62Y2682D02*
X70Y2682D01*
X2129Y2682D02*
X2136Y2682D01*
X63Y2681D02*
X70Y2681D01*
X2129Y2681D02*
X2136Y2681D01*
X63Y2680D02*
X70Y2680D01*
X2128Y2680D02*
X2135Y2680D01*
X63Y2679D02*
X71Y2679D01*
X2128Y2679D02*
X2135Y2679D01*
X64Y2678D02*
X71Y2678D01*
X2127Y2678D02*
X2135Y2678D01*
X64Y2677D02*
X71Y2677D01*
X2127Y2677D02*
X2134Y2677D01*
X64Y2676D02*
X72Y2676D01*
X2127Y2676D02*
X2134Y2676D01*
X65Y2675D02*
X72Y2675D01*
X2126Y2675D02*
X2134Y2675D01*
X65Y2674D02*
X72Y2674D01*
X2126Y2674D02*
X2133Y2674D01*
X66Y2673D02*
X73Y2673D01*
X2126Y2673D02*
X2133Y2673D01*
X66Y2672D02*
X73Y2672D01*
X2125Y2672D02*
X2133Y2672D01*
X66Y2671D02*
X73Y2671D01*
X2125Y2671D02*
X2132Y2671D01*
X67Y2670D02*
X74Y2670D01*
X2125Y2670D02*
X2132Y2670D01*
X67Y2669D02*
X74Y2669D01*
X2124Y2669D02*
X2131Y2669D01*
X67Y2668D02*
X75Y2668D01*
X2124Y2668D02*
X2131Y2668D01*
X68Y2667D02*
X75Y2667D01*
X2123Y2667D02*
X2131Y2667D01*
X68Y2666D02*
X75Y2666D01*
X2123Y2666D02*
X2130Y2666D01*
X68Y2665D02*
X76Y2665D01*
X2123Y2665D02*
X2130Y2665D01*
X69Y2664D02*
X76Y2664D01*
X2122Y2664D02*
X2130Y2664D01*
X69Y2663D02*
X76Y2663D01*
X2122Y2663D02*
X2129Y2663D01*
X70Y2662D02*
X77Y2662D01*
X2122Y2662D02*
X2129Y2662D01*
X70Y2661D02*
X77Y2661D01*
X2121Y2661D02*
X2128Y2661D01*
X70Y2660D02*
X78Y2660D01*
X2121Y2660D02*
X2128Y2660D01*
X71Y2659D02*
X78Y2659D01*
X2120Y2659D02*
X2128Y2659D01*
X71Y2658D02*
X78Y2658D01*
X2120Y2658D02*
X2127Y2658D01*
X71Y2657D02*
X79Y2657D01*
X2120Y2657D02*
X2127Y2657D01*
X72Y2656D02*
X79Y2656D01*
X2119Y2656D02*
X2127Y2656D01*
X72Y2655D02*
X79Y2655D01*
X2119Y2655D02*
X2126Y2655D01*
X73Y2654D02*
X80Y2654D01*
X2119Y2654D02*
X2126Y2654D01*
X73Y2653D02*
X80Y2653D01*
X2118Y2653D02*
X2125Y2653D01*
X73Y2652D02*
X81Y2652D01*
X2118Y2652D02*
X2125Y2652D01*
X74Y2651D02*
X81Y2651D01*
X2117Y2651D02*
X2125Y2651D01*
X74Y2650D02*
X81Y2650D01*
X2117Y2650D02*
X2124Y2650D01*
X75Y2649D02*
X82Y2649D01*
X2117Y2649D02*
X2124Y2649D01*
X75Y2648D02*
X82Y2648D01*
X2116Y2648D02*
X2123Y2648D01*
X75Y2647D02*
X83Y2647D01*
X2116Y2647D02*
X2123Y2647D01*
X76Y2646D02*
X83Y2646D01*
X2115Y2646D02*
X2123Y2646D01*
X76Y2645D02*
X83Y2645D01*
X2115Y2645D02*
X2122Y2645D01*
X77Y2644D02*
X84Y2644D01*
X2115Y2644D02*
X2122Y2644D01*
X77Y2643D02*
X84Y2643D01*
X2114Y2643D02*
X2122Y2643D01*
X77Y2642D02*
X85Y2642D01*
X2114Y2642D02*
X2121Y2642D01*
X78Y2641D02*
X85Y2641D01*
X2113Y2641D02*
X2121Y2641D01*
X78Y2640D02*
X85Y2640D01*
X2113Y2640D02*
X2120Y2640D01*
X79Y2639D02*
X86Y2639D01*
X2113Y2639D02*
X2120Y2639D01*
X79Y2638D02*
X86Y2638D01*
X2112Y2638D02*
X2120Y2638D01*
X79Y2637D02*
X87Y2637D01*
X2112Y2637D02*
X2119Y2637D01*
X80Y2636D02*
X87Y2636D01*
X2111Y2636D02*
X2119Y2636D01*
X80Y2635D02*
X87Y2635D01*
X2111Y2635D02*
X2118Y2635D01*
X81Y2634D02*
X88Y2634D01*
X2111Y2634D02*
X2118Y2634D01*
X81Y2633D02*
X88Y2633D01*
X2110Y2633D02*
X2118Y2633D01*
X81Y2632D02*
X89Y2632D01*
X2110Y2632D02*
X2117Y2632D01*
X82Y2631D02*
X89Y2631D01*
X2109Y2631D02*
X2117Y2631D01*
X82Y2630D02*
X89Y2630D01*
X2109Y2630D02*
X2116Y2630D01*
X83Y2629D02*
X90Y2629D01*
X2109Y2629D02*
X2116Y2629D01*
X83Y2628D02*
X90Y2628D01*
X2108Y2628D02*
X2115Y2628D01*
X83Y2627D02*
X91Y2627D01*
X2108Y2627D02*
X2115Y2627D01*
X84Y2626D02*
X91Y2626D01*
X2107Y2626D02*
X2115Y2626D01*
X84Y2625D02*
X92Y2625D01*
X2107Y2625D02*
X2114Y2625D01*
X85Y2624D02*
X92Y2624D01*
X2106Y2624D02*
X2114Y2624D01*
X85Y2623D02*
X92Y2623D01*
X2106Y2623D02*
X2113Y2623D01*
X85Y2622D02*
X93Y2622D01*
X2106Y2622D02*
X2113Y2622D01*
X86Y2621D02*
X93Y2621D01*
X2105Y2621D02*
X2113Y2621D01*
X86Y2620D02*
X94Y2620D01*
X2105Y2620D02*
X2112Y2620D01*
X87Y2619D02*
X94Y2619D01*
X2104Y2619D02*
X2112Y2619D01*
X87Y2618D02*
X95Y2618D01*
X2104Y2618D02*
X2111Y2618D01*
X88Y2617D02*
X95Y2617D01*
X2103Y2617D02*
X2111Y2617D01*
X88Y2616D02*
X95Y2616D01*
X2103Y2616D02*
X2110Y2616D01*
X88Y2615D02*
X96Y2615D01*
X2103Y2615D02*
X2110Y2615D01*
X89Y2614D02*
X96Y2614D01*
X2102Y2614D02*
X2110Y2614D01*
X89Y2613D02*
X97Y2613D01*
X2102Y2613D02*
X2109Y2613D01*
X90Y2612D02*
X97Y2612D01*
X2101Y2612D02*
X2109Y2612D01*
X90Y2611D02*
X98Y2611D01*
X2101Y2611D02*
X2108Y2611D01*
X91Y2610D02*
X98Y2610D01*
X2100Y2610D02*
X2108Y2610D01*
X91Y2609D02*
X98Y2609D01*
X2100Y2609D02*
X2107Y2609D01*
X91Y2608D02*
X99Y2608D01*
X2100Y2608D02*
X2107Y2608D01*
X92Y2607D02*
X99Y2607D01*
X2099Y2607D02*
X2107Y2607D01*
X92Y2606D02*
X100Y2606D01*
X2099Y2606D02*
X2106Y2606D01*
X93Y2605D02*
X100Y2605D01*
X2098Y2605D02*
X2106Y2605D01*
X93Y2604D02*
X101Y2604D01*
X2098Y2604D02*
X2105Y2604D01*
X94Y2603D02*
X101Y2603D01*
X2097Y2603D02*
X2105Y2603D01*
X94Y2602D02*
X102Y2602D01*
X2097Y2602D02*
X2104Y2602D01*
X95Y2601D02*
X102Y2601D01*
X2096Y2601D02*
X2104Y2601D01*
X95Y2600D02*
X102Y2600D01*
X2096Y2600D02*
X2103Y2600D01*
X95Y2599D02*
X103Y2599D01*
X2096Y2599D02*
X2103Y2599D01*
X96Y2598D02*
X103Y2598D01*
X2095Y2598D02*
X2103Y2598D01*
X96Y2597D02*
X104Y2597D01*
X2095Y2597D02*
X2102Y2597D01*
X97Y2596D02*
X104Y2596D01*
X2094Y2596D02*
X2102Y2596D01*
X97Y2595D02*
X105Y2595D01*
X2094Y2595D02*
X2101Y2595D01*
X98Y2594D02*
X105Y2594D01*
X2093Y2594D02*
X2101Y2594D01*
X98Y2593D02*
X106Y2593D01*
X2093Y2593D02*
X2100Y2593D01*
X99Y2592D02*
X106Y2592D01*
X2092Y2592D02*
X2100Y2592D01*
X99Y2591D02*
X106Y2591D01*
X2092Y2591D02*
X2099Y2591D01*
X100Y2590D02*
X107Y2590D01*
X2091Y2590D02*
X2099Y2590D01*
X100Y2589D02*
X107Y2589D01*
X2091Y2589D02*
X2098Y2589D01*
X100Y2588D02*
X108Y2588D01*
X2091Y2588D02*
X2098Y2588D01*
X101Y2587D02*
X108Y2587D01*
X2090Y2587D02*
X2097Y2587D01*
X101Y2586D02*
X109Y2586D01*
X2090Y2586D02*
X2097Y2586D01*
X102Y2585D02*
X109Y2585D01*
X2089Y2585D02*
X2097Y2585D01*
X102Y2584D02*
X110Y2584D01*
X2089Y2584D02*
X2096Y2584D01*
X103Y2583D02*
X110Y2583D01*
X2088Y2583D02*
X2096Y2583D01*
X103Y2582D02*
X111Y2582D01*
X2088Y2582D02*
X2095Y2582D01*
X104Y2581D02*
X111Y2581D01*
X2087Y2581D02*
X2095Y2581D01*
X104Y2580D02*
X112Y2580D01*
X2087Y2580D02*
X2094Y2580D01*
X105Y2579D02*
X112Y2579D01*
X2086Y2579D02*
X2094Y2579D01*
X105Y2578D02*
X113Y2578D01*
X2086Y2578D02*
X2093Y2578D01*
X106Y2577D02*
X113Y2577D01*
X2085Y2577D02*
X2093Y2577D01*
X106Y2576D02*
X114Y2576D01*
X2085Y2576D02*
X2092Y2576D01*
X107Y2575D02*
X114Y2575D01*
X2084Y2575D02*
X2092Y2575D01*
X107Y2574D02*
X114Y2574D01*
X2084Y2574D02*
X2091Y2574D01*
X108Y2573D02*
X115Y2573D01*
X2083Y2573D02*
X2091Y2573D01*
X108Y2572D02*
X115Y2572D01*
X2083Y2572D02*
X2090Y2572D01*
X108Y2571D02*
X116Y2571D01*
X2082Y2571D02*
X2090Y2571D01*
X109Y2570D02*
X116Y2570D01*
X2082Y2570D02*
X2089Y2570D01*
X109Y2569D02*
X117Y2569D01*
X2082Y2569D02*
X2089Y2569D01*
X110Y2568D02*
X117Y2568D01*
X2081Y2568D02*
X2088Y2568D01*
X110Y2567D02*
X118Y2567D01*
X2081Y2567D02*
X2088Y2567D01*
X111Y2566D02*
X118Y2566D01*
X2080Y2566D02*
X2088Y2566D01*
X111Y2565D02*
X119Y2565D01*
X2080Y2565D02*
X2087Y2565D01*
X112Y2564D02*
X119Y2564D01*
X2079Y2564D02*
X2087Y2564D01*
X112Y2563D02*
X120Y2563D01*
X2079Y2563D02*
X2086Y2563D01*
X113Y2562D02*
X120Y2562D01*
X2078Y2562D02*
X2086Y2562D01*
X113Y2561D02*
X121Y2561D01*
X2078Y2561D02*
X2085Y2561D01*
X114Y2560D02*
X121Y2560D01*
X2077Y2560D02*
X2085Y2560D01*
X114Y2559D02*
X122Y2559D01*
X2077Y2559D02*
X2084Y2559D01*
X115Y2558D02*
X122Y2558D01*
X2076Y2558D02*
X2084Y2558D01*
X115Y2557D02*
X123Y2557D01*
X2076Y2557D02*
X2083Y2557D01*
X116Y2556D02*
X123Y2556D01*
X2075Y2556D02*
X2083Y2556D01*
X116Y2555D02*
X124Y2555D01*
X2075Y2555D02*
X2082Y2555D01*
X117Y2554D02*
X124Y2554D01*
X2074Y2554D02*
X2082Y2554D01*
X117Y2553D02*
X125Y2553D01*
X2074Y2553D02*
X2081Y2553D01*
X118Y2552D02*
X125Y2552D01*
X2073Y2552D02*
X2081Y2552D01*
X118Y2551D02*
X126Y2551D01*
X2073Y2551D02*
X2080Y2551D01*
X119Y2550D02*
X126Y2550D01*
X2072Y2550D02*
X2080Y2550D01*
X119Y2549D02*
X127Y2549D01*
X2072Y2549D02*
X2079Y2549D01*
X120Y2548D02*
X127Y2548D01*
X2071Y2548D02*
X2079Y2548D01*
X120Y2547D02*
X128Y2547D01*
X2070Y2547D02*
X2078Y2547D01*
X121Y2546D02*
X128Y2546D01*
X2070Y2546D02*
X2078Y2546D01*
X121Y2545D02*
X129Y2545D01*
X2069Y2545D02*
X2077Y2545D01*
X122Y2544D02*
X130Y2544D01*
X2069Y2544D02*
X2076Y2544D01*
X122Y2543D02*
X130Y2543D01*
X2068Y2543D02*
X2076Y2543D01*
X123Y2542D02*
X131Y2542D01*
X2068Y2542D02*
X2075Y2542D01*
X124Y2541D02*
X131Y2541D01*
X2067Y2541D02*
X2075Y2541D01*
X124Y2540D02*
X132Y2540D01*
X2067Y2540D02*
X2074Y2540D01*
X125Y2539D02*
X132Y2539D01*
X2066Y2539D02*
X2074Y2539D01*
X125Y2538D02*
X133Y2538D01*
X2066Y2538D02*
X2073Y2538D01*
X126Y2537D02*
X133Y2537D01*
X2065Y2537D02*
X2073Y2537D01*
X126Y2536D02*
X134Y2536D01*
X2065Y2536D02*
X2072Y2536D01*
X127Y2535D02*
X134Y2535D01*
X2064Y2535D02*
X2072Y2535D01*
X127Y2534D02*
X135Y2534D01*
X2064Y2534D02*
X2071Y2534D01*
X128Y2533D02*
X135Y2533D01*
X2063Y2533D02*
X2071Y2533D01*
X128Y2532D02*
X136Y2532D01*
X2063Y2532D02*
X2070Y2532D01*
X129Y2531D02*
X136Y2531D01*
X2062Y2531D02*
X2070Y2531D01*
X129Y2530D02*
X137Y2530D01*
X2062Y2530D02*
X2069Y2530D01*
X130Y2529D02*
X137Y2529D01*
X2061Y2529D02*
X2069Y2529D01*
X130Y2528D02*
X138Y2528D01*
X2060Y2528D02*
X2068Y2528D01*
X131Y2527D02*
X139Y2527D01*
X2060Y2527D02*
X2068Y2527D01*
X131Y2526D02*
X139Y2526D01*
X2059Y2526D02*
X2067Y2526D01*
X132Y2525D02*
X140Y2525D01*
X2059Y2525D02*
X2066Y2525D01*
X133Y2524D02*
X140Y2524D01*
X2058Y2524D02*
X2066Y2524D01*
X133Y2523D02*
X141Y2523D01*
X2058Y2523D02*
X2065Y2523D01*
X134Y2522D02*
X141Y2522D01*
X2057Y2522D02*
X2065Y2522D01*
X134Y2521D02*
X142Y2521D01*
X2057Y2521D02*
X2064Y2521D01*
X135Y2520D02*
X142Y2520D01*
X2056Y2520D02*
X2064Y2520D01*
X135Y2519D02*
X143Y2519D01*
X2056Y2519D02*
X2063Y2519D01*
X136Y2518D02*
X143Y2518D01*
X2055Y2518D02*
X2063Y2518D01*
X136Y2517D02*
X144Y2517D01*
X2054Y2517D02*
X2062Y2517D01*
X137Y2516D02*
X145Y2516D01*
X2054Y2516D02*
X2061Y2516D01*
X137Y2515D02*
X145Y2515D01*
X2053Y2515D02*
X2061Y2515D01*
X138Y2514D02*
X146Y2514D01*
X2053Y2514D02*
X2060Y2514D01*
X139Y2513D02*
X146Y2513D01*
X2052Y2513D02*
X2060Y2513D01*
X139Y2512D02*
X147Y2512D01*
X2052Y2512D02*
X2059Y2512D01*
X140Y2511D02*
X147Y2511D01*
X2051Y2511D02*
X2059Y2511D01*
X140Y2510D02*
X148Y2510D01*
X2050Y2510D02*
X2058Y2510D01*
X141Y2509D02*
X149Y2509D01*
X2050Y2509D02*
X2058Y2509D01*
X141Y2508D02*
X149Y2508D01*
X2049Y2508D02*
X2057Y2508D01*
X142Y2507D02*
X150Y2507D01*
X2049Y2507D02*
X2056Y2507D01*
X143Y2506D02*
X150Y2506D01*
X2048Y2506D02*
X2056Y2506D01*
X143Y2505D02*
X151Y2505D01*
X2048Y2505D02*
X2055Y2505D01*
X144Y2504D02*
X151Y2504D01*
X2047Y2504D02*
X2055Y2504D01*
X144Y2503D02*
X152Y2503D01*
X2046Y2503D02*
X2054Y2503D01*
X145Y2502D02*
X153Y2502D01*
X2046Y2502D02*
X2054Y2502D01*
X145Y2501D02*
X153Y2501D01*
X2045Y2501D02*
X2053Y2501D01*
X146Y2500D02*
X154Y2500D01*
X2045Y2500D02*
X2052Y2500D01*
X147Y2499D02*
X154Y2499D01*
X2044Y2499D02*
X2052Y2499D01*
X147Y2498D02*
X155Y2498D01*
X2044Y2498D02*
X2051Y2498D01*
X148Y2497D02*
X155Y2497D01*
X2043Y2497D02*
X2051Y2497D01*
X148Y2496D02*
X156Y2496D01*
X2042Y2496D02*
X2050Y2496D01*
X149Y2495D02*
X157Y2495D01*
X2042Y2495D02*
X2050Y2495D01*
X149Y2494D02*
X157Y2494D01*
X2041Y2494D02*
X2049Y2494D01*
X150Y2493D02*
X158Y2493D01*
X2041Y2493D02*
X2048Y2493D01*
X151Y2492D02*
X158Y2492D01*
X2040Y2492D02*
X2048Y2492D01*
X151Y2491D02*
X159Y2491D01*
X2039Y2491D02*
X2047Y2491D01*
X152Y2490D02*
X160Y2490D01*
X2039Y2490D02*
X2047Y2490D01*
X152Y2489D02*
X160Y2489D01*
X2038Y2489D02*
X2046Y2489D01*
X153Y2488D02*
X161Y2488D01*
X2038Y2488D02*
X2045Y2488D01*
X154Y2487D02*
X161Y2487D01*
X2037Y2487D02*
X2045Y2487D01*
X154Y2486D02*
X162Y2486D01*
X2036Y2486D02*
X2044Y2486D01*
X155Y2485D02*
X163Y2485D01*
X2036Y2485D02*
X2044Y2485D01*
X155Y2484D02*
X163Y2484D01*
X2035Y2484D02*
X2043Y2484D01*
X156Y2483D02*
X164Y2483D01*
X2035Y2483D02*
X2042Y2483D01*
X157Y2482D02*
X164Y2482D01*
X2034Y2482D02*
X2042Y2482D01*
X157Y2481D02*
X165Y2481D01*
X2033Y2481D02*
X2041Y2481D01*
X158Y2480D02*
X166Y2480D01*
X2033Y2480D02*
X2041Y2480D01*
X158Y2479D02*
X166Y2479D01*
X2032Y2479D02*
X2040Y2479D01*
X159Y2478D02*
X167Y2478D01*
X2032Y2478D02*
X2039Y2478D01*
X160Y2477D02*
X167Y2477D01*
X2031Y2477D02*
X2039Y2477D01*
X160Y2476D02*
X168Y2476D01*
X2030Y2476D02*
X2038Y2476D01*
X161Y2475D02*
X169Y2475D01*
X2030Y2475D02*
X2038Y2475D01*
X161Y2474D02*
X169Y2474D01*
X2029Y2474D02*
X2037Y2474D01*
X162Y2473D02*
X170Y2473D01*
X2029Y2473D02*
X2036Y2473D01*
X163Y2472D02*
X170Y2472D01*
X2028Y2472D02*
X2036Y2472D01*
X163Y2471D02*
X171Y2471D01*
X2027Y2471D02*
X2035Y2471D01*
X164Y2470D02*
X172Y2470D01*
X2027Y2470D02*
X2035Y2470D01*
X164Y2469D02*
X172Y2469D01*
X2026Y2469D02*
X2034Y2469D01*
X165Y2468D02*
X173Y2468D01*
X2025Y2468D02*
X2033Y2468D01*
X166Y2467D02*
X174Y2467D01*
X2025Y2467D02*
X2033Y2467D01*
X166Y2466D02*
X174Y2466D01*
X2024Y2466D02*
X2032Y2466D01*
X167Y2465D02*
X175Y2465D01*
X2024Y2465D02*
X2031Y2465D01*
X168Y2464D02*
X175Y2464D01*
X2023Y2464D02*
X2031Y2464D01*
X168Y2463D02*
X176Y2463D01*
X2022Y2463D02*
X2030Y2463D01*
X169Y2462D02*
X177Y2462D01*
X2022Y2462D02*
X2030Y2462D01*
X170Y2461D02*
X177Y2461D01*
X2021Y2461D02*
X2029Y2461D01*
X170Y2460D02*
X178Y2460D01*
X2020Y2460D02*
X2028Y2460D01*
X171Y2459D02*
X179Y2459D01*
X2020Y2459D02*
X2028Y2459D01*
X171Y2458D02*
X179Y2458D01*
X2019Y2458D02*
X2027Y2458D01*
X172Y2457D02*
X180Y2457D01*
X2018Y2457D02*
X2026Y2457D01*
X173Y2456D02*
X181Y2456D01*
X2018Y2456D02*
X2026Y2456D01*
X173Y2455D02*
X181Y2455D01*
X2017Y2455D02*
X2025Y2455D01*
X174Y2454D02*
X182Y2454D01*
X2017Y2454D02*
X2024Y2454D01*
X175Y2453D02*
X183Y2453D01*
X2016Y2453D02*
X2024Y2453D01*
X175Y2452D02*
X183Y2452D01*
X2015Y2452D02*
X2023Y2452D01*
X176Y2451D02*
X184Y2451D01*
X2015Y2451D02*
X2023Y2451D01*
X177Y2450D02*
X184Y2450D01*
X2014Y2450D02*
X2022Y2450D01*
X177Y2449D02*
X185Y2449D01*
X2013Y2449D02*
X2021Y2449D01*
X178Y2448D02*
X186Y2448D01*
X2013Y2448D02*
X2021Y2448D01*
X178Y2447D02*
X186Y2447D01*
X2012Y2447D02*
X2020Y2447D01*
X179Y2446D02*
X187Y2446D01*
X2011Y2446D02*
X2019Y2446D01*
X180Y2445D02*
X188Y2445D01*
X2011Y2445D02*
X2019Y2445D01*
X180Y2444D02*
X188Y2444D01*
X2010Y2444D02*
X2018Y2444D01*
X181Y2443D02*
X189Y2443D01*
X2009Y2443D02*
X2017Y2443D01*
X182Y2442D02*
X190Y2442D01*
X2009Y2442D02*
X2017Y2442D01*
X182Y2441D02*
X190Y2441D01*
X2008Y2441D02*
X2016Y2441D01*
X183Y2440D02*
X191Y2440D01*
X2007Y2440D02*
X2015Y2440D01*
X184Y2439D02*
X192Y2439D01*
X2007Y2439D02*
X2015Y2439D01*
X184Y2438D02*
X192Y2438D01*
X2006Y2438D02*
X2014Y2438D01*
X185Y2437D02*
X193Y2437D01*
X2005Y2437D02*
X2013Y2437D01*
X186Y2436D02*
X194Y2436D01*
X2005Y2436D02*
X2013Y2436D01*
X186Y2435D02*
X194Y2435D01*
X2004Y2435D02*
X2012Y2435D01*
X187Y2434D02*
X195Y2434D01*
X2003Y2434D02*
X2011Y2434D01*
X188Y2433D02*
X196Y2433D01*
X2003Y2433D02*
X2011Y2433D01*
X188Y2432D02*
X197Y2432D01*
X2002Y2432D02*
X2010Y2432D01*
X189Y2431D02*
X197Y2431D01*
X2001Y2431D02*
X2009Y2431D01*
X190Y2430D02*
X198Y2430D01*
X2001Y2430D02*
X2009Y2430D01*
X191Y2429D02*
X199Y2429D01*
X2000Y2429D02*
X2008Y2429D01*
X191Y2428D02*
X199Y2428D01*
X1999Y2428D02*
X2007Y2428D01*
X192Y2427D02*
X200Y2427D01*
X1998Y2427D02*
X2007Y2427D01*
X193Y2426D02*
X201Y2426D01*
X1998Y2426D02*
X2006Y2426D01*
X193Y2425D02*
X201Y2425D01*
X1997Y2425D02*
X2005Y2425D01*
X194Y2424D02*
X202Y2424D01*
X1996Y2424D02*
X2004Y2424D01*
X195Y2423D02*
X203Y2423D01*
X1996Y2423D02*
X2004Y2423D01*
X195Y2422D02*
X203Y2422D01*
X1995Y2422D02*
X2003Y2422D01*
X196Y2421D02*
X204Y2421D01*
X1994Y2421D02*
X2002Y2421D01*
X197Y2420D02*
X205Y2420D01*
X1994Y2420D02*
X2002Y2420D01*
X197Y2419D02*
X206Y2419D01*
X1993Y2419D02*
X2001Y2419D01*
X198Y2418D02*
X206Y2418D01*
X1992Y2418D02*
X2000Y2418D01*
X199Y2417D02*
X207Y2417D01*
X1991Y2417D02*
X2000Y2417D01*
X200Y2416D02*
X208Y2416D01*
X1991Y2416D02*
X1999Y2416D01*
X200Y2415D02*
X208Y2415D01*
X1990Y2415D02*
X1998Y2415D01*
X201Y2414D02*
X209Y2414D01*
X1989Y2414D02*
X1998Y2414D01*
X202Y2413D02*
X210Y2413D01*
X1989Y2413D02*
X1997Y2413D01*
X202Y2412D02*
X211Y2412D01*
X1988Y2412D02*
X1996Y2412D01*
X203Y2411D02*
X211Y2411D01*
X1987Y2411D02*
X1995Y2411D01*
X204Y2410D02*
X212Y2410D01*
X1986Y2410D02*
X1995Y2410D01*
X204Y2409D02*
X213Y2409D01*
X1986Y2409D02*
X1994Y2409D01*
X205Y2408D02*
X213Y2408D01*
X1985Y2408D02*
X1993Y2408D01*
X206Y2407D02*
X214Y2407D01*
X1984Y2407D02*
X1993Y2407D01*
X207Y2406D02*
X215Y2406D01*
X1984Y2406D02*
X1992Y2406D01*
X207Y2405D02*
X216Y2405D01*
X1983Y2405D02*
X1991Y2405D01*
X208Y2404D02*
X216Y2404D01*
X1982Y2404D02*
X1990Y2404D01*
X209Y2403D02*
X217Y2403D01*
X1981Y2403D02*
X1990Y2403D01*
X210Y2402D02*
X218Y2402D01*
X1981Y2402D02*
X1989Y2402D01*
X210Y2401D02*
X218Y2401D01*
X1980Y2401D02*
X1988Y2401D01*
X211Y2400D02*
X219Y2400D01*
X1979Y2400D02*
X1987Y2400D01*
X212Y2399D02*
X220Y2399D01*
X1978Y2399D02*
X1987Y2399D01*
X212Y2398D02*
X221Y2398D01*
X1978Y2398D02*
X1986Y2398D01*
X213Y2397D02*
X221Y2397D01*
X1977Y2397D02*
X1985Y2397D01*
X214Y2396D02*
X222Y2396D01*
X1976Y2396D02*
X1985Y2396D01*
X215Y2395D02*
X223Y2395D01*
X1975Y2395D02*
X1984Y2395D01*
X215Y2394D02*
X224Y2394D01*
X1975Y2394D02*
X1983Y2394D01*
X216Y2393D02*
X224Y2393D01*
X1974Y2393D02*
X1982Y2393D01*
X217Y2392D02*
X225Y2392D01*
X1973Y2392D02*
X1982Y2392D01*
X218Y2391D02*
X226Y2391D01*
X1972Y2391D02*
X1981Y2391D01*
X218Y2390D02*
X227Y2390D01*
X1972Y2390D02*
X1980Y2390D01*
X219Y2389D02*
X227Y2389D01*
X1971Y2389D02*
X1979Y2389D01*
X220Y2388D02*
X228Y2388D01*
X1970Y2388D02*
X1979Y2388D01*
X221Y2387D02*
X229Y2387D01*
X1969Y2387D02*
X1978Y2387D01*
X221Y2386D02*
X230Y2386D01*
X1969Y2386D02*
X1977Y2386D01*
X222Y2385D02*
X230Y2385D01*
X1968Y2385D02*
X1976Y2385D01*
X223Y2384D02*
X231Y2384D01*
X1967Y2384D02*
X1976Y2384D01*
X224Y2383D02*
X232Y2383D01*
X1966Y2383D02*
X1975Y2383D01*
X224Y2382D02*
X233Y2382D01*
X1966Y2382D02*
X1974Y2382D01*
X225Y2381D02*
X234Y2381D01*
X1965Y2381D02*
X1973Y2381D01*
X226Y2380D02*
X234Y2380D01*
X1964Y2380D02*
X1973Y2380D01*
X227Y2379D02*
X235Y2379D01*
X1963Y2379D02*
X1972Y2379D01*
X227Y2378D02*
X236Y2378D01*
X1963Y2378D02*
X1971Y2378D01*
X228Y2377D02*
X237Y2377D01*
X1962Y2377D02*
X1970Y2377D01*
X229Y2376D02*
X237Y2376D01*
X1961Y2376D02*
X1969Y2376D01*
X230Y2375D02*
X238Y2375D01*
X1960Y2375D02*
X1969Y2375D01*
X231Y2374D02*
X239Y2374D01*
X1959Y2374D02*
X1968Y2374D01*
X231Y2373D02*
X240Y2373D01*
X1959Y2373D02*
X1967Y2373D01*
X232Y2372D02*
X241Y2372D01*
X1958Y2372D02*
X1966Y2372D01*
X233Y2371D02*
X241Y2371D01*
X1957Y2371D02*
X1966Y2371D01*
X234Y2370D02*
X242Y2370D01*
X1956Y2370D02*
X1965Y2370D01*
X234Y2369D02*
X243Y2369D01*
X1955Y2369D02*
X1964Y2369D01*
X235Y2368D02*
X244Y2368D01*
X1955Y2368D02*
X1963Y2368D01*
X236Y2367D02*
X245Y2367D01*
X1954Y2367D02*
X1962Y2367D01*
X237Y2366D02*
X245Y2366D01*
X1953Y2366D02*
X1962Y2366D01*
X238Y2365D02*
X246Y2365D01*
X1952Y2365D02*
X1961Y2365D01*
X238Y2364D02*
X247Y2364D01*
X1952Y2364D02*
X1960Y2364D01*
X239Y2363D02*
X248Y2363D01*
X1951Y2363D02*
X1959Y2363D01*
X240Y2362D02*
X249Y2362D01*
X1950Y2362D02*
X1958Y2362D01*
X241Y2361D02*
X249Y2361D01*
X1949Y2361D02*
X1958Y2361D01*
X242Y2360D02*
X250Y2360D01*
X1948Y2360D02*
X1957Y2360D01*
X242Y2359D02*
X251Y2359D01*
X1947Y2359D02*
X1956Y2359D01*
X243Y2358D02*
X252Y2358D01*
X1947Y2358D02*
X1955Y2358D01*
X244Y2357D02*
X253Y2357D01*
X1946Y2357D02*
X1954Y2357D01*
X245Y2356D02*
X253Y2356D01*
X1945Y2356D02*
X1954Y2356D01*
X246Y2355D02*
X254Y2355D01*
X1944Y2355D02*
X1953Y2355D01*
X246Y2354D02*
X255Y2354D01*
X1943Y2354D02*
X1952Y2354D01*
X247Y2353D02*
X256Y2353D01*
X1943Y2353D02*
X1951Y2353D01*
X248Y2352D02*
X257Y2352D01*
X1942Y2352D02*
X1950Y2352D01*
X249Y2351D02*
X258Y2351D01*
X1941Y2351D02*
X1950Y2351D01*
X250Y2350D02*
X258Y2350D01*
X1940Y2350D02*
X1949Y2350D01*
X251Y2349D02*
X259Y2349D01*
X1939Y2349D02*
X1948Y2349D01*
X251Y2348D02*
X260Y2348D01*
X1938Y2348D02*
X1947Y2348D01*
X252Y2347D02*
X261Y2347D01*
X1938Y2347D02*
X1946Y2347D01*
X253Y2346D02*
X262Y2346D01*
X1937Y2346D02*
X1945Y2346D01*
X254Y2345D02*
X263Y2345D01*
X1936Y2345D02*
X1945Y2345D01*
X255Y2344D02*
X263Y2344D01*
X1935Y2344D02*
X1944Y2344D01*
X256Y2343D02*
X264Y2343D01*
X1934Y2343D02*
X1943Y2343D01*
X256Y2342D02*
X265Y2342D01*
X1933Y2342D02*
X1942Y2342D01*
X257Y2341D02*
X266Y2341D01*
X1933Y2341D02*
X1941Y2341D01*
X258Y2340D02*
X267Y2340D01*
X1932Y2340D02*
X1940Y2340D01*
X259Y2339D02*
X268Y2339D01*
X1931Y2339D02*
X1940Y2339D01*
X260Y2338D02*
X268Y2338D01*
X1930Y2338D02*
X1939Y2338D01*
X261Y2337D02*
X269Y2337D01*
X1929Y2337D02*
X1938Y2337D01*
X261Y2336D02*
X270Y2336D01*
X1928Y2336D02*
X1937Y2336D01*
X262Y2335D02*
X271Y2335D01*
X1927Y2335D02*
X1936Y2335D01*
X263Y2334D02*
X272Y2334D01*
X1927Y2334D02*
X1935Y2334D01*
X264Y2333D02*
X273Y2333D01*
X1926Y2333D02*
X1934Y2333D01*
X265Y2332D02*
X274Y2332D01*
X1925Y2332D02*
X1934Y2332D01*
X266Y2331D02*
X274Y2331D01*
X1924Y2331D02*
X1933Y2331D01*
X267Y2330D02*
X275Y2330D01*
X1923Y2330D02*
X1932Y2330D01*
X267Y2329D02*
X276Y2329D01*
X1922Y2329D02*
X1931Y2329D01*
X268Y2328D02*
X277Y2328D01*
X1921Y2328D02*
X1930Y2328D01*
X269Y2327D02*
X278Y2327D01*
X1920Y2327D02*
X1929Y2327D01*
X270Y2326D02*
X279Y2326D01*
X1920Y2326D02*
X1928Y2326D01*
X271Y2325D02*
X280Y2325D01*
X1919Y2325D02*
X1928Y2325D01*
X272Y2324D02*
X281Y2324D01*
X1918Y2324D02*
X1927Y2324D01*
X273Y2323D02*
X281Y2323D01*
X1917Y2323D02*
X1926Y2323D01*
X274Y2322D02*
X282Y2322D01*
X1916Y2322D02*
X1925Y2322D01*
X274Y2321D02*
X283Y2321D01*
X1915Y2321D02*
X1924Y2321D01*
X275Y2320D02*
X284Y2320D01*
X1914Y2320D02*
X1923Y2320D01*
X276Y2319D02*
X285Y2319D01*
X1913Y2319D02*
X1922Y2319D01*
X277Y2318D02*
X286Y2318D01*
X1912Y2318D02*
X1921Y2318D01*
X278Y2317D02*
X287Y2317D01*
X1912Y2317D02*
X1921Y2317D01*
X279Y2316D02*
X288Y2316D01*
X1911Y2316D02*
X1920Y2316D01*
X280Y2315D02*
X289Y2315D01*
X1910Y2315D02*
X1919Y2315D01*
X281Y2314D02*
X290Y2314D01*
X1909Y2314D02*
X1918Y2314D01*
X281Y2313D02*
X290Y2313D01*
X1908Y2313D02*
X1917Y2313D01*
X282Y2312D02*
X291Y2312D01*
X1907Y2312D02*
X1916Y2312D01*
X283Y2311D02*
X292Y2311D01*
X1906Y2311D02*
X1915Y2311D01*
X284Y2310D02*
X293Y2310D01*
X1905Y2310D02*
X1914Y2310D01*
X285Y2309D02*
X294Y2309D01*
X1904Y2309D02*
X1913Y2309D01*
X286Y2308D02*
X295Y2308D01*
X1903Y2308D02*
X1912Y2308D01*
X287Y2307D02*
X296Y2307D01*
X1902Y2307D02*
X1912Y2307D01*
X288Y2306D02*
X297Y2306D01*
X1902Y2306D02*
X1911Y2306D01*
X289Y2305D02*
X298Y2305D01*
X1901Y2305D02*
X1910Y2305D01*
X290Y2304D02*
X299Y2304D01*
X1900Y2304D02*
X1909Y2304D01*
X291Y2303D02*
X300Y2303D01*
X1899Y2303D02*
X1908Y2303D01*
X292Y2302D02*
X301Y2302D01*
X1898Y2302D02*
X1907Y2302D01*
X292Y2301D02*
X302Y2301D01*
X1897Y2301D02*
X1906Y2301D01*
X293Y2300D02*
X303Y2300D01*
X1896Y2300D02*
X1905Y2300D01*
X294Y2299D02*
X303Y2299D01*
X1895Y2299D02*
X1904Y2299D01*
X295Y2298D02*
X304Y2298D01*
X1894Y2298D02*
X1903Y2298D01*
X296Y2297D02*
X305Y2297D01*
X1893Y2297D02*
X1902Y2297D01*
X297Y2296D02*
X306Y2296D01*
X1892Y2296D02*
X1901Y2296D01*
X298Y2295D02*
X307Y2295D01*
X1891Y2295D02*
X1900Y2295D01*
X299Y2294D02*
X308Y2294D01*
X1890Y2294D02*
X1899Y2294D01*
X300Y2293D02*
X309Y2293D01*
X1889Y2293D02*
X1899Y2293D01*
X301Y2292D02*
X310Y2292D01*
X1888Y2292D02*
X1898Y2292D01*
X302Y2291D02*
X311Y2291D01*
X1887Y2291D02*
X1897Y2291D01*
X303Y2290D02*
X312Y2290D01*
X1886Y2290D02*
X1896Y2290D01*
X304Y2289D02*
X313Y2289D01*
X1885Y2289D02*
X1895Y2289D01*
X305Y2288D02*
X314Y2288D01*
X1884Y2288D02*
X1894Y2288D01*
X306Y2287D02*
X315Y2287D01*
X1884Y2287D02*
X1893Y2287D01*
X307Y2286D02*
X316Y2286D01*
X1883Y2286D02*
X1892Y2286D01*
X308Y2285D02*
X317Y2285D01*
X1882Y2285D02*
X1891Y2285D01*
X308Y2284D02*
X318Y2284D01*
X1881Y2284D02*
X1890Y2284D01*
X309Y2283D02*
X319Y2283D01*
X1880Y2283D02*
X1889Y2283D01*
X310Y2282D02*
X320Y2282D01*
X1879Y2282D02*
X1888Y2282D01*
X311Y2281D02*
X321Y2281D01*
X1878Y2281D02*
X1887Y2281D01*
X312Y2280D02*
X322Y2280D01*
X1877Y2280D02*
X1886Y2280D01*
X313Y2279D02*
X323Y2279D01*
X1876Y2279D02*
X1885Y2279D01*
X314Y2278D02*
X324Y2278D01*
X1875Y2278D02*
X1884Y2278D01*
X315Y2277D02*
X325Y2277D01*
X1874Y2277D02*
X1883Y2277D01*
X316Y2276D02*
X326Y2276D01*
X1873Y2276D02*
X1882Y2276D01*
X317Y2275D02*
X327Y2275D01*
X1872Y2275D02*
X1881Y2275D01*
X318Y2274D02*
X328Y2274D01*
X1871Y2274D02*
X1880Y2274D01*
X319Y2273D02*
X329Y2273D01*
X1870Y2273D02*
X1879Y2273D01*
X320Y2272D02*
X330Y2272D01*
X1869Y2272D02*
X1878Y2272D01*
X321Y2271D02*
X331Y2271D01*
X1868Y2271D02*
X1877Y2271D01*
X322Y2270D02*
X332Y2270D01*
X1867Y2270D02*
X1876Y2270D01*
X323Y2269D02*
X333Y2269D01*
X1866Y2269D02*
X1875Y2269D01*
X324Y2268D02*
X334Y2268D01*
X1865Y2268D02*
X1874Y2268D01*
X325Y2267D02*
X335Y2267D01*
X1864Y2267D02*
X1873Y2267D01*
X326Y2266D02*
X336Y2266D01*
X1863Y2266D02*
X1872Y2266D01*
X327Y2265D02*
X337Y2265D01*
X1862Y2265D02*
X1871Y2265D01*
X328Y2264D02*
X338Y2264D01*
X1861Y2264D02*
X1870Y2264D01*
X329Y2263D02*
X339Y2263D01*
X1860Y2263D02*
X1869Y2263D01*
X330Y2262D02*
X340Y2262D01*
X1858Y2262D02*
X1868Y2262D01*
X331Y2261D02*
X341Y2261D01*
X1857Y2261D02*
X1867Y2261D01*
X332Y2260D02*
X342Y2260D01*
X1856Y2260D02*
X1866Y2260D01*
X333Y2259D02*
X343Y2259D01*
X1855Y2259D02*
X1865Y2259D01*
X334Y2258D02*
X344Y2258D01*
X1854Y2258D02*
X1864Y2258D01*
X335Y2257D02*
X345Y2257D01*
X1853Y2257D02*
X1863Y2257D01*
X336Y2256D02*
X346Y2256D01*
X1852Y2256D02*
X1862Y2256D01*
X338Y2255D02*
X347Y2255D01*
X1851Y2255D02*
X1861Y2255D01*
X339Y2254D02*
X348Y2254D01*
X1850Y2254D02*
X1860Y2254D01*
X340Y2253D02*
X349Y2253D01*
X1849Y2253D02*
X1859Y2253D01*
X341Y2252D02*
X350Y2252D01*
X1848Y2252D02*
X1858Y2252D01*
X342Y2251D02*
X351Y2251D01*
X1847Y2251D02*
X1857Y2251D01*
X343Y2250D02*
X353Y2250D01*
X1846Y2250D02*
X1856Y2250D01*
X344Y2249D02*
X354Y2249D01*
X1845Y2249D02*
X1855Y2249D01*
X345Y2248D02*
X355Y2248D01*
X1844Y2248D02*
X1854Y2248D01*
X346Y2247D02*
X356Y2247D01*
X1843Y2247D02*
X1852Y2247D01*
X347Y2246D02*
X357Y2246D01*
X1842Y2246D02*
X1851Y2246D01*
X348Y2245D02*
X358Y2245D01*
X1840Y2245D02*
X1850Y2245D01*
X349Y2244D02*
X359Y2244D01*
X1839Y2244D02*
X1849Y2244D01*
X350Y2243D02*
X360Y2243D01*
X1838Y2243D02*
X1848Y2243D01*
X351Y2242D02*
X361Y2242D01*
X1837Y2242D02*
X1847Y2242D01*
X352Y2241D02*
X362Y2241D01*
X1836Y2241D02*
X1846Y2241D01*
X353Y2240D02*
X363Y2240D01*
X1835Y2240D02*
X1845Y2240D01*
X355Y2239D02*
X364Y2239D01*
X1834Y2239D02*
X1844Y2239D01*
X356Y2238D02*
X366Y2238D01*
X1833Y2238D02*
X1843Y2238D01*
X357Y2237D02*
X367Y2237D01*
X1832Y2237D02*
X1842Y2237D01*
X358Y2236D02*
X368Y2236D01*
X1831Y2236D02*
X1841Y2236D01*
X359Y2235D02*
X369Y2235D01*
X1830Y2235D02*
X1840Y2235D01*
X360Y2234D02*
X370Y2234D01*
X1828Y2234D02*
X1838Y2234D01*
X361Y2233D02*
X371Y2233D01*
X1827Y2233D02*
X1837Y2233D01*
X362Y2232D02*
X372Y2232D01*
X1826Y2232D02*
X1836Y2232D01*
X363Y2231D02*
X373Y2231D01*
X1825Y2231D02*
X1835Y2231D01*
X364Y2230D02*
X374Y2230D01*
X1824Y2230D02*
X1834Y2230D01*
X365Y2229D02*
X376Y2229D01*
X1823Y2229D02*
X1833Y2229D01*
X367Y2228D02*
X377Y2228D01*
X1822Y2228D02*
X1832Y2228D01*
X368Y2227D02*
X378Y2227D01*
X1821Y2227D02*
X1831Y2227D01*
X369Y2226D02*
X379Y2226D01*
X1819Y2226D02*
X1830Y2226D01*
X370Y2225D02*
X380Y2225D01*
X1818Y2225D02*
X1828Y2225D01*
X371Y2224D02*
X381Y2224D01*
X1817Y2224D02*
X1827Y2224D01*
X372Y2223D02*
X382Y2223D01*
X1816Y2223D02*
X1826Y2223D01*
X373Y2222D02*
X384Y2222D01*
X1815Y2222D02*
X1825Y2222D01*
X374Y2221D02*
X385Y2221D01*
X1814Y2221D02*
X1824Y2221D01*
X376Y2220D02*
X386Y2220D01*
X1812Y2220D02*
X1823Y2220D01*
X377Y2219D02*
X387Y2219D01*
X1811Y2219D02*
X1822Y2219D01*
X378Y2218D02*
X388Y2218D01*
X1810Y2218D02*
X1821Y2218D01*
X379Y2217D02*
X389Y2217D01*
X1809Y2217D02*
X1819Y2217D01*
X380Y2216D02*
X391Y2216D01*
X1808Y2216D02*
X1818Y2216D01*
X381Y2215D02*
X392Y2215D01*
X1807Y2215D02*
X1817Y2215D01*
X383Y2214D02*
X393Y2214D01*
X1805Y2214D02*
X1816Y2214D01*
X384Y2213D02*
X394Y2213D01*
X1804Y2213D02*
X1815Y2213D01*
X385Y2212D02*
X395Y2212D01*
X1803Y2212D02*
X1814Y2212D01*
X386Y2211D02*
X397Y2211D01*
X1802Y2211D02*
X1812Y2211D01*
X387Y2210D02*
X398Y2210D01*
X1801Y2210D02*
X1811Y2210D01*
X388Y2209D02*
X399Y2209D01*
X1800Y2209D02*
X1810Y2209D01*
X390Y2208D02*
X400Y2208D01*
X1798Y2208D02*
X1809Y2208D01*
X391Y2207D02*
X401Y2207D01*
X1797Y2207D02*
X1808Y2207D01*
X392Y2206D02*
X403Y2206D01*
X1796Y2206D02*
X1807Y2206D01*
X393Y2205D02*
X404Y2205D01*
X1795Y2205D02*
X1805Y2205D01*
X394Y2204D02*
X405Y2204D01*
X1794Y2204D02*
X1804Y2204D01*
X396Y2203D02*
X406Y2203D01*
X1792Y2203D02*
X1803Y2203D01*
X397Y2202D02*
X407Y2202D01*
X1791Y2202D02*
X1802Y2202D01*
X398Y2201D02*
X409Y2201D01*
X1790Y2201D02*
X1801Y2201D01*
X399Y2200D02*
X410Y2200D01*
X1789Y2200D02*
X1799Y2200D01*
X400Y2199D02*
X411Y2199D01*
X1787Y2199D02*
X1798Y2199D01*
X402Y2198D02*
X412Y2198D01*
X1786Y2198D02*
X1797Y2198D01*
X403Y2197D02*
X414Y2197D01*
X1785Y2197D02*
X1796Y2197D01*
X404Y2196D02*
X415Y2196D01*
X1784Y2196D02*
X1794Y2196D01*
X405Y2195D02*
X416Y2195D01*
X1782Y2195D02*
X1793Y2195D01*
X406Y2194D02*
X417Y2194D01*
X1781Y2194D02*
X1792Y2194D01*
X408Y2193D02*
X419Y2193D01*
X1780Y2193D02*
X1791Y2193D01*
X409Y2192D02*
X420Y2192D01*
X1779Y2192D02*
X1790Y2192D01*
X410Y2191D02*
X421Y2191D01*
X1777Y2191D02*
X1788Y2191D01*
X411Y2190D02*
X422Y2190D01*
X1776Y2190D02*
X1787Y2190D01*
X413Y2189D02*
X424Y2189D01*
X1775Y2189D02*
X1786Y2189D01*
X414Y2188D02*
X425Y2188D01*
X1774Y2188D02*
X1785Y2188D01*
X415Y2187D02*
X426Y2187D01*
X1772Y2187D02*
X1783Y2187D01*
X416Y2186D02*
X427Y2186D01*
X1771Y2186D02*
X1782Y2186D01*
X418Y2185D02*
X429Y2185D01*
X1770Y2185D02*
X1781Y2185D01*
X419Y2184D02*
X430Y2184D01*
X1768Y2184D02*
X1780Y2184D01*
X420Y2183D02*
X431Y2183D01*
X1767Y2183D02*
X1778Y2183D01*
X421Y2182D02*
X433Y2182D01*
X1766Y2182D02*
X1777Y2182D01*
X423Y2181D02*
X434Y2181D01*
X1765Y2181D02*
X1776Y2181D01*
X424Y2180D02*
X435Y2180D01*
X1763Y2180D02*
X1774Y2180D01*
X425Y2179D02*
X436Y2179D01*
X1762Y2179D02*
X1773Y2179D01*
X427Y2178D02*
X438Y2178D01*
X1761Y2178D02*
X1772Y2178D01*
X428Y2177D02*
X439Y2177D01*
X1759Y2177D02*
X1771Y2177D01*
X429Y2176D02*
X440Y2176D01*
X1758Y2176D02*
X1769Y2176D01*
X430Y2175D02*
X442Y2175D01*
X1757Y2175D02*
X1768Y2175D01*
X432Y2174D02*
X443Y2174D01*
X1755Y2174D02*
X1767Y2174D01*
X433Y2173D02*
X444Y2173D01*
X1754Y2173D02*
X1765Y2173D01*
X434Y2172D02*
X446Y2172D01*
X1753Y2172D02*
X1764Y2172D01*
X436Y2171D02*
X447Y2171D01*
X1751Y2171D02*
X1763Y2171D01*
X437Y2170D02*
X448Y2170D01*
X1750Y2170D02*
X1761Y2170D01*
X438Y2169D02*
X450Y2169D01*
X1749Y2169D02*
X1760Y2169D01*
X440Y2168D02*
X451Y2168D01*
X1747Y2168D02*
X1759Y2168D01*
X441Y2167D02*
X452Y2167D01*
X1746Y2167D02*
X1757Y2167D01*
X442Y2166D02*
X454Y2166D01*
X1745Y2166D02*
X1756Y2166D01*
X444Y2165D02*
X455Y2165D01*
X1743Y2165D02*
X1755Y2165D01*
X445Y2164D02*
X457Y2164D01*
X1742Y2164D02*
X1753Y2164D01*
X446Y2163D02*
X458Y2163D01*
X1740Y2163D02*
X1752Y2163D01*
X448Y2162D02*
X459Y2162D01*
X1739Y2162D02*
X1751Y2162D01*
X449Y2161D02*
X461Y2161D01*
X1738Y2161D02*
X1749Y2161D01*
X450Y2160D02*
X462Y2160D01*
X1736Y2160D02*
X1748Y2160D01*
X452Y2159D02*
X464Y2159D01*
X1735Y2159D02*
X1747Y2159D01*
X453Y2158D02*
X465Y2158D01*
X1734Y2158D02*
X1745Y2158D01*
X454Y2157D02*
X466Y2157D01*
X1732Y2157D02*
X1744Y2157D01*
X456Y2156D02*
X468Y2156D01*
X1731Y2156D02*
X1743Y2156D01*
X457Y2155D02*
X469Y2155D01*
X1729Y2155D02*
X1741Y2155D01*
X459Y2154D02*
X471Y2154D01*
X1728Y2154D02*
X1740Y2154D01*
X460Y2153D02*
X472Y2153D01*
X1726Y2153D02*
X1738Y2153D01*
X461Y2152D02*
X473Y2152D01*
X1725Y2152D02*
X1737Y2152D01*
X463Y2151D02*
X475Y2151D01*
X1724Y2151D02*
X1736Y2151D01*
X464Y2150D02*
X476Y2150D01*
X1722Y2150D02*
X1734Y2150D01*
X466Y2149D02*
X478Y2149D01*
X1721Y2149D02*
X1733Y2149D01*
X470Y2148D02*
X479Y2148D01*
X1719Y2148D02*
X1731Y2148D01*
X473Y2147D02*
X481Y2147D01*
X1718Y2147D02*
X1730Y2147D01*
X475Y2146D02*
X482Y2146D01*
X1716Y2146D02*
X1728Y2146D01*
X476Y2145D02*
X484Y2145D01*
X1715Y2145D02*
X1727Y2145D01*
X478Y2144D02*
X485Y2144D01*
X1713Y2144D02*
X1726Y2144D01*
X479Y2143D02*
X486Y2143D01*
X1712Y2143D02*
X1724Y2143D01*
X480Y2142D02*
X488Y2142D01*
X1712Y2142D02*
X1723Y2142D01*
X481Y2141D02*
X489Y2141D01*
X1712Y2141D02*
X1721Y2141D01*
X482Y2140D02*
X491Y2140D01*
X1712Y2140D02*
X1720Y2140D01*
X483Y2139D02*
X492Y2139D01*
X1712Y2139D02*
X1718Y2139D01*
X484Y2138D02*
X494Y2138D01*
X1712Y2138D02*
X1717Y2138D01*
X485Y2137D02*
X495Y2137D01*
X1711Y2137D02*
X1715Y2137D01*
X485Y2136D02*
X497Y2136D01*
X1711Y2136D02*
X1714Y2136D01*
X486Y2135D02*
X498Y2135D01*
X1711Y2135D02*
X1713Y2135D01*
X487Y2134D02*
X500Y2134D01*
X1711Y2134D02*
X1711Y2134D01*
X489Y2133D02*
X501Y2133D01*
X1710Y2133D02*
X1710Y2133D01*
X490Y2132D02*
X503Y2132D01*
X492Y2131D02*
X505Y2131D01*
X493Y2130D02*
X506Y2130D01*
X495Y2129D02*
X508Y2129D01*
X496Y2128D02*
X509Y2128D01*
X498Y2127D02*
X511Y2127D01*
X499Y2126D02*
X512Y2126D01*
X501Y2125D02*
X514Y2125D01*
X503Y2124D02*
X515Y2124D01*
X504Y2123D02*
X517Y2123D01*
X506Y2122D02*
X519Y2122D01*
X507Y2121D02*
X520Y2121D01*
X509Y2120D02*
X522Y2120D01*
X510Y2119D02*
X523Y2119D01*
X512Y2118D02*
X525Y2118D01*
X513Y2117D02*
X527Y2117D01*
X515Y2116D02*
X528Y2116D01*
X517Y2115D02*
X530Y2115D01*
X518Y2114D02*
X532Y2114D01*
X520Y2113D02*
X533Y2113D01*
X521Y2112D02*
X535Y2112D01*
X523Y2111D02*
X537Y2111D01*
X525Y2110D02*
X538Y2110D01*
X526Y2109D02*
X540Y2109D01*
X528Y2108D02*
X542Y2108D01*
X530Y2107D02*
X543Y2107D01*
X531Y2106D02*
X545Y2106D01*
X533Y2105D02*
X547Y2105D01*
X1652Y2105D02*
X1655Y2105D01*
X535Y2104D02*
X548Y2104D01*
X1650Y2104D02*
X1657Y2104D01*
X536Y2103D02*
X550Y2103D01*
X1648Y2103D02*
X1661Y2103D01*
X538Y2102D02*
X552Y2102D01*
X1647Y2102D02*
X1661Y2102D01*
X540Y2101D02*
X554Y2101D01*
X1645Y2101D02*
X1659Y2101D01*
X541Y2100D02*
X555Y2100D01*
X1643Y2100D02*
X1657Y2100D01*
X543Y2099D02*
X557Y2099D01*
X1641Y2099D02*
X1655Y2099D01*
X545Y2098D02*
X559Y2098D01*
X1640Y2098D02*
X1654Y2098D01*
X546Y2097D02*
X561Y2097D01*
X1638Y2097D02*
X1652Y2097D01*
X548Y2096D02*
X562Y2096D01*
X1636Y2096D02*
X1650Y2096D01*
X550Y2095D02*
X564Y2095D01*
X1634Y2095D02*
X1649Y2095D01*
X552Y2094D02*
X566Y2094D01*
X1633Y2094D02*
X1647Y2094D01*
X553Y2093D02*
X568Y2093D01*
X1631Y2093D02*
X1645Y2093D01*
X555Y2092D02*
X569Y2092D01*
X1629Y2092D02*
X1643Y2092D01*
X557Y2091D02*
X571Y2091D01*
X1627Y2091D02*
X1642Y2091D01*
X559Y2090D02*
X573Y2090D01*
X1625Y2090D02*
X1640Y2090D01*
X560Y2089D02*
X575Y2089D01*
X1624Y2089D02*
X1638Y2089D01*
X562Y2088D02*
X577Y2088D01*
X1622Y2088D02*
X1636Y2088D01*
X564Y2087D02*
X579Y2087D01*
X1620Y2087D02*
X1635Y2087D01*
X566Y2086D02*
X580Y2086D01*
X1618Y2086D02*
X1633Y2086D01*
X567Y2085D02*
X582Y2085D01*
X1616Y2085D02*
X1631Y2085D01*
X569Y2084D02*
X584Y2084D01*
X1614Y2084D02*
X1629Y2084D01*
X571Y2083D02*
X586Y2083D01*
X1612Y2083D02*
X1627Y2083D01*
X573Y2082D02*
X588Y2082D01*
X1611Y2082D02*
X1626Y2082D01*
X575Y2081D02*
X590Y2081D01*
X1609Y2081D02*
X1624Y2081D01*
X577Y2080D02*
X592Y2080D01*
X1607Y2080D02*
X1622Y2080D01*
X578Y2079D02*
X594Y2079D01*
X1605Y2079D02*
X1620Y2079D01*
X580Y2078D02*
X595Y2078D01*
X1603Y2078D02*
X1618Y2078D01*
X582Y2077D02*
X597Y2077D01*
X1601Y2077D02*
X1616Y2077D01*
X584Y2076D02*
X599Y2076D01*
X1599Y2076D02*
X1614Y2076D01*
X586Y2075D02*
X601Y2075D01*
X1597Y2075D02*
X1613Y2075D01*
X588Y2074D02*
X603Y2074D01*
X1595Y2074D02*
X1611Y2074D01*
X590Y2073D02*
X605Y2073D01*
X1593Y2073D02*
X1609Y2073D01*
X592Y2072D02*
X607Y2072D01*
X1591Y2072D02*
X1607Y2072D01*
X593Y2071D02*
X609Y2071D01*
X1589Y2071D02*
X1605Y2071D01*
X595Y2070D02*
X611Y2070D01*
X1587Y2070D02*
X1603Y2070D01*
X597Y2069D02*
X613Y2069D01*
X1585Y2069D02*
X1601Y2069D01*
X599Y2068D02*
X615Y2068D01*
X1583Y2068D02*
X1599Y2068D01*
X601Y2067D02*
X617Y2067D01*
X1581Y2067D02*
X1597Y2067D01*
X603Y2066D02*
X619Y2066D01*
X1579Y2066D02*
X1595Y2066D01*
X605Y2065D02*
X621Y2065D01*
X1577Y2065D02*
X1593Y2065D01*
X607Y2064D02*
X623Y2064D01*
X1575Y2064D02*
X1591Y2064D01*
X609Y2063D02*
X625Y2063D01*
X1573Y2063D02*
X1589Y2063D01*
X611Y2062D02*
X628Y2062D01*
X1571Y2062D02*
X1587Y2062D01*
X613Y2061D02*
X630Y2061D01*
X1569Y2061D02*
X1585Y2061D01*
X615Y2060D02*
X632Y2060D01*
X1567Y2060D02*
X1583Y2060D01*
X617Y2059D02*
X634Y2059D01*
X1565Y2059D02*
X1581Y2059D01*
X619Y2058D02*
X636Y2058D01*
X1562Y2058D02*
X1579Y2058D01*
X621Y2057D02*
X638Y2057D01*
X1560Y2057D02*
X1577Y2057D01*
X623Y2056D02*
X640Y2056D01*
X1558Y2056D02*
X1575Y2056D01*
X625Y2055D02*
X642Y2055D01*
X1556Y2055D02*
X1573Y2055D01*
X628Y2054D02*
X645Y2054D01*
X1554Y2054D02*
X1571Y2054D01*
X630Y2053D02*
X647Y2053D01*
X1552Y2053D02*
X1569Y2053D01*
X632Y2052D02*
X649Y2052D01*
X1549Y2052D02*
X1567Y2052D01*
X634Y2051D02*
X651Y2051D01*
X1547Y2051D02*
X1564Y2051D01*
X636Y2050D02*
X653Y2050D01*
X1545Y2050D02*
X1562Y2050D01*
X638Y2049D02*
X656Y2049D01*
X1543Y2049D02*
X1560Y2049D01*
X640Y2048D02*
X658Y2048D01*
X1540Y2048D02*
X1558Y2048D01*
X643Y2047D02*
X660Y2047D01*
X1538Y2047D02*
X1556Y2047D01*
X645Y2046D02*
X663Y2046D01*
X1536Y2046D02*
X1554Y2046D01*
X647Y2045D02*
X665Y2045D01*
X1534Y2045D02*
X1552Y2045D01*
X649Y2044D02*
X667Y2044D01*
X1531Y2044D02*
X1549Y2044D01*
X651Y2043D02*
X670Y2043D01*
X1529Y2043D02*
X1547Y2043D01*
X654Y2042D02*
X672Y2042D01*
X1527Y2042D02*
X1545Y2042D01*
X656Y2041D02*
X674Y2041D01*
X1524Y2041D02*
X1543Y2041D01*
X658Y2040D02*
X677Y2040D01*
X1522Y2040D02*
X1540Y2040D01*
X660Y2039D02*
X679Y2039D01*
X1519Y2039D02*
X1538Y2039D01*
X663Y2038D02*
X681Y2038D01*
X1517Y2038D02*
X1536Y2038D01*
X665Y2037D02*
X684Y2037D01*
X1515Y2037D02*
X1533Y2037D01*
X667Y2036D02*
X686Y2036D01*
X1512Y2036D02*
X1531Y2036D01*
X670Y2035D02*
X689Y2035D01*
X1510Y2035D02*
X1529Y2035D01*
X672Y2034D02*
X691Y2034D01*
X1507Y2034D02*
X1526Y2034D01*
X674Y2033D02*
X694Y2033D01*
X1505Y2033D02*
X1524Y2033D01*
X677Y2032D02*
X696Y2032D01*
X1502Y2032D02*
X1522Y2032D01*
X679Y2031D02*
X699Y2031D01*
X1500Y2031D02*
X1519Y2031D01*
X682Y2030D02*
X701Y2030D01*
X1497Y2030D02*
X1517Y2030D01*
X684Y2029D02*
X704Y2029D01*
X1495Y2029D02*
X1514Y2029D01*
X687Y2028D02*
X706Y2028D01*
X1492Y2028D02*
X1512Y2028D01*
X689Y2027D02*
X709Y2027D01*
X1489Y2027D02*
X1509Y2027D01*
X691Y2026D02*
X712Y2026D01*
X1487Y2026D02*
X1507Y2026D01*
X694Y2025D02*
X714Y2025D01*
X1484Y2025D02*
X1504Y2025D01*
X696Y2024D02*
X717Y2024D01*
X1481Y2024D02*
X1502Y2024D01*
X699Y2023D02*
X720Y2023D01*
X1479Y2023D02*
X1499Y2023D01*
X702Y2022D02*
X722Y2022D01*
X1476Y2022D02*
X1497Y2022D01*
X704Y2021D02*
X725Y2021D01*
X1473Y2021D02*
X1494Y2021D01*
X707Y2020D02*
X728Y2020D01*
X1470Y2020D02*
X1492Y2020D01*
X709Y2019D02*
X731Y2019D01*
X1468Y2019D02*
X1489Y2019D01*
X712Y2018D02*
X734Y2018D01*
X1465Y2018D02*
X1486Y2018D01*
X715Y2017D02*
X736Y2017D01*
X1462Y2017D02*
X1484Y2017D01*
X717Y2016D02*
X739Y2016D01*
X1459Y2016D02*
X1481Y2016D01*
X720Y2015D02*
X742Y2015D01*
X1456Y2015D02*
X1478Y2015D01*
X723Y2014D02*
X745Y2014D01*
X1453Y2014D02*
X1476Y2014D01*
X726Y2013D02*
X748Y2013D01*
X1450Y2013D02*
X1473Y2013D01*
X728Y2012D02*
X751Y2012D01*
X1447Y2012D02*
X1470Y2012D01*
X731Y2011D02*
X754Y2011D01*
X1444Y2011D02*
X1467Y2011D01*
X734Y2010D02*
X757Y2010D01*
X1441Y2010D02*
X1465Y2010D01*
X737Y2009D02*
X760Y2009D01*
X1438Y2009D02*
X1462Y2009D01*
X740Y2008D02*
X763Y2008D01*
X1435Y2008D02*
X1459Y2008D01*
X743Y2007D02*
X766Y2007D01*
X1432Y2007D02*
X1456Y2007D01*
X745Y2006D02*
X769Y2006D01*
X1429Y2006D02*
X1453Y2006D01*
X748Y2005D02*
X773Y2005D01*
X1426Y2005D02*
X1450Y2005D01*
X751Y2004D02*
X776Y2004D01*
X1423Y2004D02*
X1447Y2004D01*
X754Y2003D02*
X779Y2003D01*
X1419Y2003D02*
X1444Y2003D01*
X757Y2002D02*
X782Y2002D01*
X1416Y2002D02*
X1441Y2002D01*
X760Y2001D02*
X786Y2001D01*
X1413Y2001D02*
X1438Y2001D01*
X764Y2000D02*
X789Y2000D01*
X1409Y2000D02*
X1435Y2000D01*
X767Y1999D02*
X793Y1999D01*
X1406Y1999D02*
X1432Y1999D01*
X770Y1998D02*
X796Y1998D01*
X1402Y1998D02*
X1429Y1998D01*
X773Y1997D02*
X799Y1997D01*
X1399Y1997D02*
X1425Y1997D01*
X776Y1996D02*
X803Y1996D01*
X1395Y1996D02*
X1422Y1996D01*
X780Y1995D02*
X807Y1995D01*
X1392Y1995D02*
X1419Y1995D01*
X783Y1994D02*
X810Y1994D01*
X1388Y1994D02*
X1416Y1994D01*
X786Y1993D02*
X814Y1993D01*
X1385Y1993D02*
X1412Y1993D01*
X790Y1992D02*
X818Y1992D01*
X1381Y1992D02*
X1409Y1992D01*
X793Y1991D02*
X821Y1991D01*
X1377Y1991D02*
X1405Y1991D01*
X796Y1990D02*
X825Y1990D01*
X1373Y1990D02*
X1402Y1990D01*
X800Y1989D02*
X829Y1989D01*
X1369Y1989D02*
X1398Y1989D01*
X804Y1988D02*
X833Y1988D01*
X1365Y1988D02*
X1395Y1988D01*
X807Y1987D02*
X837Y1987D01*
X1361Y1987D02*
X1391Y1987D01*
X811Y1986D02*
X841Y1986D01*
X1357Y1986D02*
X1388Y1986D01*
X814Y1985D02*
X846Y1985D01*
X1353Y1985D02*
X1384Y1985D01*
X818Y1984D02*
X850Y1984D01*
X1349Y1984D02*
X1380Y1984D01*
X822Y1983D02*
X854Y1983D01*
X1344Y1983D02*
X1376Y1983D01*
X826Y1982D02*
X859Y1982D01*
X1340Y1982D02*
X1373Y1982D01*
X830Y1981D02*
X863Y1981D01*
X1335Y1981D02*
X1369Y1981D01*
X834Y1980D02*
X868Y1980D01*
X1331Y1980D02*
X1365Y1980D01*
X838Y1979D02*
X872Y1979D01*
X1326Y1979D02*
X1361Y1979D01*
X842Y1978D02*
X877Y1978D01*
X1321Y1978D02*
X1356Y1978D01*
X846Y1977D02*
X882Y1977D01*
X1316Y1977D02*
X1352Y1977D01*
X850Y1976D02*
X887Y1976D01*
X1311Y1976D02*
X1348Y1976D01*
X855Y1975D02*
X892Y1975D01*
X1306Y1975D02*
X1344Y1975D01*
X859Y1974D02*
X898Y1974D01*
X1301Y1974D02*
X1339Y1974D01*
X864Y1973D02*
X903Y1973D01*
X1295Y1973D02*
X1335Y1973D01*
X868Y1972D02*
X909Y1972D01*
X1290Y1972D02*
X1330Y1972D01*
X873Y1971D02*
X915Y1971D01*
X1284Y1971D02*
X1325Y1971D01*
X878Y1970D02*
X920Y1970D01*
X1278Y1970D02*
X1321Y1970D01*
X883Y1969D02*
X927Y1969D01*
X1272Y1969D02*
X1316Y1969D01*
X888Y1968D02*
X933Y1968D01*
X1265Y1968D02*
X1311Y1968D01*
X893Y1967D02*
X940Y1967D01*
X1258Y1967D02*
X1305Y1967D01*
X898Y1966D02*
X947Y1966D01*
X1252Y1966D02*
X1300Y1966D01*
X904Y1965D02*
X954Y1965D01*
X1244Y1965D02*
X1295Y1965D01*
X909Y1964D02*
X962Y1964D01*
X1236Y1964D02*
X1289Y1964D01*
X915Y1963D02*
X970Y1963D01*
X1228Y1963D02*
X1283Y1963D01*
X921Y1962D02*
X979Y1962D01*
X1219Y1962D02*
X1277Y1962D01*
X928Y1961D02*
X989Y1961D01*
X1210Y1961D02*
X1271Y1961D01*
X934Y1960D02*
X999Y1960D01*
X1199Y1960D02*
X1265Y1960D01*
X941Y1959D02*
X1011Y1959D01*
X1187Y1959D02*
X1258Y1959D01*
X948Y1958D02*
X1025Y1958D01*
X1173Y1958D02*
X1251Y1958D01*
X955Y1957D02*
X1042Y1957D01*
X1157Y1957D02*
X1243Y1957D01*
X963Y1956D02*
X1067Y1956D01*
X1131Y1956D02*
X1235Y1956D01*
X971Y1955D02*
X1227Y1955D01*
X980Y1954D02*
X1218Y1954D01*
X990Y1953D02*
X1209Y1953D01*
X1000Y1952D02*
X1198Y1952D01*
X1012Y1951D02*
X1186Y1951D01*
X1026Y1950D02*
X1173Y1950D01*
X1043Y1949D02*
X1156Y1949D01*
X1068Y1948D02*
X1130Y1948D01*
D02*
G04 End of Silk0*
M02*