G04 MADE WITH FRITZING*
G04 WWW.FRITZING.ORG*
G04 DOUBLE SIDED*
G04 HOLES PLATED*
G04 CONTOUR ON CENTER OF CONTOUR VECTOR*
%ASAXBY*%
%FSLAX23Y23*%
%MOIN*%
%OFA0B0*%
%SFA1.0B1.0*%
%ADD10C,0.008*%
%LNCONTOUR*%
G90*
G70*
G54D10*
X40Y4140D02*
X41Y4140D01*
X42Y4140D01*
X43Y4140D01*
X44Y4140D01*
X45Y4140D01*
X46Y4140D01*
X47Y4140D01*
X48Y4140D01*
X49Y4140D01*
X50Y4140D01*
X51Y4140D01*
X52Y4140D01*
X53Y4140D01*
X54Y4140D01*
X55Y4140D01*
X56Y4140D01*
X57Y4140D01*
X58Y4140D01*
X59Y4140D01*
X60Y4140D01*
X61Y4140D01*
X62Y4140D01*
X63Y4140D01*
X64Y4140D01*
X65Y4140D01*
X66Y4140D01*
X67Y4140D01*
X68Y4140D01*
X69Y4140D01*
X70Y4140D01*
X71Y4140D01*
X72Y4140D01*
X73Y4140D01*
X74Y4140D01*
X75Y4140D01*
X76Y4140D01*
X77Y4140D01*
X78Y4140D01*
X79Y4140D01*
X80Y4140D01*
X81Y4140D01*
X82Y4140D01*
X83Y4140D01*
X84Y4140D01*
X85Y4140D01*
X86Y4140D01*
X87Y4140D01*
X88Y4140D01*
X89Y4140D01*
X90Y4140D01*
X91Y4140D01*
X92Y4140D01*
X93Y4140D01*
X94Y4140D01*
X95Y4140D01*
X96Y4140D01*
X97Y4140D01*
X98Y4140D01*
X99Y4140D01*
X100Y4140D01*
X101Y4140D01*
X102Y4140D01*
X103Y4140D01*
X104Y4140D01*
X105Y4140D01*
X106Y4140D01*
X107Y4140D01*
X108Y4140D01*
X109Y4140D01*
X110Y4140D01*
X111Y4140D01*
X112Y4140D01*
X113Y4140D01*
X114Y4140D01*
X115Y4140D01*
X116Y4140D01*
X117Y4140D01*
X118Y4140D01*
X119Y4140D01*
X120Y4140D01*
X121Y4140D01*
X122Y4140D01*
X123Y4140D01*
X124Y4140D01*
X125Y4140D01*
X126Y4140D01*
X127Y4140D01*
X128Y4140D01*
X129Y4140D01*
X130Y4140D01*
X131Y4140D01*
X132Y4140D01*
X133Y4140D01*
X134Y4140D01*
X135Y4140D01*
X136Y4140D01*
X137Y4140D01*
X138Y4140D01*
X139Y4140D01*
X140Y4140D01*
X141Y4140D01*
X142Y4140D01*
X143Y4140D01*
X144Y4140D01*
X145Y4140D01*
X146Y4140D01*
X147Y4140D01*
X148Y4140D01*
X149Y4140D01*
X150Y4140D01*
X151Y4140D01*
X152Y4140D01*
X153Y4140D01*
X154Y4140D01*
X155Y4140D01*
X156Y4140D01*
X157Y4140D01*
X158Y4140D01*
X159Y4140D01*
X160Y4140D01*
X161Y4140D01*
X162Y4140D01*
X163Y4140D01*
X164Y4140D01*
X165Y4140D01*
X166Y4140D01*
X167Y4140D01*
X168Y4140D01*
X169Y4140D01*
X170Y4140D01*
X171Y4140D01*
X172Y4140D01*
X173Y4140D01*
X174Y4140D01*
X175Y4140D01*
X176Y4140D01*
X177Y4140D01*
X178Y4140D01*
X179Y4140D01*
X180Y4140D01*
X181Y4140D01*
X182Y4140D01*
X183Y4140D01*
X184Y4140D01*
X185Y4140D01*
X186Y4140D01*
X187Y4140D01*
X188Y4140D01*
X189Y4140D01*
X190Y4140D01*
X191Y4140D01*
X192Y4140D01*
X193Y4140D01*
X194Y4140D01*
X195Y4140D01*
X196Y4140D01*
X197Y4140D01*
X198Y4140D01*
X199Y4140D01*
X200Y4140D01*
X201Y4140D01*
X202Y4140D01*
X203Y4140D01*
X204Y4140D01*
X205Y4140D01*
X206Y4140D01*
X207Y4140D01*
X208Y4140D01*
X209Y4140D01*
X210Y4140D01*
X211Y4140D01*
X212Y4140D01*
X213Y4140D01*
X214Y4140D01*
X215Y4140D01*
X216Y4140D01*
X217Y4140D01*
X218Y4140D01*
X219Y4140D01*
X220Y4140D01*
X221Y4140D01*
X222Y4140D01*
X223Y4140D01*
X224Y4140D01*
X225Y4140D01*
X226Y4140D01*
X227Y4140D01*
X228Y4140D01*
X229Y4140D01*
X230Y4140D01*
X231Y4140D01*
X232Y4140D01*
X233Y4140D01*
X234Y4140D01*
X235Y4140D01*
X236Y4140D01*
X237Y4140D01*
X238Y4140D01*
X239Y4140D01*
X240Y4140D01*
X241Y4140D01*
X242Y4140D01*
X243Y4140D01*
X244Y4140D01*
X245Y4140D01*
X246Y4140D01*
X247Y4140D01*
X248Y4140D01*
X249Y4140D01*
X250Y4140D01*
X251Y4140D01*
X252Y4140D01*
X253Y4140D01*
X254Y4140D01*
X255Y4140D01*
X256Y4140D01*
X257Y4140D01*
X258Y4140D01*
X259Y4140D01*
X260Y4140D01*
X261Y4140D01*
X262Y4140D01*
X263Y4140D01*
X264Y4140D01*
X265Y4140D01*
X266Y4140D01*
X267Y4140D01*
X268Y4140D01*
X269Y4140D01*
X270Y4140D01*
X271Y4140D01*
X272Y4140D01*
X273Y4140D01*
X274Y4140D01*
X275Y4140D01*
X276Y4140D01*
X277Y4140D01*
X278Y4140D01*
X279Y4140D01*
X280Y4140D01*
X281Y4140D01*
X282Y4140D01*
X283Y4140D01*
X284Y4140D01*
X285Y4140D01*
X286Y4140D01*
X287Y4140D01*
X288Y4140D01*
X289Y4140D01*
X290Y4140D01*
X291Y4140D01*
X292Y4140D01*
X293Y4140D01*
X294Y4140D01*
X295Y4140D01*
X296Y4140D01*
X297Y4140D01*
X298Y4140D01*
X299Y4140D01*
X300Y4140D01*
X301Y4140D01*
X302Y4140D01*
X303Y4140D01*
X304Y4140D01*
X305Y4140D01*
X306Y4140D01*
X307Y4140D01*
X308Y4140D01*
X309Y4140D01*
X310Y4140D01*
X311Y4140D01*
X312Y4140D01*
X313Y4140D01*
X314Y4140D01*
X315Y4140D01*
X316Y4140D01*
X317Y4140D01*
X318Y4140D01*
X319Y4140D01*
X320Y4140D01*
X321Y4140D01*
X322Y4140D01*
X323Y4140D01*
X324Y4140D01*
X325Y4140D01*
X326Y4140D01*
X327Y4140D01*
X328Y4140D01*
X329Y4140D01*
X330Y4140D01*
X331Y4140D01*
X332Y4140D01*
X333Y4140D01*
X334Y4140D01*
X335Y4140D01*
X336Y4140D01*
X337Y4140D01*
X338Y4140D01*
X339Y4140D01*
X340Y4140D01*
X341Y4140D01*
X342Y4140D01*
X343Y4140D01*
X344Y4140D01*
X345Y4140D01*
X346Y4140D01*
X347Y4140D01*
X348Y4140D01*
X349Y4140D01*
X350Y4140D01*
X351Y4140D01*
X352Y4140D01*
X353Y4140D01*
X354Y4140D01*
X355Y4140D01*
X356Y4140D01*
X357Y4140D01*
X358Y4140D01*
X359Y4140D01*
X360Y4140D01*
X361Y4140D01*
X362Y4140D01*
X363Y4140D01*
X364Y4140D01*
X365Y4140D01*
X366Y4140D01*
X367Y4140D01*
X368Y4140D01*
X369Y4140D01*
X370Y4140D01*
X371Y4140D01*
X372Y4140D01*
X373Y4140D01*
X374Y4140D01*
X375Y4140D01*
X376Y4140D01*
X377Y4140D01*
X378Y4140D01*
X379Y4140D01*
X380Y4140D01*
X381Y4140D01*
X382Y4140D01*
X383Y4140D01*
X384Y4140D01*
X385Y4140D01*
X386Y4140D01*
X387Y4140D01*
X388Y4140D01*
X389Y4140D01*
X390Y4140D01*
X391Y4140D01*
X392Y4140D01*
X393Y4140D01*
X394Y4140D01*
X395Y4140D01*
X396Y4140D01*
X397Y4140D01*
X398Y4140D01*
X399Y4140D01*
X400Y4140D01*
X401Y4140D01*
X402Y4140D01*
X403Y4140D01*
X404Y4140D01*
X405Y4140D01*
X406Y4140D01*
X407Y4140D01*
X408Y4140D01*
X409Y4140D01*
X410Y4140D01*
X411Y4140D01*
X412Y4140D01*
X413Y4140D01*
X414Y4140D01*
X415Y4140D01*
X416Y4140D01*
X417Y4140D01*
X418Y4140D01*
X419Y4140D01*
X420Y4140D01*
X421Y4140D01*
X422Y4140D01*
X423Y4140D01*
X424Y4140D01*
X425Y4140D01*
X426Y4140D01*
X427Y4140D01*
X428Y4140D01*
X429Y4140D01*
X430Y4140D01*
X431Y4140D01*
X432Y4140D01*
X433Y4140D01*
X434Y4140D01*
X435Y4140D01*
X436Y4140D01*
X437Y4140D01*
X438Y4140D01*
X439Y4140D01*
X440Y4140D01*
X441Y4140D01*
X442Y4140D01*
X443Y4140D01*
X444Y4140D01*
X445Y4140D01*
X446Y4140D01*
X447Y4140D01*
X448Y4140D01*
X449Y4140D01*
X450Y4140D01*
X451Y4140D01*
X452Y4140D01*
X453Y4140D01*
X454Y4140D01*
X455Y4140D01*
X456Y4140D01*
X457Y4140D01*
X458Y4140D01*
X459Y4140D01*
X460Y4140D01*
X461Y4140D01*
X462Y4140D01*
X463Y4140D01*
X464Y4140D01*
X465Y4140D01*
X466Y4140D01*
X467Y4140D01*
X468Y4140D01*
X469Y4140D01*
X470Y4140D01*
X471Y4140D01*
X472Y4140D01*
X473Y4140D01*
X474Y4140D01*
X475Y4140D01*
X476Y4140D01*
X477Y4140D01*
X478Y4140D01*
X479Y4140D01*
X480Y4140D01*
X481Y4140D01*
X482Y4140D01*
X483Y4140D01*
X484Y4140D01*
X485Y4140D01*
X486Y4140D01*
X487Y4140D01*
X488Y4140D01*
X489Y4140D01*
X490Y4140D01*
X491Y4140D01*
X492Y4140D01*
X493Y4140D01*
X494Y4140D01*
X495Y4140D01*
X496Y4140D01*
X497Y4140D01*
X498Y4140D01*
X499Y4140D01*
X500Y4140D01*
X501Y4140D01*
X502Y4140D01*
X503Y4140D01*
X504Y4140D01*
X505Y4140D01*
X506Y4140D01*
X507Y4140D01*
X508Y4140D01*
X509Y4140D01*
X510Y4140D01*
X511Y4140D01*
X512Y4140D01*
X513Y4140D01*
X514Y4140D01*
X515Y4140D01*
X516Y4140D01*
X517Y4140D01*
X518Y4140D01*
X519Y4140D01*
X520Y4140D01*
X521Y4140D01*
X522Y4140D01*
X523Y4140D01*
X524Y4140D01*
X525Y4140D01*
X526Y4140D01*
X527Y4140D01*
X528Y4140D01*
X529Y4140D01*
X530Y4140D01*
X531Y4140D01*
X532Y4140D01*
X533Y4140D01*
X534Y4140D01*
X535Y4140D01*
X536Y4140D01*
X537Y4140D01*
X538Y4140D01*
X539Y4140D01*
X540Y4140D01*
X541Y4140D01*
X542Y4140D01*
X543Y4140D01*
X544Y4140D01*
X545Y4140D01*
X546Y4140D01*
X547Y4140D01*
X548Y4140D01*
X549Y4140D01*
X550Y4140D01*
X551Y4140D01*
X552Y4140D01*
X553Y4140D01*
X554Y4140D01*
X555Y4140D01*
X556Y4140D01*
X557Y4140D01*
X558Y4140D01*
X559Y4140D01*
X560Y4140D01*
X561Y4140D01*
X562Y4140D01*
X563Y4140D01*
X564Y4140D01*
X565Y4140D01*
X566Y4140D01*
X567Y4140D01*
X568Y4140D01*
X569Y4140D01*
X570Y4140D01*
X571Y4140D01*
X572Y4140D01*
X573Y4140D01*
X574Y4140D01*
X575Y4140D01*
X576Y4140D01*
X577Y4140D01*
X578Y4140D01*
X579Y4140D01*
X580Y4140D01*
X581Y4140D01*
X582Y4140D01*
X583Y4140D01*
X584Y4140D01*
X585Y4140D01*
X586Y4140D01*
X587Y4140D01*
X588Y4140D01*
X589Y4140D01*
X590Y4140D01*
X591Y4140D01*
X592Y4140D01*
X593Y4140D01*
X594Y4140D01*
X595Y4140D01*
X596Y4140D01*
X597Y4140D01*
X598Y4140D01*
X599Y4140D01*
X600Y4140D01*
X601Y4140D01*
X602Y4140D01*
X603Y4140D01*
X604Y4140D01*
X605Y4140D01*
X606Y4140D01*
X607Y4140D01*
X608Y4140D01*
X609Y4140D01*
X610Y4140D01*
X611Y4140D01*
X612Y4140D01*
X613Y4140D01*
X614Y4140D01*
X615Y4140D01*
X616Y4140D01*
X617Y4140D01*
X618Y4140D01*
X619Y4140D01*
X620Y4140D01*
X621Y4140D01*
X622Y4140D01*
X623Y4140D01*
X624Y4140D01*
X625Y4140D01*
X626Y4140D01*
X627Y4140D01*
X628Y4140D01*
X629Y4140D01*
X630Y4140D01*
X631Y4140D01*
X632Y4140D01*
X633Y4140D01*
X634Y4140D01*
X635Y4140D01*
X636Y4140D01*
X637Y4140D01*
X638Y4140D01*
X639Y4140D01*
X640Y4140D01*
X641Y4140D01*
X642Y4140D01*
X643Y4140D01*
X644Y4140D01*
X645Y4140D01*
X646Y4140D01*
X647Y4140D01*
X648Y4140D01*
X649Y4140D01*
X650Y4140D01*
X651Y4140D01*
X652Y4140D01*
X653Y4140D01*
X654Y4140D01*
X655Y4140D01*
X656Y4140D01*
X657Y4140D01*
X658Y4140D01*
X659Y4140D01*
X660Y4140D01*
X661Y4140D01*
X662Y4140D01*
X663Y4140D01*
X664Y4140D01*
X665Y4140D01*
X666Y4140D01*
X667Y4140D01*
X668Y4140D01*
X669Y4140D01*
X670Y4140D01*
X671Y4140D01*
X672Y4140D01*
X673Y4140D01*
X674Y4140D01*
X675Y4140D01*
X676Y4140D01*
X677Y4140D01*
X678Y4140D01*
X679Y4140D01*
X680Y4140D01*
X681Y4140D01*
X682Y4140D01*
X683Y4140D01*
X684Y4140D01*
X685Y4140D01*
X686Y4140D01*
X687Y4140D01*
X688Y4140D01*
X689Y4140D01*
X690Y4140D01*
X691Y4140D01*
X692Y4140D01*
X693Y4140D01*
X694Y4140D01*
X695Y4140D01*
X696Y4140D01*
X697Y4140D01*
X698Y4140D01*
X699Y4140D01*
X700Y4140D01*
X701Y4140D01*
X702Y4140D01*
X703Y4140D01*
X704Y4140D01*
X705Y4140D01*
X706Y4140D01*
X707Y4140D01*
X708Y4140D01*
X709Y4140D01*
X710Y4140D01*
X711Y4140D01*
X712Y4140D01*
X713Y4140D01*
X714Y4140D01*
X715Y4140D01*
X716Y4140D01*
X717Y4140D01*
X718Y4140D01*
X719Y4140D01*
X720Y4140D01*
X721Y4140D01*
X722Y4140D01*
X723Y4140D01*
X724Y4140D01*
X725Y4140D01*
X726Y4140D01*
X727Y4140D01*
X728Y4140D01*
X729Y4140D01*
X730Y4140D01*
X731Y4140D01*
X732Y4140D01*
X733Y4140D01*
X734Y4140D01*
X735Y4140D01*
X736Y4140D01*
X737Y4140D01*
X738Y4140D01*
X739Y4140D01*
X740Y4140D01*
X741Y4140D01*
X742Y4140D01*
X743Y4140D01*
X744Y4140D01*
X745Y4140D01*
X746Y4140D01*
X747Y4140D01*
X748Y4140D01*
X749Y4140D01*
X750Y4140D01*
X751Y4140D01*
X752Y4140D01*
X753Y4140D01*
X754Y4140D01*
X755Y4140D01*
X756Y4140D01*
X757Y4140D01*
X758Y4140D01*
X759Y4140D01*
X760Y4140D01*
X761Y4140D01*
X762Y4140D01*
X763Y4140D01*
X764Y4140D01*
X765Y4140D01*
X766Y4140D01*
X767Y4140D01*
X768Y4140D01*
X769Y4140D01*
X770Y4140D01*
X771Y4140D01*
X772Y4140D01*
X773Y4140D01*
X774Y4140D01*
X775Y4140D01*
X776Y4140D01*
X777Y4140D01*
X778Y4140D01*
X779Y4140D01*
X780Y4140D01*
X781Y4140D01*
X782Y4140D01*
X783Y4140D01*
X784Y4140D01*
X785Y4140D01*
X786Y4140D01*
X787Y4140D01*
X788Y4140D01*
X789Y4140D01*
X790Y4140D01*
X791Y4140D01*
X792Y4140D01*
X793Y4140D01*
X794Y4140D01*
X795Y4140D01*
X796Y4140D01*
X797Y4140D01*
X798Y4140D01*
X799Y4140D01*
X800Y4140D01*
X801Y4140D01*
X802Y4140D01*
X803Y4140D01*
X804Y4140D01*
X805Y4140D01*
X806Y4140D01*
X807Y4140D01*
X808Y4140D01*
X809Y4140D01*
X810Y4140D01*
X811Y4140D01*
X812Y4140D01*
X813Y4140D01*
X814Y4140D01*
X815Y4140D01*
X816Y4140D01*
X817Y4140D01*
X818Y4140D01*
X819Y4140D01*
X820Y4140D01*
X821Y4140D01*
X822Y4140D01*
X823Y4140D01*
X824Y4140D01*
X825Y4140D01*
X826Y4140D01*
X827Y4140D01*
X828Y4140D01*
X829Y4140D01*
X830Y4140D01*
X831Y4140D01*
X832Y4140D01*
X833Y4140D01*
X834Y4140D01*
X835Y4140D01*
X836Y4140D01*
X837Y4140D01*
X838Y4140D01*
X839Y4140D01*
X840Y4140D01*
X841Y4140D01*
X842Y4140D01*
X843Y4140D01*
X844Y4140D01*
X845Y4140D01*
X846Y4140D01*
X847Y4140D01*
X848Y4140D01*
X849Y4140D01*
X850Y4140D01*
X851Y4140D01*
X852Y4140D01*
X853Y4140D01*
X854Y4140D01*
X855Y4140D01*
X856Y4140D01*
X857Y4140D01*
X858Y4140D01*
X859Y4140D01*
X860Y4140D01*
X861Y4140D01*
X862Y4140D01*
X863Y4140D01*
X864Y4140D01*
X865Y4140D01*
X866Y4140D01*
X867Y4140D01*
X868Y4140D01*
X869Y4140D01*
X870Y4140D01*
X871Y4140D01*
X872Y4140D01*
X873Y4140D01*
X874Y4140D01*
X875Y4140D01*
X876Y4140D01*
X877Y4140D01*
X878Y4140D01*
X879Y4140D01*
X880Y4140D01*
X881Y4140D01*
X882Y4140D01*
X883Y4140D01*
X884Y4140D01*
X885Y4140D01*
X886Y4140D01*
X887Y4140D01*
X888Y4140D01*
X889Y4140D01*
X890Y4140D01*
X891Y4140D01*
X892Y4140D01*
X893Y4140D01*
X894Y4140D01*
X895Y4140D01*
X896Y4140D01*
X897Y4140D01*
X898Y4140D01*
X899Y4140D01*
X900Y4140D01*
X901Y4140D01*
X902Y4140D01*
X903Y4140D01*
X904Y4140D01*
X905Y4140D01*
X906Y4140D01*
X907Y4140D01*
X908Y4140D01*
X909Y4140D01*
X910Y4140D01*
X911Y4140D01*
X912Y4140D01*
X913Y4140D01*
X914Y4140D01*
X915Y4140D01*
X916Y4140D01*
X917Y4140D01*
X918Y4140D01*
X919Y4140D01*
X920Y4140D01*
X921Y4140D01*
X922Y4140D01*
X923Y4140D01*
X924Y4140D01*
X925Y4140D01*
X926Y4140D01*
X927Y4140D01*
X928Y4140D01*
X929Y4140D01*
X930Y4140D01*
X931Y4140D01*
X932Y4140D01*
X933Y4140D01*
X934Y4140D01*
X935Y4140D01*
X936Y4140D01*
X937Y4140D01*
X938Y4140D01*
X939Y4140D01*
X940Y4140D01*
X941Y4140D01*
X942Y4140D01*
X943Y4140D01*
X944Y4140D01*
X945Y4140D01*
X946Y4140D01*
X947Y4140D01*
X948Y4140D01*
X949Y4140D01*
X950Y4140D01*
X951Y4140D01*
X952Y4140D01*
X953Y4140D01*
X954Y4140D01*
X955Y4140D01*
X956Y4140D01*
X957Y4140D01*
X958Y4140D01*
X959Y4140D01*
X960Y4140D01*
X961Y4140D01*
X962Y4140D01*
X963Y4140D01*
X964Y4140D01*
X965Y4140D01*
X966Y4140D01*
X967Y4140D01*
X968Y4140D01*
X969Y4140D01*
X970Y4140D01*
X971Y4140D01*
X972Y4140D01*
X973Y4140D01*
X974Y4140D01*
X975Y4140D01*
X976Y4140D01*
X977Y4140D01*
X978Y4140D01*
X979Y4140D01*
X980Y4140D01*
X981Y4140D01*
X982Y4140D01*
X983Y4140D01*
X984Y4140D01*
X985Y4140D01*
X986Y4140D01*
X987Y4140D01*
X988Y4140D01*
X989Y4140D01*
X990Y4140D01*
X991Y4140D01*
X992Y4140D01*
X993Y4140D01*
X994Y4140D01*
X995Y4140D01*
X996Y4140D01*
X997Y4140D01*
X998Y4140D01*
X999Y4140D01*
X1000Y4140D01*
X1001Y4140D01*
X1002Y4140D01*
X1003Y4140D01*
X1004Y4140D01*
X1005Y4140D01*
X1006Y4140D01*
X1007Y4140D01*
X1008Y4140D01*
X1009Y4140D01*
X1010Y4140D01*
X1011Y4140D01*
X1012Y4140D01*
X1013Y4140D01*
X1014Y4140D01*
X1015Y4140D01*
X1016Y4140D01*
X1017Y4140D01*
X1018Y4140D01*
X1019Y4140D01*
X1020Y4140D01*
X1021Y4140D01*
X1022Y4140D01*
X1023Y4140D01*
X1024Y4140D01*
X1025Y4140D01*
X1026Y4140D01*
X1027Y4140D01*
X1028Y4140D01*
X1029Y4140D01*
X1030Y4140D01*
X1031Y4140D01*
X1032Y4140D01*
X1033Y4140D01*
X1034Y4140D01*
X1035Y4140D01*
X1036Y4140D01*
X1037Y4140D01*
X1038Y4140D01*
X1039Y4140D01*
X1040Y4140D01*
X1041Y4140D01*
X1042Y4140D01*
X1043Y4140D01*
X1044Y4140D01*
X1045Y4140D01*
X1046Y4140D01*
X1047Y4140D01*
X1048Y4140D01*
X1049Y4140D01*
X1050Y4140D01*
X1051Y4140D01*
X1052Y4140D01*
X1053Y4140D01*
X1054Y4140D01*
X1055Y4140D01*
X1056Y4140D01*
X1057Y4140D01*
X1058Y4140D01*
X1059Y4140D01*
X1060Y4140D01*
X1061Y4140D01*
X1062Y4140D01*
X1063Y4140D01*
X1064Y4140D01*
X1065Y4140D01*
X1066Y4140D01*
X1067Y4140D01*
X1068Y4140D01*
X1069Y4140D01*
X1070Y4140D01*
X1071Y4140D01*
X1072Y4140D01*
X1073Y4140D01*
X1074Y4140D01*
X1075Y4140D01*
X1076Y4140D01*
X1077Y4140D01*
X1078Y4140D01*
X1079Y4140D01*
X1080Y4140D01*
X1081Y4140D01*
X1082Y4140D01*
X1083Y4140D01*
X1084Y4140D01*
X1085Y4140D01*
X1086Y4140D01*
X1087Y4140D01*
X1088Y4140D01*
X1089Y4140D01*
X1090Y4140D01*
X1091Y4140D01*
X1092Y4140D01*
X1093Y4140D01*
X1094Y4140D01*
X1095Y4140D01*
X1096Y4140D01*
X1097Y4140D01*
X1098Y4140D01*
X1099Y4140D01*
X1100Y4140D01*
X1101Y4140D01*
X1102Y4140D01*
X1103Y4140D01*
X1104Y4140D01*
X1105Y4140D01*
X1106Y4140D01*
X1107Y4140D01*
X1108Y4140D01*
X1109Y4140D01*
X1110Y4140D01*
X1111Y4140D01*
X1112Y4140D01*
X1113Y4140D01*
X1114Y4140D01*
X1115Y4140D01*
X1116Y4140D01*
X1117Y4140D01*
X1118Y4140D01*
X1119Y4140D01*
X1120Y4140D01*
X1121Y4140D01*
X1122Y4140D01*
X1123Y4140D01*
X1124Y4140D01*
X1125Y4140D01*
X1126Y4140D01*
X1127Y4140D01*
X1128Y4140D01*
X1129Y4140D01*
X1130Y4140D01*
X1131Y4140D01*
X1132Y4140D01*
X1133Y4140D01*
X1134Y4140D01*
X1135Y4140D01*
X1136Y4140D01*
X1137Y4140D01*
X1138Y4140D01*
X1139Y4140D01*
X1140Y4140D01*
X1141Y4140D01*
X1142Y4140D01*
X1143Y4140D01*
X1144Y4140D01*
X1145Y4140D01*
X1146Y4140D01*
X1147Y4140D01*
X1148Y4140D01*
X1149Y4140D01*
X1150Y4140D01*
X1151Y4140D01*
X1152Y4140D01*
X1153Y4140D01*
X1154Y4140D01*
X1155Y4140D01*
X1156Y4140D01*
X1157Y4140D01*
X1158Y4140D01*
X1159Y4140D01*
X1160Y4140D01*
X1161Y4140D01*
X1162Y4140D01*
X1163Y4140D01*
X1164Y4140D01*
X1165Y4140D01*
X1166Y4140D01*
X1167Y4140D01*
X1168Y4140D01*
X1169Y4140D01*
X1170Y4140D01*
X1171Y4140D01*
X1172Y4140D01*
X1173Y4140D01*
X1174Y4140D01*
X1175Y4140D01*
X1176Y4140D01*
X1177Y4140D01*
X1178Y4140D01*
X1179Y4140D01*
X1180Y4140D01*
X1181Y4140D01*
X1182Y4140D01*
X1183Y4140D01*
X1184Y4140D01*
X1185Y4140D01*
X1186Y4140D01*
X1187Y4140D01*
X1188Y4140D01*
X1189Y4140D01*
X1190Y4140D01*
X1191Y4140D01*
X1192Y4140D01*
X1193Y4140D01*
X1194Y4140D01*
X1195Y4140D01*
X1196Y4140D01*
X1197Y4140D01*
X1198Y4140D01*
X1199Y4140D01*
X1200Y4140D01*
X1201Y4140D01*
X1202Y4140D01*
X1203Y4140D01*
X1204Y4140D01*
X1205Y4140D01*
X1206Y4140D01*
X1207Y4140D01*
X1208Y4140D01*
X1209Y4140D01*
X1210Y4140D01*
X1211Y4140D01*
X1212Y4140D01*
X1213Y4140D01*
X1214Y4140D01*
X1215Y4140D01*
X1216Y4140D01*
X1217Y4140D01*
X1218Y4140D01*
X1219Y4140D01*
X1220Y4140D01*
X1221Y4140D01*
X1222Y4140D01*
X1223Y4140D01*
X1224Y4140D01*
X1225Y4140D01*
X1226Y4140D01*
X1227Y4140D01*
X1228Y4140D01*
X1229Y4140D01*
X1230Y4140D01*
X1231Y4140D01*
X1232Y4140D01*
X1233Y4140D01*
X1234Y4140D01*
X1235Y4140D01*
X1236Y4140D01*
X1237Y4140D01*
X1238Y4140D01*
X1239Y4140D01*
X1240Y4140D01*
X1241Y4140D01*
X1242Y4140D01*
X1243Y4140D01*
X1244Y4140D01*
X1245Y4140D01*
X1246Y4140D01*
X1247Y4140D01*
X1248Y4140D01*
X1249Y4140D01*
X1250Y4140D01*
X1251Y4140D01*
X1252Y4140D01*
X1253Y4140D01*
X1254Y4140D01*
X1255Y4140D01*
X1256Y4140D01*
X1257Y4140D01*
X1258Y4140D01*
X1259Y4140D01*
X1260Y4140D01*
X1261Y4140D01*
X1262Y4140D01*
X1263Y4140D01*
X1264Y4140D01*
X1265Y4140D01*
X1266Y4140D01*
X1267Y4140D01*
X1268Y4140D01*
X1269Y4140D01*
X1270Y4140D01*
X1271Y4140D01*
X1272Y4140D01*
X1273Y4140D01*
X1274Y4140D01*
X1275Y4140D01*
X1276Y4140D01*
X1277Y4140D01*
X1278Y4140D01*
X1279Y4140D01*
X1280Y4140D01*
X1281Y4140D01*
X1282Y4140D01*
X1283Y4140D01*
X1284Y4140D01*
X1285Y4140D01*
X1286Y4140D01*
X1287Y4140D01*
X1288Y4140D01*
X1289Y4140D01*
X1290Y4140D01*
X1291Y4140D01*
X1292Y4140D01*
X1293Y4140D01*
X1294Y4140D01*
X1295Y4140D01*
X1296Y4140D01*
X1297Y4140D01*
X1298Y4140D01*
X1299Y4140D01*
X1300Y4140D01*
X1301Y4140D01*
X1302Y4140D01*
X1303Y4140D01*
X1304Y4140D01*
X1305Y4140D01*
X1306Y4140D01*
X1307Y4140D01*
X1308Y4140D01*
X1309Y4140D01*
X1310Y4140D01*
X1311Y4140D01*
X1312Y4140D01*
X1313Y4140D01*
X1314Y4140D01*
X1315Y4140D01*
X1316Y4140D01*
X1317Y4140D01*
X1318Y4140D01*
X1319Y4140D01*
X1320Y4140D01*
X1321Y4140D01*
X1322Y4140D01*
X1323Y4140D01*
X1324Y4140D01*
X1325Y4140D01*
X1326Y4140D01*
X1327Y4140D01*
X1328Y4140D01*
X1329Y4140D01*
X1330Y4140D01*
X1331Y4140D01*
X1332Y4140D01*
X1333Y4140D01*
X1334Y4140D01*
X1335Y4140D01*
X1336Y4140D01*
X1337Y4140D01*
X1338Y4140D01*
X1339Y4140D01*
X1340Y4140D01*
X1341Y4140D01*
X1342Y4140D01*
X1343Y4140D01*
X1344Y4140D01*
X1345Y4140D01*
X1346Y4140D01*
X1347Y4140D01*
X1348Y4140D01*
X1349Y4140D01*
X1350Y4140D01*
X1351Y4140D01*
X1352Y4140D01*
X1353Y4140D01*
X1354Y4140D01*
X1355Y4140D01*
X1356Y4140D01*
X1357Y4140D01*
X1358Y4140D01*
X1359Y4140D01*
X1360Y4140D01*
X1361Y4140D01*
X1362Y4140D01*
X1363Y4140D01*
X1364Y4140D01*
X1365Y4140D01*
X1366Y4140D01*
X1367Y4140D01*
X1368Y4140D01*
X1369Y4140D01*
X1370Y4140D01*
X1371Y4140D01*
X1372Y4140D01*
X1373Y4140D01*
X1374Y4140D01*
X1375Y4140D01*
X1376Y4140D01*
X1377Y4140D01*
X1378Y4140D01*
X1379Y4140D01*
X1380Y4140D01*
X1381Y4140D01*
X1382Y4140D01*
X1383Y4140D01*
X1384Y4140D01*
X1385Y4140D01*
X1386Y4140D01*
X1387Y4140D01*
X1388Y4140D01*
X1389Y4140D01*
X1390Y4140D01*
X1391Y4140D01*
X1392Y4140D01*
X1393Y4140D01*
X1394Y4140D01*
X1395Y4140D01*
X1396Y4140D01*
X1397Y4140D01*
X1398Y4140D01*
X1399Y4140D01*
X1400Y4140D01*
X1401Y4140D01*
X1402Y4140D01*
X1403Y4140D01*
X1404Y4140D01*
X1405Y4140D01*
X1406Y4140D01*
X1407Y4140D01*
X1408Y4140D01*
X1409Y4140D01*
X1410Y4140D01*
X1411Y4140D01*
X1412Y4140D01*
X1413Y4140D01*
X1414Y4140D01*
X1415Y4140D01*
X1416Y4140D01*
X1417Y4140D01*
X1418Y4140D01*
X1419Y4140D01*
X1420Y4140D01*
X1421Y4140D01*
X1422Y4140D01*
X1423Y4140D01*
X1424Y4140D01*
X1425Y4140D01*
X1426Y4140D01*
X1427Y4140D01*
X1428Y4140D01*
X1429Y4140D01*
X1430Y4140D01*
X1431Y4140D01*
X1432Y4140D01*
X1433Y4140D01*
X1434Y4140D01*
X1435Y4140D01*
X1436Y4140D01*
X1437Y4140D01*
X1438Y4140D01*
X1439Y4140D01*
X1440Y4140D01*
X1441Y4140D01*
X1442Y4140D01*
X1443Y4140D01*
X1444Y4140D01*
X1445Y4140D01*
X1446Y4140D01*
X1447Y4140D01*
X1448Y4140D01*
X1449Y4140D01*
X1450Y4140D01*
X1451Y4140D01*
X1452Y4140D01*
X1453Y4140D01*
X1454Y4140D01*
X1455Y4140D01*
X1456Y4140D01*
X1457Y4140D01*
X1458Y4140D01*
X1459Y4140D01*
X1460Y4140D01*
X1461Y4140D01*
X1462Y4140D01*
X1463Y4140D01*
X1464Y4140D01*
X1465Y4140D01*
X1466Y4140D01*
X1467Y4140D01*
X1468Y4140D01*
X1469Y4140D01*
X1470Y4140D01*
X1471Y4140D01*
X1472Y4140D01*
X1473Y4140D01*
X1474Y4140D01*
X1475Y4140D01*
X1476Y4140D01*
X1477Y4140D01*
X1478Y4140D01*
X1479Y4140D01*
X1480Y4140D01*
X1481Y4140D01*
X1482Y4140D01*
X1483Y4140D01*
X1484Y4140D01*
X1485Y4140D01*
X1486Y4140D01*
X1487Y4140D01*
X1488Y4140D01*
X1489Y4140D01*
X1490Y4140D01*
X1491Y4140D01*
X1492Y4140D01*
X1493Y4140D01*
X1494Y4140D01*
X1495Y4140D01*
X1496Y4140D01*
X1497Y4140D01*
X1498Y4140D01*
X1499Y4140D01*
X1500Y4140D01*
X1501Y4140D01*
X1502Y4140D01*
X1503Y4140D01*
X1504Y4140D01*
X1505Y4140D01*
X1506Y4140D01*
X1507Y4140D01*
X1508Y4140D01*
X1509Y4140D01*
X1510Y4140D01*
X1511Y4140D01*
X1512Y4140D01*
X1513Y4140D01*
X1514Y4140D01*
X1515Y4140D01*
X1516Y4140D01*
X1517Y4140D01*
X1518Y4140D01*
X1519Y4140D01*
X1520Y4140D01*
X1521Y4140D01*
X1522Y4140D01*
X1523Y4140D01*
X1524Y4140D01*
X1525Y4140D01*
X1526Y4140D01*
X1527Y4140D01*
X1528Y4140D01*
X1529Y4140D01*
X1530Y4140D01*
X1531Y4140D01*
X1532Y4140D01*
X1533Y4140D01*
X1534Y4140D01*
X1535Y4140D01*
X1536Y4140D01*
X1537Y4140D01*
X1538Y4140D01*
X1539Y4140D01*
X1540Y4140D01*
X1541Y4140D01*
X1542Y4140D01*
X1543Y4140D01*
X1544Y4140D01*
X1545Y4140D01*
X1546Y4140D01*
X1547Y4140D01*
X1548Y4140D01*
X1549Y4140D01*
X1550Y4140D01*
X1551Y4140D01*
X1552Y4140D01*
X1553Y4140D01*
X1554Y4140D01*
X1555Y4140D01*
X1556Y4140D01*
X1557Y4140D01*
X1558Y4140D01*
X1559Y4140D01*
X1560Y4140D01*
X1561Y4140D01*
X1562Y4140D01*
X1563Y4140D01*
X1564Y4140D01*
X1565Y4140D01*
X1566Y4140D01*
X1567Y4140D01*
X1568Y4140D01*
X1569Y4140D01*
X1570Y4140D01*
X1571Y4140D01*
X1572Y4140D01*
X1573Y4140D01*
X1574Y4140D01*
X1575Y4140D01*
X1576Y4140D01*
X1577Y4140D01*
X1578Y4140D01*
X1579Y4140D01*
X1580Y4140D01*
X1581Y4140D01*
X1582Y4140D01*
X1583Y4140D01*
X1584Y4140D01*
X1585Y4140D01*
X1586Y4140D01*
X1587Y4140D01*
X1588Y4140D01*
X1589Y4140D01*
X1590Y4140D01*
X1591Y4140D01*
X1592Y4140D01*
X1593Y4140D01*
X1594Y4140D01*
X1595Y4140D01*
X1596Y4140D01*
X1597Y4140D01*
X1598Y4140D01*
X1599Y4140D01*
X1600Y4140D01*
X1601Y4140D01*
X1602Y4140D01*
X1603Y4140D01*
X1604Y4140D01*
X1605Y4140D01*
X1606Y4140D01*
X1607Y4140D01*
X1608Y4140D01*
X1609Y4140D01*
X1610Y4140D01*
X1611Y4140D01*
X1612Y4140D01*
X1613Y4140D01*
X1614Y4140D01*
X1615Y4140D01*
X1616Y4140D01*
X1617Y4140D01*
X1618Y4140D01*
X1619Y4140D01*
X1620Y4140D01*
X1621Y4140D01*
X1622Y4140D01*
X1623Y4140D01*
X1624Y4140D01*
X1625Y4140D01*
X1626Y4140D01*
X1627Y4140D01*
X1628Y4140D01*
X1629Y4140D01*
X1630Y4140D01*
X1631Y4140D01*
X1632Y4140D01*
X1633Y4140D01*
X1634Y4140D01*
X1635Y4140D01*
X1636Y4140D01*
X1637Y4140D01*
X1638Y4140D01*
X1639Y4140D01*
X1640Y4140D01*
X1641Y4140D01*
X1642Y4140D01*
X1643Y4140D01*
X1644Y4140D01*
X1645Y4140D01*
X1646Y4140D01*
X1647Y4140D01*
X1648Y4140D01*
X1649Y4140D01*
X1650Y4140D01*
X1651Y4140D01*
X1652Y4140D01*
X1653Y4140D01*
X1654Y4140D01*
X1655Y4140D01*
X1656Y4140D01*
X1657Y4140D01*
X1658Y4140D01*
X1659Y4140D01*
X1660Y4140D01*
X1661Y4140D01*
X1662Y4140D01*
X1663Y4140D01*
X1664Y4140D01*
X1665Y4140D01*
X1666Y4140D01*
X1667Y4140D01*
X1668Y4140D01*
X1669Y4140D01*
X1670Y4140D01*
X1671Y4140D01*
X1672Y4140D01*
X1673Y4140D01*
X1674Y4140D01*
X1675Y4140D01*
X1676Y4140D01*
X1677Y4140D01*
X1678Y4140D01*
X1679Y4140D01*
X1680Y4140D01*
X1681Y4140D01*
X1682Y4140D01*
X1683Y4140D01*
X1684Y4140D01*
X1685Y4140D01*
X1686Y4140D01*
X1687Y4140D01*
X1688Y4140D01*
X1689Y4140D01*
X1690Y4140D01*
X1691Y4140D01*
X1692Y4140D01*
X1693Y4140D01*
X1694Y4140D01*
X1695Y4140D01*
X1696Y4140D01*
X1697Y4140D01*
X1698Y4140D01*
X1699Y4140D01*
X1700Y4140D01*
X1701Y4140D01*
X1702Y4140D01*
X1703Y4140D01*
X1704Y4140D01*
X1705Y4140D01*
X1706Y4140D01*
X1707Y4140D01*
X1708Y4140D01*
X1709Y4140D01*
X1710Y4140D01*
X1711Y4140D01*
X1712Y4140D01*
X1713Y4140D01*
X1714Y4140D01*
X1715Y4140D01*
X1716Y4140D01*
X1717Y4140D01*
X1718Y4140D01*
X1719Y4140D01*
X1720Y4140D01*
X1721Y4140D01*
X1722Y4140D01*
X1723Y4140D01*
X1724Y4140D01*
X1725Y4140D01*
X1726Y4140D01*
X1727Y4140D01*
X1728Y4140D01*
X1729Y4140D01*
X1730Y4140D01*
X1731Y4140D01*
X1732Y4140D01*
X1733Y4140D01*
X1734Y4140D01*
X1735Y4140D01*
X1736Y4140D01*
X1737Y4140D01*
X1738Y4140D01*
X1739Y4140D01*
X1740Y4140D01*
X1741Y4140D01*
X1742Y4140D01*
X1743Y4140D01*
X1744Y4140D01*
X1745Y4140D01*
X1746Y4140D01*
X1747Y4140D01*
X1748Y4140D01*
X1749Y4140D01*
X1750Y4140D01*
X1751Y4140D01*
X1752Y4140D01*
X1753Y4140D01*
X1754Y4140D01*
X1755Y4140D01*
X1756Y4140D01*
X1757Y4140D01*
X1758Y4140D01*
X1759Y4140D01*
X1760Y4140D01*
X1761Y4140D01*
X1762Y4140D01*
X1763Y4140D01*
X1764Y4140D01*
X1765Y4140D01*
X1766Y4140D01*
X1767Y4140D01*
X1768Y4140D01*
X1769Y4140D01*
X1770Y4140D01*
X1771Y4140D01*
X1772Y4140D01*
X1773Y4140D01*
X1774Y4140D01*
X1775Y4140D01*
X1776Y4140D01*
X1777Y4140D01*
X1778Y4140D01*
X1779Y4140D01*
X1780Y4140D01*
X1781Y4140D01*
X1782Y4140D01*
X1783Y4140D01*
X1784Y4140D01*
X1785Y4140D01*
X1786Y4140D01*
X1787Y4140D01*
X1788Y4140D01*
X1789Y4140D01*
X1790Y4140D01*
X1791Y4140D01*
X1792Y4140D01*
X1793Y4140D01*
X1794Y4140D01*
X1795Y4140D01*
X1796Y4140D01*
X1797Y4140D01*
X1798Y4140D01*
X1799Y4140D01*
X1800Y4140D01*
X1801Y4140D01*
X1802Y4140D01*
X1803Y4140D01*
X1804Y4140D01*
X1805Y4140D01*
X1806Y4140D01*
X1807Y4140D01*
X1808Y4140D01*
X1809Y4140D01*
X1810Y4140D01*
X1811Y4140D01*
X1812Y4140D01*
X1813Y4140D01*
X1814Y4140D01*
X1815Y4140D01*
X1816Y4140D01*
X1817Y4140D01*
X1818Y4140D01*
X1819Y4140D01*
X1820Y4140D01*
X1821Y4140D01*
X1822Y4140D01*
X1823Y4140D01*
X1824Y4140D01*
X1825Y4140D01*
X1826Y4140D01*
X1827Y4140D01*
X1828Y4140D01*
X1829Y4140D01*
X1830Y4140D01*
X1831Y4140D01*
X1832Y4140D01*
X1833Y4140D01*
X1834Y4140D01*
X1835Y4140D01*
X1836Y4140D01*
X1837Y4140D01*
X1838Y4140D01*
X1839Y4140D01*
X1840Y4140D01*
X1841Y4140D01*
X1842Y4140D01*
X1843Y4140D01*
X1844Y4140D01*
X1845Y4140D01*
X1846Y4140D01*
X1847Y4140D01*
X1848Y4140D01*
X1849Y4140D01*
X1850Y4140D01*
X1851Y4140D01*
X1852Y4140D01*
X1853Y4140D01*
X1854Y4140D01*
X1855Y4140D01*
X1856Y4140D01*
X1857Y4140D01*
X1858Y4140D01*
X1859Y4140D01*
X1860Y4140D01*
X1861Y4140D01*
X1862Y4140D01*
X1863Y4140D01*
X1864Y4140D01*
X1865Y4140D01*
X1866Y4140D01*
X1867Y4140D01*
X1868Y4140D01*
X1869Y4140D01*
X1870Y4140D01*
X1871Y4140D01*
X1872Y4140D01*
X1873Y4140D01*
X1874Y4140D01*
X1875Y4140D01*
X1876Y4140D01*
X1877Y4140D01*
X1878Y4140D01*
X1879Y4140D01*
X1880Y4140D01*
X1881Y4140D01*
X1882Y4140D01*
X1883Y4140D01*
X1884Y4140D01*
X1885Y4140D01*
X1886Y4140D01*
X1887Y4140D01*
X1888Y4140D01*
X1889Y4140D01*
X1890Y4140D01*
X1891Y4140D01*
X1892Y4140D01*
X1893Y4140D01*
X1894Y4140D01*
X1895Y4140D01*
X1896Y4140D01*
X1897Y4140D01*
X1898Y4140D01*
X1899Y4140D01*
X1900Y4140D01*
X1901Y4140D01*
X1902Y4140D01*
X1903Y4140D01*
X1904Y4140D01*
X1905Y4140D01*
X1906Y4140D01*
X1907Y4140D01*
X1908Y4140D01*
X1909Y4140D01*
X1910Y4140D01*
X1911Y4140D01*
X1912Y4140D01*
X1913Y4140D01*
X1914Y4140D01*
X1915Y4140D01*
X1916Y4140D01*
X1917Y4140D01*
X1918Y4140D01*
X1919Y4140D01*
X1920Y4140D01*
X1921Y4140D01*
X1922Y4140D01*
X1923Y4140D01*
X1924Y4140D01*
X1925Y4140D01*
X1926Y4140D01*
X1927Y4140D01*
X1928Y4140D01*
X1929Y4140D01*
X1930Y4140D01*
X1931Y4140D01*
X1932Y4140D01*
X1933Y4140D01*
X1934Y4140D01*
X1935Y4140D01*
X1936Y4140D01*
X1937Y4140D01*
X1938Y4140D01*
X1939Y4140D01*
X1940Y4140D01*
X1941Y4140D01*
X1942Y4140D01*
X1943Y4140D01*
X1944Y4140D01*
X1945Y4140D01*
X1946Y4140D01*
X1947Y4140D01*
X1948Y4140D01*
X1949Y4140D01*
X1950Y4140D01*
X1951Y4140D01*
X1952Y4140D01*
X1953Y4140D01*
X1954Y4140D01*
X1955Y4140D01*
X1956Y4140D01*
X1957Y4140D01*
X1958Y4140D01*
X1959Y4140D01*
X1960Y4140D01*
X1961Y4140D01*
X1962Y4140D01*
X1963Y4140D01*
X1964Y4140D01*
X1965Y4140D01*
X1966Y4140D01*
X1967Y4140D01*
X1968Y4140D01*
X1969Y4140D01*
X1970Y4140D01*
X1971Y4140D01*
X1972Y4140D01*
X1973Y4140D01*
X1974Y4140D01*
X1975Y4140D01*
X1976Y4140D01*
X1977Y4140D01*
X1978Y4140D01*
X1979Y4140D01*
X1980Y4140D01*
X1981Y4140D01*
X1982Y4140D01*
X1983Y4140D01*
X1984Y4140D01*
X1985Y4140D01*
X1986Y4140D01*
X1987Y4140D01*
X1988Y4140D01*
X1989Y4140D01*
X1990Y4140D01*
X1991Y4140D01*
X1992Y4140D01*
X1993Y4140D01*
X1994Y4140D01*
X1995Y4140D01*
X1996Y4140D01*
X1997Y4140D01*
X1998Y4140D01*
X1999Y4140D01*
X2000Y4140D01*
X2001Y4140D01*
X2002Y4140D01*
X2003Y4140D01*
X2004Y4140D01*
X2005Y4140D01*
X2006Y4140D01*
X2007Y4140D01*
X2008Y4140D01*
X2009Y4140D01*
X2010Y4140D01*
X2011Y4140D01*
X2012Y4140D01*
X2013Y4140D01*
X2014Y4140D01*
X2015Y4140D01*
X2016Y4140D01*
X2017Y4140D01*
X2018Y4140D01*
X2019Y4140D01*
X2020Y4140D01*
X2021Y4140D01*
X2022Y4140D01*
X2023Y4140D01*
X2024Y4140D01*
X2025Y4140D01*
X2026Y4140D01*
X2027Y4140D01*
X2028Y4140D01*
X2029Y4140D01*
X2030Y4140D01*
X2031Y4140D01*
X2032Y4140D01*
X2033Y4140D01*
X2034Y4140D01*
X2035Y4140D01*
X2036Y4140D01*
X2037Y4140D01*
X2038Y4140D01*
X2039Y4140D01*
X2040Y4140D01*
X2041Y4140D01*
X2042Y4140D01*
X2043Y4140D01*
X2044Y4140D01*
X2045Y4140D01*
X2046Y4140D01*
X2047Y4140D01*
X2048Y4140D01*
X2049Y4140D01*
X2050Y4140D01*
X2051Y4140D01*
X2052Y4140D01*
X2053Y4140D01*
X2054Y4140D01*
X2055Y4140D01*
X2056Y4140D01*
X2057Y4140D01*
X2058Y4140D01*
X2059Y4140D01*
X2060Y4140D01*
X2061Y4140D01*
X2062Y4140D01*
X2063Y4140D01*
X2064Y4140D01*
X2065Y4140D01*
X2066Y4140D01*
X2067Y4140D01*
X2068Y4140D01*
X2069Y4140D01*
X2070Y4140D01*
X2071Y4140D01*
X2072Y4140D01*
X2073Y4140D01*
X2074Y4140D01*
X2075Y4140D01*
X2076Y4140D01*
X2077Y4140D01*
X2078Y4140D01*
X2079Y4140D01*
X2080Y4140D01*
X2081Y4140D01*
X2082Y4140D01*
X2083Y4140D01*
X2084Y4140D01*
X2085Y4140D01*
X2086Y4140D01*
X2087Y4140D01*
X2088Y4140D01*
X2089Y4140D01*
X2090Y4140D01*
X2091Y4140D01*
X2092Y4140D01*
X2093Y4140D01*
X2094Y4140D01*
X2095Y4140D01*
X2096Y4140D01*
X2097Y4140D01*
X2098Y4140D01*
X2099Y4140D01*
X2100Y4140D01*
X2101Y4140D01*
X2102Y4140D01*
X2103Y4140D01*
X2104Y4140D01*
X2105Y4140D01*
X2106Y4140D01*
X2107Y4140D01*
X2108Y4140D01*
X2109Y4140D01*
X2110Y4140D01*
X2111Y4140D01*
X2112Y4140D01*
X2113Y4140D01*
X2114Y4140D01*
X2115Y4140D01*
X2116Y4140D01*
X2117Y4140D01*
X2118Y4140D01*
X2119Y4140D01*
X2120Y4140D01*
X2121Y4140D01*
X2122Y4140D01*
X2123Y4140D01*
X2124Y4140D01*
X2125Y4140D01*
X2126Y4140D01*
X2127Y4140D01*
X2128Y4140D01*
X2129Y4140D01*
X2130Y4140D01*
X2131Y4140D01*
X2132Y4140D01*
X2133Y4140D01*
X2134Y4140D01*
X2135Y4140D01*
X2136Y4140D01*
X2137Y4140D01*
X2138Y4140D01*
X2139Y4140D01*
X2140Y4140D01*
X2141Y4140D01*
X2142Y4140D01*
X2143Y4140D01*
X2144Y4140D01*
X2145Y4140D01*
X2146Y4140D01*
X2147Y4140D01*
X2148Y4140D01*
X2149Y4140D01*
X2150Y4140D01*
X2151Y4140D01*
X2152Y4140D01*
X2153Y4140D01*
X2154Y4140D01*
X2155Y4140D01*
X2156Y4140D01*
X2157Y4140D01*
X2158Y4140D01*
X2159Y4140D01*
X2160Y4140D01*
X2161Y4140D01*
X2162Y4140D01*
X2163Y4140D01*
X2164Y4140D01*
X2165Y4140D01*
X2166Y4140D01*
X2167Y4140D01*
X2168Y4140D01*
X2169Y4140D01*
X2170Y4140D01*
X2171Y4140D01*
X2172Y4140D01*
X2173Y4140D01*
X2174Y4140D01*
X2175Y4140D01*
X2176Y4140D01*
X2177Y4140D01*
X2178Y4140D01*
X2179Y4140D01*
X2180Y4140D01*
X2181Y4140D01*
X2182Y4140D01*
X2183Y4140D01*
X2184Y4140D01*
X2185Y4140D01*
X2186Y4140D01*
X2187Y4140D01*
X2188Y4140D01*
X2189Y4140D01*
X2190Y4140D01*
X2191Y4140D01*
X2192Y4140D01*
X2193Y4140D01*
X2194Y4140D01*
X2195Y4140D01*
X2196Y4140D01*
X2197Y4140D01*
X2198Y4140D01*
X2199Y4140D01*
X2200Y4140D01*
X2201Y4140D01*
X2202Y4140D01*
X2203Y4140D01*
X2204Y4140D01*
X2205Y4140D01*
X2206Y4140D01*
X2207Y4140D01*
X2208Y4140D01*
X2209Y4140D01*
X2210Y4140D01*
X2211Y4140D01*
X2212Y4140D01*
X2213Y4140D01*
X2214Y4140D01*
X2215Y4140D01*
X2216Y4140D01*
X2217Y4140D01*
X2218Y4140D01*
X2219Y4140D01*
X2220Y4140D01*
X2221Y4140D01*
X2222Y4140D01*
X2223Y4140D01*
X2224Y4140D01*
X2225Y4140D01*
X2226Y4140D01*
X2227Y4140D01*
X2228Y4140D01*
X2229Y4140D01*
X2230Y4140D01*
X2231Y4140D01*
X2232Y4140D01*
X2233Y4140D01*
X2234Y4140D01*
X2235Y4140D01*
X2236Y4140D01*
X2237Y4140D01*
X2238Y4140D01*
X2239Y4140D01*
X2240Y4140D01*
X2241Y4140D01*
X2242Y4140D01*
X2243Y4140D01*
X2244Y4140D01*
X2245Y4140D01*
X2246Y4140D01*
X2247Y4140D01*
X2248Y4140D01*
X2249Y4140D01*
X2250Y4140D01*
X2251Y4140D01*
X2252Y4140D01*
X2253Y4140D01*
X2254Y4140D01*
X2255Y4140D01*
X2256Y4140D01*
X2257Y4140D01*
X2258Y4140D01*
X2259Y4140D01*
X2260Y4140D01*
X2261Y4140D01*
X2262Y4140D01*
X2263Y4140D01*
X2264Y4140D01*
X2265Y4140D01*
X2266Y4140D01*
X2267Y4140D01*
X2268Y4140D01*
X2269Y4140D01*
X2270Y4140D01*
X2271Y4140D01*
X2272Y4140D01*
X2273Y4140D01*
X2274Y4140D01*
X2275Y4140D01*
X2276Y4140D01*
X2277Y4140D01*
X2278Y4140D01*
X2279Y4140D01*
X2280Y4140D01*
X2281Y4140D01*
X2282Y4140D01*
X2283Y4140D01*
X2284Y4140D01*
X2285Y4140D01*
X2286Y4140D01*
X2287Y4140D01*
X2288Y4140D01*
X2289Y4140D01*
X2290Y4140D01*
X2291Y4140D01*
X2292Y4140D01*
X2293Y4140D01*
X2294Y4140D01*
X2295Y4140D01*
X2296Y4140D01*
X2297Y4140D01*
X2298Y4140D01*
X2299Y4140D01*
X2300Y4140D01*
X2301Y4140D01*
X2302Y4140D01*
X2303Y4140D01*
X2304Y4140D01*
X2305Y4140D01*
X2306Y4140D01*
X2307Y4140D01*
X2308Y4140D01*
X2309Y4140D01*
X2310Y4140D01*
X2311Y4140D01*
X2312Y4140D01*
X2313Y4140D01*
X2314Y4140D01*
X2315Y4140D01*
X2316Y4140D01*
X2317Y4140D01*
X2318Y4140D01*
X2319Y4140D01*
X2320Y4140D01*
X2321Y4140D01*
X2322Y4140D01*
X2323Y4140D01*
X2324Y4140D01*
X2325Y4140D01*
X2326Y4140D01*
X2327Y4140D01*
X2328Y4140D01*
X2329Y4140D01*
X2330Y4140D01*
X2331Y4140D01*
X2332Y4140D01*
X2333Y4140D01*
X2334Y4140D01*
X2335Y4140D01*
X2336Y4140D01*
X2337Y4140D01*
X2338Y4140D01*
X2339Y4140D01*
X2340Y4140D01*
X2341Y4140D01*
X2342Y4140D01*
X2343Y4140D01*
X2344Y4140D01*
X2345Y4140D01*
X2346Y4140D01*
X2347Y4140D01*
X2348Y4140D01*
X2349Y4140D01*
X2350Y4140D01*
X2351Y4140D01*
X2352Y4140D01*
X2353Y4140D01*
X2354Y4140D01*
X2355Y4140D01*
X2356Y4140D01*
X2357Y4140D01*
X2358Y4140D01*
X2359Y4140D01*
X2360Y4140D01*
X2361Y4140D01*
X2362Y4140D01*
X2363Y4140D01*
X2364Y4140D01*
X2365Y4140D01*
X2366Y4140D01*
X2367Y4140D01*
X2368Y4140D01*
X2369Y4140D01*
X2370Y4140D01*
X2371Y4140D01*
X2372Y4140D01*
X2373Y4140D01*
X2374Y4140D01*
X2375Y4140D01*
X2376Y4140D01*
X2377Y4140D01*
X2378Y4140D01*
X2379Y4140D01*
X2380Y4140D01*
X2381Y4140D01*
X2382Y4140D01*
X2383Y4140D01*
X2384Y4140D01*
X2385Y4140D01*
X2386Y4140D01*
X2387Y4140D01*
X2388Y4140D01*
X2389Y4140D01*
X2390Y4140D01*
X2391Y4140D01*
X2392Y4140D01*
X2393Y4140D01*
X2394Y4140D01*
X2395Y4140D01*
X2396Y4140D01*
X2397Y4140D01*
X2398Y4140D01*
X2399Y4140D01*
X2400Y4140D01*
X2401Y4140D01*
X2402Y4140D01*
X2403Y4140D01*
X2404Y4140D01*
X2405Y4140D01*
X2406Y4140D01*
X2407Y4140D01*
X2408Y4140D01*
X2409Y4140D01*
X2410Y4140D01*
X2411Y4140D01*
X2412Y4140D01*
X2413Y4140D01*
X2414Y4140D01*
X2415Y4140D01*
X2416Y4140D01*
X2417Y4140D01*
X2418Y4140D01*
X2419Y4140D01*
X2420Y4140D01*
X2421Y4140D01*
X2422Y4140D01*
X2423Y4140D01*
X2424Y4140D01*
X2425Y4140D01*
X2426Y4140D01*
X2427Y4140D01*
X2428Y4140D01*
X2429Y4140D01*
X2430Y4140D01*
X2431Y4140D01*
X2432Y4140D01*
X2433Y4140D01*
X2434Y4140D01*
X2435Y4140D01*
X2436Y4140D01*
X2437Y4140D01*
X2438Y4140D01*
X2439Y4140D01*
X2440Y4140D01*
X2441Y4140D01*
X2442Y4140D01*
X2443Y4140D01*
X2444Y4140D01*
X2445Y4140D01*
X2446Y4140D01*
X2447Y4140D01*
X2448Y4140D01*
X2449Y4140D01*
X2450Y4140D01*
X2451Y4140D01*
X2452Y4140D01*
X2453Y4140D01*
X2454Y4140D01*
X2455Y4140D01*
X2456Y4140D01*
X2457Y4140D01*
X2458Y4140D01*
X2459Y4140D01*
X2460Y4140D01*
X2461Y4140D01*
X2462Y4140D01*
X2463Y4140D01*
X2464Y4140D01*
X2465Y4140D01*
X2466Y4140D01*
X2467Y4140D01*
X2468Y4140D01*
X2469Y4140D01*
X2470Y4140D01*
X2471Y4140D01*
X2472Y4140D01*
X2473Y4140D01*
X2474Y4140D01*
X2475Y4140D01*
X2476Y4140D01*
X2477Y4140D01*
X2478Y4140D01*
X2479Y4140D01*
X2480Y4140D01*
X2481Y4140D01*
X2482Y4140D01*
X2483Y4140D01*
X2484Y4140D01*
X2485Y4140D01*
X2486Y4140D01*
X2487Y4140D01*
X2488Y4140D01*
X2489Y4140D01*
X2490Y4140D01*
X2491Y4140D01*
X2492Y4140D01*
X2493Y4140D01*
X2494Y4140D01*
X2495Y4140D01*
X2496Y4140D01*
X2497Y4140D01*
X2498Y4140D01*
X2499Y4140D01*
X2500Y4140D01*
X2501Y4140D01*
X2502Y4140D01*
X2503Y4140D01*
X2504Y4140D01*
X2505Y4140D01*
X2506Y4140D01*
X2507Y4140D01*
X2508Y4140D01*
X2509Y4140D01*
X2510Y4140D01*
X2511Y4140D01*
X2512Y4140D01*
X2513Y4140D01*
X2514Y4140D01*
X2515Y4140D01*
X2516Y4140D01*
X2517Y4140D01*
X2518Y4140D01*
X2519Y4140D01*
X2520Y4140D01*
X2521Y4140D01*
X2522Y4140D01*
X2523Y4140D01*
X2524Y4140D01*
X2525Y4140D01*
X2526Y4140D01*
X2527Y4140D01*
X2528Y4140D01*
X2529Y4140D01*
X2530Y4140D01*
X2531Y4140D01*
X2532Y4140D01*
X2533Y4140D01*
X2534Y4140D01*
X2535Y4140D01*
X2536Y4140D01*
X2537Y4140D01*
X2538Y4140D01*
X2539Y4140D01*
X2540Y4140D01*
X2541Y4140D01*
X2542Y4140D01*
X2543Y4140D01*
X2544Y4140D01*
X2545Y4140D01*
X2546Y4140D01*
X2547Y4140D01*
X2548Y4140D01*
X2549Y4140D01*
X2550Y4140D01*
X2551Y4140D01*
X2552Y4140D01*
X2553Y4140D01*
X2554Y4140D01*
X2555Y4140D01*
X2556Y4140D01*
X2557Y4140D01*
X2558Y4140D01*
X2559Y4140D01*
X2560Y4140D01*
X2561Y4140D01*
X2562Y4140D01*
X2563Y4140D01*
X2564Y4140D01*
X2565Y4140D01*
X2566Y4140D01*
X2567Y4140D01*
X2568Y4140D01*
X2569Y4140D01*
X2570Y4140D01*
X2571Y4140D01*
X2572Y4140D01*
X2573Y4140D01*
X2574Y4140D01*
X2575Y4140D01*
X2576Y4140D01*
X2577Y4140D01*
X2578Y4140D01*
X2579Y4140D01*
X2580Y4140D01*
X2581Y4140D01*
X2582Y4140D01*
X2583Y4140D01*
X2584Y4140D01*
X2585Y4140D01*
X2586Y4140D01*
X2587Y4140D01*
X2588Y4140D01*
X2589Y4140D01*
X2590Y4140D01*
X2591Y4140D01*
X2592Y4140D01*
X2593Y4140D01*
X2594Y4140D01*
X2595Y4140D01*
X2596Y4140D01*
X2597Y4140D01*
X2598Y4140D01*
X2599Y4140D01*
X2600Y4140D01*
X2601Y4140D01*
X2602Y4140D01*
X2603Y4140D01*
X2604Y4140D01*
X2605Y4140D01*
X2606Y4140D01*
X2607Y4140D01*
X2608Y4140D01*
X2609Y4140D01*
X2610Y4140D01*
X2611Y4140D01*
X2612Y4140D01*
X2613Y4140D01*
X2614Y4140D01*
X2615Y4140D01*
X2616Y4140D01*
X2617Y4140D01*
X2618Y4140D01*
X2619Y4140D01*
X2620Y4140D01*
X2621Y4140D01*
X2622Y4140D01*
X2623Y4140D01*
X2624Y4140D01*
X2625Y4140D01*
X2626Y4140D01*
X2627Y4140D01*
X2628Y4140D01*
X2629Y4140D01*
X2630Y4140D01*
X2631Y4140D01*
X2632Y4140D01*
X2633Y4140D01*
X2634Y4140D01*
X2635Y4140D01*
X2636Y4140D01*
X2637Y4140D01*
X2638Y4140D01*
X2639Y4140D01*
X2640Y4140D01*
X2641Y4140D01*
X2642Y4140D01*
X2643Y4140D01*
X2644Y4140D01*
X2645Y4140D01*
X2646Y4140D01*
X2647Y4140D01*
X2648Y4140D01*
X2649Y4140D01*
X2650Y4140D01*
X2651Y4140D01*
X2652Y4140D01*
X2653Y4140D01*
X2654Y4140D01*
X2655Y4140D01*
X2656Y4140D01*
X2657Y4140D01*
X2658Y4140D01*
X2659Y4140D01*
X2660Y4140D01*
X2661Y4140D01*
X2662Y4140D01*
X2663Y4140D01*
X2664Y4140D01*
X2665Y4140D01*
X2666Y4140D01*
X2667Y4140D01*
X2668Y4140D01*
X2669Y4140D01*
X2670Y4140D01*
X2671Y4140D01*
X2672Y4140D01*
X2673Y4140D01*
X2674Y4140D01*
X2675Y4140D01*
X2676Y4140D01*
X2677Y4140D01*
X2678Y4140D01*
X2679Y4140D01*
X2680Y4140D01*
X2681Y4140D01*
X2682Y4140D01*
X2683Y4140D01*
X2684Y4140D01*
X2685Y4140D01*
X2686Y4140D01*
X2687Y4140D01*
X2688Y4140D01*
X2689Y4140D01*
X2690Y4140D01*
X2691Y4140D01*
X2692Y4140D01*
X2693Y4140D01*
X2694Y4140D01*
X2695Y4140D01*
X2696Y4140D01*
X2697Y4140D01*
X2698Y4140D01*
X2699Y4140D01*
X2700Y4140D01*
X2701Y4140D01*
X2702Y4140D01*
X2703Y4140D01*
X2704Y4140D01*
X2705Y4140D01*
X2706Y4140D01*
X2707Y4140D01*
X2708Y4140D01*
X2709Y4140D01*
X2710Y4140D01*
X2711Y4140D01*
X2712Y4140D01*
X2713Y4140D01*
X2714Y4140D01*
X2715Y4140D01*
X2716Y4140D01*
X2717Y4140D01*
X2718Y4140D01*
X2719Y4140D01*
X2720Y4140D01*
X2721Y4140D01*
X2722Y4140D01*
X2723Y4140D01*
X2724Y4140D01*
X2725Y4140D01*
X2726Y4140D01*
X2727Y4140D01*
X2728Y4140D01*
X2729Y4139D01*
X2730Y4139D01*
X2731Y4139D01*
X2732Y4139D01*
X2733Y4139D01*
X2734Y4138D01*
X2735Y4138D01*
X2736Y4138D01*
X2737Y4137D01*
X2738Y4137D01*
X2739Y4136D01*
X2740Y4136D01*
X2741Y4135D01*
X2742Y4135D01*
X2743Y4134D01*
X2744Y4134D01*
X2745Y4133D01*
X2746Y4132D01*
X2747Y4131D01*
X2748Y4130D01*
X2749Y4130D01*
X2750Y4129D01*
X2751Y4128D01*
X2751Y4127D01*
X2752Y4126D01*
X2753Y4125D01*
X2754Y4124D01*
X2755Y4123D01*
X2755Y4122D01*
X2756Y4121D01*
X2756Y4120D01*
X2757Y4119D01*
X2757Y4118D01*
X2758Y4117D01*
X2758Y4116D01*
X2759Y4115D01*
X2759Y4113D01*
X2760Y4112D01*
X2760Y4109D01*
X2761Y4108D01*
X2761Y3801D01*
X2762Y3800D01*
X2762Y3796D01*
X2763Y3795D01*
X2763Y3793D01*
X2764Y3792D01*
X2764Y3791D01*
X2765Y3790D01*
X2765Y3788D01*
X2766Y3787D01*
X2767Y3786D01*
X2767Y3785D01*
X2768Y3784D01*
X2769Y3783D01*
X2769Y3782D01*
X2770Y3781D01*
X2771Y3780D01*
X2772Y3779D01*
X2773Y3778D01*
X2774Y3777D01*
X2775Y3776D01*
X2776Y3775D01*
X2777Y3774D01*
X2778Y3774D01*
X2779Y3773D01*
X2780Y3772D01*
X2781Y3772D01*
X2782Y3771D01*
X2783Y3770D01*
X2784Y3770D01*
X2785Y3769D01*
X2786Y3769D01*
X2787Y3769D01*
X2788Y3768D01*
X2789Y3768D01*
X2790Y3768D01*
X2791Y3767D01*
X2792Y3767D01*
X2793Y3767D01*
X2794Y3767D01*
X2795Y3767D01*
X2796Y3766D01*
X2797Y3766D01*
X2798Y3766D01*
X2799Y3766D01*
X2800Y3766D01*
X2801Y3766D01*
X2802Y3766D01*
X2803Y3766D01*
X2804Y3766D01*
X2805Y3766D01*
X2806Y3766D01*
X2807Y3766D01*
X2808Y3766D01*
X2809Y3766D01*
X2810Y3766D01*
X2811Y3766D01*
X2812Y3766D01*
X2813Y3766D01*
X2814Y3766D01*
X2815Y3766D01*
X2816Y3766D01*
X2817Y3766D01*
X2818Y3766D01*
X2819Y3766D01*
X2820Y3766D01*
X2821Y3766D01*
X2822Y3766D01*
X2823Y3766D01*
X2824Y3766D01*
X2825Y3766D01*
X2826Y3766D01*
X2827Y3766D01*
X2828Y3766D01*
X2829Y3766D01*
X2830Y3766D01*
X2831Y3766D01*
X2832Y3766D01*
X2833Y3766D01*
X2834Y3766D01*
X2835Y3766D01*
X2836Y3766D01*
X2837Y3766D01*
X2838Y3766D01*
X2839Y3766D01*
X2840Y3766D01*
X2841Y3766D01*
X2842Y3766D01*
X2843Y3766D01*
X2844Y3766D01*
X2845Y3766D01*
X2846Y3766D01*
X2847Y3766D01*
X2848Y3766D01*
X2849Y3766D01*
X2850Y3766D01*
X2851Y3766D01*
X2852Y3766D01*
X2853Y3766D01*
X2854Y3766D01*
X2855Y3766D01*
X2856Y3766D01*
X2857Y3766D01*
X2858Y3766D01*
X2859Y3766D01*
X2860Y3766D01*
X2861Y3766D01*
X2862Y3766D01*
X2863Y3766D01*
X2864Y3766D01*
X2865Y3766D01*
X2866Y3766D01*
X2867Y3766D01*
X2868Y3766D01*
X2869Y3766D01*
X2870Y3766D01*
X2871Y3766D01*
X2872Y3766D01*
X2873Y3766D01*
X2874Y3766D01*
X2875Y3766D01*
X2876Y3766D01*
X2877Y3766D01*
X2878Y3766D01*
X2879Y3766D01*
X2880Y3766D01*
X2881Y3766D01*
X2882Y3766D01*
X2883Y3766D01*
X2884Y3766D01*
X2885Y3766D01*
X2886Y3766D01*
X2887Y3766D01*
X2888Y3766D01*
X2889Y3766D01*
X2890Y3766D01*
X2891Y3766D01*
X2892Y3766D01*
X2893Y3766D01*
X2894Y3766D01*
X2895Y3766D01*
X2896Y3766D01*
X2897Y3766D01*
X2898Y3766D01*
X2899Y3766D01*
X2900Y3766D01*
X2901Y3766D01*
X2902Y3766D01*
X2903Y3766D01*
X2904Y3766D01*
X2905Y3766D01*
X2906Y3766D01*
X2907Y3766D01*
X2908Y3766D01*
X2909Y3766D01*
X2910Y3766D01*
X2911Y3766D01*
X2912Y3766D01*
X2913Y3766D01*
X2914Y3766D01*
X2915Y3766D01*
X2916Y3766D01*
X2917Y3766D01*
X2918Y3766D01*
X2919Y3766D01*
X2920Y3766D01*
X2921Y3766D01*
X2922Y3766D01*
X2923Y3766D01*
X2924Y3766D01*
X2925Y3766D01*
X2926Y3766D01*
X2927Y3766D01*
X2928Y3766D01*
X2929Y3766D01*
X2930Y3766D01*
X2931Y3766D01*
X2932Y3766D01*
X2933Y3766D01*
X2934Y3766D01*
X2935Y3766D01*
X2936Y3766D01*
X2937Y3766D01*
X2938Y3766D01*
X2939Y3766D01*
X2940Y3766D01*
X2941Y3766D01*
X2942Y3766D01*
X2943Y3766D01*
X2944Y3766D01*
X2945Y3766D01*
X2946Y3766D01*
X2947Y3766D01*
X2948Y3766D01*
X2949Y3766D01*
X2950Y3766D01*
X2951Y3766D01*
X2952Y3766D01*
X2953Y3766D01*
X2954Y3766D01*
X2955Y3766D01*
X2956Y3766D01*
X2957Y3766D01*
X2958Y3766D01*
X2959Y3766D01*
X2960Y3766D01*
X2961Y3766D01*
X2962Y3766D01*
X2963Y3766D01*
X2964Y3766D01*
X2965Y3766D01*
X2966Y3766D01*
X2967Y3766D01*
X2968Y3766D01*
X2969Y3766D01*
X2970Y3766D01*
X2971Y3766D01*
X2972Y3766D01*
X2973Y3766D01*
X2974Y3766D01*
X2975Y3766D01*
X2976Y3766D01*
X2977Y3766D01*
X2978Y3766D01*
X2979Y3766D01*
X2980Y3766D01*
X2981Y3766D01*
X2982Y3766D01*
X2983Y3766D01*
X2984Y3766D01*
X2985Y3766D01*
X2986Y3766D01*
X2987Y3766D01*
X2988Y3766D01*
X2989Y3766D01*
X2990Y3766D01*
X2991Y3766D01*
X2992Y3766D01*
X2993Y3766D01*
X2994Y3766D01*
X2995Y3766D01*
X2996Y3766D01*
X2997Y3766D01*
X2998Y3766D01*
X2999Y3766D01*
X3000Y3766D01*
X3001Y3766D01*
X3002Y3766D01*
X3003Y3766D01*
X3004Y3766D01*
X3005Y3766D01*
X3006Y3766D01*
X3007Y3766D01*
X3008Y3766D01*
X3009Y3766D01*
X3010Y3766D01*
X3011Y3766D01*
X3012Y3766D01*
X3013Y3766D01*
X3014Y3766D01*
X3015Y3766D01*
X3016Y3766D01*
X3017Y3766D01*
X3018Y3766D01*
X3019Y3766D01*
X3020Y3766D01*
X3021Y3766D01*
X3022Y3766D01*
X3023Y3766D01*
X3024Y3766D01*
X3025Y3766D01*
X3026Y3766D01*
X3027Y3766D01*
X3028Y3766D01*
X3029Y3766D01*
X3030Y3766D01*
X3031Y3766D01*
X3032Y3766D01*
X3033Y3766D01*
X3034Y3766D01*
X3035Y3766D01*
X3036Y3766D01*
X3037Y3766D01*
X3038Y3766D01*
X3039Y3766D01*
X3040Y3766D01*
X3041Y3766D01*
X3042Y3766D01*
X3043Y3766D01*
X3044Y3765D01*
X3045Y3765D01*
X3046Y3765D01*
X3047Y3765D01*
X3048Y3765D01*
X3049Y3764D01*
X3050Y3764D01*
X3051Y3764D01*
X3052Y3763D01*
X3053Y3763D01*
X3054Y3762D01*
X3055Y3762D01*
X3056Y3761D01*
X3057Y3761D01*
X3058Y3760D01*
X3059Y3759D01*
X3060Y3759D01*
X3061Y3758D01*
X3062Y3757D01*
X3063Y3756D01*
X3064Y3755D01*
X3065Y3754D01*
X3066Y3753D01*
X3067Y3752D01*
X3068Y3751D01*
X3069Y3750D01*
X3069Y3749D01*
X3070Y3748D01*
X3071Y3747D01*
X3071Y3746D01*
X3072Y3745D01*
X3072Y3744D01*
X3073Y3743D01*
X3073Y3742D01*
X3074Y3741D01*
X3074Y3739D01*
X3075Y3738D01*
X3075Y3734D01*
X3076Y3733D01*
X3076Y1241D01*
X3075Y1240D01*
X3075Y1236D01*
X3074Y1235D01*
X3074Y1233D01*
X3073Y1232D01*
X3073Y1231D01*
X3072Y1230D01*
X3072Y1229D01*
X3071Y1228D01*
X3071Y1227D01*
X3070Y1226D01*
X3069Y1225D01*
X3069Y1224D01*
X3068Y1223D01*
X3067Y1222D01*
X3066Y1221D01*
X3065Y1220D01*
X3064Y1219D01*
X3063Y1218D01*
X3062Y1217D01*
X3061Y1216D01*
X3060Y1215D01*
X3059Y1215D01*
X3058Y1214D01*
X3057Y1213D01*
X3056Y1213D01*
X3055Y1212D01*
X3054Y1212D01*
X3053Y1211D01*
X3052Y1211D01*
X3051Y1210D01*
X3050Y1210D01*
X3049Y1210D01*
X3048Y1210D01*
X3047Y1209D01*
X3046Y1209D01*
X3045Y1209D01*
X3044Y1209D01*
X3043Y1208D01*
X3042Y1208D01*
X3041Y1208D01*
X3040Y1208D01*
X3039Y1208D01*
X3038Y1208D01*
X3037Y1208D01*
X3036Y1208D01*
X3035Y1208D01*
X3034Y1208D01*
X3033Y1208D01*
X3032Y1208D01*
X3031Y1208D01*
X3030Y1208D01*
X3029Y1208D01*
X3028Y1208D01*
X3027Y1208D01*
X3026Y1208D01*
X3025Y1208D01*
X3024Y1208D01*
X3023Y1208D01*
X3022Y1208D01*
X3021Y1208D01*
X3020Y1208D01*
X3019Y1208D01*
X3018Y1208D01*
X3017Y1208D01*
X3016Y1208D01*
X3015Y1208D01*
X3014Y1208D01*
X3013Y1208D01*
X3012Y1208D01*
X3011Y1208D01*
X3010Y1208D01*
X3009Y1208D01*
X3008Y1208D01*
X3007Y1208D01*
X3006Y1208D01*
X3005Y1208D01*
X3004Y1208D01*
X3003Y1208D01*
X3002Y1208D01*
X3001Y1208D01*
X3000Y1208D01*
X2999Y1208D01*
X2998Y1208D01*
X2997Y1208D01*
X2996Y1208D01*
X2995Y1208D01*
X2994Y1208D01*
X2993Y1208D01*
X2992Y1208D01*
X2991Y1208D01*
X2990Y1208D01*
X2989Y1208D01*
X2988Y1208D01*
X2987Y1208D01*
X2986Y1208D01*
X2985Y1208D01*
X2984Y1208D01*
X2983Y1208D01*
X2982Y1208D01*
X2981Y1208D01*
X2980Y1208D01*
X2979Y1208D01*
X2978Y1208D01*
X2977Y1208D01*
X2976Y1208D01*
X2975Y1208D01*
X2974Y1208D01*
X2973Y1208D01*
X2972Y1208D01*
X2971Y1208D01*
X2970Y1208D01*
X2969Y1208D01*
X2968Y1208D01*
X2967Y1208D01*
X2966Y1208D01*
X2965Y1208D01*
X2964Y1208D01*
X2963Y1208D01*
X2962Y1208D01*
X2961Y1208D01*
X2960Y1208D01*
X2959Y1208D01*
X2958Y1208D01*
X2957Y1208D01*
X2956Y1208D01*
X2955Y1208D01*
X2954Y1208D01*
X2953Y1208D01*
X2952Y1208D01*
X2951Y1208D01*
X2950Y1208D01*
X2949Y1208D01*
X2948Y1208D01*
X2947Y1208D01*
X2946Y1208D01*
X2945Y1208D01*
X2944Y1208D01*
X2943Y1208D01*
X2942Y1208D01*
X2941Y1208D01*
X2940Y1208D01*
X2939Y1208D01*
X2938Y1208D01*
X2937Y1208D01*
X2936Y1208D01*
X2935Y1208D01*
X2934Y1208D01*
X2933Y1208D01*
X2932Y1208D01*
X2931Y1208D01*
X2930Y1208D01*
X2929Y1208D01*
X2928Y1208D01*
X2927Y1208D01*
X2926Y1208D01*
X2925Y1208D01*
X2924Y1208D01*
X2923Y1208D01*
X2922Y1208D01*
X2921Y1208D01*
X2920Y1208D01*
X2919Y1208D01*
X2918Y1208D01*
X2917Y1208D01*
X2916Y1208D01*
X2915Y1208D01*
X2914Y1208D01*
X2913Y1208D01*
X2912Y1208D01*
X2911Y1208D01*
X2910Y1208D01*
X2909Y1208D01*
X2908Y1208D01*
X2907Y1208D01*
X2906Y1208D01*
X2905Y1208D01*
X2904Y1208D01*
X2903Y1208D01*
X2902Y1208D01*
X2901Y1208D01*
X2900Y1208D01*
X2899Y1208D01*
X2898Y1208D01*
X2897Y1208D01*
X2896Y1208D01*
X2895Y1208D01*
X2894Y1208D01*
X2893Y1208D01*
X2892Y1208D01*
X2891Y1208D01*
X2890Y1208D01*
X2889Y1208D01*
X2888Y1208D01*
X2887Y1208D01*
X2886Y1208D01*
X2885Y1208D01*
X2884Y1208D01*
X2883Y1208D01*
X2882Y1208D01*
X2881Y1208D01*
X2880Y1208D01*
X2879Y1208D01*
X2878Y1208D01*
X2877Y1208D01*
X2876Y1208D01*
X2875Y1208D01*
X2874Y1208D01*
X2873Y1208D01*
X2872Y1208D01*
X2871Y1208D01*
X2870Y1208D01*
X2869Y1208D01*
X2868Y1208D01*
X2867Y1208D01*
X2866Y1208D01*
X2865Y1208D01*
X2864Y1208D01*
X2863Y1208D01*
X2862Y1208D01*
X2861Y1208D01*
X2860Y1208D01*
X2859Y1208D01*
X2858Y1208D01*
X2857Y1208D01*
X2856Y1208D01*
X2855Y1208D01*
X2854Y1208D01*
X2853Y1208D01*
X2852Y1208D01*
X2851Y1208D01*
X2850Y1208D01*
X2849Y1208D01*
X2848Y1208D01*
X2847Y1208D01*
X2846Y1208D01*
X2845Y1208D01*
X2844Y1208D01*
X2843Y1208D01*
X2842Y1208D01*
X2841Y1208D01*
X2840Y1208D01*
X2839Y1208D01*
X2838Y1208D01*
X2837Y1208D01*
X2836Y1208D01*
X2835Y1208D01*
X2834Y1208D01*
X2833Y1208D01*
X2832Y1208D01*
X2831Y1208D01*
X2830Y1208D01*
X2829Y1208D01*
X2828Y1208D01*
X2827Y1208D01*
X2826Y1208D01*
X2825Y1208D01*
X2824Y1208D01*
X2823Y1208D01*
X2822Y1208D01*
X2821Y1208D01*
X2820Y1208D01*
X2819Y1208D01*
X2818Y1208D01*
X2817Y1208D01*
X2816Y1208D01*
X2815Y1208D01*
X2814Y1208D01*
X2813Y1208D01*
X2812Y1208D01*
X2811Y1208D01*
X2810Y1208D01*
X2809Y1208D01*
X2808Y1208D01*
X2807Y1208D01*
X2806Y1208D01*
X2805Y1208D01*
X2804Y1208D01*
X2803Y1208D01*
X2802Y1208D01*
X2801Y1208D01*
X2800Y1208D01*
X2799Y1208D01*
X2798Y1208D01*
X2797Y1208D01*
X2796Y1208D01*
X2795Y1208D01*
X2794Y1207D01*
X2793Y1207D01*
X2792Y1207D01*
X2791Y1207D01*
X2790Y1206D01*
X2789Y1206D01*
X2788Y1206D01*
X2787Y1205D01*
X2786Y1205D01*
X2785Y1205D01*
X2784Y1204D01*
X2783Y1204D01*
X2782Y1203D01*
X2781Y1202D01*
X2780Y1202D01*
X2779Y1201D01*
X2778Y1201D01*
X2777Y1200D01*
X2776Y1199D01*
X2775Y1198D01*
X2774Y1197D01*
X2773Y1196D01*
X2772Y1195D01*
X2771Y1194D01*
X2770Y1193D01*
X2769Y1192D01*
X2769Y1191D01*
X2768Y1190D01*
X2767Y1189D01*
X2767Y1188D01*
X2766Y1187D01*
X2765Y1186D01*
X2765Y1184D01*
X2764Y1183D01*
X2764Y1182D01*
X2763Y1181D01*
X2763Y1179D01*
X2762Y1178D01*
X2762Y1174D01*
X2761Y1173D01*
X2761Y40D01*
X2760Y39D01*
X2760Y36D01*
X2759Y35D01*
X2759Y33D01*
X2758Y32D01*
X2758Y31D01*
X2757Y30D01*
X2757Y29D01*
X2756Y28D01*
X2756Y27D01*
X2755Y26D01*
X2755Y25D01*
X2754Y24D01*
X2753Y23D01*
X2752Y22D01*
X2751Y21D01*
X2751Y20D01*
X2750Y19D01*
X2749Y18D01*
X2748Y18D01*
X2747Y17D01*
X2746Y16D01*
X2745Y15D01*
X2744Y15D01*
X2743Y14D01*
X2742Y13D01*
X2741Y13D01*
X2740Y12D01*
X2739Y12D01*
X2738Y11D01*
X2737Y11D01*
X2736Y10D01*
X2735Y10D01*
X2734Y10D01*
X2733Y9D01*
X2732Y9D01*
X2731Y9D01*
X2730Y9D01*
X2729Y9D01*
X2728Y8D01*
X2727Y8D01*
X2726Y8D01*
X2725Y8D01*
X2724Y8D01*
X2723Y8D01*
X2722Y8D01*
X2721Y8D01*
X2720Y8D01*
X2719Y8D01*
X2718Y8D01*
X2717Y8D01*
X2716Y8D01*
X2715Y8D01*
X2714Y8D01*
X2713Y8D01*
X2712Y8D01*
X2711Y8D01*
X2710Y8D01*
X2709Y8D01*
X2708Y8D01*
X2707Y8D01*
X2706Y8D01*
X2705Y8D01*
X2704Y8D01*
X2703Y8D01*
X2702Y8D01*
X2701Y8D01*
X2700Y8D01*
X2699Y8D01*
X2698Y8D01*
X2697Y8D01*
X2696Y8D01*
X2695Y8D01*
X2694Y8D01*
X2693Y8D01*
X2692Y8D01*
X2691Y8D01*
X2690Y8D01*
X2689Y8D01*
X2688Y8D01*
X2687Y8D01*
X2686Y8D01*
X2685Y8D01*
X2684Y8D01*
X2683Y8D01*
X2682Y8D01*
X2681Y8D01*
X2680Y8D01*
X2679Y8D01*
X2678Y8D01*
X2677Y8D01*
X2676Y8D01*
X2675Y8D01*
X2674Y8D01*
X2673Y8D01*
X2672Y8D01*
X2671Y8D01*
X2670Y8D01*
X2669Y8D01*
X2668Y8D01*
X2667Y8D01*
X2666Y8D01*
X2665Y8D01*
X2664Y8D01*
X2663Y8D01*
X2662Y8D01*
X2661Y8D01*
X2660Y8D01*
X2659Y8D01*
X2658Y8D01*
X2657Y8D01*
X2656Y8D01*
X2655Y8D01*
X2654Y8D01*
X2653Y8D01*
X2652Y8D01*
X2651Y8D01*
X2650Y8D01*
X2649Y8D01*
X2648Y8D01*
X2647Y8D01*
X2646Y8D01*
X2645Y8D01*
X2644Y8D01*
X2643Y8D01*
X2642Y8D01*
X2641Y8D01*
X2640Y8D01*
X2639Y8D01*
X2638Y8D01*
X2637Y8D01*
X2636Y8D01*
X2635Y8D01*
X2634Y8D01*
X2633Y8D01*
X2632Y8D01*
X2631Y8D01*
X2630Y8D01*
X2629Y8D01*
X2628Y8D01*
X2627Y8D01*
X2626Y8D01*
X2625Y8D01*
X2624Y8D01*
X2623Y8D01*
X2622Y8D01*
X2621Y8D01*
X2620Y8D01*
X2619Y8D01*
X2618Y8D01*
X2617Y8D01*
X2616Y8D01*
X2615Y8D01*
X2614Y8D01*
X2613Y8D01*
X2612Y8D01*
X2611Y8D01*
X2610Y8D01*
X2609Y8D01*
X2608Y8D01*
X2607Y8D01*
X2606Y8D01*
X2605Y8D01*
X2604Y8D01*
X2603Y8D01*
X2602Y8D01*
X2601Y8D01*
X2600Y8D01*
X2599Y8D01*
X2598Y8D01*
X2597Y8D01*
X2596Y8D01*
X2595Y8D01*
X2594Y8D01*
X2593Y8D01*
X2592Y8D01*
X2591Y8D01*
X2590Y8D01*
X2589Y8D01*
X2588Y8D01*
X2587Y8D01*
X2586Y8D01*
X2585Y8D01*
X2584Y8D01*
X2583Y8D01*
X2582Y8D01*
X2581Y8D01*
X2580Y8D01*
X2579Y8D01*
X2578Y8D01*
X2577Y8D01*
X2576Y8D01*
X2575Y8D01*
X2574Y8D01*
X2573Y8D01*
X2572Y8D01*
X2571Y8D01*
X2570Y8D01*
X2569Y8D01*
X2568Y8D01*
X2567Y8D01*
X2566Y8D01*
X2565Y8D01*
X2564Y8D01*
X2563Y8D01*
X2562Y8D01*
X2561Y8D01*
X2560Y8D01*
X2559Y8D01*
X2558Y8D01*
X2557Y8D01*
X2556Y8D01*
X2555Y8D01*
X2554Y8D01*
X2553Y8D01*
X2552Y8D01*
X2551Y8D01*
X2550Y8D01*
X2549Y8D01*
X2548Y8D01*
X2547Y8D01*
X2546Y8D01*
X2545Y8D01*
X2544Y8D01*
X2543Y8D01*
X2542Y8D01*
X2541Y8D01*
X2540Y8D01*
X2539Y8D01*
X2538Y8D01*
X2537Y8D01*
X2536Y8D01*
X2535Y8D01*
X2534Y8D01*
X2533Y8D01*
X2532Y8D01*
X2531Y8D01*
X2530Y8D01*
X2529Y8D01*
X2528Y8D01*
X2527Y8D01*
X2526Y8D01*
X2525Y8D01*
X2524Y8D01*
X2523Y8D01*
X2522Y8D01*
X2521Y8D01*
X2520Y8D01*
X2519Y8D01*
X2518Y8D01*
X2517Y8D01*
X2516Y8D01*
X2515Y8D01*
X2514Y8D01*
X2513Y8D01*
X2512Y8D01*
X2511Y8D01*
X2510Y8D01*
X2509Y8D01*
X2508Y8D01*
X2507Y8D01*
X2506Y8D01*
X2505Y8D01*
X2504Y8D01*
X2503Y8D01*
X2502Y8D01*
X2501Y8D01*
X2500Y8D01*
X2499Y8D01*
X2498Y8D01*
X2497Y8D01*
X2496Y8D01*
X2495Y8D01*
X2494Y8D01*
X2493Y8D01*
X2492Y8D01*
X2491Y8D01*
X2490Y8D01*
X2489Y8D01*
X2488Y8D01*
X2487Y8D01*
X2486Y8D01*
X2485Y8D01*
X2484Y8D01*
X2483Y8D01*
X2482Y8D01*
X2481Y8D01*
X2480Y8D01*
X2479Y8D01*
X2478Y8D01*
X2477Y8D01*
X2476Y8D01*
X2475Y8D01*
X2474Y8D01*
X2473Y8D01*
X2472Y8D01*
X2471Y8D01*
X2470Y8D01*
X2469Y8D01*
X2468Y8D01*
X2467Y8D01*
X2466Y8D01*
X2465Y8D01*
X2464Y8D01*
X2463Y8D01*
X2462Y8D01*
X2461Y8D01*
X2460Y8D01*
X2459Y8D01*
X2458Y8D01*
X2457Y8D01*
X2456Y8D01*
X2455Y8D01*
X2454Y8D01*
X2453Y8D01*
X2452Y8D01*
X2451Y8D01*
X2450Y8D01*
X2449Y8D01*
X2448Y8D01*
X2447Y8D01*
X2446Y8D01*
X2445Y8D01*
X2444Y8D01*
X2443Y8D01*
X2442Y8D01*
X2441Y8D01*
X2440Y8D01*
X2439Y8D01*
X2438Y8D01*
X2437Y8D01*
X2436Y8D01*
X2435Y8D01*
X2434Y8D01*
X2433Y8D01*
X2432Y8D01*
X2431Y8D01*
X2430Y8D01*
X2429Y8D01*
X2428Y8D01*
X2427Y8D01*
X2426Y8D01*
X2425Y8D01*
X2424Y8D01*
X2423Y8D01*
X2422Y8D01*
X2421Y8D01*
X2420Y8D01*
X2419Y8D01*
X2418Y8D01*
X2417Y8D01*
X2416Y8D01*
X2415Y8D01*
X2414Y8D01*
X2413Y8D01*
X2412Y8D01*
X2411Y8D01*
X2410Y8D01*
X2409Y8D01*
X2408Y8D01*
X2407Y8D01*
X2406Y8D01*
X2405Y8D01*
X2404Y8D01*
X2403Y8D01*
X2402Y8D01*
X2401Y8D01*
X2400Y8D01*
X2399Y8D01*
X2398Y8D01*
X2397Y8D01*
X2396Y8D01*
X2395Y8D01*
X2394Y8D01*
X2393Y8D01*
X2392Y8D01*
X2391Y8D01*
X2390Y8D01*
X2389Y8D01*
X2388Y8D01*
X2387Y8D01*
X2386Y8D01*
X2385Y8D01*
X2384Y8D01*
X2383Y8D01*
X2382Y8D01*
X2381Y8D01*
X2380Y8D01*
X2379Y8D01*
X2378Y8D01*
X2377Y8D01*
X2376Y8D01*
X2375Y8D01*
X2374Y8D01*
X2373Y8D01*
X2372Y8D01*
X2371Y8D01*
X2370Y8D01*
X2369Y8D01*
X2368Y8D01*
X2367Y8D01*
X2366Y8D01*
X2365Y8D01*
X2364Y8D01*
X2363Y8D01*
X2362Y8D01*
X2361Y8D01*
X2360Y8D01*
X2359Y8D01*
X2358Y8D01*
X2357Y8D01*
X2356Y8D01*
X2355Y8D01*
X2354Y8D01*
X2353Y8D01*
X2352Y8D01*
X2351Y8D01*
X2350Y8D01*
X2349Y8D01*
X2348Y8D01*
X2347Y8D01*
X2346Y8D01*
X2345Y8D01*
X2344Y8D01*
X2343Y8D01*
X2342Y8D01*
X2341Y8D01*
X2340Y8D01*
X2339Y8D01*
X2338Y8D01*
X2337Y8D01*
X2336Y8D01*
X2335Y8D01*
X2334Y8D01*
X2333Y8D01*
X2332Y8D01*
X2331Y8D01*
X2330Y8D01*
X2329Y8D01*
X2328Y8D01*
X2327Y8D01*
X2326Y8D01*
X2325Y8D01*
X2324Y8D01*
X2323Y8D01*
X2322Y8D01*
X2321Y8D01*
X2320Y8D01*
X2319Y8D01*
X2318Y8D01*
X2317Y8D01*
X2316Y8D01*
X2315Y8D01*
X2314Y8D01*
X2313Y8D01*
X2312Y8D01*
X2311Y8D01*
X2310Y8D01*
X2309Y8D01*
X2308Y8D01*
X2307Y8D01*
X2306Y8D01*
X2305Y8D01*
X2304Y8D01*
X2303Y8D01*
X2302Y8D01*
X2301Y8D01*
X2300Y8D01*
X2299Y8D01*
X2298Y8D01*
X2297Y8D01*
X2296Y8D01*
X2295Y8D01*
X2294Y8D01*
X2293Y8D01*
X2292Y8D01*
X2291Y8D01*
X2290Y8D01*
X2289Y8D01*
X2288Y8D01*
X2287Y8D01*
X2286Y8D01*
X2285Y8D01*
X2284Y8D01*
X2283Y8D01*
X2282Y8D01*
X2281Y8D01*
X2280Y8D01*
X2279Y8D01*
X2278Y8D01*
X2277Y8D01*
X2276Y8D01*
X2275Y8D01*
X2274Y8D01*
X2273Y8D01*
X2272Y8D01*
X2271Y8D01*
X2270Y8D01*
X2269Y8D01*
X2268Y8D01*
X2267Y8D01*
X2266Y8D01*
X2265Y8D01*
X2264Y8D01*
X2263Y8D01*
X2262Y8D01*
X2261Y8D01*
X2260Y8D01*
X2259Y8D01*
X2258Y8D01*
X2257Y8D01*
X2256Y8D01*
X2255Y8D01*
X2254Y8D01*
X2253Y8D01*
X2252Y8D01*
X2251Y8D01*
X2250Y8D01*
X2249Y8D01*
X2248Y8D01*
X2247Y8D01*
X2246Y8D01*
X2245Y8D01*
X2244Y8D01*
X2243Y8D01*
X2242Y8D01*
X2241Y8D01*
X2240Y8D01*
X2239Y8D01*
X2238Y8D01*
X2237Y8D01*
X2236Y8D01*
X2235Y8D01*
X2234Y8D01*
X2233Y8D01*
X2232Y8D01*
X2231Y8D01*
X2230Y8D01*
X2229Y8D01*
X2228Y8D01*
X2227Y8D01*
X2226Y8D01*
X2225Y8D01*
X2224Y8D01*
X2223Y8D01*
X2222Y8D01*
X2221Y8D01*
X2220Y8D01*
X2219Y8D01*
X2218Y8D01*
X2217Y8D01*
X2216Y8D01*
X2215Y8D01*
X2214Y8D01*
X2213Y8D01*
X2212Y8D01*
X2211Y8D01*
X2210Y8D01*
X2209Y8D01*
X2208Y8D01*
X2207Y8D01*
X2206Y8D01*
X2205Y8D01*
X2204Y8D01*
X2203Y8D01*
X2202Y8D01*
X2201Y8D01*
X2200Y8D01*
X2199Y8D01*
X2198Y8D01*
X2197Y8D01*
X2196Y8D01*
X2195Y8D01*
X2194Y8D01*
X2193Y8D01*
X2192Y8D01*
X2191Y8D01*
X2190Y8D01*
X2189Y8D01*
X2188Y8D01*
X2187Y8D01*
X2186Y8D01*
X2185Y8D01*
X2184Y8D01*
X2183Y8D01*
X2182Y8D01*
X2181Y8D01*
X2180Y8D01*
X2179Y8D01*
X2178Y8D01*
X2177Y8D01*
X2176Y8D01*
X2175Y8D01*
X2174Y8D01*
X2173Y8D01*
X2172Y8D01*
X2171Y8D01*
X2170Y8D01*
X2169Y8D01*
X2168Y8D01*
X2167Y8D01*
X2166Y8D01*
X2165Y8D01*
X2164Y8D01*
X2163Y8D01*
X2162Y8D01*
X2161Y8D01*
X2160Y8D01*
X2159Y8D01*
X2158Y8D01*
X2157Y8D01*
X2156Y8D01*
X2155Y8D01*
X2154Y8D01*
X2153Y8D01*
X2152Y8D01*
X2151Y8D01*
X2150Y8D01*
X2149Y8D01*
X2148Y8D01*
X2147Y8D01*
X2146Y8D01*
X2145Y8D01*
X2144Y8D01*
X2143Y8D01*
X2142Y8D01*
X2141Y8D01*
X2140Y8D01*
X2139Y8D01*
X2138Y8D01*
X2137Y8D01*
X2136Y8D01*
X2135Y8D01*
X2134Y8D01*
X2133Y8D01*
X2132Y8D01*
X2131Y8D01*
X2130Y8D01*
X2129Y8D01*
X2128Y8D01*
X2127Y8D01*
X2126Y8D01*
X2125Y8D01*
X2124Y8D01*
X2123Y8D01*
X2122Y8D01*
X2121Y8D01*
X2120Y8D01*
X2119Y8D01*
X2118Y8D01*
X2117Y8D01*
X2116Y8D01*
X2115Y8D01*
X2114Y8D01*
X2113Y8D01*
X2112Y8D01*
X2111Y8D01*
X2110Y8D01*
X2109Y8D01*
X2108Y8D01*
X2107Y8D01*
X2106Y8D01*
X2105Y8D01*
X2104Y8D01*
X2103Y8D01*
X2102Y8D01*
X2101Y8D01*
X2100Y8D01*
X2099Y8D01*
X2098Y8D01*
X2097Y8D01*
X2096Y8D01*
X2095Y8D01*
X2094Y8D01*
X2093Y8D01*
X2092Y8D01*
X2091Y8D01*
X2090Y8D01*
X2089Y8D01*
X2088Y8D01*
X2087Y8D01*
X2086Y8D01*
X2085Y8D01*
X2084Y8D01*
X2083Y8D01*
X2082Y8D01*
X2081Y8D01*
X2080Y8D01*
X2079Y8D01*
X2078Y8D01*
X2077Y8D01*
X2076Y8D01*
X2075Y8D01*
X2074Y8D01*
X2073Y8D01*
X2072Y8D01*
X2071Y8D01*
X2070Y8D01*
X2069Y8D01*
X2068Y8D01*
X2067Y8D01*
X2066Y8D01*
X2065Y8D01*
X2064Y8D01*
X2063Y8D01*
X2062Y8D01*
X2061Y8D01*
X2060Y8D01*
X2059Y8D01*
X2058Y8D01*
X2057Y8D01*
X2056Y8D01*
X2055Y8D01*
X2054Y8D01*
X2053Y8D01*
X2052Y8D01*
X2051Y8D01*
X2050Y8D01*
X2049Y8D01*
X2048Y8D01*
X2047Y8D01*
X2046Y8D01*
X2045Y8D01*
X2044Y8D01*
X2043Y8D01*
X2042Y8D01*
X2041Y8D01*
X2040Y8D01*
X2039Y8D01*
X2038Y8D01*
X2037Y8D01*
X2036Y8D01*
X2035Y8D01*
X2034Y8D01*
X2033Y8D01*
X2032Y8D01*
X2031Y8D01*
X2030Y8D01*
X2029Y8D01*
X2028Y8D01*
X2027Y8D01*
X2026Y8D01*
X2025Y8D01*
X2024Y8D01*
X2023Y8D01*
X2022Y8D01*
X2021Y8D01*
X2020Y8D01*
X2019Y8D01*
X2018Y8D01*
X2017Y8D01*
X2016Y8D01*
X2015Y8D01*
X2014Y8D01*
X2013Y8D01*
X2012Y8D01*
X2011Y8D01*
X2010Y8D01*
X2009Y8D01*
X2008Y8D01*
X2007Y8D01*
X2006Y8D01*
X2005Y8D01*
X2004Y8D01*
X2003Y8D01*
X2002Y8D01*
X2001Y8D01*
X2000Y8D01*
X1999Y8D01*
X1998Y8D01*
X1997Y8D01*
X1996Y8D01*
X1995Y8D01*
X1994Y8D01*
X1993Y8D01*
X1992Y8D01*
X1991Y8D01*
X1990Y8D01*
X1989Y8D01*
X1988Y8D01*
X1987Y8D01*
X1986Y8D01*
X1985Y8D01*
X1984Y8D01*
X1983Y8D01*
X1982Y8D01*
X1981Y8D01*
X1980Y8D01*
X1979Y8D01*
X1978Y8D01*
X1977Y8D01*
X1976Y8D01*
X1975Y8D01*
X1974Y8D01*
X1973Y8D01*
X1972Y8D01*
X1971Y8D01*
X1970Y8D01*
X1969Y8D01*
X1968Y8D01*
X1967Y8D01*
X1966Y8D01*
X1965Y8D01*
X1964Y8D01*
X1963Y8D01*
X1962Y8D01*
X1961Y8D01*
X1960Y8D01*
X1959Y8D01*
X1958Y8D01*
X1957Y8D01*
X1956Y8D01*
X1955Y8D01*
X1954Y8D01*
X1953Y8D01*
X1952Y8D01*
X1951Y8D01*
X1950Y8D01*
X1949Y8D01*
X1948Y8D01*
X1947Y8D01*
X1946Y8D01*
X1945Y8D01*
X1944Y8D01*
X1943Y8D01*
X1942Y8D01*
X1941Y8D01*
X1940Y8D01*
X1939Y8D01*
X1938Y8D01*
X1937Y8D01*
X1936Y8D01*
X1935Y8D01*
X1934Y8D01*
X1933Y8D01*
X1932Y8D01*
X1931Y8D01*
X1930Y8D01*
X1929Y8D01*
X1928Y8D01*
X1927Y8D01*
X1926Y8D01*
X1925Y8D01*
X1924Y8D01*
X1923Y8D01*
X1922Y8D01*
X1921Y8D01*
X1920Y8D01*
X1919Y8D01*
X1918Y8D01*
X1917Y8D01*
X1916Y8D01*
X1915Y8D01*
X1914Y8D01*
X1913Y8D01*
X1912Y8D01*
X1911Y8D01*
X1910Y8D01*
X1909Y8D01*
X1908Y8D01*
X1907Y8D01*
X1906Y8D01*
X1905Y8D01*
X1904Y8D01*
X1903Y8D01*
X1902Y8D01*
X1901Y8D01*
X1900Y8D01*
X1899Y8D01*
X1898Y8D01*
X1897Y8D01*
X1896Y8D01*
X1895Y8D01*
X1894Y8D01*
X1893Y8D01*
X1892Y8D01*
X1891Y8D01*
X1890Y8D01*
X1889Y8D01*
X1888Y8D01*
X1887Y8D01*
X1886Y8D01*
X1885Y8D01*
X1884Y8D01*
X1883Y8D01*
X1882Y8D01*
X1881Y8D01*
X1880Y8D01*
X1879Y8D01*
X1878Y8D01*
X1877Y8D01*
X1876Y8D01*
X1875Y8D01*
X1874Y8D01*
X1873Y8D01*
X1872Y8D01*
X1871Y8D01*
X1870Y8D01*
X1869Y8D01*
X1868Y8D01*
X1867Y8D01*
X1866Y8D01*
X1865Y8D01*
X1864Y8D01*
X1863Y8D01*
X1862Y8D01*
X1861Y8D01*
X1860Y8D01*
X1859Y8D01*
X1858Y8D01*
X1857Y8D01*
X1856Y8D01*
X1855Y8D01*
X1854Y8D01*
X1853Y8D01*
X1852Y8D01*
X1851Y8D01*
X1850Y8D01*
X1849Y8D01*
X1848Y8D01*
X1847Y8D01*
X1846Y8D01*
X1845Y8D01*
X1844Y8D01*
X1843Y8D01*
X1842Y8D01*
X1841Y8D01*
X1840Y8D01*
X1839Y8D01*
X1838Y8D01*
X1837Y8D01*
X1836Y8D01*
X1835Y8D01*
X1834Y8D01*
X1833Y8D01*
X1832Y8D01*
X1831Y8D01*
X1830Y8D01*
X1829Y8D01*
X1828Y8D01*
X1827Y8D01*
X1826Y8D01*
X1825Y8D01*
X1824Y8D01*
X1823Y8D01*
X1822Y8D01*
X1821Y8D01*
X1820Y8D01*
X1819Y8D01*
X1818Y8D01*
X1817Y8D01*
X1816Y8D01*
X1815Y8D01*
X1814Y8D01*
X1813Y8D01*
X1812Y8D01*
X1811Y8D01*
X1810Y8D01*
X1809Y8D01*
X1808Y8D01*
X1807Y8D01*
X1806Y8D01*
X1805Y8D01*
X1804Y8D01*
X1803Y8D01*
X1802Y8D01*
X1801Y8D01*
X1800Y8D01*
X1799Y8D01*
X1798Y8D01*
X1797Y8D01*
X1796Y8D01*
X1795Y8D01*
X1794Y8D01*
X1793Y8D01*
X1792Y8D01*
X1791Y8D01*
X1790Y8D01*
X1789Y8D01*
X1788Y8D01*
X1787Y8D01*
X1786Y8D01*
X1785Y8D01*
X1784Y8D01*
X1783Y8D01*
X1782Y8D01*
X1781Y8D01*
X1780Y8D01*
X1779Y8D01*
X1778Y8D01*
X1777Y8D01*
X1776Y8D01*
X1775Y8D01*
X1774Y8D01*
X1773Y8D01*
X1772Y8D01*
X1771Y8D01*
X1770Y8D01*
X1769Y8D01*
X1768Y8D01*
X1767Y8D01*
X1766Y8D01*
X1765Y8D01*
X1764Y8D01*
X1763Y8D01*
X1762Y8D01*
X1761Y8D01*
X1760Y8D01*
X1759Y8D01*
X1758Y8D01*
X1757Y8D01*
X1756Y8D01*
X1755Y8D01*
X1754Y8D01*
X1753Y8D01*
X1752Y8D01*
X1751Y8D01*
X1750Y8D01*
X1749Y8D01*
X1748Y8D01*
X1747Y8D01*
X1746Y8D01*
X1745Y8D01*
X1744Y8D01*
X1743Y8D01*
X1742Y8D01*
X1741Y8D01*
X1740Y8D01*
X1739Y8D01*
X1738Y8D01*
X1737Y8D01*
X1736Y8D01*
X1735Y8D01*
X1734Y8D01*
X1733Y8D01*
X1732Y8D01*
X1731Y8D01*
X1730Y8D01*
X1729Y8D01*
X1728Y8D01*
X1727Y8D01*
X1726Y8D01*
X1725Y8D01*
X1724Y8D01*
X1723Y8D01*
X1722Y8D01*
X1721Y8D01*
X1720Y8D01*
X1719Y8D01*
X1718Y8D01*
X1717Y8D01*
X1716Y8D01*
X1715Y8D01*
X1714Y8D01*
X1713Y8D01*
X1712Y8D01*
X1711Y8D01*
X1710Y8D01*
X1709Y8D01*
X1708Y8D01*
X1707Y8D01*
X1706Y8D01*
X1705Y8D01*
X1704Y8D01*
X1703Y8D01*
X1702Y8D01*
X1701Y8D01*
X1700Y8D01*
X1699Y8D01*
X1698Y8D01*
X1697Y8D01*
X1696Y8D01*
X1695Y8D01*
X1694Y8D01*
X1693Y8D01*
X1692Y8D01*
X1691Y8D01*
X1690Y8D01*
X1689Y8D01*
X1688Y8D01*
X1687Y8D01*
X1686Y8D01*
X1685Y8D01*
X1684Y8D01*
X1683Y8D01*
X1682Y8D01*
X1681Y8D01*
X1680Y8D01*
X1679Y8D01*
X1678Y8D01*
X1677Y8D01*
X1676Y8D01*
X1675Y8D01*
X1674Y8D01*
X1673Y8D01*
X1672Y8D01*
X1671Y8D01*
X1670Y8D01*
X1669Y8D01*
X1668Y8D01*
X1667Y8D01*
X1666Y8D01*
X1665Y8D01*
X1664Y8D01*
X1663Y8D01*
X1662Y8D01*
X1661Y8D01*
X1660Y8D01*
X1659Y8D01*
X1658Y8D01*
X1657Y8D01*
X1656Y8D01*
X1655Y8D01*
X1654Y8D01*
X1653Y8D01*
X1652Y8D01*
X1651Y8D01*
X1650Y8D01*
X1649Y8D01*
X1648Y8D01*
X1647Y8D01*
X1646Y8D01*
X1645Y8D01*
X1644Y8D01*
X1643Y8D01*
X1642Y8D01*
X1641Y8D01*
X1640Y8D01*
X1639Y8D01*
X1638Y8D01*
X1637Y8D01*
X1636Y8D01*
X1635Y8D01*
X1634Y8D01*
X1633Y8D01*
X1632Y8D01*
X1631Y8D01*
X1630Y8D01*
X1629Y8D01*
X1628Y8D01*
X1627Y8D01*
X1626Y8D01*
X1625Y8D01*
X1624Y8D01*
X1623Y8D01*
X1622Y8D01*
X1621Y8D01*
X1620Y8D01*
X1619Y8D01*
X1618Y8D01*
X1617Y8D01*
X1616Y8D01*
X1615Y8D01*
X1614Y8D01*
X1613Y8D01*
X1612Y8D01*
X1611Y8D01*
X1610Y8D01*
X1609Y8D01*
X1608Y8D01*
X1607Y8D01*
X1606Y8D01*
X1605Y8D01*
X1604Y8D01*
X1603Y8D01*
X1602Y8D01*
X1601Y8D01*
X1600Y8D01*
X1599Y8D01*
X1598Y8D01*
X1597Y8D01*
X1596Y8D01*
X1595Y8D01*
X1594Y8D01*
X1593Y8D01*
X1592Y8D01*
X1591Y8D01*
X1590Y8D01*
X1589Y8D01*
X1588Y8D01*
X1587Y8D01*
X1586Y8D01*
X1585Y8D01*
X1584Y8D01*
X1583Y8D01*
X1582Y8D01*
X1581Y8D01*
X1580Y8D01*
X1579Y8D01*
X1578Y8D01*
X1577Y8D01*
X1576Y8D01*
X1575Y8D01*
X1574Y8D01*
X1573Y8D01*
X1572Y8D01*
X1571Y8D01*
X1570Y8D01*
X1569Y8D01*
X1568Y8D01*
X1567Y8D01*
X1566Y8D01*
X1565Y8D01*
X1564Y8D01*
X1563Y8D01*
X1562Y8D01*
X1561Y8D01*
X1560Y8D01*
X1559Y8D01*
X1558Y8D01*
X1557Y8D01*
X1556Y8D01*
X1555Y8D01*
X1554Y8D01*
X1553Y8D01*
X1552Y8D01*
X1551Y8D01*
X1550Y8D01*
X1549Y8D01*
X1548Y8D01*
X1547Y8D01*
X1546Y8D01*
X1545Y8D01*
X1544Y8D01*
X1543Y8D01*
X1542Y8D01*
X1541Y8D01*
X1540Y8D01*
X1539Y8D01*
X1538Y8D01*
X1537Y8D01*
X1536Y8D01*
X1535Y8D01*
X1534Y8D01*
X1533Y8D01*
X1532Y8D01*
X1531Y8D01*
X1530Y8D01*
X1529Y8D01*
X1528Y8D01*
X1527Y8D01*
X1526Y8D01*
X1525Y8D01*
X1524Y8D01*
X1523Y8D01*
X1522Y8D01*
X1521Y8D01*
X1520Y8D01*
X1519Y8D01*
X1518Y8D01*
X1517Y8D01*
X1516Y8D01*
X1515Y8D01*
X1514Y8D01*
X1513Y8D01*
X1512Y8D01*
X1511Y8D01*
X1510Y8D01*
X1509Y8D01*
X1508Y8D01*
X1507Y8D01*
X1506Y8D01*
X1505Y8D01*
X1504Y8D01*
X1503Y8D01*
X1502Y8D01*
X1501Y8D01*
X1500Y8D01*
X1499Y8D01*
X1498Y8D01*
X1497Y8D01*
X1496Y8D01*
X1495Y8D01*
X1494Y8D01*
X1493Y8D01*
X1492Y8D01*
X1491Y8D01*
X1490Y8D01*
X1489Y8D01*
X1488Y8D01*
X1487Y8D01*
X1486Y8D01*
X1485Y8D01*
X1484Y8D01*
X1483Y8D01*
X1482Y8D01*
X1481Y8D01*
X1480Y8D01*
X1479Y8D01*
X1478Y8D01*
X1477Y8D01*
X1476Y8D01*
X1475Y8D01*
X1474Y8D01*
X1473Y8D01*
X1472Y8D01*
X1471Y8D01*
X1470Y8D01*
X1469Y8D01*
X1468Y8D01*
X1467Y8D01*
X1466Y8D01*
X1465Y8D01*
X1464Y8D01*
X1463Y8D01*
X1462Y8D01*
X1461Y8D01*
X1460Y8D01*
X1459Y8D01*
X1458Y8D01*
X1457Y8D01*
X1456Y8D01*
X1455Y8D01*
X1454Y8D01*
X1453Y8D01*
X1452Y8D01*
X1451Y8D01*
X1450Y8D01*
X1449Y8D01*
X1448Y8D01*
X1447Y8D01*
X1446Y8D01*
X1445Y8D01*
X1444Y8D01*
X1443Y8D01*
X1442Y8D01*
X1441Y8D01*
X1440Y8D01*
X1439Y8D01*
X1438Y8D01*
X1437Y8D01*
X1436Y8D01*
X1435Y8D01*
X1434Y8D01*
X1433Y8D01*
X1432Y8D01*
X1431Y8D01*
X1430Y8D01*
X1429Y8D01*
X1428Y8D01*
X1427Y8D01*
X1426Y8D01*
X1425Y8D01*
X1424Y8D01*
X1423Y8D01*
X1422Y8D01*
X1421Y8D01*
X1420Y8D01*
X1419Y8D01*
X1418Y8D01*
X1417Y8D01*
X1416Y8D01*
X1415Y8D01*
X1414Y8D01*
X1413Y8D01*
X1412Y8D01*
X1411Y8D01*
X1410Y8D01*
X1409Y8D01*
X1408Y8D01*
X1407Y8D01*
X1406Y8D01*
X1405Y8D01*
X1404Y8D01*
X1403Y8D01*
X1402Y8D01*
X1401Y8D01*
X1400Y8D01*
X1399Y8D01*
X1398Y8D01*
X1397Y8D01*
X1396Y8D01*
X1395Y8D01*
X1394Y8D01*
X1393Y8D01*
X1392Y8D01*
X1391Y8D01*
X1390Y8D01*
X1389Y8D01*
X1388Y8D01*
X1387Y8D01*
X1386Y8D01*
X1385Y8D01*
X1384Y8D01*
X1383Y8D01*
X1382Y8D01*
X1381Y8D01*
X1380Y8D01*
X1379Y8D01*
X1378Y8D01*
X1377Y8D01*
X1376Y8D01*
X1375Y8D01*
X1374Y8D01*
X1373Y8D01*
X1372Y8D01*
X1371Y8D01*
X1370Y8D01*
X1369Y8D01*
X1368Y8D01*
X1367Y8D01*
X1366Y8D01*
X1365Y8D01*
X1364Y8D01*
X1363Y8D01*
X1362Y8D01*
X1361Y8D01*
X1360Y8D01*
X1359Y8D01*
X1358Y8D01*
X1357Y8D01*
X1356Y8D01*
X1355Y8D01*
X1354Y8D01*
X1353Y8D01*
X1352Y8D01*
X1351Y8D01*
X1350Y8D01*
X1349Y8D01*
X1348Y8D01*
X1347Y8D01*
X1346Y8D01*
X1345Y8D01*
X1344Y8D01*
X1343Y8D01*
X1342Y8D01*
X1341Y8D01*
X1340Y8D01*
X1339Y8D01*
X1338Y8D01*
X1337Y8D01*
X1336Y8D01*
X1335Y8D01*
X1334Y8D01*
X1333Y8D01*
X1332Y8D01*
X1331Y8D01*
X1330Y8D01*
X1329Y8D01*
X1328Y8D01*
X1327Y8D01*
X1326Y8D01*
X1325Y8D01*
X1324Y8D01*
X1323Y8D01*
X1322Y8D01*
X1321Y8D01*
X1320Y8D01*
X1319Y8D01*
X1318Y8D01*
X1317Y8D01*
X1316Y8D01*
X1315Y8D01*
X1314Y8D01*
X1313Y8D01*
X1312Y8D01*
X1311Y8D01*
X1310Y8D01*
X1309Y8D01*
X1308Y8D01*
X1307Y8D01*
X1306Y8D01*
X1305Y8D01*
X1304Y8D01*
X1303Y8D01*
X1302Y8D01*
X1301Y8D01*
X1300Y8D01*
X1299Y8D01*
X1298Y8D01*
X1297Y8D01*
X1296Y8D01*
X1295Y8D01*
X1294Y8D01*
X1293Y8D01*
X1292Y8D01*
X1291Y8D01*
X1290Y8D01*
X1289Y8D01*
X1288Y8D01*
X1287Y8D01*
X1286Y8D01*
X1285Y8D01*
X1284Y8D01*
X1283Y8D01*
X1282Y8D01*
X1281Y8D01*
X1280Y8D01*
X1279Y8D01*
X1278Y8D01*
X1277Y8D01*
X1276Y8D01*
X1275Y8D01*
X1274Y8D01*
X1273Y8D01*
X1272Y8D01*
X1271Y8D01*
X1270Y8D01*
X1269Y8D01*
X1268Y8D01*
X1267Y8D01*
X1266Y8D01*
X1265Y8D01*
X1264Y8D01*
X1263Y8D01*
X1262Y8D01*
X1261Y8D01*
X1260Y8D01*
X1259Y8D01*
X1258Y8D01*
X1257Y8D01*
X1256Y8D01*
X1255Y8D01*
X1254Y8D01*
X1253Y8D01*
X1252Y8D01*
X1251Y8D01*
X1250Y8D01*
X1249Y8D01*
X1248Y8D01*
X1247Y8D01*
X1246Y8D01*
X1245Y8D01*
X1244Y8D01*
X1243Y8D01*
X1242Y8D01*
X1241Y8D01*
X1240Y8D01*
X1239Y8D01*
X1238Y8D01*
X1237Y8D01*
X1236Y8D01*
X1235Y8D01*
X1234Y8D01*
X1233Y8D01*
X1232Y8D01*
X1231Y8D01*
X1230Y8D01*
X1229Y8D01*
X1228Y8D01*
X1227Y8D01*
X1226Y8D01*
X1225Y8D01*
X1224Y8D01*
X1223Y8D01*
X1222Y8D01*
X1221Y8D01*
X1220Y8D01*
X1219Y8D01*
X1218Y8D01*
X1217Y8D01*
X1216Y8D01*
X1215Y8D01*
X1214Y8D01*
X1213Y8D01*
X1212Y8D01*
X1211Y8D01*
X1210Y8D01*
X1209Y8D01*
X1208Y8D01*
X1207Y8D01*
X1206Y8D01*
X1205Y8D01*
X1204Y8D01*
X1203Y8D01*
X1202Y8D01*
X1201Y8D01*
X1200Y8D01*
X1199Y8D01*
X1198Y8D01*
X1197Y8D01*
X1196Y8D01*
X1195Y8D01*
X1194Y8D01*
X1193Y8D01*
X1192Y8D01*
X1191Y8D01*
X1190Y8D01*
X1189Y8D01*
X1188Y8D01*
X1187Y8D01*
X1186Y8D01*
X1185Y8D01*
X1184Y8D01*
X1183Y8D01*
X1182Y8D01*
X1181Y8D01*
X1180Y8D01*
X1179Y8D01*
X1178Y8D01*
X1177Y8D01*
X1176Y8D01*
X1175Y8D01*
X1174Y8D01*
X1173Y8D01*
X1172Y8D01*
X1171Y8D01*
X1170Y8D01*
X1169Y8D01*
X1168Y8D01*
X1167Y8D01*
X1166Y8D01*
X1165Y8D01*
X1164Y8D01*
X1163Y8D01*
X1162Y8D01*
X1161Y8D01*
X1160Y8D01*
X1159Y8D01*
X1158Y8D01*
X1157Y8D01*
X1156Y8D01*
X1155Y8D01*
X1154Y8D01*
X1153Y8D01*
X1152Y8D01*
X1151Y8D01*
X1150Y8D01*
X1149Y8D01*
X1148Y8D01*
X1147Y8D01*
X1146Y8D01*
X1145Y8D01*
X1144Y8D01*
X1143Y8D01*
X1142Y8D01*
X1141Y8D01*
X1140Y8D01*
X1139Y8D01*
X1138Y8D01*
X1137Y8D01*
X1136Y8D01*
X1135Y8D01*
X1134Y8D01*
X1133Y8D01*
X1132Y8D01*
X1131Y8D01*
X1130Y8D01*
X1129Y8D01*
X1128Y8D01*
X1127Y8D01*
X1126Y8D01*
X1125Y8D01*
X1124Y8D01*
X1123Y8D01*
X1122Y8D01*
X1121Y8D01*
X1120Y8D01*
X1119Y8D01*
X1118Y8D01*
X1117Y8D01*
X1116Y8D01*
X1115Y8D01*
X1114Y8D01*
X1113Y8D01*
X1112Y8D01*
X1111Y8D01*
X1110Y8D01*
X1109Y8D01*
X1108Y8D01*
X1107Y8D01*
X1106Y8D01*
X1105Y8D01*
X1104Y8D01*
X1103Y8D01*
X1102Y8D01*
X1101Y8D01*
X1100Y8D01*
X1099Y8D01*
X1098Y8D01*
X1097Y8D01*
X1096Y8D01*
X1095Y8D01*
X1094Y8D01*
X1093Y8D01*
X1092Y8D01*
X1091Y8D01*
X1090Y8D01*
X1089Y8D01*
X1088Y8D01*
X1087Y8D01*
X1086Y8D01*
X1085Y8D01*
X1084Y8D01*
X1083Y8D01*
X1082Y8D01*
X1081Y8D01*
X1080Y8D01*
X1079Y8D01*
X1078Y8D01*
X1077Y8D01*
X1076Y8D01*
X1075Y8D01*
X1074Y8D01*
X1073Y8D01*
X1072Y8D01*
X1071Y8D01*
X1070Y8D01*
X1069Y8D01*
X1068Y8D01*
X1067Y8D01*
X1066Y8D01*
X1065Y8D01*
X1064Y8D01*
X1063Y8D01*
X1062Y8D01*
X1061Y8D01*
X1060Y8D01*
X1059Y8D01*
X1058Y8D01*
X1057Y8D01*
X1056Y8D01*
X1055Y8D01*
X1054Y8D01*
X1053Y8D01*
X1052Y8D01*
X1051Y8D01*
X1050Y8D01*
X1049Y8D01*
X1048Y8D01*
X1047Y8D01*
X1046Y8D01*
X1045Y8D01*
X1044Y8D01*
X1043Y8D01*
X1042Y8D01*
X1041Y8D01*
X1040Y8D01*
X1039Y8D01*
X1038Y8D01*
X1037Y8D01*
X1036Y8D01*
X1035Y8D01*
X1034Y8D01*
X1033Y8D01*
X1032Y8D01*
X1031Y8D01*
X1030Y8D01*
X1029Y8D01*
X1028Y8D01*
X1027Y8D01*
X1026Y8D01*
X1025Y8D01*
X1024Y8D01*
X1023Y8D01*
X1022Y8D01*
X1021Y8D01*
X1020Y8D01*
X1019Y8D01*
X1018Y8D01*
X1017Y8D01*
X1016Y8D01*
X1015Y8D01*
X1014Y8D01*
X1013Y8D01*
X1012Y8D01*
X1011Y8D01*
X1010Y8D01*
X1009Y8D01*
X1008Y8D01*
X1007Y8D01*
X1006Y8D01*
X1005Y8D01*
X1004Y8D01*
X1003Y8D01*
X1002Y8D01*
X1001Y8D01*
X1000Y8D01*
X999Y8D01*
X998Y8D01*
X997Y8D01*
X996Y8D01*
X995Y8D01*
X994Y8D01*
X993Y8D01*
X992Y8D01*
X991Y8D01*
X990Y8D01*
X989Y8D01*
X988Y8D01*
X987Y8D01*
X986Y8D01*
X985Y8D01*
X984Y8D01*
X983Y8D01*
X982Y8D01*
X981Y8D01*
X980Y8D01*
X979Y8D01*
X978Y8D01*
X977Y8D01*
X976Y8D01*
X975Y8D01*
X974Y8D01*
X973Y8D01*
X972Y8D01*
X971Y8D01*
X970Y8D01*
X969Y8D01*
X968Y8D01*
X967Y8D01*
X966Y8D01*
X965Y8D01*
X964Y8D01*
X963Y8D01*
X962Y8D01*
X961Y8D01*
X960Y8D01*
X959Y8D01*
X958Y8D01*
X957Y8D01*
X956Y8D01*
X955Y8D01*
X954Y8D01*
X953Y8D01*
X952Y8D01*
X951Y8D01*
X950Y8D01*
X949Y8D01*
X948Y8D01*
X947Y8D01*
X946Y8D01*
X945Y8D01*
X944Y8D01*
X943Y8D01*
X942Y8D01*
X941Y8D01*
X940Y8D01*
X939Y8D01*
X938Y8D01*
X937Y8D01*
X936Y8D01*
X935Y8D01*
X934Y8D01*
X933Y8D01*
X932Y8D01*
X931Y8D01*
X930Y8D01*
X929Y8D01*
X928Y8D01*
X927Y8D01*
X926Y8D01*
X925Y8D01*
X924Y8D01*
X923Y8D01*
X922Y8D01*
X921Y8D01*
X920Y8D01*
X919Y8D01*
X918Y8D01*
X917Y8D01*
X916Y8D01*
X915Y8D01*
X914Y8D01*
X913Y8D01*
X912Y8D01*
X911Y8D01*
X910Y8D01*
X909Y8D01*
X908Y8D01*
X907Y8D01*
X906Y8D01*
X905Y8D01*
X904Y8D01*
X903Y8D01*
X902Y8D01*
X901Y8D01*
X900Y8D01*
X899Y8D01*
X898Y8D01*
X897Y8D01*
X896Y8D01*
X895Y8D01*
X894Y8D01*
X893Y8D01*
X892Y8D01*
X891Y8D01*
X890Y8D01*
X889Y8D01*
X888Y8D01*
X887Y8D01*
X886Y8D01*
X885Y8D01*
X884Y8D01*
X883Y8D01*
X882Y8D01*
X881Y8D01*
X880Y8D01*
X879Y8D01*
X878Y8D01*
X877Y8D01*
X876Y8D01*
X875Y8D01*
X874Y8D01*
X873Y8D01*
X872Y8D01*
X871Y8D01*
X870Y8D01*
X869Y8D01*
X868Y8D01*
X867Y8D01*
X866Y8D01*
X865Y8D01*
X864Y8D01*
X863Y8D01*
X862Y8D01*
X861Y8D01*
X860Y8D01*
X859Y8D01*
X858Y8D01*
X857Y8D01*
X856Y8D01*
X855Y8D01*
X854Y8D01*
X853Y8D01*
X852Y8D01*
X851Y8D01*
X850Y8D01*
X849Y8D01*
X848Y8D01*
X847Y8D01*
X846Y8D01*
X845Y8D01*
X844Y8D01*
X843Y8D01*
X842Y8D01*
X841Y8D01*
X840Y8D01*
X839Y8D01*
X838Y8D01*
X837Y8D01*
X836Y8D01*
X835Y8D01*
X834Y8D01*
X833Y8D01*
X832Y8D01*
X831Y8D01*
X830Y8D01*
X829Y8D01*
X828Y8D01*
X827Y8D01*
X826Y8D01*
X825Y8D01*
X824Y8D01*
X823Y8D01*
X822Y8D01*
X821Y8D01*
X820Y8D01*
X819Y8D01*
X818Y8D01*
X817Y8D01*
X816Y8D01*
X815Y8D01*
X814Y8D01*
X813Y8D01*
X812Y8D01*
X811Y8D01*
X810Y8D01*
X809Y8D01*
X808Y8D01*
X807Y8D01*
X806Y8D01*
X805Y8D01*
X804Y8D01*
X803Y8D01*
X802Y8D01*
X801Y8D01*
X800Y8D01*
X799Y8D01*
X798Y8D01*
X797Y8D01*
X796Y8D01*
X795Y8D01*
X794Y8D01*
X793Y8D01*
X792Y8D01*
X791Y8D01*
X790Y8D01*
X789Y8D01*
X788Y8D01*
X787Y8D01*
X786Y8D01*
X785Y8D01*
X784Y8D01*
X783Y8D01*
X782Y8D01*
X781Y8D01*
X780Y8D01*
X779Y8D01*
X778Y8D01*
X777Y8D01*
X776Y8D01*
X775Y8D01*
X774Y8D01*
X773Y8D01*
X772Y8D01*
X771Y8D01*
X770Y8D01*
X769Y8D01*
X768Y8D01*
X767Y8D01*
X766Y8D01*
X765Y8D01*
X764Y8D01*
X763Y8D01*
X762Y8D01*
X761Y8D01*
X760Y8D01*
X759Y8D01*
X758Y8D01*
X757Y8D01*
X756Y8D01*
X755Y8D01*
X754Y8D01*
X753Y8D01*
X752Y8D01*
X751Y8D01*
X750Y8D01*
X749Y8D01*
X748Y8D01*
X747Y8D01*
X746Y8D01*
X745Y8D01*
X744Y8D01*
X743Y8D01*
X742Y8D01*
X741Y8D01*
X740Y8D01*
X739Y8D01*
X738Y8D01*
X737Y8D01*
X736Y8D01*
X735Y8D01*
X734Y8D01*
X733Y8D01*
X732Y8D01*
X731Y8D01*
X730Y8D01*
X729Y8D01*
X728Y8D01*
X727Y8D01*
X726Y8D01*
X725Y8D01*
X724Y8D01*
X723Y8D01*
X722Y8D01*
X721Y8D01*
X720Y8D01*
X719Y8D01*
X718Y8D01*
X717Y8D01*
X716Y8D01*
X715Y8D01*
X714Y8D01*
X713Y8D01*
X712Y8D01*
X711Y8D01*
X710Y8D01*
X709Y8D01*
X708Y8D01*
X707Y8D01*
X706Y8D01*
X705Y8D01*
X704Y8D01*
X703Y8D01*
X702Y8D01*
X701Y8D01*
X700Y8D01*
X699Y8D01*
X698Y8D01*
X697Y8D01*
X696Y8D01*
X695Y8D01*
X694Y8D01*
X693Y8D01*
X692Y8D01*
X691Y8D01*
X690Y8D01*
X689Y8D01*
X688Y8D01*
X687Y8D01*
X686Y8D01*
X685Y8D01*
X684Y8D01*
X683Y8D01*
X682Y8D01*
X681Y8D01*
X680Y8D01*
X679Y8D01*
X678Y8D01*
X677Y8D01*
X676Y8D01*
X675Y8D01*
X674Y8D01*
X673Y8D01*
X672Y8D01*
X671Y8D01*
X670Y8D01*
X669Y8D01*
X668Y8D01*
X667Y8D01*
X666Y8D01*
X665Y8D01*
X664Y8D01*
X663Y8D01*
X662Y8D01*
X661Y8D01*
X660Y8D01*
X659Y8D01*
X658Y8D01*
X657Y8D01*
X656Y8D01*
X655Y8D01*
X654Y8D01*
X653Y8D01*
X652Y8D01*
X651Y8D01*
X650Y8D01*
X649Y8D01*
X648Y8D01*
X647Y8D01*
X646Y8D01*
X645Y8D01*
X644Y8D01*
X643Y8D01*
X642Y8D01*
X641Y8D01*
X640Y8D01*
X639Y8D01*
X638Y8D01*
X637Y8D01*
X636Y8D01*
X635Y8D01*
X634Y8D01*
X633Y8D01*
X632Y8D01*
X631Y8D01*
X630Y8D01*
X629Y8D01*
X628Y8D01*
X627Y8D01*
X626Y8D01*
X625Y8D01*
X624Y8D01*
X623Y8D01*
X622Y8D01*
X621Y8D01*
X620Y8D01*
X619Y8D01*
X618Y8D01*
X617Y8D01*
X616Y8D01*
X615Y8D01*
X614Y8D01*
X613Y8D01*
X612Y8D01*
X611Y8D01*
X610Y8D01*
X609Y8D01*
X608Y8D01*
X607Y8D01*
X606Y8D01*
X605Y8D01*
X604Y8D01*
X603Y8D01*
X602Y8D01*
X601Y8D01*
X600Y8D01*
X599Y8D01*
X598Y8D01*
X597Y8D01*
X596Y8D01*
X595Y8D01*
X594Y8D01*
X593Y8D01*
X592Y8D01*
X591Y8D01*
X590Y8D01*
X589Y8D01*
X588Y8D01*
X587Y8D01*
X586Y8D01*
X585Y8D01*
X584Y8D01*
X583Y8D01*
X582Y8D01*
X581Y8D01*
X580Y8D01*
X579Y8D01*
X578Y8D01*
X577Y8D01*
X576Y8D01*
X575Y8D01*
X574Y8D01*
X573Y8D01*
X572Y8D01*
X571Y8D01*
X570Y8D01*
X569Y8D01*
X568Y8D01*
X567Y8D01*
X566Y8D01*
X565Y8D01*
X564Y8D01*
X563Y8D01*
X562Y8D01*
X561Y8D01*
X560Y8D01*
X559Y8D01*
X558Y8D01*
X557Y8D01*
X556Y8D01*
X555Y8D01*
X554Y8D01*
X553Y8D01*
X552Y8D01*
X551Y8D01*
X550Y8D01*
X549Y8D01*
X548Y8D01*
X547Y8D01*
X546Y8D01*
X545Y8D01*
X544Y8D01*
X543Y8D01*
X542Y8D01*
X541Y8D01*
X540Y8D01*
X539Y8D01*
X538Y8D01*
X537Y8D01*
X536Y8D01*
X535Y8D01*
X534Y8D01*
X533Y8D01*
X532Y8D01*
X531Y8D01*
X530Y8D01*
X529Y8D01*
X528Y8D01*
X527Y8D01*
X526Y8D01*
X525Y8D01*
X524Y8D01*
X523Y8D01*
X522Y8D01*
X521Y8D01*
X520Y8D01*
X519Y8D01*
X518Y8D01*
X517Y8D01*
X516Y8D01*
X515Y8D01*
X514Y8D01*
X513Y8D01*
X512Y8D01*
X511Y8D01*
X510Y8D01*
X509Y8D01*
X508Y8D01*
X507Y8D01*
X506Y8D01*
X505Y8D01*
X504Y8D01*
X503Y8D01*
X502Y8D01*
X501Y8D01*
X500Y8D01*
X499Y8D01*
X498Y8D01*
X497Y8D01*
X496Y8D01*
X495Y8D01*
X494Y8D01*
X493Y8D01*
X492Y8D01*
X491Y8D01*
X490Y8D01*
X489Y8D01*
X488Y8D01*
X487Y8D01*
X486Y8D01*
X485Y8D01*
X484Y8D01*
X483Y8D01*
X482Y8D01*
X481Y8D01*
X480Y8D01*
X479Y8D01*
X478Y8D01*
X477Y8D01*
X476Y8D01*
X475Y8D01*
X474Y8D01*
X473Y8D01*
X472Y8D01*
X471Y8D01*
X470Y8D01*
X469Y8D01*
X468Y8D01*
X467Y8D01*
X466Y8D01*
X465Y8D01*
X464Y8D01*
X463Y8D01*
X462Y8D01*
X461Y8D01*
X460Y8D01*
X459Y8D01*
X458Y8D01*
X457Y8D01*
X456Y8D01*
X455Y8D01*
X454Y8D01*
X453Y8D01*
X452Y8D01*
X451Y8D01*
X450Y8D01*
X449Y8D01*
X448Y8D01*
X447Y8D01*
X446Y8D01*
X445Y8D01*
X444Y8D01*
X443Y8D01*
X442Y8D01*
X441Y8D01*
X440Y8D01*
X439Y8D01*
X438Y8D01*
X437Y8D01*
X436Y8D01*
X435Y8D01*
X434Y8D01*
X433Y8D01*
X432Y8D01*
X431Y8D01*
X430Y8D01*
X429Y8D01*
X428Y8D01*
X427Y8D01*
X426Y8D01*
X425Y8D01*
X424Y8D01*
X423Y8D01*
X422Y8D01*
X421Y8D01*
X420Y8D01*
X419Y8D01*
X418Y8D01*
X417Y8D01*
X416Y8D01*
X415Y8D01*
X414Y8D01*
X413Y8D01*
X412Y8D01*
X411Y8D01*
X410Y8D01*
X409Y8D01*
X408Y8D01*
X407Y8D01*
X406Y8D01*
X405Y8D01*
X404Y8D01*
X403Y8D01*
X402Y8D01*
X401Y8D01*
X400Y8D01*
X399Y8D01*
X398Y8D01*
X397Y8D01*
X396Y8D01*
X395Y8D01*
X394Y8D01*
X393Y8D01*
X392Y8D01*
X391Y8D01*
X390Y8D01*
X389Y8D01*
X388Y8D01*
X387Y8D01*
X386Y8D01*
X385Y8D01*
X384Y8D01*
X383Y8D01*
X382Y8D01*
X381Y8D01*
X380Y8D01*
X379Y8D01*
X378Y8D01*
X377Y8D01*
X376Y8D01*
X375Y8D01*
X374Y8D01*
X373Y8D01*
X372Y8D01*
X371Y8D01*
X370Y8D01*
X369Y8D01*
X368Y8D01*
X367Y8D01*
X366Y8D01*
X365Y8D01*
X364Y8D01*
X363Y8D01*
X362Y8D01*
X361Y8D01*
X360Y8D01*
X359Y8D01*
X358Y8D01*
X357Y8D01*
X356Y8D01*
X355Y8D01*
X354Y8D01*
X353Y8D01*
X352Y8D01*
X351Y8D01*
X350Y8D01*
X349Y8D01*
X348Y8D01*
X347Y8D01*
X346Y8D01*
X345Y8D01*
X344Y8D01*
X343Y8D01*
X342Y8D01*
X341Y8D01*
X340Y8D01*
X339Y8D01*
X338Y8D01*
X337Y8D01*
X336Y8D01*
X335Y8D01*
X334Y8D01*
X333Y8D01*
X332Y8D01*
X331Y8D01*
X330Y8D01*
X329Y8D01*
X328Y8D01*
X327Y8D01*
X326Y8D01*
X325Y8D01*
X324Y8D01*
X323Y8D01*
X322Y8D01*
X321Y8D01*
X320Y8D01*
X319Y8D01*
X318Y8D01*
X317Y8D01*
X316Y8D01*
X315Y8D01*
X314Y8D01*
X313Y8D01*
X312Y8D01*
X311Y8D01*
X310Y8D01*
X309Y8D01*
X308Y8D01*
X307Y8D01*
X306Y8D01*
X305Y8D01*
X304Y8D01*
X303Y8D01*
X302Y8D01*
X301Y8D01*
X300Y8D01*
X299Y8D01*
X298Y8D01*
X297Y8D01*
X296Y8D01*
X295Y8D01*
X294Y8D01*
X293Y8D01*
X292Y8D01*
X291Y8D01*
X290Y8D01*
X289Y8D01*
X288Y8D01*
X287Y8D01*
X286Y8D01*
X285Y8D01*
X284Y8D01*
X283Y8D01*
X282Y8D01*
X281Y8D01*
X280Y8D01*
X279Y8D01*
X278Y8D01*
X277Y8D01*
X276Y8D01*
X275Y8D01*
X274Y8D01*
X273Y8D01*
X272Y8D01*
X271Y8D01*
X270Y8D01*
X269Y8D01*
X268Y8D01*
X267Y8D01*
X266Y8D01*
X265Y8D01*
X264Y8D01*
X263Y8D01*
X262Y8D01*
X261Y8D01*
X260Y8D01*
X259Y8D01*
X258Y8D01*
X257Y8D01*
X256Y8D01*
X255Y8D01*
X254Y8D01*
X253Y8D01*
X252Y8D01*
X251Y8D01*
X250Y8D01*
X249Y8D01*
X248Y8D01*
X247Y8D01*
X246Y8D01*
X245Y8D01*
X244Y8D01*
X243Y8D01*
X242Y8D01*
X241Y8D01*
X240Y8D01*
X239Y8D01*
X238Y8D01*
X237Y8D01*
X236Y8D01*
X235Y8D01*
X234Y8D01*
X233Y8D01*
X232Y8D01*
X231Y8D01*
X230Y8D01*
X229Y8D01*
X228Y8D01*
X227Y8D01*
X226Y8D01*
X225Y8D01*
X224Y8D01*
X223Y8D01*
X222Y8D01*
X221Y8D01*
X220Y8D01*
X219Y8D01*
X218Y8D01*
X217Y8D01*
X216Y8D01*
X215Y8D01*
X214Y8D01*
X213Y8D01*
X212Y8D01*
X211Y8D01*
X210Y8D01*
X209Y8D01*
X208Y8D01*
X207Y8D01*
X206Y8D01*
X205Y8D01*
X204Y8D01*
X203Y8D01*
X202Y8D01*
X201Y8D01*
X200Y8D01*
X199Y8D01*
X198Y8D01*
X197Y8D01*
X196Y8D01*
X195Y8D01*
X194Y8D01*
X193Y8D01*
X192Y8D01*
X191Y8D01*
X190Y8D01*
X189Y8D01*
X188Y8D01*
X187Y8D01*
X186Y8D01*
X185Y8D01*
X184Y8D01*
X183Y8D01*
X182Y8D01*
X181Y8D01*
X180Y8D01*
X179Y8D01*
X178Y8D01*
X177Y8D01*
X176Y8D01*
X175Y8D01*
X174Y8D01*
X173Y8D01*
X172Y8D01*
X171Y8D01*
X170Y8D01*
X169Y8D01*
X168Y8D01*
X167Y8D01*
X166Y8D01*
X165Y8D01*
X164Y8D01*
X163Y8D01*
X162Y8D01*
X161Y8D01*
X160Y8D01*
X159Y8D01*
X158Y8D01*
X157Y8D01*
X156Y8D01*
X155Y8D01*
X154Y8D01*
X153Y8D01*
X152Y8D01*
X151Y8D01*
X150Y8D01*
X149Y8D01*
X148Y8D01*
X147Y8D01*
X146Y8D01*
X145Y8D01*
X144Y8D01*
X143Y8D01*
X142Y8D01*
X141Y8D01*
X140Y8D01*
X139Y8D01*
X138Y8D01*
X137Y8D01*
X136Y8D01*
X135Y8D01*
X134Y8D01*
X133Y8D01*
X132Y8D01*
X131Y8D01*
X130Y8D01*
X129Y8D01*
X128Y8D01*
X127Y8D01*
X126Y8D01*
X125Y8D01*
X124Y8D01*
X123Y8D01*
X122Y8D01*
X121Y8D01*
X120Y8D01*
X119Y8D01*
X118Y8D01*
X117Y8D01*
X116Y8D01*
X115Y8D01*
X114Y8D01*
X113Y8D01*
X112Y8D01*
X111Y8D01*
X110Y8D01*
X109Y8D01*
X108Y8D01*
X107Y8D01*
X106Y8D01*
X105Y8D01*
X104Y8D01*
X103Y8D01*
X102Y8D01*
X101Y8D01*
X100Y8D01*
X99Y8D01*
X98Y8D01*
X97Y8D01*
X96Y8D01*
X95Y8D01*
X94Y8D01*
X93Y8D01*
X92Y8D01*
X91Y8D01*
X90Y8D01*
X89Y8D01*
X88Y8D01*
X87Y8D01*
X86Y8D01*
X85Y8D01*
X84Y8D01*
X83Y8D01*
X82Y8D01*
X81Y8D01*
X80Y8D01*
X79Y8D01*
X78Y8D01*
X77Y8D01*
X76Y8D01*
X75Y8D01*
X74Y8D01*
X73Y8D01*
X72Y8D01*
X71Y8D01*
X70Y8D01*
X69Y8D01*
X68Y8D01*
X67Y8D01*
X66Y8D01*
X65Y8D01*
X64Y8D01*
X63Y8D01*
X62Y8D01*
X61Y8D01*
X60Y8D01*
X59Y8D01*
X58Y8D01*
X57Y8D01*
X56Y8D01*
X55Y8D01*
X54Y8D01*
X53Y8D01*
X52Y8D01*
X51Y8D01*
X50Y8D01*
X49Y8D01*
X48Y8D01*
X47Y8D01*
X46Y8D01*
X45Y8D01*
X44Y8D01*
X43Y8D01*
X42Y8D01*
X41Y8D01*
X40Y8D01*
X39Y9D01*
X38Y9D01*
X37Y9D01*
X36Y9D01*
X35Y9D01*
X34Y10D01*
X33Y10D01*
X32Y10D01*
X31Y11D01*
X30Y11D01*
X29Y12D01*
X28Y12D01*
X27Y13D01*
X26Y13D01*
X25Y14D01*
X24Y15D01*
X23Y15D01*
X22Y16D01*
X21Y17D01*
X20Y18D01*
X19Y19D01*
X18Y19D01*
X18Y20D01*
X17Y21D01*
X16Y22D01*
X15Y23D01*
X14Y24D01*
X14Y25D01*
X13Y26D01*
X12Y27D01*
X12Y28D01*
X11Y29D01*
X11Y30D01*
X10Y31D01*
X10Y32D01*
X9Y33D01*
X9Y35D01*
X8Y36D01*
X8Y40D01*
X7Y41D01*
X7Y4107D01*
X8Y4108D01*
X8Y4112D01*
X9Y4113D01*
X9Y4115D01*
X10Y4116D01*
X10Y4117D01*
X11Y4118D01*
X11Y4119D01*
X12Y4120D01*
X12Y4121D01*
X13Y4122D01*
X14Y4123D01*
X14Y4124D01*
X15Y4125D01*
X16Y4126D01*
X17Y4127D01*
X18Y4128D01*
X18Y4129D01*
X19Y4129D01*
X20Y4130D01*
X21Y4131D01*
X22Y4132D01*
X23Y4133D01*
X24Y4133D01*
X25Y4134D01*
X26Y4135D01*
X27Y4135D01*
X28Y4136D01*
X29Y4136D01*
X30Y4137D01*
X31Y4137D01*
X32Y4138D01*
X33Y4138D01*
X34Y4138D01*
X35Y4139D01*
X36Y4139D01*
X37Y4139D01*
X38Y4139D01*
X39Y4139D01*
X40Y4140D01*
D02*
G04 End of contour*
M02*