M48
INCH
T10C0.040000
T11C0.035000
T12C0.042000
T13C0.038000
T14C0.031555
T15C0.031496
T16C0.015748
%
T10
X016142Y017212
X016142Y016212
X016142Y015212
X016142Y014212
X016142Y013212
X016142Y012212
X016142Y011212
X016142Y010212
X016142Y009212
X016142Y008212
X016142Y007212
X016142Y006212
X016142Y005212
X015142Y017212
X015142Y016212
X015142Y015212
X015142Y014212
X015142Y013212
X015142Y012212
X015142Y011212
X015142Y010212
X015142Y009212
X015142Y008212
X015142Y007212
X015142Y006212
X015142Y005212
T11
X019142Y008712
X022142Y008712
X019142Y006712
X022142Y006712
X009642Y023212
X012201Y023212
X009642Y021440
X012201Y021440
X014142Y023212
X016701Y023212
X014142Y021440
X016701Y021440
X024142Y011712
X021142Y011712
X024142Y012712
X021142Y012712
X024142Y013712
X021142Y013712
X024142Y014712
X021142Y014712
X024142Y015712
X021142Y015712
X024142Y016712
X021142Y016712
X024142Y017712
X021142Y017712
X024142Y018712
X021142Y018712
X001642Y016212
X007642Y016212
X001642Y015212
X007642Y015212
X001642Y014212
X007642Y014212
X001642Y013212
X007642Y013212
X001642Y012212
X007642Y012212
X001642Y011212
X007642Y011212
X001642Y010212
X007642Y010212
X001642Y009212
X007642Y009212
X001642Y008212
X007642Y008212
X001642Y007212
X007642Y007212
X001642Y006212
X007642Y006212
X001642Y005212
X007642Y005212
X016142Y026212
X010142Y026212
X016142Y027212
X010142Y027212
X016142Y028212
X010142Y028212
X016142Y029212
X010142Y029212
X016142Y030212
X010142Y030212
X016142Y031212
X010142Y031212
X016142Y032212
X010142Y032212
X016142Y033212
X010142Y033212
X016142Y034212
X010142Y034212
X016142Y035212
X010142Y035212
X016142Y036212
X010142Y036212
X016142Y037212
X010142Y037212
X025142Y024212
X022142Y024212
X025142Y025212
X022142Y025212
X025142Y026212
X022142Y026212
X025142Y027212
X022142Y027212
X025142Y028212
X022142Y028212
X025142Y029212
X022142Y029212
X025142Y030212
X022142Y030212
X025142Y031212
X022142Y031212
X025142Y032212
X022142Y032212
X025142Y033212
X022142Y033212
X025142Y034212
X022142Y034212
X025142Y035212
X022142Y035212
X025142Y036212
X022142Y036212
X025142Y037212
X022142Y037212
T12
X007642Y029212
X007642Y028212
X007642Y027212
T13
X007642Y033712
T14
X019142Y027281
T15
X019142Y029212
T16
X004644Y031237
X004644Y021237
X025142Y040690
X026642Y034212
X026142Y003212
X023642Y003212
X019631Y003234
X023631Y039723
X018653Y012727
X013142Y022212
X018155Y012194
X022142Y021712
X021142Y004712
X023142Y038712
X024119Y040212
X012142Y001712
X011142Y001712
X021642Y004212
X020639Y005212
X007642Y002212
X020142Y013212
X019642Y015212
X009142Y008212
T00
M30
