G04 MADE WITH FRITZING*
G04 WWW.FRITZING.ORG*
G04 DOUBLE SIDED*
G04 HOLES PLATED*
G04 CONTOUR ON CENTER OF CONTOUR VECTOR*
%ASAXBY*%
%FSLAX23Y23*%
%MOIN*%
%OFA0B0*%
%SFA1.0B1.0*%
%ADD10C,0.084000*%
%ADD11C,0.085000*%
%ADD12C,0.092000*%
%ADD13C,0.088000*%
%ADD14C,0.080925*%
%ADD15C,0.080866*%
%ADD16C,0.049370*%
%ADD17R,0.084000X0.084000*%
%ADD18R,0.085000X0.085000*%
%ADD19R,0.092000X0.092000*%
%LNMASK1*%
G90*
G70*
G54D10*
X1514Y521D03*
X1514Y621D03*
X1514Y721D03*
X1514Y821D03*
X1514Y921D03*
X1514Y1021D03*
X1514Y1121D03*
X1514Y1221D03*
X1514Y1321D03*
X1514Y1421D03*
X1514Y1521D03*
X1514Y1621D03*
X1514Y1721D03*
X1614Y521D03*
X1614Y621D03*
X1614Y721D03*
X1614Y821D03*
X1614Y921D03*
X1614Y1021D03*
X1614Y1121D03*
X1614Y1221D03*
X1614Y1321D03*
X1614Y1421D03*
X1614Y1521D03*
X1614Y1621D03*
X1614Y1721D03*
G54D11*
X2214Y3721D03*
X2514Y3721D03*
X2214Y3621D03*
X2514Y3621D03*
X2214Y3521D03*
X2514Y3521D03*
X2214Y3421D03*
X2514Y3421D03*
X2214Y3321D03*
X2514Y3321D03*
X2214Y3221D03*
X2514Y3221D03*
X2214Y3121D03*
X2514Y3121D03*
X2214Y3021D03*
X2514Y3021D03*
X2214Y2921D03*
X2514Y2921D03*
X2214Y2821D03*
X2514Y2821D03*
X2214Y2721D03*
X2514Y2721D03*
X2214Y2621D03*
X2514Y2621D03*
X2214Y2521D03*
X2514Y2521D03*
X2214Y2421D03*
X2514Y2421D03*
X1014Y3721D03*
X1614Y3721D03*
X1014Y3621D03*
X1614Y3621D03*
X1014Y3521D03*
X1614Y3521D03*
X1014Y3421D03*
X1614Y3421D03*
X1014Y3321D03*
X1614Y3321D03*
X1014Y3221D03*
X1614Y3221D03*
X1014Y3121D03*
X1614Y3121D03*
X1014Y3021D03*
X1614Y3021D03*
X1014Y2921D03*
X1614Y2921D03*
X1014Y2821D03*
X1614Y2821D03*
X1014Y2721D03*
X1614Y2721D03*
X1014Y2621D03*
X1614Y2621D03*
X764Y521D03*
X164Y521D03*
X764Y621D03*
X164Y621D03*
X764Y721D03*
X164Y721D03*
X764Y821D03*
X164Y821D03*
X764Y921D03*
X164Y921D03*
X764Y1021D03*
X164Y1021D03*
X764Y1121D03*
X164Y1121D03*
X764Y1221D03*
X164Y1221D03*
X764Y1321D03*
X164Y1321D03*
X764Y1421D03*
X164Y1421D03*
X764Y1521D03*
X164Y1521D03*
X764Y1621D03*
X164Y1621D03*
G54D12*
X764Y2721D03*
X764Y2821D03*
X764Y2921D03*
G54D13*
X764Y3371D03*
G54D14*
X1914Y2728D03*
G54D15*
X1914Y2921D03*
G54D11*
X2114Y1871D03*
X2414Y1871D03*
X2114Y1771D03*
X2414Y1771D03*
X2114Y1671D03*
X2414Y1671D03*
X2114Y1571D03*
X2414Y1571D03*
X2114Y1471D03*
X2414Y1471D03*
X2114Y1371D03*
X2414Y1371D03*
X2114Y1271D03*
X2414Y1271D03*
X2114Y1171D03*
X2414Y1171D03*
G54D16*
X914Y821D03*
X1964Y1521D03*
X2014Y1321D03*
X764Y221D03*
X2064Y521D03*
X2164Y421D03*
X1114Y171D03*
X1214Y171D03*
X2412Y4021D03*
X2314Y3871D03*
G54D11*
X1670Y2144D03*
X1414Y2144D03*
X1670Y2321D03*
X1414Y2321D03*
X1220Y2144D03*
X964Y2144D03*
X1220Y2321D03*
X964Y2321D03*
X2214Y671D03*
X1914Y671D03*
X2214Y871D03*
X1914Y871D03*
G54D16*
X2114Y471D03*
X2214Y2171D03*
X1816Y1219D03*
X1314Y2221D03*
X1865Y1273D03*
X2363Y3972D03*
X1963Y323D03*
X2364Y321D03*
X2614Y321D03*
X2664Y3421D03*
X2514Y4069D03*
X464Y2124D03*
X464Y3124D03*
G54D17*
X1614Y521D03*
G54D18*
X2214Y3721D03*
X1014Y3721D03*
X764Y521D03*
G54D19*
X764Y2721D03*
G54D18*
X2114Y1871D03*
X2214Y671D03*
X2214Y871D03*
G04 End of Mask1*
M02*