G04 MADE WITH FRITZING*
G04 WWW.FRITZING.ORG*
G04 DOUBLE SIDED*
G04 HOLES PLATED*
G04 CONTOUR ON CENTER OF CONTOUR VECTOR*
%ASAXBY*%
%FSLAX23Y23*%
%MOIN*%
%OFA0B0*%
%SFA1.0B1.0*%
%ADD10C,0.077559*%
%ADD11C,0.085000*%
%ADD12R,0.077559X0.077559*%
%LNMASK1*%
G90*
G70*
G54D10*
X3419Y1367D03*
X3419Y767D03*
X3319Y1367D03*
X3319Y767D03*
X3219Y1367D03*
X3219Y767D03*
X3119Y1367D03*
X3119Y767D03*
X3019Y1367D03*
X3019Y767D03*
X2919Y1367D03*
X2919Y767D03*
X2819Y1367D03*
X2819Y767D03*
X2719Y1367D03*
X2719Y767D03*
X2619Y1367D03*
X2619Y767D03*
X2519Y1367D03*
X2519Y767D03*
X2419Y1367D03*
X2419Y767D03*
X2319Y1367D03*
X2319Y767D03*
X969Y117D03*
X1069Y117D03*
X1169Y117D03*
X1269Y117D03*
X1369Y117D03*
X1469Y117D03*
X1569Y117D03*
X1669Y117D03*
X1769Y117D03*
X1869Y117D03*
X1969Y117D03*
X2069Y117D03*
X2169Y117D03*
X969Y117D03*
X1069Y117D03*
X1169Y117D03*
X1269Y117D03*
X1369Y117D03*
X1469Y117D03*
X1569Y117D03*
X1669Y117D03*
X1769Y117D03*
X1869Y117D03*
X1969Y117D03*
X2069Y117D03*
X2169Y117D03*
X2169Y217D03*
X2069Y217D03*
X1969Y217D03*
X1869Y217D03*
X1769Y217D03*
X1669Y217D03*
X1569Y217D03*
X1469Y217D03*
X1369Y217D03*
X1269Y217D03*
X1169Y217D03*
X1069Y217D03*
X969Y217D03*
X919Y367D03*
X1019Y367D03*
X1119Y367D03*
X1219Y367D03*
X1319Y367D03*
X1419Y367D03*
X1519Y367D03*
X1619Y367D03*
X1719Y367D03*
X1819Y367D03*
X1919Y367D03*
X2019Y367D03*
X2119Y367D03*
X919Y367D03*
X1019Y367D03*
X1119Y367D03*
X1219Y367D03*
X1319Y367D03*
X1419Y367D03*
X1519Y367D03*
X1619Y367D03*
X1719Y367D03*
X1819Y367D03*
X1919Y367D03*
X2019Y367D03*
X2119Y367D03*
X2119Y467D03*
X2019Y467D03*
X1919Y467D03*
X1819Y467D03*
X1719Y467D03*
X1619Y467D03*
X1519Y467D03*
X1419Y467D03*
X1319Y467D03*
X1219Y467D03*
X1119Y467D03*
X1019Y467D03*
X919Y467D03*
X1319Y1367D03*
X1319Y767D03*
X1219Y1367D03*
X1219Y767D03*
X1119Y1367D03*
X1119Y767D03*
X1019Y1367D03*
X1019Y767D03*
X919Y1367D03*
X919Y767D03*
X819Y1367D03*
X819Y767D03*
X719Y1367D03*
X719Y767D03*
X619Y1367D03*
X619Y767D03*
X519Y1367D03*
X519Y767D03*
X419Y1367D03*
X419Y767D03*
X319Y1367D03*
X319Y767D03*
X219Y1367D03*
X219Y767D03*
X1469Y1067D03*
X1469Y1367D03*
X1569Y1067D03*
X1569Y1367D03*
X1669Y1067D03*
X1669Y1367D03*
X1769Y1067D03*
X1769Y1367D03*
X1869Y1067D03*
X1869Y1367D03*
X1969Y1067D03*
X1969Y1367D03*
X2069Y1067D03*
X2069Y1367D03*
X2169Y1067D03*
X2169Y1367D03*
G54D11*
X3177Y1827D03*
X3177Y1571D03*
X3000Y1827D03*
X3000Y1571D03*
X3442Y1827D03*
X3442Y1571D03*
X3265Y1827D03*
X3265Y1571D03*
X369Y467D03*
X69Y467D03*
X369Y641D03*
X69Y641D03*
G54D12*
X3419Y1367D03*
X1319Y1367D03*
X1469Y1067D03*
G04 End of Mask1*
M02*