G04 MADE WITH FRITZING*
G04 WWW.FRITZING.ORG*
G04 DOUBLE SIDED*
G04 HOLES PLATED*
G04 CONTOUR ON CENTER OF CONTOUR VECTOR*
%ASAXBY*%
%FSLAX23Y23*%
%MOIN*%
%OFA0B0*%
%SFA1.0B1.0*%
%ADD10C,0.067559*%
%ADD11C,0.075000*%
%ADD12R,0.067559X0.067559*%
%ADD13C,0.012000*%
%ADD14C,0.024000*%
%LNCOPPER1*%
G90*
G70*
G54D10*
X3419Y1367D03*
X3419Y767D03*
X3319Y1367D03*
X3319Y767D03*
X3219Y1367D03*
X3219Y767D03*
X3119Y1367D03*
X3119Y767D03*
X3019Y1367D03*
X3019Y767D03*
X2919Y1367D03*
X2919Y767D03*
X2819Y1367D03*
X2819Y767D03*
X2719Y1367D03*
X2719Y767D03*
X2619Y1367D03*
X2619Y767D03*
X2519Y1367D03*
X2519Y767D03*
X2419Y1367D03*
X2419Y767D03*
X2319Y1367D03*
X2319Y767D03*
X969Y117D03*
X1069Y117D03*
X1169Y117D03*
X1269Y117D03*
X1369Y117D03*
X1469Y117D03*
X1569Y117D03*
X1669Y117D03*
X1769Y117D03*
X1869Y117D03*
X1969Y117D03*
X2069Y117D03*
X2169Y117D03*
X969Y117D03*
X1069Y117D03*
X1169Y117D03*
X1269Y117D03*
X1369Y117D03*
X1469Y117D03*
X1569Y117D03*
X1669Y117D03*
X1769Y117D03*
X1869Y117D03*
X1969Y117D03*
X2069Y117D03*
X2169Y117D03*
X2169Y217D03*
X2069Y217D03*
X1969Y217D03*
X1869Y217D03*
X1769Y217D03*
X1669Y217D03*
X1569Y217D03*
X1469Y217D03*
X1369Y217D03*
X1269Y217D03*
X1169Y217D03*
X1069Y217D03*
X969Y217D03*
X919Y367D03*
X1019Y367D03*
X1119Y367D03*
X1219Y367D03*
X1319Y367D03*
X1419Y367D03*
X1519Y367D03*
X1619Y367D03*
X1719Y367D03*
X1819Y367D03*
X1919Y367D03*
X2019Y367D03*
X2119Y367D03*
X919Y367D03*
X1019Y367D03*
X1119Y367D03*
X1219Y367D03*
X1319Y367D03*
X1419Y367D03*
X1519Y367D03*
X1619Y367D03*
X1719Y367D03*
X1819Y367D03*
X1919Y367D03*
X2019Y367D03*
X2119Y367D03*
X2119Y467D03*
X2019Y467D03*
X1919Y467D03*
X1819Y467D03*
X1719Y467D03*
X1619Y467D03*
X1519Y467D03*
X1419Y467D03*
X1319Y467D03*
X1219Y467D03*
X1119Y467D03*
X1019Y467D03*
X919Y467D03*
X1319Y1367D03*
X1319Y767D03*
X1219Y1367D03*
X1219Y767D03*
X1119Y1367D03*
X1119Y767D03*
X1019Y1367D03*
X1019Y767D03*
X919Y1367D03*
X919Y767D03*
X819Y1367D03*
X819Y767D03*
X719Y1367D03*
X719Y767D03*
X619Y1367D03*
X619Y767D03*
X519Y1367D03*
X519Y767D03*
X419Y1367D03*
X419Y767D03*
X319Y1367D03*
X319Y767D03*
X219Y1367D03*
X219Y767D03*
X1469Y1067D03*
X1469Y1367D03*
X1569Y1067D03*
X1569Y1367D03*
X1669Y1067D03*
X1669Y1367D03*
X1769Y1067D03*
X1769Y1367D03*
X1869Y1067D03*
X1869Y1367D03*
X1969Y1067D03*
X1969Y1367D03*
X2069Y1067D03*
X2069Y1367D03*
X2169Y1067D03*
X2169Y1367D03*
G54D11*
X3177Y1827D03*
X3177Y1571D03*
X3000Y1827D03*
X3000Y1571D03*
X3442Y1827D03*
X3442Y1571D03*
X3265Y1827D03*
X3265Y1571D03*
X369Y467D03*
X69Y467D03*
X369Y641D03*
X69Y641D03*
G54D12*
X3419Y1367D03*
X1319Y1367D03*
X1469Y1067D03*
G54D13*
X1669Y417D02*
X1633Y453D01*
D02*
X1570Y417D02*
X1533Y454D01*
D02*
X1468Y417D02*
X1433Y453D01*
D02*
X1369Y417D02*
X1333Y453D01*
D02*
X1269Y417D02*
X1233Y453D01*
D02*
X1170Y417D02*
X1133Y454D01*
D02*
X1068Y417D02*
X1033Y453D01*
D02*
X969Y417D02*
X933Y453D01*
D02*
X1669Y237D02*
X1669Y417D01*
D02*
X1569Y237D02*
X1570Y417D01*
D02*
X1469Y237D02*
X1468Y417D01*
D02*
X1369Y237D02*
X1369Y417D01*
D02*
X1269Y237D02*
X1269Y417D01*
D02*
X1169Y237D02*
X1170Y417D01*
D02*
X1069Y237D02*
X1068Y417D01*
D02*
X969Y237D02*
X969Y417D01*
D02*
X2169Y417D02*
X2133Y453D01*
D02*
X1868Y417D02*
X1833Y453D01*
D02*
X1769Y417D02*
X1733Y453D01*
D02*
X2169Y237D02*
X2169Y417D01*
D02*
X1869Y237D02*
X1868Y417D01*
D02*
X1769Y237D02*
X1769Y417D01*
D02*
X569Y218D02*
X950Y217D01*
D02*
X465Y124D02*
X950Y118D01*
G54D14*
D02*
X3439Y1543D02*
X3422Y1392D01*
D02*
X3177Y1799D02*
X3177Y1600D01*
G54D13*
D02*
X471Y1317D02*
X506Y1353D01*
D02*
X465Y124D02*
X471Y1317D01*
D02*
X121Y816D02*
X119Y1666D01*
D02*
X3120Y1690D02*
X3120Y1467D01*
D02*
X119Y1666D02*
X3120Y1690D01*
D02*
X3120Y1467D02*
X3206Y1381D01*
D02*
X202Y776D02*
X121Y816D01*
G54D14*
D02*
X2044Y1067D02*
X1994Y1067D01*
D02*
X2144Y1067D02*
X2094Y1067D01*
G54D13*
D02*
X2243Y914D02*
X1720Y918D01*
D02*
X2058Y43D02*
X2254Y39D01*
D02*
X1984Y105D02*
X2058Y43D01*
D02*
X2254Y39D02*
X2243Y914D01*
D02*
X1720Y918D02*
X1718Y1169D01*
D02*
X1570Y866D02*
X1569Y1048D01*
D02*
X2117Y866D02*
X1570Y866D01*
G54D14*
D02*
X3421Y1067D02*
X2194Y1067D01*
D02*
X3419Y1342D02*
X3421Y1067D01*
G54D13*
D02*
X2119Y487D02*
X2117Y866D01*
G54D14*
D02*
X1368Y1216D02*
X1455Y1347D01*
D02*
X1368Y816D02*
X1368Y1216D01*
D02*
X1337Y785D02*
X1368Y816D01*
G54D13*
D02*
X1468Y1169D02*
X1469Y1087D01*
D02*
X1718Y1169D02*
X1468Y1169D01*
D02*
X1019Y667D02*
X869Y667D01*
D02*
X1220Y467D02*
X1019Y667D01*
D02*
X869Y667D02*
X868Y1316D01*
D02*
X967Y1317D02*
X1005Y1354D01*
D02*
X868Y1316D02*
X905Y1354D01*
D02*
X1068Y717D02*
X969Y717D01*
D02*
X969Y717D02*
X967Y1317D01*
D02*
X1305Y481D02*
X1068Y717D01*
D02*
X1238Y462D02*
X1220Y467D01*
G54D14*
D02*
X3265Y1799D02*
X3265Y1600D01*
G54D13*
D02*
X2170Y1266D02*
X2169Y1348D01*
D02*
X2618Y1266D02*
X2170Y1266D01*
D02*
X2619Y1348D02*
X2618Y1266D01*
D02*
X68Y717D02*
X347Y647D01*
D02*
X69Y1718D02*
X68Y717D01*
D02*
X3118Y1744D02*
X69Y1718D01*
D02*
X3164Y1808D02*
X3118Y1744D01*
D02*
X569Y1317D02*
X605Y1354D01*
D02*
X569Y218D02*
X569Y1317D01*
D02*
X2069Y1169D02*
X1978Y1350D01*
D02*
X2821Y1169D02*
X2068Y1169D01*
D02*
X2819Y1348D02*
X2821Y1169D01*
D02*
X2119Y1215D02*
X2075Y1349D01*
D02*
X2719Y1215D02*
X2119Y1215D01*
D02*
X2719Y1348D02*
X2719Y1215D01*
D02*
X1120Y717D02*
X1119Y748D01*
D02*
X668Y1317D02*
X705Y1354D01*
D02*
X668Y568D02*
X668Y1317D01*
D02*
X770Y618D02*
X770Y1317D01*
D02*
X770Y1317D02*
X806Y1353D01*
D02*
X969Y618D02*
X770Y618D01*
D02*
X1269Y568D02*
X1120Y717D01*
D02*
X1920Y567D02*
X1269Y568D01*
D02*
X1919Y487D02*
X1920Y567D01*
D02*
X1105Y481D02*
X969Y618D01*
D02*
X919Y568D02*
X668Y568D01*
D02*
X1005Y481D02*
X919Y568D01*
D02*
X1170Y1317D02*
X1133Y1354D01*
D02*
X1170Y717D02*
X1170Y1317D01*
D02*
X1269Y618D02*
X1170Y717D01*
D02*
X1971Y618D02*
X1269Y618D01*
D02*
X1970Y417D02*
X1971Y618D01*
D02*
X2005Y381D02*
X1970Y417D01*
D02*
X1271Y1317D02*
X1233Y1354D01*
D02*
X1269Y666D02*
X1271Y1317D01*
D02*
X2069Y666D02*
X1269Y666D01*
D02*
X2069Y417D02*
X2069Y666D01*
D02*
X2105Y381D02*
X2069Y417D01*
D02*
X2919Y1467D02*
X3005Y1381D01*
D02*
X420Y1469D02*
X2919Y1467D01*
D02*
X419Y1387D02*
X420Y1469D01*
D02*
X268Y816D02*
X268Y1617D01*
D02*
X3120Y1418D02*
X3120Y1387D01*
D02*
X3066Y1635D02*
X3068Y1467D01*
D02*
X3068Y1467D02*
X3120Y1418D01*
D02*
X268Y1617D02*
X3066Y1635D01*
D02*
X305Y781D02*
X268Y816D01*
D02*
X370Y816D02*
X405Y781D01*
D02*
X370Y1515D02*
X370Y816D01*
D02*
X2969Y1517D02*
X370Y1515D01*
D02*
X3068Y1418D02*
X2969Y1517D01*
D02*
X3268Y1267D02*
X3070Y1267D01*
D02*
X3069Y1267D02*
X3068Y1418D01*
D02*
X3070Y1267D02*
X3069Y1267D01*
D02*
X3310Y1350D02*
X3268Y1267D01*
D02*
X1169Y39D02*
X1169Y98D01*
D02*
X365Y32D02*
X1169Y39D01*
D02*
X369Y444D02*
X365Y32D01*
G04 End of Copper1*
M02*