; NON-PLATED HOLES START AT T1
; THROUGH (PLATED) HOLES START AT T100
M48
INCH
T100C0.035000
T101C0.027559
%
T100
X034423Y018271
X029999Y018271
X000691Y006411
X003691Y004672
X034423Y015712
X031771Y018271
X032651Y018271
X003691Y006411
X029999Y015712
X031771Y015712
X032651Y015712
X000691Y004672
T101
X026191Y007672
X016691Y001172
X002191Y013672
X014691Y013672
X034191Y013672
X014691Y002172
X018691Y010672
X011191Y004672
X017191Y003672
X010691Y001172
X033191Y007672
X027191Y007672
X015691Y013672
X015691Y002172
X007191Y013672
X012191Y004672
X018191Y003672
X011691Y001172
X002191Y007672
X034191Y007672
X009691Y001172
X016691Y013672
X016691Y002172
X008191Y013672
X019191Y003672
X020691Y010672
X017191Y004672
X010691Y002172
X007191Y007672
X013191Y003672
X028191Y013672
X009191Y013672
X021691Y010672
X018191Y004672
X011691Y002172
X017691Y001172
X003191Y013672
X008191Y007672
X020191Y003672
X019691Y010672
X014191Y003672
X029191Y013672
X009691Y002172
X010191Y013672
X023191Y013672
X028191Y007672
X019191Y004672
X018691Y001172
X004191Y013672
X009191Y007672
X021191Y003672
X013191Y004672
X012691Y001172
X003191Y007672
X030191Y013672
X011191Y013672
X014691Y010672
X024191Y013672
X029191Y007672
X017691Y013672
X017691Y002172
X020191Y004672
X010191Y007672
X023191Y007672
X014191Y004672
X013691Y001172
X004191Y007672
X031191Y013672
X012191Y013672
X015691Y010672
X018691Y013672
X018691Y002172
X030191Y007672
X021191Y004672
X020691Y001172
X011191Y007672
X024191Y007672
X032191Y013672
X012691Y002172
X016691Y010672
X015191Y003672
X031191Y007672
X021691Y001172
X012191Y007672
X009191Y003672
X013691Y002172
X019691Y001172
X005191Y013672
X016191Y003672
X032191Y007672
X020691Y013672
X020691Y002172
X010191Y003672
X025191Y013672
X006191Y013672
X015191Y004672
X014691Y001172
X005191Y007672
X021691Y013672
X021691Y002172
X013191Y013672
X009191Y004672
X011191Y003672
X026191Y013672
X019691Y013672
X019691Y002172
X025191Y007672
X016191Y004672
X015691Y001172
X006191Y007672
X033191Y013672
X017691Y010672
X012191Y003672
X027191Y013672
X010191Y004672
X013191Y007672
T00
M30
