G04 MADE WITH FRITZING*
G04 WWW.FRITZING.ORG*
G04 DOUBLE SIDED*
G04 HOLES PLATED*
G04 CONTOUR ON CENTER OF CONTOUR VECTOR*
%ASAXBY*%
%FSLAX23Y23*%
%MOIN*%
%OFA0B0*%
%SFA1.0B1.0*%
%ADD10C,0.075000*%
%ADD11C,0.039370*%
%ADD12C,0.082000*%
%ADD13C,0.070925*%
%ADD14C,0.070866*%
%ADD15C,0.078000*%
%ADD16R,0.075000X0.075000*%
%ADD17R,0.082000X0.082000*%
%ADD18C,0.024000*%
%LNCOPPER1*%
G90*
G70*
G54D10*
X924Y1641D03*
X352Y1526D03*
X1482Y1176D03*
X1481Y669D03*
X214Y273D03*
X1807Y257D03*
X1260Y280D03*
X1468Y140D03*
X1259Y759D03*
G54D11*
X1678Y476D03*
X1530Y1074D03*
X1678Y1074D03*
X1627Y175D03*
X1528Y576D03*
X1478Y776D03*
G54D10*
X2728Y376D03*
X2728Y76D03*
X2628Y376D03*
X2628Y76D03*
X2528Y376D03*
X2528Y76D03*
X2428Y376D03*
X2428Y76D03*
X2328Y376D03*
X2328Y76D03*
X2228Y376D03*
X2228Y76D03*
X2128Y376D03*
X2128Y76D03*
X2028Y376D03*
X2028Y76D03*
X1928Y376D03*
X1928Y76D03*
X1828Y376D03*
X1828Y76D03*
X1728Y376D03*
X1728Y76D03*
X1628Y376D03*
X1628Y76D03*
X1078Y1476D03*
X1378Y1476D03*
X1078Y1376D03*
X1378Y1376D03*
X1078Y1276D03*
X1378Y1276D03*
X1078Y1176D03*
X1378Y1176D03*
X1078Y1076D03*
X1378Y1076D03*
X1078Y976D03*
X1378Y976D03*
X1078Y876D03*
X1378Y876D03*
X1078Y776D03*
X1378Y776D03*
X1078Y676D03*
X1378Y676D03*
X1078Y576D03*
X1378Y576D03*
X1078Y476D03*
X1378Y476D03*
X1078Y376D03*
X1378Y376D03*
X1078Y276D03*
X1378Y276D03*
X1078Y176D03*
X1378Y176D03*
X228Y1476D03*
X828Y1476D03*
X228Y1376D03*
X828Y1376D03*
X228Y1276D03*
X828Y1276D03*
X228Y1176D03*
X828Y1176D03*
X228Y1076D03*
X828Y1076D03*
X228Y976D03*
X828Y976D03*
X228Y876D03*
X828Y876D03*
X228Y776D03*
X828Y776D03*
X228Y676D03*
X828Y676D03*
X228Y576D03*
X828Y576D03*
X228Y476D03*
X828Y476D03*
X228Y376D03*
X828Y376D03*
G54D12*
X378Y176D03*
X278Y176D03*
X178Y176D03*
G54D13*
X635Y176D03*
G54D14*
X828Y176D03*
G54D10*
X1628Y1176D03*
X1628Y1476D03*
X1728Y1176D03*
X1728Y1476D03*
X1828Y1176D03*
X1828Y1476D03*
X1928Y1176D03*
X1928Y1476D03*
X2028Y1176D03*
X2028Y1476D03*
X2128Y1176D03*
X2128Y1476D03*
X2228Y1176D03*
X2228Y1476D03*
X2328Y1176D03*
X2328Y1476D03*
G54D15*
X728Y1526D03*
G54D16*
X2728Y376D03*
X1078Y1476D03*
X228Y1476D03*
G54D17*
X378Y176D03*
G54D16*
X1628Y1176D03*
G54D18*
X1549Y1074D02*
X1659Y1074D01*
D02*
X2428Y877D02*
X2428Y405D01*
D02*
X2329Y877D02*
X2428Y877D01*
D02*
X2327Y777D02*
X2328Y405D01*
D02*
X1497Y776D02*
X2327Y777D01*
D02*
X1729Y277D02*
X1728Y105D01*
D02*
X1530Y277D02*
X1729Y277D01*
D02*
X1659Y476D02*
X1530Y476D01*
D02*
X1530Y476D02*
X1530Y277D01*
D02*
X1627Y156D02*
X1628Y105D01*
D02*
X1479Y374D02*
X1406Y376D01*
D02*
X1479Y527D02*
X1479Y374D01*
D02*
X2127Y527D02*
X1479Y527D01*
D02*
X2128Y405D02*
X2127Y527D01*
D02*
X1406Y576D02*
X1509Y576D01*
D02*
X1479Y1276D02*
X1729Y1276D01*
D02*
X1729Y1276D02*
X1728Y1205D01*
D02*
X1479Y1374D02*
X1479Y1276D01*
D02*
X1406Y1375D02*
X1479Y1374D01*
D02*
X1528Y1477D02*
X1528Y1325D01*
D02*
X1528Y1325D02*
X1828Y1325D01*
D02*
X1828Y1325D02*
X1828Y1205D01*
D02*
X1406Y1476D02*
X1528Y1477D01*
D02*
X199Y676D02*
X126Y674D01*
D02*
X378Y208D02*
X376Y476D01*
D02*
X854Y687D02*
X1051Y765D01*
D02*
X1377Y27D02*
X29Y27D01*
D02*
X1378Y147D02*
X1377Y27D01*
D02*
X29Y1625D02*
X827Y1625D01*
D02*
X29Y27D02*
X29Y1625D01*
D02*
X827Y1625D02*
X828Y1505D01*
D02*
X1175Y376D02*
X1178Y78D01*
D02*
X80Y78D02*
X80Y1375D01*
D02*
X1349Y376D02*
X1175Y376D01*
D02*
X80Y1375D02*
X199Y1376D01*
D02*
X1351Y867D02*
X1105Y785D01*
D02*
X256Y476D02*
X376Y476D01*
D02*
X927Y525D02*
X1058Y656D01*
D02*
X927Y276D02*
X927Y525D01*
D02*
X728Y276D02*
X927Y276D01*
D02*
X653Y196D02*
X728Y276D01*
D02*
X978Y175D02*
X976Y475D01*
D02*
X855Y176D02*
X978Y175D01*
D02*
X976Y475D02*
X1057Y556D01*
D02*
X1178Y78D02*
X80Y78D01*
D02*
X126Y175D02*
X146Y175D01*
D02*
X126Y674D02*
X126Y175D01*
D02*
X376Y476D02*
X256Y476D01*
D02*
X376Y476D02*
X802Y664D01*
D02*
X2329Y877D02*
X2328Y1147D01*
D02*
X1406Y876D02*
X2329Y877D01*
G36*
X40Y1712D02*
X40Y1648D01*
X210Y1648D01*
X210Y1646D01*
X836Y1646D01*
X836Y1644D01*
X840Y1644D01*
X840Y1642D01*
X842Y1642D01*
X842Y1640D01*
X844Y1640D01*
X844Y1638D01*
X846Y1638D01*
X846Y1634D01*
X848Y1634D01*
X848Y1628D01*
X850Y1628D01*
X850Y1524D01*
X2334Y1524D01*
X2334Y1522D01*
X2342Y1522D01*
X2342Y1520D01*
X2346Y1520D01*
X2346Y1518D01*
X2350Y1518D01*
X2350Y1516D01*
X2352Y1516D01*
X2352Y1514D01*
X2356Y1514D01*
X2356Y1512D01*
X2358Y1512D01*
X2358Y1510D01*
X2360Y1510D01*
X2360Y1508D01*
X2362Y1508D01*
X2362Y1506D01*
X2364Y1506D01*
X2364Y1504D01*
X2366Y1504D01*
X2366Y1500D01*
X2368Y1500D01*
X2368Y1498D01*
X2370Y1498D01*
X2370Y1494D01*
X2372Y1494D01*
X2372Y1488D01*
X2374Y1488D01*
X2374Y1480D01*
X2376Y1480D01*
X2376Y1472D01*
X2374Y1472D01*
X2374Y1464D01*
X2372Y1464D01*
X2372Y1458D01*
X2370Y1458D01*
X2370Y1454D01*
X2368Y1454D01*
X2368Y1452D01*
X2366Y1452D01*
X2366Y1448D01*
X2364Y1448D01*
X2364Y1446D01*
X2362Y1446D01*
X2362Y1444D01*
X2360Y1444D01*
X2360Y1442D01*
X2358Y1442D01*
X2358Y1440D01*
X2356Y1440D01*
X2356Y1438D01*
X2352Y1438D01*
X2352Y1436D01*
X2350Y1436D01*
X2350Y1434D01*
X2346Y1434D01*
X2346Y1432D01*
X2342Y1432D01*
X2342Y1430D01*
X2334Y1430D01*
X2334Y1428D01*
X2754Y1428D01*
X2754Y1712D01*
X40Y1712D01*
G37*
D02*
G36*
X850Y1524D02*
X850Y1516D01*
X852Y1516D01*
X852Y1514D01*
X856Y1514D01*
X856Y1512D01*
X858Y1512D01*
X858Y1510D01*
X860Y1510D01*
X860Y1508D01*
X862Y1508D01*
X862Y1506D01*
X864Y1506D01*
X864Y1504D01*
X866Y1504D01*
X866Y1500D01*
X868Y1500D01*
X868Y1498D01*
X870Y1498D01*
X870Y1494D01*
X872Y1494D01*
X872Y1488D01*
X874Y1488D01*
X874Y1480D01*
X876Y1480D01*
X876Y1472D01*
X874Y1472D01*
X874Y1464D01*
X872Y1464D01*
X872Y1458D01*
X870Y1458D01*
X870Y1454D01*
X868Y1454D01*
X868Y1452D01*
X866Y1452D01*
X866Y1448D01*
X864Y1448D01*
X864Y1446D01*
X862Y1446D01*
X862Y1444D01*
X860Y1444D01*
X860Y1442D01*
X858Y1442D01*
X858Y1440D01*
X856Y1440D01*
X856Y1438D01*
X852Y1438D01*
X852Y1436D01*
X850Y1436D01*
X850Y1416D01*
X852Y1416D01*
X852Y1414D01*
X856Y1414D01*
X856Y1412D01*
X858Y1412D01*
X858Y1410D01*
X860Y1410D01*
X860Y1408D01*
X862Y1408D01*
X862Y1406D01*
X864Y1406D01*
X864Y1404D01*
X866Y1404D01*
X866Y1400D01*
X868Y1400D01*
X868Y1398D01*
X870Y1398D01*
X870Y1394D01*
X872Y1394D01*
X872Y1388D01*
X874Y1388D01*
X874Y1380D01*
X876Y1380D01*
X876Y1372D01*
X874Y1372D01*
X874Y1364D01*
X872Y1364D01*
X872Y1358D01*
X870Y1358D01*
X870Y1354D01*
X868Y1354D01*
X868Y1352D01*
X866Y1352D01*
X866Y1348D01*
X864Y1348D01*
X864Y1346D01*
X862Y1346D01*
X862Y1344D01*
X860Y1344D01*
X860Y1342D01*
X858Y1342D01*
X858Y1340D01*
X856Y1340D01*
X856Y1338D01*
X852Y1338D01*
X852Y1336D01*
X850Y1336D01*
X850Y1316D01*
X852Y1316D01*
X852Y1314D01*
X856Y1314D01*
X856Y1312D01*
X858Y1312D01*
X858Y1310D01*
X860Y1310D01*
X860Y1308D01*
X862Y1308D01*
X862Y1306D01*
X864Y1306D01*
X864Y1304D01*
X866Y1304D01*
X866Y1300D01*
X868Y1300D01*
X868Y1298D01*
X870Y1298D01*
X870Y1294D01*
X872Y1294D01*
X872Y1288D01*
X874Y1288D01*
X874Y1280D01*
X876Y1280D01*
X876Y1272D01*
X874Y1272D01*
X874Y1264D01*
X872Y1264D01*
X872Y1258D01*
X870Y1258D01*
X870Y1254D01*
X868Y1254D01*
X868Y1252D01*
X866Y1252D01*
X866Y1248D01*
X864Y1248D01*
X864Y1246D01*
X862Y1246D01*
X862Y1244D01*
X860Y1244D01*
X860Y1242D01*
X858Y1242D01*
X858Y1240D01*
X856Y1240D01*
X856Y1238D01*
X852Y1238D01*
X852Y1236D01*
X850Y1236D01*
X850Y1216D01*
X852Y1216D01*
X852Y1214D01*
X856Y1214D01*
X856Y1212D01*
X858Y1212D01*
X858Y1210D01*
X860Y1210D01*
X860Y1208D01*
X862Y1208D01*
X862Y1206D01*
X864Y1206D01*
X864Y1204D01*
X866Y1204D01*
X866Y1200D01*
X868Y1200D01*
X868Y1198D01*
X870Y1198D01*
X870Y1194D01*
X872Y1194D01*
X872Y1188D01*
X874Y1188D01*
X874Y1180D01*
X876Y1180D01*
X876Y1172D01*
X874Y1172D01*
X874Y1164D01*
X872Y1164D01*
X872Y1158D01*
X870Y1158D01*
X870Y1154D01*
X868Y1154D01*
X868Y1152D01*
X866Y1152D01*
X866Y1148D01*
X864Y1148D01*
X864Y1146D01*
X862Y1146D01*
X862Y1144D01*
X860Y1144D01*
X860Y1142D01*
X858Y1142D01*
X858Y1140D01*
X856Y1140D01*
X856Y1138D01*
X852Y1138D01*
X852Y1136D01*
X850Y1136D01*
X850Y1116D01*
X852Y1116D01*
X852Y1114D01*
X856Y1114D01*
X856Y1112D01*
X858Y1112D01*
X858Y1110D01*
X860Y1110D01*
X860Y1108D01*
X862Y1108D01*
X862Y1106D01*
X864Y1106D01*
X864Y1104D01*
X866Y1104D01*
X866Y1100D01*
X868Y1100D01*
X868Y1098D01*
X870Y1098D01*
X870Y1094D01*
X872Y1094D01*
X872Y1088D01*
X874Y1088D01*
X874Y1080D01*
X876Y1080D01*
X876Y1072D01*
X874Y1072D01*
X874Y1064D01*
X872Y1064D01*
X872Y1058D01*
X870Y1058D01*
X870Y1054D01*
X868Y1054D01*
X868Y1052D01*
X866Y1052D01*
X866Y1048D01*
X864Y1048D01*
X864Y1046D01*
X862Y1046D01*
X862Y1044D01*
X860Y1044D01*
X860Y1042D01*
X858Y1042D01*
X858Y1040D01*
X856Y1040D01*
X856Y1038D01*
X852Y1038D01*
X852Y1036D01*
X850Y1036D01*
X850Y1016D01*
X852Y1016D01*
X852Y1014D01*
X856Y1014D01*
X856Y1012D01*
X858Y1012D01*
X858Y1010D01*
X860Y1010D01*
X860Y1008D01*
X862Y1008D01*
X862Y1006D01*
X864Y1006D01*
X864Y1004D01*
X866Y1004D01*
X866Y1000D01*
X868Y1000D01*
X868Y998D01*
X870Y998D01*
X870Y994D01*
X872Y994D01*
X872Y988D01*
X874Y988D01*
X874Y980D01*
X876Y980D01*
X876Y972D01*
X874Y972D01*
X874Y964D01*
X872Y964D01*
X872Y958D01*
X870Y958D01*
X870Y954D01*
X868Y954D01*
X868Y952D01*
X866Y952D01*
X866Y948D01*
X864Y948D01*
X864Y946D01*
X862Y946D01*
X862Y944D01*
X860Y944D01*
X860Y942D01*
X858Y942D01*
X858Y940D01*
X856Y940D01*
X856Y938D01*
X852Y938D01*
X852Y936D01*
X850Y936D01*
X850Y916D01*
X852Y916D01*
X852Y914D01*
X856Y914D01*
X856Y912D01*
X858Y912D01*
X858Y910D01*
X860Y910D01*
X860Y908D01*
X862Y908D01*
X862Y906D01*
X864Y906D01*
X864Y904D01*
X866Y904D01*
X866Y900D01*
X868Y900D01*
X868Y898D01*
X870Y898D01*
X870Y894D01*
X872Y894D01*
X872Y888D01*
X874Y888D01*
X874Y880D01*
X876Y880D01*
X876Y872D01*
X874Y872D01*
X874Y864D01*
X872Y864D01*
X872Y858D01*
X870Y858D01*
X870Y854D01*
X868Y854D01*
X868Y852D01*
X866Y852D01*
X866Y848D01*
X864Y848D01*
X864Y846D01*
X862Y846D01*
X862Y844D01*
X860Y844D01*
X860Y842D01*
X858Y842D01*
X858Y840D01*
X856Y840D01*
X856Y838D01*
X852Y838D01*
X852Y836D01*
X850Y836D01*
X850Y816D01*
X852Y816D01*
X852Y814D01*
X856Y814D01*
X856Y812D01*
X858Y812D01*
X858Y810D01*
X860Y810D01*
X860Y808D01*
X862Y808D01*
X862Y806D01*
X864Y806D01*
X864Y804D01*
X866Y804D01*
X866Y800D01*
X868Y800D01*
X868Y798D01*
X870Y798D01*
X870Y794D01*
X872Y794D01*
X872Y788D01*
X874Y788D01*
X874Y780D01*
X876Y780D01*
X876Y772D01*
X874Y772D01*
X874Y764D01*
X872Y764D01*
X872Y758D01*
X870Y758D01*
X870Y754D01*
X868Y754D01*
X868Y752D01*
X866Y752D01*
X866Y748D01*
X864Y748D01*
X864Y746D01*
X862Y746D01*
X862Y744D01*
X860Y744D01*
X860Y742D01*
X858Y742D01*
X858Y740D01*
X856Y740D01*
X856Y738D01*
X852Y738D01*
X852Y736D01*
X850Y736D01*
X850Y716D01*
X870Y716D01*
X870Y718D01*
X876Y718D01*
X876Y720D01*
X880Y720D01*
X880Y722D01*
X886Y722D01*
X886Y724D01*
X890Y724D01*
X890Y726D01*
X896Y726D01*
X896Y728D01*
X900Y728D01*
X900Y730D01*
X906Y730D01*
X906Y732D01*
X910Y732D01*
X910Y734D01*
X916Y734D01*
X916Y736D01*
X920Y736D01*
X920Y738D01*
X926Y738D01*
X926Y740D01*
X930Y740D01*
X930Y742D01*
X936Y742D01*
X936Y744D01*
X940Y744D01*
X940Y746D01*
X946Y746D01*
X946Y748D01*
X950Y748D01*
X950Y750D01*
X956Y750D01*
X956Y752D01*
X960Y752D01*
X960Y754D01*
X966Y754D01*
X966Y756D01*
X970Y756D01*
X970Y758D01*
X976Y758D01*
X976Y760D01*
X980Y760D01*
X980Y762D01*
X986Y762D01*
X986Y764D01*
X990Y764D01*
X990Y766D01*
X996Y766D01*
X996Y768D01*
X1000Y768D01*
X1000Y770D01*
X1006Y770D01*
X1006Y772D01*
X1010Y772D01*
X1010Y774D01*
X1016Y774D01*
X1016Y776D01*
X1020Y776D01*
X1020Y778D01*
X1026Y778D01*
X1026Y780D01*
X1030Y780D01*
X1030Y784D01*
X1032Y784D01*
X1032Y790D01*
X1034Y790D01*
X1034Y794D01*
X1036Y794D01*
X1036Y798D01*
X1038Y798D01*
X1038Y802D01*
X1040Y802D01*
X1040Y804D01*
X1042Y804D01*
X1042Y806D01*
X1044Y806D01*
X1044Y808D01*
X1046Y808D01*
X1046Y810D01*
X1048Y810D01*
X1048Y812D01*
X1050Y812D01*
X1050Y814D01*
X1052Y814D01*
X1052Y816D01*
X1056Y816D01*
X1056Y836D01*
X1052Y836D01*
X1052Y838D01*
X1050Y838D01*
X1050Y840D01*
X1048Y840D01*
X1048Y842D01*
X1046Y842D01*
X1046Y844D01*
X1044Y844D01*
X1044Y846D01*
X1042Y846D01*
X1042Y848D01*
X1040Y848D01*
X1040Y850D01*
X1038Y850D01*
X1038Y854D01*
X1036Y854D01*
X1036Y858D01*
X1034Y858D01*
X1034Y862D01*
X1032Y862D01*
X1032Y868D01*
X1030Y868D01*
X1030Y884D01*
X1032Y884D01*
X1032Y890D01*
X1034Y890D01*
X1034Y894D01*
X1036Y894D01*
X1036Y898D01*
X1038Y898D01*
X1038Y902D01*
X1040Y902D01*
X1040Y904D01*
X1042Y904D01*
X1042Y906D01*
X1044Y906D01*
X1044Y908D01*
X1046Y908D01*
X1046Y910D01*
X1048Y910D01*
X1048Y912D01*
X1050Y912D01*
X1050Y914D01*
X1052Y914D01*
X1052Y916D01*
X1056Y916D01*
X1056Y936D01*
X1052Y936D01*
X1052Y938D01*
X1050Y938D01*
X1050Y940D01*
X1048Y940D01*
X1048Y942D01*
X1046Y942D01*
X1046Y944D01*
X1044Y944D01*
X1044Y946D01*
X1042Y946D01*
X1042Y948D01*
X1040Y948D01*
X1040Y950D01*
X1038Y950D01*
X1038Y954D01*
X1036Y954D01*
X1036Y958D01*
X1034Y958D01*
X1034Y962D01*
X1032Y962D01*
X1032Y968D01*
X1030Y968D01*
X1030Y984D01*
X1032Y984D01*
X1032Y990D01*
X1034Y990D01*
X1034Y994D01*
X1036Y994D01*
X1036Y998D01*
X1038Y998D01*
X1038Y1002D01*
X1040Y1002D01*
X1040Y1004D01*
X1042Y1004D01*
X1042Y1006D01*
X1044Y1006D01*
X1044Y1008D01*
X1046Y1008D01*
X1046Y1010D01*
X1048Y1010D01*
X1048Y1012D01*
X1050Y1012D01*
X1050Y1014D01*
X1052Y1014D01*
X1052Y1016D01*
X1056Y1016D01*
X1056Y1036D01*
X1052Y1036D01*
X1052Y1038D01*
X1050Y1038D01*
X1050Y1040D01*
X1048Y1040D01*
X1048Y1042D01*
X1046Y1042D01*
X1046Y1044D01*
X1044Y1044D01*
X1044Y1046D01*
X1042Y1046D01*
X1042Y1048D01*
X1040Y1048D01*
X1040Y1050D01*
X1038Y1050D01*
X1038Y1054D01*
X1036Y1054D01*
X1036Y1058D01*
X1034Y1058D01*
X1034Y1062D01*
X1032Y1062D01*
X1032Y1068D01*
X1030Y1068D01*
X1030Y1084D01*
X1032Y1084D01*
X1032Y1090D01*
X1034Y1090D01*
X1034Y1094D01*
X1036Y1094D01*
X1036Y1098D01*
X1038Y1098D01*
X1038Y1102D01*
X1040Y1102D01*
X1040Y1104D01*
X1042Y1104D01*
X1042Y1106D01*
X1044Y1106D01*
X1044Y1108D01*
X1046Y1108D01*
X1046Y1110D01*
X1048Y1110D01*
X1048Y1112D01*
X1050Y1112D01*
X1050Y1114D01*
X1052Y1114D01*
X1052Y1116D01*
X1056Y1116D01*
X1056Y1136D01*
X1052Y1136D01*
X1052Y1138D01*
X1050Y1138D01*
X1050Y1140D01*
X1048Y1140D01*
X1048Y1142D01*
X1046Y1142D01*
X1046Y1144D01*
X1044Y1144D01*
X1044Y1146D01*
X1042Y1146D01*
X1042Y1148D01*
X1040Y1148D01*
X1040Y1150D01*
X1038Y1150D01*
X1038Y1154D01*
X1036Y1154D01*
X1036Y1158D01*
X1034Y1158D01*
X1034Y1162D01*
X1032Y1162D01*
X1032Y1168D01*
X1030Y1168D01*
X1030Y1184D01*
X1032Y1184D01*
X1032Y1190D01*
X1034Y1190D01*
X1034Y1194D01*
X1036Y1194D01*
X1036Y1198D01*
X1038Y1198D01*
X1038Y1202D01*
X1040Y1202D01*
X1040Y1204D01*
X1042Y1204D01*
X1042Y1206D01*
X1044Y1206D01*
X1044Y1208D01*
X1046Y1208D01*
X1046Y1210D01*
X1048Y1210D01*
X1048Y1212D01*
X1050Y1212D01*
X1050Y1214D01*
X1052Y1214D01*
X1052Y1216D01*
X1056Y1216D01*
X1056Y1236D01*
X1052Y1236D01*
X1052Y1238D01*
X1050Y1238D01*
X1050Y1240D01*
X1048Y1240D01*
X1048Y1242D01*
X1046Y1242D01*
X1046Y1244D01*
X1044Y1244D01*
X1044Y1246D01*
X1042Y1246D01*
X1042Y1248D01*
X1040Y1248D01*
X1040Y1250D01*
X1038Y1250D01*
X1038Y1254D01*
X1036Y1254D01*
X1036Y1258D01*
X1034Y1258D01*
X1034Y1262D01*
X1032Y1262D01*
X1032Y1268D01*
X1030Y1268D01*
X1030Y1284D01*
X1032Y1284D01*
X1032Y1290D01*
X1034Y1290D01*
X1034Y1294D01*
X1036Y1294D01*
X1036Y1298D01*
X1038Y1298D01*
X1038Y1302D01*
X1040Y1302D01*
X1040Y1304D01*
X1042Y1304D01*
X1042Y1306D01*
X1044Y1306D01*
X1044Y1308D01*
X1046Y1308D01*
X1046Y1310D01*
X1048Y1310D01*
X1048Y1312D01*
X1050Y1312D01*
X1050Y1314D01*
X1052Y1314D01*
X1052Y1316D01*
X1056Y1316D01*
X1056Y1336D01*
X1052Y1336D01*
X1052Y1338D01*
X1050Y1338D01*
X1050Y1340D01*
X1048Y1340D01*
X1048Y1342D01*
X1046Y1342D01*
X1046Y1344D01*
X1044Y1344D01*
X1044Y1346D01*
X1042Y1346D01*
X1042Y1348D01*
X1040Y1348D01*
X1040Y1350D01*
X1038Y1350D01*
X1038Y1354D01*
X1036Y1354D01*
X1036Y1358D01*
X1034Y1358D01*
X1034Y1362D01*
X1032Y1362D01*
X1032Y1368D01*
X1030Y1368D01*
X1030Y1384D01*
X1032Y1384D01*
X1032Y1390D01*
X1034Y1390D01*
X1034Y1394D01*
X1036Y1394D01*
X1036Y1398D01*
X1038Y1398D01*
X1038Y1402D01*
X1040Y1402D01*
X1040Y1404D01*
X1042Y1404D01*
X1042Y1406D01*
X1044Y1406D01*
X1044Y1408D01*
X1046Y1408D01*
X1046Y1428D01*
X1030Y1428D01*
X1030Y1524D01*
X850Y1524D01*
G37*
D02*
G36*
X1124Y1524D02*
X1124Y1522D01*
X1126Y1522D01*
X1126Y1430D01*
X1124Y1430D01*
X1124Y1428D01*
X1110Y1428D01*
X1110Y1408D01*
X1112Y1408D01*
X1112Y1406D01*
X1114Y1406D01*
X1114Y1404D01*
X1116Y1404D01*
X1116Y1400D01*
X1118Y1400D01*
X1118Y1398D01*
X1120Y1398D01*
X1120Y1394D01*
X1122Y1394D01*
X1122Y1388D01*
X1124Y1388D01*
X1124Y1380D01*
X1126Y1380D01*
X1126Y1372D01*
X1124Y1372D01*
X1124Y1364D01*
X1122Y1364D01*
X1122Y1358D01*
X1120Y1358D01*
X1120Y1354D01*
X1118Y1354D01*
X1118Y1352D01*
X1116Y1352D01*
X1116Y1348D01*
X1114Y1348D01*
X1114Y1346D01*
X1112Y1346D01*
X1112Y1344D01*
X1110Y1344D01*
X1110Y1342D01*
X1108Y1342D01*
X1108Y1340D01*
X1106Y1340D01*
X1106Y1338D01*
X1102Y1338D01*
X1102Y1336D01*
X1100Y1336D01*
X1100Y1316D01*
X1102Y1316D01*
X1102Y1314D01*
X1106Y1314D01*
X1106Y1312D01*
X1108Y1312D01*
X1108Y1310D01*
X1110Y1310D01*
X1110Y1308D01*
X1112Y1308D01*
X1112Y1306D01*
X1114Y1306D01*
X1114Y1304D01*
X1116Y1304D01*
X1116Y1300D01*
X1118Y1300D01*
X1118Y1298D01*
X1120Y1298D01*
X1120Y1294D01*
X1122Y1294D01*
X1122Y1288D01*
X1124Y1288D01*
X1124Y1280D01*
X1126Y1280D01*
X1126Y1272D01*
X1124Y1272D01*
X1124Y1264D01*
X1122Y1264D01*
X1122Y1258D01*
X1120Y1258D01*
X1120Y1254D01*
X1118Y1254D01*
X1118Y1252D01*
X1116Y1252D01*
X1116Y1248D01*
X1114Y1248D01*
X1114Y1246D01*
X1112Y1246D01*
X1112Y1244D01*
X1110Y1244D01*
X1110Y1242D01*
X1108Y1242D01*
X1108Y1240D01*
X1106Y1240D01*
X1106Y1238D01*
X1102Y1238D01*
X1102Y1236D01*
X1100Y1236D01*
X1100Y1216D01*
X1102Y1216D01*
X1102Y1214D01*
X1106Y1214D01*
X1106Y1212D01*
X1108Y1212D01*
X1108Y1210D01*
X1110Y1210D01*
X1110Y1208D01*
X1112Y1208D01*
X1112Y1206D01*
X1114Y1206D01*
X1114Y1204D01*
X1116Y1204D01*
X1116Y1200D01*
X1118Y1200D01*
X1118Y1198D01*
X1120Y1198D01*
X1120Y1194D01*
X1122Y1194D01*
X1122Y1188D01*
X1124Y1188D01*
X1124Y1180D01*
X1126Y1180D01*
X1126Y1172D01*
X1124Y1172D01*
X1124Y1164D01*
X1122Y1164D01*
X1122Y1158D01*
X1120Y1158D01*
X1120Y1154D01*
X1118Y1154D01*
X1118Y1152D01*
X1116Y1152D01*
X1116Y1148D01*
X1114Y1148D01*
X1114Y1146D01*
X1112Y1146D01*
X1112Y1144D01*
X1110Y1144D01*
X1110Y1142D01*
X1108Y1142D01*
X1108Y1140D01*
X1106Y1140D01*
X1106Y1138D01*
X1102Y1138D01*
X1102Y1136D01*
X1100Y1136D01*
X1100Y1116D01*
X1102Y1116D01*
X1102Y1114D01*
X1106Y1114D01*
X1106Y1112D01*
X1108Y1112D01*
X1108Y1110D01*
X1110Y1110D01*
X1110Y1108D01*
X1112Y1108D01*
X1112Y1106D01*
X1114Y1106D01*
X1114Y1104D01*
X1116Y1104D01*
X1116Y1100D01*
X1118Y1100D01*
X1118Y1098D01*
X1120Y1098D01*
X1120Y1094D01*
X1122Y1094D01*
X1122Y1088D01*
X1124Y1088D01*
X1124Y1080D01*
X1126Y1080D01*
X1126Y1072D01*
X1124Y1072D01*
X1124Y1064D01*
X1122Y1064D01*
X1122Y1058D01*
X1120Y1058D01*
X1120Y1054D01*
X1118Y1054D01*
X1118Y1052D01*
X1116Y1052D01*
X1116Y1048D01*
X1114Y1048D01*
X1114Y1046D01*
X1112Y1046D01*
X1112Y1044D01*
X1110Y1044D01*
X1110Y1042D01*
X1108Y1042D01*
X1108Y1040D01*
X1106Y1040D01*
X1106Y1038D01*
X1102Y1038D01*
X1102Y1036D01*
X1100Y1036D01*
X1100Y1016D01*
X1102Y1016D01*
X1102Y1014D01*
X1106Y1014D01*
X1106Y1012D01*
X1108Y1012D01*
X1108Y1010D01*
X1110Y1010D01*
X1110Y1008D01*
X1112Y1008D01*
X1112Y1006D01*
X1114Y1006D01*
X1114Y1004D01*
X1116Y1004D01*
X1116Y1000D01*
X1118Y1000D01*
X1118Y998D01*
X1120Y998D01*
X1120Y994D01*
X1122Y994D01*
X1122Y988D01*
X1124Y988D01*
X1124Y980D01*
X1126Y980D01*
X1126Y972D01*
X1124Y972D01*
X1124Y964D01*
X1122Y964D01*
X1122Y958D01*
X1120Y958D01*
X1120Y954D01*
X1118Y954D01*
X1118Y952D01*
X1116Y952D01*
X1116Y948D01*
X1114Y948D01*
X1114Y946D01*
X1112Y946D01*
X1112Y944D01*
X1110Y944D01*
X1110Y942D01*
X1108Y942D01*
X1108Y940D01*
X1106Y940D01*
X1106Y938D01*
X1102Y938D01*
X1102Y936D01*
X1100Y936D01*
X1100Y916D01*
X1102Y916D01*
X1102Y914D01*
X1106Y914D01*
X1106Y912D01*
X1108Y912D01*
X1108Y910D01*
X1110Y910D01*
X1110Y908D01*
X1112Y908D01*
X1112Y906D01*
X1114Y906D01*
X1114Y904D01*
X1116Y904D01*
X1116Y900D01*
X1118Y900D01*
X1118Y898D01*
X1120Y898D01*
X1120Y894D01*
X1122Y894D01*
X1122Y888D01*
X1124Y888D01*
X1124Y880D01*
X1126Y880D01*
X1126Y872D01*
X1124Y872D01*
X1124Y864D01*
X1122Y864D01*
X1122Y858D01*
X1120Y858D01*
X1120Y854D01*
X1118Y854D01*
X1118Y852D01*
X1116Y852D01*
X1116Y848D01*
X1114Y848D01*
X1114Y846D01*
X1112Y846D01*
X1112Y844D01*
X1110Y844D01*
X1110Y842D01*
X1108Y842D01*
X1108Y840D01*
X1106Y840D01*
X1106Y838D01*
X1102Y838D01*
X1102Y836D01*
X1100Y836D01*
X1100Y816D01*
X1102Y816D01*
X1102Y814D01*
X1126Y814D01*
X1126Y816D01*
X1132Y816D01*
X1132Y818D01*
X1138Y818D01*
X1138Y820D01*
X1144Y820D01*
X1144Y822D01*
X1150Y822D01*
X1150Y824D01*
X1156Y824D01*
X1156Y826D01*
X1162Y826D01*
X1162Y828D01*
X1168Y828D01*
X1168Y830D01*
X1174Y830D01*
X1174Y832D01*
X1180Y832D01*
X1180Y834D01*
X1186Y834D01*
X1186Y836D01*
X1192Y836D01*
X1192Y838D01*
X1198Y838D01*
X1198Y840D01*
X1204Y840D01*
X1204Y842D01*
X1210Y842D01*
X1210Y844D01*
X1216Y844D01*
X1216Y846D01*
X1222Y846D01*
X1222Y848D01*
X1228Y848D01*
X1228Y850D01*
X1234Y850D01*
X1234Y852D01*
X1240Y852D01*
X1240Y854D01*
X1246Y854D01*
X1246Y856D01*
X1252Y856D01*
X1252Y858D01*
X1258Y858D01*
X1258Y860D01*
X1264Y860D01*
X1264Y862D01*
X1270Y862D01*
X1270Y864D01*
X1276Y864D01*
X1276Y866D01*
X1282Y866D01*
X1282Y868D01*
X1288Y868D01*
X1288Y870D01*
X1294Y870D01*
X1294Y872D01*
X1300Y872D01*
X1300Y874D01*
X1306Y874D01*
X1306Y876D01*
X1312Y876D01*
X1312Y878D01*
X1318Y878D01*
X1318Y880D01*
X1324Y880D01*
X1324Y882D01*
X1330Y882D01*
X1330Y884D01*
X1332Y884D01*
X1332Y890D01*
X1334Y890D01*
X1334Y894D01*
X1336Y894D01*
X1336Y898D01*
X1338Y898D01*
X1338Y902D01*
X1340Y902D01*
X1340Y904D01*
X1342Y904D01*
X1342Y906D01*
X1344Y906D01*
X1344Y908D01*
X1346Y908D01*
X1346Y910D01*
X1348Y910D01*
X1348Y912D01*
X1350Y912D01*
X1350Y914D01*
X1352Y914D01*
X1352Y916D01*
X1356Y916D01*
X1356Y936D01*
X1352Y936D01*
X1352Y938D01*
X1350Y938D01*
X1350Y940D01*
X1348Y940D01*
X1348Y942D01*
X1346Y942D01*
X1346Y944D01*
X1344Y944D01*
X1344Y946D01*
X1342Y946D01*
X1342Y948D01*
X1340Y948D01*
X1340Y950D01*
X1338Y950D01*
X1338Y954D01*
X1336Y954D01*
X1336Y958D01*
X1334Y958D01*
X1334Y962D01*
X1332Y962D01*
X1332Y968D01*
X1330Y968D01*
X1330Y984D01*
X1332Y984D01*
X1332Y990D01*
X1334Y990D01*
X1334Y994D01*
X1336Y994D01*
X1336Y998D01*
X1338Y998D01*
X1338Y1002D01*
X1340Y1002D01*
X1340Y1004D01*
X1342Y1004D01*
X1342Y1006D01*
X1344Y1006D01*
X1344Y1008D01*
X1346Y1008D01*
X1346Y1010D01*
X1348Y1010D01*
X1348Y1012D01*
X1350Y1012D01*
X1350Y1014D01*
X1352Y1014D01*
X1352Y1016D01*
X1356Y1016D01*
X1356Y1036D01*
X1352Y1036D01*
X1352Y1038D01*
X1350Y1038D01*
X1350Y1040D01*
X1348Y1040D01*
X1348Y1042D01*
X1346Y1042D01*
X1346Y1044D01*
X1344Y1044D01*
X1344Y1046D01*
X1342Y1046D01*
X1342Y1048D01*
X1340Y1048D01*
X1340Y1050D01*
X1338Y1050D01*
X1338Y1054D01*
X1336Y1054D01*
X1336Y1058D01*
X1334Y1058D01*
X1334Y1062D01*
X1332Y1062D01*
X1332Y1068D01*
X1330Y1068D01*
X1330Y1084D01*
X1332Y1084D01*
X1332Y1090D01*
X1334Y1090D01*
X1334Y1094D01*
X1336Y1094D01*
X1336Y1098D01*
X1338Y1098D01*
X1338Y1102D01*
X1340Y1102D01*
X1340Y1104D01*
X1342Y1104D01*
X1342Y1106D01*
X1344Y1106D01*
X1344Y1108D01*
X1346Y1108D01*
X1346Y1110D01*
X1348Y1110D01*
X1348Y1112D01*
X1350Y1112D01*
X1350Y1114D01*
X1352Y1114D01*
X1352Y1116D01*
X1356Y1116D01*
X1356Y1136D01*
X1352Y1136D01*
X1352Y1138D01*
X1350Y1138D01*
X1350Y1140D01*
X1348Y1140D01*
X1348Y1142D01*
X1346Y1142D01*
X1346Y1144D01*
X1344Y1144D01*
X1344Y1146D01*
X1342Y1146D01*
X1342Y1148D01*
X1340Y1148D01*
X1340Y1150D01*
X1338Y1150D01*
X1338Y1154D01*
X1336Y1154D01*
X1336Y1158D01*
X1334Y1158D01*
X1334Y1162D01*
X1332Y1162D01*
X1332Y1168D01*
X1330Y1168D01*
X1330Y1184D01*
X1332Y1184D01*
X1332Y1190D01*
X1334Y1190D01*
X1334Y1194D01*
X1336Y1194D01*
X1336Y1198D01*
X1338Y1198D01*
X1338Y1202D01*
X1340Y1202D01*
X1340Y1204D01*
X1342Y1204D01*
X1342Y1206D01*
X1344Y1206D01*
X1344Y1208D01*
X1346Y1208D01*
X1346Y1210D01*
X1348Y1210D01*
X1348Y1212D01*
X1350Y1212D01*
X1350Y1214D01*
X1352Y1214D01*
X1352Y1216D01*
X1356Y1216D01*
X1356Y1236D01*
X1352Y1236D01*
X1352Y1238D01*
X1350Y1238D01*
X1350Y1240D01*
X1348Y1240D01*
X1348Y1242D01*
X1346Y1242D01*
X1346Y1244D01*
X1344Y1244D01*
X1344Y1246D01*
X1342Y1246D01*
X1342Y1248D01*
X1340Y1248D01*
X1340Y1250D01*
X1338Y1250D01*
X1338Y1254D01*
X1336Y1254D01*
X1336Y1258D01*
X1334Y1258D01*
X1334Y1262D01*
X1332Y1262D01*
X1332Y1268D01*
X1330Y1268D01*
X1330Y1284D01*
X1332Y1284D01*
X1332Y1290D01*
X1334Y1290D01*
X1334Y1294D01*
X1336Y1294D01*
X1336Y1298D01*
X1338Y1298D01*
X1338Y1302D01*
X1340Y1302D01*
X1340Y1304D01*
X1342Y1304D01*
X1342Y1306D01*
X1344Y1306D01*
X1344Y1308D01*
X1346Y1308D01*
X1346Y1310D01*
X1348Y1310D01*
X1348Y1312D01*
X1350Y1312D01*
X1350Y1314D01*
X1352Y1314D01*
X1352Y1316D01*
X1356Y1316D01*
X1356Y1336D01*
X1352Y1336D01*
X1352Y1338D01*
X1350Y1338D01*
X1350Y1340D01*
X1348Y1340D01*
X1348Y1342D01*
X1346Y1342D01*
X1346Y1344D01*
X1344Y1344D01*
X1344Y1346D01*
X1342Y1346D01*
X1342Y1348D01*
X1340Y1348D01*
X1340Y1350D01*
X1338Y1350D01*
X1338Y1354D01*
X1336Y1354D01*
X1336Y1358D01*
X1334Y1358D01*
X1334Y1362D01*
X1332Y1362D01*
X1332Y1368D01*
X1330Y1368D01*
X1330Y1384D01*
X1332Y1384D01*
X1332Y1390D01*
X1334Y1390D01*
X1334Y1394D01*
X1336Y1394D01*
X1336Y1398D01*
X1338Y1398D01*
X1338Y1402D01*
X1340Y1402D01*
X1340Y1404D01*
X1342Y1404D01*
X1342Y1406D01*
X1344Y1406D01*
X1344Y1408D01*
X1346Y1408D01*
X1346Y1410D01*
X1348Y1410D01*
X1348Y1412D01*
X1350Y1412D01*
X1350Y1414D01*
X1352Y1414D01*
X1352Y1416D01*
X1356Y1416D01*
X1356Y1436D01*
X1352Y1436D01*
X1352Y1438D01*
X1350Y1438D01*
X1350Y1440D01*
X1348Y1440D01*
X1348Y1442D01*
X1346Y1442D01*
X1346Y1444D01*
X1344Y1444D01*
X1344Y1446D01*
X1342Y1446D01*
X1342Y1448D01*
X1340Y1448D01*
X1340Y1450D01*
X1338Y1450D01*
X1338Y1454D01*
X1336Y1454D01*
X1336Y1458D01*
X1334Y1458D01*
X1334Y1462D01*
X1332Y1462D01*
X1332Y1468D01*
X1330Y1468D01*
X1330Y1484D01*
X1332Y1484D01*
X1332Y1490D01*
X1334Y1490D01*
X1334Y1494D01*
X1336Y1494D01*
X1336Y1498D01*
X1338Y1498D01*
X1338Y1502D01*
X1340Y1502D01*
X1340Y1504D01*
X1342Y1504D01*
X1342Y1506D01*
X1344Y1506D01*
X1344Y1508D01*
X1346Y1508D01*
X1346Y1510D01*
X1348Y1510D01*
X1348Y1512D01*
X1350Y1512D01*
X1350Y1514D01*
X1352Y1514D01*
X1352Y1516D01*
X1356Y1516D01*
X1356Y1518D01*
X1360Y1518D01*
X1360Y1520D01*
X1364Y1520D01*
X1364Y1522D01*
X1372Y1522D01*
X1372Y1524D01*
X1124Y1524D01*
G37*
D02*
G36*
X1384Y1524D02*
X1384Y1522D01*
X1392Y1522D01*
X1392Y1520D01*
X1396Y1520D01*
X1396Y1518D01*
X1400Y1518D01*
X1400Y1516D01*
X1402Y1516D01*
X1402Y1514D01*
X1406Y1514D01*
X1406Y1512D01*
X1408Y1512D01*
X1408Y1510D01*
X1410Y1510D01*
X1410Y1508D01*
X1412Y1508D01*
X1412Y1506D01*
X1414Y1506D01*
X1414Y1504D01*
X1416Y1504D01*
X1416Y1500D01*
X1532Y1500D01*
X1532Y1498D01*
X1538Y1498D01*
X1538Y1496D01*
X1540Y1496D01*
X1540Y1494D01*
X1544Y1494D01*
X1544Y1492D01*
X1546Y1492D01*
X1546Y1488D01*
X1548Y1488D01*
X1548Y1484D01*
X1550Y1484D01*
X1550Y1428D01*
X1622Y1428D01*
X1622Y1430D01*
X1614Y1430D01*
X1614Y1432D01*
X1610Y1432D01*
X1610Y1434D01*
X1606Y1434D01*
X1606Y1436D01*
X1602Y1436D01*
X1602Y1438D01*
X1600Y1438D01*
X1600Y1440D01*
X1598Y1440D01*
X1598Y1442D01*
X1596Y1442D01*
X1596Y1444D01*
X1594Y1444D01*
X1594Y1446D01*
X1592Y1446D01*
X1592Y1448D01*
X1590Y1448D01*
X1590Y1450D01*
X1588Y1450D01*
X1588Y1454D01*
X1586Y1454D01*
X1586Y1458D01*
X1584Y1458D01*
X1584Y1462D01*
X1582Y1462D01*
X1582Y1468D01*
X1580Y1468D01*
X1580Y1484D01*
X1582Y1484D01*
X1582Y1490D01*
X1584Y1490D01*
X1584Y1494D01*
X1586Y1494D01*
X1586Y1498D01*
X1588Y1498D01*
X1588Y1502D01*
X1590Y1502D01*
X1590Y1504D01*
X1592Y1504D01*
X1592Y1506D01*
X1594Y1506D01*
X1594Y1508D01*
X1596Y1508D01*
X1596Y1510D01*
X1598Y1510D01*
X1598Y1512D01*
X1600Y1512D01*
X1600Y1514D01*
X1602Y1514D01*
X1602Y1516D01*
X1606Y1516D01*
X1606Y1518D01*
X1610Y1518D01*
X1610Y1520D01*
X1614Y1520D01*
X1614Y1522D01*
X1622Y1522D01*
X1622Y1524D01*
X1384Y1524D01*
G37*
D02*
G36*
X1634Y1524D02*
X1634Y1522D01*
X1642Y1522D01*
X1642Y1520D01*
X1646Y1520D01*
X1646Y1518D01*
X1650Y1518D01*
X1650Y1516D01*
X1652Y1516D01*
X1652Y1514D01*
X1656Y1514D01*
X1656Y1512D01*
X1658Y1512D01*
X1658Y1510D01*
X1660Y1510D01*
X1660Y1508D01*
X1662Y1508D01*
X1662Y1506D01*
X1664Y1506D01*
X1664Y1504D01*
X1666Y1504D01*
X1666Y1500D01*
X1668Y1500D01*
X1668Y1498D01*
X1688Y1498D01*
X1688Y1502D01*
X1690Y1502D01*
X1690Y1504D01*
X1692Y1504D01*
X1692Y1506D01*
X1694Y1506D01*
X1694Y1508D01*
X1696Y1508D01*
X1696Y1510D01*
X1698Y1510D01*
X1698Y1512D01*
X1700Y1512D01*
X1700Y1514D01*
X1702Y1514D01*
X1702Y1516D01*
X1706Y1516D01*
X1706Y1518D01*
X1710Y1518D01*
X1710Y1520D01*
X1714Y1520D01*
X1714Y1522D01*
X1722Y1522D01*
X1722Y1524D01*
X1634Y1524D01*
G37*
D02*
G36*
X1734Y1524D02*
X1734Y1522D01*
X1742Y1522D01*
X1742Y1520D01*
X1746Y1520D01*
X1746Y1518D01*
X1750Y1518D01*
X1750Y1516D01*
X1752Y1516D01*
X1752Y1514D01*
X1756Y1514D01*
X1756Y1512D01*
X1758Y1512D01*
X1758Y1510D01*
X1760Y1510D01*
X1760Y1508D01*
X1762Y1508D01*
X1762Y1506D01*
X1764Y1506D01*
X1764Y1504D01*
X1766Y1504D01*
X1766Y1500D01*
X1768Y1500D01*
X1768Y1498D01*
X1788Y1498D01*
X1788Y1502D01*
X1790Y1502D01*
X1790Y1504D01*
X1792Y1504D01*
X1792Y1506D01*
X1794Y1506D01*
X1794Y1508D01*
X1796Y1508D01*
X1796Y1510D01*
X1798Y1510D01*
X1798Y1512D01*
X1800Y1512D01*
X1800Y1514D01*
X1802Y1514D01*
X1802Y1516D01*
X1806Y1516D01*
X1806Y1518D01*
X1810Y1518D01*
X1810Y1520D01*
X1814Y1520D01*
X1814Y1522D01*
X1822Y1522D01*
X1822Y1524D01*
X1734Y1524D01*
G37*
D02*
G36*
X1834Y1524D02*
X1834Y1522D01*
X1842Y1522D01*
X1842Y1520D01*
X1846Y1520D01*
X1846Y1518D01*
X1850Y1518D01*
X1850Y1516D01*
X1852Y1516D01*
X1852Y1514D01*
X1856Y1514D01*
X1856Y1512D01*
X1858Y1512D01*
X1858Y1510D01*
X1860Y1510D01*
X1860Y1508D01*
X1862Y1508D01*
X1862Y1506D01*
X1864Y1506D01*
X1864Y1504D01*
X1866Y1504D01*
X1866Y1500D01*
X1868Y1500D01*
X1868Y1498D01*
X1888Y1498D01*
X1888Y1502D01*
X1890Y1502D01*
X1890Y1504D01*
X1892Y1504D01*
X1892Y1506D01*
X1894Y1506D01*
X1894Y1508D01*
X1896Y1508D01*
X1896Y1510D01*
X1898Y1510D01*
X1898Y1512D01*
X1900Y1512D01*
X1900Y1514D01*
X1902Y1514D01*
X1902Y1516D01*
X1906Y1516D01*
X1906Y1518D01*
X1910Y1518D01*
X1910Y1520D01*
X1914Y1520D01*
X1914Y1522D01*
X1922Y1522D01*
X1922Y1524D01*
X1834Y1524D01*
G37*
D02*
G36*
X1934Y1524D02*
X1934Y1522D01*
X1942Y1522D01*
X1942Y1520D01*
X1946Y1520D01*
X1946Y1518D01*
X1950Y1518D01*
X1950Y1516D01*
X1952Y1516D01*
X1952Y1514D01*
X1956Y1514D01*
X1956Y1512D01*
X1958Y1512D01*
X1958Y1510D01*
X1960Y1510D01*
X1960Y1508D01*
X1962Y1508D01*
X1962Y1506D01*
X1964Y1506D01*
X1964Y1504D01*
X1966Y1504D01*
X1966Y1500D01*
X1968Y1500D01*
X1968Y1498D01*
X1988Y1498D01*
X1988Y1502D01*
X1990Y1502D01*
X1990Y1504D01*
X1992Y1504D01*
X1992Y1506D01*
X1994Y1506D01*
X1994Y1508D01*
X1996Y1508D01*
X1996Y1510D01*
X1998Y1510D01*
X1998Y1512D01*
X2000Y1512D01*
X2000Y1514D01*
X2002Y1514D01*
X2002Y1516D01*
X2006Y1516D01*
X2006Y1518D01*
X2010Y1518D01*
X2010Y1520D01*
X2014Y1520D01*
X2014Y1522D01*
X2022Y1522D01*
X2022Y1524D01*
X1934Y1524D01*
G37*
D02*
G36*
X2034Y1524D02*
X2034Y1522D01*
X2042Y1522D01*
X2042Y1520D01*
X2046Y1520D01*
X2046Y1518D01*
X2050Y1518D01*
X2050Y1516D01*
X2052Y1516D01*
X2052Y1514D01*
X2056Y1514D01*
X2056Y1512D01*
X2058Y1512D01*
X2058Y1510D01*
X2060Y1510D01*
X2060Y1508D01*
X2062Y1508D01*
X2062Y1506D01*
X2064Y1506D01*
X2064Y1504D01*
X2066Y1504D01*
X2066Y1500D01*
X2068Y1500D01*
X2068Y1498D01*
X2088Y1498D01*
X2088Y1502D01*
X2090Y1502D01*
X2090Y1504D01*
X2092Y1504D01*
X2092Y1506D01*
X2094Y1506D01*
X2094Y1508D01*
X2096Y1508D01*
X2096Y1510D01*
X2098Y1510D01*
X2098Y1512D01*
X2100Y1512D01*
X2100Y1514D01*
X2102Y1514D01*
X2102Y1516D01*
X2106Y1516D01*
X2106Y1518D01*
X2110Y1518D01*
X2110Y1520D01*
X2114Y1520D01*
X2114Y1522D01*
X2122Y1522D01*
X2122Y1524D01*
X2034Y1524D01*
G37*
D02*
G36*
X2134Y1524D02*
X2134Y1522D01*
X2142Y1522D01*
X2142Y1520D01*
X2146Y1520D01*
X2146Y1518D01*
X2150Y1518D01*
X2150Y1516D01*
X2152Y1516D01*
X2152Y1514D01*
X2156Y1514D01*
X2156Y1512D01*
X2158Y1512D01*
X2158Y1510D01*
X2160Y1510D01*
X2160Y1508D01*
X2162Y1508D01*
X2162Y1506D01*
X2164Y1506D01*
X2164Y1504D01*
X2166Y1504D01*
X2166Y1500D01*
X2168Y1500D01*
X2168Y1498D01*
X2188Y1498D01*
X2188Y1502D01*
X2190Y1502D01*
X2190Y1504D01*
X2192Y1504D01*
X2192Y1506D01*
X2194Y1506D01*
X2194Y1508D01*
X2196Y1508D01*
X2196Y1510D01*
X2198Y1510D01*
X2198Y1512D01*
X2200Y1512D01*
X2200Y1514D01*
X2202Y1514D01*
X2202Y1516D01*
X2206Y1516D01*
X2206Y1518D01*
X2210Y1518D01*
X2210Y1520D01*
X2214Y1520D01*
X2214Y1522D01*
X2222Y1522D01*
X2222Y1524D01*
X2134Y1524D01*
G37*
D02*
G36*
X2234Y1524D02*
X2234Y1522D01*
X2242Y1522D01*
X2242Y1520D01*
X2246Y1520D01*
X2246Y1518D01*
X2250Y1518D01*
X2250Y1516D01*
X2252Y1516D01*
X2252Y1514D01*
X2256Y1514D01*
X2256Y1512D01*
X2258Y1512D01*
X2258Y1510D01*
X2260Y1510D01*
X2260Y1508D01*
X2262Y1508D01*
X2262Y1506D01*
X2264Y1506D01*
X2264Y1504D01*
X2266Y1504D01*
X2266Y1500D01*
X2268Y1500D01*
X2268Y1498D01*
X2288Y1498D01*
X2288Y1502D01*
X2290Y1502D01*
X2290Y1504D01*
X2292Y1504D01*
X2292Y1506D01*
X2294Y1506D01*
X2294Y1508D01*
X2296Y1508D01*
X2296Y1510D01*
X2298Y1510D01*
X2298Y1512D01*
X2300Y1512D01*
X2300Y1514D01*
X2302Y1514D01*
X2302Y1516D01*
X2306Y1516D01*
X2306Y1518D01*
X2310Y1518D01*
X2310Y1520D01*
X2314Y1520D01*
X2314Y1522D01*
X2322Y1522D01*
X2322Y1524D01*
X2234Y1524D01*
G37*
D02*
G36*
X1418Y1500D02*
X1418Y1498D01*
X1490Y1498D01*
X1490Y1500D01*
X1418Y1500D01*
G37*
D02*
G36*
X1668Y1454D02*
X1668Y1452D01*
X1666Y1452D01*
X1666Y1448D01*
X1664Y1448D01*
X1664Y1446D01*
X1662Y1446D01*
X1662Y1444D01*
X1660Y1444D01*
X1660Y1442D01*
X1658Y1442D01*
X1658Y1440D01*
X1656Y1440D01*
X1656Y1438D01*
X1652Y1438D01*
X1652Y1436D01*
X1650Y1436D01*
X1650Y1434D01*
X1646Y1434D01*
X1646Y1432D01*
X1642Y1432D01*
X1642Y1430D01*
X1634Y1430D01*
X1634Y1428D01*
X1722Y1428D01*
X1722Y1430D01*
X1714Y1430D01*
X1714Y1432D01*
X1710Y1432D01*
X1710Y1434D01*
X1706Y1434D01*
X1706Y1436D01*
X1702Y1436D01*
X1702Y1438D01*
X1700Y1438D01*
X1700Y1440D01*
X1698Y1440D01*
X1698Y1442D01*
X1696Y1442D01*
X1696Y1444D01*
X1694Y1444D01*
X1694Y1446D01*
X1692Y1446D01*
X1692Y1448D01*
X1690Y1448D01*
X1690Y1450D01*
X1688Y1450D01*
X1688Y1454D01*
X1668Y1454D01*
G37*
D02*
G36*
X1768Y1454D02*
X1768Y1452D01*
X1766Y1452D01*
X1766Y1448D01*
X1764Y1448D01*
X1764Y1446D01*
X1762Y1446D01*
X1762Y1444D01*
X1760Y1444D01*
X1760Y1442D01*
X1758Y1442D01*
X1758Y1440D01*
X1756Y1440D01*
X1756Y1438D01*
X1752Y1438D01*
X1752Y1436D01*
X1750Y1436D01*
X1750Y1434D01*
X1746Y1434D01*
X1746Y1432D01*
X1742Y1432D01*
X1742Y1430D01*
X1734Y1430D01*
X1734Y1428D01*
X1822Y1428D01*
X1822Y1430D01*
X1814Y1430D01*
X1814Y1432D01*
X1810Y1432D01*
X1810Y1434D01*
X1806Y1434D01*
X1806Y1436D01*
X1802Y1436D01*
X1802Y1438D01*
X1800Y1438D01*
X1800Y1440D01*
X1798Y1440D01*
X1798Y1442D01*
X1796Y1442D01*
X1796Y1444D01*
X1794Y1444D01*
X1794Y1446D01*
X1792Y1446D01*
X1792Y1448D01*
X1790Y1448D01*
X1790Y1450D01*
X1788Y1450D01*
X1788Y1454D01*
X1768Y1454D01*
G37*
D02*
G36*
X1868Y1454D02*
X1868Y1452D01*
X1866Y1452D01*
X1866Y1448D01*
X1864Y1448D01*
X1864Y1446D01*
X1862Y1446D01*
X1862Y1444D01*
X1860Y1444D01*
X1860Y1442D01*
X1858Y1442D01*
X1858Y1440D01*
X1856Y1440D01*
X1856Y1438D01*
X1852Y1438D01*
X1852Y1436D01*
X1850Y1436D01*
X1850Y1434D01*
X1846Y1434D01*
X1846Y1432D01*
X1842Y1432D01*
X1842Y1430D01*
X1834Y1430D01*
X1834Y1428D01*
X1922Y1428D01*
X1922Y1430D01*
X1914Y1430D01*
X1914Y1432D01*
X1910Y1432D01*
X1910Y1434D01*
X1906Y1434D01*
X1906Y1436D01*
X1902Y1436D01*
X1902Y1438D01*
X1900Y1438D01*
X1900Y1440D01*
X1898Y1440D01*
X1898Y1442D01*
X1896Y1442D01*
X1896Y1444D01*
X1894Y1444D01*
X1894Y1446D01*
X1892Y1446D01*
X1892Y1448D01*
X1890Y1448D01*
X1890Y1450D01*
X1888Y1450D01*
X1888Y1454D01*
X1868Y1454D01*
G37*
D02*
G36*
X1968Y1454D02*
X1968Y1452D01*
X1966Y1452D01*
X1966Y1448D01*
X1964Y1448D01*
X1964Y1446D01*
X1962Y1446D01*
X1962Y1444D01*
X1960Y1444D01*
X1960Y1442D01*
X1958Y1442D01*
X1958Y1440D01*
X1956Y1440D01*
X1956Y1438D01*
X1952Y1438D01*
X1952Y1436D01*
X1950Y1436D01*
X1950Y1434D01*
X1946Y1434D01*
X1946Y1432D01*
X1942Y1432D01*
X1942Y1430D01*
X1934Y1430D01*
X1934Y1428D01*
X2022Y1428D01*
X2022Y1430D01*
X2014Y1430D01*
X2014Y1432D01*
X2010Y1432D01*
X2010Y1434D01*
X2006Y1434D01*
X2006Y1436D01*
X2002Y1436D01*
X2002Y1438D01*
X2000Y1438D01*
X2000Y1440D01*
X1998Y1440D01*
X1998Y1442D01*
X1996Y1442D01*
X1996Y1444D01*
X1994Y1444D01*
X1994Y1446D01*
X1992Y1446D01*
X1992Y1448D01*
X1990Y1448D01*
X1990Y1450D01*
X1988Y1450D01*
X1988Y1454D01*
X1968Y1454D01*
G37*
D02*
G36*
X2068Y1454D02*
X2068Y1452D01*
X2066Y1452D01*
X2066Y1448D01*
X2064Y1448D01*
X2064Y1446D01*
X2062Y1446D01*
X2062Y1444D01*
X2060Y1444D01*
X2060Y1442D01*
X2058Y1442D01*
X2058Y1440D01*
X2056Y1440D01*
X2056Y1438D01*
X2052Y1438D01*
X2052Y1436D01*
X2050Y1436D01*
X2050Y1434D01*
X2046Y1434D01*
X2046Y1432D01*
X2042Y1432D01*
X2042Y1430D01*
X2034Y1430D01*
X2034Y1428D01*
X2122Y1428D01*
X2122Y1430D01*
X2114Y1430D01*
X2114Y1432D01*
X2110Y1432D01*
X2110Y1434D01*
X2106Y1434D01*
X2106Y1436D01*
X2102Y1436D01*
X2102Y1438D01*
X2100Y1438D01*
X2100Y1440D01*
X2098Y1440D01*
X2098Y1442D01*
X2096Y1442D01*
X2096Y1444D01*
X2094Y1444D01*
X2094Y1446D01*
X2092Y1446D01*
X2092Y1448D01*
X2090Y1448D01*
X2090Y1450D01*
X2088Y1450D01*
X2088Y1454D01*
X2068Y1454D01*
G37*
D02*
G36*
X2168Y1454D02*
X2168Y1452D01*
X2166Y1452D01*
X2166Y1448D01*
X2164Y1448D01*
X2164Y1446D01*
X2162Y1446D01*
X2162Y1444D01*
X2160Y1444D01*
X2160Y1442D01*
X2158Y1442D01*
X2158Y1440D01*
X2156Y1440D01*
X2156Y1438D01*
X2152Y1438D01*
X2152Y1436D01*
X2150Y1436D01*
X2150Y1434D01*
X2146Y1434D01*
X2146Y1432D01*
X2142Y1432D01*
X2142Y1430D01*
X2134Y1430D01*
X2134Y1428D01*
X2222Y1428D01*
X2222Y1430D01*
X2214Y1430D01*
X2214Y1432D01*
X2210Y1432D01*
X2210Y1434D01*
X2206Y1434D01*
X2206Y1436D01*
X2202Y1436D01*
X2202Y1438D01*
X2200Y1438D01*
X2200Y1440D01*
X2198Y1440D01*
X2198Y1442D01*
X2196Y1442D01*
X2196Y1444D01*
X2194Y1444D01*
X2194Y1446D01*
X2192Y1446D01*
X2192Y1448D01*
X2190Y1448D01*
X2190Y1450D01*
X2188Y1450D01*
X2188Y1454D01*
X2168Y1454D01*
G37*
D02*
G36*
X2268Y1454D02*
X2268Y1452D01*
X2266Y1452D01*
X2266Y1448D01*
X2264Y1448D01*
X2264Y1446D01*
X2262Y1446D01*
X2262Y1444D01*
X2260Y1444D01*
X2260Y1442D01*
X2258Y1442D01*
X2258Y1440D01*
X2256Y1440D01*
X2256Y1438D01*
X2252Y1438D01*
X2252Y1436D01*
X2250Y1436D01*
X2250Y1434D01*
X2246Y1434D01*
X2246Y1432D01*
X2242Y1432D01*
X2242Y1430D01*
X2234Y1430D01*
X2234Y1428D01*
X2322Y1428D01*
X2322Y1430D01*
X2314Y1430D01*
X2314Y1432D01*
X2310Y1432D01*
X2310Y1434D01*
X2306Y1434D01*
X2306Y1436D01*
X2302Y1436D01*
X2302Y1438D01*
X2300Y1438D01*
X2300Y1440D01*
X2298Y1440D01*
X2298Y1442D01*
X2296Y1442D01*
X2296Y1444D01*
X2294Y1444D01*
X2294Y1446D01*
X2292Y1446D01*
X2292Y1448D01*
X2290Y1448D01*
X2290Y1450D01*
X2288Y1450D01*
X2288Y1454D01*
X2268Y1454D01*
G37*
D02*
G36*
X1550Y1428D02*
X1550Y1426D01*
X2754Y1426D01*
X2754Y1428D01*
X1550Y1428D01*
G37*
D02*
G36*
X1550Y1428D02*
X1550Y1426D01*
X2754Y1426D01*
X2754Y1428D01*
X1550Y1428D01*
G37*
D02*
G36*
X1550Y1428D02*
X1550Y1426D01*
X2754Y1426D01*
X2754Y1428D01*
X1550Y1428D01*
G37*
D02*
G36*
X1550Y1428D02*
X1550Y1426D01*
X2754Y1426D01*
X2754Y1428D01*
X1550Y1428D01*
G37*
D02*
G36*
X1550Y1428D02*
X1550Y1426D01*
X2754Y1426D01*
X2754Y1428D01*
X1550Y1428D01*
G37*
D02*
G36*
X1550Y1428D02*
X1550Y1426D01*
X2754Y1426D01*
X2754Y1428D01*
X1550Y1428D01*
G37*
D02*
G36*
X1550Y1428D02*
X1550Y1426D01*
X2754Y1426D01*
X2754Y1428D01*
X1550Y1428D01*
G37*
D02*
G36*
X1550Y1428D02*
X1550Y1426D01*
X2754Y1426D01*
X2754Y1428D01*
X1550Y1428D01*
G37*
D02*
G36*
X1550Y1428D02*
X1550Y1426D01*
X2754Y1426D01*
X2754Y1428D01*
X1550Y1428D01*
G37*
D02*
G36*
X1550Y1426D02*
X1550Y1348D01*
X1830Y1348D01*
X1830Y1346D01*
X1838Y1346D01*
X1838Y1344D01*
X1840Y1344D01*
X1840Y1342D01*
X1844Y1342D01*
X1844Y1338D01*
X1846Y1338D01*
X1846Y1336D01*
X1848Y1336D01*
X1848Y1332D01*
X1850Y1332D01*
X1850Y1224D01*
X2334Y1224D01*
X2334Y1222D01*
X2342Y1222D01*
X2342Y1220D01*
X2346Y1220D01*
X2346Y1218D01*
X2350Y1218D01*
X2350Y1216D01*
X2352Y1216D01*
X2352Y1214D01*
X2356Y1214D01*
X2356Y1212D01*
X2358Y1212D01*
X2358Y1210D01*
X2360Y1210D01*
X2360Y1208D01*
X2362Y1208D01*
X2362Y1206D01*
X2364Y1206D01*
X2364Y1204D01*
X2366Y1204D01*
X2366Y1200D01*
X2368Y1200D01*
X2368Y1198D01*
X2370Y1198D01*
X2370Y1194D01*
X2372Y1194D01*
X2372Y1188D01*
X2374Y1188D01*
X2374Y1180D01*
X2376Y1180D01*
X2376Y1172D01*
X2374Y1172D01*
X2374Y1164D01*
X2372Y1164D01*
X2372Y1158D01*
X2370Y1158D01*
X2370Y1154D01*
X2368Y1154D01*
X2368Y1152D01*
X2366Y1152D01*
X2366Y1148D01*
X2364Y1148D01*
X2364Y1146D01*
X2362Y1146D01*
X2362Y1144D01*
X2360Y1144D01*
X2360Y1142D01*
X2358Y1142D01*
X2358Y1140D01*
X2356Y1140D01*
X2356Y1138D01*
X2352Y1138D01*
X2352Y1136D01*
X2350Y1136D01*
X2350Y950D01*
X2352Y950D01*
X2352Y900D01*
X2432Y900D01*
X2432Y898D01*
X2438Y898D01*
X2438Y896D01*
X2440Y896D01*
X2440Y894D01*
X2444Y894D01*
X2444Y892D01*
X2446Y892D01*
X2446Y888D01*
X2448Y888D01*
X2448Y884D01*
X2450Y884D01*
X2450Y424D01*
X2634Y424D01*
X2634Y422D01*
X2642Y422D01*
X2642Y420D01*
X2646Y420D01*
X2646Y418D01*
X2650Y418D01*
X2650Y416D01*
X2652Y416D01*
X2652Y414D01*
X2656Y414D01*
X2656Y412D01*
X2658Y412D01*
X2658Y410D01*
X2660Y410D01*
X2660Y408D01*
X2680Y408D01*
X2680Y424D01*
X2754Y424D01*
X2754Y1426D01*
X1550Y1426D01*
G37*
D02*
G36*
X1850Y1224D02*
X1850Y1216D01*
X1852Y1216D01*
X1852Y1214D01*
X1856Y1214D01*
X1856Y1212D01*
X1858Y1212D01*
X1858Y1210D01*
X1860Y1210D01*
X1860Y1208D01*
X1862Y1208D01*
X1862Y1206D01*
X1864Y1206D01*
X1864Y1204D01*
X1866Y1204D01*
X1866Y1200D01*
X1868Y1200D01*
X1868Y1198D01*
X1888Y1198D01*
X1888Y1202D01*
X1890Y1202D01*
X1890Y1204D01*
X1892Y1204D01*
X1892Y1206D01*
X1894Y1206D01*
X1894Y1208D01*
X1896Y1208D01*
X1896Y1210D01*
X1898Y1210D01*
X1898Y1212D01*
X1900Y1212D01*
X1900Y1214D01*
X1902Y1214D01*
X1902Y1216D01*
X1906Y1216D01*
X1906Y1218D01*
X1910Y1218D01*
X1910Y1220D01*
X1914Y1220D01*
X1914Y1222D01*
X1922Y1222D01*
X1922Y1224D01*
X1850Y1224D01*
G37*
D02*
G36*
X1934Y1224D02*
X1934Y1222D01*
X1942Y1222D01*
X1942Y1220D01*
X1946Y1220D01*
X1946Y1218D01*
X1950Y1218D01*
X1950Y1216D01*
X1952Y1216D01*
X1952Y1214D01*
X1956Y1214D01*
X1956Y1212D01*
X1958Y1212D01*
X1958Y1210D01*
X1960Y1210D01*
X1960Y1208D01*
X1962Y1208D01*
X1962Y1206D01*
X1964Y1206D01*
X1964Y1204D01*
X1966Y1204D01*
X1966Y1200D01*
X1968Y1200D01*
X1968Y1198D01*
X1988Y1198D01*
X1988Y1202D01*
X1990Y1202D01*
X1990Y1204D01*
X1992Y1204D01*
X1992Y1206D01*
X1994Y1206D01*
X1994Y1208D01*
X1996Y1208D01*
X1996Y1210D01*
X1998Y1210D01*
X1998Y1212D01*
X2000Y1212D01*
X2000Y1214D01*
X2002Y1214D01*
X2002Y1216D01*
X2006Y1216D01*
X2006Y1218D01*
X2010Y1218D01*
X2010Y1220D01*
X2014Y1220D01*
X2014Y1222D01*
X2022Y1222D01*
X2022Y1224D01*
X1934Y1224D01*
G37*
D02*
G36*
X2034Y1224D02*
X2034Y1222D01*
X2042Y1222D01*
X2042Y1220D01*
X2046Y1220D01*
X2046Y1218D01*
X2050Y1218D01*
X2050Y1216D01*
X2052Y1216D01*
X2052Y1214D01*
X2056Y1214D01*
X2056Y1212D01*
X2058Y1212D01*
X2058Y1210D01*
X2060Y1210D01*
X2060Y1208D01*
X2062Y1208D01*
X2062Y1206D01*
X2064Y1206D01*
X2064Y1204D01*
X2066Y1204D01*
X2066Y1200D01*
X2068Y1200D01*
X2068Y1198D01*
X2088Y1198D01*
X2088Y1202D01*
X2090Y1202D01*
X2090Y1204D01*
X2092Y1204D01*
X2092Y1206D01*
X2094Y1206D01*
X2094Y1208D01*
X2096Y1208D01*
X2096Y1210D01*
X2098Y1210D01*
X2098Y1212D01*
X2100Y1212D01*
X2100Y1214D01*
X2102Y1214D01*
X2102Y1216D01*
X2106Y1216D01*
X2106Y1218D01*
X2110Y1218D01*
X2110Y1220D01*
X2114Y1220D01*
X2114Y1222D01*
X2122Y1222D01*
X2122Y1224D01*
X2034Y1224D01*
G37*
D02*
G36*
X2134Y1224D02*
X2134Y1222D01*
X2142Y1222D01*
X2142Y1220D01*
X2146Y1220D01*
X2146Y1218D01*
X2150Y1218D01*
X2150Y1216D01*
X2152Y1216D01*
X2152Y1214D01*
X2156Y1214D01*
X2156Y1212D01*
X2158Y1212D01*
X2158Y1210D01*
X2160Y1210D01*
X2160Y1208D01*
X2162Y1208D01*
X2162Y1206D01*
X2164Y1206D01*
X2164Y1204D01*
X2166Y1204D01*
X2166Y1200D01*
X2168Y1200D01*
X2168Y1198D01*
X2188Y1198D01*
X2188Y1202D01*
X2190Y1202D01*
X2190Y1204D01*
X2192Y1204D01*
X2192Y1206D01*
X2194Y1206D01*
X2194Y1208D01*
X2196Y1208D01*
X2196Y1210D01*
X2198Y1210D01*
X2198Y1212D01*
X2200Y1212D01*
X2200Y1214D01*
X2202Y1214D01*
X2202Y1216D01*
X2206Y1216D01*
X2206Y1218D01*
X2210Y1218D01*
X2210Y1220D01*
X2214Y1220D01*
X2214Y1222D01*
X2222Y1222D01*
X2222Y1224D01*
X2134Y1224D01*
G37*
D02*
G36*
X2234Y1224D02*
X2234Y1222D01*
X2242Y1222D01*
X2242Y1220D01*
X2246Y1220D01*
X2246Y1218D01*
X2250Y1218D01*
X2250Y1216D01*
X2252Y1216D01*
X2252Y1214D01*
X2256Y1214D01*
X2256Y1212D01*
X2258Y1212D01*
X2258Y1210D01*
X2260Y1210D01*
X2260Y1208D01*
X2262Y1208D01*
X2262Y1206D01*
X2264Y1206D01*
X2264Y1204D01*
X2266Y1204D01*
X2266Y1200D01*
X2268Y1200D01*
X2268Y1198D01*
X2288Y1198D01*
X2288Y1202D01*
X2290Y1202D01*
X2290Y1204D01*
X2292Y1204D01*
X2292Y1206D01*
X2294Y1206D01*
X2294Y1208D01*
X2296Y1208D01*
X2296Y1210D01*
X2298Y1210D01*
X2298Y1212D01*
X2300Y1212D01*
X2300Y1214D01*
X2302Y1214D01*
X2302Y1216D01*
X2306Y1216D01*
X2306Y1218D01*
X2310Y1218D01*
X2310Y1220D01*
X2314Y1220D01*
X2314Y1222D01*
X2322Y1222D01*
X2322Y1224D01*
X2234Y1224D01*
G37*
D02*
G36*
X2450Y424D02*
X2450Y416D01*
X2452Y416D01*
X2452Y414D01*
X2456Y414D01*
X2456Y412D01*
X2458Y412D01*
X2458Y410D01*
X2460Y410D01*
X2460Y408D01*
X2462Y408D01*
X2462Y406D01*
X2464Y406D01*
X2464Y404D01*
X2466Y404D01*
X2466Y400D01*
X2468Y400D01*
X2468Y398D01*
X2488Y398D01*
X2488Y402D01*
X2490Y402D01*
X2490Y404D01*
X2492Y404D01*
X2492Y406D01*
X2494Y406D01*
X2494Y408D01*
X2496Y408D01*
X2496Y410D01*
X2498Y410D01*
X2498Y412D01*
X2500Y412D01*
X2500Y414D01*
X2502Y414D01*
X2502Y416D01*
X2506Y416D01*
X2506Y418D01*
X2510Y418D01*
X2510Y420D01*
X2514Y420D01*
X2514Y422D01*
X2522Y422D01*
X2522Y424D01*
X2450Y424D01*
G37*
D02*
G36*
X2534Y424D02*
X2534Y422D01*
X2542Y422D01*
X2542Y420D01*
X2546Y420D01*
X2546Y418D01*
X2550Y418D01*
X2550Y416D01*
X2552Y416D01*
X2552Y414D01*
X2556Y414D01*
X2556Y412D01*
X2558Y412D01*
X2558Y410D01*
X2560Y410D01*
X2560Y408D01*
X2562Y408D01*
X2562Y406D01*
X2564Y406D01*
X2564Y404D01*
X2566Y404D01*
X2566Y400D01*
X2568Y400D01*
X2568Y398D01*
X2588Y398D01*
X2588Y402D01*
X2590Y402D01*
X2590Y404D01*
X2592Y404D01*
X2592Y406D01*
X2594Y406D01*
X2594Y408D01*
X2596Y408D01*
X2596Y410D01*
X2598Y410D01*
X2598Y412D01*
X2600Y412D01*
X2600Y414D01*
X2602Y414D01*
X2602Y416D01*
X2606Y416D01*
X2606Y418D01*
X2610Y418D01*
X2610Y420D01*
X2614Y420D01*
X2614Y422D01*
X2622Y422D01*
X2622Y424D01*
X2534Y424D01*
G37*
D02*
G36*
X50Y1604D02*
X50Y1574D01*
X740Y1574D01*
X740Y1572D01*
X746Y1572D01*
X746Y1570D01*
X750Y1570D01*
X750Y1568D01*
X752Y1568D01*
X752Y1566D01*
X756Y1566D01*
X756Y1564D01*
X758Y1564D01*
X758Y1562D01*
X760Y1562D01*
X760Y1560D01*
X762Y1560D01*
X762Y1558D01*
X764Y1558D01*
X764Y1556D01*
X766Y1556D01*
X766Y1552D01*
X768Y1552D01*
X768Y1550D01*
X770Y1550D01*
X770Y1546D01*
X772Y1546D01*
X772Y1542D01*
X774Y1542D01*
X774Y1538D01*
X776Y1538D01*
X776Y1514D01*
X774Y1514D01*
X774Y1510D01*
X772Y1510D01*
X772Y1506D01*
X770Y1506D01*
X770Y1502D01*
X768Y1502D01*
X768Y1500D01*
X766Y1500D01*
X766Y1496D01*
X764Y1496D01*
X764Y1494D01*
X762Y1494D01*
X762Y1492D01*
X760Y1492D01*
X760Y1490D01*
X758Y1490D01*
X758Y1488D01*
X756Y1488D01*
X756Y1486D01*
X752Y1486D01*
X752Y1484D01*
X748Y1484D01*
X748Y1482D01*
X746Y1482D01*
X746Y1480D01*
X740Y1480D01*
X740Y1478D01*
X780Y1478D01*
X780Y1484D01*
X782Y1484D01*
X782Y1490D01*
X784Y1490D01*
X784Y1494D01*
X786Y1494D01*
X786Y1498D01*
X788Y1498D01*
X788Y1502D01*
X790Y1502D01*
X790Y1504D01*
X792Y1504D01*
X792Y1506D01*
X794Y1506D01*
X794Y1508D01*
X796Y1508D01*
X796Y1510D01*
X798Y1510D01*
X798Y1512D01*
X800Y1512D01*
X800Y1514D01*
X802Y1514D01*
X802Y1516D01*
X806Y1516D01*
X806Y1602D01*
X188Y1602D01*
X188Y1604D01*
X50Y1604D01*
G37*
D02*
G36*
X50Y1574D02*
X50Y1524D01*
X274Y1524D01*
X274Y1522D01*
X276Y1522D01*
X276Y1478D01*
X716Y1478D01*
X716Y1480D01*
X710Y1480D01*
X710Y1482D01*
X706Y1482D01*
X706Y1484D01*
X704Y1484D01*
X704Y1486D01*
X700Y1486D01*
X700Y1488D01*
X698Y1488D01*
X698Y1490D01*
X696Y1490D01*
X696Y1492D01*
X694Y1492D01*
X694Y1494D01*
X692Y1494D01*
X692Y1496D01*
X690Y1496D01*
X690Y1498D01*
X688Y1498D01*
X688Y1500D01*
X686Y1500D01*
X686Y1504D01*
X684Y1504D01*
X684Y1508D01*
X682Y1508D01*
X682Y1512D01*
X680Y1512D01*
X680Y1522D01*
X678Y1522D01*
X678Y1530D01*
X680Y1530D01*
X680Y1540D01*
X682Y1540D01*
X682Y1544D01*
X684Y1544D01*
X684Y1548D01*
X686Y1548D01*
X686Y1552D01*
X688Y1552D01*
X688Y1554D01*
X690Y1554D01*
X690Y1556D01*
X692Y1556D01*
X692Y1558D01*
X694Y1558D01*
X694Y1560D01*
X696Y1560D01*
X696Y1562D01*
X698Y1562D01*
X698Y1564D01*
X700Y1564D01*
X700Y1566D01*
X704Y1566D01*
X704Y1568D01*
X706Y1568D01*
X706Y1570D01*
X710Y1570D01*
X710Y1572D01*
X716Y1572D01*
X716Y1574D01*
X50Y1574D01*
G37*
D02*
G36*
X50Y1524D02*
X50Y1394D01*
X70Y1394D01*
X70Y1396D01*
X88Y1396D01*
X88Y1398D01*
X188Y1398D01*
X188Y1402D01*
X190Y1402D01*
X190Y1404D01*
X192Y1404D01*
X192Y1406D01*
X194Y1406D01*
X194Y1408D01*
X196Y1408D01*
X196Y1428D01*
X180Y1428D01*
X180Y1524D01*
X50Y1524D01*
G37*
D02*
G36*
X276Y1478D02*
X276Y1476D01*
X780Y1476D01*
X780Y1478D01*
X276Y1478D01*
G37*
D02*
G36*
X276Y1478D02*
X276Y1476D01*
X780Y1476D01*
X780Y1478D01*
X276Y1478D01*
G37*
D02*
G36*
X276Y1476D02*
X276Y1430D01*
X274Y1430D01*
X274Y1428D01*
X260Y1428D01*
X260Y1408D01*
X262Y1408D01*
X262Y1406D01*
X264Y1406D01*
X264Y1404D01*
X266Y1404D01*
X266Y1400D01*
X268Y1400D01*
X268Y1398D01*
X270Y1398D01*
X270Y1394D01*
X272Y1394D01*
X272Y1388D01*
X274Y1388D01*
X274Y1380D01*
X276Y1380D01*
X276Y1372D01*
X274Y1372D01*
X274Y1364D01*
X272Y1364D01*
X272Y1358D01*
X270Y1358D01*
X270Y1354D01*
X268Y1354D01*
X268Y1352D01*
X266Y1352D01*
X266Y1348D01*
X264Y1348D01*
X264Y1346D01*
X262Y1346D01*
X262Y1344D01*
X260Y1344D01*
X260Y1342D01*
X258Y1342D01*
X258Y1340D01*
X256Y1340D01*
X256Y1338D01*
X252Y1338D01*
X252Y1336D01*
X250Y1336D01*
X250Y1316D01*
X252Y1316D01*
X252Y1314D01*
X256Y1314D01*
X256Y1312D01*
X258Y1312D01*
X258Y1310D01*
X260Y1310D01*
X260Y1308D01*
X262Y1308D01*
X262Y1306D01*
X264Y1306D01*
X264Y1304D01*
X266Y1304D01*
X266Y1300D01*
X268Y1300D01*
X268Y1298D01*
X270Y1298D01*
X270Y1294D01*
X272Y1294D01*
X272Y1288D01*
X274Y1288D01*
X274Y1280D01*
X276Y1280D01*
X276Y1272D01*
X274Y1272D01*
X274Y1264D01*
X272Y1264D01*
X272Y1258D01*
X270Y1258D01*
X270Y1254D01*
X268Y1254D01*
X268Y1252D01*
X266Y1252D01*
X266Y1248D01*
X264Y1248D01*
X264Y1246D01*
X262Y1246D01*
X262Y1244D01*
X260Y1244D01*
X260Y1242D01*
X258Y1242D01*
X258Y1240D01*
X256Y1240D01*
X256Y1238D01*
X252Y1238D01*
X252Y1236D01*
X250Y1236D01*
X250Y1216D01*
X252Y1216D01*
X252Y1214D01*
X256Y1214D01*
X256Y1212D01*
X258Y1212D01*
X258Y1210D01*
X260Y1210D01*
X260Y1208D01*
X262Y1208D01*
X262Y1206D01*
X264Y1206D01*
X264Y1204D01*
X266Y1204D01*
X266Y1200D01*
X268Y1200D01*
X268Y1198D01*
X270Y1198D01*
X270Y1194D01*
X272Y1194D01*
X272Y1188D01*
X274Y1188D01*
X274Y1180D01*
X276Y1180D01*
X276Y1172D01*
X274Y1172D01*
X274Y1164D01*
X272Y1164D01*
X272Y1158D01*
X270Y1158D01*
X270Y1154D01*
X268Y1154D01*
X268Y1152D01*
X266Y1152D01*
X266Y1148D01*
X264Y1148D01*
X264Y1146D01*
X262Y1146D01*
X262Y1144D01*
X260Y1144D01*
X260Y1142D01*
X258Y1142D01*
X258Y1140D01*
X256Y1140D01*
X256Y1138D01*
X252Y1138D01*
X252Y1136D01*
X250Y1136D01*
X250Y1116D01*
X252Y1116D01*
X252Y1114D01*
X256Y1114D01*
X256Y1112D01*
X258Y1112D01*
X258Y1110D01*
X260Y1110D01*
X260Y1108D01*
X262Y1108D01*
X262Y1106D01*
X264Y1106D01*
X264Y1104D01*
X266Y1104D01*
X266Y1100D01*
X268Y1100D01*
X268Y1098D01*
X270Y1098D01*
X270Y1094D01*
X272Y1094D01*
X272Y1088D01*
X274Y1088D01*
X274Y1080D01*
X276Y1080D01*
X276Y1072D01*
X274Y1072D01*
X274Y1064D01*
X272Y1064D01*
X272Y1058D01*
X270Y1058D01*
X270Y1054D01*
X268Y1054D01*
X268Y1052D01*
X266Y1052D01*
X266Y1048D01*
X264Y1048D01*
X264Y1046D01*
X262Y1046D01*
X262Y1044D01*
X260Y1044D01*
X260Y1042D01*
X258Y1042D01*
X258Y1040D01*
X256Y1040D01*
X256Y1038D01*
X252Y1038D01*
X252Y1036D01*
X250Y1036D01*
X250Y1016D01*
X252Y1016D01*
X252Y1014D01*
X256Y1014D01*
X256Y1012D01*
X258Y1012D01*
X258Y1010D01*
X260Y1010D01*
X260Y1008D01*
X262Y1008D01*
X262Y1006D01*
X264Y1006D01*
X264Y1004D01*
X266Y1004D01*
X266Y1000D01*
X268Y1000D01*
X268Y998D01*
X270Y998D01*
X270Y994D01*
X272Y994D01*
X272Y988D01*
X274Y988D01*
X274Y980D01*
X276Y980D01*
X276Y972D01*
X274Y972D01*
X274Y964D01*
X272Y964D01*
X272Y958D01*
X270Y958D01*
X270Y954D01*
X268Y954D01*
X268Y952D01*
X266Y952D01*
X266Y948D01*
X264Y948D01*
X264Y946D01*
X262Y946D01*
X262Y944D01*
X260Y944D01*
X260Y942D01*
X258Y942D01*
X258Y940D01*
X256Y940D01*
X256Y938D01*
X252Y938D01*
X252Y936D01*
X250Y936D01*
X250Y916D01*
X252Y916D01*
X252Y914D01*
X256Y914D01*
X256Y912D01*
X258Y912D01*
X258Y910D01*
X260Y910D01*
X260Y908D01*
X262Y908D01*
X262Y906D01*
X264Y906D01*
X264Y904D01*
X266Y904D01*
X266Y900D01*
X268Y900D01*
X268Y898D01*
X270Y898D01*
X270Y894D01*
X272Y894D01*
X272Y888D01*
X274Y888D01*
X274Y880D01*
X276Y880D01*
X276Y872D01*
X274Y872D01*
X274Y864D01*
X272Y864D01*
X272Y858D01*
X270Y858D01*
X270Y854D01*
X268Y854D01*
X268Y852D01*
X266Y852D01*
X266Y848D01*
X264Y848D01*
X264Y846D01*
X262Y846D01*
X262Y844D01*
X260Y844D01*
X260Y842D01*
X258Y842D01*
X258Y840D01*
X256Y840D01*
X256Y838D01*
X252Y838D01*
X252Y836D01*
X250Y836D01*
X250Y816D01*
X252Y816D01*
X252Y814D01*
X256Y814D01*
X256Y812D01*
X258Y812D01*
X258Y810D01*
X260Y810D01*
X260Y808D01*
X262Y808D01*
X262Y806D01*
X264Y806D01*
X264Y804D01*
X266Y804D01*
X266Y800D01*
X268Y800D01*
X268Y798D01*
X270Y798D01*
X270Y794D01*
X272Y794D01*
X272Y788D01*
X274Y788D01*
X274Y780D01*
X276Y780D01*
X276Y772D01*
X274Y772D01*
X274Y764D01*
X272Y764D01*
X272Y758D01*
X270Y758D01*
X270Y754D01*
X268Y754D01*
X268Y752D01*
X266Y752D01*
X266Y748D01*
X264Y748D01*
X264Y746D01*
X262Y746D01*
X262Y744D01*
X260Y744D01*
X260Y742D01*
X258Y742D01*
X258Y740D01*
X256Y740D01*
X256Y738D01*
X252Y738D01*
X252Y736D01*
X250Y736D01*
X250Y716D01*
X252Y716D01*
X252Y714D01*
X256Y714D01*
X256Y712D01*
X258Y712D01*
X258Y710D01*
X260Y710D01*
X260Y708D01*
X262Y708D01*
X262Y706D01*
X264Y706D01*
X264Y704D01*
X266Y704D01*
X266Y700D01*
X268Y700D01*
X268Y698D01*
X270Y698D01*
X270Y694D01*
X272Y694D01*
X272Y688D01*
X274Y688D01*
X274Y680D01*
X276Y680D01*
X276Y672D01*
X274Y672D01*
X274Y664D01*
X272Y664D01*
X272Y658D01*
X270Y658D01*
X270Y654D01*
X268Y654D01*
X268Y652D01*
X266Y652D01*
X266Y648D01*
X264Y648D01*
X264Y646D01*
X262Y646D01*
X262Y644D01*
X260Y644D01*
X260Y642D01*
X258Y642D01*
X258Y640D01*
X256Y640D01*
X256Y638D01*
X252Y638D01*
X252Y636D01*
X250Y636D01*
X250Y616D01*
X252Y616D01*
X252Y614D01*
X256Y614D01*
X256Y612D01*
X258Y612D01*
X258Y610D01*
X260Y610D01*
X260Y608D01*
X262Y608D01*
X262Y606D01*
X264Y606D01*
X264Y604D01*
X266Y604D01*
X266Y600D01*
X268Y600D01*
X268Y598D01*
X270Y598D01*
X270Y594D01*
X272Y594D01*
X272Y588D01*
X274Y588D01*
X274Y580D01*
X276Y580D01*
X276Y572D01*
X274Y572D01*
X274Y564D01*
X272Y564D01*
X272Y558D01*
X270Y558D01*
X270Y554D01*
X268Y554D01*
X268Y552D01*
X266Y552D01*
X266Y548D01*
X264Y548D01*
X264Y546D01*
X262Y546D01*
X262Y544D01*
X260Y544D01*
X260Y542D01*
X258Y542D01*
X258Y540D01*
X256Y540D01*
X256Y538D01*
X252Y538D01*
X252Y536D01*
X250Y536D01*
X250Y516D01*
X252Y516D01*
X252Y514D01*
X256Y514D01*
X256Y512D01*
X258Y512D01*
X258Y510D01*
X260Y510D01*
X260Y508D01*
X262Y508D01*
X262Y506D01*
X264Y506D01*
X264Y504D01*
X266Y504D01*
X266Y500D01*
X268Y500D01*
X268Y498D01*
X374Y498D01*
X374Y500D01*
X378Y500D01*
X378Y502D01*
X382Y502D01*
X382Y504D01*
X388Y504D01*
X388Y506D01*
X392Y506D01*
X392Y508D01*
X396Y508D01*
X396Y510D01*
X400Y510D01*
X400Y512D01*
X406Y512D01*
X406Y514D01*
X410Y514D01*
X410Y516D01*
X414Y516D01*
X414Y518D01*
X418Y518D01*
X418Y520D01*
X424Y520D01*
X424Y522D01*
X428Y522D01*
X428Y524D01*
X432Y524D01*
X432Y526D01*
X436Y526D01*
X436Y528D01*
X442Y528D01*
X442Y530D01*
X446Y530D01*
X446Y532D01*
X450Y532D01*
X450Y534D01*
X454Y534D01*
X454Y536D01*
X460Y536D01*
X460Y538D01*
X464Y538D01*
X464Y540D01*
X468Y540D01*
X468Y542D01*
X472Y542D01*
X472Y544D01*
X478Y544D01*
X478Y546D01*
X482Y546D01*
X482Y548D01*
X486Y548D01*
X486Y550D01*
X492Y550D01*
X492Y552D01*
X496Y552D01*
X496Y554D01*
X500Y554D01*
X500Y556D01*
X504Y556D01*
X504Y558D01*
X510Y558D01*
X510Y560D01*
X514Y560D01*
X514Y562D01*
X518Y562D01*
X518Y564D01*
X522Y564D01*
X522Y566D01*
X528Y566D01*
X528Y568D01*
X532Y568D01*
X532Y570D01*
X536Y570D01*
X536Y572D01*
X540Y572D01*
X540Y574D01*
X546Y574D01*
X546Y576D01*
X550Y576D01*
X550Y578D01*
X554Y578D01*
X554Y580D01*
X558Y580D01*
X558Y582D01*
X564Y582D01*
X564Y584D01*
X568Y584D01*
X568Y586D01*
X572Y586D01*
X572Y588D01*
X576Y588D01*
X576Y590D01*
X582Y590D01*
X582Y592D01*
X586Y592D01*
X586Y594D01*
X590Y594D01*
X590Y596D01*
X594Y596D01*
X594Y598D01*
X600Y598D01*
X600Y600D01*
X604Y600D01*
X604Y602D01*
X608Y602D01*
X608Y604D01*
X612Y604D01*
X612Y606D01*
X618Y606D01*
X618Y608D01*
X622Y608D01*
X622Y610D01*
X626Y610D01*
X626Y612D01*
X632Y612D01*
X632Y614D01*
X636Y614D01*
X636Y616D01*
X640Y616D01*
X640Y618D01*
X644Y618D01*
X644Y620D01*
X650Y620D01*
X650Y622D01*
X654Y622D01*
X654Y624D01*
X658Y624D01*
X658Y626D01*
X662Y626D01*
X662Y628D01*
X668Y628D01*
X668Y630D01*
X672Y630D01*
X672Y632D01*
X676Y632D01*
X676Y634D01*
X680Y634D01*
X680Y636D01*
X686Y636D01*
X686Y638D01*
X690Y638D01*
X690Y640D01*
X694Y640D01*
X694Y642D01*
X698Y642D01*
X698Y644D01*
X704Y644D01*
X704Y646D01*
X708Y646D01*
X708Y648D01*
X712Y648D01*
X712Y650D01*
X716Y650D01*
X716Y652D01*
X722Y652D01*
X722Y654D01*
X726Y654D01*
X726Y656D01*
X730Y656D01*
X730Y658D01*
X734Y658D01*
X734Y660D01*
X740Y660D01*
X740Y662D01*
X744Y662D01*
X744Y664D01*
X748Y664D01*
X748Y666D01*
X754Y666D01*
X754Y668D01*
X758Y668D01*
X758Y670D01*
X762Y670D01*
X762Y672D01*
X766Y672D01*
X766Y674D01*
X772Y674D01*
X772Y676D01*
X776Y676D01*
X776Y678D01*
X780Y678D01*
X780Y684D01*
X782Y684D01*
X782Y690D01*
X784Y690D01*
X784Y694D01*
X786Y694D01*
X786Y698D01*
X788Y698D01*
X788Y702D01*
X790Y702D01*
X790Y704D01*
X792Y704D01*
X792Y706D01*
X794Y706D01*
X794Y708D01*
X796Y708D01*
X796Y710D01*
X798Y710D01*
X798Y712D01*
X800Y712D01*
X800Y714D01*
X802Y714D01*
X802Y716D01*
X806Y716D01*
X806Y736D01*
X802Y736D01*
X802Y738D01*
X800Y738D01*
X800Y740D01*
X798Y740D01*
X798Y742D01*
X796Y742D01*
X796Y744D01*
X794Y744D01*
X794Y746D01*
X792Y746D01*
X792Y748D01*
X790Y748D01*
X790Y750D01*
X788Y750D01*
X788Y754D01*
X786Y754D01*
X786Y758D01*
X784Y758D01*
X784Y762D01*
X782Y762D01*
X782Y768D01*
X780Y768D01*
X780Y784D01*
X782Y784D01*
X782Y790D01*
X784Y790D01*
X784Y794D01*
X786Y794D01*
X786Y798D01*
X788Y798D01*
X788Y802D01*
X790Y802D01*
X790Y804D01*
X792Y804D01*
X792Y806D01*
X794Y806D01*
X794Y808D01*
X796Y808D01*
X796Y810D01*
X798Y810D01*
X798Y812D01*
X800Y812D01*
X800Y814D01*
X802Y814D01*
X802Y816D01*
X806Y816D01*
X806Y836D01*
X802Y836D01*
X802Y838D01*
X800Y838D01*
X800Y840D01*
X798Y840D01*
X798Y842D01*
X796Y842D01*
X796Y844D01*
X794Y844D01*
X794Y846D01*
X792Y846D01*
X792Y848D01*
X790Y848D01*
X790Y850D01*
X788Y850D01*
X788Y854D01*
X786Y854D01*
X786Y858D01*
X784Y858D01*
X784Y862D01*
X782Y862D01*
X782Y868D01*
X780Y868D01*
X780Y884D01*
X782Y884D01*
X782Y890D01*
X784Y890D01*
X784Y894D01*
X786Y894D01*
X786Y898D01*
X788Y898D01*
X788Y902D01*
X790Y902D01*
X790Y904D01*
X792Y904D01*
X792Y906D01*
X794Y906D01*
X794Y908D01*
X796Y908D01*
X796Y910D01*
X798Y910D01*
X798Y912D01*
X800Y912D01*
X800Y914D01*
X802Y914D01*
X802Y916D01*
X806Y916D01*
X806Y936D01*
X802Y936D01*
X802Y938D01*
X800Y938D01*
X800Y940D01*
X798Y940D01*
X798Y942D01*
X796Y942D01*
X796Y944D01*
X794Y944D01*
X794Y946D01*
X792Y946D01*
X792Y948D01*
X790Y948D01*
X790Y950D01*
X788Y950D01*
X788Y954D01*
X786Y954D01*
X786Y958D01*
X784Y958D01*
X784Y962D01*
X782Y962D01*
X782Y968D01*
X780Y968D01*
X780Y984D01*
X782Y984D01*
X782Y990D01*
X784Y990D01*
X784Y994D01*
X786Y994D01*
X786Y998D01*
X788Y998D01*
X788Y1002D01*
X790Y1002D01*
X790Y1004D01*
X792Y1004D01*
X792Y1006D01*
X794Y1006D01*
X794Y1008D01*
X796Y1008D01*
X796Y1010D01*
X798Y1010D01*
X798Y1012D01*
X800Y1012D01*
X800Y1014D01*
X802Y1014D01*
X802Y1016D01*
X806Y1016D01*
X806Y1036D01*
X802Y1036D01*
X802Y1038D01*
X800Y1038D01*
X800Y1040D01*
X798Y1040D01*
X798Y1042D01*
X796Y1042D01*
X796Y1044D01*
X794Y1044D01*
X794Y1046D01*
X792Y1046D01*
X792Y1048D01*
X790Y1048D01*
X790Y1050D01*
X788Y1050D01*
X788Y1054D01*
X786Y1054D01*
X786Y1058D01*
X784Y1058D01*
X784Y1062D01*
X782Y1062D01*
X782Y1068D01*
X780Y1068D01*
X780Y1084D01*
X782Y1084D01*
X782Y1090D01*
X784Y1090D01*
X784Y1094D01*
X786Y1094D01*
X786Y1098D01*
X788Y1098D01*
X788Y1102D01*
X790Y1102D01*
X790Y1104D01*
X792Y1104D01*
X792Y1106D01*
X794Y1106D01*
X794Y1108D01*
X796Y1108D01*
X796Y1110D01*
X798Y1110D01*
X798Y1112D01*
X800Y1112D01*
X800Y1114D01*
X802Y1114D01*
X802Y1116D01*
X806Y1116D01*
X806Y1136D01*
X802Y1136D01*
X802Y1138D01*
X800Y1138D01*
X800Y1140D01*
X798Y1140D01*
X798Y1142D01*
X796Y1142D01*
X796Y1144D01*
X794Y1144D01*
X794Y1146D01*
X792Y1146D01*
X792Y1148D01*
X790Y1148D01*
X790Y1150D01*
X788Y1150D01*
X788Y1154D01*
X786Y1154D01*
X786Y1158D01*
X784Y1158D01*
X784Y1162D01*
X782Y1162D01*
X782Y1168D01*
X780Y1168D01*
X780Y1184D01*
X782Y1184D01*
X782Y1190D01*
X784Y1190D01*
X784Y1194D01*
X786Y1194D01*
X786Y1198D01*
X788Y1198D01*
X788Y1202D01*
X790Y1202D01*
X790Y1204D01*
X792Y1204D01*
X792Y1206D01*
X794Y1206D01*
X794Y1208D01*
X796Y1208D01*
X796Y1210D01*
X798Y1210D01*
X798Y1212D01*
X800Y1212D01*
X800Y1214D01*
X802Y1214D01*
X802Y1216D01*
X806Y1216D01*
X806Y1236D01*
X802Y1236D01*
X802Y1238D01*
X800Y1238D01*
X800Y1240D01*
X798Y1240D01*
X798Y1242D01*
X796Y1242D01*
X796Y1244D01*
X794Y1244D01*
X794Y1246D01*
X792Y1246D01*
X792Y1248D01*
X790Y1248D01*
X790Y1250D01*
X788Y1250D01*
X788Y1254D01*
X786Y1254D01*
X786Y1258D01*
X784Y1258D01*
X784Y1262D01*
X782Y1262D01*
X782Y1268D01*
X780Y1268D01*
X780Y1284D01*
X782Y1284D01*
X782Y1290D01*
X784Y1290D01*
X784Y1294D01*
X786Y1294D01*
X786Y1298D01*
X788Y1298D01*
X788Y1302D01*
X790Y1302D01*
X790Y1304D01*
X792Y1304D01*
X792Y1306D01*
X794Y1306D01*
X794Y1308D01*
X796Y1308D01*
X796Y1310D01*
X798Y1310D01*
X798Y1312D01*
X800Y1312D01*
X800Y1314D01*
X802Y1314D01*
X802Y1316D01*
X806Y1316D01*
X806Y1336D01*
X802Y1336D01*
X802Y1338D01*
X800Y1338D01*
X800Y1340D01*
X798Y1340D01*
X798Y1342D01*
X796Y1342D01*
X796Y1344D01*
X794Y1344D01*
X794Y1346D01*
X792Y1346D01*
X792Y1348D01*
X790Y1348D01*
X790Y1350D01*
X788Y1350D01*
X788Y1354D01*
X786Y1354D01*
X786Y1358D01*
X784Y1358D01*
X784Y1362D01*
X782Y1362D01*
X782Y1368D01*
X780Y1368D01*
X780Y1384D01*
X782Y1384D01*
X782Y1390D01*
X784Y1390D01*
X784Y1394D01*
X786Y1394D01*
X786Y1398D01*
X788Y1398D01*
X788Y1402D01*
X790Y1402D01*
X790Y1404D01*
X792Y1404D01*
X792Y1406D01*
X794Y1406D01*
X794Y1408D01*
X796Y1408D01*
X796Y1410D01*
X798Y1410D01*
X798Y1412D01*
X800Y1412D01*
X800Y1414D01*
X802Y1414D01*
X802Y1416D01*
X806Y1416D01*
X806Y1436D01*
X802Y1436D01*
X802Y1438D01*
X800Y1438D01*
X800Y1440D01*
X798Y1440D01*
X798Y1442D01*
X796Y1442D01*
X796Y1444D01*
X794Y1444D01*
X794Y1446D01*
X792Y1446D01*
X792Y1448D01*
X790Y1448D01*
X790Y1450D01*
X788Y1450D01*
X788Y1454D01*
X786Y1454D01*
X786Y1458D01*
X784Y1458D01*
X784Y1462D01*
X782Y1462D01*
X782Y1468D01*
X780Y1468D01*
X780Y1476D01*
X276Y1476D01*
G37*
D02*
G36*
X1418Y1454D02*
X1418Y1452D01*
X1416Y1452D01*
X1416Y1448D01*
X1414Y1448D01*
X1414Y1446D01*
X1412Y1446D01*
X1412Y1444D01*
X1410Y1444D01*
X1410Y1442D01*
X1408Y1442D01*
X1408Y1440D01*
X1406Y1440D01*
X1406Y1438D01*
X1402Y1438D01*
X1402Y1436D01*
X1400Y1436D01*
X1400Y1416D01*
X1402Y1416D01*
X1402Y1414D01*
X1406Y1414D01*
X1406Y1412D01*
X1408Y1412D01*
X1408Y1410D01*
X1410Y1410D01*
X1410Y1408D01*
X1412Y1408D01*
X1412Y1406D01*
X1414Y1406D01*
X1414Y1404D01*
X1416Y1404D01*
X1416Y1400D01*
X1418Y1400D01*
X1418Y1398D01*
X1438Y1398D01*
X1438Y1396D01*
X1486Y1396D01*
X1486Y1394D01*
X1506Y1394D01*
X1506Y1454D01*
X1418Y1454D01*
G37*
D02*
G36*
X102Y1354D02*
X102Y696D01*
X160Y696D01*
X160Y698D01*
X188Y698D01*
X188Y702D01*
X190Y702D01*
X190Y704D01*
X192Y704D01*
X192Y706D01*
X194Y706D01*
X194Y708D01*
X196Y708D01*
X196Y710D01*
X198Y710D01*
X198Y712D01*
X200Y712D01*
X200Y714D01*
X202Y714D01*
X202Y716D01*
X206Y716D01*
X206Y736D01*
X202Y736D01*
X202Y738D01*
X200Y738D01*
X200Y740D01*
X198Y740D01*
X198Y742D01*
X196Y742D01*
X196Y744D01*
X194Y744D01*
X194Y746D01*
X192Y746D01*
X192Y748D01*
X190Y748D01*
X190Y750D01*
X188Y750D01*
X188Y754D01*
X186Y754D01*
X186Y758D01*
X184Y758D01*
X184Y762D01*
X182Y762D01*
X182Y768D01*
X180Y768D01*
X180Y784D01*
X182Y784D01*
X182Y790D01*
X184Y790D01*
X184Y794D01*
X186Y794D01*
X186Y798D01*
X188Y798D01*
X188Y802D01*
X190Y802D01*
X190Y804D01*
X192Y804D01*
X192Y806D01*
X194Y806D01*
X194Y808D01*
X196Y808D01*
X196Y810D01*
X198Y810D01*
X198Y812D01*
X200Y812D01*
X200Y814D01*
X202Y814D01*
X202Y816D01*
X206Y816D01*
X206Y836D01*
X202Y836D01*
X202Y838D01*
X200Y838D01*
X200Y840D01*
X198Y840D01*
X198Y842D01*
X196Y842D01*
X196Y844D01*
X194Y844D01*
X194Y846D01*
X192Y846D01*
X192Y848D01*
X190Y848D01*
X190Y850D01*
X188Y850D01*
X188Y854D01*
X186Y854D01*
X186Y858D01*
X184Y858D01*
X184Y862D01*
X182Y862D01*
X182Y868D01*
X180Y868D01*
X180Y884D01*
X182Y884D01*
X182Y890D01*
X184Y890D01*
X184Y894D01*
X186Y894D01*
X186Y898D01*
X188Y898D01*
X188Y902D01*
X190Y902D01*
X190Y904D01*
X192Y904D01*
X192Y906D01*
X194Y906D01*
X194Y908D01*
X196Y908D01*
X196Y910D01*
X198Y910D01*
X198Y912D01*
X200Y912D01*
X200Y914D01*
X202Y914D01*
X202Y916D01*
X206Y916D01*
X206Y936D01*
X202Y936D01*
X202Y938D01*
X200Y938D01*
X200Y940D01*
X198Y940D01*
X198Y942D01*
X196Y942D01*
X196Y944D01*
X194Y944D01*
X194Y946D01*
X192Y946D01*
X192Y948D01*
X190Y948D01*
X190Y950D01*
X188Y950D01*
X188Y954D01*
X186Y954D01*
X186Y958D01*
X184Y958D01*
X184Y962D01*
X182Y962D01*
X182Y968D01*
X180Y968D01*
X180Y984D01*
X182Y984D01*
X182Y990D01*
X184Y990D01*
X184Y994D01*
X186Y994D01*
X186Y998D01*
X188Y998D01*
X188Y1002D01*
X190Y1002D01*
X190Y1004D01*
X192Y1004D01*
X192Y1006D01*
X194Y1006D01*
X194Y1008D01*
X196Y1008D01*
X196Y1010D01*
X198Y1010D01*
X198Y1012D01*
X200Y1012D01*
X200Y1014D01*
X202Y1014D01*
X202Y1016D01*
X206Y1016D01*
X206Y1036D01*
X202Y1036D01*
X202Y1038D01*
X200Y1038D01*
X200Y1040D01*
X198Y1040D01*
X198Y1042D01*
X196Y1042D01*
X196Y1044D01*
X194Y1044D01*
X194Y1046D01*
X192Y1046D01*
X192Y1048D01*
X190Y1048D01*
X190Y1050D01*
X188Y1050D01*
X188Y1054D01*
X186Y1054D01*
X186Y1058D01*
X184Y1058D01*
X184Y1062D01*
X182Y1062D01*
X182Y1068D01*
X180Y1068D01*
X180Y1084D01*
X182Y1084D01*
X182Y1090D01*
X184Y1090D01*
X184Y1094D01*
X186Y1094D01*
X186Y1098D01*
X188Y1098D01*
X188Y1102D01*
X190Y1102D01*
X190Y1104D01*
X192Y1104D01*
X192Y1106D01*
X194Y1106D01*
X194Y1108D01*
X196Y1108D01*
X196Y1110D01*
X198Y1110D01*
X198Y1112D01*
X200Y1112D01*
X200Y1114D01*
X202Y1114D01*
X202Y1116D01*
X206Y1116D01*
X206Y1136D01*
X202Y1136D01*
X202Y1138D01*
X200Y1138D01*
X200Y1140D01*
X198Y1140D01*
X198Y1142D01*
X196Y1142D01*
X196Y1144D01*
X194Y1144D01*
X194Y1146D01*
X192Y1146D01*
X192Y1148D01*
X190Y1148D01*
X190Y1150D01*
X188Y1150D01*
X188Y1154D01*
X186Y1154D01*
X186Y1158D01*
X184Y1158D01*
X184Y1162D01*
X182Y1162D01*
X182Y1168D01*
X180Y1168D01*
X180Y1184D01*
X182Y1184D01*
X182Y1190D01*
X184Y1190D01*
X184Y1194D01*
X186Y1194D01*
X186Y1198D01*
X188Y1198D01*
X188Y1202D01*
X190Y1202D01*
X190Y1204D01*
X192Y1204D01*
X192Y1206D01*
X194Y1206D01*
X194Y1208D01*
X196Y1208D01*
X196Y1210D01*
X198Y1210D01*
X198Y1212D01*
X200Y1212D01*
X200Y1214D01*
X202Y1214D01*
X202Y1216D01*
X206Y1216D01*
X206Y1236D01*
X202Y1236D01*
X202Y1238D01*
X200Y1238D01*
X200Y1240D01*
X198Y1240D01*
X198Y1242D01*
X196Y1242D01*
X196Y1244D01*
X194Y1244D01*
X194Y1246D01*
X192Y1246D01*
X192Y1248D01*
X190Y1248D01*
X190Y1250D01*
X188Y1250D01*
X188Y1254D01*
X186Y1254D01*
X186Y1258D01*
X184Y1258D01*
X184Y1262D01*
X182Y1262D01*
X182Y1268D01*
X180Y1268D01*
X180Y1284D01*
X182Y1284D01*
X182Y1290D01*
X184Y1290D01*
X184Y1294D01*
X186Y1294D01*
X186Y1298D01*
X188Y1298D01*
X188Y1302D01*
X190Y1302D01*
X190Y1304D01*
X192Y1304D01*
X192Y1306D01*
X194Y1306D01*
X194Y1308D01*
X196Y1308D01*
X196Y1310D01*
X198Y1310D01*
X198Y1312D01*
X200Y1312D01*
X200Y1314D01*
X202Y1314D01*
X202Y1316D01*
X206Y1316D01*
X206Y1336D01*
X202Y1336D01*
X202Y1338D01*
X200Y1338D01*
X200Y1340D01*
X198Y1340D01*
X198Y1342D01*
X196Y1342D01*
X196Y1344D01*
X194Y1344D01*
X194Y1346D01*
X192Y1346D01*
X192Y1348D01*
X190Y1348D01*
X190Y1350D01*
X188Y1350D01*
X188Y1354D01*
X102Y1354D01*
G37*
D02*
G36*
X1418Y1354D02*
X1418Y1352D01*
X1416Y1352D01*
X1416Y1348D01*
X1414Y1348D01*
X1414Y1346D01*
X1412Y1346D01*
X1412Y1344D01*
X1410Y1344D01*
X1410Y1342D01*
X1408Y1342D01*
X1408Y1340D01*
X1406Y1340D01*
X1406Y1338D01*
X1402Y1338D01*
X1402Y1336D01*
X1400Y1336D01*
X1400Y1316D01*
X1402Y1316D01*
X1402Y1314D01*
X1406Y1314D01*
X1406Y1312D01*
X1408Y1312D01*
X1408Y1310D01*
X1410Y1310D01*
X1410Y1308D01*
X1412Y1308D01*
X1412Y1306D01*
X1414Y1306D01*
X1414Y1304D01*
X1416Y1304D01*
X1416Y1300D01*
X1418Y1300D01*
X1418Y1298D01*
X1420Y1298D01*
X1420Y1294D01*
X1422Y1294D01*
X1422Y1288D01*
X1424Y1288D01*
X1424Y1280D01*
X1426Y1280D01*
X1426Y1272D01*
X1424Y1272D01*
X1424Y1264D01*
X1422Y1264D01*
X1422Y1258D01*
X1420Y1258D01*
X1420Y1254D01*
X1418Y1254D01*
X1418Y1252D01*
X1416Y1252D01*
X1416Y1248D01*
X1414Y1248D01*
X1414Y1246D01*
X1412Y1246D01*
X1412Y1244D01*
X1410Y1244D01*
X1410Y1242D01*
X1408Y1242D01*
X1408Y1240D01*
X1406Y1240D01*
X1406Y1238D01*
X1402Y1238D01*
X1402Y1236D01*
X1400Y1236D01*
X1400Y1224D01*
X1674Y1224D01*
X1674Y1222D01*
X1676Y1222D01*
X1676Y1208D01*
X1696Y1208D01*
X1696Y1210D01*
X1698Y1210D01*
X1698Y1212D01*
X1700Y1212D01*
X1700Y1214D01*
X1702Y1214D01*
X1702Y1216D01*
X1706Y1216D01*
X1706Y1254D01*
X1472Y1254D01*
X1472Y1256D01*
X1468Y1256D01*
X1468Y1258D01*
X1464Y1258D01*
X1464Y1260D01*
X1462Y1260D01*
X1462Y1262D01*
X1460Y1262D01*
X1460Y1266D01*
X1458Y1266D01*
X1458Y1272D01*
X1456Y1272D01*
X1456Y1352D01*
X1438Y1352D01*
X1438Y1354D01*
X1418Y1354D01*
G37*
D02*
G36*
X1400Y1224D02*
X1400Y1216D01*
X1402Y1216D01*
X1402Y1214D01*
X1406Y1214D01*
X1406Y1212D01*
X1408Y1212D01*
X1408Y1210D01*
X1410Y1210D01*
X1410Y1208D01*
X1412Y1208D01*
X1412Y1206D01*
X1414Y1206D01*
X1414Y1204D01*
X1416Y1204D01*
X1416Y1200D01*
X1418Y1200D01*
X1418Y1198D01*
X1420Y1198D01*
X1420Y1194D01*
X1422Y1194D01*
X1422Y1188D01*
X1424Y1188D01*
X1424Y1180D01*
X1426Y1180D01*
X1426Y1172D01*
X1424Y1172D01*
X1424Y1164D01*
X1422Y1164D01*
X1422Y1158D01*
X1420Y1158D01*
X1420Y1154D01*
X1418Y1154D01*
X1418Y1152D01*
X1416Y1152D01*
X1416Y1148D01*
X1414Y1148D01*
X1414Y1146D01*
X1412Y1146D01*
X1412Y1144D01*
X1410Y1144D01*
X1410Y1142D01*
X1408Y1142D01*
X1408Y1140D01*
X1406Y1140D01*
X1406Y1138D01*
X1402Y1138D01*
X1402Y1136D01*
X1400Y1136D01*
X1400Y1128D01*
X1580Y1128D01*
X1580Y1224D01*
X1400Y1224D01*
G37*
D02*
G36*
X1768Y1154D02*
X1768Y1152D01*
X1766Y1152D01*
X1766Y1148D01*
X1764Y1148D01*
X1764Y1146D01*
X1762Y1146D01*
X1762Y1144D01*
X1760Y1144D01*
X1760Y1142D01*
X1758Y1142D01*
X1758Y1140D01*
X1756Y1140D01*
X1756Y1138D01*
X1752Y1138D01*
X1752Y1136D01*
X1750Y1136D01*
X1750Y1134D01*
X1746Y1134D01*
X1746Y1132D01*
X1742Y1132D01*
X1742Y1130D01*
X1734Y1130D01*
X1734Y1128D01*
X1822Y1128D01*
X1822Y1130D01*
X1814Y1130D01*
X1814Y1132D01*
X1810Y1132D01*
X1810Y1134D01*
X1806Y1134D01*
X1806Y1136D01*
X1802Y1136D01*
X1802Y1138D01*
X1800Y1138D01*
X1800Y1140D01*
X1798Y1140D01*
X1798Y1142D01*
X1796Y1142D01*
X1796Y1144D01*
X1794Y1144D01*
X1794Y1146D01*
X1792Y1146D01*
X1792Y1148D01*
X1790Y1148D01*
X1790Y1150D01*
X1788Y1150D01*
X1788Y1154D01*
X1768Y1154D01*
G37*
D02*
G36*
X1868Y1154D02*
X1868Y1152D01*
X1866Y1152D01*
X1866Y1148D01*
X1864Y1148D01*
X1864Y1146D01*
X1862Y1146D01*
X1862Y1144D01*
X1860Y1144D01*
X1860Y1142D01*
X1858Y1142D01*
X1858Y1140D01*
X1856Y1140D01*
X1856Y1138D01*
X1852Y1138D01*
X1852Y1136D01*
X1850Y1136D01*
X1850Y1134D01*
X1846Y1134D01*
X1846Y1132D01*
X1842Y1132D01*
X1842Y1130D01*
X1834Y1130D01*
X1834Y1128D01*
X1922Y1128D01*
X1922Y1130D01*
X1914Y1130D01*
X1914Y1132D01*
X1910Y1132D01*
X1910Y1134D01*
X1906Y1134D01*
X1906Y1136D01*
X1902Y1136D01*
X1902Y1138D01*
X1900Y1138D01*
X1900Y1140D01*
X1898Y1140D01*
X1898Y1142D01*
X1896Y1142D01*
X1896Y1144D01*
X1894Y1144D01*
X1894Y1146D01*
X1892Y1146D01*
X1892Y1148D01*
X1890Y1148D01*
X1890Y1150D01*
X1888Y1150D01*
X1888Y1154D01*
X1868Y1154D01*
G37*
D02*
G36*
X1968Y1154D02*
X1968Y1152D01*
X1966Y1152D01*
X1966Y1148D01*
X1964Y1148D01*
X1964Y1146D01*
X1962Y1146D01*
X1962Y1144D01*
X1960Y1144D01*
X1960Y1142D01*
X1958Y1142D01*
X1958Y1140D01*
X1956Y1140D01*
X1956Y1138D01*
X1952Y1138D01*
X1952Y1136D01*
X1950Y1136D01*
X1950Y1134D01*
X1946Y1134D01*
X1946Y1132D01*
X1942Y1132D01*
X1942Y1130D01*
X1934Y1130D01*
X1934Y1128D01*
X2022Y1128D01*
X2022Y1130D01*
X2014Y1130D01*
X2014Y1132D01*
X2010Y1132D01*
X2010Y1134D01*
X2006Y1134D01*
X2006Y1136D01*
X2002Y1136D01*
X2002Y1138D01*
X2000Y1138D01*
X2000Y1140D01*
X1998Y1140D01*
X1998Y1142D01*
X1996Y1142D01*
X1996Y1144D01*
X1994Y1144D01*
X1994Y1146D01*
X1992Y1146D01*
X1992Y1148D01*
X1990Y1148D01*
X1990Y1150D01*
X1988Y1150D01*
X1988Y1154D01*
X1968Y1154D01*
G37*
D02*
G36*
X2068Y1154D02*
X2068Y1152D01*
X2066Y1152D01*
X2066Y1148D01*
X2064Y1148D01*
X2064Y1146D01*
X2062Y1146D01*
X2062Y1144D01*
X2060Y1144D01*
X2060Y1142D01*
X2058Y1142D01*
X2058Y1140D01*
X2056Y1140D01*
X2056Y1138D01*
X2052Y1138D01*
X2052Y1136D01*
X2050Y1136D01*
X2050Y1134D01*
X2046Y1134D01*
X2046Y1132D01*
X2042Y1132D01*
X2042Y1130D01*
X2034Y1130D01*
X2034Y1128D01*
X2122Y1128D01*
X2122Y1130D01*
X2114Y1130D01*
X2114Y1132D01*
X2110Y1132D01*
X2110Y1134D01*
X2106Y1134D01*
X2106Y1136D01*
X2102Y1136D01*
X2102Y1138D01*
X2100Y1138D01*
X2100Y1140D01*
X2098Y1140D01*
X2098Y1142D01*
X2096Y1142D01*
X2096Y1144D01*
X2094Y1144D01*
X2094Y1146D01*
X2092Y1146D01*
X2092Y1148D01*
X2090Y1148D01*
X2090Y1150D01*
X2088Y1150D01*
X2088Y1154D01*
X2068Y1154D01*
G37*
D02*
G36*
X2168Y1154D02*
X2168Y1152D01*
X2166Y1152D01*
X2166Y1148D01*
X2164Y1148D01*
X2164Y1146D01*
X2162Y1146D01*
X2162Y1144D01*
X2160Y1144D01*
X2160Y1142D01*
X2158Y1142D01*
X2158Y1140D01*
X2156Y1140D01*
X2156Y1138D01*
X2152Y1138D01*
X2152Y1136D01*
X2150Y1136D01*
X2150Y1134D01*
X2146Y1134D01*
X2146Y1132D01*
X2142Y1132D01*
X2142Y1130D01*
X2134Y1130D01*
X2134Y1128D01*
X2222Y1128D01*
X2222Y1130D01*
X2214Y1130D01*
X2214Y1132D01*
X2210Y1132D01*
X2210Y1134D01*
X2206Y1134D01*
X2206Y1136D01*
X2202Y1136D01*
X2202Y1138D01*
X2200Y1138D01*
X2200Y1140D01*
X2198Y1140D01*
X2198Y1142D01*
X2196Y1142D01*
X2196Y1144D01*
X2194Y1144D01*
X2194Y1146D01*
X2192Y1146D01*
X2192Y1148D01*
X2190Y1148D01*
X2190Y1150D01*
X2188Y1150D01*
X2188Y1154D01*
X2168Y1154D01*
G37*
D02*
G36*
X2268Y1154D02*
X2268Y1152D01*
X2266Y1152D01*
X2266Y1148D01*
X2264Y1148D01*
X2264Y1146D01*
X2262Y1146D01*
X2262Y1144D01*
X2260Y1144D01*
X2260Y1142D01*
X2258Y1142D01*
X2258Y1140D01*
X2256Y1140D01*
X2256Y1138D01*
X2252Y1138D01*
X2252Y1136D01*
X2250Y1136D01*
X2250Y1134D01*
X2246Y1134D01*
X2246Y1132D01*
X2242Y1132D01*
X2242Y1130D01*
X2234Y1130D01*
X2234Y1128D01*
X2306Y1128D01*
X2306Y1136D01*
X2302Y1136D01*
X2302Y1138D01*
X2300Y1138D01*
X2300Y1140D01*
X2298Y1140D01*
X2298Y1142D01*
X2296Y1142D01*
X2296Y1144D01*
X2294Y1144D01*
X2294Y1146D01*
X2292Y1146D01*
X2292Y1148D01*
X2290Y1148D01*
X2290Y1150D01*
X2288Y1150D01*
X2288Y1154D01*
X2268Y1154D01*
G37*
D02*
G36*
X1676Y1144D02*
X1676Y1130D01*
X1674Y1130D01*
X1674Y1128D01*
X1722Y1128D01*
X1722Y1130D01*
X1714Y1130D01*
X1714Y1132D01*
X1710Y1132D01*
X1710Y1134D01*
X1706Y1134D01*
X1706Y1136D01*
X1702Y1136D01*
X1702Y1138D01*
X1700Y1138D01*
X1700Y1140D01*
X1698Y1140D01*
X1698Y1142D01*
X1696Y1142D01*
X1696Y1144D01*
X1676Y1144D01*
G37*
D02*
G36*
X1400Y1128D02*
X1400Y1126D01*
X2306Y1126D01*
X2306Y1128D01*
X1400Y1128D01*
G37*
D02*
G36*
X1400Y1128D02*
X1400Y1126D01*
X2306Y1126D01*
X2306Y1128D01*
X1400Y1128D01*
G37*
D02*
G36*
X1400Y1128D02*
X1400Y1126D01*
X2306Y1126D01*
X2306Y1128D01*
X1400Y1128D01*
G37*
D02*
G36*
X1400Y1128D02*
X1400Y1126D01*
X2306Y1126D01*
X2306Y1128D01*
X1400Y1128D01*
G37*
D02*
G36*
X1400Y1128D02*
X1400Y1126D01*
X2306Y1126D01*
X2306Y1128D01*
X1400Y1128D01*
G37*
D02*
G36*
X1400Y1128D02*
X1400Y1126D01*
X2306Y1126D01*
X2306Y1128D01*
X1400Y1128D01*
G37*
D02*
G36*
X1400Y1128D02*
X1400Y1126D01*
X2306Y1126D01*
X2306Y1128D01*
X1400Y1128D01*
G37*
D02*
G36*
X1400Y1128D02*
X1400Y1126D01*
X2306Y1126D01*
X2306Y1128D01*
X1400Y1128D01*
G37*
D02*
G36*
X1400Y1126D02*
X1400Y1116D01*
X1402Y1116D01*
X1402Y1114D01*
X1406Y1114D01*
X1406Y1112D01*
X1408Y1112D01*
X1408Y1110D01*
X1410Y1110D01*
X1410Y1108D01*
X1412Y1108D01*
X1412Y1106D01*
X1414Y1106D01*
X1414Y1104D01*
X1682Y1104D01*
X1682Y1102D01*
X1688Y1102D01*
X1688Y1100D01*
X1692Y1100D01*
X1692Y1098D01*
X1694Y1098D01*
X1694Y1096D01*
X1698Y1096D01*
X1698Y1094D01*
X1700Y1094D01*
X1700Y1090D01*
X1702Y1090D01*
X1702Y1088D01*
X1704Y1088D01*
X1704Y1084D01*
X1706Y1084D01*
X1706Y1078D01*
X1708Y1078D01*
X1708Y1070D01*
X1706Y1070D01*
X1706Y1064D01*
X1704Y1064D01*
X1704Y1060D01*
X1702Y1060D01*
X1702Y1058D01*
X1700Y1058D01*
X1700Y1054D01*
X1698Y1054D01*
X1698Y1052D01*
X1694Y1052D01*
X1694Y1050D01*
X1692Y1050D01*
X1692Y1048D01*
X1688Y1048D01*
X1688Y1046D01*
X1684Y1046D01*
X1684Y1044D01*
X2306Y1044D01*
X2306Y1126D01*
X1400Y1126D01*
G37*
D02*
G36*
X1416Y1104D02*
X1416Y1100D01*
X1418Y1100D01*
X1418Y1098D01*
X1420Y1098D01*
X1420Y1094D01*
X1422Y1094D01*
X1422Y1088D01*
X1424Y1088D01*
X1424Y1080D01*
X1426Y1080D01*
X1426Y1072D01*
X1424Y1072D01*
X1424Y1064D01*
X1422Y1064D01*
X1422Y1058D01*
X1420Y1058D01*
X1420Y1054D01*
X1418Y1054D01*
X1418Y1052D01*
X1416Y1052D01*
X1416Y1048D01*
X1414Y1048D01*
X1414Y1046D01*
X1412Y1046D01*
X1412Y1044D01*
X1524Y1044D01*
X1524Y1046D01*
X1518Y1046D01*
X1518Y1048D01*
X1516Y1048D01*
X1516Y1050D01*
X1512Y1050D01*
X1512Y1052D01*
X1510Y1052D01*
X1510Y1054D01*
X1508Y1054D01*
X1508Y1056D01*
X1506Y1056D01*
X1506Y1058D01*
X1504Y1058D01*
X1504Y1062D01*
X1502Y1062D01*
X1502Y1066D01*
X1500Y1066D01*
X1500Y1082D01*
X1502Y1082D01*
X1502Y1086D01*
X1504Y1086D01*
X1504Y1088D01*
X1506Y1088D01*
X1506Y1092D01*
X1508Y1092D01*
X1508Y1094D01*
X1510Y1094D01*
X1510Y1096D01*
X1512Y1096D01*
X1512Y1098D01*
X1516Y1098D01*
X1516Y1100D01*
X1518Y1100D01*
X1518Y1102D01*
X1524Y1102D01*
X1524Y1104D01*
X1416Y1104D01*
G37*
D02*
G36*
X1534Y1104D02*
X1534Y1102D01*
X1540Y1102D01*
X1540Y1100D01*
X1544Y1100D01*
X1544Y1098D01*
X1546Y1098D01*
X1546Y1096D01*
X1660Y1096D01*
X1660Y1098D01*
X1664Y1098D01*
X1664Y1100D01*
X1668Y1100D01*
X1668Y1102D01*
X1672Y1102D01*
X1672Y1104D01*
X1534Y1104D01*
G37*
D02*
G36*
X1546Y1052D02*
X1546Y1050D01*
X1544Y1050D01*
X1544Y1048D01*
X1540Y1048D01*
X1540Y1046D01*
X1536Y1046D01*
X1536Y1044D01*
X1672Y1044D01*
X1672Y1046D01*
X1668Y1046D01*
X1668Y1048D01*
X1664Y1048D01*
X1664Y1050D01*
X1660Y1050D01*
X1660Y1052D01*
X1546Y1052D01*
G37*
D02*
G36*
X1410Y1044D02*
X1410Y1042D01*
X2306Y1042D01*
X2306Y1044D01*
X1410Y1044D01*
G37*
D02*
G36*
X1410Y1044D02*
X1410Y1042D01*
X2306Y1042D01*
X2306Y1044D01*
X1410Y1044D01*
G37*
D02*
G36*
X1410Y1044D02*
X1410Y1042D01*
X2306Y1042D01*
X2306Y1044D01*
X1410Y1044D01*
G37*
D02*
G36*
X1408Y1042D02*
X1408Y1040D01*
X1406Y1040D01*
X1406Y1038D01*
X1402Y1038D01*
X1402Y1036D01*
X1400Y1036D01*
X1400Y1016D01*
X1402Y1016D01*
X1402Y1014D01*
X1406Y1014D01*
X1406Y1012D01*
X1408Y1012D01*
X1408Y1010D01*
X1410Y1010D01*
X1410Y1008D01*
X1412Y1008D01*
X1412Y1006D01*
X1414Y1006D01*
X1414Y1004D01*
X1416Y1004D01*
X1416Y1000D01*
X1418Y1000D01*
X1418Y998D01*
X1420Y998D01*
X1420Y994D01*
X1422Y994D01*
X1422Y988D01*
X1424Y988D01*
X1424Y980D01*
X1426Y980D01*
X1426Y972D01*
X1424Y972D01*
X1424Y964D01*
X1422Y964D01*
X1422Y958D01*
X1420Y958D01*
X1420Y954D01*
X1418Y954D01*
X1418Y952D01*
X1416Y952D01*
X1416Y948D01*
X1414Y948D01*
X1414Y946D01*
X1412Y946D01*
X1412Y944D01*
X1410Y944D01*
X1410Y942D01*
X1408Y942D01*
X1408Y940D01*
X1406Y940D01*
X1406Y938D01*
X1402Y938D01*
X1402Y936D01*
X1400Y936D01*
X1400Y916D01*
X1402Y916D01*
X1402Y914D01*
X1406Y914D01*
X1406Y912D01*
X1408Y912D01*
X1408Y910D01*
X1410Y910D01*
X1410Y908D01*
X1412Y908D01*
X1412Y906D01*
X1414Y906D01*
X1414Y904D01*
X1416Y904D01*
X1416Y900D01*
X1418Y900D01*
X1418Y898D01*
X2134Y898D01*
X2134Y900D01*
X2308Y900D01*
X2308Y948D01*
X2306Y948D01*
X2306Y1042D01*
X1408Y1042D01*
G37*
D02*
G36*
X1750Y1304D02*
X1750Y1280D01*
X1752Y1280D01*
X1752Y1254D01*
X1750Y1254D01*
X1750Y1216D01*
X1752Y1216D01*
X1752Y1214D01*
X1756Y1214D01*
X1756Y1212D01*
X1758Y1212D01*
X1758Y1210D01*
X1760Y1210D01*
X1760Y1208D01*
X1762Y1208D01*
X1762Y1206D01*
X1764Y1206D01*
X1764Y1204D01*
X1766Y1204D01*
X1766Y1200D01*
X1768Y1200D01*
X1768Y1198D01*
X1788Y1198D01*
X1788Y1202D01*
X1790Y1202D01*
X1790Y1204D01*
X1792Y1204D01*
X1792Y1206D01*
X1794Y1206D01*
X1794Y1208D01*
X1796Y1208D01*
X1796Y1210D01*
X1798Y1210D01*
X1798Y1212D01*
X1800Y1212D01*
X1800Y1214D01*
X1802Y1214D01*
X1802Y1216D01*
X1806Y1216D01*
X1806Y1304D01*
X1750Y1304D01*
G37*
D02*
G36*
X2142Y856D02*
X2142Y854D01*
X1418Y854D01*
X1418Y852D01*
X1416Y852D01*
X1416Y848D01*
X1414Y848D01*
X1414Y846D01*
X1412Y846D01*
X1412Y844D01*
X1410Y844D01*
X1410Y842D01*
X1408Y842D01*
X1408Y840D01*
X1406Y840D01*
X1406Y838D01*
X1402Y838D01*
X1402Y836D01*
X1400Y836D01*
X1400Y816D01*
X1402Y816D01*
X1402Y814D01*
X1406Y814D01*
X1406Y812D01*
X1408Y812D01*
X1408Y810D01*
X1410Y810D01*
X1410Y808D01*
X1412Y808D01*
X1412Y806D01*
X1484Y806D01*
X1484Y804D01*
X1488Y804D01*
X1488Y802D01*
X1492Y802D01*
X1492Y800D01*
X2330Y800D01*
X2330Y798D01*
X2336Y798D01*
X2336Y796D01*
X2340Y796D01*
X2340Y794D01*
X2342Y794D01*
X2342Y792D01*
X2344Y792D01*
X2344Y790D01*
X2346Y790D01*
X2346Y786D01*
X2348Y786D01*
X2348Y618D01*
X2350Y618D01*
X2350Y416D01*
X2352Y416D01*
X2352Y414D01*
X2356Y414D01*
X2356Y412D01*
X2358Y412D01*
X2358Y410D01*
X2360Y410D01*
X2360Y408D01*
X2362Y408D01*
X2362Y406D01*
X2364Y406D01*
X2364Y404D01*
X2366Y404D01*
X2366Y400D01*
X2368Y400D01*
X2368Y398D01*
X2388Y398D01*
X2388Y402D01*
X2390Y402D01*
X2390Y404D01*
X2392Y404D01*
X2392Y406D01*
X2394Y406D01*
X2394Y408D01*
X2396Y408D01*
X2396Y410D01*
X2398Y410D01*
X2398Y412D01*
X2400Y412D01*
X2400Y414D01*
X2402Y414D01*
X2402Y416D01*
X2406Y416D01*
X2406Y856D01*
X2142Y856D01*
G37*
D02*
G36*
X1414Y806D02*
X1414Y804D01*
X1416Y804D01*
X1416Y800D01*
X1418Y800D01*
X1418Y798D01*
X1420Y798D01*
X1420Y794D01*
X1422Y794D01*
X1422Y788D01*
X1424Y788D01*
X1424Y780D01*
X1426Y780D01*
X1426Y772D01*
X1424Y772D01*
X1424Y764D01*
X1422Y764D01*
X1422Y758D01*
X1420Y758D01*
X1420Y754D01*
X1418Y754D01*
X1418Y752D01*
X1416Y752D01*
X1416Y748D01*
X1414Y748D01*
X1414Y746D01*
X1472Y746D01*
X1472Y748D01*
X1466Y748D01*
X1466Y750D01*
X1464Y750D01*
X1464Y752D01*
X1460Y752D01*
X1460Y754D01*
X1458Y754D01*
X1458Y756D01*
X1456Y756D01*
X1456Y758D01*
X1454Y758D01*
X1454Y762D01*
X1452Y762D01*
X1452Y764D01*
X1450Y764D01*
X1450Y770D01*
X1448Y770D01*
X1448Y782D01*
X1450Y782D01*
X1450Y788D01*
X1452Y788D01*
X1452Y790D01*
X1454Y790D01*
X1454Y794D01*
X1456Y794D01*
X1456Y796D01*
X1458Y796D01*
X1458Y798D01*
X1460Y798D01*
X1460Y800D01*
X1464Y800D01*
X1464Y802D01*
X1466Y802D01*
X1466Y804D01*
X1472Y804D01*
X1472Y806D01*
X1414Y806D01*
G37*
D02*
G36*
X1494Y800D02*
X1494Y798D01*
X2208Y798D01*
X2208Y800D01*
X1494Y800D01*
G37*
D02*
G36*
X2216Y756D02*
X2216Y754D01*
X1494Y754D01*
X1494Y752D01*
X1492Y752D01*
X1492Y750D01*
X1488Y750D01*
X1488Y748D01*
X1482Y748D01*
X1482Y746D01*
X2304Y746D01*
X2304Y756D01*
X2216Y756D01*
G37*
D02*
G36*
X1412Y746D02*
X1412Y744D01*
X2304Y744D01*
X2304Y746D01*
X1412Y746D01*
G37*
D02*
G36*
X1412Y746D02*
X1412Y744D01*
X2304Y744D01*
X2304Y746D01*
X1412Y746D01*
G37*
D02*
G36*
X1410Y744D02*
X1410Y742D01*
X1408Y742D01*
X1408Y740D01*
X1406Y740D01*
X1406Y738D01*
X1402Y738D01*
X1402Y736D01*
X1400Y736D01*
X1400Y716D01*
X1402Y716D01*
X1402Y714D01*
X1406Y714D01*
X1406Y712D01*
X1408Y712D01*
X1408Y710D01*
X1410Y710D01*
X1410Y708D01*
X1412Y708D01*
X1412Y706D01*
X1414Y706D01*
X1414Y704D01*
X1416Y704D01*
X1416Y700D01*
X1418Y700D01*
X1418Y698D01*
X1420Y698D01*
X1420Y694D01*
X1422Y694D01*
X1422Y688D01*
X1424Y688D01*
X1424Y680D01*
X1426Y680D01*
X1426Y672D01*
X1424Y672D01*
X1424Y664D01*
X1422Y664D01*
X1422Y658D01*
X1420Y658D01*
X1420Y654D01*
X1418Y654D01*
X1418Y652D01*
X1416Y652D01*
X1416Y648D01*
X1414Y648D01*
X1414Y646D01*
X1412Y646D01*
X1412Y644D01*
X1410Y644D01*
X1410Y642D01*
X1408Y642D01*
X1408Y640D01*
X1406Y640D01*
X1406Y638D01*
X1402Y638D01*
X1402Y636D01*
X1400Y636D01*
X1400Y616D01*
X1402Y616D01*
X1402Y614D01*
X1406Y614D01*
X1406Y612D01*
X1408Y612D01*
X1408Y610D01*
X1410Y610D01*
X1410Y608D01*
X1412Y608D01*
X1412Y606D01*
X1534Y606D01*
X1534Y604D01*
X1538Y604D01*
X1538Y602D01*
X1542Y602D01*
X1542Y600D01*
X1544Y600D01*
X1544Y598D01*
X1546Y598D01*
X1546Y596D01*
X1548Y596D01*
X1548Y594D01*
X1550Y594D01*
X1550Y592D01*
X1552Y592D01*
X1552Y590D01*
X1554Y590D01*
X1554Y586D01*
X1556Y586D01*
X1556Y580D01*
X1558Y580D01*
X1558Y572D01*
X1556Y572D01*
X1556Y550D01*
X2128Y550D01*
X2128Y548D01*
X2136Y548D01*
X2136Y546D01*
X2140Y546D01*
X2140Y544D01*
X2142Y544D01*
X2142Y542D01*
X2144Y542D01*
X2144Y540D01*
X2146Y540D01*
X2146Y536D01*
X2148Y536D01*
X2148Y530D01*
X2150Y530D01*
X2150Y424D01*
X2234Y424D01*
X2234Y422D01*
X2242Y422D01*
X2242Y420D01*
X2246Y420D01*
X2246Y418D01*
X2250Y418D01*
X2250Y416D01*
X2252Y416D01*
X2252Y414D01*
X2256Y414D01*
X2256Y412D01*
X2258Y412D01*
X2258Y410D01*
X2260Y410D01*
X2260Y408D01*
X2262Y408D01*
X2262Y406D01*
X2264Y406D01*
X2264Y404D01*
X2266Y404D01*
X2266Y400D01*
X2268Y400D01*
X2268Y398D01*
X2288Y398D01*
X2288Y402D01*
X2290Y402D01*
X2290Y404D01*
X2292Y404D01*
X2292Y406D01*
X2294Y406D01*
X2294Y408D01*
X2296Y408D01*
X2296Y410D01*
X2298Y410D01*
X2298Y412D01*
X2300Y412D01*
X2300Y414D01*
X2302Y414D01*
X2302Y416D01*
X2306Y416D01*
X2306Y614D01*
X2304Y614D01*
X2304Y744D01*
X1410Y744D01*
G37*
D02*
G36*
X1414Y606D02*
X1414Y604D01*
X1416Y604D01*
X1416Y600D01*
X1418Y600D01*
X1418Y598D01*
X1510Y598D01*
X1510Y600D01*
X1514Y600D01*
X1514Y602D01*
X1516Y602D01*
X1516Y604D01*
X1522Y604D01*
X1522Y606D01*
X1414Y606D01*
G37*
D02*
G36*
X2150Y424D02*
X2150Y416D01*
X2152Y416D01*
X2152Y414D01*
X2156Y414D01*
X2156Y412D01*
X2158Y412D01*
X2158Y410D01*
X2160Y410D01*
X2160Y408D01*
X2162Y408D01*
X2162Y406D01*
X2164Y406D01*
X2164Y404D01*
X2166Y404D01*
X2166Y400D01*
X2168Y400D01*
X2168Y398D01*
X2188Y398D01*
X2188Y402D01*
X2190Y402D01*
X2190Y404D01*
X2192Y404D01*
X2192Y406D01*
X2194Y406D01*
X2194Y408D01*
X2196Y408D01*
X2196Y410D01*
X2198Y410D01*
X2198Y412D01*
X2200Y412D01*
X2200Y414D01*
X2202Y414D01*
X2202Y416D01*
X2206Y416D01*
X2206Y418D01*
X2210Y418D01*
X2210Y420D01*
X2214Y420D01*
X2214Y422D01*
X2222Y422D01*
X2222Y424D01*
X2150Y424D01*
G37*
D02*
G36*
X160Y654D02*
X160Y652D01*
X148Y652D01*
X148Y328D01*
X222Y328D01*
X222Y330D01*
X214Y330D01*
X214Y332D01*
X210Y332D01*
X210Y334D01*
X206Y334D01*
X206Y336D01*
X202Y336D01*
X202Y338D01*
X200Y338D01*
X200Y340D01*
X198Y340D01*
X198Y342D01*
X196Y342D01*
X196Y344D01*
X194Y344D01*
X194Y346D01*
X192Y346D01*
X192Y348D01*
X190Y348D01*
X190Y350D01*
X188Y350D01*
X188Y354D01*
X186Y354D01*
X186Y358D01*
X184Y358D01*
X184Y362D01*
X182Y362D01*
X182Y368D01*
X180Y368D01*
X180Y384D01*
X182Y384D01*
X182Y390D01*
X184Y390D01*
X184Y394D01*
X186Y394D01*
X186Y398D01*
X188Y398D01*
X188Y402D01*
X190Y402D01*
X190Y404D01*
X192Y404D01*
X192Y406D01*
X194Y406D01*
X194Y408D01*
X196Y408D01*
X196Y410D01*
X198Y410D01*
X198Y412D01*
X200Y412D01*
X200Y414D01*
X202Y414D01*
X202Y416D01*
X206Y416D01*
X206Y436D01*
X202Y436D01*
X202Y438D01*
X200Y438D01*
X200Y440D01*
X198Y440D01*
X198Y442D01*
X196Y442D01*
X196Y444D01*
X194Y444D01*
X194Y446D01*
X192Y446D01*
X192Y448D01*
X190Y448D01*
X190Y450D01*
X188Y450D01*
X188Y454D01*
X186Y454D01*
X186Y458D01*
X184Y458D01*
X184Y462D01*
X182Y462D01*
X182Y468D01*
X180Y468D01*
X180Y484D01*
X182Y484D01*
X182Y490D01*
X184Y490D01*
X184Y494D01*
X186Y494D01*
X186Y498D01*
X188Y498D01*
X188Y502D01*
X190Y502D01*
X190Y504D01*
X192Y504D01*
X192Y506D01*
X194Y506D01*
X194Y508D01*
X196Y508D01*
X196Y510D01*
X198Y510D01*
X198Y512D01*
X200Y512D01*
X200Y514D01*
X202Y514D01*
X202Y516D01*
X206Y516D01*
X206Y536D01*
X202Y536D01*
X202Y538D01*
X200Y538D01*
X200Y540D01*
X198Y540D01*
X198Y542D01*
X196Y542D01*
X196Y544D01*
X194Y544D01*
X194Y546D01*
X192Y546D01*
X192Y548D01*
X190Y548D01*
X190Y550D01*
X188Y550D01*
X188Y554D01*
X186Y554D01*
X186Y558D01*
X184Y558D01*
X184Y562D01*
X182Y562D01*
X182Y568D01*
X180Y568D01*
X180Y584D01*
X182Y584D01*
X182Y590D01*
X184Y590D01*
X184Y594D01*
X186Y594D01*
X186Y598D01*
X188Y598D01*
X188Y602D01*
X190Y602D01*
X190Y604D01*
X192Y604D01*
X192Y606D01*
X194Y606D01*
X194Y608D01*
X196Y608D01*
X196Y610D01*
X198Y610D01*
X198Y612D01*
X200Y612D01*
X200Y614D01*
X202Y614D01*
X202Y616D01*
X206Y616D01*
X206Y636D01*
X202Y636D01*
X202Y638D01*
X200Y638D01*
X200Y640D01*
X198Y640D01*
X198Y642D01*
X196Y642D01*
X196Y644D01*
X194Y644D01*
X194Y646D01*
X192Y646D01*
X192Y648D01*
X190Y648D01*
X190Y650D01*
X188Y650D01*
X188Y654D01*
X160Y654D01*
G37*
D02*
G36*
X268Y454D02*
X268Y452D01*
X266Y452D01*
X266Y448D01*
X264Y448D01*
X264Y446D01*
X262Y446D01*
X262Y444D01*
X260Y444D01*
X260Y442D01*
X258Y442D01*
X258Y440D01*
X256Y440D01*
X256Y438D01*
X252Y438D01*
X252Y436D01*
X250Y436D01*
X250Y416D01*
X252Y416D01*
X252Y414D01*
X256Y414D01*
X256Y412D01*
X258Y412D01*
X258Y410D01*
X260Y410D01*
X260Y408D01*
X262Y408D01*
X262Y406D01*
X264Y406D01*
X264Y404D01*
X266Y404D01*
X266Y400D01*
X268Y400D01*
X268Y398D01*
X270Y398D01*
X270Y394D01*
X272Y394D01*
X272Y388D01*
X274Y388D01*
X274Y380D01*
X276Y380D01*
X276Y372D01*
X274Y372D01*
X274Y364D01*
X272Y364D01*
X272Y358D01*
X270Y358D01*
X270Y354D01*
X268Y354D01*
X268Y352D01*
X266Y352D01*
X266Y348D01*
X264Y348D01*
X264Y346D01*
X262Y346D01*
X262Y344D01*
X260Y344D01*
X260Y342D01*
X258Y342D01*
X258Y340D01*
X256Y340D01*
X256Y338D01*
X252Y338D01*
X252Y336D01*
X250Y336D01*
X250Y334D01*
X246Y334D01*
X246Y332D01*
X242Y332D01*
X242Y330D01*
X234Y330D01*
X234Y328D01*
X356Y328D01*
X356Y330D01*
X354Y330D01*
X354Y454D01*
X268Y454D01*
G37*
D02*
G36*
X148Y328D02*
X148Y326D01*
X356Y326D01*
X356Y328D01*
X148Y328D01*
G37*
D02*
G36*
X148Y328D02*
X148Y326D01*
X356Y326D01*
X356Y328D01*
X148Y328D01*
G37*
D02*
G36*
X148Y326D02*
X148Y226D01*
X290Y226D01*
X290Y224D01*
X296Y224D01*
X296Y222D01*
X300Y222D01*
X300Y220D01*
X302Y220D01*
X302Y218D01*
X306Y218D01*
X306Y216D01*
X326Y216D01*
X326Y226D01*
X328Y226D01*
X328Y228D01*
X356Y228D01*
X356Y326D01*
X148Y326D01*
G37*
D02*
G36*
X190Y226D02*
X190Y224D01*
X196Y224D01*
X196Y222D01*
X200Y222D01*
X200Y220D01*
X202Y220D01*
X202Y218D01*
X206Y218D01*
X206Y216D01*
X208Y216D01*
X208Y214D01*
X210Y214D01*
X210Y212D01*
X212Y212D01*
X212Y210D01*
X214Y210D01*
X214Y208D01*
X216Y208D01*
X216Y206D01*
X218Y206D01*
X218Y204D01*
X238Y204D01*
X238Y208D01*
X240Y208D01*
X240Y210D01*
X242Y210D01*
X242Y212D01*
X244Y212D01*
X244Y214D01*
X248Y214D01*
X248Y216D01*
X250Y216D01*
X250Y218D01*
X252Y218D01*
X252Y220D01*
X256Y220D01*
X256Y222D01*
X260Y222D01*
X260Y224D01*
X266Y224D01*
X266Y226D01*
X190Y226D01*
G37*
D02*
G36*
X1010Y578D02*
X1010Y576D01*
X1008Y576D01*
X1008Y574D01*
X1006Y574D01*
X1006Y572D01*
X1004Y572D01*
X1004Y570D01*
X1002Y570D01*
X1002Y568D01*
X1000Y568D01*
X1000Y566D01*
X998Y566D01*
X998Y564D01*
X996Y564D01*
X996Y562D01*
X994Y562D01*
X994Y560D01*
X992Y560D01*
X992Y558D01*
X990Y558D01*
X990Y556D01*
X988Y556D01*
X988Y554D01*
X986Y554D01*
X986Y552D01*
X984Y552D01*
X984Y550D01*
X982Y550D01*
X982Y548D01*
X980Y548D01*
X980Y546D01*
X978Y546D01*
X978Y544D01*
X976Y544D01*
X976Y542D01*
X974Y542D01*
X974Y540D01*
X972Y540D01*
X972Y538D01*
X970Y538D01*
X970Y536D01*
X968Y536D01*
X968Y534D01*
X966Y534D01*
X966Y532D01*
X964Y532D01*
X964Y530D01*
X962Y530D01*
X962Y528D01*
X960Y528D01*
X960Y526D01*
X958Y526D01*
X958Y524D01*
X956Y524D01*
X956Y522D01*
X954Y522D01*
X954Y520D01*
X952Y520D01*
X952Y518D01*
X950Y518D01*
X950Y500D01*
X970Y500D01*
X970Y502D01*
X972Y502D01*
X972Y504D01*
X974Y504D01*
X974Y506D01*
X976Y506D01*
X976Y508D01*
X978Y508D01*
X978Y510D01*
X980Y510D01*
X980Y512D01*
X982Y512D01*
X982Y514D01*
X986Y514D01*
X986Y516D01*
X988Y516D01*
X988Y518D01*
X990Y518D01*
X990Y520D01*
X992Y520D01*
X992Y522D01*
X994Y522D01*
X994Y524D01*
X996Y524D01*
X996Y526D01*
X998Y526D01*
X998Y528D01*
X1000Y528D01*
X1000Y530D01*
X1002Y530D01*
X1002Y532D01*
X1004Y532D01*
X1004Y534D01*
X1006Y534D01*
X1006Y536D01*
X1008Y536D01*
X1008Y538D01*
X1010Y538D01*
X1010Y540D01*
X1012Y540D01*
X1012Y542D01*
X1014Y542D01*
X1014Y544D01*
X1016Y544D01*
X1016Y546D01*
X1018Y546D01*
X1018Y548D01*
X1020Y548D01*
X1020Y550D01*
X1022Y550D01*
X1022Y552D01*
X1024Y552D01*
X1024Y554D01*
X1026Y554D01*
X1026Y556D01*
X1028Y556D01*
X1028Y558D01*
X1030Y558D01*
X1030Y578D01*
X1010Y578D01*
G37*
D02*
G36*
X1418Y554D02*
X1418Y552D01*
X1416Y552D01*
X1416Y548D01*
X1414Y548D01*
X1414Y546D01*
X1412Y546D01*
X1412Y544D01*
X1410Y544D01*
X1410Y542D01*
X1408Y542D01*
X1408Y540D01*
X1406Y540D01*
X1406Y538D01*
X1402Y538D01*
X1402Y536D01*
X1400Y536D01*
X1400Y516D01*
X1402Y516D01*
X1402Y514D01*
X1406Y514D01*
X1406Y512D01*
X1408Y512D01*
X1408Y510D01*
X1410Y510D01*
X1410Y508D01*
X1412Y508D01*
X1412Y506D01*
X1414Y506D01*
X1414Y504D01*
X1416Y504D01*
X1416Y500D01*
X1418Y500D01*
X1418Y498D01*
X1420Y498D01*
X1420Y494D01*
X1422Y494D01*
X1422Y488D01*
X1424Y488D01*
X1424Y480D01*
X1426Y480D01*
X1426Y472D01*
X1424Y472D01*
X1424Y464D01*
X1422Y464D01*
X1422Y458D01*
X1420Y458D01*
X1420Y454D01*
X1418Y454D01*
X1418Y452D01*
X1416Y452D01*
X1416Y448D01*
X1414Y448D01*
X1414Y446D01*
X1412Y446D01*
X1412Y444D01*
X1410Y444D01*
X1410Y442D01*
X1408Y442D01*
X1408Y440D01*
X1406Y440D01*
X1406Y438D01*
X1402Y438D01*
X1402Y436D01*
X1400Y436D01*
X1400Y416D01*
X1402Y416D01*
X1402Y414D01*
X1406Y414D01*
X1406Y412D01*
X1408Y412D01*
X1408Y410D01*
X1410Y410D01*
X1410Y408D01*
X1412Y408D01*
X1412Y406D01*
X1414Y406D01*
X1414Y404D01*
X1416Y404D01*
X1416Y400D01*
X1418Y400D01*
X1418Y398D01*
X1456Y398D01*
X1456Y532D01*
X1458Y532D01*
X1458Y554D01*
X1418Y554D01*
G37*
D02*
G36*
X1704Y506D02*
X1704Y486D01*
X1706Y486D01*
X1706Y480D01*
X1708Y480D01*
X1708Y472D01*
X1706Y472D01*
X1706Y466D01*
X1704Y466D01*
X1704Y462D01*
X1702Y462D01*
X1702Y460D01*
X1700Y460D01*
X1700Y458D01*
X1698Y458D01*
X1698Y456D01*
X1696Y456D01*
X1696Y454D01*
X1694Y454D01*
X1694Y452D01*
X1692Y452D01*
X1692Y450D01*
X1688Y450D01*
X1688Y448D01*
X1682Y448D01*
X1682Y446D01*
X2106Y446D01*
X2106Y506D01*
X1704Y506D01*
G37*
D02*
G36*
X1552Y454D02*
X1552Y446D01*
X1672Y446D01*
X1672Y448D01*
X1666Y448D01*
X1666Y450D01*
X1664Y450D01*
X1664Y452D01*
X1660Y452D01*
X1660Y454D01*
X1552Y454D01*
G37*
D02*
G36*
X1552Y446D02*
X1552Y444D01*
X2106Y444D01*
X2106Y446D01*
X1552Y446D01*
G37*
D02*
G36*
X1552Y446D02*
X1552Y444D01*
X2106Y444D01*
X2106Y446D01*
X1552Y446D01*
G37*
D02*
G36*
X1552Y444D02*
X1552Y424D01*
X2034Y424D01*
X2034Y422D01*
X2042Y422D01*
X2042Y420D01*
X2046Y420D01*
X2046Y418D01*
X2050Y418D01*
X2050Y416D01*
X2052Y416D01*
X2052Y414D01*
X2056Y414D01*
X2056Y412D01*
X2058Y412D01*
X2058Y410D01*
X2060Y410D01*
X2060Y408D01*
X2062Y408D01*
X2062Y406D01*
X2064Y406D01*
X2064Y404D01*
X2066Y404D01*
X2066Y400D01*
X2068Y400D01*
X2068Y398D01*
X2088Y398D01*
X2088Y402D01*
X2090Y402D01*
X2090Y404D01*
X2092Y404D01*
X2092Y406D01*
X2094Y406D01*
X2094Y408D01*
X2096Y408D01*
X2096Y410D01*
X2098Y410D01*
X2098Y412D01*
X2100Y412D01*
X2100Y414D01*
X2102Y414D01*
X2102Y416D01*
X2106Y416D01*
X2106Y444D01*
X1552Y444D01*
G37*
D02*
G36*
X1552Y424D02*
X1552Y328D01*
X1622Y328D01*
X1622Y330D01*
X1614Y330D01*
X1614Y332D01*
X1610Y332D01*
X1610Y334D01*
X1606Y334D01*
X1606Y336D01*
X1602Y336D01*
X1602Y338D01*
X1600Y338D01*
X1600Y340D01*
X1598Y340D01*
X1598Y342D01*
X1596Y342D01*
X1596Y344D01*
X1594Y344D01*
X1594Y346D01*
X1592Y346D01*
X1592Y348D01*
X1590Y348D01*
X1590Y350D01*
X1588Y350D01*
X1588Y354D01*
X1586Y354D01*
X1586Y358D01*
X1584Y358D01*
X1584Y362D01*
X1582Y362D01*
X1582Y368D01*
X1580Y368D01*
X1580Y384D01*
X1582Y384D01*
X1582Y390D01*
X1584Y390D01*
X1584Y394D01*
X1586Y394D01*
X1586Y398D01*
X1588Y398D01*
X1588Y402D01*
X1590Y402D01*
X1590Y404D01*
X1592Y404D01*
X1592Y406D01*
X1594Y406D01*
X1594Y408D01*
X1596Y408D01*
X1596Y410D01*
X1598Y410D01*
X1598Y412D01*
X1600Y412D01*
X1600Y414D01*
X1602Y414D01*
X1602Y416D01*
X1606Y416D01*
X1606Y418D01*
X1610Y418D01*
X1610Y420D01*
X1614Y420D01*
X1614Y422D01*
X1622Y422D01*
X1622Y424D01*
X1552Y424D01*
G37*
D02*
G36*
X1634Y424D02*
X1634Y422D01*
X1642Y422D01*
X1642Y420D01*
X1646Y420D01*
X1646Y418D01*
X1650Y418D01*
X1650Y416D01*
X1652Y416D01*
X1652Y414D01*
X1656Y414D01*
X1656Y412D01*
X1658Y412D01*
X1658Y410D01*
X1660Y410D01*
X1660Y408D01*
X1662Y408D01*
X1662Y406D01*
X1664Y406D01*
X1664Y404D01*
X1666Y404D01*
X1666Y400D01*
X1668Y400D01*
X1668Y398D01*
X1688Y398D01*
X1688Y402D01*
X1690Y402D01*
X1690Y404D01*
X1692Y404D01*
X1692Y406D01*
X1694Y406D01*
X1694Y408D01*
X1696Y408D01*
X1696Y410D01*
X1698Y410D01*
X1698Y412D01*
X1700Y412D01*
X1700Y414D01*
X1702Y414D01*
X1702Y416D01*
X1706Y416D01*
X1706Y418D01*
X1710Y418D01*
X1710Y420D01*
X1714Y420D01*
X1714Y422D01*
X1722Y422D01*
X1722Y424D01*
X1634Y424D01*
G37*
D02*
G36*
X1734Y424D02*
X1734Y422D01*
X1742Y422D01*
X1742Y420D01*
X1746Y420D01*
X1746Y418D01*
X1750Y418D01*
X1750Y416D01*
X1752Y416D01*
X1752Y414D01*
X1756Y414D01*
X1756Y412D01*
X1758Y412D01*
X1758Y410D01*
X1760Y410D01*
X1760Y408D01*
X1762Y408D01*
X1762Y406D01*
X1764Y406D01*
X1764Y404D01*
X1766Y404D01*
X1766Y400D01*
X1768Y400D01*
X1768Y398D01*
X1788Y398D01*
X1788Y402D01*
X1790Y402D01*
X1790Y404D01*
X1792Y404D01*
X1792Y406D01*
X1794Y406D01*
X1794Y408D01*
X1796Y408D01*
X1796Y410D01*
X1798Y410D01*
X1798Y412D01*
X1800Y412D01*
X1800Y414D01*
X1802Y414D01*
X1802Y416D01*
X1806Y416D01*
X1806Y418D01*
X1810Y418D01*
X1810Y420D01*
X1814Y420D01*
X1814Y422D01*
X1822Y422D01*
X1822Y424D01*
X1734Y424D01*
G37*
D02*
G36*
X1834Y424D02*
X1834Y422D01*
X1842Y422D01*
X1842Y420D01*
X1846Y420D01*
X1846Y418D01*
X1850Y418D01*
X1850Y416D01*
X1852Y416D01*
X1852Y414D01*
X1856Y414D01*
X1856Y412D01*
X1858Y412D01*
X1858Y410D01*
X1860Y410D01*
X1860Y408D01*
X1862Y408D01*
X1862Y406D01*
X1864Y406D01*
X1864Y404D01*
X1866Y404D01*
X1866Y400D01*
X1868Y400D01*
X1868Y398D01*
X1888Y398D01*
X1888Y402D01*
X1890Y402D01*
X1890Y404D01*
X1892Y404D01*
X1892Y406D01*
X1894Y406D01*
X1894Y408D01*
X1896Y408D01*
X1896Y410D01*
X1898Y410D01*
X1898Y412D01*
X1900Y412D01*
X1900Y414D01*
X1902Y414D01*
X1902Y416D01*
X1906Y416D01*
X1906Y418D01*
X1910Y418D01*
X1910Y420D01*
X1914Y420D01*
X1914Y422D01*
X1922Y422D01*
X1922Y424D01*
X1834Y424D01*
G37*
D02*
G36*
X1934Y424D02*
X1934Y422D01*
X1942Y422D01*
X1942Y420D01*
X1946Y420D01*
X1946Y418D01*
X1950Y418D01*
X1950Y416D01*
X1952Y416D01*
X1952Y414D01*
X1956Y414D01*
X1956Y412D01*
X1958Y412D01*
X1958Y410D01*
X1960Y410D01*
X1960Y408D01*
X1962Y408D01*
X1962Y406D01*
X1964Y406D01*
X1964Y404D01*
X1966Y404D01*
X1966Y400D01*
X1968Y400D01*
X1968Y398D01*
X1988Y398D01*
X1988Y402D01*
X1990Y402D01*
X1990Y404D01*
X1992Y404D01*
X1992Y406D01*
X1994Y406D01*
X1994Y408D01*
X1996Y408D01*
X1996Y410D01*
X1998Y410D01*
X1998Y412D01*
X2000Y412D01*
X2000Y414D01*
X2002Y414D01*
X2002Y416D01*
X2006Y416D01*
X2006Y418D01*
X2010Y418D01*
X2010Y420D01*
X2014Y420D01*
X2014Y422D01*
X2022Y422D01*
X2022Y424D01*
X1934Y424D01*
G37*
D02*
G36*
X1668Y354D02*
X1668Y352D01*
X1666Y352D01*
X1666Y348D01*
X1664Y348D01*
X1664Y346D01*
X1662Y346D01*
X1662Y344D01*
X1660Y344D01*
X1660Y342D01*
X1658Y342D01*
X1658Y340D01*
X1656Y340D01*
X1656Y338D01*
X1652Y338D01*
X1652Y336D01*
X1650Y336D01*
X1650Y334D01*
X1646Y334D01*
X1646Y332D01*
X1642Y332D01*
X1642Y330D01*
X1634Y330D01*
X1634Y328D01*
X1722Y328D01*
X1722Y330D01*
X1714Y330D01*
X1714Y332D01*
X1710Y332D01*
X1710Y334D01*
X1706Y334D01*
X1706Y336D01*
X1702Y336D01*
X1702Y338D01*
X1700Y338D01*
X1700Y340D01*
X1698Y340D01*
X1698Y342D01*
X1696Y342D01*
X1696Y344D01*
X1694Y344D01*
X1694Y346D01*
X1692Y346D01*
X1692Y348D01*
X1690Y348D01*
X1690Y350D01*
X1688Y350D01*
X1688Y354D01*
X1668Y354D01*
G37*
D02*
G36*
X1768Y354D02*
X1768Y352D01*
X1766Y352D01*
X1766Y348D01*
X1764Y348D01*
X1764Y346D01*
X1762Y346D01*
X1762Y344D01*
X1760Y344D01*
X1760Y342D01*
X1758Y342D01*
X1758Y340D01*
X1756Y340D01*
X1756Y338D01*
X1752Y338D01*
X1752Y336D01*
X1750Y336D01*
X1750Y334D01*
X1746Y334D01*
X1746Y332D01*
X1742Y332D01*
X1742Y330D01*
X1734Y330D01*
X1734Y328D01*
X1822Y328D01*
X1822Y330D01*
X1814Y330D01*
X1814Y332D01*
X1810Y332D01*
X1810Y334D01*
X1806Y334D01*
X1806Y336D01*
X1802Y336D01*
X1802Y338D01*
X1800Y338D01*
X1800Y340D01*
X1798Y340D01*
X1798Y342D01*
X1796Y342D01*
X1796Y344D01*
X1794Y344D01*
X1794Y346D01*
X1792Y346D01*
X1792Y348D01*
X1790Y348D01*
X1790Y350D01*
X1788Y350D01*
X1788Y354D01*
X1768Y354D01*
G37*
D02*
G36*
X1868Y354D02*
X1868Y352D01*
X1866Y352D01*
X1866Y348D01*
X1864Y348D01*
X1864Y346D01*
X1862Y346D01*
X1862Y344D01*
X1860Y344D01*
X1860Y342D01*
X1858Y342D01*
X1858Y340D01*
X1856Y340D01*
X1856Y338D01*
X1852Y338D01*
X1852Y336D01*
X1850Y336D01*
X1850Y334D01*
X1846Y334D01*
X1846Y332D01*
X1842Y332D01*
X1842Y330D01*
X1834Y330D01*
X1834Y328D01*
X1922Y328D01*
X1922Y330D01*
X1914Y330D01*
X1914Y332D01*
X1910Y332D01*
X1910Y334D01*
X1906Y334D01*
X1906Y336D01*
X1902Y336D01*
X1902Y338D01*
X1900Y338D01*
X1900Y340D01*
X1898Y340D01*
X1898Y342D01*
X1896Y342D01*
X1896Y344D01*
X1894Y344D01*
X1894Y346D01*
X1892Y346D01*
X1892Y348D01*
X1890Y348D01*
X1890Y350D01*
X1888Y350D01*
X1888Y354D01*
X1868Y354D01*
G37*
D02*
G36*
X1968Y354D02*
X1968Y352D01*
X1966Y352D01*
X1966Y348D01*
X1964Y348D01*
X1964Y346D01*
X1962Y346D01*
X1962Y344D01*
X1960Y344D01*
X1960Y342D01*
X1958Y342D01*
X1958Y340D01*
X1956Y340D01*
X1956Y338D01*
X1952Y338D01*
X1952Y336D01*
X1950Y336D01*
X1950Y334D01*
X1946Y334D01*
X1946Y332D01*
X1942Y332D01*
X1942Y330D01*
X1934Y330D01*
X1934Y328D01*
X2022Y328D01*
X2022Y330D01*
X2014Y330D01*
X2014Y332D01*
X2010Y332D01*
X2010Y334D01*
X2006Y334D01*
X2006Y336D01*
X2002Y336D01*
X2002Y338D01*
X2000Y338D01*
X2000Y340D01*
X1998Y340D01*
X1998Y342D01*
X1996Y342D01*
X1996Y344D01*
X1994Y344D01*
X1994Y346D01*
X1992Y346D01*
X1992Y348D01*
X1990Y348D01*
X1990Y350D01*
X1988Y350D01*
X1988Y354D01*
X1968Y354D01*
G37*
D02*
G36*
X2068Y354D02*
X2068Y352D01*
X2066Y352D01*
X2066Y348D01*
X2064Y348D01*
X2064Y346D01*
X2062Y346D01*
X2062Y344D01*
X2060Y344D01*
X2060Y342D01*
X2058Y342D01*
X2058Y340D01*
X2056Y340D01*
X2056Y338D01*
X2052Y338D01*
X2052Y336D01*
X2050Y336D01*
X2050Y334D01*
X2046Y334D01*
X2046Y332D01*
X2042Y332D01*
X2042Y330D01*
X2034Y330D01*
X2034Y328D01*
X2122Y328D01*
X2122Y330D01*
X2114Y330D01*
X2114Y332D01*
X2110Y332D01*
X2110Y334D01*
X2106Y334D01*
X2106Y336D01*
X2102Y336D01*
X2102Y338D01*
X2100Y338D01*
X2100Y340D01*
X2098Y340D01*
X2098Y342D01*
X2096Y342D01*
X2096Y344D01*
X2094Y344D01*
X2094Y346D01*
X2092Y346D01*
X2092Y348D01*
X2090Y348D01*
X2090Y350D01*
X2088Y350D01*
X2088Y354D01*
X2068Y354D01*
G37*
D02*
G36*
X2168Y354D02*
X2168Y352D01*
X2166Y352D01*
X2166Y348D01*
X2164Y348D01*
X2164Y346D01*
X2162Y346D01*
X2162Y344D01*
X2160Y344D01*
X2160Y342D01*
X2158Y342D01*
X2158Y340D01*
X2156Y340D01*
X2156Y338D01*
X2152Y338D01*
X2152Y336D01*
X2150Y336D01*
X2150Y334D01*
X2146Y334D01*
X2146Y332D01*
X2142Y332D01*
X2142Y330D01*
X2134Y330D01*
X2134Y328D01*
X2222Y328D01*
X2222Y330D01*
X2214Y330D01*
X2214Y332D01*
X2210Y332D01*
X2210Y334D01*
X2206Y334D01*
X2206Y336D01*
X2202Y336D01*
X2202Y338D01*
X2200Y338D01*
X2200Y340D01*
X2198Y340D01*
X2198Y342D01*
X2196Y342D01*
X2196Y344D01*
X2194Y344D01*
X2194Y346D01*
X2192Y346D01*
X2192Y348D01*
X2190Y348D01*
X2190Y350D01*
X2188Y350D01*
X2188Y354D01*
X2168Y354D01*
G37*
D02*
G36*
X2268Y354D02*
X2268Y352D01*
X2266Y352D01*
X2266Y348D01*
X2264Y348D01*
X2264Y346D01*
X2262Y346D01*
X2262Y344D01*
X2260Y344D01*
X2260Y342D01*
X2258Y342D01*
X2258Y340D01*
X2256Y340D01*
X2256Y338D01*
X2252Y338D01*
X2252Y336D01*
X2250Y336D01*
X2250Y334D01*
X2246Y334D01*
X2246Y332D01*
X2242Y332D01*
X2242Y330D01*
X2234Y330D01*
X2234Y328D01*
X2322Y328D01*
X2322Y330D01*
X2314Y330D01*
X2314Y332D01*
X2310Y332D01*
X2310Y334D01*
X2306Y334D01*
X2306Y336D01*
X2302Y336D01*
X2302Y338D01*
X2300Y338D01*
X2300Y340D01*
X2298Y340D01*
X2298Y342D01*
X2296Y342D01*
X2296Y344D01*
X2294Y344D01*
X2294Y346D01*
X2292Y346D01*
X2292Y348D01*
X2290Y348D01*
X2290Y350D01*
X2288Y350D01*
X2288Y354D01*
X2268Y354D01*
G37*
D02*
G36*
X2368Y354D02*
X2368Y352D01*
X2366Y352D01*
X2366Y348D01*
X2364Y348D01*
X2364Y346D01*
X2362Y346D01*
X2362Y344D01*
X2360Y344D01*
X2360Y342D01*
X2358Y342D01*
X2358Y340D01*
X2356Y340D01*
X2356Y338D01*
X2352Y338D01*
X2352Y336D01*
X2350Y336D01*
X2350Y334D01*
X2346Y334D01*
X2346Y332D01*
X2342Y332D01*
X2342Y330D01*
X2334Y330D01*
X2334Y328D01*
X2422Y328D01*
X2422Y330D01*
X2414Y330D01*
X2414Y332D01*
X2410Y332D01*
X2410Y334D01*
X2406Y334D01*
X2406Y336D01*
X2402Y336D01*
X2402Y338D01*
X2400Y338D01*
X2400Y340D01*
X2398Y340D01*
X2398Y342D01*
X2396Y342D01*
X2396Y344D01*
X2394Y344D01*
X2394Y346D01*
X2392Y346D01*
X2392Y348D01*
X2390Y348D01*
X2390Y350D01*
X2388Y350D01*
X2388Y354D01*
X2368Y354D01*
G37*
D02*
G36*
X2468Y354D02*
X2468Y352D01*
X2466Y352D01*
X2466Y348D01*
X2464Y348D01*
X2464Y346D01*
X2462Y346D01*
X2462Y344D01*
X2460Y344D01*
X2460Y342D01*
X2458Y342D01*
X2458Y340D01*
X2456Y340D01*
X2456Y338D01*
X2452Y338D01*
X2452Y336D01*
X2450Y336D01*
X2450Y334D01*
X2446Y334D01*
X2446Y332D01*
X2442Y332D01*
X2442Y330D01*
X2434Y330D01*
X2434Y328D01*
X2522Y328D01*
X2522Y330D01*
X2514Y330D01*
X2514Y332D01*
X2510Y332D01*
X2510Y334D01*
X2506Y334D01*
X2506Y336D01*
X2502Y336D01*
X2502Y338D01*
X2500Y338D01*
X2500Y340D01*
X2498Y340D01*
X2498Y342D01*
X2496Y342D01*
X2496Y344D01*
X2494Y344D01*
X2494Y346D01*
X2492Y346D01*
X2492Y348D01*
X2490Y348D01*
X2490Y350D01*
X2488Y350D01*
X2488Y354D01*
X2468Y354D01*
G37*
D02*
G36*
X2568Y354D02*
X2568Y352D01*
X2566Y352D01*
X2566Y348D01*
X2564Y348D01*
X2564Y346D01*
X2562Y346D01*
X2562Y344D01*
X2560Y344D01*
X2560Y342D01*
X2558Y342D01*
X2558Y340D01*
X2556Y340D01*
X2556Y338D01*
X2552Y338D01*
X2552Y336D01*
X2550Y336D01*
X2550Y334D01*
X2546Y334D01*
X2546Y332D01*
X2542Y332D01*
X2542Y330D01*
X2534Y330D01*
X2534Y328D01*
X2622Y328D01*
X2622Y330D01*
X2614Y330D01*
X2614Y332D01*
X2610Y332D01*
X2610Y334D01*
X2606Y334D01*
X2606Y336D01*
X2602Y336D01*
X2602Y338D01*
X2600Y338D01*
X2600Y340D01*
X2598Y340D01*
X2598Y342D01*
X2596Y342D01*
X2596Y344D01*
X2594Y344D01*
X2594Y346D01*
X2592Y346D01*
X2592Y348D01*
X2590Y348D01*
X2590Y350D01*
X2588Y350D01*
X2588Y354D01*
X2568Y354D01*
G37*
D02*
G36*
X2660Y344D02*
X2660Y342D01*
X2658Y342D01*
X2658Y340D01*
X2656Y340D01*
X2656Y338D01*
X2652Y338D01*
X2652Y336D01*
X2650Y336D01*
X2650Y334D01*
X2646Y334D01*
X2646Y332D01*
X2642Y332D01*
X2642Y330D01*
X2634Y330D01*
X2634Y328D01*
X2680Y328D01*
X2680Y344D01*
X2660Y344D01*
G37*
D02*
G36*
X1552Y328D02*
X1552Y326D01*
X2754Y326D01*
X2754Y328D01*
X1552Y328D01*
G37*
D02*
G36*
X1552Y328D02*
X1552Y326D01*
X2754Y326D01*
X2754Y328D01*
X1552Y328D01*
G37*
D02*
G36*
X1552Y328D02*
X1552Y326D01*
X2754Y326D01*
X2754Y328D01*
X1552Y328D01*
G37*
D02*
G36*
X1552Y328D02*
X1552Y326D01*
X2754Y326D01*
X2754Y328D01*
X1552Y328D01*
G37*
D02*
G36*
X1552Y328D02*
X1552Y326D01*
X2754Y326D01*
X2754Y328D01*
X1552Y328D01*
G37*
D02*
G36*
X1552Y328D02*
X1552Y326D01*
X2754Y326D01*
X2754Y328D01*
X1552Y328D01*
G37*
D02*
G36*
X1552Y328D02*
X1552Y326D01*
X2754Y326D01*
X2754Y328D01*
X1552Y328D01*
G37*
D02*
G36*
X1552Y328D02*
X1552Y326D01*
X2754Y326D01*
X2754Y328D01*
X1552Y328D01*
G37*
D02*
G36*
X1552Y328D02*
X1552Y326D01*
X2754Y326D01*
X2754Y328D01*
X1552Y328D01*
G37*
D02*
G36*
X1552Y328D02*
X1552Y326D01*
X2754Y326D01*
X2754Y328D01*
X1552Y328D01*
G37*
D02*
G36*
X1552Y328D02*
X1552Y326D01*
X2754Y326D01*
X2754Y328D01*
X1552Y328D01*
G37*
D02*
G36*
X1552Y328D02*
X1552Y326D01*
X2754Y326D01*
X2754Y328D01*
X1552Y328D01*
G37*
D02*
G36*
X1552Y326D02*
X1552Y300D01*
X1732Y300D01*
X1732Y298D01*
X1738Y298D01*
X1738Y296D01*
X1742Y296D01*
X1742Y294D01*
X1744Y294D01*
X1744Y292D01*
X1746Y292D01*
X1746Y290D01*
X1748Y290D01*
X1748Y288D01*
X1750Y288D01*
X1750Y282D01*
X1752Y282D01*
X1752Y232D01*
X1750Y232D01*
X1750Y124D01*
X2734Y124D01*
X2734Y122D01*
X2754Y122D01*
X2754Y326D01*
X1552Y326D01*
G37*
D02*
G36*
X1552Y300D02*
X1552Y298D01*
X1604Y298D01*
X1604Y300D01*
X1552Y300D01*
G37*
D02*
G36*
X1750Y124D02*
X1750Y116D01*
X1752Y116D01*
X1752Y114D01*
X1756Y114D01*
X1756Y112D01*
X1758Y112D01*
X1758Y110D01*
X1760Y110D01*
X1760Y108D01*
X1762Y108D01*
X1762Y106D01*
X1764Y106D01*
X1764Y104D01*
X1766Y104D01*
X1766Y100D01*
X1768Y100D01*
X1768Y98D01*
X1788Y98D01*
X1788Y102D01*
X1790Y102D01*
X1790Y104D01*
X1792Y104D01*
X1792Y106D01*
X1794Y106D01*
X1794Y108D01*
X1796Y108D01*
X1796Y110D01*
X1798Y110D01*
X1798Y112D01*
X1800Y112D01*
X1800Y114D01*
X1802Y114D01*
X1802Y116D01*
X1806Y116D01*
X1806Y118D01*
X1810Y118D01*
X1810Y120D01*
X1814Y120D01*
X1814Y122D01*
X1822Y122D01*
X1822Y124D01*
X1750Y124D01*
G37*
D02*
G36*
X1834Y124D02*
X1834Y122D01*
X1842Y122D01*
X1842Y120D01*
X1846Y120D01*
X1846Y118D01*
X1850Y118D01*
X1850Y116D01*
X1852Y116D01*
X1852Y114D01*
X1856Y114D01*
X1856Y112D01*
X1858Y112D01*
X1858Y110D01*
X1860Y110D01*
X1860Y108D01*
X1862Y108D01*
X1862Y106D01*
X1864Y106D01*
X1864Y104D01*
X1866Y104D01*
X1866Y100D01*
X1868Y100D01*
X1868Y98D01*
X1888Y98D01*
X1888Y102D01*
X1890Y102D01*
X1890Y104D01*
X1892Y104D01*
X1892Y106D01*
X1894Y106D01*
X1894Y108D01*
X1896Y108D01*
X1896Y110D01*
X1898Y110D01*
X1898Y112D01*
X1900Y112D01*
X1900Y114D01*
X1902Y114D01*
X1902Y116D01*
X1906Y116D01*
X1906Y118D01*
X1910Y118D01*
X1910Y120D01*
X1914Y120D01*
X1914Y122D01*
X1922Y122D01*
X1922Y124D01*
X1834Y124D01*
G37*
D02*
G36*
X1934Y124D02*
X1934Y122D01*
X1942Y122D01*
X1942Y120D01*
X1946Y120D01*
X1946Y118D01*
X1950Y118D01*
X1950Y116D01*
X1952Y116D01*
X1952Y114D01*
X1956Y114D01*
X1956Y112D01*
X1958Y112D01*
X1958Y110D01*
X1960Y110D01*
X1960Y108D01*
X1962Y108D01*
X1962Y106D01*
X1964Y106D01*
X1964Y104D01*
X1966Y104D01*
X1966Y100D01*
X1968Y100D01*
X1968Y98D01*
X1988Y98D01*
X1988Y102D01*
X1990Y102D01*
X1990Y104D01*
X1992Y104D01*
X1992Y106D01*
X1994Y106D01*
X1994Y108D01*
X1996Y108D01*
X1996Y110D01*
X1998Y110D01*
X1998Y112D01*
X2000Y112D01*
X2000Y114D01*
X2002Y114D01*
X2002Y116D01*
X2006Y116D01*
X2006Y118D01*
X2010Y118D01*
X2010Y120D01*
X2014Y120D01*
X2014Y122D01*
X2022Y122D01*
X2022Y124D01*
X1934Y124D01*
G37*
D02*
G36*
X2034Y124D02*
X2034Y122D01*
X2042Y122D01*
X2042Y120D01*
X2046Y120D01*
X2046Y118D01*
X2050Y118D01*
X2050Y116D01*
X2052Y116D01*
X2052Y114D01*
X2056Y114D01*
X2056Y112D01*
X2058Y112D01*
X2058Y110D01*
X2060Y110D01*
X2060Y108D01*
X2062Y108D01*
X2062Y106D01*
X2064Y106D01*
X2064Y104D01*
X2066Y104D01*
X2066Y100D01*
X2068Y100D01*
X2068Y98D01*
X2088Y98D01*
X2088Y102D01*
X2090Y102D01*
X2090Y104D01*
X2092Y104D01*
X2092Y106D01*
X2094Y106D01*
X2094Y108D01*
X2096Y108D01*
X2096Y110D01*
X2098Y110D01*
X2098Y112D01*
X2100Y112D01*
X2100Y114D01*
X2102Y114D01*
X2102Y116D01*
X2106Y116D01*
X2106Y118D01*
X2110Y118D01*
X2110Y120D01*
X2114Y120D01*
X2114Y122D01*
X2122Y122D01*
X2122Y124D01*
X2034Y124D01*
G37*
D02*
G36*
X2134Y124D02*
X2134Y122D01*
X2142Y122D01*
X2142Y120D01*
X2146Y120D01*
X2146Y118D01*
X2150Y118D01*
X2150Y116D01*
X2152Y116D01*
X2152Y114D01*
X2156Y114D01*
X2156Y112D01*
X2158Y112D01*
X2158Y110D01*
X2160Y110D01*
X2160Y108D01*
X2162Y108D01*
X2162Y106D01*
X2164Y106D01*
X2164Y104D01*
X2166Y104D01*
X2166Y100D01*
X2168Y100D01*
X2168Y98D01*
X2188Y98D01*
X2188Y102D01*
X2190Y102D01*
X2190Y104D01*
X2192Y104D01*
X2192Y106D01*
X2194Y106D01*
X2194Y108D01*
X2196Y108D01*
X2196Y110D01*
X2198Y110D01*
X2198Y112D01*
X2200Y112D01*
X2200Y114D01*
X2202Y114D01*
X2202Y116D01*
X2206Y116D01*
X2206Y118D01*
X2210Y118D01*
X2210Y120D01*
X2214Y120D01*
X2214Y122D01*
X2222Y122D01*
X2222Y124D01*
X2134Y124D01*
G37*
D02*
G36*
X2234Y124D02*
X2234Y122D01*
X2242Y122D01*
X2242Y120D01*
X2246Y120D01*
X2246Y118D01*
X2250Y118D01*
X2250Y116D01*
X2252Y116D01*
X2252Y114D01*
X2256Y114D01*
X2256Y112D01*
X2258Y112D01*
X2258Y110D01*
X2260Y110D01*
X2260Y108D01*
X2262Y108D01*
X2262Y106D01*
X2264Y106D01*
X2264Y104D01*
X2266Y104D01*
X2266Y100D01*
X2268Y100D01*
X2268Y98D01*
X2288Y98D01*
X2288Y102D01*
X2290Y102D01*
X2290Y104D01*
X2292Y104D01*
X2292Y106D01*
X2294Y106D01*
X2294Y108D01*
X2296Y108D01*
X2296Y110D01*
X2298Y110D01*
X2298Y112D01*
X2300Y112D01*
X2300Y114D01*
X2302Y114D01*
X2302Y116D01*
X2306Y116D01*
X2306Y118D01*
X2310Y118D01*
X2310Y120D01*
X2314Y120D01*
X2314Y122D01*
X2322Y122D01*
X2322Y124D01*
X2234Y124D01*
G37*
D02*
G36*
X2334Y124D02*
X2334Y122D01*
X2342Y122D01*
X2342Y120D01*
X2346Y120D01*
X2346Y118D01*
X2350Y118D01*
X2350Y116D01*
X2352Y116D01*
X2352Y114D01*
X2356Y114D01*
X2356Y112D01*
X2358Y112D01*
X2358Y110D01*
X2360Y110D01*
X2360Y108D01*
X2362Y108D01*
X2362Y106D01*
X2364Y106D01*
X2364Y104D01*
X2366Y104D01*
X2366Y100D01*
X2368Y100D01*
X2368Y98D01*
X2388Y98D01*
X2388Y102D01*
X2390Y102D01*
X2390Y104D01*
X2392Y104D01*
X2392Y106D01*
X2394Y106D01*
X2394Y108D01*
X2396Y108D01*
X2396Y110D01*
X2398Y110D01*
X2398Y112D01*
X2400Y112D01*
X2400Y114D01*
X2402Y114D01*
X2402Y116D01*
X2406Y116D01*
X2406Y118D01*
X2410Y118D01*
X2410Y120D01*
X2414Y120D01*
X2414Y122D01*
X2422Y122D01*
X2422Y124D01*
X2334Y124D01*
G37*
D02*
G36*
X2434Y124D02*
X2434Y122D01*
X2442Y122D01*
X2442Y120D01*
X2446Y120D01*
X2446Y118D01*
X2450Y118D01*
X2450Y116D01*
X2452Y116D01*
X2452Y114D01*
X2456Y114D01*
X2456Y112D01*
X2458Y112D01*
X2458Y110D01*
X2460Y110D01*
X2460Y108D01*
X2462Y108D01*
X2462Y106D01*
X2464Y106D01*
X2464Y104D01*
X2466Y104D01*
X2466Y100D01*
X2468Y100D01*
X2468Y98D01*
X2488Y98D01*
X2488Y102D01*
X2490Y102D01*
X2490Y104D01*
X2492Y104D01*
X2492Y106D01*
X2494Y106D01*
X2494Y108D01*
X2496Y108D01*
X2496Y110D01*
X2498Y110D01*
X2498Y112D01*
X2500Y112D01*
X2500Y114D01*
X2502Y114D01*
X2502Y116D01*
X2506Y116D01*
X2506Y118D01*
X2510Y118D01*
X2510Y120D01*
X2514Y120D01*
X2514Y122D01*
X2522Y122D01*
X2522Y124D01*
X2434Y124D01*
G37*
D02*
G36*
X2534Y124D02*
X2534Y122D01*
X2542Y122D01*
X2542Y120D01*
X2546Y120D01*
X2546Y118D01*
X2550Y118D01*
X2550Y116D01*
X2552Y116D01*
X2552Y114D01*
X2556Y114D01*
X2556Y112D01*
X2558Y112D01*
X2558Y110D01*
X2560Y110D01*
X2560Y108D01*
X2562Y108D01*
X2562Y106D01*
X2564Y106D01*
X2564Y104D01*
X2566Y104D01*
X2566Y100D01*
X2568Y100D01*
X2568Y98D01*
X2588Y98D01*
X2588Y102D01*
X2590Y102D01*
X2590Y104D01*
X2592Y104D01*
X2592Y106D01*
X2594Y106D01*
X2594Y108D01*
X2596Y108D01*
X2596Y110D01*
X2598Y110D01*
X2598Y112D01*
X2600Y112D01*
X2600Y114D01*
X2602Y114D01*
X2602Y116D01*
X2606Y116D01*
X2606Y118D01*
X2610Y118D01*
X2610Y120D01*
X2614Y120D01*
X2614Y122D01*
X2622Y122D01*
X2622Y124D01*
X2534Y124D01*
G37*
D02*
G36*
X2634Y124D02*
X2634Y122D01*
X2642Y122D01*
X2642Y120D01*
X2646Y120D01*
X2646Y118D01*
X2650Y118D01*
X2650Y116D01*
X2652Y116D01*
X2652Y114D01*
X2656Y114D01*
X2656Y112D01*
X2658Y112D01*
X2658Y110D01*
X2660Y110D01*
X2660Y108D01*
X2662Y108D01*
X2662Y106D01*
X2664Y106D01*
X2664Y104D01*
X2666Y104D01*
X2666Y100D01*
X2668Y100D01*
X2668Y98D01*
X2688Y98D01*
X2688Y102D01*
X2690Y102D01*
X2690Y104D01*
X2692Y104D01*
X2692Y106D01*
X2694Y106D01*
X2694Y108D01*
X2696Y108D01*
X2696Y110D01*
X2698Y110D01*
X2698Y112D01*
X2700Y112D01*
X2700Y114D01*
X2702Y114D01*
X2702Y116D01*
X2706Y116D01*
X2706Y118D01*
X2710Y118D01*
X2710Y120D01*
X2714Y120D01*
X2714Y122D01*
X2722Y122D01*
X2722Y124D01*
X2634Y124D01*
G37*
D02*
G36*
X1198Y354D02*
X1198Y164D01*
X1200Y164D01*
X1200Y72D01*
X1198Y72D01*
X1198Y68D01*
X1196Y68D01*
X1196Y48D01*
X1354Y48D01*
X1354Y52D01*
X1356Y52D01*
X1356Y136D01*
X1352Y136D01*
X1352Y138D01*
X1350Y138D01*
X1350Y140D01*
X1348Y140D01*
X1348Y142D01*
X1346Y142D01*
X1346Y144D01*
X1344Y144D01*
X1344Y146D01*
X1342Y146D01*
X1342Y148D01*
X1340Y148D01*
X1340Y150D01*
X1338Y150D01*
X1338Y154D01*
X1336Y154D01*
X1336Y158D01*
X1334Y158D01*
X1334Y162D01*
X1332Y162D01*
X1332Y168D01*
X1330Y168D01*
X1330Y184D01*
X1332Y184D01*
X1332Y190D01*
X1334Y190D01*
X1334Y194D01*
X1336Y194D01*
X1336Y198D01*
X1338Y198D01*
X1338Y202D01*
X1340Y202D01*
X1340Y204D01*
X1342Y204D01*
X1342Y206D01*
X1344Y206D01*
X1344Y208D01*
X1346Y208D01*
X1346Y210D01*
X1348Y210D01*
X1348Y212D01*
X1350Y212D01*
X1350Y214D01*
X1352Y214D01*
X1352Y216D01*
X1356Y216D01*
X1356Y236D01*
X1352Y236D01*
X1352Y238D01*
X1350Y238D01*
X1350Y240D01*
X1348Y240D01*
X1348Y242D01*
X1346Y242D01*
X1346Y244D01*
X1344Y244D01*
X1344Y246D01*
X1342Y246D01*
X1342Y248D01*
X1340Y248D01*
X1340Y250D01*
X1338Y250D01*
X1338Y254D01*
X1336Y254D01*
X1336Y258D01*
X1334Y258D01*
X1334Y262D01*
X1332Y262D01*
X1332Y268D01*
X1330Y268D01*
X1330Y284D01*
X1332Y284D01*
X1332Y290D01*
X1334Y290D01*
X1334Y294D01*
X1336Y294D01*
X1336Y298D01*
X1338Y298D01*
X1338Y302D01*
X1340Y302D01*
X1340Y304D01*
X1342Y304D01*
X1342Y306D01*
X1344Y306D01*
X1344Y308D01*
X1346Y308D01*
X1346Y310D01*
X1348Y310D01*
X1348Y312D01*
X1350Y312D01*
X1350Y314D01*
X1352Y314D01*
X1352Y316D01*
X1356Y316D01*
X1356Y336D01*
X1352Y336D01*
X1352Y338D01*
X1350Y338D01*
X1350Y340D01*
X1348Y340D01*
X1348Y342D01*
X1346Y342D01*
X1346Y344D01*
X1344Y344D01*
X1344Y346D01*
X1342Y346D01*
X1342Y348D01*
X1340Y348D01*
X1340Y350D01*
X1338Y350D01*
X1338Y354D01*
X1198Y354D01*
G37*
D02*
G36*
X1488Y356D02*
X1488Y354D01*
X1484Y354D01*
X1484Y352D01*
X1508Y352D01*
X1508Y356D01*
X1488Y356D01*
G37*
D02*
G36*
X1418Y354D02*
X1418Y352D01*
X1440Y352D01*
X1440Y354D01*
X1418Y354D01*
G37*
D02*
G36*
X1416Y352D02*
X1416Y350D01*
X1508Y350D01*
X1508Y352D01*
X1416Y352D01*
G37*
D02*
G36*
X1416Y352D02*
X1416Y350D01*
X1508Y350D01*
X1508Y352D01*
X1416Y352D01*
G37*
D02*
G36*
X1416Y350D02*
X1416Y348D01*
X1414Y348D01*
X1414Y346D01*
X1412Y346D01*
X1412Y344D01*
X1410Y344D01*
X1410Y342D01*
X1408Y342D01*
X1408Y340D01*
X1406Y340D01*
X1406Y338D01*
X1402Y338D01*
X1402Y336D01*
X1400Y336D01*
X1400Y316D01*
X1402Y316D01*
X1402Y314D01*
X1406Y314D01*
X1406Y312D01*
X1408Y312D01*
X1408Y310D01*
X1410Y310D01*
X1410Y308D01*
X1412Y308D01*
X1412Y306D01*
X1414Y306D01*
X1414Y304D01*
X1416Y304D01*
X1416Y300D01*
X1418Y300D01*
X1418Y298D01*
X1420Y298D01*
X1420Y294D01*
X1422Y294D01*
X1422Y288D01*
X1424Y288D01*
X1424Y280D01*
X1426Y280D01*
X1426Y272D01*
X1424Y272D01*
X1424Y264D01*
X1422Y264D01*
X1422Y258D01*
X1420Y258D01*
X1420Y254D01*
X1528Y254D01*
X1528Y256D01*
X1520Y256D01*
X1520Y258D01*
X1516Y258D01*
X1516Y260D01*
X1514Y260D01*
X1514Y262D01*
X1512Y262D01*
X1512Y264D01*
X1510Y264D01*
X1510Y268D01*
X1508Y268D01*
X1508Y350D01*
X1416Y350D01*
G37*
D02*
G36*
X1610Y256D02*
X1610Y254D01*
X1708Y254D01*
X1708Y256D01*
X1610Y256D01*
G37*
D02*
G36*
X1418Y254D02*
X1418Y252D01*
X1708Y252D01*
X1708Y254D01*
X1418Y254D01*
G37*
D02*
G36*
X1418Y254D02*
X1418Y252D01*
X1708Y252D01*
X1708Y254D01*
X1418Y254D01*
G37*
D02*
G36*
X1416Y252D02*
X1416Y248D01*
X1414Y248D01*
X1414Y246D01*
X1412Y246D01*
X1412Y244D01*
X1410Y244D01*
X1410Y242D01*
X1408Y242D01*
X1408Y240D01*
X1406Y240D01*
X1406Y238D01*
X1402Y238D01*
X1402Y236D01*
X1400Y236D01*
X1400Y216D01*
X1402Y216D01*
X1402Y214D01*
X1406Y214D01*
X1406Y212D01*
X1408Y212D01*
X1408Y210D01*
X1410Y210D01*
X1410Y208D01*
X1412Y208D01*
X1412Y206D01*
X1414Y206D01*
X1414Y204D01*
X1636Y204D01*
X1636Y202D01*
X1640Y202D01*
X1640Y200D01*
X1642Y200D01*
X1642Y198D01*
X1646Y198D01*
X1646Y196D01*
X1648Y196D01*
X1648Y194D01*
X1650Y194D01*
X1650Y190D01*
X1652Y190D01*
X1652Y188D01*
X1654Y188D01*
X1654Y184D01*
X1656Y184D01*
X1656Y166D01*
X1654Y166D01*
X1654Y162D01*
X1652Y162D01*
X1652Y160D01*
X1650Y160D01*
X1650Y116D01*
X1652Y116D01*
X1652Y114D01*
X1656Y114D01*
X1656Y112D01*
X1658Y112D01*
X1658Y110D01*
X1660Y110D01*
X1660Y108D01*
X1662Y108D01*
X1662Y106D01*
X1664Y106D01*
X1664Y104D01*
X1666Y104D01*
X1666Y100D01*
X1668Y100D01*
X1668Y98D01*
X1688Y98D01*
X1688Y102D01*
X1690Y102D01*
X1690Y104D01*
X1692Y104D01*
X1692Y106D01*
X1694Y106D01*
X1694Y108D01*
X1696Y108D01*
X1696Y110D01*
X1698Y110D01*
X1698Y112D01*
X1700Y112D01*
X1700Y114D01*
X1702Y114D01*
X1702Y116D01*
X1706Y116D01*
X1706Y234D01*
X1708Y234D01*
X1708Y252D01*
X1416Y252D01*
G37*
D02*
G36*
X1416Y204D02*
X1416Y200D01*
X1418Y200D01*
X1418Y198D01*
X1420Y198D01*
X1420Y194D01*
X1422Y194D01*
X1422Y188D01*
X1424Y188D01*
X1424Y180D01*
X1426Y180D01*
X1426Y172D01*
X1424Y172D01*
X1424Y164D01*
X1422Y164D01*
X1422Y158D01*
X1420Y158D01*
X1420Y154D01*
X1418Y154D01*
X1418Y152D01*
X1416Y152D01*
X1416Y148D01*
X1414Y148D01*
X1414Y146D01*
X1412Y146D01*
X1412Y144D01*
X1410Y144D01*
X1410Y142D01*
X1408Y142D01*
X1408Y140D01*
X1406Y140D01*
X1406Y138D01*
X1402Y138D01*
X1402Y136D01*
X1400Y136D01*
X1400Y42D01*
X1584Y42D01*
X1584Y62D01*
X1582Y62D01*
X1582Y68D01*
X1580Y68D01*
X1580Y84D01*
X1582Y84D01*
X1582Y90D01*
X1584Y90D01*
X1584Y94D01*
X1586Y94D01*
X1586Y98D01*
X1588Y98D01*
X1588Y102D01*
X1590Y102D01*
X1590Y104D01*
X1592Y104D01*
X1592Y106D01*
X1594Y106D01*
X1594Y108D01*
X1596Y108D01*
X1596Y110D01*
X1598Y110D01*
X1598Y112D01*
X1600Y112D01*
X1600Y114D01*
X1602Y114D01*
X1602Y116D01*
X1606Y116D01*
X1606Y156D01*
X1604Y156D01*
X1604Y160D01*
X1602Y160D01*
X1602Y162D01*
X1600Y162D01*
X1600Y166D01*
X1598Y166D01*
X1598Y184D01*
X1600Y184D01*
X1600Y188D01*
X1602Y188D01*
X1602Y190D01*
X1604Y190D01*
X1604Y194D01*
X1606Y194D01*
X1606Y196D01*
X1608Y196D01*
X1608Y198D01*
X1612Y198D01*
X1612Y200D01*
X1614Y200D01*
X1614Y202D01*
X1618Y202D01*
X1618Y204D01*
X1416Y204D01*
G37*
D02*
G36*
X1330Y838D02*
X1330Y836D01*
X1324Y836D01*
X1324Y834D01*
X1318Y834D01*
X1318Y832D01*
X1312Y832D01*
X1312Y830D01*
X1306Y830D01*
X1306Y828D01*
X1300Y828D01*
X1300Y826D01*
X1294Y826D01*
X1294Y824D01*
X1288Y824D01*
X1288Y822D01*
X1282Y822D01*
X1282Y820D01*
X1276Y820D01*
X1276Y818D01*
X1270Y818D01*
X1270Y816D01*
X1264Y816D01*
X1264Y814D01*
X1258Y814D01*
X1258Y812D01*
X1252Y812D01*
X1252Y810D01*
X1246Y810D01*
X1246Y808D01*
X1240Y808D01*
X1240Y806D01*
X1234Y806D01*
X1234Y804D01*
X1228Y804D01*
X1228Y802D01*
X1222Y802D01*
X1222Y800D01*
X1216Y800D01*
X1216Y798D01*
X1210Y798D01*
X1210Y796D01*
X1204Y796D01*
X1204Y794D01*
X1198Y794D01*
X1198Y792D01*
X1192Y792D01*
X1192Y790D01*
X1186Y790D01*
X1186Y788D01*
X1180Y788D01*
X1180Y786D01*
X1174Y786D01*
X1174Y784D01*
X1168Y784D01*
X1168Y782D01*
X1162Y782D01*
X1162Y780D01*
X1156Y780D01*
X1156Y778D01*
X1150Y778D01*
X1150Y776D01*
X1144Y776D01*
X1144Y774D01*
X1138Y774D01*
X1138Y772D01*
X1132Y772D01*
X1132Y770D01*
X1126Y770D01*
X1126Y768D01*
X1124Y768D01*
X1124Y764D01*
X1122Y764D01*
X1122Y758D01*
X1120Y758D01*
X1120Y754D01*
X1118Y754D01*
X1118Y752D01*
X1116Y752D01*
X1116Y748D01*
X1114Y748D01*
X1114Y746D01*
X1112Y746D01*
X1112Y744D01*
X1110Y744D01*
X1110Y742D01*
X1108Y742D01*
X1108Y740D01*
X1106Y740D01*
X1106Y738D01*
X1102Y738D01*
X1102Y736D01*
X1100Y736D01*
X1100Y716D01*
X1102Y716D01*
X1102Y714D01*
X1106Y714D01*
X1106Y712D01*
X1108Y712D01*
X1108Y710D01*
X1110Y710D01*
X1110Y708D01*
X1112Y708D01*
X1112Y706D01*
X1114Y706D01*
X1114Y704D01*
X1116Y704D01*
X1116Y700D01*
X1118Y700D01*
X1118Y698D01*
X1120Y698D01*
X1120Y694D01*
X1122Y694D01*
X1122Y688D01*
X1124Y688D01*
X1124Y680D01*
X1126Y680D01*
X1126Y672D01*
X1124Y672D01*
X1124Y664D01*
X1122Y664D01*
X1122Y658D01*
X1120Y658D01*
X1120Y654D01*
X1118Y654D01*
X1118Y652D01*
X1116Y652D01*
X1116Y648D01*
X1114Y648D01*
X1114Y646D01*
X1112Y646D01*
X1112Y644D01*
X1110Y644D01*
X1110Y642D01*
X1108Y642D01*
X1108Y640D01*
X1106Y640D01*
X1106Y638D01*
X1102Y638D01*
X1102Y636D01*
X1100Y636D01*
X1100Y616D01*
X1102Y616D01*
X1102Y614D01*
X1106Y614D01*
X1106Y612D01*
X1108Y612D01*
X1108Y610D01*
X1110Y610D01*
X1110Y608D01*
X1112Y608D01*
X1112Y606D01*
X1114Y606D01*
X1114Y604D01*
X1116Y604D01*
X1116Y600D01*
X1118Y600D01*
X1118Y598D01*
X1120Y598D01*
X1120Y594D01*
X1122Y594D01*
X1122Y588D01*
X1124Y588D01*
X1124Y580D01*
X1126Y580D01*
X1126Y572D01*
X1124Y572D01*
X1124Y564D01*
X1122Y564D01*
X1122Y558D01*
X1120Y558D01*
X1120Y554D01*
X1118Y554D01*
X1118Y552D01*
X1116Y552D01*
X1116Y548D01*
X1114Y548D01*
X1114Y546D01*
X1112Y546D01*
X1112Y544D01*
X1110Y544D01*
X1110Y542D01*
X1108Y542D01*
X1108Y540D01*
X1106Y540D01*
X1106Y538D01*
X1102Y538D01*
X1102Y536D01*
X1100Y536D01*
X1100Y516D01*
X1102Y516D01*
X1102Y514D01*
X1106Y514D01*
X1106Y512D01*
X1108Y512D01*
X1108Y510D01*
X1110Y510D01*
X1110Y508D01*
X1112Y508D01*
X1112Y506D01*
X1114Y506D01*
X1114Y504D01*
X1116Y504D01*
X1116Y500D01*
X1118Y500D01*
X1118Y498D01*
X1120Y498D01*
X1120Y494D01*
X1122Y494D01*
X1122Y488D01*
X1124Y488D01*
X1124Y480D01*
X1126Y480D01*
X1126Y472D01*
X1124Y472D01*
X1124Y464D01*
X1122Y464D01*
X1122Y458D01*
X1120Y458D01*
X1120Y454D01*
X1118Y454D01*
X1118Y452D01*
X1116Y452D01*
X1116Y448D01*
X1114Y448D01*
X1114Y446D01*
X1112Y446D01*
X1112Y444D01*
X1110Y444D01*
X1110Y442D01*
X1108Y442D01*
X1108Y440D01*
X1106Y440D01*
X1106Y438D01*
X1102Y438D01*
X1102Y436D01*
X1100Y436D01*
X1100Y416D01*
X1102Y416D01*
X1102Y414D01*
X1106Y414D01*
X1106Y412D01*
X1108Y412D01*
X1108Y410D01*
X1110Y410D01*
X1110Y408D01*
X1112Y408D01*
X1112Y406D01*
X1114Y406D01*
X1114Y404D01*
X1116Y404D01*
X1116Y400D01*
X1118Y400D01*
X1118Y398D01*
X1120Y398D01*
X1120Y394D01*
X1122Y394D01*
X1122Y388D01*
X1124Y388D01*
X1124Y380D01*
X1126Y380D01*
X1126Y372D01*
X1124Y372D01*
X1124Y364D01*
X1122Y364D01*
X1122Y358D01*
X1120Y358D01*
X1120Y354D01*
X1118Y354D01*
X1118Y352D01*
X1116Y352D01*
X1116Y348D01*
X1114Y348D01*
X1114Y346D01*
X1112Y346D01*
X1112Y344D01*
X1110Y344D01*
X1110Y342D01*
X1108Y342D01*
X1108Y340D01*
X1106Y340D01*
X1106Y338D01*
X1102Y338D01*
X1102Y336D01*
X1100Y336D01*
X1100Y316D01*
X1102Y316D01*
X1102Y314D01*
X1106Y314D01*
X1106Y312D01*
X1108Y312D01*
X1108Y310D01*
X1110Y310D01*
X1110Y308D01*
X1112Y308D01*
X1112Y306D01*
X1114Y306D01*
X1114Y304D01*
X1116Y304D01*
X1116Y300D01*
X1118Y300D01*
X1118Y298D01*
X1120Y298D01*
X1120Y294D01*
X1122Y294D01*
X1122Y288D01*
X1124Y288D01*
X1124Y280D01*
X1126Y280D01*
X1126Y272D01*
X1124Y272D01*
X1124Y264D01*
X1122Y264D01*
X1122Y258D01*
X1120Y258D01*
X1120Y254D01*
X1118Y254D01*
X1118Y252D01*
X1116Y252D01*
X1116Y248D01*
X1114Y248D01*
X1114Y246D01*
X1112Y246D01*
X1112Y244D01*
X1110Y244D01*
X1110Y242D01*
X1108Y242D01*
X1108Y240D01*
X1106Y240D01*
X1106Y238D01*
X1102Y238D01*
X1102Y236D01*
X1100Y236D01*
X1100Y216D01*
X1102Y216D01*
X1102Y214D01*
X1106Y214D01*
X1106Y212D01*
X1108Y212D01*
X1108Y210D01*
X1110Y210D01*
X1110Y208D01*
X1112Y208D01*
X1112Y206D01*
X1114Y206D01*
X1114Y204D01*
X1116Y204D01*
X1116Y200D01*
X1118Y200D01*
X1118Y198D01*
X1120Y198D01*
X1120Y194D01*
X1122Y194D01*
X1122Y188D01*
X1124Y188D01*
X1124Y180D01*
X1126Y180D01*
X1126Y172D01*
X1124Y172D01*
X1124Y164D01*
X1122Y164D01*
X1122Y158D01*
X1120Y158D01*
X1120Y154D01*
X1118Y154D01*
X1118Y152D01*
X1116Y152D01*
X1116Y148D01*
X1114Y148D01*
X1114Y146D01*
X1112Y146D01*
X1112Y144D01*
X1110Y144D01*
X1110Y142D01*
X1108Y142D01*
X1108Y140D01*
X1106Y140D01*
X1106Y138D01*
X1102Y138D01*
X1102Y136D01*
X1100Y136D01*
X1100Y134D01*
X1096Y134D01*
X1096Y132D01*
X1092Y132D01*
X1092Y130D01*
X1084Y130D01*
X1084Y128D01*
X1156Y128D01*
X1156Y162D01*
X1154Y162D01*
X1154Y384D01*
X1156Y384D01*
X1156Y388D01*
X1158Y388D01*
X1158Y390D01*
X1160Y390D01*
X1160Y392D01*
X1162Y392D01*
X1162Y394D01*
X1164Y394D01*
X1164Y396D01*
X1168Y396D01*
X1168Y398D01*
X1338Y398D01*
X1338Y402D01*
X1340Y402D01*
X1340Y404D01*
X1342Y404D01*
X1342Y406D01*
X1344Y406D01*
X1344Y408D01*
X1346Y408D01*
X1346Y410D01*
X1348Y410D01*
X1348Y412D01*
X1350Y412D01*
X1350Y414D01*
X1352Y414D01*
X1352Y416D01*
X1356Y416D01*
X1356Y436D01*
X1352Y436D01*
X1352Y438D01*
X1350Y438D01*
X1350Y440D01*
X1348Y440D01*
X1348Y442D01*
X1346Y442D01*
X1346Y444D01*
X1344Y444D01*
X1344Y446D01*
X1342Y446D01*
X1342Y448D01*
X1340Y448D01*
X1340Y450D01*
X1338Y450D01*
X1338Y454D01*
X1336Y454D01*
X1336Y458D01*
X1334Y458D01*
X1334Y462D01*
X1332Y462D01*
X1332Y468D01*
X1330Y468D01*
X1330Y484D01*
X1332Y484D01*
X1332Y490D01*
X1334Y490D01*
X1334Y494D01*
X1336Y494D01*
X1336Y498D01*
X1338Y498D01*
X1338Y502D01*
X1340Y502D01*
X1340Y504D01*
X1342Y504D01*
X1342Y506D01*
X1344Y506D01*
X1344Y508D01*
X1346Y508D01*
X1346Y510D01*
X1348Y510D01*
X1348Y512D01*
X1350Y512D01*
X1350Y514D01*
X1352Y514D01*
X1352Y516D01*
X1356Y516D01*
X1356Y536D01*
X1352Y536D01*
X1352Y538D01*
X1350Y538D01*
X1350Y540D01*
X1348Y540D01*
X1348Y542D01*
X1346Y542D01*
X1346Y544D01*
X1344Y544D01*
X1344Y546D01*
X1342Y546D01*
X1342Y548D01*
X1340Y548D01*
X1340Y550D01*
X1338Y550D01*
X1338Y554D01*
X1336Y554D01*
X1336Y558D01*
X1334Y558D01*
X1334Y562D01*
X1332Y562D01*
X1332Y568D01*
X1330Y568D01*
X1330Y584D01*
X1332Y584D01*
X1332Y590D01*
X1334Y590D01*
X1334Y594D01*
X1336Y594D01*
X1336Y598D01*
X1338Y598D01*
X1338Y602D01*
X1340Y602D01*
X1340Y604D01*
X1342Y604D01*
X1342Y606D01*
X1344Y606D01*
X1344Y608D01*
X1346Y608D01*
X1346Y610D01*
X1348Y610D01*
X1348Y612D01*
X1350Y612D01*
X1350Y614D01*
X1352Y614D01*
X1352Y616D01*
X1356Y616D01*
X1356Y636D01*
X1352Y636D01*
X1352Y638D01*
X1350Y638D01*
X1350Y640D01*
X1348Y640D01*
X1348Y642D01*
X1346Y642D01*
X1346Y644D01*
X1344Y644D01*
X1344Y646D01*
X1342Y646D01*
X1342Y648D01*
X1340Y648D01*
X1340Y650D01*
X1338Y650D01*
X1338Y654D01*
X1336Y654D01*
X1336Y658D01*
X1334Y658D01*
X1334Y662D01*
X1332Y662D01*
X1332Y668D01*
X1330Y668D01*
X1330Y684D01*
X1332Y684D01*
X1332Y690D01*
X1334Y690D01*
X1334Y694D01*
X1336Y694D01*
X1336Y698D01*
X1338Y698D01*
X1338Y702D01*
X1340Y702D01*
X1340Y704D01*
X1342Y704D01*
X1342Y706D01*
X1344Y706D01*
X1344Y708D01*
X1346Y708D01*
X1346Y710D01*
X1348Y710D01*
X1348Y712D01*
X1350Y712D01*
X1350Y714D01*
X1352Y714D01*
X1352Y716D01*
X1356Y716D01*
X1356Y736D01*
X1352Y736D01*
X1352Y738D01*
X1350Y738D01*
X1350Y740D01*
X1348Y740D01*
X1348Y742D01*
X1346Y742D01*
X1346Y744D01*
X1344Y744D01*
X1344Y746D01*
X1342Y746D01*
X1342Y748D01*
X1340Y748D01*
X1340Y750D01*
X1338Y750D01*
X1338Y754D01*
X1336Y754D01*
X1336Y758D01*
X1334Y758D01*
X1334Y762D01*
X1332Y762D01*
X1332Y768D01*
X1330Y768D01*
X1330Y784D01*
X1332Y784D01*
X1332Y790D01*
X1334Y790D01*
X1334Y794D01*
X1336Y794D01*
X1336Y798D01*
X1338Y798D01*
X1338Y802D01*
X1340Y802D01*
X1340Y804D01*
X1342Y804D01*
X1342Y806D01*
X1344Y806D01*
X1344Y808D01*
X1346Y808D01*
X1346Y810D01*
X1348Y810D01*
X1348Y812D01*
X1350Y812D01*
X1350Y814D01*
X1352Y814D01*
X1352Y816D01*
X1356Y816D01*
X1356Y836D01*
X1352Y836D01*
X1352Y838D01*
X1330Y838D01*
G37*
D02*
G36*
X1034Y736D02*
X1034Y734D01*
X1030Y734D01*
X1030Y732D01*
X1024Y732D01*
X1024Y730D01*
X1020Y730D01*
X1020Y728D01*
X1014Y728D01*
X1014Y726D01*
X1010Y726D01*
X1010Y724D01*
X1004Y724D01*
X1004Y722D01*
X1000Y722D01*
X1000Y720D01*
X994Y720D01*
X994Y718D01*
X990Y718D01*
X990Y716D01*
X984Y716D01*
X984Y714D01*
X980Y714D01*
X980Y712D01*
X974Y712D01*
X974Y710D01*
X970Y710D01*
X970Y708D01*
X964Y708D01*
X964Y706D01*
X960Y706D01*
X960Y704D01*
X954Y704D01*
X954Y702D01*
X950Y702D01*
X950Y700D01*
X944Y700D01*
X944Y698D01*
X940Y698D01*
X940Y696D01*
X934Y696D01*
X934Y694D01*
X930Y694D01*
X930Y692D01*
X924Y692D01*
X924Y690D01*
X920Y690D01*
X920Y688D01*
X914Y688D01*
X914Y686D01*
X910Y686D01*
X910Y684D01*
X904Y684D01*
X904Y682D01*
X900Y682D01*
X900Y680D01*
X894Y680D01*
X894Y678D01*
X890Y678D01*
X890Y676D01*
X884Y676D01*
X884Y674D01*
X880Y674D01*
X880Y672D01*
X874Y672D01*
X874Y664D01*
X872Y664D01*
X872Y658D01*
X870Y658D01*
X870Y654D01*
X868Y654D01*
X868Y652D01*
X866Y652D01*
X866Y648D01*
X864Y648D01*
X864Y646D01*
X862Y646D01*
X862Y644D01*
X860Y644D01*
X860Y642D01*
X858Y642D01*
X858Y640D01*
X856Y640D01*
X856Y638D01*
X852Y638D01*
X852Y636D01*
X850Y636D01*
X850Y616D01*
X852Y616D01*
X852Y614D01*
X856Y614D01*
X856Y612D01*
X858Y612D01*
X858Y610D01*
X860Y610D01*
X860Y608D01*
X862Y608D01*
X862Y606D01*
X864Y606D01*
X864Y604D01*
X866Y604D01*
X866Y600D01*
X868Y600D01*
X868Y598D01*
X870Y598D01*
X870Y594D01*
X872Y594D01*
X872Y588D01*
X874Y588D01*
X874Y580D01*
X876Y580D01*
X876Y572D01*
X874Y572D01*
X874Y564D01*
X872Y564D01*
X872Y558D01*
X870Y558D01*
X870Y554D01*
X868Y554D01*
X868Y552D01*
X866Y552D01*
X866Y548D01*
X864Y548D01*
X864Y546D01*
X862Y546D01*
X862Y544D01*
X860Y544D01*
X860Y542D01*
X858Y542D01*
X858Y540D01*
X856Y540D01*
X856Y538D01*
X852Y538D01*
X852Y536D01*
X850Y536D01*
X850Y516D01*
X852Y516D01*
X852Y514D01*
X856Y514D01*
X856Y512D01*
X858Y512D01*
X858Y510D01*
X860Y510D01*
X860Y508D01*
X862Y508D01*
X862Y506D01*
X864Y506D01*
X864Y504D01*
X866Y504D01*
X866Y500D01*
X868Y500D01*
X868Y498D01*
X870Y498D01*
X870Y494D01*
X872Y494D01*
X872Y488D01*
X874Y488D01*
X874Y480D01*
X876Y480D01*
X876Y472D01*
X874Y472D01*
X874Y464D01*
X872Y464D01*
X872Y458D01*
X870Y458D01*
X870Y454D01*
X868Y454D01*
X868Y452D01*
X866Y452D01*
X866Y448D01*
X864Y448D01*
X864Y446D01*
X862Y446D01*
X862Y444D01*
X860Y444D01*
X860Y442D01*
X858Y442D01*
X858Y440D01*
X856Y440D01*
X856Y438D01*
X852Y438D01*
X852Y436D01*
X850Y436D01*
X850Y416D01*
X852Y416D01*
X852Y414D01*
X856Y414D01*
X856Y412D01*
X858Y412D01*
X858Y410D01*
X860Y410D01*
X860Y408D01*
X862Y408D01*
X862Y406D01*
X864Y406D01*
X864Y404D01*
X866Y404D01*
X866Y400D01*
X868Y400D01*
X868Y398D01*
X870Y398D01*
X870Y394D01*
X872Y394D01*
X872Y388D01*
X874Y388D01*
X874Y380D01*
X876Y380D01*
X876Y372D01*
X874Y372D01*
X874Y364D01*
X872Y364D01*
X872Y358D01*
X870Y358D01*
X870Y354D01*
X868Y354D01*
X868Y352D01*
X866Y352D01*
X866Y348D01*
X864Y348D01*
X864Y346D01*
X862Y346D01*
X862Y344D01*
X860Y344D01*
X860Y342D01*
X858Y342D01*
X858Y340D01*
X856Y340D01*
X856Y338D01*
X852Y338D01*
X852Y336D01*
X850Y336D01*
X850Y334D01*
X846Y334D01*
X846Y332D01*
X842Y332D01*
X842Y330D01*
X834Y330D01*
X834Y328D01*
X904Y328D01*
X904Y474D01*
X906Y474D01*
X906Y534D01*
X908Y534D01*
X908Y538D01*
X910Y538D01*
X910Y540D01*
X912Y540D01*
X912Y542D01*
X914Y542D01*
X914Y544D01*
X916Y544D01*
X916Y546D01*
X918Y546D01*
X918Y548D01*
X920Y548D01*
X920Y550D01*
X922Y550D01*
X922Y552D01*
X924Y552D01*
X924Y554D01*
X926Y554D01*
X926Y556D01*
X928Y556D01*
X928Y558D01*
X930Y558D01*
X930Y560D01*
X932Y560D01*
X932Y562D01*
X934Y562D01*
X934Y564D01*
X936Y564D01*
X936Y566D01*
X938Y566D01*
X938Y568D01*
X940Y568D01*
X940Y570D01*
X942Y570D01*
X942Y572D01*
X944Y572D01*
X944Y574D01*
X946Y574D01*
X946Y576D01*
X948Y576D01*
X948Y578D01*
X950Y578D01*
X950Y580D01*
X952Y580D01*
X952Y582D01*
X954Y582D01*
X954Y584D01*
X956Y584D01*
X956Y586D01*
X958Y586D01*
X958Y588D01*
X960Y588D01*
X960Y590D01*
X962Y590D01*
X962Y592D01*
X964Y592D01*
X964Y594D01*
X966Y594D01*
X966Y596D01*
X968Y596D01*
X968Y598D01*
X970Y598D01*
X970Y600D01*
X972Y600D01*
X972Y602D01*
X974Y602D01*
X974Y604D01*
X976Y604D01*
X976Y606D01*
X978Y606D01*
X978Y608D01*
X980Y608D01*
X980Y610D01*
X982Y610D01*
X982Y612D01*
X984Y612D01*
X984Y614D01*
X986Y614D01*
X986Y616D01*
X988Y616D01*
X988Y618D01*
X990Y618D01*
X990Y620D01*
X992Y620D01*
X992Y622D01*
X994Y622D01*
X994Y624D01*
X996Y624D01*
X996Y626D01*
X998Y626D01*
X998Y628D01*
X1000Y628D01*
X1000Y630D01*
X1002Y630D01*
X1002Y632D01*
X1004Y632D01*
X1004Y634D01*
X1006Y634D01*
X1006Y636D01*
X1008Y636D01*
X1008Y638D01*
X1010Y638D01*
X1010Y640D01*
X1012Y640D01*
X1012Y642D01*
X1014Y642D01*
X1014Y644D01*
X1016Y644D01*
X1016Y646D01*
X1018Y646D01*
X1018Y648D01*
X1020Y648D01*
X1020Y650D01*
X1022Y650D01*
X1022Y652D01*
X1024Y652D01*
X1024Y654D01*
X1026Y654D01*
X1026Y656D01*
X1028Y656D01*
X1028Y658D01*
X1030Y658D01*
X1030Y684D01*
X1032Y684D01*
X1032Y690D01*
X1034Y690D01*
X1034Y694D01*
X1036Y694D01*
X1036Y698D01*
X1038Y698D01*
X1038Y702D01*
X1040Y702D01*
X1040Y704D01*
X1042Y704D01*
X1042Y706D01*
X1044Y706D01*
X1044Y708D01*
X1046Y708D01*
X1046Y710D01*
X1048Y710D01*
X1048Y712D01*
X1050Y712D01*
X1050Y714D01*
X1052Y714D01*
X1052Y716D01*
X1056Y716D01*
X1056Y736D01*
X1034Y736D01*
G37*
D02*
G36*
X784Y634D02*
X784Y632D01*
X780Y632D01*
X780Y630D01*
X776Y630D01*
X776Y628D01*
X772Y628D01*
X772Y626D01*
X766Y626D01*
X766Y624D01*
X762Y624D01*
X762Y622D01*
X758Y622D01*
X758Y620D01*
X754Y620D01*
X754Y618D01*
X748Y618D01*
X748Y616D01*
X744Y616D01*
X744Y614D01*
X740Y614D01*
X740Y612D01*
X736Y612D01*
X736Y610D01*
X730Y610D01*
X730Y608D01*
X726Y608D01*
X726Y606D01*
X722Y606D01*
X722Y604D01*
X718Y604D01*
X718Y602D01*
X712Y602D01*
X712Y600D01*
X708Y600D01*
X708Y598D01*
X704Y598D01*
X704Y596D01*
X700Y596D01*
X700Y594D01*
X694Y594D01*
X694Y592D01*
X690Y592D01*
X690Y590D01*
X686Y590D01*
X686Y588D01*
X682Y588D01*
X682Y586D01*
X676Y586D01*
X676Y584D01*
X672Y584D01*
X672Y582D01*
X668Y582D01*
X668Y580D01*
X662Y580D01*
X662Y578D01*
X658Y578D01*
X658Y576D01*
X654Y576D01*
X654Y574D01*
X650Y574D01*
X650Y572D01*
X644Y572D01*
X644Y570D01*
X640Y570D01*
X640Y568D01*
X636Y568D01*
X636Y566D01*
X632Y566D01*
X632Y564D01*
X626Y564D01*
X626Y562D01*
X622Y562D01*
X622Y560D01*
X618Y560D01*
X618Y558D01*
X614Y558D01*
X614Y556D01*
X608Y556D01*
X608Y554D01*
X604Y554D01*
X604Y552D01*
X600Y552D01*
X600Y550D01*
X596Y550D01*
X596Y548D01*
X590Y548D01*
X590Y546D01*
X586Y546D01*
X586Y544D01*
X582Y544D01*
X582Y542D01*
X578Y542D01*
X578Y540D01*
X572Y540D01*
X572Y538D01*
X568Y538D01*
X568Y536D01*
X564Y536D01*
X564Y534D01*
X560Y534D01*
X560Y532D01*
X554Y532D01*
X554Y530D01*
X550Y530D01*
X550Y528D01*
X546Y528D01*
X546Y526D01*
X542Y526D01*
X542Y524D01*
X536Y524D01*
X536Y522D01*
X532Y522D01*
X532Y520D01*
X528Y520D01*
X528Y518D01*
X522Y518D01*
X522Y516D01*
X518Y516D01*
X518Y514D01*
X514Y514D01*
X514Y512D01*
X510Y512D01*
X510Y510D01*
X504Y510D01*
X504Y508D01*
X500Y508D01*
X500Y506D01*
X496Y506D01*
X496Y504D01*
X492Y504D01*
X492Y502D01*
X486Y502D01*
X486Y500D01*
X482Y500D01*
X482Y498D01*
X478Y498D01*
X478Y496D01*
X474Y496D01*
X474Y494D01*
X468Y494D01*
X468Y492D01*
X464Y492D01*
X464Y490D01*
X460Y490D01*
X460Y488D01*
X456Y488D01*
X456Y486D01*
X450Y486D01*
X450Y484D01*
X446Y484D01*
X446Y482D01*
X442Y482D01*
X442Y480D01*
X438Y480D01*
X438Y478D01*
X432Y478D01*
X432Y476D01*
X428Y476D01*
X428Y474D01*
X424Y474D01*
X424Y472D01*
X420Y472D01*
X420Y470D01*
X414Y470D01*
X414Y468D01*
X410Y468D01*
X410Y466D01*
X406Y466D01*
X406Y464D01*
X400Y464D01*
X400Y462D01*
X398Y462D01*
X398Y332D01*
X400Y332D01*
X400Y328D01*
X822Y328D01*
X822Y330D01*
X814Y330D01*
X814Y332D01*
X810Y332D01*
X810Y334D01*
X806Y334D01*
X806Y336D01*
X802Y336D01*
X802Y338D01*
X800Y338D01*
X800Y340D01*
X798Y340D01*
X798Y342D01*
X796Y342D01*
X796Y344D01*
X794Y344D01*
X794Y346D01*
X792Y346D01*
X792Y348D01*
X790Y348D01*
X790Y350D01*
X788Y350D01*
X788Y354D01*
X786Y354D01*
X786Y358D01*
X784Y358D01*
X784Y362D01*
X782Y362D01*
X782Y368D01*
X780Y368D01*
X780Y384D01*
X782Y384D01*
X782Y390D01*
X784Y390D01*
X784Y394D01*
X786Y394D01*
X786Y398D01*
X788Y398D01*
X788Y402D01*
X790Y402D01*
X790Y404D01*
X792Y404D01*
X792Y406D01*
X794Y406D01*
X794Y408D01*
X796Y408D01*
X796Y410D01*
X798Y410D01*
X798Y412D01*
X800Y412D01*
X800Y414D01*
X802Y414D01*
X802Y416D01*
X806Y416D01*
X806Y436D01*
X802Y436D01*
X802Y438D01*
X800Y438D01*
X800Y440D01*
X798Y440D01*
X798Y442D01*
X796Y442D01*
X796Y444D01*
X794Y444D01*
X794Y446D01*
X792Y446D01*
X792Y448D01*
X790Y448D01*
X790Y450D01*
X788Y450D01*
X788Y454D01*
X786Y454D01*
X786Y458D01*
X784Y458D01*
X784Y462D01*
X782Y462D01*
X782Y468D01*
X780Y468D01*
X780Y484D01*
X782Y484D01*
X782Y490D01*
X784Y490D01*
X784Y494D01*
X786Y494D01*
X786Y498D01*
X788Y498D01*
X788Y502D01*
X790Y502D01*
X790Y504D01*
X792Y504D01*
X792Y506D01*
X794Y506D01*
X794Y508D01*
X796Y508D01*
X796Y510D01*
X798Y510D01*
X798Y512D01*
X800Y512D01*
X800Y514D01*
X802Y514D01*
X802Y516D01*
X806Y516D01*
X806Y536D01*
X802Y536D01*
X802Y538D01*
X800Y538D01*
X800Y540D01*
X798Y540D01*
X798Y542D01*
X796Y542D01*
X796Y544D01*
X794Y544D01*
X794Y546D01*
X792Y546D01*
X792Y548D01*
X790Y548D01*
X790Y550D01*
X788Y550D01*
X788Y554D01*
X786Y554D01*
X786Y558D01*
X784Y558D01*
X784Y562D01*
X782Y562D01*
X782Y568D01*
X780Y568D01*
X780Y584D01*
X782Y584D01*
X782Y590D01*
X784Y590D01*
X784Y594D01*
X786Y594D01*
X786Y598D01*
X788Y598D01*
X788Y602D01*
X790Y602D01*
X790Y604D01*
X792Y604D01*
X792Y606D01*
X794Y606D01*
X794Y608D01*
X796Y608D01*
X796Y610D01*
X798Y610D01*
X798Y612D01*
X800Y612D01*
X800Y614D01*
X802Y614D01*
X802Y616D01*
X806Y616D01*
X806Y634D01*
X784Y634D01*
G37*
D02*
G36*
X1010Y478D02*
X1010Y476D01*
X1008Y476D01*
X1008Y474D01*
X1006Y474D01*
X1006Y472D01*
X1004Y472D01*
X1004Y470D01*
X1002Y470D01*
X1002Y468D01*
X1000Y468D01*
X1000Y466D01*
X998Y466D01*
X998Y388D01*
X1000Y388D01*
X1000Y168D01*
X998Y168D01*
X998Y164D01*
X996Y164D01*
X996Y160D01*
X994Y160D01*
X994Y158D01*
X990Y158D01*
X990Y156D01*
X988Y156D01*
X988Y154D01*
X866Y154D01*
X866Y152D01*
X864Y152D01*
X864Y150D01*
X862Y150D01*
X862Y148D01*
X860Y148D01*
X860Y146D01*
X858Y146D01*
X858Y144D01*
X856Y144D01*
X856Y142D01*
X854Y142D01*
X854Y140D01*
X852Y140D01*
X852Y138D01*
X848Y138D01*
X848Y136D01*
X846Y136D01*
X846Y134D01*
X840Y134D01*
X840Y132D01*
X832Y132D01*
X832Y130D01*
X1064Y130D01*
X1064Y132D01*
X1060Y132D01*
X1060Y134D01*
X1056Y134D01*
X1056Y136D01*
X1052Y136D01*
X1052Y138D01*
X1050Y138D01*
X1050Y140D01*
X1048Y140D01*
X1048Y142D01*
X1046Y142D01*
X1046Y144D01*
X1044Y144D01*
X1044Y146D01*
X1042Y146D01*
X1042Y148D01*
X1040Y148D01*
X1040Y150D01*
X1038Y150D01*
X1038Y154D01*
X1036Y154D01*
X1036Y158D01*
X1034Y158D01*
X1034Y162D01*
X1032Y162D01*
X1032Y168D01*
X1030Y168D01*
X1030Y184D01*
X1032Y184D01*
X1032Y190D01*
X1034Y190D01*
X1034Y194D01*
X1036Y194D01*
X1036Y198D01*
X1038Y198D01*
X1038Y202D01*
X1040Y202D01*
X1040Y204D01*
X1042Y204D01*
X1042Y206D01*
X1044Y206D01*
X1044Y208D01*
X1046Y208D01*
X1046Y210D01*
X1048Y210D01*
X1048Y212D01*
X1050Y212D01*
X1050Y214D01*
X1052Y214D01*
X1052Y216D01*
X1056Y216D01*
X1056Y236D01*
X1052Y236D01*
X1052Y238D01*
X1050Y238D01*
X1050Y240D01*
X1048Y240D01*
X1048Y242D01*
X1046Y242D01*
X1046Y244D01*
X1044Y244D01*
X1044Y246D01*
X1042Y246D01*
X1042Y248D01*
X1040Y248D01*
X1040Y250D01*
X1038Y250D01*
X1038Y254D01*
X1036Y254D01*
X1036Y258D01*
X1034Y258D01*
X1034Y262D01*
X1032Y262D01*
X1032Y268D01*
X1030Y268D01*
X1030Y284D01*
X1032Y284D01*
X1032Y290D01*
X1034Y290D01*
X1034Y294D01*
X1036Y294D01*
X1036Y298D01*
X1038Y298D01*
X1038Y302D01*
X1040Y302D01*
X1040Y304D01*
X1042Y304D01*
X1042Y306D01*
X1044Y306D01*
X1044Y308D01*
X1046Y308D01*
X1046Y310D01*
X1048Y310D01*
X1048Y312D01*
X1050Y312D01*
X1050Y314D01*
X1052Y314D01*
X1052Y316D01*
X1056Y316D01*
X1056Y336D01*
X1052Y336D01*
X1052Y338D01*
X1050Y338D01*
X1050Y340D01*
X1048Y340D01*
X1048Y342D01*
X1046Y342D01*
X1046Y344D01*
X1044Y344D01*
X1044Y346D01*
X1042Y346D01*
X1042Y348D01*
X1040Y348D01*
X1040Y350D01*
X1038Y350D01*
X1038Y354D01*
X1036Y354D01*
X1036Y358D01*
X1034Y358D01*
X1034Y362D01*
X1032Y362D01*
X1032Y368D01*
X1030Y368D01*
X1030Y384D01*
X1032Y384D01*
X1032Y390D01*
X1034Y390D01*
X1034Y394D01*
X1036Y394D01*
X1036Y398D01*
X1038Y398D01*
X1038Y402D01*
X1040Y402D01*
X1040Y404D01*
X1042Y404D01*
X1042Y406D01*
X1044Y406D01*
X1044Y408D01*
X1046Y408D01*
X1046Y410D01*
X1048Y410D01*
X1048Y412D01*
X1050Y412D01*
X1050Y414D01*
X1052Y414D01*
X1052Y416D01*
X1056Y416D01*
X1056Y436D01*
X1052Y436D01*
X1052Y438D01*
X1050Y438D01*
X1050Y440D01*
X1048Y440D01*
X1048Y442D01*
X1046Y442D01*
X1046Y444D01*
X1044Y444D01*
X1044Y446D01*
X1042Y446D01*
X1042Y448D01*
X1040Y448D01*
X1040Y450D01*
X1038Y450D01*
X1038Y454D01*
X1036Y454D01*
X1036Y458D01*
X1034Y458D01*
X1034Y462D01*
X1032Y462D01*
X1032Y468D01*
X1030Y468D01*
X1030Y478D01*
X1010Y478D01*
G37*
D02*
G36*
X400Y328D02*
X400Y326D01*
X904Y326D01*
X904Y328D01*
X400Y328D01*
G37*
D02*
G36*
X400Y328D02*
X400Y326D01*
X904Y326D01*
X904Y328D01*
X400Y328D01*
G37*
D02*
G36*
X400Y326D02*
X400Y228D01*
X428Y228D01*
X428Y130D01*
X628Y130D01*
X628Y132D01*
X622Y132D01*
X622Y134D01*
X616Y134D01*
X616Y136D01*
X614Y136D01*
X614Y138D01*
X610Y138D01*
X610Y140D01*
X608Y140D01*
X608Y142D01*
X606Y142D01*
X606Y144D01*
X604Y144D01*
X604Y146D01*
X602Y146D01*
X602Y148D01*
X600Y148D01*
X600Y150D01*
X598Y150D01*
X598Y152D01*
X596Y152D01*
X596Y156D01*
X594Y156D01*
X594Y160D01*
X592Y160D01*
X592Y164D01*
X590Y164D01*
X590Y188D01*
X592Y188D01*
X592Y192D01*
X594Y192D01*
X594Y196D01*
X596Y196D01*
X596Y200D01*
X598Y200D01*
X598Y202D01*
X600Y202D01*
X600Y204D01*
X602Y204D01*
X602Y206D01*
X604Y206D01*
X604Y208D01*
X606Y208D01*
X606Y210D01*
X608Y210D01*
X608Y212D01*
X610Y212D01*
X610Y214D01*
X614Y214D01*
X614Y216D01*
X618Y216D01*
X618Y218D01*
X622Y218D01*
X622Y220D01*
X630Y220D01*
X630Y222D01*
X648Y222D01*
X648Y224D01*
X650Y224D01*
X650Y226D01*
X652Y226D01*
X652Y228D01*
X654Y228D01*
X654Y230D01*
X656Y230D01*
X656Y232D01*
X658Y232D01*
X658Y234D01*
X660Y234D01*
X660Y236D01*
X662Y236D01*
X662Y238D01*
X664Y238D01*
X664Y242D01*
X666Y242D01*
X666Y244D01*
X668Y244D01*
X668Y246D01*
X670Y246D01*
X670Y248D01*
X672Y248D01*
X672Y250D01*
X674Y250D01*
X674Y252D01*
X676Y252D01*
X676Y254D01*
X678Y254D01*
X678Y256D01*
X680Y256D01*
X680Y258D01*
X682Y258D01*
X682Y260D01*
X684Y260D01*
X684Y262D01*
X686Y262D01*
X686Y264D01*
X688Y264D01*
X688Y268D01*
X690Y268D01*
X690Y270D01*
X692Y270D01*
X692Y272D01*
X694Y272D01*
X694Y274D01*
X696Y274D01*
X696Y276D01*
X698Y276D01*
X698Y278D01*
X700Y278D01*
X700Y280D01*
X702Y280D01*
X702Y282D01*
X704Y282D01*
X704Y284D01*
X706Y284D01*
X706Y286D01*
X708Y286D01*
X708Y288D01*
X710Y288D01*
X710Y290D01*
X712Y290D01*
X712Y292D01*
X714Y292D01*
X714Y294D01*
X716Y294D01*
X716Y296D01*
X720Y296D01*
X720Y298D01*
X904Y298D01*
X904Y326D01*
X400Y326D01*
G37*
D02*
G36*
X936Y258D02*
X936Y256D01*
X932Y256D01*
X932Y254D01*
X736Y254D01*
X736Y252D01*
X734Y252D01*
X734Y250D01*
X732Y250D01*
X732Y248D01*
X730Y248D01*
X730Y246D01*
X728Y246D01*
X728Y244D01*
X726Y244D01*
X726Y242D01*
X724Y242D01*
X724Y240D01*
X722Y240D01*
X722Y236D01*
X720Y236D01*
X720Y234D01*
X718Y234D01*
X718Y232D01*
X716Y232D01*
X716Y230D01*
X714Y230D01*
X714Y228D01*
X712Y228D01*
X712Y226D01*
X710Y226D01*
X710Y224D01*
X708Y224D01*
X708Y222D01*
X834Y222D01*
X834Y220D01*
X840Y220D01*
X840Y218D01*
X846Y218D01*
X846Y216D01*
X848Y216D01*
X848Y214D01*
X852Y214D01*
X852Y212D01*
X854Y212D01*
X854Y210D01*
X856Y210D01*
X856Y208D01*
X858Y208D01*
X858Y206D01*
X860Y206D01*
X860Y204D01*
X862Y204D01*
X862Y202D01*
X864Y202D01*
X864Y200D01*
X866Y200D01*
X866Y198D01*
X956Y198D01*
X956Y258D01*
X936Y258D01*
G37*
D02*
G36*
X706Y222D02*
X706Y220D01*
X704Y220D01*
X704Y218D01*
X702Y218D01*
X702Y216D01*
X700Y216D01*
X700Y214D01*
X698Y214D01*
X698Y210D01*
X696Y210D01*
X696Y208D01*
X694Y208D01*
X694Y206D01*
X692Y206D01*
X692Y204D01*
X690Y204D01*
X690Y202D01*
X688Y202D01*
X688Y200D01*
X686Y200D01*
X686Y198D01*
X684Y198D01*
X684Y196D01*
X682Y196D01*
X682Y194D01*
X680Y194D01*
X680Y168D01*
X678Y168D01*
X678Y162D01*
X676Y162D01*
X676Y158D01*
X674Y158D01*
X674Y154D01*
X672Y154D01*
X672Y152D01*
X670Y152D01*
X670Y148D01*
X668Y148D01*
X668Y146D01*
X666Y146D01*
X666Y144D01*
X664Y144D01*
X664Y142D01*
X662Y142D01*
X662Y140D01*
X658Y140D01*
X658Y138D01*
X656Y138D01*
X656Y136D01*
X652Y136D01*
X652Y134D01*
X648Y134D01*
X648Y132D01*
X640Y132D01*
X640Y130D01*
X822Y130D01*
X822Y132D01*
X814Y132D01*
X814Y134D01*
X810Y134D01*
X810Y136D01*
X806Y136D01*
X806Y138D01*
X804Y138D01*
X804Y140D01*
X800Y140D01*
X800Y142D01*
X798Y142D01*
X798Y144D01*
X796Y144D01*
X796Y146D01*
X794Y146D01*
X794Y148D01*
X792Y148D01*
X792Y152D01*
X790Y152D01*
X790Y154D01*
X788Y154D01*
X788Y158D01*
X786Y158D01*
X786Y162D01*
X784Y162D01*
X784Y168D01*
X782Y168D01*
X782Y184D01*
X784Y184D01*
X784Y190D01*
X786Y190D01*
X786Y194D01*
X788Y194D01*
X788Y198D01*
X790Y198D01*
X790Y200D01*
X792Y200D01*
X792Y204D01*
X794Y204D01*
X794Y206D01*
X796Y206D01*
X796Y208D01*
X798Y208D01*
X798Y210D01*
X800Y210D01*
X800Y212D01*
X804Y212D01*
X804Y214D01*
X806Y214D01*
X806Y216D01*
X810Y216D01*
X810Y218D01*
X814Y218D01*
X814Y220D01*
X822Y220D01*
X822Y222D01*
X706Y222D01*
G37*
D02*
G36*
X102Y154D02*
X102Y126D01*
X166Y126D01*
X166Y128D01*
X160Y128D01*
X160Y130D01*
X156Y130D01*
X156Y132D01*
X152Y132D01*
X152Y134D01*
X150Y134D01*
X150Y136D01*
X148Y136D01*
X148Y138D01*
X144Y138D01*
X144Y140D01*
X142Y140D01*
X142Y142D01*
X140Y142D01*
X140Y144D01*
X138Y144D01*
X138Y148D01*
X136Y148D01*
X136Y150D01*
X134Y150D01*
X134Y154D01*
X102Y154D01*
G37*
D02*
G36*
X218Y148D02*
X218Y146D01*
X216Y146D01*
X216Y144D01*
X214Y144D01*
X214Y142D01*
X212Y142D01*
X212Y140D01*
X210Y140D01*
X210Y138D01*
X208Y138D01*
X208Y136D01*
X206Y136D01*
X206Y134D01*
X202Y134D01*
X202Y132D01*
X200Y132D01*
X200Y130D01*
X196Y130D01*
X196Y128D01*
X190Y128D01*
X190Y126D01*
X266Y126D01*
X266Y128D01*
X260Y128D01*
X260Y130D01*
X256Y130D01*
X256Y132D01*
X252Y132D01*
X252Y134D01*
X250Y134D01*
X250Y136D01*
X248Y136D01*
X248Y138D01*
X244Y138D01*
X244Y140D01*
X242Y140D01*
X242Y142D01*
X240Y142D01*
X240Y144D01*
X238Y144D01*
X238Y148D01*
X218Y148D01*
G37*
D02*
G36*
X306Y136D02*
X306Y134D01*
X302Y134D01*
X302Y132D01*
X300Y132D01*
X300Y130D01*
X296Y130D01*
X296Y128D01*
X290Y128D01*
X290Y126D01*
X326Y126D01*
X326Y136D01*
X306Y136D01*
G37*
D02*
G36*
X428Y130D02*
X428Y128D01*
X1072Y128D01*
X1072Y130D01*
X428Y130D01*
G37*
D02*
G36*
X428Y130D02*
X428Y128D01*
X1072Y128D01*
X1072Y130D01*
X428Y130D01*
G37*
D02*
G36*
X428Y130D02*
X428Y128D01*
X1072Y128D01*
X1072Y130D01*
X428Y130D01*
G37*
D02*
G36*
X428Y128D02*
X428Y126D01*
X1156Y126D01*
X1156Y128D01*
X428Y128D01*
G37*
D02*
G36*
X428Y128D02*
X428Y126D01*
X1156Y126D01*
X1156Y128D01*
X428Y128D01*
G37*
D02*
G36*
X102Y126D02*
X102Y124D01*
X328Y124D01*
X328Y126D01*
X102Y126D01*
G37*
D02*
G36*
X102Y126D02*
X102Y124D01*
X328Y124D01*
X328Y126D01*
X102Y126D01*
G37*
D02*
G36*
X102Y126D02*
X102Y124D01*
X328Y124D01*
X328Y126D01*
X102Y126D01*
G37*
D02*
G36*
X428Y126D02*
X428Y124D01*
X1156Y124D01*
X1156Y126D01*
X428Y126D01*
G37*
D02*
G36*
X102Y124D02*
X102Y122D01*
X1156Y122D01*
X1156Y124D01*
X102Y124D01*
G37*
D02*
G36*
X102Y124D02*
X102Y122D01*
X1156Y122D01*
X1156Y124D01*
X102Y124D01*
G37*
D02*
G36*
X102Y122D02*
X102Y100D01*
X1156Y100D01*
X1156Y122D01*
X102Y122D01*
G37*
D02*
G04 End of Copper1*
M02*