G04 MADE WITH FRITZING*
G04 WWW.FRITZING.ORG*
G04 DOUBLE SIDED*
G04 HOLES PLATED*
G04 CONTOUR ON CENTER OF CONTOUR VECTOR*
%ASAXBY*%
%FSLAX23Y23*%
%MOIN*%
%OFA0B0*%
%SFA1.0B1.0*%
%ADD10C,0.049370*%
%ADD11C,0.085000*%
%ADD12C,0.092000*%
%ADD13C,0.080925*%
%ADD14C,0.080866*%
%ADD15C,0.088000*%
%ADD16R,0.085000X0.085000*%
%ADD17R,0.092000X0.092000*%
%LNMASK1*%
G90*
G70*
G54D10*
X1678Y476D03*
X1530Y1074D03*
X1678Y1074D03*
X1627Y175D03*
X1528Y576D03*
X1478Y776D03*
G54D11*
X2728Y376D03*
X2728Y76D03*
X2628Y376D03*
X2628Y76D03*
X2528Y376D03*
X2528Y76D03*
X2428Y376D03*
X2428Y76D03*
X2328Y376D03*
X2328Y76D03*
X2228Y376D03*
X2228Y76D03*
X2128Y376D03*
X2128Y76D03*
X2028Y376D03*
X2028Y76D03*
X1928Y376D03*
X1928Y76D03*
X1828Y376D03*
X1828Y76D03*
X1728Y376D03*
X1728Y76D03*
X1628Y376D03*
X1628Y76D03*
X1078Y1476D03*
X1378Y1476D03*
X1078Y1376D03*
X1378Y1376D03*
X1078Y1276D03*
X1378Y1276D03*
X1078Y1176D03*
X1378Y1176D03*
X1078Y1076D03*
X1378Y1076D03*
X1078Y976D03*
X1378Y976D03*
X1078Y876D03*
X1378Y876D03*
X1078Y776D03*
X1378Y776D03*
X1078Y676D03*
X1378Y676D03*
X1078Y576D03*
X1378Y576D03*
X1078Y476D03*
X1378Y476D03*
X1078Y376D03*
X1378Y376D03*
X1078Y276D03*
X1378Y276D03*
X1078Y176D03*
X1378Y176D03*
X228Y1476D03*
X828Y1476D03*
X228Y1376D03*
X828Y1376D03*
X228Y1276D03*
X828Y1276D03*
X228Y1176D03*
X828Y1176D03*
X228Y1076D03*
X828Y1076D03*
X228Y976D03*
X828Y976D03*
X228Y876D03*
X828Y876D03*
X228Y776D03*
X828Y776D03*
X228Y676D03*
X828Y676D03*
X228Y576D03*
X828Y576D03*
X228Y476D03*
X828Y476D03*
X228Y376D03*
X828Y376D03*
G54D12*
X378Y176D03*
X278Y176D03*
X178Y176D03*
G54D13*
X635Y176D03*
G54D14*
X828Y176D03*
G54D11*
X1628Y1176D03*
X1628Y1476D03*
X1728Y1176D03*
X1728Y1476D03*
X1828Y1176D03*
X1828Y1476D03*
X1928Y1176D03*
X1928Y1476D03*
X2028Y1176D03*
X2028Y1476D03*
X2128Y1176D03*
X2128Y1476D03*
X2228Y1176D03*
X2228Y1476D03*
X2328Y1176D03*
X2328Y1476D03*
G54D15*
X728Y1526D03*
G54D16*
X2728Y376D03*
X1078Y1476D03*
X228Y1476D03*
G54D17*
X378Y176D03*
G54D16*
X1628Y1176D03*
G04 End of Mask1*
M02*