G04 MADE WITH FRITZING*
G04 WWW.FRITZING.ORG*
G04 DOUBLE SIDED*
G04 HOLES PLATED*
G04 CONTOUR ON CENTER OF CONTOUR VECTOR*
%ASAXBY*%
%FSLAX23Y23*%
%MOIN*%
%OFA0B0*%
%SFA1.0B1.0*%
%ADD10C,0.075000*%
%ADD11C,0.078000*%
%ADD12C,0.062992*%
%ADD13R,0.075000X0.075000*%
%ADD14R,0.062992X0.062992*%
%ADD15C,0.024000*%
%ADD16C,0.012000*%
%LNCOPPER1*%
G90*
G70*
G54D10*
X2598Y1972D03*
X1473Y1814D03*
X2093Y1572D03*
X527Y826D03*
X123Y1424D03*
X120Y823D03*
X1998Y1552D03*
X1998Y952D03*
X1898Y1552D03*
X1898Y952D03*
X1798Y1552D03*
X1798Y952D03*
X1698Y1552D03*
X1698Y952D03*
X1598Y1552D03*
X1598Y952D03*
X1498Y1552D03*
X1498Y952D03*
X1398Y1552D03*
X1398Y952D03*
X1298Y1552D03*
X1298Y952D03*
X1198Y1552D03*
X1198Y952D03*
X1098Y1552D03*
X1098Y952D03*
X998Y1552D03*
X998Y952D03*
X898Y1552D03*
X898Y952D03*
X798Y1552D03*
X798Y952D03*
X698Y1552D03*
X698Y952D03*
X598Y1552D03*
X598Y952D03*
X498Y1552D03*
X498Y952D03*
X398Y1552D03*
X398Y952D03*
X298Y1552D03*
X298Y952D03*
X198Y1552D03*
X198Y952D03*
X98Y1552D03*
X98Y952D03*
G54D11*
X1298Y601D03*
X1198Y601D03*
X1098Y601D03*
G54D12*
X2398Y252D03*
X2398Y352D03*
X2398Y452D03*
X2398Y552D03*
X2398Y652D03*
X2398Y752D03*
X2398Y852D03*
X2398Y952D03*
X2398Y1052D03*
X2398Y1152D03*
X2398Y1252D03*
X2398Y1352D03*
X2398Y1452D03*
X2398Y1552D03*
X2398Y1652D03*
X2398Y1752D03*
X2398Y1852D03*
X2498Y252D03*
X2498Y352D03*
X2498Y452D03*
X2498Y552D03*
X2498Y652D03*
X2498Y752D03*
X2498Y852D03*
X2498Y952D03*
X2498Y1052D03*
X2498Y1152D03*
X2498Y1252D03*
X2498Y1352D03*
X2498Y1452D03*
X2498Y1552D03*
X2498Y1652D03*
X2498Y1752D03*
X2498Y1852D03*
G54D11*
X1298Y701D03*
X1198Y701D03*
X1098Y701D03*
G54D13*
X1998Y1552D03*
G54D14*
X2498Y252D03*
G54D15*
X2599Y1352D02*
X2516Y1270D01*
D02*
X2598Y1652D02*
X2516Y1570D01*
D02*
X2599Y1352D02*
X2598Y1652D01*
D02*
X2598Y1852D02*
X2499Y1953D01*
D02*
X1497Y1953D02*
X1118Y1573D01*
D02*
X2499Y1953D02*
X1497Y1953D01*
D02*
X2598Y1652D02*
X2598Y1852D01*
D02*
X2520Y1574D02*
X2598Y1652D01*
D02*
X1798Y1052D02*
X2298Y1052D01*
D02*
X2298Y1052D02*
X2298Y952D01*
D02*
X2298Y952D02*
X2367Y952D01*
D02*
X1798Y1524D02*
X1798Y1052D01*
D02*
X950Y101D02*
X2647Y101D01*
D02*
X2647Y101D02*
X2647Y501D01*
D02*
X217Y931D02*
X949Y101D01*
D02*
X2647Y501D02*
X2516Y635D01*
D02*
X2498Y152D02*
X2598Y152D01*
D02*
X2598Y152D02*
X2598Y452D01*
D02*
X998Y152D02*
X2498Y152D01*
D02*
X2598Y452D02*
X2520Y530D01*
D02*
X317Y931D02*
X998Y152D01*
D02*
X1398Y1652D02*
X1318Y1573D01*
D02*
X2298Y1652D02*
X1398Y1652D01*
D02*
X2298Y1152D02*
X2298Y1652D01*
D02*
X2367Y1152D02*
X2298Y1152D01*
G54D16*
D02*
X2049Y451D02*
X2298Y699D01*
D02*
X1098Y576D02*
X1098Y451D01*
D02*
X1098Y451D02*
X2049Y451D01*
D02*
X2298Y699D02*
X2447Y701D01*
D02*
X2447Y701D02*
X2480Y734D01*
D02*
X1998Y499D02*
X2298Y802D01*
D02*
X1198Y499D02*
X1998Y499D01*
D02*
X2298Y802D02*
X2549Y801D01*
D02*
X1198Y576D02*
X1198Y499D01*
D02*
X2549Y901D02*
X2516Y934D01*
D02*
X2549Y801D02*
X2549Y901D01*
D02*
X1949Y599D02*
X2247Y901D01*
D02*
X2247Y901D02*
X2449Y901D01*
D02*
X1323Y600D02*
X1949Y599D01*
D02*
X2449Y1101D02*
X2480Y1134D01*
D02*
X2449Y901D02*
X2449Y1101D01*
G54D15*
D02*
X1098Y731D02*
X1098Y924D01*
D02*
X1198Y731D02*
X1198Y924D01*
D02*
X1298Y731D02*
X1298Y924D01*
G36*
X40Y2054D02*
X40Y1976D01*
X2502Y1976D01*
X2502Y1974D01*
X2508Y1974D01*
X2508Y1972D01*
X2512Y1972D01*
X2512Y1970D01*
X2514Y1970D01*
X2514Y1968D01*
X2516Y1968D01*
X2516Y1966D01*
X2518Y1966D01*
X2518Y1964D01*
X2520Y1964D01*
X2520Y1962D01*
X2522Y1962D01*
X2522Y1960D01*
X2524Y1960D01*
X2524Y1958D01*
X2526Y1958D01*
X2526Y1956D01*
X2528Y1956D01*
X2528Y1954D01*
X2530Y1954D01*
X2530Y1952D01*
X2532Y1952D01*
X2532Y1950D01*
X2534Y1950D01*
X2534Y1948D01*
X2536Y1948D01*
X2536Y1946D01*
X2538Y1946D01*
X2538Y1944D01*
X2540Y1944D01*
X2540Y1942D01*
X2542Y1942D01*
X2542Y1940D01*
X2544Y1940D01*
X2544Y1938D01*
X2546Y1938D01*
X2546Y1936D01*
X2548Y1936D01*
X2548Y1934D01*
X2550Y1934D01*
X2550Y1932D01*
X2552Y1932D01*
X2552Y1930D01*
X2554Y1930D01*
X2554Y1928D01*
X2556Y1928D01*
X2556Y1926D01*
X2558Y1926D01*
X2558Y1924D01*
X2560Y1924D01*
X2560Y1922D01*
X2562Y1922D01*
X2562Y1920D01*
X2564Y1920D01*
X2564Y1918D01*
X2566Y1918D01*
X2566Y1916D01*
X2568Y1916D01*
X2568Y1914D01*
X2570Y1914D01*
X2570Y1912D01*
X2572Y1912D01*
X2572Y1910D01*
X2574Y1910D01*
X2574Y1908D01*
X2576Y1908D01*
X2576Y1906D01*
X2578Y1906D01*
X2578Y1904D01*
X2580Y1904D01*
X2580Y1902D01*
X2582Y1902D01*
X2582Y1900D01*
X2584Y1900D01*
X2584Y1896D01*
X2586Y1896D01*
X2586Y1894D01*
X2588Y1894D01*
X2588Y1892D01*
X2590Y1892D01*
X2590Y1890D01*
X2592Y1890D01*
X2592Y1888D01*
X2594Y1888D01*
X2594Y1886D01*
X2596Y1886D01*
X2596Y1884D01*
X2598Y1884D01*
X2598Y1882D01*
X2600Y1882D01*
X2600Y1880D01*
X2602Y1880D01*
X2602Y1878D01*
X2604Y1878D01*
X2604Y1876D01*
X2606Y1876D01*
X2606Y1874D01*
X2608Y1874D01*
X2608Y1872D01*
X2610Y1872D01*
X2610Y1870D01*
X2612Y1870D01*
X2612Y1868D01*
X2614Y1868D01*
X2614Y1866D01*
X2616Y1866D01*
X2616Y1864D01*
X2618Y1864D01*
X2618Y1860D01*
X2620Y1860D01*
X2620Y1448D01*
X2622Y1448D01*
X2622Y1348D01*
X2620Y1348D01*
X2620Y1342D01*
X2618Y1342D01*
X2618Y1338D01*
X2616Y1338D01*
X2616Y1336D01*
X2614Y1336D01*
X2614Y1334D01*
X2612Y1334D01*
X2612Y1332D01*
X2610Y1332D01*
X2610Y1330D01*
X2608Y1330D01*
X2608Y1328D01*
X2606Y1328D01*
X2606Y1326D01*
X2604Y1326D01*
X2604Y1324D01*
X2602Y1324D01*
X2602Y1322D01*
X2600Y1322D01*
X2600Y1320D01*
X2598Y1320D01*
X2598Y1318D01*
X2596Y1318D01*
X2596Y1316D01*
X2594Y1316D01*
X2594Y1314D01*
X2592Y1314D01*
X2592Y1312D01*
X2590Y1312D01*
X2590Y1310D01*
X2588Y1310D01*
X2588Y1308D01*
X2586Y1308D01*
X2586Y1306D01*
X2584Y1306D01*
X2584Y1304D01*
X2582Y1304D01*
X2582Y1302D01*
X2580Y1302D01*
X2580Y1300D01*
X2578Y1300D01*
X2578Y1298D01*
X2576Y1298D01*
X2576Y1296D01*
X2574Y1296D01*
X2574Y1294D01*
X2572Y1294D01*
X2572Y1292D01*
X2570Y1292D01*
X2570Y1290D01*
X2568Y1290D01*
X2568Y1288D01*
X2566Y1288D01*
X2566Y1286D01*
X2562Y1286D01*
X2562Y1284D01*
X2560Y1284D01*
X2560Y1282D01*
X2558Y1282D01*
X2558Y1280D01*
X2556Y1280D01*
X2556Y1278D01*
X2554Y1278D01*
X2554Y1276D01*
X2552Y1276D01*
X2552Y1274D01*
X2550Y1274D01*
X2550Y1272D01*
X2548Y1272D01*
X2548Y1270D01*
X2546Y1270D01*
X2546Y1268D01*
X2544Y1268D01*
X2544Y1266D01*
X2542Y1266D01*
X2542Y1264D01*
X2540Y1264D01*
X2540Y1246D01*
X2538Y1246D01*
X2538Y1240D01*
X2536Y1240D01*
X2536Y1234D01*
X2534Y1234D01*
X2534Y1232D01*
X2532Y1232D01*
X2532Y1228D01*
X2530Y1228D01*
X2530Y1226D01*
X2528Y1226D01*
X2528Y1224D01*
X2526Y1224D01*
X2526Y1222D01*
X2524Y1222D01*
X2524Y1220D01*
X2522Y1220D01*
X2522Y1218D01*
X2518Y1218D01*
X2518Y1216D01*
X2514Y1216D01*
X2514Y1214D01*
X2510Y1214D01*
X2510Y1212D01*
X2504Y1212D01*
X2504Y1192D01*
X2512Y1192D01*
X2512Y1190D01*
X2516Y1190D01*
X2516Y1188D01*
X2518Y1188D01*
X2518Y1186D01*
X2522Y1186D01*
X2522Y1184D01*
X2524Y1184D01*
X2524Y1182D01*
X2526Y1182D01*
X2526Y1180D01*
X2528Y1180D01*
X2528Y1178D01*
X2530Y1178D01*
X2530Y1176D01*
X2532Y1176D01*
X2532Y1172D01*
X2534Y1172D01*
X2534Y1170D01*
X2536Y1170D01*
X2536Y1166D01*
X2538Y1166D01*
X2538Y1158D01*
X2540Y1158D01*
X2540Y1146D01*
X2538Y1146D01*
X2538Y1140D01*
X2536Y1140D01*
X2536Y1134D01*
X2534Y1134D01*
X2534Y1132D01*
X2532Y1132D01*
X2532Y1128D01*
X2530Y1128D01*
X2530Y1126D01*
X2528Y1126D01*
X2528Y1124D01*
X2526Y1124D01*
X2526Y1122D01*
X2524Y1122D01*
X2524Y1120D01*
X2522Y1120D01*
X2522Y1118D01*
X2518Y1118D01*
X2518Y1116D01*
X2514Y1116D01*
X2514Y1114D01*
X2510Y1114D01*
X2510Y1112D01*
X2504Y1112D01*
X2504Y1092D01*
X2512Y1092D01*
X2512Y1090D01*
X2516Y1090D01*
X2516Y1088D01*
X2518Y1088D01*
X2518Y1086D01*
X2522Y1086D01*
X2522Y1084D01*
X2524Y1084D01*
X2524Y1082D01*
X2526Y1082D01*
X2526Y1080D01*
X2528Y1080D01*
X2528Y1078D01*
X2530Y1078D01*
X2530Y1076D01*
X2532Y1076D01*
X2532Y1072D01*
X2534Y1072D01*
X2534Y1070D01*
X2536Y1070D01*
X2536Y1066D01*
X2538Y1066D01*
X2538Y1058D01*
X2540Y1058D01*
X2540Y1046D01*
X2538Y1046D01*
X2538Y1040D01*
X2536Y1040D01*
X2536Y1034D01*
X2534Y1034D01*
X2534Y1032D01*
X2532Y1032D01*
X2532Y1028D01*
X2530Y1028D01*
X2530Y1026D01*
X2528Y1026D01*
X2528Y1024D01*
X2526Y1024D01*
X2526Y1022D01*
X2524Y1022D01*
X2524Y1020D01*
X2522Y1020D01*
X2522Y1018D01*
X2518Y1018D01*
X2518Y1016D01*
X2514Y1016D01*
X2514Y1014D01*
X2510Y1014D01*
X2510Y1012D01*
X2504Y1012D01*
X2504Y992D01*
X2512Y992D01*
X2512Y990D01*
X2516Y990D01*
X2516Y988D01*
X2518Y988D01*
X2518Y986D01*
X2522Y986D01*
X2522Y984D01*
X2524Y984D01*
X2524Y982D01*
X2526Y982D01*
X2526Y980D01*
X2528Y980D01*
X2528Y978D01*
X2530Y978D01*
X2530Y976D01*
X2532Y976D01*
X2532Y972D01*
X2534Y972D01*
X2534Y970D01*
X2536Y970D01*
X2536Y966D01*
X2538Y966D01*
X2538Y958D01*
X2540Y958D01*
X2540Y932D01*
X2542Y932D01*
X2542Y930D01*
X2544Y930D01*
X2544Y928D01*
X2546Y928D01*
X2546Y926D01*
X2548Y926D01*
X2548Y924D01*
X2550Y924D01*
X2550Y922D01*
X2552Y922D01*
X2552Y920D01*
X2554Y920D01*
X2554Y918D01*
X2556Y918D01*
X2556Y916D01*
X2558Y916D01*
X2558Y914D01*
X2560Y914D01*
X2560Y912D01*
X2562Y912D01*
X2562Y910D01*
X2564Y910D01*
X2564Y904D01*
X2566Y904D01*
X2566Y798D01*
X2564Y798D01*
X2564Y792D01*
X2562Y792D01*
X2562Y790D01*
X2560Y790D01*
X2560Y788D01*
X2556Y788D01*
X2556Y786D01*
X2536Y786D01*
X2536Y766D01*
X2538Y766D01*
X2538Y758D01*
X2540Y758D01*
X2540Y746D01*
X2538Y746D01*
X2538Y740D01*
X2536Y740D01*
X2536Y734D01*
X2534Y734D01*
X2534Y732D01*
X2532Y732D01*
X2532Y728D01*
X2530Y728D01*
X2530Y726D01*
X2528Y726D01*
X2528Y724D01*
X2526Y724D01*
X2526Y722D01*
X2524Y722D01*
X2524Y720D01*
X2522Y720D01*
X2522Y718D01*
X2518Y718D01*
X2518Y716D01*
X2514Y716D01*
X2514Y714D01*
X2510Y714D01*
X2510Y712D01*
X2504Y712D01*
X2504Y692D01*
X2512Y692D01*
X2512Y690D01*
X2516Y690D01*
X2516Y688D01*
X2518Y688D01*
X2518Y686D01*
X2522Y686D01*
X2522Y684D01*
X2524Y684D01*
X2524Y682D01*
X2526Y682D01*
X2526Y680D01*
X2528Y680D01*
X2528Y678D01*
X2530Y678D01*
X2530Y676D01*
X2532Y676D01*
X2532Y672D01*
X2534Y672D01*
X2534Y670D01*
X2536Y670D01*
X2536Y666D01*
X2538Y666D01*
X2538Y658D01*
X2540Y658D01*
X2540Y640D01*
X2542Y640D01*
X2542Y638D01*
X2544Y638D01*
X2544Y636D01*
X2546Y636D01*
X2546Y634D01*
X2548Y634D01*
X2548Y632D01*
X2550Y632D01*
X2550Y630D01*
X2552Y630D01*
X2552Y628D01*
X2554Y628D01*
X2554Y626D01*
X2556Y626D01*
X2556Y624D01*
X2558Y624D01*
X2558Y622D01*
X2560Y622D01*
X2560Y620D01*
X2562Y620D01*
X2562Y618D01*
X2564Y618D01*
X2564Y616D01*
X2566Y616D01*
X2566Y614D01*
X2568Y614D01*
X2568Y612D01*
X2570Y612D01*
X2570Y610D01*
X2572Y610D01*
X2572Y608D01*
X2574Y608D01*
X2574Y606D01*
X2576Y606D01*
X2576Y604D01*
X2578Y604D01*
X2578Y602D01*
X2580Y602D01*
X2580Y600D01*
X2582Y600D01*
X2582Y598D01*
X2584Y598D01*
X2584Y596D01*
X2586Y596D01*
X2586Y594D01*
X2588Y594D01*
X2588Y592D01*
X2590Y592D01*
X2590Y590D01*
X2592Y590D01*
X2592Y588D01*
X2594Y588D01*
X2594Y584D01*
X2596Y584D01*
X2596Y582D01*
X2598Y582D01*
X2598Y580D01*
X2600Y580D01*
X2600Y578D01*
X2602Y578D01*
X2602Y576D01*
X2604Y576D01*
X2604Y574D01*
X2606Y574D01*
X2606Y572D01*
X2608Y572D01*
X2608Y570D01*
X2610Y570D01*
X2610Y568D01*
X2612Y568D01*
X2612Y566D01*
X2614Y566D01*
X2614Y564D01*
X2616Y564D01*
X2616Y562D01*
X2618Y562D01*
X2618Y560D01*
X2620Y560D01*
X2620Y558D01*
X2622Y558D01*
X2622Y556D01*
X2624Y556D01*
X2624Y554D01*
X2626Y554D01*
X2626Y552D01*
X2628Y552D01*
X2628Y550D01*
X2630Y550D01*
X2630Y548D01*
X2632Y548D01*
X2632Y546D01*
X2634Y546D01*
X2634Y544D01*
X2636Y544D01*
X2636Y542D01*
X2638Y542D01*
X2638Y540D01*
X2640Y540D01*
X2640Y538D01*
X2642Y538D01*
X2642Y536D01*
X2644Y536D01*
X2644Y534D01*
X2646Y534D01*
X2646Y532D01*
X2648Y532D01*
X2648Y530D01*
X2650Y530D01*
X2650Y528D01*
X2652Y528D01*
X2652Y526D01*
X2654Y526D01*
X2654Y524D01*
X2656Y524D01*
X2656Y522D01*
X2658Y522D01*
X2658Y520D01*
X2660Y520D01*
X2660Y518D01*
X2680Y518D01*
X2680Y2054D01*
X40Y2054D01*
G37*
D02*
G36*
X40Y1976D02*
X40Y1830D01*
X182Y1830D01*
X182Y1832D01*
X176Y1832D01*
X176Y1834D01*
X170Y1834D01*
X170Y1836D01*
X166Y1836D01*
X166Y1838D01*
X162Y1838D01*
X162Y1840D01*
X160Y1840D01*
X160Y1842D01*
X156Y1842D01*
X156Y1844D01*
X154Y1844D01*
X154Y1846D01*
X152Y1846D01*
X152Y1848D01*
X150Y1848D01*
X150Y1850D01*
X148Y1850D01*
X148Y1852D01*
X146Y1852D01*
X146Y1854D01*
X144Y1854D01*
X144Y1856D01*
X142Y1856D01*
X142Y1858D01*
X140Y1858D01*
X140Y1860D01*
X138Y1860D01*
X138Y1864D01*
X136Y1864D01*
X136Y1866D01*
X134Y1866D01*
X134Y1870D01*
X132Y1870D01*
X132Y1874D01*
X130Y1874D01*
X130Y1880D01*
X128Y1880D01*
X128Y1886D01*
X126Y1886D01*
X126Y1918D01*
X128Y1918D01*
X128Y1924D01*
X130Y1924D01*
X130Y1930D01*
X132Y1930D01*
X132Y1934D01*
X134Y1934D01*
X134Y1938D01*
X136Y1938D01*
X136Y1942D01*
X138Y1942D01*
X138Y1944D01*
X140Y1944D01*
X140Y1946D01*
X142Y1946D01*
X142Y1948D01*
X144Y1948D01*
X144Y1952D01*
X146Y1952D01*
X146Y1954D01*
X148Y1954D01*
X148Y1956D01*
X150Y1956D01*
X150Y1958D01*
X154Y1958D01*
X154Y1960D01*
X156Y1960D01*
X156Y1962D01*
X158Y1962D01*
X158Y1964D01*
X162Y1964D01*
X162Y1966D01*
X166Y1966D01*
X166Y1968D01*
X170Y1968D01*
X170Y1970D01*
X174Y1970D01*
X174Y1972D01*
X180Y1972D01*
X180Y1974D01*
X192Y1974D01*
X192Y1976D01*
X40Y1976D01*
G37*
D02*
G36*
X204Y1976D02*
X204Y1974D01*
X216Y1974D01*
X216Y1972D01*
X222Y1972D01*
X222Y1970D01*
X226Y1970D01*
X226Y1968D01*
X230Y1968D01*
X230Y1966D01*
X234Y1966D01*
X234Y1964D01*
X238Y1964D01*
X238Y1962D01*
X240Y1962D01*
X240Y1960D01*
X242Y1960D01*
X242Y1958D01*
X246Y1958D01*
X246Y1956D01*
X248Y1956D01*
X248Y1954D01*
X250Y1954D01*
X250Y1952D01*
X252Y1952D01*
X252Y1950D01*
X254Y1950D01*
X254Y1946D01*
X256Y1946D01*
X256Y1944D01*
X258Y1944D01*
X258Y1942D01*
X260Y1942D01*
X260Y1938D01*
X262Y1938D01*
X262Y1934D01*
X264Y1934D01*
X264Y1930D01*
X266Y1930D01*
X266Y1926D01*
X268Y1926D01*
X268Y1918D01*
X270Y1918D01*
X270Y1906D01*
X272Y1906D01*
X272Y1898D01*
X270Y1898D01*
X270Y1886D01*
X268Y1886D01*
X268Y1880D01*
X266Y1880D01*
X266Y1874D01*
X264Y1874D01*
X264Y1870D01*
X262Y1870D01*
X262Y1866D01*
X260Y1866D01*
X260Y1864D01*
X258Y1864D01*
X258Y1860D01*
X256Y1860D01*
X256Y1858D01*
X254Y1858D01*
X254Y1856D01*
X252Y1856D01*
X252Y1852D01*
X250Y1852D01*
X250Y1850D01*
X246Y1850D01*
X246Y1848D01*
X244Y1848D01*
X244Y1846D01*
X242Y1846D01*
X242Y1844D01*
X240Y1844D01*
X240Y1842D01*
X236Y1842D01*
X236Y1840D01*
X234Y1840D01*
X234Y1838D01*
X230Y1838D01*
X230Y1836D01*
X226Y1836D01*
X226Y1834D01*
X220Y1834D01*
X220Y1832D01*
X214Y1832D01*
X214Y1830D01*
X1344Y1830D01*
X1344Y1832D01*
X1346Y1832D01*
X1346Y1834D01*
X1348Y1834D01*
X1348Y1836D01*
X1350Y1836D01*
X1350Y1838D01*
X1352Y1838D01*
X1352Y1840D01*
X1354Y1840D01*
X1354Y1842D01*
X1356Y1842D01*
X1356Y1844D01*
X1358Y1844D01*
X1358Y1846D01*
X1360Y1846D01*
X1360Y1848D01*
X1362Y1848D01*
X1362Y1850D01*
X1364Y1850D01*
X1364Y1852D01*
X1366Y1852D01*
X1366Y1854D01*
X1368Y1854D01*
X1368Y1856D01*
X1370Y1856D01*
X1370Y1858D01*
X1372Y1858D01*
X1372Y1860D01*
X1374Y1860D01*
X1374Y1862D01*
X1376Y1862D01*
X1376Y1864D01*
X1378Y1864D01*
X1378Y1866D01*
X1380Y1866D01*
X1380Y1868D01*
X1382Y1868D01*
X1382Y1870D01*
X1384Y1870D01*
X1384Y1872D01*
X1386Y1872D01*
X1386Y1874D01*
X1388Y1874D01*
X1388Y1876D01*
X1390Y1876D01*
X1390Y1878D01*
X1392Y1878D01*
X1392Y1880D01*
X1394Y1880D01*
X1394Y1882D01*
X1396Y1882D01*
X1396Y1884D01*
X1398Y1884D01*
X1398Y1886D01*
X1400Y1886D01*
X1400Y1888D01*
X1402Y1888D01*
X1402Y1890D01*
X1404Y1890D01*
X1404Y1892D01*
X1406Y1892D01*
X1406Y1894D01*
X1408Y1894D01*
X1408Y1896D01*
X1410Y1896D01*
X1410Y1898D01*
X1412Y1898D01*
X1412Y1900D01*
X1414Y1900D01*
X1414Y1902D01*
X1416Y1902D01*
X1416Y1904D01*
X1418Y1904D01*
X1418Y1906D01*
X1420Y1906D01*
X1420Y1908D01*
X1422Y1908D01*
X1422Y1910D01*
X1424Y1910D01*
X1424Y1912D01*
X1426Y1912D01*
X1426Y1914D01*
X1428Y1914D01*
X1428Y1916D01*
X1430Y1916D01*
X1430Y1918D01*
X1432Y1918D01*
X1432Y1920D01*
X1434Y1920D01*
X1434Y1922D01*
X1436Y1922D01*
X1436Y1924D01*
X1438Y1924D01*
X1438Y1926D01*
X1440Y1926D01*
X1440Y1928D01*
X1442Y1928D01*
X1442Y1930D01*
X1444Y1930D01*
X1444Y1932D01*
X1446Y1932D01*
X1446Y1934D01*
X1448Y1934D01*
X1448Y1936D01*
X1450Y1936D01*
X1450Y1938D01*
X1452Y1938D01*
X1452Y1940D01*
X1454Y1940D01*
X1454Y1942D01*
X1456Y1942D01*
X1456Y1944D01*
X1458Y1944D01*
X1458Y1946D01*
X1460Y1946D01*
X1460Y1948D01*
X1462Y1948D01*
X1462Y1950D01*
X1464Y1950D01*
X1464Y1952D01*
X1466Y1952D01*
X1466Y1954D01*
X1468Y1954D01*
X1468Y1956D01*
X1470Y1956D01*
X1470Y1958D01*
X1472Y1958D01*
X1472Y1960D01*
X1474Y1960D01*
X1474Y1962D01*
X1476Y1962D01*
X1476Y1964D01*
X1478Y1964D01*
X1478Y1966D01*
X1480Y1966D01*
X1480Y1968D01*
X1482Y1968D01*
X1482Y1970D01*
X1484Y1970D01*
X1484Y1972D01*
X1488Y1972D01*
X1488Y1974D01*
X1494Y1974D01*
X1494Y1976D01*
X204Y1976D01*
G37*
D02*
G36*
X40Y1830D02*
X40Y1828D01*
X1342Y1828D01*
X1342Y1830D01*
X40Y1830D01*
G37*
D02*
G36*
X40Y1830D02*
X40Y1828D01*
X1342Y1828D01*
X1342Y1830D01*
X40Y1830D01*
G37*
D02*
G36*
X40Y1828D02*
X40Y1600D01*
X1006Y1600D01*
X1006Y1598D01*
X1012Y1598D01*
X1012Y1596D01*
X1016Y1596D01*
X1016Y1594D01*
X1020Y1594D01*
X1020Y1592D01*
X1024Y1592D01*
X1024Y1590D01*
X1026Y1590D01*
X1026Y1588D01*
X1028Y1588D01*
X1028Y1586D01*
X1030Y1586D01*
X1030Y1584D01*
X1032Y1584D01*
X1032Y1582D01*
X1034Y1582D01*
X1034Y1580D01*
X1036Y1580D01*
X1036Y1578D01*
X1038Y1578D01*
X1038Y1574D01*
X1058Y1574D01*
X1058Y1576D01*
X1060Y1576D01*
X1060Y1580D01*
X1062Y1580D01*
X1062Y1582D01*
X1064Y1582D01*
X1064Y1584D01*
X1066Y1584D01*
X1066Y1586D01*
X1068Y1586D01*
X1068Y1588D01*
X1070Y1588D01*
X1070Y1590D01*
X1072Y1590D01*
X1072Y1592D01*
X1076Y1592D01*
X1076Y1594D01*
X1080Y1594D01*
X1080Y1596D01*
X1084Y1596D01*
X1084Y1598D01*
X1090Y1598D01*
X1090Y1600D01*
X1116Y1600D01*
X1116Y1602D01*
X1118Y1602D01*
X1118Y1604D01*
X1120Y1604D01*
X1120Y1606D01*
X1122Y1606D01*
X1122Y1608D01*
X1124Y1608D01*
X1124Y1610D01*
X1126Y1610D01*
X1126Y1612D01*
X1128Y1612D01*
X1128Y1614D01*
X1130Y1614D01*
X1130Y1616D01*
X1132Y1616D01*
X1132Y1618D01*
X1134Y1618D01*
X1134Y1620D01*
X1136Y1620D01*
X1136Y1622D01*
X1138Y1622D01*
X1138Y1624D01*
X1140Y1624D01*
X1140Y1626D01*
X1142Y1626D01*
X1142Y1628D01*
X1144Y1628D01*
X1144Y1630D01*
X1146Y1630D01*
X1146Y1632D01*
X1148Y1632D01*
X1148Y1634D01*
X1150Y1634D01*
X1150Y1636D01*
X1152Y1636D01*
X1152Y1638D01*
X1154Y1638D01*
X1154Y1640D01*
X1156Y1640D01*
X1156Y1642D01*
X1158Y1642D01*
X1158Y1644D01*
X1160Y1644D01*
X1160Y1646D01*
X1162Y1646D01*
X1162Y1648D01*
X1164Y1648D01*
X1164Y1650D01*
X1166Y1650D01*
X1166Y1652D01*
X1168Y1652D01*
X1168Y1654D01*
X1170Y1654D01*
X1170Y1656D01*
X1172Y1656D01*
X1172Y1658D01*
X1174Y1658D01*
X1174Y1660D01*
X1176Y1660D01*
X1176Y1662D01*
X1178Y1662D01*
X1178Y1664D01*
X1180Y1664D01*
X1180Y1666D01*
X1182Y1666D01*
X1182Y1668D01*
X1184Y1668D01*
X1184Y1670D01*
X1186Y1670D01*
X1186Y1672D01*
X1188Y1672D01*
X1188Y1674D01*
X1190Y1674D01*
X1190Y1676D01*
X1192Y1676D01*
X1192Y1678D01*
X1194Y1678D01*
X1194Y1680D01*
X1196Y1680D01*
X1196Y1682D01*
X1198Y1682D01*
X1198Y1684D01*
X1200Y1684D01*
X1200Y1686D01*
X1202Y1686D01*
X1202Y1688D01*
X1204Y1688D01*
X1204Y1690D01*
X1206Y1690D01*
X1206Y1692D01*
X1208Y1692D01*
X1208Y1694D01*
X1210Y1694D01*
X1210Y1696D01*
X1212Y1696D01*
X1212Y1698D01*
X1214Y1698D01*
X1214Y1700D01*
X1216Y1700D01*
X1216Y1702D01*
X1218Y1702D01*
X1218Y1704D01*
X1220Y1704D01*
X1220Y1706D01*
X1222Y1706D01*
X1222Y1708D01*
X1224Y1708D01*
X1224Y1710D01*
X1226Y1710D01*
X1226Y1712D01*
X1228Y1712D01*
X1228Y1714D01*
X1230Y1714D01*
X1230Y1716D01*
X1232Y1716D01*
X1232Y1718D01*
X1234Y1718D01*
X1234Y1720D01*
X1236Y1720D01*
X1236Y1722D01*
X1238Y1722D01*
X1238Y1724D01*
X1240Y1724D01*
X1240Y1726D01*
X1242Y1726D01*
X1242Y1728D01*
X1244Y1728D01*
X1244Y1730D01*
X1246Y1730D01*
X1246Y1732D01*
X1248Y1732D01*
X1248Y1734D01*
X1250Y1734D01*
X1250Y1736D01*
X1252Y1736D01*
X1252Y1738D01*
X1254Y1738D01*
X1254Y1740D01*
X1256Y1740D01*
X1256Y1742D01*
X1258Y1742D01*
X1258Y1746D01*
X1260Y1746D01*
X1260Y1748D01*
X1262Y1748D01*
X1262Y1750D01*
X1264Y1750D01*
X1264Y1752D01*
X1266Y1752D01*
X1266Y1754D01*
X1268Y1754D01*
X1268Y1756D01*
X1270Y1756D01*
X1270Y1758D01*
X1272Y1758D01*
X1272Y1760D01*
X1274Y1760D01*
X1274Y1762D01*
X1276Y1762D01*
X1276Y1764D01*
X1278Y1764D01*
X1278Y1766D01*
X1280Y1766D01*
X1280Y1768D01*
X1282Y1768D01*
X1282Y1770D01*
X1284Y1770D01*
X1284Y1772D01*
X1286Y1772D01*
X1286Y1774D01*
X1288Y1774D01*
X1288Y1776D01*
X1290Y1776D01*
X1290Y1778D01*
X1292Y1778D01*
X1292Y1780D01*
X1294Y1780D01*
X1294Y1782D01*
X1296Y1782D01*
X1296Y1784D01*
X1298Y1784D01*
X1298Y1786D01*
X1300Y1786D01*
X1300Y1788D01*
X1302Y1788D01*
X1302Y1790D01*
X1304Y1790D01*
X1304Y1792D01*
X1306Y1792D01*
X1306Y1794D01*
X1308Y1794D01*
X1308Y1796D01*
X1310Y1796D01*
X1310Y1798D01*
X1312Y1798D01*
X1312Y1800D01*
X1314Y1800D01*
X1314Y1802D01*
X1316Y1802D01*
X1316Y1804D01*
X1318Y1804D01*
X1318Y1806D01*
X1320Y1806D01*
X1320Y1808D01*
X1322Y1808D01*
X1322Y1810D01*
X1324Y1810D01*
X1324Y1812D01*
X1326Y1812D01*
X1326Y1814D01*
X1328Y1814D01*
X1328Y1816D01*
X1330Y1816D01*
X1330Y1818D01*
X1332Y1818D01*
X1332Y1820D01*
X1334Y1820D01*
X1334Y1822D01*
X1336Y1822D01*
X1336Y1824D01*
X1338Y1824D01*
X1338Y1826D01*
X1340Y1826D01*
X1340Y1828D01*
X40Y1828D01*
G37*
D02*
G36*
X40Y1600D02*
X40Y1576D01*
X60Y1576D01*
X60Y1580D01*
X62Y1580D01*
X62Y1582D01*
X64Y1582D01*
X64Y1584D01*
X66Y1584D01*
X66Y1586D01*
X68Y1586D01*
X68Y1588D01*
X70Y1588D01*
X70Y1590D01*
X72Y1590D01*
X72Y1592D01*
X76Y1592D01*
X76Y1594D01*
X80Y1594D01*
X80Y1596D01*
X84Y1596D01*
X84Y1598D01*
X90Y1598D01*
X90Y1600D01*
X40Y1600D01*
G37*
D02*
G36*
X106Y1600D02*
X106Y1598D01*
X112Y1598D01*
X112Y1596D01*
X116Y1596D01*
X116Y1594D01*
X120Y1594D01*
X120Y1592D01*
X124Y1592D01*
X124Y1590D01*
X126Y1590D01*
X126Y1588D01*
X128Y1588D01*
X128Y1586D01*
X130Y1586D01*
X130Y1584D01*
X132Y1584D01*
X132Y1582D01*
X134Y1582D01*
X134Y1580D01*
X136Y1580D01*
X136Y1578D01*
X138Y1578D01*
X138Y1574D01*
X158Y1574D01*
X158Y1576D01*
X160Y1576D01*
X160Y1580D01*
X162Y1580D01*
X162Y1582D01*
X164Y1582D01*
X164Y1584D01*
X166Y1584D01*
X166Y1586D01*
X168Y1586D01*
X168Y1588D01*
X170Y1588D01*
X170Y1590D01*
X172Y1590D01*
X172Y1592D01*
X176Y1592D01*
X176Y1594D01*
X180Y1594D01*
X180Y1596D01*
X184Y1596D01*
X184Y1598D01*
X190Y1598D01*
X190Y1600D01*
X106Y1600D01*
G37*
D02*
G36*
X206Y1600D02*
X206Y1598D01*
X212Y1598D01*
X212Y1596D01*
X216Y1596D01*
X216Y1594D01*
X220Y1594D01*
X220Y1592D01*
X224Y1592D01*
X224Y1590D01*
X226Y1590D01*
X226Y1588D01*
X228Y1588D01*
X228Y1586D01*
X230Y1586D01*
X230Y1584D01*
X232Y1584D01*
X232Y1582D01*
X234Y1582D01*
X234Y1580D01*
X236Y1580D01*
X236Y1578D01*
X238Y1578D01*
X238Y1574D01*
X258Y1574D01*
X258Y1576D01*
X260Y1576D01*
X260Y1580D01*
X262Y1580D01*
X262Y1582D01*
X264Y1582D01*
X264Y1584D01*
X266Y1584D01*
X266Y1586D01*
X268Y1586D01*
X268Y1588D01*
X270Y1588D01*
X270Y1590D01*
X272Y1590D01*
X272Y1592D01*
X276Y1592D01*
X276Y1594D01*
X280Y1594D01*
X280Y1596D01*
X284Y1596D01*
X284Y1598D01*
X290Y1598D01*
X290Y1600D01*
X206Y1600D01*
G37*
D02*
G36*
X306Y1600D02*
X306Y1598D01*
X312Y1598D01*
X312Y1596D01*
X316Y1596D01*
X316Y1594D01*
X320Y1594D01*
X320Y1592D01*
X324Y1592D01*
X324Y1590D01*
X326Y1590D01*
X326Y1588D01*
X328Y1588D01*
X328Y1586D01*
X330Y1586D01*
X330Y1584D01*
X332Y1584D01*
X332Y1582D01*
X334Y1582D01*
X334Y1580D01*
X336Y1580D01*
X336Y1578D01*
X338Y1578D01*
X338Y1574D01*
X358Y1574D01*
X358Y1576D01*
X360Y1576D01*
X360Y1580D01*
X362Y1580D01*
X362Y1582D01*
X364Y1582D01*
X364Y1584D01*
X366Y1584D01*
X366Y1586D01*
X368Y1586D01*
X368Y1588D01*
X370Y1588D01*
X370Y1590D01*
X372Y1590D01*
X372Y1592D01*
X376Y1592D01*
X376Y1594D01*
X380Y1594D01*
X380Y1596D01*
X384Y1596D01*
X384Y1598D01*
X390Y1598D01*
X390Y1600D01*
X306Y1600D01*
G37*
D02*
G36*
X406Y1600D02*
X406Y1598D01*
X412Y1598D01*
X412Y1596D01*
X416Y1596D01*
X416Y1594D01*
X420Y1594D01*
X420Y1592D01*
X424Y1592D01*
X424Y1590D01*
X426Y1590D01*
X426Y1588D01*
X428Y1588D01*
X428Y1586D01*
X430Y1586D01*
X430Y1584D01*
X432Y1584D01*
X432Y1582D01*
X434Y1582D01*
X434Y1580D01*
X436Y1580D01*
X436Y1578D01*
X438Y1578D01*
X438Y1574D01*
X458Y1574D01*
X458Y1576D01*
X460Y1576D01*
X460Y1580D01*
X462Y1580D01*
X462Y1582D01*
X464Y1582D01*
X464Y1584D01*
X466Y1584D01*
X466Y1586D01*
X468Y1586D01*
X468Y1588D01*
X470Y1588D01*
X470Y1590D01*
X472Y1590D01*
X472Y1592D01*
X476Y1592D01*
X476Y1594D01*
X480Y1594D01*
X480Y1596D01*
X484Y1596D01*
X484Y1598D01*
X490Y1598D01*
X490Y1600D01*
X406Y1600D01*
G37*
D02*
G36*
X506Y1600D02*
X506Y1598D01*
X512Y1598D01*
X512Y1596D01*
X516Y1596D01*
X516Y1594D01*
X520Y1594D01*
X520Y1592D01*
X524Y1592D01*
X524Y1590D01*
X526Y1590D01*
X526Y1588D01*
X528Y1588D01*
X528Y1586D01*
X530Y1586D01*
X530Y1584D01*
X532Y1584D01*
X532Y1582D01*
X534Y1582D01*
X534Y1580D01*
X536Y1580D01*
X536Y1578D01*
X538Y1578D01*
X538Y1574D01*
X558Y1574D01*
X558Y1576D01*
X560Y1576D01*
X560Y1580D01*
X562Y1580D01*
X562Y1582D01*
X564Y1582D01*
X564Y1584D01*
X566Y1584D01*
X566Y1586D01*
X568Y1586D01*
X568Y1588D01*
X570Y1588D01*
X570Y1590D01*
X572Y1590D01*
X572Y1592D01*
X576Y1592D01*
X576Y1594D01*
X580Y1594D01*
X580Y1596D01*
X584Y1596D01*
X584Y1598D01*
X590Y1598D01*
X590Y1600D01*
X506Y1600D01*
G37*
D02*
G36*
X606Y1600D02*
X606Y1598D01*
X612Y1598D01*
X612Y1596D01*
X616Y1596D01*
X616Y1594D01*
X620Y1594D01*
X620Y1592D01*
X624Y1592D01*
X624Y1590D01*
X626Y1590D01*
X626Y1588D01*
X628Y1588D01*
X628Y1586D01*
X630Y1586D01*
X630Y1584D01*
X632Y1584D01*
X632Y1582D01*
X634Y1582D01*
X634Y1580D01*
X636Y1580D01*
X636Y1578D01*
X638Y1578D01*
X638Y1574D01*
X658Y1574D01*
X658Y1576D01*
X660Y1576D01*
X660Y1580D01*
X662Y1580D01*
X662Y1582D01*
X664Y1582D01*
X664Y1584D01*
X666Y1584D01*
X666Y1586D01*
X668Y1586D01*
X668Y1588D01*
X670Y1588D01*
X670Y1590D01*
X672Y1590D01*
X672Y1592D01*
X676Y1592D01*
X676Y1594D01*
X680Y1594D01*
X680Y1596D01*
X684Y1596D01*
X684Y1598D01*
X690Y1598D01*
X690Y1600D01*
X606Y1600D01*
G37*
D02*
G36*
X706Y1600D02*
X706Y1598D01*
X712Y1598D01*
X712Y1596D01*
X716Y1596D01*
X716Y1594D01*
X720Y1594D01*
X720Y1592D01*
X724Y1592D01*
X724Y1590D01*
X726Y1590D01*
X726Y1588D01*
X728Y1588D01*
X728Y1586D01*
X730Y1586D01*
X730Y1584D01*
X732Y1584D01*
X732Y1582D01*
X734Y1582D01*
X734Y1580D01*
X736Y1580D01*
X736Y1578D01*
X738Y1578D01*
X738Y1574D01*
X758Y1574D01*
X758Y1576D01*
X760Y1576D01*
X760Y1580D01*
X762Y1580D01*
X762Y1582D01*
X764Y1582D01*
X764Y1584D01*
X766Y1584D01*
X766Y1586D01*
X768Y1586D01*
X768Y1588D01*
X770Y1588D01*
X770Y1590D01*
X772Y1590D01*
X772Y1592D01*
X776Y1592D01*
X776Y1594D01*
X780Y1594D01*
X780Y1596D01*
X784Y1596D01*
X784Y1598D01*
X790Y1598D01*
X790Y1600D01*
X706Y1600D01*
G37*
D02*
G36*
X806Y1600D02*
X806Y1598D01*
X812Y1598D01*
X812Y1596D01*
X816Y1596D01*
X816Y1594D01*
X820Y1594D01*
X820Y1592D01*
X824Y1592D01*
X824Y1590D01*
X826Y1590D01*
X826Y1588D01*
X828Y1588D01*
X828Y1586D01*
X830Y1586D01*
X830Y1584D01*
X832Y1584D01*
X832Y1582D01*
X834Y1582D01*
X834Y1580D01*
X836Y1580D01*
X836Y1578D01*
X838Y1578D01*
X838Y1574D01*
X858Y1574D01*
X858Y1576D01*
X860Y1576D01*
X860Y1580D01*
X862Y1580D01*
X862Y1582D01*
X864Y1582D01*
X864Y1584D01*
X866Y1584D01*
X866Y1586D01*
X868Y1586D01*
X868Y1588D01*
X870Y1588D01*
X870Y1590D01*
X872Y1590D01*
X872Y1592D01*
X876Y1592D01*
X876Y1594D01*
X880Y1594D01*
X880Y1596D01*
X884Y1596D01*
X884Y1598D01*
X890Y1598D01*
X890Y1600D01*
X806Y1600D01*
G37*
D02*
G36*
X906Y1600D02*
X906Y1598D01*
X912Y1598D01*
X912Y1596D01*
X916Y1596D01*
X916Y1594D01*
X920Y1594D01*
X920Y1592D01*
X924Y1592D01*
X924Y1590D01*
X926Y1590D01*
X926Y1588D01*
X928Y1588D01*
X928Y1586D01*
X930Y1586D01*
X930Y1584D01*
X932Y1584D01*
X932Y1582D01*
X934Y1582D01*
X934Y1580D01*
X936Y1580D01*
X936Y1578D01*
X938Y1578D01*
X938Y1574D01*
X958Y1574D01*
X958Y1576D01*
X960Y1576D01*
X960Y1580D01*
X962Y1580D01*
X962Y1582D01*
X964Y1582D01*
X964Y1584D01*
X966Y1584D01*
X966Y1586D01*
X968Y1586D01*
X968Y1588D01*
X970Y1588D01*
X970Y1590D01*
X972Y1590D01*
X972Y1592D01*
X976Y1592D01*
X976Y1594D01*
X980Y1594D01*
X980Y1596D01*
X984Y1596D01*
X984Y1598D01*
X990Y1598D01*
X990Y1600D01*
X906Y1600D01*
G37*
D02*
G36*
X1506Y1932D02*
X1506Y1930D01*
X1504Y1930D01*
X1504Y1928D01*
X1502Y1928D01*
X1502Y1926D01*
X1500Y1926D01*
X1500Y1924D01*
X1498Y1924D01*
X1498Y1922D01*
X1496Y1922D01*
X1496Y1920D01*
X1494Y1920D01*
X1494Y1918D01*
X1492Y1918D01*
X1492Y1916D01*
X1490Y1916D01*
X1490Y1914D01*
X1488Y1914D01*
X1488Y1912D01*
X1486Y1912D01*
X1486Y1910D01*
X1484Y1910D01*
X1484Y1908D01*
X1482Y1908D01*
X1482Y1906D01*
X1480Y1906D01*
X1480Y1904D01*
X1478Y1904D01*
X1478Y1902D01*
X1476Y1902D01*
X1476Y1900D01*
X1474Y1900D01*
X1474Y1898D01*
X1472Y1898D01*
X1472Y1896D01*
X1470Y1896D01*
X1470Y1894D01*
X2404Y1894D01*
X2404Y1892D01*
X2412Y1892D01*
X2412Y1890D01*
X2416Y1890D01*
X2416Y1888D01*
X2418Y1888D01*
X2418Y1886D01*
X2422Y1886D01*
X2422Y1884D01*
X2424Y1884D01*
X2424Y1882D01*
X2426Y1882D01*
X2426Y1880D01*
X2428Y1880D01*
X2428Y1878D01*
X2430Y1878D01*
X2430Y1876D01*
X2432Y1876D01*
X2432Y1872D01*
X2434Y1872D01*
X2434Y1870D01*
X2436Y1870D01*
X2436Y1866D01*
X2438Y1866D01*
X2438Y1858D01*
X2458Y1858D01*
X2458Y1864D01*
X2460Y1864D01*
X2460Y1870D01*
X2462Y1870D01*
X2462Y1872D01*
X2464Y1872D01*
X2464Y1876D01*
X2466Y1876D01*
X2466Y1878D01*
X2468Y1878D01*
X2468Y1880D01*
X2470Y1880D01*
X2470Y1882D01*
X2472Y1882D01*
X2472Y1884D01*
X2474Y1884D01*
X2474Y1886D01*
X2478Y1886D01*
X2478Y1888D01*
X2480Y1888D01*
X2480Y1890D01*
X2484Y1890D01*
X2484Y1892D01*
X2492Y1892D01*
X2492Y1894D01*
X2510Y1894D01*
X2510Y1912D01*
X2508Y1912D01*
X2508Y1914D01*
X2506Y1914D01*
X2506Y1916D01*
X2504Y1916D01*
X2504Y1918D01*
X2502Y1918D01*
X2502Y1920D01*
X2500Y1920D01*
X2500Y1922D01*
X2498Y1922D01*
X2498Y1924D01*
X2496Y1924D01*
X2496Y1926D01*
X2494Y1926D01*
X2494Y1928D01*
X2492Y1928D01*
X2492Y1930D01*
X2490Y1930D01*
X2490Y1932D01*
X1506Y1932D01*
G37*
D02*
G36*
X1468Y1894D02*
X1468Y1892D01*
X1466Y1892D01*
X1466Y1890D01*
X1464Y1890D01*
X1464Y1888D01*
X1462Y1888D01*
X1462Y1886D01*
X1460Y1886D01*
X1460Y1884D01*
X1458Y1884D01*
X1458Y1882D01*
X1456Y1882D01*
X1456Y1880D01*
X1454Y1880D01*
X1454Y1878D01*
X1452Y1878D01*
X1452Y1876D01*
X1450Y1876D01*
X1450Y1874D01*
X1448Y1874D01*
X1448Y1872D01*
X1446Y1872D01*
X1446Y1870D01*
X1444Y1870D01*
X1444Y1868D01*
X1442Y1868D01*
X1442Y1866D01*
X1440Y1866D01*
X1440Y1864D01*
X1438Y1864D01*
X1438Y1862D01*
X1436Y1862D01*
X1436Y1860D01*
X1434Y1860D01*
X1434Y1858D01*
X1432Y1858D01*
X1432Y1856D01*
X1430Y1856D01*
X1430Y1854D01*
X1428Y1854D01*
X1428Y1852D01*
X1426Y1852D01*
X1426Y1850D01*
X1424Y1850D01*
X1424Y1848D01*
X1422Y1848D01*
X1422Y1846D01*
X1420Y1846D01*
X1420Y1844D01*
X1418Y1844D01*
X1418Y1842D01*
X1416Y1842D01*
X1416Y1840D01*
X1414Y1840D01*
X1414Y1838D01*
X1412Y1838D01*
X1412Y1836D01*
X1410Y1836D01*
X1410Y1834D01*
X1408Y1834D01*
X1408Y1832D01*
X1406Y1832D01*
X1406Y1830D01*
X1404Y1830D01*
X1404Y1828D01*
X1402Y1828D01*
X1402Y1826D01*
X1400Y1826D01*
X1400Y1824D01*
X1398Y1824D01*
X1398Y1822D01*
X1396Y1822D01*
X1396Y1820D01*
X1394Y1820D01*
X1394Y1818D01*
X1392Y1818D01*
X1392Y1816D01*
X1390Y1816D01*
X1390Y1814D01*
X1388Y1814D01*
X1388Y1812D01*
X1386Y1812D01*
X1386Y1810D01*
X1384Y1810D01*
X1384Y1808D01*
X1382Y1808D01*
X1382Y1806D01*
X1380Y1806D01*
X1380Y1804D01*
X1378Y1804D01*
X1378Y1802D01*
X1376Y1802D01*
X1376Y1800D01*
X1374Y1800D01*
X1374Y1798D01*
X1372Y1798D01*
X1372Y1796D01*
X1370Y1796D01*
X1370Y1794D01*
X1368Y1794D01*
X1368Y1792D01*
X1366Y1792D01*
X1366Y1790D01*
X1364Y1790D01*
X1364Y1788D01*
X1362Y1788D01*
X1362Y1786D01*
X1360Y1786D01*
X1360Y1784D01*
X1358Y1784D01*
X1358Y1782D01*
X1356Y1782D01*
X1356Y1780D01*
X1354Y1780D01*
X1354Y1778D01*
X1352Y1778D01*
X1352Y1776D01*
X1350Y1776D01*
X1350Y1774D01*
X1348Y1774D01*
X1348Y1772D01*
X1346Y1772D01*
X1346Y1770D01*
X1344Y1770D01*
X1344Y1768D01*
X1342Y1768D01*
X1342Y1764D01*
X1340Y1764D01*
X1340Y1762D01*
X1338Y1762D01*
X1338Y1760D01*
X1336Y1760D01*
X1336Y1758D01*
X1334Y1758D01*
X1334Y1756D01*
X1332Y1756D01*
X1332Y1754D01*
X1330Y1754D01*
X1330Y1752D01*
X1328Y1752D01*
X1328Y1750D01*
X1326Y1750D01*
X1326Y1748D01*
X1324Y1748D01*
X1324Y1746D01*
X1322Y1746D01*
X1322Y1744D01*
X1320Y1744D01*
X1320Y1742D01*
X1318Y1742D01*
X1318Y1740D01*
X1316Y1740D01*
X1316Y1738D01*
X1314Y1738D01*
X1314Y1736D01*
X1312Y1736D01*
X1312Y1734D01*
X1310Y1734D01*
X1310Y1732D01*
X1308Y1732D01*
X1308Y1730D01*
X1306Y1730D01*
X1306Y1728D01*
X1304Y1728D01*
X1304Y1726D01*
X1302Y1726D01*
X1302Y1724D01*
X1300Y1724D01*
X1300Y1722D01*
X1298Y1722D01*
X1298Y1720D01*
X1296Y1720D01*
X1296Y1718D01*
X1294Y1718D01*
X1294Y1716D01*
X1292Y1716D01*
X1292Y1714D01*
X1290Y1714D01*
X1290Y1712D01*
X1288Y1712D01*
X1288Y1710D01*
X1286Y1710D01*
X1286Y1708D01*
X1284Y1708D01*
X1284Y1706D01*
X1282Y1706D01*
X1282Y1704D01*
X1280Y1704D01*
X1280Y1702D01*
X1278Y1702D01*
X1278Y1700D01*
X1276Y1700D01*
X1276Y1698D01*
X1274Y1698D01*
X1274Y1696D01*
X1272Y1696D01*
X1272Y1694D01*
X1270Y1694D01*
X1270Y1692D01*
X1268Y1692D01*
X1268Y1690D01*
X1266Y1690D01*
X1266Y1688D01*
X1264Y1688D01*
X1264Y1686D01*
X1262Y1686D01*
X1262Y1684D01*
X1260Y1684D01*
X1260Y1682D01*
X1258Y1682D01*
X1258Y1680D01*
X1256Y1680D01*
X1256Y1678D01*
X1254Y1678D01*
X1254Y1676D01*
X1252Y1676D01*
X1252Y1674D01*
X2306Y1674D01*
X2306Y1672D01*
X2310Y1672D01*
X2310Y1670D01*
X2312Y1670D01*
X2312Y1668D01*
X2314Y1668D01*
X2314Y1666D01*
X2316Y1666D01*
X2316Y1664D01*
X2318Y1664D01*
X2318Y1660D01*
X2320Y1660D01*
X2320Y1174D01*
X2364Y1174D01*
X2364Y1176D01*
X2366Y1176D01*
X2366Y1178D01*
X2368Y1178D01*
X2368Y1180D01*
X2370Y1180D01*
X2370Y1182D01*
X2372Y1182D01*
X2372Y1184D01*
X2374Y1184D01*
X2374Y1186D01*
X2378Y1186D01*
X2378Y1188D01*
X2380Y1188D01*
X2380Y1190D01*
X2384Y1190D01*
X2384Y1192D01*
X2392Y1192D01*
X2392Y1212D01*
X2386Y1212D01*
X2386Y1214D01*
X2382Y1214D01*
X2382Y1216D01*
X2378Y1216D01*
X2378Y1218D01*
X2376Y1218D01*
X2376Y1220D01*
X2372Y1220D01*
X2372Y1222D01*
X2370Y1222D01*
X2370Y1224D01*
X2368Y1224D01*
X2368Y1226D01*
X2366Y1226D01*
X2366Y1230D01*
X2364Y1230D01*
X2364Y1232D01*
X2362Y1232D01*
X2362Y1236D01*
X2360Y1236D01*
X2360Y1240D01*
X2358Y1240D01*
X2358Y1248D01*
X2356Y1248D01*
X2356Y1258D01*
X2358Y1258D01*
X2358Y1264D01*
X2360Y1264D01*
X2360Y1270D01*
X2362Y1270D01*
X2362Y1272D01*
X2364Y1272D01*
X2364Y1276D01*
X2366Y1276D01*
X2366Y1278D01*
X2368Y1278D01*
X2368Y1280D01*
X2370Y1280D01*
X2370Y1282D01*
X2372Y1282D01*
X2372Y1284D01*
X2374Y1284D01*
X2374Y1286D01*
X2378Y1286D01*
X2378Y1288D01*
X2380Y1288D01*
X2380Y1290D01*
X2384Y1290D01*
X2384Y1292D01*
X2392Y1292D01*
X2392Y1312D01*
X2386Y1312D01*
X2386Y1314D01*
X2382Y1314D01*
X2382Y1316D01*
X2378Y1316D01*
X2378Y1318D01*
X2376Y1318D01*
X2376Y1320D01*
X2372Y1320D01*
X2372Y1322D01*
X2370Y1322D01*
X2370Y1324D01*
X2368Y1324D01*
X2368Y1326D01*
X2366Y1326D01*
X2366Y1330D01*
X2364Y1330D01*
X2364Y1332D01*
X2362Y1332D01*
X2362Y1336D01*
X2360Y1336D01*
X2360Y1340D01*
X2358Y1340D01*
X2358Y1348D01*
X2356Y1348D01*
X2356Y1358D01*
X2358Y1358D01*
X2358Y1364D01*
X2360Y1364D01*
X2360Y1370D01*
X2362Y1370D01*
X2362Y1372D01*
X2364Y1372D01*
X2364Y1376D01*
X2366Y1376D01*
X2366Y1378D01*
X2368Y1378D01*
X2368Y1380D01*
X2370Y1380D01*
X2370Y1382D01*
X2372Y1382D01*
X2372Y1384D01*
X2374Y1384D01*
X2374Y1386D01*
X2378Y1386D01*
X2378Y1388D01*
X2380Y1388D01*
X2380Y1390D01*
X2384Y1390D01*
X2384Y1392D01*
X2392Y1392D01*
X2392Y1412D01*
X2386Y1412D01*
X2386Y1414D01*
X2382Y1414D01*
X2382Y1416D01*
X2378Y1416D01*
X2378Y1418D01*
X2376Y1418D01*
X2376Y1420D01*
X2372Y1420D01*
X2372Y1422D01*
X2370Y1422D01*
X2370Y1424D01*
X2368Y1424D01*
X2368Y1426D01*
X2366Y1426D01*
X2366Y1430D01*
X2364Y1430D01*
X2364Y1432D01*
X2362Y1432D01*
X2362Y1436D01*
X2360Y1436D01*
X2360Y1440D01*
X2358Y1440D01*
X2358Y1448D01*
X2356Y1448D01*
X2356Y1458D01*
X2358Y1458D01*
X2358Y1464D01*
X2360Y1464D01*
X2360Y1470D01*
X2362Y1470D01*
X2362Y1472D01*
X2364Y1472D01*
X2364Y1476D01*
X2366Y1476D01*
X2366Y1478D01*
X2368Y1478D01*
X2368Y1480D01*
X2370Y1480D01*
X2370Y1482D01*
X2372Y1482D01*
X2372Y1484D01*
X2374Y1484D01*
X2374Y1486D01*
X2378Y1486D01*
X2378Y1488D01*
X2380Y1488D01*
X2380Y1490D01*
X2384Y1490D01*
X2384Y1492D01*
X2392Y1492D01*
X2392Y1512D01*
X2386Y1512D01*
X2386Y1514D01*
X2382Y1514D01*
X2382Y1516D01*
X2378Y1516D01*
X2378Y1518D01*
X2376Y1518D01*
X2376Y1520D01*
X2372Y1520D01*
X2372Y1522D01*
X2370Y1522D01*
X2370Y1524D01*
X2368Y1524D01*
X2368Y1526D01*
X2366Y1526D01*
X2366Y1530D01*
X2364Y1530D01*
X2364Y1532D01*
X2362Y1532D01*
X2362Y1536D01*
X2360Y1536D01*
X2360Y1540D01*
X2358Y1540D01*
X2358Y1548D01*
X2356Y1548D01*
X2356Y1558D01*
X2358Y1558D01*
X2358Y1564D01*
X2360Y1564D01*
X2360Y1570D01*
X2362Y1570D01*
X2362Y1572D01*
X2364Y1572D01*
X2364Y1576D01*
X2366Y1576D01*
X2366Y1578D01*
X2368Y1578D01*
X2368Y1580D01*
X2370Y1580D01*
X2370Y1582D01*
X2372Y1582D01*
X2372Y1584D01*
X2374Y1584D01*
X2374Y1586D01*
X2378Y1586D01*
X2378Y1588D01*
X2380Y1588D01*
X2380Y1590D01*
X2384Y1590D01*
X2384Y1592D01*
X2392Y1592D01*
X2392Y1612D01*
X2386Y1612D01*
X2386Y1614D01*
X2382Y1614D01*
X2382Y1616D01*
X2378Y1616D01*
X2378Y1618D01*
X2376Y1618D01*
X2376Y1620D01*
X2372Y1620D01*
X2372Y1622D01*
X2370Y1622D01*
X2370Y1624D01*
X2368Y1624D01*
X2368Y1626D01*
X2366Y1626D01*
X2366Y1630D01*
X2364Y1630D01*
X2364Y1632D01*
X2362Y1632D01*
X2362Y1636D01*
X2360Y1636D01*
X2360Y1640D01*
X2358Y1640D01*
X2358Y1648D01*
X2356Y1648D01*
X2356Y1658D01*
X2358Y1658D01*
X2358Y1664D01*
X2360Y1664D01*
X2360Y1670D01*
X2362Y1670D01*
X2362Y1672D01*
X2364Y1672D01*
X2364Y1676D01*
X2366Y1676D01*
X2366Y1678D01*
X2368Y1678D01*
X2368Y1680D01*
X2370Y1680D01*
X2370Y1682D01*
X2372Y1682D01*
X2372Y1684D01*
X2374Y1684D01*
X2374Y1686D01*
X2378Y1686D01*
X2378Y1688D01*
X2380Y1688D01*
X2380Y1690D01*
X2384Y1690D01*
X2384Y1692D01*
X2392Y1692D01*
X2392Y1712D01*
X2386Y1712D01*
X2386Y1714D01*
X2382Y1714D01*
X2382Y1716D01*
X2378Y1716D01*
X2378Y1718D01*
X2376Y1718D01*
X2376Y1720D01*
X2372Y1720D01*
X2372Y1722D01*
X2370Y1722D01*
X2370Y1724D01*
X2368Y1724D01*
X2368Y1726D01*
X2366Y1726D01*
X2366Y1730D01*
X2364Y1730D01*
X2364Y1732D01*
X2362Y1732D01*
X2362Y1736D01*
X2360Y1736D01*
X2360Y1740D01*
X2358Y1740D01*
X2358Y1748D01*
X2356Y1748D01*
X2356Y1758D01*
X2358Y1758D01*
X2358Y1764D01*
X2360Y1764D01*
X2360Y1770D01*
X2362Y1770D01*
X2362Y1772D01*
X2364Y1772D01*
X2364Y1776D01*
X2366Y1776D01*
X2366Y1778D01*
X2368Y1778D01*
X2368Y1780D01*
X2370Y1780D01*
X2370Y1782D01*
X2372Y1782D01*
X2372Y1784D01*
X2374Y1784D01*
X2374Y1786D01*
X2378Y1786D01*
X2378Y1788D01*
X2380Y1788D01*
X2380Y1790D01*
X2384Y1790D01*
X2384Y1792D01*
X2392Y1792D01*
X2392Y1812D01*
X2386Y1812D01*
X2386Y1814D01*
X2382Y1814D01*
X2382Y1816D01*
X2378Y1816D01*
X2378Y1818D01*
X2376Y1818D01*
X2376Y1820D01*
X2372Y1820D01*
X2372Y1822D01*
X2370Y1822D01*
X2370Y1824D01*
X2368Y1824D01*
X2368Y1826D01*
X2366Y1826D01*
X2366Y1830D01*
X2364Y1830D01*
X2364Y1832D01*
X2362Y1832D01*
X2362Y1836D01*
X2360Y1836D01*
X2360Y1840D01*
X2358Y1840D01*
X2358Y1848D01*
X2356Y1848D01*
X2356Y1858D01*
X2358Y1858D01*
X2358Y1864D01*
X2360Y1864D01*
X2360Y1870D01*
X2362Y1870D01*
X2362Y1872D01*
X2364Y1872D01*
X2364Y1876D01*
X2366Y1876D01*
X2366Y1878D01*
X2368Y1878D01*
X2368Y1880D01*
X2370Y1880D01*
X2370Y1882D01*
X2372Y1882D01*
X2372Y1884D01*
X2374Y1884D01*
X2374Y1886D01*
X2378Y1886D01*
X2378Y1888D01*
X2380Y1888D01*
X2380Y1890D01*
X2384Y1890D01*
X2384Y1892D01*
X2392Y1892D01*
X2392Y1894D01*
X1468Y1894D01*
G37*
D02*
G36*
X1250Y1674D02*
X1250Y1672D01*
X1248Y1672D01*
X1248Y1670D01*
X1246Y1670D01*
X1246Y1668D01*
X1244Y1668D01*
X1244Y1666D01*
X1242Y1666D01*
X1242Y1664D01*
X1240Y1664D01*
X1240Y1662D01*
X1238Y1662D01*
X1238Y1660D01*
X1236Y1660D01*
X1236Y1658D01*
X1234Y1658D01*
X1234Y1656D01*
X1232Y1656D01*
X1232Y1654D01*
X1230Y1654D01*
X1230Y1652D01*
X1228Y1652D01*
X1228Y1650D01*
X1226Y1650D01*
X1226Y1648D01*
X1224Y1648D01*
X1224Y1646D01*
X1222Y1646D01*
X1222Y1644D01*
X1220Y1644D01*
X1220Y1642D01*
X1218Y1642D01*
X1218Y1640D01*
X1216Y1640D01*
X1216Y1638D01*
X1214Y1638D01*
X1214Y1636D01*
X1212Y1636D01*
X1212Y1634D01*
X1210Y1634D01*
X1210Y1632D01*
X1208Y1632D01*
X1208Y1630D01*
X1206Y1630D01*
X1206Y1628D01*
X1204Y1628D01*
X1204Y1626D01*
X1202Y1626D01*
X1202Y1624D01*
X1200Y1624D01*
X1200Y1622D01*
X1198Y1622D01*
X1198Y1620D01*
X1196Y1620D01*
X1196Y1600D01*
X1206Y1600D01*
X1206Y1598D01*
X1212Y1598D01*
X1212Y1596D01*
X1216Y1596D01*
X1216Y1594D01*
X1220Y1594D01*
X1220Y1592D01*
X1224Y1592D01*
X1224Y1590D01*
X1226Y1590D01*
X1226Y1588D01*
X1228Y1588D01*
X1228Y1586D01*
X1230Y1586D01*
X1230Y1584D01*
X1232Y1584D01*
X1232Y1582D01*
X1234Y1582D01*
X1234Y1580D01*
X1236Y1580D01*
X1236Y1578D01*
X1238Y1578D01*
X1238Y1574D01*
X1258Y1574D01*
X1258Y1576D01*
X1260Y1576D01*
X1260Y1580D01*
X1262Y1580D01*
X1262Y1582D01*
X1264Y1582D01*
X1264Y1584D01*
X1266Y1584D01*
X1266Y1586D01*
X1268Y1586D01*
X1268Y1588D01*
X1270Y1588D01*
X1270Y1590D01*
X1272Y1590D01*
X1272Y1592D01*
X1276Y1592D01*
X1276Y1594D01*
X1280Y1594D01*
X1280Y1596D01*
X1284Y1596D01*
X1284Y1598D01*
X1290Y1598D01*
X1290Y1600D01*
X1316Y1600D01*
X1316Y1602D01*
X1318Y1602D01*
X1318Y1604D01*
X1320Y1604D01*
X1320Y1606D01*
X1322Y1606D01*
X1322Y1608D01*
X1324Y1608D01*
X1324Y1610D01*
X1326Y1610D01*
X1326Y1612D01*
X1328Y1612D01*
X1328Y1614D01*
X1330Y1614D01*
X1330Y1616D01*
X1332Y1616D01*
X1332Y1618D01*
X1334Y1618D01*
X1334Y1620D01*
X1336Y1620D01*
X1336Y1622D01*
X1338Y1622D01*
X1338Y1624D01*
X1340Y1624D01*
X1340Y1626D01*
X1342Y1626D01*
X1342Y1628D01*
X1344Y1628D01*
X1344Y1630D01*
X1346Y1630D01*
X1346Y1632D01*
X1348Y1632D01*
X1348Y1634D01*
X1350Y1634D01*
X1350Y1636D01*
X1352Y1636D01*
X1352Y1638D01*
X1354Y1638D01*
X1354Y1640D01*
X1356Y1640D01*
X1356Y1642D01*
X1358Y1642D01*
X1358Y1644D01*
X1360Y1644D01*
X1360Y1646D01*
X1362Y1646D01*
X1362Y1648D01*
X1364Y1648D01*
X1364Y1650D01*
X1366Y1650D01*
X1366Y1652D01*
X1368Y1652D01*
X1368Y1654D01*
X1370Y1654D01*
X1370Y1656D01*
X1372Y1656D01*
X1372Y1658D01*
X1374Y1658D01*
X1374Y1660D01*
X1376Y1660D01*
X1376Y1662D01*
X1378Y1662D01*
X1378Y1664D01*
X1380Y1664D01*
X1380Y1666D01*
X1382Y1666D01*
X1382Y1668D01*
X1384Y1668D01*
X1384Y1670D01*
X1386Y1670D01*
X1386Y1672D01*
X1390Y1672D01*
X1390Y1674D01*
X1250Y1674D01*
G37*
D02*
G36*
X2538Y1862D02*
X2538Y1858D01*
X2540Y1858D01*
X2540Y1846D01*
X2538Y1846D01*
X2538Y1840D01*
X2536Y1840D01*
X2536Y1834D01*
X2534Y1834D01*
X2534Y1832D01*
X2532Y1832D01*
X2532Y1828D01*
X2530Y1828D01*
X2530Y1826D01*
X2528Y1826D01*
X2528Y1824D01*
X2526Y1824D01*
X2526Y1822D01*
X2524Y1822D01*
X2524Y1820D01*
X2522Y1820D01*
X2522Y1818D01*
X2518Y1818D01*
X2518Y1816D01*
X2514Y1816D01*
X2514Y1814D01*
X2510Y1814D01*
X2510Y1812D01*
X2504Y1812D01*
X2504Y1792D01*
X2512Y1792D01*
X2512Y1790D01*
X2516Y1790D01*
X2516Y1788D01*
X2518Y1788D01*
X2518Y1786D01*
X2522Y1786D01*
X2522Y1784D01*
X2524Y1784D01*
X2524Y1782D01*
X2526Y1782D01*
X2526Y1780D01*
X2528Y1780D01*
X2528Y1778D01*
X2530Y1778D01*
X2530Y1776D01*
X2532Y1776D01*
X2532Y1772D01*
X2534Y1772D01*
X2534Y1770D01*
X2536Y1770D01*
X2536Y1766D01*
X2538Y1766D01*
X2538Y1758D01*
X2540Y1758D01*
X2540Y1746D01*
X2538Y1746D01*
X2538Y1740D01*
X2536Y1740D01*
X2536Y1734D01*
X2534Y1734D01*
X2534Y1732D01*
X2532Y1732D01*
X2532Y1728D01*
X2530Y1728D01*
X2530Y1726D01*
X2528Y1726D01*
X2528Y1724D01*
X2526Y1724D01*
X2526Y1722D01*
X2524Y1722D01*
X2524Y1720D01*
X2522Y1720D01*
X2522Y1718D01*
X2518Y1718D01*
X2518Y1716D01*
X2514Y1716D01*
X2514Y1714D01*
X2510Y1714D01*
X2510Y1712D01*
X2504Y1712D01*
X2504Y1692D01*
X2512Y1692D01*
X2512Y1690D01*
X2516Y1690D01*
X2516Y1688D01*
X2518Y1688D01*
X2518Y1686D01*
X2522Y1686D01*
X2522Y1684D01*
X2524Y1684D01*
X2524Y1682D01*
X2526Y1682D01*
X2526Y1680D01*
X2528Y1680D01*
X2528Y1678D01*
X2530Y1678D01*
X2530Y1676D01*
X2532Y1676D01*
X2532Y1672D01*
X2534Y1672D01*
X2534Y1670D01*
X2536Y1670D01*
X2536Y1666D01*
X2538Y1666D01*
X2538Y1658D01*
X2540Y1658D01*
X2540Y1646D01*
X2538Y1646D01*
X2538Y1642D01*
X2558Y1642D01*
X2558Y1644D01*
X2560Y1644D01*
X2560Y1646D01*
X2562Y1646D01*
X2562Y1648D01*
X2564Y1648D01*
X2564Y1650D01*
X2566Y1650D01*
X2566Y1652D01*
X2568Y1652D01*
X2568Y1654D01*
X2570Y1654D01*
X2570Y1656D01*
X2572Y1656D01*
X2572Y1658D01*
X2574Y1658D01*
X2574Y1660D01*
X2576Y1660D01*
X2576Y1844D01*
X2574Y1844D01*
X2574Y1846D01*
X2572Y1846D01*
X2572Y1848D01*
X2570Y1848D01*
X2570Y1850D01*
X2568Y1850D01*
X2568Y1852D01*
X2566Y1852D01*
X2566Y1854D01*
X2564Y1854D01*
X2564Y1856D01*
X2562Y1856D01*
X2562Y1858D01*
X2560Y1858D01*
X2560Y1860D01*
X2558Y1860D01*
X2558Y1862D01*
X2538Y1862D01*
G37*
D02*
G36*
X2438Y1846D02*
X2438Y1840D01*
X2436Y1840D01*
X2436Y1834D01*
X2434Y1834D01*
X2434Y1832D01*
X2432Y1832D01*
X2432Y1828D01*
X2430Y1828D01*
X2430Y1826D01*
X2428Y1826D01*
X2428Y1824D01*
X2426Y1824D01*
X2426Y1822D01*
X2424Y1822D01*
X2424Y1820D01*
X2422Y1820D01*
X2422Y1818D01*
X2418Y1818D01*
X2418Y1816D01*
X2414Y1816D01*
X2414Y1814D01*
X2410Y1814D01*
X2410Y1812D01*
X2404Y1812D01*
X2404Y1792D01*
X2412Y1792D01*
X2412Y1790D01*
X2416Y1790D01*
X2416Y1788D01*
X2418Y1788D01*
X2418Y1786D01*
X2422Y1786D01*
X2422Y1784D01*
X2424Y1784D01*
X2424Y1782D01*
X2426Y1782D01*
X2426Y1780D01*
X2428Y1780D01*
X2428Y1778D01*
X2430Y1778D01*
X2430Y1776D01*
X2432Y1776D01*
X2432Y1772D01*
X2434Y1772D01*
X2434Y1770D01*
X2436Y1770D01*
X2436Y1766D01*
X2438Y1766D01*
X2438Y1758D01*
X2458Y1758D01*
X2458Y1764D01*
X2460Y1764D01*
X2460Y1770D01*
X2462Y1770D01*
X2462Y1772D01*
X2464Y1772D01*
X2464Y1776D01*
X2466Y1776D01*
X2466Y1778D01*
X2468Y1778D01*
X2468Y1780D01*
X2470Y1780D01*
X2470Y1782D01*
X2472Y1782D01*
X2472Y1784D01*
X2474Y1784D01*
X2474Y1786D01*
X2478Y1786D01*
X2478Y1788D01*
X2480Y1788D01*
X2480Y1790D01*
X2484Y1790D01*
X2484Y1792D01*
X2492Y1792D01*
X2492Y1812D01*
X2486Y1812D01*
X2486Y1814D01*
X2482Y1814D01*
X2482Y1816D01*
X2478Y1816D01*
X2478Y1818D01*
X2476Y1818D01*
X2476Y1820D01*
X2472Y1820D01*
X2472Y1822D01*
X2470Y1822D01*
X2470Y1824D01*
X2468Y1824D01*
X2468Y1826D01*
X2466Y1826D01*
X2466Y1830D01*
X2464Y1830D01*
X2464Y1832D01*
X2462Y1832D01*
X2462Y1836D01*
X2460Y1836D01*
X2460Y1840D01*
X2458Y1840D01*
X2458Y1846D01*
X2438Y1846D01*
G37*
D02*
G36*
X2438Y1746D02*
X2438Y1740D01*
X2436Y1740D01*
X2436Y1734D01*
X2434Y1734D01*
X2434Y1732D01*
X2432Y1732D01*
X2432Y1728D01*
X2430Y1728D01*
X2430Y1726D01*
X2428Y1726D01*
X2428Y1724D01*
X2426Y1724D01*
X2426Y1722D01*
X2424Y1722D01*
X2424Y1720D01*
X2422Y1720D01*
X2422Y1718D01*
X2418Y1718D01*
X2418Y1716D01*
X2414Y1716D01*
X2414Y1714D01*
X2410Y1714D01*
X2410Y1712D01*
X2404Y1712D01*
X2404Y1692D01*
X2412Y1692D01*
X2412Y1690D01*
X2416Y1690D01*
X2416Y1688D01*
X2418Y1688D01*
X2418Y1686D01*
X2422Y1686D01*
X2422Y1684D01*
X2424Y1684D01*
X2424Y1682D01*
X2426Y1682D01*
X2426Y1680D01*
X2428Y1680D01*
X2428Y1678D01*
X2430Y1678D01*
X2430Y1676D01*
X2432Y1676D01*
X2432Y1672D01*
X2434Y1672D01*
X2434Y1670D01*
X2436Y1670D01*
X2436Y1666D01*
X2438Y1666D01*
X2438Y1658D01*
X2458Y1658D01*
X2458Y1664D01*
X2460Y1664D01*
X2460Y1670D01*
X2462Y1670D01*
X2462Y1672D01*
X2464Y1672D01*
X2464Y1676D01*
X2466Y1676D01*
X2466Y1678D01*
X2468Y1678D01*
X2468Y1680D01*
X2470Y1680D01*
X2470Y1682D01*
X2472Y1682D01*
X2472Y1684D01*
X2474Y1684D01*
X2474Y1686D01*
X2478Y1686D01*
X2478Y1688D01*
X2480Y1688D01*
X2480Y1690D01*
X2484Y1690D01*
X2484Y1692D01*
X2492Y1692D01*
X2492Y1712D01*
X2486Y1712D01*
X2486Y1714D01*
X2482Y1714D01*
X2482Y1716D01*
X2478Y1716D01*
X2478Y1718D01*
X2476Y1718D01*
X2476Y1720D01*
X2472Y1720D01*
X2472Y1722D01*
X2470Y1722D01*
X2470Y1724D01*
X2468Y1724D01*
X2468Y1726D01*
X2466Y1726D01*
X2466Y1730D01*
X2464Y1730D01*
X2464Y1732D01*
X2462Y1732D01*
X2462Y1736D01*
X2460Y1736D01*
X2460Y1740D01*
X2458Y1740D01*
X2458Y1746D01*
X2438Y1746D01*
G37*
D02*
G36*
X2438Y1646D02*
X2438Y1640D01*
X2436Y1640D01*
X2436Y1634D01*
X2434Y1634D01*
X2434Y1632D01*
X2432Y1632D01*
X2432Y1628D01*
X2430Y1628D01*
X2430Y1626D01*
X2428Y1626D01*
X2428Y1624D01*
X2426Y1624D01*
X2426Y1622D01*
X2424Y1622D01*
X2424Y1620D01*
X2422Y1620D01*
X2422Y1618D01*
X2418Y1618D01*
X2418Y1616D01*
X2414Y1616D01*
X2414Y1614D01*
X2410Y1614D01*
X2410Y1612D01*
X2404Y1612D01*
X2404Y1592D01*
X2412Y1592D01*
X2412Y1590D01*
X2416Y1590D01*
X2416Y1588D01*
X2418Y1588D01*
X2418Y1586D01*
X2422Y1586D01*
X2422Y1584D01*
X2424Y1584D01*
X2424Y1582D01*
X2426Y1582D01*
X2426Y1580D01*
X2428Y1580D01*
X2428Y1578D01*
X2430Y1578D01*
X2430Y1576D01*
X2432Y1576D01*
X2432Y1572D01*
X2434Y1572D01*
X2434Y1570D01*
X2436Y1570D01*
X2436Y1566D01*
X2438Y1566D01*
X2438Y1558D01*
X2458Y1558D01*
X2458Y1564D01*
X2460Y1564D01*
X2460Y1570D01*
X2462Y1570D01*
X2462Y1572D01*
X2464Y1572D01*
X2464Y1576D01*
X2466Y1576D01*
X2466Y1578D01*
X2468Y1578D01*
X2468Y1580D01*
X2470Y1580D01*
X2470Y1582D01*
X2472Y1582D01*
X2472Y1584D01*
X2474Y1584D01*
X2474Y1586D01*
X2478Y1586D01*
X2478Y1588D01*
X2480Y1588D01*
X2480Y1590D01*
X2484Y1590D01*
X2484Y1592D01*
X2492Y1592D01*
X2492Y1612D01*
X2486Y1612D01*
X2486Y1614D01*
X2482Y1614D01*
X2482Y1616D01*
X2478Y1616D01*
X2478Y1618D01*
X2476Y1618D01*
X2476Y1620D01*
X2472Y1620D01*
X2472Y1622D01*
X2470Y1622D01*
X2470Y1624D01*
X2468Y1624D01*
X2468Y1626D01*
X2466Y1626D01*
X2466Y1630D01*
X2464Y1630D01*
X2464Y1632D01*
X2462Y1632D01*
X2462Y1636D01*
X2460Y1636D01*
X2460Y1640D01*
X2458Y1640D01*
X2458Y1646D01*
X2438Y1646D01*
G37*
D02*
G36*
X2556Y1580D02*
X2556Y1578D01*
X2554Y1578D01*
X2554Y1576D01*
X2552Y1576D01*
X2552Y1574D01*
X2550Y1574D01*
X2550Y1572D01*
X2548Y1572D01*
X2548Y1570D01*
X2546Y1570D01*
X2546Y1568D01*
X2544Y1568D01*
X2544Y1566D01*
X2542Y1566D01*
X2542Y1564D01*
X2540Y1564D01*
X2540Y1546D01*
X2538Y1546D01*
X2538Y1540D01*
X2536Y1540D01*
X2536Y1534D01*
X2534Y1534D01*
X2534Y1532D01*
X2532Y1532D01*
X2532Y1528D01*
X2530Y1528D01*
X2530Y1526D01*
X2528Y1526D01*
X2528Y1524D01*
X2526Y1524D01*
X2526Y1522D01*
X2524Y1522D01*
X2524Y1520D01*
X2522Y1520D01*
X2522Y1518D01*
X2518Y1518D01*
X2518Y1516D01*
X2514Y1516D01*
X2514Y1514D01*
X2510Y1514D01*
X2510Y1512D01*
X2504Y1512D01*
X2504Y1492D01*
X2512Y1492D01*
X2512Y1490D01*
X2516Y1490D01*
X2516Y1488D01*
X2518Y1488D01*
X2518Y1486D01*
X2522Y1486D01*
X2522Y1484D01*
X2524Y1484D01*
X2524Y1482D01*
X2526Y1482D01*
X2526Y1480D01*
X2528Y1480D01*
X2528Y1478D01*
X2530Y1478D01*
X2530Y1476D01*
X2532Y1476D01*
X2532Y1472D01*
X2534Y1472D01*
X2534Y1470D01*
X2536Y1470D01*
X2536Y1466D01*
X2538Y1466D01*
X2538Y1458D01*
X2540Y1458D01*
X2540Y1446D01*
X2538Y1446D01*
X2538Y1440D01*
X2536Y1440D01*
X2536Y1434D01*
X2534Y1434D01*
X2534Y1432D01*
X2532Y1432D01*
X2532Y1428D01*
X2530Y1428D01*
X2530Y1426D01*
X2528Y1426D01*
X2528Y1424D01*
X2526Y1424D01*
X2526Y1422D01*
X2524Y1422D01*
X2524Y1420D01*
X2522Y1420D01*
X2522Y1418D01*
X2518Y1418D01*
X2518Y1416D01*
X2514Y1416D01*
X2514Y1414D01*
X2510Y1414D01*
X2510Y1412D01*
X2504Y1412D01*
X2504Y1392D01*
X2512Y1392D01*
X2512Y1390D01*
X2516Y1390D01*
X2516Y1388D01*
X2518Y1388D01*
X2518Y1386D01*
X2522Y1386D01*
X2522Y1384D01*
X2524Y1384D01*
X2524Y1382D01*
X2526Y1382D01*
X2526Y1380D01*
X2528Y1380D01*
X2528Y1378D01*
X2530Y1378D01*
X2530Y1376D01*
X2532Y1376D01*
X2532Y1372D01*
X2534Y1372D01*
X2534Y1370D01*
X2536Y1370D01*
X2536Y1366D01*
X2538Y1366D01*
X2538Y1358D01*
X2540Y1358D01*
X2540Y1346D01*
X2538Y1346D01*
X2538Y1340D01*
X2558Y1340D01*
X2558Y1342D01*
X2560Y1342D01*
X2560Y1344D01*
X2562Y1344D01*
X2562Y1346D01*
X2564Y1346D01*
X2564Y1348D01*
X2566Y1348D01*
X2566Y1350D01*
X2568Y1350D01*
X2568Y1352D01*
X2570Y1352D01*
X2570Y1354D01*
X2572Y1354D01*
X2572Y1356D01*
X2574Y1356D01*
X2574Y1358D01*
X2576Y1358D01*
X2576Y1360D01*
X2578Y1360D01*
X2578Y1444D01*
X2576Y1444D01*
X2576Y1580D01*
X2556Y1580D01*
G37*
D02*
G36*
X2438Y1546D02*
X2438Y1540D01*
X2436Y1540D01*
X2436Y1534D01*
X2434Y1534D01*
X2434Y1532D01*
X2432Y1532D01*
X2432Y1528D01*
X2430Y1528D01*
X2430Y1526D01*
X2428Y1526D01*
X2428Y1524D01*
X2426Y1524D01*
X2426Y1522D01*
X2424Y1522D01*
X2424Y1520D01*
X2422Y1520D01*
X2422Y1518D01*
X2418Y1518D01*
X2418Y1516D01*
X2414Y1516D01*
X2414Y1514D01*
X2410Y1514D01*
X2410Y1512D01*
X2404Y1512D01*
X2404Y1492D01*
X2412Y1492D01*
X2412Y1490D01*
X2416Y1490D01*
X2416Y1488D01*
X2418Y1488D01*
X2418Y1486D01*
X2422Y1486D01*
X2422Y1484D01*
X2424Y1484D01*
X2424Y1482D01*
X2426Y1482D01*
X2426Y1480D01*
X2428Y1480D01*
X2428Y1478D01*
X2430Y1478D01*
X2430Y1476D01*
X2432Y1476D01*
X2432Y1472D01*
X2434Y1472D01*
X2434Y1470D01*
X2436Y1470D01*
X2436Y1466D01*
X2438Y1466D01*
X2438Y1458D01*
X2458Y1458D01*
X2458Y1464D01*
X2460Y1464D01*
X2460Y1470D01*
X2462Y1470D01*
X2462Y1472D01*
X2464Y1472D01*
X2464Y1476D01*
X2466Y1476D01*
X2466Y1478D01*
X2468Y1478D01*
X2468Y1480D01*
X2470Y1480D01*
X2470Y1482D01*
X2472Y1482D01*
X2472Y1484D01*
X2474Y1484D01*
X2474Y1486D01*
X2478Y1486D01*
X2478Y1488D01*
X2480Y1488D01*
X2480Y1490D01*
X2484Y1490D01*
X2484Y1492D01*
X2492Y1492D01*
X2492Y1512D01*
X2486Y1512D01*
X2486Y1514D01*
X2482Y1514D01*
X2482Y1516D01*
X2478Y1516D01*
X2478Y1518D01*
X2476Y1518D01*
X2476Y1520D01*
X2472Y1520D01*
X2472Y1522D01*
X2470Y1522D01*
X2470Y1524D01*
X2468Y1524D01*
X2468Y1526D01*
X2466Y1526D01*
X2466Y1530D01*
X2464Y1530D01*
X2464Y1532D01*
X2462Y1532D01*
X2462Y1536D01*
X2460Y1536D01*
X2460Y1540D01*
X2458Y1540D01*
X2458Y1546D01*
X2438Y1546D01*
G37*
D02*
G36*
X1406Y1630D02*
X1406Y1628D01*
X1404Y1628D01*
X1404Y1626D01*
X1402Y1626D01*
X1402Y1624D01*
X1400Y1624D01*
X1400Y1622D01*
X1398Y1622D01*
X1398Y1620D01*
X1396Y1620D01*
X1396Y1600D01*
X2046Y1600D01*
X2046Y1504D01*
X2276Y1504D01*
X2276Y1630D01*
X1406Y1630D01*
G37*
D02*
G36*
X1406Y1600D02*
X1406Y1598D01*
X1412Y1598D01*
X1412Y1596D01*
X1416Y1596D01*
X1416Y1594D01*
X1420Y1594D01*
X1420Y1592D01*
X1424Y1592D01*
X1424Y1590D01*
X1426Y1590D01*
X1426Y1588D01*
X1428Y1588D01*
X1428Y1586D01*
X1430Y1586D01*
X1430Y1584D01*
X1432Y1584D01*
X1432Y1582D01*
X1434Y1582D01*
X1434Y1580D01*
X1436Y1580D01*
X1436Y1578D01*
X1438Y1578D01*
X1438Y1574D01*
X1458Y1574D01*
X1458Y1576D01*
X1460Y1576D01*
X1460Y1580D01*
X1462Y1580D01*
X1462Y1582D01*
X1464Y1582D01*
X1464Y1584D01*
X1466Y1584D01*
X1466Y1586D01*
X1468Y1586D01*
X1468Y1588D01*
X1470Y1588D01*
X1470Y1590D01*
X1472Y1590D01*
X1472Y1592D01*
X1476Y1592D01*
X1476Y1594D01*
X1480Y1594D01*
X1480Y1596D01*
X1484Y1596D01*
X1484Y1598D01*
X1490Y1598D01*
X1490Y1600D01*
X1406Y1600D01*
G37*
D02*
G36*
X1506Y1600D02*
X1506Y1598D01*
X1512Y1598D01*
X1512Y1596D01*
X1516Y1596D01*
X1516Y1594D01*
X1520Y1594D01*
X1520Y1592D01*
X1524Y1592D01*
X1524Y1590D01*
X1526Y1590D01*
X1526Y1588D01*
X1528Y1588D01*
X1528Y1586D01*
X1530Y1586D01*
X1530Y1584D01*
X1532Y1584D01*
X1532Y1582D01*
X1534Y1582D01*
X1534Y1580D01*
X1536Y1580D01*
X1536Y1578D01*
X1538Y1578D01*
X1538Y1574D01*
X1558Y1574D01*
X1558Y1576D01*
X1560Y1576D01*
X1560Y1580D01*
X1562Y1580D01*
X1562Y1582D01*
X1564Y1582D01*
X1564Y1584D01*
X1566Y1584D01*
X1566Y1586D01*
X1568Y1586D01*
X1568Y1588D01*
X1570Y1588D01*
X1570Y1590D01*
X1572Y1590D01*
X1572Y1592D01*
X1576Y1592D01*
X1576Y1594D01*
X1580Y1594D01*
X1580Y1596D01*
X1584Y1596D01*
X1584Y1598D01*
X1590Y1598D01*
X1590Y1600D01*
X1506Y1600D01*
G37*
D02*
G36*
X1606Y1600D02*
X1606Y1598D01*
X1612Y1598D01*
X1612Y1596D01*
X1616Y1596D01*
X1616Y1594D01*
X1620Y1594D01*
X1620Y1592D01*
X1624Y1592D01*
X1624Y1590D01*
X1626Y1590D01*
X1626Y1588D01*
X1628Y1588D01*
X1628Y1586D01*
X1630Y1586D01*
X1630Y1584D01*
X1632Y1584D01*
X1632Y1582D01*
X1634Y1582D01*
X1634Y1580D01*
X1636Y1580D01*
X1636Y1578D01*
X1638Y1578D01*
X1638Y1574D01*
X1658Y1574D01*
X1658Y1576D01*
X1660Y1576D01*
X1660Y1580D01*
X1662Y1580D01*
X1662Y1582D01*
X1664Y1582D01*
X1664Y1584D01*
X1666Y1584D01*
X1666Y1586D01*
X1668Y1586D01*
X1668Y1588D01*
X1670Y1588D01*
X1670Y1590D01*
X1672Y1590D01*
X1672Y1592D01*
X1676Y1592D01*
X1676Y1594D01*
X1680Y1594D01*
X1680Y1596D01*
X1684Y1596D01*
X1684Y1598D01*
X1690Y1598D01*
X1690Y1600D01*
X1606Y1600D01*
G37*
D02*
G36*
X1706Y1600D02*
X1706Y1598D01*
X1712Y1598D01*
X1712Y1596D01*
X1716Y1596D01*
X1716Y1594D01*
X1720Y1594D01*
X1720Y1592D01*
X1724Y1592D01*
X1724Y1590D01*
X1726Y1590D01*
X1726Y1588D01*
X1728Y1588D01*
X1728Y1586D01*
X1730Y1586D01*
X1730Y1584D01*
X1732Y1584D01*
X1732Y1582D01*
X1734Y1582D01*
X1734Y1580D01*
X1736Y1580D01*
X1736Y1578D01*
X1738Y1578D01*
X1738Y1574D01*
X1758Y1574D01*
X1758Y1576D01*
X1760Y1576D01*
X1760Y1580D01*
X1762Y1580D01*
X1762Y1582D01*
X1764Y1582D01*
X1764Y1584D01*
X1766Y1584D01*
X1766Y1586D01*
X1768Y1586D01*
X1768Y1588D01*
X1770Y1588D01*
X1770Y1590D01*
X1772Y1590D01*
X1772Y1592D01*
X1776Y1592D01*
X1776Y1594D01*
X1780Y1594D01*
X1780Y1596D01*
X1784Y1596D01*
X1784Y1598D01*
X1790Y1598D01*
X1790Y1600D01*
X1706Y1600D01*
G37*
D02*
G36*
X1806Y1600D02*
X1806Y1598D01*
X1812Y1598D01*
X1812Y1596D01*
X1816Y1596D01*
X1816Y1594D01*
X1820Y1594D01*
X1820Y1592D01*
X1824Y1592D01*
X1824Y1590D01*
X1826Y1590D01*
X1826Y1588D01*
X1828Y1588D01*
X1828Y1586D01*
X1830Y1586D01*
X1830Y1584D01*
X1832Y1584D01*
X1832Y1582D01*
X1834Y1582D01*
X1834Y1580D01*
X1836Y1580D01*
X1836Y1578D01*
X1838Y1578D01*
X1838Y1574D01*
X1858Y1574D01*
X1858Y1576D01*
X1860Y1576D01*
X1860Y1580D01*
X1862Y1580D01*
X1862Y1582D01*
X1864Y1582D01*
X1864Y1584D01*
X1866Y1584D01*
X1866Y1586D01*
X1868Y1586D01*
X1868Y1588D01*
X1870Y1588D01*
X1870Y1590D01*
X1872Y1590D01*
X1872Y1592D01*
X1876Y1592D01*
X1876Y1594D01*
X1880Y1594D01*
X1880Y1596D01*
X1884Y1596D01*
X1884Y1598D01*
X1890Y1598D01*
X1890Y1600D01*
X1806Y1600D01*
G37*
D02*
G36*
X1906Y1600D02*
X1906Y1598D01*
X1912Y1598D01*
X1912Y1596D01*
X1916Y1596D01*
X1916Y1594D01*
X1920Y1594D01*
X1920Y1592D01*
X1924Y1592D01*
X1924Y1590D01*
X1926Y1590D01*
X1926Y1588D01*
X1928Y1588D01*
X1928Y1586D01*
X1930Y1586D01*
X1930Y1584D01*
X1950Y1584D01*
X1950Y1600D01*
X1906Y1600D01*
G37*
D02*
G36*
X1838Y1530D02*
X1838Y1528D01*
X1836Y1528D01*
X1836Y1524D01*
X1834Y1524D01*
X1834Y1522D01*
X1832Y1522D01*
X1832Y1520D01*
X1830Y1520D01*
X1830Y1518D01*
X1828Y1518D01*
X1828Y1516D01*
X1826Y1516D01*
X1826Y1514D01*
X1822Y1514D01*
X1822Y1512D01*
X1820Y1512D01*
X1820Y1504D01*
X1894Y1504D01*
X1894Y1506D01*
X1886Y1506D01*
X1886Y1508D01*
X1880Y1508D01*
X1880Y1510D01*
X1876Y1510D01*
X1876Y1512D01*
X1874Y1512D01*
X1874Y1514D01*
X1870Y1514D01*
X1870Y1516D01*
X1868Y1516D01*
X1868Y1518D01*
X1866Y1518D01*
X1866Y1520D01*
X1864Y1520D01*
X1864Y1522D01*
X1862Y1522D01*
X1862Y1524D01*
X1860Y1524D01*
X1860Y1528D01*
X1858Y1528D01*
X1858Y1530D01*
X1838Y1530D01*
G37*
D02*
G36*
X1930Y1520D02*
X1930Y1518D01*
X1928Y1518D01*
X1928Y1516D01*
X1926Y1516D01*
X1926Y1514D01*
X1922Y1514D01*
X1922Y1512D01*
X1920Y1512D01*
X1920Y1510D01*
X1916Y1510D01*
X1916Y1508D01*
X1910Y1508D01*
X1910Y1506D01*
X1902Y1506D01*
X1902Y1504D01*
X1952Y1504D01*
X1952Y1506D01*
X1950Y1506D01*
X1950Y1520D01*
X1930Y1520D01*
G37*
D02*
G36*
X1820Y1504D02*
X1820Y1502D01*
X2276Y1502D01*
X2276Y1504D01*
X1820Y1504D01*
G37*
D02*
G36*
X1820Y1504D02*
X1820Y1502D01*
X2276Y1502D01*
X2276Y1504D01*
X1820Y1504D01*
G37*
D02*
G36*
X1820Y1504D02*
X1820Y1502D01*
X2276Y1502D01*
X2276Y1504D01*
X1820Y1504D01*
G37*
D02*
G36*
X1820Y1502D02*
X1820Y1074D01*
X2306Y1074D01*
X2306Y1072D01*
X2310Y1072D01*
X2310Y1070D01*
X2312Y1070D01*
X2312Y1068D01*
X2314Y1068D01*
X2314Y1066D01*
X2316Y1066D01*
X2316Y1064D01*
X2318Y1064D01*
X2318Y1060D01*
X2320Y1060D01*
X2320Y974D01*
X2364Y974D01*
X2364Y976D01*
X2366Y976D01*
X2366Y978D01*
X2368Y978D01*
X2368Y980D01*
X2370Y980D01*
X2370Y982D01*
X2372Y982D01*
X2372Y984D01*
X2374Y984D01*
X2374Y986D01*
X2378Y986D01*
X2378Y988D01*
X2380Y988D01*
X2380Y990D01*
X2384Y990D01*
X2384Y992D01*
X2392Y992D01*
X2392Y1012D01*
X2386Y1012D01*
X2386Y1014D01*
X2382Y1014D01*
X2382Y1016D01*
X2378Y1016D01*
X2378Y1018D01*
X2376Y1018D01*
X2376Y1020D01*
X2372Y1020D01*
X2372Y1022D01*
X2370Y1022D01*
X2370Y1024D01*
X2368Y1024D01*
X2368Y1026D01*
X2366Y1026D01*
X2366Y1030D01*
X2364Y1030D01*
X2364Y1032D01*
X2362Y1032D01*
X2362Y1036D01*
X2360Y1036D01*
X2360Y1040D01*
X2358Y1040D01*
X2358Y1048D01*
X2356Y1048D01*
X2356Y1058D01*
X2358Y1058D01*
X2358Y1064D01*
X2360Y1064D01*
X2360Y1070D01*
X2362Y1070D01*
X2362Y1072D01*
X2364Y1072D01*
X2364Y1076D01*
X2366Y1076D01*
X2366Y1078D01*
X2368Y1078D01*
X2368Y1080D01*
X2370Y1080D01*
X2370Y1082D01*
X2372Y1082D01*
X2372Y1084D01*
X2374Y1084D01*
X2374Y1086D01*
X2378Y1086D01*
X2378Y1088D01*
X2380Y1088D01*
X2380Y1090D01*
X2384Y1090D01*
X2384Y1092D01*
X2392Y1092D01*
X2392Y1112D01*
X2386Y1112D01*
X2386Y1114D01*
X2382Y1114D01*
X2382Y1116D01*
X2378Y1116D01*
X2378Y1118D01*
X2376Y1118D01*
X2376Y1120D01*
X2372Y1120D01*
X2372Y1122D01*
X2370Y1122D01*
X2370Y1124D01*
X2368Y1124D01*
X2368Y1126D01*
X2366Y1126D01*
X2366Y1130D01*
X2292Y1130D01*
X2292Y1132D01*
X2288Y1132D01*
X2288Y1134D01*
X2284Y1134D01*
X2284Y1136D01*
X2282Y1136D01*
X2282Y1138D01*
X2280Y1138D01*
X2280Y1142D01*
X2278Y1142D01*
X2278Y1146D01*
X2276Y1146D01*
X2276Y1502D01*
X1820Y1502D01*
G37*
D02*
G36*
X2438Y1446D02*
X2438Y1440D01*
X2436Y1440D01*
X2436Y1434D01*
X2434Y1434D01*
X2434Y1432D01*
X2432Y1432D01*
X2432Y1428D01*
X2430Y1428D01*
X2430Y1426D01*
X2428Y1426D01*
X2428Y1424D01*
X2426Y1424D01*
X2426Y1422D01*
X2424Y1422D01*
X2424Y1420D01*
X2422Y1420D01*
X2422Y1418D01*
X2418Y1418D01*
X2418Y1416D01*
X2414Y1416D01*
X2414Y1414D01*
X2410Y1414D01*
X2410Y1412D01*
X2404Y1412D01*
X2404Y1392D01*
X2412Y1392D01*
X2412Y1390D01*
X2416Y1390D01*
X2416Y1388D01*
X2418Y1388D01*
X2418Y1386D01*
X2422Y1386D01*
X2422Y1384D01*
X2424Y1384D01*
X2424Y1382D01*
X2426Y1382D01*
X2426Y1380D01*
X2428Y1380D01*
X2428Y1378D01*
X2430Y1378D01*
X2430Y1376D01*
X2432Y1376D01*
X2432Y1372D01*
X2434Y1372D01*
X2434Y1370D01*
X2436Y1370D01*
X2436Y1366D01*
X2438Y1366D01*
X2438Y1358D01*
X2458Y1358D01*
X2458Y1364D01*
X2460Y1364D01*
X2460Y1370D01*
X2462Y1370D01*
X2462Y1372D01*
X2464Y1372D01*
X2464Y1376D01*
X2466Y1376D01*
X2466Y1378D01*
X2468Y1378D01*
X2468Y1380D01*
X2470Y1380D01*
X2470Y1382D01*
X2472Y1382D01*
X2472Y1384D01*
X2474Y1384D01*
X2474Y1386D01*
X2478Y1386D01*
X2478Y1388D01*
X2480Y1388D01*
X2480Y1390D01*
X2484Y1390D01*
X2484Y1392D01*
X2492Y1392D01*
X2492Y1412D01*
X2486Y1412D01*
X2486Y1414D01*
X2482Y1414D01*
X2482Y1416D01*
X2478Y1416D01*
X2478Y1418D01*
X2476Y1418D01*
X2476Y1420D01*
X2472Y1420D01*
X2472Y1422D01*
X2470Y1422D01*
X2470Y1424D01*
X2468Y1424D01*
X2468Y1426D01*
X2466Y1426D01*
X2466Y1430D01*
X2464Y1430D01*
X2464Y1432D01*
X2462Y1432D01*
X2462Y1436D01*
X2460Y1436D01*
X2460Y1440D01*
X2458Y1440D01*
X2458Y1446D01*
X2438Y1446D01*
G37*
D02*
G36*
X2438Y1346D02*
X2438Y1340D01*
X2436Y1340D01*
X2436Y1334D01*
X2434Y1334D01*
X2434Y1332D01*
X2432Y1332D01*
X2432Y1328D01*
X2430Y1328D01*
X2430Y1326D01*
X2428Y1326D01*
X2428Y1324D01*
X2426Y1324D01*
X2426Y1322D01*
X2424Y1322D01*
X2424Y1320D01*
X2422Y1320D01*
X2422Y1318D01*
X2418Y1318D01*
X2418Y1316D01*
X2414Y1316D01*
X2414Y1314D01*
X2410Y1314D01*
X2410Y1312D01*
X2404Y1312D01*
X2404Y1292D01*
X2412Y1292D01*
X2412Y1290D01*
X2416Y1290D01*
X2416Y1288D01*
X2418Y1288D01*
X2418Y1286D01*
X2422Y1286D01*
X2422Y1284D01*
X2424Y1284D01*
X2424Y1282D01*
X2426Y1282D01*
X2426Y1280D01*
X2428Y1280D01*
X2428Y1278D01*
X2430Y1278D01*
X2430Y1276D01*
X2432Y1276D01*
X2432Y1272D01*
X2434Y1272D01*
X2434Y1270D01*
X2436Y1270D01*
X2436Y1266D01*
X2438Y1266D01*
X2438Y1258D01*
X2458Y1258D01*
X2458Y1264D01*
X2460Y1264D01*
X2460Y1270D01*
X2462Y1270D01*
X2462Y1272D01*
X2464Y1272D01*
X2464Y1276D01*
X2466Y1276D01*
X2466Y1278D01*
X2468Y1278D01*
X2468Y1280D01*
X2470Y1280D01*
X2470Y1282D01*
X2472Y1282D01*
X2472Y1284D01*
X2474Y1284D01*
X2474Y1286D01*
X2478Y1286D01*
X2478Y1288D01*
X2480Y1288D01*
X2480Y1290D01*
X2484Y1290D01*
X2484Y1292D01*
X2492Y1292D01*
X2492Y1312D01*
X2486Y1312D01*
X2486Y1314D01*
X2482Y1314D01*
X2482Y1316D01*
X2478Y1316D01*
X2478Y1318D01*
X2476Y1318D01*
X2476Y1320D01*
X2472Y1320D01*
X2472Y1322D01*
X2470Y1322D01*
X2470Y1324D01*
X2468Y1324D01*
X2468Y1326D01*
X2466Y1326D01*
X2466Y1330D01*
X2464Y1330D01*
X2464Y1332D01*
X2462Y1332D01*
X2462Y1336D01*
X2460Y1336D01*
X2460Y1340D01*
X2458Y1340D01*
X2458Y1346D01*
X2438Y1346D01*
G37*
D02*
G36*
X2438Y1246D02*
X2438Y1240D01*
X2436Y1240D01*
X2436Y1234D01*
X2434Y1234D01*
X2434Y1232D01*
X2432Y1232D01*
X2432Y1228D01*
X2430Y1228D01*
X2430Y1226D01*
X2428Y1226D01*
X2428Y1224D01*
X2426Y1224D01*
X2426Y1222D01*
X2424Y1222D01*
X2424Y1220D01*
X2422Y1220D01*
X2422Y1218D01*
X2418Y1218D01*
X2418Y1216D01*
X2414Y1216D01*
X2414Y1214D01*
X2410Y1214D01*
X2410Y1212D01*
X2404Y1212D01*
X2404Y1192D01*
X2412Y1192D01*
X2412Y1190D01*
X2416Y1190D01*
X2416Y1188D01*
X2418Y1188D01*
X2418Y1186D01*
X2422Y1186D01*
X2422Y1184D01*
X2424Y1184D01*
X2424Y1182D01*
X2426Y1182D01*
X2426Y1180D01*
X2428Y1180D01*
X2428Y1178D01*
X2430Y1178D01*
X2430Y1176D01*
X2432Y1176D01*
X2432Y1172D01*
X2434Y1172D01*
X2434Y1170D01*
X2436Y1170D01*
X2436Y1166D01*
X2438Y1166D01*
X2438Y1158D01*
X2458Y1158D01*
X2458Y1164D01*
X2460Y1164D01*
X2460Y1170D01*
X2462Y1170D01*
X2462Y1172D01*
X2464Y1172D01*
X2464Y1176D01*
X2466Y1176D01*
X2466Y1178D01*
X2468Y1178D01*
X2468Y1180D01*
X2470Y1180D01*
X2470Y1182D01*
X2472Y1182D01*
X2472Y1184D01*
X2474Y1184D01*
X2474Y1186D01*
X2478Y1186D01*
X2478Y1188D01*
X2480Y1188D01*
X2480Y1190D01*
X2484Y1190D01*
X2484Y1192D01*
X2492Y1192D01*
X2492Y1212D01*
X2486Y1212D01*
X2486Y1214D01*
X2482Y1214D01*
X2482Y1216D01*
X2478Y1216D01*
X2478Y1218D01*
X2476Y1218D01*
X2476Y1220D01*
X2472Y1220D01*
X2472Y1222D01*
X2470Y1222D01*
X2470Y1224D01*
X2468Y1224D01*
X2468Y1226D01*
X2466Y1226D01*
X2466Y1230D01*
X2464Y1230D01*
X2464Y1232D01*
X2462Y1232D01*
X2462Y1236D01*
X2460Y1236D01*
X2460Y1240D01*
X2458Y1240D01*
X2458Y1246D01*
X2438Y1246D01*
G37*
D02*
G36*
X2436Y1140D02*
X2436Y1134D01*
X2434Y1134D01*
X2434Y1132D01*
X2432Y1132D01*
X2432Y1128D01*
X2430Y1128D01*
X2430Y1126D01*
X2428Y1126D01*
X2428Y1124D01*
X2426Y1124D01*
X2426Y1122D01*
X2424Y1122D01*
X2424Y1120D01*
X2422Y1120D01*
X2422Y1118D01*
X2418Y1118D01*
X2418Y1116D01*
X2414Y1116D01*
X2414Y1114D01*
X2410Y1114D01*
X2410Y1112D01*
X2404Y1112D01*
X2404Y1092D01*
X2412Y1092D01*
X2412Y1090D01*
X2434Y1090D01*
X2434Y1108D01*
X2436Y1108D01*
X2436Y1112D01*
X2438Y1112D01*
X2438Y1114D01*
X2440Y1114D01*
X2440Y1116D01*
X2442Y1116D01*
X2442Y1118D01*
X2444Y1118D01*
X2444Y1120D01*
X2446Y1120D01*
X2446Y1122D01*
X2448Y1122D01*
X2448Y1124D01*
X2450Y1124D01*
X2450Y1126D01*
X2452Y1126D01*
X2452Y1128D01*
X2454Y1128D01*
X2454Y1130D01*
X2456Y1130D01*
X2456Y1140D01*
X2436Y1140D01*
G37*
D02*
G36*
X438Y930D02*
X438Y928D01*
X436Y928D01*
X436Y924D01*
X434Y924D01*
X434Y922D01*
X432Y922D01*
X432Y920D01*
X430Y920D01*
X430Y918D01*
X428Y918D01*
X428Y916D01*
X426Y916D01*
X426Y914D01*
X422Y914D01*
X422Y912D01*
X420Y912D01*
X420Y910D01*
X416Y910D01*
X416Y908D01*
X410Y908D01*
X410Y906D01*
X402Y906D01*
X402Y904D01*
X494Y904D01*
X494Y906D01*
X486Y906D01*
X486Y908D01*
X480Y908D01*
X480Y910D01*
X476Y910D01*
X476Y912D01*
X474Y912D01*
X474Y914D01*
X470Y914D01*
X470Y916D01*
X468Y916D01*
X468Y918D01*
X466Y918D01*
X466Y920D01*
X464Y920D01*
X464Y922D01*
X462Y922D01*
X462Y924D01*
X460Y924D01*
X460Y928D01*
X458Y928D01*
X458Y930D01*
X438Y930D01*
G37*
D02*
G36*
X538Y930D02*
X538Y928D01*
X536Y928D01*
X536Y924D01*
X534Y924D01*
X534Y922D01*
X532Y922D01*
X532Y920D01*
X530Y920D01*
X530Y918D01*
X528Y918D01*
X528Y916D01*
X526Y916D01*
X526Y914D01*
X522Y914D01*
X522Y912D01*
X520Y912D01*
X520Y910D01*
X516Y910D01*
X516Y908D01*
X510Y908D01*
X510Y906D01*
X502Y906D01*
X502Y904D01*
X594Y904D01*
X594Y906D01*
X586Y906D01*
X586Y908D01*
X580Y908D01*
X580Y910D01*
X576Y910D01*
X576Y912D01*
X574Y912D01*
X574Y914D01*
X570Y914D01*
X570Y916D01*
X568Y916D01*
X568Y918D01*
X566Y918D01*
X566Y920D01*
X564Y920D01*
X564Y922D01*
X562Y922D01*
X562Y924D01*
X560Y924D01*
X560Y928D01*
X558Y928D01*
X558Y930D01*
X538Y930D01*
G37*
D02*
G36*
X638Y930D02*
X638Y928D01*
X636Y928D01*
X636Y924D01*
X634Y924D01*
X634Y922D01*
X632Y922D01*
X632Y920D01*
X630Y920D01*
X630Y918D01*
X628Y918D01*
X628Y916D01*
X626Y916D01*
X626Y914D01*
X622Y914D01*
X622Y912D01*
X620Y912D01*
X620Y910D01*
X616Y910D01*
X616Y908D01*
X610Y908D01*
X610Y906D01*
X602Y906D01*
X602Y904D01*
X694Y904D01*
X694Y906D01*
X686Y906D01*
X686Y908D01*
X680Y908D01*
X680Y910D01*
X676Y910D01*
X676Y912D01*
X674Y912D01*
X674Y914D01*
X670Y914D01*
X670Y916D01*
X668Y916D01*
X668Y918D01*
X666Y918D01*
X666Y920D01*
X664Y920D01*
X664Y922D01*
X662Y922D01*
X662Y924D01*
X660Y924D01*
X660Y928D01*
X658Y928D01*
X658Y930D01*
X638Y930D01*
G37*
D02*
G36*
X738Y930D02*
X738Y928D01*
X736Y928D01*
X736Y924D01*
X734Y924D01*
X734Y922D01*
X732Y922D01*
X732Y920D01*
X730Y920D01*
X730Y918D01*
X728Y918D01*
X728Y916D01*
X726Y916D01*
X726Y914D01*
X722Y914D01*
X722Y912D01*
X720Y912D01*
X720Y910D01*
X716Y910D01*
X716Y908D01*
X710Y908D01*
X710Y906D01*
X702Y906D01*
X702Y904D01*
X794Y904D01*
X794Y906D01*
X786Y906D01*
X786Y908D01*
X780Y908D01*
X780Y910D01*
X776Y910D01*
X776Y912D01*
X774Y912D01*
X774Y914D01*
X770Y914D01*
X770Y916D01*
X768Y916D01*
X768Y918D01*
X766Y918D01*
X766Y920D01*
X764Y920D01*
X764Y922D01*
X762Y922D01*
X762Y924D01*
X760Y924D01*
X760Y928D01*
X758Y928D01*
X758Y930D01*
X738Y930D01*
G37*
D02*
G36*
X838Y930D02*
X838Y928D01*
X836Y928D01*
X836Y924D01*
X834Y924D01*
X834Y922D01*
X832Y922D01*
X832Y920D01*
X830Y920D01*
X830Y918D01*
X828Y918D01*
X828Y916D01*
X826Y916D01*
X826Y914D01*
X822Y914D01*
X822Y912D01*
X820Y912D01*
X820Y910D01*
X816Y910D01*
X816Y908D01*
X810Y908D01*
X810Y906D01*
X802Y906D01*
X802Y904D01*
X894Y904D01*
X894Y906D01*
X886Y906D01*
X886Y908D01*
X880Y908D01*
X880Y910D01*
X876Y910D01*
X876Y912D01*
X874Y912D01*
X874Y914D01*
X870Y914D01*
X870Y916D01*
X868Y916D01*
X868Y918D01*
X866Y918D01*
X866Y920D01*
X864Y920D01*
X864Y922D01*
X862Y922D01*
X862Y924D01*
X860Y924D01*
X860Y928D01*
X858Y928D01*
X858Y930D01*
X838Y930D01*
G37*
D02*
G36*
X938Y930D02*
X938Y928D01*
X936Y928D01*
X936Y924D01*
X934Y924D01*
X934Y922D01*
X932Y922D01*
X932Y920D01*
X930Y920D01*
X930Y918D01*
X928Y918D01*
X928Y916D01*
X926Y916D01*
X926Y914D01*
X922Y914D01*
X922Y912D01*
X920Y912D01*
X920Y910D01*
X916Y910D01*
X916Y908D01*
X910Y908D01*
X910Y906D01*
X902Y906D01*
X902Y904D01*
X994Y904D01*
X994Y906D01*
X986Y906D01*
X986Y908D01*
X980Y908D01*
X980Y910D01*
X976Y910D01*
X976Y912D01*
X974Y912D01*
X974Y914D01*
X970Y914D01*
X970Y916D01*
X968Y916D01*
X968Y918D01*
X966Y918D01*
X966Y920D01*
X964Y920D01*
X964Y922D01*
X962Y922D01*
X962Y924D01*
X960Y924D01*
X960Y928D01*
X958Y928D01*
X958Y930D01*
X938Y930D01*
G37*
D02*
G36*
X1038Y930D02*
X1038Y928D01*
X1036Y928D01*
X1036Y924D01*
X1034Y924D01*
X1034Y922D01*
X1032Y922D01*
X1032Y920D01*
X1030Y920D01*
X1030Y918D01*
X1028Y918D01*
X1028Y916D01*
X1026Y916D01*
X1026Y914D01*
X1022Y914D01*
X1022Y912D01*
X1020Y912D01*
X1020Y910D01*
X1016Y910D01*
X1016Y908D01*
X1010Y908D01*
X1010Y906D01*
X1002Y906D01*
X1002Y904D01*
X1076Y904D01*
X1076Y912D01*
X1074Y912D01*
X1074Y914D01*
X1070Y914D01*
X1070Y916D01*
X1068Y916D01*
X1068Y918D01*
X1066Y918D01*
X1066Y920D01*
X1064Y920D01*
X1064Y922D01*
X1062Y922D01*
X1062Y924D01*
X1060Y924D01*
X1060Y928D01*
X1058Y928D01*
X1058Y930D01*
X1038Y930D01*
G37*
D02*
G36*
X382Y904D02*
X382Y902D01*
X1076Y902D01*
X1076Y904D01*
X382Y904D01*
G37*
D02*
G36*
X382Y904D02*
X382Y902D01*
X1076Y902D01*
X1076Y904D01*
X382Y904D01*
G37*
D02*
G36*
X382Y904D02*
X382Y902D01*
X1076Y902D01*
X1076Y904D01*
X382Y904D01*
G37*
D02*
G36*
X382Y904D02*
X382Y902D01*
X1076Y902D01*
X1076Y904D01*
X382Y904D01*
G37*
D02*
G36*
X382Y904D02*
X382Y902D01*
X1076Y902D01*
X1076Y904D01*
X382Y904D01*
G37*
D02*
G36*
X382Y904D02*
X382Y902D01*
X1076Y902D01*
X1076Y904D01*
X382Y904D01*
G37*
D02*
G36*
X382Y904D02*
X382Y902D01*
X1076Y902D01*
X1076Y904D01*
X382Y904D01*
G37*
D02*
G36*
X382Y902D02*
X382Y888D01*
X384Y888D01*
X384Y886D01*
X386Y886D01*
X386Y884D01*
X388Y884D01*
X388Y882D01*
X390Y882D01*
X390Y880D01*
X392Y880D01*
X392Y878D01*
X394Y878D01*
X394Y874D01*
X396Y874D01*
X396Y872D01*
X398Y872D01*
X398Y870D01*
X400Y870D01*
X400Y868D01*
X402Y868D01*
X402Y866D01*
X404Y866D01*
X404Y864D01*
X406Y864D01*
X406Y862D01*
X408Y862D01*
X408Y858D01*
X410Y858D01*
X410Y856D01*
X412Y856D01*
X412Y854D01*
X414Y854D01*
X414Y852D01*
X416Y852D01*
X416Y850D01*
X418Y850D01*
X418Y848D01*
X420Y848D01*
X420Y846D01*
X422Y846D01*
X422Y842D01*
X424Y842D01*
X424Y840D01*
X426Y840D01*
X426Y838D01*
X428Y838D01*
X428Y836D01*
X430Y836D01*
X430Y834D01*
X432Y834D01*
X432Y832D01*
X434Y832D01*
X434Y830D01*
X436Y830D01*
X436Y826D01*
X438Y826D01*
X438Y824D01*
X440Y824D01*
X440Y822D01*
X442Y822D01*
X442Y820D01*
X444Y820D01*
X444Y818D01*
X446Y818D01*
X446Y816D01*
X448Y816D01*
X448Y814D01*
X450Y814D01*
X450Y810D01*
X452Y810D01*
X452Y808D01*
X454Y808D01*
X454Y806D01*
X456Y806D01*
X456Y804D01*
X458Y804D01*
X458Y802D01*
X460Y802D01*
X460Y800D01*
X462Y800D01*
X462Y798D01*
X464Y798D01*
X464Y794D01*
X466Y794D01*
X466Y792D01*
X468Y792D01*
X468Y790D01*
X470Y790D01*
X470Y788D01*
X472Y788D01*
X472Y786D01*
X474Y786D01*
X474Y784D01*
X476Y784D01*
X476Y782D01*
X478Y782D01*
X478Y778D01*
X480Y778D01*
X480Y776D01*
X482Y776D01*
X482Y774D01*
X484Y774D01*
X484Y772D01*
X486Y772D01*
X486Y770D01*
X488Y770D01*
X488Y768D01*
X490Y768D01*
X490Y766D01*
X492Y766D01*
X492Y762D01*
X494Y762D01*
X494Y760D01*
X496Y760D01*
X496Y758D01*
X498Y758D01*
X498Y756D01*
X500Y756D01*
X500Y754D01*
X502Y754D01*
X502Y752D01*
X504Y752D01*
X504Y750D01*
X506Y750D01*
X506Y746D01*
X508Y746D01*
X508Y744D01*
X510Y744D01*
X510Y742D01*
X512Y742D01*
X512Y740D01*
X514Y740D01*
X514Y738D01*
X516Y738D01*
X516Y736D01*
X518Y736D01*
X518Y734D01*
X520Y734D01*
X520Y730D01*
X522Y730D01*
X522Y728D01*
X524Y728D01*
X524Y726D01*
X526Y726D01*
X526Y724D01*
X528Y724D01*
X528Y722D01*
X530Y722D01*
X530Y720D01*
X532Y720D01*
X532Y718D01*
X534Y718D01*
X534Y714D01*
X536Y714D01*
X536Y712D01*
X538Y712D01*
X538Y710D01*
X540Y710D01*
X540Y708D01*
X542Y708D01*
X542Y706D01*
X544Y706D01*
X544Y704D01*
X546Y704D01*
X546Y702D01*
X548Y702D01*
X548Y698D01*
X550Y698D01*
X550Y696D01*
X552Y696D01*
X552Y694D01*
X554Y694D01*
X554Y692D01*
X556Y692D01*
X556Y690D01*
X558Y690D01*
X558Y688D01*
X560Y688D01*
X560Y686D01*
X562Y686D01*
X562Y682D01*
X564Y682D01*
X564Y680D01*
X566Y680D01*
X566Y678D01*
X568Y678D01*
X568Y676D01*
X570Y676D01*
X570Y674D01*
X572Y674D01*
X572Y672D01*
X574Y672D01*
X574Y670D01*
X576Y670D01*
X576Y666D01*
X578Y666D01*
X578Y664D01*
X580Y664D01*
X580Y662D01*
X582Y662D01*
X582Y660D01*
X584Y660D01*
X584Y658D01*
X586Y658D01*
X586Y656D01*
X588Y656D01*
X588Y654D01*
X590Y654D01*
X590Y650D01*
X592Y650D01*
X592Y648D01*
X594Y648D01*
X594Y646D01*
X596Y646D01*
X596Y644D01*
X598Y644D01*
X598Y642D01*
X600Y642D01*
X600Y640D01*
X602Y640D01*
X602Y638D01*
X604Y638D01*
X604Y634D01*
X606Y634D01*
X606Y632D01*
X608Y632D01*
X608Y630D01*
X610Y630D01*
X610Y628D01*
X612Y628D01*
X612Y626D01*
X614Y626D01*
X614Y624D01*
X616Y624D01*
X616Y622D01*
X618Y622D01*
X618Y618D01*
X620Y618D01*
X620Y616D01*
X622Y616D01*
X622Y614D01*
X624Y614D01*
X624Y612D01*
X626Y612D01*
X626Y610D01*
X628Y610D01*
X628Y608D01*
X630Y608D01*
X630Y606D01*
X632Y606D01*
X632Y602D01*
X634Y602D01*
X634Y600D01*
X636Y600D01*
X636Y598D01*
X638Y598D01*
X638Y596D01*
X640Y596D01*
X640Y594D01*
X642Y594D01*
X642Y592D01*
X644Y592D01*
X644Y590D01*
X646Y590D01*
X646Y586D01*
X648Y586D01*
X648Y584D01*
X650Y584D01*
X650Y582D01*
X652Y582D01*
X652Y580D01*
X654Y580D01*
X654Y578D01*
X656Y578D01*
X656Y576D01*
X658Y576D01*
X658Y574D01*
X660Y574D01*
X660Y570D01*
X662Y570D01*
X662Y568D01*
X664Y568D01*
X664Y566D01*
X666Y566D01*
X666Y564D01*
X668Y564D01*
X668Y562D01*
X670Y562D01*
X670Y560D01*
X672Y560D01*
X672Y558D01*
X674Y558D01*
X674Y554D01*
X676Y554D01*
X676Y552D01*
X678Y552D01*
X678Y550D01*
X680Y550D01*
X680Y548D01*
X682Y548D01*
X682Y546D01*
X684Y546D01*
X684Y544D01*
X686Y544D01*
X686Y542D01*
X688Y542D01*
X688Y538D01*
X690Y538D01*
X690Y536D01*
X692Y536D01*
X692Y534D01*
X694Y534D01*
X694Y532D01*
X696Y532D01*
X696Y530D01*
X698Y530D01*
X698Y528D01*
X700Y528D01*
X700Y526D01*
X702Y526D01*
X702Y522D01*
X704Y522D01*
X704Y520D01*
X706Y520D01*
X706Y518D01*
X708Y518D01*
X708Y516D01*
X710Y516D01*
X710Y514D01*
X712Y514D01*
X712Y512D01*
X714Y512D01*
X714Y510D01*
X716Y510D01*
X716Y506D01*
X718Y506D01*
X718Y504D01*
X720Y504D01*
X720Y502D01*
X722Y502D01*
X722Y500D01*
X724Y500D01*
X724Y498D01*
X726Y498D01*
X726Y496D01*
X728Y496D01*
X728Y494D01*
X730Y494D01*
X730Y490D01*
X732Y490D01*
X732Y488D01*
X734Y488D01*
X734Y486D01*
X736Y486D01*
X736Y484D01*
X738Y484D01*
X738Y482D01*
X740Y482D01*
X740Y480D01*
X742Y480D01*
X742Y478D01*
X744Y478D01*
X744Y474D01*
X746Y474D01*
X746Y472D01*
X748Y472D01*
X748Y470D01*
X750Y470D01*
X750Y468D01*
X752Y468D01*
X752Y466D01*
X754Y466D01*
X754Y464D01*
X756Y464D01*
X756Y462D01*
X758Y462D01*
X758Y458D01*
X760Y458D01*
X760Y456D01*
X762Y456D01*
X762Y454D01*
X764Y454D01*
X764Y452D01*
X766Y452D01*
X766Y450D01*
X768Y450D01*
X768Y448D01*
X770Y448D01*
X770Y446D01*
X772Y446D01*
X772Y442D01*
X774Y442D01*
X774Y440D01*
X776Y440D01*
X776Y438D01*
X778Y438D01*
X778Y436D01*
X780Y436D01*
X780Y434D01*
X1094Y434D01*
X1094Y436D01*
X1090Y436D01*
X1090Y438D01*
X1086Y438D01*
X1086Y442D01*
X1084Y442D01*
X1084Y446D01*
X1082Y446D01*
X1082Y556D01*
X1078Y556D01*
X1078Y558D01*
X1074Y558D01*
X1074Y560D01*
X1072Y560D01*
X1072Y562D01*
X1068Y562D01*
X1068Y564D01*
X1066Y564D01*
X1066Y566D01*
X1064Y566D01*
X1064Y568D01*
X1062Y568D01*
X1062Y570D01*
X1060Y570D01*
X1060Y574D01*
X1058Y574D01*
X1058Y576D01*
X1056Y576D01*
X1056Y580D01*
X1054Y580D01*
X1054Y584D01*
X1052Y584D01*
X1052Y588D01*
X1050Y588D01*
X1050Y612D01*
X1052Y612D01*
X1052Y618D01*
X1054Y618D01*
X1054Y622D01*
X1056Y622D01*
X1056Y624D01*
X1058Y624D01*
X1058Y628D01*
X1060Y628D01*
X1060Y630D01*
X1062Y630D01*
X1062Y632D01*
X1064Y632D01*
X1064Y634D01*
X1066Y634D01*
X1066Y636D01*
X1068Y636D01*
X1068Y638D01*
X1070Y638D01*
X1070Y640D01*
X1072Y640D01*
X1072Y662D01*
X1068Y662D01*
X1068Y664D01*
X1066Y664D01*
X1066Y666D01*
X1064Y666D01*
X1064Y668D01*
X1062Y668D01*
X1062Y670D01*
X1060Y670D01*
X1060Y674D01*
X1058Y674D01*
X1058Y676D01*
X1056Y676D01*
X1056Y680D01*
X1054Y680D01*
X1054Y684D01*
X1052Y684D01*
X1052Y688D01*
X1050Y688D01*
X1050Y712D01*
X1052Y712D01*
X1052Y718D01*
X1054Y718D01*
X1054Y722D01*
X1056Y722D01*
X1056Y724D01*
X1058Y724D01*
X1058Y728D01*
X1060Y728D01*
X1060Y730D01*
X1062Y730D01*
X1062Y732D01*
X1064Y732D01*
X1064Y734D01*
X1066Y734D01*
X1066Y736D01*
X1068Y736D01*
X1068Y738D01*
X1070Y738D01*
X1070Y740D01*
X1072Y740D01*
X1072Y742D01*
X1076Y742D01*
X1076Y902D01*
X382Y902D01*
G37*
D02*
G36*
X2304Y684D02*
X2304Y682D01*
X2302Y682D01*
X2302Y680D01*
X2300Y680D01*
X2300Y678D01*
X2298Y678D01*
X2298Y676D01*
X2296Y676D01*
X2296Y674D01*
X2294Y674D01*
X2294Y672D01*
X2292Y672D01*
X2292Y670D01*
X2290Y670D01*
X2290Y668D01*
X2288Y668D01*
X2288Y666D01*
X2286Y666D01*
X2286Y664D01*
X2284Y664D01*
X2284Y662D01*
X2282Y662D01*
X2282Y660D01*
X2280Y660D01*
X2280Y658D01*
X2278Y658D01*
X2278Y656D01*
X2276Y656D01*
X2276Y654D01*
X2274Y654D01*
X2274Y652D01*
X2272Y652D01*
X2272Y650D01*
X2270Y650D01*
X2270Y648D01*
X2268Y648D01*
X2268Y646D01*
X2266Y646D01*
X2266Y644D01*
X2264Y644D01*
X2264Y642D01*
X2262Y642D01*
X2262Y640D01*
X2260Y640D01*
X2260Y638D01*
X2258Y638D01*
X2258Y636D01*
X2256Y636D01*
X2256Y634D01*
X2254Y634D01*
X2254Y632D01*
X2252Y632D01*
X2252Y630D01*
X2250Y630D01*
X2250Y628D01*
X2248Y628D01*
X2248Y626D01*
X2246Y626D01*
X2246Y624D01*
X2244Y624D01*
X2244Y622D01*
X2242Y622D01*
X2242Y620D01*
X2240Y620D01*
X2240Y618D01*
X2238Y618D01*
X2238Y616D01*
X2236Y616D01*
X2236Y614D01*
X2234Y614D01*
X2234Y612D01*
X2232Y612D01*
X2232Y610D01*
X2230Y610D01*
X2230Y608D01*
X2228Y608D01*
X2228Y606D01*
X2226Y606D01*
X2226Y604D01*
X2224Y604D01*
X2224Y602D01*
X2222Y602D01*
X2222Y600D01*
X2220Y600D01*
X2220Y598D01*
X2218Y598D01*
X2218Y596D01*
X2216Y596D01*
X2216Y594D01*
X2214Y594D01*
X2214Y592D01*
X2212Y592D01*
X2212Y590D01*
X2210Y590D01*
X2210Y588D01*
X2208Y588D01*
X2208Y586D01*
X2206Y586D01*
X2206Y584D01*
X2204Y584D01*
X2204Y582D01*
X2202Y582D01*
X2202Y580D01*
X2200Y580D01*
X2200Y578D01*
X2198Y578D01*
X2198Y576D01*
X2196Y576D01*
X2196Y574D01*
X2194Y574D01*
X2194Y572D01*
X2192Y572D01*
X2192Y570D01*
X2190Y570D01*
X2190Y568D01*
X2188Y568D01*
X2188Y566D01*
X2186Y566D01*
X2186Y564D01*
X2184Y564D01*
X2184Y562D01*
X2182Y562D01*
X2182Y560D01*
X2180Y560D01*
X2180Y558D01*
X2178Y558D01*
X2178Y556D01*
X2176Y556D01*
X2176Y554D01*
X2174Y554D01*
X2174Y552D01*
X2172Y552D01*
X2172Y550D01*
X2170Y550D01*
X2170Y548D01*
X2168Y548D01*
X2168Y546D01*
X2166Y546D01*
X2166Y544D01*
X2164Y544D01*
X2164Y542D01*
X2162Y542D01*
X2162Y540D01*
X2160Y540D01*
X2160Y538D01*
X2158Y538D01*
X2158Y536D01*
X2156Y536D01*
X2156Y534D01*
X2154Y534D01*
X2154Y532D01*
X2152Y532D01*
X2152Y530D01*
X2150Y530D01*
X2150Y528D01*
X2148Y528D01*
X2148Y526D01*
X2146Y526D01*
X2146Y524D01*
X2144Y524D01*
X2144Y522D01*
X2142Y522D01*
X2142Y520D01*
X2140Y520D01*
X2140Y518D01*
X2138Y518D01*
X2138Y516D01*
X2136Y516D01*
X2136Y514D01*
X2134Y514D01*
X2134Y512D01*
X2132Y512D01*
X2132Y510D01*
X2130Y510D01*
X2130Y508D01*
X2128Y508D01*
X2128Y506D01*
X2126Y506D01*
X2126Y504D01*
X2124Y504D01*
X2124Y502D01*
X2122Y502D01*
X2122Y500D01*
X2120Y500D01*
X2120Y498D01*
X2118Y498D01*
X2118Y496D01*
X2116Y496D01*
X2116Y494D01*
X2114Y494D01*
X2114Y492D01*
X2112Y492D01*
X2112Y490D01*
X2110Y490D01*
X2110Y488D01*
X2108Y488D01*
X2108Y486D01*
X2106Y486D01*
X2106Y484D01*
X2104Y484D01*
X2104Y482D01*
X2102Y482D01*
X2102Y480D01*
X2100Y480D01*
X2100Y478D01*
X2098Y478D01*
X2098Y476D01*
X2096Y476D01*
X2096Y474D01*
X2094Y474D01*
X2094Y472D01*
X2092Y472D01*
X2092Y470D01*
X2090Y470D01*
X2090Y468D01*
X2088Y468D01*
X2088Y466D01*
X2086Y466D01*
X2086Y464D01*
X2084Y464D01*
X2084Y462D01*
X2082Y462D01*
X2082Y460D01*
X2080Y460D01*
X2080Y458D01*
X2078Y458D01*
X2078Y456D01*
X2076Y456D01*
X2076Y454D01*
X2074Y454D01*
X2074Y452D01*
X2072Y452D01*
X2072Y450D01*
X2070Y450D01*
X2070Y448D01*
X2068Y448D01*
X2068Y446D01*
X2066Y446D01*
X2066Y444D01*
X2064Y444D01*
X2064Y442D01*
X2062Y442D01*
X2062Y440D01*
X2060Y440D01*
X2060Y438D01*
X2058Y438D01*
X2058Y436D01*
X2054Y436D01*
X2054Y434D01*
X2362Y434D01*
X2362Y436D01*
X2360Y436D01*
X2360Y440D01*
X2358Y440D01*
X2358Y448D01*
X2356Y448D01*
X2356Y458D01*
X2358Y458D01*
X2358Y464D01*
X2360Y464D01*
X2360Y470D01*
X2362Y470D01*
X2362Y472D01*
X2364Y472D01*
X2364Y476D01*
X2366Y476D01*
X2366Y478D01*
X2368Y478D01*
X2368Y480D01*
X2370Y480D01*
X2370Y482D01*
X2372Y482D01*
X2372Y484D01*
X2374Y484D01*
X2374Y486D01*
X2378Y486D01*
X2378Y488D01*
X2380Y488D01*
X2380Y490D01*
X2384Y490D01*
X2384Y492D01*
X2392Y492D01*
X2392Y512D01*
X2386Y512D01*
X2386Y514D01*
X2382Y514D01*
X2382Y516D01*
X2378Y516D01*
X2378Y518D01*
X2376Y518D01*
X2376Y520D01*
X2372Y520D01*
X2372Y522D01*
X2370Y522D01*
X2370Y524D01*
X2368Y524D01*
X2368Y526D01*
X2366Y526D01*
X2366Y530D01*
X2364Y530D01*
X2364Y532D01*
X2362Y532D01*
X2362Y536D01*
X2360Y536D01*
X2360Y540D01*
X2358Y540D01*
X2358Y548D01*
X2356Y548D01*
X2356Y558D01*
X2358Y558D01*
X2358Y564D01*
X2360Y564D01*
X2360Y570D01*
X2362Y570D01*
X2362Y572D01*
X2364Y572D01*
X2364Y576D01*
X2366Y576D01*
X2366Y578D01*
X2368Y578D01*
X2368Y580D01*
X2370Y580D01*
X2370Y582D01*
X2372Y582D01*
X2372Y584D01*
X2374Y584D01*
X2374Y586D01*
X2378Y586D01*
X2378Y588D01*
X2380Y588D01*
X2380Y590D01*
X2384Y590D01*
X2384Y592D01*
X2392Y592D01*
X2392Y612D01*
X2386Y612D01*
X2386Y614D01*
X2382Y614D01*
X2382Y616D01*
X2378Y616D01*
X2378Y618D01*
X2376Y618D01*
X2376Y620D01*
X2372Y620D01*
X2372Y622D01*
X2370Y622D01*
X2370Y624D01*
X2368Y624D01*
X2368Y626D01*
X2366Y626D01*
X2366Y630D01*
X2364Y630D01*
X2364Y632D01*
X2362Y632D01*
X2362Y636D01*
X2360Y636D01*
X2360Y640D01*
X2358Y640D01*
X2358Y648D01*
X2356Y648D01*
X2356Y658D01*
X2358Y658D01*
X2358Y664D01*
X2360Y664D01*
X2360Y684D01*
X2304Y684D01*
G37*
D02*
G36*
X2538Y462D02*
X2538Y458D01*
X2540Y458D01*
X2540Y446D01*
X2538Y446D01*
X2538Y440D01*
X2536Y440D01*
X2536Y434D01*
X2534Y434D01*
X2534Y432D01*
X2532Y432D01*
X2532Y428D01*
X2530Y428D01*
X2530Y426D01*
X2528Y426D01*
X2528Y424D01*
X2526Y424D01*
X2526Y422D01*
X2524Y422D01*
X2524Y420D01*
X2522Y420D01*
X2522Y418D01*
X2518Y418D01*
X2518Y416D01*
X2514Y416D01*
X2514Y414D01*
X2510Y414D01*
X2510Y412D01*
X2504Y412D01*
X2504Y392D01*
X2512Y392D01*
X2512Y390D01*
X2516Y390D01*
X2516Y388D01*
X2518Y388D01*
X2518Y386D01*
X2522Y386D01*
X2522Y384D01*
X2524Y384D01*
X2524Y382D01*
X2526Y382D01*
X2526Y380D01*
X2528Y380D01*
X2528Y378D01*
X2530Y378D01*
X2530Y376D01*
X2532Y376D01*
X2532Y372D01*
X2534Y372D01*
X2534Y370D01*
X2536Y370D01*
X2536Y366D01*
X2538Y366D01*
X2538Y358D01*
X2540Y358D01*
X2540Y346D01*
X2538Y346D01*
X2538Y340D01*
X2536Y340D01*
X2536Y334D01*
X2534Y334D01*
X2534Y332D01*
X2532Y332D01*
X2532Y328D01*
X2530Y328D01*
X2530Y326D01*
X2528Y326D01*
X2528Y324D01*
X2526Y324D01*
X2526Y322D01*
X2524Y322D01*
X2524Y320D01*
X2522Y320D01*
X2522Y318D01*
X2518Y318D01*
X2518Y316D01*
X2514Y316D01*
X2514Y314D01*
X2510Y314D01*
X2510Y294D01*
X2540Y294D01*
X2540Y210D01*
X2576Y210D01*
X2576Y444D01*
X2574Y444D01*
X2574Y446D01*
X2572Y446D01*
X2572Y448D01*
X2570Y448D01*
X2570Y450D01*
X2568Y450D01*
X2568Y452D01*
X2566Y452D01*
X2566Y454D01*
X2564Y454D01*
X2564Y456D01*
X2562Y456D01*
X2562Y458D01*
X2560Y458D01*
X2560Y460D01*
X2558Y460D01*
X2558Y462D01*
X2538Y462D01*
G37*
D02*
G36*
X782Y434D02*
X782Y432D01*
X2362Y432D01*
X2362Y434D01*
X782Y434D01*
G37*
D02*
G36*
X782Y434D02*
X782Y432D01*
X2362Y432D01*
X2362Y434D01*
X782Y434D01*
G37*
D02*
G36*
X784Y432D02*
X784Y430D01*
X786Y430D01*
X786Y426D01*
X788Y426D01*
X788Y424D01*
X790Y424D01*
X790Y422D01*
X792Y422D01*
X792Y420D01*
X794Y420D01*
X794Y418D01*
X796Y418D01*
X796Y416D01*
X798Y416D01*
X798Y414D01*
X800Y414D01*
X800Y410D01*
X802Y410D01*
X802Y408D01*
X804Y408D01*
X804Y406D01*
X806Y406D01*
X806Y404D01*
X808Y404D01*
X808Y402D01*
X810Y402D01*
X810Y400D01*
X812Y400D01*
X812Y398D01*
X814Y398D01*
X814Y394D01*
X816Y394D01*
X816Y392D01*
X818Y392D01*
X818Y390D01*
X820Y390D01*
X820Y388D01*
X822Y388D01*
X822Y386D01*
X824Y386D01*
X824Y384D01*
X826Y384D01*
X826Y382D01*
X828Y382D01*
X828Y378D01*
X830Y378D01*
X830Y376D01*
X832Y376D01*
X832Y374D01*
X834Y374D01*
X834Y372D01*
X836Y372D01*
X836Y370D01*
X838Y370D01*
X838Y368D01*
X840Y368D01*
X840Y366D01*
X842Y366D01*
X842Y362D01*
X844Y362D01*
X844Y360D01*
X846Y360D01*
X846Y358D01*
X848Y358D01*
X848Y356D01*
X850Y356D01*
X850Y354D01*
X852Y354D01*
X852Y352D01*
X854Y352D01*
X854Y350D01*
X856Y350D01*
X856Y346D01*
X858Y346D01*
X858Y344D01*
X860Y344D01*
X860Y342D01*
X862Y342D01*
X862Y340D01*
X864Y340D01*
X864Y338D01*
X866Y338D01*
X866Y336D01*
X868Y336D01*
X868Y334D01*
X870Y334D01*
X870Y330D01*
X872Y330D01*
X872Y328D01*
X874Y328D01*
X874Y326D01*
X876Y326D01*
X876Y324D01*
X878Y324D01*
X878Y322D01*
X880Y322D01*
X880Y320D01*
X882Y320D01*
X882Y318D01*
X884Y318D01*
X884Y314D01*
X886Y314D01*
X886Y312D01*
X888Y312D01*
X888Y310D01*
X890Y310D01*
X890Y308D01*
X892Y308D01*
X892Y306D01*
X894Y306D01*
X894Y304D01*
X896Y304D01*
X896Y302D01*
X898Y302D01*
X898Y298D01*
X900Y298D01*
X900Y296D01*
X902Y296D01*
X902Y294D01*
X904Y294D01*
X904Y292D01*
X906Y292D01*
X906Y290D01*
X908Y290D01*
X908Y288D01*
X910Y288D01*
X910Y286D01*
X912Y286D01*
X912Y282D01*
X914Y282D01*
X914Y280D01*
X916Y280D01*
X916Y278D01*
X918Y278D01*
X918Y276D01*
X920Y276D01*
X920Y274D01*
X922Y274D01*
X922Y272D01*
X924Y272D01*
X924Y270D01*
X926Y270D01*
X926Y266D01*
X928Y266D01*
X928Y264D01*
X930Y264D01*
X930Y262D01*
X932Y262D01*
X932Y260D01*
X934Y260D01*
X934Y258D01*
X936Y258D01*
X936Y256D01*
X938Y256D01*
X938Y254D01*
X940Y254D01*
X940Y250D01*
X942Y250D01*
X942Y248D01*
X944Y248D01*
X944Y246D01*
X946Y246D01*
X946Y244D01*
X948Y244D01*
X948Y242D01*
X950Y242D01*
X950Y240D01*
X952Y240D01*
X952Y238D01*
X954Y238D01*
X954Y234D01*
X956Y234D01*
X956Y232D01*
X958Y232D01*
X958Y230D01*
X960Y230D01*
X960Y228D01*
X962Y228D01*
X962Y226D01*
X964Y226D01*
X964Y224D01*
X966Y224D01*
X966Y222D01*
X968Y222D01*
X968Y218D01*
X970Y218D01*
X970Y216D01*
X972Y216D01*
X972Y214D01*
X974Y214D01*
X974Y212D01*
X976Y212D01*
X976Y210D01*
X2394Y210D01*
X2394Y212D01*
X2386Y212D01*
X2386Y214D01*
X2382Y214D01*
X2382Y216D01*
X2378Y216D01*
X2378Y218D01*
X2376Y218D01*
X2376Y220D01*
X2372Y220D01*
X2372Y222D01*
X2370Y222D01*
X2370Y224D01*
X2368Y224D01*
X2368Y226D01*
X2366Y226D01*
X2366Y230D01*
X2364Y230D01*
X2364Y232D01*
X2362Y232D01*
X2362Y236D01*
X2360Y236D01*
X2360Y240D01*
X2358Y240D01*
X2358Y248D01*
X2356Y248D01*
X2356Y258D01*
X2358Y258D01*
X2358Y264D01*
X2360Y264D01*
X2360Y270D01*
X2362Y270D01*
X2362Y272D01*
X2364Y272D01*
X2364Y276D01*
X2366Y276D01*
X2366Y278D01*
X2368Y278D01*
X2368Y280D01*
X2370Y280D01*
X2370Y282D01*
X2372Y282D01*
X2372Y284D01*
X2374Y284D01*
X2374Y286D01*
X2378Y286D01*
X2378Y288D01*
X2380Y288D01*
X2380Y290D01*
X2384Y290D01*
X2384Y292D01*
X2392Y292D01*
X2392Y312D01*
X2386Y312D01*
X2386Y314D01*
X2382Y314D01*
X2382Y316D01*
X2378Y316D01*
X2378Y318D01*
X2376Y318D01*
X2376Y320D01*
X2372Y320D01*
X2372Y322D01*
X2370Y322D01*
X2370Y324D01*
X2368Y324D01*
X2368Y326D01*
X2366Y326D01*
X2366Y330D01*
X2364Y330D01*
X2364Y332D01*
X2362Y332D01*
X2362Y336D01*
X2360Y336D01*
X2360Y340D01*
X2358Y340D01*
X2358Y348D01*
X2356Y348D01*
X2356Y358D01*
X2358Y358D01*
X2358Y364D01*
X2360Y364D01*
X2360Y370D01*
X2362Y370D01*
X2362Y372D01*
X2364Y372D01*
X2364Y376D01*
X2366Y376D01*
X2366Y378D01*
X2368Y378D01*
X2368Y380D01*
X2370Y380D01*
X2370Y382D01*
X2372Y382D01*
X2372Y384D01*
X2374Y384D01*
X2374Y386D01*
X2378Y386D01*
X2378Y388D01*
X2380Y388D01*
X2380Y390D01*
X2384Y390D01*
X2384Y392D01*
X2392Y392D01*
X2392Y412D01*
X2386Y412D01*
X2386Y414D01*
X2382Y414D01*
X2382Y416D01*
X2378Y416D01*
X2378Y418D01*
X2376Y418D01*
X2376Y420D01*
X2372Y420D01*
X2372Y422D01*
X2370Y422D01*
X2370Y424D01*
X2368Y424D01*
X2368Y426D01*
X2366Y426D01*
X2366Y430D01*
X2364Y430D01*
X2364Y432D01*
X784Y432D01*
G37*
D02*
G36*
X2436Y240D02*
X2436Y234D01*
X2434Y234D01*
X2434Y232D01*
X2432Y232D01*
X2432Y228D01*
X2430Y228D01*
X2430Y226D01*
X2428Y226D01*
X2428Y224D01*
X2426Y224D01*
X2426Y222D01*
X2424Y222D01*
X2424Y220D01*
X2422Y220D01*
X2422Y218D01*
X2418Y218D01*
X2418Y216D01*
X2414Y216D01*
X2414Y214D01*
X2410Y214D01*
X2410Y212D01*
X2402Y212D01*
X2402Y210D01*
X2458Y210D01*
X2458Y212D01*
X2456Y212D01*
X2456Y240D01*
X2436Y240D01*
G37*
D02*
G36*
X978Y210D02*
X978Y208D01*
X2576Y208D01*
X2576Y210D01*
X978Y210D01*
G37*
D02*
G36*
X978Y210D02*
X978Y208D01*
X2576Y208D01*
X2576Y210D01*
X978Y210D01*
G37*
D02*
G36*
X978Y210D02*
X978Y208D01*
X2576Y208D01*
X2576Y210D01*
X978Y210D01*
G37*
D02*
G36*
X980Y208D02*
X980Y206D01*
X982Y206D01*
X982Y202D01*
X984Y202D01*
X984Y200D01*
X986Y200D01*
X986Y198D01*
X988Y198D01*
X988Y196D01*
X990Y196D01*
X990Y194D01*
X992Y194D01*
X992Y192D01*
X994Y192D01*
X994Y190D01*
X996Y190D01*
X996Y186D01*
X998Y186D01*
X998Y184D01*
X1000Y184D01*
X1000Y182D01*
X1002Y182D01*
X1002Y180D01*
X1004Y180D01*
X1004Y178D01*
X1006Y178D01*
X1006Y176D01*
X1008Y176D01*
X1008Y174D01*
X2576Y174D01*
X2576Y208D01*
X980Y208D01*
G37*
D02*
G36*
X1138Y930D02*
X1138Y928D01*
X1136Y928D01*
X1136Y924D01*
X1134Y924D01*
X1134Y922D01*
X1132Y922D01*
X1132Y920D01*
X1130Y920D01*
X1130Y918D01*
X1128Y918D01*
X1128Y916D01*
X1126Y916D01*
X1126Y914D01*
X1122Y914D01*
X1122Y912D01*
X1120Y912D01*
X1120Y742D01*
X1124Y742D01*
X1124Y740D01*
X1126Y740D01*
X1126Y738D01*
X1128Y738D01*
X1128Y736D01*
X1130Y736D01*
X1130Y734D01*
X1132Y734D01*
X1132Y732D01*
X1134Y732D01*
X1134Y730D01*
X1136Y730D01*
X1136Y728D01*
X1138Y728D01*
X1138Y726D01*
X1158Y726D01*
X1158Y728D01*
X1160Y728D01*
X1160Y730D01*
X1162Y730D01*
X1162Y732D01*
X1164Y732D01*
X1164Y734D01*
X1166Y734D01*
X1166Y736D01*
X1168Y736D01*
X1168Y738D01*
X1170Y738D01*
X1170Y740D01*
X1172Y740D01*
X1172Y742D01*
X1176Y742D01*
X1176Y912D01*
X1174Y912D01*
X1174Y914D01*
X1170Y914D01*
X1170Y916D01*
X1168Y916D01*
X1168Y918D01*
X1166Y918D01*
X1166Y920D01*
X1164Y920D01*
X1164Y922D01*
X1162Y922D01*
X1162Y924D01*
X1160Y924D01*
X1160Y928D01*
X1158Y928D01*
X1158Y930D01*
X1138Y930D01*
G37*
D02*
G36*
X1238Y930D02*
X1238Y928D01*
X1236Y928D01*
X1236Y924D01*
X1234Y924D01*
X1234Y922D01*
X1232Y922D01*
X1232Y920D01*
X1230Y920D01*
X1230Y918D01*
X1228Y918D01*
X1228Y916D01*
X1226Y916D01*
X1226Y914D01*
X1222Y914D01*
X1222Y912D01*
X1220Y912D01*
X1220Y742D01*
X1224Y742D01*
X1224Y740D01*
X1226Y740D01*
X1226Y738D01*
X1228Y738D01*
X1228Y736D01*
X1230Y736D01*
X1230Y734D01*
X1232Y734D01*
X1232Y732D01*
X1234Y732D01*
X1234Y730D01*
X1236Y730D01*
X1236Y728D01*
X1238Y728D01*
X1238Y726D01*
X1258Y726D01*
X1258Y728D01*
X1260Y728D01*
X1260Y730D01*
X1262Y730D01*
X1262Y732D01*
X1264Y732D01*
X1264Y734D01*
X1266Y734D01*
X1266Y736D01*
X1268Y736D01*
X1268Y738D01*
X1270Y738D01*
X1270Y740D01*
X1272Y740D01*
X1272Y742D01*
X1276Y742D01*
X1276Y912D01*
X1274Y912D01*
X1274Y914D01*
X1270Y914D01*
X1270Y916D01*
X1268Y916D01*
X1268Y918D01*
X1266Y918D01*
X1266Y920D01*
X1264Y920D01*
X1264Y922D01*
X1262Y922D01*
X1262Y924D01*
X1260Y924D01*
X1260Y928D01*
X1258Y928D01*
X1258Y930D01*
X1238Y930D01*
G37*
D02*
G36*
X138Y1530D02*
X138Y1528D01*
X136Y1528D01*
X136Y1524D01*
X134Y1524D01*
X134Y1522D01*
X132Y1522D01*
X132Y1520D01*
X130Y1520D01*
X130Y1518D01*
X128Y1518D01*
X128Y1516D01*
X126Y1516D01*
X126Y1514D01*
X122Y1514D01*
X122Y1512D01*
X120Y1512D01*
X120Y1510D01*
X116Y1510D01*
X116Y1508D01*
X110Y1508D01*
X110Y1506D01*
X102Y1506D01*
X102Y1504D01*
X194Y1504D01*
X194Y1506D01*
X186Y1506D01*
X186Y1508D01*
X180Y1508D01*
X180Y1510D01*
X176Y1510D01*
X176Y1512D01*
X174Y1512D01*
X174Y1514D01*
X170Y1514D01*
X170Y1516D01*
X168Y1516D01*
X168Y1518D01*
X166Y1518D01*
X166Y1520D01*
X164Y1520D01*
X164Y1522D01*
X162Y1522D01*
X162Y1524D01*
X160Y1524D01*
X160Y1528D01*
X158Y1528D01*
X158Y1530D01*
X138Y1530D01*
G37*
D02*
G36*
X238Y1530D02*
X238Y1528D01*
X236Y1528D01*
X236Y1524D01*
X234Y1524D01*
X234Y1522D01*
X232Y1522D01*
X232Y1520D01*
X230Y1520D01*
X230Y1518D01*
X228Y1518D01*
X228Y1516D01*
X226Y1516D01*
X226Y1514D01*
X222Y1514D01*
X222Y1512D01*
X220Y1512D01*
X220Y1510D01*
X216Y1510D01*
X216Y1508D01*
X210Y1508D01*
X210Y1506D01*
X202Y1506D01*
X202Y1504D01*
X294Y1504D01*
X294Y1506D01*
X286Y1506D01*
X286Y1508D01*
X280Y1508D01*
X280Y1510D01*
X276Y1510D01*
X276Y1512D01*
X274Y1512D01*
X274Y1514D01*
X270Y1514D01*
X270Y1516D01*
X268Y1516D01*
X268Y1518D01*
X266Y1518D01*
X266Y1520D01*
X264Y1520D01*
X264Y1522D01*
X262Y1522D01*
X262Y1524D01*
X260Y1524D01*
X260Y1528D01*
X258Y1528D01*
X258Y1530D01*
X238Y1530D01*
G37*
D02*
G36*
X338Y1530D02*
X338Y1528D01*
X336Y1528D01*
X336Y1524D01*
X334Y1524D01*
X334Y1522D01*
X332Y1522D01*
X332Y1520D01*
X330Y1520D01*
X330Y1518D01*
X328Y1518D01*
X328Y1516D01*
X326Y1516D01*
X326Y1514D01*
X322Y1514D01*
X322Y1512D01*
X320Y1512D01*
X320Y1510D01*
X316Y1510D01*
X316Y1508D01*
X310Y1508D01*
X310Y1506D01*
X302Y1506D01*
X302Y1504D01*
X394Y1504D01*
X394Y1506D01*
X386Y1506D01*
X386Y1508D01*
X380Y1508D01*
X380Y1510D01*
X376Y1510D01*
X376Y1512D01*
X374Y1512D01*
X374Y1514D01*
X370Y1514D01*
X370Y1516D01*
X368Y1516D01*
X368Y1518D01*
X366Y1518D01*
X366Y1520D01*
X364Y1520D01*
X364Y1522D01*
X362Y1522D01*
X362Y1524D01*
X360Y1524D01*
X360Y1528D01*
X358Y1528D01*
X358Y1530D01*
X338Y1530D01*
G37*
D02*
G36*
X438Y1530D02*
X438Y1528D01*
X436Y1528D01*
X436Y1524D01*
X434Y1524D01*
X434Y1522D01*
X432Y1522D01*
X432Y1520D01*
X430Y1520D01*
X430Y1518D01*
X428Y1518D01*
X428Y1516D01*
X426Y1516D01*
X426Y1514D01*
X422Y1514D01*
X422Y1512D01*
X420Y1512D01*
X420Y1510D01*
X416Y1510D01*
X416Y1508D01*
X410Y1508D01*
X410Y1506D01*
X402Y1506D01*
X402Y1504D01*
X494Y1504D01*
X494Y1506D01*
X486Y1506D01*
X486Y1508D01*
X480Y1508D01*
X480Y1510D01*
X476Y1510D01*
X476Y1512D01*
X474Y1512D01*
X474Y1514D01*
X470Y1514D01*
X470Y1516D01*
X468Y1516D01*
X468Y1518D01*
X466Y1518D01*
X466Y1520D01*
X464Y1520D01*
X464Y1522D01*
X462Y1522D01*
X462Y1524D01*
X460Y1524D01*
X460Y1528D01*
X458Y1528D01*
X458Y1530D01*
X438Y1530D01*
G37*
D02*
G36*
X538Y1530D02*
X538Y1528D01*
X536Y1528D01*
X536Y1524D01*
X534Y1524D01*
X534Y1522D01*
X532Y1522D01*
X532Y1520D01*
X530Y1520D01*
X530Y1518D01*
X528Y1518D01*
X528Y1516D01*
X526Y1516D01*
X526Y1514D01*
X522Y1514D01*
X522Y1512D01*
X520Y1512D01*
X520Y1510D01*
X516Y1510D01*
X516Y1508D01*
X510Y1508D01*
X510Y1506D01*
X502Y1506D01*
X502Y1504D01*
X594Y1504D01*
X594Y1506D01*
X586Y1506D01*
X586Y1508D01*
X580Y1508D01*
X580Y1510D01*
X576Y1510D01*
X576Y1512D01*
X574Y1512D01*
X574Y1514D01*
X570Y1514D01*
X570Y1516D01*
X568Y1516D01*
X568Y1518D01*
X566Y1518D01*
X566Y1520D01*
X564Y1520D01*
X564Y1522D01*
X562Y1522D01*
X562Y1524D01*
X560Y1524D01*
X560Y1528D01*
X558Y1528D01*
X558Y1530D01*
X538Y1530D01*
G37*
D02*
G36*
X638Y1530D02*
X638Y1528D01*
X636Y1528D01*
X636Y1524D01*
X634Y1524D01*
X634Y1522D01*
X632Y1522D01*
X632Y1520D01*
X630Y1520D01*
X630Y1518D01*
X628Y1518D01*
X628Y1516D01*
X626Y1516D01*
X626Y1514D01*
X622Y1514D01*
X622Y1512D01*
X620Y1512D01*
X620Y1510D01*
X616Y1510D01*
X616Y1508D01*
X610Y1508D01*
X610Y1506D01*
X602Y1506D01*
X602Y1504D01*
X694Y1504D01*
X694Y1506D01*
X686Y1506D01*
X686Y1508D01*
X680Y1508D01*
X680Y1510D01*
X676Y1510D01*
X676Y1512D01*
X674Y1512D01*
X674Y1514D01*
X670Y1514D01*
X670Y1516D01*
X668Y1516D01*
X668Y1518D01*
X666Y1518D01*
X666Y1520D01*
X664Y1520D01*
X664Y1522D01*
X662Y1522D01*
X662Y1524D01*
X660Y1524D01*
X660Y1528D01*
X658Y1528D01*
X658Y1530D01*
X638Y1530D01*
G37*
D02*
G36*
X738Y1530D02*
X738Y1528D01*
X736Y1528D01*
X736Y1524D01*
X734Y1524D01*
X734Y1522D01*
X732Y1522D01*
X732Y1520D01*
X730Y1520D01*
X730Y1518D01*
X728Y1518D01*
X728Y1516D01*
X726Y1516D01*
X726Y1514D01*
X722Y1514D01*
X722Y1512D01*
X720Y1512D01*
X720Y1510D01*
X716Y1510D01*
X716Y1508D01*
X710Y1508D01*
X710Y1506D01*
X702Y1506D01*
X702Y1504D01*
X794Y1504D01*
X794Y1506D01*
X786Y1506D01*
X786Y1508D01*
X780Y1508D01*
X780Y1510D01*
X776Y1510D01*
X776Y1512D01*
X774Y1512D01*
X774Y1514D01*
X770Y1514D01*
X770Y1516D01*
X768Y1516D01*
X768Y1518D01*
X766Y1518D01*
X766Y1520D01*
X764Y1520D01*
X764Y1522D01*
X762Y1522D01*
X762Y1524D01*
X760Y1524D01*
X760Y1528D01*
X758Y1528D01*
X758Y1530D01*
X738Y1530D01*
G37*
D02*
G36*
X838Y1530D02*
X838Y1528D01*
X836Y1528D01*
X836Y1524D01*
X834Y1524D01*
X834Y1522D01*
X832Y1522D01*
X832Y1520D01*
X830Y1520D01*
X830Y1518D01*
X828Y1518D01*
X828Y1516D01*
X826Y1516D01*
X826Y1514D01*
X822Y1514D01*
X822Y1512D01*
X820Y1512D01*
X820Y1510D01*
X816Y1510D01*
X816Y1508D01*
X810Y1508D01*
X810Y1506D01*
X802Y1506D01*
X802Y1504D01*
X894Y1504D01*
X894Y1506D01*
X886Y1506D01*
X886Y1508D01*
X880Y1508D01*
X880Y1510D01*
X876Y1510D01*
X876Y1512D01*
X874Y1512D01*
X874Y1514D01*
X870Y1514D01*
X870Y1516D01*
X868Y1516D01*
X868Y1518D01*
X866Y1518D01*
X866Y1520D01*
X864Y1520D01*
X864Y1522D01*
X862Y1522D01*
X862Y1524D01*
X860Y1524D01*
X860Y1528D01*
X858Y1528D01*
X858Y1530D01*
X838Y1530D01*
G37*
D02*
G36*
X938Y1530D02*
X938Y1528D01*
X936Y1528D01*
X936Y1524D01*
X934Y1524D01*
X934Y1522D01*
X932Y1522D01*
X932Y1520D01*
X930Y1520D01*
X930Y1518D01*
X928Y1518D01*
X928Y1516D01*
X926Y1516D01*
X926Y1514D01*
X922Y1514D01*
X922Y1512D01*
X920Y1512D01*
X920Y1510D01*
X916Y1510D01*
X916Y1508D01*
X910Y1508D01*
X910Y1506D01*
X902Y1506D01*
X902Y1504D01*
X994Y1504D01*
X994Y1506D01*
X986Y1506D01*
X986Y1508D01*
X980Y1508D01*
X980Y1510D01*
X976Y1510D01*
X976Y1512D01*
X974Y1512D01*
X974Y1514D01*
X970Y1514D01*
X970Y1516D01*
X968Y1516D01*
X968Y1518D01*
X966Y1518D01*
X966Y1520D01*
X964Y1520D01*
X964Y1522D01*
X962Y1522D01*
X962Y1524D01*
X960Y1524D01*
X960Y1528D01*
X958Y1528D01*
X958Y1530D01*
X938Y1530D01*
G37*
D02*
G36*
X1038Y1530D02*
X1038Y1528D01*
X1036Y1528D01*
X1036Y1524D01*
X1034Y1524D01*
X1034Y1522D01*
X1032Y1522D01*
X1032Y1520D01*
X1030Y1520D01*
X1030Y1518D01*
X1028Y1518D01*
X1028Y1516D01*
X1026Y1516D01*
X1026Y1514D01*
X1022Y1514D01*
X1022Y1512D01*
X1020Y1512D01*
X1020Y1510D01*
X1016Y1510D01*
X1016Y1508D01*
X1010Y1508D01*
X1010Y1506D01*
X1002Y1506D01*
X1002Y1504D01*
X1094Y1504D01*
X1094Y1506D01*
X1086Y1506D01*
X1086Y1508D01*
X1080Y1508D01*
X1080Y1510D01*
X1076Y1510D01*
X1076Y1512D01*
X1074Y1512D01*
X1074Y1514D01*
X1070Y1514D01*
X1070Y1516D01*
X1068Y1516D01*
X1068Y1518D01*
X1066Y1518D01*
X1066Y1520D01*
X1064Y1520D01*
X1064Y1522D01*
X1062Y1522D01*
X1062Y1524D01*
X1060Y1524D01*
X1060Y1528D01*
X1058Y1528D01*
X1058Y1530D01*
X1038Y1530D01*
G37*
D02*
G36*
X1138Y1530D02*
X1138Y1528D01*
X1136Y1528D01*
X1136Y1524D01*
X1134Y1524D01*
X1134Y1522D01*
X1132Y1522D01*
X1132Y1520D01*
X1130Y1520D01*
X1130Y1518D01*
X1128Y1518D01*
X1128Y1516D01*
X1126Y1516D01*
X1126Y1514D01*
X1122Y1514D01*
X1122Y1512D01*
X1120Y1512D01*
X1120Y1510D01*
X1116Y1510D01*
X1116Y1508D01*
X1110Y1508D01*
X1110Y1506D01*
X1102Y1506D01*
X1102Y1504D01*
X1194Y1504D01*
X1194Y1506D01*
X1186Y1506D01*
X1186Y1508D01*
X1180Y1508D01*
X1180Y1510D01*
X1176Y1510D01*
X1176Y1512D01*
X1174Y1512D01*
X1174Y1514D01*
X1170Y1514D01*
X1170Y1516D01*
X1168Y1516D01*
X1168Y1518D01*
X1166Y1518D01*
X1166Y1520D01*
X1164Y1520D01*
X1164Y1522D01*
X1162Y1522D01*
X1162Y1524D01*
X1160Y1524D01*
X1160Y1528D01*
X1158Y1528D01*
X1158Y1530D01*
X1138Y1530D01*
G37*
D02*
G36*
X1238Y1530D02*
X1238Y1528D01*
X1236Y1528D01*
X1236Y1524D01*
X1234Y1524D01*
X1234Y1522D01*
X1232Y1522D01*
X1232Y1520D01*
X1230Y1520D01*
X1230Y1518D01*
X1228Y1518D01*
X1228Y1516D01*
X1226Y1516D01*
X1226Y1514D01*
X1222Y1514D01*
X1222Y1512D01*
X1220Y1512D01*
X1220Y1510D01*
X1216Y1510D01*
X1216Y1508D01*
X1210Y1508D01*
X1210Y1506D01*
X1202Y1506D01*
X1202Y1504D01*
X1294Y1504D01*
X1294Y1506D01*
X1286Y1506D01*
X1286Y1508D01*
X1280Y1508D01*
X1280Y1510D01*
X1276Y1510D01*
X1276Y1512D01*
X1274Y1512D01*
X1274Y1514D01*
X1270Y1514D01*
X1270Y1516D01*
X1268Y1516D01*
X1268Y1518D01*
X1266Y1518D01*
X1266Y1520D01*
X1264Y1520D01*
X1264Y1522D01*
X1262Y1522D01*
X1262Y1524D01*
X1260Y1524D01*
X1260Y1528D01*
X1258Y1528D01*
X1258Y1530D01*
X1238Y1530D01*
G37*
D02*
G36*
X1338Y1530D02*
X1338Y1528D01*
X1336Y1528D01*
X1336Y1524D01*
X1334Y1524D01*
X1334Y1522D01*
X1332Y1522D01*
X1332Y1520D01*
X1330Y1520D01*
X1330Y1518D01*
X1328Y1518D01*
X1328Y1516D01*
X1326Y1516D01*
X1326Y1514D01*
X1322Y1514D01*
X1322Y1512D01*
X1320Y1512D01*
X1320Y1510D01*
X1316Y1510D01*
X1316Y1508D01*
X1310Y1508D01*
X1310Y1506D01*
X1302Y1506D01*
X1302Y1504D01*
X1394Y1504D01*
X1394Y1506D01*
X1386Y1506D01*
X1386Y1508D01*
X1380Y1508D01*
X1380Y1510D01*
X1376Y1510D01*
X1376Y1512D01*
X1374Y1512D01*
X1374Y1514D01*
X1370Y1514D01*
X1370Y1516D01*
X1368Y1516D01*
X1368Y1518D01*
X1366Y1518D01*
X1366Y1520D01*
X1364Y1520D01*
X1364Y1522D01*
X1362Y1522D01*
X1362Y1524D01*
X1360Y1524D01*
X1360Y1528D01*
X1358Y1528D01*
X1358Y1530D01*
X1338Y1530D01*
G37*
D02*
G36*
X1438Y1530D02*
X1438Y1528D01*
X1436Y1528D01*
X1436Y1524D01*
X1434Y1524D01*
X1434Y1522D01*
X1432Y1522D01*
X1432Y1520D01*
X1430Y1520D01*
X1430Y1518D01*
X1428Y1518D01*
X1428Y1516D01*
X1426Y1516D01*
X1426Y1514D01*
X1422Y1514D01*
X1422Y1512D01*
X1420Y1512D01*
X1420Y1510D01*
X1416Y1510D01*
X1416Y1508D01*
X1410Y1508D01*
X1410Y1506D01*
X1402Y1506D01*
X1402Y1504D01*
X1494Y1504D01*
X1494Y1506D01*
X1486Y1506D01*
X1486Y1508D01*
X1480Y1508D01*
X1480Y1510D01*
X1476Y1510D01*
X1476Y1512D01*
X1474Y1512D01*
X1474Y1514D01*
X1470Y1514D01*
X1470Y1516D01*
X1468Y1516D01*
X1468Y1518D01*
X1466Y1518D01*
X1466Y1520D01*
X1464Y1520D01*
X1464Y1522D01*
X1462Y1522D01*
X1462Y1524D01*
X1460Y1524D01*
X1460Y1528D01*
X1458Y1528D01*
X1458Y1530D01*
X1438Y1530D01*
G37*
D02*
G36*
X1538Y1530D02*
X1538Y1528D01*
X1536Y1528D01*
X1536Y1524D01*
X1534Y1524D01*
X1534Y1522D01*
X1532Y1522D01*
X1532Y1520D01*
X1530Y1520D01*
X1530Y1518D01*
X1528Y1518D01*
X1528Y1516D01*
X1526Y1516D01*
X1526Y1514D01*
X1522Y1514D01*
X1522Y1512D01*
X1520Y1512D01*
X1520Y1510D01*
X1516Y1510D01*
X1516Y1508D01*
X1510Y1508D01*
X1510Y1506D01*
X1502Y1506D01*
X1502Y1504D01*
X1594Y1504D01*
X1594Y1506D01*
X1586Y1506D01*
X1586Y1508D01*
X1580Y1508D01*
X1580Y1510D01*
X1576Y1510D01*
X1576Y1512D01*
X1574Y1512D01*
X1574Y1514D01*
X1570Y1514D01*
X1570Y1516D01*
X1568Y1516D01*
X1568Y1518D01*
X1566Y1518D01*
X1566Y1520D01*
X1564Y1520D01*
X1564Y1522D01*
X1562Y1522D01*
X1562Y1524D01*
X1560Y1524D01*
X1560Y1528D01*
X1558Y1528D01*
X1558Y1530D01*
X1538Y1530D01*
G37*
D02*
G36*
X1638Y1530D02*
X1638Y1528D01*
X1636Y1528D01*
X1636Y1524D01*
X1634Y1524D01*
X1634Y1522D01*
X1632Y1522D01*
X1632Y1520D01*
X1630Y1520D01*
X1630Y1518D01*
X1628Y1518D01*
X1628Y1516D01*
X1626Y1516D01*
X1626Y1514D01*
X1622Y1514D01*
X1622Y1512D01*
X1620Y1512D01*
X1620Y1510D01*
X1616Y1510D01*
X1616Y1508D01*
X1610Y1508D01*
X1610Y1506D01*
X1602Y1506D01*
X1602Y1504D01*
X1694Y1504D01*
X1694Y1506D01*
X1686Y1506D01*
X1686Y1508D01*
X1680Y1508D01*
X1680Y1510D01*
X1676Y1510D01*
X1676Y1512D01*
X1674Y1512D01*
X1674Y1514D01*
X1670Y1514D01*
X1670Y1516D01*
X1668Y1516D01*
X1668Y1518D01*
X1666Y1518D01*
X1666Y1520D01*
X1664Y1520D01*
X1664Y1522D01*
X1662Y1522D01*
X1662Y1524D01*
X1660Y1524D01*
X1660Y1528D01*
X1658Y1528D01*
X1658Y1530D01*
X1638Y1530D01*
G37*
D02*
G36*
X1738Y1530D02*
X1738Y1528D01*
X1736Y1528D01*
X1736Y1524D01*
X1734Y1524D01*
X1734Y1522D01*
X1732Y1522D01*
X1732Y1520D01*
X1730Y1520D01*
X1730Y1518D01*
X1728Y1518D01*
X1728Y1516D01*
X1726Y1516D01*
X1726Y1514D01*
X1722Y1514D01*
X1722Y1512D01*
X1720Y1512D01*
X1720Y1510D01*
X1716Y1510D01*
X1716Y1508D01*
X1710Y1508D01*
X1710Y1506D01*
X1702Y1506D01*
X1702Y1504D01*
X1776Y1504D01*
X1776Y1512D01*
X1774Y1512D01*
X1774Y1514D01*
X1770Y1514D01*
X1770Y1516D01*
X1768Y1516D01*
X1768Y1518D01*
X1766Y1518D01*
X1766Y1520D01*
X1764Y1520D01*
X1764Y1522D01*
X1762Y1522D01*
X1762Y1524D01*
X1760Y1524D01*
X1760Y1528D01*
X1758Y1528D01*
X1758Y1530D01*
X1738Y1530D01*
G37*
D02*
G36*
X40Y1528D02*
X40Y1504D01*
X94Y1504D01*
X94Y1506D01*
X86Y1506D01*
X86Y1508D01*
X80Y1508D01*
X80Y1510D01*
X76Y1510D01*
X76Y1512D01*
X74Y1512D01*
X74Y1514D01*
X70Y1514D01*
X70Y1516D01*
X68Y1516D01*
X68Y1518D01*
X66Y1518D01*
X66Y1520D01*
X64Y1520D01*
X64Y1522D01*
X62Y1522D01*
X62Y1524D01*
X60Y1524D01*
X60Y1528D01*
X40Y1528D01*
G37*
D02*
G36*
X40Y1504D02*
X40Y1502D01*
X1776Y1502D01*
X1776Y1504D01*
X40Y1504D01*
G37*
D02*
G36*
X40Y1504D02*
X40Y1502D01*
X1776Y1502D01*
X1776Y1504D01*
X40Y1504D01*
G37*
D02*
G36*
X40Y1504D02*
X40Y1502D01*
X1776Y1502D01*
X1776Y1504D01*
X40Y1504D01*
G37*
D02*
G36*
X40Y1504D02*
X40Y1502D01*
X1776Y1502D01*
X1776Y1504D01*
X40Y1504D01*
G37*
D02*
G36*
X40Y1504D02*
X40Y1502D01*
X1776Y1502D01*
X1776Y1504D01*
X40Y1504D01*
G37*
D02*
G36*
X40Y1504D02*
X40Y1502D01*
X1776Y1502D01*
X1776Y1504D01*
X40Y1504D01*
G37*
D02*
G36*
X40Y1504D02*
X40Y1502D01*
X1776Y1502D01*
X1776Y1504D01*
X40Y1504D01*
G37*
D02*
G36*
X40Y1504D02*
X40Y1502D01*
X1776Y1502D01*
X1776Y1504D01*
X40Y1504D01*
G37*
D02*
G36*
X40Y1504D02*
X40Y1502D01*
X1776Y1502D01*
X1776Y1504D01*
X40Y1504D01*
G37*
D02*
G36*
X40Y1504D02*
X40Y1502D01*
X1776Y1502D01*
X1776Y1504D01*
X40Y1504D01*
G37*
D02*
G36*
X40Y1504D02*
X40Y1502D01*
X1776Y1502D01*
X1776Y1504D01*
X40Y1504D01*
G37*
D02*
G36*
X40Y1504D02*
X40Y1502D01*
X1776Y1502D01*
X1776Y1504D01*
X40Y1504D01*
G37*
D02*
G36*
X40Y1504D02*
X40Y1502D01*
X1776Y1502D01*
X1776Y1504D01*
X40Y1504D01*
G37*
D02*
G36*
X40Y1504D02*
X40Y1502D01*
X1776Y1502D01*
X1776Y1504D01*
X40Y1504D01*
G37*
D02*
G36*
X40Y1504D02*
X40Y1502D01*
X1776Y1502D01*
X1776Y1504D01*
X40Y1504D01*
G37*
D02*
G36*
X40Y1504D02*
X40Y1502D01*
X1776Y1502D01*
X1776Y1504D01*
X40Y1504D01*
G37*
D02*
G36*
X40Y1504D02*
X40Y1502D01*
X1776Y1502D01*
X1776Y1504D01*
X40Y1504D01*
G37*
D02*
G36*
X40Y1504D02*
X40Y1502D01*
X1776Y1502D01*
X1776Y1504D01*
X40Y1504D01*
G37*
D02*
G36*
X40Y1502D02*
X40Y1000D01*
X2006Y1000D01*
X2006Y998D01*
X2012Y998D01*
X2012Y996D01*
X2016Y996D01*
X2016Y994D01*
X2020Y994D01*
X2020Y992D01*
X2024Y992D01*
X2024Y990D01*
X2026Y990D01*
X2026Y988D01*
X2028Y988D01*
X2028Y986D01*
X2030Y986D01*
X2030Y984D01*
X2032Y984D01*
X2032Y982D01*
X2034Y982D01*
X2034Y980D01*
X2036Y980D01*
X2036Y978D01*
X2038Y978D01*
X2038Y974D01*
X2040Y974D01*
X2040Y970D01*
X2042Y970D01*
X2042Y966D01*
X2044Y966D01*
X2044Y958D01*
X2046Y958D01*
X2046Y946D01*
X2044Y946D01*
X2044Y938D01*
X2042Y938D01*
X2042Y934D01*
X2040Y934D01*
X2040Y930D01*
X2038Y930D01*
X2038Y928D01*
X2036Y928D01*
X2036Y924D01*
X2034Y924D01*
X2034Y922D01*
X2032Y922D01*
X2032Y920D01*
X2030Y920D01*
X2030Y918D01*
X2028Y918D01*
X2028Y916D01*
X2026Y916D01*
X2026Y914D01*
X2022Y914D01*
X2022Y912D01*
X2020Y912D01*
X2020Y910D01*
X2016Y910D01*
X2016Y908D01*
X2010Y908D01*
X2010Y906D01*
X2002Y906D01*
X2002Y904D01*
X2228Y904D01*
X2228Y906D01*
X2230Y906D01*
X2230Y908D01*
X2232Y908D01*
X2232Y910D01*
X2234Y910D01*
X2234Y912D01*
X2236Y912D01*
X2236Y914D01*
X2240Y914D01*
X2240Y916D01*
X2246Y916D01*
X2246Y918D01*
X2282Y918D01*
X2282Y938D01*
X2280Y938D01*
X2280Y942D01*
X2278Y942D01*
X2278Y946D01*
X2276Y946D01*
X2276Y1030D01*
X1792Y1030D01*
X1792Y1032D01*
X1788Y1032D01*
X1788Y1034D01*
X1784Y1034D01*
X1784Y1036D01*
X1782Y1036D01*
X1782Y1038D01*
X1780Y1038D01*
X1780Y1042D01*
X1778Y1042D01*
X1778Y1046D01*
X1776Y1046D01*
X1776Y1502D01*
X40Y1502D01*
G37*
D02*
G36*
X40Y1000D02*
X40Y976D01*
X60Y976D01*
X60Y980D01*
X62Y980D01*
X62Y982D01*
X64Y982D01*
X64Y984D01*
X66Y984D01*
X66Y986D01*
X68Y986D01*
X68Y988D01*
X70Y988D01*
X70Y990D01*
X72Y990D01*
X72Y992D01*
X76Y992D01*
X76Y994D01*
X80Y994D01*
X80Y996D01*
X84Y996D01*
X84Y998D01*
X90Y998D01*
X90Y1000D01*
X40Y1000D01*
G37*
D02*
G36*
X106Y1000D02*
X106Y998D01*
X112Y998D01*
X112Y996D01*
X116Y996D01*
X116Y994D01*
X120Y994D01*
X120Y992D01*
X124Y992D01*
X124Y990D01*
X126Y990D01*
X126Y988D01*
X128Y988D01*
X128Y986D01*
X130Y986D01*
X130Y984D01*
X132Y984D01*
X132Y982D01*
X134Y982D01*
X134Y980D01*
X136Y980D01*
X136Y978D01*
X138Y978D01*
X138Y974D01*
X158Y974D01*
X158Y976D01*
X160Y976D01*
X160Y980D01*
X162Y980D01*
X162Y982D01*
X164Y982D01*
X164Y984D01*
X166Y984D01*
X166Y986D01*
X168Y986D01*
X168Y988D01*
X170Y988D01*
X170Y990D01*
X172Y990D01*
X172Y992D01*
X176Y992D01*
X176Y994D01*
X180Y994D01*
X180Y996D01*
X184Y996D01*
X184Y998D01*
X190Y998D01*
X190Y1000D01*
X106Y1000D01*
G37*
D02*
G36*
X206Y1000D02*
X206Y998D01*
X212Y998D01*
X212Y996D01*
X216Y996D01*
X216Y994D01*
X220Y994D01*
X220Y992D01*
X224Y992D01*
X224Y990D01*
X226Y990D01*
X226Y988D01*
X228Y988D01*
X228Y986D01*
X230Y986D01*
X230Y984D01*
X232Y984D01*
X232Y982D01*
X234Y982D01*
X234Y980D01*
X236Y980D01*
X236Y978D01*
X238Y978D01*
X238Y974D01*
X258Y974D01*
X258Y976D01*
X260Y976D01*
X260Y980D01*
X262Y980D01*
X262Y982D01*
X264Y982D01*
X264Y984D01*
X266Y984D01*
X266Y986D01*
X268Y986D01*
X268Y988D01*
X270Y988D01*
X270Y990D01*
X272Y990D01*
X272Y992D01*
X276Y992D01*
X276Y994D01*
X280Y994D01*
X280Y996D01*
X284Y996D01*
X284Y998D01*
X290Y998D01*
X290Y1000D01*
X206Y1000D01*
G37*
D02*
G36*
X306Y1000D02*
X306Y998D01*
X312Y998D01*
X312Y996D01*
X316Y996D01*
X316Y994D01*
X320Y994D01*
X320Y992D01*
X324Y992D01*
X324Y990D01*
X326Y990D01*
X326Y988D01*
X328Y988D01*
X328Y986D01*
X330Y986D01*
X330Y984D01*
X332Y984D01*
X332Y982D01*
X334Y982D01*
X334Y980D01*
X336Y980D01*
X336Y978D01*
X338Y978D01*
X338Y974D01*
X358Y974D01*
X358Y976D01*
X360Y976D01*
X360Y980D01*
X362Y980D01*
X362Y982D01*
X364Y982D01*
X364Y984D01*
X366Y984D01*
X366Y986D01*
X368Y986D01*
X368Y988D01*
X370Y988D01*
X370Y990D01*
X372Y990D01*
X372Y992D01*
X376Y992D01*
X376Y994D01*
X380Y994D01*
X380Y996D01*
X384Y996D01*
X384Y998D01*
X390Y998D01*
X390Y1000D01*
X306Y1000D01*
G37*
D02*
G36*
X406Y1000D02*
X406Y998D01*
X412Y998D01*
X412Y996D01*
X416Y996D01*
X416Y994D01*
X420Y994D01*
X420Y992D01*
X424Y992D01*
X424Y990D01*
X426Y990D01*
X426Y988D01*
X428Y988D01*
X428Y986D01*
X430Y986D01*
X430Y984D01*
X432Y984D01*
X432Y982D01*
X434Y982D01*
X434Y980D01*
X436Y980D01*
X436Y978D01*
X438Y978D01*
X438Y974D01*
X458Y974D01*
X458Y976D01*
X460Y976D01*
X460Y980D01*
X462Y980D01*
X462Y982D01*
X464Y982D01*
X464Y984D01*
X466Y984D01*
X466Y986D01*
X468Y986D01*
X468Y988D01*
X470Y988D01*
X470Y990D01*
X472Y990D01*
X472Y992D01*
X476Y992D01*
X476Y994D01*
X480Y994D01*
X480Y996D01*
X484Y996D01*
X484Y998D01*
X490Y998D01*
X490Y1000D01*
X406Y1000D01*
G37*
D02*
G36*
X506Y1000D02*
X506Y998D01*
X512Y998D01*
X512Y996D01*
X516Y996D01*
X516Y994D01*
X520Y994D01*
X520Y992D01*
X524Y992D01*
X524Y990D01*
X526Y990D01*
X526Y988D01*
X528Y988D01*
X528Y986D01*
X530Y986D01*
X530Y984D01*
X532Y984D01*
X532Y982D01*
X534Y982D01*
X534Y980D01*
X536Y980D01*
X536Y978D01*
X538Y978D01*
X538Y974D01*
X558Y974D01*
X558Y976D01*
X560Y976D01*
X560Y980D01*
X562Y980D01*
X562Y982D01*
X564Y982D01*
X564Y984D01*
X566Y984D01*
X566Y986D01*
X568Y986D01*
X568Y988D01*
X570Y988D01*
X570Y990D01*
X572Y990D01*
X572Y992D01*
X576Y992D01*
X576Y994D01*
X580Y994D01*
X580Y996D01*
X584Y996D01*
X584Y998D01*
X590Y998D01*
X590Y1000D01*
X506Y1000D01*
G37*
D02*
G36*
X606Y1000D02*
X606Y998D01*
X612Y998D01*
X612Y996D01*
X616Y996D01*
X616Y994D01*
X620Y994D01*
X620Y992D01*
X624Y992D01*
X624Y990D01*
X626Y990D01*
X626Y988D01*
X628Y988D01*
X628Y986D01*
X630Y986D01*
X630Y984D01*
X632Y984D01*
X632Y982D01*
X634Y982D01*
X634Y980D01*
X636Y980D01*
X636Y978D01*
X638Y978D01*
X638Y974D01*
X658Y974D01*
X658Y976D01*
X660Y976D01*
X660Y980D01*
X662Y980D01*
X662Y982D01*
X664Y982D01*
X664Y984D01*
X666Y984D01*
X666Y986D01*
X668Y986D01*
X668Y988D01*
X670Y988D01*
X670Y990D01*
X672Y990D01*
X672Y992D01*
X676Y992D01*
X676Y994D01*
X680Y994D01*
X680Y996D01*
X684Y996D01*
X684Y998D01*
X690Y998D01*
X690Y1000D01*
X606Y1000D01*
G37*
D02*
G36*
X706Y1000D02*
X706Y998D01*
X712Y998D01*
X712Y996D01*
X716Y996D01*
X716Y994D01*
X720Y994D01*
X720Y992D01*
X724Y992D01*
X724Y990D01*
X726Y990D01*
X726Y988D01*
X728Y988D01*
X728Y986D01*
X730Y986D01*
X730Y984D01*
X732Y984D01*
X732Y982D01*
X734Y982D01*
X734Y980D01*
X736Y980D01*
X736Y978D01*
X738Y978D01*
X738Y974D01*
X758Y974D01*
X758Y976D01*
X760Y976D01*
X760Y980D01*
X762Y980D01*
X762Y982D01*
X764Y982D01*
X764Y984D01*
X766Y984D01*
X766Y986D01*
X768Y986D01*
X768Y988D01*
X770Y988D01*
X770Y990D01*
X772Y990D01*
X772Y992D01*
X776Y992D01*
X776Y994D01*
X780Y994D01*
X780Y996D01*
X784Y996D01*
X784Y998D01*
X790Y998D01*
X790Y1000D01*
X706Y1000D01*
G37*
D02*
G36*
X806Y1000D02*
X806Y998D01*
X812Y998D01*
X812Y996D01*
X816Y996D01*
X816Y994D01*
X820Y994D01*
X820Y992D01*
X824Y992D01*
X824Y990D01*
X826Y990D01*
X826Y988D01*
X828Y988D01*
X828Y986D01*
X830Y986D01*
X830Y984D01*
X832Y984D01*
X832Y982D01*
X834Y982D01*
X834Y980D01*
X836Y980D01*
X836Y978D01*
X838Y978D01*
X838Y974D01*
X858Y974D01*
X858Y976D01*
X860Y976D01*
X860Y980D01*
X862Y980D01*
X862Y982D01*
X864Y982D01*
X864Y984D01*
X866Y984D01*
X866Y986D01*
X868Y986D01*
X868Y988D01*
X870Y988D01*
X870Y990D01*
X872Y990D01*
X872Y992D01*
X876Y992D01*
X876Y994D01*
X880Y994D01*
X880Y996D01*
X884Y996D01*
X884Y998D01*
X890Y998D01*
X890Y1000D01*
X806Y1000D01*
G37*
D02*
G36*
X906Y1000D02*
X906Y998D01*
X912Y998D01*
X912Y996D01*
X916Y996D01*
X916Y994D01*
X920Y994D01*
X920Y992D01*
X924Y992D01*
X924Y990D01*
X926Y990D01*
X926Y988D01*
X928Y988D01*
X928Y986D01*
X930Y986D01*
X930Y984D01*
X932Y984D01*
X932Y982D01*
X934Y982D01*
X934Y980D01*
X936Y980D01*
X936Y978D01*
X938Y978D01*
X938Y974D01*
X958Y974D01*
X958Y976D01*
X960Y976D01*
X960Y980D01*
X962Y980D01*
X962Y982D01*
X964Y982D01*
X964Y984D01*
X966Y984D01*
X966Y986D01*
X968Y986D01*
X968Y988D01*
X970Y988D01*
X970Y990D01*
X972Y990D01*
X972Y992D01*
X976Y992D01*
X976Y994D01*
X980Y994D01*
X980Y996D01*
X984Y996D01*
X984Y998D01*
X990Y998D01*
X990Y1000D01*
X906Y1000D01*
G37*
D02*
G36*
X1006Y1000D02*
X1006Y998D01*
X1012Y998D01*
X1012Y996D01*
X1016Y996D01*
X1016Y994D01*
X1020Y994D01*
X1020Y992D01*
X1024Y992D01*
X1024Y990D01*
X1026Y990D01*
X1026Y988D01*
X1028Y988D01*
X1028Y986D01*
X1030Y986D01*
X1030Y984D01*
X1032Y984D01*
X1032Y982D01*
X1034Y982D01*
X1034Y980D01*
X1036Y980D01*
X1036Y978D01*
X1038Y978D01*
X1038Y974D01*
X1058Y974D01*
X1058Y976D01*
X1060Y976D01*
X1060Y980D01*
X1062Y980D01*
X1062Y982D01*
X1064Y982D01*
X1064Y984D01*
X1066Y984D01*
X1066Y986D01*
X1068Y986D01*
X1068Y988D01*
X1070Y988D01*
X1070Y990D01*
X1072Y990D01*
X1072Y992D01*
X1076Y992D01*
X1076Y994D01*
X1080Y994D01*
X1080Y996D01*
X1084Y996D01*
X1084Y998D01*
X1090Y998D01*
X1090Y1000D01*
X1006Y1000D01*
G37*
D02*
G36*
X1106Y1000D02*
X1106Y998D01*
X1112Y998D01*
X1112Y996D01*
X1116Y996D01*
X1116Y994D01*
X1120Y994D01*
X1120Y992D01*
X1124Y992D01*
X1124Y990D01*
X1126Y990D01*
X1126Y988D01*
X1128Y988D01*
X1128Y986D01*
X1130Y986D01*
X1130Y984D01*
X1132Y984D01*
X1132Y982D01*
X1134Y982D01*
X1134Y980D01*
X1136Y980D01*
X1136Y978D01*
X1138Y978D01*
X1138Y974D01*
X1158Y974D01*
X1158Y976D01*
X1160Y976D01*
X1160Y980D01*
X1162Y980D01*
X1162Y982D01*
X1164Y982D01*
X1164Y984D01*
X1166Y984D01*
X1166Y986D01*
X1168Y986D01*
X1168Y988D01*
X1170Y988D01*
X1170Y990D01*
X1172Y990D01*
X1172Y992D01*
X1176Y992D01*
X1176Y994D01*
X1180Y994D01*
X1180Y996D01*
X1184Y996D01*
X1184Y998D01*
X1190Y998D01*
X1190Y1000D01*
X1106Y1000D01*
G37*
D02*
G36*
X1206Y1000D02*
X1206Y998D01*
X1212Y998D01*
X1212Y996D01*
X1216Y996D01*
X1216Y994D01*
X1220Y994D01*
X1220Y992D01*
X1224Y992D01*
X1224Y990D01*
X1226Y990D01*
X1226Y988D01*
X1228Y988D01*
X1228Y986D01*
X1230Y986D01*
X1230Y984D01*
X1232Y984D01*
X1232Y982D01*
X1234Y982D01*
X1234Y980D01*
X1236Y980D01*
X1236Y978D01*
X1238Y978D01*
X1238Y974D01*
X1258Y974D01*
X1258Y976D01*
X1260Y976D01*
X1260Y980D01*
X1262Y980D01*
X1262Y982D01*
X1264Y982D01*
X1264Y984D01*
X1266Y984D01*
X1266Y986D01*
X1268Y986D01*
X1268Y988D01*
X1270Y988D01*
X1270Y990D01*
X1272Y990D01*
X1272Y992D01*
X1276Y992D01*
X1276Y994D01*
X1280Y994D01*
X1280Y996D01*
X1284Y996D01*
X1284Y998D01*
X1290Y998D01*
X1290Y1000D01*
X1206Y1000D01*
G37*
D02*
G36*
X1306Y1000D02*
X1306Y998D01*
X1312Y998D01*
X1312Y996D01*
X1316Y996D01*
X1316Y994D01*
X1320Y994D01*
X1320Y992D01*
X1324Y992D01*
X1324Y990D01*
X1326Y990D01*
X1326Y988D01*
X1328Y988D01*
X1328Y986D01*
X1330Y986D01*
X1330Y984D01*
X1332Y984D01*
X1332Y982D01*
X1334Y982D01*
X1334Y980D01*
X1336Y980D01*
X1336Y978D01*
X1338Y978D01*
X1338Y974D01*
X1358Y974D01*
X1358Y976D01*
X1360Y976D01*
X1360Y980D01*
X1362Y980D01*
X1362Y982D01*
X1364Y982D01*
X1364Y984D01*
X1366Y984D01*
X1366Y986D01*
X1368Y986D01*
X1368Y988D01*
X1370Y988D01*
X1370Y990D01*
X1372Y990D01*
X1372Y992D01*
X1376Y992D01*
X1376Y994D01*
X1380Y994D01*
X1380Y996D01*
X1384Y996D01*
X1384Y998D01*
X1390Y998D01*
X1390Y1000D01*
X1306Y1000D01*
G37*
D02*
G36*
X1406Y1000D02*
X1406Y998D01*
X1412Y998D01*
X1412Y996D01*
X1416Y996D01*
X1416Y994D01*
X1420Y994D01*
X1420Y992D01*
X1424Y992D01*
X1424Y990D01*
X1426Y990D01*
X1426Y988D01*
X1428Y988D01*
X1428Y986D01*
X1430Y986D01*
X1430Y984D01*
X1432Y984D01*
X1432Y982D01*
X1434Y982D01*
X1434Y980D01*
X1436Y980D01*
X1436Y978D01*
X1438Y978D01*
X1438Y974D01*
X1458Y974D01*
X1458Y976D01*
X1460Y976D01*
X1460Y980D01*
X1462Y980D01*
X1462Y982D01*
X1464Y982D01*
X1464Y984D01*
X1466Y984D01*
X1466Y986D01*
X1468Y986D01*
X1468Y988D01*
X1470Y988D01*
X1470Y990D01*
X1472Y990D01*
X1472Y992D01*
X1476Y992D01*
X1476Y994D01*
X1480Y994D01*
X1480Y996D01*
X1484Y996D01*
X1484Y998D01*
X1490Y998D01*
X1490Y1000D01*
X1406Y1000D01*
G37*
D02*
G36*
X1506Y1000D02*
X1506Y998D01*
X1512Y998D01*
X1512Y996D01*
X1516Y996D01*
X1516Y994D01*
X1520Y994D01*
X1520Y992D01*
X1524Y992D01*
X1524Y990D01*
X1526Y990D01*
X1526Y988D01*
X1528Y988D01*
X1528Y986D01*
X1530Y986D01*
X1530Y984D01*
X1532Y984D01*
X1532Y982D01*
X1534Y982D01*
X1534Y980D01*
X1536Y980D01*
X1536Y978D01*
X1538Y978D01*
X1538Y974D01*
X1558Y974D01*
X1558Y976D01*
X1560Y976D01*
X1560Y980D01*
X1562Y980D01*
X1562Y982D01*
X1564Y982D01*
X1564Y984D01*
X1566Y984D01*
X1566Y986D01*
X1568Y986D01*
X1568Y988D01*
X1570Y988D01*
X1570Y990D01*
X1572Y990D01*
X1572Y992D01*
X1576Y992D01*
X1576Y994D01*
X1580Y994D01*
X1580Y996D01*
X1584Y996D01*
X1584Y998D01*
X1590Y998D01*
X1590Y1000D01*
X1506Y1000D01*
G37*
D02*
G36*
X1606Y1000D02*
X1606Y998D01*
X1612Y998D01*
X1612Y996D01*
X1616Y996D01*
X1616Y994D01*
X1620Y994D01*
X1620Y992D01*
X1624Y992D01*
X1624Y990D01*
X1626Y990D01*
X1626Y988D01*
X1628Y988D01*
X1628Y986D01*
X1630Y986D01*
X1630Y984D01*
X1632Y984D01*
X1632Y982D01*
X1634Y982D01*
X1634Y980D01*
X1636Y980D01*
X1636Y978D01*
X1638Y978D01*
X1638Y974D01*
X1658Y974D01*
X1658Y976D01*
X1660Y976D01*
X1660Y980D01*
X1662Y980D01*
X1662Y982D01*
X1664Y982D01*
X1664Y984D01*
X1666Y984D01*
X1666Y986D01*
X1668Y986D01*
X1668Y988D01*
X1670Y988D01*
X1670Y990D01*
X1672Y990D01*
X1672Y992D01*
X1676Y992D01*
X1676Y994D01*
X1680Y994D01*
X1680Y996D01*
X1684Y996D01*
X1684Y998D01*
X1690Y998D01*
X1690Y1000D01*
X1606Y1000D01*
G37*
D02*
G36*
X1706Y1000D02*
X1706Y998D01*
X1712Y998D01*
X1712Y996D01*
X1716Y996D01*
X1716Y994D01*
X1720Y994D01*
X1720Y992D01*
X1724Y992D01*
X1724Y990D01*
X1726Y990D01*
X1726Y988D01*
X1728Y988D01*
X1728Y986D01*
X1730Y986D01*
X1730Y984D01*
X1732Y984D01*
X1732Y982D01*
X1734Y982D01*
X1734Y980D01*
X1736Y980D01*
X1736Y978D01*
X1738Y978D01*
X1738Y974D01*
X1758Y974D01*
X1758Y976D01*
X1760Y976D01*
X1760Y980D01*
X1762Y980D01*
X1762Y982D01*
X1764Y982D01*
X1764Y984D01*
X1766Y984D01*
X1766Y986D01*
X1768Y986D01*
X1768Y988D01*
X1770Y988D01*
X1770Y990D01*
X1772Y990D01*
X1772Y992D01*
X1776Y992D01*
X1776Y994D01*
X1780Y994D01*
X1780Y996D01*
X1784Y996D01*
X1784Y998D01*
X1790Y998D01*
X1790Y1000D01*
X1706Y1000D01*
G37*
D02*
G36*
X1806Y1000D02*
X1806Y998D01*
X1812Y998D01*
X1812Y996D01*
X1816Y996D01*
X1816Y994D01*
X1820Y994D01*
X1820Y992D01*
X1824Y992D01*
X1824Y990D01*
X1826Y990D01*
X1826Y988D01*
X1828Y988D01*
X1828Y986D01*
X1830Y986D01*
X1830Y984D01*
X1832Y984D01*
X1832Y982D01*
X1834Y982D01*
X1834Y980D01*
X1836Y980D01*
X1836Y978D01*
X1838Y978D01*
X1838Y974D01*
X1858Y974D01*
X1858Y976D01*
X1860Y976D01*
X1860Y980D01*
X1862Y980D01*
X1862Y982D01*
X1864Y982D01*
X1864Y984D01*
X1866Y984D01*
X1866Y986D01*
X1868Y986D01*
X1868Y988D01*
X1870Y988D01*
X1870Y990D01*
X1872Y990D01*
X1872Y992D01*
X1876Y992D01*
X1876Y994D01*
X1880Y994D01*
X1880Y996D01*
X1884Y996D01*
X1884Y998D01*
X1890Y998D01*
X1890Y1000D01*
X1806Y1000D01*
G37*
D02*
G36*
X1906Y1000D02*
X1906Y998D01*
X1912Y998D01*
X1912Y996D01*
X1916Y996D01*
X1916Y994D01*
X1920Y994D01*
X1920Y992D01*
X1924Y992D01*
X1924Y990D01*
X1926Y990D01*
X1926Y988D01*
X1928Y988D01*
X1928Y986D01*
X1930Y986D01*
X1930Y984D01*
X1932Y984D01*
X1932Y982D01*
X1934Y982D01*
X1934Y980D01*
X1936Y980D01*
X1936Y978D01*
X1938Y978D01*
X1938Y974D01*
X1958Y974D01*
X1958Y976D01*
X1960Y976D01*
X1960Y980D01*
X1962Y980D01*
X1962Y982D01*
X1964Y982D01*
X1964Y984D01*
X1966Y984D01*
X1966Y986D01*
X1968Y986D01*
X1968Y988D01*
X1970Y988D01*
X1970Y990D01*
X1972Y990D01*
X1972Y992D01*
X1976Y992D01*
X1976Y994D01*
X1980Y994D01*
X1980Y996D01*
X1984Y996D01*
X1984Y998D01*
X1990Y998D01*
X1990Y1000D01*
X1906Y1000D01*
G37*
D02*
G36*
X1338Y930D02*
X1338Y928D01*
X1336Y928D01*
X1336Y924D01*
X1334Y924D01*
X1334Y922D01*
X1332Y922D01*
X1332Y920D01*
X1330Y920D01*
X1330Y918D01*
X1328Y918D01*
X1328Y916D01*
X1326Y916D01*
X1326Y914D01*
X1322Y914D01*
X1322Y912D01*
X1320Y912D01*
X1320Y904D01*
X1394Y904D01*
X1394Y906D01*
X1386Y906D01*
X1386Y908D01*
X1380Y908D01*
X1380Y910D01*
X1376Y910D01*
X1376Y912D01*
X1374Y912D01*
X1374Y914D01*
X1370Y914D01*
X1370Y916D01*
X1368Y916D01*
X1368Y918D01*
X1366Y918D01*
X1366Y920D01*
X1364Y920D01*
X1364Y922D01*
X1362Y922D01*
X1362Y924D01*
X1360Y924D01*
X1360Y928D01*
X1358Y928D01*
X1358Y930D01*
X1338Y930D01*
G37*
D02*
G36*
X1438Y930D02*
X1438Y928D01*
X1436Y928D01*
X1436Y924D01*
X1434Y924D01*
X1434Y922D01*
X1432Y922D01*
X1432Y920D01*
X1430Y920D01*
X1430Y918D01*
X1428Y918D01*
X1428Y916D01*
X1426Y916D01*
X1426Y914D01*
X1422Y914D01*
X1422Y912D01*
X1420Y912D01*
X1420Y910D01*
X1416Y910D01*
X1416Y908D01*
X1410Y908D01*
X1410Y906D01*
X1402Y906D01*
X1402Y904D01*
X1494Y904D01*
X1494Y906D01*
X1486Y906D01*
X1486Y908D01*
X1480Y908D01*
X1480Y910D01*
X1476Y910D01*
X1476Y912D01*
X1474Y912D01*
X1474Y914D01*
X1470Y914D01*
X1470Y916D01*
X1468Y916D01*
X1468Y918D01*
X1466Y918D01*
X1466Y920D01*
X1464Y920D01*
X1464Y922D01*
X1462Y922D01*
X1462Y924D01*
X1460Y924D01*
X1460Y928D01*
X1458Y928D01*
X1458Y930D01*
X1438Y930D01*
G37*
D02*
G36*
X1538Y930D02*
X1538Y928D01*
X1536Y928D01*
X1536Y924D01*
X1534Y924D01*
X1534Y922D01*
X1532Y922D01*
X1532Y920D01*
X1530Y920D01*
X1530Y918D01*
X1528Y918D01*
X1528Y916D01*
X1526Y916D01*
X1526Y914D01*
X1522Y914D01*
X1522Y912D01*
X1520Y912D01*
X1520Y910D01*
X1516Y910D01*
X1516Y908D01*
X1510Y908D01*
X1510Y906D01*
X1502Y906D01*
X1502Y904D01*
X1594Y904D01*
X1594Y906D01*
X1586Y906D01*
X1586Y908D01*
X1580Y908D01*
X1580Y910D01*
X1576Y910D01*
X1576Y912D01*
X1574Y912D01*
X1574Y914D01*
X1570Y914D01*
X1570Y916D01*
X1568Y916D01*
X1568Y918D01*
X1566Y918D01*
X1566Y920D01*
X1564Y920D01*
X1564Y922D01*
X1562Y922D01*
X1562Y924D01*
X1560Y924D01*
X1560Y928D01*
X1558Y928D01*
X1558Y930D01*
X1538Y930D01*
G37*
D02*
G36*
X1638Y930D02*
X1638Y928D01*
X1636Y928D01*
X1636Y924D01*
X1634Y924D01*
X1634Y922D01*
X1632Y922D01*
X1632Y920D01*
X1630Y920D01*
X1630Y918D01*
X1628Y918D01*
X1628Y916D01*
X1626Y916D01*
X1626Y914D01*
X1622Y914D01*
X1622Y912D01*
X1620Y912D01*
X1620Y910D01*
X1616Y910D01*
X1616Y908D01*
X1610Y908D01*
X1610Y906D01*
X1602Y906D01*
X1602Y904D01*
X1694Y904D01*
X1694Y906D01*
X1686Y906D01*
X1686Y908D01*
X1680Y908D01*
X1680Y910D01*
X1676Y910D01*
X1676Y912D01*
X1674Y912D01*
X1674Y914D01*
X1670Y914D01*
X1670Y916D01*
X1668Y916D01*
X1668Y918D01*
X1666Y918D01*
X1666Y920D01*
X1664Y920D01*
X1664Y922D01*
X1662Y922D01*
X1662Y924D01*
X1660Y924D01*
X1660Y928D01*
X1658Y928D01*
X1658Y930D01*
X1638Y930D01*
G37*
D02*
G36*
X1738Y930D02*
X1738Y928D01*
X1736Y928D01*
X1736Y924D01*
X1734Y924D01*
X1734Y922D01*
X1732Y922D01*
X1732Y920D01*
X1730Y920D01*
X1730Y918D01*
X1728Y918D01*
X1728Y916D01*
X1726Y916D01*
X1726Y914D01*
X1722Y914D01*
X1722Y912D01*
X1720Y912D01*
X1720Y910D01*
X1716Y910D01*
X1716Y908D01*
X1710Y908D01*
X1710Y906D01*
X1702Y906D01*
X1702Y904D01*
X1794Y904D01*
X1794Y906D01*
X1786Y906D01*
X1786Y908D01*
X1780Y908D01*
X1780Y910D01*
X1776Y910D01*
X1776Y912D01*
X1774Y912D01*
X1774Y914D01*
X1770Y914D01*
X1770Y916D01*
X1768Y916D01*
X1768Y918D01*
X1766Y918D01*
X1766Y920D01*
X1764Y920D01*
X1764Y922D01*
X1762Y922D01*
X1762Y924D01*
X1760Y924D01*
X1760Y928D01*
X1758Y928D01*
X1758Y930D01*
X1738Y930D01*
G37*
D02*
G36*
X1838Y930D02*
X1838Y928D01*
X1836Y928D01*
X1836Y924D01*
X1834Y924D01*
X1834Y922D01*
X1832Y922D01*
X1832Y920D01*
X1830Y920D01*
X1830Y918D01*
X1828Y918D01*
X1828Y916D01*
X1826Y916D01*
X1826Y914D01*
X1822Y914D01*
X1822Y912D01*
X1820Y912D01*
X1820Y910D01*
X1816Y910D01*
X1816Y908D01*
X1810Y908D01*
X1810Y906D01*
X1802Y906D01*
X1802Y904D01*
X1894Y904D01*
X1894Y906D01*
X1886Y906D01*
X1886Y908D01*
X1880Y908D01*
X1880Y910D01*
X1876Y910D01*
X1876Y912D01*
X1874Y912D01*
X1874Y914D01*
X1870Y914D01*
X1870Y916D01*
X1868Y916D01*
X1868Y918D01*
X1866Y918D01*
X1866Y920D01*
X1864Y920D01*
X1864Y922D01*
X1862Y922D01*
X1862Y924D01*
X1860Y924D01*
X1860Y928D01*
X1858Y928D01*
X1858Y930D01*
X1838Y930D01*
G37*
D02*
G36*
X1938Y930D02*
X1938Y928D01*
X1936Y928D01*
X1936Y924D01*
X1934Y924D01*
X1934Y922D01*
X1932Y922D01*
X1932Y920D01*
X1930Y920D01*
X1930Y918D01*
X1928Y918D01*
X1928Y916D01*
X1926Y916D01*
X1926Y914D01*
X1922Y914D01*
X1922Y912D01*
X1920Y912D01*
X1920Y910D01*
X1916Y910D01*
X1916Y908D01*
X1910Y908D01*
X1910Y906D01*
X1902Y906D01*
X1902Y904D01*
X1994Y904D01*
X1994Y906D01*
X1986Y906D01*
X1986Y908D01*
X1980Y908D01*
X1980Y910D01*
X1976Y910D01*
X1976Y912D01*
X1974Y912D01*
X1974Y914D01*
X1970Y914D01*
X1970Y916D01*
X1968Y916D01*
X1968Y918D01*
X1966Y918D01*
X1966Y920D01*
X1964Y920D01*
X1964Y922D01*
X1962Y922D01*
X1962Y924D01*
X1960Y924D01*
X1960Y928D01*
X1958Y928D01*
X1958Y930D01*
X1938Y930D01*
G37*
D02*
G36*
X1320Y904D02*
X1320Y902D01*
X2226Y902D01*
X2226Y904D01*
X1320Y904D01*
G37*
D02*
G36*
X1320Y904D02*
X1320Y902D01*
X2226Y902D01*
X2226Y904D01*
X1320Y904D01*
G37*
D02*
G36*
X1320Y904D02*
X1320Y902D01*
X2226Y902D01*
X2226Y904D01*
X1320Y904D01*
G37*
D02*
G36*
X1320Y904D02*
X1320Y902D01*
X2226Y902D01*
X2226Y904D01*
X1320Y904D01*
G37*
D02*
G36*
X1320Y904D02*
X1320Y902D01*
X2226Y902D01*
X2226Y904D01*
X1320Y904D01*
G37*
D02*
G36*
X1320Y904D02*
X1320Y902D01*
X2226Y902D01*
X2226Y904D01*
X1320Y904D01*
G37*
D02*
G36*
X1320Y904D02*
X1320Y902D01*
X2226Y902D01*
X2226Y904D01*
X1320Y904D01*
G37*
D02*
G36*
X1320Y904D02*
X1320Y902D01*
X2226Y902D01*
X2226Y904D01*
X1320Y904D01*
G37*
D02*
G36*
X1320Y902D02*
X1320Y742D01*
X1324Y742D01*
X1324Y740D01*
X1326Y740D01*
X1326Y738D01*
X1328Y738D01*
X1328Y736D01*
X1330Y736D01*
X1330Y734D01*
X1332Y734D01*
X1332Y732D01*
X1334Y732D01*
X1334Y730D01*
X1336Y730D01*
X1336Y728D01*
X1338Y728D01*
X1338Y726D01*
X1340Y726D01*
X1340Y722D01*
X1342Y722D01*
X1342Y718D01*
X1344Y718D01*
X1344Y712D01*
X1346Y712D01*
X1346Y704D01*
X1348Y704D01*
X1348Y698D01*
X1346Y698D01*
X1346Y688D01*
X1344Y688D01*
X1344Y682D01*
X1342Y682D01*
X1342Y678D01*
X1340Y678D01*
X1340Y676D01*
X1338Y676D01*
X1338Y672D01*
X1336Y672D01*
X1336Y670D01*
X1334Y670D01*
X1334Y668D01*
X1332Y668D01*
X1332Y666D01*
X1330Y666D01*
X1330Y664D01*
X1328Y664D01*
X1328Y662D01*
X1324Y662D01*
X1324Y640D01*
X1326Y640D01*
X1326Y638D01*
X1328Y638D01*
X1328Y636D01*
X1330Y636D01*
X1330Y634D01*
X1332Y634D01*
X1332Y632D01*
X1334Y632D01*
X1334Y630D01*
X1336Y630D01*
X1336Y628D01*
X1338Y628D01*
X1338Y626D01*
X1340Y626D01*
X1340Y622D01*
X1342Y622D01*
X1342Y618D01*
X1344Y618D01*
X1344Y616D01*
X1944Y616D01*
X1944Y618D01*
X1946Y618D01*
X1946Y620D01*
X1948Y620D01*
X1948Y622D01*
X1950Y622D01*
X1950Y624D01*
X1952Y624D01*
X1952Y626D01*
X1954Y626D01*
X1954Y628D01*
X1956Y628D01*
X1956Y630D01*
X1958Y630D01*
X1958Y632D01*
X1960Y632D01*
X1960Y634D01*
X1962Y634D01*
X1962Y636D01*
X1964Y636D01*
X1964Y638D01*
X1966Y638D01*
X1966Y640D01*
X1968Y640D01*
X1968Y642D01*
X1970Y642D01*
X1970Y644D01*
X1972Y644D01*
X1972Y646D01*
X1974Y646D01*
X1974Y648D01*
X1976Y648D01*
X1976Y650D01*
X1978Y650D01*
X1978Y652D01*
X1980Y652D01*
X1980Y654D01*
X1982Y654D01*
X1982Y656D01*
X1984Y656D01*
X1984Y658D01*
X1986Y658D01*
X1986Y660D01*
X1988Y660D01*
X1988Y662D01*
X1990Y662D01*
X1990Y664D01*
X1992Y664D01*
X1992Y666D01*
X1994Y666D01*
X1994Y668D01*
X1996Y668D01*
X1996Y670D01*
X1998Y670D01*
X1998Y672D01*
X2000Y672D01*
X2000Y674D01*
X2002Y674D01*
X2002Y676D01*
X2004Y676D01*
X2004Y678D01*
X2006Y678D01*
X2006Y680D01*
X2008Y680D01*
X2008Y682D01*
X2010Y682D01*
X2010Y684D01*
X2012Y684D01*
X2012Y686D01*
X2014Y686D01*
X2014Y688D01*
X2016Y688D01*
X2016Y690D01*
X2018Y690D01*
X2018Y692D01*
X2020Y692D01*
X2020Y694D01*
X2022Y694D01*
X2022Y696D01*
X2024Y696D01*
X2024Y698D01*
X2026Y698D01*
X2026Y700D01*
X2028Y700D01*
X2028Y702D01*
X2030Y702D01*
X2030Y704D01*
X2032Y704D01*
X2032Y706D01*
X2034Y706D01*
X2034Y710D01*
X2036Y710D01*
X2036Y712D01*
X2038Y712D01*
X2038Y714D01*
X2040Y714D01*
X2040Y716D01*
X2042Y716D01*
X2042Y718D01*
X2044Y718D01*
X2044Y720D01*
X2046Y720D01*
X2046Y722D01*
X2048Y722D01*
X2048Y724D01*
X2050Y724D01*
X2050Y726D01*
X2052Y726D01*
X2052Y728D01*
X2054Y728D01*
X2054Y730D01*
X2056Y730D01*
X2056Y732D01*
X2058Y732D01*
X2058Y734D01*
X2060Y734D01*
X2060Y736D01*
X2062Y736D01*
X2062Y738D01*
X2064Y738D01*
X2064Y740D01*
X2066Y740D01*
X2066Y742D01*
X2068Y742D01*
X2068Y744D01*
X2070Y744D01*
X2070Y746D01*
X2072Y746D01*
X2072Y748D01*
X2074Y748D01*
X2074Y750D01*
X2076Y750D01*
X2076Y752D01*
X2078Y752D01*
X2078Y754D01*
X2080Y754D01*
X2080Y756D01*
X2082Y756D01*
X2082Y758D01*
X2084Y758D01*
X2084Y760D01*
X2086Y760D01*
X2086Y762D01*
X2088Y762D01*
X2088Y764D01*
X2090Y764D01*
X2090Y766D01*
X2092Y766D01*
X2092Y768D01*
X2094Y768D01*
X2094Y770D01*
X2096Y770D01*
X2096Y772D01*
X2098Y772D01*
X2098Y774D01*
X2100Y774D01*
X2100Y776D01*
X2102Y776D01*
X2102Y778D01*
X2104Y778D01*
X2104Y780D01*
X2106Y780D01*
X2106Y782D01*
X2108Y782D01*
X2108Y784D01*
X2110Y784D01*
X2110Y786D01*
X2112Y786D01*
X2112Y788D01*
X2114Y788D01*
X2114Y790D01*
X2116Y790D01*
X2116Y792D01*
X2118Y792D01*
X2118Y794D01*
X2120Y794D01*
X2120Y796D01*
X2122Y796D01*
X2122Y798D01*
X2124Y798D01*
X2124Y800D01*
X2126Y800D01*
X2126Y802D01*
X2128Y802D01*
X2128Y804D01*
X2130Y804D01*
X2130Y806D01*
X2132Y806D01*
X2132Y808D01*
X2134Y808D01*
X2134Y810D01*
X2136Y810D01*
X2136Y812D01*
X2138Y812D01*
X2138Y814D01*
X2140Y814D01*
X2140Y816D01*
X2142Y816D01*
X2142Y818D01*
X2144Y818D01*
X2144Y820D01*
X2146Y820D01*
X2146Y822D01*
X2148Y822D01*
X2148Y824D01*
X2150Y824D01*
X2150Y826D01*
X2152Y826D01*
X2152Y828D01*
X2154Y828D01*
X2154Y830D01*
X2156Y830D01*
X2156Y832D01*
X2158Y832D01*
X2158Y834D01*
X2160Y834D01*
X2160Y836D01*
X2162Y836D01*
X2162Y838D01*
X2164Y838D01*
X2164Y840D01*
X2166Y840D01*
X2166Y842D01*
X2168Y842D01*
X2168Y844D01*
X2170Y844D01*
X2170Y846D01*
X2172Y846D01*
X2172Y848D01*
X2174Y848D01*
X2174Y850D01*
X2176Y850D01*
X2176Y852D01*
X2178Y852D01*
X2178Y854D01*
X2180Y854D01*
X2180Y856D01*
X2182Y856D01*
X2182Y860D01*
X2184Y860D01*
X2184Y862D01*
X2186Y862D01*
X2186Y864D01*
X2188Y864D01*
X2188Y866D01*
X2190Y866D01*
X2190Y868D01*
X2192Y868D01*
X2192Y870D01*
X2194Y870D01*
X2194Y872D01*
X2196Y872D01*
X2196Y874D01*
X2198Y874D01*
X2198Y876D01*
X2200Y876D01*
X2200Y878D01*
X2202Y878D01*
X2202Y880D01*
X2204Y880D01*
X2204Y882D01*
X2206Y882D01*
X2206Y884D01*
X2208Y884D01*
X2208Y886D01*
X2210Y886D01*
X2210Y888D01*
X2212Y888D01*
X2212Y890D01*
X2214Y890D01*
X2214Y892D01*
X2216Y892D01*
X2216Y894D01*
X2218Y894D01*
X2218Y896D01*
X2220Y896D01*
X2220Y898D01*
X2222Y898D01*
X2222Y900D01*
X2224Y900D01*
X2224Y902D01*
X1320Y902D01*
G37*
D02*
G36*
X138Y930D02*
X138Y928D01*
X136Y928D01*
X136Y924D01*
X134Y924D01*
X134Y922D01*
X132Y922D01*
X132Y920D01*
X130Y920D01*
X130Y918D01*
X128Y918D01*
X128Y916D01*
X126Y916D01*
X126Y914D01*
X122Y914D01*
X122Y912D01*
X120Y912D01*
X120Y910D01*
X116Y910D01*
X116Y908D01*
X110Y908D01*
X110Y906D01*
X102Y906D01*
X102Y904D01*
X194Y904D01*
X194Y906D01*
X186Y906D01*
X186Y908D01*
X180Y908D01*
X180Y910D01*
X176Y910D01*
X176Y912D01*
X174Y912D01*
X174Y914D01*
X170Y914D01*
X170Y916D01*
X168Y916D01*
X168Y918D01*
X166Y918D01*
X166Y920D01*
X164Y920D01*
X164Y922D01*
X162Y922D01*
X162Y924D01*
X160Y924D01*
X160Y928D01*
X158Y928D01*
X158Y930D01*
X138Y930D01*
G37*
D02*
G36*
X40Y928D02*
X40Y904D01*
X94Y904D01*
X94Y906D01*
X86Y906D01*
X86Y908D01*
X80Y908D01*
X80Y910D01*
X76Y910D01*
X76Y912D01*
X74Y912D01*
X74Y914D01*
X70Y914D01*
X70Y916D01*
X68Y916D01*
X68Y918D01*
X66Y918D01*
X66Y920D01*
X64Y920D01*
X64Y922D01*
X62Y922D01*
X62Y924D01*
X60Y924D01*
X60Y928D01*
X40Y928D01*
G37*
D02*
G36*
X40Y904D02*
X40Y902D01*
X212Y902D01*
X212Y904D01*
X40Y904D01*
G37*
D02*
G36*
X40Y904D02*
X40Y902D01*
X212Y902D01*
X212Y904D01*
X40Y904D01*
G37*
D02*
G36*
X40Y902D02*
X40Y276D01*
X204Y276D01*
X204Y274D01*
X216Y274D01*
X216Y272D01*
X222Y272D01*
X222Y270D01*
X226Y270D01*
X226Y268D01*
X230Y268D01*
X230Y266D01*
X234Y266D01*
X234Y264D01*
X238Y264D01*
X238Y262D01*
X240Y262D01*
X240Y260D01*
X242Y260D01*
X242Y258D01*
X246Y258D01*
X246Y256D01*
X248Y256D01*
X248Y254D01*
X250Y254D01*
X250Y252D01*
X252Y252D01*
X252Y250D01*
X254Y250D01*
X254Y246D01*
X256Y246D01*
X256Y244D01*
X258Y244D01*
X258Y242D01*
X260Y242D01*
X260Y238D01*
X262Y238D01*
X262Y234D01*
X264Y234D01*
X264Y230D01*
X266Y230D01*
X266Y226D01*
X268Y226D01*
X268Y218D01*
X270Y218D01*
X270Y206D01*
X272Y206D01*
X272Y198D01*
X270Y198D01*
X270Y186D01*
X268Y186D01*
X268Y180D01*
X266Y180D01*
X266Y174D01*
X264Y174D01*
X264Y170D01*
X262Y170D01*
X262Y166D01*
X260Y166D01*
X260Y164D01*
X258Y164D01*
X258Y160D01*
X256Y160D01*
X256Y158D01*
X254Y158D01*
X254Y156D01*
X252Y156D01*
X252Y152D01*
X250Y152D01*
X250Y150D01*
X246Y150D01*
X246Y148D01*
X244Y148D01*
X244Y146D01*
X242Y146D01*
X242Y144D01*
X240Y144D01*
X240Y142D01*
X236Y142D01*
X236Y140D01*
X234Y140D01*
X234Y138D01*
X230Y138D01*
X230Y136D01*
X226Y136D01*
X226Y134D01*
X220Y134D01*
X220Y132D01*
X214Y132D01*
X214Y130D01*
X894Y130D01*
X894Y132D01*
X892Y132D01*
X892Y134D01*
X890Y134D01*
X890Y136D01*
X888Y136D01*
X888Y138D01*
X886Y138D01*
X886Y140D01*
X884Y140D01*
X884Y142D01*
X882Y142D01*
X882Y146D01*
X880Y146D01*
X880Y148D01*
X878Y148D01*
X878Y150D01*
X876Y150D01*
X876Y152D01*
X874Y152D01*
X874Y154D01*
X872Y154D01*
X872Y156D01*
X870Y156D01*
X870Y158D01*
X868Y158D01*
X868Y162D01*
X866Y162D01*
X866Y164D01*
X864Y164D01*
X864Y166D01*
X862Y166D01*
X862Y168D01*
X860Y168D01*
X860Y170D01*
X858Y170D01*
X858Y172D01*
X856Y172D01*
X856Y174D01*
X854Y174D01*
X854Y176D01*
X852Y176D01*
X852Y180D01*
X850Y180D01*
X850Y182D01*
X848Y182D01*
X848Y184D01*
X846Y184D01*
X846Y186D01*
X844Y186D01*
X844Y188D01*
X842Y188D01*
X842Y190D01*
X840Y190D01*
X840Y192D01*
X838Y192D01*
X838Y196D01*
X836Y196D01*
X836Y198D01*
X834Y198D01*
X834Y200D01*
X832Y200D01*
X832Y202D01*
X830Y202D01*
X830Y204D01*
X828Y204D01*
X828Y206D01*
X826Y206D01*
X826Y208D01*
X824Y208D01*
X824Y210D01*
X822Y210D01*
X822Y214D01*
X820Y214D01*
X820Y216D01*
X818Y216D01*
X818Y218D01*
X816Y218D01*
X816Y220D01*
X814Y220D01*
X814Y222D01*
X812Y222D01*
X812Y224D01*
X810Y224D01*
X810Y226D01*
X808Y226D01*
X808Y230D01*
X806Y230D01*
X806Y232D01*
X804Y232D01*
X804Y234D01*
X802Y234D01*
X802Y236D01*
X800Y236D01*
X800Y238D01*
X798Y238D01*
X798Y240D01*
X796Y240D01*
X796Y242D01*
X794Y242D01*
X794Y244D01*
X792Y244D01*
X792Y248D01*
X790Y248D01*
X790Y250D01*
X788Y250D01*
X788Y252D01*
X786Y252D01*
X786Y254D01*
X784Y254D01*
X784Y256D01*
X782Y256D01*
X782Y258D01*
X780Y258D01*
X780Y260D01*
X778Y260D01*
X778Y264D01*
X776Y264D01*
X776Y266D01*
X774Y266D01*
X774Y268D01*
X772Y268D01*
X772Y270D01*
X770Y270D01*
X770Y272D01*
X768Y272D01*
X768Y274D01*
X766Y274D01*
X766Y276D01*
X764Y276D01*
X764Y278D01*
X762Y278D01*
X762Y282D01*
X760Y282D01*
X760Y284D01*
X758Y284D01*
X758Y286D01*
X756Y286D01*
X756Y288D01*
X754Y288D01*
X754Y290D01*
X752Y290D01*
X752Y292D01*
X750Y292D01*
X750Y294D01*
X748Y294D01*
X748Y298D01*
X746Y298D01*
X746Y300D01*
X744Y300D01*
X744Y302D01*
X742Y302D01*
X742Y304D01*
X740Y304D01*
X740Y306D01*
X738Y306D01*
X738Y308D01*
X736Y308D01*
X736Y310D01*
X734Y310D01*
X734Y312D01*
X732Y312D01*
X732Y316D01*
X730Y316D01*
X730Y318D01*
X728Y318D01*
X728Y320D01*
X726Y320D01*
X726Y322D01*
X724Y322D01*
X724Y324D01*
X722Y324D01*
X722Y326D01*
X720Y326D01*
X720Y328D01*
X718Y328D01*
X718Y332D01*
X716Y332D01*
X716Y334D01*
X714Y334D01*
X714Y336D01*
X712Y336D01*
X712Y338D01*
X710Y338D01*
X710Y340D01*
X708Y340D01*
X708Y342D01*
X706Y342D01*
X706Y344D01*
X704Y344D01*
X704Y346D01*
X702Y346D01*
X702Y350D01*
X700Y350D01*
X700Y352D01*
X698Y352D01*
X698Y354D01*
X696Y354D01*
X696Y356D01*
X694Y356D01*
X694Y358D01*
X692Y358D01*
X692Y360D01*
X690Y360D01*
X690Y362D01*
X688Y362D01*
X688Y366D01*
X686Y366D01*
X686Y368D01*
X684Y368D01*
X684Y370D01*
X682Y370D01*
X682Y372D01*
X680Y372D01*
X680Y374D01*
X678Y374D01*
X678Y376D01*
X676Y376D01*
X676Y378D01*
X674Y378D01*
X674Y380D01*
X672Y380D01*
X672Y384D01*
X670Y384D01*
X670Y386D01*
X668Y386D01*
X668Y388D01*
X666Y388D01*
X666Y390D01*
X664Y390D01*
X664Y392D01*
X662Y392D01*
X662Y394D01*
X660Y394D01*
X660Y396D01*
X658Y396D01*
X658Y400D01*
X656Y400D01*
X656Y402D01*
X654Y402D01*
X654Y404D01*
X652Y404D01*
X652Y406D01*
X650Y406D01*
X650Y408D01*
X648Y408D01*
X648Y410D01*
X646Y410D01*
X646Y412D01*
X644Y412D01*
X644Y414D01*
X642Y414D01*
X642Y418D01*
X640Y418D01*
X640Y420D01*
X638Y420D01*
X638Y422D01*
X636Y422D01*
X636Y424D01*
X634Y424D01*
X634Y426D01*
X632Y426D01*
X632Y428D01*
X630Y428D01*
X630Y430D01*
X628Y430D01*
X628Y434D01*
X626Y434D01*
X626Y436D01*
X624Y436D01*
X624Y438D01*
X622Y438D01*
X622Y440D01*
X620Y440D01*
X620Y442D01*
X618Y442D01*
X618Y444D01*
X616Y444D01*
X616Y446D01*
X614Y446D01*
X614Y448D01*
X612Y448D01*
X612Y452D01*
X610Y452D01*
X610Y454D01*
X608Y454D01*
X608Y456D01*
X606Y456D01*
X606Y458D01*
X604Y458D01*
X604Y460D01*
X602Y460D01*
X602Y462D01*
X600Y462D01*
X600Y464D01*
X598Y464D01*
X598Y466D01*
X596Y466D01*
X596Y470D01*
X594Y470D01*
X594Y472D01*
X592Y472D01*
X592Y474D01*
X590Y474D01*
X590Y476D01*
X588Y476D01*
X588Y478D01*
X586Y478D01*
X586Y480D01*
X584Y480D01*
X584Y482D01*
X582Y482D01*
X582Y486D01*
X580Y486D01*
X580Y488D01*
X578Y488D01*
X578Y490D01*
X576Y490D01*
X576Y492D01*
X574Y492D01*
X574Y494D01*
X572Y494D01*
X572Y496D01*
X570Y496D01*
X570Y498D01*
X568Y498D01*
X568Y500D01*
X566Y500D01*
X566Y504D01*
X564Y504D01*
X564Y506D01*
X562Y506D01*
X562Y508D01*
X560Y508D01*
X560Y510D01*
X558Y510D01*
X558Y512D01*
X556Y512D01*
X556Y514D01*
X554Y514D01*
X554Y516D01*
X552Y516D01*
X552Y520D01*
X550Y520D01*
X550Y522D01*
X548Y522D01*
X548Y524D01*
X546Y524D01*
X546Y526D01*
X544Y526D01*
X544Y528D01*
X542Y528D01*
X542Y530D01*
X540Y530D01*
X540Y532D01*
X538Y532D01*
X538Y534D01*
X536Y534D01*
X536Y538D01*
X534Y538D01*
X534Y540D01*
X532Y540D01*
X532Y542D01*
X530Y542D01*
X530Y544D01*
X528Y544D01*
X528Y546D01*
X526Y546D01*
X526Y548D01*
X524Y548D01*
X524Y550D01*
X522Y550D01*
X522Y554D01*
X520Y554D01*
X520Y556D01*
X518Y556D01*
X518Y558D01*
X516Y558D01*
X516Y560D01*
X514Y560D01*
X514Y562D01*
X512Y562D01*
X512Y564D01*
X510Y564D01*
X510Y566D01*
X508Y566D01*
X508Y568D01*
X506Y568D01*
X506Y572D01*
X504Y572D01*
X504Y574D01*
X502Y574D01*
X502Y576D01*
X500Y576D01*
X500Y578D01*
X498Y578D01*
X498Y580D01*
X496Y580D01*
X496Y582D01*
X494Y582D01*
X494Y584D01*
X492Y584D01*
X492Y588D01*
X490Y588D01*
X490Y590D01*
X488Y590D01*
X488Y592D01*
X486Y592D01*
X486Y594D01*
X484Y594D01*
X484Y596D01*
X482Y596D01*
X482Y598D01*
X480Y598D01*
X480Y600D01*
X478Y600D01*
X478Y602D01*
X476Y602D01*
X476Y606D01*
X474Y606D01*
X474Y608D01*
X472Y608D01*
X472Y610D01*
X470Y610D01*
X470Y612D01*
X468Y612D01*
X468Y614D01*
X466Y614D01*
X466Y616D01*
X464Y616D01*
X464Y618D01*
X462Y618D01*
X462Y622D01*
X460Y622D01*
X460Y624D01*
X458Y624D01*
X458Y626D01*
X456Y626D01*
X456Y628D01*
X454Y628D01*
X454Y630D01*
X452Y630D01*
X452Y632D01*
X450Y632D01*
X450Y634D01*
X448Y634D01*
X448Y636D01*
X446Y636D01*
X446Y640D01*
X444Y640D01*
X444Y642D01*
X442Y642D01*
X442Y644D01*
X440Y644D01*
X440Y646D01*
X438Y646D01*
X438Y648D01*
X436Y648D01*
X436Y650D01*
X434Y650D01*
X434Y652D01*
X432Y652D01*
X432Y656D01*
X430Y656D01*
X430Y658D01*
X428Y658D01*
X428Y660D01*
X426Y660D01*
X426Y662D01*
X424Y662D01*
X424Y664D01*
X422Y664D01*
X422Y666D01*
X420Y666D01*
X420Y668D01*
X418Y668D01*
X418Y670D01*
X416Y670D01*
X416Y674D01*
X414Y674D01*
X414Y676D01*
X412Y676D01*
X412Y678D01*
X410Y678D01*
X410Y680D01*
X408Y680D01*
X408Y682D01*
X406Y682D01*
X406Y684D01*
X404Y684D01*
X404Y686D01*
X402Y686D01*
X402Y690D01*
X400Y690D01*
X400Y692D01*
X398Y692D01*
X398Y694D01*
X396Y694D01*
X396Y696D01*
X394Y696D01*
X394Y698D01*
X392Y698D01*
X392Y700D01*
X390Y700D01*
X390Y702D01*
X388Y702D01*
X388Y704D01*
X386Y704D01*
X386Y708D01*
X384Y708D01*
X384Y710D01*
X382Y710D01*
X382Y712D01*
X380Y712D01*
X380Y714D01*
X378Y714D01*
X378Y716D01*
X376Y716D01*
X376Y718D01*
X374Y718D01*
X374Y720D01*
X372Y720D01*
X372Y724D01*
X370Y724D01*
X370Y726D01*
X368Y726D01*
X368Y728D01*
X366Y728D01*
X366Y730D01*
X364Y730D01*
X364Y732D01*
X362Y732D01*
X362Y734D01*
X360Y734D01*
X360Y736D01*
X358Y736D01*
X358Y738D01*
X356Y738D01*
X356Y742D01*
X354Y742D01*
X354Y744D01*
X352Y744D01*
X352Y746D01*
X350Y746D01*
X350Y748D01*
X348Y748D01*
X348Y750D01*
X346Y750D01*
X346Y752D01*
X344Y752D01*
X344Y754D01*
X342Y754D01*
X342Y758D01*
X340Y758D01*
X340Y760D01*
X338Y760D01*
X338Y762D01*
X336Y762D01*
X336Y764D01*
X334Y764D01*
X334Y766D01*
X332Y766D01*
X332Y768D01*
X330Y768D01*
X330Y770D01*
X328Y770D01*
X328Y772D01*
X326Y772D01*
X326Y776D01*
X324Y776D01*
X324Y778D01*
X322Y778D01*
X322Y780D01*
X320Y780D01*
X320Y782D01*
X318Y782D01*
X318Y784D01*
X316Y784D01*
X316Y786D01*
X314Y786D01*
X314Y788D01*
X312Y788D01*
X312Y792D01*
X310Y792D01*
X310Y794D01*
X308Y794D01*
X308Y796D01*
X306Y796D01*
X306Y798D01*
X304Y798D01*
X304Y800D01*
X302Y800D01*
X302Y802D01*
X300Y802D01*
X300Y804D01*
X298Y804D01*
X298Y806D01*
X296Y806D01*
X296Y810D01*
X294Y810D01*
X294Y812D01*
X292Y812D01*
X292Y814D01*
X290Y814D01*
X290Y816D01*
X288Y816D01*
X288Y818D01*
X286Y818D01*
X286Y820D01*
X284Y820D01*
X284Y822D01*
X282Y822D01*
X282Y826D01*
X280Y826D01*
X280Y828D01*
X278Y828D01*
X278Y830D01*
X276Y830D01*
X276Y832D01*
X274Y832D01*
X274Y834D01*
X272Y834D01*
X272Y836D01*
X270Y836D01*
X270Y838D01*
X268Y838D01*
X268Y840D01*
X266Y840D01*
X266Y844D01*
X264Y844D01*
X264Y846D01*
X262Y846D01*
X262Y848D01*
X260Y848D01*
X260Y850D01*
X258Y850D01*
X258Y852D01*
X256Y852D01*
X256Y854D01*
X254Y854D01*
X254Y856D01*
X252Y856D01*
X252Y860D01*
X250Y860D01*
X250Y862D01*
X248Y862D01*
X248Y864D01*
X246Y864D01*
X246Y866D01*
X244Y866D01*
X244Y868D01*
X242Y868D01*
X242Y870D01*
X240Y870D01*
X240Y872D01*
X238Y872D01*
X238Y874D01*
X236Y874D01*
X236Y878D01*
X234Y878D01*
X234Y880D01*
X232Y880D01*
X232Y882D01*
X230Y882D01*
X230Y884D01*
X228Y884D01*
X228Y886D01*
X226Y886D01*
X226Y888D01*
X224Y888D01*
X224Y890D01*
X222Y890D01*
X222Y894D01*
X220Y894D01*
X220Y896D01*
X218Y896D01*
X218Y898D01*
X216Y898D01*
X216Y900D01*
X214Y900D01*
X214Y902D01*
X40Y902D01*
G37*
D02*
G36*
X40Y276D02*
X40Y130D01*
X182Y130D01*
X182Y132D01*
X176Y132D01*
X176Y134D01*
X170Y134D01*
X170Y136D01*
X166Y136D01*
X166Y138D01*
X162Y138D01*
X162Y140D01*
X160Y140D01*
X160Y142D01*
X156Y142D01*
X156Y144D01*
X154Y144D01*
X154Y146D01*
X152Y146D01*
X152Y148D01*
X150Y148D01*
X150Y150D01*
X148Y150D01*
X148Y152D01*
X146Y152D01*
X146Y154D01*
X144Y154D01*
X144Y156D01*
X142Y156D01*
X142Y158D01*
X140Y158D01*
X140Y160D01*
X138Y160D01*
X138Y164D01*
X136Y164D01*
X136Y166D01*
X134Y166D01*
X134Y170D01*
X132Y170D01*
X132Y174D01*
X130Y174D01*
X130Y180D01*
X128Y180D01*
X128Y186D01*
X126Y186D01*
X126Y218D01*
X128Y218D01*
X128Y224D01*
X130Y224D01*
X130Y230D01*
X132Y230D01*
X132Y234D01*
X134Y234D01*
X134Y238D01*
X136Y238D01*
X136Y242D01*
X138Y242D01*
X138Y244D01*
X140Y244D01*
X140Y246D01*
X142Y246D01*
X142Y248D01*
X144Y248D01*
X144Y252D01*
X146Y252D01*
X146Y254D01*
X148Y254D01*
X148Y256D01*
X150Y256D01*
X150Y258D01*
X154Y258D01*
X154Y260D01*
X156Y260D01*
X156Y262D01*
X158Y262D01*
X158Y264D01*
X162Y264D01*
X162Y266D01*
X166Y266D01*
X166Y268D01*
X170Y268D01*
X170Y270D01*
X174Y270D01*
X174Y272D01*
X182Y272D01*
X182Y274D01*
X194Y274D01*
X194Y276D01*
X40Y276D01*
G37*
D02*
G36*
X40Y130D02*
X40Y128D01*
X896Y128D01*
X896Y130D01*
X40Y130D01*
G37*
D02*
G36*
X40Y130D02*
X40Y128D01*
X896Y128D01*
X896Y130D01*
X40Y130D01*
G37*
D02*
G36*
X40Y128D02*
X40Y78D01*
X946Y78D01*
X946Y80D01*
X940Y80D01*
X940Y82D01*
X936Y82D01*
X936Y84D01*
X934Y84D01*
X934Y86D01*
X932Y86D01*
X932Y88D01*
X930Y88D01*
X930Y90D01*
X928Y90D01*
X928Y94D01*
X926Y94D01*
X926Y96D01*
X924Y96D01*
X924Y98D01*
X922Y98D01*
X922Y100D01*
X920Y100D01*
X920Y102D01*
X918Y102D01*
X918Y104D01*
X916Y104D01*
X916Y106D01*
X914Y106D01*
X914Y108D01*
X912Y108D01*
X912Y112D01*
X910Y112D01*
X910Y114D01*
X908Y114D01*
X908Y116D01*
X906Y116D01*
X906Y118D01*
X904Y118D01*
X904Y120D01*
X902Y120D01*
X902Y122D01*
X900Y122D01*
X900Y124D01*
X898Y124D01*
X898Y128D01*
X40Y128D01*
G37*
D02*
G36*
X2660Y84D02*
X2660Y82D01*
X2656Y82D01*
X2656Y80D01*
X2650Y80D01*
X2650Y78D01*
X2680Y78D01*
X2680Y84D01*
X2660Y84D01*
G37*
D02*
G36*
X40Y78D02*
X40Y76D01*
X2680Y76D01*
X2680Y78D01*
X40Y78D01*
G37*
D02*
G36*
X40Y78D02*
X40Y76D01*
X2680Y76D01*
X2680Y78D01*
X40Y78D01*
G37*
D02*
G36*
X40Y76D02*
X40Y40D01*
X2680Y40D01*
X2680Y76D01*
X40Y76D01*
G37*
D02*
G36*
X2466Y914D02*
X2466Y898D01*
X2464Y898D01*
X2464Y892D01*
X2462Y892D01*
X2462Y890D01*
X2460Y890D01*
X2460Y888D01*
X2456Y888D01*
X2456Y886D01*
X2436Y886D01*
X2436Y866D01*
X2438Y866D01*
X2438Y858D01*
X2458Y858D01*
X2458Y864D01*
X2460Y864D01*
X2460Y870D01*
X2462Y870D01*
X2462Y872D01*
X2464Y872D01*
X2464Y876D01*
X2466Y876D01*
X2466Y878D01*
X2468Y878D01*
X2468Y880D01*
X2470Y880D01*
X2470Y882D01*
X2472Y882D01*
X2472Y884D01*
X2474Y884D01*
X2474Y886D01*
X2478Y886D01*
X2478Y888D01*
X2480Y888D01*
X2480Y890D01*
X2484Y890D01*
X2484Y892D01*
X2492Y892D01*
X2492Y912D01*
X2486Y912D01*
X2486Y914D01*
X2466Y914D01*
G37*
D02*
G36*
X284Y904D02*
X284Y888D01*
X286Y888D01*
X286Y884D01*
X288Y884D01*
X288Y882D01*
X290Y882D01*
X290Y880D01*
X292Y880D01*
X292Y878D01*
X294Y878D01*
X294Y876D01*
X296Y876D01*
X296Y874D01*
X298Y874D01*
X298Y872D01*
X300Y872D01*
X300Y868D01*
X302Y868D01*
X302Y866D01*
X304Y866D01*
X304Y864D01*
X306Y864D01*
X306Y862D01*
X308Y862D01*
X308Y860D01*
X310Y860D01*
X310Y858D01*
X312Y858D01*
X312Y856D01*
X314Y856D01*
X314Y854D01*
X316Y854D01*
X316Y850D01*
X318Y850D01*
X318Y848D01*
X320Y848D01*
X320Y846D01*
X322Y846D01*
X322Y844D01*
X324Y844D01*
X324Y842D01*
X326Y842D01*
X326Y840D01*
X328Y840D01*
X328Y838D01*
X330Y838D01*
X330Y834D01*
X332Y834D01*
X332Y832D01*
X334Y832D01*
X334Y830D01*
X336Y830D01*
X336Y828D01*
X338Y828D01*
X338Y826D01*
X340Y826D01*
X340Y824D01*
X342Y824D01*
X342Y822D01*
X344Y822D01*
X344Y820D01*
X346Y820D01*
X346Y816D01*
X348Y816D01*
X348Y814D01*
X350Y814D01*
X350Y812D01*
X352Y812D01*
X352Y810D01*
X354Y810D01*
X354Y808D01*
X356Y808D01*
X356Y806D01*
X358Y806D01*
X358Y804D01*
X360Y804D01*
X360Y800D01*
X362Y800D01*
X362Y798D01*
X364Y798D01*
X364Y796D01*
X366Y796D01*
X366Y794D01*
X368Y794D01*
X368Y792D01*
X370Y792D01*
X370Y790D01*
X372Y790D01*
X372Y788D01*
X374Y788D01*
X374Y786D01*
X376Y786D01*
X376Y782D01*
X378Y782D01*
X378Y780D01*
X380Y780D01*
X380Y778D01*
X382Y778D01*
X382Y776D01*
X384Y776D01*
X384Y774D01*
X386Y774D01*
X386Y772D01*
X388Y772D01*
X388Y770D01*
X390Y770D01*
X390Y766D01*
X392Y766D01*
X392Y764D01*
X394Y764D01*
X394Y762D01*
X396Y762D01*
X396Y760D01*
X398Y760D01*
X398Y758D01*
X400Y758D01*
X400Y756D01*
X402Y756D01*
X402Y754D01*
X404Y754D01*
X404Y752D01*
X406Y752D01*
X406Y748D01*
X408Y748D01*
X408Y746D01*
X410Y746D01*
X410Y744D01*
X412Y744D01*
X412Y742D01*
X414Y742D01*
X414Y740D01*
X416Y740D01*
X416Y738D01*
X418Y738D01*
X418Y736D01*
X420Y736D01*
X420Y732D01*
X422Y732D01*
X422Y730D01*
X424Y730D01*
X424Y728D01*
X426Y728D01*
X426Y726D01*
X428Y726D01*
X428Y724D01*
X430Y724D01*
X430Y722D01*
X432Y722D01*
X432Y720D01*
X434Y720D01*
X434Y718D01*
X436Y718D01*
X436Y714D01*
X438Y714D01*
X438Y712D01*
X440Y712D01*
X440Y710D01*
X442Y710D01*
X442Y708D01*
X444Y708D01*
X444Y706D01*
X446Y706D01*
X446Y704D01*
X448Y704D01*
X448Y702D01*
X450Y702D01*
X450Y698D01*
X452Y698D01*
X452Y696D01*
X454Y696D01*
X454Y694D01*
X456Y694D01*
X456Y692D01*
X458Y692D01*
X458Y690D01*
X460Y690D01*
X460Y688D01*
X462Y688D01*
X462Y686D01*
X464Y686D01*
X464Y684D01*
X466Y684D01*
X466Y680D01*
X468Y680D01*
X468Y678D01*
X470Y678D01*
X470Y676D01*
X472Y676D01*
X472Y674D01*
X474Y674D01*
X474Y672D01*
X476Y672D01*
X476Y670D01*
X478Y670D01*
X478Y668D01*
X480Y668D01*
X480Y664D01*
X482Y664D01*
X482Y662D01*
X484Y662D01*
X484Y660D01*
X486Y660D01*
X486Y658D01*
X488Y658D01*
X488Y656D01*
X490Y656D01*
X490Y654D01*
X492Y654D01*
X492Y652D01*
X494Y652D01*
X494Y650D01*
X496Y650D01*
X496Y646D01*
X498Y646D01*
X498Y644D01*
X500Y644D01*
X500Y642D01*
X502Y642D01*
X502Y640D01*
X504Y640D01*
X504Y638D01*
X506Y638D01*
X506Y636D01*
X508Y636D01*
X508Y634D01*
X510Y634D01*
X510Y630D01*
X512Y630D01*
X512Y628D01*
X514Y628D01*
X514Y626D01*
X516Y626D01*
X516Y624D01*
X518Y624D01*
X518Y622D01*
X520Y622D01*
X520Y620D01*
X522Y620D01*
X522Y618D01*
X524Y618D01*
X524Y616D01*
X526Y616D01*
X526Y612D01*
X528Y612D01*
X528Y610D01*
X530Y610D01*
X530Y608D01*
X532Y608D01*
X532Y606D01*
X534Y606D01*
X534Y604D01*
X536Y604D01*
X536Y602D01*
X538Y602D01*
X538Y600D01*
X540Y600D01*
X540Y596D01*
X542Y596D01*
X542Y594D01*
X544Y594D01*
X544Y592D01*
X546Y592D01*
X546Y590D01*
X548Y590D01*
X548Y588D01*
X550Y588D01*
X550Y586D01*
X552Y586D01*
X552Y584D01*
X554Y584D01*
X554Y582D01*
X556Y582D01*
X556Y578D01*
X558Y578D01*
X558Y576D01*
X560Y576D01*
X560Y574D01*
X562Y574D01*
X562Y572D01*
X564Y572D01*
X564Y570D01*
X566Y570D01*
X566Y568D01*
X568Y568D01*
X568Y566D01*
X570Y566D01*
X570Y562D01*
X572Y562D01*
X572Y560D01*
X574Y560D01*
X574Y558D01*
X576Y558D01*
X576Y556D01*
X578Y556D01*
X578Y554D01*
X580Y554D01*
X580Y552D01*
X582Y552D01*
X582Y550D01*
X584Y550D01*
X584Y548D01*
X586Y548D01*
X586Y544D01*
X588Y544D01*
X588Y542D01*
X590Y542D01*
X590Y540D01*
X592Y540D01*
X592Y538D01*
X594Y538D01*
X594Y536D01*
X596Y536D01*
X596Y534D01*
X598Y534D01*
X598Y532D01*
X600Y532D01*
X600Y528D01*
X602Y528D01*
X602Y526D01*
X604Y526D01*
X604Y524D01*
X606Y524D01*
X606Y522D01*
X608Y522D01*
X608Y520D01*
X610Y520D01*
X610Y518D01*
X612Y518D01*
X612Y516D01*
X614Y516D01*
X614Y514D01*
X616Y514D01*
X616Y510D01*
X618Y510D01*
X618Y508D01*
X620Y508D01*
X620Y506D01*
X622Y506D01*
X622Y504D01*
X624Y504D01*
X624Y502D01*
X626Y502D01*
X626Y500D01*
X628Y500D01*
X628Y498D01*
X630Y498D01*
X630Y494D01*
X632Y494D01*
X632Y492D01*
X634Y492D01*
X634Y490D01*
X636Y490D01*
X636Y488D01*
X638Y488D01*
X638Y486D01*
X640Y486D01*
X640Y484D01*
X642Y484D01*
X642Y482D01*
X644Y482D01*
X644Y480D01*
X646Y480D01*
X646Y476D01*
X648Y476D01*
X648Y474D01*
X650Y474D01*
X650Y472D01*
X652Y472D01*
X652Y470D01*
X654Y470D01*
X654Y468D01*
X656Y468D01*
X656Y466D01*
X658Y466D01*
X658Y464D01*
X660Y464D01*
X660Y460D01*
X662Y460D01*
X662Y458D01*
X664Y458D01*
X664Y456D01*
X666Y456D01*
X666Y454D01*
X668Y454D01*
X668Y452D01*
X670Y452D01*
X670Y450D01*
X672Y450D01*
X672Y448D01*
X674Y448D01*
X674Y446D01*
X676Y446D01*
X676Y442D01*
X678Y442D01*
X678Y440D01*
X680Y440D01*
X680Y438D01*
X682Y438D01*
X682Y436D01*
X684Y436D01*
X684Y434D01*
X686Y434D01*
X686Y432D01*
X688Y432D01*
X688Y430D01*
X690Y430D01*
X690Y426D01*
X692Y426D01*
X692Y424D01*
X694Y424D01*
X694Y422D01*
X696Y422D01*
X696Y420D01*
X698Y420D01*
X698Y418D01*
X700Y418D01*
X700Y416D01*
X702Y416D01*
X702Y414D01*
X704Y414D01*
X704Y412D01*
X706Y412D01*
X706Y408D01*
X708Y408D01*
X708Y406D01*
X710Y406D01*
X710Y404D01*
X712Y404D01*
X712Y402D01*
X714Y402D01*
X714Y400D01*
X716Y400D01*
X716Y398D01*
X718Y398D01*
X718Y396D01*
X720Y396D01*
X720Y392D01*
X722Y392D01*
X722Y390D01*
X724Y390D01*
X724Y388D01*
X726Y388D01*
X726Y386D01*
X728Y386D01*
X728Y384D01*
X730Y384D01*
X730Y382D01*
X732Y382D01*
X732Y380D01*
X734Y380D01*
X734Y378D01*
X736Y378D01*
X736Y374D01*
X738Y374D01*
X738Y372D01*
X740Y372D01*
X740Y370D01*
X742Y370D01*
X742Y368D01*
X744Y368D01*
X744Y366D01*
X746Y366D01*
X746Y364D01*
X748Y364D01*
X748Y362D01*
X750Y362D01*
X750Y358D01*
X752Y358D01*
X752Y356D01*
X754Y356D01*
X754Y354D01*
X756Y354D01*
X756Y352D01*
X758Y352D01*
X758Y350D01*
X760Y350D01*
X760Y348D01*
X762Y348D01*
X762Y346D01*
X764Y346D01*
X764Y344D01*
X766Y344D01*
X766Y340D01*
X768Y340D01*
X768Y338D01*
X770Y338D01*
X770Y336D01*
X772Y336D01*
X772Y334D01*
X774Y334D01*
X774Y332D01*
X776Y332D01*
X776Y330D01*
X778Y330D01*
X778Y328D01*
X780Y328D01*
X780Y324D01*
X782Y324D01*
X782Y322D01*
X784Y322D01*
X784Y320D01*
X786Y320D01*
X786Y318D01*
X788Y318D01*
X788Y316D01*
X790Y316D01*
X790Y314D01*
X792Y314D01*
X792Y312D01*
X794Y312D01*
X794Y310D01*
X796Y310D01*
X796Y306D01*
X798Y306D01*
X798Y304D01*
X800Y304D01*
X800Y302D01*
X802Y302D01*
X802Y300D01*
X804Y300D01*
X804Y298D01*
X806Y298D01*
X806Y296D01*
X808Y296D01*
X808Y294D01*
X810Y294D01*
X810Y292D01*
X812Y292D01*
X812Y288D01*
X814Y288D01*
X814Y286D01*
X816Y286D01*
X816Y284D01*
X818Y284D01*
X818Y282D01*
X820Y282D01*
X820Y280D01*
X822Y280D01*
X822Y278D01*
X824Y278D01*
X824Y276D01*
X826Y276D01*
X826Y272D01*
X828Y272D01*
X828Y270D01*
X830Y270D01*
X830Y268D01*
X832Y268D01*
X832Y266D01*
X834Y266D01*
X834Y264D01*
X836Y264D01*
X836Y262D01*
X838Y262D01*
X838Y260D01*
X840Y260D01*
X840Y258D01*
X842Y258D01*
X842Y254D01*
X844Y254D01*
X844Y252D01*
X846Y252D01*
X846Y250D01*
X848Y250D01*
X848Y248D01*
X850Y248D01*
X850Y246D01*
X852Y246D01*
X852Y244D01*
X854Y244D01*
X854Y242D01*
X856Y242D01*
X856Y238D01*
X858Y238D01*
X858Y236D01*
X860Y236D01*
X860Y234D01*
X862Y234D01*
X862Y232D01*
X864Y232D01*
X864Y230D01*
X866Y230D01*
X866Y228D01*
X868Y228D01*
X868Y226D01*
X870Y226D01*
X870Y224D01*
X872Y224D01*
X872Y220D01*
X874Y220D01*
X874Y218D01*
X876Y218D01*
X876Y216D01*
X878Y216D01*
X878Y214D01*
X880Y214D01*
X880Y212D01*
X882Y212D01*
X882Y210D01*
X884Y210D01*
X884Y208D01*
X886Y208D01*
X886Y204D01*
X888Y204D01*
X888Y202D01*
X890Y202D01*
X890Y200D01*
X892Y200D01*
X892Y198D01*
X894Y198D01*
X894Y196D01*
X896Y196D01*
X896Y194D01*
X898Y194D01*
X898Y192D01*
X900Y192D01*
X900Y190D01*
X902Y190D01*
X902Y186D01*
X904Y186D01*
X904Y184D01*
X906Y184D01*
X906Y182D01*
X908Y182D01*
X908Y180D01*
X910Y180D01*
X910Y178D01*
X912Y178D01*
X912Y176D01*
X914Y176D01*
X914Y174D01*
X916Y174D01*
X916Y170D01*
X918Y170D01*
X918Y168D01*
X920Y168D01*
X920Y166D01*
X922Y166D01*
X922Y164D01*
X924Y164D01*
X924Y162D01*
X926Y162D01*
X926Y160D01*
X928Y160D01*
X928Y158D01*
X930Y158D01*
X930Y156D01*
X932Y156D01*
X932Y152D01*
X934Y152D01*
X934Y150D01*
X936Y150D01*
X936Y148D01*
X938Y148D01*
X938Y146D01*
X940Y146D01*
X940Y144D01*
X942Y144D01*
X942Y142D01*
X944Y142D01*
X944Y140D01*
X946Y140D01*
X946Y136D01*
X948Y136D01*
X948Y134D01*
X950Y134D01*
X950Y132D01*
X952Y132D01*
X952Y130D01*
X954Y130D01*
X954Y128D01*
X956Y128D01*
X956Y126D01*
X958Y126D01*
X958Y124D01*
X978Y124D01*
X978Y142D01*
X976Y142D01*
X976Y146D01*
X974Y146D01*
X974Y148D01*
X972Y148D01*
X972Y150D01*
X970Y150D01*
X970Y152D01*
X968Y152D01*
X968Y154D01*
X966Y154D01*
X966Y156D01*
X964Y156D01*
X964Y158D01*
X962Y158D01*
X962Y162D01*
X960Y162D01*
X960Y164D01*
X958Y164D01*
X958Y166D01*
X956Y166D01*
X956Y168D01*
X954Y168D01*
X954Y170D01*
X952Y170D01*
X952Y172D01*
X950Y172D01*
X950Y174D01*
X948Y174D01*
X948Y178D01*
X946Y178D01*
X946Y180D01*
X944Y180D01*
X944Y182D01*
X942Y182D01*
X942Y184D01*
X940Y184D01*
X940Y186D01*
X938Y186D01*
X938Y188D01*
X936Y188D01*
X936Y190D01*
X934Y190D01*
X934Y194D01*
X932Y194D01*
X932Y196D01*
X930Y196D01*
X930Y198D01*
X928Y198D01*
X928Y200D01*
X926Y200D01*
X926Y202D01*
X924Y202D01*
X924Y204D01*
X922Y204D01*
X922Y206D01*
X920Y206D01*
X920Y210D01*
X918Y210D01*
X918Y212D01*
X916Y212D01*
X916Y214D01*
X914Y214D01*
X914Y216D01*
X912Y216D01*
X912Y218D01*
X910Y218D01*
X910Y220D01*
X908Y220D01*
X908Y222D01*
X906Y222D01*
X906Y226D01*
X904Y226D01*
X904Y228D01*
X902Y228D01*
X902Y230D01*
X900Y230D01*
X900Y232D01*
X898Y232D01*
X898Y234D01*
X896Y234D01*
X896Y236D01*
X894Y236D01*
X894Y238D01*
X892Y238D01*
X892Y242D01*
X890Y242D01*
X890Y244D01*
X888Y244D01*
X888Y246D01*
X886Y246D01*
X886Y248D01*
X884Y248D01*
X884Y250D01*
X882Y250D01*
X882Y252D01*
X880Y252D01*
X880Y254D01*
X878Y254D01*
X878Y258D01*
X876Y258D01*
X876Y260D01*
X874Y260D01*
X874Y262D01*
X872Y262D01*
X872Y264D01*
X870Y264D01*
X870Y266D01*
X868Y266D01*
X868Y268D01*
X866Y268D01*
X866Y270D01*
X864Y270D01*
X864Y274D01*
X862Y274D01*
X862Y276D01*
X860Y276D01*
X860Y278D01*
X858Y278D01*
X858Y280D01*
X856Y280D01*
X856Y282D01*
X854Y282D01*
X854Y284D01*
X852Y284D01*
X852Y286D01*
X850Y286D01*
X850Y290D01*
X848Y290D01*
X848Y292D01*
X846Y292D01*
X846Y294D01*
X844Y294D01*
X844Y296D01*
X842Y296D01*
X842Y298D01*
X840Y298D01*
X840Y300D01*
X838Y300D01*
X838Y302D01*
X836Y302D01*
X836Y306D01*
X834Y306D01*
X834Y308D01*
X832Y308D01*
X832Y310D01*
X830Y310D01*
X830Y312D01*
X828Y312D01*
X828Y314D01*
X826Y314D01*
X826Y316D01*
X824Y316D01*
X824Y318D01*
X822Y318D01*
X822Y322D01*
X820Y322D01*
X820Y324D01*
X818Y324D01*
X818Y326D01*
X816Y326D01*
X816Y328D01*
X814Y328D01*
X814Y330D01*
X812Y330D01*
X812Y332D01*
X810Y332D01*
X810Y334D01*
X808Y334D01*
X808Y338D01*
X806Y338D01*
X806Y340D01*
X804Y340D01*
X804Y342D01*
X802Y342D01*
X802Y344D01*
X800Y344D01*
X800Y346D01*
X798Y346D01*
X798Y348D01*
X796Y348D01*
X796Y350D01*
X794Y350D01*
X794Y354D01*
X792Y354D01*
X792Y356D01*
X790Y356D01*
X790Y358D01*
X788Y358D01*
X788Y360D01*
X786Y360D01*
X786Y362D01*
X784Y362D01*
X784Y364D01*
X782Y364D01*
X782Y366D01*
X780Y366D01*
X780Y370D01*
X778Y370D01*
X778Y372D01*
X776Y372D01*
X776Y374D01*
X774Y374D01*
X774Y376D01*
X772Y376D01*
X772Y378D01*
X770Y378D01*
X770Y380D01*
X768Y380D01*
X768Y382D01*
X766Y382D01*
X766Y386D01*
X764Y386D01*
X764Y388D01*
X762Y388D01*
X762Y390D01*
X760Y390D01*
X760Y392D01*
X758Y392D01*
X758Y394D01*
X756Y394D01*
X756Y396D01*
X754Y396D01*
X754Y398D01*
X752Y398D01*
X752Y402D01*
X750Y402D01*
X750Y404D01*
X748Y404D01*
X748Y406D01*
X746Y406D01*
X746Y408D01*
X744Y408D01*
X744Y410D01*
X742Y410D01*
X742Y412D01*
X740Y412D01*
X740Y414D01*
X738Y414D01*
X738Y418D01*
X736Y418D01*
X736Y420D01*
X734Y420D01*
X734Y422D01*
X732Y422D01*
X732Y424D01*
X730Y424D01*
X730Y426D01*
X728Y426D01*
X728Y428D01*
X726Y428D01*
X726Y430D01*
X724Y430D01*
X724Y434D01*
X722Y434D01*
X722Y436D01*
X720Y436D01*
X720Y438D01*
X718Y438D01*
X718Y440D01*
X716Y440D01*
X716Y442D01*
X714Y442D01*
X714Y444D01*
X712Y444D01*
X712Y446D01*
X710Y446D01*
X710Y450D01*
X708Y450D01*
X708Y452D01*
X706Y452D01*
X706Y454D01*
X704Y454D01*
X704Y456D01*
X702Y456D01*
X702Y458D01*
X700Y458D01*
X700Y460D01*
X698Y460D01*
X698Y462D01*
X696Y462D01*
X696Y466D01*
X694Y466D01*
X694Y468D01*
X692Y468D01*
X692Y470D01*
X690Y470D01*
X690Y472D01*
X688Y472D01*
X688Y474D01*
X686Y474D01*
X686Y476D01*
X684Y476D01*
X684Y478D01*
X682Y478D01*
X682Y482D01*
X680Y482D01*
X680Y484D01*
X678Y484D01*
X678Y486D01*
X676Y486D01*
X676Y488D01*
X674Y488D01*
X674Y490D01*
X672Y490D01*
X672Y492D01*
X670Y492D01*
X670Y494D01*
X668Y494D01*
X668Y498D01*
X666Y498D01*
X666Y500D01*
X664Y500D01*
X664Y502D01*
X662Y502D01*
X662Y504D01*
X660Y504D01*
X660Y506D01*
X658Y506D01*
X658Y508D01*
X656Y508D01*
X656Y510D01*
X654Y510D01*
X654Y514D01*
X652Y514D01*
X652Y516D01*
X650Y516D01*
X650Y518D01*
X648Y518D01*
X648Y520D01*
X646Y520D01*
X646Y522D01*
X644Y522D01*
X644Y524D01*
X642Y524D01*
X642Y526D01*
X640Y526D01*
X640Y530D01*
X638Y530D01*
X638Y532D01*
X636Y532D01*
X636Y534D01*
X634Y534D01*
X634Y536D01*
X632Y536D01*
X632Y538D01*
X630Y538D01*
X630Y540D01*
X628Y540D01*
X628Y542D01*
X626Y542D01*
X626Y546D01*
X624Y546D01*
X624Y548D01*
X622Y548D01*
X622Y550D01*
X620Y550D01*
X620Y552D01*
X618Y552D01*
X618Y554D01*
X616Y554D01*
X616Y556D01*
X614Y556D01*
X614Y558D01*
X612Y558D01*
X612Y562D01*
X610Y562D01*
X610Y564D01*
X608Y564D01*
X608Y566D01*
X606Y566D01*
X606Y568D01*
X604Y568D01*
X604Y570D01*
X602Y570D01*
X602Y572D01*
X600Y572D01*
X600Y574D01*
X598Y574D01*
X598Y578D01*
X596Y578D01*
X596Y580D01*
X594Y580D01*
X594Y582D01*
X592Y582D01*
X592Y584D01*
X590Y584D01*
X590Y586D01*
X588Y586D01*
X588Y588D01*
X586Y588D01*
X586Y590D01*
X584Y590D01*
X584Y594D01*
X582Y594D01*
X582Y596D01*
X580Y596D01*
X580Y598D01*
X578Y598D01*
X578Y600D01*
X576Y600D01*
X576Y602D01*
X574Y602D01*
X574Y604D01*
X572Y604D01*
X572Y606D01*
X570Y606D01*
X570Y610D01*
X568Y610D01*
X568Y612D01*
X566Y612D01*
X566Y614D01*
X564Y614D01*
X564Y616D01*
X562Y616D01*
X562Y618D01*
X560Y618D01*
X560Y620D01*
X558Y620D01*
X558Y622D01*
X556Y622D01*
X556Y626D01*
X554Y626D01*
X554Y628D01*
X552Y628D01*
X552Y630D01*
X550Y630D01*
X550Y632D01*
X548Y632D01*
X548Y634D01*
X546Y634D01*
X546Y636D01*
X544Y636D01*
X544Y638D01*
X542Y638D01*
X542Y642D01*
X540Y642D01*
X540Y644D01*
X538Y644D01*
X538Y646D01*
X536Y646D01*
X536Y648D01*
X534Y648D01*
X534Y650D01*
X532Y650D01*
X532Y652D01*
X530Y652D01*
X530Y654D01*
X528Y654D01*
X528Y658D01*
X526Y658D01*
X526Y660D01*
X524Y660D01*
X524Y662D01*
X522Y662D01*
X522Y664D01*
X520Y664D01*
X520Y666D01*
X518Y666D01*
X518Y668D01*
X516Y668D01*
X516Y670D01*
X514Y670D01*
X514Y674D01*
X512Y674D01*
X512Y676D01*
X510Y676D01*
X510Y678D01*
X508Y678D01*
X508Y680D01*
X506Y680D01*
X506Y682D01*
X504Y682D01*
X504Y684D01*
X502Y684D01*
X502Y686D01*
X500Y686D01*
X500Y690D01*
X498Y690D01*
X498Y692D01*
X496Y692D01*
X496Y694D01*
X494Y694D01*
X494Y696D01*
X492Y696D01*
X492Y698D01*
X490Y698D01*
X490Y700D01*
X488Y700D01*
X488Y702D01*
X486Y702D01*
X486Y706D01*
X484Y706D01*
X484Y708D01*
X482Y708D01*
X482Y710D01*
X480Y710D01*
X480Y712D01*
X478Y712D01*
X478Y714D01*
X476Y714D01*
X476Y716D01*
X474Y716D01*
X474Y718D01*
X472Y718D01*
X472Y722D01*
X470Y722D01*
X470Y724D01*
X468Y724D01*
X468Y726D01*
X466Y726D01*
X466Y728D01*
X464Y728D01*
X464Y730D01*
X462Y730D01*
X462Y732D01*
X460Y732D01*
X460Y734D01*
X458Y734D01*
X458Y738D01*
X456Y738D01*
X456Y740D01*
X454Y740D01*
X454Y742D01*
X452Y742D01*
X452Y744D01*
X450Y744D01*
X450Y746D01*
X448Y746D01*
X448Y748D01*
X446Y748D01*
X446Y750D01*
X444Y750D01*
X444Y754D01*
X442Y754D01*
X442Y756D01*
X440Y756D01*
X440Y758D01*
X438Y758D01*
X438Y760D01*
X436Y760D01*
X436Y762D01*
X434Y762D01*
X434Y764D01*
X432Y764D01*
X432Y766D01*
X430Y766D01*
X430Y770D01*
X428Y770D01*
X428Y772D01*
X426Y772D01*
X426Y774D01*
X424Y774D01*
X424Y776D01*
X422Y776D01*
X422Y778D01*
X420Y778D01*
X420Y780D01*
X418Y780D01*
X418Y782D01*
X416Y782D01*
X416Y786D01*
X414Y786D01*
X414Y788D01*
X412Y788D01*
X412Y790D01*
X410Y790D01*
X410Y792D01*
X408Y792D01*
X408Y794D01*
X406Y794D01*
X406Y796D01*
X404Y796D01*
X404Y798D01*
X402Y798D01*
X402Y802D01*
X400Y802D01*
X400Y804D01*
X398Y804D01*
X398Y806D01*
X396Y806D01*
X396Y808D01*
X394Y808D01*
X394Y810D01*
X392Y810D01*
X392Y812D01*
X390Y812D01*
X390Y814D01*
X388Y814D01*
X388Y818D01*
X386Y818D01*
X386Y820D01*
X384Y820D01*
X384Y822D01*
X382Y822D01*
X382Y824D01*
X380Y824D01*
X380Y826D01*
X378Y826D01*
X378Y828D01*
X376Y828D01*
X376Y830D01*
X374Y830D01*
X374Y834D01*
X372Y834D01*
X372Y836D01*
X370Y836D01*
X370Y838D01*
X368Y838D01*
X368Y840D01*
X366Y840D01*
X366Y842D01*
X364Y842D01*
X364Y844D01*
X362Y844D01*
X362Y846D01*
X360Y846D01*
X360Y850D01*
X358Y850D01*
X358Y852D01*
X356Y852D01*
X356Y854D01*
X354Y854D01*
X354Y856D01*
X352Y856D01*
X352Y858D01*
X350Y858D01*
X350Y860D01*
X348Y860D01*
X348Y862D01*
X346Y862D01*
X346Y866D01*
X344Y866D01*
X344Y868D01*
X342Y868D01*
X342Y870D01*
X340Y870D01*
X340Y872D01*
X338Y872D01*
X338Y874D01*
X336Y874D01*
X336Y876D01*
X334Y876D01*
X334Y878D01*
X332Y878D01*
X332Y882D01*
X330Y882D01*
X330Y884D01*
X328Y884D01*
X328Y886D01*
X326Y886D01*
X326Y888D01*
X324Y888D01*
X324Y890D01*
X322Y890D01*
X322Y892D01*
X320Y892D01*
X320Y894D01*
X318Y894D01*
X318Y898D01*
X316Y898D01*
X316Y900D01*
X314Y900D01*
X314Y902D01*
X312Y902D01*
X312Y904D01*
X284Y904D01*
G37*
D02*
G36*
X2304Y786D02*
X2304Y784D01*
X2302Y784D01*
X2302Y782D01*
X2300Y782D01*
X2300Y780D01*
X2298Y780D01*
X2298Y778D01*
X2296Y778D01*
X2296Y776D01*
X2294Y776D01*
X2294Y774D01*
X2292Y774D01*
X2292Y772D01*
X2290Y772D01*
X2290Y770D01*
X2288Y770D01*
X2288Y768D01*
X2286Y768D01*
X2286Y766D01*
X2284Y766D01*
X2284Y764D01*
X2282Y764D01*
X2282Y762D01*
X2280Y762D01*
X2280Y760D01*
X2278Y760D01*
X2278Y758D01*
X2276Y758D01*
X2276Y756D01*
X2274Y756D01*
X2274Y754D01*
X2272Y754D01*
X2272Y752D01*
X2270Y752D01*
X2270Y750D01*
X2268Y750D01*
X2268Y748D01*
X2266Y748D01*
X2266Y746D01*
X2264Y746D01*
X2264Y744D01*
X2262Y744D01*
X2262Y742D01*
X2260Y742D01*
X2260Y740D01*
X2258Y740D01*
X2258Y738D01*
X2256Y738D01*
X2256Y736D01*
X2254Y736D01*
X2254Y734D01*
X2252Y734D01*
X2252Y732D01*
X2250Y732D01*
X2250Y730D01*
X2248Y730D01*
X2248Y728D01*
X2246Y728D01*
X2246Y726D01*
X2244Y726D01*
X2244Y724D01*
X2242Y724D01*
X2242Y722D01*
X2240Y722D01*
X2240Y720D01*
X2238Y720D01*
X2238Y718D01*
X2236Y718D01*
X2236Y716D01*
X2234Y716D01*
X2234Y714D01*
X2232Y714D01*
X2232Y712D01*
X2230Y712D01*
X2230Y710D01*
X2228Y710D01*
X2228Y708D01*
X2226Y708D01*
X2226Y706D01*
X2224Y706D01*
X2224Y704D01*
X2222Y704D01*
X2222Y702D01*
X2220Y702D01*
X2220Y700D01*
X2218Y700D01*
X2218Y698D01*
X2216Y698D01*
X2216Y696D01*
X2214Y696D01*
X2214Y694D01*
X2212Y694D01*
X2212Y692D01*
X2210Y692D01*
X2210Y690D01*
X2208Y690D01*
X2208Y688D01*
X2206Y688D01*
X2206Y686D01*
X2204Y686D01*
X2204Y682D01*
X2202Y682D01*
X2202Y680D01*
X2200Y680D01*
X2200Y678D01*
X2198Y678D01*
X2198Y676D01*
X2196Y676D01*
X2196Y674D01*
X2194Y674D01*
X2194Y672D01*
X2192Y672D01*
X2192Y670D01*
X2190Y670D01*
X2190Y668D01*
X2188Y668D01*
X2188Y666D01*
X2186Y666D01*
X2186Y664D01*
X2184Y664D01*
X2184Y662D01*
X2182Y662D01*
X2182Y660D01*
X2180Y660D01*
X2180Y658D01*
X2178Y658D01*
X2178Y656D01*
X2176Y656D01*
X2176Y654D01*
X2174Y654D01*
X2174Y652D01*
X2172Y652D01*
X2172Y650D01*
X2170Y650D01*
X2170Y648D01*
X2168Y648D01*
X2168Y646D01*
X2166Y646D01*
X2166Y644D01*
X2164Y644D01*
X2164Y642D01*
X2162Y642D01*
X2162Y640D01*
X2160Y640D01*
X2160Y638D01*
X2158Y638D01*
X2158Y636D01*
X2156Y636D01*
X2156Y634D01*
X2154Y634D01*
X2154Y632D01*
X2152Y632D01*
X2152Y630D01*
X2150Y630D01*
X2150Y628D01*
X2148Y628D01*
X2148Y626D01*
X2146Y626D01*
X2146Y624D01*
X2144Y624D01*
X2144Y622D01*
X2142Y622D01*
X2142Y620D01*
X2140Y620D01*
X2140Y618D01*
X2138Y618D01*
X2138Y616D01*
X2136Y616D01*
X2136Y614D01*
X2134Y614D01*
X2134Y612D01*
X2132Y612D01*
X2132Y610D01*
X2130Y610D01*
X2130Y608D01*
X2128Y608D01*
X2128Y606D01*
X2126Y606D01*
X2126Y604D01*
X2124Y604D01*
X2124Y602D01*
X2122Y602D01*
X2122Y600D01*
X2120Y600D01*
X2120Y598D01*
X2118Y598D01*
X2118Y596D01*
X2116Y596D01*
X2116Y594D01*
X2114Y594D01*
X2114Y592D01*
X2112Y592D01*
X2112Y590D01*
X2110Y590D01*
X2110Y588D01*
X2108Y588D01*
X2108Y586D01*
X2106Y586D01*
X2106Y584D01*
X2104Y584D01*
X2104Y582D01*
X2102Y582D01*
X2102Y580D01*
X2100Y580D01*
X2100Y578D01*
X2098Y578D01*
X2098Y576D01*
X2096Y576D01*
X2096Y574D01*
X2094Y574D01*
X2094Y572D01*
X2092Y572D01*
X2092Y570D01*
X2090Y570D01*
X2090Y568D01*
X2088Y568D01*
X2088Y566D01*
X2086Y566D01*
X2086Y564D01*
X2084Y564D01*
X2084Y562D01*
X2082Y562D01*
X2082Y560D01*
X2080Y560D01*
X2080Y558D01*
X2078Y558D01*
X2078Y556D01*
X2076Y556D01*
X2076Y554D01*
X2074Y554D01*
X2074Y552D01*
X2072Y552D01*
X2072Y550D01*
X2070Y550D01*
X2070Y548D01*
X2068Y548D01*
X2068Y546D01*
X2066Y546D01*
X2066Y544D01*
X2064Y544D01*
X2064Y542D01*
X2062Y542D01*
X2062Y540D01*
X2060Y540D01*
X2060Y538D01*
X2058Y538D01*
X2058Y536D01*
X2056Y536D01*
X2056Y534D01*
X2054Y534D01*
X2054Y532D01*
X2052Y532D01*
X2052Y530D01*
X2050Y530D01*
X2050Y528D01*
X2048Y528D01*
X2048Y526D01*
X2046Y526D01*
X2046Y524D01*
X2044Y524D01*
X2044Y522D01*
X2042Y522D01*
X2042Y520D01*
X2040Y520D01*
X2040Y518D01*
X2038Y518D01*
X2038Y516D01*
X2036Y516D01*
X2036Y514D01*
X2034Y514D01*
X2034Y512D01*
X2032Y512D01*
X2032Y510D01*
X2030Y510D01*
X2030Y508D01*
X2028Y508D01*
X2028Y506D01*
X2026Y506D01*
X2026Y504D01*
X2024Y504D01*
X2024Y502D01*
X2022Y502D01*
X2022Y500D01*
X2020Y500D01*
X2020Y498D01*
X2018Y498D01*
X2018Y496D01*
X2016Y496D01*
X2016Y494D01*
X2014Y494D01*
X2014Y492D01*
X2012Y492D01*
X2012Y490D01*
X2010Y490D01*
X2010Y488D01*
X2008Y488D01*
X2008Y486D01*
X2006Y486D01*
X2006Y466D01*
X2044Y466D01*
X2044Y468D01*
X2046Y468D01*
X2046Y470D01*
X2048Y470D01*
X2048Y472D01*
X2050Y472D01*
X2050Y474D01*
X2052Y474D01*
X2052Y476D01*
X2054Y476D01*
X2054Y478D01*
X2056Y478D01*
X2056Y480D01*
X2058Y480D01*
X2058Y482D01*
X2060Y482D01*
X2060Y484D01*
X2062Y484D01*
X2062Y486D01*
X2064Y486D01*
X2064Y488D01*
X2066Y488D01*
X2066Y490D01*
X2068Y490D01*
X2068Y492D01*
X2070Y492D01*
X2070Y494D01*
X2072Y494D01*
X2072Y496D01*
X2074Y496D01*
X2074Y498D01*
X2076Y498D01*
X2076Y500D01*
X2078Y500D01*
X2078Y502D01*
X2080Y502D01*
X2080Y504D01*
X2082Y504D01*
X2082Y506D01*
X2084Y506D01*
X2084Y508D01*
X2086Y508D01*
X2086Y510D01*
X2088Y510D01*
X2088Y512D01*
X2090Y512D01*
X2090Y514D01*
X2092Y514D01*
X2092Y516D01*
X2094Y516D01*
X2094Y518D01*
X2096Y518D01*
X2096Y520D01*
X2098Y520D01*
X2098Y522D01*
X2100Y522D01*
X2100Y524D01*
X2102Y524D01*
X2102Y526D01*
X2104Y526D01*
X2104Y528D01*
X2106Y528D01*
X2106Y530D01*
X2108Y530D01*
X2108Y532D01*
X2110Y532D01*
X2110Y534D01*
X2112Y534D01*
X2112Y536D01*
X2114Y536D01*
X2114Y538D01*
X2116Y538D01*
X2116Y540D01*
X2118Y540D01*
X2118Y542D01*
X2120Y542D01*
X2120Y544D01*
X2122Y544D01*
X2122Y546D01*
X2124Y546D01*
X2124Y548D01*
X2126Y548D01*
X2126Y550D01*
X2128Y550D01*
X2128Y552D01*
X2130Y552D01*
X2130Y554D01*
X2132Y554D01*
X2132Y556D01*
X2134Y556D01*
X2134Y558D01*
X2136Y558D01*
X2136Y560D01*
X2138Y560D01*
X2138Y562D01*
X2140Y562D01*
X2140Y564D01*
X2142Y564D01*
X2142Y566D01*
X2144Y566D01*
X2144Y568D01*
X2146Y568D01*
X2146Y570D01*
X2148Y570D01*
X2148Y572D01*
X2150Y572D01*
X2150Y574D01*
X2152Y574D01*
X2152Y576D01*
X2154Y576D01*
X2154Y578D01*
X2156Y578D01*
X2156Y580D01*
X2158Y580D01*
X2158Y582D01*
X2160Y582D01*
X2160Y584D01*
X2162Y584D01*
X2162Y586D01*
X2164Y586D01*
X2164Y588D01*
X2166Y588D01*
X2166Y590D01*
X2168Y590D01*
X2168Y592D01*
X2170Y592D01*
X2170Y594D01*
X2172Y594D01*
X2172Y596D01*
X2174Y596D01*
X2174Y598D01*
X2176Y598D01*
X2176Y600D01*
X2178Y600D01*
X2178Y602D01*
X2180Y602D01*
X2180Y604D01*
X2182Y604D01*
X2182Y606D01*
X2184Y606D01*
X2184Y608D01*
X2186Y608D01*
X2186Y610D01*
X2188Y610D01*
X2188Y612D01*
X2190Y612D01*
X2190Y614D01*
X2192Y614D01*
X2192Y616D01*
X2194Y616D01*
X2194Y618D01*
X2196Y618D01*
X2196Y620D01*
X2198Y620D01*
X2198Y622D01*
X2200Y622D01*
X2200Y624D01*
X2202Y624D01*
X2202Y626D01*
X2204Y626D01*
X2204Y628D01*
X2206Y628D01*
X2206Y630D01*
X2208Y630D01*
X2208Y632D01*
X2210Y632D01*
X2210Y634D01*
X2212Y634D01*
X2212Y636D01*
X2214Y636D01*
X2214Y638D01*
X2216Y638D01*
X2216Y640D01*
X2218Y640D01*
X2218Y642D01*
X2220Y642D01*
X2220Y644D01*
X2222Y644D01*
X2222Y646D01*
X2224Y646D01*
X2224Y648D01*
X2226Y648D01*
X2226Y650D01*
X2228Y650D01*
X2228Y652D01*
X2230Y652D01*
X2230Y654D01*
X2232Y654D01*
X2232Y656D01*
X2234Y656D01*
X2234Y658D01*
X2236Y658D01*
X2236Y660D01*
X2238Y660D01*
X2238Y662D01*
X2240Y662D01*
X2240Y664D01*
X2242Y664D01*
X2242Y666D01*
X2244Y666D01*
X2244Y668D01*
X2246Y668D01*
X2246Y670D01*
X2248Y670D01*
X2248Y672D01*
X2250Y672D01*
X2250Y674D01*
X2252Y674D01*
X2252Y676D01*
X2254Y676D01*
X2254Y678D01*
X2256Y678D01*
X2256Y680D01*
X2258Y680D01*
X2258Y682D01*
X2260Y682D01*
X2260Y684D01*
X2262Y684D01*
X2262Y686D01*
X2264Y686D01*
X2264Y688D01*
X2266Y688D01*
X2266Y690D01*
X2268Y690D01*
X2268Y692D01*
X2270Y692D01*
X2270Y694D01*
X2272Y694D01*
X2272Y696D01*
X2274Y696D01*
X2274Y698D01*
X2276Y698D01*
X2276Y700D01*
X2278Y700D01*
X2278Y702D01*
X2280Y702D01*
X2280Y704D01*
X2282Y704D01*
X2282Y706D01*
X2284Y706D01*
X2284Y708D01*
X2286Y708D01*
X2286Y710D01*
X2288Y710D01*
X2288Y712D01*
X2290Y712D01*
X2290Y714D01*
X2294Y714D01*
X2294Y716D01*
X2362Y716D01*
X2362Y736D01*
X2360Y736D01*
X2360Y740D01*
X2358Y740D01*
X2358Y748D01*
X2356Y748D01*
X2356Y758D01*
X2358Y758D01*
X2358Y764D01*
X2360Y764D01*
X2360Y786D01*
X2304Y786D01*
G37*
D02*
G36*
X2472Y704D02*
X2472Y702D01*
X2470Y702D01*
X2470Y700D01*
X2468Y700D01*
X2468Y698D01*
X2466Y698D01*
X2466Y696D01*
X2464Y696D01*
X2464Y694D01*
X2462Y694D01*
X2462Y692D01*
X2460Y692D01*
X2460Y690D01*
X2458Y690D01*
X2458Y688D01*
X2454Y688D01*
X2454Y686D01*
X2440Y686D01*
X2440Y684D01*
X2438Y684D01*
X2438Y658D01*
X2458Y658D01*
X2458Y664D01*
X2460Y664D01*
X2460Y670D01*
X2462Y670D01*
X2462Y672D01*
X2464Y672D01*
X2464Y676D01*
X2466Y676D01*
X2466Y678D01*
X2468Y678D01*
X2468Y680D01*
X2470Y680D01*
X2470Y682D01*
X2472Y682D01*
X2472Y684D01*
X2474Y684D01*
X2474Y686D01*
X2478Y686D01*
X2478Y688D01*
X2480Y688D01*
X2480Y690D01*
X2484Y690D01*
X2484Y692D01*
X2492Y692D01*
X2492Y704D01*
X2472Y704D01*
G37*
D02*
G36*
X1138Y676D02*
X1138Y672D01*
X1136Y672D01*
X1136Y670D01*
X1134Y670D01*
X1134Y668D01*
X1132Y668D01*
X1132Y666D01*
X1130Y666D01*
X1130Y664D01*
X1128Y664D01*
X1128Y662D01*
X1124Y662D01*
X1124Y640D01*
X1126Y640D01*
X1126Y638D01*
X1128Y638D01*
X1128Y636D01*
X1130Y636D01*
X1130Y634D01*
X1132Y634D01*
X1132Y632D01*
X1134Y632D01*
X1134Y630D01*
X1136Y630D01*
X1136Y628D01*
X1138Y628D01*
X1138Y626D01*
X1158Y626D01*
X1158Y628D01*
X1160Y628D01*
X1160Y630D01*
X1162Y630D01*
X1162Y632D01*
X1164Y632D01*
X1164Y634D01*
X1166Y634D01*
X1166Y636D01*
X1168Y636D01*
X1168Y638D01*
X1170Y638D01*
X1170Y640D01*
X1172Y640D01*
X1172Y662D01*
X1168Y662D01*
X1168Y664D01*
X1166Y664D01*
X1166Y666D01*
X1164Y666D01*
X1164Y668D01*
X1162Y668D01*
X1162Y670D01*
X1160Y670D01*
X1160Y674D01*
X1158Y674D01*
X1158Y676D01*
X1138Y676D01*
G37*
D02*
G36*
X1238Y676D02*
X1238Y672D01*
X1236Y672D01*
X1236Y670D01*
X1234Y670D01*
X1234Y668D01*
X1232Y668D01*
X1232Y666D01*
X1230Y666D01*
X1230Y664D01*
X1228Y664D01*
X1228Y662D01*
X1224Y662D01*
X1224Y640D01*
X1226Y640D01*
X1226Y638D01*
X1228Y638D01*
X1228Y636D01*
X1230Y636D01*
X1230Y634D01*
X1232Y634D01*
X1232Y632D01*
X1234Y632D01*
X1234Y630D01*
X1236Y630D01*
X1236Y628D01*
X1238Y628D01*
X1238Y626D01*
X1258Y626D01*
X1258Y628D01*
X1260Y628D01*
X1260Y630D01*
X1262Y630D01*
X1262Y632D01*
X1264Y632D01*
X1264Y634D01*
X1266Y634D01*
X1266Y636D01*
X1268Y636D01*
X1268Y638D01*
X1270Y638D01*
X1270Y640D01*
X1272Y640D01*
X1272Y662D01*
X1268Y662D01*
X1268Y664D01*
X1266Y664D01*
X1266Y666D01*
X1264Y666D01*
X1264Y668D01*
X1262Y668D01*
X1262Y670D01*
X1260Y670D01*
X1260Y674D01*
X1258Y674D01*
X1258Y676D01*
X1238Y676D01*
G37*
D02*
G36*
X2438Y646D02*
X2438Y640D01*
X2436Y640D01*
X2436Y634D01*
X2434Y634D01*
X2434Y632D01*
X2432Y632D01*
X2432Y628D01*
X2430Y628D01*
X2430Y626D01*
X2428Y626D01*
X2428Y624D01*
X2426Y624D01*
X2426Y622D01*
X2424Y622D01*
X2424Y620D01*
X2422Y620D01*
X2422Y618D01*
X2418Y618D01*
X2418Y616D01*
X2414Y616D01*
X2414Y614D01*
X2410Y614D01*
X2410Y612D01*
X2404Y612D01*
X2404Y592D01*
X2412Y592D01*
X2412Y590D01*
X2416Y590D01*
X2416Y588D01*
X2418Y588D01*
X2418Y586D01*
X2422Y586D01*
X2422Y584D01*
X2424Y584D01*
X2424Y582D01*
X2426Y582D01*
X2426Y580D01*
X2428Y580D01*
X2428Y578D01*
X2430Y578D01*
X2430Y576D01*
X2432Y576D01*
X2432Y572D01*
X2434Y572D01*
X2434Y570D01*
X2436Y570D01*
X2436Y566D01*
X2438Y566D01*
X2438Y558D01*
X2458Y558D01*
X2458Y564D01*
X2460Y564D01*
X2460Y570D01*
X2462Y570D01*
X2462Y572D01*
X2464Y572D01*
X2464Y576D01*
X2466Y576D01*
X2466Y578D01*
X2468Y578D01*
X2468Y580D01*
X2470Y580D01*
X2470Y582D01*
X2472Y582D01*
X2472Y584D01*
X2474Y584D01*
X2474Y586D01*
X2478Y586D01*
X2478Y588D01*
X2480Y588D01*
X2480Y590D01*
X2484Y590D01*
X2484Y592D01*
X2492Y592D01*
X2492Y612D01*
X2486Y612D01*
X2486Y614D01*
X2482Y614D01*
X2482Y616D01*
X2478Y616D01*
X2478Y618D01*
X2476Y618D01*
X2476Y620D01*
X2472Y620D01*
X2472Y622D01*
X2470Y622D01*
X2470Y624D01*
X2468Y624D01*
X2468Y626D01*
X2466Y626D01*
X2466Y630D01*
X2464Y630D01*
X2464Y632D01*
X2462Y632D01*
X2462Y636D01*
X2460Y636D01*
X2460Y640D01*
X2458Y640D01*
X2458Y646D01*
X2438Y646D01*
G37*
D02*
G36*
X1138Y576D02*
X1138Y572D01*
X1136Y572D01*
X1136Y570D01*
X1134Y570D01*
X1134Y568D01*
X1132Y568D01*
X1132Y566D01*
X1130Y566D01*
X1130Y564D01*
X1128Y564D01*
X1128Y562D01*
X1124Y562D01*
X1124Y560D01*
X1122Y560D01*
X1122Y558D01*
X1118Y558D01*
X1118Y556D01*
X1114Y556D01*
X1114Y466D01*
X1190Y466D01*
X1190Y486D01*
X1188Y486D01*
X1188Y488D01*
X1186Y488D01*
X1186Y490D01*
X1184Y490D01*
X1184Y494D01*
X1182Y494D01*
X1182Y556D01*
X1178Y556D01*
X1178Y558D01*
X1174Y558D01*
X1174Y560D01*
X1172Y560D01*
X1172Y562D01*
X1168Y562D01*
X1168Y564D01*
X1166Y564D01*
X1166Y566D01*
X1164Y566D01*
X1164Y568D01*
X1162Y568D01*
X1162Y570D01*
X1160Y570D01*
X1160Y574D01*
X1158Y574D01*
X1158Y576D01*
X1138Y576D01*
G37*
D02*
G36*
X2254Y886D02*
X2254Y884D01*
X2252Y884D01*
X2252Y882D01*
X2250Y882D01*
X2250Y880D01*
X2248Y880D01*
X2248Y878D01*
X2246Y878D01*
X2246Y876D01*
X2244Y876D01*
X2244Y874D01*
X2242Y874D01*
X2242Y872D01*
X2240Y872D01*
X2240Y870D01*
X2238Y870D01*
X2238Y868D01*
X2236Y868D01*
X2236Y866D01*
X2234Y866D01*
X2234Y864D01*
X2232Y864D01*
X2232Y862D01*
X2230Y862D01*
X2230Y860D01*
X2228Y860D01*
X2228Y858D01*
X2226Y858D01*
X2226Y856D01*
X2224Y856D01*
X2224Y854D01*
X2222Y854D01*
X2222Y852D01*
X2220Y852D01*
X2220Y850D01*
X2218Y850D01*
X2218Y848D01*
X2216Y848D01*
X2216Y846D01*
X2214Y846D01*
X2214Y844D01*
X2212Y844D01*
X2212Y842D01*
X2210Y842D01*
X2210Y840D01*
X2208Y840D01*
X2208Y838D01*
X2206Y838D01*
X2206Y836D01*
X2204Y836D01*
X2204Y834D01*
X2202Y834D01*
X2202Y832D01*
X2200Y832D01*
X2200Y830D01*
X2198Y830D01*
X2198Y828D01*
X2196Y828D01*
X2196Y826D01*
X2194Y826D01*
X2194Y824D01*
X2192Y824D01*
X2192Y822D01*
X2190Y822D01*
X2190Y820D01*
X2188Y820D01*
X2188Y818D01*
X2186Y818D01*
X2186Y816D01*
X2184Y816D01*
X2184Y814D01*
X2182Y814D01*
X2182Y812D01*
X2180Y812D01*
X2180Y810D01*
X2178Y810D01*
X2178Y808D01*
X2176Y808D01*
X2176Y806D01*
X2174Y806D01*
X2174Y804D01*
X2172Y804D01*
X2172Y802D01*
X2170Y802D01*
X2170Y800D01*
X2168Y800D01*
X2168Y798D01*
X2166Y798D01*
X2166Y796D01*
X2164Y796D01*
X2164Y794D01*
X2162Y794D01*
X2162Y792D01*
X2160Y792D01*
X2160Y790D01*
X2158Y790D01*
X2158Y788D01*
X2156Y788D01*
X2156Y786D01*
X2154Y786D01*
X2154Y784D01*
X2152Y784D01*
X2152Y782D01*
X2150Y782D01*
X2150Y778D01*
X2148Y778D01*
X2148Y776D01*
X2146Y776D01*
X2146Y774D01*
X2144Y774D01*
X2144Y772D01*
X2142Y772D01*
X2142Y770D01*
X2140Y770D01*
X2140Y768D01*
X2138Y768D01*
X2138Y766D01*
X2136Y766D01*
X2136Y764D01*
X2134Y764D01*
X2134Y762D01*
X2132Y762D01*
X2132Y760D01*
X2130Y760D01*
X2130Y758D01*
X2128Y758D01*
X2128Y756D01*
X2126Y756D01*
X2126Y754D01*
X2124Y754D01*
X2124Y752D01*
X2122Y752D01*
X2122Y750D01*
X2120Y750D01*
X2120Y748D01*
X2118Y748D01*
X2118Y746D01*
X2116Y746D01*
X2116Y744D01*
X2114Y744D01*
X2114Y742D01*
X2112Y742D01*
X2112Y740D01*
X2110Y740D01*
X2110Y738D01*
X2108Y738D01*
X2108Y736D01*
X2106Y736D01*
X2106Y734D01*
X2104Y734D01*
X2104Y732D01*
X2102Y732D01*
X2102Y730D01*
X2100Y730D01*
X2100Y728D01*
X2098Y728D01*
X2098Y726D01*
X2096Y726D01*
X2096Y724D01*
X2094Y724D01*
X2094Y722D01*
X2092Y722D01*
X2092Y720D01*
X2090Y720D01*
X2090Y718D01*
X2088Y718D01*
X2088Y716D01*
X2086Y716D01*
X2086Y714D01*
X2084Y714D01*
X2084Y712D01*
X2082Y712D01*
X2082Y710D01*
X2080Y710D01*
X2080Y708D01*
X2078Y708D01*
X2078Y706D01*
X2076Y706D01*
X2076Y704D01*
X2074Y704D01*
X2074Y702D01*
X2072Y702D01*
X2072Y700D01*
X2070Y700D01*
X2070Y698D01*
X2068Y698D01*
X2068Y696D01*
X2066Y696D01*
X2066Y694D01*
X2064Y694D01*
X2064Y692D01*
X2062Y692D01*
X2062Y690D01*
X2060Y690D01*
X2060Y688D01*
X2058Y688D01*
X2058Y686D01*
X2056Y686D01*
X2056Y684D01*
X2054Y684D01*
X2054Y682D01*
X2052Y682D01*
X2052Y680D01*
X2050Y680D01*
X2050Y678D01*
X2048Y678D01*
X2048Y676D01*
X2046Y676D01*
X2046Y674D01*
X2044Y674D01*
X2044Y672D01*
X2042Y672D01*
X2042Y670D01*
X2040Y670D01*
X2040Y668D01*
X2038Y668D01*
X2038Y666D01*
X2036Y666D01*
X2036Y664D01*
X2034Y664D01*
X2034Y662D01*
X2032Y662D01*
X2032Y660D01*
X2030Y660D01*
X2030Y658D01*
X2028Y658D01*
X2028Y656D01*
X2026Y656D01*
X2026Y654D01*
X2024Y654D01*
X2024Y652D01*
X2022Y652D01*
X2022Y650D01*
X2020Y650D01*
X2020Y648D01*
X2018Y648D01*
X2018Y646D01*
X2016Y646D01*
X2016Y644D01*
X2014Y644D01*
X2014Y642D01*
X2012Y642D01*
X2012Y640D01*
X2010Y640D01*
X2010Y638D01*
X2008Y638D01*
X2008Y636D01*
X2006Y636D01*
X2006Y634D01*
X2004Y634D01*
X2004Y632D01*
X2002Y632D01*
X2002Y628D01*
X2000Y628D01*
X2000Y626D01*
X1998Y626D01*
X1998Y624D01*
X1996Y624D01*
X1996Y622D01*
X1994Y622D01*
X1994Y620D01*
X1992Y620D01*
X1992Y618D01*
X1990Y618D01*
X1990Y616D01*
X1988Y616D01*
X1988Y614D01*
X1986Y614D01*
X1986Y612D01*
X1984Y612D01*
X1984Y610D01*
X1982Y610D01*
X1982Y608D01*
X1980Y608D01*
X1980Y606D01*
X1978Y606D01*
X1978Y604D01*
X1976Y604D01*
X1976Y602D01*
X1974Y602D01*
X1974Y600D01*
X1972Y600D01*
X1972Y598D01*
X1970Y598D01*
X1970Y596D01*
X1968Y596D01*
X1968Y594D01*
X1966Y594D01*
X1966Y592D01*
X1964Y592D01*
X1964Y590D01*
X1962Y590D01*
X1962Y588D01*
X1960Y588D01*
X1960Y586D01*
X1956Y586D01*
X1956Y584D01*
X1344Y584D01*
X1344Y582D01*
X1342Y582D01*
X1342Y578D01*
X1340Y578D01*
X1340Y576D01*
X1338Y576D01*
X1338Y572D01*
X1336Y572D01*
X1336Y570D01*
X1334Y570D01*
X1334Y568D01*
X1332Y568D01*
X1332Y566D01*
X1330Y566D01*
X1330Y564D01*
X1328Y564D01*
X1328Y562D01*
X1324Y562D01*
X1324Y560D01*
X1322Y560D01*
X1322Y558D01*
X1318Y558D01*
X1318Y556D01*
X1314Y556D01*
X1314Y554D01*
X1308Y554D01*
X1308Y552D01*
X2028Y552D01*
X2028Y554D01*
X2030Y554D01*
X2030Y556D01*
X2032Y556D01*
X2032Y558D01*
X2034Y558D01*
X2034Y560D01*
X2036Y560D01*
X2036Y562D01*
X2038Y562D01*
X2038Y564D01*
X2040Y564D01*
X2040Y566D01*
X2042Y566D01*
X2042Y568D01*
X2044Y568D01*
X2044Y570D01*
X2046Y570D01*
X2046Y572D01*
X2048Y572D01*
X2048Y574D01*
X2050Y574D01*
X2050Y576D01*
X2052Y576D01*
X2052Y578D01*
X2054Y578D01*
X2054Y580D01*
X2056Y580D01*
X2056Y582D01*
X2058Y582D01*
X2058Y584D01*
X2060Y584D01*
X2060Y586D01*
X2062Y586D01*
X2062Y588D01*
X2064Y588D01*
X2064Y590D01*
X2066Y590D01*
X2066Y592D01*
X2068Y592D01*
X2068Y594D01*
X2070Y594D01*
X2070Y596D01*
X2072Y596D01*
X2072Y598D01*
X2074Y598D01*
X2074Y600D01*
X2076Y600D01*
X2076Y602D01*
X2078Y602D01*
X2078Y604D01*
X2080Y604D01*
X2080Y606D01*
X2082Y606D01*
X2082Y608D01*
X2084Y608D01*
X2084Y610D01*
X2086Y610D01*
X2086Y612D01*
X2088Y612D01*
X2088Y614D01*
X2090Y614D01*
X2090Y616D01*
X2092Y616D01*
X2092Y618D01*
X2094Y618D01*
X2094Y620D01*
X2096Y620D01*
X2096Y622D01*
X2098Y622D01*
X2098Y624D01*
X2100Y624D01*
X2100Y626D01*
X2102Y626D01*
X2102Y628D01*
X2104Y628D01*
X2104Y630D01*
X2106Y630D01*
X2106Y632D01*
X2108Y632D01*
X2108Y634D01*
X2110Y634D01*
X2110Y636D01*
X2112Y636D01*
X2112Y638D01*
X2114Y638D01*
X2114Y640D01*
X2116Y640D01*
X2116Y642D01*
X2118Y642D01*
X2118Y644D01*
X2120Y644D01*
X2120Y646D01*
X2122Y646D01*
X2122Y648D01*
X2124Y648D01*
X2124Y650D01*
X2126Y650D01*
X2126Y652D01*
X2128Y652D01*
X2128Y654D01*
X2130Y654D01*
X2130Y656D01*
X2132Y656D01*
X2132Y658D01*
X2134Y658D01*
X2134Y660D01*
X2136Y660D01*
X2136Y662D01*
X2138Y662D01*
X2138Y664D01*
X2140Y664D01*
X2140Y666D01*
X2142Y666D01*
X2142Y668D01*
X2144Y668D01*
X2144Y670D01*
X2146Y670D01*
X2146Y672D01*
X2148Y672D01*
X2148Y674D01*
X2150Y674D01*
X2150Y676D01*
X2152Y676D01*
X2152Y678D01*
X2154Y678D01*
X2154Y680D01*
X2156Y680D01*
X2156Y682D01*
X2158Y682D01*
X2158Y684D01*
X2160Y684D01*
X2160Y686D01*
X2162Y686D01*
X2162Y688D01*
X2164Y688D01*
X2164Y690D01*
X2166Y690D01*
X2166Y692D01*
X2168Y692D01*
X2168Y694D01*
X2170Y694D01*
X2170Y696D01*
X2172Y696D01*
X2172Y698D01*
X2174Y698D01*
X2174Y700D01*
X2176Y700D01*
X2176Y702D01*
X2178Y702D01*
X2178Y704D01*
X2180Y704D01*
X2180Y706D01*
X2182Y706D01*
X2182Y708D01*
X2184Y708D01*
X2184Y710D01*
X2186Y710D01*
X2186Y712D01*
X2188Y712D01*
X2188Y714D01*
X2190Y714D01*
X2190Y716D01*
X2192Y716D01*
X2192Y718D01*
X2194Y718D01*
X2194Y720D01*
X2196Y720D01*
X2196Y722D01*
X2198Y722D01*
X2198Y724D01*
X2200Y724D01*
X2200Y726D01*
X2202Y726D01*
X2202Y728D01*
X2204Y728D01*
X2204Y730D01*
X2206Y730D01*
X2206Y732D01*
X2208Y732D01*
X2208Y734D01*
X2210Y734D01*
X2210Y736D01*
X2212Y736D01*
X2212Y738D01*
X2214Y738D01*
X2214Y740D01*
X2216Y740D01*
X2216Y742D01*
X2218Y742D01*
X2218Y744D01*
X2220Y744D01*
X2220Y746D01*
X2222Y746D01*
X2222Y748D01*
X2224Y748D01*
X2224Y750D01*
X2226Y750D01*
X2226Y752D01*
X2228Y752D01*
X2228Y754D01*
X2230Y754D01*
X2230Y756D01*
X2232Y756D01*
X2232Y758D01*
X2234Y758D01*
X2234Y760D01*
X2236Y760D01*
X2236Y762D01*
X2238Y762D01*
X2238Y764D01*
X2240Y764D01*
X2240Y766D01*
X2242Y766D01*
X2242Y768D01*
X2244Y768D01*
X2244Y770D01*
X2246Y770D01*
X2246Y772D01*
X2248Y772D01*
X2248Y774D01*
X2250Y774D01*
X2250Y776D01*
X2252Y776D01*
X2252Y778D01*
X2254Y778D01*
X2254Y780D01*
X2256Y780D01*
X2256Y782D01*
X2258Y782D01*
X2258Y784D01*
X2260Y784D01*
X2260Y786D01*
X2262Y786D01*
X2262Y788D01*
X2264Y788D01*
X2264Y790D01*
X2266Y790D01*
X2266Y792D01*
X2268Y792D01*
X2268Y794D01*
X2270Y794D01*
X2270Y796D01*
X2272Y796D01*
X2272Y798D01*
X2274Y798D01*
X2274Y800D01*
X2276Y800D01*
X2276Y802D01*
X2278Y802D01*
X2278Y804D01*
X2280Y804D01*
X2280Y806D01*
X2282Y806D01*
X2282Y810D01*
X2284Y810D01*
X2284Y812D01*
X2286Y812D01*
X2286Y814D01*
X2290Y814D01*
X2290Y816D01*
X2294Y816D01*
X2294Y818D01*
X2360Y818D01*
X2360Y840D01*
X2358Y840D01*
X2358Y848D01*
X2356Y848D01*
X2356Y858D01*
X2358Y858D01*
X2358Y864D01*
X2360Y864D01*
X2360Y886D01*
X2254Y886D01*
G37*
D02*
G36*
X1238Y576D02*
X1238Y572D01*
X1236Y572D01*
X1236Y570D01*
X1234Y570D01*
X1234Y568D01*
X1232Y568D01*
X1232Y566D01*
X1230Y566D01*
X1230Y564D01*
X1228Y564D01*
X1228Y562D01*
X1224Y562D01*
X1224Y560D01*
X1222Y560D01*
X1222Y558D01*
X1218Y558D01*
X1218Y556D01*
X1214Y556D01*
X1214Y552D01*
X1288Y552D01*
X1288Y554D01*
X1282Y554D01*
X1282Y556D01*
X1278Y556D01*
X1278Y558D01*
X1274Y558D01*
X1274Y560D01*
X1272Y560D01*
X1272Y562D01*
X1268Y562D01*
X1268Y564D01*
X1266Y564D01*
X1266Y566D01*
X1264Y566D01*
X1264Y568D01*
X1262Y568D01*
X1262Y570D01*
X1260Y570D01*
X1260Y574D01*
X1258Y574D01*
X1258Y576D01*
X1238Y576D01*
G37*
D02*
G36*
X1214Y552D02*
X1214Y550D01*
X2026Y550D01*
X2026Y552D01*
X1214Y552D01*
G37*
D02*
G36*
X1214Y552D02*
X1214Y550D01*
X2026Y550D01*
X2026Y552D01*
X1214Y552D01*
G37*
D02*
G36*
X1214Y550D02*
X1214Y516D01*
X1994Y516D01*
X1994Y518D01*
X1996Y518D01*
X1996Y520D01*
X1998Y520D01*
X1998Y522D01*
X2000Y522D01*
X2000Y524D01*
X2002Y524D01*
X2002Y526D01*
X2004Y526D01*
X2004Y528D01*
X2006Y528D01*
X2006Y530D01*
X2008Y530D01*
X2008Y532D01*
X2010Y532D01*
X2010Y536D01*
X2012Y536D01*
X2012Y538D01*
X2014Y538D01*
X2014Y540D01*
X2016Y540D01*
X2016Y542D01*
X2018Y542D01*
X2018Y544D01*
X2020Y544D01*
X2020Y546D01*
X2022Y546D01*
X2022Y548D01*
X2024Y548D01*
X2024Y550D01*
X1214Y550D01*
G37*
D02*
G36*
X2538Y560D02*
X2538Y558D01*
X2540Y558D01*
X2540Y540D01*
X2542Y540D01*
X2542Y538D01*
X2544Y538D01*
X2544Y536D01*
X2546Y536D01*
X2546Y534D01*
X2548Y534D01*
X2548Y532D01*
X2550Y532D01*
X2550Y530D01*
X2552Y530D01*
X2552Y528D01*
X2554Y528D01*
X2554Y526D01*
X2556Y526D01*
X2556Y524D01*
X2558Y524D01*
X2558Y522D01*
X2560Y522D01*
X2560Y520D01*
X2562Y520D01*
X2562Y518D01*
X2564Y518D01*
X2564Y516D01*
X2566Y516D01*
X2566Y514D01*
X2568Y514D01*
X2568Y512D01*
X2570Y512D01*
X2570Y510D01*
X2572Y510D01*
X2572Y508D01*
X2574Y508D01*
X2574Y506D01*
X2576Y506D01*
X2576Y504D01*
X2578Y504D01*
X2578Y502D01*
X2580Y502D01*
X2580Y500D01*
X2582Y500D01*
X2582Y498D01*
X2584Y498D01*
X2584Y496D01*
X2586Y496D01*
X2586Y494D01*
X2588Y494D01*
X2588Y492D01*
X2590Y492D01*
X2590Y490D01*
X2592Y490D01*
X2592Y488D01*
X2594Y488D01*
X2594Y486D01*
X2596Y486D01*
X2596Y484D01*
X2598Y484D01*
X2598Y482D01*
X2600Y482D01*
X2600Y480D01*
X2602Y480D01*
X2602Y478D01*
X2604Y478D01*
X2604Y476D01*
X2624Y476D01*
X2624Y494D01*
X2622Y494D01*
X2622Y496D01*
X2620Y496D01*
X2620Y498D01*
X2618Y498D01*
X2618Y500D01*
X2616Y500D01*
X2616Y502D01*
X2614Y502D01*
X2614Y504D01*
X2612Y504D01*
X2612Y506D01*
X2610Y506D01*
X2610Y508D01*
X2608Y508D01*
X2608Y510D01*
X2606Y510D01*
X2606Y512D01*
X2604Y512D01*
X2604Y514D01*
X2602Y514D01*
X2602Y516D01*
X2600Y516D01*
X2600Y518D01*
X2598Y518D01*
X2598Y520D01*
X2596Y520D01*
X2596Y522D01*
X2594Y522D01*
X2594Y524D01*
X2592Y524D01*
X2592Y526D01*
X2590Y526D01*
X2590Y528D01*
X2588Y528D01*
X2588Y530D01*
X2586Y530D01*
X2586Y532D01*
X2584Y532D01*
X2584Y534D01*
X2582Y534D01*
X2582Y536D01*
X2580Y536D01*
X2580Y538D01*
X2578Y538D01*
X2578Y540D01*
X2576Y540D01*
X2576Y542D01*
X2574Y542D01*
X2574Y544D01*
X2572Y544D01*
X2572Y546D01*
X2570Y546D01*
X2570Y548D01*
X2568Y548D01*
X2568Y550D01*
X2566Y550D01*
X2566Y552D01*
X2564Y552D01*
X2564Y554D01*
X2562Y554D01*
X2562Y556D01*
X2560Y556D01*
X2560Y558D01*
X2558Y558D01*
X2558Y560D01*
X2538Y560D01*
G37*
D02*
G36*
X2438Y546D02*
X2438Y540D01*
X2436Y540D01*
X2436Y534D01*
X2434Y534D01*
X2434Y532D01*
X2432Y532D01*
X2432Y528D01*
X2430Y528D01*
X2430Y526D01*
X2428Y526D01*
X2428Y524D01*
X2426Y524D01*
X2426Y522D01*
X2424Y522D01*
X2424Y520D01*
X2422Y520D01*
X2422Y518D01*
X2418Y518D01*
X2418Y516D01*
X2414Y516D01*
X2414Y514D01*
X2410Y514D01*
X2410Y512D01*
X2404Y512D01*
X2404Y492D01*
X2412Y492D01*
X2412Y490D01*
X2416Y490D01*
X2416Y488D01*
X2418Y488D01*
X2418Y486D01*
X2422Y486D01*
X2422Y484D01*
X2424Y484D01*
X2424Y482D01*
X2426Y482D01*
X2426Y480D01*
X2428Y480D01*
X2428Y478D01*
X2430Y478D01*
X2430Y476D01*
X2432Y476D01*
X2432Y472D01*
X2434Y472D01*
X2434Y470D01*
X2436Y470D01*
X2436Y466D01*
X2438Y466D01*
X2438Y458D01*
X2458Y458D01*
X2458Y464D01*
X2460Y464D01*
X2460Y470D01*
X2462Y470D01*
X2462Y472D01*
X2464Y472D01*
X2464Y476D01*
X2466Y476D01*
X2466Y478D01*
X2468Y478D01*
X2468Y480D01*
X2470Y480D01*
X2470Y482D01*
X2472Y482D01*
X2472Y484D01*
X2474Y484D01*
X2474Y486D01*
X2478Y486D01*
X2478Y488D01*
X2480Y488D01*
X2480Y490D01*
X2484Y490D01*
X2484Y492D01*
X2492Y492D01*
X2492Y512D01*
X2486Y512D01*
X2486Y514D01*
X2482Y514D01*
X2482Y516D01*
X2478Y516D01*
X2478Y518D01*
X2476Y518D01*
X2476Y520D01*
X2472Y520D01*
X2472Y522D01*
X2470Y522D01*
X2470Y524D01*
X2468Y524D01*
X2468Y526D01*
X2466Y526D01*
X2466Y530D01*
X2464Y530D01*
X2464Y532D01*
X2462Y532D01*
X2462Y536D01*
X2460Y536D01*
X2460Y540D01*
X2458Y540D01*
X2458Y546D01*
X2438Y546D01*
G37*
D02*
G36*
X2438Y446D02*
X2438Y440D01*
X2436Y440D01*
X2436Y434D01*
X2434Y434D01*
X2434Y432D01*
X2432Y432D01*
X2432Y428D01*
X2430Y428D01*
X2430Y426D01*
X2428Y426D01*
X2428Y424D01*
X2426Y424D01*
X2426Y422D01*
X2424Y422D01*
X2424Y420D01*
X2422Y420D01*
X2422Y418D01*
X2418Y418D01*
X2418Y416D01*
X2414Y416D01*
X2414Y414D01*
X2410Y414D01*
X2410Y412D01*
X2404Y412D01*
X2404Y392D01*
X2412Y392D01*
X2412Y390D01*
X2416Y390D01*
X2416Y388D01*
X2418Y388D01*
X2418Y386D01*
X2422Y386D01*
X2422Y384D01*
X2424Y384D01*
X2424Y382D01*
X2426Y382D01*
X2426Y380D01*
X2428Y380D01*
X2428Y378D01*
X2430Y378D01*
X2430Y376D01*
X2432Y376D01*
X2432Y372D01*
X2434Y372D01*
X2434Y370D01*
X2436Y370D01*
X2436Y366D01*
X2438Y366D01*
X2438Y358D01*
X2458Y358D01*
X2458Y364D01*
X2460Y364D01*
X2460Y370D01*
X2462Y370D01*
X2462Y372D01*
X2464Y372D01*
X2464Y376D01*
X2466Y376D01*
X2466Y378D01*
X2468Y378D01*
X2468Y380D01*
X2470Y380D01*
X2470Y382D01*
X2472Y382D01*
X2472Y384D01*
X2474Y384D01*
X2474Y386D01*
X2478Y386D01*
X2478Y388D01*
X2480Y388D01*
X2480Y390D01*
X2484Y390D01*
X2484Y392D01*
X2492Y392D01*
X2492Y412D01*
X2486Y412D01*
X2486Y414D01*
X2482Y414D01*
X2482Y416D01*
X2478Y416D01*
X2478Y418D01*
X2476Y418D01*
X2476Y420D01*
X2472Y420D01*
X2472Y422D01*
X2470Y422D01*
X2470Y424D01*
X2468Y424D01*
X2468Y426D01*
X2466Y426D01*
X2466Y430D01*
X2464Y430D01*
X2464Y432D01*
X2462Y432D01*
X2462Y436D01*
X2460Y436D01*
X2460Y440D01*
X2458Y440D01*
X2458Y446D01*
X2438Y446D01*
G37*
D02*
G36*
X2438Y346D02*
X2438Y340D01*
X2436Y340D01*
X2436Y334D01*
X2434Y334D01*
X2434Y332D01*
X2432Y332D01*
X2432Y328D01*
X2430Y328D01*
X2430Y326D01*
X2428Y326D01*
X2428Y324D01*
X2426Y324D01*
X2426Y322D01*
X2424Y322D01*
X2424Y320D01*
X2422Y320D01*
X2422Y318D01*
X2418Y318D01*
X2418Y316D01*
X2414Y316D01*
X2414Y314D01*
X2410Y314D01*
X2410Y312D01*
X2404Y312D01*
X2404Y292D01*
X2412Y292D01*
X2412Y290D01*
X2416Y290D01*
X2416Y288D01*
X2418Y288D01*
X2418Y286D01*
X2422Y286D01*
X2422Y284D01*
X2424Y284D01*
X2424Y282D01*
X2426Y282D01*
X2426Y280D01*
X2428Y280D01*
X2428Y278D01*
X2430Y278D01*
X2430Y276D01*
X2432Y276D01*
X2432Y272D01*
X2434Y272D01*
X2434Y270D01*
X2436Y270D01*
X2436Y266D01*
X2456Y266D01*
X2456Y294D01*
X2486Y294D01*
X2486Y314D01*
X2482Y314D01*
X2482Y316D01*
X2478Y316D01*
X2478Y318D01*
X2476Y318D01*
X2476Y320D01*
X2472Y320D01*
X2472Y322D01*
X2470Y322D01*
X2470Y324D01*
X2468Y324D01*
X2468Y326D01*
X2466Y326D01*
X2466Y330D01*
X2464Y330D01*
X2464Y332D01*
X2462Y332D01*
X2462Y336D01*
X2460Y336D01*
X2460Y340D01*
X2458Y340D01*
X2458Y346D01*
X2438Y346D01*
G37*
D02*
G04 End of Copper1*
M02*