G04 MADE WITH FRITZING*
G04 WWW.FRITZING.ORG*
G04 DOUBLE SIDED*
G04 HOLES PLATED*
G04 CONTOUR ON CENTER OF CONTOUR VECTOR*
%ASAXBY*%
%FSLAX23Y23*%
%MOIN*%
%OFA0B0*%
%SFA1.0B1.0*%
%ADD10R,0.775079X0.617433X0.759079X0.601433*%
%ADD11C,0.008000*%
%ADD12C,0.010000*%
%ADD13C,0.005000*%
%ADD14R,0.001000X0.001000*%
%LNSILK0*%
G90*
G70*
G54D11*
X4Y613D02*
X771Y613D01*
X771Y4D01*
X4Y4D01*
X4Y613D01*
D02*
G54D12*
X290Y120D02*
X490Y120D01*
D02*
X490Y120D02*
X490Y20D01*
D02*
X490Y20D02*
X290Y20D01*
D02*
X290Y20D02*
X290Y120D01*
G54D13*
D02*
X325Y120D02*
X290Y85D01*
G54D14*
X539Y95D02*
X555Y95D01*
X594Y95D02*
X612Y95D01*
X636Y95D02*
X639Y95D01*
X538Y94D02*
X557Y94D01*
X594Y94D02*
X613Y94D01*
X635Y94D02*
X640Y94D01*
X538Y93D02*
X557Y93D01*
X594Y93D02*
X614Y93D01*
X634Y93D02*
X640Y93D01*
X538Y92D02*
X557Y92D01*
X594Y92D02*
X614Y92D01*
X634Y92D02*
X640Y92D01*
X538Y91D02*
X557Y91D01*
X594Y91D02*
X614Y91D01*
X634Y91D02*
X640Y91D01*
X538Y90D02*
X557Y90D01*
X594Y90D02*
X613Y90D01*
X634Y90D02*
X640Y90D01*
X538Y89D02*
X557Y89D01*
X594Y89D02*
X612Y89D01*
X634Y89D02*
X640Y89D01*
X538Y88D02*
X544Y88D01*
X551Y88D02*
X557Y88D01*
X594Y88D02*
X600Y88D01*
X634Y88D02*
X640Y88D01*
X538Y87D02*
X544Y87D01*
X551Y87D02*
X557Y87D01*
X594Y87D02*
X600Y87D01*
X634Y87D02*
X640Y87D01*
X538Y86D02*
X544Y86D01*
X551Y86D02*
X557Y86D01*
X594Y86D02*
X600Y86D01*
X634Y86D02*
X640Y86D01*
X538Y85D02*
X544Y85D01*
X551Y85D02*
X557Y85D01*
X594Y85D02*
X600Y85D01*
X634Y85D02*
X640Y85D01*
X538Y84D02*
X544Y84D01*
X551Y84D02*
X557Y84D01*
X594Y84D02*
X600Y84D01*
X634Y84D02*
X640Y84D01*
X538Y83D02*
X544Y83D01*
X551Y83D02*
X557Y83D01*
X594Y83D02*
X600Y83D01*
X634Y83D02*
X640Y83D01*
X538Y82D02*
X544Y82D01*
X551Y82D02*
X557Y82D01*
X594Y82D02*
X600Y82D01*
X634Y82D02*
X640Y82D01*
X538Y81D02*
X544Y81D01*
X551Y81D02*
X557Y81D01*
X594Y81D02*
X600Y81D01*
X634Y81D02*
X640Y81D01*
X538Y80D02*
X544Y80D01*
X551Y80D02*
X557Y80D01*
X594Y80D02*
X600Y80D01*
X634Y80D02*
X640Y80D01*
X538Y79D02*
X544Y79D01*
X551Y79D02*
X557Y79D01*
X594Y79D02*
X600Y79D01*
X634Y79D02*
X640Y79D01*
X538Y78D02*
X544Y78D01*
X551Y78D02*
X557Y78D01*
X594Y78D02*
X600Y78D01*
X634Y78D02*
X640Y78D01*
X538Y77D02*
X544Y77D01*
X551Y77D02*
X557Y77D01*
X594Y77D02*
X600Y77D01*
X634Y77D02*
X640Y77D01*
X538Y76D02*
X544Y76D01*
X551Y76D02*
X557Y76D01*
X594Y76D02*
X600Y76D01*
X634Y76D02*
X640Y76D01*
X538Y75D02*
X544Y75D01*
X551Y75D02*
X557Y75D01*
X594Y75D02*
X600Y75D01*
X634Y75D02*
X640Y75D01*
X538Y74D02*
X544Y74D01*
X551Y74D02*
X557Y74D01*
X594Y74D02*
X600Y74D01*
X634Y74D02*
X640Y74D01*
X538Y73D02*
X544Y73D01*
X551Y73D02*
X557Y73D01*
X594Y73D02*
X600Y73D01*
X634Y73D02*
X640Y73D01*
X537Y72D02*
X544Y72D01*
X551Y72D02*
X557Y72D01*
X594Y72D02*
X600Y72D01*
X634Y72D02*
X640Y72D01*
X534Y71D02*
X561Y71D01*
X594Y71D02*
X600Y71D01*
X634Y71D02*
X640Y71D01*
X533Y70D02*
X562Y70D01*
X594Y70D02*
X600Y70D01*
X634Y70D02*
X640Y70D01*
X532Y69D02*
X563Y69D01*
X594Y69D02*
X600Y69D01*
X634Y69D02*
X640Y69D01*
X531Y68D02*
X564Y68D01*
X594Y68D02*
X600Y68D01*
X634Y68D02*
X640Y68D01*
X531Y67D02*
X564Y67D01*
X594Y67D02*
X600Y67D01*
X634Y67D02*
X640Y67D01*
X531Y66D02*
X564Y66D01*
X594Y66D02*
X600Y66D01*
X634Y66D02*
X640Y66D01*
X657Y66D02*
X658Y66D01*
X531Y65D02*
X537Y65D01*
X558Y65D02*
X564Y65D01*
X582Y65D02*
X586Y65D01*
X594Y65D02*
X600Y65D01*
X634Y65D02*
X640Y65D01*
X655Y65D02*
X660Y65D01*
X531Y64D02*
X537Y64D01*
X558Y64D02*
X564Y64D01*
X581Y64D02*
X586Y64D01*
X594Y64D02*
X600Y64D01*
X634Y64D02*
X640Y64D01*
X655Y64D02*
X660Y64D01*
X531Y63D02*
X537Y63D01*
X558Y63D02*
X564Y63D01*
X581Y63D02*
X587Y63D01*
X594Y63D02*
X600Y63D01*
X634Y63D02*
X640Y63D01*
X655Y63D02*
X661Y63D01*
X531Y62D02*
X537Y62D01*
X558Y62D02*
X564Y62D01*
X581Y62D02*
X587Y62D01*
X594Y62D02*
X600Y62D01*
X634Y62D02*
X640Y62D01*
X655Y62D02*
X661Y62D01*
X531Y61D02*
X537Y61D01*
X558Y61D02*
X564Y61D01*
X581Y61D02*
X587Y61D01*
X594Y61D02*
X600Y61D01*
X634Y61D02*
X640Y61D01*
X655Y61D02*
X661Y61D01*
X531Y60D02*
X537Y60D01*
X558Y60D02*
X564Y60D01*
X581Y60D02*
X587Y60D01*
X594Y60D02*
X600Y60D01*
X634Y60D02*
X640Y60D01*
X655Y60D02*
X661Y60D01*
X531Y59D02*
X537Y59D01*
X558Y59D02*
X564Y59D01*
X581Y59D02*
X587Y59D01*
X594Y59D02*
X600Y59D01*
X634Y59D02*
X640Y59D01*
X655Y59D02*
X661Y59D01*
X531Y58D02*
X537Y58D01*
X558Y58D02*
X564Y58D01*
X581Y58D02*
X587Y58D01*
X594Y58D02*
X600Y58D01*
X634Y58D02*
X640Y58D01*
X655Y58D02*
X661Y58D01*
X531Y57D02*
X537Y57D01*
X558Y57D02*
X564Y57D01*
X581Y57D02*
X587Y57D01*
X594Y57D02*
X600Y57D01*
X634Y57D02*
X640Y57D01*
X655Y57D02*
X661Y57D01*
X531Y56D02*
X537Y56D01*
X558Y56D02*
X564Y56D01*
X581Y56D02*
X587Y56D01*
X594Y56D02*
X600Y56D01*
X634Y56D02*
X640Y56D01*
X655Y56D02*
X661Y56D01*
X531Y55D02*
X537Y55D01*
X558Y55D02*
X564Y55D01*
X581Y55D02*
X587Y55D01*
X594Y55D02*
X600Y55D01*
X634Y55D02*
X640Y55D01*
X655Y55D02*
X661Y55D01*
X531Y54D02*
X537Y54D01*
X558Y54D02*
X564Y54D01*
X581Y54D02*
X587Y54D01*
X594Y54D02*
X600Y54D01*
X634Y54D02*
X640Y54D01*
X655Y54D02*
X661Y54D01*
X531Y53D02*
X537Y53D01*
X558Y53D02*
X564Y53D01*
X581Y53D02*
X587Y53D01*
X594Y53D02*
X600Y53D01*
X634Y53D02*
X640Y53D01*
X655Y53D02*
X661Y53D01*
X531Y52D02*
X537Y52D01*
X558Y52D02*
X564Y52D01*
X581Y52D02*
X587Y52D01*
X594Y52D02*
X600Y52D01*
X634Y52D02*
X640Y52D01*
X654Y52D02*
X661Y52D01*
X531Y51D02*
X537Y51D01*
X558Y51D02*
X564Y51D01*
X581Y51D02*
X587Y51D01*
X594Y51D02*
X600Y51D01*
X634Y51D02*
X640Y51D01*
X654Y51D02*
X660Y51D01*
X531Y50D02*
X537Y50D01*
X558Y50D02*
X564Y50D01*
X581Y50D02*
X587Y50D01*
X594Y50D02*
X600Y50D01*
X634Y50D02*
X641Y50D01*
X654Y50D02*
X660Y50D01*
X531Y49D02*
X537Y49D01*
X558Y49D02*
X564Y49D01*
X581Y49D02*
X587Y49D01*
X594Y49D02*
X600Y49D01*
X635Y49D02*
X642Y49D01*
X653Y49D02*
X660Y49D01*
X531Y48D02*
X564Y48D01*
X581Y48D02*
X612Y48D01*
X635Y48D02*
X660Y48D01*
X531Y47D02*
X564Y47D01*
X581Y47D02*
X613Y47D01*
X635Y47D02*
X659Y47D01*
X531Y46D02*
X564Y46D01*
X581Y46D02*
X614Y46D01*
X636Y46D02*
X659Y46D01*
X532Y45D02*
X563Y45D01*
X581Y45D02*
X614Y45D01*
X637Y45D02*
X658Y45D01*
X532Y44D02*
X563Y44D01*
X581Y44D02*
X614Y44D01*
X638Y44D02*
X657Y44D01*
X533Y43D02*
X562Y43D01*
X581Y43D02*
X613Y43D01*
X639Y43D02*
X655Y43D01*
X535Y42D02*
X560Y42D01*
X582Y42D02*
X612Y42D01*
X642Y42D02*
X653Y42D01*
D02*
G04 End of Silk0*
M02*