G04 MADE WITH FRITZING*
G04 WWW.FRITZING.ORG*
G04 DOUBLE SIDED*
G04 HOLES PLATED*
G04 CONTOUR ON CENTER OF CONTOUR VECTOR*
%ASAXBY*%
%FSLAX23Y23*%
%MOIN*%
%OFA0B0*%
%SFA1.0B1.0*%
%ADD10C,0.084000*%
%ADD11C,0.085000*%
%ADD12C,0.049370*%
%ADD13C,0.092000*%
%ADD14C,0.080925*%
%ADD15C,0.080866*%
%ADD16C,0.088000*%
%ADD17R,0.085000X0.085000*%
%ADD18R,0.092000X0.092000*%
%ADD19R,0.001000X0.001000*%
%LNMASK0*%
G90*
G70*
G54D10*
X2628Y1426D03*
X2628Y1326D03*
X2628Y1226D03*
G54D11*
X2678Y876D03*
X2578Y876D03*
G54D12*
X1526Y277D03*
X1627Y175D03*
X2028Y576D03*
X1478Y776D03*
G54D11*
X2728Y376D03*
X2728Y76D03*
X2628Y376D03*
X2628Y76D03*
X2528Y376D03*
X2528Y76D03*
X2428Y376D03*
X2428Y76D03*
X2328Y376D03*
X2328Y76D03*
X2228Y376D03*
X2228Y76D03*
X2128Y376D03*
X2128Y76D03*
X2028Y376D03*
X2028Y76D03*
X1928Y376D03*
X1928Y76D03*
X1828Y376D03*
X1828Y76D03*
X1728Y376D03*
X1728Y76D03*
X1628Y376D03*
X1628Y76D03*
X1078Y1476D03*
X1378Y1476D03*
X1078Y1376D03*
X1378Y1376D03*
X1078Y1276D03*
X1378Y1276D03*
X1078Y1176D03*
X1378Y1176D03*
X1078Y1076D03*
X1378Y1076D03*
X1078Y976D03*
X1378Y976D03*
X1078Y876D03*
X1378Y876D03*
X1078Y776D03*
X1378Y776D03*
X1078Y676D03*
X1378Y676D03*
X1078Y576D03*
X1378Y576D03*
X1078Y476D03*
X1378Y476D03*
X1078Y376D03*
X1378Y376D03*
X1078Y276D03*
X1378Y276D03*
X1078Y176D03*
X1378Y176D03*
X228Y1476D03*
X828Y1476D03*
X228Y1376D03*
X828Y1376D03*
X228Y1276D03*
X828Y1276D03*
X228Y1176D03*
X828Y1176D03*
X228Y1076D03*
X828Y1076D03*
X228Y976D03*
X828Y976D03*
X228Y876D03*
X828Y876D03*
X228Y776D03*
X828Y776D03*
X228Y676D03*
X828Y676D03*
X228Y576D03*
X828Y576D03*
X228Y476D03*
X828Y476D03*
X228Y376D03*
X828Y376D03*
G54D13*
X378Y176D03*
X278Y176D03*
X178Y176D03*
G54D14*
X635Y176D03*
G54D15*
X828Y176D03*
G54D11*
X1628Y1176D03*
X1628Y1476D03*
X1728Y1176D03*
X1728Y1476D03*
X1828Y1176D03*
X1828Y1476D03*
X1928Y1176D03*
X1928Y1476D03*
X2028Y1176D03*
X2028Y1476D03*
X2128Y1176D03*
X2128Y1476D03*
X2228Y1176D03*
X2228Y1476D03*
X2328Y1176D03*
X2328Y1476D03*
G54D16*
X728Y1526D03*
G54D17*
X2678Y876D03*
X2728Y376D03*
X1078Y1476D03*
X228Y1476D03*
G54D18*
X378Y176D03*
G54D17*
X1628Y1176D03*
G54D19*
X2585Y1468D02*
X2748Y1468D01*
X2585Y1467D02*
X2748Y1467D01*
X2585Y1466D02*
X2748Y1466D01*
X2585Y1465D02*
X2748Y1465D01*
X2585Y1464D02*
X2748Y1464D01*
X2585Y1463D02*
X2748Y1463D01*
X2585Y1462D02*
X2748Y1462D01*
X2585Y1461D02*
X2748Y1461D01*
X2585Y1460D02*
X2748Y1460D01*
X2585Y1459D02*
X2748Y1459D01*
X2585Y1458D02*
X2668Y1458D01*
X2585Y1457D02*
X2668Y1457D01*
X2585Y1456D02*
X2668Y1456D01*
X2585Y1455D02*
X2668Y1455D01*
X2585Y1454D02*
X2668Y1454D01*
X2585Y1453D02*
X2668Y1453D01*
X2585Y1452D02*
X2668Y1452D01*
X2585Y1451D02*
X2668Y1451D01*
X2585Y1450D02*
X2668Y1450D01*
X2585Y1449D02*
X2668Y1449D01*
X2585Y1448D02*
X2668Y1448D01*
X2585Y1447D02*
X2668Y1447D01*
X2585Y1446D02*
X2668Y1446D01*
X2585Y1445D02*
X2668Y1445D01*
X2585Y1444D02*
X2668Y1444D01*
X2585Y1443D02*
X2668Y1443D01*
X2585Y1442D02*
X2668Y1442D01*
X2585Y1441D02*
X2622Y1441D01*
X2632Y1441D02*
X2668Y1441D01*
X2585Y1440D02*
X2619Y1440D01*
X2635Y1440D02*
X2668Y1440D01*
X2585Y1439D02*
X2617Y1439D01*
X2637Y1439D02*
X2668Y1439D01*
X2585Y1438D02*
X2616Y1438D01*
X2638Y1438D02*
X2668Y1438D01*
X2585Y1437D02*
X2615Y1437D01*
X2639Y1437D02*
X2668Y1437D01*
X2585Y1436D02*
X2614Y1436D01*
X2640Y1436D02*
X2668Y1436D01*
X2585Y1435D02*
X2614Y1435D01*
X2640Y1435D02*
X2668Y1435D01*
X2585Y1434D02*
X2613Y1434D01*
X2641Y1434D02*
X2668Y1434D01*
X2585Y1433D02*
X2613Y1433D01*
X2641Y1433D02*
X2668Y1433D01*
X2585Y1432D02*
X2612Y1432D01*
X2642Y1432D02*
X2668Y1432D01*
X2585Y1431D02*
X2612Y1431D01*
X2642Y1431D02*
X2668Y1431D01*
X2585Y1430D02*
X2612Y1430D01*
X2642Y1430D02*
X2668Y1430D01*
X2585Y1429D02*
X2612Y1429D01*
X2642Y1429D02*
X2668Y1429D01*
X2585Y1428D02*
X2611Y1428D01*
X2642Y1428D02*
X2668Y1428D01*
X2585Y1427D02*
X2611Y1427D01*
X2642Y1427D02*
X2668Y1427D01*
X2585Y1426D02*
X2611Y1426D01*
X2642Y1426D02*
X2668Y1426D01*
X2585Y1425D02*
X2612Y1425D01*
X2642Y1425D02*
X2668Y1425D01*
X2585Y1424D02*
X2612Y1424D01*
X2642Y1424D02*
X2668Y1424D01*
X2585Y1423D02*
X2612Y1423D01*
X2642Y1423D02*
X2668Y1423D01*
X2585Y1422D02*
X2612Y1422D01*
X2642Y1422D02*
X2668Y1422D01*
X2585Y1421D02*
X2612Y1421D01*
X2642Y1421D02*
X2668Y1421D01*
X2585Y1420D02*
X2613Y1420D01*
X2641Y1420D02*
X2668Y1420D01*
X2585Y1419D02*
X2613Y1419D01*
X2641Y1419D02*
X2668Y1419D01*
X2585Y1418D02*
X2614Y1418D01*
X2640Y1418D02*
X2668Y1418D01*
X2585Y1417D02*
X2615Y1417D01*
X2639Y1417D02*
X2668Y1417D01*
X2585Y1416D02*
X2615Y1416D01*
X2638Y1416D02*
X2668Y1416D01*
X2585Y1415D02*
X2616Y1415D01*
X2637Y1415D02*
X2668Y1415D01*
X2585Y1414D02*
X2618Y1414D01*
X2636Y1414D02*
X2668Y1414D01*
X2585Y1413D02*
X2620Y1413D01*
X2634Y1413D02*
X2668Y1413D01*
X2585Y1412D02*
X2623Y1412D01*
X2631Y1412D02*
X2668Y1412D01*
X2585Y1411D02*
X2668Y1411D01*
X2585Y1410D02*
X2668Y1410D01*
X2585Y1409D02*
X2668Y1409D01*
X2585Y1408D02*
X2668Y1408D01*
X2585Y1407D02*
X2668Y1407D01*
X2585Y1406D02*
X2668Y1406D01*
X2585Y1405D02*
X2668Y1405D01*
X2585Y1404D02*
X2668Y1404D01*
X2585Y1403D02*
X2668Y1403D01*
X2585Y1402D02*
X2668Y1402D01*
X2585Y1401D02*
X2668Y1401D01*
X2585Y1400D02*
X2668Y1400D01*
X2585Y1399D02*
X2668Y1399D01*
X2585Y1398D02*
X2668Y1398D01*
X2585Y1397D02*
X2668Y1397D01*
X2585Y1396D02*
X2668Y1396D01*
X2585Y1395D02*
X2668Y1395D01*
X2585Y1394D02*
X2668Y1394D01*
X2585Y1393D02*
X2668Y1393D01*
X2585Y1392D02*
X2668Y1392D01*
X2585Y1391D02*
X2668Y1391D01*
X2585Y1390D02*
X2668Y1390D01*
X2585Y1389D02*
X2668Y1389D01*
X2585Y1388D02*
X2668Y1388D01*
X2585Y1387D02*
X2668Y1387D01*
X2585Y1386D02*
X2668Y1386D01*
X2586Y1385D02*
X2668Y1385D01*
D02*
G04 End of Mask0*
M02*