M48
INCH
T10C0.040000
T11C0.035000
T12C0.015748
T13C0.042000
T14C0.031555
T15C0.031496
T16C0.038000
%
T10
X026277Y012259
X026277Y013259
X026277Y014259
T11
X023277Y014759
X023277Y011759
X022277Y014759
X022277Y011759
X021277Y014759
X021277Y011759
X020277Y014759
X020277Y011759
X019277Y014759
X019277Y011759
X018277Y014759
X018277Y011759
X017277Y014759
X017277Y011759
X016277Y014759
X016277Y011759
X008277Y003759
X002277Y003759
X008277Y004759
X002277Y004759
X008277Y005759
X002277Y005759
X008277Y006759
X002277Y006759
X008277Y007759
X002277Y007759
X008277Y008759
X002277Y008759
X008277Y009759
X002277Y009759
X008277Y010759
X002277Y010759
X008277Y011759
X002277Y011759
X008277Y012759
X002277Y012759
X008277Y013759
X002277Y013759
X008277Y014759
X002277Y014759
X013777Y001759
X010777Y001759
X013777Y002759
X010777Y002759
X013777Y003759
X010777Y003759
X013777Y004759
X010777Y004759
X013777Y005759
X010777Y005759
X013777Y006759
X010777Y006759
X013777Y007759
X010777Y007759
X013777Y008759
X010777Y008759
X013777Y009759
X010777Y009759
X013777Y010759
X010777Y010759
X013777Y011759
X010777Y011759
X013777Y012759
X010777Y012759
X013777Y013759
X010777Y013759
X013777Y014759
X010777Y014759
X016277Y000759
X016277Y003759
X017277Y000759
X017277Y003759
X018277Y000759
X018277Y003759
X019277Y000759
X019277Y003759
X020277Y000759
X020277Y003759
X021277Y000759
X021277Y003759
X022277Y000759
X022277Y003759
X023277Y000759
X023277Y003759
X024277Y000759
X024277Y003759
X025277Y000759
X025277Y003759
X026277Y000759
X026277Y003759
X027277Y000759
X027277Y003759
X025777Y008759
X026777Y008759
T12
X014777Y007759
X020277Y005759
X016270Y001750
X015259Y002770
T13
X001777Y001759
X002777Y001759
X003777Y001759
T14
X006346Y001759
T15
X008277Y001759
T16
X007277Y015259
T00
M30
