G04 MADE WITH FRITZING*
G04 WWW.FRITZING.ORG*
G04 DOUBLE SIDED*
G04 HOLES PLATED*
G04 CONTOUR ON CENTER OF CONTOUR VECTOR*
%ASAXBY*%
%FSLAX23Y23*%
%MOIN*%
%OFA0B0*%
%SFA1.0B1.0*%
%ADD10R,2.509690X1.258780X2.493690X1.242780*%
%ADD11C,0.008000*%
%ADD12R,0.001000X0.001000*%
%LNSILK0*%
G90*
G70*
G54D11*
X4Y1255D02*
X2506Y1255D01*
X2506Y4D01*
X4Y4D01*
X4Y1255D01*
D02*
G36*
X2054Y956D02*
X2054Y940D01*
X1991Y940D01*
X1991Y893D01*
X1975Y893D01*
X1975Y956D01*
X2054Y956D01*
G37*
D02*
G36*
X2054Y940D02*
X2054Y893D01*
X2038Y893D01*
X2038Y940D01*
X2054Y940D01*
G37*
D02*
G36*
X2054Y893D02*
X2054Y889D01*
X1975Y889D01*
X1975Y893D01*
X2054Y893D01*
G37*
D02*
G36*
X2054Y893D02*
X2054Y889D01*
X1975Y889D01*
X1975Y893D01*
X2054Y893D01*
G37*
D02*
G36*
X2054Y889D02*
X2054Y877D01*
X1975Y877D01*
X1975Y889D01*
X2054Y889D01*
G37*
D02*
G36*
X1833Y956D02*
X1833Y940D01*
X1818Y940D01*
X1818Y956D01*
X1833Y956D01*
G37*
D02*
G36*
X1802Y956D02*
X1802Y940D01*
X1786Y940D01*
X1786Y956D01*
X1802Y956D01*
G37*
D02*
G36*
X1881Y940D02*
X1881Y936D01*
X1786Y936D01*
X1786Y940D01*
X1881Y940D01*
G37*
D02*
G36*
X1881Y940D02*
X1881Y936D01*
X1786Y936D01*
X1786Y940D01*
X1881Y940D01*
G37*
D02*
G36*
X1881Y936D02*
X1881Y924D01*
X1849Y924D01*
X1849Y909D01*
X1833Y909D01*
X1833Y924D01*
X1786Y924D01*
X1786Y936D01*
X1881Y936D01*
G37*
D02*
G36*
X1896Y924D02*
X1896Y909D01*
X1865Y909D01*
X1865Y924D01*
X1896Y924D01*
G37*
D02*
G36*
X1865Y909D02*
X1865Y893D01*
X1896Y893D01*
X1896Y877D01*
X1865Y877D01*
X1865Y861D01*
X1849Y861D01*
X1849Y893D01*
X1818Y893D01*
X1818Y909D01*
X1865Y909D01*
G37*
D02*
G36*
X1896Y877D02*
X1896Y861D01*
X1881Y861D01*
X1881Y877D01*
X1896Y877D01*
G37*
D02*
G36*
X1896Y861D02*
X1896Y830D01*
X1881Y830D01*
X1881Y846D01*
X1865Y846D01*
X1865Y861D01*
X1896Y861D01*
G37*
D02*
G36*
X1707Y956D02*
X1707Y940D01*
X1644Y940D01*
X1644Y893D01*
X1629Y893D01*
X1629Y956D01*
X1707Y956D01*
G37*
D02*
G36*
X1707Y940D02*
X1707Y893D01*
X1692Y893D01*
X1692Y940D01*
X1707Y940D01*
G37*
D02*
G36*
X1707Y893D02*
X1707Y889D01*
X1629Y889D01*
X1629Y893D01*
X1707Y893D01*
G37*
D02*
G36*
X1707Y893D02*
X1707Y889D01*
X1629Y889D01*
X1629Y893D01*
X1707Y893D01*
G37*
D02*
G36*
X1707Y889D02*
X1707Y877D01*
X1629Y877D01*
X1629Y889D01*
X1707Y889D01*
G37*
D02*
G36*
X1928Y909D02*
X1928Y893D01*
X1896Y893D01*
X1896Y909D01*
X1928Y909D01*
G37*
D02*
G36*
X1802Y909D02*
X1802Y893D01*
X1770Y893D01*
X1770Y909D01*
X1802Y909D01*
G37*
D02*
G36*
X1818Y893D02*
X1818Y877D01*
X1802Y877D01*
X1802Y893D01*
X1818Y893D01*
G37*
D02*
G36*
X1928Y877D02*
X1928Y861D01*
X1912Y861D01*
X1912Y877D01*
X1928Y877D01*
G37*
D02*
G36*
X1770Y877D02*
X1770Y861D01*
X1755Y861D01*
X1755Y877D01*
X1770Y877D01*
G37*
D02*
G36*
X1928Y846D02*
X1928Y830D01*
X1912Y830D01*
X1912Y846D01*
X1928Y846D01*
G37*
D02*
G36*
X1676Y814D02*
X1676Y798D01*
X1660Y798D01*
X1660Y814D01*
X1676Y814D01*
G37*
D02*
G36*
X1833Y877D02*
X1833Y861D01*
X1818Y861D01*
X1818Y877D01*
X1833Y877D01*
G37*
D02*
G36*
X1802Y877D02*
X1802Y861D01*
X1786Y861D01*
X1786Y877D01*
X1802Y877D01*
G37*
D02*
G36*
X1833Y861D02*
X1833Y857D01*
X1770Y857D01*
X1770Y861D01*
X1833Y861D01*
G37*
D02*
G36*
X1833Y861D02*
X1833Y857D01*
X1770Y857D01*
X1770Y861D01*
X1833Y861D01*
G37*
D02*
G36*
X1833Y857D02*
X1833Y846D01*
X1865Y846D01*
X1865Y830D01*
X1818Y830D01*
X1818Y814D01*
X1786Y814D01*
X1786Y846D01*
X1770Y846D01*
X1770Y857D01*
X1833Y857D01*
G37*
D02*
G36*
X1975Y830D02*
X1975Y814D01*
X1928Y814D01*
X1928Y830D01*
X1975Y830D01*
G37*
D02*
G36*
X1912Y830D02*
X1912Y814D01*
X1896Y814D01*
X1896Y830D01*
X1912Y830D01*
G37*
D02*
G36*
X1881Y830D02*
X1881Y814D01*
X1849Y814D01*
X1849Y830D01*
X1881Y830D01*
G37*
D02*
G36*
X1959Y814D02*
X1959Y810D01*
X1833Y810D01*
X1833Y814D01*
X1959Y814D01*
G37*
D02*
G36*
X1959Y814D02*
X1959Y810D01*
X1833Y810D01*
X1833Y814D01*
X1959Y814D01*
G37*
D02*
G36*
X1959Y814D02*
X1959Y810D01*
X1833Y810D01*
X1833Y814D01*
X1959Y814D01*
G37*
D02*
G36*
X1959Y810D02*
X1959Y798D01*
X1865Y798D01*
X1865Y767D01*
X1849Y767D01*
X1849Y798D01*
X1833Y798D01*
X1833Y810D01*
X1959Y810D01*
G37*
D02*
G36*
X2007Y798D02*
X2007Y783D01*
X1991Y783D01*
X1991Y798D01*
X2007Y798D01*
G37*
D02*
G36*
X1975Y798D02*
X1975Y783D01*
X1944Y783D01*
X1944Y798D01*
X1975Y798D01*
G37*
D02*
G36*
X1928Y798D02*
X1928Y783D01*
X1912Y783D01*
X1912Y798D01*
X1928Y798D01*
G37*
D02*
G36*
X1896Y798D02*
X1896Y767D01*
X1881Y767D01*
X1881Y798D01*
X1896Y798D01*
G37*
D02*
G36*
X2022Y783D02*
X2022Y767D01*
X1975Y767D01*
X1975Y783D01*
X2022Y783D01*
G37*
D02*
G36*
X1959Y783D02*
X1959Y767D01*
X1928Y767D01*
X1928Y783D01*
X1959Y783D01*
G37*
D02*
G36*
X2007Y767D02*
X2007Y763D01*
X1944Y763D01*
X1944Y767D01*
X2007Y767D01*
G37*
D02*
G36*
X2007Y767D02*
X2007Y763D01*
X1944Y763D01*
X1944Y767D01*
X2007Y767D01*
G37*
D02*
G36*
X1928Y767D02*
X1928Y751D01*
X1912Y751D01*
X1912Y720D01*
X1896Y720D01*
X1896Y751D01*
X1881Y751D01*
X1881Y767D01*
X1928Y767D01*
G37*
D02*
G36*
X2007Y763D02*
X2007Y751D01*
X1991Y751D01*
X1991Y735D01*
X1975Y735D01*
X1975Y751D01*
X1944Y751D01*
X1944Y763D01*
X2007Y763D01*
G37*
D02*
G36*
X1833Y798D02*
X1833Y783D01*
X1818Y783D01*
X1818Y751D01*
X1802Y751D01*
X1802Y783D01*
X1786Y783D01*
X1786Y798D01*
X1833Y798D01*
G37*
D02*
G36*
X1770Y798D02*
X1770Y783D01*
X1755Y783D01*
X1755Y798D01*
X1770Y798D01*
G37*
D02*
G36*
X1660Y798D02*
X1660Y783D01*
X1629Y783D01*
X1629Y798D01*
X1660Y798D01*
G37*
D02*
G36*
X1786Y783D02*
X1786Y767D01*
X1770Y767D01*
X1770Y783D01*
X1786Y783D01*
G37*
D02*
G36*
X1755Y783D02*
X1755Y751D01*
X1723Y751D01*
X1723Y767D01*
X1739Y767D01*
X1739Y783D01*
X1755Y783D01*
G37*
D02*
G36*
X1692Y783D02*
X1692Y751D01*
X1676Y751D01*
X1676Y767D01*
X1660Y767D01*
X1660Y783D01*
X1692Y783D01*
G37*
D02*
G36*
X2054Y767D02*
X2054Y751D01*
X2038Y751D01*
X2038Y767D01*
X2054Y767D01*
G37*
D02*
G36*
X1644Y767D02*
X1644Y751D01*
X1629Y751D01*
X1629Y767D01*
X1644Y767D01*
G37*
D02*
G36*
X2038Y751D02*
X2038Y735D01*
X2007Y735D01*
X2007Y751D01*
X2038Y751D01*
G37*
D02*
G36*
X1944Y751D02*
X1944Y735D01*
X1928Y735D01*
X1928Y751D01*
X1944Y751D01*
G37*
D02*
G36*
X1802Y751D02*
X1802Y735D01*
X1818Y735D01*
X1818Y720D01*
X1802Y720D01*
X1802Y704D01*
X1755Y704D01*
X1755Y720D01*
X1770Y720D01*
X1770Y751D01*
X1802Y751D01*
G37*
D02*
G36*
X1660Y751D02*
X1660Y704D01*
X1644Y704D01*
X1644Y720D01*
X1629Y720D01*
X1629Y735D01*
X1644Y735D01*
X1644Y751D01*
X1660Y751D01*
G37*
D02*
G36*
X2054Y735D02*
X2054Y720D01*
X2038Y720D01*
X2038Y735D01*
X2054Y735D01*
G37*
D02*
G36*
X2007Y735D02*
X2007Y720D01*
X2038Y720D01*
X2038Y704D01*
X1975Y704D01*
X1975Y720D01*
X1991Y720D01*
X1991Y735D01*
X2007Y735D01*
G37*
D02*
G36*
X1975Y735D02*
X1975Y720D01*
X1944Y720D01*
X1944Y735D01*
X1975Y735D01*
G37*
D02*
G36*
X1849Y767D02*
X1849Y751D01*
X1865Y751D01*
X1865Y735D01*
X1849Y735D01*
X1849Y720D01*
X1833Y720D01*
X1833Y767D01*
X1849Y767D01*
G37*
D02*
G36*
X1881Y735D02*
X1881Y720D01*
X1865Y720D01*
X1865Y735D01*
X1881Y735D01*
G37*
D02*
G36*
X1723Y735D02*
X1723Y704D01*
X1755Y704D01*
X1755Y688D01*
X1770Y688D01*
X1770Y672D01*
X1723Y672D01*
X1723Y688D01*
X1707Y688D01*
X1707Y720D01*
X1692Y720D01*
X1692Y735D01*
X1723Y735D01*
G37*
D02*
G36*
X1881Y720D02*
X1881Y716D01*
X1818Y716D01*
X1818Y720D01*
X1881Y720D01*
G37*
D02*
G36*
X1881Y720D02*
X1881Y716D01*
X1818Y716D01*
X1818Y720D01*
X1881Y720D01*
G37*
D02*
G36*
X1881Y716D02*
X1881Y704D01*
X1849Y704D01*
X1849Y688D01*
X1802Y688D01*
X1802Y672D01*
X1786Y672D01*
X1786Y688D01*
X1802Y688D01*
X1802Y704D01*
X1818Y704D01*
X1818Y716D01*
X1881Y716D01*
G37*
D02*
G36*
X1881Y704D02*
X1881Y688D01*
X1865Y688D01*
X1865Y704D01*
X1881Y704D01*
G37*
D02*
G36*
X1849Y688D02*
X1849Y672D01*
X1865Y672D01*
X1865Y657D01*
X1896Y657D01*
X1896Y641D01*
X1849Y641D01*
X1849Y657D01*
X1833Y657D01*
X1833Y672D01*
X1818Y672D01*
X1818Y688D01*
X1849Y688D01*
G37*
D02*
G36*
X1802Y672D02*
X1802Y668D01*
X1739Y668D01*
X1739Y672D01*
X1802Y672D01*
G37*
D02*
G36*
X1802Y672D02*
X1802Y668D01*
X1739Y668D01*
X1739Y672D01*
X1802Y672D01*
G37*
D02*
G36*
X1802Y668D02*
X1802Y657D01*
X1739Y657D01*
X1739Y668D01*
X1802Y668D01*
G37*
D02*
G36*
X1833Y657D02*
X1833Y641D01*
X1770Y641D01*
X1770Y657D01*
X1833Y657D01*
G37*
D02*
G36*
X1881Y641D02*
X1881Y637D01*
X1802Y637D01*
X1802Y641D01*
X1881Y641D01*
G37*
D02*
G36*
X1881Y641D02*
X1881Y637D01*
X1802Y637D01*
X1802Y641D01*
X1881Y641D01*
G37*
D02*
G36*
X1881Y637D02*
X1881Y625D01*
X1818Y625D01*
X1818Y609D01*
X1802Y609D01*
X1802Y637D01*
X1881Y637D01*
G37*
D02*
G36*
X1865Y625D02*
X1865Y609D01*
X1849Y609D01*
X1849Y625D01*
X1865Y625D01*
G37*
D02*
G36*
X1944Y720D02*
X1944Y704D01*
X1912Y704D01*
X1912Y720D01*
X1944Y720D01*
G37*
D02*
G36*
X1975Y704D02*
X1975Y688D01*
X1959Y688D01*
X1959Y704D01*
X1975Y704D01*
G37*
D02*
G36*
X1692Y704D02*
X1692Y672D01*
X1676Y672D01*
X1676Y688D01*
X1660Y688D01*
X1660Y704D01*
X1692Y704D01*
G37*
D02*
G36*
X2022Y688D02*
X2022Y672D01*
X2007Y672D01*
X2007Y688D01*
X2022Y688D01*
G37*
D02*
G36*
X1928Y688D02*
X1928Y672D01*
X1912Y672D01*
X1912Y688D01*
X1928Y688D01*
G37*
D02*
G36*
X1896Y688D02*
X1896Y672D01*
X1881Y672D01*
X1881Y688D01*
X1896Y688D01*
G37*
D02*
G36*
X1944Y672D02*
X1944Y657D01*
X1928Y657D01*
X1928Y672D01*
X1944Y672D01*
G37*
D02*
G36*
X1912Y672D02*
X1912Y657D01*
X1896Y657D01*
X1896Y672D01*
X1912Y672D01*
G37*
D02*
G36*
X1707Y672D02*
X1707Y657D01*
X1692Y657D01*
X1692Y672D01*
X1707Y672D01*
G37*
D02*
G36*
X1928Y657D02*
X1928Y641D01*
X1912Y641D01*
X1912Y657D01*
X1928Y657D01*
G37*
D02*
G36*
X1676Y657D02*
X1676Y641D01*
X1660Y641D01*
X1660Y657D01*
X1676Y657D01*
G37*
D02*
G36*
X1770Y641D02*
X1770Y625D01*
X1755Y625D01*
X1755Y641D01*
X1770Y641D01*
G37*
D02*
G36*
X1739Y641D02*
X1739Y625D01*
X1707Y625D01*
X1707Y609D01*
X1692Y609D01*
X1692Y641D01*
X1739Y641D01*
G37*
D02*
G36*
X1739Y625D02*
X1739Y609D01*
X1723Y609D01*
X1723Y625D01*
X1739Y625D01*
G37*
D02*
G36*
X1739Y609D02*
X1739Y605D01*
X1692Y605D01*
X1692Y609D01*
X1739Y609D01*
G37*
D02*
G36*
X1739Y609D02*
X1739Y605D01*
X1692Y605D01*
X1692Y609D01*
X1739Y609D01*
G37*
D02*
G36*
X1739Y605D02*
X1739Y594D01*
X1692Y594D01*
X1692Y605D01*
X1739Y605D01*
G37*
D02*
G36*
X1660Y641D02*
X1660Y625D01*
X1644Y625D01*
X1644Y641D01*
X1660Y641D01*
G37*
D02*
G36*
X1928Y625D02*
X1928Y609D01*
X1912Y609D01*
X1912Y594D01*
X1896Y594D01*
X1896Y609D01*
X1881Y609D01*
X1881Y625D01*
X1928Y625D01*
G37*
D02*
G36*
X2137Y1038D02*
X2137Y972D01*
X1613Y972D01*
X1613Y861D01*
X1546Y861D01*
X1546Y1038D01*
X2137Y1038D01*
G37*
D02*
G36*
X2137Y972D02*
X2137Y861D01*
X2070Y861D01*
X2070Y972D01*
X2137Y972D01*
G37*
D02*
G36*
X1959Y972D02*
X1959Y861D01*
X1944Y861D01*
X1944Y877D01*
X1928Y877D01*
X1928Y893D01*
X1944Y893D01*
X1944Y909D01*
X1928Y909D01*
X1928Y924D01*
X1896Y924D01*
X1896Y940D01*
X1912Y940D01*
X1912Y972D01*
X1959Y972D01*
G37*
D02*
G36*
X1786Y972D02*
X1786Y956D01*
X1770Y956D01*
X1770Y940D01*
X1755Y940D01*
X1755Y924D01*
X1770Y924D01*
X1770Y909D01*
X1755Y909D01*
X1755Y893D01*
X1739Y893D01*
X1739Y861D01*
X1723Y861D01*
X1723Y972D01*
X1786Y972D01*
G37*
D02*
G36*
X2137Y861D02*
X2137Y857D01*
X1944Y857D01*
X1944Y861D01*
X2137Y861D01*
G37*
D02*
G36*
X2137Y861D02*
X2137Y857D01*
X1944Y857D01*
X1944Y861D01*
X2137Y861D01*
G37*
D02*
G36*
X1755Y861D02*
X1755Y857D01*
X1546Y857D01*
X1546Y861D01*
X1755Y861D01*
G37*
D02*
G36*
X1755Y861D02*
X1755Y857D01*
X1546Y857D01*
X1546Y861D01*
X1755Y861D01*
G37*
D02*
G36*
X2137Y857D02*
X2137Y846D01*
X2007Y846D01*
X2007Y830D01*
X2022Y830D01*
X2022Y814D01*
X1991Y814D01*
X1991Y830D01*
X1975Y830D01*
X1975Y846D01*
X1944Y846D01*
X1944Y857D01*
X2137Y857D01*
G37*
D02*
G36*
X1755Y857D02*
X1755Y846D01*
X1676Y846D01*
X1676Y830D01*
X1613Y830D01*
X1613Y814D01*
X1546Y814D01*
X1546Y857D01*
X1755Y857D01*
G37*
D02*
G36*
X2137Y846D02*
X2137Y830D01*
X2054Y830D01*
X2054Y814D01*
X2038Y814D01*
X2038Y846D01*
X2137Y846D01*
G37*
D02*
G36*
X1770Y846D02*
X1770Y830D01*
X1739Y830D01*
X1739Y798D01*
X1723Y798D01*
X1723Y830D01*
X1739Y830D01*
X1739Y846D01*
X1770Y846D01*
G37*
D02*
G36*
X1707Y846D02*
X1707Y798D01*
X1692Y798D01*
X1692Y846D01*
X1707Y846D01*
G37*
D02*
G36*
X2137Y830D02*
X2137Y814D01*
X2070Y814D01*
X2070Y830D01*
X2137Y830D01*
G37*
D02*
G36*
X1770Y830D02*
X1770Y814D01*
X1755Y814D01*
X1755Y830D01*
X1770Y830D01*
G37*
D02*
G36*
X1644Y830D02*
X1644Y814D01*
X1629Y814D01*
X1629Y830D01*
X1644Y830D01*
G37*
D02*
G36*
X2137Y814D02*
X2137Y810D01*
X2007Y810D01*
X2007Y814D01*
X2137Y814D01*
G37*
D02*
G36*
X2137Y814D02*
X2137Y810D01*
X2007Y810D01*
X2007Y814D01*
X2137Y814D01*
G37*
D02*
G36*
X2137Y814D02*
X2137Y810D01*
X2007Y810D01*
X2007Y814D01*
X2137Y814D01*
G37*
D02*
G36*
X1629Y814D02*
X1629Y798D01*
X1613Y798D01*
X1613Y720D01*
X1629Y720D01*
X1629Y704D01*
X1644Y704D01*
X1644Y672D01*
X1629Y672D01*
X1629Y657D01*
X1613Y657D01*
X1613Y625D01*
X1629Y625D01*
X1629Y609D01*
X1546Y609D01*
X1546Y814D01*
X1629Y814D01*
G37*
D02*
G36*
X2137Y810D02*
X2137Y798D01*
X2054Y798D01*
X2054Y783D01*
X2022Y783D01*
X2022Y798D01*
X2007Y798D01*
X2007Y810D01*
X2137Y810D01*
G37*
D02*
G36*
X2137Y798D02*
X2137Y688D01*
X2054Y688D01*
X2054Y672D01*
X2038Y672D01*
X2038Y704D01*
X2054Y704D01*
X2054Y720D01*
X2070Y720D01*
X2070Y798D01*
X2137Y798D01*
G37*
D02*
G36*
X1739Y798D02*
X1739Y794D01*
X1692Y794D01*
X1692Y798D01*
X1739Y798D01*
G37*
D02*
G36*
X1739Y798D02*
X1739Y794D01*
X1692Y794D01*
X1692Y798D01*
X1739Y798D01*
G37*
D02*
G36*
X1739Y794D02*
X1739Y783D01*
X1723Y783D01*
X1723Y767D01*
X1707Y767D01*
X1707Y783D01*
X1692Y783D01*
X1692Y794D01*
X1739Y794D01*
G37*
D02*
G36*
X2137Y688D02*
X2137Y672D01*
X2070Y672D01*
X2070Y688D01*
X2137Y688D01*
G37*
D02*
G36*
X1991Y688D02*
X1991Y672D01*
X2007Y672D01*
X2007Y657D01*
X1959Y657D01*
X1959Y641D01*
X1944Y641D01*
X1944Y657D01*
X1959Y657D01*
X1959Y672D01*
X1975Y672D01*
X1975Y688D01*
X1991Y688D01*
G37*
D02*
G36*
X2137Y672D02*
X2137Y668D01*
X2022Y668D01*
X2022Y672D01*
X2137Y672D01*
G37*
D02*
G36*
X2137Y672D02*
X2137Y668D01*
X2022Y668D01*
X2022Y672D01*
X2137Y672D01*
G37*
D02*
G36*
X2137Y668D02*
X2137Y641D01*
X2054Y641D01*
X2054Y657D01*
X2022Y657D01*
X2022Y668D01*
X2137Y668D01*
G37*
D02*
G36*
X2038Y657D02*
X2038Y641D01*
X2007Y641D01*
X2007Y657D01*
X2038Y657D01*
G37*
D02*
G36*
X1991Y657D02*
X1991Y641D01*
X1975Y641D01*
X1975Y657D01*
X1991Y657D01*
G37*
D02*
G36*
X2137Y641D02*
X2137Y637D01*
X1944Y637D01*
X1944Y641D01*
X2137Y641D01*
G37*
D02*
G36*
X2137Y641D02*
X2137Y637D01*
X1944Y637D01*
X1944Y641D01*
X2137Y641D01*
G37*
D02*
G36*
X2137Y641D02*
X2137Y637D01*
X1944Y637D01*
X1944Y641D01*
X2137Y641D01*
G37*
D02*
G36*
X2137Y641D02*
X2137Y637D01*
X1944Y637D01*
X1944Y641D01*
X2137Y641D01*
G37*
D02*
G36*
X2137Y637D02*
X2137Y625D01*
X1959Y625D01*
X1959Y546D01*
X1944Y546D01*
X1944Y578D01*
X1928Y578D01*
X1928Y609D01*
X1944Y609D01*
X1944Y637D01*
X2137Y637D01*
G37*
D02*
G36*
X2137Y625D02*
X2137Y515D01*
X2070Y515D01*
X2070Y625D01*
X2137Y625D01*
G37*
D02*
G36*
X1676Y625D02*
X1676Y609D01*
X1660Y609D01*
X1660Y625D01*
X1676Y625D01*
G37*
D02*
G36*
X1676Y609D02*
X1676Y605D01*
X1546Y605D01*
X1546Y609D01*
X1676Y609D01*
G37*
D02*
G36*
X1676Y609D02*
X1676Y605D01*
X1546Y605D01*
X1546Y609D01*
X1676Y609D01*
G37*
D02*
G36*
X1676Y605D02*
X1676Y594D01*
X1613Y594D01*
X1613Y578D01*
X1546Y578D01*
X1546Y605D01*
X1676Y605D01*
G37*
D02*
G36*
X1644Y594D02*
X1644Y578D01*
X1629Y578D01*
X1629Y594D01*
X1644Y594D01*
G37*
D02*
G36*
X1881Y578D02*
X1881Y562D01*
X1896Y562D01*
X1896Y546D01*
X1865Y546D01*
X1865Y578D01*
X1881Y578D01*
G37*
D02*
G36*
X1755Y578D02*
X1755Y562D01*
X1739Y562D01*
X1739Y546D01*
X1755Y546D01*
X1755Y531D01*
X1739Y531D01*
X1739Y515D01*
X1723Y515D01*
X1723Y546D01*
X1707Y546D01*
X1707Y562D01*
X1692Y562D01*
X1692Y578D01*
X1755Y578D01*
G37*
D02*
G36*
X1629Y578D02*
X1629Y562D01*
X1613Y562D01*
X1613Y546D01*
X1629Y546D01*
X1629Y515D01*
X1546Y515D01*
X1546Y578D01*
X1629Y578D01*
G37*
D02*
G36*
X1959Y546D02*
X1959Y542D01*
X1881Y542D01*
X1881Y546D01*
X1959Y546D01*
G37*
D02*
G36*
X1959Y546D02*
X1959Y542D01*
X1881Y542D01*
X1881Y546D01*
X1959Y546D01*
G37*
D02*
G36*
X1849Y546D02*
X1849Y531D01*
X1865Y531D01*
X1865Y515D01*
X1818Y515D01*
X1818Y531D01*
X1833Y531D01*
X1833Y546D01*
X1849Y546D01*
G37*
D02*
G36*
X1786Y546D02*
X1786Y531D01*
X1802Y531D01*
X1802Y515D01*
X1770Y515D01*
X1770Y546D01*
X1786Y546D01*
G37*
D02*
G36*
X1959Y542D02*
X1959Y515D01*
X1881Y515D01*
X1881Y542D01*
X1959Y542D01*
G37*
D02*
G36*
X1692Y531D02*
X1692Y515D01*
X1660Y515D01*
X1660Y531D01*
X1692Y531D01*
G37*
D02*
G36*
X2137Y515D02*
X2137Y511D01*
X1546Y511D01*
X1546Y515D01*
X2137Y515D01*
G37*
D02*
G36*
X2137Y515D02*
X2137Y511D01*
X1546Y511D01*
X1546Y515D01*
X2137Y515D01*
G37*
D02*
G36*
X2137Y515D02*
X2137Y511D01*
X1546Y511D01*
X1546Y515D01*
X2137Y515D01*
G37*
D02*
G36*
X2137Y515D02*
X2137Y511D01*
X1546Y511D01*
X1546Y515D01*
X2137Y515D01*
G37*
D02*
G36*
X2137Y515D02*
X2137Y511D01*
X1546Y511D01*
X1546Y515D01*
X2137Y515D01*
G37*
D02*
G36*
X2137Y515D02*
X2137Y511D01*
X1546Y511D01*
X1546Y515D01*
X2137Y515D01*
G37*
D02*
G36*
X2137Y515D02*
X2137Y511D01*
X1546Y511D01*
X1546Y515D01*
X2137Y515D01*
G37*
D02*
G36*
X2137Y511D02*
X2137Y448D01*
X1546Y448D01*
X1546Y511D01*
X2137Y511D01*
G37*
D02*
G36*
X2054Y609D02*
X2054Y594D01*
X1991Y594D01*
X1991Y546D01*
X1975Y546D01*
X1975Y609D01*
X2054Y609D01*
G37*
D02*
G36*
X2054Y594D02*
X2054Y546D01*
X2038Y546D01*
X2038Y594D01*
X2054Y594D01*
G37*
D02*
G36*
X2054Y546D02*
X2054Y542D01*
X1975Y542D01*
X1975Y546D01*
X2054Y546D01*
G37*
D02*
G36*
X2054Y546D02*
X2054Y542D01*
X1975Y542D01*
X1975Y546D01*
X2054Y546D01*
G37*
D02*
G36*
X2054Y542D02*
X2054Y531D01*
X1975Y531D01*
X1975Y542D01*
X2054Y542D01*
G37*
D02*
G36*
X1833Y609D02*
X1833Y594D01*
X1849Y594D01*
X1849Y578D01*
X1833Y578D01*
X1833Y562D01*
X1818Y562D01*
X1818Y578D01*
X1802Y578D01*
X1802Y594D01*
X1818Y594D01*
X1818Y609D01*
X1833Y609D01*
G37*
D02*
G36*
X1786Y609D02*
X1786Y578D01*
X1755Y578D01*
X1755Y609D01*
X1786Y609D01*
G37*
D02*
G36*
X1896Y594D02*
X1896Y578D01*
X1881Y578D01*
X1881Y594D01*
X1896Y594D01*
G37*
D02*
G36*
X1928Y578D02*
X1928Y562D01*
X1896Y562D01*
X1896Y578D01*
X1928Y578D01*
G37*
D02*
G36*
X1818Y562D02*
X1818Y546D01*
X1802Y546D01*
X1802Y562D01*
X1818Y562D01*
G37*
D02*
G36*
X1770Y562D02*
X1770Y546D01*
X1755Y546D01*
X1755Y562D01*
X1770Y562D01*
G37*
D02*
G36*
X1692Y562D02*
X1692Y546D01*
X1676Y546D01*
X1676Y562D01*
X1692Y562D01*
G37*
D02*
G36*
X1660Y562D02*
X1660Y531D01*
X1644Y531D01*
X1644Y546D01*
X1629Y546D01*
X1629Y562D01*
X1660Y562D01*
G37*
D02*
G36*
X1707Y546D02*
X1707Y531D01*
X1692Y531D01*
X1692Y546D01*
X1707Y546D01*
G37*
D02*
G54D12*
D02*
G04 End of Silk0*
M02*