G04 MADE WITH FRITZING*
G04 WWW.FRITZING.ORG*
G04 DOUBLE SIDED*
G04 HOLES PLATED*
G04 CONTOUR ON CENTER OF CONTOUR VECTOR*
%ASAXBY*%
%FSLAX23Y23*%
%MOIN*%
%OFA0B0*%
%SFA1.0B1.0*%
%ADD10C,0.085000*%
%ADD11C,0.072992*%
%ADD12C,0.088000*%
%ADD13C,0.082892*%
%ADD14C,0.062000*%
%ADD15C,0.084000*%
%ADD16C,0.210000*%
%ADD17C,0.080000*%
%ADD18R,0.072992X0.072992*%
%ADD19R,0.001000X0.001000*%
%LNMASK0*%
G90*
G70*
G54D10*
X1302Y558D03*
X1302Y814D03*
X1479Y558D03*
X1479Y814D03*
G54D11*
X1353Y1108D03*
X1452Y1108D03*
G54D12*
X77Y1183D03*
X177Y1183D03*
X277Y1183D03*
X377Y1183D03*
X477Y1183D03*
X577Y1183D03*
X677Y1183D03*
X777Y1183D03*
X877Y1183D03*
X977Y1183D03*
X1077Y1183D03*
X1177Y1183D03*
X77Y83D03*
X177Y83D03*
X277Y83D03*
X377Y83D03*
X477Y83D03*
X577Y83D03*
X677Y83D03*
X777Y83D03*
X877Y83D03*
X977Y83D03*
X1077Y83D03*
X1177Y83D03*
G54D13*
X77Y333D03*
X477Y833D03*
X177Y333D03*
X277Y333D03*
X377Y333D03*
X477Y333D03*
X977Y933D03*
X877Y933D03*
X777Y933D03*
X577Y333D03*
X1077Y333D03*
X1177Y333D03*
X677Y333D03*
X777Y333D03*
X877Y333D03*
X977Y333D03*
X1177Y833D03*
X1177Y433D03*
X1177Y933D03*
X1077Y933D03*
X477Y433D03*
X177Y933D03*
X277Y933D03*
X377Y933D03*
X477Y933D03*
X577Y933D03*
X677Y933D03*
X1177Y633D03*
X1177Y533D03*
X1177Y733D03*
X77Y933D03*
G54D14*
X2077Y383D03*
X1977Y383D03*
X1877Y383D03*
X1777Y383D03*
X1677Y383D03*
X1577Y383D03*
X1477Y383D03*
X1377Y383D03*
X1377Y83D03*
X1477Y83D03*
X1577Y83D03*
X1677Y83D03*
X1777Y83D03*
X1877Y83D03*
X1977Y83D03*
X2077Y83D03*
G54D15*
X2315Y847D03*
X2315Y738D03*
X2315Y629D03*
X2315Y520D03*
X2315Y411D03*
X2427Y793D03*
X2427Y683D03*
X2427Y575D03*
X2427Y466D03*
G54D16*
X2371Y1121D03*
X2371Y137D03*
G54D17*
X1877Y1083D03*
X1877Y1184D03*
X1977Y1183D03*
X1977Y1083D03*
X1577Y1183D03*
X1577Y1083D03*
X1677Y1183D03*
X1677Y1083D03*
X2077Y1183D03*
X2077Y1083D03*
G54D18*
X1353Y1108D03*
G54D19*
X2272Y890D02*
X2355Y890D01*
X2272Y889D02*
X2355Y889D01*
X2272Y888D02*
X2355Y888D01*
X2272Y887D02*
X2355Y887D01*
X2272Y886D02*
X2355Y886D01*
X2272Y885D02*
X2355Y885D01*
X2272Y884D02*
X2355Y884D01*
X2272Y883D02*
X2355Y883D01*
X2272Y882D02*
X2355Y882D01*
X2272Y881D02*
X2355Y881D01*
X2272Y880D02*
X2355Y880D01*
X2272Y879D02*
X2355Y879D01*
X2272Y878D02*
X2355Y878D01*
X2272Y877D02*
X2355Y877D01*
X2272Y876D02*
X2355Y876D01*
X2272Y875D02*
X2355Y875D01*
X2272Y874D02*
X2355Y874D01*
X2272Y873D02*
X2355Y873D01*
X2272Y872D02*
X2355Y872D01*
X2272Y871D02*
X2355Y871D01*
X2272Y870D02*
X2355Y870D01*
X2272Y869D02*
X2355Y869D01*
X2272Y868D02*
X2355Y868D01*
X2272Y867D02*
X2355Y867D01*
X2272Y866D02*
X2355Y866D01*
X2272Y865D02*
X2355Y865D01*
X2272Y864D02*
X2355Y864D01*
X2272Y863D02*
X2311Y863D01*
X2317Y863D02*
X2355Y863D01*
X2272Y862D02*
X2307Y862D01*
X2320Y862D02*
X2355Y862D01*
X2272Y861D02*
X2305Y861D01*
X2322Y861D02*
X2355Y861D01*
X2272Y860D02*
X2303Y860D01*
X2324Y860D02*
X2355Y860D01*
X2272Y859D02*
X2302Y859D01*
X2325Y859D02*
X2355Y859D01*
X2272Y858D02*
X2301Y858D01*
X2326Y858D02*
X2355Y858D01*
X2272Y857D02*
X2301Y857D01*
X2327Y857D02*
X2355Y857D01*
X2272Y856D02*
X2300Y856D01*
X2327Y856D02*
X2355Y856D01*
X2272Y855D02*
X2300Y855D01*
X2328Y855D02*
X2355Y855D01*
X2272Y854D02*
X2299Y854D01*
X2328Y854D02*
X2355Y854D01*
X2272Y853D02*
X2299Y853D01*
X2328Y853D02*
X2355Y853D01*
X2272Y852D02*
X2299Y852D01*
X2329Y852D02*
X2355Y852D01*
X2272Y851D02*
X2298Y851D01*
X2329Y851D02*
X2355Y851D01*
X2272Y850D02*
X2298Y850D01*
X2329Y850D02*
X2355Y850D01*
X2272Y849D02*
X2298Y849D01*
X2329Y849D02*
X2355Y849D01*
X2272Y848D02*
X2298Y848D01*
X2329Y848D02*
X2355Y848D01*
X2272Y847D02*
X2298Y847D01*
X2329Y847D02*
X2355Y847D01*
X2272Y846D02*
X2298Y846D01*
X2329Y846D02*
X2355Y846D01*
X2272Y845D02*
X2298Y845D01*
X2329Y845D02*
X2355Y845D01*
X2272Y844D02*
X2299Y844D01*
X2329Y844D02*
X2355Y844D01*
X2272Y843D02*
X2299Y843D01*
X2328Y843D02*
X2355Y843D01*
X2272Y842D02*
X2299Y842D01*
X2328Y842D02*
X2355Y842D01*
X2272Y841D02*
X2300Y841D01*
X2327Y841D02*
X2355Y841D01*
X2272Y840D02*
X2300Y840D01*
X2327Y840D02*
X2355Y840D01*
X2272Y839D02*
X2301Y839D01*
X2326Y839D02*
X2355Y839D01*
X2272Y838D02*
X2302Y838D01*
X2325Y838D02*
X2355Y838D01*
X2272Y837D02*
X2303Y837D01*
X2324Y837D02*
X2355Y837D01*
X2272Y836D02*
X2304Y836D01*
X2323Y836D02*
X2355Y836D01*
X2272Y835D02*
X2306Y835D01*
X2322Y835D02*
X2355Y835D01*
X2272Y834D02*
X2308Y834D01*
X2319Y834D02*
X2355Y834D01*
X2272Y833D02*
X2355Y833D01*
X2272Y832D02*
X2355Y832D01*
X2272Y831D02*
X2355Y831D01*
X2272Y830D02*
X2355Y830D01*
X2272Y829D02*
X2355Y829D01*
X2272Y828D02*
X2355Y828D01*
X2272Y827D02*
X2355Y827D01*
X2272Y826D02*
X2355Y826D01*
X2272Y825D02*
X2355Y825D01*
X2272Y824D02*
X2355Y824D01*
X2272Y823D02*
X2355Y823D01*
X2272Y822D02*
X2355Y822D01*
X2272Y821D02*
X2355Y821D01*
X2272Y820D02*
X2355Y820D01*
X2272Y819D02*
X2355Y819D01*
X2272Y818D02*
X2355Y818D01*
X2272Y817D02*
X2355Y817D01*
X2272Y816D02*
X2355Y816D01*
X2272Y815D02*
X2355Y815D01*
X2272Y814D02*
X2355Y814D01*
X2272Y813D02*
X2355Y813D01*
X2272Y812D02*
X2355Y812D01*
X2272Y811D02*
X2355Y811D01*
X2272Y810D02*
X2355Y810D01*
X2272Y809D02*
X2355Y809D01*
X2272Y808D02*
X2355Y808D01*
X2272Y807D02*
X2355Y807D01*
X1370Y441D02*
X1381Y441D01*
X1470Y441D02*
X1481Y441D01*
X1570Y441D02*
X1581Y441D01*
X1670Y441D02*
X1681Y441D01*
X1770Y441D02*
X1781Y441D01*
X1870Y441D02*
X1881Y441D01*
X1970Y441D02*
X1981Y441D01*
X2070Y441D02*
X2081Y441D01*
X1367Y440D02*
X1385Y440D01*
X1467Y440D02*
X1485Y440D01*
X1566Y440D02*
X1585Y440D01*
X1666Y440D02*
X1685Y440D01*
X1766Y440D02*
X1785Y440D01*
X1866Y440D02*
X1885Y440D01*
X1966Y440D02*
X1985Y440D01*
X2066Y440D02*
X2085Y440D01*
X1364Y439D02*
X1387Y439D01*
X1464Y439D02*
X1487Y439D01*
X1564Y439D02*
X1587Y439D01*
X1664Y439D02*
X1687Y439D01*
X1764Y439D02*
X1787Y439D01*
X1864Y439D02*
X1887Y439D01*
X1964Y439D02*
X1987Y439D01*
X2064Y439D02*
X2087Y439D01*
X1362Y438D02*
X1389Y438D01*
X1462Y438D02*
X1489Y438D01*
X1562Y438D02*
X1589Y438D01*
X1662Y438D02*
X1689Y438D01*
X1762Y438D02*
X1789Y438D01*
X1862Y438D02*
X1889Y438D01*
X1962Y438D02*
X1989Y438D01*
X2062Y438D02*
X2089Y438D01*
X1360Y437D02*
X1391Y437D01*
X1460Y437D02*
X1491Y437D01*
X1560Y437D02*
X1591Y437D01*
X1660Y437D02*
X1691Y437D01*
X1760Y437D02*
X1791Y437D01*
X1860Y437D02*
X1891Y437D01*
X1960Y437D02*
X1991Y437D01*
X2060Y437D02*
X2091Y437D01*
X1359Y436D02*
X1392Y436D01*
X1459Y436D02*
X1492Y436D01*
X1559Y436D02*
X1592Y436D01*
X1659Y436D02*
X1692Y436D01*
X1759Y436D02*
X1792Y436D01*
X1859Y436D02*
X1892Y436D01*
X1959Y436D02*
X1992Y436D01*
X2059Y436D02*
X2092Y436D01*
X1358Y435D02*
X1394Y435D01*
X1457Y435D02*
X1494Y435D01*
X1557Y435D02*
X1594Y435D01*
X1657Y435D02*
X1694Y435D01*
X1757Y435D02*
X1794Y435D01*
X1857Y435D02*
X1894Y435D01*
X1957Y435D02*
X1994Y435D01*
X2057Y435D02*
X2094Y435D01*
X1356Y434D02*
X1395Y434D01*
X1456Y434D02*
X1495Y434D01*
X1556Y434D02*
X1595Y434D01*
X1656Y434D02*
X1695Y434D01*
X1756Y434D02*
X1795Y434D01*
X1856Y434D02*
X1895Y434D01*
X1956Y434D02*
X1995Y434D01*
X2056Y434D02*
X2095Y434D01*
X1355Y433D02*
X1396Y433D01*
X1455Y433D02*
X1496Y433D01*
X1555Y433D02*
X1596Y433D01*
X1655Y433D02*
X1696Y433D01*
X1755Y433D02*
X1796Y433D01*
X1855Y433D02*
X1896Y433D01*
X1955Y433D02*
X1996Y433D01*
X2055Y433D02*
X2096Y433D01*
X1354Y432D02*
X1397Y432D01*
X1454Y432D02*
X1497Y432D01*
X1554Y432D02*
X1597Y432D01*
X1654Y432D02*
X1697Y432D01*
X1754Y432D02*
X1797Y432D01*
X1854Y432D02*
X1897Y432D01*
X1954Y432D02*
X1997Y432D01*
X2054Y432D02*
X2097Y432D01*
X1353Y431D02*
X1398Y431D01*
X1453Y431D02*
X1498Y431D01*
X1553Y431D02*
X1598Y431D01*
X1653Y431D02*
X1698Y431D01*
X1753Y431D02*
X1798Y431D01*
X1853Y431D02*
X1898Y431D01*
X1953Y431D02*
X1998Y431D01*
X2053Y431D02*
X2098Y431D01*
X1352Y430D02*
X1399Y430D01*
X1452Y430D02*
X1499Y430D01*
X1552Y430D02*
X1599Y430D01*
X1652Y430D02*
X1699Y430D01*
X1752Y430D02*
X1799Y430D01*
X1852Y430D02*
X1899Y430D01*
X1952Y430D02*
X1999Y430D01*
X2052Y430D02*
X2099Y430D01*
X1352Y429D02*
X1400Y429D01*
X1452Y429D02*
X1500Y429D01*
X1552Y429D02*
X1600Y429D01*
X1652Y429D02*
X1700Y429D01*
X1751Y429D02*
X1800Y429D01*
X1851Y429D02*
X1900Y429D01*
X1951Y429D02*
X2000Y429D01*
X2051Y429D02*
X2100Y429D01*
X1351Y428D02*
X1400Y428D01*
X1451Y428D02*
X1500Y428D01*
X1551Y428D02*
X1600Y428D01*
X1651Y428D02*
X1700Y428D01*
X1751Y428D02*
X1800Y428D01*
X1851Y428D02*
X1900Y428D01*
X1951Y428D02*
X2000Y428D01*
X2051Y428D02*
X2100Y428D01*
X1350Y427D02*
X1401Y427D01*
X1450Y427D02*
X1501Y427D01*
X1550Y427D02*
X1601Y427D01*
X1650Y427D02*
X1701Y427D01*
X1750Y427D02*
X1801Y427D01*
X1850Y427D02*
X1901Y427D01*
X1950Y427D02*
X2001Y427D01*
X2050Y427D02*
X2101Y427D01*
X1350Y426D02*
X1402Y426D01*
X1450Y426D02*
X1502Y426D01*
X1549Y426D02*
X1602Y426D01*
X1649Y426D02*
X1702Y426D01*
X1749Y426D02*
X1802Y426D01*
X1849Y426D02*
X1902Y426D01*
X1949Y426D02*
X2002Y426D01*
X2049Y426D02*
X2102Y426D01*
X1349Y425D02*
X1402Y425D01*
X1449Y425D02*
X1502Y425D01*
X1549Y425D02*
X1602Y425D01*
X1649Y425D02*
X1702Y425D01*
X1749Y425D02*
X1802Y425D01*
X1849Y425D02*
X1902Y425D01*
X1949Y425D02*
X2002Y425D01*
X2049Y425D02*
X2102Y425D01*
X1348Y424D02*
X1403Y424D01*
X1448Y424D02*
X1503Y424D01*
X1548Y424D02*
X1603Y424D01*
X1648Y424D02*
X1703Y424D01*
X1748Y424D02*
X1803Y424D01*
X1848Y424D02*
X1903Y424D01*
X1948Y424D02*
X2003Y424D01*
X2048Y424D02*
X2103Y424D01*
X1348Y423D02*
X1403Y423D01*
X1448Y423D02*
X1503Y423D01*
X1548Y423D02*
X1603Y423D01*
X1648Y423D02*
X1703Y423D01*
X1748Y423D02*
X1803Y423D01*
X1848Y423D02*
X1903Y423D01*
X1948Y423D02*
X2003Y423D01*
X2048Y423D02*
X2103Y423D01*
X1347Y422D02*
X1404Y422D01*
X1447Y422D02*
X1504Y422D01*
X1547Y422D02*
X1604Y422D01*
X1647Y422D02*
X1704Y422D01*
X1747Y422D02*
X1804Y422D01*
X1847Y422D02*
X1904Y422D01*
X1947Y422D02*
X2004Y422D01*
X2047Y422D02*
X2104Y422D01*
X1347Y421D02*
X1404Y421D01*
X1447Y421D02*
X1504Y421D01*
X1547Y421D02*
X1604Y421D01*
X1647Y421D02*
X1704Y421D01*
X1747Y421D02*
X1804Y421D01*
X1847Y421D02*
X1904Y421D01*
X1947Y421D02*
X2004Y421D01*
X2047Y421D02*
X2104Y421D01*
X1347Y420D02*
X1405Y420D01*
X1447Y420D02*
X1505Y420D01*
X1547Y420D02*
X1605Y420D01*
X1647Y420D02*
X1704Y420D01*
X1747Y420D02*
X1804Y420D01*
X1847Y420D02*
X1904Y420D01*
X1947Y420D02*
X2004Y420D01*
X2047Y420D02*
X2104Y420D01*
X1346Y419D02*
X1405Y419D01*
X1446Y419D02*
X1505Y419D01*
X1546Y419D02*
X1605Y419D01*
X1646Y419D02*
X1705Y419D01*
X1746Y419D02*
X1805Y419D01*
X1846Y419D02*
X1905Y419D01*
X1946Y419D02*
X2005Y419D01*
X2046Y419D02*
X2105Y419D01*
X1346Y418D02*
X1405Y418D01*
X1446Y418D02*
X1505Y418D01*
X1546Y418D02*
X1605Y418D01*
X1646Y418D02*
X1705Y418D01*
X1746Y418D02*
X1805Y418D01*
X1846Y418D02*
X1905Y418D01*
X1946Y418D02*
X2005Y418D01*
X2046Y418D02*
X2105Y418D01*
X1346Y417D02*
X1405Y417D01*
X1446Y417D02*
X1505Y417D01*
X1546Y417D02*
X1605Y417D01*
X1646Y417D02*
X1705Y417D01*
X1746Y417D02*
X1805Y417D01*
X1846Y417D02*
X1905Y417D01*
X1946Y417D02*
X2005Y417D01*
X2046Y417D02*
X2105Y417D01*
X1346Y416D02*
X1406Y416D01*
X1446Y416D02*
X1506Y416D01*
X1546Y416D02*
X1606Y416D01*
X1646Y416D02*
X1706Y416D01*
X1746Y416D02*
X1806Y416D01*
X1846Y416D02*
X1905Y416D01*
X1946Y416D02*
X2005Y416D01*
X2045Y416D02*
X2105Y416D01*
X1346Y415D02*
X1406Y415D01*
X1445Y415D02*
X1506Y415D01*
X1545Y415D02*
X1606Y415D01*
X1645Y415D02*
X1706Y415D01*
X1745Y415D02*
X1806Y415D01*
X1845Y415D02*
X1906Y415D01*
X1945Y415D02*
X2006Y415D01*
X2045Y415D02*
X2106Y415D01*
X1345Y414D02*
X1406Y414D01*
X1445Y414D02*
X1506Y414D01*
X1545Y414D02*
X1606Y414D01*
X1645Y414D02*
X1706Y414D01*
X1745Y414D02*
X1806Y414D01*
X1845Y414D02*
X1906Y414D01*
X1945Y414D02*
X2006Y414D01*
X2045Y414D02*
X2106Y414D01*
X1345Y413D02*
X1406Y413D01*
X1445Y413D02*
X1506Y413D01*
X1545Y413D02*
X1606Y413D01*
X1645Y413D02*
X1706Y413D01*
X1745Y413D02*
X1806Y413D01*
X1845Y413D02*
X1906Y413D01*
X1945Y413D02*
X2006Y413D01*
X2045Y413D02*
X2106Y413D01*
X1345Y412D02*
X1406Y412D01*
X1445Y412D02*
X1506Y412D01*
X1545Y412D02*
X1606Y412D01*
X1645Y412D02*
X1706Y412D01*
X1745Y412D02*
X1806Y412D01*
X1845Y412D02*
X1906Y412D01*
X1945Y412D02*
X2006Y412D01*
X2045Y412D02*
X2106Y412D01*
X1345Y411D02*
X1406Y411D01*
X1445Y411D02*
X1506Y411D01*
X1545Y411D02*
X1606Y411D01*
X1645Y411D02*
X1706Y411D01*
X1745Y411D02*
X1806Y411D01*
X1845Y411D02*
X1906Y411D01*
X1945Y411D02*
X2006Y411D01*
X2045Y411D02*
X2106Y411D01*
X1345Y410D02*
X1406Y410D01*
X1445Y410D02*
X1506Y410D01*
X1545Y410D02*
X1606Y410D01*
X1645Y410D02*
X1706Y410D01*
X1745Y410D02*
X1806Y410D01*
X1845Y410D02*
X1906Y410D01*
X1945Y410D02*
X2006Y410D01*
X2045Y410D02*
X2106Y410D01*
X1345Y409D02*
X1406Y409D01*
X1445Y409D02*
X1506Y409D01*
X1545Y409D02*
X1606Y409D01*
X1645Y409D02*
X1706Y409D01*
X1745Y409D02*
X1806Y409D01*
X1845Y409D02*
X1906Y409D01*
X1945Y409D02*
X2006Y409D01*
X2045Y409D02*
X2106Y409D01*
X1345Y408D02*
X1406Y408D01*
X1445Y408D02*
X1506Y408D01*
X1545Y408D02*
X1606Y408D01*
X1645Y408D02*
X1706Y408D01*
X1745Y408D02*
X1806Y408D01*
X1845Y408D02*
X1906Y408D01*
X1945Y408D02*
X2006Y408D01*
X2045Y408D02*
X2106Y408D01*
X1345Y407D02*
X1406Y407D01*
X1445Y407D02*
X1506Y407D01*
X1545Y407D02*
X1606Y407D01*
X1645Y407D02*
X1706Y407D01*
X1745Y407D02*
X1806Y407D01*
X1845Y407D02*
X1906Y407D01*
X1945Y407D02*
X2006Y407D01*
X2045Y407D02*
X2106Y407D01*
X1345Y406D02*
X1406Y406D01*
X1445Y406D02*
X1506Y406D01*
X1545Y406D02*
X1606Y406D01*
X1645Y406D02*
X1706Y406D01*
X1745Y406D02*
X1806Y406D01*
X1845Y406D02*
X1906Y406D01*
X1945Y406D02*
X2006Y406D01*
X2045Y406D02*
X2106Y406D01*
X1345Y405D02*
X1406Y405D01*
X1445Y405D02*
X1506Y405D01*
X1545Y405D02*
X1606Y405D01*
X1645Y405D02*
X1706Y405D01*
X1745Y405D02*
X1806Y405D01*
X1845Y405D02*
X1906Y405D01*
X1945Y405D02*
X2006Y405D01*
X2045Y405D02*
X2106Y405D01*
X1345Y404D02*
X1406Y404D01*
X1445Y404D02*
X1506Y404D01*
X1545Y404D02*
X1606Y404D01*
X1645Y404D02*
X1706Y404D01*
X1745Y404D02*
X1806Y404D01*
X1845Y404D02*
X1906Y404D01*
X1945Y404D02*
X2006Y404D01*
X2045Y404D02*
X2106Y404D01*
X1345Y403D02*
X1406Y403D01*
X1445Y403D02*
X1506Y403D01*
X1545Y403D02*
X1606Y403D01*
X1645Y403D02*
X1706Y403D01*
X1745Y403D02*
X1806Y403D01*
X1845Y403D02*
X1906Y403D01*
X1945Y403D02*
X2006Y403D01*
X2045Y403D02*
X2106Y403D01*
X1345Y402D02*
X1406Y402D01*
X1445Y402D02*
X1506Y402D01*
X1545Y402D02*
X1606Y402D01*
X1645Y402D02*
X1706Y402D01*
X1745Y402D02*
X1806Y402D01*
X1845Y402D02*
X1906Y402D01*
X1945Y402D02*
X2006Y402D01*
X2045Y402D02*
X2106Y402D01*
X1345Y401D02*
X1406Y401D01*
X1445Y401D02*
X1506Y401D01*
X1545Y401D02*
X1606Y401D01*
X1645Y401D02*
X1706Y401D01*
X1745Y401D02*
X1806Y401D01*
X1845Y401D02*
X1906Y401D01*
X1945Y401D02*
X2006Y401D01*
X2045Y401D02*
X2106Y401D01*
X1345Y400D02*
X1406Y400D01*
X1445Y400D02*
X1506Y400D01*
X1545Y400D02*
X1606Y400D01*
X1645Y400D02*
X1706Y400D01*
X1745Y400D02*
X1806Y400D01*
X1845Y400D02*
X1906Y400D01*
X1945Y400D02*
X2006Y400D01*
X2045Y400D02*
X2106Y400D01*
X1345Y399D02*
X1406Y399D01*
X1445Y399D02*
X1506Y399D01*
X1545Y399D02*
X1606Y399D01*
X1645Y399D02*
X1706Y399D01*
X1745Y399D02*
X1806Y399D01*
X1845Y399D02*
X1906Y399D01*
X1945Y399D02*
X2006Y399D01*
X2045Y399D02*
X2106Y399D01*
X1345Y398D02*
X1406Y398D01*
X1445Y398D02*
X1506Y398D01*
X1545Y398D02*
X1606Y398D01*
X1645Y398D02*
X1706Y398D01*
X1745Y398D02*
X1806Y398D01*
X1845Y398D02*
X1906Y398D01*
X1945Y398D02*
X2006Y398D01*
X2045Y398D02*
X2106Y398D01*
X1345Y397D02*
X1406Y397D01*
X1445Y397D02*
X1506Y397D01*
X1545Y397D02*
X1606Y397D01*
X1645Y397D02*
X1706Y397D01*
X1745Y397D02*
X1806Y397D01*
X1845Y397D02*
X1906Y397D01*
X1945Y397D02*
X2006Y397D01*
X2045Y397D02*
X2106Y397D01*
X1345Y396D02*
X1406Y396D01*
X1445Y396D02*
X1506Y396D01*
X1545Y396D02*
X1606Y396D01*
X1645Y396D02*
X1706Y396D01*
X1745Y396D02*
X1806Y396D01*
X1845Y396D02*
X1906Y396D01*
X1945Y396D02*
X2006Y396D01*
X2045Y396D02*
X2106Y396D01*
X1345Y395D02*
X1371Y395D01*
X1381Y395D02*
X1406Y395D01*
X1445Y395D02*
X1471Y395D01*
X1480Y395D02*
X1506Y395D01*
X1545Y395D02*
X1571Y395D01*
X1580Y395D02*
X1606Y395D01*
X1645Y395D02*
X1671Y395D01*
X1680Y395D02*
X1706Y395D01*
X1745Y395D02*
X1771Y395D01*
X1780Y395D02*
X1806Y395D01*
X1845Y395D02*
X1871Y395D01*
X1880Y395D02*
X1906Y395D01*
X1945Y395D02*
X1971Y395D01*
X1980Y395D02*
X2006Y395D01*
X2045Y395D02*
X2071Y395D01*
X2080Y395D02*
X2106Y395D01*
X1345Y394D02*
X1369Y394D01*
X1383Y394D02*
X1406Y394D01*
X1445Y394D02*
X1469Y394D01*
X1483Y394D02*
X1506Y394D01*
X1545Y394D02*
X1569Y394D01*
X1583Y394D02*
X1606Y394D01*
X1645Y394D02*
X1669Y394D01*
X1683Y394D02*
X1706Y394D01*
X1745Y394D02*
X1769Y394D01*
X1782Y394D02*
X1806Y394D01*
X1845Y394D02*
X1869Y394D01*
X1882Y394D02*
X1906Y394D01*
X1945Y394D02*
X1969Y394D01*
X1982Y394D02*
X2006Y394D01*
X2045Y394D02*
X2069Y394D01*
X2082Y394D02*
X2106Y394D01*
X1345Y393D02*
X1367Y393D01*
X1384Y393D02*
X1406Y393D01*
X1445Y393D02*
X1467Y393D01*
X1484Y393D02*
X1506Y393D01*
X1545Y393D02*
X1567Y393D01*
X1584Y393D02*
X1606Y393D01*
X1645Y393D02*
X1667Y393D01*
X1684Y393D02*
X1706Y393D01*
X1745Y393D02*
X1767Y393D01*
X1784Y393D02*
X1806Y393D01*
X1845Y393D02*
X1867Y393D01*
X1884Y393D02*
X1906Y393D01*
X1945Y393D02*
X1967Y393D01*
X1984Y393D02*
X2006Y393D01*
X2045Y393D02*
X2067Y393D01*
X2084Y393D02*
X2106Y393D01*
X1345Y392D02*
X1367Y392D01*
X1385Y392D02*
X1406Y392D01*
X1445Y392D02*
X1466Y392D01*
X1485Y392D02*
X1506Y392D01*
X1545Y392D02*
X1566Y392D01*
X1585Y392D02*
X1606Y392D01*
X1645Y392D02*
X1666Y392D01*
X1685Y392D02*
X1706Y392D01*
X1745Y392D02*
X1766Y392D01*
X1785Y392D02*
X1806Y392D01*
X1845Y392D02*
X1866Y392D01*
X1885Y392D02*
X1906Y392D01*
X1945Y392D02*
X1966Y392D01*
X1985Y392D02*
X2006Y392D01*
X2045Y392D02*
X2066Y392D01*
X2085Y392D02*
X2106Y392D01*
X1345Y391D02*
X1366Y391D01*
X1386Y391D02*
X1406Y391D01*
X1445Y391D02*
X1466Y391D01*
X1485Y391D02*
X1506Y391D01*
X1545Y391D02*
X1566Y391D01*
X1585Y391D02*
X1606Y391D01*
X1645Y391D02*
X1666Y391D01*
X1685Y391D02*
X1706Y391D01*
X1745Y391D02*
X1766Y391D01*
X1785Y391D02*
X1806Y391D01*
X1845Y391D02*
X1866Y391D01*
X1885Y391D02*
X1906Y391D01*
X1945Y391D02*
X1966Y391D01*
X1985Y391D02*
X2006Y391D01*
X2045Y391D02*
X2066Y391D01*
X2085Y391D02*
X2106Y391D01*
X1345Y390D02*
X1365Y390D01*
X1386Y390D02*
X1406Y390D01*
X1445Y390D02*
X1465Y390D01*
X1486Y390D02*
X1506Y390D01*
X1545Y390D02*
X1565Y390D01*
X1586Y390D02*
X1606Y390D01*
X1645Y390D02*
X1665Y390D01*
X1686Y390D02*
X1706Y390D01*
X1745Y390D02*
X1765Y390D01*
X1786Y390D02*
X1806Y390D01*
X1845Y390D02*
X1865Y390D01*
X1886Y390D02*
X1906Y390D01*
X1945Y390D02*
X1965Y390D01*
X1986Y390D02*
X2006Y390D01*
X2045Y390D02*
X2065Y390D01*
X2086Y390D02*
X2106Y390D01*
X1345Y389D02*
X1365Y389D01*
X1386Y389D02*
X1406Y389D01*
X1445Y389D02*
X1465Y389D01*
X1486Y389D02*
X1506Y389D01*
X1545Y389D02*
X1565Y389D01*
X1586Y389D02*
X1606Y389D01*
X1645Y389D02*
X1665Y389D01*
X1686Y389D02*
X1706Y389D01*
X1745Y389D02*
X1765Y389D01*
X1786Y389D02*
X1806Y389D01*
X1845Y389D02*
X1865Y389D01*
X1886Y389D02*
X1906Y389D01*
X1945Y389D02*
X1965Y389D01*
X1986Y389D02*
X2006Y389D01*
X2045Y389D02*
X2065Y389D01*
X2086Y389D02*
X2106Y389D01*
X1345Y388D02*
X1365Y388D01*
X1387Y388D02*
X1406Y388D01*
X1445Y388D02*
X1465Y388D01*
X1487Y388D02*
X1506Y388D01*
X1545Y388D02*
X1565Y388D01*
X1587Y388D02*
X1606Y388D01*
X1645Y388D02*
X1664Y388D01*
X1687Y388D02*
X1706Y388D01*
X1745Y388D02*
X1764Y388D01*
X1787Y388D02*
X1806Y388D01*
X1845Y388D02*
X1864Y388D01*
X1887Y388D02*
X1906Y388D01*
X1945Y388D02*
X1964Y388D01*
X1987Y388D02*
X2006Y388D01*
X2045Y388D02*
X2064Y388D01*
X2087Y388D02*
X2106Y388D01*
X1345Y387D02*
X1364Y387D01*
X1387Y387D02*
X1406Y387D01*
X1445Y387D02*
X1464Y387D01*
X1487Y387D02*
X1506Y387D01*
X1545Y387D02*
X1564Y387D01*
X1587Y387D02*
X1606Y387D01*
X1645Y387D02*
X1664Y387D01*
X1687Y387D02*
X1706Y387D01*
X1745Y387D02*
X1764Y387D01*
X1787Y387D02*
X1806Y387D01*
X1845Y387D02*
X1864Y387D01*
X1887Y387D02*
X1906Y387D01*
X1945Y387D02*
X1964Y387D01*
X1987Y387D02*
X2006Y387D01*
X2045Y387D02*
X2064Y387D01*
X2087Y387D02*
X2106Y387D01*
X1345Y386D02*
X1364Y386D01*
X1387Y386D02*
X1406Y386D01*
X1445Y386D02*
X1464Y386D01*
X1487Y386D02*
X1506Y386D01*
X1545Y386D02*
X1564Y386D01*
X1587Y386D02*
X1606Y386D01*
X1645Y386D02*
X1664Y386D01*
X1687Y386D02*
X1706Y386D01*
X1745Y386D02*
X1764Y386D01*
X1787Y386D02*
X1806Y386D01*
X1845Y386D02*
X1864Y386D01*
X1887Y386D02*
X1906Y386D01*
X1945Y386D02*
X1964Y386D01*
X1987Y386D02*
X2006Y386D01*
X2045Y386D02*
X2064Y386D01*
X2087Y386D02*
X2106Y386D01*
X1345Y385D02*
X1364Y385D01*
X1387Y385D02*
X1406Y385D01*
X1445Y385D02*
X1464Y385D01*
X1487Y385D02*
X1506Y385D01*
X1545Y385D02*
X1564Y385D01*
X1587Y385D02*
X1606Y385D01*
X1645Y385D02*
X1664Y385D01*
X1687Y385D02*
X1706Y385D01*
X1745Y385D02*
X1764Y385D01*
X1787Y385D02*
X1806Y385D01*
X1845Y385D02*
X1864Y385D01*
X1887Y385D02*
X1906Y385D01*
X1945Y385D02*
X1964Y385D01*
X1987Y385D02*
X2006Y385D01*
X2045Y385D02*
X2064Y385D01*
X2087Y385D02*
X2106Y385D01*
X1345Y384D02*
X1364Y384D01*
X1387Y384D02*
X1406Y384D01*
X1445Y384D02*
X1464Y384D01*
X1487Y384D02*
X1506Y384D01*
X1545Y384D02*
X1564Y384D01*
X1587Y384D02*
X1606Y384D01*
X1645Y384D02*
X1664Y384D01*
X1687Y384D02*
X1706Y384D01*
X1745Y384D02*
X1764Y384D01*
X1787Y384D02*
X1806Y384D01*
X1845Y384D02*
X1864Y384D01*
X1887Y384D02*
X1906Y384D01*
X1945Y384D02*
X1964Y384D01*
X1987Y384D02*
X2006Y384D01*
X2045Y384D02*
X2064Y384D01*
X2087Y384D02*
X2106Y384D01*
X1345Y383D02*
X1364Y383D01*
X1387Y383D02*
X1406Y383D01*
X1445Y383D02*
X1464Y383D01*
X1487Y383D02*
X1506Y383D01*
X1545Y383D02*
X1564Y383D01*
X1587Y383D02*
X1606Y383D01*
X1645Y383D02*
X1664Y383D01*
X1687Y383D02*
X1706Y383D01*
X1745Y383D02*
X1764Y383D01*
X1787Y383D02*
X1806Y383D01*
X1845Y383D02*
X1864Y383D01*
X1887Y383D02*
X1906Y383D01*
X1945Y383D02*
X1964Y383D01*
X1987Y383D02*
X2006Y383D01*
X2045Y383D02*
X2064Y383D01*
X2087Y383D02*
X2106Y383D01*
X1345Y382D02*
X1364Y382D01*
X1387Y382D02*
X1406Y382D01*
X1445Y382D02*
X1464Y382D01*
X1487Y382D02*
X1506Y382D01*
X1545Y382D02*
X1564Y382D01*
X1587Y382D02*
X1606Y382D01*
X1645Y382D02*
X1664Y382D01*
X1687Y382D02*
X1706Y382D01*
X1745Y382D02*
X1764Y382D01*
X1787Y382D02*
X1806Y382D01*
X1845Y382D02*
X1864Y382D01*
X1887Y382D02*
X1906Y382D01*
X1945Y382D02*
X1964Y382D01*
X1987Y382D02*
X2006Y382D01*
X2045Y382D02*
X2064Y382D01*
X2087Y382D02*
X2106Y382D01*
X1345Y381D02*
X1365Y381D01*
X1387Y381D02*
X1406Y381D01*
X1445Y381D02*
X1465Y381D01*
X1487Y381D02*
X1506Y381D01*
X1545Y381D02*
X1565Y381D01*
X1587Y381D02*
X1606Y381D01*
X1645Y381D02*
X1665Y381D01*
X1687Y381D02*
X1706Y381D01*
X1745Y381D02*
X1765Y381D01*
X1786Y381D02*
X1806Y381D01*
X1845Y381D02*
X1865Y381D01*
X1886Y381D02*
X1906Y381D01*
X1945Y381D02*
X1965Y381D01*
X1986Y381D02*
X2006Y381D01*
X2045Y381D02*
X2065Y381D01*
X2086Y381D02*
X2106Y381D01*
X1345Y380D02*
X1365Y380D01*
X1386Y380D02*
X1406Y380D01*
X1445Y380D02*
X1465Y380D01*
X1486Y380D02*
X1506Y380D01*
X1545Y380D02*
X1565Y380D01*
X1586Y380D02*
X1606Y380D01*
X1645Y380D02*
X1665Y380D01*
X1686Y380D02*
X1706Y380D01*
X1745Y380D02*
X1765Y380D01*
X1786Y380D02*
X1806Y380D01*
X1845Y380D02*
X1865Y380D01*
X1886Y380D02*
X1906Y380D01*
X1945Y380D02*
X1965Y380D01*
X1986Y380D02*
X2006Y380D01*
X2045Y380D02*
X2065Y380D01*
X2086Y380D02*
X2106Y380D01*
X1345Y379D02*
X1366Y379D01*
X1386Y379D02*
X1406Y379D01*
X1445Y379D02*
X1465Y379D01*
X1486Y379D02*
X1506Y379D01*
X1545Y379D02*
X1565Y379D01*
X1586Y379D02*
X1606Y379D01*
X1645Y379D02*
X1665Y379D01*
X1686Y379D02*
X1706Y379D01*
X1745Y379D02*
X1765Y379D01*
X1786Y379D02*
X1806Y379D01*
X1845Y379D02*
X1865Y379D01*
X1886Y379D02*
X1906Y379D01*
X1945Y379D02*
X1965Y379D01*
X1986Y379D02*
X2006Y379D01*
X2045Y379D02*
X2065Y379D01*
X2086Y379D02*
X2106Y379D01*
X1345Y378D02*
X1366Y378D01*
X1385Y378D02*
X1406Y378D01*
X1445Y378D02*
X1466Y378D01*
X1485Y378D02*
X1506Y378D01*
X1545Y378D02*
X1566Y378D01*
X1585Y378D02*
X1606Y378D01*
X1645Y378D02*
X1666Y378D01*
X1685Y378D02*
X1706Y378D01*
X1745Y378D02*
X1766Y378D01*
X1785Y378D02*
X1806Y378D01*
X1845Y378D02*
X1866Y378D01*
X1885Y378D02*
X1906Y378D01*
X1945Y378D02*
X1966Y378D01*
X1985Y378D02*
X2006Y378D01*
X2045Y378D02*
X2066Y378D01*
X2085Y378D02*
X2106Y378D01*
X1345Y377D02*
X1367Y377D01*
X1384Y377D02*
X1406Y377D01*
X1445Y377D02*
X1467Y377D01*
X1484Y377D02*
X1506Y377D01*
X1545Y377D02*
X1567Y377D01*
X1584Y377D02*
X1606Y377D01*
X1645Y377D02*
X1667Y377D01*
X1684Y377D02*
X1706Y377D01*
X1745Y377D02*
X1767Y377D01*
X1784Y377D02*
X1806Y377D01*
X1845Y377D02*
X1867Y377D01*
X1884Y377D02*
X1906Y377D01*
X1945Y377D02*
X1967Y377D01*
X1984Y377D02*
X2006Y377D01*
X2045Y377D02*
X2067Y377D01*
X2084Y377D02*
X2106Y377D01*
X1345Y376D02*
X1368Y376D01*
X1383Y376D02*
X1406Y376D01*
X1445Y376D02*
X1468Y376D01*
X1483Y376D02*
X1506Y376D01*
X1545Y376D02*
X1568Y376D01*
X1583Y376D02*
X1606Y376D01*
X1645Y376D02*
X1668Y376D01*
X1683Y376D02*
X1706Y376D01*
X1745Y376D02*
X1768Y376D01*
X1783Y376D02*
X1806Y376D01*
X1845Y376D02*
X1868Y376D01*
X1883Y376D02*
X1906Y376D01*
X1945Y376D02*
X1968Y376D01*
X1983Y376D02*
X2006Y376D01*
X2045Y376D02*
X2068Y376D01*
X2083Y376D02*
X2106Y376D01*
X1345Y375D02*
X1370Y375D01*
X1382Y375D02*
X1406Y375D01*
X1445Y375D02*
X1470Y375D01*
X1482Y375D02*
X1506Y375D01*
X1545Y375D02*
X1570Y375D01*
X1582Y375D02*
X1606Y375D01*
X1645Y375D02*
X1670Y375D01*
X1682Y375D02*
X1706Y375D01*
X1745Y375D02*
X1769Y375D01*
X1782Y375D02*
X1806Y375D01*
X1845Y375D02*
X1869Y375D01*
X1882Y375D02*
X1906Y375D01*
X1945Y375D02*
X1969Y375D01*
X1982Y375D02*
X2006Y375D01*
X2045Y375D02*
X2069Y375D01*
X2082Y375D02*
X2106Y375D01*
X1345Y374D02*
X1373Y374D01*
X1379Y374D02*
X1406Y374D01*
X1445Y374D02*
X1473Y374D01*
X1479Y374D02*
X1506Y374D01*
X1545Y374D02*
X1572Y374D01*
X1579Y374D02*
X1606Y374D01*
X1645Y374D02*
X1672Y374D01*
X1679Y374D02*
X1706Y374D01*
X1745Y374D02*
X1772Y374D01*
X1779Y374D02*
X1806Y374D01*
X1845Y374D02*
X1872Y374D01*
X1879Y374D02*
X1906Y374D01*
X1945Y374D02*
X1972Y374D01*
X1979Y374D02*
X2006Y374D01*
X2045Y374D02*
X2072Y374D01*
X2079Y374D02*
X2106Y374D01*
X1345Y373D02*
X1406Y373D01*
X1445Y373D02*
X1506Y373D01*
X1545Y373D02*
X1606Y373D01*
X1645Y373D02*
X1706Y373D01*
X1745Y373D02*
X1806Y373D01*
X1845Y373D02*
X1906Y373D01*
X1945Y373D02*
X2006Y373D01*
X2045Y373D02*
X2106Y373D01*
X1345Y372D02*
X1406Y372D01*
X1445Y372D02*
X1506Y372D01*
X1545Y372D02*
X1606Y372D01*
X1645Y372D02*
X1706Y372D01*
X1745Y372D02*
X1806Y372D01*
X1845Y372D02*
X1906Y372D01*
X1945Y372D02*
X2006Y372D01*
X2045Y372D02*
X2106Y372D01*
X1345Y371D02*
X1406Y371D01*
X1445Y371D02*
X1506Y371D01*
X1545Y371D02*
X1606Y371D01*
X1645Y371D02*
X1706Y371D01*
X1745Y371D02*
X1806Y371D01*
X1845Y371D02*
X1906Y371D01*
X1945Y371D02*
X2006Y371D01*
X2045Y371D02*
X2106Y371D01*
X1345Y370D02*
X1406Y370D01*
X1445Y370D02*
X1506Y370D01*
X1545Y370D02*
X1606Y370D01*
X1645Y370D02*
X1706Y370D01*
X1745Y370D02*
X1806Y370D01*
X1845Y370D02*
X1906Y370D01*
X1945Y370D02*
X2006Y370D01*
X2045Y370D02*
X2106Y370D01*
X1345Y369D02*
X1406Y369D01*
X1445Y369D02*
X1506Y369D01*
X1545Y369D02*
X1606Y369D01*
X1645Y369D02*
X1706Y369D01*
X1745Y369D02*
X1806Y369D01*
X1845Y369D02*
X1906Y369D01*
X1945Y369D02*
X2006Y369D01*
X2045Y369D02*
X2106Y369D01*
X1345Y368D02*
X1406Y368D01*
X1445Y368D02*
X1506Y368D01*
X1545Y368D02*
X1606Y368D01*
X1645Y368D02*
X1706Y368D01*
X1745Y368D02*
X1806Y368D01*
X1845Y368D02*
X1906Y368D01*
X1945Y368D02*
X2006Y368D01*
X2045Y368D02*
X2106Y368D01*
X1345Y367D02*
X1406Y367D01*
X1445Y367D02*
X1506Y367D01*
X1545Y367D02*
X1606Y367D01*
X1645Y367D02*
X1706Y367D01*
X1745Y367D02*
X1806Y367D01*
X1845Y367D02*
X1906Y367D01*
X1945Y367D02*
X2006Y367D01*
X2045Y367D02*
X2106Y367D01*
X1345Y366D02*
X1406Y366D01*
X1445Y366D02*
X1506Y366D01*
X1545Y366D02*
X1606Y366D01*
X1645Y366D02*
X1706Y366D01*
X1745Y366D02*
X1806Y366D01*
X1845Y366D02*
X1906Y366D01*
X1945Y366D02*
X2006Y366D01*
X2045Y366D02*
X2106Y366D01*
X1345Y365D02*
X1406Y365D01*
X1445Y365D02*
X1506Y365D01*
X1545Y365D02*
X1606Y365D01*
X1645Y365D02*
X1706Y365D01*
X1745Y365D02*
X1806Y365D01*
X1845Y365D02*
X1906Y365D01*
X1945Y365D02*
X2006Y365D01*
X2045Y365D02*
X2106Y365D01*
X1345Y364D02*
X1406Y364D01*
X1445Y364D02*
X1506Y364D01*
X1545Y364D02*
X1606Y364D01*
X1645Y364D02*
X1706Y364D01*
X1745Y364D02*
X1806Y364D01*
X1845Y364D02*
X1906Y364D01*
X1945Y364D02*
X2006Y364D01*
X2045Y364D02*
X2106Y364D01*
X1345Y363D02*
X1406Y363D01*
X1445Y363D02*
X1506Y363D01*
X1545Y363D02*
X1606Y363D01*
X1645Y363D02*
X1706Y363D01*
X1745Y363D02*
X1806Y363D01*
X1845Y363D02*
X1906Y363D01*
X1945Y363D02*
X2006Y363D01*
X2045Y363D02*
X2106Y363D01*
X1345Y362D02*
X1406Y362D01*
X1445Y362D02*
X1506Y362D01*
X1545Y362D02*
X1606Y362D01*
X1645Y362D02*
X1706Y362D01*
X1745Y362D02*
X1806Y362D01*
X1845Y362D02*
X1906Y362D01*
X1945Y362D02*
X2006Y362D01*
X2045Y362D02*
X2106Y362D01*
X1345Y361D02*
X1406Y361D01*
X1445Y361D02*
X1506Y361D01*
X1545Y361D02*
X1606Y361D01*
X1645Y361D02*
X1706Y361D01*
X1745Y361D02*
X1806Y361D01*
X1845Y361D02*
X1906Y361D01*
X1945Y361D02*
X2006Y361D01*
X2045Y361D02*
X2106Y361D01*
X1345Y360D02*
X1406Y360D01*
X1445Y360D02*
X1506Y360D01*
X1545Y360D02*
X1606Y360D01*
X1645Y360D02*
X1706Y360D01*
X1745Y360D02*
X1806Y360D01*
X1845Y360D02*
X1906Y360D01*
X1945Y360D02*
X2006Y360D01*
X2045Y360D02*
X2106Y360D01*
X1345Y359D02*
X1406Y359D01*
X1445Y359D02*
X1506Y359D01*
X1545Y359D02*
X1606Y359D01*
X1645Y359D02*
X1706Y359D01*
X1745Y359D02*
X1806Y359D01*
X1845Y359D02*
X1906Y359D01*
X1945Y359D02*
X2006Y359D01*
X2045Y359D02*
X2106Y359D01*
X1345Y358D02*
X1406Y358D01*
X1445Y358D02*
X1506Y358D01*
X1545Y358D02*
X1606Y358D01*
X1645Y358D02*
X1706Y358D01*
X1745Y358D02*
X1806Y358D01*
X1845Y358D02*
X1906Y358D01*
X1945Y358D02*
X2006Y358D01*
X2045Y358D02*
X2106Y358D01*
X1345Y357D02*
X1406Y357D01*
X1445Y357D02*
X1506Y357D01*
X1545Y357D02*
X1606Y357D01*
X1645Y357D02*
X1706Y357D01*
X1745Y357D02*
X1806Y357D01*
X1845Y357D02*
X1906Y357D01*
X1945Y357D02*
X2006Y357D01*
X2045Y357D02*
X2106Y357D01*
X1345Y356D02*
X1406Y356D01*
X1445Y356D02*
X1506Y356D01*
X1545Y356D02*
X1606Y356D01*
X1645Y356D02*
X1706Y356D01*
X1745Y356D02*
X1806Y356D01*
X1845Y356D02*
X1906Y356D01*
X1945Y356D02*
X2006Y356D01*
X2045Y356D02*
X2106Y356D01*
X1345Y355D02*
X1406Y355D01*
X1445Y355D02*
X1506Y355D01*
X1545Y355D02*
X1606Y355D01*
X1645Y355D02*
X1706Y355D01*
X1745Y355D02*
X1806Y355D01*
X1845Y355D02*
X1906Y355D01*
X1945Y355D02*
X2006Y355D01*
X2045Y355D02*
X2106Y355D01*
X1346Y354D02*
X1406Y354D01*
X1446Y354D02*
X1506Y354D01*
X1546Y354D02*
X1606Y354D01*
X1646Y354D02*
X1706Y354D01*
X1745Y354D02*
X1806Y354D01*
X1845Y354D02*
X1906Y354D01*
X1945Y354D02*
X2006Y354D01*
X2045Y354D02*
X2106Y354D01*
X1346Y353D02*
X1406Y353D01*
X1446Y353D02*
X1506Y353D01*
X1546Y353D02*
X1605Y353D01*
X1646Y353D02*
X1705Y353D01*
X1746Y353D02*
X1805Y353D01*
X1846Y353D02*
X1905Y353D01*
X1946Y353D02*
X2005Y353D01*
X2046Y353D02*
X2105Y353D01*
X1346Y352D02*
X1405Y352D01*
X1446Y352D02*
X1505Y352D01*
X1546Y352D02*
X1605Y352D01*
X1646Y352D02*
X1705Y352D01*
X1746Y352D02*
X1805Y352D01*
X1846Y352D02*
X1905Y352D01*
X1946Y352D02*
X2005Y352D01*
X2046Y352D02*
X2105Y352D01*
X1346Y351D02*
X1405Y351D01*
X1446Y351D02*
X1505Y351D01*
X1546Y351D02*
X1605Y351D01*
X1646Y351D02*
X1705Y351D01*
X1746Y351D02*
X1805Y351D01*
X1846Y351D02*
X1905Y351D01*
X1946Y351D02*
X2005Y351D01*
X2046Y351D02*
X2105Y351D01*
X1347Y350D02*
X1405Y350D01*
X1447Y350D02*
X1505Y350D01*
X1547Y350D02*
X1605Y350D01*
X1646Y350D02*
X1705Y350D01*
X1746Y350D02*
X1805Y350D01*
X1846Y350D02*
X1905Y350D01*
X1946Y350D02*
X2005Y350D01*
X2046Y350D02*
X2105Y350D01*
X1347Y349D02*
X1404Y349D01*
X1447Y349D02*
X1504Y349D01*
X1547Y349D02*
X1604Y349D01*
X1647Y349D02*
X1704Y349D01*
X1747Y349D02*
X1804Y349D01*
X1847Y349D02*
X1904Y349D01*
X1947Y349D02*
X2004Y349D01*
X2047Y349D02*
X2104Y349D01*
X1347Y348D02*
X1404Y348D01*
X1447Y348D02*
X1504Y348D01*
X1547Y348D02*
X1604Y348D01*
X1647Y348D02*
X1704Y348D01*
X1747Y348D02*
X1804Y348D01*
X1847Y348D02*
X1904Y348D01*
X1947Y348D02*
X2004Y348D01*
X2047Y348D02*
X2104Y348D01*
X1348Y347D02*
X1404Y347D01*
X1448Y347D02*
X1504Y347D01*
X1548Y347D02*
X1604Y347D01*
X1648Y347D02*
X1704Y347D01*
X1748Y347D02*
X1803Y347D01*
X1848Y347D02*
X1903Y347D01*
X1948Y347D02*
X2003Y347D01*
X2048Y347D02*
X2103Y347D01*
X1348Y346D02*
X1403Y346D01*
X1448Y346D02*
X1503Y346D01*
X1548Y346D02*
X1603Y346D01*
X1648Y346D02*
X1703Y346D01*
X1748Y346D02*
X1803Y346D01*
X1848Y346D02*
X1903Y346D01*
X1948Y346D02*
X2003Y346D01*
X2048Y346D02*
X2103Y346D01*
X1349Y345D02*
X1403Y345D01*
X1449Y345D02*
X1503Y345D01*
X1549Y345D02*
X1603Y345D01*
X1649Y345D02*
X1703Y345D01*
X1749Y345D02*
X1803Y345D01*
X1849Y345D02*
X1902Y345D01*
X1949Y345D02*
X2002Y345D01*
X2048Y345D02*
X2102Y345D01*
X1349Y344D02*
X1402Y344D01*
X1449Y344D02*
X1502Y344D01*
X1549Y344D02*
X1602Y344D01*
X1649Y344D02*
X1702Y344D01*
X1749Y344D02*
X1802Y344D01*
X1849Y344D02*
X1902Y344D01*
X1949Y344D02*
X2002Y344D01*
X2049Y344D02*
X2102Y344D01*
X1350Y343D02*
X1401Y343D01*
X1450Y343D02*
X1501Y343D01*
X1550Y343D02*
X1601Y343D01*
X1650Y343D02*
X1701Y343D01*
X1750Y343D02*
X1801Y343D01*
X1850Y343D02*
X1901Y343D01*
X1950Y343D02*
X2001Y343D01*
X2050Y343D02*
X2101Y343D01*
X1350Y342D02*
X1401Y342D01*
X1450Y342D02*
X1501Y342D01*
X1550Y342D02*
X1601Y342D01*
X1650Y342D02*
X1701Y342D01*
X1750Y342D02*
X1801Y342D01*
X1850Y342D02*
X1901Y342D01*
X1950Y342D02*
X2001Y342D01*
X2050Y342D02*
X2101Y342D01*
X1351Y341D02*
X1400Y341D01*
X1451Y341D02*
X1500Y341D01*
X1551Y341D02*
X1600Y341D01*
X1651Y341D02*
X1700Y341D01*
X1751Y341D02*
X1800Y341D01*
X1851Y341D02*
X1900Y341D01*
X1951Y341D02*
X2000Y341D01*
X2051Y341D02*
X2100Y341D01*
X1352Y340D02*
X1399Y340D01*
X1452Y340D02*
X1499Y340D01*
X1552Y340D02*
X1599Y340D01*
X1652Y340D02*
X1699Y340D01*
X1752Y340D02*
X1799Y340D01*
X1852Y340D02*
X1899Y340D01*
X1952Y340D02*
X1999Y340D01*
X2052Y340D02*
X2099Y340D01*
X1353Y339D02*
X1399Y339D01*
X1453Y339D02*
X1499Y339D01*
X1553Y339D02*
X1598Y339D01*
X1653Y339D02*
X1698Y339D01*
X1753Y339D02*
X1798Y339D01*
X1853Y339D02*
X1898Y339D01*
X1953Y339D02*
X1998Y339D01*
X2053Y339D02*
X2098Y339D01*
X1354Y338D02*
X1398Y338D01*
X1454Y338D02*
X1498Y338D01*
X1554Y338D02*
X1598Y338D01*
X1654Y338D02*
X1698Y338D01*
X1754Y338D02*
X1798Y338D01*
X1854Y338D02*
X1897Y338D01*
X1953Y338D02*
X1997Y338D01*
X2053Y338D02*
X2097Y338D01*
X1355Y337D02*
X1397Y337D01*
X1455Y337D02*
X1497Y337D01*
X1555Y337D02*
X1597Y337D01*
X1655Y337D02*
X1697Y337D01*
X1755Y337D02*
X1797Y337D01*
X1854Y337D02*
X1897Y337D01*
X1954Y337D02*
X1997Y337D01*
X2054Y337D02*
X2096Y337D01*
X1356Y336D02*
X1396Y336D01*
X1456Y336D02*
X1496Y336D01*
X1556Y336D02*
X1596Y336D01*
X1656Y336D02*
X1696Y336D01*
X1756Y336D02*
X1795Y336D01*
X1856Y336D02*
X1895Y336D01*
X1956Y336D02*
X1995Y336D01*
X2056Y336D02*
X2095Y336D01*
X1357Y335D02*
X1394Y335D01*
X1457Y335D02*
X1494Y335D01*
X1557Y335D02*
X1594Y335D01*
X1657Y335D02*
X1694Y335D01*
X1757Y335D02*
X1794Y335D01*
X1857Y335D02*
X1894Y335D01*
X1957Y335D02*
X1994Y335D01*
X2057Y335D02*
X2094Y335D01*
X1358Y334D02*
X1393Y334D01*
X1458Y334D02*
X1493Y334D01*
X1558Y334D02*
X1593Y334D01*
X1658Y334D02*
X1693Y334D01*
X1758Y334D02*
X1793Y334D01*
X1858Y334D02*
X1893Y334D01*
X1958Y334D02*
X1993Y334D01*
X2058Y334D02*
X2093Y334D01*
X1359Y333D02*
X1392Y333D01*
X1459Y333D02*
X1492Y333D01*
X1559Y333D02*
X1592Y333D01*
X1659Y333D02*
X1692Y333D01*
X1759Y333D02*
X1792Y333D01*
X1859Y333D02*
X1892Y333D01*
X1959Y333D02*
X1992Y333D01*
X2059Y333D02*
X2092Y333D01*
X1361Y332D02*
X1390Y332D01*
X1461Y332D02*
X1490Y332D01*
X1561Y332D02*
X1590Y332D01*
X1661Y332D02*
X1690Y332D01*
X1761Y332D02*
X1790Y332D01*
X1861Y332D02*
X1890Y332D01*
X1961Y332D02*
X1990Y332D01*
X2061Y332D02*
X2090Y332D01*
X1363Y331D02*
X1388Y331D01*
X1463Y331D02*
X1488Y331D01*
X1563Y331D02*
X1588Y331D01*
X1663Y331D02*
X1688Y331D01*
X1763Y331D02*
X1788Y331D01*
X1863Y331D02*
X1888Y331D01*
X1963Y331D02*
X1988Y331D01*
X2063Y331D02*
X2088Y331D01*
X1365Y330D02*
X1386Y330D01*
X1465Y330D02*
X1486Y330D01*
X1565Y330D02*
X1586Y330D01*
X1665Y330D02*
X1686Y330D01*
X1765Y330D02*
X1786Y330D01*
X1865Y330D02*
X1886Y330D01*
X1965Y330D02*
X1986Y330D01*
X2065Y330D02*
X2086Y330D01*
X1368Y329D02*
X1383Y329D01*
X1468Y329D02*
X1483Y329D01*
X1568Y329D02*
X1583Y329D01*
X1668Y329D02*
X1683Y329D01*
X1768Y329D02*
X1783Y329D01*
X1868Y329D02*
X1883Y329D01*
X1968Y329D02*
X1983Y329D01*
X2068Y329D02*
X2083Y329D01*
X1373Y328D02*
X1379Y328D01*
X1473Y328D02*
X1479Y328D01*
X1573Y328D02*
X1579Y328D01*
X1673Y328D02*
X1679Y328D01*
X1773Y328D02*
X1778Y328D01*
X1873Y328D02*
X1878Y328D01*
X1973Y328D02*
X1978Y328D01*
X2073Y328D02*
X2078Y328D01*
X1369Y141D02*
X1382Y141D01*
X1469Y141D02*
X1482Y141D01*
X1569Y141D02*
X1582Y141D01*
X1669Y141D02*
X1682Y141D01*
X1769Y141D02*
X1782Y141D01*
X1869Y141D02*
X1882Y141D01*
X1969Y141D02*
X1982Y141D01*
X2069Y141D02*
X2082Y141D01*
X1366Y140D02*
X1385Y140D01*
X1466Y140D02*
X1485Y140D01*
X1566Y140D02*
X1585Y140D01*
X1666Y140D02*
X1685Y140D01*
X1766Y140D02*
X1785Y140D01*
X1866Y140D02*
X1885Y140D01*
X1966Y140D02*
X1985Y140D01*
X2066Y140D02*
X2085Y140D01*
X1364Y139D02*
X1388Y139D01*
X1464Y139D02*
X1488Y139D01*
X1564Y139D02*
X1588Y139D01*
X1664Y139D02*
X1688Y139D01*
X1764Y139D02*
X1788Y139D01*
X1864Y139D02*
X1887Y139D01*
X1964Y139D02*
X1987Y139D01*
X2063Y139D02*
X2087Y139D01*
X1362Y138D02*
X1390Y138D01*
X1462Y138D02*
X1490Y138D01*
X1562Y138D02*
X1590Y138D01*
X1662Y138D02*
X1690Y138D01*
X1762Y138D02*
X1789Y138D01*
X1862Y138D02*
X1889Y138D01*
X1962Y138D02*
X1989Y138D01*
X2062Y138D02*
X2089Y138D01*
X1360Y137D02*
X1391Y137D01*
X1460Y137D02*
X1491Y137D01*
X1560Y137D02*
X1591Y137D01*
X1660Y137D02*
X1691Y137D01*
X1760Y137D02*
X1791Y137D01*
X1860Y137D02*
X1891Y137D01*
X1960Y137D02*
X1991Y137D01*
X2060Y137D02*
X2091Y137D01*
X1359Y136D02*
X1393Y136D01*
X1459Y136D02*
X1493Y136D01*
X1559Y136D02*
X1593Y136D01*
X1659Y136D02*
X1693Y136D01*
X1758Y136D02*
X1793Y136D01*
X1858Y136D02*
X1893Y136D01*
X1958Y136D02*
X1993Y136D01*
X2058Y136D02*
X2093Y136D01*
X1357Y135D02*
X1394Y135D01*
X1457Y135D02*
X1494Y135D01*
X1557Y135D02*
X1594Y135D01*
X1657Y135D02*
X1694Y135D01*
X1757Y135D02*
X1794Y135D01*
X1857Y135D02*
X1894Y135D01*
X1957Y135D02*
X1994Y135D01*
X2057Y135D02*
X2094Y135D01*
X1356Y134D02*
X1395Y134D01*
X1456Y134D02*
X1495Y134D01*
X1556Y134D02*
X1595Y134D01*
X1656Y134D02*
X1695Y134D01*
X1756Y134D02*
X1795Y134D01*
X1856Y134D02*
X1895Y134D01*
X1956Y134D02*
X1995Y134D01*
X2056Y134D02*
X2095Y134D01*
X1355Y133D02*
X1396Y133D01*
X1455Y133D02*
X1496Y133D01*
X1555Y133D02*
X1596Y133D01*
X1655Y133D02*
X1696Y133D01*
X1755Y133D02*
X1796Y133D01*
X1855Y133D02*
X1896Y133D01*
X1955Y133D02*
X1996Y133D01*
X2055Y133D02*
X2096Y133D01*
X1354Y132D02*
X1397Y132D01*
X1454Y132D02*
X1497Y132D01*
X1554Y132D02*
X1597Y132D01*
X1654Y132D02*
X1697Y132D01*
X1754Y132D02*
X1797Y132D01*
X1854Y132D02*
X1897Y132D01*
X1954Y132D02*
X1997Y132D01*
X2054Y132D02*
X2097Y132D01*
X1353Y131D02*
X1398Y131D01*
X1453Y131D02*
X1498Y131D01*
X1553Y131D02*
X1598Y131D01*
X1653Y131D02*
X1698Y131D01*
X1753Y131D02*
X1798Y131D01*
X1853Y131D02*
X1898Y131D01*
X1953Y131D02*
X1998Y131D01*
X2053Y131D02*
X2098Y131D01*
X1352Y130D02*
X1399Y130D01*
X1452Y130D02*
X1499Y130D01*
X1552Y130D02*
X1599Y130D01*
X1652Y130D02*
X1699Y130D01*
X1752Y130D02*
X1799Y130D01*
X1852Y130D02*
X1899Y130D01*
X1952Y130D02*
X1999Y130D01*
X2052Y130D02*
X2099Y130D01*
X1351Y129D02*
X1400Y129D01*
X1451Y129D02*
X1500Y129D01*
X1551Y129D02*
X1600Y129D01*
X1651Y129D02*
X1700Y129D01*
X1751Y129D02*
X1800Y129D01*
X1851Y129D02*
X1900Y129D01*
X1951Y129D02*
X2000Y129D01*
X2051Y129D02*
X2100Y129D01*
X1351Y128D02*
X1401Y128D01*
X1451Y128D02*
X1501Y128D01*
X1551Y128D02*
X1601Y128D01*
X1651Y128D02*
X1701Y128D01*
X1751Y128D02*
X1800Y128D01*
X1851Y128D02*
X1900Y128D01*
X1951Y128D02*
X2000Y128D01*
X2051Y128D02*
X2100Y128D01*
X1350Y127D02*
X1401Y127D01*
X1450Y127D02*
X1501Y127D01*
X1550Y127D02*
X1601Y127D01*
X1650Y127D02*
X1701Y127D01*
X1750Y127D02*
X1801Y127D01*
X1850Y127D02*
X1901Y127D01*
X1950Y127D02*
X2001Y127D01*
X2050Y127D02*
X2101Y127D01*
X1349Y126D02*
X1402Y126D01*
X1449Y126D02*
X1502Y126D01*
X1549Y126D02*
X1602Y126D01*
X1649Y126D02*
X1702Y126D01*
X1749Y126D02*
X1802Y126D01*
X1849Y126D02*
X1902Y126D01*
X1949Y126D02*
X2002Y126D01*
X2049Y126D02*
X2102Y126D01*
X1349Y125D02*
X1402Y125D01*
X1449Y125D02*
X1502Y125D01*
X1549Y125D02*
X1602Y125D01*
X1649Y125D02*
X1702Y125D01*
X1749Y125D02*
X1802Y125D01*
X1849Y125D02*
X1902Y125D01*
X1949Y125D02*
X2002Y125D01*
X2049Y125D02*
X2102Y125D01*
X1348Y124D02*
X1403Y124D01*
X1448Y124D02*
X1503Y124D01*
X1548Y124D02*
X1603Y124D01*
X1648Y124D02*
X1703Y124D01*
X1748Y124D02*
X1803Y124D01*
X1848Y124D02*
X1903Y124D01*
X1948Y124D02*
X2003Y124D01*
X2048Y124D02*
X2103Y124D01*
X1348Y123D02*
X1403Y123D01*
X1448Y123D02*
X1503Y123D01*
X1548Y123D02*
X1603Y123D01*
X1648Y123D02*
X1703Y123D01*
X1748Y123D02*
X1803Y123D01*
X1848Y123D02*
X1903Y123D01*
X1948Y123D02*
X2003Y123D01*
X2048Y123D02*
X2103Y123D01*
X1347Y122D02*
X1404Y122D01*
X1447Y122D02*
X1504Y122D01*
X1547Y122D02*
X1604Y122D01*
X1647Y122D02*
X1704Y122D01*
X1747Y122D02*
X1804Y122D01*
X1847Y122D02*
X1904Y122D01*
X1947Y122D02*
X2004Y122D01*
X2047Y122D02*
X2104Y122D01*
X1347Y121D02*
X1404Y121D01*
X1447Y121D02*
X1504Y121D01*
X1547Y121D02*
X1604Y121D01*
X1647Y121D02*
X1704Y121D01*
X1747Y121D02*
X1804Y121D01*
X1847Y121D02*
X1904Y121D01*
X1947Y121D02*
X2004Y121D01*
X2047Y121D02*
X2104Y121D01*
X1347Y120D02*
X1405Y120D01*
X1447Y120D02*
X1505Y120D01*
X1547Y120D02*
X1605Y120D01*
X1647Y120D02*
X1705Y120D01*
X1747Y120D02*
X1805Y120D01*
X1847Y120D02*
X1905Y120D01*
X1947Y120D02*
X2004Y120D01*
X2046Y120D02*
X2104Y120D01*
X1346Y119D02*
X1405Y119D01*
X1446Y119D02*
X1505Y119D01*
X1546Y119D02*
X1605Y119D01*
X1646Y119D02*
X1705Y119D01*
X1746Y119D02*
X1805Y119D01*
X1846Y119D02*
X1905Y119D01*
X1946Y119D02*
X2005Y119D01*
X2046Y119D02*
X2105Y119D01*
X1346Y118D02*
X1405Y118D01*
X1446Y118D02*
X1505Y118D01*
X1546Y118D02*
X1605Y118D01*
X1646Y118D02*
X1705Y118D01*
X1746Y118D02*
X1805Y118D01*
X1846Y118D02*
X1905Y118D01*
X1946Y118D02*
X2005Y118D01*
X2046Y118D02*
X2105Y118D01*
X1346Y117D02*
X1405Y117D01*
X1446Y117D02*
X1505Y117D01*
X1546Y117D02*
X1605Y117D01*
X1646Y117D02*
X1705Y117D01*
X1746Y117D02*
X1805Y117D01*
X1846Y117D02*
X1905Y117D01*
X1946Y117D02*
X2005Y117D01*
X2046Y117D02*
X2105Y117D01*
X1346Y116D02*
X1406Y116D01*
X1446Y116D02*
X1506Y116D01*
X1546Y116D02*
X1606Y116D01*
X1646Y116D02*
X1706Y116D01*
X1746Y116D02*
X1806Y116D01*
X1846Y116D02*
X1906Y116D01*
X1945Y116D02*
X2005Y116D01*
X2045Y116D02*
X2105Y116D01*
X1345Y115D02*
X1406Y115D01*
X1445Y115D02*
X1506Y115D01*
X1545Y115D02*
X1606Y115D01*
X1645Y115D02*
X1706Y115D01*
X1745Y115D02*
X1806Y115D01*
X1845Y115D02*
X1906Y115D01*
X1945Y115D02*
X2006Y115D01*
X2045Y115D02*
X2106Y115D01*
X1345Y114D02*
X1406Y114D01*
X1445Y114D02*
X1506Y114D01*
X1545Y114D02*
X1606Y114D01*
X1645Y114D02*
X1706Y114D01*
X1745Y114D02*
X1806Y114D01*
X1845Y114D02*
X1906Y114D01*
X1945Y114D02*
X2006Y114D01*
X2045Y114D02*
X2106Y114D01*
X1345Y113D02*
X1406Y113D01*
X1445Y113D02*
X1506Y113D01*
X1545Y113D02*
X1606Y113D01*
X1645Y113D02*
X1706Y113D01*
X1745Y113D02*
X1806Y113D01*
X1845Y113D02*
X1906Y113D01*
X1945Y113D02*
X2006Y113D01*
X2045Y113D02*
X2106Y113D01*
X1345Y112D02*
X1406Y112D01*
X1445Y112D02*
X1506Y112D01*
X1545Y112D02*
X1606Y112D01*
X1645Y112D02*
X1706Y112D01*
X1745Y112D02*
X1806Y112D01*
X1845Y112D02*
X1906Y112D01*
X1945Y112D02*
X2006Y112D01*
X2045Y112D02*
X2106Y112D01*
X1345Y111D02*
X1406Y111D01*
X1445Y111D02*
X1506Y111D01*
X1545Y111D02*
X1606Y111D01*
X1645Y111D02*
X1706Y111D01*
X1745Y111D02*
X1806Y111D01*
X1845Y111D02*
X1906Y111D01*
X1945Y111D02*
X2006Y111D01*
X2045Y111D02*
X2106Y111D01*
X1345Y110D02*
X1406Y110D01*
X1445Y110D02*
X1506Y110D01*
X1545Y110D02*
X1606Y110D01*
X1645Y110D02*
X1706Y110D01*
X1745Y110D02*
X1806Y110D01*
X1845Y110D02*
X1906Y110D01*
X1945Y110D02*
X2006Y110D01*
X2045Y110D02*
X2106Y110D01*
X1345Y109D02*
X1406Y109D01*
X1445Y109D02*
X1506Y109D01*
X1545Y109D02*
X1606Y109D01*
X1645Y109D02*
X1706Y109D01*
X1745Y109D02*
X1806Y109D01*
X1845Y109D02*
X1906Y109D01*
X1945Y109D02*
X2006Y109D01*
X2045Y109D02*
X2106Y109D01*
X1345Y108D02*
X1406Y108D01*
X1445Y108D02*
X1506Y108D01*
X1545Y108D02*
X1606Y108D01*
X1645Y108D02*
X1706Y108D01*
X1745Y108D02*
X1806Y108D01*
X1845Y108D02*
X1906Y108D01*
X1945Y108D02*
X2006Y108D01*
X2045Y108D02*
X2106Y108D01*
X1345Y107D02*
X1406Y107D01*
X1445Y107D02*
X1506Y107D01*
X1545Y107D02*
X1606Y107D01*
X1645Y107D02*
X1706Y107D01*
X1745Y107D02*
X1806Y107D01*
X1845Y107D02*
X1906Y107D01*
X1945Y107D02*
X2006Y107D01*
X2045Y107D02*
X2106Y107D01*
X1345Y106D02*
X1406Y106D01*
X1445Y106D02*
X1506Y106D01*
X1545Y106D02*
X1606Y106D01*
X1645Y106D02*
X1706Y106D01*
X1745Y106D02*
X1806Y106D01*
X1845Y106D02*
X1906Y106D01*
X1945Y106D02*
X2006Y106D01*
X2045Y106D02*
X2106Y106D01*
X1345Y105D02*
X1406Y105D01*
X1445Y105D02*
X1506Y105D01*
X1545Y105D02*
X1606Y105D01*
X1645Y105D02*
X1706Y105D01*
X1745Y105D02*
X1806Y105D01*
X1845Y105D02*
X1906Y105D01*
X1945Y105D02*
X2006Y105D01*
X2045Y105D02*
X2106Y105D01*
X1345Y104D02*
X1406Y104D01*
X1445Y104D02*
X1506Y104D01*
X1545Y104D02*
X1606Y104D01*
X1645Y104D02*
X1706Y104D01*
X1745Y104D02*
X1806Y104D01*
X1845Y104D02*
X1906Y104D01*
X1945Y104D02*
X2006Y104D01*
X2045Y104D02*
X2106Y104D01*
X1345Y103D02*
X1406Y103D01*
X1445Y103D02*
X1506Y103D01*
X1545Y103D02*
X1606Y103D01*
X1645Y103D02*
X1706Y103D01*
X1745Y103D02*
X1806Y103D01*
X1845Y103D02*
X1906Y103D01*
X1945Y103D02*
X2006Y103D01*
X2045Y103D02*
X2106Y103D01*
X1345Y102D02*
X1406Y102D01*
X1445Y102D02*
X1506Y102D01*
X1545Y102D02*
X1606Y102D01*
X1645Y102D02*
X1706Y102D01*
X1745Y102D02*
X1806Y102D01*
X1845Y102D02*
X1906Y102D01*
X1945Y102D02*
X2006Y102D01*
X2045Y102D02*
X2106Y102D01*
X1345Y101D02*
X1406Y101D01*
X1445Y101D02*
X1506Y101D01*
X1545Y101D02*
X1606Y101D01*
X1645Y101D02*
X1706Y101D01*
X1745Y101D02*
X1806Y101D01*
X1845Y101D02*
X1906Y101D01*
X1945Y101D02*
X2006Y101D01*
X2045Y101D02*
X2106Y101D01*
X1345Y100D02*
X1406Y100D01*
X1445Y100D02*
X1506Y100D01*
X1545Y100D02*
X1606Y100D01*
X1645Y100D02*
X1706Y100D01*
X1745Y100D02*
X1806Y100D01*
X1845Y100D02*
X1906Y100D01*
X1945Y100D02*
X2006Y100D01*
X2045Y100D02*
X2106Y100D01*
X1345Y99D02*
X1406Y99D01*
X1445Y99D02*
X1506Y99D01*
X1545Y99D02*
X1606Y99D01*
X1645Y99D02*
X1706Y99D01*
X1745Y99D02*
X1806Y99D01*
X1845Y99D02*
X1906Y99D01*
X1945Y99D02*
X2006Y99D01*
X2045Y99D02*
X2106Y99D01*
X1345Y98D02*
X1406Y98D01*
X1445Y98D02*
X1506Y98D01*
X1545Y98D02*
X1606Y98D01*
X1645Y98D02*
X1706Y98D01*
X1745Y98D02*
X1806Y98D01*
X1845Y98D02*
X1906Y98D01*
X1945Y98D02*
X2006Y98D01*
X2045Y98D02*
X2106Y98D01*
X1345Y97D02*
X1406Y97D01*
X1445Y97D02*
X1506Y97D01*
X1545Y97D02*
X1606Y97D01*
X1645Y97D02*
X1706Y97D01*
X1745Y97D02*
X1806Y97D01*
X1845Y97D02*
X1906Y97D01*
X1945Y97D02*
X2006Y97D01*
X2045Y97D02*
X2106Y97D01*
X1345Y96D02*
X1406Y96D01*
X1445Y96D02*
X1506Y96D01*
X1545Y96D02*
X1606Y96D01*
X1645Y96D02*
X1706Y96D01*
X1745Y96D02*
X1806Y96D01*
X1845Y96D02*
X1906Y96D01*
X1945Y96D02*
X2006Y96D01*
X2045Y96D02*
X2106Y96D01*
X1345Y95D02*
X1370Y95D01*
X1381Y95D02*
X1406Y95D01*
X1445Y95D02*
X1470Y95D01*
X1481Y95D02*
X1506Y95D01*
X1545Y95D02*
X1570Y95D01*
X1581Y95D02*
X1606Y95D01*
X1645Y95D02*
X1670Y95D01*
X1681Y95D02*
X1706Y95D01*
X1745Y95D02*
X1770Y95D01*
X1781Y95D02*
X1806Y95D01*
X1845Y95D02*
X1870Y95D01*
X1881Y95D02*
X1906Y95D01*
X1945Y95D02*
X1970Y95D01*
X1981Y95D02*
X2006Y95D01*
X2045Y95D02*
X2070Y95D01*
X2081Y95D02*
X2106Y95D01*
X1345Y94D02*
X1368Y94D01*
X1383Y94D02*
X1406Y94D01*
X1445Y94D02*
X1468Y94D01*
X1483Y94D02*
X1506Y94D01*
X1545Y94D02*
X1568Y94D01*
X1583Y94D02*
X1606Y94D01*
X1645Y94D02*
X1668Y94D01*
X1683Y94D02*
X1706Y94D01*
X1745Y94D02*
X1768Y94D01*
X1783Y94D02*
X1806Y94D01*
X1845Y94D02*
X1868Y94D01*
X1883Y94D02*
X1906Y94D01*
X1945Y94D02*
X1968Y94D01*
X1983Y94D02*
X2006Y94D01*
X2045Y94D02*
X2068Y94D01*
X2083Y94D02*
X2106Y94D01*
X1345Y93D02*
X1367Y93D01*
X1384Y93D02*
X1406Y93D01*
X1445Y93D02*
X1467Y93D01*
X1484Y93D02*
X1506Y93D01*
X1545Y93D02*
X1567Y93D01*
X1584Y93D02*
X1606Y93D01*
X1645Y93D02*
X1667Y93D01*
X1684Y93D02*
X1706Y93D01*
X1745Y93D02*
X1767Y93D01*
X1784Y93D02*
X1806Y93D01*
X1845Y93D02*
X1867Y93D01*
X1884Y93D02*
X1906Y93D01*
X1945Y93D02*
X1967Y93D01*
X1984Y93D02*
X2006Y93D01*
X2045Y93D02*
X2067Y93D01*
X2084Y93D02*
X2106Y93D01*
X1345Y92D02*
X1366Y92D01*
X1385Y92D02*
X1406Y92D01*
X1445Y92D02*
X1466Y92D01*
X1485Y92D02*
X1506Y92D01*
X1545Y92D02*
X1566Y92D01*
X1585Y92D02*
X1606Y92D01*
X1645Y92D02*
X1666Y92D01*
X1685Y92D02*
X1706Y92D01*
X1745Y92D02*
X1766Y92D01*
X1785Y92D02*
X1806Y92D01*
X1845Y92D02*
X1866Y92D01*
X1885Y92D02*
X1906Y92D01*
X1945Y92D02*
X1966Y92D01*
X1985Y92D02*
X2006Y92D01*
X2045Y92D02*
X2066Y92D01*
X2085Y92D02*
X2106Y92D01*
X1345Y91D02*
X1366Y91D01*
X1386Y91D02*
X1406Y91D01*
X1445Y91D02*
X1466Y91D01*
X1486Y91D02*
X1506Y91D01*
X1545Y91D02*
X1566Y91D01*
X1586Y91D02*
X1606Y91D01*
X1645Y91D02*
X1666Y91D01*
X1686Y91D02*
X1706Y91D01*
X1745Y91D02*
X1766Y91D01*
X1786Y91D02*
X1806Y91D01*
X1845Y91D02*
X1866Y91D01*
X1885Y91D02*
X1906Y91D01*
X1945Y91D02*
X1966Y91D01*
X1985Y91D02*
X2006Y91D01*
X2045Y91D02*
X2065Y91D01*
X2085Y91D02*
X2106Y91D01*
X1345Y90D02*
X1365Y90D01*
X1386Y90D02*
X1406Y90D01*
X1445Y90D02*
X1465Y90D01*
X1486Y90D02*
X1506Y90D01*
X1545Y90D02*
X1565Y90D01*
X1586Y90D02*
X1606Y90D01*
X1645Y90D02*
X1665Y90D01*
X1686Y90D02*
X1706Y90D01*
X1745Y90D02*
X1765Y90D01*
X1786Y90D02*
X1806Y90D01*
X1845Y90D02*
X1865Y90D01*
X1886Y90D02*
X1906Y90D01*
X1945Y90D02*
X1965Y90D01*
X1986Y90D02*
X2006Y90D01*
X2045Y90D02*
X2065Y90D01*
X2086Y90D02*
X2106Y90D01*
X1345Y89D02*
X1365Y89D01*
X1387Y89D02*
X1406Y89D01*
X1445Y89D02*
X1465Y89D01*
X1486Y89D02*
X1506Y89D01*
X1545Y89D02*
X1565Y89D01*
X1586Y89D02*
X1606Y89D01*
X1645Y89D02*
X1665Y89D01*
X1686Y89D02*
X1706Y89D01*
X1745Y89D02*
X1765Y89D01*
X1786Y89D02*
X1806Y89D01*
X1845Y89D02*
X1865Y89D01*
X1886Y89D02*
X1906Y89D01*
X1945Y89D02*
X1965Y89D01*
X1986Y89D02*
X2006Y89D01*
X2045Y89D02*
X2065Y89D01*
X2086Y89D02*
X2106Y89D01*
X1345Y88D02*
X1365Y88D01*
X1387Y88D02*
X1406Y88D01*
X1445Y88D02*
X1465Y88D01*
X1487Y88D02*
X1506Y88D01*
X1545Y88D02*
X1564Y88D01*
X1587Y88D02*
X1606Y88D01*
X1645Y88D02*
X1664Y88D01*
X1687Y88D02*
X1706Y88D01*
X1745Y88D02*
X1764Y88D01*
X1787Y88D02*
X1806Y88D01*
X1845Y88D02*
X1864Y88D01*
X1887Y88D02*
X1906Y88D01*
X1945Y88D02*
X1964Y88D01*
X1987Y88D02*
X2006Y88D01*
X2045Y88D02*
X2064Y88D01*
X2087Y88D02*
X2106Y88D01*
X1345Y87D02*
X1364Y87D01*
X1387Y87D02*
X1406Y87D01*
X1445Y87D02*
X1464Y87D01*
X1487Y87D02*
X1506Y87D01*
X1545Y87D02*
X1564Y87D01*
X1587Y87D02*
X1606Y87D01*
X1645Y87D02*
X1664Y87D01*
X1687Y87D02*
X1706Y87D01*
X1745Y87D02*
X1764Y87D01*
X1787Y87D02*
X1806Y87D01*
X1845Y87D02*
X1864Y87D01*
X1887Y87D02*
X1906Y87D01*
X1945Y87D02*
X1964Y87D01*
X1987Y87D02*
X2006Y87D01*
X2045Y87D02*
X2064Y87D01*
X2087Y87D02*
X2106Y87D01*
X1345Y86D02*
X1364Y86D01*
X1387Y86D02*
X1406Y86D01*
X1445Y86D02*
X1464Y86D01*
X1487Y86D02*
X1506Y86D01*
X1545Y86D02*
X1564Y86D01*
X1587Y86D02*
X1606Y86D01*
X1645Y86D02*
X1664Y86D01*
X1687Y86D02*
X1706Y86D01*
X1745Y86D02*
X1764Y86D01*
X1787Y86D02*
X1806Y86D01*
X1845Y86D02*
X1864Y86D01*
X1887Y86D02*
X1906Y86D01*
X1945Y86D02*
X1964Y86D01*
X1987Y86D02*
X2006Y86D01*
X2045Y86D02*
X2064Y86D01*
X2087Y86D02*
X2106Y86D01*
X1345Y85D02*
X1364Y85D01*
X1387Y85D02*
X1406Y85D01*
X1445Y85D02*
X1464Y85D01*
X1487Y85D02*
X1506Y85D01*
X1545Y85D02*
X1564Y85D01*
X1587Y85D02*
X1606Y85D01*
X1645Y85D02*
X1664Y85D01*
X1687Y85D02*
X1706Y85D01*
X1745Y85D02*
X1764Y85D01*
X1787Y85D02*
X1806Y85D01*
X1845Y85D02*
X1864Y85D01*
X1887Y85D02*
X1906Y85D01*
X1945Y85D02*
X1964Y85D01*
X1987Y85D02*
X2006Y85D01*
X2045Y85D02*
X2064Y85D01*
X2087Y85D02*
X2106Y85D01*
X1345Y84D02*
X1364Y84D01*
X1387Y84D02*
X1406Y84D01*
X1445Y84D02*
X1464Y84D01*
X1487Y84D02*
X1506Y84D01*
X1545Y84D02*
X1564Y84D01*
X1587Y84D02*
X1606Y84D01*
X1645Y84D02*
X1664Y84D01*
X1687Y84D02*
X1706Y84D01*
X1745Y84D02*
X1764Y84D01*
X1787Y84D02*
X1806Y84D01*
X1845Y84D02*
X1864Y84D01*
X1887Y84D02*
X1906Y84D01*
X1945Y84D02*
X1964Y84D01*
X1987Y84D02*
X2006Y84D01*
X2045Y84D02*
X2064Y84D01*
X2087Y84D02*
X2106Y84D01*
X1345Y83D02*
X1364Y83D01*
X1387Y83D02*
X1406Y83D01*
X1445Y83D02*
X1464Y83D01*
X1487Y83D02*
X1506Y83D01*
X1545Y83D02*
X1564Y83D01*
X1587Y83D02*
X1606Y83D01*
X1645Y83D02*
X1664Y83D01*
X1687Y83D02*
X1706Y83D01*
X1745Y83D02*
X1764Y83D01*
X1787Y83D02*
X1806Y83D01*
X1845Y83D02*
X1864Y83D01*
X1887Y83D02*
X1906Y83D01*
X1945Y83D02*
X1964Y83D01*
X1987Y83D02*
X2006Y83D01*
X2045Y83D02*
X2064Y83D01*
X2087Y83D02*
X2106Y83D01*
X1345Y82D02*
X1364Y82D01*
X1387Y82D02*
X1406Y82D01*
X1445Y82D02*
X1464Y82D01*
X1487Y82D02*
X1506Y82D01*
X1545Y82D02*
X1564Y82D01*
X1587Y82D02*
X1606Y82D01*
X1645Y82D02*
X1664Y82D01*
X1687Y82D02*
X1706Y82D01*
X1745Y82D02*
X1764Y82D01*
X1787Y82D02*
X1806Y82D01*
X1845Y82D02*
X1864Y82D01*
X1887Y82D02*
X1906Y82D01*
X1945Y82D02*
X1964Y82D01*
X1987Y82D02*
X2006Y82D01*
X2045Y82D02*
X2064Y82D01*
X2087Y82D02*
X2106Y82D01*
X1345Y81D02*
X1365Y81D01*
X1387Y81D02*
X1406Y81D01*
X1445Y81D02*
X1465Y81D01*
X1487Y81D02*
X1506Y81D01*
X1545Y81D02*
X1565Y81D01*
X1586Y81D02*
X1606Y81D01*
X1645Y81D02*
X1665Y81D01*
X1686Y81D02*
X1706Y81D01*
X1745Y81D02*
X1765Y81D01*
X1786Y81D02*
X1806Y81D01*
X1845Y81D02*
X1865Y81D01*
X1886Y81D02*
X1906Y81D01*
X1945Y81D02*
X1965Y81D01*
X1986Y81D02*
X2006Y81D01*
X2045Y81D02*
X2065Y81D01*
X2086Y81D02*
X2106Y81D01*
X1345Y80D02*
X1365Y80D01*
X1386Y80D02*
X1406Y80D01*
X1445Y80D02*
X1465Y80D01*
X1486Y80D02*
X1506Y80D01*
X1545Y80D02*
X1565Y80D01*
X1586Y80D02*
X1606Y80D01*
X1645Y80D02*
X1665Y80D01*
X1686Y80D02*
X1706Y80D01*
X1745Y80D02*
X1765Y80D01*
X1786Y80D02*
X1806Y80D01*
X1845Y80D02*
X1865Y80D01*
X1886Y80D02*
X1906Y80D01*
X1945Y80D02*
X1965Y80D01*
X1986Y80D02*
X2006Y80D01*
X2045Y80D02*
X2065Y80D01*
X2086Y80D02*
X2106Y80D01*
X1345Y79D02*
X1366Y79D01*
X1386Y79D02*
X1406Y79D01*
X1445Y79D02*
X1466Y79D01*
X1486Y79D02*
X1506Y79D01*
X1545Y79D02*
X1566Y79D01*
X1586Y79D02*
X1606Y79D01*
X1645Y79D02*
X1666Y79D01*
X1686Y79D02*
X1706Y79D01*
X1745Y79D02*
X1765Y79D01*
X1786Y79D02*
X1806Y79D01*
X1845Y79D02*
X1865Y79D01*
X1886Y79D02*
X1906Y79D01*
X1945Y79D02*
X1965Y79D01*
X1986Y79D02*
X2006Y79D01*
X2045Y79D02*
X2065Y79D01*
X2086Y79D02*
X2106Y79D01*
X1345Y78D02*
X1366Y78D01*
X1385Y78D02*
X1406Y78D01*
X1445Y78D02*
X1466Y78D01*
X1485Y78D02*
X1506Y78D01*
X1545Y78D02*
X1566Y78D01*
X1585Y78D02*
X1606Y78D01*
X1645Y78D02*
X1666Y78D01*
X1685Y78D02*
X1706Y78D01*
X1745Y78D02*
X1766Y78D01*
X1785Y78D02*
X1806Y78D01*
X1845Y78D02*
X1866Y78D01*
X1885Y78D02*
X1906Y78D01*
X1945Y78D02*
X1966Y78D01*
X1985Y78D02*
X2006Y78D01*
X2045Y78D02*
X2066Y78D01*
X2085Y78D02*
X2106Y78D01*
X1345Y77D02*
X1367Y77D01*
X1384Y77D02*
X1406Y77D01*
X1445Y77D02*
X1467Y77D01*
X1484Y77D02*
X1506Y77D01*
X1545Y77D02*
X1567Y77D01*
X1584Y77D02*
X1606Y77D01*
X1645Y77D02*
X1667Y77D01*
X1684Y77D02*
X1706Y77D01*
X1745Y77D02*
X1767Y77D01*
X1784Y77D02*
X1806Y77D01*
X1845Y77D02*
X1867Y77D01*
X1884Y77D02*
X1906Y77D01*
X1945Y77D02*
X1967Y77D01*
X1984Y77D02*
X2006Y77D01*
X2045Y77D02*
X2067Y77D01*
X2084Y77D02*
X2106Y77D01*
X1345Y76D02*
X1368Y76D01*
X1383Y76D02*
X1406Y76D01*
X1445Y76D02*
X1468Y76D01*
X1483Y76D02*
X1506Y76D01*
X1545Y76D02*
X1568Y76D01*
X1583Y76D02*
X1606Y76D01*
X1645Y76D02*
X1668Y76D01*
X1683Y76D02*
X1706Y76D01*
X1745Y76D02*
X1768Y76D01*
X1783Y76D02*
X1806Y76D01*
X1845Y76D02*
X1868Y76D01*
X1883Y76D02*
X1906Y76D01*
X1945Y76D02*
X1968Y76D01*
X1983Y76D02*
X2006Y76D01*
X2045Y76D02*
X2068Y76D01*
X2083Y76D02*
X2106Y76D01*
X1345Y75D02*
X1370Y75D01*
X1381Y75D02*
X1406Y75D01*
X1445Y75D02*
X1470Y75D01*
X1481Y75D02*
X1506Y75D01*
X1545Y75D02*
X1570Y75D01*
X1581Y75D02*
X1606Y75D01*
X1645Y75D02*
X1670Y75D01*
X1681Y75D02*
X1706Y75D01*
X1745Y75D02*
X1770Y75D01*
X1781Y75D02*
X1806Y75D01*
X1845Y75D02*
X1870Y75D01*
X1881Y75D02*
X1906Y75D01*
X1945Y75D02*
X1970Y75D01*
X1981Y75D02*
X2006Y75D01*
X2045Y75D02*
X2070Y75D01*
X2081Y75D02*
X2106Y75D01*
X1345Y74D02*
X1374Y74D01*
X1377Y74D02*
X1406Y74D01*
X1445Y74D02*
X1474Y74D01*
X1477Y74D02*
X1506Y74D01*
X1545Y74D02*
X1574Y74D01*
X1577Y74D02*
X1606Y74D01*
X1645Y74D02*
X1674Y74D01*
X1677Y74D02*
X1706Y74D01*
X1745Y74D02*
X1774Y74D01*
X1777Y74D02*
X1806Y74D01*
X1845Y74D02*
X1874Y74D01*
X1877Y74D02*
X1906Y74D01*
X1945Y74D02*
X1974Y74D01*
X1977Y74D02*
X2006Y74D01*
X2045Y74D02*
X2074Y74D01*
X2077Y74D02*
X2106Y74D01*
X1345Y73D02*
X1406Y73D01*
X1445Y73D02*
X1506Y73D01*
X1545Y73D02*
X1606Y73D01*
X1645Y73D02*
X1706Y73D01*
X1745Y73D02*
X1806Y73D01*
X1845Y73D02*
X1906Y73D01*
X1945Y73D02*
X2006Y73D01*
X2045Y73D02*
X2106Y73D01*
X1345Y72D02*
X1406Y72D01*
X1445Y72D02*
X1506Y72D01*
X1545Y72D02*
X1606Y72D01*
X1645Y72D02*
X1706Y72D01*
X1745Y72D02*
X1806Y72D01*
X1845Y72D02*
X1906Y72D01*
X1945Y72D02*
X2006Y72D01*
X2045Y72D02*
X2106Y72D01*
X1345Y71D02*
X1406Y71D01*
X1445Y71D02*
X1506Y71D01*
X1545Y71D02*
X1606Y71D01*
X1645Y71D02*
X1706Y71D01*
X1745Y71D02*
X1806Y71D01*
X1845Y71D02*
X1906Y71D01*
X1945Y71D02*
X2006Y71D01*
X2045Y71D02*
X2106Y71D01*
X1345Y70D02*
X1406Y70D01*
X1445Y70D02*
X1506Y70D01*
X1545Y70D02*
X1606Y70D01*
X1645Y70D02*
X1706Y70D01*
X1745Y70D02*
X1806Y70D01*
X1845Y70D02*
X1906Y70D01*
X1945Y70D02*
X2006Y70D01*
X2045Y70D02*
X2106Y70D01*
X1345Y69D02*
X1406Y69D01*
X1445Y69D02*
X1506Y69D01*
X1545Y69D02*
X1606Y69D01*
X1645Y69D02*
X1706Y69D01*
X1745Y69D02*
X1806Y69D01*
X1845Y69D02*
X1906Y69D01*
X1945Y69D02*
X2006Y69D01*
X2045Y69D02*
X2106Y69D01*
X1345Y68D02*
X1406Y68D01*
X1445Y68D02*
X1506Y68D01*
X1545Y68D02*
X1606Y68D01*
X1645Y68D02*
X1706Y68D01*
X1745Y68D02*
X1806Y68D01*
X1845Y68D02*
X1906Y68D01*
X1945Y68D02*
X2006Y68D01*
X2045Y68D02*
X2106Y68D01*
X1345Y67D02*
X1406Y67D01*
X1445Y67D02*
X1506Y67D01*
X1545Y67D02*
X1606Y67D01*
X1645Y67D02*
X1706Y67D01*
X1745Y67D02*
X1806Y67D01*
X1845Y67D02*
X1906Y67D01*
X1945Y67D02*
X2006Y67D01*
X2045Y67D02*
X2106Y67D01*
X1345Y66D02*
X1406Y66D01*
X1445Y66D02*
X1506Y66D01*
X1545Y66D02*
X1606Y66D01*
X1645Y66D02*
X1706Y66D01*
X1745Y66D02*
X1806Y66D01*
X1845Y66D02*
X1906Y66D01*
X1945Y66D02*
X2006Y66D01*
X2045Y66D02*
X2106Y66D01*
X1345Y65D02*
X1406Y65D01*
X1445Y65D02*
X1506Y65D01*
X1545Y65D02*
X1606Y65D01*
X1645Y65D02*
X1706Y65D01*
X1745Y65D02*
X1806Y65D01*
X1845Y65D02*
X1906Y65D01*
X1945Y65D02*
X2006Y65D01*
X2045Y65D02*
X2106Y65D01*
X1345Y64D02*
X1406Y64D01*
X1445Y64D02*
X1506Y64D01*
X1545Y64D02*
X1606Y64D01*
X1645Y64D02*
X1706Y64D01*
X1745Y64D02*
X1806Y64D01*
X1845Y64D02*
X1906Y64D01*
X1945Y64D02*
X2006Y64D01*
X2045Y64D02*
X2106Y64D01*
X1345Y63D02*
X1406Y63D01*
X1445Y63D02*
X1506Y63D01*
X1545Y63D02*
X1606Y63D01*
X1645Y63D02*
X1706Y63D01*
X1745Y63D02*
X1806Y63D01*
X1845Y63D02*
X1906Y63D01*
X1945Y63D02*
X2006Y63D01*
X2045Y63D02*
X2106Y63D01*
X1345Y62D02*
X1406Y62D01*
X1445Y62D02*
X1506Y62D01*
X1545Y62D02*
X1606Y62D01*
X1645Y62D02*
X1706Y62D01*
X1745Y62D02*
X1806Y62D01*
X1845Y62D02*
X1906Y62D01*
X1945Y62D02*
X2006Y62D01*
X2045Y62D02*
X2106Y62D01*
X1345Y61D02*
X1406Y61D01*
X1445Y61D02*
X1506Y61D01*
X1545Y61D02*
X1606Y61D01*
X1645Y61D02*
X1706Y61D01*
X1745Y61D02*
X1806Y61D01*
X1845Y61D02*
X1906Y61D01*
X1945Y61D02*
X2006Y61D01*
X2045Y61D02*
X2106Y61D01*
X1345Y60D02*
X1406Y60D01*
X1445Y60D02*
X1506Y60D01*
X1545Y60D02*
X1606Y60D01*
X1645Y60D02*
X1706Y60D01*
X1745Y60D02*
X1806Y60D01*
X1845Y60D02*
X1906Y60D01*
X1945Y60D02*
X2006Y60D01*
X2045Y60D02*
X2106Y60D01*
X1345Y59D02*
X1406Y59D01*
X1445Y59D02*
X1506Y59D01*
X1545Y59D02*
X1606Y59D01*
X1645Y59D02*
X1706Y59D01*
X1745Y59D02*
X1806Y59D01*
X1845Y59D02*
X1906Y59D01*
X1945Y59D02*
X2006Y59D01*
X2045Y59D02*
X2106Y59D01*
X1345Y58D02*
X1406Y58D01*
X1445Y58D02*
X1506Y58D01*
X1545Y58D02*
X1606Y58D01*
X1645Y58D02*
X1706Y58D01*
X1745Y58D02*
X1806Y58D01*
X1845Y58D02*
X1906Y58D01*
X1945Y58D02*
X2006Y58D01*
X2045Y58D02*
X2106Y58D01*
X1345Y57D02*
X1406Y57D01*
X1445Y57D02*
X1506Y57D01*
X1545Y57D02*
X1606Y57D01*
X1645Y57D02*
X1706Y57D01*
X1745Y57D02*
X1806Y57D01*
X1845Y57D02*
X1906Y57D01*
X1945Y57D02*
X2006Y57D01*
X2045Y57D02*
X2106Y57D01*
X1345Y56D02*
X1406Y56D01*
X1445Y56D02*
X1506Y56D01*
X1545Y56D02*
X1606Y56D01*
X1645Y56D02*
X1706Y56D01*
X1745Y56D02*
X1806Y56D01*
X1845Y56D02*
X1906Y56D01*
X1945Y56D02*
X2006Y56D01*
X2045Y56D02*
X2106Y56D01*
X1345Y55D02*
X1406Y55D01*
X1445Y55D02*
X1506Y55D01*
X1545Y55D02*
X1606Y55D01*
X1645Y55D02*
X1706Y55D01*
X1745Y55D02*
X1806Y55D01*
X1845Y55D02*
X1906Y55D01*
X1945Y55D02*
X2006Y55D01*
X2045Y55D02*
X2106Y55D01*
X1346Y54D02*
X1406Y54D01*
X1446Y54D02*
X1506Y54D01*
X1546Y54D02*
X1606Y54D01*
X1646Y54D02*
X1706Y54D01*
X1746Y54D02*
X1806Y54D01*
X1845Y54D02*
X1906Y54D01*
X1945Y54D02*
X2006Y54D01*
X2045Y54D02*
X2105Y54D01*
X1346Y53D02*
X1405Y53D01*
X1446Y53D02*
X1505Y53D01*
X1546Y53D02*
X1605Y53D01*
X1646Y53D02*
X1705Y53D01*
X1746Y53D02*
X1805Y53D01*
X1846Y53D02*
X1905Y53D01*
X1946Y53D02*
X2005Y53D01*
X2046Y53D02*
X2105Y53D01*
X1346Y52D02*
X1405Y52D01*
X1446Y52D02*
X1505Y52D01*
X1546Y52D02*
X1605Y52D01*
X1646Y52D02*
X1705Y52D01*
X1746Y52D02*
X1805Y52D01*
X1846Y52D02*
X1905Y52D01*
X1946Y52D02*
X2005Y52D01*
X2046Y52D02*
X2105Y52D01*
X1346Y51D02*
X1405Y51D01*
X1446Y51D02*
X1505Y51D01*
X1546Y51D02*
X1605Y51D01*
X1646Y51D02*
X1705Y51D01*
X1746Y51D02*
X1805Y51D01*
X1846Y51D02*
X1905Y51D01*
X1946Y51D02*
X2005Y51D01*
X2046Y51D02*
X2105Y51D01*
X1347Y50D02*
X1405Y50D01*
X1447Y50D02*
X1505Y50D01*
X1547Y50D02*
X1605Y50D01*
X1647Y50D02*
X1705Y50D01*
X1746Y50D02*
X1805Y50D01*
X1846Y50D02*
X1905Y50D01*
X1946Y50D02*
X2005Y50D01*
X2046Y50D02*
X2104Y50D01*
X1347Y49D02*
X1404Y49D01*
X1447Y49D02*
X1504Y49D01*
X1547Y49D02*
X1604Y49D01*
X1647Y49D02*
X1704Y49D01*
X1747Y49D02*
X1804Y49D01*
X1847Y49D02*
X1904Y49D01*
X1947Y49D02*
X2004Y49D01*
X2047Y49D02*
X2104Y49D01*
X1347Y48D02*
X1404Y48D01*
X1447Y48D02*
X1504Y48D01*
X1547Y48D02*
X1604Y48D01*
X1647Y48D02*
X1704Y48D01*
X1747Y48D02*
X1804Y48D01*
X1847Y48D02*
X1904Y48D01*
X1947Y48D02*
X2004Y48D01*
X2047Y48D02*
X2104Y48D01*
X1348Y47D02*
X1404Y47D01*
X1448Y47D02*
X1503Y47D01*
X1548Y47D02*
X1603Y47D01*
X1648Y47D02*
X1703Y47D01*
X1748Y47D02*
X1803Y47D01*
X1848Y47D02*
X1903Y47D01*
X1948Y47D02*
X2003Y47D01*
X2048Y47D02*
X2103Y47D01*
X1348Y46D02*
X1403Y46D01*
X1448Y46D02*
X1503Y46D01*
X1548Y46D02*
X1603Y46D01*
X1648Y46D02*
X1703Y46D01*
X1748Y46D02*
X1803Y46D01*
X1848Y46D02*
X1903Y46D01*
X1948Y46D02*
X2003Y46D01*
X2048Y46D02*
X2103Y46D01*
X1349Y45D02*
X1403Y45D01*
X1449Y45D02*
X1502Y45D01*
X1549Y45D02*
X1602Y45D01*
X1649Y45D02*
X1702Y45D01*
X1749Y45D02*
X1802Y45D01*
X1849Y45D02*
X1902Y45D01*
X1949Y45D02*
X2002Y45D01*
X2049Y45D02*
X2102Y45D01*
X1349Y44D02*
X1402Y44D01*
X1449Y44D02*
X1502Y44D01*
X1549Y44D02*
X1602Y44D01*
X1649Y44D02*
X1702Y44D01*
X1749Y44D02*
X1802Y44D01*
X1849Y44D02*
X1902Y44D01*
X1949Y44D02*
X2002Y44D01*
X2049Y44D02*
X2102Y44D01*
X1350Y43D02*
X1401Y43D01*
X1450Y43D02*
X1501Y43D01*
X1550Y43D02*
X1601Y43D01*
X1650Y43D02*
X1701Y43D01*
X1750Y43D02*
X1801Y43D01*
X1850Y43D02*
X1901Y43D01*
X1950Y43D02*
X2001Y43D01*
X2050Y43D02*
X2101Y43D01*
X1351Y42D02*
X1401Y42D01*
X1451Y42D02*
X1501Y42D01*
X1551Y42D02*
X1601Y42D01*
X1650Y42D02*
X1701Y42D01*
X1750Y42D02*
X1801Y42D01*
X1850Y42D02*
X1901Y42D01*
X1950Y42D02*
X2001Y42D01*
X2050Y42D02*
X2101Y42D01*
X1351Y41D02*
X1400Y41D01*
X1451Y41D02*
X1500Y41D01*
X1551Y41D02*
X1600Y41D01*
X1651Y41D02*
X1700Y41D01*
X1751Y41D02*
X1800Y41D01*
X1851Y41D02*
X1900Y41D01*
X1951Y41D02*
X2000Y41D01*
X2051Y41D02*
X2100Y41D01*
X1352Y40D02*
X1399Y40D01*
X1452Y40D02*
X1499Y40D01*
X1552Y40D02*
X1599Y40D01*
X1652Y40D02*
X1699Y40D01*
X1752Y40D02*
X1799Y40D01*
X1852Y40D02*
X1899Y40D01*
X1952Y40D02*
X1999Y40D01*
X2052Y40D02*
X2099Y40D01*
X1353Y39D02*
X1398Y39D01*
X1453Y39D02*
X1498Y39D01*
X1553Y39D02*
X1598Y39D01*
X1653Y39D02*
X1698Y39D01*
X1753Y39D02*
X1798Y39D01*
X1853Y39D02*
X1898Y39D01*
X1953Y39D02*
X1998Y39D01*
X2053Y39D02*
X2098Y39D01*
X1354Y38D02*
X1397Y38D01*
X1454Y38D02*
X1497Y38D01*
X1554Y38D02*
X1597Y38D01*
X1654Y38D02*
X1697Y38D01*
X1754Y38D02*
X1797Y38D01*
X1854Y38D02*
X1897Y38D01*
X1954Y38D02*
X1997Y38D01*
X2054Y38D02*
X2097Y38D01*
X1355Y37D02*
X1397Y37D01*
X1455Y37D02*
X1496Y37D01*
X1555Y37D02*
X1596Y37D01*
X1655Y37D02*
X1696Y37D01*
X1755Y37D02*
X1796Y37D01*
X1855Y37D02*
X1896Y37D01*
X1955Y37D02*
X1996Y37D01*
X2055Y37D02*
X2096Y37D01*
X1356Y36D02*
X1395Y36D01*
X1456Y36D02*
X1495Y36D01*
X1556Y36D02*
X1595Y36D01*
X1656Y36D02*
X1695Y36D01*
X1756Y36D02*
X1795Y36D01*
X1856Y36D02*
X1895Y36D01*
X1956Y36D02*
X1995Y36D01*
X2056Y36D02*
X2095Y36D01*
X1357Y35D02*
X1394Y35D01*
X1457Y35D02*
X1494Y35D01*
X1557Y35D02*
X1594Y35D01*
X1657Y35D02*
X1694Y35D01*
X1757Y35D02*
X1794Y35D01*
X1857Y35D02*
X1894Y35D01*
X1957Y35D02*
X1994Y35D01*
X2057Y35D02*
X2094Y35D01*
X1358Y34D02*
X1393Y34D01*
X1458Y34D02*
X1493Y34D01*
X1558Y34D02*
X1593Y34D01*
X1658Y34D02*
X1693Y34D01*
X1758Y34D02*
X1793Y34D01*
X1858Y34D02*
X1893Y34D01*
X1958Y34D02*
X1993Y34D01*
X2058Y34D02*
X2093Y34D01*
X1360Y33D02*
X1391Y33D01*
X1460Y33D02*
X1491Y33D01*
X1560Y33D02*
X1591Y33D01*
X1660Y33D02*
X1691Y33D01*
X1760Y33D02*
X1791Y33D01*
X1860Y33D02*
X1891Y33D01*
X1960Y33D02*
X1991Y33D01*
X2060Y33D02*
X2091Y33D01*
X1361Y32D02*
X1390Y32D01*
X1461Y32D02*
X1490Y32D01*
X1561Y32D02*
X1590Y32D01*
X1661Y32D02*
X1690Y32D01*
X1761Y32D02*
X1790Y32D01*
X1861Y32D02*
X1890Y32D01*
X1961Y32D02*
X1990Y32D01*
X2061Y32D02*
X2090Y32D01*
X1363Y31D02*
X1388Y31D01*
X1463Y31D02*
X1488Y31D01*
X1563Y31D02*
X1588Y31D01*
X1663Y31D02*
X1688Y31D01*
X1763Y31D02*
X1788Y31D01*
X1863Y31D02*
X1888Y31D01*
X1963Y31D02*
X1988Y31D01*
X2063Y31D02*
X2088Y31D01*
X1366Y30D02*
X1386Y30D01*
X1466Y30D02*
X1486Y30D01*
X1566Y30D02*
X1586Y30D01*
X1666Y30D02*
X1686Y30D01*
X1766Y30D02*
X1786Y30D01*
X1866Y30D02*
X1886Y30D01*
X1965Y30D02*
X1986Y30D01*
X2065Y30D02*
X2085Y30D01*
X1369Y29D02*
X1383Y29D01*
X1469Y29D02*
X1483Y29D01*
X1569Y29D02*
X1583Y29D01*
X1669Y29D02*
X1683Y29D01*
X1769Y29D02*
X1783Y29D01*
X1869Y29D02*
X1882Y29D01*
X1969Y29D02*
X1982Y29D01*
X2068Y29D02*
X2082Y29D01*
X1375Y28D02*
X1376Y28D01*
X1475Y28D02*
X1476Y28D01*
X1575Y28D02*
X1576Y28D01*
X1675Y28D02*
X1676Y28D01*
X1775Y28D02*
X1776Y28D01*
X1875Y28D02*
X1876Y28D01*
X1975Y28D02*
X1976Y28D01*
X2075Y28D02*
X2076Y28D01*
D02*
G04 End of Mask0*
M02*