; NON-PLATED HOLES START AT T1
; THROUGH (PLATED) HOLES START AT T100
M48
INCH
T100C0.032000
T101C0.031497
T102C0.030000
T103C0.038000
T104C0.038492
T105C0.040000
T106C0.130000
T107C0.035000
%
T100
X018765Y000834
X015765Y003834
X014765Y003834
X015765Y000834
X014765Y000834
X019765Y003834
X019765Y000834
X017765Y003834
X020765Y003834
X016765Y003834
X017765Y000834
X020765Y000834
X016765Y000834
X013765Y003834
X013765Y000834
X018765Y003834
T101
X013531Y011084
X014515Y011084
T102
X015765Y011834
X016765Y011834
X019765Y010832
X018765Y010834
X020765Y010832
X019765Y011834
X018765Y011836
X020765Y011834
X015765Y010832
X016765Y010832
T103
X003765Y000834
X004765Y011834
X002765Y011834
X000765Y000834
X001765Y011834
X008765Y000834
X009765Y011834
X011765Y000834
X007765Y011834
X010765Y011834
X005765Y000834
X006765Y011834
X004765Y000834
X002765Y000834
X003765Y011834
X001765Y000834
X000765Y011834
X009765Y000834
X007765Y000834
X008765Y011834
X010765Y000834
X011765Y011834
X006765Y000834
X005765Y011834
T104
X007765Y003334
X003765Y009334
X010765Y003334
X006765Y003334
X011765Y007334
X000765Y009334
X011765Y004334
X003765Y003334
X004765Y004334
X000765Y003334
X008765Y009334
X011765Y009334
X011765Y006334
X005765Y009334
X008765Y003334
X004765Y009334
X011765Y003334
X002765Y009334
X005765Y003334
X001765Y009334
X004765Y003334
X011765Y008334
X002765Y003334
X001765Y003334
X011765Y005334
X009765Y009334
X004765Y008334
X007765Y009334
X010765Y009334
X006765Y009334
X009765Y003334
T105
X024265Y007925
X023147Y008472
X024265Y004657
X023147Y004110
X024265Y005747
X023147Y006291
X024265Y006834
X023147Y005200
X023147Y007381
T106
X023706Y011212
X023706Y001370
T107
X013015Y005584
X014787Y005584
X013015Y008143
X014787Y008143
T00
M30
