G04 MADE WITH FRITZING*
G04 WWW.FRITZING.ORG*
G04 DOUBLE SIDED*
G04 HOLES PLATED*
G04 CONTOUR ON CENTER OF CONTOUR VECTOR*
%ASAXBY*%
%FSLAX23Y23*%
%MOIN*%
%OFA0B0*%
%SFA1.0B1.0*%
%ADD10C,0.075000*%
%ADD11C,0.062992*%
%ADD12C,0.078000*%
%ADD13C,0.072892*%
%ADD14C,0.052000*%
%ADD15C,0.074000*%
%ADD16C,0.200000*%
%ADD17C,0.070000*%
%ADD18R,0.062992X0.062992*%
%ADD19C,0.024000*%
%ADD20R,0.001000X0.001000*%
%LNCOPPER1*%
G90*
G70*
G54D10*
X2166Y1153D03*
X1271Y992D03*
X2061Y780D03*
X118Y836D03*
X120Y227D03*
X1574Y194D03*
X1302Y558D03*
X1302Y814D03*
X1479Y558D03*
X1479Y814D03*
G54D11*
X1353Y1108D03*
X1452Y1108D03*
G54D12*
X77Y1183D03*
X177Y1183D03*
X277Y1183D03*
X377Y1183D03*
X477Y1183D03*
X577Y1183D03*
X677Y1183D03*
X777Y1183D03*
X877Y1183D03*
X977Y1183D03*
X1077Y1183D03*
X1177Y1183D03*
X77Y83D03*
X177Y83D03*
X277Y83D03*
X377Y83D03*
X477Y83D03*
X577Y83D03*
X677Y83D03*
X777Y83D03*
X877Y83D03*
X977Y83D03*
X1077Y83D03*
X1177Y83D03*
G54D13*
X77Y333D03*
X477Y833D03*
X177Y333D03*
X277Y333D03*
X377Y333D03*
X477Y333D03*
X977Y933D03*
X877Y933D03*
X777Y933D03*
X577Y333D03*
X1077Y333D03*
X1177Y333D03*
X677Y333D03*
X777Y333D03*
X877Y333D03*
X977Y333D03*
X1177Y833D03*
X1177Y433D03*
X1177Y933D03*
X1077Y933D03*
X477Y433D03*
X177Y933D03*
X277Y933D03*
X377Y933D03*
X477Y933D03*
X577Y933D03*
X677Y933D03*
X1177Y633D03*
X1177Y533D03*
X1177Y733D03*
X77Y933D03*
G54D14*
X2077Y383D03*
X1977Y383D03*
X1877Y383D03*
X1777Y383D03*
X1677Y383D03*
X1577Y383D03*
X1477Y383D03*
X1377Y383D03*
X1377Y83D03*
X1477Y83D03*
X1577Y83D03*
X1677Y83D03*
X1777Y83D03*
X1877Y83D03*
X1977Y83D03*
X2077Y83D03*
X2077Y383D03*
X1977Y383D03*
X1877Y383D03*
X1777Y383D03*
X1677Y383D03*
X1577Y383D03*
X1477Y383D03*
X1377Y383D03*
X1377Y83D03*
X1477Y83D03*
X1577Y83D03*
X1677Y83D03*
X1777Y83D03*
X1877Y83D03*
X1977Y83D03*
X2077Y83D03*
G54D15*
X2315Y847D03*
X2315Y738D03*
X2315Y629D03*
X2315Y520D03*
X2315Y411D03*
X2427Y793D03*
X2427Y683D03*
X2427Y575D03*
X2427Y466D03*
G54D16*
X2371Y1121D03*
X2371Y137D03*
G54D15*
X2315Y847D03*
X2315Y738D03*
X2315Y629D03*
X2315Y520D03*
X2315Y411D03*
X2427Y793D03*
X2427Y683D03*
X2427Y575D03*
X2427Y466D03*
G54D16*
X2371Y1121D03*
X2371Y137D03*
G54D17*
X1877Y1083D03*
X1877Y1184D03*
X1977Y1183D03*
X1977Y1083D03*
X1577Y1183D03*
X1577Y1083D03*
X1677Y1183D03*
X1677Y1083D03*
X2077Y1183D03*
X2077Y1083D03*
G54D18*
X1353Y1108D03*
G54D19*
X1301Y1183D02*
X1207Y1183D01*
D02*
X1338Y1130D02*
X1301Y1183D01*
D02*
X2050Y1183D02*
X2003Y1183D01*
D02*
X2175Y959D02*
X2290Y867D01*
D02*
X2175Y1183D02*
X2175Y959D01*
D02*
X2103Y1183D02*
X2175Y1183D01*
D02*
X1554Y1170D02*
X1475Y1122D01*
D02*
X1477Y1059D02*
X1464Y1085D01*
D02*
X1477Y633D02*
X1207Y633D01*
D02*
X1478Y587D02*
X1477Y633D01*
D02*
X1479Y843D02*
X1477Y1059D01*
D02*
X477Y1153D02*
X477Y964D01*
D02*
X377Y1153D02*
X377Y964D01*
D02*
X277Y1153D02*
X277Y964D01*
D02*
X177Y1153D02*
X177Y964D01*
D02*
X77Y1153D02*
X77Y964D01*
D02*
X77Y634D02*
X1146Y633D01*
D02*
X77Y364D02*
X77Y634D01*
D02*
X1177Y1153D02*
X1177Y964D01*
D02*
X1077Y1153D02*
X1077Y964D01*
D02*
X977Y1153D02*
X977Y964D01*
D02*
X877Y1153D02*
X877Y964D01*
D02*
X777Y1153D02*
X777Y964D01*
D02*
X677Y1153D02*
X677Y964D01*
D02*
X577Y1153D02*
X577Y964D01*
D02*
X1377Y184D02*
X1377Y111D01*
D02*
X878Y182D02*
X1377Y184D01*
D02*
X877Y303D02*
X878Y182D01*
D02*
X1477Y234D02*
X976Y235D01*
D02*
X976Y235D02*
X976Y303D01*
D02*
X1477Y111D02*
X1477Y234D01*
D02*
X1877Y1057D02*
X1877Y411D01*
D02*
X1977Y411D02*
X1977Y1057D01*
D02*
X1577Y1057D02*
X1577Y411D01*
D02*
X1777Y1183D02*
X1777Y411D01*
D02*
X1703Y1183D02*
X1777Y1183D01*
D02*
X1677Y1057D02*
X1677Y411D01*
D02*
X2177Y784D02*
X2178Y182D01*
D02*
X2076Y883D02*
X2177Y784D01*
D02*
X2178Y182D02*
X2096Y102D01*
D02*
X2076Y1057D02*
X2076Y883D01*
D02*
X2078Y284D02*
X1277Y284D01*
D02*
X1277Y284D02*
X1277Y432D01*
D02*
X1277Y432D02*
X1198Y512D01*
D02*
X2077Y111D02*
X2078Y284D01*
G36*
X1792Y1219D02*
X1792Y1199D01*
X1794Y1199D01*
X1794Y1197D01*
X1796Y1197D01*
X1796Y1193D01*
X1798Y1193D01*
X1798Y1185D01*
X1800Y1185D01*
X1800Y951D01*
X1798Y951D01*
X1798Y437D01*
X1800Y437D01*
X1800Y435D01*
X1802Y435D01*
X1802Y433D01*
X1804Y433D01*
X1804Y431D01*
X1806Y431D01*
X1806Y427D01*
X1808Y427D01*
X1808Y425D01*
X1810Y425D01*
X1810Y419D01*
X1812Y419D01*
X1812Y349D01*
X1810Y349D01*
X1810Y343D01*
X1808Y343D01*
X1808Y339D01*
X1806Y339D01*
X1806Y337D01*
X1804Y337D01*
X1804Y335D01*
X1802Y335D01*
X1802Y333D01*
X1800Y333D01*
X1800Y331D01*
X1798Y331D01*
X1798Y329D01*
X1796Y329D01*
X1796Y327D01*
X1792Y327D01*
X1792Y307D01*
X1860Y307D01*
X1860Y327D01*
X1858Y327D01*
X1858Y329D01*
X1854Y329D01*
X1854Y331D01*
X1852Y331D01*
X1852Y333D01*
X1850Y333D01*
X1850Y335D01*
X1848Y335D01*
X1848Y339D01*
X1846Y339D01*
X1846Y341D01*
X1844Y341D01*
X1844Y345D01*
X1842Y345D01*
X1842Y353D01*
X1840Y353D01*
X1840Y413D01*
X1842Y413D01*
X1842Y421D01*
X1844Y421D01*
X1844Y425D01*
X1846Y425D01*
X1846Y429D01*
X1848Y429D01*
X1848Y431D01*
X1850Y431D01*
X1850Y433D01*
X1852Y433D01*
X1852Y435D01*
X1854Y435D01*
X1854Y1047D01*
X1852Y1047D01*
X1852Y1049D01*
X1850Y1049D01*
X1850Y1051D01*
X1846Y1051D01*
X1846Y1053D01*
X1844Y1053D01*
X1844Y1057D01*
X1842Y1057D01*
X1842Y1059D01*
X1840Y1059D01*
X1840Y1061D01*
X1838Y1061D01*
X1838Y1065D01*
X1836Y1065D01*
X1836Y1069D01*
X1834Y1069D01*
X1834Y1075D01*
X1832Y1075D01*
X1832Y1093D01*
X1834Y1093D01*
X1834Y1099D01*
X1836Y1099D01*
X1836Y1103D01*
X1838Y1103D01*
X1838Y1107D01*
X1840Y1107D01*
X1840Y1109D01*
X1842Y1109D01*
X1842Y1111D01*
X1844Y1111D01*
X1844Y1113D01*
X1846Y1113D01*
X1846Y1115D01*
X1848Y1115D01*
X1848Y1117D01*
X1850Y1117D01*
X1850Y1119D01*
X1852Y1119D01*
X1852Y1121D01*
X1856Y1121D01*
X1856Y1123D01*
X1858Y1123D01*
X1858Y1145D01*
X1854Y1145D01*
X1854Y1147D01*
X1852Y1147D01*
X1852Y1149D01*
X1850Y1149D01*
X1850Y1151D01*
X1848Y1151D01*
X1848Y1153D01*
X1844Y1153D01*
X1844Y1157D01*
X1842Y1157D01*
X1842Y1159D01*
X1840Y1159D01*
X1840Y1161D01*
X1838Y1161D01*
X1838Y1165D01*
X1836Y1165D01*
X1836Y1169D01*
X1834Y1169D01*
X1834Y1175D01*
X1832Y1175D01*
X1832Y1193D01*
X1834Y1193D01*
X1834Y1199D01*
X1836Y1199D01*
X1836Y1219D01*
X1792Y1219D01*
G37*
D02*
G36*
X2118Y1219D02*
X2118Y1197D01*
X2120Y1197D01*
X2120Y1189D01*
X2122Y1189D01*
X2122Y1179D01*
X2120Y1179D01*
X2120Y1171D01*
X2118Y1171D01*
X2118Y1167D01*
X2116Y1167D01*
X2116Y1163D01*
X2114Y1163D01*
X2114Y1159D01*
X2112Y1159D01*
X2112Y1157D01*
X2110Y1157D01*
X2110Y1155D01*
X2108Y1155D01*
X2108Y1153D01*
X2106Y1153D01*
X2106Y1151D01*
X2104Y1151D01*
X2104Y1149D01*
X2102Y1149D01*
X2102Y1147D01*
X2098Y1147D01*
X2098Y1145D01*
X2096Y1145D01*
X2096Y1143D01*
X2094Y1143D01*
X2094Y1123D01*
X2098Y1123D01*
X2098Y1121D01*
X2100Y1121D01*
X2100Y1119D01*
X2102Y1119D01*
X2102Y1117D01*
X2106Y1117D01*
X2106Y1115D01*
X2108Y1115D01*
X2108Y1113D01*
X2110Y1113D01*
X2110Y1109D01*
X2112Y1109D01*
X2112Y1107D01*
X2114Y1107D01*
X2114Y1105D01*
X2116Y1105D01*
X2116Y1101D01*
X2118Y1101D01*
X2118Y1095D01*
X2120Y1095D01*
X2120Y1089D01*
X2122Y1089D01*
X2122Y1077D01*
X2120Y1077D01*
X2120Y1071D01*
X2118Y1071D01*
X2118Y1067D01*
X2116Y1067D01*
X2116Y1063D01*
X2114Y1063D01*
X2114Y1059D01*
X2112Y1059D01*
X2112Y1057D01*
X2110Y1057D01*
X2110Y1055D01*
X2108Y1055D01*
X2108Y1053D01*
X2106Y1053D01*
X2106Y1051D01*
X2104Y1051D01*
X2104Y1049D01*
X2102Y1049D01*
X2102Y1047D01*
X2098Y1047D01*
X2098Y1011D01*
X2362Y1011D01*
X2362Y1013D01*
X2350Y1013D01*
X2350Y1015D01*
X2342Y1015D01*
X2342Y1017D01*
X2336Y1017D01*
X2336Y1019D01*
X2332Y1019D01*
X2332Y1021D01*
X2326Y1021D01*
X2326Y1023D01*
X2322Y1023D01*
X2322Y1025D01*
X2320Y1025D01*
X2320Y1027D01*
X2316Y1027D01*
X2316Y1029D01*
X2312Y1029D01*
X2312Y1031D01*
X2310Y1031D01*
X2310Y1033D01*
X2308Y1033D01*
X2308Y1035D01*
X2304Y1035D01*
X2304Y1037D01*
X2302Y1037D01*
X2302Y1039D01*
X2300Y1039D01*
X2300Y1041D01*
X2298Y1041D01*
X2298Y1043D01*
X2296Y1043D01*
X2296Y1045D01*
X2294Y1045D01*
X2294Y1047D01*
X2292Y1047D01*
X2292Y1049D01*
X2290Y1049D01*
X2290Y1051D01*
X2288Y1051D01*
X2288Y1053D01*
X2286Y1053D01*
X2286Y1055D01*
X2284Y1055D01*
X2284Y1059D01*
X2282Y1059D01*
X2282Y1061D01*
X2280Y1061D01*
X2280Y1063D01*
X2278Y1063D01*
X2278Y1067D01*
X2276Y1067D01*
X2276Y1071D01*
X2274Y1071D01*
X2274Y1073D01*
X2272Y1073D01*
X2272Y1077D01*
X2270Y1077D01*
X2270Y1083D01*
X2268Y1083D01*
X2268Y1087D01*
X2266Y1087D01*
X2266Y1093D01*
X2264Y1093D01*
X2264Y1101D01*
X2262Y1101D01*
X2262Y1115D01*
X2260Y1115D01*
X2260Y1129D01*
X2262Y1129D01*
X2262Y1143D01*
X2264Y1143D01*
X2264Y1149D01*
X2266Y1149D01*
X2266Y1155D01*
X2268Y1155D01*
X2268Y1161D01*
X2270Y1161D01*
X2270Y1165D01*
X2272Y1165D01*
X2272Y1169D01*
X2274Y1169D01*
X2274Y1173D01*
X2276Y1173D01*
X2276Y1175D01*
X2278Y1175D01*
X2278Y1179D01*
X2280Y1179D01*
X2280Y1183D01*
X2282Y1183D01*
X2282Y1185D01*
X2284Y1185D01*
X2284Y1187D01*
X2286Y1187D01*
X2286Y1189D01*
X2288Y1189D01*
X2288Y1193D01*
X2290Y1193D01*
X2290Y1195D01*
X2292Y1195D01*
X2292Y1197D01*
X2294Y1197D01*
X2294Y1199D01*
X2296Y1199D01*
X2296Y1219D01*
X2118Y1219D01*
G37*
D02*
G36*
X2448Y1047D02*
X2448Y1045D01*
X2446Y1045D01*
X2446Y1043D01*
X2444Y1043D01*
X2444Y1041D01*
X2442Y1041D01*
X2442Y1039D01*
X2440Y1039D01*
X2440Y1037D01*
X2436Y1037D01*
X2436Y1035D01*
X2434Y1035D01*
X2434Y1033D01*
X2432Y1033D01*
X2432Y1031D01*
X2428Y1031D01*
X2428Y1029D01*
X2426Y1029D01*
X2426Y1027D01*
X2422Y1027D01*
X2422Y1025D01*
X2418Y1025D01*
X2418Y1023D01*
X2414Y1023D01*
X2414Y1021D01*
X2410Y1021D01*
X2410Y1019D01*
X2406Y1019D01*
X2406Y1017D01*
X2400Y1017D01*
X2400Y1015D01*
X2392Y1015D01*
X2392Y1013D01*
X2380Y1013D01*
X2380Y1011D01*
X2468Y1011D01*
X2468Y1047D01*
X2448Y1047D01*
G37*
D02*
G36*
X2098Y1011D02*
X2098Y1009D01*
X2468Y1009D01*
X2468Y1011D01*
X2098Y1011D01*
G37*
D02*
G36*
X2098Y1011D02*
X2098Y1009D01*
X2468Y1009D01*
X2468Y1011D01*
X2098Y1011D01*
G37*
D02*
G36*
X2098Y1009D02*
X2098Y895D01*
X2362Y895D01*
X2362Y839D01*
X2438Y839D01*
X2438Y837D01*
X2442Y837D01*
X2442Y835D01*
X2446Y835D01*
X2446Y833D01*
X2468Y833D01*
X2468Y1009D01*
X2098Y1009D01*
G37*
D02*
G36*
X2098Y895D02*
X2098Y891D01*
X2100Y891D01*
X2100Y889D01*
X2102Y889D01*
X2102Y887D01*
X2104Y887D01*
X2104Y885D01*
X2106Y885D01*
X2106Y883D01*
X2108Y883D01*
X2108Y881D01*
X2110Y881D01*
X2110Y879D01*
X2112Y879D01*
X2112Y877D01*
X2114Y877D01*
X2114Y875D01*
X2116Y875D01*
X2116Y873D01*
X2118Y873D01*
X2118Y871D01*
X2120Y871D01*
X2120Y869D01*
X2122Y869D01*
X2122Y867D01*
X2124Y867D01*
X2124Y865D01*
X2126Y865D01*
X2126Y863D01*
X2128Y863D01*
X2128Y861D01*
X2130Y861D01*
X2130Y859D01*
X2132Y859D01*
X2132Y857D01*
X2134Y857D01*
X2134Y855D01*
X2138Y855D01*
X2138Y853D01*
X2140Y853D01*
X2140Y851D01*
X2142Y851D01*
X2142Y849D01*
X2144Y849D01*
X2144Y847D01*
X2146Y847D01*
X2146Y845D01*
X2148Y845D01*
X2148Y843D01*
X2150Y843D01*
X2150Y841D01*
X2152Y841D01*
X2152Y839D01*
X2154Y839D01*
X2154Y837D01*
X2156Y837D01*
X2156Y835D01*
X2158Y835D01*
X2158Y833D01*
X2160Y833D01*
X2160Y831D01*
X2162Y831D01*
X2162Y829D01*
X2164Y829D01*
X2164Y827D01*
X2166Y827D01*
X2166Y825D01*
X2168Y825D01*
X2168Y823D01*
X2170Y823D01*
X2170Y821D01*
X2172Y821D01*
X2172Y819D01*
X2174Y819D01*
X2174Y817D01*
X2176Y817D01*
X2176Y815D01*
X2178Y815D01*
X2178Y813D01*
X2180Y813D01*
X2180Y811D01*
X2182Y811D01*
X2182Y809D01*
X2184Y809D01*
X2184Y807D01*
X2186Y807D01*
X2186Y805D01*
X2188Y805D01*
X2188Y803D01*
X2190Y803D01*
X2190Y801D01*
X2192Y801D01*
X2192Y799D01*
X2194Y799D01*
X2194Y797D01*
X2196Y797D01*
X2196Y793D01*
X2198Y793D01*
X2198Y553D01*
X2200Y553D01*
X2200Y365D01*
X2304Y365D01*
X2304Y367D01*
X2298Y367D01*
X2298Y369D01*
X2294Y369D01*
X2294Y371D01*
X2292Y371D01*
X2292Y373D01*
X2288Y373D01*
X2288Y375D01*
X2286Y375D01*
X2286Y377D01*
X2284Y377D01*
X2284Y379D01*
X2282Y379D01*
X2282Y381D01*
X2280Y381D01*
X2280Y383D01*
X2278Y383D01*
X2278Y385D01*
X2276Y385D01*
X2276Y389D01*
X2274Y389D01*
X2274Y391D01*
X2272Y391D01*
X2272Y397D01*
X2270Y397D01*
X2270Y401D01*
X2268Y401D01*
X2268Y421D01*
X2270Y421D01*
X2270Y427D01*
X2272Y427D01*
X2272Y431D01*
X2274Y431D01*
X2274Y435D01*
X2276Y435D01*
X2276Y437D01*
X2278Y437D01*
X2278Y439D01*
X2280Y439D01*
X2280Y441D01*
X2282Y441D01*
X2282Y445D01*
X2286Y445D01*
X2286Y447D01*
X2288Y447D01*
X2288Y449D01*
X2290Y449D01*
X2290Y451D01*
X2294Y451D01*
X2294Y453D01*
X2298Y453D01*
X2298Y455D01*
X2302Y455D01*
X2302Y477D01*
X2296Y477D01*
X2296Y479D01*
X2292Y479D01*
X2292Y481D01*
X2290Y481D01*
X2290Y483D01*
X2288Y483D01*
X2288Y485D01*
X2284Y485D01*
X2284Y487D01*
X2282Y487D01*
X2282Y489D01*
X2280Y489D01*
X2280Y493D01*
X2278Y493D01*
X2278Y495D01*
X2276Y495D01*
X2276Y497D01*
X2274Y497D01*
X2274Y501D01*
X2272Y501D01*
X2272Y505D01*
X2270Y505D01*
X2270Y511D01*
X2268Y511D01*
X2268Y529D01*
X2270Y529D01*
X2270Y535D01*
X2272Y535D01*
X2272Y539D01*
X2274Y539D01*
X2274Y543D01*
X2276Y543D01*
X2276Y547D01*
X2278Y547D01*
X2278Y549D01*
X2280Y549D01*
X2280Y551D01*
X2282Y551D01*
X2282Y553D01*
X2284Y553D01*
X2284Y555D01*
X2286Y555D01*
X2286Y557D01*
X2288Y557D01*
X2288Y559D01*
X2292Y559D01*
X2292Y561D01*
X2296Y561D01*
X2296Y563D01*
X2300Y563D01*
X2300Y565D01*
X2304Y565D01*
X2304Y585D01*
X2298Y585D01*
X2298Y587D01*
X2294Y587D01*
X2294Y589D01*
X2292Y589D01*
X2292Y591D01*
X2288Y591D01*
X2288Y593D01*
X2286Y593D01*
X2286Y595D01*
X2284Y595D01*
X2284Y597D01*
X2282Y597D01*
X2282Y599D01*
X2280Y599D01*
X2280Y601D01*
X2278Y601D01*
X2278Y603D01*
X2276Y603D01*
X2276Y607D01*
X2274Y607D01*
X2274Y611D01*
X2272Y611D01*
X2272Y615D01*
X2270Y615D01*
X2270Y619D01*
X2268Y619D01*
X2268Y639D01*
X2270Y639D01*
X2270Y645D01*
X2272Y645D01*
X2272Y649D01*
X2274Y649D01*
X2274Y653D01*
X2276Y653D01*
X2276Y655D01*
X2278Y655D01*
X2278Y657D01*
X2280Y657D01*
X2280Y659D01*
X2282Y659D01*
X2282Y663D01*
X2286Y663D01*
X2286Y665D01*
X2288Y665D01*
X2288Y667D01*
X2290Y667D01*
X2290Y669D01*
X2294Y669D01*
X2294Y671D01*
X2296Y671D01*
X2296Y673D01*
X2302Y673D01*
X2302Y695D01*
X2296Y695D01*
X2296Y697D01*
X2294Y697D01*
X2294Y699D01*
X2290Y699D01*
X2290Y701D01*
X2288Y701D01*
X2288Y703D01*
X2284Y703D01*
X2284Y705D01*
X2282Y705D01*
X2282Y707D01*
X2280Y707D01*
X2280Y711D01*
X2278Y711D01*
X2278Y713D01*
X2276Y713D01*
X2276Y715D01*
X2274Y715D01*
X2274Y719D01*
X2272Y719D01*
X2272Y723D01*
X2270Y723D01*
X2270Y729D01*
X2268Y729D01*
X2268Y747D01*
X2270Y747D01*
X2270Y753D01*
X2272Y753D01*
X2272Y757D01*
X2274Y757D01*
X2274Y761D01*
X2276Y761D01*
X2276Y765D01*
X2278Y765D01*
X2278Y767D01*
X2280Y767D01*
X2280Y769D01*
X2282Y769D01*
X2282Y771D01*
X2284Y771D01*
X2284Y773D01*
X2286Y773D01*
X2286Y775D01*
X2288Y775D01*
X2288Y777D01*
X2292Y777D01*
X2292Y779D01*
X2296Y779D01*
X2296Y781D01*
X2300Y781D01*
X2300Y801D01*
X2268Y801D01*
X2268Y895D01*
X2098Y895D01*
G37*
D02*
G36*
X2362Y839D02*
X2362Y803D01*
X2382Y803D01*
X2382Y809D01*
X2384Y809D01*
X2384Y813D01*
X2386Y813D01*
X2386Y815D01*
X2388Y815D01*
X2388Y819D01*
X2390Y819D01*
X2390Y821D01*
X2392Y821D01*
X2392Y823D01*
X2394Y823D01*
X2394Y825D01*
X2396Y825D01*
X2396Y827D01*
X2398Y827D01*
X2398Y829D01*
X2400Y829D01*
X2400Y831D01*
X2402Y831D01*
X2402Y833D01*
X2406Y833D01*
X2406Y835D01*
X2410Y835D01*
X2410Y837D01*
X2416Y837D01*
X2416Y839D01*
X2362Y839D01*
G37*
D02*
G36*
X2330Y801D02*
X2330Y781D01*
X2334Y781D01*
X2334Y779D01*
X2338Y779D01*
X2338Y777D01*
X2340Y777D01*
X2340Y775D01*
X2344Y775D01*
X2344Y773D01*
X2346Y773D01*
X2346Y771D01*
X2348Y771D01*
X2348Y769D01*
X2350Y769D01*
X2350Y765D01*
X2352Y765D01*
X2352Y763D01*
X2354Y763D01*
X2354Y761D01*
X2356Y761D01*
X2356Y757D01*
X2358Y757D01*
X2358Y751D01*
X2360Y751D01*
X2360Y745D01*
X2362Y745D01*
X2362Y731D01*
X2360Y731D01*
X2360Y725D01*
X2358Y725D01*
X2358Y721D01*
X2356Y721D01*
X2356Y717D01*
X2354Y717D01*
X2354Y713D01*
X2352Y713D01*
X2352Y711D01*
X2350Y711D01*
X2350Y709D01*
X2348Y709D01*
X2348Y707D01*
X2346Y707D01*
X2346Y705D01*
X2344Y705D01*
X2344Y703D01*
X2342Y703D01*
X2342Y701D01*
X2340Y701D01*
X2340Y699D01*
X2336Y699D01*
X2336Y697D01*
X2332Y697D01*
X2332Y695D01*
X2328Y695D01*
X2328Y673D01*
X2332Y673D01*
X2332Y671D01*
X2336Y671D01*
X2336Y669D01*
X2340Y669D01*
X2340Y667D01*
X2342Y667D01*
X2342Y665D01*
X2344Y665D01*
X2344Y663D01*
X2346Y663D01*
X2346Y661D01*
X2348Y661D01*
X2348Y659D01*
X2350Y659D01*
X2350Y657D01*
X2352Y657D01*
X2352Y655D01*
X2354Y655D01*
X2354Y651D01*
X2356Y651D01*
X2356Y647D01*
X2358Y647D01*
X2358Y643D01*
X2360Y643D01*
X2360Y637D01*
X2362Y637D01*
X2362Y623D01*
X2360Y623D01*
X2360Y615D01*
X2358Y615D01*
X2358Y611D01*
X2356Y611D01*
X2356Y607D01*
X2354Y607D01*
X2354Y605D01*
X2352Y605D01*
X2352Y601D01*
X2350Y601D01*
X2350Y599D01*
X2348Y599D01*
X2348Y597D01*
X2346Y597D01*
X2346Y595D01*
X2344Y595D01*
X2344Y593D01*
X2340Y593D01*
X2340Y591D01*
X2338Y591D01*
X2338Y589D01*
X2334Y589D01*
X2334Y587D01*
X2330Y587D01*
X2330Y585D01*
X2326Y585D01*
X2326Y565D01*
X2330Y565D01*
X2330Y563D01*
X2334Y563D01*
X2334Y561D01*
X2338Y561D01*
X2338Y559D01*
X2340Y559D01*
X2340Y557D01*
X2342Y557D01*
X2342Y555D01*
X2346Y555D01*
X2346Y553D01*
X2348Y553D01*
X2348Y551D01*
X2350Y551D01*
X2350Y547D01*
X2352Y547D01*
X2352Y545D01*
X2354Y545D01*
X2354Y543D01*
X2356Y543D01*
X2356Y539D01*
X2358Y539D01*
X2358Y533D01*
X2360Y533D01*
X2360Y527D01*
X2362Y527D01*
X2362Y513D01*
X2360Y513D01*
X2360Y507D01*
X2358Y507D01*
X2358Y501D01*
X2356Y501D01*
X2356Y499D01*
X2354Y499D01*
X2354Y495D01*
X2352Y495D01*
X2352Y493D01*
X2350Y493D01*
X2350Y491D01*
X2348Y491D01*
X2348Y489D01*
X2346Y489D01*
X2346Y487D01*
X2344Y487D01*
X2344Y485D01*
X2342Y485D01*
X2342Y483D01*
X2340Y483D01*
X2340Y481D01*
X2336Y481D01*
X2336Y479D01*
X2334Y479D01*
X2334Y477D01*
X2328Y477D01*
X2328Y475D01*
X2326Y475D01*
X2326Y455D01*
X2332Y455D01*
X2332Y453D01*
X2336Y453D01*
X2336Y451D01*
X2340Y451D01*
X2340Y449D01*
X2342Y449D01*
X2342Y447D01*
X2344Y447D01*
X2344Y445D01*
X2346Y445D01*
X2346Y443D01*
X2348Y443D01*
X2348Y441D01*
X2350Y441D01*
X2350Y439D01*
X2352Y439D01*
X2352Y437D01*
X2354Y437D01*
X2354Y433D01*
X2356Y433D01*
X2356Y429D01*
X2358Y429D01*
X2358Y425D01*
X2360Y425D01*
X2360Y419D01*
X2418Y419D01*
X2418Y421D01*
X2412Y421D01*
X2412Y423D01*
X2408Y423D01*
X2408Y425D01*
X2404Y425D01*
X2404Y427D01*
X2402Y427D01*
X2402Y429D01*
X2398Y429D01*
X2398Y431D01*
X2396Y431D01*
X2396Y433D01*
X2394Y433D01*
X2394Y435D01*
X2392Y435D01*
X2392Y437D01*
X2390Y437D01*
X2390Y439D01*
X2388Y439D01*
X2388Y443D01*
X2386Y443D01*
X2386Y447D01*
X2384Y447D01*
X2384Y451D01*
X2382Y451D01*
X2382Y457D01*
X2380Y457D01*
X2380Y475D01*
X2382Y475D01*
X2382Y481D01*
X2384Y481D01*
X2384Y485D01*
X2386Y485D01*
X2386Y489D01*
X2388Y489D01*
X2388Y493D01*
X2390Y493D01*
X2390Y495D01*
X2392Y495D01*
X2392Y497D01*
X2394Y497D01*
X2394Y499D01*
X2396Y499D01*
X2396Y501D01*
X2398Y501D01*
X2398Y503D01*
X2402Y503D01*
X2402Y505D01*
X2404Y505D01*
X2404Y507D01*
X2408Y507D01*
X2408Y509D01*
X2412Y509D01*
X2412Y511D01*
X2416Y511D01*
X2416Y531D01*
X2410Y531D01*
X2410Y533D01*
X2406Y533D01*
X2406Y535D01*
X2402Y535D01*
X2402Y537D01*
X2400Y537D01*
X2400Y539D01*
X2398Y539D01*
X2398Y541D01*
X2396Y541D01*
X2396Y543D01*
X2394Y543D01*
X2394Y545D01*
X2392Y545D01*
X2392Y547D01*
X2390Y547D01*
X2390Y549D01*
X2388Y549D01*
X2388Y551D01*
X2386Y551D01*
X2386Y555D01*
X2384Y555D01*
X2384Y559D01*
X2382Y559D01*
X2382Y565D01*
X2380Y565D01*
X2380Y585D01*
X2382Y585D01*
X2382Y591D01*
X2384Y591D01*
X2384Y595D01*
X2386Y595D01*
X2386Y599D01*
X2388Y599D01*
X2388Y601D01*
X2390Y601D01*
X2390Y603D01*
X2392Y603D01*
X2392Y605D01*
X2394Y605D01*
X2394Y607D01*
X2396Y607D01*
X2396Y609D01*
X2398Y609D01*
X2398Y611D01*
X2400Y611D01*
X2400Y613D01*
X2402Y613D01*
X2402Y615D01*
X2406Y615D01*
X2406Y617D01*
X2410Y617D01*
X2410Y619D01*
X2416Y619D01*
X2416Y639D01*
X2412Y639D01*
X2412Y641D01*
X2408Y641D01*
X2408Y643D01*
X2404Y643D01*
X2404Y645D01*
X2400Y645D01*
X2400Y647D01*
X2398Y647D01*
X2398Y649D01*
X2396Y649D01*
X2396Y651D01*
X2394Y651D01*
X2394Y653D01*
X2392Y653D01*
X2392Y655D01*
X2390Y655D01*
X2390Y657D01*
X2388Y657D01*
X2388Y661D01*
X2386Y661D01*
X2386Y665D01*
X2384Y665D01*
X2384Y669D01*
X2382Y669D01*
X2382Y673D01*
X2380Y673D01*
X2380Y693D01*
X2382Y693D01*
X2382Y699D01*
X2384Y699D01*
X2384Y703D01*
X2386Y703D01*
X2386Y707D01*
X2388Y707D01*
X2388Y709D01*
X2390Y709D01*
X2390Y713D01*
X2392Y713D01*
X2392Y715D01*
X2394Y715D01*
X2394Y717D01*
X2396Y717D01*
X2396Y719D01*
X2398Y719D01*
X2398Y721D01*
X2402Y721D01*
X2402Y723D01*
X2404Y723D01*
X2404Y725D01*
X2408Y725D01*
X2408Y727D01*
X2414Y727D01*
X2414Y749D01*
X2410Y749D01*
X2410Y751D01*
X2406Y751D01*
X2406Y753D01*
X2402Y753D01*
X2402Y755D01*
X2400Y755D01*
X2400Y757D01*
X2398Y757D01*
X2398Y759D01*
X2394Y759D01*
X2394Y761D01*
X2392Y761D01*
X2392Y765D01*
X2390Y765D01*
X2390Y767D01*
X2388Y767D01*
X2388Y769D01*
X2386Y769D01*
X2386Y773D01*
X2384Y773D01*
X2384Y777D01*
X2382Y777D01*
X2382Y783D01*
X2380Y783D01*
X2380Y801D01*
X2330Y801D01*
G37*
D02*
G36*
X2448Y427D02*
X2448Y425D01*
X2446Y425D01*
X2446Y423D01*
X2440Y423D01*
X2440Y421D01*
X2436Y421D01*
X2436Y419D01*
X2468Y419D01*
X2468Y427D01*
X2448Y427D01*
G37*
D02*
G36*
X2362Y419D02*
X2362Y417D01*
X2468Y417D01*
X2468Y419D01*
X2362Y419D01*
G37*
D02*
G36*
X2362Y419D02*
X2362Y417D01*
X2468Y417D01*
X2468Y419D01*
X2362Y419D01*
G37*
D02*
G36*
X2362Y417D02*
X2362Y405D01*
X2360Y405D01*
X2360Y397D01*
X2358Y397D01*
X2358Y393D01*
X2356Y393D01*
X2356Y389D01*
X2354Y389D01*
X2354Y387D01*
X2352Y387D01*
X2352Y383D01*
X2350Y383D01*
X2350Y381D01*
X2348Y381D01*
X2348Y379D01*
X2346Y379D01*
X2346Y377D01*
X2344Y377D01*
X2344Y375D01*
X2342Y375D01*
X2342Y373D01*
X2338Y373D01*
X2338Y371D01*
X2334Y371D01*
X2334Y369D01*
X2332Y369D01*
X2332Y367D01*
X2326Y367D01*
X2326Y365D01*
X2468Y365D01*
X2468Y417D01*
X2362Y417D01*
G37*
D02*
G36*
X2200Y365D02*
X2200Y363D01*
X2468Y363D01*
X2468Y365D01*
X2200Y365D01*
G37*
D02*
G36*
X2200Y365D02*
X2200Y363D01*
X2468Y363D01*
X2468Y365D01*
X2200Y365D01*
G37*
D02*
G36*
X2200Y363D02*
X2200Y247D01*
X2384Y247D01*
X2384Y245D01*
X2394Y245D01*
X2394Y243D01*
X2402Y243D01*
X2402Y241D01*
X2406Y241D01*
X2406Y239D01*
X2412Y239D01*
X2412Y237D01*
X2416Y237D01*
X2416Y235D01*
X2420Y235D01*
X2420Y233D01*
X2424Y233D01*
X2424Y231D01*
X2426Y231D01*
X2426Y229D01*
X2430Y229D01*
X2430Y227D01*
X2432Y227D01*
X2432Y225D01*
X2434Y225D01*
X2434Y223D01*
X2438Y223D01*
X2438Y221D01*
X2440Y221D01*
X2440Y219D01*
X2442Y219D01*
X2442Y217D01*
X2444Y217D01*
X2444Y215D01*
X2446Y215D01*
X2446Y213D01*
X2448Y213D01*
X2448Y211D01*
X2468Y211D01*
X2468Y363D01*
X2200Y363D01*
G37*
D02*
G36*
X2200Y247D02*
X2200Y177D01*
X2198Y177D01*
X2198Y171D01*
X2196Y171D01*
X2196Y169D01*
X2194Y169D01*
X2194Y167D01*
X2192Y167D01*
X2192Y165D01*
X2190Y165D01*
X2190Y163D01*
X2188Y163D01*
X2188Y161D01*
X2186Y161D01*
X2186Y159D01*
X2184Y159D01*
X2184Y157D01*
X2182Y157D01*
X2182Y155D01*
X2180Y155D01*
X2180Y153D01*
X2178Y153D01*
X2178Y151D01*
X2176Y151D01*
X2176Y149D01*
X2174Y149D01*
X2174Y147D01*
X2172Y147D01*
X2172Y145D01*
X2170Y145D01*
X2170Y143D01*
X2168Y143D01*
X2168Y141D01*
X2166Y141D01*
X2166Y139D01*
X2164Y139D01*
X2164Y137D01*
X2162Y137D01*
X2162Y135D01*
X2160Y135D01*
X2160Y133D01*
X2158Y133D01*
X2158Y131D01*
X2156Y131D01*
X2156Y129D01*
X2154Y129D01*
X2154Y127D01*
X2152Y127D01*
X2152Y125D01*
X2150Y125D01*
X2150Y123D01*
X2148Y123D01*
X2148Y121D01*
X2146Y121D01*
X2146Y119D01*
X2144Y119D01*
X2144Y117D01*
X2142Y117D01*
X2142Y115D01*
X2140Y115D01*
X2140Y113D01*
X2138Y113D01*
X2138Y111D01*
X2136Y111D01*
X2136Y109D01*
X2134Y109D01*
X2134Y107D01*
X2130Y107D01*
X2130Y105D01*
X2128Y105D01*
X2128Y103D01*
X2126Y103D01*
X2126Y101D01*
X2124Y101D01*
X2124Y99D01*
X2122Y99D01*
X2122Y97D01*
X2120Y97D01*
X2120Y95D01*
X2118Y95D01*
X2118Y93D01*
X2116Y93D01*
X2116Y91D01*
X2114Y91D01*
X2114Y89D01*
X2112Y89D01*
X2112Y41D01*
X2296Y41D01*
X2296Y61D01*
X2294Y61D01*
X2294Y63D01*
X2292Y63D01*
X2292Y65D01*
X2290Y65D01*
X2290Y67D01*
X2288Y67D01*
X2288Y69D01*
X2286Y69D01*
X2286Y71D01*
X2284Y71D01*
X2284Y75D01*
X2282Y75D01*
X2282Y77D01*
X2280Y77D01*
X2280Y79D01*
X2278Y79D01*
X2278Y83D01*
X2276Y83D01*
X2276Y85D01*
X2274Y85D01*
X2274Y89D01*
X2272Y89D01*
X2272Y93D01*
X2270Y93D01*
X2270Y99D01*
X2268Y99D01*
X2268Y103D01*
X2266Y103D01*
X2266Y109D01*
X2264Y109D01*
X2264Y117D01*
X2262Y117D01*
X2262Y131D01*
X2260Y131D01*
X2260Y145D01*
X2262Y145D01*
X2262Y159D01*
X2264Y159D01*
X2264Y165D01*
X2266Y165D01*
X2266Y171D01*
X2268Y171D01*
X2268Y177D01*
X2270Y177D01*
X2270Y181D01*
X2272Y181D01*
X2272Y185D01*
X2274Y185D01*
X2274Y189D01*
X2276Y189D01*
X2276Y191D01*
X2278Y191D01*
X2278Y195D01*
X2280Y195D01*
X2280Y197D01*
X2282Y197D01*
X2282Y201D01*
X2284Y201D01*
X2284Y203D01*
X2286Y203D01*
X2286Y205D01*
X2288Y205D01*
X2288Y207D01*
X2290Y207D01*
X2290Y211D01*
X2292Y211D01*
X2292Y213D01*
X2294Y213D01*
X2294Y215D01*
X2296Y215D01*
X2296Y217D01*
X2300Y217D01*
X2300Y219D01*
X2302Y219D01*
X2302Y221D01*
X2304Y221D01*
X2304Y223D01*
X2306Y223D01*
X2306Y225D01*
X2308Y225D01*
X2308Y227D01*
X2312Y227D01*
X2312Y229D01*
X2314Y229D01*
X2314Y231D01*
X2318Y231D01*
X2318Y233D01*
X2322Y233D01*
X2322Y235D01*
X2326Y235D01*
X2326Y237D01*
X2330Y237D01*
X2330Y239D01*
X2334Y239D01*
X2334Y241D01*
X2340Y241D01*
X2340Y243D01*
X2346Y243D01*
X2346Y245D01*
X2356Y245D01*
X2356Y247D01*
X2200Y247D01*
G37*
D02*
G36*
X1616Y1167D02*
X1616Y1163D01*
X1614Y1163D01*
X1614Y1159D01*
X1612Y1159D01*
X1612Y1157D01*
X1610Y1157D01*
X1610Y1155D01*
X1608Y1155D01*
X1608Y1153D01*
X1606Y1153D01*
X1606Y1151D01*
X1604Y1151D01*
X1604Y1149D01*
X1602Y1149D01*
X1602Y1147D01*
X1598Y1147D01*
X1598Y1145D01*
X1596Y1145D01*
X1596Y1143D01*
X1594Y1143D01*
X1594Y1123D01*
X1598Y1123D01*
X1598Y1121D01*
X1600Y1121D01*
X1600Y1119D01*
X1602Y1119D01*
X1602Y1117D01*
X1606Y1117D01*
X1606Y1115D01*
X1608Y1115D01*
X1608Y1113D01*
X1610Y1113D01*
X1610Y1109D01*
X1612Y1109D01*
X1612Y1107D01*
X1614Y1107D01*
X1614Y1105D01*
X1616Y1105D01*
X1616Y1101D01*
X1636Y1101D01*
X1636Y1103D01*
X1638Y1103D01*
X1638Y1105D01*
X1640Y1105D01*
X1640Y1109D01*
X1642Y1109D01*
X1642Y1111D01*
X1644Y1111D01*
X1644Y1113D01*
X1646Y1113D01*
X1646Y1115D01*
X1648Y1115D01*
X1648Y1117D01*
X1650Y1117D01*
X1650Y1119D01*
X1652Y1119D01*
X1652Y1121D01*
X1656Y1121D01*
X1656Y1123D01*
X1660Y1123D01*
X1660Y1143D01*
X1658Y1143D01*
X1658Y1145D01*
X1654Y1145D01*
X1654Y1147D01*
X1652Y1147D01*
X1652Y1149D01*
X1650Y1149D01*
X1650Y1151D01*
X1646Y1151D01*
X1646Y1153D01*
X1644Y1153D01*
X1644Y1157D01*
X1642Y1157D01*
X1642Y1159D01*
X1640Y1159D01*
X1640Y1161D01*
X1638Y1161D01*
X1638Y1165D01*
X1636Y1165D01*
X1636Y1167D01*
X1616Y1167D01*
G37*
D02*
G36*
X1916Y1167D02*
X1916Y1163D01*
X1914Y1163D01*
X1914Y1159D01*
X1912Y1159D01*
X1912Y1157D01*
X1910Y1157D01*
X1910Y1155D01*
X1908Y1155D01*
X1908Y1153D01*
X1906Y1153D01*
X1906Y1151D01*
X1904Y1151D01*
X1904Y1149D01*
X1902Y1149D01*
X1902Y1147D01*
X1898Y1147D01*
X1898Y1145D01*
X1894Y1145D01*
X1894Y1123D01*
X1898Y1123D01*
X1898Y1121D01*
X1900Y1121D01*
X1900Y1119D01*
X1904Y1119D01*
X1904Y1117D01*
X1906Y1117D01*
X1906Y1115D01*
X1908Y1115D01*
X1908Y1113D01*
X1910Y1113D01*
X1910Y1111D01*
X1912Y1111D01*
X1912Y1107D01*
X1914Y1107D01*
X1914Y1105D01*
X1916Y1105D01*
X1916Y1101D01*
X1936Y1101D01*
X1936Y1103D01*
X1938Y1103D01*
X1938Y1105D01*
X1940Y1105D01*
X1940Y1109D01*
X1942Y1109D01*
X1942Y1111D01*
X1944Y1111D01*
X1944Y1113D01*
X1946Y1113D01*
X1946Y1115D01*
X1948Y1115D01*
X1948Y1117D01*
X1950Y1117D01*
X1950Y1119D01*
X1952Y1119D01*
X1952Y1121D01*
X1956Y1121D01*
X1956Y1123D01*
X1960Y1123D01*
X1960Y1143D01*
X1958Y1143D01*
X1958Y1145D01*
X1954Y1145D01*
X1954Y1147D01*
X1952Y1147D01*
X1952Y1149D01*
X1950Y1149D01*
X1950Y1151D01*
X1946Y1151D01*
X1946Y1153D01*
X1944Y1153D01*
X1944Y1157D01*
X1942Y1157D01*
X1942Y1159D01*
X1940Y1159D01*
X1940Y1161D01*
X1938Y1161D01*
X1938Y1165D01*
X1936Y1165D01*
X1936Y1167D01*
X1916Y1167D01*
G37*
D02*
G36*
X2016Y1167D02*
X2016Y1163D01*
X2014Y1163D01*
X2014Y1159D01*
X2012Y1159D01*
X2012Y1157D01*
X2010Y1157D01*
X2010Y1155D01*
X2008Y1155D01*
X2008Y1153D01*
X2006Y1153D01*
X2006Y1151D01*
X2004Y1151D01*
X2004Y1149D01*
X2002Y1149D01*
X2002Y1147D01*
X1998Y1147D01*
X1998Y1145D01*
X1996Y1145D01*
X1996Y1143D01*
X1994Y1143D01*
X1994Y1123D01*
X1998Y1123D01*
X1998Y1121D01*
X2000Y1121D01*
X2000Y1119D01*
X2002Y1119D01*
X2002Y1117D01*
X2006Y1117D01*
X2006Y1115D01*
X2008Y1115D01*
X2008Y1113D01*
X2010Y1113D01*
X2010Y1109D01*
X2012Y1109D01*
X2012Y1107D01*
X2014Y1107D01*
X2014Y1105D01*
X2016Y1105D01*
X2016Y1101D01*
X2036Y1101D01*
X2036Y1103D01*
X2038Y1103D01*
X2038Y1105D01*
X2040Y1105D01*
X2040Y1109D01*
X2042Y1109D01*
X2042Y1111D01*
X2044Y1111D01*
X2044Y1113D01*
X2046Y1113D01*
X2046Y1115D01*
X2048Y1115D01*
X2048Y1117D01*
X2050Y1117D01*
X2050Y1119D01*
X2052Y1119D01*
X2052Y1121D01*
X2056Y1121D01*
X2056Y1123D01*
X2060Y1123D01*
X2060Y1143D01*
X2058Y1143D01*
X2058Y1145D01*
X2054Y1145D01*
X2054Y1147D01*
X2052Y1147D01*
X2052Y1149D01*
X2050Y1149D01*
X2050Y1151D01*
X2046Y1151D01*
X2046Y1153D01*
X2044Y1153D01*
X2044Y1157D01*
X2042Y1157D01*
X2042Y1159D01*
X2040Y1159D01*
X2040Y1161D01*
X2038Y1161D01*
X2038Y1165D01*
X2036Y1165D01*
X2036Y1167D01*
X2016Y1167D01*
G37*
D02*
G36*
X1314Y1219D02*
X1314Y1199D01*
X1316Y1199D01*
X1316Y1197D01*
X1318Y1197D01*
X1318Y1195D01*
X1320Y1195D01*
X1320Y1193D01*
X1322Y1193D01*
X1322Y1189D01*
X1324Y1189D01*
X1324Y1187D01*
X1326Y1187D01*
X1326Y1185D01*
X1328Y1185D01*
X1328Y1181D01*
X1330Y1181D01*
X1330Y1179D01*
X1332Y1179D01*
X1332Y1175D01*
X1334Y1175D01*
X1334Y1173D01*
X1336Y1173D01*
X1336Y1169D01*
X1338Y1169D01*
X1338Y1167D01*
X1340Y1167D01*
X1340Y1165D01*
X1342Y1165D01*
X1342Y1161D01*
X1344Y1161D01*
X1344Y1159D01*
X1346Y1159D01*
X1346Y1155D01*
X1348Y1155D01*
X1348Y1153D01*
X1350Y1153D01*
X1350Y1151D01*
X1454Y1151D01*
X1454Y1149D01*
X1462Y1149D01*
X1462Y1147D01*
X1468Y1147D01*
X1468Y1145D01*
X1472Y1145D01*
X1472Y1143D01*
X1474Y1143D01*
X1474Y1141D01*
X1476Y1141D01*
X1476Y1139D01*
X1478Y1139D01*
X1478Y1137D01*
X1480Y1137D01*
X1480Y1135D01*
X1482Y1135D01*
X1482Y1133D01*
X1484Y1133D01*
X1484Y1131D01*
X1486Y1131D01*
X1486Y1127D01*
X1488Y1127D01*
X1488Y1125D01*
X1490Y1125D01*
X1490Y1119D01*
X1492Y1119D01*
X1492Y1097D01*
X1490Y1097D01*
X1490Y1093D01*
X1488Y1093D01*
X1488Y1089D01*
X1486Y1089D01*
X1486Y1087D01*
X1484Y1087D01*
X1484Y1083D01*
X1482Y1083D01*
X1482Y1081D01*
X1480Y1081D01*
X1480Y1079D01*
X1478Y1079D01*
X1478Y1077D01*
X1474Y1077D01*
X1474Y1075D01*
X1472Y1075D01*
X1472Y1073D01*
X1468Y1073D01*
X1468Y1071D01*
X1464Y1071D01*
X1464Y1069D01*
X1458Y1069D01*
X1458Y1067D01*
X1536Y1067D01*
X1536Y1069D01*
X1534Y1069D01*
X1534Y1073D01*
X1532Y1073D01*
X1532Y1093D01*
X1534Y1093D01*
X1534Y1099D01*
X1536Y1099D01*
X1536Y1103D01*
X1538Y1103D01*
X1538Y1105D01*
X1540Y1105D01*
X1540Y1109D01*
X1542Y1109D01*
X1542Y1111D01*
X1544Y1111D01*
X1544Y1113D01*
X1546Y1113D01*
X1546Y1115D01*
X1548Y1115D01*
X1548Y1117D01*
X1550Y1117D01*
X1550Y1119D01*
X1552Y1119D01*
X1552Y1121D01*
X1556Y1121D01*
X1556Y1123D01*
X1560Y1123D01*
X1560Y1143D01*
X1558Y1143D01*
X1558Y1145D01*
X1554Y1145D01*
X1554Y1147D01*
X1552Y1147D01*
X1552Y1149D01*
X1550Y1149D01*
X1550Y1151D01*
X1546Y1151D01*
X1546Y1153D01*
X1544Y1153D01*
X1544Y1157D01*
X1542Y1157D01*
X1542Y1159D01*
X1540Y1159D01*
X1540Y1161D01*
X1538Y1161D01*
X1538Y1165D01*
X1536Y1165D01*
X1536Y1169D01*
X1534Y1169D01*
X1534Y1175D01*
X1532Y1175D01*
X1532Y1193D01*
X1534Y1193D01*
X1534Y1199D01*
X1536Y1199D01*
X1536Y1219D01*
X1314Y1219D01*
G37*
D02*
G36*
X1218Y1161D02*
X1218Y1159D01*
X1216Y1159D01*
X1216Y1155D01*
X1214Y1155D01*
X1214Y1153D01*
X1212Y1153D01*
X1212Y1151D01*
X1210Y1151D01*
X1210Y1149D01*
X1208Y1149D01*
X1208Y1147D01*
X1206Y1147D01*
X1206Y1145D01*
X1202Y1145D01*
X1202Y1143D01*
X1200Y1143D01*
X1200Y1141D01*
X1198Y1141D01*
X1198Y1067D01*
X1312Y1067D01*
X1312Y1131D01*
X1310Y1131D01*
X1310Y1133D01*
X1308Y1133D01*
X1308Y1137D01*
X1306Y1137D01*
X1306Y1139D01*
X1304Y1139D01*
X1304Y1141D01*
X1302Y1141D01*
X1302Y1145D01*
X1300Y1145D01*
X1300Y1147D01*
X1298Y1147D01*
X1298Y1151D01*
X1296Y1151D01*
X1296Y1153D01*
X1294Y1153D01*
X1294Y1155D01*
X1292Y1155D01*
X1292Y1159D01*
X1290Y1159D01*
X1290Y1161D01*
X1218Y1161D01*
G37*
D02*
G36*
X1394Y1151D02*
X1394Y1123D01*
X1414Y1123D01*
X1414Y1127D01*
X1416Y1127D01*
X1416Y1129D01*
X1418Y1129D01*
X1418Y1133D01*
X1420Y1133D01*
X1420Y1135D01*
X1422Y1135D01*
X1422Y1137D01*
X1424Y1137D01*
X1424Y1139D01*
X1426Y1139D01*
X1426Y1141D01*
X1428Y1141D01*
X1428Y1143D01*
X1432Y1143D01*
X1432Y1145D01*
X1436Y1145D01*
X1436Y1147D01*
X1440Y1147D01*
X1440Y1149D01*
X1448Y1149D01*
X1448Y1151D01*
X1394Y1151D01*
G37*
D02*
G36*
X1394Y1095D02*
X1394Y1067D01*
X1444Y1067D01*
X1444Y1069D01*
X1438Y1069D01*
X1438Y1071D01*
X1434Y1071D01*
X1434Y1073D01*
X1430Y1073D01*
X1430Y1075D01*
X1428Y1075D01*
X1428Y1077D01*
X1426Y1077D01*
X1426Y1079D01*
X1424Y1079D01*
X1424Y1081D01*
X1422Y1081D01*
X1422Y1083D01*
X1420Y1083D01*
X1420Y1085D01*
X1418Y1085D01*
X1418Y1087D01*
X1416Y1087D01*
X1416Y1091D01*
X1414Y1091D01*
X1414Y1095D01*
X1394Y1095D01*
G37*
D02*
G36*
X1198Y1067D02*
X1198Y1065D01*
X1536Y1065D01*
X1536Y1067D01*
X1198Y1067D01*
G37*
D02*
G36*
X1198Y1067D02*
X1198Y1065D01*
X1536Y1065D01*
X1536Y1067D01*
X1198Y1067D01*
G37*
D02*
G36*
X1198Y1067D02*
X1198Y1065D01*
X1536Y1065D01*
X1536Y1067D01*
X1198Y1067D01*
G37*
D02*
G36*
X1198Y1065D02*
X1198Y973D01*
X1200Y973D01*
X1200Y971D01*
X1204Y971D01*
X1204Y969D01*
X1206Y969D01*
X1206Y967D01*
X1208Y967D01*
X1208Y965D01*
X1210Y965D01*
X1210Y963D01*
X1212Y963D01*
X1212Y961D01*
X1214Y961D01*
X1214Y957D01*
X1216Y957D01*
X1216Y955D01*
X1218Y955D01*
X1218Y951D01*
X1220Y951D01*
X1220Y945D01*
X1222Y945D01*
X1222Y923D01*
X1220Y923D01*
X1220Y917D01*
X1218Y917D01*
X1218Y913D01*
X1216Y913D01*
X1216Y909D01*
X1214Y909D01*
X1214Y907D01*
X1212Y907D01*
X1212Y905D01*
X1210Y905D01*
X1210Y903D01*
X1208Y903D01*
X1208Y901D01*
X1206Y901D01*
X1206Y899D01*
X1204Y899D01*
X1204Y897D01*
X1202Y897D01*
X1202Y895D01*
X1198Y895D01*
X1198Y873D01*
X1200Y873D01*
X1200Y871D01*
X1204Y871D01*
X1204Y869D01*
X1206Y869D01*
X1206Y867D01*
X1208Y867D01*
X1208Y865D01*
X1210Y865D01*
X1210Y863D01*
X1480Y863D01*
X1480Y861D01*
X1490Y861D01*
X1490Y859D01*
X1496Y859D01*
X1496Y857D01*
X1500Y857D01*
X1500Y855D01*
X1502Y855D01*
X1502Y853D01*
X1506Y853D01*
X1506Y851D01*
X1508Y851D01*
X1508Y849D01*
X1510Y849D01*
X1510Y847D01*
X1512Y847D01*
X1512Y845D01*
X1514Y845D01*
X1514Y843D01*
X1516Y843D01*
X1516Y841D01*
X1518Y841D01*
X1518Y837D01*
X1520Y837D01*
X1520Y833D01*
X1522Y833D01*
X1522Y829D01*
X1524Y829D01*
X1524Y823D01*
X1526Y823D01*
X1526Y805D01*
X1524Y805D01*
X1524Y799D01*
X1522Y799D01*
X1522Y795D01*
X1520Y795D01*
X1520Y793D01*
X1518Y793D01*
X1518Y789D01*
X1516Y789D01*
X1516Y787D01*
X1514Y787D01*
X1514Y785D01*
X1512Y785D01*
X1512Y781D01*
X1508Y781D01*
X1508Y779D01*
X1506Y779D01*
X1506Y777D01*
X1504Y777D01*
X1504Y775D01*
X1500Y775D01*
X1500Y773D01*
X1498Y773D01*
X1498Y771D01*
X1492Y771D01*
X1492Y769D01*
X1486Y769D01*
X1486Y767D01*
X1554Y767D01*
X1554Y1047D01*
X1552Y1047D01*
X1552Y1049D01*
X1548Y1049D01*
X1548Y1051D01*
X1546Y1051D01*
X1546Y1053D01*
X1544Y1053D01*
X1544Y1055D01*
X1542Y1055D01*
X1542Y1059D01*
X1540Y1059D01*
X1540Y1061D01*
X1538Y1061D01*
X1538Y1065D01*
X1198Y1065D01*
G37*
D02*
G36*
X1212Y863D02*
X1212Y861D01*
X1214Y861D01*
X1214Y857D01*
X1216Y857D01*
X1216Y855D01*
X1218Y855D01*
X1218Y851D01*
X1220Y851D01*
X1220Y845D01*
X1222Y845D01*
X1222Y823D01*
X1220Y823D01*
X1220Y817D01*
X1218Y817D01*
X1218Y813D01*
X1216Y813D01*
X1216Y809D01*
X1214Y809D01*
X1214Y807D01*
X1212Y807D01*
X1212Y805D01*
X1210Y805D01*
X1210Y803D01*
X1208Y803D01*
X1208Y801D01*
X1206Y801D01*
X1206Y799D01*
X1204Y799D01*
X1204Y797D01*
X1202Y797D01*
X1202Y795D01*
X1198Y795D01*
X1198Y773D01*
X1200Y773D01*
X1200Y771D01*
X1204Y771D01*
X1204Y769D01*
X1206Y769D01*
X1206Y767D01*
X1294Y767D01*
X1294Y769D01*
X1288Y769D01*
X1288Y771D01*
X1282Y771D01*
X1282Y773D01*
X1280Y773D01*
X1280Y775D01*
X1276Y775D01*
X1276Y777D01*
X1274Y777D01*
X1274Y779D01*
X1272Y779D01*
X1272Y781D01*
X1270Y781D01*
X1270Y783D01*
X1268Y783D01*
X1268Y785D01*
X1266Y785D01*
X1266Y787D01*
X1264Y787D01*
X1264Y789D01*
X1262Y789D01*
X1262Y793D01*
X1260Y793D01*
X1260Y795D01*
X1258Y795D01*
X1258Y801D01*
X1256Y801D01*
X1256Y807D01*
X1254Y807D01*
X1254Y823D01*
X1256Y823D01*
X1256Y829D01*
X1258Y829D01*
X1258Y833D01*
X1260Y833D01*
X1260Y837D01*
X1262Y837D01*
X1262Y841D01*
X1264Y841D01*
X1264Y843D01*
X1266Y843D01*
X1266Y845D01*
X1268Y845D01*
X1268Y847D01*
X1270Y847D01*
X1270Y849D01*
X1272Y849D01*
X1272Y851D01*
X1274Y851D01*
X1274Y853D01*
X1278Y853D01*
X1278Y855D01*
X1280Y855D01*
X1280Y857D01*
X1284Y857D01*
X1284Y859D01*
X1290Y859D01*
X1290Y861D01*
X1300Y861D01*
X1300Y863D01*
X1212Y863D01*
G37*
D02*
G36*
X1304Y863D02*
X1304Y861D01*
X1314Y861D01*
X1314Y859D01*
X1318Y859D01*
X1318Y857D01*
X1322Y857D01*
X1322Y855D01*
X1326Y855D01*
X1326Y853D01*
X1328Y853D01*
X1328Y851D01*
X1330Y851D01*
X1330Y849D01*
X1334Y849D01*
X1334Y847D01*
X1336Y847D01*
X1336Y843D01*
X1338Y843D01*
X1338Y841D01*
X1340Y841D01*
X1340Y839D01*
X1342Y839D01*
X1342Y835D01*
X1344Y835D01*
X1344Y831D01*
X1346Y831D01*
X1346Y827D01*
X1348Y827D01*
X1348Y803D01*
X1346Y803D01*
X1346Y797D01*
X1344Y797D01*
X1344Y795D01*
X1342Y795D01*
X1342Y791D01*
X1340Y791D01*
X1340Y787D01*
X1338Y787D01*
X1338Y785D01*
X1336Y785D01*
X1336Y783D01*
X1334Y783D01*
X1334Y781D01*
X1332Y781D01*
X1332Y779D01*
X1330Y779D01*
X1330Y777D01*
X1326Y777D01*
X1326Y775D01*
X1324Y775D01*
X1324Y773D01*
X1320Y773D01*
X1320Y771D01*
X1316Y771D01*
X1316Y769D01*
X1310Y769D01*
X1310Y767D01*
X1470Y767D01*
X1470Y769D01*
X1464Y769D01*
X1464Y771D01*
X1460Y771D01*
X1460Y773D01*
X1456Y773D01*
X1456Y775D01*
X1454Y775D01*
X1454Y777D01*
X1450Y777D01*
X1450Y779D01*
X1448Y779D01*
X1448Y781D01*
X1446Y781D01*
X1446Y783D01*
X1444Y783D01*
X1444Y785D01*
X1442Y785D01*
X1442Y789D01*
X1440Y789D01*
X1440Y791D01*
X1438Y791D01*
X1438Y795D01*
X1436Y795D01*
X1436Y799D01*
X1434Y799D01*
X1434Y803D01*
X1432Y803D01*
X1432Y825D01*
X1434Y825D01*
X1434Y831D01*
X1436Y831D01*
X1436Y835D01*
X1438Y835D01*
X1438Y839D01*
X1440Y839D01*
X1440Y841D01*
X1442Y841D01*
X1442Y843D01*
X1444Y843D01*
X1444Y845D01*
X1446Y845D01*
X1446Y847D01*
X1448Y847D01*
X1448Y849D01*
X1450Y849D01*
X1450Y851D01*
X1452Y851D01*
X1452Y853D01*
X1454Y853D01*
X1454Y855D01*
X1458Y855D01*
X1458Y857D01*
X1462Y857D01*
X1462Y859D01*
X1466Y859D01*
X1466Y861D01*
X1476Y861D01*
X1476Y863D01*
X1304Y863D01*
G37*
D02*
G36*
X1208Y767D02*
X1208Y765D01*
X1554Y765D01*
X1554Y767D01*
X1208Y767D01*
G37*
D02*
G36*
X1208Y767D02*
X1208Y765D01*
X1554Y765D01*
X1554Y767D01*
X1208Y767D01*
G37*
D02*
G36*
X1208Y767D02*
X1208Y765D01*
X1554Y765D01*
X1554Y767D01*
X1208Y767D01*
G37*
D02*
G36*
X1210Y765D02*
X1210Y763D01*
X1212Y763D01*
X1212Y761D01*
X1214Y761D01*
X1214Y757D01*
X1216Y757D01*
X1216Y755D01*
X1218Y755D01*
X1218Y751D01*
X1220Y751D01*
X1220Y745D01*
X1222Y745D01*
X1222Y723D01*
X1220Y723D01*
X1220Y717D01*
X1218Y717D01*
X1218Y713D01*
X1216Y713D01*
X1216Y709D01*
X1214Y709D01*
X1214Y707D01*
X1212Y707D01*
X1212Y705D01*
X1210Y705D01*
X1210Y703D01*
X1208Y703D01*
X1208Y701D01*
X1206Y701D01*
X1206Y699D01*
X1204Y699D01*
X1204Y697D01*
X1202Y697D01*
X1202Y695D01*
X1198Y695D01*
X1198Y673D01*
X1200Y673D01*
X1200Y671D01*
X1204Y671D01*
X1204Y669D01*
X1206Y669D01*
X1206Y667D01*
X1208Y667D01*
X1208Y665D01*
X1210Y665D01*
X1210Y663D01*
X1212Y663D01*
X1212Y661D01*
X1214Y661D01*
X1214Y657D01*
X1216Y657D01*
X1216Y655D01*
X1218Y655D01*
X1218Y651D01*
X1220Y651D01*
X1220Y645D01*
X1222Y645D01*
X1222Y623D01*
X1220Y623D01*
X1220Y617D01*
X1218Y617D01*
X1218Y613D01*
X1216Y613D01*
X1216Y609D01*
X1214Y609D01*
X1214Y607D01*
X1482Y607D01*
X1482Y605D01*
X1490Y605D01*
X1490Y603D01*
X1496Y603D01*
X1496Y601D01*
X1500Y601D01*
X1500Y599D01*
X1502Y599D01*
X1502Y597D01*
X1506Y597D01*
X1506Y595D01*
X1508Y595D01*
X1508Y593D01*
X1510Y593D01*
X1510Y591D01*
X1512Y591D01*
X1512Y589D01*
X1514Y589D01*
X1514Y587D01*
X1516Y587D01*
X1516Y585D01*
X1518Y585D01*
X1518Y581D01*
X1520Y581D01*
X1520Y577D01*
X1522Y577D01*
X1522Y573D01*
X1524Y573D01*
X1524Y567D01*
X1526Y567D01*
X1526Y549D01*
X1524Y549D01*
X1524Y543D01*
X1522Y543D01*
X1522Y539D01*
X1520Y539D01*
X1520Y537D01*
X1518Y537D01*
X1518Y533D01*
X1516Y533D01*
X1516Y531D01*
X1514Y531D01*
X1514Y529D01*
X1512Y529D01*
X1512Y525D01*
X1508Y525D01*
X1508Y523D01*
X1506Y523D01*
X1506Y521D01*
X1504Y521D01*
X1504Y519D01*
X1500Y519D01*
X1500Y517D01*
X1498Y517D01*
X1498Y515D01*
X1492Y515D01*
X1492Y513D01*
X1486Y513D01*
X1486Y511D01*
X1554Y511D01*
X1554Y765D01*
X1210Y765D01*
G37*
D02*
G36*
X1212Y607D02*
X1212Y605D01*
X1210Y605D01*
X1210Y603D01*
X1208Y603D01*
X1208Y601D01*
X1206Y601D01*
X1206Y599D01*
X1204Y599D01*
X1204Y597D01*
X1202Y597D01*
X1202Y595D01*
X1198Y595D01*
X1198Y573D01*
X1200Y573D01*
X1200Y571D01*
X1204Y571D01*
X1204Y569D01*
X1206Y569D01*
X1206Y567D01*
X1208Y567D01*
X1208Y565D01*
X1210Y565D01*
X1210Y563D01*
X1212Y563D01*
X1212Y561D01*
X1214Y561D01*
X1214Y557D01*
X1216Y557D01*
X1216Y555D01*
X1218Y555D01*
X1218Y551D01*
X1220Y551D01*
X1220Y545D01*
X1222Y545D01*
X1222Y519D01*
X1224Y519D01*
X1224Y517D01*
X1226Y517D01*
X1226Y513D01*
X1228Y513D01*
X1228Y511D01*
X1294Y511D01*
X1294Y513D01*
X1288Y513D01*
X1288Y515D01*
X1284Y515D01*
X1284Y517D01*
X1280Y517D01*
X1280Y519D01*
X1276Y519D01*
X1276Y521D01*
X1274Y521D01*
X1274Y523D01*
X1272Y523D01*
X1272Y525D01*
X1270Y525D01*
X1270Y527D01*
X1268Y527D01*
X1268Y529D01*
X1266Y529D01*
X1266Y531D01*
X1264Y531D01*
X1264Y533D01*
X1262Y533D01*
X1262Y537D01*
X1260Y537D01*
X1260Y539D01*
X1258Y539D01*
X1258Y545D01*
X1256Y545D01*
X1256Y551D01*
X1254Y551D01*
X1254Y567D01*
X1256Y567D01*
X1256Y573D01*
X1258Y573D01*
X1258Y577D01*
X1260Y577D01*
X1260Y581D01*
X1262Y581D01*
X1262Y585D01*
X1264Y585D01*
X1264Y587D01*
X1266Y587D01*
X1266Y589D01*
X1268Y589D01*
X1268Y591D01*
X1270Y591D01*
X1270Y593D01*
X1272Y593D01*
X1272Y595D01*
X1274Y595D01*
X1274Y597D01*
X1278Y597D01*
X1278Y599D01*
X1280Y599D01*
X1280Y601D01*
X1284Y601D01*
X1284Y603D01*
X1290Y603D01*
X1290Y605D01*
X1298Y605D01*
X1298Y607D01*
X1212Y607D01*
G37*
D02*
G36*
X1304Y607D02*
X1304Y605D01*
X1314Y605D01*
X1314Y603D01*
X1318Y603D01*
X1318Y601D01*
X1322Y601D01*
X1322Y599D01*
X1326Y599D01*
X1326Y597D01*
X1328Y597D01*
X1328Y595D01*
X1330Y595D01*
X1330Y593D01*
X1334Y593D01*
X1334Y591D01*
X1336Y591D01*
X1336Y587D01*
X1338Y587D01*
X1338Y585D01*
X1340Y585D01*
X1340Y583D01*
X1342Y583D01*
X1342Y579D01*
X1344Y579D01*
X1344Y575D01*
X1346Y575D01*
X1346Y571D01*
X1348Y571D01*
X1348Y547D01*
X1346Y547D01*
X1346Y541D01*
X1344Y541D01*
X1344Y539D01*
X1342Y539D01*
X1342Y535D01*
X1340Y535D01*
X1340Y531D01*
X1338Y531D01*
X1338Y529D01*
X1336Y529D01*
X1336Y527D01*
X1334Y527D01*
X1334Y525D01*
X1332Y525D01*
X1332Y523D01*
X1330Y523D01*
X1330Y521D01*
X1326Y521D01*
X1326Y519D01*
X1324Y519D01*
X1324Y517D01*
X1320Y517D01*
X1320Y515D01*
X1316Y515D01*
X1316Y513D01*
X1308Y513D01*
X1308Y511D01*
X1472Y511D01*
X1472Y513D01*
X1466Y513D01*
X1466Y515D01*
X1460Y515D01*
X1460Y517D01*
X1456Y517D01*
X1456Y519D01*
X1454Y519D01*
X1454Y521D01*
X1452Y521D01*
X1452Y523D01*
X1448Y523D01*
X1448Y525D01*
X1446Y525D01*
X1446Y527D01*
X1444Y527D01*
X1444Y529D01*
X1442Y529D01*
X1442Y533D01*
X1440Y533D01*
X1440Y535D01*
X1438Y535D01*
X1438Y539D01*
X1436Y539D01*
X1436Y543D01*
X1434Y543D01*
X1434Y547D01*
X1432Y547D01*
X1432Y569D01*
X1434Y569D01*
X1434Y575D01*
X1436Y575D01*
X1436Y579D01*
X1438Y579D01*
X1438Y583D01*
X1440Y583D01*
X1440Y585D01*
X1442Y585D01*
X1442Y587D01*
X1444Y587D01*
X1444Y589D01*
X1446Y589D01*
X1446Y591D01*
X1448Y591D01*
X1448Y593D01*
X1450Y593D01*
X1450Y595D01*
X1452Y595D01*
X1452Y597D01*
X1454Y597D01*
X1454Y599D01*
X1458Y599D01*
X1458Y601D01*
X1462Y601D01*
X1462Y603D01*
X1466Y603D01*
X1466Y605D01*
X1476Y605D01*
X1476Y607D01*
X1304Y607D01*
G37*
D02*
G36*
X1230Y511D02*
X1230Y509D01*
X1554Y509D01*
X1554Y511D01*
X1230Y511D01*
G37*
D02*
G36*
X1230Y511D02*
X1230Y509D01*
X1554Y509D01*
X1554Y511D01*
X1230Y511D01*
G37*
D02*
G36*
X1230Y511D02*
X1230Y509D01*
X1554Y509D01*
X1554Y511D01*
X1230Y511D01*
G37*
D02*
G36*
X1232Y509D02*
X1232Y507D01*
X1234Y507D01*
X1234Y505D01*
X1236Y505D01*
X1236Y503D01*
X1238Y503D01*
X1238Y501D01*
X1240Y501D01*
X1240Y499D01*
X1242Y499D01*
X1242Y497D01*
X1244Y497D01*
X1244Y495D01*
X1246Y495D01*
X1246Y493D01*
X1248Y493D01*
X1248Y491D01*
X1250Y491D01*
X1250Y489D01*
X1252Y489D01*
X1252Y487D01*
X1254Y487D01*
X1254Y485D01*
X1256Y485D01*
X1256Y483D01*
X1258Y483D01*
X1258Y481D01*
X1260Y481D01*
X1260Y479D01*
X1262Y479D01*
X1262Y477D01*
X1264Y477D01*
X1264Y475D01*
X1266Y475D01*
X1266Y473D01*
X1268Y473D01*
X1268Y471D01*
X1270Y471D01*
X1270Y469D01*
X1272Y469D01*
X1272Y467D01*
X1274Y467D01*
X1274Y465D01*
X1276Y465D01*
X1276Y463D01*
X1278Y463D01*
X1278Y461D01*
X1280Y461D01*
X1280Y459D01*
X1282Y459D01*
X1282Y457D01*
X1284Y457D01*
X1284Y455D01*
X1286Y455D01*
X1286Y453D01*
X1288Y453D01*
X1288Y451D01*
X1290Y451D01*
X1290Y449D01*
X1292Y449D01*
X1292Y447D01*
X1294Y447D01*
X1294Y445D01*
X1486Y445D01*
X1486Y443D01*
X1492Y443D01*
X1492Y441D01*
X1494Y441D01*
X1494Y439D01*
X1498Y439D01*
X1498Y437D01*
X1500Y437D01*
X1500Y435D01*
X1502Y435D01*
X1502Y433D01*
X1504Y433D01*
X1504Y431D01*
X1506Y431D01*
X1506Y427D01*
X1508Y427D01*
X1508Y425D01*
X1510Y425D01*
X1510Y419D01*
X1512Y419D01*
X1512Y349D01*
X1510Y349D01*
X1510Y343D01*
X1508Y343D01*
X1508Y339D01*
X1506Y339D01*
X1506Y337D01*
X1504Y337D01*
X1504Y335D01*
X1502Y335D01*
X1502Y333D01*
X1500Y333D01*
X1500Y331D01*
X1498Y331D01*
X1498Y329D01*
X1496Y329D01*
X1496Y327D01*
X1492Y327D01*
X1492Y307D01*
X1560Y307D01*
X1560Y327D01*
X1558Y327D01*
X1558Y329D01*
X1554Y329D01*
X1554Y331D01*
X1552Y331D01*
X1552Y333D01*
X1550Y333D01*
X1550Y335D01*
X1548Y335D01*
X1548Y339D01*
X1546Y339D01*
X1546Y341D01*
X1544Y341D01*
X1544Y345D01*
X1542Y345D01*
X1542Y353D01*
X1540Y353D01*
X1540Y413D01*
X1542Y413D01*
X1542Y421D01*
X1544Y421D01*
X1544Y425D01*
X1546Y425D01*
X1546Y429D01*
X1548Y429D01*
X1548Y431D01*
X1550Y431D01*
X1550Y433D01*
X1552Y433D01*
X1552Y435D01*
X1554Y435D01*
X1554Y509D01*
X1232Y509D01*
G37*
D02*
G36*
X1296Y445D02*
X1296Y441D01*
X1298Y441D01*
X1298Y307D01*
X1360Y307D01*
X1360Y327D01*
X1358Y327D01*
X1358Y329D01*
X1354Y329D01*
X1354Y331D01*
X1352Y331D01*
X1352Y333D01*
X1350Y333D01*
X1350Y335D01*
X1348Y335D01*
X1348Y339D01*
X1346Y339D01*
X1346Y341D01*
X1344Y341D01*
X1344Y345D01*
X1342Y345D01*
X1342Y353D01*
X1340Y353D01*
X1340Y413D01*
X1342Y413D01*
X1342Y421D01*
X1344Y421D01*
X1344Y425D01*
X1346Y425D01*
X1346Y429D01*
X1348Y429D01*
X1348Y431D01*
X1350Y431D01*
X1350Y433D01*
X1352Y433D01*
X1352Y435D01*
X1354Y435D01*
X1354Y437D01*
X1356Y437D01*
X1356Y439D01*
X1358Y439D01*
X1358Y441D01*
X1362Y441D01*
X1362Y443D01*
X1366Y443D01*
X1366Y445D01*
X1296Y445D01*
G37*
D02*
G36*
X1386Y445D02*
X1386Y443D01*
X1392Y443D01*
X1392Y441D01*
X1394Y441D01*
X1394Y439D01*
X1398Y439D01*
X1398Y437D01*
X1400Y437D01*
X1400Y435D01*
X1402Y435D01*
X1402Y433D01*
X1404Y433D01*
X1404Y431D01*
X1406Y431D01*
X1406Y427D01*
X1408Y427D01*
X1408Y425D01*
X1410Y425D01*
X1410Y419D01*
X1412Y419D01*
X1412Y349D01*
X1410Y349D01*
X1410Y343D01*
X1408Y343D01*
X1408Y339D01*
X1406Y339D01*
X1406Y337D01*
X1404Y337D01*
X1404Y335D01*
X1402Y335D01*
X1402Y333D01*
X1400Y333D01*
X1400Y331D01*
X1398Y331D01*
X1398Y329D01*
X1396Y329D01*
X1396Y327D01*
X1392Y327D01*
X1392Y307D01*
X1460Y307D01*
X1460Y327D01*
X1458Y327D01*
X1458Y329D01*
X1454Y329D01*
X1454Y331D01*
X1452Y331D01*
X1452Y333D01*
X1450Y333D01*
X1450Y335D01*
X1448Y335D01*
X1448Y339D01*
X1446Y339D01*
X1446Y341D01*
X1444Y341D01*
X1444Y345D01*
X1442Y345D01*
X1442Y353D01*
X1440Y353D01*
X1440Y413D01*
X1442Y413D01*
X1442Y421D01*
X1444Y421D01*
X1444Y425D01*
X1446Y425D01*
X1446Y429D01*
X1448Y429D01*
X1448Y431D01*
X1450Y431D01*
X1450Y433D01*
X1452Y433D01*
X1452Y435D01*
X1454Y435D01*
X1454Y437D01*
X1456Y437D01*
X1456Y439D01*
X1458Y439D01*
X1458Y441D01*
X1462Y441D01*
X1462Y443D01*
X1466Y443D01*
X1466Y445D01*
X1386Y445D01*
G37*
D02*
G36*
X1714Y1161D02*
X1714Y1159D01*
X1712Y1159D01*
X1712Y1157D01*
X1710Y1157D01*
X1710Y1155D01*
X1708Y1155D01*
X1708Y1153D01*
X1706Y1153D01*
X1706Y1151D01*
X1704Y1151D01*
X1704Y1149D01*
X1702Y1149D01*
X1702Y1147D01*
X1698Y1147D01*
X1698Y1145D01*
X1696Y1145D01*
X1696Y1143D01*
X1694Y1143D01*
X1694Y1123D01*
X1698Y1123D01*
X1698Y1121D01*
X1700Y1121D01*
X1700Y1119D01*
X1702Y1119D01*
X1702Y1117D01*
X1706Y1117D01*
X1706Y1115D01*
X1708Y1115D01*
X1708Y1113D01*
X1710Y1113D01*
X1710Y1109D01*
X1712Y1109D01*
X1712Y1107D01*
X1714Y1107D01*
X1714Y1105D01*
X1716Y1105D01*
X1716Y1101D01*
X1718Y1101D01*
X1718Y1095D01*
X1720Y1095D01*
X1720Y1089D01*
X1722Y1089D01*
X1722Y1077D01*
X1720Y1077D01*
X1720Y1071D01*
X1718Y1071D01*
X1718Y1067D01*
X1716Y1067D01*
X1716Y1063D01*
X1714Y1063D01*
X1714Y1059D01*
X1712Y1059D01*
X1712Y1057D01*
X1710Y1057D01*
X1710Y1055D01*
X1708Y1055D01*
X1708Y1053D01*
X1706Y1053D01*
X1706Y1051D01*
X1704Y1051D01*
X1704Y1049D01*
X1702Y1049D01*
X1702Y1047D01*
X1698Y1047D01*
X1698Y437D01*
X1700Y437D01*
X1700Y435D01*
X1702Y435D01*
X1702Y433D01*
X1704Y433D01*
X1704Y431D01*
X1706Y431D01*
X1706Y427D01*
X1708Y427D01*
X1708Y425D01*
X1710Y425D01*
X1710Y419D01*
X1712Y419D01*
X1712Y349D01*
X1710Y349D01*
X1710Y343D01*
X1708Y343D01*
X1708Y339D01*
X1706Y339D01*
X1706Y337D01*
X1704Y337D01*
X1704Y335D01*
X1702Y335D01*
X1702Y333D01*
X1700Y333D01*
X1700Y331D01*
X1698Y331D01*
X1698Y329D01*
X1696Y329D01*
X1696Y327D01*
X1692Y327D01*
X1692Y307D01*
X1760Y307D01*
X1760Y327D01*
X1758Y327D01*
X1758Y329D01*
X1754Y329D01*
X1754Y331D01*
X1752Y331D01*
X1752Y333D01*
X1750Y333D01*
X1750Y335D01*
X1748Y335D01*
X1748Y339D01*
X1746Y339D01*
X1746Y341D01*
X1744Y341D01*
X1744Y345D01*
X1742Y345D01*
X1742Y353D01*
X1740Y353D01*
X1740Y413D01*
X1742Y413D01*
X1742Y421D01*
X1744Y421D01*
X1744Y425D01*
X1746Y425D01*
X1746Y429D01*
X1748Y429D01*
X1748Y431D01*
X1750Y431D01*
X1750Y433D01*
X1752Y433D01*
X1752Y435D01*
X1754Y435D01*
X1754Y963D01*
X1756Y963D01*
X1756Y1161D01*
X1714Y1161D01*
G37*
D02*
G36*
X116Y1159D02*
X116Y1155D01*
X114Y1155D01*
X114Y1153D01*
X112Y1153D01*
X112Y1151D01*
X110Y1151D01*
X110Y1149D01*
X108Y1149D01*
X108Y1147D01*
X106Y1147D01*
X106Y1145D01*
X102Y1145D01*
X102Y1143D01*
X100Y1143D01*
X100Y1141D01*
X98Y1141D01*
X98Y973D01*
X100Y973D01*
X100Y971D01*
X104Y971D01*
X104Y969D01*
X106Y969D01*
X106Y967D01*
X108Y967D01*
X108Y965D01*
X110Y965D01*
X110Y963D01*
X112Y963D01*
X112Y961D01*
X114Y961D01*
X114Y957D01*
X116Y957D01*
X116Y955D01*
X138Y955D01*
X138Y959D01*
X140Y959D01*
X140Y961D01*
X142Y961D01*
X142Y963D01*
X144Y963D01*
X144Y965D01*
X146Y965D01*
X146Y967D01*
X148Y967D01*
X148Y969D01*
X150Y969D01*
X150Y971D01*
X152Y971D01*
X152Y973D01*
X154Y973D01*
X154Y1143D01*
X150Y1143D01*
X150Y1145D01*
X148Y1145D01*
X148Y1147D01*
X146Y1147D01*
X146Y1149D01*
X144Y1149D01*
X144Y1151D01*
X142Y1151D01*
X142Y1153D01*
X140Y1153D01*
X140Y1155D01*
X138Y1155D01*
X138Y1157D01*
X136Y1157D01*
X136Y1159D01*
X116Y1159D01*
G37*
D02*
G36*
X216Y1159D02*
X216Y1155D01*
X214Y1155D01*
X214Y1153D01*
X212Y1153D01*
X212Y1151D01*
X210Y1151D01*
X210Y1149D01*
X208Y1149D01*
X208Y1147D01*
X206Y1147D01*
X206Y1145D01*
X202Y1145D01*
X202Y1143D01*
X200Y1143D01*
X200Y1141D01*
X198Y1141D01*
X198Y973D01*
X200Y973D01*
X200Y971D01*
X204Y971D01*
X204Y969D01*
X206Y969D01*
X206Y967D01*
X208Y967D01*
X208Y965D01*
X210Y965D01*
X210Y963D01*
X212Y963D01*
X212Y961D01*
X214Y961D01*
X214Y957D01*
X216Y957D01*
X216Y955D01*
X238Y955D01*
X238Y959D01*
X240Y959D01*
X240Y961D01*
X242Y961D01*
X242Y963D01*
X244Y963D01*
X244Y965D01*
X246Y965D01*
X246Y967D01*
X248Y967D01*
X248Y969D01*
X250Y969D01*
X250Y971D01*
X252Y971D01*
X252Y973D01*
X254Y973D01*
X254Y1143D01*
X250Y1143D01*
X250Y1145D01*
X248Y1145D01*
X248Y1147D01*
X246Y1147D01*
X246Y1149D01*
X244Y1149D01*
X244Y1151D01*
X242Y1151D01*
X242Y1153D01*
X240Y1153D01*
X240Y1155D01*
X238Y1155D01*
X238Y1157D01*
X236Y1157D01*
X236Y1159D01*
X216Y1159D01*
G37*
D02*
G36*
X316Y1159D02*
X316Y1155D01*
X314Y1155D01*
X314Y1153D01*
X312Y1153D01*
X312Y1151D01*
X310Y1151D01*
X310Y1149D01*
X308Y1149D01*
X308Y1147D01*
X306Y1147D01*
X306Y1145D01*
X302Y1145D01*
X302Y1143D01*
X300Y1143D01*
X300Y1141D01*
X298Y1141D01*
X298Y973D01*
X300Y973D01*
X300Y971D01*
X304Y971D01*
X304Y969D01*
X306Y969D01*
X306Y967D01*
X308Y967D01*
X308Y965D01*
X310Y965D01*
X310Y963D01*
X312Y963D01*
X312Y961D01*
X314Y961D01*
X314Y957D01*
X316Y957D01*
X316Y955D01*
X338Y955D01*
X338Y959D01*
X340Y959D01*
X340Y961D01*
X342Y961D01*
X342Y963D01*
X344Y963D01*
X344Y965D01*
X346Y965D01*
X346Y967D01*
X348Y967D01*
X348Y969D01*
X350Y969D01*
X350Y971D01*
X352Y971D01*
X352Y973D01*
X354Y973D01*
X354Y1143D01*
X350Y1143D01*
X350Y1145D01*
X348Y1145D01*
X348Y1147D01*
X346Y1147D01*
X346Y1149D01*
X344Y1149D01*
X344Y1151D01*
X342Y1151D01*
X342Y1153D01*
X340Y1153D01*
X340Y1155D01*
X338Y1155D01*
X338Y1157D01*
X336Y1157D01*
X336Y1159D01*
X316Y1159D01*
G37*
D02*
G36*
X416Y1159D02*
X416Y1155D01*
X414Y1155D01*
X414Y1153D01*
X412Y1153D01*
X412Y1151D01*
X410Y1151D01*
X410Y1149D01*
X408Y1149D01*
X408Y1147D01*
X406Y1147D01*
X406Y1145D01*
X402Y1145D01*
X402Y1143D01*
X400Y1143D01*
X400Y1141D01*
X398Y1141D01*
X398Y973D01*
X400Y973D01*
X400Y971D01*
X404Y971D01*
X404Y969D01*
X406Y969D01*
X406Y967D01*
X408Y967D01*
X408Y965D01*
X410Y965D01*
X410Y963D01*
X412Y963D01*
X412Y961D01*
X414Y961D01*
X414Y957D01*
X416Y957D01*
X416Y955D01*
X438Y955D01*
X438Y959D01*
X440Y959D01*
X440Y961D01*
X442Y961D01*
X442Y963D01*
X444Y963D01*
X444Y965D01*
X446Y965D01*
X446Y967D01*
X448Y967D01*
X448Y969D01*
X450Y969D01*
X450Y971D01*
X452Y971D01*
X452Y973D01*
X454Y973D01*
X454Y1143D01*
X450Y1143D01*
X450Y1145D01*
X448Y1145D01*
X448Y1147D01*
X446Y1147D01*
X446Y1149D01*
X444Y1149D01*
X444Y1151D01*
X442Y1151D01*
X442Y1153D01*
X440Y1153D01*
X440Y1155D01*
X438Y1155D01*
X438Y1157D01*
X436Y1157D01*
X436Y1159D01*
X416Y1159D01*
G37*
D02*
G36*
X516Y1159D02*
X516Y1155D01*
X514Y1155D01*
X514Y1153D01*
X512Y1153D01*
X512Y1151D01*
X510Y1151D01*
X510Y1149D01*
X508Y1149D01*
X508Y1147D01*
X506Y1147D01*
X506Y1145D01*
X502Y1145D01*
X502Y1143D01*
X500Y1143D01*
X500Y1141D01*
X498Y1141D01*
X498Y973D01*
X500Y973D01*
X500Y971D01*
X504Y971D01*
X504Y969D01*
X506Y969D01*
X506Y967D01*
X508Y967D01*
X508Y965D01*
X510Y965D01*
X510Y963D01*
X512Y963D01*
X512Y961D01*
X514Y961D01*
X514Y957D01*
X516Y957D01*
X516Y955D01*
X538Y955D01*
X538Y959D01*
X540Y959D01*
X540Y961D01*
X542Y961D01*
X542Y963D01*
X544Y963D01*
X544Y965D01*
X546Y965D01*
X546Y967D01*
X548Y967D01*
X548Y969D01*
X550Y969D01*
X550Y971D01*
X552Y971D01*
X552Y973D01*
X554Y973D01*
X554Y1143D01*
X550Y1143D01*
X550Y1145D01*
X548Y1145D01*
X548Y1147D01*
X546Y1147D01*
X546Y1149D01*
X544Y1149D01*
X544Y1151D01*
X542Y1151D01*
X542Y1153D01*
X540Y1153D01*
X540Y1155D01*
X538Y1155D01*
X538Y1157D01*
X536Y1157D01*
X536Y1159D01*
X516Y1159D01*
G37*
D02*
G36*
X616Y1159D02*
X616Y1155D01*
X614Y1155D01*
X614Y1153D01*
X612Y1153D01*
X612Y1151D01*
X610Y1151D01*
X610Y1149D01*
X608Y1149D01*
X608Y1147D01*
X606Y1147D01*
X606Y1145D01*
X602Y1145D01*
X602Y1143D01*
X600Y1143D01*
X600Y1141D01*
X598Y1141D01*
X598Y973D01*
X600Y973D01*
X600Y971D01*
X604Y971D01*
X604Y969D01*
X606Y969D01*
X606Y967D01*
X608Y967D01*
X608Y965D01*
X610Y965D01*
X610Y963D01*
X612Y963D01*
X612Y961D01*
X614Y961D01*
X614Y957D01*
X616Y957D01*
X616Y955D01*
X638Y955D01*
X638Y959D01*
X640Y959D01*
X640Y961D01*
X642Y961D01*
X642Y963D01*
X644Y963D01*
X644Y965D01*
X646Y965D01*
X646Y967D01*
X648Y967D01*
X648Y969D01*
X650Y969D01*
X650Y971D01*
X652Y971D01*
X652Y973D01*
X654Y973D01*
X654Y1143D01*
X650Y1143D01*
X650Y1145D01*
X648Y1145D01*
X648Y1147D01*
X646Y1147D01*
X646Y1149D01*
X644Y1149D01*
X644Y1151D01*
X642Y1151D01*
X642Y1153D01*
X640Y1153D01*
X640Y1155D01*
X638Y1155D01*
X638Y1157D01*
X636Y1157D01*
X636Y1159D01*
X616Y1159D01*
G37*
D02*
G36*
X716Y1159D02*
X716Y1155D01*
X714Y1155D01*
X714Y1153D01*
X712Y1153D01*
X712Y1151D01*
X710Y1151D01*
X710Y1149D01*
X708Y1149D01*
X708Y1147D01*
X706Y1147D01*
X706Y1145D01*
X702Y1145D01*
X702Y1143D01*
X700Y1143D01*
X700Y1141D01*
X698Y1141D01*
X698Y973D01*
X700Y973D01*
X700Y971D01*
X704Y971D01*
X704Y969D01*
X706Y969D01*
X706Y967D01*
X708Y967D01*
X708Y965D01*
X710Y965D01*
X710Y963D01*
X712Y963D01*
X712Y961D01*
X714Y961D01*
X714Y957D01*
X716Y957D01*
X716Y955D01*
X738Y955D01*
X738Y959D01*
X740Y959D01*
X740Y961D01*
X742Y961D01*
X742Y963D01*
X744Y963D01*
X744Y965D01*
X746Y965D01*
X746Y967D01*
X748Y967D01*
X748Y969D01*
X750Y969D01*
X750Y971D01*
X752Y971D01*
X752Y973D01*
X754Y973D01*
X754Y1143D01*
X750Y1143D01*
X750Y1145D01*
X748Y1145D01*
X748Y1147D01*
X746Y1147D01*
X746Y1149D01*
X744Y1149D01*
X744Y1151D01*
X742Y1151D01*
X742Y1153D01*
X740Y1153D01*
X740Y1155D01*
X738Y1155D01*
X738Y1157D01*
X736Y1157D01*
X736Y1159D01*
X716Y1159D01*
G37*
D02*
G36*
X816Y1159D02*
X816Y1155D01*
X814Y1155D01*
X814Y1153D01*
X812Y1153D01*
X812Y1151D01*
X810Y1151D01*
X810Y1149D01*
X808Y1149D01*
X808Y1147D01*
X806Y1147D01*
X806Y1145D01*
X802Y1145D01*
X802Y1143D01*
X800Y1143D01*
X800Y1141D01*
X798Y1141D01*
X798Y973D01*
X800Y973D01*
X800Y971D01*
X804Y971D01*
X804Y969D01*
X806Y969D01*
X806Y967D01*
X808Y967D01*
X808Y965D01*
X810Y965D01*
X810Y963D01*
X812Y963D01*
X812Y961D01*
X814Y961D01*
X814Y957D01*
X816Y957D01*
X816Y955D01*
X838Y955D01*
X838Y959D01*
X840Y959D01*
X840Y961D01*
X842Y961D01*
X842Y963D01*
X844Y963D01*
X844Y965D01*
X846Y965D01*
X846Y967D01*
X848Y967D01*
X848Y969D01*
X850Y969D01*
X850Y971D01*
X852Y971D01*
X852Y973D01*
X854Y973D01*
X854Y1143D01*
X850Y1143D01*
X850Y1145D01*
X848Y1145D01*
X848Y1147D01*
X846Y1147D01*
X846Y1149D01*
X844Y1149D01*
X844Y1151D01*
X842Y1151D01*
X842Y1153D01*
X840Y1153D01*
X840Y1155D01*
X838Y1155D01*
X838Y1157D01*
X836Y1157D01*
X836Y1159D01*
X816Y1159D01*
G37*
D02*
G36*
X916Y1159D02*
X916Y1155D01*
X914Y1155D01*
X914Y1153D01*
X912Y1153D01*
X912Y1151D01*
X910Y1151D01*
X910Y1149D01*
X908Y1149D01*
X908Y1147D01*
X906Y1147D01*
X906Y1145D01*
X902Y1145D01*
X902Y1143D01*
X900Y1143D01*
X900Y1141D01*
X898Y1141D01*
X898Y973D01*
X900Y973D01*
X900Y971D01*
X904Y971D01*
X904Y969D01*
X906Y969D01*
X906Y967D01*
X908Y967D01*
X908Y965D01*
X910Y965D01*
X910Y963D01*
X912Y963D01*
X912Y961D01*
X914Y961D01*
X914Y957D01*
X916Y957D01*
X916Y955D01*
X938Y955D01*
X938Y959D01*
X940Y959D01*
X940Y961D01*
X942Y961D01*
X942Y963D01*
X944Y963D01*
X944Y965D01*
X946Y965D01*
X946Y967D01*
X948Y967D01*
X948Y969D01*
X950Y969D01*
X950Y971D01*
X952Y971D01*
X952Y973D01*
X954Y973D01*
X954Y1143D01*
X950Y1143D01*
X950Y1145D01*
X948Y1145D01*
X948Y1147D01*
X946Y1147D01*
X946Y1149D01*
X944Y1149D01*
X944Y1151D01*
X942Y1151D01*
X942Y1153D01*
X940Y1153D01*
X940Y1155D01*
X938Y1155D01*
X938Y1157D01*
X936Y1157D01*
X936Y1159D01*
X916Y1159D01*
G37*
D02*
G36*
X1016Y1159D02*
X1016Y1155D01*
X1014Y1155D01*
X1014Y1153D01*
X1012Y1153D01*
X1012Y1151D01*
X1010Y1151D01*
X1010Y1149D01*
X1008Y1149D01*
X1008Y1147D01*
X1006Y1147D01*
X1006Y1145D01*
X1002Y1145D01*
X1002Y1143D01*
X1000Y1143D01*
X1000Y1141D01*
X998Y1141D01*
X998Y973D01*
X1000Y973D01*
X1000Y971D01*
X1004Y971D01*
X1004Y969D01*
X1006Y969D01*
X1006Y967D01*
X1008Y967D01*
X1008Y965D01*
X1010Y965D01*
X1010Y963D01*
X1012Y963D01*
X1012Y961D01*
X1014Y961D01*
X1014Y957D01*
X1016Y957D01*
X1016Y955D01*
X1038Y955D01*
X1038Y959D01*
X1040Y959D01*
X1040Y961D01*
X1042Y961D01*
X1042Y963D01*
X1044Y963D01*
X1044Y965D01*
X1046Y965D01*
X1046Y967D01*
X1048Y967D01*
X1048Y969D01*
X1050Y969D01*
X1050Y971D01*
X1052Y971D01*
X1052Y973D01*
X1054Y973D01*
X1054Y1143D01*
X1050Y1143D01*
X1050Y1145D01*
X1048Y1145D01*
X1048Y1147D01*
X1046Y1147D01*
X1046Y1149D01*
X1044Y1149D01*
X1044Y1151D01*
X1042Y1151D01*
X1042Y1153D01*
X1040Y1153D01*
X1040Y1155D01*
X1038Y1155D01*
X1038Y1157D01*
X1036Y1157D01*
X1036Y1159D01*
X1016Y1159D01*
G37*
D02*
G36*
X1116Y1159D02*
X1116Y1155D01*
X1114Y1155D01*
X1114Y1153D01*
X1112Y1153D01*
X1112Y1151D01*
X1110Y1151D01*
X1110Y1149D01*
X1108Y1149D01*
X1108Y1147D01*
X1106Y1147D01*
X1106Y1145D01*
X1102Y1145D01*
X1102Y1143D01*
X1100Y1143D01*
X1100Y1141D01*
X1098Y1141D01*
X1098Y973D01*
X1100Y973D01*
X1100Y971D01*
X1104Y971D01*
X1104Y969D01*
X1106Y969D01*
X1106Y967D01*
X1108Y967D01*
X1108Y965D01*
X1110Y965D01*
X1110Y963D01*
X1112Y963D01*
X1112Y961D01*
X1114Y961D01*
X1114Y957D01*
X1116Y957D01*
X1116Y955D01*
X1138Y955D01*
X1138Y959D01*
X1140Y959D01*
X1140Y961D01*
X1142Y961D01*
X1142Y963D01*
X1144Y963D01*
X1144Y965D01*
X1146Y965D01*
X1146Y967D01*
X1148Y967D01*
X1148Y969D01*
X1150Y969D01*
X1150Y971D01*
X1152Y971D01*
X1152Y973D01*
X1154Y973D01*
X1154Y1143D01*
X1150Y1143D01*
X1150Y1145D01*
X1148Y1145D01*
X1148Y1147D01*
X1146Y1147D01*
X1146Y1149D01*
X1144Y1149D01*
X1144Y1151D01*
X1142Y1151D01*
X1142Y1153D01*
X1140Y1153D01*
X1140Y1155D01*
X1138Y1155D01*
X1138Y1157D01*
X1136Y1157D01*
X1136Y1159D01*
X1116Y1159D01*
G37*
D02*
G36*
X1616Y1067D02*
X1616Y1063D01*
X1614Y1063D01*
X1614Y1059D01*
X1612Y1059D01*
X1612Y1057D01*
X1610Y1057D01*
X1610Y1055D01*
X1608Y1055D01*
X1608Y1053D01*
X1606Y1053D01*
X1606Y1051D01*
X1604Y1051D01*
X1604Y1049D01*
X1602Y1049D01*
X1602Y1047D01*
X1598Y1047D01*
X1598Y437D01*
X1600Y437D01*
X1600Y435D01*
X1602Y435D01*
X1602Y433D01*
X1604Y433D01*
X1604Y431D01*
X1606Y431D01*
X1606Y427D01*
X1608Y427D01*
X1608Y425D01*
X1610Y425D01*
X1610Y419D01*
X1612Y419D01*
X1612Y349D01*
X1610Y349D01*
X1610Y343D01*
X1608Y343D01*
X1608Y339D01*
X1606Y339D01*
X1606Y337D01*
X1604Y337D01*
X1604Y335D01*
X1602Y335D01*
X1602Y333D01*
X1600Y333D01*
X1600Y331D01*
X1598Y331D01*
X1598Y329D01*
X1596Y329D01*
X1596Y327D01*
X1592Y327D01*
X1592Y307D01*
X1660Y307D01*
X1660Y327D01*
X1658Y327D01*
X1658Y329D01*
X1654Y329D01*
X1654Y331D01*
X1652Y331D01*
X1652Y333D01*
X1650Y333D01*
X1650Y335D01*
X1648Y335D01*
X1648Y339D01*
X1646Y339D01*
X1646Y341D01*
X1644Y341D01*
X1644Y345D01*
X1642Y345D01*
X1642Y353D01*
X1640Y353D01*
X1640Y413D01*
X1642Y413D01*
X1642Y421D01*
X1644Y421D01*
X1644Y425D01*
X1646Y425D01*
X1646Y429D01*
X1648Y429D01*
X1648Y431D01*
X1650Y431D01*
X1650Y433D01*
X1652Y433D01*
X1652Y435D01*
X1654Y435D01*
X1654Y1047D01*
X1652Y1047D01*
X1652Y1049D01*
X1648Y1049D01*
X1648Y1051D01*
X1646Y1051D01*
X1646Y1053D01*
X1644Y1053D01*
X1644Y1055D01*
X1642Y1055D01*
X1642Y1059D01*
X1640Y1059D01*
X1640Y1061D01*
X1638Y1061D01*
X1638Y1065D01*
X1636Y1065D01*
X1636Y1067D01*
X1616Y1067D01*
G37*
D02*
G36*
X1916Y1067D02*
X1916Y1063D01*
X1914Y1063D01*
X1914Y1059D01*
X1912Y1059D01*
X1912Y1057D01*
X1910Y1057D01*
X1910Y1055D01*
X1908Y1055D01*
X1908Y1053D01*
X1906Y1053D01*
X1906Y1051D01*
X1904Y1051D01*
X1904Y1049D01*
X1902Y1049D01*
X1902Y1047D01*
X1898Y1047D01*
X1898Y437D01*
X1900Y437D01*
X1900Y435D01*
X1902Y435D01*
X1902Y433D01*
X1904Y433D01*
X1904Y431D01*
X1906Y431D01*
X1906Y427D01*
X1908Y427D01*
X1908Y425D01*
X1910Y425D01*
X1910Y419D01*
X1912Y419D01*
X1912Y349D01*
X1910Y349D01*
X1910Y343D01*
X1908Y343D01*
X1908Y339D01*
X1906Y339D01*
X1906Y337D01*
X1904Y337D01*
X1904Y335D01*
X1902Y335D01*
X1902Y333D01*
X1900Y333D01*
X1900Y331D01*
X1898Y331D01*
X1898Y329D01*
X1896Y329D01*
X1896Y327D01*
X1892Y327D01*
X1892Y307D01*
X1960Y307D01*
X1960Y327D01*
X1958Y327D01*
X1958Y329D01*
X1954Y329D01*
X1954Y331D01*
X1952Y331D01*
X1952Y333D01*
X1950Y333D01*
X1950Y335D01*
X1948Y335D01*
X1948Y339D01*
X1946Y339D01*
X1946Y341D01*
X1944Y341D01*
X1944Y345D01*
X1942Y345D01*
X1942Y353D01*
X1940Y353D01*
X1940Y413D01*
X1942Y413D01*
X1942Y421D01*
X1944Y421D01*
X1944Y425D01*
X1946Y425D01*
X1946Y429D01*
X1948Y429D01*
X1948Y431D01*
X1950Y431D01*
X1950Y433D01*
X1952Y433D01*
X1952Y435D01*
X1954Y435D01*
X1954Y1047D01*
X1952Y1047D01*
X1952Y1049D01*
X1948Y1049D01*
X1948Y1051D01*
X1946Y1051D01*
X1946Y1053D01*
X1944Y1053D01*
X1944Y1055D01*
X1942Y1055D01*
X1942Y1059D01*
X1940Y1059D01*
X1940Y1061D01*
X1938Y1061D01*
X1938Y1065D01*
X1936Y1065D01*
X1936Y1067D01*
X1916Y1067D01*
G37*
D02*
G36*
X2016Y1067D02*
X2016Y1063D01*
X2014Y1063D01*
X2014Y1059D01*
X2012Y1059D01*
X2012Y1057D01*
X2010Y1057D01*
X2010Y1055D01*
X2008Y1055D01*
X2008Y1053D01*
X2006Y1053D01*
X2006Y1051D01*
X2004Y1051D01*
X2004Y1049D01*
X2002Y1049D01*
X2002Y1047D01*
X1998Y1047D01*
X1998Y445D01*
X2086Y445D01*
X2086Y443D01*
X2092Y443D01*
X2092Y441D01*
X2094Y441D01*
X2094Y439D01*
X2098Y439D01*
X2098Y437D01*
X2100Y437D01*
X2100Y435D01*
X2102Y435D01*
X2102Y433D01*
X2104Y433D01*
X2104Y431D01*
X2106Y431D01*
X2106Y427D01*
X2108Y427D01*
X2108Y425D01*
X2110Y425D01*
X2110Y419D01*
X2112Y419D01*
X2112Y349D01*
X2110Y349D01*
X2110Y343D01*
X2108Y343D01*
X2108Y339D01*
X2106Y339D01*
X2106Y337D01*
X2104Y337D01*
X2104Y335D01*
X2102Y335D01*
X2102Y333D01*
X2100Y333D01*
X2100Y331D01*
X2098Y331D01*
X2098Y329D01*
X2096Y329D01*
X2096Y327D01*
X2092Y327D01*
X2092Y325D01*
X2088Y325D01*
X2088Y303D01*
X2090Y303D01*
X2090Y301D01*
X2094Y301D01*
X2094Y297D01*
X2096Y297D01*
X2096Y295D01*
X2098Y295D01*
X2098Y289D01*
X2100Y289D01*
X2100Y179D01*
X2098Y179D01*
X2098Y153D01*
X2118Y153D01*
X2118Y155D01*
X2120Y155D01*
X2120Y157D01*
X2122Y157D01*
X2122Y159D01*
X2124Y159D01*
X2124Y161D01*
X2126Y161D01*
X2126Y163D01*
X2128Y163D01*
X2128Y165D01*
X2130Y165D01*
X2130Y167D01*
X2132Y167D01*
X2132Y169D01*
X2134Y169D01*
X2134Y171D01*
X2136Y171D01*
X2136Y173D01*
X2138Y173D01*
X2138Y175D01*
X2140Y175D01*
X2140Y177D01*
X2142Y177D01*
X2142Y179D01*
X2144Y179D01*
X2144Y181D01*
X2146Y181D01*
X2146Y183D01*
X2148Y183D01*
X2148Y185D01*
X2150Y185D01*
X2150Y187D01*
X2152Y187D01*
X2152Y189D01*
X2154Y189D01*
X2154Y191D01*
X2156Y191D01*
X2156Y549D01*
X2154Y549D01*
X2154Y777D01*
X2152Y777D01*
X2152Y779D01*
X2150Y779D01*
X2150Y781D01*
X2148Y781D01*
X2148Y783D01*
X2146Y783D01*
X2146Y785D01*
X2144Y785D01*
X2144Y787D01*
X2142Y787D01*
X2142Y789D01*
X2140Y789D01*
X2140Y791D01*
X2138Y791D01*
X2138Y793D01*
X2136Y793D01*
X2136Y795D01*
X2134Y795D01*
X2134Y797D01*
X2132Y797D01*
X2132Y799D01*
X2130Y799D01*
X2130Y801D01*
X2128Y801D01*
X2128Y803D01*
X2126Y803D01*
X2126Y805D01*
X2124Y805D01*
X2124Y807D01*
X2122Y807D01*
X2122Y809D01*
X2120Y809D01*
X2120Y811D01*
X2118Y811D01*
X2118Y813D01*
X2114Y813D01*
X2114Y815D01*
X2112Y815D01*
X2112Y817D01*
X2110Y817D01*
X2110Y819D01*
X2108Y819D01*
X2108Y821D01*
X2106Y821D01*
X2106Y823D01*
X2104Y823D01*
X2104Y825D01*
X2102Y825D01*
X2102Y827D01*
X2100Y827D01*
X2100Y829D01*
X2098Y829D01*
X2098Y831D01*
X2096Y831D01*
X2096Y833D01*
X2094Y833D01*
X2094Y835D01*
X2092Y835D01*
X2092Y837D01*
X2090Y837D01*
X2090Y839D01*
X2088Y839D01*
X2088Y841D01*
X2086Y841D01*
X2086Y843D01*
X2084Y843D01*
X2084Y845D01*
X2082Y845D01*
X2082Y847D01*
X2080Y847D01*
X2080Y849D01*
X2078Y849D01*
X2078Y851D01*
X2076Y851D01*
X2076Y853D01*
X2074Y853D01*
X2074Y855D01*
X2072Y855D01*
X2072Y857D01*
X2070Y857D01*
X2070Y859D01*
X2068Y859D01*
X2068Y861D01*
X2066Y861D01*
X2066Y863D01*
X2064Y863D01*
X2064Y865D01*
X2062Y865D01*
X2062Y867D01*
X2060Y867D01*
X2060Y869D01*
X2058Y869D01*
X2058Y871D01*
X2056Y871D01*
X2056Y875D01*
X2054Y875D01*
X2054Y1047D01*
X2052Y1047D01*
X2052Y1049D01*
X2048Y1049D01*
X2048Y1051D01*
X2046Y1051D01*
X2046Y1053D01*
X2044Y1053D01*
X2044Y1055D01*
X2042Y1055D01*
X2042Y1059D01*
X2040Y1059D01*
X2040Y1061D01*
X2038Y1061D01*
X2038Y1065D01*
X2036Y1065D01*
X2036Y1067D01*
X2016Y1067D01*
G37*
D02*
G36*
X1998Y445D02*
X1998Y437D01*
X2000Y437D01*
X2000Y435D01*
X2002Y435D01*
X2002Y433D01*
X2004Y433D01*
X2004Y431D01*
X2006Y431D01*
X2006Y427D01*
X2008Y427D01*
X2008Y425D01*
X2010Y425D01*
X2010Y419D01*
X2012Y419D01*
X2012Y349D01*
X2010Y349D01*
X2010Y343D01*
X2008Y343D01*
X2008Y339D01*
X2006Y339D01*
X2006Y337D01*
X2004Y337D01*
X2004Y335D01*
X2002Y335D01*
X2002Y333D01*
X2000Y333D01*
X2000Y331D01*
X1998Y331D01*
X1998Y329D01*
X1996Y329D01*
X1996Y327D01*
X1992Y327D01*
X1992Y307D01*
X2060Y307D01*
X2060Y327D01*
X2058Y327D01*
X2058Y329D01*
X2054Y329D01*
X2054Y331D01*
X2052Y331D01*
X2052Y333D01*
X2050Y333D01*
X2050Y335D01*
X2048Y335D01*
X2048Y339D01*
X2046Y339D01*
X2046Y341D01*
X2044Y341D01*
X2044Y345D01*
X2042Y345D01*
X2042Y353D01*
X2040Y353D01*
X2040Y413D01*
X2042Y413D01*
X2042Y421D01*
X2044Y421D01*
X2044Y425D01*
X2046Y425D01*
X2046Y429D01*
X2048Y429D01*
X2048Y431D01*
X2050Y431D01*
X2050Y433D01*
X2052Y433D01*
X2052Y435D01*
X2054Y435D01*
X2054Y437D01*
X2056Y437D01*
X2056Y439D01*
X2058Y439D01*
X2058Y441D01*
X2062Y441D01*
X2062Y443D01*
X2066Y443D01*
X2066Y445D01*
X1998Y445D01*
G37*
D02*
G36*
X116Y913D02*
X116Y909D01*
X114Y909D01*
X114Y907D01*
X112Y907D01*
X112Y905D01*
X110Y905D01*
X110Y903D01*
X108Y903D01*
X108Y901D01*
X106Y901D01*
X106Y899D01*
X104Y899D01*
X104Y897D01*
X102Y897D01*
X102Y895D01*
X98Y895D01*
X98Y893D01*
X94Y893D01*
X94Y891D01*
X90Y891D01*
X90Y889D01*
X84Y889D01*
X84Y887D01*
X170Y887D01*
X170Y889D01*
X164Y889D01*
X164Y891D01*
X158Y891D01*
X158Y893D01*
X154Y893D01*
X154Y895D01*
X152Y895D01*
X152Y897D01*
X150Y897D01*
X150Y899D01*
X146Y899D01*
X146Y901D01*
X144Y901D01*
X144Y903D01*
X142Y903D01*
X142Y907D01*
X140Y907D01*
X140Y909D01*
X138Y909D01*
X138Y911D01*
X136Y911D01*
X136Y913D01*
X116Y913D01*
G37*
D02*
G36*
X216Y913D02*
X216Y909D01*
X214Y909D01*
X214Y907D01*
X212Y907D01*
X212Y905D01*
X210Y905D01*
X210Y903D01*
X208Y903D01*
X208Y901D01*
X206Y901D01*
X206Y899D01*
X204Y899D01*
X204Y897D01*
X202Y897D01*
X202Y895D01*
X198Y895D01*
X198Y893D01*
X194Y893D01*
X194Y891D01*
X190Y891D01*
X190Y889D01*
X184Y889D01*
X184Y887D01*
X270Y887D01*
X270Y889D01*
X264Y889D01*
X264Y891D01*
X258Y891D01*
X258Y893D01*
X254Y893D01*
X254Y895D01*
X252Y895D01*
X252Y897D01*
X250Y897D01*
X250Y899D01*
X246Y899D01*
X246Y901D01*
X244Y901D01*
X244Y903D01*
X242Y903D01*
X242Y907D01*
X240Y907D01*
X240Y909D01*
X238Y909D01*
X238Y911D01*
X236Y911D01*
X236Y913D01*
X216Y913D01*
G37*
D02*
G36*
X316Y913D02*
X316Y909D01*
X314Y909D01*
X314Y907D01*
X312Y907D01*
X312Y905D01*
X310Y905D01*
X310Y903D01*
X308Y903D01*
X308Y901D01*
X306Y901D01*
X306Y899D01*
X304Y899D01*
X304Y897D01*
X302Y897D01*
X302Y895D01*
X298Y895D01*
X298Y893D01*
X294Y893D01*
X294Y891D01*
X290Y891D01*
X290Y889D01*
X284Y889D01*
X284Y887D01*
X370Y887D01*
X370Y889D01*
X364Y889D01*
X364Y891D01*
X358Y891D01*
X358Y893D01*
X354Y893D01*
X354Y895D01*
X352Y895D01*
X352Y897D01*
X350Y897D01*
X350Y899D01*
X346Y899D01*
X346Y901D01*
X344Y901D01*
X344Y903D01*
X342Y903D01*
X342Y907D01*
X340Y907D01*
X340Y909D01*
X338Y909D01*
X338Y911D01*
X336Y911D01*
X336Y913D01*
X316Y913D01*
G37*
D02*
G36*
X416Y913D02*
X416Y909D01*
X414Y909D01*
X414Y907D01*
X412Y907D01*
X412Y905D01*
X410Y905D01*
X410Y903D01*
X408Y903D01*
X408Y901D01*
X406Y901D01*
X406Y899D01*
X404Y899D01*
X404Y897D01*
X402Y897D01*
X402Y895D01*
X398Y895D01*
X398Y893D01*
X394Y893D01*
X394Y891D01*
X390Y891D01*
X390Y889D01*
X384Y889D01*
X384Y887D01*
X456Y887D01*
X456Y893D01*
X454Y893D01*
X454Y895D01*
X452Y895D01*
X452Y897D01*
X450Y897D01*
X450Y899D01*
X446Y899D01*
X446Y901D01*
X444Y901D01*
X444Y903D01*
X442Y903D01*
X442Y907D01*
X440Y907D01*
X440Y909D01*
X438Y909D01*
X438Y911D01*
X436Y911D01*
X436Y913D01*
X416Y913D01*
G37*
D02*
G36*
X516Y913D02*
X516Y909D01*
X514Y909D01*
X514Y907D01*
X512Y907D01*
X512Y905D01*
X510Y905D01*
X510Y903D01*
X508Y903D01*
X508Y901D01*
X506Y901D01*
X506Y899D01*
X504Y899D01*
X504Y897D01*
X502Y897D01*
X502Y895D01*
X498Y895D01*
X498Y887D01*
X570Y887D01*
X570Y889D01*
X564Y889D01*
X564Y891D01*
X558Y891D01*
X558Y893D01*
X554Y893D01*
X554Y895D01*
X552Y895D01*
X552Y897D01*
X550Y897D01*
X550Y899D01*
X546Y899D01*
X546Y901D01*
X544Y901D01*
X544Y903D01*
X542Y903D01*
X542Y907D01*
X540Y907D01*
X540Y909D01*
X538Y909D01*
X538Y911D01*
X536Y911D01*
X536Y913D01*
X516Y913D01*
G37*
D02*
G36*
X616Y913D02*
X616Y909D01*
X614Y909D01*
X614Y907D01*
X612Y907D01*
X612Y905D01*
X610Y905D01*
X610Y903D01*
X608Y903D01*
X608Y901D01*
X606Y901D01*
X606Y899D01*
X604Y899D01*
X604Y897D01*
X602Y897D01*
X602Y895D01*
X598Y895D01*
X598Y893D01*
X594Y893D01*
X594Y891D01*
X590Y891D01*
X590Y889D01*
X584Y889D01*
X584Y887D01*
X670Y887D01*
X670Y889D01*
X664Y889D01*
X664Y891D01*
X658Y891D01*
X658Y893D01*
X654Y893D01*
X654Y895D01*
X652Y895D01*
X652Y897D01*
X650Y897D01*
X650Y899D01*
X646Y899D01*
X646Y901D01*
X644Y901D01*
X644Y903D01*
X642Y903D01*
X642Y907D01*
X640Y907D01*
X640Y909D01*
X638Y909D01*
X638Y911D01*
X636Y911D01*
X636Y913D01*
X616Y913D01*
G37*
D02*
G36*
X716Y913D02*
X716Y909D01*
X714Y909D01*
X714Y907D01*
X712Y907D01*
X712Y905D01*
X710Y905D01*
X710Y903D01*
X708Y903D01*
X708Y901D01*
X706Y901D01*
X706Y899D01*
X704Y899D01*
X704Y897D01*
X702Y897D01*
X702Y895D01*
X698Y895D01*
X698Y893D01*
X694Y893D01*
X694Y891D01*
X690Y891D01*
X690Y889D01*
X684Y889D01*
X684Y887D01*
X770Y887D01*
X770Y889D01*
X764Y889D01*
X764Y891D01*
X758Y891D01*
X758Y893D01*
X754Y893D01*
X754Y895D01*
X752Y895D01*
X752Y897D01*
X750Y897D01*
X750Y899D01*
X746Y899D01*
X746Y901D01*
X744Y901D01*
X744Y903D01*
X742Y903D01*
X742Y907D01*
X740Y907D01*
X740Y909D01*
X738Y909D01*
X738Y911D01*
X736Y911D01*
X736Y913D01*
X716Y913D01*
G37*
D02*
G36*
X816Y913D02*
X816Y909D01*
X814Y909D01*
X814Y907D01*
X812Y907D01*
X812Y905D01*
X810Y905D01*
X810Y903D01*
X808Y903D01*
X808Y901D01*
X806Y901D01*
X806Y899D01*
X804Y899D01*
X804Y897D01*
X802Y897D01*
X802Y895D01*
X798Y895D01*
X798Y893D01*
X794Y893D01*
X794Y891D01*
X790Y891D01*
X790Y889D01*
X784Y889D01*
X784Y887D01*
X870Y887D01*
X870Y889D01*
X864Y889D01*
X864Y891D01*
X858Y891D01*
X858Y893D01*
X854Y893D01*
X854Y895D01*
X852Y895D01*
X852Y897D01*
X850Y897D01*
X850Y899D01*
X846Y899D01*
X846Y901D01*
X844Y901D01*
X844Y903D01*
X842Y903D01*
X842Y907D01*
X840Y907D01*
X840Y909D01*
X838Y909D01*
X838Y911D01*
X836Y911D01*
X836Y913D01*
X816Y913D01*
G37*
D02*
G36*
X916Y913D02*
X916Y909D01*
X914Y909D01*
X914Y907D01*
X912Y907D01*
X912Y905D01*
X910Y905D01*
X910Y903D01*
X908Y903D01*
X908Y901D01*
X906Y901D01*
X906Y899D01*
X904Y899D01*
X904Y897D01*
X902Y897D01*
X902Y895D01*
X898Y895D01*
X898Y893D01*
X894Y893D01*
X894Y891D01*
X890Y891D01*
X890Y889D01*
X884Y889D01*
X884Y887D01*
X970Y887D01*
X970Y889D01*
X964Y889D01*
X964Y891D01*
X958Y891D01*
X958Y893D01*
X954Y893D01*
X954Y895D01*
X952Y895D01*
X952Y897D01*
X950Y897D01*
X950Y899D01*
X946Y899D01*
X946Y901D01*
X944Y901D01*
X944Y903D01*
X942Y903D01*
X942Y907D01*
X940Y907D01*
X940Y909D01*
X938Y909D01*
X938Y911D01*
X936Y911D01*
X936Y913D01*
X916Y913D01*
G37*
D02*
G36*
X1016Y913D02*
X1016Y909D01*
X1014Y909D01*
X1014Y907D01*
X1012Y907D01*
X1012Y905D01*
X1010Y905D01*
X1010Y903D01*
X1008Y903D01*
X1008Y901D01*
X1006Y901D01*
X1006Y899D01*
X1004Y899D01*
X1004Y897D01*
X1002Y897D01*
X1002Y895D01*
X998Y895D01*
X998Y893D01*
X994Y893D01*
X994Y891D01*
X990Y891D01*
X990Y889D01*
X984Y889D01*
X984Y887D01*
X1070Y887D01*
X1070Y889D01*
X1064Y889D01*
X1064Y891D01*
X1058Y891D01*
X1058Y893D01*
X1054Y893D01*
X1054Y895D01*
X1052Y895D01*
X1052Y897D01*
X1050Y897D01*
X1050Y899D01*
X1046Y899D01*
X1046Y901D01*
X1044Y901D01*
X1044Y903D01*
X1042Y903D01*
X1042Y907D01*
X1040Y907D01*
X1040Y909D01*
X1038Y909D01*
X1038Y911D01*
X1036Y911D01*
X1036Y913D01*
X1016Y913D01*
G37*
D02*
G36*
X1116Y913D02*
X1116Y909D01*
X1114Y909D01*
X1114Y907D01*
X1112Y907D01*
X1112Y905D01*
X1110Y905D01*
X1110Y903D01*
X1108Y903D01*
X1108Y901D01*
X1106Y901D01*
X1106Y899D01*
X1104Y899D01*
X1104Y897D01*
X1102Y897D01*
X1102Y895D01*
X1098Y895D01*
X1098Y893D01*
X1094Y893D01*
X1094Y891D01*
X1090Y891D01*
X1090Y889D01*
X1084Y889D01*
X1084Y887D01*
X1156Y887D01*
X1156Y893D01*
X1154Y893D01*
X1154Y895D01*
X1152Y895D01*
X1152Y897D01*
X1150Y897D01*
X1150Y899D01*
X1146Y899D01*
X1146Y901D01*
X1144Y901D01*
X1144Y903D01*
X1142Y903D01*
X1142Y907D01*
X1140Y907D01*
X1140Y909D01*
X1138Y909D01*
X1138Y911D01*
X1136Y911D01*
X1136Y913D01*
X1116Y913D01*
G37*
D02*
G36*
X40Y891D02*
X40Y887D01*
X70Y887D01*
X70Y889D01*
X64Y889D01*
X64Y891D01*
X40Y891D01*
G37*
D02*
G36*
X40Y887D02*
X40Y885D01*
X456Y885D01*
X456Y887D01*
X40Y887D01*
G37*
D02*
G36*
X40Y887D02*
X40Y885D01*
X456Y885D01*
X456Y887D01*
X40Y887D01*
G37*
D02*
G36*
X40Y887D02*
X40Y885D01*
X456Y885D01*
X456Y887D01*
X40Y887D01*
G37*
D02*
G36*
X40Y887D02*
X40Y885D01*
X456Y885D01*
X456Y887D01*
X40Y887D01*
G37*
D02*
G36*
X40Y887D02*
X40Y885D01*
X456Y885D01*
X456Y887D01*
X40Y887D01*
G37*
D02*
G36*
X498Y887D02*
X498Y885D01*
X1156Y885D01*
X1156Y887D01*
X498Y887D01*
G37*
D02*
G36*
X498Y887D02*
X498Y885D01*
X1156Y885D01*
X1156Y887D01*
X498Y887D01*
G37*
D02*
G36*
X498Y887D02*
X498Y885D01*
X1156Y885D01*
X1156Y887D01*
X498Y887D01*
G37*
D02*
G36*
X498Y887D02*
X498Y885D01*
X1156Y885D01*
X1156Y887D01*
X498Y887D01*
G37*
D02*
G36*
X498Y887D02*
X498Y885D01*
X1156Y885D01*
X1156Y887D01*
X498Y887D01*
G37*
D02*
G36*
X498Y887D02*
X498Y885D01*
X1156Y885D01*
X1156Y887D01*
X498Y887D01*
G37*
D02*
G36*
X498Y887D02*
X498Y885D01*
X1156Y885D01*
X1156Y887D01*
X498Y887D01*
G37*
D02*
G36*
X40Y885D02*
X40Y787D01*
X470Y787D01*
X470Y789D01*
X464Y789D01*
X464Y791D01*
X458Y791D01*
X458Y793D01*
X454Y793D01*
X454Y795D01*
X452Y795D01*
X452Y797D01*
X450Y797D01*
X450Y799D01*
X446Y799D01*
X446Y801D01*
X444Y801D01*
X444Y803D01*
X442Y803D01*
X442Y807D01*
X440Y807D01*
X440Y809D01*
X438Y809D01*
X438Y811D01*
X436Y811D01*
X436Y815D01*
X434Y815D01*
X434Y819D01*
X432Y819D01*
X432Y825D01*
X430Y825D01*
X430Y841D01*
X432Y841D01*
X432Y847D01*
X434Y847D01*
X434Y853D01*
X436Y853D01*
X436Y855D01*
X438Y855D01*
X438Y859D01*
X440Y859D01*
X440Y861D01*
X442Y861D01*
X442Y863D01*
X444Y863D01*
X444Y865D01*
X446Y865D01*
X446Y867D01*
X448Y867D01*
X448Y869D01*
X450Y869D01*
X450Y871D01*
X452Y871D01*
X452Y873D01*
X456Y873D01*
X456Y885D01*
X40Y885D01*
G37*
D02*
G36*
X498Y885D02*
X498Y873D01*
X500Y873D01*
X500Y871D01*
X504Y871D01*
X504Y869D01*
X506Y869D01*
X506Y867D01*
X508Y867D01*
X508Y865D01*
X510Y865D01*
X510Y863D01*
X512Y863D01*
X512Y861D01*
X514Y861D01*
X514Y857D01*
X516Y857D01*
X516Y855D01*
X518Y855D01*
X518Y851D01*
X520Y851D01*
X520Y845D01*
X522Y845D01*
X522Y823D01*
X520Y823D01*
X520Y817D01*
X518Y817D01*
X518Y813D01*
X516Y813D01*
X516Y809D01*
X514Y809D01*
X514Y807D01*
X512Y807D01*
X512Y805D01*
X510Y805D01*
X510Y803D01*
X508Y803D01*
X508Y801D01*
X506Y801D01*
X506Y799D01*
X504Y799D01*
X504Y797D01*
X502Y797D01*
X502Y795D01*
X498Y795D01*
X498Y793D01*
X494Y793D01*
X494Y791D01*
X490Y791D01*
X490Y789D01*
X484Y789D01*
X484Y787D01*
X1156Y787D01*
X1156Y793D01*
X1154Y793D01*
X1154Y795D01*
X1152Y795D01*
X1152Y797D01*
X1150Y797D01*
X1150Y799D01*
X1146Y799D01*
X1146Y801D01*
X1144Y801D01*
X1144Y803D01*
X1142Y803D01*
X1142Y807D01*
X1140Y807D01*
X1140Y809D01*
X1138Y809D01*
X1138Y811D01*
X1136Y811D01*
X1136Y815D01*
X1134Y815D01*
X1134Y819D01*
X1132Y819D01*
X1132Y825D01*
X1130Y825D01*
X1130Y841D01*
X1132Y841D01*
X1132Y847D01*
X1134Y847D01*
X1134Y853D01*
X1136Y853D01*
X1136Y855D01*
X1138Y855D01*
X1138Y859D01*
X1140Y859D01*
X1140Y861D01*
X1142Y861D01*
X1142Y863D01*
X1144Y863D01*
X1144Y865D01*
X1146Y865D01*
X1146Y867D01*
X1148Y867D01*
X1148Y869D01*
X1150Y869D01*
X1150Y871D01*
X1152Y871D01*
X1152Y873D01*
X1156Y873D01*
X1156Y885D01*
X498Y885D01*
G37*
D02*
G36*
X40Y787D02*
X40Y785D01*
X1156Y785D01*
X1156Y787D01*
X40Y787D01*
G37*
D02*
G36*
X40Y787D02*
X40Y785D01*
X1156Y785D01*
X1156Y787D01*
X40Y787D01*
G37*
D02*
G36*
X40Y785D02*
X40Y481D01*
X478Y481D01*
X478Y479D01*
X488Y479D01*
X488Y477D01*
X494Y477D01*
X494Y475D01*
X498Y475D01*
X498Y473D01*
X500Y473D01*
X500Y471D01*
X504Y471D01*
X504Y469D01*
X506Y469D01*
X506Y467D01*
X508Y467D01*
X508Y465D01*
X510Y465D01*
X510Y463D01*
X512Y463D01*
X512Y461D01*
X514Y461D01*
X514Y457D01*
X516Y457D01*
X516Y455D01*
X518Y455D01*
X518Y451D01*
X520Y451D01*
X520Y445D01*
X522Y445D01*
X522Y423D01*
X520Y423D01*
X520Y417D01*
X518Y417D01*
X518Y413D01*
X516Y413D01*
X516Y409D01*
X514Y409D01*
X514Y407D01*
X512Y407D01*
X512Y405D01*
X510Y405D01*
X510Y403D01*
X508Y403D01*
X508Y401D01*
X506Y401D01*
X506Y399D01*
X504Y399D01*
X504Y397D01*
X502Y397D01*
X502Y395D01*
X498Y395D01*
X498Y381D01*
X1078Y381D01*
X1078Y379D01*
X1088Y379D01*
X1088Y377D01*
X1094Y377D01*
X1094Y375D01*
X1098Y375D01*
X1098Y373D01*
X1100Y373D01*
X1100Y371D01*
X1104Y371D01*
X1104Y369D01*
X1106Y369D01*
X1106Y367D01*
X1108Y367D01*
X1108Y365D01*
X1110Y365D01*
X1110Y363D01*
X1112Y363D01*
X1112Y361D01*
X1114Y361D01*
X1114Y357D01*
X1116Y357D01*
X1116Y355D01*
X1138Y355D01*
X1138Y359D01*
X1140Y359D01*
X1140Y361D01*
X1142Y361D01*
X1142Y363D01*
X1144Y363D01*
X1144Y365D01*
X1146Y365D01*
X1146Y367D01*
X1148Y367D01*
X1148Y369D01*
X1150Y369D01*
X1150Y371D01*
X1152Y371D01*
X1152Y373D01*
X1156Y373D01*
X1156Y393D01*
X1154Y393D01*
X1154Y395D01*
X1152Y395D01*
X1152Y397D01*
X1150Y397D01*
X1150Y399D01*
X1146Y399D01*
X1146Y401D01*
X1144Y401D01*
X1144Y403D01*
X1142Y403D01*
X1142Y407D01*
X1140Y407D01*
X1140Y409D01*
X1138Y409D01*
X1138Y411D01*
X1136Y411D01*
X1136Y415D01*
X1134Y415D01*
X1134Y419D01*
X1132Y419D01*
X1132Y425D01*
X1130Y425D01*
X1130Y441D01*
X1132Y441D01*
X1132Y447D01*
X1134Y447D01*
X1134Y453D01*
X1136Y453D01*
X1136Y455D01*
X1138Y455D01*
X1138Y459D01*
X1140Y459D01*
X1140Y461D01*
X1142Y461D01*
X1142Y463D01*
X1144Y463D01*
X1144Y465D01*
X1146Y465D01*
X1146Y467D01*
X1148Y467D01*
X1148Y469D01*
X1150Y469D01*
X1150Y471D01*
X1152Y471D01*
X1152Y473D01*
X1156Y473D01*
X1156Y493D01*
X1154Y493D01*
X1154Y495D01*
X1152Y495D01*
X1152Y497D01*
X1150Y497D01*
X1150Y499D01*
X1146Y499D01*
X1146Y501D01*
X1144Y501D01*
X1144Y503D01*
X1142Y503D01*
X1142Y507D01*
X1140Y507D01*
X1140Y509D01*
X1138Y509D01*
X1138Y511D01*
X1136Y511D01*
X1136Y515D01*
X1134Y515D01*
X1134Y519D01*
X1132Y519D01*
X1132Y525D01*
X1130Y525D01*
X1130Y541D01*
X1132Y541D01*
X1132Y547D01*
X1134Y547D01*
X1134Y553D01*
X1136Y553D01*
X1136Y555D01*
X1138Y555D01*
X1138Y559D01*
X1140Y559D01*
X1140Y561D01*
X1142Y561D01*
X1142Y563D01*
X1144Y563D01*
X1144Y565D01*
X1146Y565D01*
X1146Y567D01*
X1148Y567D01*
X1148Y569D01*
X1150Y569D01*
X1150Y571D01*
X1152Y571D01*
X1152Y573D01*
X1156Y573D01*
X1156Y593D01*
X1154Y593D01*
X1154Y595D01*
X1152Y595D01*
X1152Y597D01*
X1150Y597D01*
X1150Y599D01*
X1146Y599D01*
X1146Y601D01*
X1144Y601D01*
X1144Y603D01*
X1142Y603D01*
X1142Y607D01*
X1140Y607D01*
X1140Y609D01*
X1138Y609D01*
X1138Y611D01*
X1136Y611D01*
X1136Y615D01*
X1134Y615D01*
X1134Y619D01*
X1132Y619D01*
X1132Y625D01*
X1130Y625D01*
X1130Y641D01*
X1132Y641D01*
X1132Y647D01*
X1134Y647D01*
X1134Y653D01*
X1136Y653D01*
X1136Y655D01*
X1138Y655D01*
X1138Y659D01*
X1140Y659D01*
X1140Y661D01*
X1142Y661D01*
X1142Y663D01*
X1144Y663D01*
X1144Y665D01*
X1146Y665D01*
X1146Y667D01*
X1148Y667D01*
X1148Y669D01*
X1150Y669D01*
X1150Y671D01*
X1152Y671D01*
X1152Y673D01*
X1156Y673D01*
X1156Y693D01*
X1154Y693D01*
X1154Y695D01*
X1152Y695D01*
X1152Y697D01*
X1150Y697D01*
X1150Y699D01*
X1146Y699D01*
X1146Y701D01*
X1144Y701D01*
X1144Y703D01*
X1142Y703D01*
X1142Y707D01*
X1140Y707D01*
X1140Y709D01*
X1138Y709D01*
X1138Y711D01*
X1136Y711D01*
X1136Y715D01*
X1134Y715D01*
X1134Y719D01*
X1132Y719D01*
X1132Y725D01*
X1130Y725D01*
X1130Y741D01*
X1132Y741D01*
X1132Y747D01*
X1134Y747D01*
X1134Y753D01*
X1136Y753D01*
X1136Y755D01*
X1138Y755D01*
X1138Y759D01*
X1140Y759D01*
X1140Y761D01*
X1142Y761D01*
X1142Y763D01*
X1144Y763D01*
X1144Y765D01*
X1146Y765D01*
X1146Y767D01*
X1148Y767D01*
X1148Y769D01*
X1150Y769D01*
X1150Y771D01*
X1152Y771D01*
X1152Y773D01*
X1156Y773D01*
X1156Y785D01*
X40Y785D01*
G37*
D02*
G36*
X40Y481D02*
X40Y381D01*
X378Y381D01*
X378Y379D01*
X388Y379D01*
X388Y377D01*
X394Y377D01*
X394Y375D01*
X398Y375D01*
X398Y373D01*
X400Y373D01*
X400Y371D01*
X404Y371D01*
X404Y369D01*
X406Y369D01*
X406Y367D01*
X408Y367D01*
X408Y365D01*
X410Y365D01*
X410Y363D01*
X412Y363D01*
X412Y361D01*
X414Y361D01*
X414Y357D01*
X416Y357D01*
X416Y355D01*
X438Y355D01*
X438Y359D01*
X440Y359D01*
X440Y361D01*
X442Y361D01*
X442Y363D01*
X444Y363D01*
X444Y365D01*
X446Y365D01*
X446Y367D01*
X448Y367D01*
X448Y369D01*
X450Y369D01*
X450Y371D01*
X452Y371D01*
X452Y373D01*
X456Y373D01*
X456Y393D01*
X454Y393D01*
X454Y395D01*
X452Y395D01*
X452Y397D01*
X450Y397D01*
X450Y399D01*
X446Y399D01*
X446Y401D01*
X444Y401D01*
X444Y403D01*
X442Y403D01*
X442Y407D01*
X440Y407D01*
X440Y409D01*
X438Y409D01*
X438Y411D01*
X436Y411D01*
X436Y415D01*
X434Y415D01*
X434Y419D01*
X432Y419D01*
X432Y425D01*
X430Y425D01*
X430Y441D01*
X432Y441D01*
X432Y447D01*
X434Y447D01*
X434Y453D01*
X436Y453D01*
X436Y455D01*
X438Y455D01*
X438Y459D01*
X440Y459D01*
X440Y461D01*
X442Y461D01*
X442Y463D01*
X444Y463D01*
X444Y465D01*
X446Y465D01*
X446Y467D01*
X448Y467D01*
X448Y469D01*
X450Y469D01*
X450Y471D01*
X452Y471D01*
X452Y473D01*
X456Y473D01*
X456Y475D01*
X460Y475D01*
X460Y477D01*
X464Y477D01*
X464Y479D01*
X474Y479D01*
X474Y481D01*
X40Y481D01*
G37*
D02*
G36*
X40Y381D02*
X40Y375D01*
X60Y375D01*
X60Y377D01*
X64Y377D01*
X64Y379D01*
X74Y379D01*
X74Y381D01*
X40Y381D01*
G37*
D02*
G36*
X78Y381D02*
X78Y379D01*
X88Y379D01*
X88Y377D01*
X94Y377D01*
X94Y375D01*
X98Y375D01*
X98Y373D01*
X100Y373D01*
X100Y371D01*
X104Y371D01*
X104Y369D01*
X106Y369D01*
X106Y367D01*
X108Y367D01*
X108Y365D01*
X110Y365D01*
X110Y363D01*
X112Y363D01*
X112Y361D01*
X114Y361D01*
X114Y357D01*
X116Y357D01*
X116Y355D01*
X138Y355D01*
X138Y359D01*
X140Y359D01*
X140Y361D01*
X142Y361D01*
X142Y363D01*
X144Y363D01*
X144Y365D01*
X146Y365D01*
X146Y367D01*
X148Y367D01*
X148Y369D01*
X150Y369D01*
X150Y371D01*
X152Y371D01*
X152Y373D01*
X156Y373D01*
X156Y375D01*
X160Y375D01*
X160Y377D01*
X164Y377D01*
X164Y379D01*
X174Y379D01*
X174Y381D01*
X78Y381D01*
G37*
D02*
G36*
X178Y381D02*
X178Y379D01*
X188Y379D01*
X188Y377D01*
X194Y377D01*
X194Y375D01*
X198Y375D01*
X198Y373D01*
X200Y373D01*
X200Y371D01*
X204Y371D01*
X204Y369D01*
X206Y369D01*
X206Y367D01*
X208Y367D01*
X208Y365D01*
X210Y365D01*
X210Y363D01*
X212Y363D01*
X212Y361D01*
X214Y361D01*
X214Y357D01*
X216Y357D01*
X216Y355D01*
X238Y355D01*
X238Y359D01*
X240Y359D01*
X240Y361D01*
X242Y361D01*
X242Y363D01*
X244Y363D01*
X244Y365D01*
X246Y365D01*
X246Y367D01*
X248Y367D01*
X248Y369D01*
X250Y369D01*
X250Y371D01*
X252Y371D01*
X252Y373D01*
X256Y373D01*
X256Y375D01*
X260Y375D01*
X260Y377D01*
X264Y377D01*
X264Y379D01*
X274Y379D01*
X274Y381D01*
X178Y381D01*
G37*
D02*
G36*
X278Y381D02*
X278Y379D01*
X288Y379D01*
X288Y377D01*
X294Y377D01*
X294Y375D01*
X298Y375D01*
X298Y373D01*
X300Y373D01*
X300Y371D01*
X304Y371D01*
X304Y369D01*
X306Y369D01*
X306Y367D01*
X308Y367D01*
X308Y365D01*
X310Y365D01*
X310Y363D01*
X312Y363D01*
X312Y361D01*
X314Y361D01*
X314Y357D01*
X316Y357D01*
X316Y355D01*
X338Y355D01*
X338Y359D01*
X340Y359D01*
X340Y361D01*
X342Y361D01*
X342Y363D01*
X344Y363D01*
X344Y365D01*
X346Y365D01*
X346Y367D01*
X348Y367D01*
X348Y369D01*
X350Y369D01*
X350Y371D01*
X352Y371D01*
X352Y373D01*
X356Y373D01*
X356Y375D01*
X360Y375D01*
X360Y377D01*
X364Y377D01*
X364Y379D01*
X374Y379D01*
X374Y381D01*
X278Y381D01*
G37*
D02*
G36*
X498Y381D02*
X498Y373D01*
X500Y373D01*
X500Y371D01*
X504Y371D01*
X504Y369D01*
X506Y369D01*
X506Y367D01*
X508Y367D01*
X508Y365D01*
X510Y365D01*
X510Y363D01*
X512Y363D01*
X512Y361D01*
X514Y361D01*
X514Y357D01*
X516Y357D01*
X516Y355D01*
X538Y355D01*
X538Y359D01*
X540Y359D01*
X540Y361D01*
X542Y361D01*
X542Y363D01*
X544Y363D01*
X544Y365D01*
X546Y365D01*
X546Y367D01*
X548Y367D01*
X548Y369D01*
X550Y369D01*
X550Y371D01*
X552Y371D01*
X552Y373D01*
X556Y373D01*
X556Y375D01*
X560Y375D01*
X560Y377D01*
X564Y377D01*
X564Y379D01*
X574Y379D01*
X574Y381D01*
X498Y381D01*
G37*
D02*
G36*
X578Y381D02*
X578Y379D01*
X588Y379D01*
X588Y377D01*
X594Y377D01*
X594Y375D01*
X598Y375D01*
X598Y373D01*
X600Y373D01*
X600Y371D01*
X604Y371D01*
X604Y369D01*
X606Y369D01*
X606Y367D01*
X608Y367D01*
X608Y365D01*
X610Y365D01*
X610Y363D01*
X612Y363D01*
X612Y361D01*
X614Y361D01*
X614Y357D01*
X616Y357D01*
X616Y355D01*
X638Y355D01*
X638Y359D01*
X640Y359D01*
X640Y361D01*
X642Y361D01*
X642Y363D01*
X644Y363D01*
X644Y365D01*
X646Y365D01*
X646Y367D01*
X648Y367D01*
X648Y369D01*
X650Y369D01*
X650Y371D01*
X652Y371D01*
X652Y373D01*
X656Y373D01*
X656Y375D01*
X660Y375D01*
X660Y377D01*
X664Y377D01*
X664Y379D01*
X674Y379D01*
X674Y381D01*
X578Y381D01*
G37*
D02*
G36*
X678Y381D02*
X678Y379D01*
X688Y379D01*
X688Y377D01*
X694Y377D01*
X694Y375D01*
X698Y375D01*
X698Y373D01*
X700Y373D01*
X700Y371D01*
X704Y371D01*
X704Y369D01*
X706Y369D01*
X706Y367D01*
X708Y367D01*
X708Y365D01*
X710Y365D01*
X710Y363D01*
X712Y363D01*
X712Y361D01*
X714Y361D01*
X714Y357D01*
X716Y357D01*
X716Y355D01*
X738Y355D01*
X738Y359D01*
X740Y359D01*
X740Y361D01*
X742Y361D01*
X742Y363D01*
X744Y363D01*
X744Y365D01*
X746Y365D01*
X746Y367D01*
X748Y367D01*
X748Y369D01*
X750Y369D01*
X750Y371D01*
X752Y371D01*
X752Y373D01*
X756Y373D01*
X756Y375D01*
X760Y375D01*
X760Y377D01*
X764Y377D01*
X764Y379D01*
X774Y379D01*
X774Y381D01*
X678Y381D01*
G37*
D02*
G36*
X778Y381D02*
X778Y379D01*
X788Y379D01*
X788Y377D01*
X794Y377D01*
X794Y375D01*
X798Y375D01*
X798Y373D01*
X800Y373D01*
X800Y371D01*
X804Y371D01*
X804Y369D01*
X806Y369D01*
X806Y367D01*
X808Y367D01*
X808Y365D01*
X810Y365D01*
X810Y363D01*
X812Y363D01*
X812Y361D01*
X814Y361D01*
X814Y357D01*
X816Y357D01*
X816Y355D01*
X838Y355D01*
X838Y359D01*
X840Y359D01*
X840Y361D01*
X842Y361D01*
X842Y363D01*
X844Y363D01*
X844Y365D01*
X846Y365D01*
X846Y367D01*
X848Y367D01*
X848Y369D01*
X850Y369D01*
X850Y371D01*
X852Y371D01*
X852Y373D01*
X856Y373D01*
X856Y375D01*
X860Y375D01*
X860Y377D01*
X864Y377D01*
X864Y379D01*
X874Y379D01*
X874Y381D01*
X778Y381D01*
G37*
D02*
G36*
X878Y381D02*
X878Y379D01*
X888Y379D01*
X888Y377D01*
X894Y377D01*
X894Y375D01*
X898Y375D01*
X898Y373D01*
X900Y373D01*
X900Y371D01*
X904Y371D01*
X904Y369D01*
X906Y369D01*
X906Y367D01*
X908Y367D01*
X908Y365D01*
X910Y365D01*
X910Y363D01*
X912Y363D01*
X912Y361D01*
X914Y361D01*
X914Y357D01*
X916Y357D01*
X916Y355D01*
X938Y355D01*
X938Y359D01*
X940Y359D01*
X940Y361D01*
X942Y361D01*
X942Y363D01*
X944Y363D01*
X944Y365D01*
X946Y365D01*
X946Y367D01*
X948Y367D01*
X948Y369D01*
X950Y369D01*
X950Y371D01*
X952Y371D01*
X952Y373D01*
X956Y373D01*
X956Y375D01*
X960Y375D01*
X960Y377D01*
X964Y377D01*
X964Y379D01*
X974Y379D01*
X974Y381D01*
X878Y381D01*
G37*
D02*
G36*
X978Y381D02*
X978Y379D01*
X988Y379D01*
X988Y377D01*
X994Y377D01*
X994Y375D01*
X998Y375D01*
X998Y373D01*
X1000Y373D01*
X1000Y371D01*
X1004Y371D01*
X1004Y369D01*
X1006Y369D01*
X1006Y367D01*
X1008Y367D01*
X1008Y365D01*
X1010Y365D01*
X1010Y363D01*
X1012Y363D01*
X1012Y361D01*
X1014Y361D01*
X1014Y357D01*
X1016Y357D01*
X1016Y355D01*
X1038Y355D01*
X1038Y359D01*
X1040Y359D01*
X1040Y361D01*
X1042Y361D01*
X1042Y363D01*
X1044Y363D01*
X1044Y365D01*
X1046Y365D01*
X1046Y367D01*
X1048Y367D01*
X1048Y369D01*
X1050Y369D01*
X1050Y371D01*
X1052Y371D01*
X1052Y373D01*
X1056Y373D01*
X1056Y375D01*
X1060Y375D01*
X1060Y377D01*
X1064Y377D01*
X1064Y379D01*
X1074Y379D01*
X1074Y381D01*
X978Y381D01*
G37*
D02*
G36*
X916Y313D02*
X916Y309D01*
X914Y309D01*
X914Y307D01*
X912Y307D01*
X912Y305D01*
X910Y305D01*
X910Y303D01*
X908Y303D01*
X908Y301D01*
X906Y301D01*
X906Y299D01*
X904Y299D01*
X904Y297D01*
X902Y297D01*
X902Y295D01*
X900Y295D01*
X900Y205D01*
X958Y205D01*
X958Y225D01*
X956Y225D01*
X956Y229D01*
X954Y229D01*
X954Y295D01*
X952Y295D01*
X952Y297D01*
X950Y297D01*
X950Y299D01*
X946Y299D01*
X946Y301D01*
X944Y301D01*
X944Y303D01*
X942Y303D01*
X942Y307D01*
X940Y307D01*
X940Y309D01*
X938Y309D01*
X938Y311D01*
X936Y311D01*
X936Y313D01*
X916Y313D01*
G37*
D02*
G36*
X1222Y437D02*
X1222Y423D01*
X1220Y423D01*
X1220Y417D01*
X1218Y417D01*
X1218Y413D01*
X1216Y413D01*
X1216Y409D01*
X1214Y409D01*
X1214Y407D01*
X1212Y407D01*
X1212Y405D01*
X1210Y405D01*
X1210Y403D01*
X1208Y403D01*
X1208Y401D01*
X1206Y401D01*
X1206Y399D01*
X1204Y399D01*
X1204Y397D01*
X1202Y397D01*
X1202Y395D01*
X1198Y395D01*
X1198Y373D01*
X1200Y373D01*
X1200Y371D01*
X1204Y371D01*
X1204Y369D01*
X1206Y369D01*
X1206Y367D01*
X1208Y367D01*
X1208Y365D01*
X1210Y365D01*
X1210Y363D01*
X1212Y363D01*
X1212Y361D01*
X1214Y361D01*
X1214Y357D01*
X1216Y357D01*
X1216Y355D01*
X1218Y355D01*
X1218Y351D01*
X1220Y351D01*
X1220Y345D01*
X1222Y345D01*
X1222Y323D01*
X1220Y323D01*
X1220Y317D01*
X1218Y317D01*
X1218Y313D01*
X1216Y313D01*
X1216Y309D01*
X1214Y309D01*
X1214Y307D01*
X1212Y307D01*
X1212Y305D01*
X1210Y305D01*
X1210Y303D01*
X1208Y303D01*
X1208Y301D01*
X1206Y301D01*
X1206Y299D01*
X1204Y299D01*
X1204Y297D01*
X1202Y297D01*
X1202Y295D01*
X1198Y295D01*
X1198Y293D01*
X1194Y293D01*
X1194Y291D01*
X1190Y291D01*
X1190Y289D01*
X1184Y289D01*
X1184Y287D01*
X1254Y287D01*
X1254Y425D01*
X1252Y425D01*
X1252Y427D01*
X1250Y427D01*
X1250Y429D01*
X1248Y429D01*
X1248Y431D01*
X1246Y431D01*
X1246Y433D01*
X1244Y433D01*
X1244Y435D01*
X1242Y435D01*
X1242Y437D01*
X1222Y437D01*
G37*
D02*
G36*
X1016Y313D02*
X1016Y309D01*
X1014Y309D01*
X1014Y307D01*
X1012Y307D01*
X1012Y305D01*
X1010Y305D01*
X1010Y303D01*
X1008Y303D01*
X1008Y301D01*
X1006Y301D01*
X1006Y299D01*
X1004Y299D01*
X1004Y297D01*
X1002Y297D01*
X1002Y295D01*
X998Y295D01*
X998Y287D01*
X1070Y287D01*
X1070Y289D01*
X1064Y289D01*
X1064Y291D01*
X1058Y291D01*
X1058Y293D01*
X1054Y293D01*
X1054Y295D01*
X1052Y295D01*
X1052Y297D01*
X1050Y297D01*
X1050Y299D01*
X1046Y299D01*
X1046Y301D01*
X1044Y301D01*
X1044Y303D01*
X1042Y303D01*
X1042Y307D01*
X1040Y307D01*
X1040Y309D01*
X1038Y309D01*
X1038Y311D01*
X1036Y311D01*
X1036Y313D01*
X1016Y313D01*
G37*
D02*
G36*
X1116Y313D02*
X1116Y309D01*
X1114Y309D01*
X1114Y307D01*
X1112Y307D01*
X1112Y305D01*
X1110Y305D01*
X1110Y303D01*
X1108Y303D01*
X1108Y301D01*
X1106Y301D01*
X1106Y299D01*
X1104Y299D01*
X1104Y297D01*
X1102Y297D01*
X1102Y295D01*
X1098Y295D01*
X1098Y293D01*
X1094Y293D01*
X1094Y291D01*
X1090Y291D01*
X1090Y289D01*
X1084Y289D01*
X1084Y287D01*
X1170Y287D01*
X1170Y289D01*
X1164Y289D01*
X1164Y291D01*
X1158Y291D01*
X1158Y293D01*
X1154Y293D01*
X1154Y295D01*
X1152Y295D01*
X1152Y297D01*
X1150Y297D01*
X1150Y299D01*
X1146Y299D01*
X1146Y301D01*
X1144Y301D01*
X1144Y303D01*
X1142Y303D01*
X1142Y307D01*
X1140Y307D01*
X1140Y309D01*
X1138Y309D01*
X1138Y311D01*
X1136Y311D01*
X1136Y313D01*
X1116Y313D01*
G37*
D02*
G36*
X998Y287D02*
X998Y285D01*
X1254Y285D01*
X1254Y287D01*
X998Y287D01*
G37*
D02*
G36*
X998Y287D02*
X998Y285D01*
X1254Y285D01*
X1254Y287D01*
X998Y287D01*
G37*
D02*
G36*
X998Y287D02*
X998Y285D01*
X1254Y285D01*
X1254Y287D01*
X998Y287D01*
G37*
D02*
G36*
X998Y285D02*
X998Y257D01*
X1256Y257D01*
X1256Y281D01*
X1254Y281D01*
X1254Y285D01*
X998Y285D01*
G37*
D02*
G36*
X116Y313D02*
X116Y309D01*
X114Y309D01*
X114Y307D01*
X112Y307D01*
X112Y305D01*
X110Y305D01*
X110Y303D01*
X108Y303D01*
X108Y301D01*
X106Y301D01*
X106Y299D01*
X104Y299D01*
X104Y297D01*
X102Y297D01*
X102Y295D01*
X98Y295D01*
X98Y293D01*
X94Y293D01*
X94Y291D01*
X90Y291D01*
X90Y289D01*
X84Y289D01*
X84Y287D01*
X170Y287D01*
X170Y289D01*
X164Y289D01*
X164Y291D01*
X158Y291D01*
X158Y293D01*
X154Y293D01*
X154Y295D01*
X152Y295D01*
X152Y297D01*
X150Y297D01*
X150Y299D01*
X146Y299D01*
X146Y301D01*
X144Y301D01*
X144Y303D01*
X142Y303D01*
X142Y307D01*
X140Y307D01*
X140Y309D01*
X138Y309D01*
X138Y311D01*
X136Y311D01*
X136Y313D01*
X116Y313D01*
G37*
D02*
G36*
X216Y313D02*
X216Y309D01*
X214Y309D01*
X214Y307D01*
X212Y307D01*
X212Y305D01*
X210Y305D01*
X210Y303D01*
X208Y303D01*
X208Y301D01*
X206Y301D01*
X206Y299D01*
X204Y299D01*
X204Y297D01*
X202Y297D01*
X202Y295D01*
X198Y295D01*
X198Y293D01*
X194Y293D01*
X194Y291D01*
X190Y291D01*
X190Y289D01*
X184Y289D01*
X184Y287D01*
X270Y287D01*
X270Y289D01*
X264Y289D01*
X264Y291D01*
X258Y291D01*
X258Y293D01*
X254Y293D01*
X254Y295D01*
X252Y295D01*
X252Y297D01*
X250Y297D01*
X250Y299D01*
X246Y299D01*
X246Y301D01*
X244Y301D01*
X244Y303D01*
X242Y303D01*
X242Y307D01*
X240Y307D01*
X240Y309D01*
X238Y309D01*
X238Y311D01*
X236Y311D01*
X236Y313D01*
X216Y313D01*
G37*
D02*
G36*
X316Y313D02*
X316Y309D01*
X314Y309D01*
X314Y307D01*
X312Y307D01*
X312Y305D01*
X310Y305D01*
X310Y303D01*
X308Y303D01*
X308Y301D01*
X306Y301D01*
X306Y299D01*
X304Y299D01*
X304Y297D01*
X302Y297D01*
X302Y295D01*
X298Y295D01*
X298Y293D01*
X294Y293D01*
X294Y291D01*
X290Y291D01*
X290Y289D01*
X284Y289D01*
X284Y287D01*
X370Y287D01*
X370Y289D01*
X364Y289D01*
X364Y291D01*
X358Y291D01*
X358Y293D01*
X354Y293D01*
X354Y295D01*
X352Y295D01*
X352Y297D01*
X350Y297D01*
X350Y299D01*
X346Y299D01*
X346Y301D01*
X344Y301D01*
X344Y303D01*
X342Y303D01*
X342Y307D01*
X340Y307D01*
X340Y309D01*
X338Y309D01*
X338Y311D01*
X336Y311D01*
X336Y313D01*
X316Y313D01*
G37*
D02*
G36*
X416Y313D02*
X416Y309D01*
X414Y309D01*
X414Y307D01*
X412Y307D01*
X412Y305D01*
X410Y305D01*
X410Y303D01*
X408Y303D01*
X408Y301D01*
X406Y301D01*
X406Y299D01*
X404Y299D01*
X404Y297D01*
X402Y297D01*
X402Y295D01*
X398Y295D01*
X398Y293D01*
X394Y293D01*
X394Y291D01*
X390Y291D01*
X390Y289D01*
X384Y289D01*
X384Y287D01*
X470Y287D01*
X470Y289D01*
X464Y289D01*
X464Y291D01*
X458Y291D01*
X458Y293D01*
X454Y293D01*
X454Y295D01*
X452Y295D01*
X452Y297D01*
X450Y297D01*
X450Y299D01*
X446Y299D01*
X446Y301D01*
X444Y301D01*
X444Y303D01*
X442Y303D01*
X442Y307D01*
X440Y307D01*
X440Y309D01*
X438Y309D01*
X438Y311D01*
X436Y311D01*
X436Y313D01*
X416Y313D01*
G37*
D02*
G36*
X516Y313D02*
X516Y309D01*
X514Y309D01*
X514Y307D01*
X512Y307D01*
X512Y305D01*
X510Y305D01*
X510Y303D01*
X508Y303D01*
X508Y301D01*
X506Y301D01*
X506Y299D01*
X504Y299D01*
X504Y297D01*
X502Y297D01*
X502Y295D01*
X498Y295D01*
X498Y293D01*
X494Y293D01*
X494Y291D01*
X490Y291D01*
X490Y289D01*
X484Y289D01*
X484Y287D01*
X570Y287D01*
X570Y289D01*
X564Y289D01*
X564Y291D01*
X558Y291D01*
X558Y293D01*
X554Y293D01*
X554Y295D01*
X552Y295D01*
X552Y297D01*
X550Y297D01*
X550Y299D01*
X546Y299D01*
X546Y301D01*
X544Y301D01*
X544Y303D01*
X542Y303D01*
X542Y307D01*
X540Y307D01*
X540Y309D01*
X538Y309D01*
X538Y311D01*
X536Y311D01*
X536Y313D01*
X516Y313D01*
G37*
D02*
G36*
X616Y313D02*
X616Y309D01*
X614Y309D01*
X614Y307D01*
X612Y307D01*
X612Y305D01*
X610Y305D01*
X610Y303D01*
X608Y303D01*
X608Y301D01*
X606Y301D01*
X606Y299D01*
X604Y299D01*
X604Y297D01*
X602Y297D01*
X602Y295D01*
X598Y295D01*
X598Y293D01*
X594Y293D01*
X594Y291D01*
X590Y291D01*
X590Y289D01*
X584Y289D01*
X584Y287D01*
X670Y287D01*
X670Y289D01*
X664Y289D01*
X664Y291D01*
X658Y291D01*
X658Y293D01*
X654Y293D01*
X654Y295D01*
X652Y295D01*
X652Y297D01*
X650Y297D01*
X650Y299D01*
X646Y299D01*
X646Y301D01*
X644Y301D01*
X644Y303D01*
X642Y303D01*
X642Y307D01*
X640Y307D01*
X640Y309D01*
X638Y309D01*
X638Y311D01*
X636Y311D01*
X636Y313D01*
X616Y313D01*
G37*
D02*
G36*
X716Y313D02*
X716Y309D01*
X714Y309D01*
X714Y307D01*
X712Y307D01*
X712Y305D01*
X710Y305D01*
X710Y303D01*
X708Y303D01*
X708Y301D01*
X706Y301D01*
X706Y299D01*
X704Y299D01*
X704Y297D01*
X702Y297D01*
X702Y295D01*
X698Y295D01*
X698Y293D01*
X694Y293D01*
X694Y291D01*
X690Y291D01*
X690Y289D01*
X684Y289D01*
X684Y287D01*
X770Y287D01*
X770Y289D01*
X764Y289D01*
X764Y291D01*
X758Y291D01*
X758Y293D01*
X754Y293D01*
X754Y295D01*
X752Y295D01*
X752Y297D01*
X750Y297D01*
X750Y299D01*
X746Y299D01*
X746Y301D01*
X744Y301D01*
X744Y303D01*
X742Y303D01*
X742Y307D01*
X740Y307D01*
X740Y309D01*
X738Y309D01*
X738Y311D01*
X736Y311D01*
X736Y313D01*
X716Y313D01*
G37*
D02*
G36*
X816Y313D02*
X816Y309D01*
X814Y309D01*
X814Y307D01*
X812Y307D01*
X812Y305D01*
X810Y305D01*
X810Y303D01*
X808Y303D01*
X808Y301D01*
X806Y301D01*
X806Y299D01*
X804Y299D01*
X804Y297D01*
X802Y297D01*
X802Y295D01*
X798Y295D01*
X798Y293D01*
X794Y293D01*
X794Y291D01*
X790Y291D01*
X790Y289D01*
X784Y289D01*
X784Y287D01*
X854Y287D01*
X854Y295D01*
X852Y295D01*
X852Y297D01*
X850Y297D01*
X850Y299D01*
X846Y299D01*
X846Y301D01*
X844Y301D01*
X844Y303D01*
X842Y303D01*
X842Y307D01*
X840Y307D01*
X840Y309D01*
X838Y309D01*
X838Y311D01*
X836Y311D01*
X836Y313D01*
X816Y313D01*
G37*
D02*
G36*
X40Y291D02*
X40Y287D01*
X70Y287D01*
X70Y289D01*
X64Y289D01*
X64Y291D01*
X40Y291D01*
G37*
D02*
G36*
X40Y287D02*
X40Y285D01*
X856Y285D01*
X856Y287D01*
X40Y287D01*
G37*
D02*
G36*
X40Y287D02*
X40Y285D01*
X856Y285D01*
X856Y287D01*
X40Y287D01*
G37*
D02*
G36*
X40Y287D02*
X40Y285D01*
X856Y285D01*
X856Y287D01*
X40Y287D01*
G37*
D02*
G36*
X40Y287D02*
X40Y285D01*
X856Y285D01*
X856Y287D01*
X40Y287D01*
G37*
D02*
G36*
X40Y287D02*
X40Y285D01*
X856Y285D01*
X856Y287D01*
X40Y287D01*
G37*
D02*
G36*
X40Y287D02*
X40Y285D01*
X856Y285D01*
X856Y287D01*
X40Y287D01*
G37*
D02*
G36*
X40Y287D02*
X40Y285D01*
X856Y285D01*
X856Y287D01*
X40Y287D01*
G37*
D02*
G36*
X40Y287D02*
X40Y285D01*
X856Y285D01*
X856Y287D01*
X40Y287D01*
G37*
D02*
G36*
X40Y287D02*
X40Y285D01*
X856Y285D01*
X856Y287D01*
X40Y287D01*
G37*
D02*
G36*
X40Y285D02*
X40Y161D01*
X870Y161D01*
X870Y163D01*
X866Y163D01*
X866Y165D01*
X864Y165D01*
X864Y167D01*
X862Y167D01*
X862Y169D01*
X860Y169D01*
X860Y171D01*
X858Y171D01*
X858Y177D01*
X856Y177D01*
X856Y285D01*
X40Y285D01*
G37*
D02*
G36*
X1262Y163D02*
X1262Y161D01*
X1354Y161D01*
X1354Y163D01*
X1262Y163D01*
G37*
D02*
G36*
X40Y161D02*
X40Y159D01*
X1354Y159D01*
X1354Y161D01*
X40Y161D01*
G37*
D02*
G36*
X40Y161D02*
X40Y159D01*
X1354Y159D01*
X1354Y161D01*
X40Y161D01*
G37*
D02*
G36*
X40Y159D02*
X40Y133D01*
X1184Y133D01*
X1184Y131D01*
X1190Y131D01*
X1190Y129D01*
X1196Y129D01*
X1196Y127D01*
X1198Y127D01*
X1198Y125D01*
X1202Y125D01*
X1202Y123D01*
X1204Y123D01*
X1204Y121D01*
X1206Y121D01*
X1206Y119D01*
X1210Y119D01*
X1210Y117D01*
X1212Y117D01*
X1212Y113D01*
X1214Y113D01*
X1214Y111D01*
X1216Y111D01*
X1216Y109D01*
X1218Y109D01*
X1218Y105D01*
X1220Y105D01*
X1220Y103D01*
X1222Y103D01*
X1222Y97D01*
X1224Y97D01*
X1224Y89D01*
X1226Y89D01*
X1226Y77D01*
X1224Y77D01*
X1224Y71D01*
X1222Y71D01*
X1222Y65D01*
X1220Y65D01*
X1220Y61D01*
X1218Y61D01*
X1218Y41D01*
X1340Y41D01*
X1340Y113D01*
X1342Y113D01*
X1342Y121D01*
X1344Y121D01*
X1344Y125D01*
X1346Y125D01*
X1346Y129D01*
X1348Y129D01*
X1348Y131D01*
X1350Y131D01*
X1350Y133D01*
X1352Y133D01*
X1352Y135D01*
X1354Y135D01*
X1354Y159D01*
X40Y159D01*
G37*
D02*
G36*
X40Y133D02*
X40Y129D01*
X62Y129D01*
X62Y131D01*
X70Y131D01*
X70Y133D01*
X40Y133D01*
G37*
D02*
G36*
X84Y133D02*
X84Y131D01*
X90Y131D01*
X90Y129D01*
X96Y129D01*
X96Y127D01*
X98Y127D01*
X98Y125D01*
X102Y125D01*
X102Y123D01*
X104Y123D01*
X104Y121D01*
X106Y121D01*
X106Y119D01*
X110Y119D01*
X110Y117D01*
X112Y117D01*
X112Y113D01*
X114Y113D01*
X114Y111D01*
X116Y111D01*
X116Y109D01*
X136Y109D01*
X136Y111D01*
X138Y111D01*
X138Y113D01*
X140Y113D01*
X140Y115D01*
X142Y115D01*
X142Y117D01*
X144Y117D01*
X144Y119D01*
X146Y119D01*
X146Y121D01*
X148Y121D01*
X148Y123D01*
X152Y123D01*
X152Y125D01*
X154Y125D01*
X154Y127D01*
X158Y127D01*
X158Y129D01*
X162Y129D01*
X162Y131D01*
X170Y131D01*
X170Y133D01*
X84Y133D01*
G37*
D02*
G36*
X184Y133D02*
X184Y131D01*
X190Y131D01*
X190Y129D01*
X196Y129D01*
X196Y127D01*
X198Y127D01*
X198Y125D01*
X202Y125D01*
X202Y123D01*
X204Y123D01*
X204Y121D01*
X206Y121D01*
X206Y119D01*
X210Y119D01*
X210Y117D01*
X212Y117D01*
X212Y113D01*
X214Y113D01*
X214Y111D01*
X216Y111D01*
X216Y109D01*
X236Y109D01*
X236Y111D01*
X238Y111D01*
X238Y113D01*
X240Y113D01*
X240Y115D01*
X242Y115D01*
X242Y117D01*
X244Y117D01*
X244Y119D01*
X246Y119D01*
X246Y121D01*
X248Y121D01*
X248Y123D01*
X252Y123D01*
X252Y125D01*
X254Y125D01*
X254Y127D01*
X258Y127D01*
X258Y129D01*
X262Y129D01*
X262Y131D01*
X270Y131D01*
X270Y133D01*
X184Y133D01*
G37*
D02*
G36*
X284Y133D02*
X284Y131D01*
X290Y131D01*
X290Y129D01*
X296Y129D01*
X296Y127D01*
X298Y127D01*
X298Y125D01*
X302Y125D01*
X302Y123D01*
X304Y123D01*
X304Y121D01*
X306Y121D01*
X306Y119D01*
X310Y119D01*
X310Y117D01*
X312Y117D01*
X312Y113D01*
X314Y113D01*
X314Y111D01*
X316Y111D01*
X316Y109D01*
X336Y109D01*
X336Y111D01*
X338Y111D01*
X338Y113D01*
X340Y113D01*
X340Y115D01*
X342Y115D01*
X342Y117D01*
X344Y117D01*
X344Y119D01*
X346Y119D01*
X346Y121D01*
X348Y121D01*
X348Y123D01*
X352Y123D01*
X352Y125D01*
X354Y125D01*
X354Y127D01*
X358Y127D01*
X358Y129D01*
X362Y129D01*
X362Y131D01*
X370Y131D01*
X370Y133D01*
X284Y133D01*
G37*
D02*
G36*
X384Y133D02*
X384Y131D01*
X390Y131D01*
X390Y129D01*
X396Y129D01*
X396Y127D01*
X398Y127D01*
X398Y125D01*
X402Y125D01*
X402Y123D01*
X404Y123D01*
X404Y121D01*
X406Y121D01*
X406Y119D01*
X410Y119D01*
X410Y117D01*
X412Y117D01*
X412Y113D01*
X414Y113D01*
X414Y111D01*
X416Y111D01*
X416Y109D01*
X436Y109D01*
X436Y111D01*
X438Y111D01*
X438Y113D01*
X440Y113D01*
X440Y115D01*
X442Y115D01*
X442Y117D01*
X444Y117D01*
X444Y119D01*
X446Y119D01*
X446Y121D01*
X448Y121D01*
X448Y123D01*
X452Y123D01*
X452Y125D01*
X454Y125D01*
X454Y127D01*
X458Y127D01*
X458Y129D01*
X462Y129D01*
X462Y131D01*
X470Y131D01*
X470Y133D01*
X384Y133D01*
G37*
D02*
G36*
X484Y133D02*
X484Y131D01*
X490Y131D01*
X490Y129D01*
X496Y129D01*
X496Y127D01*
X498Y127D01*
X498Y125D01*
X502Y125D01*
X502Y123D01*
X504Y123D01*
X504Y121D01*
X506Y121D01*
X506Y119D01*
X510Y119D01*
X510Y117D01*
X512Y117D01*
X512Y113D01*
X514Y113D01*
X514Y111D01*
X516Y111D01*
X516Y109D01*
X536Y109D01*
X536Y111D01*
X538Y111D01*
X538Y113D01*
X540Y113D01*
X540Y115D01*
X542Y115D01*
X542Y117D01*
X544Y117D01*
X544Y119D01*
X546Y119D01*
X546Y121D01*
X548Y121D01*
X548Y123D01*
X552Y123D01*
X552Y125D01*
X554Y125D01*
X554Y127D01*
X558Y127D01*
X558Y129D01*
X562Y129D01*
X562Y131D01*
X570Y131D01*
X570Y133D01*
X484Y133D01*
G37*
D02*
G36*
X584Y133D02*
X584Y131D01*
X590Y131D01*
X590Y129D01*
X596Y129D01*
X596Y127D01*
X598Y127D01*
X598Y125D01*
X602Y125D01*
X602Y123D01*
X604Y123D01*
X604Y121D01*
X606Y121D01*
X606Y119D01*
X610Y119D01*
X610Y117D01*
X612Y117D01*
X612Y113D01*
X614Y113D01*
X614Y111D01*
X616Y111D01*
X616Y109D01*
X636Y109D01*
X636Y111D01*
X638Y111D01*
X638Y113D01*
X640Y113D01*
X640Y115D01*
X642Y115D01*
X642Y117D01*
X644Y117D01*
X644Y119D01*
X646Y119D01*
X646Y121D01*
X648Y121D01*
X648Y123D01*
X652Y123D01*
X652Y125D01*
X654Y125D01*
X654Y127D01*
X658Y127D01*
X658Y129D01*
X662Y129D01*
X662Y131D01*
X670Y131D01*
X670Y133D01*
X584Y133D01*
G37*
D02*
G36*
X684Y133D02*
X684Y131D01*
X690Y131D01*
X690Y129D01*
X696Y129D01*
X696Y127D01*
X698Y127D01*
X698Y125D01*
X702Y125D01*
X702Y123D01*
X704Y123D01*
X704Y121D01*
X706Y121D01*
X706Y119D01*
X710Y119D01*
X710Y117D01*
X712Y117D01*
X712Y113D01*
X714Y113D01*
X714Y111D01*
X716Y111D01*
X716Y109D01*
X736Y109D01*
X736Y111D01*
X738Y111D01*
X738Y113D01*
X740Y113D01*
X740Y115D01*
X742Y115D01*
X742Y117D01*
X744Y117D01*
X744Y119D01*
X746Y119D01*
X746Y121D01*
X748Y121D01*
X748Y123D01*
X752Y123D01*
X752Y125D01*
X754Y125D01*
X754Y127D01*
X758Y127D01*
X758Y129D01*
X762Y129D01*
X762Y131D01*
X770Y131D01*
X770Y133D01*
X684Y133D01*
G37*
D02*
G36*
X784Y133D02*
X784Y131D01*
X790Y131D01*
X790Y129D01*
X796Y129D01*
X796Y127D01*
X798Y127D01*
X798Y125D01*
X802Y125D01*
X802Y123D01*
X804Y123D01*
X804Y121D01*
X806Y121D01*
X806Y119D01*
X810Y119D01*
X810Y117D01*
X812Y117D01*
X812Y113D01*
X814Y113D01*
X814Y111D01*
X816Y111D01*
X816Y109D01*
X836Y109D01*
X836Y111D01*
X838Y111D01*
X838Y113D01*
X840Y113D01*
X840Y115D01*
X842Y115D01*
X842Y117D01*
X844Y117D01*
X844Y119D01*
X846Y119D01*
X846Y121D01*
X848Y121D01*
X848Y123D01*
X852Y123D01*
X852Y125D01*
X854Y125D01*
X854Y127D01*
X858Y127D01*
X858Y129D01*
X862Y129D01*
X862Y131D01*
X870Y131D01*
X870Y133D01*
X784Y133D01*
G37*
D02*
G36*
X884Y133D02*
X884Y131D01*
X890Y131D01*
X890Y129D01*
X896Y129D01*
X896Y127D01*
X898Y127D01*
X898Y125D01*
X902Y125D01*
X902Y123D01*
X904Y123D01*
X904Y121D01*
X906Y121D01*
X906Y119D01*
X910Y119D01*
X910Y117D01*
X912Y117D01*
X912Y113D01*
X914Y113D01*
X914Y111D01*
X916Y111D01*
X916Y109D01*
X936Y109D01*
X936Y111D01*
X938Y111D01*
X938Y113D01*
X940Y113D01*
X940Y115D01*
X942Y115D01*
X942Y117D01*
X944Y117D01*
X944Y119D01*
X946Y119D01*
X946Y121D01*
X948Y121D01*
X948Y123D01*
X952Y123D01*
X952Y125D01*
X954Y125D01*
X954Y127D01*
X958Y127D01*
X958Y129D01*
X962Y129D01*
X962Y131D01*
X970Y131D01*
X970Y133D01*
X884Y133D01*
G37*
D02*
G36*
X984Y133D02*
X984Y131D01*
X990Y131D01*
X990Y129D01*
X996Y129D01*
X996Y127D01*
X998Y127D01*
X998Y125D01*
X1002Y125D01*
X1002Y123D01*
X1004Y123D01*
X1004Y121D01*
X1006Y121D01*
X1006Y119D01*
X1010Y119D01*
X1010Y117D01*
X1012Y117D01*
X1012Y113D01*
X1014Y113D01*
X1014Y111D01*
X1016Y111D01*
X1016Y109D01*
X1036Y109D01*
X1036Y111D01*
X1038Y111D01*
X1038Y113D01*
X1040Y113D01*
X1040Y115D01*
X1042Y115D01*
X1042Y117D01*
X1044Y117D01*
X1044Y119D01*
X1046Y119D01*
X1046Y121D01*
X1048Y121D01*
X1048Y123D01*
X1052Y123D01*
X1052Y125D01*
X1054Y125D01*
X1054Y127D01*
X1058Y127D01*
X1058Y129D01*
X1062Y129D01*
X1062Y131D01*
X1070Y131D01*
X1070Y133D01*
X984Y133D01*
G37*
D02*
G36*
X1084Y133D02*
X1084Y131D01*
X1090Y131D01*
X1090Y129D01*
X1096Y129D01*
X1096Y127D01*
X1098Y127D01*
X1098Y125D01*
X1102Y125D01*
X1102Y123D01*
X1104Y123D01*
X1104Y121D01*
X1106Y121D01*
X1106Y119D01*
X1110Y119D01*
X1110Y117D01*
X1112Y117D01*
X1112Y113D01*
X1114Y113D01*
X1114Y111D01*
X1116Y111D01*
X1116Y109D01*
X1136Y109D01*
X1136Y111D01*
X1138Y111D01*
X1138Y113D01*
X1140Y113D01*
X1140Y115D01*
X1142Y115D01*
X1142Y117D01*
X1144Y117D01*
X1144Y119D01*
X1146Y119D01*
X1146Y121D01*
X1148Y121D01*
X1148Y123D01*
X1152Y123D01*
X1152Y125D01*
X1154Y125D01*
X1154Y127D01*
X1158Y127D01*
X1158Y129D01*
X1162Y129D01*
X1162Y131D01*
X1170Y131D01*
X1170Y133D01*
X1084Y133D01*
G37*
D02*
G36*
X1496Y263D02*
X1496Y243D01*
X1498Y243D01*
X1498Y145D01*
X1986Y145D01*
X1986Y143D01*
X1992Y143D01*
X1992Y141D01*
X1994Y141D01*
X1994Y139D01*
X1998Y139D01*
X1998Y137D01*
X2000Y137D01*
X2000Y135D01*
X2002Y135D01*
X2002Y133D01*
X2004Y133D01*
X2004Y131D01*
X2006Y131D01*
X2006Y127D01*
X2008Y127D01*
X2008Y125D01*
X2010Y125D01*
X2010Y119D01*
X2012Y119D01*
X2012Y41D01*
X2040Y41D01*
X2040Y113D01*
X2042Y113D01*
X2042Y121D01*
X2044Y121D01*
X2044Y125D01*
X2046Y125D01*
X2046Y129D01*
X2048Y129D01*
X2048Y131D01*
X2050Y131D01*
X2050Y133D01*
X2052Y133D01*
X2052Y135D01*
X2054Y135D01*
X2054Y181D01*
X2056Y181D01*
X2056Y263D01*
X1496Y263D01*
G37*
D02*
G36*
X1498Y145D02*
X1498Y137D01*
X1500Y137D01*
X1500Y135D01*
X1502Y135D01*
X1502Y133D01*
X1504Y133D01*
X1504Y131D01*
X1506Y131D01*
X1506Y127D01*
X1508Y127D01*
X1508Y125D01*
X1510Y125D01*
X1510Y119D01*
X1512Y119D01*
X1512Y41D01*
X1540Y41D01*
X1540Y113D01*
X1542Y113D01*
X1542Y121D01*
X1544Y121D01*
X1544Y125D01*
X1546Y125D01*
X1546Y129D01*
X1548Y129D01*
X1548Y131D01*
X1550Y131D01*
X1550Y133D01*
X1552Y133D01*
X1552Y135D01*
X1554Y135D01*
X1554Y137D01*
X1556Y137D01*
X1556Y139D01*
X1558Y139D01*
X1558Y141D01*
X1562Y141D01*
X1562Y143D01*
X1566Y143D01*
X1566Y145D01*
X1498Y145D01*
G37*
D02*
G36*
X1586Y145D02*
X1586Y143D01*
X1592Y143D01*
X1592Y141D01*
X1594Y141D01*
X1594Y139D01*
X1598Y139D01*
X1598Y137D01*
X1600Y137D01*
X1600Y135D01*
X1602Y135D01*
X1602Y133D01*
X1604Y133D01*
X1604Y131D01*
X1606Y131D01*
X1606Y127D01*
X1608Y127D01*
X1608Y125D01*
X1610Y125D01*
X1610Y119D01*
X1612Y119D01*
X1612Y41D01*
X1640Y41D01*
X1640Y113D01*
X1642Y113D01*
X1642Y121D01*
X1644Y121D01*
X1644Y125D01*
X1646Y125D01*
X1646Y129D01*
X1648Y129D01*
X1648Y131D01*
X1650Y131D01*
X1650Y133D01*
X1652Y133D01*
X1652Y135D01*
X1654Y135D01*
X1654Y137D01*
X1656Y137D01*
X1656Y139D01*
X1658Y139D01*
X1658Y141D01*
X1662Y141D01*
X1662Y143D01*
X1666Y143D01*
X1666Y145D01*
X1586Y145D01*
G37*
D02*
G36*
X1686Y145D02*
X1686Y143D01*
X1692Y143D01*
X1692Y141D01*
X1694Y141D01*
X1694Y139D01*
X1698Y139D01*
X1698Y137D01*
X1700Y137D01*
X1700Y135D01*
X1702Y135D01*
X1702Y133D01*
X1704Y133D01*
X1704Y131D01*
X1706Y131D01*
X1706Y127D01*
X1708Y127D01*
X1708Y125D01*
X1710Y125D01*
X1710Y119D01*
X1712Y119D01*
X1712Y41D01*
X1740Y41D01*
X1740Y113D01*
X1742Y113D01*
X1742Y121D01*
X1744Y121D01*
X1744Y125D01*
X1746Y125D01*
X1746Y129D01*
X1748Y129D01*
X1748Y131D01*
X1750Y131D01*
X1750Y133D01*
X1752Y133D01*
X1752Y135D01*
X1754Y135D01*
X1754Y137D01*
X1756Y137D01*
X1756Y139D01*
X1758Y139D01*
X1758Y141D01*
X1762Y141D01*
X1762Y143D01*
X1766Y143D01*
X1766Y145D01*
X1686Y145D01*
G37*
D02*
G36*
X1786Y145D02*
X1786Y143D01*
X1792Y143D01*
X1792Y141D01*
X1794Y141D01*
X1794Y139D01*
X1798Y139D01*
X1798Y137D01*
X1800Y137D01*
X1800Y135D01*
X1802Y135D01*
X1802Y133D01*
X1804Y133D01*
X1804Y131D01*
X1806Y131D01*
X1806Y127D01*
X1808Y127D01*
X1808Y125D01*
X1810Y125D01*
X1810Y119D01*
X1812Y119D01*
X1812Y41D01*
X1840Y41D01*
X1840Y113D01*
X1842Y113D01*
X1842Y121D01*
X1844Y121D01*
X1844Y125D01*
X1846Y125D01*
X1846Y129D01*
X1848Y129D01*
X1848Y131D01*
X1850Y131D01*
X1850Y133D01*
X1852Y133D01*
X1852Y135D01*
X1854Y135D01*
X1854Y137D01*
X1856Y137D01*
X1856Y139D01*
X1858Y139D01*
X1858Y141D01*
X1862Y141D01*
X1862Y143D01*
X1866Y143D01*
X1866Y145D01*
X1786Y145D01*
G37*
D02*
G36*
X1886Y145D02*
X1886Y143D01*
X1892Y143D01*
X1892Y141D01*
X1894Y141D01*
X1894Y139D01*
X1898Y139D01*
X1898Y137D01*
X1900Y137D01*
X1900Y135D01*
X1902Y135D01*
X1902Y133D01*
X1904Y133D01*
X1904Y131D01*
X1906Y131D01*
X1906Y127D01*
X1908Y127D01*
X1908Y125D01*
X1910Y125D01*
X1910Y119D01*
X1912Y119D01*
X1912Y41D01*
X1940Y41D01*
X1940Y113D01*
X1942Y113D01*
X1942Y121D01*
X1944Y121D01*
X1944Y125D01*
X1946Y125D01*
X1946Y129D01*
X1948Y129D01*
X1948Y131D01*
X1950Y131D01*
X1950Y133D01*
X1952Y133D01*
X1952Y135D01*
X1954Y135D01*
X1954Y137D01*
X1956Y137D01*
X1956Y139D01*
X1958Y139D01*
X1958Y141D01*
X1962Y141D01*
X1962Y143D01*
X1966Y143D01*
X1966Y145D01*
X1886Y145D01*
G37*
D02*
G36*
X1396Y213D02*
X1396Y193D01*
X1398Y193D01*
X1398Y137D01*
X1400Y137D01*
X1400Y135D01*
X1402Y135D01*
X1402Y133D01*
X1404Y133D01*
X1404Y131D01*
X1406Y131D01*
X1406Y127D01*
X1408Y127D01*
X1408Y125D01*
X1410Y125D01*
X1410Y119D01*
X1412Y119D01*
X1412Y41D01*
X1440Y41D01*
X1440Y113D01*
X1442Y113D01*
X1442Y121D01*
X1444Y121D01*
X1444Y125D01*
X1446Y125D01*
X1446Y129D01*
X1448Y129D01*
X1448Y131D01*
X1450Y131D01*
X1450Y133D01*
X1452Y133D01*
X1452Y135D01*
X1454Y135D01*
X1454Y213D01*
X1396Y213D01*
G37*
D02*
G36*
X1454Y799D02*
X1497Y799D01*
X1497Y767D01*
X1454Y767D01*
X1454Y799D01*
G37*
D02*
G36*
X1428Y837D02*
X1458Y837D01*
X1458Y794D01*
X1428Y794D01*
X1428Y837D01*
G37*
D02*
G36*
X2053Y1227D02*
X2094Y1227D01*
X2094Y1201D01*
X2053Y1201D01*
X2053Y1227D01*
G37*
D02*
G36*
X1454Y545D02*
X1497Y545D01*
X1497Y511D01*
X1454Y511D01*
X1454Y545D01*
G37*
D02*
G36*
X1428Y583D02*
X1458Y583D01*
X1458Y540D01*
X1428Y540D01*
X1428Y583D01*
G37*
D02*
G36*
X1953Y1227D02*
X1994Y1227D01*
X1994Y1201D01*
X1953Y1201D01*
X1953Y1227D01*
G37*
D02*
G36*
X1431Y1155D02*
X1468Y1155D01*
X1468Y1125D01*
X1431Y1125D01*
X1431Y1155D01*
G37*
D02*
G36*
X55Y317D02*
X96Y317D01*
X96Y287D01*
X55Y287D01*
X55Y317D01*
G37*
D02*
G36*
X32Y356D02*
X56Y356D01*
X56Y315D01*
X32Y315D01*
X32Y356D01*
G37*
D02*
G36*
X1553Y1227D02*
X1594Y1227D01*
X1594Y1201D01*
X1553Y1201D01*
X1553Y1227D01*
G37*
D02*
G36*
X53Y137D02*
X98Y137D01*
X98Y105D01*
X53Y105D01*
X53Y137D01*
G37*
D02*
G36*
X53Y67D02*
X98Y67D01*
X98Y41D01*
X53Y41D01*
X53Y67D01*
G37*
D02*
G36*
X28Y108D02*
X56Y108D01*
X56Y63D01*
X28Y63D01*
X28Y108D01*
G37*
D02*
G36*
X1958Y149D02*
X1989Y149D01*
X1989Y101D01*
X1958Y101D01*
X1958Y149D01*
G37*
D02*
G36*
X1958Y71D02*
X1989Y71D01*
X1989Y41D01*
X1958Y41D01*
X1958Y71D01*
G37*
D02*
G54D20*
X2277Y885D02*
X2350Y885D01*
X2277Y884D02*
X2350Y884D01*
X2277Y883D02*
X2350Y883D01*
X2277Y882D02*
X2350Y882D01*
X2277Y881D02*
X2350Y881D01*
X2277Y880D02*
X2350Y880D01*
X2277Y879D02*
X2350Y879D01*
X2277Y878D02*
X2350Y878D01*
X2277Y877D02*
X2350Y877D01*
X2277Y876D02*
X2350Y876D01*
X2277Y875D02*
X2350Y875D01*
X2277Y874D02*
X2350Y874D01*
X2277Y873D02*
X2350Y873D01*
X2277Y872D02*
X2350Y872D01*
X2277Y871D02*
X2350Y871D01*
X2277Y870D02*
X2350Y870D01*
X2277Y869D02*
X2350Y869D01*
X2277Y868D02*
X2311Y868D01*
X2316Y868D02*
X2350Y868D01*
X2277Y867D02*
X2306Y867D01*
X2321Y867D02*
X2350Y867D01*
X2277Y866D02*
X2304Y866D01*
X2323Y866D02*
X2350Y866D01*
X2277Y865D02*
X2302Y865D01*
X2325Y865D02*
X2350Y865D01*
X2277Y864D02*
X2301Y864D01*
X2326Y864D02*
X2350Y864D01*
X2277Y863D02*
X2300Y863D01*
X2327Y863D02*
X2350Y863D01*
X2277Y862D02*
X2299Y862D01*
X2329Y862D02*
X2350Y862D01*
X2277Y861D02*
X2298Y861D01*
X2329Y861D02*
X2350Y861D01*
X2277Y860D02*
X2297Y860D01*
X2330Y860D02*
X2350Y860D01*
X2277Y859D02*
X2296Y859D01*
X2331Y859D02*
X2350Y859D01*
X2277Y858D02*
X2296Y858D01*
X2331Y858D02*
X2350Y858D01*
X2277Y857D02*
X2295Y857D01*
X2332Y857D02*
X2350Y857D01*
X2277Y856D02*
X2295Y856D01*
X2332Y856D02*
X2350Y856D01*
X2277Y855D02*
X2294Y855D01*
X2333Y855D02*
X2350Y855D01*
X2277Y854D02*
X2294Y854D01*
X2333Y854D02*
X2350Y854D01*
X2277Y853D02*
X2294Y853D01*
X2333Y853D02*
X2350Y853D01*
X2277Y852D02*
X2293Y852D01*
X2334Y852D02*
X2350Y852D01*
X2277Y851D02*
X2293Y851D01*
X2334Y851D02*
X2350Y851D01*
X2277Y850D02*
X2293Y850D01*
X2334Y850D02*
X2350Y850D01*
X2277Y849D02*
X2293Y849D01*
X2334Y849D02*
X2350Y849D01*
X2277Y848D02*
X2293Y848D01*
X2334Y848D02*
X2350Y848D01*
X2277Y847D02*
X2293Y847D01*
X2334Y847D02*
X2350Y847D01*
X2277Y846D02*
X2293Y846D01*
X2334Y846D02*
X2350Y846D01*
X2277Y845D02*
X2293Y845D01*
X2334Y845D02*
X2350Y845D01*
X2277Y844D02*
X2294Y844D01*
X2334Y844D02*
X2350Y844D01*
X2277Y843D02*
X2294Y843D01*
X2333Y843D02*
X2350Y843D01*
X2277Y842D02*
X2294Y842D01*
X2333Y842D02*
X2350Y842D01*
X2277Y841D02*
X2294Y841D01*
X2333Y841D02*
X2350Y841D01*
X2277Y840D02*
X2295Y840D01*
X2332Y840D02*
X2350Y840D01*
X2277Y839D02*
X2295Y839D01*
X2332Y839D02*
X2350Y839D01*
X2277Y838D02*
X2296Y838D01*
X2331Y838D02*
X2350Y838D01*
X2277Y837D02*
X2297Y837D01*
X2331Y837D02*
X2350Y837D01*
X2277Y836D02*
X2297Y836D01*
X2330Y836D02*
X2350Y836D01*
X2277Y835D02*
X2298Y835D01*
X2329Y835D02*
X2350Y835D01*
X2277Y834D02*
X2299Y834D01*
X2328Y834D02*
X2350Y834D01*
X2277Y833D02*
X2300Y833D01*
X2327Y833D02*
X2350Y833D01*
X2277Y832D02*
X2301Y832D01*
X2326Y832D02*
X2350Y832D01*
X2277Y831D02*
X2303Y831D01*
X2324Y831D02*
X2350Y831D01*
X2277Y830D02*
X2305Y830D01*
X2322Y830D02*
X2350Y830D01*
X2277Y829D02*
X2308Y829D01*
X2319Y829D02*
X2350Y829D01*
X2277Y828D02*
X2350Y828D01*
X2277Y827D02*
X2350Y827D01*
X2277Y826D02*
X2350Y826D01*
X2277Y825D02*
X2350Y825D01*
X2277Y824D02*
X2350Y824D01*
X2277Y823D02*
X2350Y823D01*
X2277Y822D02*
X2350Y822D01*
X2277Y821D02*
X2350Y821D01*
X2277Y820D02*
X2350Y820D01*
X2277Y819D02*
X2350Y819D01*
X2277Y818D02*
X2350Y818D01*
X2277Y817D02*
X2350Y817D01*
X2277Y816D02*
X2350Y816D01*
X2277Y815D02*
X2350Y815D01*
X2277Y814D02*
X2350Y814D01*
X2277Y813D02*
X2350Y813D01*
X2277Y812D02*
X2350Y812D01*
X1370Y436D02*
X1381Y436D01*
X1470Y436D02*
X1481Y436D01*
X1570Y436D02*
X1581Y436D01*
X1670Y436D02*
X1681Y436D01*
X1770Y436D02*
X1781Y436D01*
X1870Y436D02*
X1881Y436D01*
X1970Y436D02*
X1981Y436D01*
X2070Y436D02*
X2081Y436D01*
X1367Y435D02*
X1384Y435D01*
X1467Y435D02*
X1484Y435D01*
X1567Y435D02*
X1584Y435D01*
X1667Y435D02*
X1684Y435D01*
X1767Y435D02*
X1784Y435D01*
X1867Y435D02*
X1884Y435D01*
X1967Y435D02*
X1984Y435D01*
X2067Y435D02*
X2084Y435D01*
X1365Y434D02*
X1386Y434D01*
X1465Y434D02*
X1486Y434D01*
X1565Y434D02*
X1586Y434D01*
X1665Y434D02*
X1686Y434D01*
X1765Y434D02*
X1786Y434D01*
X1865Y434D02*
X1886Y434D01*
X1965Y434D02*
X1986Y434D01*
X2065Y434D02*
X2086Y434D01*
X1363Y433D02*
X1388Y433D01*
X1463Y433D02*
X1488Y433D01*
X1563Y433D02*
X1588Y433D01*
X1663Y433D02*
X1688Y433D01*
X1763Y433D02*
X1788Y433D01*
X1863Y433D02*
X1888Y433D01*
X1963Y433D02*
X1988Y433D01*
X2063Y433D02*
X2088Y433D01*
X1361Y432D02*
X1390Y432D01*
X1461Y432D02*
X1490Y432D01*
X1561Y432D02*
X1590Y432D01*
X1661Y432D02*
X1690Y432D01*
X1761Y432D02*
X1790Y432D01*
X1861Y432D02*
X1890Y432D01*
X1961Y432D02*
X1990Y432D01*
X2061Y432D02*
X2090Y432D01*
X1360Y431D02*
X1391Y431D01*
X1460Y431D02*
X1491Y431D01*
X1560Y431D02*
X1591Y431D01*
X1660Y431D02*
X1691Y431D01*
X1760Y431D02*
X1791Y431D01*
X1860Y431D02*
X1891Y431D01*
X1960Y431D02*
X1991Y431D01*
X2060Y431D02*
X2091Y431D01*
X1359Y430D02*
X1392Y430D01*
X1459Y430D02*
X1492Y430D01*
X1559Y430D02*
X1592Y430D01*
X1659Y430D02*
X1692Y430D01*
X1759Y430D02*
X1792Y430D01*
X1859Y430D02*
X1892Y430D01*
X1959Y430D02*
X1992Y430D01*
X2059Y430D02*
X2092Y430D01*
X1358Y429D02*
X1394Y429D01*
X1458Y429D02*
X1494Y429D01*
X1558Y429D02*
X1594Y429D01*
X1658Y429D02*
X1694Y429D01*
X1758Y429D02*
X1793Y429D01*
X1858Y429D02*
X1893Y429D01*
X1958Y429D02*
X1993Y429D01*
X2058Y429D02*
X2093Y429D01*
X1357Y428D02*
X1394Y428D01*
X1457Y428D02*
X1494Y428D01*
X1557Y428D02*
X1594Y428D01*
X1657Y428D02*
X1694Y428D01*
X1757Y428D02*
X1794Y428D01*
X1857Y428D02*
X1894Y428D01*
X1957Y428D02*
X1994Y428D01*
X2057Y428D02*
X2094Y428D01*
X1356Y427D02*
X1395Y427D01*
X1456Y427D02*
X1495Y427D01*
X1556Y427D02*
X1595Y427D01*
X1656Y427D02*
X1695Y427D01*
X1756Y427D02*
X1795Y427D01*
X1856Y427D02*
X1895Y427D01*
X1956Y427D02*
X1995Y427D01*
X2056Y427D02*
X2095Y427D01*
X1355Y426D02*
X1396Y426D01*
X1455Y426D02*
X1496Y426D01*
X1555Y426D02*
X1596Y426D01*
X1655Y426D02*
X1696Y426D01*
X1755Y426D02*
X1796Y426D01*
X1855Y426D02*
X1896Y426D01*
X1955Y426D02*
X1996Y426D01*
X2055Y426D02*
X2096Y426D01*
X1354Y425D02*
X1397Y425D01*
X1454Y425D02*
X1497Y425D01*
X1554Y425D02*
X1597Y425D01*
X1654Y425D02*
X1697Y425D01*
X1754Y425D02*
X1797Y425D01*
X1854Y425D02*
X1897Y425D01*
X1954Y425D02*
X1997Y425D01*
X2054Y425D02*
X2097Y425D01*
X1354Y424D02*
X1397Y424D01*
X1454Y424D02*
X1497Y424D01*
X1554Y424D02*
X1597Y424D01*
X1654Y424D02*
X1697Y424D01*
X1754Y424D02*
X1797Y424D01*
X1854Y424D02*
X1897Y424D01*
X1954Y424D02*
X1997Y424D01*
X2054Y424D02*
X2097Y424D01*
X1353Y423D02*
X1398Y423D01*
X1453Y423D02*
X1498Y423D01*
X1553Y423D02*
X1598Y423D01*
X1653Y423D02*
X1698Y423D01*
X1753Y423D02*
X1798Y423D01*
X1853Y423D02*
X1898Y423D01*
X1953Y423D02*
X1998Y423D01*
X2053Y423D02*
X2098Y423D01*
X1353Y422D02*
X1398Y422D01*
X1453Y422D02*
X1498Y422D01*
X1553Y422D02*
X1598Y422D01*
X1653Y422D02*
X1698Y422D01*
X1753Y422D02*
X1798Y422D01*
X1853Y422D02*
X1898Y422D01*
X1953Y422D02*
X1998Y422D01*
X2053Y422D02*
X2098Y422D01*
X1352Y421D02*
X1399Y421D01*
X1452Y421D02*
X1499Y421D01*
X1552Y421D02*
X1599Y421D01*
X1652Y421D02*
X1699Y421D01*
X1752Y421D02*
X1799Y421D01*
X1852Y421D02*
X1899Y421D01*
X1952Y421D02*
X1999Y421D01*
X2052Y421D02*
X2099Y421D01*
X1352Y420D02*
X1399Y420D01*
X1452Y420D02*
X1499Y420D01*
X1552Y420D02*
X1599Y420D01*
X1652Y420D02*
X1699Y420D01*
X1752Y420D02*
X1799Y420D01*
X1852Y420D02*
X1899Y420D01*
X1952Y420D02*
X1999Y420D01*
X2052Y420D02*
X2099Y420D01*
X1352Y419D02*
X1400Y419D01*
X1451Y419D02*
X1500Y419D01*
X1551Y419D02*
X1600Y419D01*
X1651Y419D02*
X1700Y419D01*
X1751Y419D02*
X1800Y419D01*
X1851Y419D02*
X1900Y419D01*
X1951Y419D02*
X2000Y419D01*
X2051Y419D02*
X2100Y419D01*
X1351Y418D02*
X1400Y418D01*
X1451Y418D02*
X1500Y418D01*
X1551Y418D02*
X1600Y418D01*
X1651Y418D02*
X1700Y418D01*
X1751Y418D02*
X1800Y418D01*
X1851Y418D02*
X1900Y418D01*
X1951Y418D02*
X2000Y418D01*
X2051Y418D02*
X2100Y418D01*
X1351Y417D02*
X1400Y417D01*
X1451Y417D02*
X1500Y417D01*
X1551Y417D02*
X1600Y417D01*
X1651Y417D02*
X1700Y417D01*
X1751Y417D02*
X1800Y417D01*
X1851Y417D02*
X1900Y417D01*
X1951Y417D02*
X2000Y417D01*
X2051Y417D02*
X2100Y417D01*
X1351Y416D02*
X1401Y416D01*
X1451Y416D02*
X1501Y416D01*
X1551Y416D02*
X1601Y416D01*
X1651Y416D02*
X1701Y416D01*
X1751Y416D02*
X1800Y416D01*
X1851Y416D02*
X1900Y416D01*
X1951Y416D02*
X2000Y416D01*
X2051Y416D02*
X2100Y416D01*
X1351Y415D02*
X1401Y415D01*
X1451Y415D02*
X1501Y415D01*
X1550Y415D02*
X1601Y415D01*
X1650Y415D02*
X1701Y415D01*
X1750Y415D02*
X1801Y415D01*
X1850Y415D02*
X1901Y415D01*
X1950Y415D02*
X2001Y415D01*
X2050Y415D02*
X2101Y415D01*
X1350Y414D02*
X1401Y414D01*
X1450Y414D02*
X1501Y414D01*
X1550Y414D02*
X1601Y414D01*
X1650Y414D02*
X1701Y414D01*
X1750Y414D02*
X1801Y414D01*
X1850Y414D02*
X1901Y414D01*
X1950Y414D02*
X2001Y414D01*
X2050Y414D02*
X2101Y414D01*
X1350Y413D02*
X1401Y413D01*
X1450Y413D02*
X1501Y413D01*
X1550Y413D02*
X1601Y413D01*
X1650Y413D02*
X1701Y413D01*
X1750Y413D02*
X1801Y413D01*
X1850Y413D02*
X1901Y413D01*
X1950Y413D02*
X2001Y413D01*
X2050Y413D02*
X2101Y413D01*
X1350Y412D02*
X1401Y412D01*
X1450Y412D02*
X1501Y412D01*
X1550Y412D02*
X1601Y412D01*
X1650Y412D02*
X1701Y412D01*
X1750Y412D02*
X1801Y412D01*
X1850Y412D02*
X1901Y412D01*
X1950Y412D02*
X2001Y412D01*
X2050Y412D02*
X2101Y412D01*
X1350Y411D02*
X1401Y411D01*
X1450Y411D02*
X1501Y411D01*
X1550Y411D02*
X1601Y411D01*
X1650Y411D02*
X1701Y411D01*
X1750Y411D02*
X1801Y411D01*
X1850Y411D02*
X1901Y411D01*
X1950Y411D02*
X2001Y411D01*
X2050Y411D02*
X2101Y411D01*
X1350Y410D02*
X1401Y410D01*
X1450Y410D02*
X1501Y410D01*
X1550Y410D02*
X1601Y410D01*
X1650Y410D02*
X1701Y410D01*
X1750Y410D02*
X1801Y410D01*
X1850Y410D02*
X1901Y410D01*
X1950Y410D02*
X2001Y410D01*
X2050Y410D02*
X2101Y410D01*
X1350Y409D02*
X1401Y409D01*
X1450Y409D02*
X1501Y409D01*
X1550Y409D02*
X1601Y409D01*
X1650Y409D02*
X1701Y409D01*
X1750Y409D02*
X1801Y409D01*
X1850Y409D02*
X1901Y409D01*
X1950Y409D02*
X2001Y409D01*
X2050Y409D02*
X2101Y409D01*
X1350Y408D02*
X1401Y408D01*
X1450Y408D02*
X1501Y408D01*
X1550Y408D02*
X1601Y408D01*
X1650Y408D02*
X1701Y408D01*
X1750Y408D02*
X1801Y408D01*
X1850Y408D02*
X1901Y408D01*
X1950Y408D02*
X2001Y408D01*
X2050Y408D02*
X2101Y408D01*
X1350Y407D02*
X1401Y407D01*
X1450Y407D02*
X1501Y407D01*
X1550Y407D02*
X1601Y407D01*
X1650Y407D02*
X1701Y407D01*
X1750Y407D02*
X1801Y407D01*
X1850Y407D02*
X1901Y407D01*
X1950Y407D02*
X2001Y407D01*
X2050Y407D02*
X2101Y407D01*
X1350Y406D02*
X1401Y406D01*
X1450Y406D02*
X1501Y406D01*
X1550Y406D02*
X1601Y406D01*
X1650Y406D02*
X1701Y406D01*
X1750Y406D02*
X1801Y406D01*
X1850Y406D02*
X1901Y406D01*
X1950Y406D02*
X2001Y406D01*
X2050Y406D02*
X2101Y406D01*
X1350Y405D02*
X1401Y405D01*
X1450Y405D02*
X1501Y405D01*
X1550Y405D02*
X1601Y405D01*
X1650Y405D02*
X1701Y405D01*
X1750Y405D02*
X1801Y405D01*
X1850Y405D02*
X1901Y405D01*
X1950Y405D02*
X2001Y405D01*
X2050Y405D02*
X2101Y405D01*
X1350Y404D02*
X1401Y404D01*
X1450Y404D02*
X1501Y404D01*
X1550Y404D02*
X1601Y404D01*
X1650Y404D02*
X1701Y404D01*
X1750Y404D02*
X1801Y404D01*
X1850Y404D02*
X1901Y404D01*
X1950Y404D02*
X2001Y404D01*
X2050Y404D02*
X2101Y404D01*
X1350Y403D02*
X1401Y403D01*
X1450Y403D02*
X1501Y403D01*
X1550Y403D02*
X1601Y403D01*
X1650Y403D02*
X1701Y403D01*
X1750Y403D02*
X1801Y403D01*
X1850Y403D02*
X1901Y403D01*
X1950Y403D02*
X2001Y403D01*
X2050Y403D02*
X2101Y403D01*
X1350Y402D02*
X1401Y402D01*
X1450Y402D02*
X1501Y402D01*
X1550Y402D02*
X1601Y402D01*
X1650Y402D02*
X1701Y402D01*
X1750Y402D02*
X1801Y402D01*
X1850Y402D02*
X1901Y402D01*
X1950Y402D02*
X2001Y402D01*
X2050Y402D02*
X2101Y402D01*
X1350Y401D02*
X1401Y401D01*
X1450Y401D02*
X1501Y401D01*
X1550Y401D02*
X1601Y401D01*
X1650Y401D02*
X1701Y401D01*
X1750Y401D02*
X1801Y401D01*
X1850Y401D02*
X1901Y401D01*
X1950Y401D02*
X2001Y401D01*
X2050Y401D02*
X2101Y401D01*
X1350Y400D02*
X1371Y400D01*
X1381Y400D02*
X1401Y400D01*
X1450Y400D02*
X1471Y400D01*
X1481Y400D02*
X1501Y400D01*
X1550Y400D02*
X1571Y400D01*
X1581Y400D02*
X1601Y400D01*
X1650Y400D02*
X1671Y400D01*
X1681Y400D02*
X1701Y400D01*
X1750Y400D02*
X1771Y400D01*
X1781Y400D02*
X1801Y400D01*
X1850Y400D02*
X1871Y400D01*
X1881Y400D02*
X1901Y400D01*
X1950Y400D02*
X1970Y400D01*
X1980Y400D02*
X2001Y400D01*
X2050Y400D02*
X2070Y400D01*
X2080Y400D02*
X2101Y400D01*
X1350Y399D02*
X1368Y399D01*
X1383Y399D02*
X1401Y399D01*
X1450Y399D02*
X1468Y399D01*
X1483Y399D02*
X1501Y399D01*
X1550Y399D02*
X1568Y399D01*
X1583Y399D02*
X1601Y399D01*
X1650Y399D02*
X1668Y399D01*
X1683Y399D02*
X1701Y399D01*
X1750Y399D02*
X1768Y399D01*
X1783Y399D02*
X1801Y399D01*
X1850Y399D02*
X1868Y399D01*
X1883Y399D02*
X1901Y399D01*
X1950Y399D02*
X1968Y399D01*
X1983Y399D02*
X2001Y399D01*
X2050Y399D02*
X2068Y399D01*
X2083Y399D02*
X2101Y399D01*
X1350Y398D02*
X1366Y398D01*
X1385Y398D02*
X1401Y398D01*
X1450Y398D02*
X1466Y398D01*
X1485Y398D02*
X1501Y398D01*
X1550Y398D02*
X1566Y398D01*
X1585Y398D02*
X1601Y398D01*
X1650Y398D02*
X1666Y398D01*
X1685Y398D02*
X1701Y398D01*
X1750Y398D02*
X1766Y398D01*
X1785Y398D02*
X1801Y398D01*
X1850Y398D02*
X1866Y398D01*
X1885Y398D02*
X1901Y398D01*
X1950Y398D02*
X1966Y398D01*
X1985Y398D02*
X2001Y398D01*
X2050Y398D02*
X2066Y398D01*
X2085Y398D02*
X2101Y398D01*
X1350Y397D02*
X1365Y397D01*
X1386Y397D02*
X1401Y397D01*
X1450Y397D02*
X1465Y397D01*
X1486Y397D02*
X1501Y397D01*
X1550Y397D02*
X1565Y397D01*
X1586Y397D02*
X1601Y397D01*
X1650Y397D02*
X1665Y397D01*
X1686Y397D02*
X1701Y397D01*
X1750Y397D02*
X1765Y397D01*
X1786Y397D02*
X1801Y397D01*
X1850Y397D02*
X1865Y397D01*
X1886Y397D02*
X1901Y397D01*
X1950Y397D02*
X1965Y397D01*
X1986Y397D02*
X2001Y397D01*
X2050Y397D02*
X2065Y397D01*
X2086Y397D02*
X2101Y397D01*
X1350Y396D02*
X1364Y396D01*
X1387Y396D02*
X1401Y396D01*
X1450Y396D02*
X1464Y396D01*
X1487Y396D02*
X1501Y396D01*
X1550Y396D02*
X1564Y396D01*
X1587Y396D02*
X1601Y396D01*
X1650Y396D02*
X1664Y396D01*
X1687Y396D02*
X1701Y396D01*
X1750Y396D02*
X1764Y396D01*
X1787Y396D02*
X1801Y396D01*
X1850Y396D02*
X1864Y396D01*
X1887Y396D02*
X1901Y396D01*
X1950Y396D02*
X1964Y396D01*
X1987Y396D02*
X2001Y396D01*
X2050Y396D02*
X2064Y396D01*
X2087Y396D02*
X2101Y396D01*
X1350Y395D02*
X1363Y395D01*
X1388Y395D02*
X1401Y395D01*
X1450Y395D02*
X1463Y395D01*
X1488Y395D02*
X1501Y395D01*
X1550Y395D02*
X1563Y395D01*
X1588Y395D02*
X1601Y395D01*
X1650Y395D02*
X1663Y395D01*
X1688Y395D02*
X1701Y395D01*
X1750Y395D02*
X1763Y395D01*
X1788Y395D02*
X1801Y395D01*
X1850Y395D02*
X1863Y395D01*
X1888Y395D02*
X1901Y395D01*
X1950Y395D02*
X1963Y395D01*
X1988Y395D02*
X2001Y395D01*
X2050Y395D02*
X2063Y395D01*
X2088Y395D02*
X2101Y395D01*
X1350Y394D02*
X1362Y394D01*
X1389Y394D02*
X1401Y394D01*
X1450Y394D02*
X1462Y394D01*
X1489Y394D02*
X1501Y394D01*
X1550Y394D02*
X1562Y394D01*
X1589Y394D02*
X1601Y394D01*
X1650Y394D02*
X1662Y394D01*
X1689Y394D02*
X1701Y394D01*
X1750Y394D02*
X1762Y394D01*
X1789Y394D02*
X1801Y394D01*
X1850Y394D02*
X1862Y394D01*
X1889Y394D02*
X1901Y394D01*
X1950Y394D02*
X1962Y394D01*
X1989Y394D02*
X2001Y394D01*
X2050Y394D02*
X2062Y394D01*
X2089Y394D02*
X2101Y394D01*
X1350Y393D02*
X1362Y393D01*
X1390Y393D02*
X1401Y393D01*
X1450Y393D02*
X1461Y393D01*
X1490Y393D02*
X1501Y393D01*
X1550Y393D02*
X1561Y393D01*
X1590Y393D02*
X1601Y393D01*
X1650Y393D02*
X1661Y393D01*
X1690Y393D02*
X1701Y393D01*
X1750Y393D02*
X1761Y393D01*
X1790Y393D02*
X1801Y393D01*
X1850Y393D02*
X1861Y393D01*
X1890Y393D02*
X1901Y393D01*
X1950Y393D02*
X1961Y393D01*
X1990Y393D02*
X2001Y393D01*
X2050Y393D02*
X2061Y393D01*
X2090Y393D02*
X2101Y393D01*
X1350Y392D02*
X1361Y392D01*
X1390Y392D02*
X1401Y392D01*
X1450Y392D02*
X1461Y392D01*
X1490Y392D02*
X1501Y392D01*
X1550Y392D02*
X1561Y392D01*
X1590Y392D02*
X1601Y392D01*
X1650Y392D02*
X1661Y392D01*
X1690Y392D02*
X1701Y392D01*
X1750Y392D02*
X1761Y392D01*
X1790Y392D02*
X1801Y392D01*
X1850Y392D02*
X1861Y392D01*
X1890Y392D02*
X1901Y392D01*
X1950Y392D02*
X1961Y392D01*
X1990Y392D02*
X2001Y392D01*
X2050Y392D02*
X2061Y392D01*
X2090Y392D02*
X2101Y392D01*
X1350Y391D02*
X1360Y391D01*
X1391Y391D02*
X1401Y391D01*
X1450Y391D02*
X1460Y391D01*
X1491Y391D02*
X1501Y391D01*
X1550Y391D02*
X1560Y391D01*
X1591Y391D02*
X1601Y391D01*
X1650Y391D02*
X1660Y391D01*
X1691Y391D02*
X1701Y391D01*
X1750Y391D02*
X1760Y391D01*
X1791Y391D02*
X1801Y391D01*
X1850Y391D02*
X1860Y391D01*
X1891Y391D02*
X1901Y391D01*
X1950Y391D02*
X1960Y391D01*
X1991Y391D02*
X2001Y391D01*
X2050Y391D02*
X2060Y391D01*
X2091Y391D02*
X2101Y391D01*
X1350Y390D02*
X1360Y390D01*
X1391Y390D02*
X1401Y390D01*
X1450Y390D02*
X1460Y390D01*
X1491Y390D02*
X1501Y390D01*
X1550Y390D02*
X1560Y390D01*
X1591Y390D02*
X1601Y390D01*
X1650Y390D02*
X1660Y390D01*
X1691Y390D02*
X1701Y390D01*
X1750Y390D02*
X1760Y390D01*
X1791Y390D02*
X1801Y390D01*
X1850Y390D02*
X1860Y390D01*
X1891Y390D02*
X1901Y390D01*
X1950Y390D02*
X1960Y390D01*
X1991Y390D02*
X2001Y390D01*
X2050Y390D02*
X2060Y390D01*
X2091Y390D02*
X2101Y390D01*
X1350Y389D02*
X1360Y389D01*
X1391Y389D02*
X1401Y389D01*
X1450Y389D02*
X1460Y389D01*
X1491Y389D02*
X1501Y389D01*
X1550Y389D02*
X1560Y389D01*
X1591Y389D02*
X1601Y389D01*
X1650Y389D02*
X1660Y389D01*
X1691Y389D02*
X1701Y389D01*
X1750Y389D02*
X1760Y389D01*
X1791Y389D02*
X1801Y389D01*
X1850Y389D02*
X1860Y389D01*
X1891Y389D02*
X1901Y389D01*
X1950Y389D02*
X1960Y389D01*
X1991Y389D02*
X2001Y389D01*
X2050Y389D02*
X2060Y389D01*
X2091Y389D02*
X2101Y389D01*
X1350Y388D02*
X1360Y388D01*
X1392Y388D02*
X1401Y388D01*
X1450Y388D02*
X1459Y388D01*
X1492Y388D02*
X1501Y388D01*
X1550Y388D02*
X1559Y388D01*
X1592Y388D02*
X1601Y388D01*
X1650Y388D02*
X1659Y388D01*
X1692Y388D02*
X1701Y388D01*
X1750Y388D02*
X1759Y388D01*
X1792Y388D02*
X1801Y388D01*
X1850Y388D02*
X1859Y388D01*
X1892Y388D02*
X1901Y388D01*
X1950Y388D02*
X1959Y388D01*
X1992Y388D02*
X2001Y388D01*
X2050Y388D02*
X2059Y388D01*
X2092Y388D02*
X2101Y388D01*
X1350Y387D02*
X1359Y387D01*
X1392Y387D02*
X1401Y387D01*
X1450Y387D02*
X1459Y387D01*
X1492Y387D02*
X1501Y387D01*
X1550Y387D02*
X1559Y387D01*
X1592Y387D02*
X1601Y387D01*
X1650Y387D02*
X1659Y387D01*
X1692Y387D02*
X1701Y387D01*
X1750Y387D02*
X1759Y387D01*
X1792Y387D02*
X1801Y387D01*
X1850Y387D02*
X1859Y387D01*
X1892Y387D02*
X1901Y387D01*
X1950Y387D02*
X1959Y387D01*
X1992Y387D02*
X2001Y387D01*
X2050Y387D02*
X2059Y387D01*
X2092Y387D02*
X2101Y387D01*
X1350Y386D02*
X1359Y386D01*
X1392Y386D02*
X1401Y386D01*
X1450Y386D02*
X1459Y386D01*
X1492Y386D02*
X1501Y386D01*
X1550Y386D02*
X1559Y386D01*
X1592Y386D02*
X1601Y386D01*
X1650Y386D02*
X1659Y386D01*
X1692Y386D02*
X1701Y386D01*
X1750Y386D02*
X1759Y386D01*
X1792Y386D02*
X1801Y386D01*
X1850Y386D02*
X1859Y386D01*
X1892Y386D02*
X1901Y386D01*
X1950Y386D02*
X1959Y386D01*
X1992Y386D02*
X2001Y386D01*
X2050Y386D02*
X2059Y386D01*
X2092Y386D02*
X2101Y386D01*
X1350Y385D02*
X1359Y385D01*
X1392Y385D02*
X1401Y385D01*
X1450Y385D02*
X1459Y385D01*
X1492Y385D02*
X1501Y385D01*
X1550Y385D02*
X1559Y385D01*
X1592Y385D02*
X1601Y385D01*
X1650Y385D02*
X1659Y385D01*
X1692Y385D02*
X1701Y385D01*
X1750Y385D02*
X1759Y385D01*
X1792Y385D02*
X1801Y385D01*
X1850Y385D02*
X1859Y385D01*
X1892Y385D02*
X1901Y385D01*
X1950Y385D02*
X1959Y385D01*
X1992Y385D02*
X2001Y385D01*
X2050Y385D02*
X2059Y385D01*
X2092Y385D02*
X2101Y385D01*
X1350Y384D02*
X1359Y384D01*
X1392Y384D02*
X1401Y384D01*
X1450Y384D02*
X1459Y384D01*
X1492Y384D02*
X1501Y384D01*
X1550Y384D02*
X1559Y384D01*
X1592Y384D02*
X1601Y384D01*
X1650Y384D02*
X1659Y384D01*
X1692Y384D02*
X1701Y384D01*
X1750Y384D02*
X1759Y384D01*
X1792Y384D02*
X1801Y384D01*
X1850Y384D02*
X1859Y384D01*
X1892Y384D02*
X1901Y384D01*
X1950Y384D02*
X1959Y384D01*
X1992Y384D02*
X2001Y384D01*
X2050Y384D02*
X2059Y384D01*
X2092Y384D02*
X2101Y384D01*
X1350Y383D02*
X1359Y383D01*
X1392Y383D02*
X1401Y383D01*
X1450Y383D02*
X1459Y383D01*
X1492Y383D02*
X1501Y383D01*
X1550Y383D02*
X1559Y383D01*
X1592Y383D02*
X1601Y383D01*
X1650Y383D02*
X1659Y383D01*
X1692Y383D02*
X1701Y383D01*
X1750Y383D02*
X1759Y383D01*
X1792Y383D02*
X1801Y383D01*
X1850Y383D02*
X1859Y383D01*
X1892Y383D02*
X1901Y383D01*
X1950Y383D02*
X1959Y383D01*
X1992Y383D02*
X2001Y383D01*
X2050Y383D02*
X2059Y383D01*
X2092Y383D02*
X2101Y383D01*
X1350Y382D02*
X1359Y382D01*
X1392Y382D02*
X1401Y382D01*
X1450Y382D02*
X1459Y382D01*
X1492Y382D02*
X1501Y382D01*
X1550Y382D02*
X1559Y382D01*
X1592Y382D02*
X1601Y382D01*
X1650Y382D02*
X1659Y382D01*
X1692Y382D02*
X1701Y382D01*
X1750Y382D02*
X1759Y382D01*
X1792Y382D02*
X1801Y382D01*
X1850Y382D02*
X1859Y382D01*
X1892Y382D02*
X1901Y382D01*
X1950Y382D02*
X1959Y382D01*
X1992Y382D02*
X2001Y382D01*
X2050Y382D02*
X2059Y382D01*
X2092Y382D02*
X2101Y382D01*
X1350Y381D02*
X1360Y381D01*
X1392Y381D02*
X1401Y381D01*
X1450Y381D02*
X1460Y381D01*
X1492Y381D02*
X1501Y381D01*
X1550Y381D02*
X1560Y381D01*
X1592Y381D02*
X1601Y381D01*
X1650Y381D02*
X1660Y381D01*
X1692Y381D02*
X1701Y381D01*
X1750Y381D02*
X1760Y381D01*
X1792Y381D02*
X1801Y381D01*
X1850Y381D02*
X1860Y381D01*
X1892Y381D02*
X1901Y381D01*
X1950Y381D02*
X1959Y381D01*
X1991Y381D02*
X2001Y381D01*
X2050Y381D02*
X2059Y381D01*
X2091Y381D02*
X2101Y381D01*
X1350Y380D02*
X1360Y380D01*
X1391Y380D02*
X1401Y380D01*
X1450Y380D02*
X1460Y380D01*
X1491Y380D02*
X1501Y380D01*
X1550Y380D02*
X1560Y380D01*
X1591Y380D02*
X1601Y380D01*
X1650Y380D02*
X1660Y380D01*
X1691Y380D02*
X1701Y380D01*
X1750Y380D02*
X1760Y380D01*
X1791Y380D02*
X1801Y380D01*
X1850Y380D02*
X1860Y380D01*
X1891Y380D02*
X1901Y380D01*
X1950Y380D02*
X1960Y380D01*
X1991Y380D02*
X2001Y380D01*
X2050Y380D02*
X2060Y380D01*
X2091Y380D02*
X2101Y380D01*
X1350Y379D02*
X1360Y379D01*
X1391Y379D02*
X1401Y379D01*
X1450Y379D02*
X1460Y379D01*
X1491Y379D02*
X1501Y379D01*
X1550Y379D02*
X1560Y379D01*
X1591Y379D02*
X1601Y379D01*
X1650Y379D02*
X1660Y379D01*
X1691Y379D02*
X1701Y379D01*
X1750Y379D02*
X1760Y379D01*
X1791Y379D02*
X1801Y379D01*
X1850Y379D02*
X1860Y379D01*
X1891Y379D02*
X1901Y379D01*
X1950Y379D02*
X1960Y379D01*
X1991Y379D02*
X2001Y379D01*
X2050Y379D02*
X2060Y379D01*
X2091Y379D02*
X2101Y379D01*
X1350Y378D02*
X1361Y378D01*
X1391Y378D02*
X1401Y378D01*
X1450Y378D02*
X1461Y378D01*
X1491Y378D02*
X1501Y378D01*
X1550Y378D02*
X1561Y378D01*
X1591Y378D02*
X1601Y378D01*
X1650Y378D02*
X1661Y378D01*
X1691Y378D02*
X1701Y378D01*
X1750Y378D02*
X1761Y378D01*
X1791Y378D02*
X1801Y378D01*
X1850Y378D02*
X1861Y378D01*
X1890Y378D02*
X1901Y378D01*
X1950Y378D02*
X1961Y378D01*
X1990Y378D02*
X2001Y378D01*
X2050Y378D02*
X2060Y378D01*
X2090Y378D02*
X2101Y378D01*
X1350Y377D02*
X1361Y377D01*
X1390Y377D02*
X1401Y377D01*
X1450Y377D02*
X1461Y377D01*
X1490Y377D02*
X1501Y377D01*
X1550Y377D02*
X1561Y377D01*
X1590Y377D02*
X1601Y377D01*
X1650Y377D02*
X1661Y377D01*
X1690Y377D02*
X1701Y377D01*
X1750Y377D02*
X1761Y377D01*
X1790Y377D02*
X1801Y377D01*
X1850Y377D02*
X1861Y377D01*
X1890Y377D02*
X1901Y377D01*
X1950Y377D02*
X1961Y377D01*
X1990Y377D02*
X2001Y377D01*
X2050Y377D02*
X2061Y377D01*
X2090Y377D02*
X2101Y377D01*
X1350Y376D02*
X1362Y376D01*
X1390Y376D02*
X1401Y376D01*
X1450Y376D02*
X1462Y376D01*
X1489Y376D02*
X1501Y376D01*
X1550Y376D02*
X1562Y376D01*
X1589Y376D02*
X1601Y376D01*
X1650Y376D02*
X1662Y376D01*
X1689Y376D02*
X1701Y376D01*
X1750Y376D02*
X1762Y376D01*
X1789Y376D02*
X1801Y376D01*
X1850Y376D02*
X1862Y376D01*
X1889Y376D02*
X1901Y376D01*
X1950Y376D02*
X1962Y376D01*
X1989Y376D02*
X2001Y376D01*
X2050Y376D02*
X2062Y376D01*
X2089Y376D02*
X2101Y376D01*
X1350Y375D02*
X1363Y375D01*
X1389Y375D02*
X1401Y375D01*
X1450Y375D02*
X1463Y375D01*
X1489Y375D02*
X1501Y375D01*
X1550Y375D02*
X1562Y375D01*
X1589Y375D02*
X1601Y375D01*
X1650Y375D02*
X1662Y375D01*
X1689Y375D02*
X1701Y375D01*
X1750Y375D02*
X1762Y375D01*
X1789Y375D02*
X1801Y375D01*
X1850Y375D02*
X1862Y375D01*
X1889Y375D02*
X1901Y375D01*
X1950Y375D02*
X1962Y375D01*
X1989Y375D02*
X2001Y375D01*
X2050Y375D02*
X2062Y375D01*
X2089Y375D02*
X2101Y375D01*
X1350Y374D02*
X1363Y374D01*
X1388Y374D02*
X1401Y374D01*
X1450Y374D02*
X1463Y374D01*
X1488Y374D02*
X1501Y374D01*
X1550Y374D02*
X1563Y374D01*
X1588Y374D02*
X1601Y374D01*
X1650Y374D02*
X1663Y374D01*
X1688Y374D02*
X1701Y374D01*
X1750Y374D02*
X1763Y374D01*
X1788Y374D02*
X1801Y374D01*
X1850Y374D02*
X1863Y374D01*
X1888Y374D02*
X1901Y374D01*
X1950Y374D02*
X1963Y374D01*
X1988Y374D02*
X2001Y374D01*
X2050Y374D02*
X2063Y374D01*
X2088Y374D02*
X2101Y374D01*
X1350Y373D02*
X1364Y373D01*
X1387Y373D02*
X1401Y373D01*
X1450Y373D02*
X1464Y373D01*
X1487Y373D02*
X1501Y373D01*
X1550Y373D02*
X1564Y373D01*
X1587Y373D02*
X1601Y373D01*
X1650Y373D02*
X1664Y373D01*
X1687Y373D02*
X1701Y373D01*
X1750Y373D02*
X1764Y373D01*
X1787Y373D02*
X1801Y373D01*
X1850Y373D02*
X1864Y373D01*
X1887Y373D02*
X1901Y373D01*
X1950Y373D02*
X1964Y373D01*
X1987Y373D02*
X2001Y373D01*
X2050Y373D02*
X2064Y373D01*
X2087Y373D02*
X2101Y373D01*
X1350Y372D02*
X1366Y372D01*
X1386Y372D02*
X1401Y372D01*
X1450Y372D02*
X1466Y372D01*
X1486Y372D02*
X1501Y372D01*
X1550Y372D02*
X1566Y372D01*
X1586Y372D02*
X1601Y372D01*
X1650Y372D02*
X1665Y372D01*
X1686Y372D02*
X1701Y372D01*
X1750Y372D02*
X1765Y372D01*
X1786Y372D02*
X1801Y372D01*
X1850Y372D02*
X1865Y372D01*
X1886Y372D02*
X1901Y372D01*
X1950Y372D02*
X1965Y372D01*
X1986Y372D02*
X2001Y372D01*
X2050Y372D02*
X2065Y372D01*
X2086Y372D02*
X2101Y372D01*
X1350Y371D02*
X1367Y371D01*
X1384Y371D02*
X1401Y371D01*
X1450Y371D02*
X1467Y371D01*
X1484Y371D02*
X1501Y371D01*
X1550Y371D02*
X1567Y371D01*
X1584Y371D02*
X1601Y371D01*
X1650Y371D02*
X1667Y371D01*
X1684Y371D02*
X1701Y371D01*
X1750Y371D02*
X1767Y371D01*
X1784Y371D02*
X1801Y371D01*
X1850Y371D02*
X1867Y371D01*
X1884Y371D02*
X1901Y371D01*
X1950Y371D02*
X1967Y371D01*
X1984Y371D02*
X2001Y371D01*
X2050Y371D02*
X2067Y371D01*
X2084Y371D02*
X2101Y371D01*
X1350Y370D02*
X1369Y370D01*
X1382Y370D02*
X1401Y370D01*
X1450Y370D02*
X1469Y370D01*
X1482Y370D02*
X1501Y370D01*
X1550Y370D02*
X1569Y370D01*
X1582Y370D02*
X1601Y370D01*
X1650Y370D02*
X1669Y370D01*
X1682Y370D02*
X1701Y370D01*
X1750Y370D02*
X1769Y370D01*
X1782Y370D02*
X1801Y370D01*
X1850Y370D02*
X1869Y370D01*
X1882Y370D02*
X1901Y370D01*
X1950Y370D02*
X1969Y370D01*
X1982Y370D02*
X2001Y370D01*
X2050Y370D02*
X2069Y370D01*
X2082Y370D02*
X2101Y370D01*
X1350Y369D02*
X1373Y369D01*
X1379Y369D02*
X1401Y369D01*
X1450Y369D02*
X1473Y369D01*
X1479Y369D02*
X1501Y369D01*
X1550Y369D02*
X1573Y369D01*
X1579Y369D02*
X1601Y369D01*
X1650Y369D02*
X1672Y369D01*
X1679Y369D02*
X1701Y369D01*
X1750Y369D02*
X1772Y369D01*
X1779Y369D02*
X1801Y369D01*
X1850Y369D02*
X1872Y369D01*
X1879Y369D02*
X1901Y369D01*
X1950Y369D02*
X1972Y369D01*
X1979Y369D02*
X2001Y369D01*
X2050Y369D02*
X2072Y369D01*
X2079Y369D02*
X2101Y369D01*
X1350Y368D02*
X1401Y368D01*
X1450Y368D02*
X1501Y368D01*
X1550Y368D02*
X1601Y368D01*
X1650Y368D02*
X1701Y368D01*
X1750Y368D02*
X1801Y368D01*
X1850Y368D02*
X1901Y368D01*
X1950Y368D02*
X2001Y368D01*
X2050Y368D02*
X2101Y368D01*
X1350Y367D02*
X1401Y367D01*
X1450Y367D02*
X1501Y367D01*
X1550Y367D02*
X1601Y367D01*
X1650Y367D02*
X1701Y367D01*
X1750Y367D02*
X1801Y367D01*
X1850Y367D02*
X1901Y367D01*
X1950Y367D02*
X2001Y367D01*
X2050Y367D02*
X2101Y367D01*
X1350Y366D02*
X1401Y366D01*
X1450Y366D02*
X1501Y366D01*
X1550Y366D02*
X1601Y366D01*
X1650Y366D02*
X1701Y366D01*
X1750Y366D02*
X1801Y366D01*
X1850Y366D02*
X1901Y366D01*
X1950Y366D02*
X2001Y366D01*
X2050Y366D02*
X2101Y366D01*
X1350Y365D02*
X1401Y365D01*
X1450Y365D02*
X1501Y365D01*
X1550Y365D02*
X1601Y365D01*
X1650Y365D02*
X1701Y365D01*
X1750Y365D02*
X1801Y365D01*
X1850Y365D02*
X1901Y365D01*
X1950Y365D02*
X2001Y365D01*
X2050Y365D02*
X2101Y365D01*
X1350Y364D02*
X1401Y364D01*
X1450Y364D02*
X1501Y364D01*
X1550Y364D02*
X1601Y364D01*
X1650Y364D02*
X1701Y364D01*
X1750Y364D02*
X1801Y364D01*
X1850Y364D02*
X1901Y364D01*
X1950Y364D02*
X2001Y364D01*
X2050Y364D02*
X2101Y364D01*
X1350Y363D02*
X1401Y363D01*
X1450Y363D02*
X1501Y363D01*
X1550Y363D02*
X1601Y363D01*
X1650Y363D02*
X1701Y363D01*
X1750Y363D02*
X1801Y363D01*
X1850Y363D02*
X1901Y363D01*
X1950Y363D02*
X2001Y363D01*
X2050Y363D02*
X2101Y363D01*
X1350Y362D02*
X1401Y362D01*
X1450Y362D02*
X1501Y362D01*
X1550Y362D02*
X1601Y362D01*
X1650Y362D02*
X1701Y362D01*
X1750Y362D02*
X1801Y362D01*
X1850Y362D02*
X1901Y362D01*
X1950Y362D02*
X2001Y362D01*
X2050Y362D02*
X2101Y362D01*
X1350Y361D02*
X1401Y361D01*
X1450Y361D02*
X1501Y361D01*
X1550Y361D02*
X1601Y361D01*
X1650Y361D02*
X1701Y361D01*
X1750Y361D02*
X1801Y361D01*
X1850Y361D02*
X1901Y361D01*
X1950Y361D02*
X2001Y361D01*
X2050Y361D02*
X2101Y361D01*
X1350Y360D02*
X1401Y360D01*
X1450Y360D02*
X1501Y360D01*
X1550Y360D02*
X1601Y360D01*
X1650Y360D02*
X1701Y360D01*
X1750Y360D02*
X1801Y360D01*
X1850Y360D02*
X1901Y360D01*
X1950Y360D02*
X2001Y360D01*
X2050Y360D02*
X2101Y360D01*
X1350Y359D02*
X1401Y359D01*
X1450Y359D02*
X1501Y359D01*
X1550Y359D02*
X1601Y359D01*
X1650Y359D02*
X1701Y359D01*
X1750Y359D02*
X1801Y359D01*
X1850Y359D02*
X1901Y359D01*
X1950Y359D02*
X2001Y359D01*
X2050Y359D02*
X2101Y359D01*
X1350Y358D02*
X1401Y358D01*
X1450Y358D02*
X1501Y358D01*
X1550Y358D02*
X1601Y358D01*
X1650Y358D02*
X1701Y358D01*
X1750Y358D02*
X1801Y358D01*
X1850Y358D02*
X1901Y358D01*
X1950Y358D02*
X2001Y358D01*
X2050Y358D02*
X2101Y358D01*
X1350Y357D02*
X1401Y357D01*
X1450Y357D02*
X1501Y357D01*
X1550Y357D02*
X1601Y357D01*
X1650Y357D02*
X1701Y357D01*
X1750Y357D02*
X1801Y357D01*
X1850Y357D02*
X1901Y357D01*
X1950Y357D02*
X2001Y357D01*
X2050Y357D02*
X2101Y357D01*
X1350Y356D02*
X1401Y356D01*
X1450Y356D02*
X1501Y356D01*
X1550Y356D02*
X1601Y356D01*
X1650Y356D02*
X1701Y356D01*
X1750Y356D02*
X1801Y356D01*
X1850Y356D02*
X1901Y356D01*
X1950Y356D02*
X2001Y356D01*
X2050Y356D02*
X2101Y356D01*
X1350Y355D02*
X1401Y355D01*
X1450Y355D02*
X1501Y355D01*
X1550Y355D02*
X1601Y355D01*
X1650Y355D02*
X1701Y355D01*
X1750Y355D02*
X1801Y355D01*
X1850Y355D02*
X1901Y355D01*
X1950Y355D02*
X2001Y355D01*
X2050Y355D02*
X2101Y355D01*
X1351Y354D02*
X1401Y354D01*
X1451Y354D02*
X1501Y354D01*
X1551Y354D02*
X1601Y354D01*
X1651Y354D02*
X1701Y354D01*
X1750Y354D02*
X1801Y354D01*
X1850Y354D02*
X1901Y354D01*
X1950Y354D02*
X2001Y354D01*
X2050Y354D02*
X2100Y354D01*
X1351Y353D02*
X1400Y353D01*
X1451Y353D02*
X1500Y353D01*
X1551Y353D02*
X1600Y353D01*
X1651Y353D02*
X1700Y353D01*
X1751Y353D02*
X1800Y353D01*
X1851Y353D02*
X1900Y353D01*
X1951Y353D02*
X2000Y353D01*
X2051Y353D02*
X2100Y353D01*
X1351Y352D02*
X1400Y352D01*
X1451Y352D02*
X1500Y352D01*
X1551Y352D02*
X1600Y352D01*
X1651Y352D02*
X1700Y352D01*
X1751Y352D02*
X1800Y352D01*
X1851Y352D02*
X1900Y352D01*
X1951Y352D02*
X2000Y352D01*
X2051Y352D02*
X2100Y352D01*
X1351Y351D02*
X1400Y351D01*
X1451Y351D02*
X1500Y351D01*
X1551Y351D02*
X1600Y351D01*
X1651Y351D02*
X1700Y351D01*
X1751Y351D02*
X1800Y351D01*
X1851Y351D02*
X1900Y351D01*
X1951Y351D02*
X2000Y351D01*
X2051Y351D02*
X2100Y351D01*
X1352Y350D02*
X1400Y350D01*
X1452Y350D02*
X1500Y350D01*
X1552Y350D02*
X1600Y350D01*
X1652Y350D02*
X1700Y350D01*
X1752Y350D02*
X1800Y350D01*
X1852Y350D02*
X1899Y350D01*
X1952Y350D02*
X1999Y350D01*
X2052Y350D02*
X2099Y350D01*
X1352Y349D02*
X1399Y349D01*
X1452Y349D02*
X1499Y349D01*
X1552Y349D02*
X1599Y349D01*
X1652Y349D02*
X1699Y349D01*
X1752Y349D02*
X1799Y349D01*
X1852Y349D02*
X1899Y349D01*
X1952Y349D02*
X1999Y349D01*
X2052Y349D02*
X2099Y349D01*
X1353Y348D02*
X1399Y348D01*
X1453Y348D02*
X1499Y348D01*
X1552Y348D02*
X1599Y348D01*
X1652Y348D02*
X1699Y348D01*
X1752Y348D02*
X1799Y348D01*
X1852Y348D02*
X1899Y348D01*
X1952Y348D02*
X1999Y348D01*
X2052Y348D02*
X2099Y348D01*
X1353Y347D02*
X1398Y347D01*
X1453Y347D02*
X1498Y347D01*
X1553Y347D02*
X1598Y347D01*
X1653Y347D02*
X1698Y347D01*
X1753Y347D02*
X1798Y347D01*
X1853Y347D02*
X1898Y347D01*
X1953Y347D02*
X1998Y347D01*
X2053Y347D02*
X2098Y347D01*
X1354Y346D02*
X1398Y346D01*
X1454Y346D02*
X1498Y346D01*
X1554Y346D02*
X1598Y346D01*
X1654Y346D02*
X1698Y346D01*
X1754Y346D02*
X1798Y346D01*
X1853Y346D02*
X1898Y346D01*
X1953Y346D02*
X1998Y346D01*
X2053Y346D02*
X2097Y346D01*
X1354Y345D02*
X1397Y345D01*
X1454Y345D02*
X1497Y345D01*
X1554Y345D02*
X1597Y345D01*
X1654Y345D02*
X1697Y345D01*
X1754Y345D02*
X1797Y345D01*
X1854Y345D02*
X1897Y345D01*
X1954Y345D02*
X1997Y345D01*
X2054Y345D02*
X2097Y345D01*
X1355Y344D02*
X1397Y344D01*
X1455Y344D02*
X1496Y344D01*
X1555Y344D02*
X1596Y344D01*
X1655Y344D02*
X1696Y344D01*
X1755Y344D02*
X1796Y344D01*
X1855Y344D02*
X1896Y344D01*
X1955Y344D02*
X1996Y344D01*
X2055Y344D02*
X2096Y344D01*
X1356Y343D02*
X1396Y343D01*
X1456Y343D02*
X1496Y343D01*
X1556Y343D02*
X1596Y343D01*
X1656Y343D02*
X1696Y343D01*
X1755Y343D02*
X1796Y343D01*
X1855Y343D02*
X1896Y343D01*
X1955Y343D02*
X1996Y343D01*
X2055Y343D02*
X2096Y343D01*
X1356Y342D02*
X1395Y342D01*
X1456Y342D02*
X1495Y342D01*
X1556Y342D02*
X1595Y342D01*
X1656Y342D02*
X1695Y342D01*
X1756Y342D02*
X1795Y342D01*
X1856Y342D02*
X1895Y342D01*
X1956Y342D02*
X1995Y342D01*
X2056Y342D02*
X2095Y342D01*
X1357Y341D02*
X1394Y341D01*
X1457Y341D02*
X1494Y341D01*
X1557Y341D02*
X1594Y341D01*
X1657Y341D02*
X1694Y341D01*
X1757Y341D02*
X1794Y341D01*
X1857Y341D02*
X1894Y341D01*
X1957Y341D02*
X1994Y341D01*
X2057Y341D02*
X2094Y341D01*
X1358Y340D02*
X1393Y340D01*
X1458Y340D02*
X1493Y340D01*
X1558Y340D02*
X1593Y340D01*
X1658Y340D02*
X1693Y340D01*
X1758Y340D02*
X1793Y340D01*
X1858Y340D02*
X1893Y340D01*
X1958Y340D02*
X1993Y340D01*
X2058Y340D02*
X2093Y340D01*
X1359Y339D02*
X1392Y339D01*
X1459Y339D02*
X1492Y339D01*
X1559Y339D02*
X1592Y339D01*
X1659Y339D02*
X1692Y339D01*
X1759Y339D02*
X1792Y339D01*
X1859Y339D02*
X1892Y339D01*
X1959Y339D02*
X1992Y339D01*
X2059Y339D02*
X2092Y339D01*
X1361Y338D02*
X1391Y338D01*
X1461Y338D02*
X1491Y338D01*
X1561Y338D02*
X1591Y338D01*
X1661Y338D02*
X1691Y338D01*
X1761Y338D02*
X1791Y338D01*
X1861Y338D02*
X1891Y338D01*
X1960Y338D02*
X1990Y338D01*
X2060Y338D02*
X2090Y338D01*
X1362Y337D02*
X1389Y337D01*
X1462Y337D02*
X1489Y337D01*
X1562Y337D02*
X1589Y337D01*
X1662Y337D02*
X1689Y337D01*
X1762Y337D02*
X1789Y337D01*
X1862Y337D02*
X1889Y337D01*
X1962Y337D02*
X1989Y337D01*
X2062Y337D02*
X2089Y337D01*
X1364Y336D02*
X1387Y336D01*
X1464Y336D02*
X1487Y336D01*
X1564Y336D02*
X1587Y336D01*
X1664Y336D02*
X1687Y336D01*
X1764Y336D02*
X1787Y336D01*
X1864Y336D02*
X1887Y336D01*
X1964Y336D02*
X1987Y336D01*
X2064Y336D02*
X2087Y336D01*
X1366Y335D02*
X1386Y335D01*
X1466Y335D02*
X1486Y335D01*
X1566Y335D02*
X1586Y335D01*
X1666Y335D02*
X1686Y335D01*
X1766Y335D02*
X1786Y335D01*
X1866Y335D02*
X1886Y335D01*
X1965Y335D02*
X1985Y335D01*
X2065Y335D02*
X2085Y335D01*
X1368Y334D02*
X1383Y334D01*
X1468Y334D02*
X1483Y334D01*
X1568Y334D02*
X1583Y334D01*
X1668Y334D02*
X1683Y334D01*
X1768Y334D02*
X1783Y334D01*
X1868Y334D02*
X1883Y334D01*
X1968Y334D02*
X1983Y334D01*
X2068Y334D02*
X2083Y334D01*
X1373Y333D02*
X1379Y333D01*
X1473Y333D02*
X1478Y333D01*
X1573Y333D02*
X1578Y333D01*
X1673Y333D02*
X1678Y333D01*
X1773Y333D02*
X1778Y333D01*
X1873Y333D02*
X1878Y333D01*
X1973Y333D02*
X1978Y333D01*
X2073Y333D02*
X2078Y333D01*
X1370Y136D02*
X1382Y136D01*
X1469Y136D02*
X1482Y136D01*
X1569Y136D02*
X1582Y136D01*
X1669Y136D02*
X1682Y136D01*
X1769Y136D02*
X1782Y136D01*
X1869Y136D02*
X1882Y136D01*
X1969Y136D02*
X1982Y136D01*
X2069Y136D02*
X2082Y136D01*
X1366Y135D02*
X1385Y135D01*
X1466Y135D02*
X1485Y135D01*
X1566Y135D02*
X1585Y135D01*
X1666Y135D02*
X1685Y135D01*
X1766Y135D02*
X1785Y135D01*
X1866Y135D02*
X1885Y135D01*
X1966Y135D02*
X1985Y135D01*
X2066Y135D02*
X2085Y135D01*
X1364Y134D02*
X1387Y134D01*
X1464Y134D02*
X1487Y134D01*
X1564Y134D02*
X1587Y134D01*
X1664Y134D02*
X1687Y134D01*
X1764Y134D02*
X1787Y134D01*
X1864Y134D02*
X1887Y134D01*
X1964Y134D02*
X1987Y134D01*
X2064Y134D02*
X2087Y134D01*
X1363Y133D02*
X1389Y133D01*
X1463Y133D02*
X1489Y133D01*
X1563Y133D02*
X1589Y133D01*
X1663Y133D02*
X1689Y133D01*
X1763Y133D02*
X1789Y133D01*
X1862Y133D02*
X1889Y133D01*
X1962Y133D02*
X1989Y133D01*
X2062Y133D02*
X2088Y133D01*
X1361Y132D02*
X1390Y132D01*
X1461Y132D02*
X1490Y132D01*
X1561Y132D02*
X1590Y132D01*
X1661Y132D02*
X1690Y132D01*
X1761Y132D02*
X1790Y132D01*
X1861Y132D02*
X1890Y132D01*
X1961Y132D02*
X1990Y132D01*
X2061Y132D02*
X2090Y132D01*
X1360Y131D02*
X1391Y131D01*
X1460Y131D02*
X1491Y131D01*
X1560Y131D02*
X1591Y131D01*
X1660Y131D02*
X1691Y131D01*
X1760Y131D02*
X1791Y131D01*
X1860Y131D02*
X1891Y131D01*
X1960Y131D02*
X1991Y131D01*
X2060Y131D02*
X2091Y131D01*
X1359Y130D02*
X1393Y130D01*
X1459Y130D02*
X1493Y130D01*
X1559Y130D02*
X1593Y130D01*
X1659Y130D02*
X1693Y130D01*
X1759Y130D02*
X1793Y130D01*
X1859Y130D02*
X1893Y130D01*
X1958Y130D02*
X1992Y130D01*
X2058Y130D02*
X2092Y130D01*
X1358Y129D02*
X1394Y129D01*
X1458Y129D02*
X1494Y129D01*
X1558Y129D02*
X1594Y129D01*
X1657Y129D02*
X1694Y129D01*
X1757Y129D02*
X1794Y129D01*
X1857Y129D02*
X1894Y129D01*
X1957Y129D02*
X1994Y129D01*
X2057Y129D02*
X2094Y129D01*
X1357Y128D02*
X1395Y128D01*
X1457Y128D02*
X1495Y128D01*
X1557Y128D02*
X1595Y128D01*
X1657Y128D02*
X1694Y128D01*
X1757Y128D02*
X1794Y128D01*
X1857Y128D02*
X1894Y128D01*
X1957Y128D02*
X1994Y128D01*
X2057Y128D02*
X2094Y128D01*
X1356Y127D02*
X1395Y127D01*
X1456Y127D02*
X1495Y127D01*
X1556Y127D02*
X1595Y127D01*
X1656Y127D02*
X1695Y127D01*
X1756Y127D02*
X1795Y127D01*
X1856Y127D02*
X1895Y127D01*
X1956Y127D02*
X1995Y127D01*
X2056Y127D02*
X2095Y127D01*
X1355Y126D02*
X1396Y126D01*
X1455Y126D02*
X1496Y126D01*
X1555Y126D02*
X1596Y126D01*
X1655Y126D02*
X1696Y126D01*
X1755Y126D02*
X1796Y126D01*
X1855Y126D02*
X1896Y126D01*
X1955Y126D02*
X1996Y126D01*
X2055Y126D02*
X2096Y126D01*
X1354Y125D02*
X1397Y125D01*
X1454Y125D02*
X1497Y125D01*
X1554Y125D02*
X1597Y125D01*
X1654Y125D02*
X1697Y125D01*
X1754Y125D02*
X1797Y125D01*
X1854Y125D02*
X1897Y125D01*
X1954Y125D02*
X1997Y125D01*
X2054Y125D02*
X2097Y125D01*
X1354Y124D02*
X1397Y124D01*
X1454Y124D02*
X1497Y124D01*
X1554Y124D02*
X1597Y124D01*
X1654Y124D02*
X1697Y124D01*
X1754Y124D02*
X1797Y124D01*
X1854Y124D02*
X1897Y124D01*
X1954Y124D02*
X1997Y124D01*
X2054Y124D02*
X2097Y124D01*
X1353Y123D02*
X1398Y123D01*
X1453Y123D02*
X1498Y123D01*
X1553Y123D02*
X1598Y123D01*
X1653Y123D02*
X1698Y123D01*
X1753Y123D02*
X1798Y123D01*
X1853Y123D02*
X1898Y123D01*
X1953Y123D02*
X1998Y123D01*
X2053Y123D02*
X2098Y123D01*
X1353Y122D02*
X1399Y122D01*
X1453Y122D02*
X1499Y122D01*
X1553Y122D02*
X1599Y122D01*
X1653Y122D02*
X1698Y122D01*
X1753Y122D02*
X1798Y122D01*
X1853Y122D02*
X1898Y122D01*
X1953Y122D02*
X1998Y122D01*
X2053Y122D02*
X2098Y122D01*
X1352Y121D02*
X1399Y121D01*
X1452Y121D02*
X1499Y121D01*
X1552Y121D02*
X1599Y121D01*
X1652Y121D02*
X1699Y121D01*
X1752Y121D02*
X1799Y121D01*
X1852Y121D02*
X1899Y121D01*
X1952Y121D02*
X1999Y121D01*
X2052Y121D02*
X2099Y121D01*
X1352Y120D02*
X1399Y120D01*
X1452Y120D02*
X1499Y120D01*
X1552Y120D02*
X1599Y120D01*
X1652Y120D02*
X1699Y120D01*
X1752Y120D02*
X1799Y120D01*
X1852Y120D02*
X1899Y120D01*
X1952Y120D02*
X1999Y120D01*
X2052Y120D02*
X2099Y120D01*
X1351Y119D02*
X1400Y119D01*
X1451Y119D02*
X1500Y119D01*
X1551Y119D02*
X1600Y119D01*
X1651Y119D02*
X1700Y119D01*
X1751Y119D02*
X1800Y119D01*
X1851Y119D02*
X1900Y119D01*
X1951Y119D02*
X2000Y119D01*
X2051Y119D02*
X2100Y119D01*
X1351Y118D02*
X1400Y118D01*
X1451Y118D02*
X1500Y118D01*
X1551Y118D02*
X1600Y118D01*
X1651Y118D02*
X1700Y118D01*
X1751Y118D02*
X1800Y118D01*
X1851Y118D02*
X1900Y118D01*
X1951Y118D02*
X2000Y118D01*
X2051Y118D02*
X2100Y118D01*
X1351Y117D02*
X1400Y117D01*
X1451Y117D02*
X1500Y117D01*
X1551Y117D02*
X1600Y117D01*
X1651Y117D02*
X1700Y117D01*
X1751Y117D02*
X1800Y117D01*
X1851Y117D02*
X1900Y117D01*
X1951Y117D02*
X2000Y117D01*
X2051Y117D02*
X2100Y117D01*
X1351Y116D02*
X1401Y116D01*
X1451Y116D02*
X1501Y116D01*
X1551Y116D02*
X1601Y116D01*
X1651Y116D02*
X1701Y116D01*
X1751Y116D02*
X1801Y116D01*
X1851Y116D02*
X1901Y116D01*
X1951Y116D02*
X2000Y116D01*
X2050Y116D02*
X2100Y116D01*
X1351Y115D02*
X1401Y115D01*
X1450Y115D02*
X1501Y115D01*
X1550Y115D02*
X1601Y115D01*
X1650Y115D02*
X1701Y115D01*
X1750Y115D02*
X1801Y115D01*
X1850Y115D02*
X1901Y115D01*
X1950Y115D02*
X2001Y115D01*
X2050Y115D02*
X2101Y115D01*
X1350Y114D02*
X1401Y114D01*
X1450Y114D02*
X1501Y114D01*
X1550Y114D02*
X1601Y114D01*
X1650Y114D02*
X1701Y114D01*
X1750Y114D02*
X1801Y114D01*
X1850Y114D02*
X1901Y114D01*
X1950Y114D02*
X2001Y114D01*
X2050Y114D02*
X2101Y114D01*
X1350Y113D02*
X1401Y113D01*
X1450Y113D02*
X1501Y113D01*
X1550Y113D02*
X1601Y113D01*
X1650Y113D02*
X1701Y113D01*
X1750Y113D02*
X1801Y113D01*
X1850Y113D02*
X1901Y113D01*
X1950Y113D02*
X2001Y113D01*
X2050Y113D02*
X2101Y113D01*
X1350Y112D02*
X1401Y112D01*
X1450Y112D02*
X1501Y112D01*
X1550Y112D02*
X1601Y112D01*
X1650Y112D02*
X1701Y112D01*
X1750Y112D02*
X1801Y112D01*
X1850Y112D02*
X1901Y112D01*
X1950Y112D02*
X2001Y112D01*
X2050Y112D02*
X2101Y112D01*
X1350Y111D02*
X1401Y111D01*
X1450Y111D02*
X1501Y111D01*
X1550Y111D02*
X1601Y111D01*
X1650Y111D02*
X1701Y111D01*
X1750Y111D02*
X1801Y111D01*
X1850Y111D02*
X1901Y111D01*
X1950Y111D02*
X2001Y111D01*
X2050Y111D02*
X2101Y111D01*
X1350Y110D02*
X1401Y110D01*
X1450Y110D02*
X1501Y110D01*
X1550Y110D02*
X1601Y110D01*
X1650Y110D02*
X1701Y110D01*
X1750Y110D02*
X1801Y110D01*
X1850Y110D02*
X1901Y110D01*
X1950Y110D02*
X2001Y110D01*
X2050Y110D02*
X2101Y110D01*
X1350Y109D02*
X1401Y109D01*
X1450Y109D02*
X1501Y109D01*
X1550Y109D02*
X1601Y109D01*
X1650Y109D02*
X1701Y109D01*
X1750Y109D02*
X1801Y109D01*
X1850Y109D02*
X1901Y109D01*
X1950Y109D02*
X2001Y109D01*
X2050Y109D02*
X2101Y109D01*
X1350Y108D02*
X1401Y108D01*
X1450Y108D02*
X1501Y108D01*
X1550Y108D02*
X1601Y108D01*
X1650Y108D02*
X1701Y108D01*
X1750Y108D02*
X1801Y108D01*
X1850Y108D02*
X1901Y108D01*
X1950Y108D02*
X2001Y108D01*
X2050Y108D02*
X2101Y108D01*
X1350Y107D02*
X1401Y107D01*
X1450Y107D02*
X1501Y107D01*
X1550Y107D02*
X1601Y107D01*
X1650Y107D02*
X1701Y107D01*
X1750Y107D02*
X1801Y107D01*
X1850Y107D02*
X1901Y107D01*
X1950Y107D02*
X2001Y107D01*
X2050Y107D02*
X2101Y107D01*
X1350Y106D02*
X1401Y106D01*
X1450Y106D02*
X1501Y106D01*
X1550Y106D02*
X1601Y106D01*
X1650Y106D02*
X1701Y106D01*
X1750Y106D02*
X1801Y106D01*
X1850Y106D02*
X1901Y106D01*
X1950Y106D02*
X2001Y106D01*
X2050Y106D02*
X2101Y106D01*
X1350Y105D02*
X1401Y105D01*
X1450Y105D02*
X1501Y105D01*
X1550Y105D02*
X1601Y105D01*
X1650Y105D02*
X1701Y105D01*
X1750Y105D02*
X1801Y105D01*
X1850Y105D02*
X1901Y105D01*
X1950Y105D02*
X2001Y105D01*
X2050Y105D02*
X2101Y105D01*
X1350Y104D02*
X1401Y104D01*
X1450Y104D02*
X1501Y104D01*
X1550Y104D02*
X1601Y104D01*
X1650Y104D02*
X1701Y104D01*
X1750Y104D02*
X1801Y104D01*
X1850Y104D02*
X1901Y104D01*
X1950Y104D02*
X2001Y104D01*
X2050Y104D02*
X2101Y104D01*
X1350Y103D02*
X1401Y103D01*
X1450Y103D02*
X1501Y103D01*
X1550Y103D02*
X1601Y103D01*
X1650Y103D02*
X1701Y103D01*
X1750Y103D02*
X1801Y103D01*
X1850Y103D02*
X1901Y103D01*
X1950Y103D02*
X2001Y103D01*
X2050Y103D02*
X2101Y103D01*
X1350Y102D02*
X1401Y102D01*
X1450Y102D02*
X1501Y102D01*
X1550Y102D02*
X1601Y102D01*
X1650Y102D02*
X1701Y102D01*
X1750Y102D02*
X1801Y102D01*
X1850Y102D02*
X1901Y102D01*
X1950Y102D02*
X2001Y102D01*
X2050Y102D02*
X2101Y102D01*
X1350Y101D02*
X1401Y101D01*
X1450Y101D02*
X1501Y101D01*
X1550Y101D02*
X1601Y101D01*
X1650Y101D02*
X1701Y101D01*
X1750Y101D02*
X1801Y101D01*
X1850Y101D02*
X1901Y101D01*
X1950Y101D02*
X2001Y101D01*
X2050Y101D02*
X2101Y101D01*
X1350Y100D02*
X1370Y100D01*
X1381Y100D02*
X1401Y100D01*
X1450Y100D02*
X1470Y100D01*
X1481Y100D02*
X1501Y100D01*
X1550Y100D02*
X1570Y100D01*
X1581Y100D02*
X1601Y100D01*
X1650Y100D02*
X1670Y100D01*
X1681Y100D02*
X1701Y100D01*
X1750Y100D02*
X1770Y100D01*
X1781Y100D02*
X1801Y100D01*
X1850Y100D02*
X1870Y100D01*
X1881Y100D02*
X1901Y100D01*
X1950Y100D02*
X1970Y100D01*
X1981Y100D02*
X2001Y100D01*
X2050Y100D02*
X2070Y100D01*
X2081Y100D02*
X2101Y100D01*
X1350Y99D02*
X1368Y99D01*
X1384Y99D02*
X1401Y99D01*
X1450Y99D02*
X1468Y99D01*
X1484Y99D02*
X1501Y99D01*
X1550Y99D02*
X1568Y99D01*
X1584Y99D02*
X1601Y99D01*
X1650Y99D02*
X1668Y99D01*
X1683Y99D02*
X1701Y99D01*
X1750Y99D02*
X1768Y99D01*
X1783Y99D02*
X1801Y99D01*
X1850Y99D02*
X1868Y99D01*
X1883Y99D02*
X1901Y99D01*
X1950Y99D02*
X1968Y99D01*
X1983Y99D02*
X2001Y99D01*
X2050Y99D02*
X2068Y99D01*
X2083Y99D02*
X2101Y99D01*
X1350Y98D02*
X1366Y98D01*
X1385Y98D02*
X1401Y98D01*
X1450Y98D02*
X1466Y98D01*
X1485Y98D02*
X1501Y98D01*
X1550Y98D02*
X1566Y98D01*
X1585Y98D02*
X1601Y98D01*
X1650Y98D02*
X1666Y98D01*
X1685Y98D02*
X1701Y98D01*
X1750Y98D02*
X1766Y98D01*
X1785Y98D02*
X1801Y98D01*
X1850Y98D02*
X1866Y98D01*
X1885Y98D02*
X1901Y98D01*
X1950Y98D02*
X1966Y98D01*
X1985Y98D02*
X2001Y98D01*
X2050Y98D02*
X2066Y98D01*
X2085Y98D02*
X2101Y98D01*
X1350Y97D02*
X1365Y97D01*
X1387Y97D02*
X1401Y97D01*
X1450Y97D02*
X1465Y97D01*
X1486Y97D02*
X1501Y97D01*
X1550Y97D02*
X1565Y97D01*
X1586Y97D02*
X1601Y97D01*
X1650Y97D02*
X1665Y97D01*
X1686Y97D02*
X1701Y97D01*
X1750Y97D02*
X1765Y97D01*
X1786Y97D02*
X1801Y97D01*
X1850Y97D02*
X1865Y97D01*
X1886Y97D02*
X1901Y97D01*
X1950Y97D02*
X1965Y97D01*
X1986Y97D02*
X2001Y97D01*
X2050Y97D02*
X2065Y97D01*
X2086Y97D02*
X2101Y97D01*
X1350Y96D02*
X1364Y96D01*
X1388Y96D02*
X1401Y96D01*
X1450Y96D02*
X1464Y96D01*
X1488Y96D02*
X1501Y96D01*
X1550Y96D02*
X1564Y96D01*
X1588Y96D02*
X1601Y96D01*
X1650Y96D02*
X1664Y96D01*
X1688Y96D02*
X1701Y96D01*
X1750Y96D02*
X1764Y96D01*
X1788Y96D02*
X1801Y96D01*
X1850Y96D02*
X1864Y96D01*
X1887Y96D02*
X1901Y96D01*
X1950Y96D02*
X1964Y96D01*
X1987Y96D02*
X2001Y96D01*
X2050Y96D02*
X2063Y96D01*
X2087Y96D02*
X2101Y96D01*
X1350Y95D02*
X1363Y95D01*
X1388Y95D02*
X1401Y95D01*
X1450Y95D02*
X1463Y95D01*
X1488Y95D02*
X1501Y95D01*
X1550Y95D02*
X1563Y95D01*
X1588Y95D02*
X1601Y95D01*
X1650Y95D02*
X1663Y95D01*
X1688Y95D02*
X1701Y95D01*
X1750Y95D02*
X1763Y95D01*
X1788Y95D02*
X1801Y95D01*
X1850Y95D02*
X1863Y95D01*
X1888Y95D02*
X1901Y95D01*
X1950Y95D02*
X1963Y95D01*
X1988Y95D02*
X2001Y95D01*
X2050Y95D02*
X2063Y95D01*
X2088Y95D02*
X2101Y95D01*
X1350Y94D02*
X1362Y94D01*
X1389Y94D02*
X1401Y94D01*
X1450Y94D02*
X1462Y94D01*
X1489Y94D02*
X1501Y94D01*
X1550Y94D02*
X1562Y94D01*
X1589Y94D02*
X1601Y94D01*
X1650Y94D02*
X1662Y94D01*
X1689Y94D02*
X1701Y94D01*
X1750Y94D02*
X1762Y94D01*
X1789Y94D02*
X1801Y94D01*
X1850Y94D02*
X1862Y94D01*
X1889Y94D02*
X1901Y94D01*
X1950Y94D02*
X1962Y94D01*
X1989Y94D02*
X2001Y94D01*
X2050Y94D02*
X2062Y94D01*
X2089Y94D02*
X2101Y94D01*
X1350Y93D02*
X1361Y93D01*
X1390Y93D02*
X1401Y93D01*
X1450Y93D02*
X1461Y93D01*
X1490Y93D02*
X1501Y93D01*
X1550Y93D02*
X1561Y93D01*
X1590Y93D02*
X1601Y93D01*
X1650Y93D02*
X1661Y93D01*
X1690Y93D02*
X1701Y93D01*
X1750Y93D02*
X1761Y93D01*
X1790Y93D02*
X1801Y93D01*
X1850Y93D02*
X1861Y93D01*
X1890Y93D02*
X1901Y93D01*
X1950Y93D02*
X1961Y93D01*
X1990Y93D02*
X2001Y93D01*
X2050Y93D02*
X2061Y93D01*
X2090Y93D02*
X2101Y93D01*
X1350Y92D02*
X1361Y92D01*
X1390Y92D02*
X1401Y92D01*
X1450Y92D02*
X1461Y92D01*
X1490Y92D02*
X1501Y92D01*
X1550Y92D02*
X1561Y92D01*
X1590Y92D02*
X1601Y92D01*
X1650Y92D02*
X1661Y92D01*
X1690Y92D02*
X1701Y92D01*
X1750Y92D02*
X1761Y92D01*
X1790Y92D02*
X1801Y92D01*
X1850Y92D02*
X1861Y92D01*
X1890Y92D02*
X1901Y92D01*
X1950Y92D02*
X1961Y92D01*
X1990Y92D02*
X2001Y92D01*
X2050Y92D02*
X2061Y92D01*
X2090Y92D02*
X2101Y92D01*
X1350Y91D02*
X1360Y91D01*
X1391Y91D02*
X1401Y91D01*
X1450Y91D02*
X1460Y91D01*
X1491Y91D02*
X1501Y91D01*
X1550Y91D02*
X1560Y91D01*
X1591Y91D02*
X1601Y91D01*
X1650Y91D02*
X1660Y91D01*
X1691Y91D02*
X1701Y91D01*
X1750Y91D02*
X1760Y91D01*
X1791Y91D02*
X1801Y91D01*
X1850Y91D02*
X1860Y91D01*
X1891Y91D02*
X1901Y91D01*
X1950Y91D02*
X1960Y91D01*
X1991Y91D02*
X2001Y91D01*
X2050Y91D02*
X2060Y91D01*
X2091Y91D02*
X2101Y91D01*
X1350Y90D02*
X1360Y90D01*
X1391Y90D02*
X1401Y90D01*
X1450Y90D02*
X1460Y90D01*
X1491Y90D02*
X1501Y90D01*
X1550Y90D02*
X1560Y90D01*
X1591Y90D02*
X1601Y90D01*
X1650Y90D02*
X1660Y90D01*
X1691Y90D02*
X1701Y90D01*
X1750Y90D02*
X1760Y90D01*
X1791Y90D02*
X1801Y90D01*
X1850Y90D02*
X1860Y90D01*
X1891Y90D02*
X1901Y90D01*
X1950Y90D02*
X1960Y90D01*
X1991Y90D02*
X2001Y90D01*
X2050Y90D02*
X2060Y90D01*
X2091Y90D02*
X2101Y90D01*
X1350Y89D02*
X1360Y89D01*
X1392Y89D02*
X1401Y89D01*
X1450Y89D02*
X1460Y89D01*
X1492Y89D02*
X1501Y89D01*
X1550Y89D02*
X1560Y89D01*
X1591Y89D02*
X1601Y89D01*
X1650Y89D02*
X1660Y89D01*
X1691Y89D02*
X1701Y89D01*
X1750Y89D02*
X1760Y89D01*
X1791Y89D02*
X1801Y89D01*
X1850Y89D02*
X1860Y89D01*
X1891Y89D02*
X1901Y89D01*
X1950Y89D02*
X1960Y89D01*
X1991Y89D02*
X2001Y89D01*
X2050Y89D02*
X2060Y89D01*
X2091Y89D02*
X2101Y89D01*
X1350Y88D02*
X1359Y88D01*
X1392Y88D02*
X1401Y88D01*
X1450Y88D02*
X1459Y88D01*
X1492Y88D02*
X1501Y88D01*
X1550Y88D02*
X1559Y88D01*
X1592Y88D02*
X1601Y88D01*
X1650Y88D02*
X1659Y88D01*
X1692Y88D02*
X1701Y88D01*
X1750Y88D02*
X1759Y88D01*
X1792Y88D02*
X1801Y88D01*
X1850Y88D02*
X1859Y88D01*
X1892Y88D02*
X1901Y88D01*
X1950Y88D02*
X1959Y88D01*
X1992Y88D02*
X2001Y88D01*
X2050Y88D02*
X2059Y88D01*
X2092Y88D02*
X2101Y88D01*
X1350Y87D02*
X1359Y87D01*
X1392Y87D02*
X1401Y87D01*
X1450Y87D02*
X1459Y87D01*
X1492Y87D02*
X1501Y87D01*
X1550Y87D02*
X1559Y87D01*
X1592Y87D02*
X1601Y87D01*
X1650Y87D02*
X1659Y87D01*
X1692Y87D02*
X1701Y87D01*
X1750Y87D02*
X1759Y87D01*
X1792Y87D02*
X1801Y87D01*
X1850Y87D02*
X1859Y87D01*
X1892Y87D02*
X1901Y87D01*
X1950Y87D02*
X1959Y87D01*
X1992Y87D02*
X2001Y87D01*
X2050Y87D02*
X2059Y87D01*
X2092Y87D02*
X2101Y87D01*
X1350Y86D02*
X1359Y86D01*
X1392Y86D02*
X1401Y86D01*
X1450Y86D02*
X1459Y86D01*
X1492Y86D02*
X1501Y86D01*
X1550Y86D02*
X1559Y86D01*
X1592Y86D02*
X1601Y86D01*
X1650Y86D02*
X1659Y86D01*
X1692Y86D02*
X1701Y86D01*
X1750Y86D02*
X1759Y86D01*
X1792Y86D02*
X1801Y86D01*
X1850Y86D02*
X1859Y86D01*
X1892Y86D02*
X1901Y86D01*
X1950Y86D02*
X1959Y86D01*
X1992Y86D02*
X2001Y86D01*
X2050Y86D02*
X2059Y86D01*
X2092Y86D02*
X2101Y86D01*
X1350Y85D02*
X1359Y85D01*
X1392Y85D02*
X1401Y85D01*
X1450Y85D02*
X1459Y85D01*
X1492Y85D02*
X1501Y85D01*
X1550Y85D02*
X1559Y85D01*
X1592Y85D02*
X1601Y85D01*
X1650Y85D02*
X1659Y85D01*
X1692Y85D02*
X1701Y85D01*
X1750Y85D02*
X1759Y85D01*
X1792Y85D02*
X1801Y85D01*
X1850Y85D02*
X1859Y85D01*
X1892Y85D02*
X1901Y85D01*
X1950Y85D02*
X1959Y85D01*
X1992Y85D02*
X2001Y85D01*
X2050Y85D02*
X2059Y85D01*
X2092Y85D02*
X2101Y85D01*
X1350Y84D02*
X1359Y84D01*
X1392Y84D02*
X1401Y84D01*
X1450Y84D02*
X1459Y84D01*
X1492Y84D02*
X1501Y84D01*
X1550Y84D02*
X1559Y84D01*
X1592Y84D02*
X1601Y84D01*
X1650Y84D02*
X1659Y84D01*
X1692Y84D02*
X1701Y84D01*
X1750Y84D02*
X1759Y84D01*
X1792Y84D02*
X1801Y84D01*
X1850Y84D02*
X1859Y84D01*
X1892Y84D02*
X1901Y84D01*
X1950Y84D02*
X1959Y84D01*
X1992Y84D02*
X2001Y84D01*
X2050Y84D02*
X2059Y84D01*
X2092Y84D02*
X2101Y84D01*
X1350Y83D02*
X1359Y83D01*
X1392Y83D02*
X1401Y83D01*
X1450Y83D02*
X1459Y83D01*
X1492Y83D02*
X1501Y83D01*
X1550Y83D02*
X1559Y83D01*
X1592Y83D02*
X1601Y83D01*
X1650Y83D02*
X1659Y83D01*
X1692Y83D02*
X1701Y83D01*
X1750Y83D02*
X1759Y83D01*
X1792Y83D02*
X1801Y83D01*
X1850Y83D02*
X1859Y83D01*
X1892Y83D02*
X1901Y83D01*
X1950Y83D02*
X1959Y83D01*
X1992Y83D02*
X2001Y83D01*
X2050Y83D02*
X2059Y83D01*
X2092Y83D02*
X2101Y83D01*
X1350Y82D02*
X1359Y82D01*
X1392Y82D02*
X1401Y82D01*
X1450Y82D02*
X1459Y82D01*
X1492Y82D02*
X1501Y82D01*
X1550Y82D02*
X1559Y82D01*
X1592Y82D02*
X1601Y82D01*
X1650Y82D02*
X1659Y82D01*
X1692Y82D02*
X1701Y82D01*
X1750Y82D02*
X1759Y82D01*
X1792Y82D02*
X1801Y82D01*
X1850Y82D02*
X1859Y82D01*
X1892Y82D02*
X1901Y82D01*
X1950Y82D02*
X1959Y82D01*
X1992Y82D02*
X2001Y82D01*
X2050Y82D02*
X2059Y82D01*
X2092Y82D02*
X2101Y82D01*
X1350Y81D02*
X1360Y81D01*
X1392Y81D02*
X1401Y81D01*
X1450Y81D02*
X1460Y81D01*
X1492Y81D02*
X1501Y81D01*
X1550Y81D02*
X1560Y81D01*
X1592Y81D02*
X1601Y81D01*
X1650Y81D02*
X1660Y81D01*
X1692Y81D02*
X1701Y81D01*
X1750Y81D02*
X1760Y81D01*
X1792Y81D02*
X1801Y81D01*
X1850Y81D02*
X1860Y81D01*
X1891Y81D02*
X1901Y81D01*
X1950Y81D02*
X1960Y81D01*
X1991Y81D02*
X2001Y81D01*
X2050Y81D02*
X2060Y81D01*
X2091Y81D02*
X2101Y81D01*
X1350Y80D02*
X1360Y80D01*
X1391Y80D02*
X1401Y80D01*
X1450Y80D02*
X1460Y80D01*
X1491Y80D02*
X1501Y80D01*
X1550Y80D02*
X1560Y80D01*
X1591Y80D02*
X1601Y80D01*
X1650Y80D02*
X1660Y80D01*
X1691Y80D02*
X1701Y80D01*
X1750Y80D02*
X1760Y80D01*
X1791Y80D02*
X1801Y80D01*
X1850Y80D02*
X1860Y80D01*
X1891Y80D02*
X1901Y80D01*
X1950Y80D02*
X1960Y80D01*
X1991Y80D02*
X2001Y80D01*
X2050Y80D02*
X2060Y80D01*
X2091Y80D02*
X2101Y80D01*
X1350Y79D02*
X1360Y79D01*
X1391Y79D02*
X1401Y79D01*
X1450Y79D02*
X1460Y79D01*
X1491Y79D02*
X1501Y79D01*
X1550Y79D02*
X1560Y79D01*
X1591Y79D02*
X1601Y79D01*
X1650Y79D02*
X1660Y79D01*
X1691Y79D02*
X1701Y79D01*
X1750Y79D02*
X1760Y79D01*
X1791Y79D02*
X1801Y79D01*
X1850Y79D02*
X1860Y79D01*
X1891Y79D02*
X1901Y79D01*
X1950Y79D02*
X1960Y79D01*
X1991Y79D02*
X2001Y79D01*
X2050Y79D02*
X2060Y79D01*
X2091Y79D02*
X2101Y79D01*
X1350Y78D02*
X1361Y78D01*
X1391Y78D02*
X1401Y78D01*
X1450Y78D02*
X1461Y78D01*
X1490Y78D02*
X1501Y78D01*
X1550Y78D02*
X1561Y78D01*
X1590Y78D02*
X1601Y78D01*
X1650Y78D02*
X1661Y78D01*
X1690Y78D02*
X1701Y78D01*
X1750Y78D02*
X1761Y78D01*
X1790Y78D02*
X1801Y78D01*
X1850Y78D02*
X1861Y78D01*
X1890Y78D02*
X1901Y78D01*
X1950Y78D02*
X1961Y78D01*
X1990Y78D02*
X2001Y78D01*
X2050Y78D02*
X2061Y78D01*
X2090Y78D02*
X2101Y78D01*
X1350Y77D02*
X1361Y77D01*
X1390Y77D02*
X1401Y77D01*
X1450Y77D02*
X1461Y77D01*
X1490Y77D02*
X1501Y77D01*
X1550Y77D02*
X1561Y77D01*
X1590Y77D02*
X1601Y77D01*
X1650Y77D02*
X1661Y77D01*
X1690Y77D02*
X1701Y77D01*
X1750Y77D02*
X1761Y77D01*
X1790Y77D02*
X1801Y77D01*
X1850Y77D02*
X1861Y77D01*
X1890Y77D02*
X1901Y77D01*
X1950Y77D02*
X1961Y77D01*
X1990Y77D02*
X2001Y77D01*
X2050Y77D02*
X2061Y77D01*
X2090Y77D02*
X2101Y77D01*
X1350Y76D02*
X1362Y76D01*
X1389Y76D02*
X1401Y76D01*
X1450Y76D02*
X1462Y76D01*
X1489Y76D02*
X1501Y76D01*
X1550Y76D02*
X1562Y76D01*
X1589Y76D02*
X1601Y76D01*
X1650Y76D02*
X1662Y76D01*
X1689Y76D02*
X1701Y76D01*
X1750Y76D02*
X1762Y76D01*
X1789Y76D02*
X1801Y76D01*
X1850Y76D02*
X1862Y76D01*
X1889Y76D02*
X1901Y76D01*
X1950Y76D02*
X1962Y76D01*
X1989Y76D02*
X2001Y76D01*
X2050Y76D02*
X2062Y76D01*
X2089Y76D02*
X2101Y76D01*
X1350Y75D02*
X1363Y75D01*
X1389Y75D02*
X1401Y75D01*
X1450Y75D02*
X1463Y75D01*
X1489Y75D02*
X1501Y75D01*
X1550Y75D02*
X1563Y75D01*
X1589Y75D02*
X1601Y75D01*
X1650Y75D02*
X1663Y75D01*
X1689Y75D02*
X1701Y75D01*
X1750Y75D02*
X1763Y75D01*
X1789Y75D02*
X1801Y75D01*
X1850Y75D02*
X1863Y75D01*
X1888Y75D02*
X1901Y75D01*
X1950Y75D02*
X1963Y75D01*
X1988Y75D02*
X2001Y75D01*
X2050Y75D02*
X2063Y75D01*
X2088Y75D02*
X2101Y75D01*
X1350Y74D02*
X1364Y74D01*
X1388Y74D02*
X1401Y74D01*
X1450Y74D02*
X1463Y74D01*
X1488Y74D02*
X1501Y74D01*
X1550Y74D02*
X1563Y74D01*
X1588Y74D02*
X1601Y74D01*
X1650Y74D02*
X1663Y74D01*
X1688Y74D02*
X1701Y74D01*
X1750Y74D02*
X1763Y74D01*
X1788Y74D02*
X1801Y74D01*
X1850Y74D02*
X1863Y74D01*
X1888Y74D02*
X1901Y74D01*
X1950Y74D02*
X1963Y74D01*
X1988Y74D02*
X2001Y74D01*
X2050Y74D02*
X2063Y74D01*
X2088Y74D02*
X2101Y74D01*
X1350Y73D02*
X1365Y73D01*
X1387Y73D02*
X1401Y73D01*
X1450Y73D02*
X1465Y73D01*
X1487Y73D02*
X1501Y73D01*
X1550Y73D02*
X1565Y73D01*
X1587Y73D02*
X1601Y73D01*
X1650Y73D02*
X1665Y73D01*
X1687Y73D02*
X1701Y73D01*
X1750Y73D02*
X1764Y73D01*
X1787Y73D02*
X1801Y73D01*
X1850Y73D02*
X1864Y73D01*
X1887Y73D02*
X1901Y73D01*
X1950Y73D02*
X1964Y73D01*
X1987Y73D02*
X2001Y73D01*
X2050Y73D02*
X2064Y73D01*
X2087Y73D02*
X2101Y73D01*
X1350Y72D02*
X1366Y72D01*
X1386Y72D02*
X1401Y72D01*
X1450Y72D02*
X1466Y72D01*
X1485Y72D02*
X1501Y72D01*
X1550Y72D02*
X1566Y72D01*
X1585Y72D02*
X1601Y72D01*
X1650Y72D02*
X1666Y72D01*
X1685Y72D02*
X1701Y72D01*
X1750Y72D02*
X1766Y72D01*
X1785Y72D02*
X1801Y72D01*
X1850Y72D02*
X1866Y72D01*
X1885Y72D02*
X1901Y72D01*
X1950Y72D02*
X1966Y72D01*
X1985Y72D02*
X2001Y72D01*
X2050Y72D02*
X2066Y72D01*
X2085Y72D02*
X2101Y72D01*
X1350Y71D02*
X1367Y71D01*
X1384Y71D02*
X1401Y71D01*
X1450Y71D02*
X1467Y71D01*
X1484Y71D02*
X1501Y71D01*
X1550Y71D02*
X1567Y71D01*
X1584Y71D02*
X1601Y71D01*
X1650Y71D02*
X1667Y71D01*
X1684Y71D02*
X1701Y71D01*
X1750Y71D02*
X1767Y71D01*
X1784Y71D02*
X1801Y71D01*
X1850Y71D02*
X1867Y71D01*
X1884Y71D02*
X1901Y71D01*
X1950Y71D02*
X1967Y71D01*
X1984Y71D02*
X2001Y71D01*
X2050Y71D02*
X2067Y71D01*
X2084Y71D02*
X2101Y71D01*
X1350Y70D02*
X1370Y70D01*
X1382Y70D02*
X1401Y70D01*
X1450Y70D02*
X1470Y70D01*
X1482Y70D02*
X1501Y70D01*
X1550Y70D02*
X1569Y70D01*
X1582Y70D02*
X1601Y70D01*
X1650Y70D02*
X1669Y70D01*
X1682Y70D02*
X1701Y70D01*
X1750Y70D02*
X1769Y70D01*
X1782Y70D02*
X1801Y70D01*
X1850Y70D02*
X1869Y70D01*
X1882Y70D02*
X1901Y70D01*
X1950Y70D02*
X1969Y70D01*
X1982Y70D02*
X2001Y70D01*
X2050Y70D02*
X2069Y70D01*
X2082Y70D02*
X2101Y70D01*
X1350Y69D02*
X1374Y69D01*
X1377Y69D02*
X1401Y69D01*
X1450Y69D02*
X1474Y69D01*
X1477Y69D02*
X1501Y69D01*
X1550Y69D02*
X1574Y69D01*
X1577Y69D02*
X1601Y69D01*
X1650Y69D02*
X1674Y69D01*
X1677Y69D02*
X1701Y69D01*
X1750Y69D02*
X1774Y69D01*
X1777Y69D02*
X1801Y69D01*
X1850Y69D02*
X1874Y69D01*
X1877Y69D02*
X1901Y69D01*
X1950Y69D02*
X1974Y69D01*
X1977Y69D02*
X2001Y69D01*
X2050Y69D02*
X2074Y69D01*
X2077Y69D02*
X2101Y69D01*
X1350Y68D02*
X1401Y68D01*
X1450Y68D02*
X1501Y68D01*
X1550Y68D02*
X1601Y68D01*
X1650Y68D02*
X1701Y68D01*
X1750Y68D02*
X1801Y68D01*
X1850Y68D02*
X1901Y68D01*
X1950Y68D02*
X2001Y68D01*
X2050Y68D02*
X2101Y68D01*
X1350Y67D02*
X1401Y67D01*
X1450Y67D02*
X1501Y67D01*
X1550Y67D02*
X1601Y67D01*
X1650Y67D02*
X1701Y67D01*
X1750Y67D02*
X1801Y67D01*
X1850Y67D02*
X1901Y67D01*
X1950Y67D02*
X2001Y67D01*
X2050Y67D02*
X2101Y67D01*
X1350Y66D02*
X1401Y66D01*
X1450Y66D02*
X1501Y66D01*
X1550Y66D02*
X1601Y66D01*
X1650Y66D02*
X1701Y66D01*
X1750Y66D02*
X1801Y66D01*
X1850Y66D02*
X1901Y66D01*
X1950Y66D02*
X2001Y66D01*
X2050Y66D02*
X2101Y66D01*
X1350Y65D02*
X1401Y65D01*
X1450Y65D02*
X1501Y65D01*
X1550Y65D02*
X1601Y65D01*
X1650Y65D02*
X1701Y65D01*
X1750Y65D02*
X1801Y65D01*
X1850Y65D02*
X1901Y65D01*
X1950Y65D02*
X2001Y65D01*
X2050Y65D02*
X2101Y65D01*
X1350Y64D02*
X1401Y64D01*
X1450Y64D02*
X1501Y64D01*
X1550Y64D02*
X1601Y64D01*
X1650Y64D02*
X1701Y64D01*
X1750Y64D02*
X1801Y64D01*
X1850Y64D02*
X1901Y64D01*
X1950Y64D02*
X2001Y64D01*
X2050Y64D02*
X2101Y64D01*
X1350Y63D02*
X1401Y63D01*
X1450Y63D02*
X1501Y63D01*
X1550Y63D02*
X1601Y63D01*
X1650Y63D02*
X1701Y63D01*
X1750Y63D02*
X1801Y63D01*
X1850Y63D02*
X1901Y63D01*
X1950Y63D02*
X2001Y63D01*
X2050Y63D02*
X2101Y63D01*
X1350Y62D02*
X1401Y62D01*
X1450Y62D02*
X1501Y62D01*
X1550Y62D02*
X1601Y62D01*
X1650Y62D02*
X1701Y62D01*
X1750Y62D02*
X1801Y62D01*
X1850Y62D02*
X1901Y62D01*
X1950Y62D02*
X2001Y62D01*
X2050Y62D02*
X2101Y62D01*
X1350Y61D02*
X1401Y61D01*
X1450Y61D02*
X1501Y61D01*
X1550Y61D02*
X1601Y61D01*
X1650Y61D02*
X1701Y61D01*
X1750Y61D02*
X1801Y61D01*
X1850Y61D02*
X1901Y61D01*
X1950Y61D02*
X2001Y61D01*
X2050Y61D02*
X2101Y61D01*
X1350Y60D02*
X1401Y60D01*
X1450Y60D02*
X1501Y60D01*
X1550Y60D02*
X1601Y60D01*
X1650Y60D02*
X1701Y60D01*
X1750Y60D02*
X1801Y60D01*
X1850Y60D02*
X1901Y60D01*
X1950Y60D02*
X2001Y60D01*
X2050Y60D02*
X2101Y60D01*
X1350Y59D02*
X1401Y59D01*
X1450Y59D02*
X1501Y59D01*
X1550Y59D02*
X1601Y59D01*
X1650Y59D02*
X1701Y59D01*
X1750Y59D02*
X1801Y59D01*
X1850Y59D02*
X1901Y59D01*
X1950Y59D02*
X2001Y59D01*
X2050Y59D02*
X2101Y59D01*
X1350Y58D02*
X1401Y58D01*
X1450Y58D02*
X1501Y58D01*
X1550Y58D02*
X1601Y58D01*
X1650Y58D02*
X1701Y58D01*
X1750Y58D02*
X1801Y58D01*
X1850Y58D02*
X1901Y58D01*
X1950Y58D02*
X2001Y58D01*
X2050Y58D02*
X2101Y58D01*
X1350Y57D02*
X1401Y57D01*
X1450Y57D02*
X1501Y57D01*
X1550Y57D02*
X1601Y57D01*
X1650Y57D02*
X1701Y57D01*
X1750Y57D02*
X1801Y57D01*
X1850Y57D02*
X1901Y57D01*
X1950Y57D02*
X2001Y57D01*
X2050Y57D02*
X2101Y57D01*
X1350Y56D02*
X1401Y56D01*
X1450Y56D02*
X1501Y56D01*
X1550Y56D02*
X1601Y56D01*
X1650Y56D02*
X1701Y56D01*
X1750Y56D02*
X1801Y56D01*
X1850Y56D02*
X1901Y56D01*
X1950Y56D02*
X2001Y56D01*
X2050Y56D02*
X2101Y56D01*
X1350Y55D02*
X1401Y55D01*
X1450Y55D02*
X1501Y55D01*
X1550Y55D02*
X1601Y55D01*
X1650Y55D02*
X1701Y55D01*
X1750Y55D02*
X1801Y55D01*
X1850Y55D02*
X1901Y55D01*
X1950Y55D02*
X2001Y55D01*
X2050Y55D02*
X2101Y55D01*
X1351Y54D02*
X1401Y54D01*
X1451Y54D02*
X1501Y54D01*
X1551Y54D02*
X1601Y54D01*
X1651Y54D02*
X1701Y54D01*
X1751Y54D02*
X1801Y54D01*
X1850Y54D02*
X1901Y54D01*
X1950Y54D02*
X2000Y54D01*
X2050Y54D02*
X2100Y54D01*
X1351Y53D02*
X1400Y53D01*
X1451Y53D02*
X1500Y53D01*
X1551Y53D02*
X1600Y53D01*
X1651Y53D02*
X1700Y53D01*
X1751Y53D02*
X1800Y53D01*
X1851Y53D02*
X1900Y53D01*
X1951Y53D02*
X2000Y53D01*
X2051Y53D02*
X2100Y53D01*
X1351Y52D02*
X1400Y52D01*
X1451Y52D02*
X1500Y52D01*
X1551Y52D02*
X1600Y52D01*
X1651Y52D02*
X1700Y52D01*
X1751Y52D02*
X1800Y52D01*
X1851Y52D02*
X1900Y52D01*
X1951Y52D02*
X2000Y52D01*
X2051Y52D02*
X2100Y52D01*
X1351Y51D02*
X1400Y51D01*
X1451Y51D02*
X1500Y51D01*
X1551Y51D02*
X1600Y51D01*
X1651Y51D02*
X1700Y51D01*
X1751Y51D02*
X1800Y51D01*
X1851Y51D02*
X1900Y51D01*
X1951Y51D02*
X2000Y51D01*
X2051Y51D02*
X2100Y51D01*
X1352Y50D02*
X1400Y50D01*
X1452Y50D02*
X1500Y50D01*
X1552Y50D02*
X1599Y50D01*
X1652Y50D02*
X1699Y50D01*
X1752Y50D02*
X1799Y50D01*
X1852Y50D02*
X1899Y50D01*
X1952Y50D02*
X1999Y50D01*
X2052Y50D02*
X2099Y50D01*
X1352Y49D02*
X1399Y49D01*
X1452Y49D02*
X1499Y49D01*
X1552Y49D02*
X1599Y49D01*
X1652Y49D02*
X1699Y49D01*
X1752Y49D02*
X1799Y49D01*
X1852Y49D02*
X1899Y49D01*
X1952Y49D02*
X1999Y49D01*
X2052Y49D02*
X2099Y49D01*
X1353Y48D02*
X1399Y48D01*
X1453Y48D02*
X1499Y48D01*
X1553Y48D02*
X1599Y48D01*
X1653Y48D02*
X1699Y48D01*
X1753Y48D02*
X1799Y48D01*
X1853Y48D02*
X1899Y48D01*
X1952Y48D02*
X1998Y48D01*
X2052Y48D02*
X2098Y48D01*
X1353Y47D02*
X1398Y47D01*
X1453Y47D02*
X1498Y47D01*
X1553Y47D02*
X1598Y47D01*
X1653Y47D02*
X1698Y47D01*
X1753Y47D02*
X1798Y47D01*
X1853Y47D02*
X1898Y47D01*
X1953Y47D02*
X1998Y47D01*
X2053Y47D02*
X2098Y47D01*
X1354Y46D02*
X1398Y46D01*
X1454Y46D02*
X1498Y46D01*
X1554Y46D02*
X1598Y46D01*
X1654Y46D02*
X1697Y46D01*
X1754Y46D02*
X1797Y46D01*
X1854Y46D02*
X1897Y46D01*
X1954Y46D02*
X1997Y46D01*
X2054Y46D02*
X2097Y46D01*
X1354Y45D02*
X1397Y45D01*
X1454Y45D02*
X1497Y45D01*
X1554Y45D02*
X1597Y45D01*
X1654Y45D02*
X1697Y45D01*
X1754Y45D02*
X1797Y45D01*
X1854Y45D02*
X1897Y45D01*
X1954Y45D02*
X1997Y45D01*
X2054Y45D02*
X2097Y45D01*
X1355Y44D02*
X1396Y44D01*
X1455Y44D02*
X1496Y44D01*
X1555Y44D02*
X1596Y44D01*
X1655Y44D02*
X1696Y44D01*
X1755Y44D02*
X1796Y44D01*
X1855Y44D02*
X1896Y44D01*
X1955Y44D02*
X1996Y44D01*
X2055Y44D02*
X2096Y44D01*
X1356Y43D02*
X1396Y43D01*
X1456Y43D02*
X1496Y43D01*
X1556Y43D02*
X1595Y43D01*
X1656Y43D02*
X1695Y43D01*
X1756Y43D02*
X1795Y43D01*
X1856Y43D02*
X1895Y43D01*
X1956Y43D02*
X1995Y43D01*
X2056Y43D02*
X2095Y43D01*
X1357Y42D02*
X1395Y42D01*
X1457Y42D02*
X1495Y42D01*
X1557Y42D02*
X1595Y42D01*
X1656Y42D02*
X1695Y42D01*
X1756Y42D02*
X1795Y42D01*
X1856Y42D02*
X1895Y42D01*
X1956Y42D02*
X1995Y42D01*
X2056Y42D02*
X2095Y42D01*
X1357Y41D02*
X1394Y41D01*
X1457Y41D02*
X1494Y41D01*
X1557Y41D02*
X1594Y41D01*
X1657Y41D02*
X1694Y41D01*
X1757Y41D02*
X1794Y41D01*
X1857Y41D02*
X1894Y41D01*
X1957Y41D02*
X1994Y41D01*
X2057Y41D02*
X2094Y41D01*
X1358Y40D02*
X1393Y40D01*
X1458Y40D02*
X1493Y40D01*
X1558Y40D02*
X1593Y40D01*
X1658Y40D02*
X1693Y40D01*
X1758Y40D02*
X1793Y40D01*
X1858Y40D02*
X1893Y40D01*
X1958Y40D02*
X1993Y40D01*
X2058Y40D02*
X2093Y40D01*
X1360Y39D02*
X1392Y39D01*
X1460Y39D02*
X1492Y39D01*
X1560Y39D02*
X1592Y39D01*
X1660Y39D02*
X1692Y39D01*
X1760Y39D02*
X1792Y39D01*
X1860Y39D02*
X1891Y39D01*
X1959Y39D02*
X1991Y39D01*
X2059Y39D02*
X2091Y39D01*
X1361Y38D02*
X1390Y38D01*
X1461Y38D02*
X1490Y38D01*
X1561Y38D02*
X1590Y38D01*
X1661Y38D02*
X1690Y38D01*
X1761Y38D02*
X1790Y38D01*
X1861Y38D02*
X1890Y38D01*
X1961Y38D02*
X1990Y38D01*
X2061Y38D02*
X2090Y38D01*
X1362Y37D02*
X1389Y37D01*
X1462Y37D02*
X1489Y37D01*
X1562Y37D02*
X1589Y37D01*
X1662Y37D02*
X1689Y37D01*
X1762Y37D02*
X1789Y37D01*
X1862Y37D02*
X1889Y37D01*
X1962Y37D02*
X1989Y37D01*
X2062Y37D02*
X2089Y37D01*
X1364Y36D02*
X1387Y36D01*
X1464Y36D02*
X1487Y36D01*
X1564Y36D02*
X1587Y36D01*
X1664Y36D02*
X1687Y36D01*
X1764Y36D02*
X1787Y36D01*
X1864Y36D02*
X1887Y36D01*
X1964Y36D02*
X1987Y36D01*
X2064Y36D02*
X2087Y36D01*
X1366Y35D02*
X1385Y35D01*
X1466Y35D02*
X1485Y35D01*
X1566Y35D02*
X1585Y35D01*
X1666Y35D02*
X1685Y35D01*
X1766Y35D02*
X1785Y35D01*
X1866Y35D02*
X1885Y35D01*
X1966Y35D02*
X1985Y35D01*
X2066Y35D02*
X2085Y35D01*
X1369Y34D02*
X1382Y34D01*
X1469Y34D02*
X1482Y34D01*
X1569Y34D02*
X1582Y34D01*
X1669Y34D02*
X1682Y34D01*
X1769Y34D02*
X1782Y34D01*
X1869Y34D02*
X1882Y34D01*
X1969Y34D02*
X1982Y34D01*
X2069Y34D02*
X2082Y34D01*
X1375Y33D02*
X1376Y33D01*
X1475Y33D02*
X1476Y33D01*
X1575Y33D02*
X1576Y33D01*
X1675Y33D02*
X1676Y33D01*
X1775Y33D02*
X1776Y33D01*
X1875Y33D02*
X1876Y33D01*
X1975Y33D02*
X1976Y33D01*
X2075Y33D02*
X2076Y33D01*
D02*
G04 End of Copper1*
M02*