G04 MADE WITH FRITZING*
G04 WWW.FRITZING.ORG*
G04 DOUBLE SIDED*
G04 HOLES PLATED*
G04 CONTOUR ON CENTER OF CONTOUR VECTOR*
%ASAXBY*%
%FSLAX23Y23*%
%MOIN*%
%OFA0B0*%
%SFA1.0B1.0*%
%ADD10C,0.074000*%
%ADD11C,0.075000*%
%ADD12C,0.082000*%
%ADD13C,0.070925*%
%ADD14C,0.070866*%
%ADD15C,0.078000*%
%ADD16C,0.039370*%
%ADD17R,0.074000X0.074000*%
%ADD18R,0.075000X0.075000*%
%ADD19R,0.082000X0.082000*%
%ADD20C,0.024000*%
%ADD21C,0.012000*%
%ADD22C,0.008000*%
%LNCOPPER1*%
G90*
G70*
G54D10*
X2648Y186D03*
X2548Y186D03*
X2448Y186D03*
X2348Y186D03*
X2248Y186D03*
X2148Y186D03*
X2048Y186D03*
X1948Y186D03*
X1848Y186D03*
X1748Y186D03*
X1648Y186D03*
X1548Y186D03*
X1448Y186D03*
X2648Y286D03*
X2548Y286D03*
X2448Y286D03*
X2348Y286D03*
X2248Y286D03*
X2148Y286D03*
X2048Y286D03*
X1948Y286D03*
X1848Y286D03*
X1748Y286D03*
X1648Y286D03*
X1548Y286D03*
X1448Y286D03*
X1448Y761D03*
X1548Y761D03*
X1648Y761D03*
X1748Y761D03*
X1848Y761D03*
X1948Y761D03*
X2048Y761D03*
X2148Y761D03*
X2248Y761D03*
X2348Y761D03*
X2448Y761D03*
X2548Y761D03*
X2648Y761D03*
X1448Y661D03*
X1548Y661D03*
X1648Y661D03*
X1748Y661D03*
X1848Y661D03*
X1948Y661D03*
X2048Y661D03*
X2148Y661D03*
X2248Y661D03*
X2348Y661D03*
X2448Y661D03*
X2548Y661D03*
X2648Y661D03*
G54D11*
X1398Y1761D03*
X1398Y2061D03*
X1498Y1761D03*
X1498Y2061D03*
X1598Y1761D03*
X1598Y2061D03*
X1698Y1761D03*
X1698Y2061D03*
X1798Y1761D03*
X1798Y2061D03*
X1898Y1761D03*
X1898Y2061D03*
X1998Y1761D03*
X1998Y2061D03*
X2098Y1761D03*
X2098Y2061D03*
X2198Y1761D03*
X2198Y2061D03*
X2298Y1761D03*
X2298Y2061D03*
X2398Y1761D03*
X2398Y2061D03*
X2498Y1761D03*
X2498Y2061D03*
X2598Y1761D03*
X2598Y2061D03*
X2698Y1761D03*
X2698Y2061D03*
X2646Y2859D03*
X2646Y2259D03*
X2546Y2859D03*
X2546Y2259D03*
X2446Y2859D03*
X2446Y2259D03*
X2346Y2859D03*
X2346Y2259D03*
X2246Y2859D03*
X2246Y2259D03*
X2146Y2859D03*
X2146Y2259D03*
X2046Y2859D03*
X2046Y2259D03*
X1946Y2859D03*
X1946Y2259D03*
X1846Y2859D03*
X1846Y2259D03*
X1746Y2859D03*
X1746Y2259D03*
X1646Y2859D03*
X1646Y2259D03*
X1546Y2859D03*
X1546Y2259D03*
X148Y1011D03*
X148Y1611D03*
X248Y1011D03*
X248Y1611D03*
X348Y1011D03*
X348Y1611D03*
X448Y1011D03*
X448Y1611D03*
X548Y1011D03*
X548Y1611D03*
X648Y1011D03*
X648Y1611D03*
X748Y1011D03*
X748Y1611D03*
X848Y1011D03*
X848Y1611D03*
X948Y1011D03*
X948Y1611D03*
X1048Y1011D03*
X1048Y1611D03*
X1148Y1011D03*
X1148Y1611D03*
X1248Y1011D03*
X1248Y1611D03*
G54D12*
X223Y2561D03*
X223Y2661D03*
X223Y2761D03*
G54D13*
X2241Y1561D03*
G54D14*
X2048Y1561D03*
G54D11*
X1898Y1011D03*
X1898Y1311D03*
X1998Y1011D03*
X1998Y1311D03*
X2098Y1011D03*
X2098Y1311D03*
X2198Y1011D03*
X2198Y1311D03*
X2298Y1011D03*
X2298Y1311D03*
X2398Y1011D03*
X2398Y1311D03*
X2498Y1011D03*
X2498Y1311D03*
X2598Y1011D03*
X2598Y1311D03*
X773Y2684D03*
X517Y2684D03*
X773Y2861D03*
X517Y2861D03*
X1298Y2682D03*
X1042Y2682D03*
X1298Y2859D03*
X1042Y2859D03*
X1598Y961D03*
X1598Y1261D03*
X1473Y961D03*
X1473Y1261D03*
G54D15*
X2696Y2359D03*
G54D16*
X1248Y536D03*
X1248Y811D03*
G54D17*
X2648Y286D03*
X1448Y661D03*
G54D18*
X1398Y1761D03*
X2646Y2859D03*
X148Y1011D03*
G54D19*
X223Y2561D03*
G54D18*
X1898Y1011D03*
G54D20*
X2047Y1661D02*
X2774Y1661D01*
D02*
X2774Y1661D02*
X2774Y2311D01*
D02*
X2011Y1735D02*
X2047Y1661D01*
D02*
X2774Y2311D02*
X2722Y2343D01*
D02*
X1772Y2762D02*
X255Y2761D01*
D02*
X1071Y2682D02*
X1270Y2682D01*
D02*
X1829Y2837D02*
X1772Y2762D01*
G54D21*
D02*
X2674Y936D02*
X2674Y1386D01*
D02*
X2674Y1386D02*
X2198Y1386D01*
D02*
X2198Y1386D02*
X2198Y1334D01*
D02*
X2198Y937D02*
X2674Y936D01*
G54D22*
D02*
X2598Y2787D02*
X2633Y2840D01*
D02*
X2297Y2787D02*
X2333Y2840D01*
G54D20*
D02*
X2570Y1011D02*
X2527Y1011D01*
G54D22*
D02*
X2598Y2084D02*
X2598Y2787D01*
D02*
X2298Y2084D02*
X2297Y2787D01*
G54D21*
D02*
X2724Y886D02*
X2723Y1437D01*
D02*
X2723Y1437D02*
X2098Y1437D01*
D02*
X2098Y1437D02*
X2098Y1334D01*
D02*
X2348Y886D02*
X2724Y886D01*
D02*
X1324Y1536D02*
X1100Y1536D01*
D02*
X1484Y1743D02*
X1324Y1536D01*
D02*
X1100Y1536D02*
X1061Y1592D01*
G54D20*
D02*
X2470Y1011D02*
X2427Y1011D01*
G54D21*
D02*
X2264Y781D02*
X2348Y886D01*
G54D22*
D02*
X1848Y312D02*
X1848Y636D01*
D02*
X1748Y312D02*
X1748Y636D01*
D02*
X1648Y312D02*
X1648Y636D01*
G54D20*
D02*
X1548Y317D02*
X1548Y630D01*
G54D22*
D02*
X1448Y312D02*
X1448Y636D01*
D02*
X2698Y2084D02*
X2697Y2211D01*
D02*
X2697Y2211D02*
X2663Y2244D01*
G54D20*
D02*
X546Y2684D02*
X745Y2684D01*
D02*
X1270Y2859D02*
X1071Y2859D01*
G54D22*
D02*
X1373Y261D02*
X1373Y711D01*
D02*
X1430Y204D02*
X1373Y261D01*
D02*
X2648Y312D02*
X2648Y636D01*
D02*
X2548Y312D02*
X2548Y636D01*
D02*
X2448Y312D02*
X2448Y636D01*
D02*
X2348Y312D02*
X2348Y636D01*
D02*
X2248Y312D02*
X2248Y636D01*
D02*
X2148Y312D02*
X2148Y636D01*
G54D20*
D02*
X2048Y317D02*
X2048Y630D01*
G54D22*
D02*
X1948Y312D02*
X1948Y636D01*
D02*
X1373Y711D02*
X1427Y747D01*
D02*
X1499Y711D02*
X1530Y743D01*
D02*
X1499Y235D02*
X1499Y711D01*
D02*
X1699Y236D02*
X1699Y712D01*
D02*
X1699Y712D02*
X1667Y743D01*
D02*
X1797Y236D02*
X1797Y712D01*
D02*
X1797Y712D02*
X1766Y743D01*
D02*
X1766Y204D02*
X1797Y236D01*
D02*
X1666Y204D02*
X1699Y236D01*
D02*
X1530Y204D02*
X1499Y235D01*
D02*
X1898Y712D02*
X1866Y743D01*
D02*
X1898Y236D02*
X1898Y712D01*
D02*
X1999Y236D02*
X1999Y712D01*
D02*
X1999Y712D02*
X1967Y743D01*
D02*
X2199Y236D02*
X2199Y712D01*
D02*
X2199Y712D02*
X2167Y743D01*
D02*
X2297Y712D02*
X2266Y743D01*
D02*
X2166Y204D02*
X2199Y236D01*
D02*
X1966Y204D02*
X1999Y236D01*
D02*
X1866Y204D02*
X1898Y236D01*
D02*
X2297Y236D02*
X2297Y712D01*
D02*
X2398Y236D02*
X2398Y712D01*
D02*
X2398Y712D02*
X2366Y743D01*
D02*
X2499Y712D02*
X2467Y743D01*
D02*
X2499Y236D02*
X2499Y712D01*
D02*
X2597Y236D02*
X2597Y712D01*
D02*
X2597Y712D02*
X2566Y743D01*
D02*
X2466Y204D02*
X2499Y236D01*
D02*
X2366Y204D02*
X2398Y236D01*
D02*
X2266Y204D02*
X2297Y236D01*
D02*
X2399Y2787D02*
X2434Y2840D01*
D02*
X2722Y236D02*
X2722Y686D01*
D02*
X2722Y686D02*
X2666Y743D01*
D02*
X2669Y200D02*
X2722Y236D01*
D02*
X2566Y204D02*
X2597Y236D01*
D02*
X2398Y2084D02*
X2399Y2787D01*
D02*
X2098Y236D02*
X2098Y712D01*
D02*
X2098Y712D02*
X2066Y743D01*
D02*
X2066Y204D02*
X2098Y236D01*
G54D20*
D02*
X1981Y2084D02*
X1864Y2237D01*
D02*
X2398Y1040D02*
X2397Y1137D01*
D02*
X2397Y1137D02*
X1749Y1136D01*
D02*
X1749Y1136D02*
X1620Y1243D01*
G54D21*
D02*
X1522Y1837D02*
X1582Y1777D01*
D02*
X1247Y1837D02*
X1522Y1837D01*
D02*
X1248Y1634D02*
X1247Y1837D01*
D02*
X1148Y1862D02*
X1148Y1634D01*
D02*
X1599Y1862D02*
X1148Y1862D01*
D02*
X1682Y1778D02*
X1599Y1862D01*
D02*
X1749Y1712D02*
X1782Y1745D01*
G54D20*
D02*
X399Y2362D02*
X244Y2537D01*
D02*
X1772Y2362D02*
X399Y2362D01*
G54D21*
D02*
X1064Y1027D02*
X1749Y1712D01*
D02*
X1849Y1712D02*
X1164Y1027D01*
D02*
X1882Y1745D02*
X1849Y1712D01*
G54D20*
D02*
X1830Y2283D02*
X1772Y2362D01*
D02*
X2723Y2387D02*
X2723Y2935D01*
D02*
X2723Y2935D02*
X1620Y2936D01*
D02*
X1620Y2936D02*
X1566Y2880D01*
D02*
X2717Y2381D02*
X2723Y2387D01*
G54D22*
D02*
X2499Y2787D02*
X2534Y2840D01*
D02*
X2498Y2084D02*
X2499Y2787D01*
D02*
X2272Y913D02*
X2697Y913D01*
D02*
X2697Y913D02*
X2697Y1411D01*
D02*
X2697Y1411D02*
X2149Y1411D01*
D02*
X2149Y1411D02*
X2149Y1235D01*
D02*
X2149Y1235D02*
X1999Y1235D01*
D02*
X2164Y781D02*
X2272Y913D01*
G54D21*
D02*
X1823Y1212D02*
X2297Y1212D01*
D02*
X2747Y860D02*
X2748Y1462D01*
G54D22*
D02*
X2774Y1635D02*
X2773Y837D01*
D02*
X1999Y1235D02*
X1998Y1288D01*
G54D21*
D02*
X2748Y1462D02*
X1823Y1462D01*
D02*
X2297Y1212D02*
X2298Y1288D01*
D02*
X1823Y1462D02*
X1823Y1212D01*
G54D22*
D02*
X2773Y837D02*
X2598Y837D01*
G54D21*
D02*
X2424Y860D02*
X2747Y860D01*
D02*
X2364Y781D02*
X2424Y860D01*
G54D20*
D02*
X123Y2861D02*
X489Y2861D01*
D02*
X123Y2662D02*
X123Y2861D01*
D02*
X191Y2662D02*
X123Y2662D01*
G54D21*
D02*
X1372Y2861D02*
X1449Y2787D01*
D02*
X1449Y2787D02*
X1599Y2787D01*
D02*
X1599Y2787D02*
X1634Y2840D01*
D02*
X1327Y2860D02*
X1372Y2861D01*
G54D20*
D02*
X847Y2935D02*
X793Y2881D01*
D02*
X1497Y2935D02*
X847Y2935D01*
D02*
X1531Y2883D02*
X1497Y2935D01*
G54D22*
D02*
X1948Y1635D02*
X2774Y1635D01*
D02*
X1948Y2010D02*
X1948Y1635D01*
D02*
X2598Y837D02*
X2562Y782D01*
D02*
X1914Y2045D02*
X1948Y2010D01*
D02*
X149Y1110D02*
X148Y1034D01*
D02*
X1372Y937D02*
X997Y937D01*
D02*
X2047Y1085D02*
X1372Y1085D01*
D02*
X1372Y1085D02*
X1372Y937D01*
D02*
X997Y937D02*
X997Y1110D01*
D02*
X997Y1110D02*
X149Y1110D01*
D02*
X2085Y1030D02*
X2047Y1085D01*
G54D21*
D02*
X2447Y35D02*
X2448Y161D01*
D02*
X47Y35D02*
X2447Y35D01*
D02*
X47Y1686D02*
X47Y35D01*
D02*
X299Y1686D02*
X47Y1686D01*
D02*
X336Y1630D02*
X299Y1686D01*
D02*
X175Y1510D02*
X235Y1593D01*
D02*
X72Y1510D02*
X175Y1510D01*
D02*
X72Y60D02*
X72Y1510D01*
D02*
X1949Y63D02*
X72Y60D01*
D02*
X1948Y161D02*
X1949Y63D01*
G54D20*
D02*
X2007Y2034D02*
X2089Y1788D01*
G54D22*
D02*
X2697Y1837D02*
X2249Y1837D01*
D02*
X2698Y1784D02*
X2697Y1837D01*
D02*
X2198Y2410D02*
X2149Y2461D01*
D02*
X2198Y2160D02*
X2198Y2410D01*
D02*
X2249Y2112D02*
X2198Y2160D01*
D02*
X2249Y1837D02*
X2249Y2112D01*
D02*
X972Y2461D02*
X789Y2667D01*
D02*
X2149Y2461D02*
X972Y2461D01*
G54D21*
D02*
X1850Y86D02*
X447Y86D01*
D02*
X1849Y161D02*
X1850Y86D01*
D02*
X447Y86D02*
X448Y988D01*
G54D20*
D02*
X1454Y1240D02*
X1267Y1032D01*
G54D21*
D02*
X847Y185D02*
X848Y988D01*
D02*
X1423Y186D02*
X847Y185D01*
G54D22*
D02*
X1398Y1037D02*
X1398Y912D01*
D02*
X1398Y912D02*
X898Y912D01*
D02*
X1749Y1037D02*
X1398Y1037D01*
D02*
X1748Y787D02*
X1749Y1037D01*
D02*
X549Y1085D02*
X548Y1034D01*
D02*
X898Y1085D02*
X549Y1085D01*
D02*
X898Y912D02*
X898Y1085D01*
D02*
X1648Y113D02*
X648Y112D01*
D02*
X1648Y161D02*
X1648Y113D01*
D02*
X648Y112D02*
X648Y988D01*
G54D21*
D02*
X748Y137D02*
X748Y988D01*
D02*
X1549Y135D02*
X748Y137D01*
D02*
X1548Y161D02*
X1549Y135D01*
G54D20*
D02*
X1502Y1261D02*
X1570Y1261D01*
G54D22*
D02*
X1598Y938D02*
X1599Y712D01*
D02*
X1599Y712D02*
X1630Y680D01*
G54D20*
D02*
X1248Y555D02*
X1248Y792D01*
G54D21*
D02*
X2198Y937D02*
X2068Y785D01*
G54D20*
D02*
X745Y2861D02*
X546Y2861D01*
G04 End of Copper1*
M02*