G04 MADE WITH FRITZING*
G04 WWW.FRITZING.ORG*
G04 DOUBLE SIDED*
G04 HOLES PLATED*
G04 CONTOUR ON CENTER OF CONTOUR VECTOR*
%ASAXBY*%
%FSLAX23Y23*%
%MOIN*%
%OFA0B0*%
%SFA1.0B1.0*%
%ADD10C,0.084000*%
%ADD11C,0.085000*%
%ADD12C,0.092000*%
%ADD13C,0.080925*%
%ADD14C,0.080866*%
%ADD15C,0.088000*%
%ADD16C,0.049370*%
%ADD17R,0.084000X0.084000*%
%ADD18R,0.085000X0.085000*%
%ADD19R,0.092000X0.092000*%
%LNMASK0*%
G90*
G70*
G54D10*
X2648Y186D03*
X2548Y186D03*
X2448Y186D03*
X2348Y186D03*
X2248Y186D03*
X2148Y186D03*
X2048Y186D03*
X1948Y186D03*
X1848Y186D03*
X1748Y186D03*
X1648Y186D03*
X1548Y186D03*
X1448Y186D03*
X2648Y286D03*
X2548Y286D03*
X2448Y286D03*
X2348Y286D03*
X2248Y286D03*
X2148Y286D03*
X2048Y286D03*
X1948Y286D03*
X1848Y286D03*
X1748Y286D03*
X1648Y286D03*
X1548Y286D03*
X1448Y286D03*
X1448Y761D03*
X1548Y761D03*
X1648Y761D03*
X1748Y761D03*
X1848Y761D03*
X1948Y761D03*
X2048Y761D03*
X2148Y761D03*
X2248Y761D03*
X2348Y761D03*
X2448Y761D03*
X2548Y761D03*
X2648Y761D03*
X1448Y661D03*
X1548Y661D03*
X1648Y661D03*
X1748Y661D03*
X1848Y661D03*
X1948Y661D03*
X2048Y661D03*
X2148Y661D03*
X2248Y661D03*
X2348Y661D03*
X2448Y661D03*
X2548Y661D03*
X2648Y661D03*
G54D11*
X1398Y1761D03*
X1398Y2061D03*
X1498Y1761D03*
X1498Y2061D03*
X1598Y1761D03*
X1598Y2061D03*
X1698Y1761D03*
X1698Y2061D03*
X1798Y1761D03*
X1798Y2061D03*
X1898Y1761D03*
X1898Y2061D03*
X1998Y1761D03*
X1998Y2061D03*
X2098Y1761D03*
X2098Y2061D03*
X2198Y1761D03*
X2198Y2061D03*
X2298Y1761D03*
X2298Y2061D03*
X2398Y1761D03*
X2398Y2061D03*
X2498Y1761D03*
X2498Y2061D03*
X2598Y1761D03*
X2598Y2061D03*
X2698Y1761D03*
X2698Y2061D03*
X2646Y2859D03*
X2646Y2259D03*
X2546Y2859D03*
X2546Y2259D03*
X2446Y2859D03*
X2446Y2259D03*
X2346Y2859D03*
X2346Y2259D03*
X2246Y2859D03*
X2246Y2259D03*
X2146Y2859D03*
X2146Y2259D03*
X2046Y2859D03*
X2046Y2259D03*
X1946Y2859D03*
X1946Y2259D03*
X1846Y2859D03*
X1846Y2259D03*
X1746Y2859D03*
X1746Y2259D03*
X1646Y2859D03*
X1646Y2259D03*
X1546Y2859D03*
X1546Y2259D03*
X148Y1011D03*
X148Y1611D03*
X248Y1011D03*
X248Y1611D03*
X348Y1011D03*
X348Y1611D03*
X448Y1011D03*
X448Y1611D03*
X548Y1011D03*
X548Y1611D03*
X648Y1011D03*
X648Y1611D03*
X748Y1011D03*
X748Y1611D03*
X848Y1011D03*
X848Y1611D03*
X948Y1011D03*
X948Y1611D03*
X1048Y1011D03*
X1048Y1611D03*
X1148Y1011D03*
X1148Y1611D03*
X1248Y1011D03*
X1248Y1611D03*
G54D12*
X223Y2561D03*
X223Y2661D03*
X223Y2761D03*
G54D13*
X2241Y1561D03*
G54D14*
X2048Y1561D03*
G54D11*
X1898Y1011D03*
X1898Y1311D03*
X1998Y1011D03*
X1998Y1311D03*
X2098Y1011D03*
X2098Y1311D03*
X2198Y1011D03*
X2198Y1311D03*
X2298Y1011D03*
X2298Y1311D03*
X2398Y1011D03*
X2398Y1311D03*
X2498Y1011D03*
X2498Y1311D03*
X2598Y1011D03*
X2598Y1311D03*
X773Y2684D03*
X517Y2684D03*
X773Y2861D03*
X517Y2861D03*
X1298Y2682D03*
X1042Y2682D03*
X1298Y2859D03*
X1042Y2859D03*
X1598Y961D03*
X1598Y1261D03*
X1473Y961D03*
X1473Y1261D03*
G54D15*
X2696Y2359D03*
G54D16*
X1248Y536D03*
X1248Y811D03*
G54D17*
X2648Y286D03*
X1448Y661D03*
G54D18*
X1398Y1761D03*
X2646Y2859D03*
X148Y1011D03*
G54D19*
X223Y2561D03*
G54D18*
X1898Y1011D03*
G04 End of Mask0*
M02*