; NON-PLATED HOLES START AT T1
; THROUGH (PLATED) HOLES START AT T100
M48
INCH
T100C0.015748
T101C0.035000
T102C0.042000
T103C0.031496
T104C0.038000
T105C0.040000
T106C0.031555
%
T100
X012481Y005361
X012481Y008111
T101
X005172Y028611
X002481Y016111
X011481Y016111
X019463Y028594
X015463Y022594
X024981Y010111
X009481Y010111
X024463Y022594
X022981Y013111
X021981Y017611
X005481Y016111
X020463Y028594
X012981Y026818
X001481Y010111
X021981Y020611
X018981Y010111
X010481Y010111
X018463Y022594
X015981Y017611
X025981Y013111
X024981Y017611
X008481Y016111
X023463Y028594
X015981Y020611
X004481Y010111
X024981Y020611
X019981Y013111
X018981Y017611
X017463Y028594
X026463Y028594
X018981Y020611
X022981Y010111
X007481Y010111
X022463Y022594
X020981Y013111
X003481Y016111
X012481Y016111
X010422Y028589
X016463Y022594
X025981Y010111
X025463Y022594
X013981Y017611
X023981Y013111
X022981Y017611
X006481Y016111
X021463Y028594
X013981Y020611
X002481Y010111
X022981Y020611
X007731Y026839
X019981Y010111
X011481Y010111
X019463Y022594
X016981Y017611
X015981Y009611
X015463Y028594
X025981Y017611
X009481Y016111
X024463Y028594
X016981Y020611
X015981Y012611
X007731Y028611
X012981Y028589
X020981Y010111
X005481Y010111
X020463Y022594
X025981Y020611
X001481Y016111
X019981Y017611
X010481Y016111
X018463Y028594
X019981Y020611
X023981Y010111
X008481Y010111
X023463Y022594
X021981Y013111
X020981Y017611
X004481Y016111
X020981Y020611
X017463Y022594
X026463Y022594
X014981Y017611
X024981Y013111
X023981Y017611
X007481Y016111
X014981Y020611
X022463Y028594
X014731Y009611
X003481Y010111
X023981Y020611
X012481Y010111
X014731Y012611
X005172Y026839
X018981Y013111
X017981Y017611
X016463Y028594
X026981Y017611
X010422Y026818
X025463Y028594
X017981Y020611
X021981Y010111
X006481Y010111
X021463Y022594
X026981Y020611
T102
X002231Y027611
X002231Y025611
X002231Y026611
T103
X020481Y015611
T104
X026963Y023594
T105
X025481Y002861
X023481Y007611
X021481Y007611
X026481Y007611
X024481Y007611
X022481Y007611
X020481Y007611
X025481Y007611
X014481Y001861
X016481Y001861
X018481Y001861
X015481Y001861
X017481Y001861
X019481Y001861
X018481Y006611
X016481Y006611
X014481Y006611
X021481Y001861
X023481Y001861
X019481Y006611
X017481Y006611
X015481Y006611
X020481Y001861
X022481Y001861
X024481Y001861
X026481Y001861
X025481Y001861
X014481Y002861
X016481Y002861
X018481Y002861
X023481Y006611
X021481Y006611
X015481Y002861
X017481Y002861
X019481Y002861
X026481Y006611
X024481Y006611
X022481Y006611
X020481Y006611
X025481Y006611
X018481Y007611
X016481Y007611
X014481Y007611
X021481Y002861
X023481Y002861
X019481Y007611
X017481Y007611
X015481Y007611
X020481Y002861
X022481Y002861
X024481Y002861
X026481Y002861
T106
X022412Y015611
T00
M30
