G04 MADE WITH FRITZING*
G04 WWW.FRITZING.ORG*
G04 DOUBLE SIDED*
G04 HOLES PLATED*
G04 CONTOUR ON CENTER OF CONTOUR VECTOR*
%ASAXBY*%
%FSLAX23Y23*%
%MOIN*%
%OFA0B0*%
%SFA1.0B1.0*%
%ADD10C,0.084000*%
%ADD11C,0.210000*%
%ADD12C,0.077559*%
%ADD13R,0.077559X0.077559*%
%ADD14R,0.001000X0.001000*%
%LNMASK1*%
G90*
G70*
G54D10*
X844Y226D03*
X735Y226D03*
X626Y226D03*
X517Y226D03*
X407Y226D03*
X789Y114D03*
X680Y114D03*
X571Y114D03*
X462Y114D03*
G54D11*
X1118Y170D03*
X133Y170D03*
G54D10*
X844Y226D03*
X735Y226D03*
X626Y226D03*
X517Y226D03*
X407Y226D03*
X789Y114D03*
X680Y114D03*
X571Y114D03*
X462Y114D03*
G54D11*
X1118Y170D03*
X133Y170D03*
G54D12*
X967Y776D03*
X967Y476D03*
X867Y776D03*
X867Y476D03*
X767Y776D03*
X767Y476D03*
X667Y776D03*
X667Y476D03*
X567Y776D03*
X567Y476D03*
X467Y776D03*
X467Y476D03*
X367Y776D03*
X367Y476D03*
X267Y776D03*
X267Y476D03*
G54D13*
X966Y776D03*
G54D14*
X801Y268D02*
X884Y268D01*
X801Y267D02*
X884Y267D01*
X801Y266D02*
X884Y266D01*
X801Y265D02*
X884Y265D01*
X801Y264D02*
X884Y264D01*
X801Y263D02*
X884Y263D01*
X801Y262D02*
X884Y262D01*
X801Y261D02*
X884Y261D01*
X801Y260D02*
X884Y260D01*
X801Y259D02*
X884Y259D01*
X801Y258D02*
X884Y258D01*
X801Y257D02*
X884Y257D01*
X801Y256D02*
X884Y256D01*
X801Y255D02*
X884Y255D01*
X801Y254D02*
X884Y254D01*
X801Y253D02*
X884Y253D01*
X801Y252D02*
X884Y252D01*
X801Y251D02*
X884Y251D01*
X801Y250D02*
X884Y250D01*
X801Y249D02*
X884Y249D01*
X801Y248D02*
X884Y248D01*
X801Y247D02*
X884Y247D01*
X801Y246D02*
X884Y246D01*
X801Y245D02*
X884Y245D01*
X801Y244D02*
X884Y244D01*
X801Y243D02*
X884Y243D01*
X801Y242D02*
X884Y242D01*
X801Y241D02*
X837Y241D01*
X848Y241D02*
X884Y241D01*
X801Y240D02*
X835Y240D01*
X851Y240D02*
X884Y240D01*
X801Y239D02*
X833Y239D01*
X853Y239D02*
X884Y239D01*
X801Y238D02*
X832Y238D01*
X854Y238D02*
X884Y238D01*
X801Y237D02*
X831Y237D01*
X855Y237D02*
X884Y237D01*
X801Y236D02*
X830Y236D01*
X856Y236D02*
X884Y236D01*
X801Y235D02*
X830Y235D01*
X856Y235D02*
X884Y235D01*
X801Y234D02*
X829Y234D01*
X857Y234D02*
X884Y234D01*
X801Y233D02*
X829Y233D01*
X857Y233D02*
X884Y233D01*
X801Y232D02*
X828Y232D01*
X858Y232D02*
X884Y232D01*
X801Y231D02*
X828Y231D01*
X858Y231D02*
X884Y231D01*
X801Y230D02*
X828Y230D01*
X858Y230D02*
X884Y230D01*
X801Y229D02*
X828Y229D01*
X858Y229D02*
X884Y229D01*
X801Y228D02*
X827Y228D01*
X858Y228D02*
X884Y228D01*
X801Y227D02*
X827Y227D01*
X858Y227D02*
X884Y227D01*
X801Y226D02*
X827Y226D01*
X858Y226D02*
X884Y226D01*
X801Y225D02*
X827Y225D01*
X858Y225D02*
X884Y225D01*
X801Y224D02*
X828Y224D01*
X858Y224D02*
X884Y224D01*
X801Y223D02*
X828Y223D01*
X858Y223D02*
X884Y223D01*
X801Y222D02*
X828Y222D01*
X858Y222D02*
X884Y222D01*
X801Y221D02*
X828Y221D01*
X857Y221D02*
X884Y221D01*
X801Y220D02*
X829Y220D01*
X857Y220D02*
X884Y220D01*
X801Y219D02*
X829Y219D01*
X857Y219D02*
X884Y219D01*
X801Y218D02*
X830Y218D01*
X856Y218D02*
X884Y218D01*
X801Y217D02*
X830Y217D01*
X855Y217D02*
X884Y217D01*
X801Y216D02*
X831Y216D01*
X854Y216D02*
X884Y216D01*
X801Y215D02*
X832Y215D01*
X853Y215D02*
X884Y215D01*
X801Y214D02*
X834Y214D01*
X852Y214D02*
X884Y214D01*
X801Y213D02*
X836Y213D01*
X850Y213D02*
X884Y213D01*
X801Y212D02*
X839Y212D01*
X847Y212D02*
X884Y212D01*
X801Y211D02*
X884Y211D01*
X801Y210D02*
X884Y210D01*
X801Y209D02*
X884Y209D01*
X801Y208D02*
X884Y208D01*
X801Y207D02*
X884Y207D01*
X801Y206D02*
X884Y206D01*
X801Y205D02*
X884Y205D01*
X801Y204D02*
X884Y204D01*
X801Y203D02*
X884Y203D01*
X801Y202D02*
X884Y202D01*
X801Y201D02*
X884Y201D01*
X801Y200D02*
X884Y200D01*
X801Y199D02*
X884Y199D01*
X801Y198D02*
X884Y198D01*
X801Y197D02*
X884Y197D01*
X801Y196D02*
X884Y196D01*
X801Y195D02*
X884Y195D01*
X801Y194D02*
X884Y194D01*
X801Y193D02*
X884Y193D01*
X801Y192D02*
X884Y192D01*
X801Y191D02*
X884Y191D01*
X801Y190D02*
X884Y190D01*
X801Y189D02*
X884Y189D01*
X801Y188D02*
X884Y188D01*
X801Y187D02*
X884Y187D01*
X801Y186D02*
X884Y186D01*
X802Y185D02*
X884Y185D01*
D02*
G04 End of Mask1*
M02*