M48
INCH
T10C0.040000
T11C0.130000
T12C0.027559
%
T10
X004621Y001144
X005712Y001144
X006798Y001144
X007889Y001144
X004074Y002262
X005165Y002262
X006255Y002262
X007346Y002262
X008436Y002262
T11
X001334Y001703
X011176Y001703
T12
X002665Y004762
X002665Y007762
X003665Y004762
X003665Y007762
X004665Y004762
X004665Y007762
X005665Y004762
X005665Y007762
X006665Y004762
X006665Y007762
X007665Y004762
X007665Y007762
X008665Y004762
X008665Y007762
X009665Y004762
X009665Y007762
T00
M30
