G04 MADE WITH FRITZING*
G04 WWW.FRITZING.ORG*
G04 DOUBLE SIDED*
G04 HOLES PLATED*
G04 CONTOUR ON CENTER OF CONTOUR VECTOR*
%ASAXBY*%
%FSLAX23Y23*%
%MOIN*%
%OFA0B0*%
%SFA1.0B1.0*%
%ADD10C,0.074000*%
%ADD11C,0.200000*%
%ADD12C,0.067559*%
%ADD13R,0.067559X0.067559*%
%ADD14C,0.024000*%
%ADD15R,0.001000X0.001000*%
%LNCOPPER1*%
G90*
G70*
G54D10*
X844Y226D03*
X735Y226D03*
X626Y226D03*
X517Y226D03*
X407Y226D03*
X789Y114D03*
X680Y114D03*
X571Y114D03*
X462Y114D03*
G54D11*
X1118Y170D03*
X133Y170D03*
G54D10*
X844Y226D03*
X735Y226D03*
X626Y226D03*
X517Y226D03*
X407Y226D03*
X789Y114D03*
X680Y114D03*
X571Y114D03*
X462Y114D03*
G54D11*
X1118Y170D03*
X133Y170D03*
G54D12*
X967Y776D03*
X967Y476D03*
X867Y776D03*
X867Y476D03*
X767Y776D03*
X767Y476D03*
X667Y776D03*
X667Y476D03*
X567Y776D03*
X567Y476D03*
X467Y776D03*
X467Y476D03*
X367Y776D03*
X367Y476D03*
X267Y776D03*
X267Y476D03*
G54D13*
X966Y776D03*
G54D14*
X1117Y775D02*
X991Y776D01*
D02*
X1117Y327D02*
X1117Y775D01*
D02*
X567Y327D02*
X1117Y327D01*
D02*
X530Y254D02*
X567Y327D01*
D02*
X267Y27D02*
X267Y376D01*
D02*
X615Y27D02*
X267Y27D01*
D02*
X267Y376D02*
X349Y459D01*
D02*
X661Y89D02*
X615Y27D01*
D02*
X516Y376D02*
X1066Y376D01*
D02*
X1066Y376D02*
X1066Y676D01*
D02*
X1066Y676D02*
X867Y676D01*
D02*
X867Y676D02*
X784Y759D01*
D02*
X426Y251D02*
X516Y376D01*
G54D15*
X806Y263D02*
X879Y263D01*
X806Y262D02*
X879Y262D01*
X806Y261D02*
X879Y261D01*
X806Y260D02*
X879Y260D01*
X806Y259D02*
X879Y259D01*
X806Y258D02*
X879Y258D01*
X806Y257D02*
X879Y257D01*
X806Y256D02*
X879Y256D01*
X806Y255D02*
X879Y255D01*
X806Y254D02*
X879Y254D01*
X806Y253D02*
X879Y253D01*
X806Y252D02*
X879Y252D01*
X806Y251D02*
X879Y251D01*
X806Y250D02*
X879Y250D01*
X806Y249D02*
X879Y249D01*
X806Y248D02*
X879Y248D01*
X806Y247D02*
X879Y247D01*
X806Y246D02*
X837Y246D01*
X849Y246D02*
X879Y246D01*
X806Y245D02*
X834Y245D01*
X851Y245D02*
X879Y245D01*
X806Y244D02*
X832Y244D01*
X853Y244D02*
X879Y244D01*
X806Y243D02*
X831Y243D01*
X855Y243D02*
X879Y243D01*
X806Y242D02*
X830Y242D01*
X856Y242D02*
X879Y242D01*
X806Y241D02*
X828Y241D01*
X857Y241D02*
X879Y241D01*
X806Y240D02*
X827Y240D01*
X858Y240D02*
X879Y240D01*
X806Y239D02*
X827Y239D01*
X859Y239D02*
X879Y239D01*
X806Y238D02*
X826Y238D01*
X860Y238D02*
X879Y238D01*
X806Y237D02*
X825Y237D01*
X861Y237D02*
X879Y237D01*
X806Y236D02*
X825Y236D01*
X861Y236D02*
X879Y236D01*
X806Y235D02*
X824Y235D01*
X862Y235D02*
X879Y235D01*
X806Y234D02*
X824Y234D01*
X862Y234D02*
X879Y234D01*
X806Y233D02*
X823Y233D01*
X862Y233D02*
X879Y233D01*
X806Y232D02*
X823Y232D01*
X863Y232D02*
X879Y232D01*
X806Y231D02*
X823Y231D01*
X863Y231D02*
X879Y231D01*
X806Y230D02*
X823Y230D01*
X863Y230D02*
X879Y230D01*
X806Y229D02*
X823Y229D01*
X863Y229D02*
X879Y229D01*
X806Y228D02*
X822Y228D01*
X863Y228D02*
X879Y228D01*
X806Y227D02*
X822Y227D01*
X863Y227D02*
X879Y227D01*
X806Y226D02*
X822Y226D01*
X863Y226D02*
X879Y226D01*
X806Y225D02*
X822Y225D01*
X863Y225D02*
X879Y225D01*
X806Y224D02*
X823Y224D01*
X863Y224D02*
X879Y224D01*
X806Y223D02*
X823Y223D01*
X863Y223D02*
X879Y223D01*
X806Y222D02*
X823Y222D01*
X863Y222D02*
X879Y222D01*
X806Y221D02*
X823Y221D01*
X863Y221D02*
X879Y221D01*
X806Y220D02*
X824Y220D01*
X862Y220D02*
X879Y220D01*
X806Y219D02*
X824Y219D01*
X862Y219D02*
X879Y219D01*
X806Y218D02*
X824Y218D01*
X861Y218D02*
X879Y218D01*
X806Y217D02*
X825Y217D01*
X861Y217D02*
X879Y217D01*
X806Y216D02*
X825Y216D01*
X860Y216D02*
X879Y216D01*
X806Y215D02*
X826Y215D01*
X860Y215D02*
X879Y215D01*
X806Y214D02*
X827Y214D01*
X859Y214D02*
X879Y214D01*
X806Y213D02*
X828Y213D01*
X858Y213D02*
X879Y213D01*
X806Y212D02*
X829Y212D01*
X857Y212D02*
X879Y212D01*
X806Y211D02*
X830Y211D01*
X856Y211D02*
X879Y211D01*
X806Y210D02*
X831Y210D01*
X854Y210D02*
X879Y210D01*
X806Y209D02*
X833Y209D01*
X853Y209D02*
X879Y209D01*
X806Y208D02*
X835Y208D01*
X850Y208D02*
X879Y208D01*
X806Y207D02*
X839Y207D01*
X847Y207D02*
X879Y207D01*
X806Y206D02*
X879Y206D01*
X806Y205D02*
X879Y205D01*
X806Y204D02*
X879Y204D01*
X806Y203D02*
X879Y203D01*
X806Y202D02*
X879Y202D01*
X806Y201D02*
X879Y201D01*
X806Y200D02*
X879Y200D01*
X806Y199D02*
X879Y199D01*
X806Y198D02*
X879Y198D01*
X806Y197D02*
X879Y197D01*
X806Y196D02*
X879Y196D01*
X806Y195D02*
X879Y195D01*
X806Y194D02*
X879Y194D01*
X806Y193D02*
X879Y193D01*
X806Y192D02*
X879Y192D01*
X806Y191D02*
X879Y191D01*
X807Y190D02*
X879Y190D01*
D02*
G04 End of Copper1*
M02*